<?xml version="1.0" standalone="no"?>
<!DOCTYPE svg PUBLIC "-//W3C//DTD SVG 1.1//EN" "http://www.w3.org/Graphics/SVG/1.1/DTD/svg11.dtd" >
<svg xmlns="http://www.w3.org/2000/svg">
<defs>
  <font id="FluxIcons" horiz-adv-x="1000">
    <font-face font-family="FluxIcons"
      units-per-em="1000" ascent="1000"
      descent="0" />
    <missing-glyph horiz-adv-x="0" />
    <glyph glyph-name="activity-2"
      unicode="&#xEA01;"
      horiz-adv-x="1000" d="M281.4583333333334 739.5833333333334C239.4583333333334 613.125 196.7916666666667 558.7083333333334 132.1666666666667 549.1666666666667C-3.2499999999999 529.25 23.0833333333334 458.3333333333334 165.875 458.3333333333334C263.6250000000001 458.3333333333334 295.6666666666667 480.5416666666666 316.2083333333334 562.5C330.5833333333334 619.7916666666667 355.3750000000001 666.6666666666667 371.3333333333335 666.6666666666667C387.2500000000001 666.6666666666667 442.5416666666668 535.4166666666667 494.2083333333334 375C545.875 214.5833333333334 604.25 83.3333333333334 623.9166666666667 83.3333333333334C643.625 83.3333333333334 686.2083333333335 163 718.5416666666667 260.4166666666668C760.5416666666667 386.875 803.2083333333335 441.2916666666667 867.8333333333333 450.8333333333334C1003.25 470.75 976.9166666666669 541.6666666666667 834.125 541.6666666666667C736.375 541.6666666666667 704.3333333333333 519.4583333333334 683.7916666666667 437.5C669.4166666666667 380.2083333333334 644.625 333.3333333333334 628.6666666666667 333.3333333333334C612.75 333.3333333333334 557.4583333333333 464.5833333333334 505.7916666666667 625C454.125 785.4166666666666 395.75 916.6666666666666 376.0833333333334 916.6666666666666C356.3750000000001 916.6666666666666 313.7916666666667 837 281.4583333333334 739.5833333333334" />
    <glyph glyph-name="activity-heart"
      unicode="&#xEA02;"
      horiz-adv-x="1000" d="M281.4583333333334 739.5833333333334C239.4583333333334 613.125 196.7916666666667 558.7083333333334 132.1666666666667 549.1666666666667C-3.2499999999999 529.25 23.0833333333334 458.3333333333334 165.875 458.3333333333334C263.6250000000001 458.3333333333334 295.6666666666667 480.5416666666666 316.2083333333334 562.5C330.5833333333334 619.7916666666667 355.3750000000001 666.6666666666667 371.3333333333335 666.6666666666667C387.2500000000001 666.6666666666667 442.5416666666668 535.4166666666667 494.2083333333334 375C545.875 214.5833333333334 604.25 83.3333333333334 623.9166666666667 83.3333333333334C643.625 83.3333333333334 686.2083333333335 163 718.5416666666667 260.4166666666668C760.5416666666667 386.875 803.2083333333335 441.2916666666667 867.8333333333333 450.8333333333334C1003.25 470.75 976.9166666666669 541.6666666666667 834.125 541.6666666666667C736.375 541.6666666666667 704.3333333333333 519.4583333333334 683.7916666666667 437.5C669.4166666666667 380.2083333333334 644.625 333.3333333333334 628.6666666666667 333.3333333333334C612.75 333.3333333333334 557.4583333333333 464.5833333333334 505.7916666666667 625C454.125 785.4166666666666 395.75 916.6666666666666 376.0833333333334 916.6666666666666C356.3750000000001 916.6666666666666 313.7916666666667 837 281.4583333333334 739.5833333333334" />
    <glyph glyph-name="activity"
      unicode="&#xEA03;"
      horiz-adv-x="1000" d="M281.4583333333334 739.5833333333334C239.4583333333334 613.125 196.7916666666667 558.7083333333334 132.1666666666667 549.1666666666667C-3.2499999999999 529.25 23.0833333333334 458.3333333333334 165.875 458.3333333333334C263.6250000000001 458.3333333333334 295.6666666666667 480.5416666666666 316.2083333333334 562.5C330.5833333333334 619.7916666666667 355.3750000000001 666.6666666666667 371.3333333333335 666.6666666666667C387.2500000000001 666.6666666666667 442.5416666666668 535.4166666666667 494.2083333333334 375C545.875 214.5833333333334 604.25 83.3333333333334 623.9166666666667 83.3333333333334C643.625 83.3333333333334 686.2083333333335 163 718.5416666666667 260.4166666666668C760.5416666666667 386.875 803.2083333333335 441.2916666666667 867.8333333333333 450.8333333333334C1003.25 470.75 976.9166666666669 541.6666666666667 834.125 541.6666666666667C736.375 541.6666666666667 704.3333333333333 519.4583333333334 683.7916666666667 437.5C669.4166666666667 380.2083333333334 644.625 333.3333333333334 628.6666666666667 333.3333333333334C612.75 333.3333333333334 557.4583333333333 464.5833333333334 505.7916666666667 625C454.125 785.4166666666666 395.75 916.6666666666666 376.0833333333334 916.6666666666666C356.3750000000001 916.6666666666666 313.7916666666667 837 281.4583333333334 739.5833333333334" />
    <glyph glyph-name="airplay"
      unicode="&#xEA04;"
      horiz-adv-x="1000" d="M67.5425705840729 861.6666666666667C55.2925705840729 829.7916666666667 50.9592372507395 683.8333333333334 57.8759039174062 537.2916666666667C69.1675705840729 297.1666666666668 79.6675705840729 269.5 164.1675705840729 257.5C215.7509039174062 250.2083333333334 257.9175705840729 264.25 257.9175705840729 288.75C257.9175705840729 313.2916666666667 229.7925705840729 333.3333333333334 195.4175705840729 333.3333333333334C146.7925705840729 333.3333333333334 132.9175705840729 388.875 132.9175705840729 583.3333333333334L132.9175705840729 833.3333333333334L507.9175705840728 833.3333333333334L882.9175705840729 833.3333333333334L882.9175705840729 583.3333333333334C882.9175705840729 388.875 869.0425705840729 333.3333333333334 820.4175705840729 333.3333333333334C786.0425705840729 333.3333333333334 757.9175705840729 313.2916666666667 757.9175705840729 288.75C757.9175705840729 264.25 800.0842372507395 250.2083333333334 851.6675705840729 257.5C939.3759039174062 269.9583333333334 945.417570584073 291.0000000000001 945.417570584073 583.3333333333334L945.417570584073 895.8333333333334L517.5842372507395 907.7083333333334C182.5009039174062 917.0416666666666 84.9592372507395 907.0416666666666 67.5425705840729 861.6666666666667M364.2092372507395 277.3333333333334C305.7509039174062 200.6666666666666 257.9175705840729 125.6666666666666 257.9175705840729 110.6666666666666C257.9175705840729 95.6250000000001 370.4175705840728 83.3333333333334 507.9175705840728 83.3333333333334C645.4175705840729 83.3333333333334 757.9175705840729 95.6250000000001 757.9175705840729 110.6666666666666C757.9175705840729 158.375 546.9175705840729 416.6666666666668 507.9175705840728 416.6666666666668C487.3342372507395 416.6666666666668 422.6675705840729 353.9583333333334 364.2092372507395 277.3333333333334M451.1675705840728 229.1666666666668C434.9592372507396 186.875 453.2925705840728 166.6666666666668 507.9175705840728 166.6666666666668C562.5425705840729 166.6666666666668 580.8759039174062 186.875 564.6675705840729 229.1666666666668C551.4592372507395 263.5416666666667 525.9175705840729 291.6666666666668 507.9175705840728 291.6666666666668C489.9175705840728 291.6666666666668 464.3759039174062 263.5416666666667 451.1675705840728 229.1666666666668" />
    <glyph glyph-name="alarm-check"
      unicode="&#xEA05;"
      horiz-adv-x="1000" d="M103.9166666666667 833.0833333333334C62.3333333333334 787.0833333333334 40.5416666666667 737.2083333333333 55.5416666666667 722.2083333333334C85.9583333333334 691.8333333333334 250.0000000000001 826.2083333333334 250.0000000000001 881.4583333333334C250.0000000000001 942.2916666666666 182.5416666666668 919.9583333333334 103.9166666666667 833.0833333333334M750.0000000000001 881.4583333333334C750.0000000000001 826.2083333333334 914.0416666666669 691.8333333333334 944.4583333333334 722.2083333333334C959.4583333333334 737.2083333333333 937.6666666666669 787.0833333333334 896.0833333333334 833.0833333333334C817.4583333333334 919.9583333333334 750.0000000000001 942.2916666666666 750.0000000000001 881.4583333333334M246.7916666666668 711.5416666666667C122.2083333333334 586.9583333333334 88.3750000000001 414.0833333333334 164.9166666666668 293.0833333333334C189.5000000000001 254.1666666666668 187.1250000000001 212.1666666666666 158.3333333333334 177.4583333333334C102.3750000000001 110.0416666666666 151.2500000000001 51.2500000000001 212.4583333333334 112.4583333333335C243.8750000000001 143.875 292.3750000000001 143.4166666666668 378.4166666666668 110.9583333333334C466.9166666666667 77.5416666666667 533.0833333333335 77.5416666666667 621.5833333333334 110.9583333333334C707.6250000000001 143.4166666666668 756.125 143.875 787.5416666666667 112.4583333333335C848.7500000000001 51.2500000000001 897.625 110.0416666666666 841.6666666666667 177.4583333333334C812.8750000000001 212.1666666666666 810.5000000000001 254.1666666666668 835.0833333333335 293.0833333333334C911.6250000000002 414.0833333333334 877.7916666666667 586.9583333333334 753.2083333333335 711.5416666666667C589.4583333333334 875.2916666666667 410.5416666666667 875.2916666666667 246.7916666666668 711.5416666666667M310.6250000000001 647.7083333333334C254.3750000000001 591.4583333333334 208.3333333333334 506.2500000000001 208.3333333333334 458.3333333333334C208.3333333333334 345.9166666666668 387.5833333333334 166.6666666666668 500.0000000000001 166.6666666666668C612.4166666666667 166.6666666666668 791.6666666666667 345.9166666666668 791.6666666666667 458.3333333333334C791.6666666666667 570.75 612.4166666666667 750 500.0000000000001 750C452.0833333333334 750 366.875 703.9583333333333 310.6250000000001 647.7083333333334M540.8750000000001 519.875C510.5000000000001 483.2500000000001 455.5000000000001 466.8333333333334 410.7916666666667 481.0416666666667C317.1250000000001 510.75 308.9583333333334 447.0833333333334 397.0416666666667 374.0000000000001C449.9166666666667 330.125 478.3333333333334 337.5833333333334 563.7083333333334 417.8333333333334C620.3333333333334 471 666.6666666666667 530 666.6666666666667 548.9166666666667C666.6666666666667 604.4166666666667 597.8333333333335 588.5 540.8750000000001 519.875" />
    <glyph glyph-name="alarm-minus"
      unicode="&#xEA06;"
      horiz-adv-x="1000" d="M103.9166666666667 833.0833333333334C62.3333333333334 787.0833333333334 40.5416666666667 737.2083333333333 55.5416666666667 722.2083333333334C85.9583333333334 691.8333333333334 250.0000000000001 826.2083333333334 250.0000000000001 881.4583333333334C250.0000000000001 942.2916666666666 182.5416666666668 919.9583333333334 103.9166666666667 833.0833333333334M750.0000000000001 881.4583333333334C750.0000000000001 826.2083333333334 914.0416666666669 691.8333333333334 944.4583333333334 722.2083333333334C959.4583333333334 737.2083333333333 937.6666666666669 787.0833333333334 896.0833333333334 833.0833333333334C817.4583333333334 919.9583333333334 750.0000000000001 942.2916666666666 750.0000000000001 881.4583333333334M246.7916666666668 711.5416666666667C122.2083333333334 586.9583333333334 88.3750000000001 414.0833333333334 164.9166666666668 293.0833333333334C189.5000000000001 254.1666666666668 187.1250000000001 212.1666666666666 158.3333333333334 177.4583333333334C102.3750000000001 110.0416666666666 151.2500000000001 51.2500000000001 212.4583333333334 112.4583333333335C243.8750000000001 143.875 292.3750000000001 143.4166666666668 378.4166666666668 110.9583333333334C466.9166666666667 77.5416666666667 533.0833333333335 77.5416666666667 621.5833333333334 110.9583333333334C707.6250000000001 143.4166666666668 756.125 143.875 787.5416666666667 112.4583333333335C848.7500000000001 51.2500000000001 897.625 110.0416666666666 841.6666666666667 177.4583333333334C812.8750000000001 212.1666666666666 810.5000000000001 254.1666666666668 835.0833333333335 293.0833333333334C911.6250000000002 414.0833333333334 877.7916666666667 586.9583333333334 753.2083333333335 711.5416666666667C589.4583333333334 875.2916666666667 410.5416666666667 875.2916666666667 246.7916666666668 711.5416666666667M310.6250000000001 647.7083333333334C254.3750000000001 591.4583333333334 208.3333333333334 506.2500000000001 208.3333333333334 458.3333333333334C208.3333333333334 345.9166666666668 387.5833333333334 166.6666666666668 500.0000000000001 166.6666666666668C612.4166666666667 166.6666666666668 791.6666666666667 345.9166666666668 791.6666666666667 458.3333333333334C791.6666666666667 570.75 612.4166666666667 750 500.0000000000001 750C452.0833333333334 750 366.875 703.9583333333333 310.6250000000001 647.7083333333334M333.3333333333334 458.3333333333334C333.3333333333334 435.4166666666667 408.3333333333334 416.6666666666668 500.0000000000001 416.6666666666668C591.6666666666667 416.6666666666668 666.6666666666667 435.4166666666667 666.6666666666667 458.3333333333334C666.6666666666667 481.2500000000001 591.6666666666667 500 500.0000000000001 500C408.3333333333334 500 333.3333333333334 481.2500000000001 333.3333333333334 458.3333333333334" />
    <glyph glyph-name="alarm-plus"
      unicode="&#xEA07;"
      horiz-adv-x="1000" d="M103.9166666666667 833.0833333333334C62.3333333333334 787.0833333333334 40.5416666666667 737.2083333333333 55.5416666666667 722.2083333333334C85.9583333333334 691.8333333333334 250.0000000000001 826.2083333333334 250.0000000000001 881.4583333333334C250.0000000000001 942.2916666666666 182.5416666666668 919.9583333333334 103.9166666666667 833.0833333333334M750.0000000000001 881.4583333333334C750.0000000000001 826.2083333333334 914.0416666666669 691.8333333333334 944.4583333333334 722.2083333333334C959.4583333333334 737.2083333333333 937.6666666666669 787.0833333333334 896.0833333333334 833.0833333333334C817.4583333333334 919.9583333333334 750.0000000000001 942.2916666666666 750.0000000000001 881.4583333333334M246.7916666666668 711.5416666666667C122.2083333333334 586.9583333333334 88.3750000000001 414.0833333333334 164.9166666666668 293.0833333333334C189.5000000000001 254.1666666666668 187.1250000000001 212.1666666666666 158.3333333333334 177.4583333333334C102.3750000000001 110.0416666666666 151.2500000000001 51.2500000000001 212.4583333333334 112.4583333333335C243.8750000000001 143.875 292.3750000000001 143.4166666666668 378.4166666666668 110.9583333333334C466.9166666666667 77.5416666666667 533.0833333333335 77.5416666666667 621.5833333333334 110.9583333333334C707.6250000000001 143.4166666666668 756.125 143.875 787.5416666666667 112.4583333333335C848.7500000000001 51.2500000000001 897.625 110.0416666666666 841.6666666666667 177.4583333333334C812.8750000000001 212.1666666666666 810.5000000000001 254.1666666666668 835.0833333333335 293.0833333333334C911.6250000000002 414.0833333333334 877.7916666666667 586.9583333333334 753.2083333333335 711.5416666666667C589.4583333333334 875.2916666666667 410.5416666666667 875.2916666666667 246.7916666666668 711.5416666666667M310.6250000000001 647.7083333333334C254.3750000000001 591.4583333333334 208.3333333333334 506.2500000000001 208.3333333333334 458.3333333333334C208.3333333333334 345.9166666666668 387.5833333333334 166.6666666666668 500.0000000000001 166.6666666666668C612.4166666666667 166.6666666666668 791.6666666666667 345.9166666666668 791.6666666666667 458.3333333333334C791.6666666666667 570.75 612.4166666666667 750 500.0000000000001 750C452.0833333333334 750 366.875 703.9583333333333 310.6250000000001 647.7083333333334M458.3333333333334 562.5C458.3333333333334 528.125 430.2083333333333 500 395.8333333333334 500C361.4583333333334 500 333.3333333333334 481.2500000000001 333.3333333333334 458.3333333333334C333.3333333333334 435.4166666666667 361.4583333333334 416.6666666666668 395.8333333333334 416.6666666666668C430.2083333333333 416.6666666666668 458.3333333333334 388.5416666666667 458.3333333333334 354.1666666666668C458.3333333333334 319.7916666666668 477.0833333333333 291.6666666666668 500.0000000000001 291.6666666666668C522.9166666666667 291.6666666666668 541.6666666666667 319.7916666666668 541.6666666666667 354.1666666666668C541.6666666666667 388.5416666666667 569.7916666666667 416.6666666666668 604.1666666666667 416.6666666666668C638.5416666666667 416.6666666666668 666.6666666666667 435.4166666666667 666.6666666666667 458.3333333333334C666.6666666666667 481.2500000000001 638.5416666666667 500 604.1666666666667 500C569.7916666666667 500 541.6666666666667 528.125 541.6666666666667 562.5C541.6666666666667 596.875 522.9166666666667 625 500.0000000000001 625C477.0833333333333 625 458.3333333333334 596.875 458.3333333333334 562.5" />
    <glyph glyph-name="alarm"
      unicode="&#xEA08;"
      horiz-adv-x="1000" d="M103.9166666666667 833.0833333333334C62.3333333333334 787.0833333333334 40.5416666666667 737.2083333333333 55.5416666666667 722.2083333333334C85.9583333333334 691.8333333333334 250.0000000000001 826.2083333333334 250.0000000000001 881.4583333333334C250.0000000000001 942.2916666666666 182.5416666666668 919.9583333333334 103.9166666666667 833.0833333333334M750.0000000000001 881.4583333333334C750.0000000000001 826.2083333333334 914.0416666666669 691.8333333333334 944.4583333333334 722.2083333333334C959.4583333333334 737.2083333333333 937.6666666666669 787.0833333333334 896.0833333333334 833.0833333333334C817.4583333333334 919.9583333333334 750.0000000000001 942.2916666666666 750.0000000000001 881.4583333333334M246.7916666666668 711.5416666666667C122.2083333333334 586.9583333333334 88.3750000000001 414.0833333333334 164.9166666666668 293.0833333333334C189.5000000000001 254.1666666666668 187.1250000000001 212.1666666666666 158.3333333333334 177.4583333333334C102.3750000000001 110.0416666666666 151.2500000000001 51.2500000000001 212.4583333333334 112.4583333333335C243.8750000000001 143.875 292.3750000000001 143.4166666666668 378.4166666666668 110.9583333333334C466.9166666666667 77.5416666666667 533.0833333333335 77.5416666666667 621.5833333333334 110.9583333333334C707.6250000000001 143.4166666666668 756.125 143.875 787.5416666666667 112.4583333333335C848.7500000000001 51.2500000000001 897.625 110.0416666666666 841.6666666666667 177.4583333333334C812.8750000000001 212.1666666666666 810.5000000000001 254.1666666666668 835.0833333333335 293.0833333333334C911.6250000000002 414.0833333333334 877.7916666666667 586.9583333333334 753.2083333333335 711.5416666666667C589.4583333333334 875.2916666666667 410.5416666666667 875.2916666666667 246.7916666666668 711.5416666666667M310.6250000000001 647.7083333333334C254.3750000000001 591.4583333333334 208.3333333333334 506.2500000000001 208.3333333333334 458.3333333333334C208.3333333333334 345.9166666666668 387.5833333333334 166.6666666666668 500.0000000000001 166.6666666666668C612.4166666666667 166.6666666666668 791.6666666666667 345.9166666666668 791.6666666666667 458.3333333333334C791.6666666666667 570.75 612.4166666666667 750 500.0000000000001 750C452.0833333333334 750 366.875 703.9583333333333 310.6250000000001 647.7083333333334M458.3333333333334 546.75C458.3333333333334 480.8333333333334 486.9166666666667 403.1666666666668 521.8333333333334 374.1666666666668C598.8333333333334 310.2500000000001 660.5000000000001 356.1666666666668 590.9583333333334 425.7083333333334C563.8750000000001 452.8333333333334 541.6666666666667 518.125 541.6666666666667 570.8333333333333C541.6666666666667 623.5416666666667 522.9166666666667 666.6666666666667 500.0000000000001 666.6666666666667C477.0833333333333 666.6666666666667 458.3333333333334 612.7083333333334 458.3333333333334 546.75" />
    <glyph glyph-name="alert-circle"
      unicode="&#xEA09;"
      horiz-adv-x="1000" d="M183.3333333333334 816.6666666666666C67.2083333333333 700.5416666666667 41.6666666666667 643.4583333333333 41.6666666666667 500C41.6666666666667 356.5416666666668 67.2083333333333 299.4583333333334 183.3333333333334 183.3333333333334C384.2916666666667 -17.6249999999999 615.7083333333333 -17.6249999999999 816.6666666666666 183.3333333333334C932.7916666666666 299.4583333333334 958.3333333333331 356.5416666666668 958.3333333333331 500C958.3333333333331 750.5833333333334 750.5833333333333 958.3333333333334 500 958.3333333333334C356.5416666666667 958.3333333333334 299.4583333333333 932.7916666666666 183.3333333333334 816.6666666666666M333.3333333333333 822.7916666666667C115.4166666666667 709 73.875 388.5833333333334 255.7083333333334 224.0000000000001C377.25 114.0000000000001 641.2916666666666 122.7500000000001 759.25 240.75C881.4583333333334 362.9166666666668 887 631.5416666666667 769.75 748.7916666666667C661.3749999999999 857.125 463.4583333333333 890.7083333333334 333.3333333333333 822.7916666666667M458.3333333333333 583.3333333333334C458.3333333333333 514.5833333333334 477.0833333333333 458.3333333333334 500 458.3333333333334C522.9166666666666 458.3333333333334 541.6666666666666 514.5833333333334 541.6666666666666 583.3333333333334C541.6666666666666 652.0833333333334 522.9166666666666 708.3333333333334 500 708.3333333333334C477.0833333333333 708.3333333333334 458.3333333333333 652.0833333333334 458.3333333333333 583.3333333333334M458.3333333333333 333.3333333333334C458.3333333333333 310.4166666666667 477.0833333333333 291.6666666666668 500 291.6666666666668C522.9166666666666 291.6666666666668 541.6666666666666 310.4166666666667 541.6666666666666 333.3333333333334C541.6666666666666 356.2500000000001 522.9166666666666 375 500 375C477.0833333333333 375 458.3333333333333 356.2500000000001 458.3333333333333 333.3333333333334" />
    <glyph glyph-name="alert-octagon"
      unicode="&#xEA0A;"
      horiz-adv-x="1000" d="M174.8333333333334 820.9166666666667C65.0833333333333 707.7083333333334 41.6666666666667 650.5 41.6666666666667 495.7916666666667C41.6666666666667 338.0833333333334 63.6666666666667 286.6666666666667 179.0833333333334 174.8333333333335C292.2916666666667 65.0833333333335 349.5 41.6666666666667 504.2083333333333 41.6666666666667C661.9166666666666 41.6666666666667 713.3333333333334 63.6666666666666 825.1666666666665 179.0833333333333C934.9166666666666 292.2916666666668 958.3333333333331 349.5 958.3333333333331 504.2083333333334C958.3333333333331 661.9166666666666 936.3333333333334 713.3333333333334 820.9166666666667 825.1666666666667C707.7083333333333 934.9166666666666 650.5 958.3333333333334 495.7916666666666 958.3333333333334C338.0833333333334 958.3333333333334 286.6666666666667 936.3333333333334 174.8333333333334 820.9166666666667M236.9583333333334 758.125C82.1666666666667 596.5833333333333 84.125 388.0833333333334 241.875 236.9583333333334C483.1666666666666 5.7500000000001 875 168.5416666666668 875 500C875 835.375 468.4999999999999 999.8333333333334 236.9583333333334 758.125M458.3333333333333 583.3333333333334C458.3333333333333 514.5833333333334 477.0833333333333 458.3333333333334 500 458.3333333333334C522.9166666666666 458.3333333333334 541.6666666666666 514.5833333333334 541.6666666666666 583.3333333333334C541.6666666666666 652.0833333333334 522.9166666666666 708.3333333333334 500 708.3333333333334C477.0833333333333 708.3333333333334 458.3333333333333 652.0833333333334 458.3333333333333 583.3333333333334M458.3333333333333 333.3333333333334C458.3333333333333 310.4166666666667 477.0833333333333 291.6666666666668 500 291.6666666666668C522.9166666666666 291.6666666666668 541.6666666666666 310.4166666666667 541.6666666666666 333.3333333333334C541.6666666666666 356.2500000000001 522.9166666666666 375 500 375C477.0833333333333 375 458.3333333333333 356.2500000000001 458.3333333333333 333.3333333333334" />
    <glyph glyph-name="alert-triangle"
      unicode="&#xEA0B;"
      horiz-adv-x="1000" d="M229.982367014812 599.0416666666667C121.6907003481453 420.7083333333334 42.6490336814786 242.5 49.7740336814786 192.7916666666666C61.7323670148119 108.8333333333333 85.4407003481453 104.1666666666667 499.8990336814786 104.1666666666667C914.3573670148118 104.1666666666667 938.0657003481452 108.8333333333333 950.0240336814786 192.7916666666666C968.2323670148118 320.3333333333334 597.3990336814786 916.6666666666666 499.8990336814786 916.6666666666666C448.482367014812 916.6666666666666 358.5657003481453 810.8333333333334 229.982367014812 599.0416666666667M301.7740336814786 539.3333333333334C204.4823670148119 377.6250000000001 124.8990336814786 227.6250000000001 124.8990336814786 206C124.8990336814786 184.2500000000001 292.5240336814786 166.6666666666668 499.8990336814786 166.6666666666668C707.2740336814786 166.6666666666668 874.8990336814786 184.2500000000001 874.8990336814786 206C874.8990336814786 254.8750000000001 529.107367014812 833.3333333333334 499.8990336814786 833.3333333333334C488.1907003481452 833.3333333333334 399.0240336814786 701.0416666666667 301.7740336814786 539.3333333333334M458.2323670148119 541.6666666666667C458.2323670148119 472.9166666666666 476.9823670148119 416.6666666666668 499.8990336814786 416.6666666666668C522.8157003481452 416.6666666666668 541.5657003481452 472.9166666666666 541.5657003481452 541.6666666666667C541.5657003481452 610.4166666666667 522.8157003481452 666.6666666666667 499.8990336814786 666.6666666666667C476.9823670148119 666.6666666666667 458.2323670148119 610.4166666666667 458.2323670148119 541.6666666666667M458.2323670148119 291.6666666666668C458.2323670148119 268.75 476.9823670148119 250 499.8990336814786 250C522.8157003481452 250 541.5657003481452 268.75 541.5657003481452 291.6666666666668C541.5657003481452 314.5833333333334 522.8157003481452 333.3333333333334 499.8990336814786 333.3333333333334C476.9823670148119 333.3333333333334 458.2323670148119 314.5833333333334 458.2323670148119 291.6666666666668" />
    <glyph glyph-name="alien-pixel"
      unicode="&#xEA0C;"
      horiz-adv-x="1000" d="M125 541.6666666666667C125 450.0000000000001 106.25 375 83.3333333333333 375C60.4166666666667 375 41.6666666666667 337.5 41.6666666666667 291.6666666666668C41.6666666666667 245.8333333333334 60.4166666666667 208.3333333333334 83.3333333333333 208.3333333333334C106.25 208.3333333333334 125 245.8333333333334 125 291.6666666666668C125 337.5 143.75 375 166.6666666666667 375C189.5833333333334 375 208.3333333333334 356.2500000000001 208.3333333333334 333.3333333333334C208.3333333333334 310.4166666666667 245.8333333333334 291.6666666666668 291.6666666666667 291.6666666666668C337.5 291.6666666666668 375 310.4166666666667 375 333.3333333333334C375 356.2500000000001 431.25 375 500 375C568.75 375 625 356.2500000000001 625 333.3333333333334C625 310.4166666666667 662.5 291.6666666666668 708.3333333333333 291.6666666666668C754.1666666666666 291.6666666666668 791.6666666666666 310.4166666666667 791.6666666666666 333.3333333333334C791.6666666666666 356.2500000000001 810.4166666666666 375 833.3333333333333 375C856.25 375 875 337.5 875 291.6666666666668C875 245.8333333333334 893.7499999999999 208.3333333333334 916.6666666666666 208.3333333333334C939.5833333333331 208.3333333333334 958.3333333333331 245.8333333333334 958.3333333333331 291.6666666666668C958.3333333333331 337.5 939.5833333333331 375 916.6666666666666 375C893.7499999999999 375 875 450.0000000000001 875 541.6666666666667L875 708.3333333333334L500 708.3333333333334L125 708.3333333333334L125 541.6666666666667M214.9166666666667 541.6666666666667C214.9166666666667 484.375 224.375 460.9166666666666 235.9166666666667 489.5833333333334C247.5000000000001 518.2083333333333 247.5000000000001 565.0833333333333 235.9166666666667 593.75C224.375 622.375 214.9166666666667 598.9583333333334 214.9166666666667 541.6666666666667M416.6666666666667 541.6666666666667C416.6666666666667 486.125 444.4583333333333 458.3333333333334 500 458.3333333333334C555.5416666666666 458.3333333333334 583.3333333333333 486.125 583.3333333333333 541.6666666666667C583.3333333333333 597.2083333333334 555.5416666666666 625 500 625C444.4583333333333 625 416.6666666666667 597.2083333333334 416.6666666666667 541.6666666666667M756.5833333333334 541.6666666666667C756.5833333333334 484.375 766.0416666666667 460.9166666666666 777.5833333333333 489.5833333333334C789.1666666666666 518.2083333333333 789.1666666666666 565.0833333333333 777.5833333333333 593.75C766.0416666666667 622.375 756.5833333333334 598.9583333333334 756.5833333333334 541.6666666666667" />
    <glyph glyph-name="alien"
      unicode="&#xEA0D;"
      horiz-adv-x="1000" d="M322.2721208223936 913.3333333333334C149.7721208223937 812.875 66.605454155727 436.2916666666668 172.8137874890604 236.8333333333334C246.3971208223937 98.7083333333334 338.6471208223938 44.3333333333334 499.355454155727 44.3333333333334C736.9804541557269 44.3333333333334 874.355454155727 203.3333333333334 874.355454155727 478.5C874.355454155727 836.5416666666667 583.605454155727 1065.5416666666667 322.2721208223936 913.3333333333334M335.0221208223936 794C225.730454155727 684.7083333333334 185.3971208223937 446.0833333333334 249.855454155727 290.4583333333334C341.4387874890604 69.375 657.2721208223936 69.375 748.8554541557269 290.4583333333334C848.5221208223936 531.0833333333334 701.7304541557269 875 499.355454155727 875C453.5221208223936 875 379.5637874890604 838.5416666666667 335.0221208223936 794M332.6887874890604 458.3333333333334C332.6887874890604 435.4166666666667 351.4387874890603 416.6666666666668 374.355454155727 416.6666666666668C397.2721208223938 416.6666666666668 416.0221208223936 435.4166666666667 416.0221208223936 458.3333333333334C416.0221208223936 481.2500000000001 397.2721208223938 500 374.355454155727 500C351.4387874890603 500 332.6887874890604 481.2500000000001 332.6887874890604 458.3333333333334M582.6887874890602 458.3333333333334C582.6887874890602 435.4166666666667 601.4387874890602 416.6666666666668 624.355454155727 416.6666666666668C647.2721208223936 416.6666666666668 666.0221208223936 435.4166666666667 666.0221208223936 458.3333333333334C666.0221208223936 481.2500000000001 647.2721208223936 500 624.355454155727 500C601.4387874890602 500 582.6887874890602 481.2500000000001 582.6887874890602 458.3333333333334M387.105454155727 274.2916666666667C395.355454155727 249.5 445.8971208223938 229.1666666666668 499.355454155727 229.1666666666668C552.8137874890602 229.1666666666668 603.355454155727 249.5 611.605454155727 274.2916666666667C620.230454155727 300.1666666666668 572.230454155727 319.4583333333335 499.355454155727 319.4583333333335C426.480454155727 319.4583333333335 378.480454155727 300.1666666666668 387.105454155727 274.2916666666667" />
    <glyph glyph-name="align-center"
      unicode="&#xEA0E;"
      horiz-adv-x="1000" d="M83.3333333333334 750C83.3333333333334 725 250.0000000000001 708.3333333333334 500.0000000000001 708.3333333333334C750 708.3333333333334 916.6666666666666 725 916.6666666666666 750C916.6666666666666 775 750 791.6666666666667 500.0000000000001 791.6666666666667C250.0000000000001 791.6666666666667 83.3333333333334 775 83.3333333333334 750M208.3333333333334 583.3333333333334C208.3333333333334 559.5416666666667 333.3333333333334 541.6666666666667 500.0000000000001 541.6666666666667C666.6666666666666 541.6666666666667 791.6666666666666 559.5416666666667 791.6666666666666 583.3333333333334C791.6666666666666 607.125 666.6666666666666 625 500.0000000000001 625C333.3333333333334 625 208.3333333333334 607.125 208.3333333333334 583.3333333333334M83.3333333333334 416.6666666666668C83.3333333333334 391.6666666666668 250.0000000000001 375 500.0000000000001 375C750 375 916.6666666666666 391.6666666666668 916.6666666666666 416.6666666666668C916.6666666666666 441.6666666666667 750 458.3333333333334 500.0000000000001 458.3333333333334C250.0000000000001 458.3333333333334 83.3333333333334 441.6666666666667 83.3333333333334 416.6666666666668M208.3333333333334 250C208.3333333333334 226.2083333333334 333.3333333333334 208.3333333333334 500.0000000000001 208.3333333333334C666.6666666666666 208.3333333333334 791.6666666666666 226.2083333333334 791.6666666666666 250C791.6666666666666 273.7916666666668 666.6666666666666 291.6666666666668 500.0000000000001 291.6666666666668C333.3333333333334 291.6666666666668 208.3333333333334 273.7916666666668 208.3333333333334 250" />
    <glyph glyph-name="align-justify"
      unicode="&#xEA0F;"
      horiz-adv-x="1000" d="M83.3333333333334 750C83.3333333333334 725 250.0000000000001 708.3333333333334 500.0000000000001 708.3333333333334C750 708.3333333333334 916.6666666666666 725 916.6666666666666 750C916.6666666666666 775 750 791.6666666666667 500.0000000000001 791.6666666666667C250.0000000000001 791.6666666666667 83.3333333333334 775 83.3333333333334 750M83.3333333333334 583.3333333333334C83.3333333333334 558.3333333333334 250.0000000000001 541.6666666666667 500.0000000000001 541.6666666666667C750 541.6666666666667 916.6666666666666 558.3333333333334 916.6666666666666 583.3333333333334C916.6666666666666 608.3333333333333 750 625 500.0000000000001 625C250.0000000000001 625 83.3333333333334 608.3333333333333 83.3333333333334 583.3333333333334M83.3333333333334 416.6666666666668C83.3333333333334 391.6666666666668 250.0000000000001 375 500.0000000000001 375C750 375 916.6666666666666 391.6666666666668 916.6666666666666 416.6666666666668C916.6666666666666 441.6666666666667 750 458.3333333333334 500.0000000000001 458.3333333333334C250.0000000000001 458.3333333333334 83.3333333333334 441.6666666666667 83.3333333333334 416.6666666666668M83.3333333333334 250C83.3333333333334 225 250.0000000000001 208.3333333333334 500.0000000000001 208.3333333333334C750 208.3333333333334 916.6666666666666 225 916.6666666666666 250C916.6666666666666 275.0000000000001 750 291.6666666666668 500.0000000000001 291.6666666666668C250.0000000000001 291.6666666666668 83.3333333333334 275.0000000000001 83.3333333333334 250" />
    <glyph glyph-name="align-left"
      unicode="&#xEA10;"
      horiz-adv-x="1000" d="M83.3333333333334 750C83.3333333333334 725 250.0000000000001 708.3333333333334 500.0000000000001 708.3333333333334C750 708.3333333333334 916.6666666666666 725 916.6666666666666 750C916.6666666666666 775 750 791.6666666666667 500.0000000000001 791.6666666666667C250.0000000000001 791.6666666666667 83.3333333333334 775 83.3333333333334 750M83.3333333333334 583.3333333333334C83.3333333333334 559.0416666666667 222.2083333333334 541.6666666666667 416.6666666666667 541.6666666666667C611.125 541.6666666666667 750 559.0416666666667 750 583.3333333333334C750 607.625 611.125 625 416.6666666666667 625C222.2083333333334 625 83.3333333333334 607.625 83.3333333333334 583.3333333333334M83.3333333333334 416.6666666666668C83.3333333333334 391.6666666666668 250.0000000000001 375 500.0000000000001 375C750 375 916.6666666666666 391.6666666666668 916.6666666666666 416.6666666666668C916.6666666666666 441.6666666666667 750 458.3333333333334 500.0000000000001 458.3333333333334C250.0000000000001 458.3333333333334 83.3333333333334 441.6666666666667 83.3333333333334 416.6666666666668M83.3333333333334 250C83.3333333333334 225.7083333333335 222.2083333333334 208.3333333333334 416.6666666666667 208.3333333333334C611.125 208.3333333333334 750 225.7083333333335 750 250C750 274.2916666666667 611.125 291.6666666666668 416.6666666666667 291.6666666666668C222.2083333333334 291.6666666666668 83.3333333333334 274.2916666666667 83.3333333333334 250" />
    <glyph glyph-name="align-right"
      unicode="&#xEA11;"
      horiz-adv-x="1000" d="M83.3333333333334 750C83.3333333333334 725 250.0000000000001 708.3333333333334 500.0000000000001 708.3333333333334C750 708.3333333333334 916.6666666666666 725 916.6666666666666 750C916.6666666666666 775 750 791.6666666666667 500.0000000000001 791.6666666666667C250.0000000000001 791.6666666666667 83.3333333333334 775 83.3333333333334 750M250.0000000000001 583.3333333333334C250.0000000000001 559.0416666666667 388.8750000000001 541.6666666666667 583.3333333333333 541.6666666666667C777.7916666666667 541.6666666666667 916.6666666666666 559.0416666666667 916.6666666666666 583.3333333333334C916.6666666666666 607.625 777.7916666666667 625 583.3333333333333 625C388.8750000000001 625 250.0000000000001 607.625 250.0000000000001 583.3333333333334M83.3333333333334 416.6666666666668C83.3333333333334 391.6666666666668 250.0000000000001 375 500.0000000000001 375C750 375 916.6666666666666 391.6666666666668 916.6666666666666 416.6666666666668C916.6666666666666 441.6666666666667 750 458.3333333333334 500.0000000000001 458.3333333333334C250.0000000000001 458.3333333333334 83.3333333333334 441.6666666666667 83.3333333333334 416.6666666666668M250.0000000000001 250C250.0000000000001 225.7083333333335 388.8750000000001 208.3333333333334 583.3333333333333 208.3333333333334C777.7916666666667 208.3333333333334 916.6666666666666 225.7083333333335 916.6666666666666 250C916.6666666666666 274.2916666666667 777.7916666666667 291.6666666666668 583.3333333333333 291.6666666666668C388.8750000000001 291.6666666666668 250.0000000000001 274.2916666666667 250.0000000000001 250" />
    <glyph glyph-name="ambulance"
      unicode="&#xEA12;"
      horiz-adv-x="1000" d="M8.7500000000001 807.3333333333334C-7.5416666666666 791.0833333333334 -20.8333333333333 676 -20.8333333333333 551.5833333333333C-20.8333333333333 196.7500000000001 191.8750000000001 -41.9583333333333 322.1666666666667 166.6666666666668C389.8333333333334 275.0000000000001 568.5 275.0000000000001 636.1666666666667 166.6666666666668C711 46.8333333333334 787.4166666666666 63.3750000000001 911.7083333333334 226.375C998.625 340.3333333333334 1020.8333333333331 415.75 1020.8333333333331 596.8333333333334L1020.8333333333331 824.2083333333334L529.5833333333334 830.5416666666666C259.3750000000001 834.0416666666667 25.0000000000001 823.5833333333334 8.7500000000001 807.3333333333334M-7.4999999999999 541.6666666666667C-7.4999999999999 392.7083333333334 0.0833333333334 331.75 9.2916666666667 406.25C18.5416666666667 480.75 18.5416666666667 602.5833333333334 9.2916666666667 677.0833333333334C0.0833333333334 751.5833333333334 -7.4999999999999 690.625 -7.4999999999999 541.6666666666667M62.5000000000001 548.3333333333334L62.5000000000001 346.6666666666668L479.1666666666667 346.6666666666668L895.8333333333334 346.6666666666668L889.5833333333334 558.75C886.0416666666667 679.25 875.8333333333334 721.375 866 656.25C844.2916666666667 513.0833333333334 770.8333333333334 505.0416666666667 770.8333333333334 645.8333333333334C770.8333333333334 733.7916666666667 751.3750000000001 750 645.8333333333334 750C521.4583333333334 750 473.9166666666667 689.25 572.5416666666667 656.375C609.7083333333334 644 603.875 618.75 551.7083333333334 566.5833333333334C482.7500000000001 497.625 475.5833333333334 497.625 406.6250000000001 566.5833333333334C354.4583333333334 618.75 348.6250000000001 644 385.7916666666668 656.375C503.5416666666667 695.625 424.7083333333334 750 250.0000000000001 750L62.5000000000001 750L62.5000000000001 548.3333333333334M167.0833333333334 207.6666666666668C181.5000000000001 184.3750000000001 210.7083333333334 176.0833333333334 232.0416666666667 189.2916666666666C289.8333333333335 225 279.0833333333335 250 205.8750000000001 250C170.1666666666667 250 152.7083333333334 230.9583333333334 167.0833333333334 207.6666666666668M708.7500000000001 207.6666666666668C723.1666666666667 184.3750000000001 752.375 176.0833333333334 773.7083333333334 189.2916666666666C831.5 225 820.75 250 747.5416666666666 250C711.8333333333334 250 694.375 230.9583333333334 708.7500000000001 207.6666666666668" />
    <glyph glyph-name="anchor-2"
      unicode="&#xEA13;"
      horiz-adv-x="1000" d="M383.3333333333333 908.3333333333334C315.1249999999999 840.125 320.5833333333333 749.8333333333334 398.0416666666667 664.2083333333334C444.2083333333333 613.2083333333334 459.1666666666666 526 450.125 360.0000000000001C437.5 127.4583333333334 437.4583333333333 127.375 334.1666666666667 179.0833333333333C198.5833333333333 246.9166666666667 99.7083333333333 431.5416666666667 188.5 450.9583333333334C292.4166666666667 473.75 256.5833333333333 541.6666666666667 140.625 541.6666666666667C39.4583333333333 541.6666666666667 33.2916666666666 531.5 58.2916666666666 406.25C102.8333333333333 183.25 258 62.5 500 62.5C742 62.5 897.1666666666666 183.25 941.7083333333331 406.25C966.7083333333331 531.5 960.5416666666666 541.6666666666667 859.375 541.6666666666667C743.4166666666666 541.6666666666667 707.5833333333333 473.75 811.4999999999999 450.9583333333334C900.2916666666666 431.5416666666667 801.4166666666667 246.9166666666667 665.8333333333333 179.0833333333333C562.5416666666666 127.375 562.5 127.4583333333334 549.8749999999999 360.0000000000001C540.8333333333334 526 555.7916666666666 613.2083333333334 601.9583333333333 664.2083333333334C679.4166666666666 749.8333333333334 684.875 840.125 616.6666666666666 908.3333333333334C552.6666666666666 972.3333333333334 447.3333333333333 972.3333333333334 383.3333333333333 908.3333333333334M435.2499999999999 829.7083333333334C392.3333333333333 760.2083333333334 488.875 680.5416666666667 546.375 738.0416666666667C594.4583333333333 786.125 564.375 875 500 875C479.7916666666666 875 450.6666666666666 854.625 435.2499999999999 829.7083333333334" />
    <glyph glyph-name="anchor"
      unicode="&#xEA14;"
      horiz-adv-x="1000" d="M383.3333333333333 908.3333333333334C315.1249999999999 840.125 320.5833333333333 749.8333333333334 398.0416666666667 664.2083333333334C444.2083333333333 613.2083333333334 459.1666666666666 526 450.125 360.0000000000001C437.5 127.4583333333334 437.4583333333333 127.375 334.1666666666667 179.0833333333333C198.5833333333333 246.9166666666667 99.7083333333333 431.5416666666667 188.5 450.9583333333334C292.4166666666667 473.75 256.5833333333333 541.6666666666667 140.625 541.6666666666667C39.4583333333333 541.6666666666667 33.2916666666666 531.5 58.2916666666666 406.25C102.8333333333333 183.25 258 62.5 500 62.5C742 62.5 897.1666666666666 183.25 941.7083333333331 406.25C966.7083333333331 531.5 960.5416666666666 541.6666666666667 859.375 541.6666666666667C743.4166666666666 541.6666666666667 707.5833333333333 473.75 811.4999999999999 450.9583333333334C900.2916666666666 431.5416666666667 801.4166666666667 246.9166666666667 665.8333333333333 179.0833333333333C562.5416666666666 127.375 562.5 127.4583333333334 549.8749999999999 360.0000000000001C540.8333333333334 526 555.7916666666666 613.2083333333334 601.9583333333333 664.2083333333334C679.4166666666666 749.8333333333334 684.875 840.125 616.6666666666666 908.3333333333334C552.6666666666666 972.3333333333334 447.3333333333333 972.3333333333334 383.3333333333333 908.3333333333334M435.2499999999999 829.7083333333334C392.3333333333333 760.2083333333334 488.875 680.5416666666667 546.375 738.0416666666667C594.4583333333333 786.125 564.375 875 500 875C479.7916666666666 875 450.6666666666666 854.625 435.2499999999999 829.7083333333334" />
    <glyph glyph-name="aperture"
      unicode="&#xEA15;"
      horiz-adv-x="1000" d="M312.5 921.0833333333334C144.0416666666667 847.8333333333334 62.5 709.3333333333334 62.5 496.5833333333333C62.5 330.25 83.375 272.6666666666668 178.0416666666667 178.0416666666668C273.2083333333333 82.8750000000001 329.9583333333333 62.5 500 62.5C792.1249999999999 62.5 937.5 207.8750000000001 937.5 500C937.5 666.7083333333334 916.6666666666666 727.25 829.2916666666665 814.6666666666666C712.4583333333333 931.5 457.25 984.0416666666666 312.5 921.0833333333334M297.5833333333333 802.0833333333334C224 740.1666666666667 219.0833333333333 718.4166666666667 265.1666666666667 657.8333333333334C314.2916666666667 593.1666666666667 325.875 600.0416666666667 388.2083333333333 730.75C463.7083333333333 889.125 431.3333333333333 914.625 297.5833333333333 802.0833333333334M548.0416666666666 823.0416666666667C465.9166666666666 740.9166666666667 494.375 708.3333333333334 648.2916666666666 708.3333333333334C800.3749999999999 708.3333333333334 809.2916666666665 757 670.7499999999999 831.1666666666667C620.4583333333333 858.0416666666667 580.4166666666666 855.4166666666666 548.0416666666666 823.0416666666667M125 500C125 395.0833333333334 141.4166666666667 375 227.2083333333334 375C328.7916666666667 375 329 375.7916666666668 258.4583333333333 499.75C168.2083333333333 658.375 125 658.4583333333334 125 500M391.2083333333333 565.4166666666667C349.7083333333333 457.2916666666666 407.8333333333333 367.9583333333334 510.25 382.5C643.7499999999999 401.4583333333334 643.7499999999999 598.5416666666667 510.25 617.5C453.875 625.5 406.25 604.6666666666667 391.2083333333333 565.4166666666667M741.5416666666666 500.2500000000001C831.7916666666666 341.625 875 341.5416666666667 875 500C875 604.9166666666667 858.5833333333334 625 772.7916666666666 625C671.2083333333334 625 670.9999999999999 624.2083333333334 741.5416666666666 500.2500000000001M611.7916666666666 269.25C536.2916666666666 110.8750000000001 568.6666666666666 85.375 702.4166666666666 197.9166666666668C775.9999999999999 259.8333333333334 780.9166666666666 281.5833333333334 734.8333333333333 342.1666666666668C685.7083333333334 406.8333333333334 674.1249999999999 399.9583333333334 611.7916666666666 269.25M286.625 206.3333333333335C362.8333333333333 142.875 399 134.7083333333334 442.875 171.125C539.9583333333333 251.7083333333334 506.6666666666666 291.7083333333334 343.75 290.2916666666667L187.5 288.875L286.625 206.3333333333335" />
    <glyph glyph-name="app-calculator"
      unicode="&#xEA16;"
      horiz-adv-x="1000" d="M234.5396432229635 905.125C222.4563098896301 873.6666666666666 218.0396432229634 671.2083333333334 224.6646432229634 455.2083333333334L236.7479765562968 62.5L507.5813098896301 62.5L778.4146432229634 62.5L778.4146432229634 500L778.4146432229634 937.5L517.4563098896301 949.9166666666666C325.7896432229635 959.0416666666666 250.6646432229635 947.1666666666666 234.5396432229635 905.125M299.2479765562968 791.6666666666667C299.2479765562968 719.4583333333334 327.0396432229635 708.3333333333334 507.5813098896301 708.3333333333334C688.1229765562966 708.3333333333334 715.9146432229634 719.4583333333334 715.9146432229634 791.6666666666667C715.9146432229634 863.875 688.1229765562966 875 507.5813098896301 875C327.0396432229635 875 299.2479765562968 863.875 299.2479765562968 791.6666666666667M299.2479765562968 375L299.2479765562968 125L507.5813098896301 125L715.9146432229634 125L715.9146432229634 375L715.9146432229634 625L507.5813098896301 625L299.2479765562968 625L299.2479765562968 375M432.3729765562968 393.5416666666668C387.3729765562968 342.5833333333334 389.1646432229635 320.7916666666668 442.7896432229635 267.1666666666667C501.4146432229634 208.5833333333334 513.8313098896301 208.6250000000001 573.0396432229634 267.875C631.2479765562967 326.0416666666667 631.5813098896301 340.2916666666668 576.0396432229635 395.8333333333334C500.8313098896301 471 500.7479765562967 471 432.3729765562968 393.5416666666668" />
    <glyph glyph-name="app-clock"
      unicode="&#xEA17;"
      horiz-adv-x="1000" d="M312.5 921.0833333333334C144.0416666666667 847.8333333333334 62.5 709.3333333333334 62.5 496.5833333333333C62.5 330.25 83.375 272.6666666666668 178.0416666666667 178.0416666666668C273.2083333333333 82.8750000000001 329.9583333333333 62.5 500 62.5C792.1249999999999 62.5 937.5 207.8750000000001 937.5 500C937.5 666.7083333333334 916.6666666666666 727.25 829.2916666666665 814.6666666666666C712.4583333333333 931.5 457.25 984.0416666666666 312.5 921.0833333333334M246.7916666666667 753.2083333333334C163.6666666666667 670.0833333333334 125 589.6666666666667 125 500C125 320.75 320.75 125 500 125C589.6666666666666 125 670.0833333333334 163.6666666666668 753.2083333333334 246.7916666666667C916.9583333333334 410.5416666666668 916.9583333333334 589.4583333333334 753.2083333333334 753.2083333333334C589.4583333333333 916.9583333333334 410.5416666666667 916.9583333333334 246.7916666666667 753.2083333333334M458.3333333333333 631.7083333333333C458.3333333333333 500.7083333333333 477.5416666666666 462.9583333333334 564.4583333333334 423.375C692.7916666666666 364.875 708.3333333333333 363.8750000000001 708.3333333333333 413.875C708.3333333333333 435.25 670.8333333333334 464.625 625 479.1666666666667C563 498.8333333333333 541.6666666666666 542.2083333333334 541.6666666666666 648.625C541.6666666666666 727.2916666666667 522.9166666666666 791.6666666666667 500 791.6666666666667C477.0833333333333 791.6666666666667 458.3333333333333 719.6666666666667 458.3333333333333 631.7083333333333" />
    <glyph glyph-name="app-compass"
      unicode="&#xEA18;"
      horiz-adv-x="1000" d="M312.5 921.0833333333334C144.0416666666667 847.8333333333334 62.5 709.3333333333334 62.5 496.5833333333333C62.5 330.25 83.375 272.6666666666668 178.0416666666667 178.0416666666668C273.2083333333333 82.8750000000001 329.9583333333333 62.5 500 62.5C792.1249999999999 62.5 937.5 207.8750000000001 937.5 500C937.5 666.7083333333334 916.6666666666666 727.25 829.2916666666665 814.6666666666666C712.4583333333333 931.5 457.25 984.0416666666666 312.5 921.0833333333334M246.7916666666667 753.2083333333334C163.6666666666667 670.0833333333334 125 589.6666666666667 125 500C125 320.75 320.75 125 500 125C589.6666666666666 125 670.0833333333334 163.6666666666668 753.2083333333334 246.7916666666667C916.9583333333334 410.5416666666668 916.9583333333334 589.4583333333334 753.2083333333334 753.2083333333334C589.4583333333333 916.9583333333334 410.5416666666667 916.9583333333334 246.7916666666667 753.2083333333334M491.9166666666666 660.6666666666667C417.5 633.4583333333333 363.4583333333334 570.4583333333334 331.5416666666667 473.6666666666667C305.0416666666667 393.4166666666668 293.3333333333333 317.7500000000001 305.5416666666667 305.5416666666667C317.75 293.3333333333334 393.125 304.9583333333334 473.0416666666666 331.2916666666668C577.4583333333333 365.75 631 415.5833333333334 663.3333333333333 508.3333333333333C739.0416666666665 725.5 718.625 743.625 491.9166666666666 660.6666666666667M431.0416666666667 519.0416666666667C417.4583333333333 483.6666666666667 417.25 443.875 430.5416666666667 430.5416666666668C472.5833333333333 388.5 583.3333333333333 453 583.3333333333333 519.5416666666667C583.3333333333333 602.7083333333334 463 602.2916666666667 431.0416666666667 519.0416666666667" />
    <glyph glyph-name="app-maps"
      unicode="&#xEA19;"
      horiz-adv-x="1000" d="M141.2753067709614 872.1666666666666L-14.9746932290386 789.6666666666667L-14.9746932290386 415.6666666666668C-14.9746932290386 209.9583333333335 -0.933026562372 42.4583333333334 16.2753067709614 43.4166666666667C33.4836401042947 44.3750000000001 112.941973437628 79.9583333333334 192.8586401042947 122.5416666666666C334.8586401042948 198.125 341.8169734376281 198.0416666666668 494.941973437628 119.9583333333335C650.066973437628 40.7916666666667 653.4003067709614 40.8333333333334 815.441973437628 123.5C968.1503067709612 201.4166666666668 980.566973437628 202.1666666666668 1000.2336401042946 134.7500000000001C1011.8586401042946 95.0416666666666 1017.8586401042946 253.1666666666668 1013.6086401042946 486.2083333333334C1009.3586401042946 719.25 993.6086401042946 922.0833333333334 978.6503067709614 937.0416666666666C963.691973437628 951.9583333333334 879.066973437628 927.25 790.6503067709614 882.125C633.2336401042946 801.8333333333334 626.816973437628 801.7083333333334 484.5253067709613 877.4583333333334C307.4003067709614 971.7916666666666 330.6503067709614 972.125 141.2753067709614 872.1666666666666M162.1086401042947 782.5C78.441973437628 742.125 68.3586401042947 706.625 68.3586401042947 452.875L68.3586401042947 168.4583333333334L172.5253067709614 215.9166666666666C268.8586401042947 259.7916666666667 276.691973437628 284.7916666666668 276.691973437628 548.375C276.691973437628 705.0833333333333 272.0253067709614 832.0833333333334 266.2753067709614 830.5C260.5253067709614 828.9583333333333 213.6919734376281 807.3333333333334 162.1086401042947 782.5M360.0253067709614 548.375C360.0253067709614 283.4166666666668 367.4836401042947 259.9583333333334 466.1503067709614 215.0416666666668C524.5253067709614 188.4166666666666 580.7753067709614 166.6666666666668 591.1503067709614 166.6666666666668C601.5253067709613 166.6666666666668 610.0253067709614 294.9166666666667 610.0253067709614 451.625C610.0253067709614 716.5833333333334 602.566973437628 740.0416666666667 503.9003067709614 784.9583333333334C445.5253067709613 811.5833333333334 389.2753067709614 833.3333333333334 378.9003067709613 833.3333333333334C368.5253067709614 833.3333333333334 360.0253067709614 705.0833333333333 360.0253067709614 548.375M787.1086401042946 782.5C703.441973437628 742.125 693.3586401042946 706.625 693.3586401042946 452.875L693.3586401042946 168.4583333333334L797.5253067709614 215.9166666666666C893.8586401042948 259.7916666666667 901.691973437628 284.7916666666668 901.691973437628 548.375C901.691973437628 705.0833333333333 896.9836401042946 832.0833333333334 891.2753067709614 830.5C885.566973437628 828.9583333333333 838.691973437628 807.3333333333334 787.1086401042946 782.5M0.0253067709614 416.6666666666668C0.0253067709614 198.9583333333334 7.066973437628 109.8750000000001 15.6503067709614 218.75C24.2336401042947 327.625 24.2336401042947 505.75 15.6503067709614 614.5833333333334C7.066973437628 723.4583333333334 0.0253067709614 634.375 0.0253067709614 416.6666666666668" />
    <glyph glyph-name="app-mic"
      unicode="&#xEA1A;"
      horiz-adv-x="1000" d="M377.9166666666667 941C301.2916666666667 848.6666666666666 337.9166666666667 414.6666666666668 427.0833333333334 358.7083333333334C561.5833333333333 274.2916666666667 644.3333333333333 376.0833333333334 658.4166666666666 643.25C671.75 895.2083333333334 625.2083333333334 1000 500 1000C459.7916666666666 1000 404.8333333333333 973.4583333333334 377.9166666666667 941M434.875 862.4166666666667C388 740.1666666666667 434.375 437.5 500 437.5C581.0833333333333 437.5 590.9166666666666 879.4166666666666 510.4583333333333 906.25C481.7916666666667 915.7916666666666 447.7916666666667 896.0416666666666 434.875 862.4166666666667M166.6666666666667 498.1250000000001C166.6666666666667 373.125 321.25 166.6666666666668 414.7916666666667 166.6666666666668C438.75 166.6666666666668 458.3333333333334 147.9166666666668 458.3333333333334 125C458.3333333333334 102.0833333333334 420.8333333333334 83.3333333333334 375 83.3333333333334C329.1666666666668 83.3333333333334 291.6666666666667 64.5833333333334 291.6666666666667 41.6666666666667C291.6666666666667 18.75 385.4166666666667 0 500 0C614.5833333333333 0 708.3333333333333 18.75 708.3333333333333 41.6666666666667C708.3333333333333 64.5833333333334 670.8333333333334 83.3333333333334 625 83.3333333333334C579.1666666666666 83.3333333333334 541.6666666666666 102.0833333333334 541.6666666666666 125C541.6666666666666 147.9166666666668 561.25 166.6666666666668 585.2083333333333 166.6666666666668C678.7499999999999 166.6666666666668 833.3333333333333 373.125 833.3333333333333 498.1250000000001C833.3333333333333 567.9166666666667 814.5833333333334 625 791.6666666666666 625C768.7499999999999 625 750 578.125 750 520.8333333333334C750 395.7083333333334 615.5 250 500 250C384.5 250 250.0000000000001 395.7083333333334 250.0000000000001 520.8333333333334C250.0000000000001 578.125 231.25 625 208.3333333333334 625C185.4166666666667 625 166.6666666666667 567.9166666666667 166.6666666666667 498.1250000000001" />
    <glyph glyph-name="app-notes"
      unicode="&#xEA1B;"
      horiz-adv-x="1000" d="M333.3333333333334 919.5833333333334C333.3333333333334 898.25 291.1666666666668 874.7916666666666 239.5833333333334 867.5C149.8750000000001 854.75 145.8333333333334 837.125 145.8333333333334 458.3333333333334L145.8333333333334 62.5L500.0000000000001 62.5L854.1666666666667 62.5L854.1666666666667 458.3333333333334C854.1666666666667 837.125 850.125 854.75 760.4166666666667 867.5C708.8333333333333 874.7916666666666 666.6666666666667 898.25 666.6666666666667 919.5833333333334C666.6666666666667 940.875 647.9166666666667 958.3333333333334 625 958.3333333333334C602.0833333333333 958.3333333333334 583.3333333333333 902.0833333333334 583.3333333333333 833.3333333333334C583.3333333333333 764.5833333333334 602.0833333333333 708.3333333333334 625 708.3333333333334C647.9166666666667 708.3333333333334 666.6666666666667 727.0833333333334 666.6666666666667 750C666.6666666666667 772.9166666666667 694.7916666666667 791.6666666666667 729.1666666666667 791.6666666666667C779.5 791.6666666666667 791.6666666666667 726.8333333333334 791.6666666666667 458.3333333333334L791.6666666666667 125L500.0000000000001 125L208.3333333333334 125L208.3333333333334 458.3333333333334C208.3333333333334 726.8333333333334 220.5 791.6666666666667 270.8333333333334 791.6666666666667C305.2083333333334 791.6666666666667 333.3333333333334 772.9166666666667 333.3333333333334 750C333.3333333333334 727.0833333333334 352.0833333333333 708.3333333333334 375.0000000000001 708.3333333333334C397.9166666666668 708.3333333333334 416.6666666666667 764.5833333333334 416.6666666666667 833.3333333333334C416.6666666666667 902.0833333333334 397.9166666666668 958.3333333333334 375.0000000000001 958.3333333333334C352.0833333333333 958.3333333333334 333.3333333333334 940.875 333.3333333333334 919.5833333333334M291.6666666666667 583.3333333333334C291.6666666666667 560.4166666666667 385.4166666666667 541.6666666666667 500.0000000000001 541.6666666666667C614.5833333333333 541.6666666666667 708.3333333333333 560.4166666666667 708.3333333333333 583.3333333333334C708.3333333333333 606.25 614.5833333333333 625 500.0000000000001 625C385.4166666666667 625 291.6666666666667 606.25 291.6666666666667 583.3333333333334M291.6666666666667 416.6666666666668C291.6666666666667 393.75 385.4166666666667 375 500.0000000000001 375C614.5833333333333 375 708.3333333333333 393.75 708.3333333333333 416.6666666666668C708.3333333333333 439.5833333333334 614.5833333333333 458.3333333333334 500.0000000000001 458.3333333333334C385.4166666666667 458.3333333333334 291.6666666666667 439.5833333333334 291.6666666666667 416.6666666666668M291.6666666666667 250C291.6666666666667 227.0833333333334 347.9166666666667 208.3333333333334 416.6666666666667 208.3333333333334C485.4166666666667 208.3333333333334 541.6666666666667 227.0833333333334 541.6666666666667 250C541.6666666666667 272.9166666666668 485.4166666666667 291.6666666666668 416.6666666666667 291.6666666666668C347.9166666666667 291.6666666666668 291.6666666666667 272.9166666666668 291.6666666666667 250" />
    <glyph glyph-name="app-photos"
      unicode="&#xEA1C;"
      horiz-adv-x="1000" d="M109.3444583252169 862.6666666666667C97.3027916585502 831.25 92.9277916585502 647.7083333333334 99.6361249918836 454.8333333333334L111.8444583252169 104.1666666666667L507.6777916585502 104.1666666666667L903.5111249918834 104.1666666666667L903.5111249918834 500L903.5111249918834 895.8333333333334L517.3861249918835 907.8333333333334C220.3027916585502 917.0416666666666 126.2194583252169 906.625 109.3444583252169 862.6666666666667M174.3444583252169 490.8750000000001L174.3444583252169 148.4583333333334L422.9277916585502 394.4583333333334C667.4277916585502 636.375 672.9277916585502 639.1666666666667 756.2611249918837 563.75C840.1777916585502 487.8333333333334 841.0111249918834 488.7500000000001 841.0111249918834 660.2083333333334L841.0111249918834 833.3333333333334L507.6777916585502 833.3333333333334L174.3444583252169 833.3333333333334L174.3444583252169 490.8750000000001M272.8444583252169 687.7916666666667C258.4277916585502 650.1666666666666 266.5944583252169 599.4166666666667 291.0111249918836 575C354.5111249918836 511.5 474.7611249918835 569.5416666666667 458.1777916585502 655.625C439.7194583252169 751.5416666666667 306.2194583252169 774.7083333333334 272.8444583252169 687.7916666666667M486.8444583252169 333.3333333333334L324.0944583252169 166.6666666666668L582.5527916585502 166.6666666666668C825.9277916585502 166.6666666666668 841.0111249918834 172.3750000000001 841.0111249918834 264.375C841.0111249918834 347.875 730.0527916585502 500 669.0944583252169 500C658.3861249918837 500 576.3444583252169 425 486.8444583252169 333.3333333333334" />
    <glyph glyph-name="app-wallet"
      unicode="&#xEA1D;"
      horiz-adv-x="1000" d="M98.3291742321018 819C86.4958408987685 788.2083333333334 82.4125075654351 624.1666666666667 89.2041742321018 454.4166666666667L101.5791742321018 145.8333333333334L466.1625075654351 133.7916666666666C809.2041742321018 122.4583333333334 830.7458408987685 126.7500000000001 830.7458408987685 206.7083333333334C830.7458408987685 253.4166666666668 849.4958408987684 291.6666666666668 872.4125075654351 291.6666666666668C895.3291742321018 291.6666666666668 914.0791742321018 347.9166666666668 914.0791742321018 416.6666666666668C914.0791742321018 485.4166666666667 895.3291742321018 541.6666666666667 872.4125075654351 541.6666666666667C849.4958408987684 541.6666666666667 830.7458408987685 579.1666666666667 830.7458408987685 625C830.7458408987685 670.8333333333333 811.9958408987685 708.3333333333334 789.0791742321018 708.3333333333334C766.1625075654351 708.3333333333334 747.4125075654351 745.8333333333334 747.4125075654351 791.6666666666667C747.4125075654351 867.625 719.6208408987684 875 433.6208408987684 875C209.3291742321018 875 113.6625075654351 859.0416666666667 98.3291742321018 819M164.0791742321018 750C164.0791742321018 726.8333333333334 275.2041742321018 708.3333333333334 414.0791742321018 708.3333333333334C552.9541742321018 708.3333333333334 664.0791742321018 726.8333333333334 664.0791742321018 750C664.0791742321018 773.1666666666667 552.9541742321018 791.6666666666667 414.0791742321018 791.6666666666667C275.2041742321018 791.6666666666667 164.0791742321018 773.1666666666667 164.0791742321018 750M164.0791742321018 416.6666666666668L164.0791742321018 208.3333333333334L455.7458408987685 208.3333333333334C734.287507565435 208.3333333333334 841.3708408987684 257.375 664.0791742321018 303.75C552.3708408987685 332.9583333333334 552.3708408987685 500.3750000000001 664.0791742321018 529.5833333333334C841.3708408987684 575.9583333333334 734.287507565435 625 455.7458408987685 625L164.0791742321018 625L164.0791742321018 416.6666666666668M664.0791742321018 416.6666666666668C664.0791742321018 393.75 701.5791742321018 375 747.4125075654351 375C793.2458408987685 375 830.7458408987685 393.75 830.7458408987685 416.6666666666668C830.7458408987685 439.5833333333334 793.2458408987685 458.3333333333334 747.4125075654351 458.3333333333334C701.5791742321018 458.3333333333334 664.0791742321018 439.5833333333334 664.0791742321018 416.6666666666668" />
    <glyph glyph-name="apple"
      unicode="&#xEA1E;"
      horiz-adv-x="1000" d="M415.5264853079203 923.2083333333334C415.5264853079203 900.5 438.9848186412537 872.4166666666667 467.6098186412536 860.7916666666666C507.0264853079203 844.8333333333334 504.7764853079203 829.3333333333334 458.4014853079203 797.125C382.2764853079203 744.2083333333334 429.4848186412537 688.7916666666667 520.818151974587 723.8333333333334C609.4014853079204 757.8333333333334 584.4848186412537 932.25 488.443151974587 950.5416666666666C448.318151974587 958.2083333333334 415.5264853079203 945.875 415.5264853079203 923.2083333333334M252.1514853079203 514.2916666666667C71.4014853079203 387.6666666666668 213.693151974587 -59.6666666666665 408.318151974587 23.25C446.6514853079203 39.5833333333334 523.3598186412537 50.375 578.7764853079202 47.2083333333334C634.193151974587 44.0416666666666 713.9014853079204 72.5416666666667 755.8598186412537 110.5000000000001C836.6098186412537 183.5833333333334 857.2348186412537 395.9583333333334 793.3598186412537 496.8333333333333C740.8598186412537 579.75 363.0264853079203 591.9166666666667 252.1514853079203 514.2916666666667M313.0264853079203 448.4166666666668C246.1098186412537 411.0000000000001 227.9014853079203 261.875 280.7348186412537 184.1250000000001C319.818151974587 126.6666666666666 650.568151974587 135.0416666666668 710.568151974587 195.0416666666668C735.4848186412535 219.9583333333334 749.6514853079202 284.75 741.9848186412537 338.9583333333334C730.4848186412537 420.125 697.068151974587 441.625 552.6098186412537 460.9166666666666C456.1098186412536 473.7916666666667 348.2764853079203 468.1666666666667 313.0264853079203 448.4166666666668" />
    <glyph glyph-name="archive-restore"
      unicode="&#xEA1F;"
      horiz-adv-x="1000" d="M-20.9166666666666 768.4583333333334C-20.9166666666666 689.5416666666667 -2.1666666666666 625 20.75 625C44.25 625 62.4166666666667 506.9583333333334 62.4166666666667 354.1666666666668L62.4166666666667 83.3333333333334L479.0833333333334 83.3333333333334L895.75 83.3333333333334L895.75 349.7083333333334C895.75 548.0416666666667 911.7083333333331 622.2083333333334 958.25 640.0833333333334C996.2083333333334 654.625 1020.7916666666666 717.75 1020.8333333333334 800.7916666666667L1020.9166666666666 937.5L500 924.7083333333334L-20.9166666666666 911.9166666666666L-20.9166666666666 768.4583333333334M-10.4166666666666 770.8333333333334C-9.9583333333333 679.1666666666667 -1.4166666666666 646.5833333333334 8.5416666666667 698.4166666666667C18.5 750.25 18.125 825.25 7.7083333333334 865.0833333333334C-2.7083333333333 904.9166666666666 -10.875 862.5 -10.4166666666666 770.8333333333334M62.4166666666667 770.8333333333334C62.4166666666667 729.75 103.5 708.3333333333334 182.3333333333334 708.3333333333334C248.25 708.3333333333334 325.5416666666667 736.4583333333333 354.0833333333334 770.8333333333334C398.75 824.6666666666666 382.125 833.3333333333334 234.1666666666667 833.3333333333334C109.2916666666667 833.3333333333334 62.4166666666667 816.2916666666667 62.4166666666667 770.8333333333334M604.0833333333334 770.8333333333334C632.625 736.4583333333333 709.9166666666666 708.3333333333334 775.8333333333334 708.3333333333334C854.6666666666666 708.3333333333334 895.75 729.75 895.75 770.8333333333334C895.75 816.2916666666667 848.875 833.3333333333334 724 833.3333333333334C576.0416666666666 833.3333333333334 559.4166666666667 824.6666666666666 604.0833333333334 770.8333333333334M145.75 395.8333333333334L145.75 166.6666666666668L291.5833333333334 166.6666666666668C432.9583333333334 166.6666666666668 437.4166666666667 171.5416666666668 437.4166666666667 326.875C437.4166666666667 496.4583333333333 341.7083333333333 625 215.375 625C158.75 625 145.75 582.2083333333334 145.75 395.8333333333334M589.7083333333333 548.7916666666667C551.7916666666666 506.875 520.75 403.75 520.75 319.625C520.75 172.5833333333334 526.4166666666666 166.6666666666668 666.5833333333334 166.6666666666668L812.4166666666666 166.6666666666668L812.4166666666666 395.8333333333334C812.4166666666666 590.7916666666667 800.9583333333334 625 735.5416666666667 625C693.25 625 627.625 590.7083333333333 589.7083333333333 548.7916666666667" />
    <glyph glyph-name="archive"
      unicode="&#xEA20;"
      horiz-adv-x="1000" d="M-20.9166666666666 768.4583333333334C-20.9166666666666 689.5416666666667 -2.1666666666666 625 20.75 625C44.25 625 62.4166666666667 506.9583333333334 62.4166666666667 354.1666666666668L62.4166666666667 83.3333333333334L479.0833333333334 83.3333333333334L895.75 83.3333333333334L895.75 349.7083333333334C895.75 548.0416666666667 911.7083333333331 622.2083333333334 958.25 640.0833333333334C996.2083333333334 654.625 1020.7916666666666 717.75 1020.8333333333334 800.7916666666667L1020.9166666666666 937.5L500 924.7083333333334L-20.9166666666666 911.9166666666666L-20.9166666666666 768.4583333333334M-10.4166666666666 770.8333333333334C-9.9583333333333 679.1666666666667 -1.4166666666666 646.5833333333334 8.5416666666667 698.4166666666667C18.5 750.25 18.125 825.25 7.7083333333334 865.0833333333334C-2.7083333333333 904.9166666666666 -10.875 862.5 -10.4166666666666 770.8333333333334M62.4166666666667 770.8333333333334C62.4166666666667 719.4583333333334 136.5 708.3333333333334 479.0833333333334 708.3333333333334C821.6666666666667 708.3333333333334 895.75 719.4583333333334 895.75 770.8333333333334C895.75 822.2083333333334 821.6666666666667 833.3333333333334 479.0833333333334 833.3333333333334C136.5 833.3333333333334 62.4166666666667 822.2083333333334 62.4166666666667 770.8333333333334M145.75 395.8333333333334L145.75 166.6666666666668L479.0833333333334 166.6666666666668L812.4166666666666 166.6666666666668L812.4166666666666 395.8333333333334L812.4166666666666 625L479.0833333333334 625L145.75 625L145.75 395.8333333333334M354.0833333333334 500C354.0833333333334 477.0833333333334 410.3333333333333 458.3333333333334 479.0833333333334 458.3333333333334C547.8333333333334 458.3333333333334 604.0833333333334 477.0833333333334 604.0833333333334 500C604.0833333333334 522.9166666666667 547.8333333333334 541.6666666666667 479.0833333333334 541.6666666666667C410.3333333333333 541.6666666666667 354.0833333333334 522.9166666666667 354.0833333333334 500" />
    <glyph glyph-name="archway"
      unicode="&#xEA21;"
      horiz-adv-x="1000" d="M271.8958333333333 625C206.0208333333334 556.25 130.3958333333334 500 103.8541666666667 500C74.0208333333333 500 52.7291666666667 412.4583333333334 48.1041666666667 270.8333333333334L40.6041666666667 41.6666666666667L500.0208333333333 41.6666666666667C778.4791666666666 41.6666666666667 959.3958333333331 58.0833333333334 959.3958333333331 83.3333333333334C959.3958333333331 106.2500000000001 921.8958333333334 125 876.0625 125C808.6041666666666 125 792.7291666666666 152.7916666666668 792.7291666666666 270.8333333333334C792.7291666666666 388.875 808.6041666666666 416.6666666666668 876.0625 416.6666666666668C921.8958333333334 416.6666666666668 959.3958333333331 435.4166666666667 959.3958333333331 458.3333333333334C959.3958333333331 481.2500000000001 930.0624999999998 500 894.1874999999999 500C858.3541666666666 500 781.6874999999999 556.25 723.8541666666666 625C584.6458333333333 790.4166666666666 430.3958333333333 790.4166666666666 271.8958333333333 625M459.3958333333333 636.9166666666667C493.7708333333333 624.1666666666667 559.3958333333334 594.4583333333333 605.2291666666666 570.875C679.7291666666666 532.5833333333334 682.4791666666666 535.375 631.3958333333333 597.3333333333334C599.9374999999999 635.4583333333333 534.3125 665.1666666666667 485.5625 663.375C424.6875 661.125 416.4791666666667 652.8333333333333 459.3958333333333 636.9166666666667M320.5208333333333 513.875C305.2291666666667 498.6250000000001 292.7291666666667 404.875 292.7291666666667 305.5416666666667L292.7291666666667 125L501.0625 125C696.4791666666666 125 709.3958333333333 131.5833333333335 709.3958333333333 231.0416666666668C709.3958333333333 414.9166666666668 426.9375 620.3333333333334 320.5208333333333 513.875M151.3541666666667 350.75C112.3541666666667 249.1666666666668 121.3958333333334 125 167.7291666666667 125C190.6458333333334 125 209.3958333333334 190.625 209.3958333333334 270.8333333333334C209.3958333333334 428.9583333333334 191.0625 454.2083333333334 151.3541666666667 350.75" />
    <glyph glyph-name="armchair"
      unicode="&#xEA22;"
      horiz-adv-x="1000" d="M183.1666666666666 802.0833333333334C170.75 761.9583333333334 143.2083333333333 696.625 121.9583333333333 656.8333333333333C61.9583333333333 544.4583333333334 78.875 279.8333333333334 151.9583333333333 187.5C197.625 129.7500000000001 223.875 120.1666666666668 237.4166666666667 156.25C249.9583333333333 189.75 343.75 208.3333333333334 500 208.3333333333334C656.25 208.3333333333334 750.0416666666666 189.75 762.5833333333333 156.25C776.1249999999999 120.1666666666668 802.375 129.7500000000001 848.0416666666666 187.5C921.1249999999998 279.8333333333334 938.0416666666666 544.4583333333334 878.0416666666666 656.8333333333333C856.7916666666665 696.625 829.25 761.9583333333334 816.8333333333333 802.0833333333334C798.1666666666665 862.5 743.875 875 500 875C256.125 875 201.8333333333333 862.5 183.1666666666666 802.0833333333334M250 758.2916666666667C250 739.9583333333334 273.4583333333333 674.5 302.0833333333333 612.7916666666667C344.0833333333333 522.3333333333334 382.3749999999999 500.6666666666667 500 500.6666666666667C617.625 500.6666666666667 655.9166666666666 522.3333333333334 697.9166666666666 612.7916666666667C726.5416666666666 674.5 750 739.9583333333334 750 758.2916666666667C750 776.6666666666666 637.5 791.6666666666667 500 791.6666666666667C362.4999999999999 791.6666666666667 250 776.6666666666666 250 758.2916666666667M166.6666666666666 437.5L166.6666666666666 291.6666666666668L500 291.6666666666668L833.3333333333333 291.6666666666668L833.3333333333333 437.5C833.3333333333333 517.7083333333334 814.5833333333334 583.3333333333334 791.6666666666666 583.3333333333334C768.7499999999999 583.3333333333334 750 545.8333333333334 750 500C750 425.9166666666667 722.2083333333333 416.6666666666668 500 416.6666666666668C277.7916666666667 416.6666666666668 250 425.9166666666667 250 500C250 545.8333333333334 231.25 583.3333333333334 208.3333333333333 583.3333333333334C185.4166666666666 583.3333333333334 166.6666666666666 517.7083333333334 166.6666666666666 437.5" />
    <glyph glyph-name="arrow-bear-left"
      unicode="&#xEA23;"
      horiz-adv-x="1000" d="M780.4583333333333 770.8333333333334C780.4583333333333 576.5 659.875 458.3333333333334 461.5 458.3333333333334C311.7083333333334 458.3333333333334 310.4583333333334 459.7083333333334 384.875 541.9166666666667C513.5 684.0416666666667 410.75 691.2083333333334 269.5 549.9583333333334L136.2083333333334 416.6666666666668L269.5 283.375C410.75 142.1250000000001 513.5 149.2916666666666 384.875 291.4166666666668C310.2916666666667 373.8333333333334 311.6666666666668 375 484.2083333333334 375C722.7916666666666 375 863.7916666666666 513.625 863.7916666666666 748.125C863.7916666666666 840.8333333333334 845.0416666666666 916.6666666666666 822.125 916.6666666666666C799.2083333333333 916.6666666666666 780.4583333333333 851.0416666666666 780.4583333333333 770.8333333333334" />
    <glyph glyph-name="arrow-bear-right"
      unicode="&#xEA24;"
      horiz-adv-x="1000" d="M136.2083333333334 748.125C136.2083333333334 513.625 277.2083333333334 375 515.7916666666666 375C688.3333333333333 375 689.7083333333334 373.8333333333334 615.125 291.4166666666668C486.5000000000001 149.2916666666666 589.2499999999999 142.1250000000001 730.5 283.375L863.7916666666666 416.6666666666668L730.5 549.9583333333334C589.2499999999999 691.2083333333334 486.5000000000001 684.0416666666667 615.125 541.9166666666667C689.5416666666666 459.7083333333334 688.2916666666666 458.3333333333334 538.5 458.3333333333334C340.1250000000001 458.3333333333334 219.5416666666667 576.5 219.5416666666667 770.8333333333334C219.5416666666667 851.0416666666666 200.7916666666667 916.6666666666666 177.8750000000001 916.6666666666666C154.9583333333334 916.6666666666666 136.2083333333334 840.8333333333334 136.2083333333334 748.125" />
    <glyph glyph-name="arrow-circle-down"
      unicode="&#xEA25;"
      horiz-adv-x="1000" d="M312.5 921.0833333333334C144.0416666666667 847.8333333333334 62.5 709.3333333333334 62.5 496.5833333333333C62.5 330.25 83.375 272.6666666666668 178.0416666666667 178.0416666666668C273.2083333333333 82.8750000000001 329.9583333333333 62.5 500 62.5C792.1249999999999 62.5 937.5 207.8750000000001 937.5 500C937.5 666.7083333333334 916.6666666666666 727.25 829.2916666666665 814.6666666666666C712.4583333333333 931.5 457.25 984.0416666666666 312.5 921.0833333333334M246.7916666666667 753.2083333333334C163.6666666666667 670.0833333333334 125 589.6666666666667 125 500C125 320.75 320.75 125 500 125C589.6666666666666 125 670.0833333333334 163.6666666666668 753.2083333333334 246.7916666666667C916.9583333333334 410.5416666666668 916.9583333333334 589.4583333333334 753.2083333333334 753.2083333333334C589.4583333333333 916.9583333333334 410.5416666666667 916.9583333333334 246.7916666666667 753.2083333333334M458.3333333333333 578.25C458.3333333333333 466.375 449.4166666666667 455.5416666666667 394.8333333333334 500.8333333333334C279.2083333333333 596.7916666666667 273.125 499.5833333333334 387.625 385.0833333333334L500 272.7083333333335L612.3749999999999 385.0833333333334C726.875 499.5833333333334 720.7916666666666 596.7916666666667 605.1666666666666 500.8333333333334C550.5833333333334 455.5416666666667 541.6666666666666 466.375 541.6666666666666 578.25C541.6666666666666 649.7916666666667 522.9166666666666 708.3333333333334 500 708.3333333333334C477.0833333333333 708.3333333333334 458.3333333333333 649.7916666666667 458.3333333333333 578.25" />
    <glyph glyph-name="arrow-circle-left"
      unicode="&#xEA26;"
      horiz-adv-x="1000" d="M312.5 921.0833333333334C144.0416666666667 847.8333333333334 62.5 709.3333333333334 62.5 496.5833333333333C62.5 330.25 83.375 272.6666666666668 178.0416666666667 178.0416666666668C273.2083333333333 82.8750000000001 329.9583333333333 62.5 500 62.5C792.1249999999999 62.5 937.5 207.8750000000001 937.5 500C937.5 666.7083333333334 916.6666666666666 727.25 829.2916666666665 814.6666666666666C712.4583333333333 931.5 457.25 984.0416666666666 312.5 921.0833333333334M246.7916666666667 753.2083333333334C163.6666666666667 670.0833333333334 125 589.6666666666667 125 500C125 320.75 320.75 125 500 125C589.6666666666666 125 670.0833333333334 163.6666666666668 753.2083333333334 246.7916666666667C916.9583333333334 410.5416666666668 916.9583333333334 589.4583333333334 753.2083333333334 753.2083333333334C589.4583333333333 916.9583333333334 410.5416666666667 916.9583333333334 246.7916666666667 753.2083333333334M373.9166666666667 603.0416666666667L275 497.7083333333334L386.25 386.5C499.9166666666666 272.8333333333333 596.25 279.8333333333334 500.8333333333333 394.8333333333334C455.5416666666666 449.4166666666667 466.3749999999999 458.3333333333334 578.25 458.3333333333334C649.7916666666666 458.3333333333334 708.3333333333333 477.0833333333334 708.3333333333333 500C708.3333333333333 522.9166666666667 648.3333333333334 541.6666666666667 575 541.6666666666667C471.2916666666666 541.6666666666667 452.7916666666667 552.7916666666667 491.6666666666667 591.6666666666667C519.1666666666666 619.1666666666667 541.6666666666666 656.6666666666667 541.6666666666666 675C541.6666666666666 737.8333333333334 472.8333333333333 708.2916666666667 373.9166666666667 603.0416666666667" />
    <glyph glyph-name="arrow-circle-right"
      unicode="&#xEA27;"
      horiz-adv-x="1000" d="M312.5 921.0833333333334C144.0416666666667 847.8333333333334 62.5 709.3333333333334 62.5 496.5833333333333C62.5 330.25 83.375 272.6666666666668 178.0416666666667 178.0416666666668C273.2083333333333 82.8750000000001 329.9583333333333 62.5 500 62.5C792.1249999999999 62.5 937.5 207.8750000000001 937.5 500C937.5 666.7083333333334 916.6666666666666 727.25 829.2916666666665 814.6666666666666C712.4583333333333 931.5 457.25 984.0416666666666 312.5 921.0833333333334M246.7916666666667 753.2083333333334C163.6666666666667 670.0833333333334 125 589.6666666666667 125 500C125 320.75 320.75 125 500 125C589.6666666666666 125 670.0833333333334 163.6666666666668 753.2083333333334 246.7916666666667C916.9583333333334 410.5416666666668 916.9583333333334 589.4583333333334 753.2083333333334 753.2083333333334C589.4583333333333 916.9583333333334 410.5416666666667 916.9583333333334 246.7916666666667 753.2083333333334M458.3333333333333 675C458.3333333333333 656.6666666666667 480.8333333333333 619.1666666666667 508.3333333333333 591.6666666666667C547.2083333333333 552.7916666666667 528.7083333333333 541.6666666666667 425 541.6666666666667C351.6666666666667 541.6666666666667 291.6666666666667 522.9166666666667 291.6666666666667 500C291.6666666666667 477.0833333333334 350.2083333333333 458.3333333333334 421.75 458.3333333333334C533.625 458.3333333333334 544.4583333333333 449.4166666666667 499.1666666666666 394.8333333333334C403.75 279.8333333333334 500.0833333333333 272.8333333333333 613.75 386.5L724.9999999999999 497.7083333333334L626.0833333333333 603.0416666666667C527.1666666666666 708.2916666666667 458.3333333333333 737.8333333333334 458.3333333333333 675" />
    <glyph glyph-name="arrow-circle-up"
      unicode="&#xEA28;"
      horiz-adv-x="1000" d="M312.5 921.0833333333334C144.0416666666667 847.8333333333334 62.5 709.3333333333334 62.5 496.5833333333333C62.5 330.25 83.375 272.6666666666668 178.0416666666667 178.0416666666668C273.2083333333333 82.8750000000001 329.9583333333333 62.5 500 62.5C792.1249999999999 62.5 937.5 207.8750000000001 937.5 500C937.5 666.7083333333334 916.6666666666666 727.25 829.2916666666665 814.6666666666666C712.4583333333333 931.5 457.25 984.0416666666666 312.5 921.0833333333334M246.7916666666667 753.2083333333334C163.6666666666667 670.0833333333334 125 589.6666666666667 125 500C125 320.75 320.75 125 500 125C589.6666666666666 125 670.0833333333334 163.6666666666668 753.2083333333334 246.7916666666667C916.9583333333334 410.5416666666668 916.9583333333334 589.4583333333334 753.2083333333334 753.2083333333334C589.4583333333333 916.9583333333334 410.5416666666667 916.9583333333334 246.7916666666667 753.2083333333334M375.1666666666667 604.3333333333333C271.5416666666667 494.0416666666667 287.2916666666667 409.9166666666667 394.8333333333334 499.1666666666667C449.4166666666667 544.4583333333334 458.3333333333333 533.625 458.3333333333333 421.75C458.3333333333333 350.2083333333334 477.0833333333333 291.6666666666668 500 291.6666666666668C522.9166666666666 291.6666666666668 541.6666666666666 350.2083333333334 541.6666666666666 421.75C541.6666666666666 533.625 550.5833333333334 544.4583333333334 605.1666666666666 499.1666666666667C712.7083333333333 409.9166666666667 728.4583333333334 494.0416666666667 624.8333333333334 604.3333333333333C504.2083333333333 732.75 495.7916666666666 732.75 375.1666666666667 604.3333333333333" />
    <glyph glyph-name="arrow-down-left"
      unicode="&#xEA29;"
      horiz-adv-x="1000" d="M250 500L250 250L500 250C638.875 250 750 268.5 750 291.6666666666668C750 314.5833333333334 671.0833333333334 333.3333333333334 574.6666666666666 333.3333333333334L399.3333333333333 333.3333333333334L582.4583333333333 519.9583333333333C821.5 763.5 763.5 821.5 519.9583333333333 582.4583333333333L333.3333333333333 399.3333333333334L333.3333333333333 574.6666666666667C333.3333333333333 671.0833333333334 314.5833333333333 750 291.6666666666667 750C268.5 750 250 638.875 250 500" />
    <glyph glyph-name="arrow-down-right"
      unicode="&#xEA2A;"
      horiz-adv-x="1000" d="M250 720.3333333333334C250 704 328.9166666666667 610.25 425.3333333333333 512L600.6666666666666 333.3333333333334L425.3333333333333 333.3333333333334C328.9166666666667 333.3333333333334 250 314.5833333333334 250 291.6666666666668C250 268.5 361.125 250 500 250L750 250L750 500C750 638.875 731.5 750 708.3333333333333 750C685.4166666666666 750 666.6666666666666 671.0833333333334 666.6666666666666 574.6666666666667L666.6666666666666 399.3333333333334L487.9999999999999 574.6666666666667C316.2916666666667 743.1666666666667 250 783.75 250 720.3333333333334" />
    <glyph glyph-name="arrow-down"
      unicode="&#xEA2B;"
      horiz-adv-x="1000" d="M458.3333333333333 575.5416666666667L458.3333333333333 317.7500000000001L333.75 437.0833333333334C137.7916666666667 624.8333333333334 129.5833333333333 517.5 324.9583333333333 322.0833333333334L500 147.0416666666668L675.0416666666666 322.0833333333334C870.4166666666666 517.5 862.2083333333334 624.8333333333334 666.25 437.0833333333334L541.6666666666666 317.7500000000001L541.6666666666666 575.5416666666667C541.6666666666666 719.625 523.2916666666666 833.3333333333334 500 833.3333333333334C476.7083333333333 833.3333333333334 458.3333333333333 719.625 458.3333333333333 575.5416666666667" />
    <glyph glyph-name="arrow-fork"
      unicode="&#xEA2C;"
      horiz-adv-x="1000" d="M125.1666666666668 854.3333333333334C21.5416666666667 744.0416666666667 37.2916666666667 659.9166666666666 144.8333333333334 749.1666666666667C182.7083333333334 780.625 208.3333333333334 784.4166666666666 208.3333333333334 758.5833333333334C208.3333333333334 734.75 185.0833333333334 707.5416666666667 156.6250000000001 698.0416666666667C119.9166666666668 685.7916666666667 127.0833333333334 658.625 181.2500000000001 604.4583333333333C242.9166666666668 542.8333333333334 264.25 538.9583333333334 292.2916666666667 584.3333333333333C320.9166666666667 630.6666666666666 338.4583333333334 630.9583333333334 392.6666666666667 585.9583333333334C437.5416666666667 548.7083333333334 458.3333333333334 460.5416666666667 458.3333333333334 307.4166666666668C458.3333333333334 184.1666666666668 477.0833333333333 83.3333333333334 500.0000000000001 83.3333333333334C522.9166666666667 83.3333333333334 541.6666666666667 184.1666666666668 541.6666666666667 307.4166666666668C541.6666666666667 460.5416666666667 562.4583333333335 548.7083333333334 607.3333333333335 585.9583333333334C661.5416666666667 630.9583333333334 679.0833333333334 630.6666666666666 707.7083333333334 584.3333333333333C735.7500000000001 538.9583333333334 757.0833333333335 542.8333333333334 818.75 604.4583333333333C872.9166666666667 658.625 880.0833333333334 685.7916666666667 843.375 698.0416666666667C814.9166666666667 707.5416666666667 791.6666666666667 734.75 791.6666666666667 758.5833333333334C791.6666666666667 784.4166666666666 817.2916666666666 780.625 855.1666666666667 749.1666666666667C962.7083333333334 659.9166666666666 978.4583333333334 744.0416666666667 874.8333333333334 854.3333333333334C747.8750000000001 989.5 708.3333333333334 985.5833333333334 708.3333333333334 837.8333333333334C708.3333333333334 744.0833333333334 685.2500000000001 711.5833333333334 604.1666666666667 691.2083333333334C546.8750000000001 676.8333333333333 453.1250000000001 676.8333333333333 395.8333333333334 691.2083333333334C314.7500000000001 711.5833333333334 291.6666666666667 744.0833333333334 291.6666666666667 837.8333333333334C291.6666666666667 985.5833333333334 252.1250000000001 989.5 125.1666666666668 854.3333333333334" />
    <glyph glyph-name="arrow-left-right"
      unicode="&#xEA2D;"
      horiz-adv-x="1000" d="M206.430342968639 656.25C179.305342968639 604.6666666666667 138.555342968639 550.4166666666667 115.8886763019723 535.6666666666667C89.5970096353056 518.5 92.3886763019723 488.3750000000001 123.555342968639 452.3333333333334C150.430342968639 421.25 198.3470096353056 358.3750000000001 230.055342968639 312.5833333333334C303.3470096353056 206.75 358.4720096353056 255.6250000000001 296.4720096353056 371.4166666666668C251.680342968639 455.0833333333334 259.3886763019723 458.3333333333334 502.8886763019723 458.3333333333334C746.3886763019723 458.3333333333334 754.0970096353055 455.0833333333334 709.3053429686389 371.4166666666668C647.3053429686389 255.6250000000001 702.430342968639 206.75 775.7220096353055 312.5833333333334C807.4303429686389 358.3750000000001 853.5136763019722 419.25 878.0970096353055 447.9166666666668C909.9720096353057 485 909.9720096353057 515 878.0970096353055 552.0833333333334C853.5136763019722 580.7083333333333 807.4303429686389 641.625 775.7220096353055 687.4166666666667C702.430342968639 793.25 647.3053429686389 744.375 709.3053429686389 628.5833333333334C754.0970096353055 544.9166666666667 746.3886763019723 541.6666666666667 502.8886763019723 541.6666666666667C265.7220096353056 541.6666666666667 252.6386763019723 546.7083333333334 293.0970096353056 622.25C346.6803429686389 722.4166666666667 347.3053429686389 750 296.0136763019723 750C273.9303429686389 750 233.5970096353056 707.8333333333334 206.430342968639 656.25" />
    <glyph glyph-name="arrow-left"
      unicode="&#xEA2E;"
      horiz-adv-x="1000" d="M320.9583333333334 666L157.5416666666667 498.6250000000001L331.9166666666667 324.2916666666668C526.8333333333334 129.3333333333334 633.5833333333333 138.2083333333334 446.2083333333334 333.75L326.875 458.3333333333334L584.6666666666666 458.3333333333334C728.75 458.3333333333334 842.4583333333333 476.7083333333334 842.4583333333333 500C842.4583333333333 523.2916666666667 728.75 541.6666666666667 584.6666666666666 541.6666666666667L326.875 541.6666666666667L438.8333333333334 658.5416666666667C500.4166666666666 722.7916666666667 550.7916666666666 788.4166666666666 550.7916666666666 804.375C550.7916666666666 869.5833333333334 475.5416666666667 824.2916666666667 320.9583333333334 666" />
    <glyph glyph-name="arrow-loop-left"
      unicode="&#xEA2F;"
      horiz-adv-x="1000" d="M319.0389555877251 715.4583333333334C209.0389555877251 593.9166666666667 232.3306222543918 407.5833333333334 374.6639555877252 271.2500000000001C524.1639555877251 128 597.5806222543918 164.3750000000001 458.2472889210584 312.6666666666668L360.5389555877251 416.6666666666668L458.2472889210584 520.6666666666667C576.4139555877251 646.4583333333334 537.2056222543918 712.5416666666667 410.9139555877252 600.4583333333333C350.4556222543918 546.75 327.4139555877251 540.2083333333334 340.2056222543918 580.375C372.7472889210584 682.3333333333334 490.9972889210584 734.4583333333333 572.9972889210584 682.9166666666667C629.1639555877251 647.625 648.7472889210584 568.7083333333333 658.1639555877251 339.375C674.288955587725 -52.5416666666665 750.0806222543918 -45.7083333333333 750.0806222543918 347.7083333333334C750.0806222543918 591.2916666666667 734.5389555877251 667.8333333333333 673.8722889210584 722.7083333333333C573.2472889210584 813.7916666666666 404.9139555877252 810.3333333333334 319.0389555877251 715.4583333333334" />
    <glyph glyph-name="arrow-loop-right"
      unicode="&#xEA30;"
      horiz-adv-x="1000" d="M319.6526030756195 715.4583333333334C268.9859364089529 659.4583333333334 250.6942697422862 560.0416666666667 250.6942697422862 340.4583333333334C250.6942697422862 -47.625 326.6526030756195 -48.5 342.6109364089529 339.375C352.0276030756195 568.7083333333333 371.6109364089528 647.625 427.7776030756195 682.9166666666667C509.7776030756195 734.4583333333333 628.0276030756195 682.3333333333334 660.5692697422861 580.375C673.3609364089527 540.2083333333334 650.3192697422862 546.75 589.8609364089529 600.4583333333333C463.5692697422862 712.5416666666667 424.3609364089528 646.4583333333334 542.5276030756195 520.6666666666667L640.2359364089529 416.6666666666668L542.5276030756195 312.6666666666668C403.1942697422861 164.3750000000001 476.6109364089529 128 626.1109364089529 271.2500000000001C841.0276030756194 477.125 760.8192697422861 791.6666666666667 493.4442697422862 791.6666666666667C435.7776030756195 791.6666666666667 357.5692697422861 757.375 319.6526030756195 715.4583333333334" />
    <glyph glyph-name="arrow-loop"
      unicode="&#xEA31;"
      horiz-adv-x="1000" d="M205.8078339407123 691.0416666666667C44.6828339407123 519.5416666666667 154.1828339407123 370.2083333333334 430.5995006073789 384.5833333333334C475.849500607379 386.9583333333334 546.1411672740455 427.9583333333334 586.8495006073789 475.7083333333334L660.8078339407122 562.5L740.3911672740455 468.75C832.4328339407122 360.375 869.1411672740455 350.5833333333334 869.1411672740455 434.5416666666668C869.1411672740455 616.0833333333333 536.6411672740455 683.7083333333334 409.0578339407123 528.125C350.1411672740456 456.3333333333334 340.099500607379 455.4166666666667 288.724500607379 517.3333333333334C241.3078339407123 574.4583333333334 243.1828339407123 596.5416666666667 300.8911672740456 660.2916666666667C441.099500607379 815.25 350.099500607379 844.625 205.8078339407123 691.0416666666667" />
    <glyph glyph-name="arrow-merge"
      unicode="&#xEA32;"
      horiz-adv-x="1000" d="M208.3333333333334 935.8333333333334C208.3333333333334 888.4583333333334 375.8333333333334 587.75 416.0833333333334 562.875C439.3333333333334 548.5 458.3333333333334 425.375 458.3333333333334 289.2083333333334C458.3333333333334 151.9583333333334 476.9166666666667 41.6666666666667 500.0000000000001 41.6666666666667C523.0833333333335 41.6666666666667 541.6666666666667 151.9583333333334 541.6666666666667 289.2083333333334C541.6666666666667 425.375 560.6666666666667 548.5 583.9166666666667 562.875C624.1666666666667 587.75 791.6666666666667 888.4583333333334 791.6666666666667 935.8333333333334C791.6666666666667 1014.4583333333334 696.7916666666667 932.375 625 791.6666666666667C578.25 700 522 625 500.0000000000001 625C478 625 421.75 700 375.0000000000001 791.6666666666667C303.2083333333334 932.375 208.3333333333334 1014.4583333333334 208.3333333333334 935.8333333333334" />
    <glyph glyph-name="arrow-ramp-left"
      unicode="&#xEA33;"
      horiz-adv-x="1000" d="M236.9791666666668 624.0833333333334L116.3125000000001 498.1250000000001L248.6458333333334 365.7916666666668C389.2708333333335 225.1666666666668 491.2291666666667 233.1666666666668 363.1041666666668 374.75C288.5208333333334 457.125 289.8958333333334 458.3333333333334 460.5625000000001 458.3333333333334C670.8958333333334 458.3333333333334 800.3541666666667 347.2083333333334 800.3541666666667 166.6666666666668C800.3541666666667 97.9166666666667 819.1041666666666 41.6666666666667 842.0208333333334 41.6666666666667C864.9375000000001 41.6666666666667 883.6875 108.125 883.6875 189.3750000000001C883.6875 410.0833333333334 734.1458333333334 541.6666666666667 483.2708333333334 541.6666666666667C296.1875000000001 541.6666666666667 290.5208333333334 545.0833333333334 356.3958333333334 617.875C513.1875 791.125 402.5208333333334 796.875 236.9791666666668 624.0833333333334" />
    <glyph glyph-name="arrow-ramp-right"
      unicode="&#xEA34;"
      horiz-adv-x="1000" d="M574.6458333333334 722.0416666666667C574.6458333333334 706.6666666666667 605.6875 659.7916666666667 643.6041666666667 617.875C709.4791666666667 545.0833333333334 703.8125 541.6666666666667 516.7291666666666 541.6666666666667C265.8541666666667 541.6666666666667 116.3125 410.0833333333334 116.3125 189.3750000000001C116.3125 108.125 135.0625 41.6666666666667 157.9791666666667 41.6666666666667C180.8958333333333 41.6666666666667 199.6458333333334 97.9166666666667 199.6458333333334 166.6666666666668C199.6458333333334 347.2083333333334 329.1041666666667 458.3333333333334 539.4375 458.3333333333334C710.1041666666667 458.3333333333334 711.4791666666666 457.125 636.8958333333334 374.75C508.7708333333334 233.1666666666668 610.7291666666666 225.1666666666668 751.3541666666666 365.7916666666668L883.6875 498.1250000000001L763.0208333333334 624.0833333333334C647.8541666666667 744.2916666666667 574.6458333333334 782.375 574.6458333333334 722.0416666666667" />
    <glyph glyph-name="arrow-return"
      unicode="&#xEA35;"
      horiz-adv-x="1000" d="M801.2916666666666 695.8333333333334C801.2916666666666 465.4166666666667 747.75 416.6666666666668 494.8333333333333 416.6666666666668C290.7916666666667 416.6666666666668 289.25 417.6666666666667 364.0416666666667 500.2500000000001C492.6666666666666 642.375 389.9166666666667 649.5416666666667 248.6666666666667 508.2916666666667L115.375 375L248.6666666666667 241.7083333333333C389.9166666666667 100.4583333333335 492.6666666666666 107.625 364.0416666666667 249.75C289.1666666666667 332.4583333333334 290.7916666666667 333.3333333333334 521.0416666666666 333.3333333333334C817.7083333333333 333.3333333333334 884.625 395.2083333333334 884.625 669.625C884.625 782.5833333333334 865.875 875 842.9583333333333 875C820.0416666666666 875 801.2916666666666 794.375 801.2916666666666 695.8333333333334" />
    <glyph glyph-name="arrow-right"
      unicode="&#xEA36;"
      horiz-adv-x="1000" d="M449.2083333333334 804.375C449.2083333333334 788.4166666666666 499.5833333333334 722.7916666666667 561.1666666666666 658.5416666666667L673.1249999999999 541.6666666666667L415.3333333333333 541.6666666666667C271.25 541.6666666666667 157.5416666666667 523.2916666666667 157.5416666666667 500C157.5416666666667 476.7083333333334 271.25 458.3333333333334 415.3333333333333 458.3333333333334L673.1249999999999 458.3333333333334L553.7916666666666 333.75C366.4166666666667 138.2083333333334 473.1666666666666 129.3333333333334 668.0833333333333 324.2916666666668L842.4583333333333 498.6250000000001L679.0416666666665 666C524.4583333333333 824.2916666666667 449.2083333333334 869.5833333333334 449.2083333333334 804.375" />
    <glyph glyph-name="arrow-split"
      unicode="&#xEA37;"
      horiz-adv-x="1000" d="M458.3333333333333 695.7083333333334C458.3333333333333 467.2083333333334 441.4583333333333 410.125 328.3333333333333 256.2916666666668C256.7916666666667 159.0416666666668 211.4583333333333 66.3333333333334 227.5416666666667 50.2083333333334C254.7916666666667 23 288.0833333333333 57.25 440.8749999999999 269.7083333333334C499.7083333333333 351.5 500.2916666666666 351.5 559.125 269.7083333333334C711.9166666666665 57.25 745.2083333333334 23 772.4583333333334 50.2083333333334C788.5416666666666 66.3333333333334 743.2083333333333 159.0416666666668 671.6666666666666 256.2916666666668C558.5416666666666 410.125 541.6666666666666 467.2083333333334 541.6666666666666 695.7083333333334C541.6666666666666 843 523.375 958.3333333333334 500 958.3333333333334C476.625 958.3333333333334 458.3333333333333 843 458.3333333333333 695.7083333333334" />
    <glyph glyph-name="arrow-square-down"
      unicode="&#xEA38;"
      horiz-adv-x="1000" d="M109.3444583252169 862.6666666666667C97.3027916585502 831.25 92.9277916585502 647.7083333333334 99.6361249918836 454.8333333333334L111.8444583252169 104.1666666666667L507.6777916585502 104.1666666666667L903.5111249918834 104.1666666666667L903.5111249918834 500L903.5111249918834 895.8333333333334L517.3861249918835 907.8333333333334C220.3027916585502 917.0416666666666 126.2194583252169 906.625 109.3444583252169 862.6666666666667M174.3444583252169 500L174.3444583252169 166.6666666666668L507.6777916585502 166.6666666666668L841.0111249918834 166.6666666666668L841.0111249918834 500L841.0111249918834 833.3333333333334L507.6777916585502 833.3333333333334L174.3444583252169 833.3333333333334L174.3444583252169 500M466.0111249918835 578.25C466.0111249918835 466.375 457.0944583252169 455.5416666666667 402.5111249918836 500.8333333333334C286.8861249918836 596.7916666666667 280.8027916585503 499.5833333333334 395.3027916585503 385.0833333333334L507.6777916585502 272.7083333333335L620.0527916585502 385.0833333333334C734.5527916585502 499.5833333333334 728.4694583252169 596.7916666666667 612.8444583252169 500.8333333333334C558.2611249918837 455.5416666666667 549.3444583252169 466.375 549.3444583252169 578.25C549.3444583252169 649.7916666666667 530.5944583252169 708.3333333333334 507.6777916585502 708.3333333333334C484.7611249918835 708.3333333333334 466.0111249918835 649.7916666666667 466.0111249918835 578.25" />
    <glyph glyph-name="arrow-square-up"
      unicode="&#xEA39;"
      horiz-adv-x="1000" d="M109.3444583252169 862.6666666666667C97.3027916585502 831.25 92.9277916585502 647.7083333333334 99.6361249918836 454.8333333333334L111.8444583252169 104.1666666666667L507.6777916585502 104.1666666666667L903.5111249918834 104.1666666666667L903.5111249918834 500L903.5111249918834 895.8333333333334L517.3861249918835 907.8333333333334C220.3027916585502 917.0416666666666 126.2194583252169 906.625 109.3444583252169 862.6666666666667M174.3444583252169 500L174.3444583252169 166.6666666666668L507.6777916585502 166.6666666666668L841.0111249918834 166.6666666666668L841.0111249918834 500L841.0111249918834 833.3333333333334L507.6777916585502 833.3333333333334L174.3444583252169 833.3333333333334L174.3444583252169 500M382.8444583252169 604.3333333333333C279.2194583252169 494.0416666666667 294.9694583252169 409.9166666666667 402.5111249918836 499.1666666666667C457.0944583252169 544.4583333333334 466.0111249918835 533.625 466.0111249918835 421.75C466.0111249918835 350.2083333333334 484.7611249918835 291.6666666666668 507.6777916585502 291.6666666666668C530.5944583252169 291.6666666666668 549.3444583252169 350.2083333333334 549.3444583252169 421.75C549.3444583252169 533.625 558.2611249918837 544.4583333333334 612.8444583252169 499.1666666666667C720.3861249918834 409.9166666666667 736.1361249918837 494.0416666666667 632.5111249918837 604.3333333333333C511.8861249918835 732.75 503.4694583252169 732.75 382.8444583252169 604.3333333333333" />
    </font>
</defs>
</svg>
