<svg viewBox="0 0 24 24" xmlns="http://www.w3.org/2000/svg" fill="none" stroke="#000000" stroke-width="2" stroke-linecap="round" stroke-linejoin="round"><path d="M5.499 3.043 C 4.860 3.150,4.395 3.398,3.896 3.896 C 3.496 4.296,3.296 4.613,3.125 5.113 L 3.020 5.420 3.020 11.980 L 3.020 18.540 3.114 18.840 C 3.418 19.816,4.149 20.554,5.140 20.886 L 5.420 20.980 12.773 20.991 C 17.657 20.998,20.177 20.988,20.277 20.961 C 20.498 20.901,20.739 20.710,20.867 20.492 L 20.980 20.300 20.992 18.653 L 21.003 17.007 21.652 16.993 C 22.279 16.980,22.306 16.976,22.492 16.867 C 22.711 16.739,22.901 16.498,22.961 16.275 C 22.988 16.176,22.999 15.337,22.991 13.911 L 22.980 11.700 22.872 11.516 C 22.633 11.110,22.352 11.000,21.555 11.000 L 21.003 11.000 20.992 9.350 L 20.980 7.700 20.872 7.516 C 20.633 7.110,20.352 7.000,19.555 7.000 L 19.003 7.000 18.992 5.350 L 18.980 3.700 18.872 3.516 C 18.740 3.293,18.533 3.128,18.290 3.055 C 18.138 3.009,17.055 3.001,11.904 3.005 C 8.492 3.007,5.609 3.025,5.499 3.043 M17.000 6.001 L 17.000 7.001 11.347 6.991 L 5.694 6.980 5.502 6.860 C 5.129 6.627,4.945 6.224,5.029 5.823 C 5.108 5.446,5.376 5.146,5.726 5.046 C 5.809 5.022,7.978 5.006,11.430 5.004 L 17.000 5.000 17.000 6.001 M5.220 8.910 C 5.406 8.975,5.879 8.981,12.210 8.991 L 19.000 9.002 19.000 9.996 L 19.000 10.991 18.230 11.010 C 17.567 11.027,17.416 11.043,17.139 11.126 C 16.181 11.415,15.419 12.180,15.114 13.160 C 14.979 13.594,14.979 14.406,15.114 14.840 C 15.418 15.817,16.165 16.570,17.140 16.882 C 17.379 16.958,17.536 16.974,18.210 16.990 L 19.000 17.009 19.000 18.005 L 19.000 19.001 12.350 18.990 L 5.700 18.980 5.516 18.872 C 5.415 18.813,5.284 18.700,5.225 18.623 C 4.989 18.314,5.000 18.564,5.000 13.495 C 5.000 10.935,5.005 8.840,5.010 8.840 C 5.016 8.841,5.110 8.872,5.220 8.910 M21.000 14.002 L 21.000 15.003 19.350 14.992 L 17.700 14.980 17.516 14.872 C 16.935 14.530,16.833 13.774,17.304 13.303 C 17.596 13.011,17.629 13.006,19.430 13.003 L 21.000 13.000 21.000 14.002 " stroke="none" fill-rule="evenodd" fill="black"></path></svg>