<svg viewBox="0 0 24 24" xmlns="http://www.w3.org/2000/svg" fill="none" stroke="#000000" stroke-width="2" stroke-linecap="round" stroke-linejoin="round"><path d="M11.540 6.023 C 10.715 6.102,10.250 6.200,9.620 6.427 C 7.944 7.030,6.551 8.270,5.741 9.878 C 5.639 10.080,5.564 10.177,5.470 10.225 C 5.018 10.457,4.176 11.109,3.640 11.640 L 3.277 12.000 2.585 12.000 C 1.822 12.000,1.624 12.036,1.382 12.221 C 1.302 12.282,1.187 12.415,1.128 12.516 C 1.037 12.672,1.020 12.746,1.020 13.000 C 1.020 13.257,1.036 13.327,1.133 13.492 C 1.266 13.719,1.509 13.906,1.750 13.967 C 1.851 13.992,1.916 14.029,1.905 14.055 C 1.895 14.080,1.814 14.264,1.726 14.465 C 1.529 14.913,1.312 15.591,1.202 16.101 C 1.023 16.926,1.000 17.358,1.000 19.860 L 1.001 22.220 1.095 22.420 C 1.209 22.660,1.358 22.807,1.600 22.917 C 1.780 22.998,1.803 22.998,11.980 22.997 C 20.398 22.997,22.206 22.987,22.330 22.943 C 22.551 22.864,22.744 22.702,22.869 22.489 C 22.964 22.328,22.980 22.256,22.980 22.000 C 22.980 21.746,22.963 21.672,22.872 21.516 C 22.813 21.415,22.698 21.282,22.618 21.221 C 22.342 21.011,22.242 21.000,20.554 21.000 L 19.000 21.000 19.000 17.500 L 19.000 14.000 20.590 13.998 C 22.300 13.996,22.346 13.991,22.619 13.783 C 22.696 13.725,22.808 13.592,22.869 13.489 C 22.964 13.328,22.980 13.256,22.980 13.000 C 22.980 12.746,22.963 12.672,22.872 12.516 C 22.813 12.415,22.698 12.282,22.618 12.221 C 22.341 12.010,22.245 12.000,20.517 12.000 L 18.927 12.000 18.900 11.830 C 18.849 11.508,18.717 11.019,18.573 10.620 C 17.715 8.237,15.581 6.473,13.102 6.098 C 12.726 6.041,11.813 5.997,11.540 6.023 M12.552 8.043 C 14.612 8.268,16.321 9.752,16.841 11.767 C 16.967 12.255,16.953 12.276,16.697 11.990 C 15.317 10.447,13.367 9.403,11.302 9.100 C 10.740 9.018,9.803 8.984,9.333 9.028 C 9.131 9.047,8.975 9.049,8.985 9.031 C 9.024 8.969,9.465 8.688,9.749 8.546 C 10.644 8.095,11.549 7.933,12.552 8.043 M11.102 11.098 C 13.581 11.473,15.716 13.238,16.573 15.620 C 16.933 16.621,16.966 16.901,16.989 19.130 L 17.008 21.000 12.004 21.000 L 7.000 21.000 7.000 16.910 C 7.001 12.840,7.014 12.378,7.142 11.838 L 7.205 11.575 7.612 11.429 C 8.256 11.199,8.714 11.102,9.540 11.023 C 9.813 10.997,10.726 11.041,11.102 11.098 M5.000 17.500 L 5.000 21.000 3.996 21.000 L 2.992 21.000 3.011 19.130 C 3.025 17.713,3.045 17.173,3.091 16.900 C 3.251 15.955,3.543 15.169,4.047 14.330 L 4.245 14.000 4.623 14.000 L 5.000 14.000 5.000 17.500 " stroke="none" fill-rule="evenodd" fill="black"></path></svg>