<svg viewBox="0 0 24 24" xmlns="http://www.w3.org/2000/svg" fill="none" stroke="#000000" stroke-width="2" stroke-linecap="round" stroke-linejoin="round"><path d="M12.734 8.038 C 12.284 8.146,11.962 8.621,12.012 9.106 C 12.056 9.533,12.096 9.572,13.781 10.832 C 14.626 11.463,15.317 11.989,15.317 12.000 C 15.317 12.011,14.949 12.295,14.499 12.630 L 13.681 13.240 13.462 13.240 C 12.586 13.240,11.688 12.644,10.912 11.548 C 10.049 10.329,9.340 9.671,8.381 9.200 C 8.153 9.089,7.789 8.949,7.573 8.891 C 7.221 8.797,7.109 8.786,6.500 8.786 C 5.891 8.786,5.779 8.797,5.427 8.891 C 4.658 9.098,3.828 9.589,3.186 10.217 C 2.816 10.579,2.367 11.124,2.168 11.453 C 1.859 11.963,2.007 12.573,2.511 12.869 C 2.669 12.962,2.746 12.980,2.981 12.980 C 3.398 12.980,3.592 12.868,3.911 12.442 C 4.310 11.909,4.581 11.620,4.927 11.360 C 5.321 11.063,5.544 10.947,5.926 10.841 C 7.039 10.532,8.157 11.117,9.138 12.520 C 9.922 13.642,10.701 14.359,11.608 14.794 C 11.917 14.942,11.997 14.997,11.998 15.065 C 12.001 15.202,12.113 15.484,12.222 15.626 C 12.443 15.916,12.900 16.063,13.269 15.963 C 13.372 15.935,13.643 15.765,13.969 15.524 C 14.370 15.226,14.558 15.113,14.735 15.063 C 15.313 14.896,16.041 14.475,16.594 13.988 C 17.103 13.540,17.767 12.735,17.927 12.373 C 18.073 12.042,17.972 11.529,17.714 11.295 C 17.662 11.248,16.681 10.506,15.532 9.647 C 14.180 8.635,13.391 8.070,13.292 8.043 C 13.121 7.995,12.921 7.994,12.734 8.038 " stroke="none" fill-rule="evenodd" fill="black"></path></svg>