<svg viewBox="0 0 24 24" xmlns="http://www.w3.org/2000/svg" fill="none" stroke="#000000" stroke-width="2" stroke-linecap="round" stroke-linejoin="round"><path d="M6.380 5.043 C 3.792 5.298,1.702 7.195,1.116 9.820 C 1.032 10.198,1.026 10.330,1.011 12.197 C 0.996 13.978,1.001 14.192,1.062 14.357 C 1.119 14.512,1.527 14.939,3.735 17.153 C 5.168 18.590,6.416 19.810,6.508 19.865 C 6.967 20.139,7.587 19.968,7.867 19.492 C 7.964 19.327,7.980 19.258,7.979 19.000 C 7.979 18.788,7.957 18.659,7.905 18.560 C 7.865 18.483,6.839 17.426,5.626 16.210 L 3.421 14.000 5.626 11.790 C 6.839 10.575,7.865 9.517,7.905 9.440 C 7.957 9.341,7.979 9.212,7.979 9.000 C 7.980 8.745,7.964 8.672,7.872 8.516 C 7.618 8.084,7.137 7.906,6.657 8.066 C 6.481 8.124,6.279 8.312,4.730 9.854 L 3.000 11.577 3.000 11.179 C 3.001 10.697,3.085 10.102,3.203 9.755 C 3.538 8.771,4.261 7.924,5.160 7.464 C 5.611 7.233,5.930 7.129,6.395 7.058 C 6.879 6.986,7.121 6.986,7.605 7.058 C 9.222 7.302,10.508 8.504,10.909 10.145 C 10.970 10.394,10.978 10.983,10.998 16.363 L 11.020 22.306 11.141 22.503 C 11.543 23.156,12.457 23.156,12.859 22.503 L 12.980 22.306 12.980 16.283 L 12.980 10.260 12.887 9.840 C 12.618 8.616,12.107 7.658,11.269 6.805 C 9.978 5.490,8.230 4.860,6.380 5.043 " stroke="none" fill-rule="evenodd" fill="black"></path></svg>