<svg viewBox="0 0 24 24" xmlns="http://www.w3.org/2000/svg" fill="none" stroke="#000000" stroke-width="2" stroke-linecap="round" stroke-linejoin="round"><path d="M20.695 2.057 C 20.466 2.129,20.256 2.299,20.128 2.516 L 20.020 2.700 19.996 5.200 C 19.970 8.034,19.962 8.120,19.639 9.029 C 18.949 10.973,17.287 12.411,15.180 12.885 C 14.787 12.974,14.727 12.975,11.600 12.989 L 8.420 13.003 10.126 11.292 C 11.064 10.350,11.865 9.517,11.905 9.440 C 11.957 9.341,11.979 9.212,11.979 9.000 C 11.980 8.745,11.964 8.672,11.872 8.516 C 11.618 8.084,11.138 7.906,10.657 8.065 C 10.478 8.124,10.215 8.374,7.826 10.755 C 4.961 13.609,5.001 13.564,5.001 14.000 C 5.001 14.435,4.964 14.393,7.806 17.226 C 9.244 18.659,10.481 19.862,10.555 19.899 C 11.010 20.128,11.601 19.944,11.867 19.492 C 11.964 19.327,11.980 19.258,11.979 19.000 C 11.979 18.788,11.957 18.659,11.905 18.560 C 11.865 18.483,11.064 17.651,10.126 16.710 L 8.421 15.000 11.432 15.000 C 13.285 15.000,14.592 14.984,14.832 14.958 C 16.297 14.797,17.721 14.226,18.900 13.326 C 19.239 13.067,19.925 12.394,20.211 12.040 C 20.993 11.072,21.588 9.820,21.834 8.620 C 21.986 7.877,22.006 7.444,21.993 5.020 L 21.980 2.700 21.872 2.516 C 21.628 2.101,21.150 1.915,20.695 2.057 " stroke="none" fill-rule="evenodd" fill="black"></path></svg>