<svg viewBox="0 0 24 24" xmlns="http://www.w3.org/2000/svg" fill="none" stroke="#000000" stroke-width="2" stroke-linecap="round" stroke-linejoin="round"><path d="M15.695 6.057 C 15.466 6.129,15.256 6.299,15.128 6.516 C 15.036 6.672,15.020 6.745,15.021 7.000 C 15.021 7.212,15.043 7.341,15.095 7.440 C 15.135 7.517,15.936 8.350,16.874 9.290 L 18.579 11.000 15.119 11.000 C 13.136 11.000,11.472 11.017,11.220 11.040 C 8.003 11.332,5.411 13.362,4.423 16.364 C 4.048 17.504,3.991 18.066,4.007 20.463 L 4.020 22.306 4.141 22.503 C 4.543 23.156,5.457 23.156,5.859 22.503 L 5.980 22.306 6.005 20.283 C 6.031 18.122,6.047 17.917,6.256 17.199 C 6.536 16.232,7.023 15.412,7.740 14.700 C 8.369 14.074,9.128 13.609,9.984 13.324 C 10.902 13.019,11.202 13.000,15.199 13.000 L 18.579 13.000 16.874 14.710 C 15.936 15.650,15.135 16.483,15.095 16.560 C 15.043 16.659,15.021 16.788,15.021 17.000 C 15.020 17.258,15.036 17.327,15.133 17.492 C 15.263 17.714,15.502 17.901,15.736 17.965 C 15.938 18.019,16.266 17.989,16.445 17.899 C 16.519 17.862,17.756 16.659,19.194 15.226 C 22.036 12.393,21.999 12.435,21.999 12.000 C 21.999 11.564,22.039 11.609,19.174 8.754 C 16.628 6.215,16.533 6.125,16.323 6.064 C 16.066 5.988,15.919 5.987,15.695 6.057 " stroke="none" fill-rule="evenodd" fill="black"></path></svg>