<svg viewBox="0 0 24 24" xmlns="http://www.w3.org/2000/svg" fill="none" stroke="#000000" stroke-width="2" stroke-linecap="round" stroke-linejoin="round"><path d="M14.580 3.096 C 14.421 3.172,13.851 3.723,11.774 5.806 C 10.341 7.244,9.135 8.483,9.095 8.560 C 9.043 8.659,9.021 8.788,9.021 9.000 C 9.020 9.258,9.036 9.327,9.133 9.492 C 9.263 9.714,9.502 9.901,9.736 9.965 C 9.939 10.019,10.267 9.989,10.445 9.899 C 10.519 9.862,11.350 9.064,12.290 8.126 L 14.000 6.421 14.000 12.264 C 14.000 17.100,13.991 18.139,13.945 18.290 C 13.872 18.533,13.707 18.740,13.484 18.872 L 13.300 18.980 8.520 19.000 C 4.816 19.015,3.715 19.031,3.627 19.070 C 3.428 19.158,3.239 19.328,3.128 19.516 C 3.037 19.672,3.020 19.746,3.020 20.000 C 3.020 20.257,3.036 20.327,3.133 20.492 C 3.261 20.710,3.502 20.901,3.724 20.961 C 3.825 20.988,5.509 20.998,8.728 20.991 L 13.580 20.980 13.860 20.886 C 14.831 20.560,15.546 19.850,15.875 18.887 L 15.980 18.580 15.991 12.502 L 16.002 6.423 17.711 8.127 C 18.651 9.065,19.483 9.865,19.560 9.905 C 19.659 9.957,19.788 9.979,20.000 9.979 C 20.258 9.980,20.327 9.964,20.492 9.867 C 20.714 9.737,20.901 9.498,20.965 9.264 C 21.019 9.062,20.989 8.734,20.899 8.555 C 20.862 8.481,19.659 7.244,18.226 5.806 C 15.393 2.964,15.435 3.001,15.000 3.001 C 14.851 3.001,14.716 3.031,14.580 3.096 " stroke="none" fill-rule="evenodd" fill="black"></path></svg>