<svg viewBox="0 0 24 24" xmlns="http://www.w3.org/2000/svg" fill="none" stroke="#000000" stroke-width="2" stroke-linecap="round" stroke-linejoin="round"><path d="M5.640 5.068 C 5.486 5.121,5.148 5.441,3.312 7.272 C 0.833 9.743,0.976 9.559,1.011 10.240 C 1.127 12.536,2.751 14.417,5.040 14.907 C 5.511 15.008,6.489 15.008,6.960 14.907 C 7.607 14.769,8.271 14.493,8.766 14.158 L 8.992 14.005 9.018 14.177 C 9.074 14.554,9.447 14.926,9.825 14.983 C 10.237 15.045,10.638 14.862,10.852 14.514 C 10.950 14.354,10.972 14.264,11.005 13.883 C 11.026 13.638,11.084 13.299,11.133 13.129 C 11.402 12.199,12.187 11.415,13.139 11.125 C 13.412 11.042,13.542 11.027,14.000 11.027 C 14.458 11.027,14.588 11.042,14.861 11.125 C 15.813 11.415,16.598 12.199,16.867 13.129 C 16.916 13.299,16.974 13.638,16.995 13.883 C 17.028 14.264,17.050 14.354,17.148 14.514 C 17.543 15.156,18.461 15.151,18.859 14.503 C 18.976 14.313,18.980 14.289,18.979 13.843 C 18.974 11.703,17.386 9.715,15.240 9.161 C 13.899 8.815,12.365 9.077,11.235 9.844 L 11.010 9.996 10.983 9.828 C 10.869 9.117,9.995 8.772,9.405 9.205 C 9.129 9.409,9.039 9.609,8.995 10.121 C 8.912 11.081,8.590 11.723,7.892 12.321 C 7.520 12.639,6.814 12.960,6.486 12.960 C 6.400 12.960,6.102 12.682,4.900 11.480 L 3.421 10.000 5.126 8.290 C 6.064 7.350,6.865 6.517,6.905 6.440 C 6.957 6.341,6.979 6.212,6.979 6.000 C 6.980 5.745,6.964 5.672,6.872 5.516 C 6.617 5.083,6.121 4.903,5.640 5.068 " stroke="none" fill-rule="evenodd" fill="black"></path></svg>