<svg viewBox="0 0 24 24" xmlns="http://www.w3.org/2000/svg" fill="none" stroke="#000000" stroke-width="2" stroke-linecap="round" stroke-linejoin="round"><path d="M5.660 1.071 C 5.240 1.211,4.965 1.652,5.013 2.110 C 5.033 2.307,5.258 2.726,7.328 6.407 C 8.588 8.650,9.680 10.557,9.754 10.644 C 10.044 10.986,10.485 11.082,10.929 10.900 C 10.995 10.873,10.999 11.179,11.009 16.589 L 11.020 22.306 11.141 22.503 C 11.543 23.156,12.457 23.156,12.859 22.503 L 12.980 22.306 12.991 16.589 C 13.001 11.179,13.005 10.873,13.071 10.900 C 13.515 11.082,13.956 10.986,14.246 10.644 C 14.320 10.557,15.412 8.650,16.672 6.407 C 19.214 1.885,19.092 2.139,18.940 1.679 C 18.812 1.294,18.397 1.000,17.983 1.000 C 17.755 1.000,17.474 1.124,17.303 1.299 C 17.189 1.416,16.477 2.649,14.940 5.389 L 12.740 9.311 12.584 9.197 C 12.251 8.953,11.749 8.953,11.416 9.197 L 11.260 9.311 9.060 5.389 C 7.523 2.649,6.811 1.416,6.697 1.299 C 6.424 1.019,6.059 0.939,5.660 1.071 " stroke="none" fill-rule="evenodd" fill="black"></path></svg>