<svg viewBox="0 0 24 24" xmlns="http://www.w3.org/2000/svg" fill="none" stroke="#000000" stroke-width="2" stroke-linecap="round" stroke-linejoin="round"><path d="M14.670 5.061 C 14.448 5.142,14.250 5.309,14.128 5.516 C 14.036 5.672,14.020 5.745,14.021 6.000 C 14.021 6.212,14.043 6.341,14.095 6.440 C 14.135 6.517,15.161 7.575,16.374 8.790 L 18.579 11.000 12.708 11.000 C 8.832 11.000,6.705 11.014,6.448 11.043 C 5.565 11.139,4.818 11.428,4.068 11.963 C 3.067 12.677,2.364 13.771,2.093 15.040 C 2.026 15.351,2.020 15.629,2.020 18.343 L 2.020 21.306 2.141 21.503 C 2.543 22.156,3.457 22.156,3.859 21.503 L 3.980 21.307 4.005 19.883 C 4.030 18.388,4.043 18.280,4.241 17.819 C 4.370 17.516,4.655 17.115,4.925 16.854 C 5.315 16.478,5.539 16.351,6.332 16.062 C 6.573 15.974,6.733 15.840,6.863 15.618 C 7.140 15.145,6.959 14.525,6.466 14.256 C 6.297 14.164,6.213 14.144,6.000 14.147 C 5.678 14.151,5.191 14.314,4.651 14.599 C 4.440 14.710,4.262 14.795,4.256 14.789 C 4.229 14.762,4.530 14.282,4.696 14.088 C 5.098 13.619,5.575 13.300,6.139 13.121 L 6.460 13.020 12.520 13.009 L 18.580 12.999 16.374 15.209 C 15.161 16.425,14.135 17.483,14.095 17.560 C 14.043 17.659,14.021 17.788,14.021 18.000 C 14.020 18.258,14.036 18.327,14.133 18.492 C 14.263 18.714,14.502 18.901,14.736 18.965 C 14.938 19.019,15.266 18.989,15.445 18.899 C 15.519 18.862,16.981 17.434,18.694 15.726 C 22.076 12.353,21.999 12.440,21.999 12.000 C 21.999 11.560,22.079 11.650,18.674 8.255 C 15.819 5.409,15.522 5.125,15.343 5.065 C 15.107 4.987,14.874 4.986,14.670 5.061 " stroke="none" fill-rule="evenodd" fill="black"></path></svg>