<svg viewBox="0 0 24 24" xmlns="http://www.w3.org/2000/svg" fill="none" stroke="#000000" stroke-width="2" stroke-linecap="round" stroke-linejoin="round"><path d="M6.671 6.064 C 6.563 6.097,6.415 6.186,6.327 6.271 C 6.231 6.364,5.654 7.286,4.801 8.710 L 3.428 11.000 3.161 11.000 C 2.667 11.000,2.334 11.166,2.128 11.516 C 2.037 11.672,2.020 11.746,2.020 12.000 C 2.020 12.256,2.036 12.328,2.131 12.489 C 2.340 12.844,2.634 12.995,3.124 12.998 L 3.428 13.000 4.801 15.290 C 5.629 16.672,6.232 17.638,6.323 17.725 C 6.978 18.358,8.082 17.804,7.987 16.889 C 7.967 16.688,7.867 16.506,6.864 14.834 L 5.764 13.000 11.982 13.000 C 15.402 13.000,18.200 13.011,18.200 13.024 C 18.200 13.037,17.728 13.833,17.152 14.794 C 16.575 15.754,16.081 16.603,16.054 16.680 C 15.901 17.107,16.096 17.626,16.499 17.862 C 16.840 18.061,17.299 18.028,17.624 17.780 C 17.717 17.708,18.172 16.986,19.160 15.339 L 20.564 13.000 20.872 12.998 C 21.366 12.995,21.659 12.845,21.869 12.489 C 21.964 12.328,21.980 12.256,21.980 12.000 C 21.980 11.746,21.963 11.672,21.872 11.516 C 21.666 11.166,21.334 11.000,20.836 11.000 L 20.564 11.000 19.160 8.661 C 18.150 6.976,17.718 6.292,17.620 6.217 C 17.467 6.100,17.171 6.000,16.981 6.000 C 16.340 6.000,15.837 6.715,16.054 7.320 C 16.081 7.397,16.575 8.246,17.152 9.206 C 17.728 10.167,18.200 10.963,18.200 10.976 C 18.200 10.989,15.402 11.000,11.982 11.000 L 5.764 11.000 6.864 9.166 C 7.867 7.494,7.967 7.312,7.987 7.111 C 8.020 6.798,7.917 6.513,7.695 6.297 C 7.411 6.021,7.066 5.942,6.671 6.064 " stroke="none" fill-rule="evenodd" fill="black"></path></svg>