<svg viewBox="0 0 24 24" xmlns="http://www.w3.org/2000/svg" fill="none" stroke="#000000" stroke-width="2" stroke-linecap="round" stroke-linejoin="round"><path d="M5.731 1.045 C 5.406 1.138,5.338 1.217,3.745 3.334 C 2.884 4.479,2.140 5.497,2.090 5.598 L 2.000 5.780 2.010 13.180 L 2.020 20.580 2.114 20.860 C 2.446 21.851,3.184 22.582,4.160 22.886 L 4.460 22.980 12.000 22.980 L 19.540 22.980 19.840 22.886 C 20.816 22.582,21.554 21.851,21.886 20.860 L 21.980 20.580 21.990 13.180 L 22.000 5.780 21.910 5.598 C 21.759 5.291,18.706 1.271,18.550 1.174 C 18.474 1.126,18.342 1.068,18.256 1.044 C 18.056 0.988,5.923 0.989,5.731 1.045 M18.250 4.000 L 19.000 5.000 12.000 5.000 L 5.000 5.000 5.750 4.000 L 6.499 3.000 12.000 3.000 L 17.501 3.000 18.250 4.000 M20.000 13.554 C 20.000 18.991,19.991 20.138,19.945 20.290 C 19.872 20.533,19.707 20.740,19.484 20.872 L 19.300 20.980 15.740 20.989 C 12.711 20.996,12.202 20.989,12.330 20.943 C 12.552 20.864,12.744 20.701,12.869 20.489 L 12.980 20.300 12.992 19.150 L 13.005 18.000 14.092 17.998 C 15.262 17.996,15.358 17.983,15.619 17.783 C 15.696 17.725,15.808 17.592,15.869 17.489 C 15.964 17.328,15.980 17.256,15.980 17.000 C 15.980 16.746,15.963 16.672,15.872 16.516 C 15.813 16.415,15.698 16.282,15.618 16.221 C 15.356 16.022,15.203 16.000,14.054 16.000 L 13.000 16.000 13.000 15.446 L 13.000 14.893 13.227 14.842 C 14.016 14.665,14.963 14.116,15.586 13.474 C 16.458 12.575,16.976 11.342,16.979 10.160 C 16.980 9.730,16.973 9.688,16.871 9.514 C 16.482 8.853,15.520 8.847,15.136 9.504 C 15.052 9.647,15.026 9.762,14.995 10.121 C 14.912 11.081,14.590 11.723,13.892 12.321 C 13.609 12.563,13.239 12.762,12.840 12.886 C 12.406 13.021,11.594 13.021,11.160 12.886 C 10.761 12.762,10.391 12.563,10.108 12.321 C 9.410 11.723,9.088 11.081,9.005 10.121 C 8.974 9.762,8.948 9.647,8.864 9.504 C 8.480 8.847,7.518 8.853,7.129 9.514 C 7.027 9.688,7.020 9.730,7.021 10.160 C 7.025 11.881,8.076 13.574,9.653 14.402 C 10.073 14.622,10.446 14.769,10.773 14.842 L 11.000 14.893 11.000 15.446 L 11.000 16.000 9.946 16.000 C 8.797 16.000,8.644 16.022,8.382 16.221 C 8.302 16.282,8.187 16.415,8.128 16.516 C 8.037 16.672,8.020 16.746,8.020 17.000 C 8.020 17.256,8.036 17.328,8.131 17.489 C 8.192 17.592,8.304 17.725,8.381 17.783 C 8.642 17.983,8.738 17.996,9.908 17.998 L 10.995 18.000 11.008 19.150 L 11.020 20.300 11.131 20.489 C 11.256 20.701,11.448 20.864,11.670 20.943 C 11.798 20.989,11.289 20.996,8.260 20.989 L 4.700 20.980 4.516 20.872 C 4.415 20.813,4.284 20.700,4.225 20.623 C 3.986 20.310,4.000 20.743,4.000 13.575 L 4.000 7.000 12.000 7.000 L 20.000 7.000 20.000 13.554 " stroke="none" fill-rule="evenodd" fill="black"></path></svg>