<svg viewBox="0 0 24 24" xmlns="http://www.w3.org/2000/svg" fill="none" stroke="#000000" stroke-width="2" stroke-linecap="round" stroke-linejoin="round"><path d="M2.645 2.068 C 2.529 2.109,2.343 2.248,2.099 2.475 C 1.896 2.665,1.581 2.910,1.399 3.020 C 0.990 3.267,0.486 3.755,0.208 4.173 L -0.000 4.487 -0.000 6.517 L 0.000 8.547 0.166 8.852 C 0.889 10.183,2.221 10.965,3.760 10.963 C 4.867 10.961,5.176 10.845,8.162 9.302 L 10.580 8.052 11.334 8.426 C 11.992 8.753,12.113 8.800,12.294 8.800 C 12.554 8.799,12.849 8.664,13.045 8.455 C 13.430 8.044,15.595 5.277,15.642 5.136 C 15.798 4.672,15.582 4.140,15.144 3.909 C 15.022 3.845,14.908 3.822,14.700 3.821 L 14.420 3.820 12.506 4.808 L 10.592 5.797 6.998 3.941 C 5.020 2.920,3.335 2.066,3.251 2.042 C 3.047 1.986,2.855 1.994,2.645 2.068 M21.447 4.224 C 21.236 4.329,21.110 4.463,20.977 4.720 C 20.912 4.848,20.906 4.980,20.914 6.260 C 20.919 7.030,20.933 7.716,20.945 7.784 C 20.964 7.893,20.940 7.938,20.751 8.140 L 20.536 8.372 20.338 8.307 C 19.509 8.036,18.488 8.068,17.535 8.396 C 17.111 8.541,16.907 8.663,13.115 11.029 C 10.929 12.393,9.059 13.550,8.960 13.601 C 8.397 13.885,7.771 14.427,7.442 14.915 C 7.197 15.279,6.971 15.782,6.851 16.232 C 6.761 16.571,6.748 16.701,6.746 17.260 C 6.745 17.781,6.761 17.963,6.830 18.240 C 7.311 20.170,8.479 21.374,10.192 21.704 C 10.586 21.780,11.325 21.779,11.755 21.702 C 12.167 21.628,12.955 21.360,13.161 21.224 C 13.273 21.150,14.281 19.784,17.026 15.982 C 20.726 10.859,20.740 10.840,20.811 10.930 C 20.850 10.980,20.947 11.137,21.027 11.280 C 21.219 11.624,21.339 11.751,21.580 11.865 C 22.062 12.092,22.636 11.898,22.894 11.420 C 22.978 11.264,22.980 11.220,22.980 9.780 C 22.980 8.348,22.983 8.291,23.071 8.022 C 23.190 7.661,23.280 7.098,23.280 6.717 C 23.280 5.885,22.887 4.602,22.553 4.347 C 22.217 4.091,21.806 4.045,21.447 4.224 M5.788 5.567 C 7.202 6.296,8.360 6.907,8.360 6.923 C 8.360 6.977,4.944 8.713,4.620 8.823 C 4.379 8.905,4.197 8.936,3.880 8.950 C 3.393 8.971,3.078 8.907,2.707 8.709 C 2.055 8.363,1.550 7.403,1.546 6.500 C 1.542 5.607,1.911 4.994,2.711 4.565 C 2.890 4.468,3.068 4.356,3.105 4.315 C 3.142 4.274,3.182 4.240,3.194 4.240 C 3.205 4.240,4.373 4.837,5.788 5.567 M18.305 10.790 C 18.055 11.137,16.524 13.256,14.904 15.500 L 11.958 19.580 11.729 19.655 C 11.394 19.764,10.731 19.787,10.400 19.701 C 9.639 19.503,9.092 18.909,8.846 18.014 C 8.663 17.347,8.697 16.832,8.960 16.295 C 9.148 15.912,9.440 15.616,9.842 15.403 C 9.984 15.328,11.873 14.160,14.040 12.807 C 18.031 10.316,18.289 10.168,18.650 10.162 C 18.756 10.160,18.740 10.188,18.305 10.790 " stroke="none" fill-rule="evenodd" fill="black"></path></svg>