<svg viewBox="0 0 24 24" xmlns="http://www.w3.org/2000/svg" fill="none" stroke="#000000" stroke-width="2" stroke-linecap="round" stroke-linejoin="round"><path d="M17.340 2.569 C 17.274 2.592,17.166 2.648,17.100 2.692 C 17.034 2.736,15.989 3.760,14.778 4.968 L 12.576 7.163 12.398 7.082 C 12.149 6.970,11.834 6.975,11.580 7.096 C 11.420 7.173,10.762 7.812,8.274 10.306 C 6.566 12.019,5.135 13.483,5.095 13.560 C 4.994 13.753,4.993 14.248,5.094 14.435 L 5.167 14.569 3.929 15.815 C 3.248 16.500,2.660 17.121,2.622 17.195 C 2.526 17.382,2.499 17.720,2.560 17.949 C 2.608 18.125,2.738 18.266,4.194 19.729 C 5.064 20.603,5.840 21.350,5.918 21.389 C 6.115 21.487,6.608 21.485,6.800 21.385 C 6.877 21.344,8.848 19.405,11.180 17.076 L 15.421 12.840 16.380 13.803 C 16.908 14.332,17.416 14.810,17.508 14.865 C 17.967 15.139,18.587 14.968,18.867 14.492 C 18.964 14.327,18.980 14.257,18.980 14.000 C 18.980 13.746,18.964 13.672,18.873 13.520 C 18.814 13.421,18.332 12.908,17.803 12.381 L 16.841 11.421 19.076 9.181 C 20.305 7.948,21.341 6.879,21.379 6.805 C 21.474 6.617,21.501 6.279,21.440 6.051 C 21.392 5.875,21.262 5.733,19.824 4.286 C 18.127 2.577,18.054 2.518,17.660 2.524 C 17.550 2.525,17.406 2.545,17.340 2.569 M18.370 5.630 C 18.738 5.998,19.040 6.317,19.040 6.339 C 19.040 6.362,18.226 7.194,17.230 8.190 L 15.421 10.000 14.710 9.290 L 14.000 8.581 15.810 6.770 C 16.805 5.775,17.638 4.960,17.659 4.960 C 17.681 4.960,18.001 5.261,18.370 5.630 M10.170 15.250 L 6.340 19.080 5.650 18.390 C 5.271 18.011,4.960 17.683,4.960 17.661 C 4.960 17.638,6.674 15.906,8.770 13.810 L 12.580 10.000 13.290 10.710 L 14.000 11.420 10.170 15.250 " stroke="none" fill-rule="evenodd" fill="black"></path></svg>