<svg viewBox="0 0 24 24" xmlns="http://www.w3.org/2000/svg" fill="none" stroke="#000000" stroke-width="2" stroke-linecap="round" stroke-linejoin="round"><path d="M11.700 4.054 C 11.612 4.084,9.263 5.247,6.480 6.638 C 2.387 8.686,1.392 9.198,1.275 9.321 C 1.116 9.488,1.000 9.774,1.000 10.000 C 1.000 10.406,1.293 10.811,1.678 10.939 C 2.107 11.082,1.846 11.196,7.149 8.545 L 12.000 6.120 16.851 8.545 C 22.154 11.196,21.893 11.082,22.322 10.939 C 22.707 10.811,23.000 10.406,23.000 10.000 C 23.000 9.773,22.884 9.488,22.725 9.321 C 22.608 9.198,21.601 8.681,17.440 6.602 C 11.848 3.808,12.101 3.920,11.700 4.054 M11.695 9.057 C 11.466 9.129,11.256 9.299,11.128 9.516 L 11.020 9.700 11.020 12.003 L 11.020 14.306 11.141 14.503 C 11.209 14.613,11.346 14.756,11.452 14.828 C 11.923 15.144,12.554 14.999,12.859 14.503 L 12.980 14.306 12.980 12.003 L 12.980 9.700 12.872 9.516 C 12.628 9.101,12.150 8.915,11.695 9.057 M4.695 13.057 C 4.466 13.129,4.256 13.299,4.128 13.516 L 4.020 13.700 4.009 16.850 L 3.998 20.000 3.445 20.000 C 2.648 20.000,2.367 20.110,2.128 20.516 C 2.037 20.672,2.020 20.746,2.020 21.000 C 2.020 21.256,2.036 21.328,2.131 21.489 C 2.256 21.702,2.449 21.864,2.670 21.943 C 2.893 22.023,21.107 22.023,21.330 21.943 C 21.551 21.864,21.744 21.702,21.869 21.489 C 21.964 21.328,21.980 21.256,21.980 21.000 C 21.980 20.746,21.963 20.672,21.872 20.516 C 21.633 20.110,21.352 20.000,20.555 20.000 L 20.002 20.000 19.991 16.850 L 19.980 13.700 19.871 13.514 C 19.479 12.848,18.521 12.848,18.129 13.514 L 18.020 13.700 18.009 16.850 L 17.998 20.000 12.000 20.000 L 6.002 20.000 5.991 16.850 L 5.980 13.700 5.872 13.516 C 5.628 13.101,5.150 12.915,4.695 13.057 " stroke="none" fill-rule="evenodd" fill="black"></path></svg>