<svg viewBox="0 0 24 24" xmlns="http://www.w3.org/2000/svg" fill="none" stroke="#000000" stroke-width="2" stroke-linecap="round" stroke-linejoin="round"><path d="M8.699 2.056 C 8.241 2.199,8.169 2.322,7.681 3.778 L 7.274 4.996 4.867 5.009 L 2.460 5.022 2.139 5.122 C 1.171 5.425,0.419 6.181,0.114 7.160 L 0.020 7.460 0.020 12.000 L 0.020 16.540 0.114 16.840 C 0.422 17.827,1.173 18.578,2.160 18.886 L 2.460 18.980 10.000 18.980 L 17.540 18.980 17.840 18.886 C 18.827 18.578,19.578 17.827,19.886 16.840 L 19.980 16.540 19.980 12.000 L 19.980 7.460 19.886 7.160 C 19.581 6.182,18.831 5.428,17.861 5.121 L 17.540 5.020 13.466 5.009 C 10.284 5.000,9.396 4.987,9.411 4.949 C 9.599 4.447,10.000 3.130,10.000 3.012 C 10.000 2.337,9.343 1.854,8.699 2.056 M6.590 7.050 C 6.579 7.078,6.440 7.496,6.281 7.979 C 6.019 8.773,5.993 8.881,6.012 9.089 C 6.047 9.481,6.302 9.812,6.670 9.943 C 6.784 9.984,7.155 9.997,8.214 9.998 C 9.312 10.000,9.605 10.011,9.590 10.050 C 9.580 10.078,9.218 11.163,8.786 12.462 C 8.286 13.963,8.000 14.883,8.000 14.985 C 8.000 15.741,8.793 16.221,9.469 15.874 C 9.834 15.686,9.818 15.724,10.955 12.312 C 11.634 10.276,12.000 9.122,12.000 9.016 C 12.000 8.604,11.716 8.194,11.340 8.066 C 11.174 8.010,10.946 8.000,9.769 8.000 C 8.684 8.000,8.395 7.989,8.410 7.950 C 8.420 7.923,8.495 7.697,8.577 7.450 L 8.727 7.000 12.916 7.000 C 17.650 7.000,17.376 6.983,17.697 7.303 C 18.017 7.623,18.000 7.359,18.000 12.001 C 18.000 16.458,18.007 16.319,17.779 16.618 C 17.718 16.698,17.585 16.813,17.484 16.872 L 17.300 16.980 10.000 16.980 L 2.700 16.980 2.516 16.872 C 2.303 16.747,2.141 16.550,2.058 16.316 C 1.969 16.062,1.971 7.992,2.061 7.690 C 2.140 7.421,2.412 7.143,2.673 7.063 C 2.931 6.984,6.619 6.971,6.590 7.050 M22.695 10.057 C 22.466 10.129,22.256 10.299,22.128 10.516 L 22.020 10.700 22.020 12.003 L 22.020 13.306 22.141 13.503 C 22.543 14.156,23.457 14.156,23.859 13.503 L 23.980 13.306 23.980 12.003 L 23.980 10.700 23.872 10.516 C 23.628 10.101,23.150 9.915,22.695 10.057 " stroke="none" fill-rule="evenodd" fill="black"></path></svg>