<svg viewBox="0 0 24 24" xmlns="http://www.w3.org/2000/svg" fill="none" stroke="#000000" stroke-width="2" stroke-linecap="round" stroke-linejoin="round"><path d="M5.358 2.061 C 4.230 2.237,3.143 2.974,2.569 3.953 C 1.321 6.080,2.233 8.785,4.507 9.702 C 4.691 9.776,4.905 9.849,4.983 9.863 C 5.060 9.878,5.117 9.901,5.110 9.915 C 5.103 9.929,4.976 10.183,4.829 10.480 C 3.476 13.214,3.800 16.446,5.674 18.900 C 5.933 19.239,6.606 19.925,6.960 20.211 C 8.378 21.357,10.190 22.000,12.000 22.000 C 13.747 22.000,15.486 21.406,16.900 20.326 C 17.239 20.067,17.925 19.394,18.211 19.040 C 19.357 17.622,20.000 15.810,20.000 14.000 C 20.000 12.606,19.662 11.363,18.890 9.915 C 18.883 9.901,18.940 9.878,19.017 9.863 C 19.095 9.849,19.307 9.777,19.489 9.703 C 20.515 9.288,21.291 8.512,21.704 7.488 C 22.090 6.530,22.090 5.469,21.705 4.516 C 21.172 3.197,20.001 2.269,18.605 2.058 C 18.121 1.986,17.879 1.986,17.395 2.058 C 16.002 2.269,14.833 3.195,14.289 4.521 C 14.130 4.907,14.000 5.547,14.000 5.941 L 14.000 6.249 13.890 6.225 C 13.126 6.058,12.838 6.028,12.000 6.028 C 11.180 6.028,10.669 6.081,10.099 6.224 C 10.000 6.249,10.000 6.248,10.000 5.941 C 10.000 5.328,9.762 4.503,9.421 3.932 C 8.834 2.949,7.756 2.232,6.605 2.058 C 6.144 1.989,5.816 1.990,5.358 2.061 M6.523 4.073 C 7.262 4.266,7.850 4.924,7.967 5.690 C 8.029 6.097,7.967 6.521,7.793 6.880 C 7.644 7.187,7.241 7.605,6.936 7.769 C 6.518 7.993,5.966 8.060,5.508 7.940 C 4.823 7.762,4.249 7.194,4.073 6.523 C 3.683 5.028,5.028 3.683,6.523 4.073 M18.523 4.073 C 19.262 4.266,19.850 4.924,19.967 5.690 C 20.067 6.343,19.873 6.933,19.403 7.404 C 19.002 7.807,18.547 8.000,18.000 8.000 C 17.114 8.000,16.295 7.372,16.073 6.523 C 15.683 5.028,17.028 3.683,18.523 4.073 M12.564 8.039 C 14.921 8.269,16.913 9.837,17.671 12.060 C 18.168 13.517,18.068 15.251,17.410 16.580 C 16.550 18.316,15.056 19.478,13.160 19.885 C 12.554 20.015,11.446 20.015,10.840 19.885 C 8.941 19.478,7.451 18.319,6.590 16.580 C 5.932 15.251,5.832 13.517,6.329 12.060 C 6.618 11.212,7.080 10.470,7.731 9.805 C 9.008 8.503,10.757 7.864,12.564 8.039 M9.695 11.055 C 9.464 11.130,9.255 11.300,9.128 11.516 C 9.037 11.672,9.020 11.746,9.020 12.000 C 9.020 12.257,9.036 12.327,9.133 12.492 C 9.651 13.374,10.998 13.018,10.998 12.000 C 10.998 11.623,10.792 11.281,10.463 11.112 C 10.265 11.010,9.911 10.984,9.695 11.055 M13.695 11.055 C 13.464 11.130,13.255 11.300,13.128 11.516 C 13.037 11.672,13.020 11.746,13.020 12.000 C 13.020 12.257,13.036 12.327,13.133 12.492 C 13.651 13.374,14.998 13.018,14.998 12.000 C 14.998 11.623,14.792 11.281,14.463 11.112 C 14.265 11.010,13.911 10.984,13.695 11.055 M11.695 13.055 C 11.464 13.130,11.255 13.300,11.128 13.516 C 11.037 13.672,11.020 13.746,11.020 14.000 C 11.020 14.257,11.036 14.327,11.133 14.492 C 11.651 15.374,12.998 15.018,12.998 14.000 C 12.998 13.623,12.792 13.281,12.463 13.112 C 12.265 13.010,11.911 12.984,11.695 13.055 M9.667 15.063 C 9.406 15.146,9.152 15.403,9.061 15.678 C 8.916 16.115,9.071 16.551,9.540 17.021 C 9.996 17.477,10.435 17.726,11.100 17.903 C 11.497 18.009,12.503 18.009,12.900 17.903 C 13.565 17.726,14.004 17.477,14.460 17.021 C 14.922 16.557,15.084 16.114,14.944 15.693 C 14.709 14.985,13.799 14.772,13.304 15.308 C 12.888 15.759,12.803 15.831,12.615 15.897 C 12.315 16.002,11.867 16.022,11.560 15.943 C 11.226 15.858,11.052 15.741,10.835 15.455 C 10.539 15.066,10.110 14.922,9.667 15.063 " stroke="none" fill-rule="evenodd" fill="black"></path></svg>