<svg viewBox="0 0 24 24" xmlns="http://www.w3.org/2000/svg" fill="none" stroke="#000000" stroke-width="2" stroke-linecap="round" stroke-linejoin="round"><path d="M3.499 7.042 C 2.387 7.233,1.488 8.024,1.114 9.140 L 1.020 9.420 1.009 14.300 C 0.998 18.762,1.003 19.195,1.064 19.354 C 1.155 19.595,1.343 19.796,1.580 19.906 L 1.780 19.999 12.000 19.999 L 22.220 19.999 22.420 19.906 C 22.657 19.796,22.845 19.595,22.936 19.354 C 22.997 19.195,23.002 18.762,22.991 14.300 L 22.980 9.420 22.886 9.140 C 22.552 8.144,21.781 7.387,20.822 7.112 C 20.501 7.020,20.490 7.020,18.000 7.020 C 15.510 7.020,15.499 7.020,15.178 7.112 C 14.219 7.387,13.442 8.151,13.116 9.140 C 13.026 9.413,13.023 9.467,13.009 11.210 L 12.995 13.000 12.500 13.000 L 12.005 13.000 11.991 11.210 C 11.977 9.467,11.974 9.413,11.884 9.140 C 11.562 8.163,10.820 7.423,9.861 7.122 L 9.540 7.021 6.620 7.014 C 5.014 7.011,3.609 7.023,3.499 7.042 M9.310 9.061 C 9.452 9.103,9.571 9.178,9.697 9.303 C 9.993 9.599,10.000 9.650,10.000 11.447 L 10.000 13.000 6.500 13.000 L 3.000 13.000 3.000 11.447 C 3.000 9.649,3.007 9.599,3.304 9.303 C 3.609 8.997,3.514 9.006,6.483 9.003 C 8.720 9.000,9.136 9.009,9.310 9.061 M20.310 9.061 C 20.452 9.103,20.571 9.178,20.697 9.303 C 20.993 9.599,21.000 9.650,21.000 11.447 L 21.000 13.000 18.000 13.000 L 15.000 13.000 15.000 11.447 C 15.000 9.649,15.007 9.599,15.304 9.303 C 15.604 9.002,15.569 9.006,17.983 9.003 C 19.772 9.000,20.138 9.010,20.310 9.061 M21.000 16.500 L 21.000 18.000 12.000 18.000 L 3.000 18.000 3.000 16.500 L 3.000 15.000 12.000 15.000 L 21.000 15.000 21.000 16.500 " stroke="none" fill-rule="evenodd" fill="black"></path></svg>