<svg viewBox="0 0 24 24" xmlns="http://www.w3.org/2000/svg" fill="none" stroke="#000000" stroke-width="2" stroke-linecap="round" stroke-linejoin="round"><path d="M15.380 2.027 C 14.165 2.179,12.953 2.841,12.170 3.780 C 12.060 3.912,10.894 5.559,9.578 7.440 C 8.262 9.321,7.180 10.867,7.173 10.876 C 7.166 10.885,6.967 10.793,6.730 10.671 C 5.991 10.291,5.378 10.117,4.484 10.035 C 3.897 9.981,3.659 10.019,3.405 10.205 C 2.837 10.624,2.886 11.502,3.498 11.861 C 3.646 11.948,3.758 11.974,4.110 12.004 C 4.865 12.069,5.270 12.171,5.771 12.425 L 6.001 12.542 3.611 15.948 C 2.296 17.822,1.171 19.449,1.110 19.565 C 1.028 19.721,1.000 19.831,1.000 19.997 C 1.002 20.733,1.769 21.221,2.420 20.901 C 2.530 20.846,3.177 20.397,3.858 19.901 L 5.095 19.000 8.798 19.000 C 12.745 19.000,13.014 18.989,13.908 18.797 C 14.897 18.584,16.082 18.086,16.920 17.531 C 19.182 16.034,20.627 13.691,20.941 11.008 C 21.025 10.291,21.025 6.791,20.942 6.237 C 20.615 4.072,18.869 2.344,16.703 2.043 C 16.414 2.003,15.648 1.993,15.380 2.027 M16.728 4.096 C 17.374 4.260,17.900 4.585,18.295 5.062 C 18.682 5.532,19.050 6.411,18.914 6.541 C 18.860 6.592,9.689 13.220,9.502 13.342 C 9.405 13.406,9.404 13.404,9.298 13.195 C 9.172 12.948,9.041 12.740,8.827 12.452 C 8.733 12.324,8.685 12.224,8.703 12.192 C 8.719 12.163,9.841 10.556,11.195 8.620 C 12.991 6.053,13.729 5.030,13.921 4.840 C 14.654 4.117,15.709 3.838,16.728 4.096 M15.695 6.055 C 15.464 6.130,15.255 6.300,15.128 6.516 C 15.037 6.672,15.020 6.746,15.020 7.000 C 15.020 7.257,15.036 7.327,15.133 7.492 C 15.651 8.374,16.998 8.018,16.998 7.000 C 16.998 6.623,16.792 6.281,16.463 6.112 C 16.265 6.010,15.911 5.984,15.695 6.055 M18.987 9.850 C 18.955 11.043,18.871 11.551,18.573 12.380 C 17.803 14.520,15.965 16.203,13.786 16.764 C 13.035 16.958,12.906 16.968,11.000 16.984 C 9.416 16.998,9.199 16.993,9.330 16.945 C 9.553 16.862,9.745 16.700,9.869 16.489 C 9.969 16.319,9.981 16.259,9.989 15.880 L 9.997 15.460 14.489 12.212 C 16.959 10.426,18.987 8.964,18.996 8.962 C 19.005 8.961,19.001 9.361,18.987 9.850 M7.591 14.261 C 7.662 14.404,7.720 14.547,7.720 14.578 C 7.720 14.609,7.394 14.870,6.996 15.158 C 6.598 15.447,6.279 15.665,6.286 15.643 C 6.308 15.580,7.418 14.003,7.441 14.001 C 7.453 14.001,7.521 14.117,7.591 14.261 M8.409 16.807 C 8.476 16.854,8.596 16.916,8.675 16.945 C 8.808 16.992,8.781 16.997,8.340 16.998 L 7.860 17.000 8.057 16.860 C 8.165 16.783,8.262 16.720,8.271 16.720 C 8.280 16.720,8.342 16.759,8.409 16.807 " stroke="none" fill-rule="evenodd" fill="black"></path></svg>