<svg viewBox="0 0 24 24" xmlns="http://www.w3.org/2000/svg" fill="none" stroke="#000000" stroke-width="2" stroke-linecap="round" stroke-linejoin="round"><path d="M5.695 3.057 C 5.466 3.129,5.256 3.299,5.128 3.516 L 5.020 3.700 5.020 9.660 C 5.020 15.272,5.024 15.640,5.093 15.960 C 5.523 17.967,6.994 19.452,9.000 19.901 C 9.206 19.947,9.566 19.975,10.150 19.989 L 11.000 20.009 11.000 20.504 L 11.000 21.000 9.946 21.000 C 8.797 21.000,8.644 21.022,8.382 21.221 C 8.302 21.282,8.187 21.415,8.128 21.516 C 8.037 21.672,8.020 21.746,8.020 22.000 C 8.020 22.256,8.036 22.328,8.131 22.489 C 8.256 22.702,8.449 22.864,8.670 22.943 C 8.891 23.022,15.109 23.022,15.330 22.943 C 15.551 22.864,15.744 22.702,15.869 22.489 C 15.964 22.328,15.980 22.256,15.980 22.000 C 15.980 21.746,15.963 21.672,15.872 21.516 C 15.813 21.415,15.698 21.282,15.618 21.221 C 15.356 21.022,15.203 21.000,14.054 21.000 L 13.000 21.000 13.000 20.504 L 13.000 20.009 13.850 19.989 C 14.984 19.962,15.467 19.851,16.286 19.433 C 17.630 18.748,18.580 17.489,18.907 15.960 C 18.976 15.640,18.980 15.272,18.980 9.660 L 18.980 3.700 18.872 3.516 C 18.740 3.293,18.533 3.128,18.290 3.055 C 18.028 2.976,5.947 2.978,5.695 3.057 M17.000 6.000 L 17.000 7.000 12.000 7.000 L 7.000 7.000 7.000 6.000 L 7.000 5.000 12.000 5.000 L 17.000 5.000 17.000 6.000 M16.991 12.270 L 16.979 15.540 16.878 15.861 C 16.573 16.830,15.818 17.581,14.840 17.886 L 14.540 17.980 12.000 17.980 L 9.460 17.980 9.160 17.886 C 8.182 17.581,7.427 16.830,7.122 15.861 L 7.021 15.540 7.009 12.270 L 6.997 9.000 12.000 9.000 L 17.003 9.000 16.991 12.270 " stroke="none" fill-rule="evenodd" fill="black"></path></svg>