<svg viewBox="0 0 24 24" xmlns="http://www.w3.org/2000/svg" fill="none" stroke="#000000" stroke-width="2" stroke-linecap="round" stroke-linejoin="round"><path d="M11.695 0.057 C 11.466 0.129,11.256 0.299,11.128 0.516 L 11.020 0.700 11.020 4.503 L 11.020 8.306 11.141 8.503 C 11.543 9.156,12.457 9.156,12.859 8.503 C 12.979 8.309,12.980 8.300,13.000 7.613 L 13.020 6.919 14.560 8.460 L 16.099 10.000 15.131 10.970 C 14.127 11.977,14.003 12.138,14.001 12.440 C 14.000 12.573,13.761 12.340,8.270 6.854 C 2.997 1.586,2.524 1.125,2.343 1.065 C 1.861 0.906,1.382 1.084,1.128 1.516 C 1.036 1.672,1.020 1.745,1.021 2.000 C 1.021 2.212,1.043 2.341,1.095 2.440 C 1.135 2.517,4.185 5.599,7.874 9.290 L 14.580 16.000 13.541 17.039 L 12.503 18.078 11.521 17.105 C 10.671 16.262,10.514 16.124,10.343 16.066 C 9.864 15.905,9.382 16.084,9.128 16.516 C 9.036 16.672,9.020 16.745,9.021 17.000 C 9.021 17.213,9.043 17.341,9.095 17.440 C 9.180 17.602,11.700 20.150,11.943 20.320 C 12.236 20.525,12.740 20.540,13.017 20.352 C 13.085 20.306,13.783 19.628,14.570 18.845 L 16.000 17.421 18.710 20.126 C 20.200 21.614,21.483 22.865,21.560 22.905 C 21.659 22.957,21.788 22.979,22.000 22.979 C 22.258 22.980,22.327 22.964,22.492 22.867 C 22.714 22.737,22.901 22.498,22.965 22.264 C 23.019 22.062,22.989 21.734,22.899 21.555 C 22.862 21.481,21.614 20.201,20.126 18.710 L 17.421 16.000 19.126 14.290 C 20.064 13.350,20.865 12.517,20.905 12.440 C 20.957 12.341,20.979 12.212,20.979 12.000 C 20.980 11.745,20.964 11.672,20.872 11.516 C 20.740 11.293,20.533 11.128,20.290 11.055 C 20.054 10.984,19.943 10.986,19.677 11.064 C 19.470 11.125,19.384 11.203,17.729 12.853 L 15.999 14.578 15.460 14.039 L 14.921 13.500 15.070 13.490 C 15.420 13.465,15.450 13.440,16.914 11.985 C 18.433 10.476,18.485 10.412,18.489 10.023 C 18.492 9.586,18.584 9.693,15.986 7.086 C 14.352 5.446,13.529 4.648,13.420 4.597 C 13.332 4.555,13.202 4.521,13.131 4.521 L 13.003 4.520 12.991 2.610 L 12.980 0.700 12.872 0.516 C 12.628 0.101,12.150 -0.085,11.695 0.057 " stroke="none" fill-rule="evenodd" fill="black"></path></svg>