<svg viewBox="0 0 24 24" xmlns="http://www.w3.org/2000/svg" fill="none" stroke="#000000" stroke-width="2" stroke-linecap="round" stroke-linejoin="round"><path d="M17.044 0.625 C 16.650 0.822,16.436 1.268,16.528 1.702 C 16.583 1.963,16.654 2.061,17.155 2.570 L 17.579 3.001 16.870 3.710 L 16.160 4.419 15.690 4.173 C 12.446 2.469,8.575 2.643,5.540 4.630 C 4.905 5.045,4.499 5.378,3.919 5.958 C 1.953 7.926,0.919 10.544,1.013 13.320 C 1.084 15.439,1.752 17.328,3.033 19.040 C 3.430 19.570,4.305 20.464,4.800 20.847 C 6.242 21.961,7.787 22.624,9.600 22.907 C 10.247 23.008,11.753 23.008,12.400 22.907 C 14.638 22.557,16.504 21.620,18.062 20.062 C 19.620 18.504,20.557 16.638,20.907 14.400 C 20.961 14.054,20.978 13.707,20.978 13.000 C 20.978 12.293,20.961 11.946,20.907 11.600 C 20.569 9.439,19.676 7.613,18.196 6.063 L 17.786 5.634 18.393 5.028 L 18.999 4.421 20.210 5.626 C 20.875 6.289,21.481 6.862,21.555 6.899 C 22.009 7.128,22.601 6.944,22.867 6.492 C 22.964 6.327,22.980 6.257,22.980 6.000 C 22.980 5.746,22.964 5.672,22.873 5.520 C 22.813 5.420,21.733 4.309,20.433 3.012 C 18.653 1.236,18.057 0.665,17.920 0.603 C 17.654 0.483,17.312 0.492,17.044 0.625 M12.586 5.163 C 13.113 5.265,13.830 5.497,14.319 5.724 L 14.685 5.894 14.208 6.377 C 13.655 6.937,13.584 7.033,13.530 7.288 C 13.382 7.991,13.980 8.596,14.699 8.468 C 14.968 8.421,15.047 8.360,15.750 7.665 L 16.359 7.062 16.604 7.301 C 19.047 9.685,19.688 13.421,18.183 16.499 C 17.749 17.387,17.223 18.105,16.496 18.801 C 15.876 19.394,15.262 19.819,14.471 20.200 C 12.267 21.265,9.733 21.265,7.529 20.200 C 6.477 19.693,5.612 19.015,4.847 18.100 C 3.102 16.014,2.551 13.113,3.403 10.502 C 3.951 8.826,5.125 7.293,6.606 6.318 C 7.477 5.746,8.722 5.247,9.560 5.136 L 9.763 5.109 9.236 5.985 C 8.946 6.466,8.664 6.957,8.609 7.076 C 8.218 7.921,9.059 8.778,9.911 8.402 C 10.027 8.351,10.166 8.257,10.220 8.193 C 10.398 7.981,11.931 5.391,11.971 5.234 C 12.017 5.051,12.009 5.052,12.586 5.163 " stroke="none" fill-rule="evenodd" fill="black"></path></svg>