<svg viewBox="0 0 24 24" xmlns="http://www.w3.org/2000/svg" fill="none" stroke="#000000" stroke-width="2" stroke-linecap="round" stroke-linejoin="round"><path d="M6.499 2.043 C 5.390 2.231,4.488 3.024,4.114 4.140 L 4.020 4.420 4.009 12.760 C 4.000 19.077,4.008 21.142,4.044 21.272 C 4.190 21.804,4.795 22.128,5.308 21.949 C 5.403 21.916,6.911 20.866,8.738 19.561 L 12.000 17.232 15.255 19.557 C 17.388 21.080,18.576 21.904,18.700 21.946 C 19.212 22.121,19.820 21.798,19.961 21.277 C 19.988 21.177,19.998 18.322,19.991 12.773 L 19.980 4.420 19.886 4.140 C 19.556 3.158,18.821 2.425,17.861 2.121 L 17.540 2.020 12.120 2.014 C 9.139 2.011,6.609 2.024,6.499 2.043 M17.310 4.061 C 17.592 4.144,17.858 4.412,17.940 4.693 C 17.993 4.876,17.999 5.765,17.990 11.973 L 17.980 19.046 15.215 17.070 C 13.525 15.864,12.387 15.077,12.290 15.048 C 12.088 14.987,11.912 14.987,11.710 15.048 C 11.613 15.077,10.475 15.864,8.785 17.070 L 6.020 19.046 6.010 11.973 C 5.999 4.014,5.975 4.631,6.303 4.303 C 6.621 3.985,6.233 4.006,11.983 4.003 C 16.458 4.000,17.131 4.008,17.310 4.061 M11.643 7.069 C 11.338 7.177,11.176 7.390,10.761 8.232 L 10.382 9.000 9.641 9.000 C 9.223 9.000,8.830 9.020,8.741 9.045 C 8.502 9.111,8.255 9.300,8.131 9.511 C 8.036 9.672,8.020 9.744,8.020 10.000 C 8.020 10.403,8.095 10.521,8.792 11.214 L 9.349 11.768 9.176 12.294 C 9.080 12.583,9.002 12.893,9.001 12.983 C 8.998 13.404,9.285 13.809,9.678 13.939 C 10.042 14.060,10.188 14.021,11.145 13.546 L 12.000 13.122 12.855 13.546 C 13.812 14.021,13.958 14.060,14.322 13.939 C 14.715 13.809,15.002 13.403,14.999 12.983 C 14.998 12.893,14.920 12.586,14.825 12.300 L 14.652 11.780 15.260 11.159 C 15.785 10.622,15.877 10.509,15.939 10.324 C 16.119 9.780,15.832 9.218,15.290 9.055 C 15.163 9.017,14.878 9.000,14.363 9.000 L 13.618 9.000 13.239 8.232 C 12.803 7.349,12.658 7.164,12.316 7.063 C 12.057 6.986,11.874 6.987,11.643 7.069 M12.130 10.480 C 12.226 10.654,12.472 10.884,12.612 10.931 C 12.648 10.943,12.648 10.971,12.613 11.048 L 12.566 11.150 12.353 11.076 C 12.236 11.036,12.077 11.003,12.000 11.003 C 11.923 11.003,11.764 11.036,11.647 11.076 L 11.434 11.150 11.387 11.048 C 11.352 10.971,11.352 10.943,11.388 10.931 C 11.528 10.884,11.774 10.654,11.870 10.480 C 11.931 10.371,11.989 10.281,12.000 10.281 C 12.011 10.281,12.069 10.371,12.130 10.480 " stroke="none" fill-rule="evenodd" fill="black"></path></svg>