<svg viewBox="0 0 24 24" xmlns="http://www.w3.org/2000/svg" fill="none" stroke="#000000" stroke-width="2" stroke-linecap="round" stroke-linejoin="round"><path d="M11.695 3.057 C 11.466 3.129,11.256 3.299,11.128 3.516 L 11.020 3.700 11.009 7.350 L 10.998 11.000 7.446 11.000 C 3.590 11.000,3.678 10.995,3.382 11.221 C 3.302 11.282,3.187 11.415,3.128 11.516 C 3.037 11.672,3.020 11.746,3.020 12.000 C 3.020 12.256,3.036 12.328,3.131 12.489 C 3.256 12.702,3.449 12.864,3.670 12.943 C 3.791 12.986,4.516 12.997,7.409 12.998 L 10.998 13.000 11.009 16.653 L 11.020 20.306 11.141 20.503 C 11.543 21.156,12.457 21.156,12.859 20.503 L 12.980 20.306 12.991 16.653 L 13.002 13.000 16.591 12.998 C 19.484 12.997,20.209 12.986,20.330 12.943 C 20.551 12.864,20.744 12.702,20.869 12.489 C 20.964 12.328,20.980 12.256,20.980 12.000 C 20.980 11.746,20.963 11.672,20.872 11.516 C 20.813 11.415,20.698 11.282,20.618 11.221 C 20.322 10.995,20.410 11.000,16.554 11.000 L 13.002 11.000 12.991 7.350 L 12.980 3.700 12.872 3.516 C 12.628 3.101,12.150 2.915,11.695 3.057 " stroke="none" fill="black" fill-rule="evenodd"></path></svg>