<svg viewBox="0 0 24 24" xmlns="http://www.w3.org/2000/svg" fill="none" stroke="#000000" stroke-width="2" stroke-linecap="round" stroke-linejoin="round"><path d="M3.800 3.043 C 3.701 3.063,3.549 3.129,3.461 3.191 C 2.731 3.703,2.972 4.801,3.850 4.962 C 3.997 4.989,4.821 5.000,6.150 4.992 L 8.220 4.980 8.408 4.887 C 8.763 4.712,8.968 4.388,8.968 4.000 C 8.968 3.612,8.763 3.288,8.408 3.113 L 8.220 3.020 6.100 3.013 C 4.934 3.010,3.899 3.023,3.800 3.043 M19.695 3.057 C 19.466 3.129,19.256 3.299,19.128 3.516 L 19.020 3.700 19.020 12.003 L 19.020 20.306 19.141 20.503 C 19.543 21.156,20.457 21.156,20.859 20.503 L 20.980 20.306 20.980 12.003 L 20.980 3.700 20.872 3.516 C 20.628 3.101,20.150 2.915,19.695 3.057 M11.140 4.885 C 10.720 4.984,10.401 5.398,10.400 5.845 C 10.400 6.037,10.431 6.132,10.618 6.506 C 10.963 7.196,10.970 7.234,10.998 8.680 C 11.025 10.058,11.031 10.090,11.277 10.370 C 11.651 10.797,12.349 10.797,12.723 10.370 C 12.978 10.081,12.980 10.064,12.978 8.720 C 12.977 7.391,12.953 7.158,12.751 6.520 C 12.606 6.059,12.275 5.399,12.082 5.184 C 11.850 4.928,11.470 4.807,11.140 4.885 M11.803 12.766 C 11.500 12.821,11.206 13.070,11.075 13.380 C 11.038 13.466,11.018 13.938,11.001 15.060 L 10.977 16.620 10.808 17.108 C 10.716 17.376,10.640 17.630,10.640 17.673 C 10.640 17.826,10.773 18.157,10.892 18.302 C 11.283 18.777,12.083 18.740,12.425 18.231 C 12.587 17.991,12.775 17.468,12.886 16.950 C 12.968 16.570,12.975 16.429,12.977 15.020 C 12.980 13.344,12.983 13.366,12.723 13.070 C 12.501 12.817,12.152 12.701,11.803 12.766 M6.420 18.999 C 4.346 19.020,4.339 19.020,4.152 19.113 C 3.797 19.288,3.592 19.612,3.592 20.000 C 3.592 20.388,3.797 20.712,4.152 20.887 C 4.339 20.979,4.353 20.980,6.097 20.992 C 8.048 21.006,8.710 20.971,8.982 20.839 C 9.325 20.673,9.532 20.336,9.527 19.955 C 9.521 19.447,9.157 19.044,8.660 18.995 C 8.572 18.986,7.564 18.988,6.420 18.999 " stroke="none" fill-rule="evenodd" fill="black"></path></svg>