<svg viewBox="0 0 24 24" xmlns="http://www.w3.org/2000/svg" fill="none" stroke="#000000" stroke-width="2" stroke-linecap="round" stroke-linejoin="round"><path d="M5.580 3.094 C 5.342 3.205,5.155 3.405,5.064 3.646 C 5.003 3.806,4.999 4.490,5.009 12.063 L 5.020 20.306 5.141 20.503 C 5.543 21.156,6.457 21.156,6.859 20.503 L 6.980 20.306 7.000 13.666 L 7.020 7.026 12.150 13.867 C 14.972 17.630,17.312 20.737,17.351 20.772 C 17.490 20.898,17.777 20.998,18.000 20.999 C 18.413 21.000,18.790 20.740,18.936 20.354 C 18.997 20.194,19.001 19.510,18.991 11.940 L 18.980 3.700 18.871 3.514 C 18.479 2.848,17.521 2.848,17.129 3.514 L 17.020 3.700 17.000 10.337 L 16.980 16.974 11.850 10.133 C 9.028 6.370,6.688 3.263,6.649 3.228 C 6.392 2.996,5.919 2.936,5.580 3.094 " stroke="none" fill-rule="evenodd" fill="black"></path></svg>