<svg viewBox="0 0 24 24" xmlns="http://www.w3.org/2000/svg" fill="none" stroke="#000000" stroke-width="2" stroke-linecap="round" stroke-linejoin="round"><path d="M11.280 1.023 C 11.203 1.032,10.951 1.059,10.720 1.083 C 8.832 1.283,6.991 2.023,5.360 3.235 C 4.751 3.688,3.684 4.755,3.226 5.367 C 0.728 8.714,0.301 13.032,2.097 16.780 C 2.643 17.918,3.276 18.801,4.238 19.762 C 5.199 20.724,6.082 21.357,7.220 21.903 C 10.967 23.699,15.288 23.270,18.637 20.770 C 19.246 20.316,20.316 19.246,20.770 18.637 C 23.744 14.652,23.744 9.348,20.770 5.363 C 20.316 4.755,19.247 3.686,18.640 3.235 C 17.045 2.049,15.365 1.360,13.423 1.096 C 13.000 1.038,11.574 0.990,11.280 1.023 M12.477 3.015 C 12.468 3.023,12.195 3.141,11.870 3.278 C 11.546 3.415,11.124 3.607,10.934 3.704 C 10.743 3.801,10.584 3.876,10.580 3.870 C 10.575 3.865,10.470 3.713,10.345 3.533 C 10.151 3.253,10.128 3.203,10.189 3.185 C 10.281 3.157,11.086 3.045,11.320 3.028 C 11.582 3.008,12.496 2.997,12.477 3.015 M8.495 4.381 C 8.688 4.657,8.840 4.898,8.833 4.917 C 8.826 4.936,8.631 5.102,8.400 5.286 C 6.774 6.580,5.755 8.212,5.436 10.040 C 5.387 10.315,5.331 10.551,5.310 10.565 C 5.289 10.579,5.134 10.602,4.966 10.617 C 4.684 10.642,3.527 10.805,3.207 10.865 L 3.069 10.891 3.097 10.695 C 3.320 9.151,3.993 7.610,4.987 6.369 C 5.539 5.680,6.294 4.990,7.043 4.489 C 7.320 4.304,8.069 3.882,8.122 3.881 C 8.135 3.880,8.302 4.106,8.495 4.381 M16.357 4.126 C 17.938 4.992,19.280 6.409,20.080 8.060 C 20.720 9.379,20.977 10.507,20.977 12.000 C 20.977 12.888,20.919 13.397,20.733 14.160 C 20.352 15.727,19.503 17.221,18.337 18.379 C 17.962 18.753,17.364 19.258,17.334 19.227 C 17.325 19.219,17.191 18.736,17.037 18.156 C 16.882 17.575,16.685 16.854,16.598 16.553 C 16.511 16.252,16.440 15.996,16.440 15.983 C 16.440 15.948,17.361 15.958,17.920 16.000 C 19.041 16.084,19.259 16.090,19.436 16.042 C 19.666 15.979,20.003 15.646,20.071 15.415 C 20.219 14.916,20.011 14.407,19.576 14.202 C 19.320 14.082,18.403 14.000,16.946 13.966 L 15.791 13.940 15.659 13.570 C 15.587 13.367,15.536 13.200,15.546 13.200 C 15.578 13.200,16.481 13.443,16.973 13.584 C 17.233 13.659,17.521 13.720,17.613 13.720 C 17.954 13.719,18.362 13.435,18.504 13.100 C 18.588 12.901,18.591 12.546,18.511 12.357 C 18.428 12.162,18.217 11.930,18.044 11.843 C 17.779 11.710,16.463 11.351,15.404 11.123 C 14.999 11.036,14.655 10.950,14.638 10.932 C 14.621 10.914,14.559 10.783,14.500 10.640 C 14.334 10.238,13.601 8.763,13.259 8.140 C 12.912 7.508,12.449 6.726,12.009 6.028 C 11.845 5.768,11.719 5.548,11.728 5.539 C 11.775 5.492,12.621 5.119,13.180 4.900 C 13.805 4.654,15.836 3.984,16.017 3.964 C 16.037 3.962,16.190 4.035,16.357 4.126 M10.112 6.770 C 10.510 7.352,11.378 8.855,11.938 9.930 C 12.224 10.479,12.274 10.600,12.213 10.600 C 12.173 10.599,11.861 10.573,11.520 10.542 C 10.549 10.452,8.764 10.387,8.049 10.414 L 7.399 10.440 7.423 10.330 C 7.677 9.189,8.103 8.373,8.873 7.556 C 9.184 7.225,9.896 6.604,9.968 6.601 C 9.984 6.601,10.048 6.676,10.112 6.770 M9.860 12.440 C 11.053 12.494,12.787 12.655,13.146 12.745 C 13.218 12.763,13.276 12.879,13.462 13.385 C 13.588 13.725,13.681 14.012,13.669 14.024 C 13.657 14.036,13.344 14.081,12.974 14.123 C 12.081 14.224,11.292 14.336,10.440 14.483 C 9.733 14.605,8.356 14.867,8.234 14.904 C 8.181 14.919,8.139 14.851,8.038 14.592 C 7.766 13.890,7.526 13.076,7.460 12.632 L 7.432 12.444 7.646 12.430 C 8.103 12.398,9.018 12.402,9.860 12.440 M5.502 13.060 C 5.707 14.100,6.050 15.121,6.571 16.243 C 6.815 16.769,7.023 16.962,7.427 17.037 C 7.585 17.067,7.804 17.034,8.857 16.820 C 10.342 16.518,11.534 16.316,12.620 16.181 C 13.457 16.077,14.329 15.996,14.353 16.020 C 14.387 16.053,14.950 18.076,15.220 19.133 L 15.515 20.285 15.337 20.361 C 15.240 20.403,14.962 20.500,14.721 20.576 C 11.853 21.484,8.718 20.899,6.370 19.019 C 4.619 17.616,3.433 15.548,3.104 13.320 C 3.073 13.111,3.050 12.937,3.054 12.933 C 3.097 12.888,5.030 12.605,5.238 12.613 L 5.415 12.620 5.502 13.060 " stroke="none" fill-rule="evenodd" fill="black"></path></svg>