<svg viewBox="0 0 24 24" xmlns="http://www.w3.org/2000/svg" fill="none" stroke="#000000" stroke-width="2" stroke-linecap="round" stroke-linejoin="round"><path d="M5.600 5.566 C 4.099 5.813,2.916 6.407,1.902 7.422 C -0.392 9.716,-0.635 13.331,1.330 15.930 C 1.927 16.721,2.853 17.472,3.720 17.870 C 4.661 18.302,5.489 18.485,6.500 18.485 C 7.511 18.485,8.339 18.302,9.280 17.870 C 10.514 17.304,11.708 16.143,12.284 14.950 C 12.335 14.845,12.386 14.760,12.398 14.760 C 12.410 14.760,12.472 14.909,12.536 15.090 C 13.126 16.775,14.356 18.056,15.717 18.403 C 16.182 18.522,16.818 18.522,17.283 18.403 C 18.382 18.123,19.375 17.268,20.040 16.028 L 20.228 15.677 20.297 16.028 C 20.613 17.659,21.187 18.489,22.000 18.489 C 23.328 18.489,23.999 16.310,23.999 12.000 C 23.999 9.033,23.690 7.120,23.056 6.160 C 22.766 5.720,22.438 5.522,22.000 5.521 C 21.606 5.521,21.257 5.714,20.988 6.080 C 20.713 6.455,20.449 7.175,20.300 7.952 L 20.229 8.325 20.040 7.972 C 19.374 6.731,18.361 5.860,17.280 5.602 C 16.820 5.492,16.181 5.492,15.724 5.601 C 14.375 5.924,13.128 7.218,12.536 8.910 C 12.472 9.091,12.410 9.240,12.398 9.240 C 12.386 9.240,12.335 9.155,12.284 9.050 C 11.523 7.473,9.850 6.136,8.100 5.703 C 7.399 5.530,6.211 5.465,5.600 5.566 M7.303 7.582 C 9.091 7.893,10.503 9.273,10.903 11.100 C 10.999 11.539,10.999 12.461,10.903 12.900 C 10.669 13.967,10.119 14.863,9.289 15.525 C 7.086 17.284,3.798 16.571,2.511 14.054 C 2.150 13.348,2.027 12.826,2.027 12.000 C 2.027 11.172,2.150 10.652,2.514 9.941 C 3.142 8.713,4.329 7.825,5.666 7.584 C 6.091 7.507,6.869 7.506,7.303 7.582 M16.980 7.604 C 17.486 7.793,17.975 8.312,18.350 9.060 C 19.440 11.232,19.097 14.534,17.633 15.957 C 16.625 16.938,15.453 16.538,14.650 14.940 C 13.790 13.227,13.790 10.773,14.650 9.060 C 15.269 7.828,16.134 7.287,16.980 7.604 " stroke="none" fill="black" fill-rule="evenodd"></path></svg>