<svg viewBox="0 0 24 24" xmlns="http://www.w3.org/2000/svg" fill="none" stroke="#000000" stroke-width="2" stroke-linecap="round" stroke-linejoin="round"><path d="M11.069 1.039 C 9.923 1.151,8.808 1.421,7.864 1.817 C 4.167 3.367,1.679 6.573,1.094 10.540 C 0.993 11.224,0.994 12.793,1.096 13.460 C 1.391 15.399,2.100 17.231,3.186 18.864 L 3.401 19.187 3.295 19.424 C 3.007 20.061,2.577 20.635,2.054 21.081 C 1.632 21.440,1.512 21.641,1.510 21.990 C 1.508 22.379,1.703 22.701,2.060 22.894 C 2.199 22.968,2.281 22.980,2.680 22.977 C 3.905 22.970,5.840 22.320,7.138 21.480 C 7.341 21.348,7.520 21.240,7.535 21.240 C 7.550 21.240,7.729 21.345,7.931 21.474 C 9.223 22.292,10.117 22.699,11.082 22.907 C 11.536 23.005,12.772 23.004,13.460 22.904 C 16.233 22.504,18.658 21.160,20.427 19.043 C 21.777 17.428,22.591 15.594,22.906 13.460 C 22.959 13.102,22.977 12.731,22.977 12.000 C 22.977 10.978,22.929 10.486,22.755 9.700 C 22.033 6.440,19.934 3.714,16.997 2.220 C 15.840 1.632,14.837 1.309,13.572 1.120 C 12.946 1.026,11.638 0.984,11.069 1.039 M13.320 3.101 C 14.819 3.326,16.217 3.925,17.498 4.892 C 17.912 5.204,18.796 6.088,19.108 6.502 C 19.883 7.529,20.395 8.567,20.697 9.726 C 20.916 10.563,20.977 11.060,20.977 12.000 C 20.977 12.940,20.916 13.437,20.697 14.274 C 20.395 15.433,19.885 16.467,19.109 17.498 C 18.777 17.938,17.861 18.842,17.400 19.185 C 16.074 20.169,14.616 20.753,13.012 20.940 C 11.478 21.120,10.745 20.899,8.860 19.690 C 7.782 18.998,7.825 19.020,7.500 19.021 C 7.173 19.023,7.090 19.061,6.520 19.479 C 6.126 19.768,5.356 20.228,5.197 20.269 C 5.119 20.289,5.111 20.282,5.140 20.216 C 5.302 19.852,5.486 19.204,5.485 19.004 C 5.484 18.702,5.450 18.625,5.092 18.104 C 3.968 16.467,3.311 14.846,3.073 13.120 C 2.997 12.569,3.008 11.286,3.094 10.720 C 3.328 9.172,3.913 7.799,4.892 6.502 C 5.204 6.088,6.088 5.204,6.502 4.892 C 7.963 3.789,9.507 3.191,11.320 3.025 C 11.675 2.992,12.908 3.039,13.320 3.101 M15.694 5.055 C 15.602 5.085,15.476 5.146,15.414 5.191 C 15.351 5.236,14.796 5.903,14.180 6.675 L 13.060 8.077 12.968 7.775 C 12.848 7.383,12.632 7.157,12.271 7.046 L 12.028 6.972 11.955 6.736 C 11.866 6.445,11.707 6.248,11.467 6.128 C 11.072 5.931,10.621 5.988,10.322 6.274 C 10.200 6.391,9.853 7.052,8.596 9.560 L 7.023 12.700 7.021 13.000 C 7.020 13.258,7.036 13.327,7.133 13.492 C 7.340 13.844,7.705 14.029,8.112 13.987 C 8.508 13.946,8.576 13.881,9.806 12.343 L 10.940 10.923 11.025 11.202 C 11.162 11.646,11.385 11.874,11.788 11.976 C 11.967 12.022,11.972 12.027,12.048 12.275 C 12.273 13.007,13.169 13.239,13.697 12.702 C 13.925 12.470,16.957 6.399,16.989 6.110 C 17.068 5.400,16.372 4.833,15.694 5.055 " stroke="none" fill-rule="evenodd" fill="black"></path></svg>