<svg viewBox="0 0 24 24" xmlns="http://www.w3.org/2000/svg" fill="none" stroke="#000000" stroke-width="2" stroke-linecap="round" stroke-linejoin="round"><path d="M11.280 1.023 C 11.203 1.032,10.951 1.059,10.720 1.083 C 8.832 1.283,6.991 2.023,5.360 3.235 C 4.751 3.688,3.684 4.755,3.226 5.367 C 0.728 8.714,0.301 13.032,2.097 16.780 C 2.643 17.918,3.276 18.801,4.238 19.762 C 5.199 20.724,6.082 21.357,7.220 21.903 C 10.967 23.699,15.288 23.270,18.637 20.770 C 19.246 20.316,20.316 19.246,20.770 18.637 C 23.744 14.652,23.744 9.348,20.770 5.363 C 20.316 4.755,19.247 3.686,18.640 3.235 C 17.045 2.049,15.365 1.360,13.423 1.096 C 13.000 1.038,11.574 0.990,11.280 1.023 M11.000 4.650 C 11.001 6.217,11.001 6.220,11.095 6.420 C 11.259 6.766,11.602 6.997,11.954 6.999 C 12.050 7.000,12.855 6.818,13.743 6.595 L 15.359 6.190 15.621 6.435 C 16.034 6.821,16.470 7.000,17.000 7.000 C 17.573 7.000,18.006 6.807,18.447 6.356 L 18.754 6.042 19.032 6.391 C 19.833 7.398,20.437 8.622,20.733 9.840 C 20.919 10.603,20.977 11.112,20.977 12.000 C 20.977 13.493,20.720 14.621,20.080 15.940 C 19.205 17.746,17.798 19.160,15.980 20.061 C 13.447 21.317,10.485 21.310,7.980 20.042 C 7.044 19.569,6.380 19.093,5.665 18.382 C 4.933 17.655,4.367 16.863,3.920 15.940 C 3.487 15.047,3.246 14.271,3.094 13.280 C 2.997 12.646,2.997 11.354,3.094 10.720 C 3.494 8.105,4.917 5.885,7.120 4.440 C 7.944 3.900,9.191 3.386,10.120 3.205 C 10.351 3.160,10.576 3.115,10.620 3.106 C 10.664 3.097,10.768 3.087,10.850 3.085 L 11.000 3.080 11.000 4.650 M13.560 3.140 C 14.066 3.229,14.528 3.351,15.028 3.528 L 15.476 3.687 15.348 3.878 C 15.278 3.983,15.202 4.096,15.180 4.129 C 15.155 4.167,14.763 4.283,14.140 4.437 C 13.590 4.572,13.108 4.693,13.070 4.704 C 13.005 4.724,13.000 4.668,13.000 3.903 L 13.000 3.080 13.110 3.080 C 13.171 3.080,13.373 3.107,13.560 3.140 M5.351 9.702 C 4.637 9.875,4.017 10.434,3.768 11.131 C 3.630 11.515,3.597 12.245,3.700 12.640 C 3.837 13.169,4.163 13.665,4.509 13.868 C 4.673 13.964,4.743 13.980,5.003 13.980 C 5.271 13.980,5.329 13.966,5.503 13.859 C 6.020 13.541,6.145 12.926,5.798 12.406 C 5.611 12.126,5.580 11.860,5.720 11.720 C 5.860 11.580,6.126 11.611,6.406 11.798 C 6.926 12.145,7.541 12.020,7.859 11.503 C 7.966 11.329,7.980 11.271,7.980 11.003 C 7.980 10.743,7.964 10.673,7.868 10.509 C 7.668 10.170,7.131 9.818,6.630 9.700 C 6.320 9.627,5.657 9.628,5.351 9.702 M15.351 9.702 C 14.868 9.819,14.327 10.177,14.132 10.509 C 14.036 10.673,14.020 10.743,14.020 11.003 C 14.020 11.271,14.034 11.329,14.141 11.503 C 14.459 12.020,15.074 12.145,15.594 11.798 C 15.874 11.611,16.140 11.580,16.280 11.720 C 16.420 11.860,16.389 12.126,16.202 12.406 C 15.855 12.926,15.980 13.541,16.497 13.859 C 16.671 13.966,16.729 13.980,16.997 13.980 C 17.257 13.980,17.327 13.964,17.491 13.868 C 17.837 13.665,18.163 13.169,18.300 12.640 C 18.403 12.245,18.370 11.515,18.232 11.131 C 17.979 10.425,17.361 9.872,16.630 9.700 C 16.320 9.627,15.657 9.628,15.351 9.702 M10.670 15.061 C 10.448 15.142,10.250 15.309,10.128 15.516 C 10.037 15.672,10.020 15.746,10.020 16.000 C 10.020 16.257,10.036 16.328,10.133 16.492 C 10.382 16.916,11.204 17.419,11.989 17.628 C 12.330 17.719,12.459 17.732,13.000 17.732 C 13.541 17.732,13.670 17.719,14.011 17.628 C 14.796 17.419,15.618 16.916,15.867 16.492 C 15.964 16.328,15.980 16.257,15.980 16.000 C 15.980 15.746,15.963 15.672,15.872 15.516 C 15.747 15.303,15.550 15.141,15.316 15.058 C 14.964 14.934,14.638 15.013,14.283 15.306 C 13.840 15.674,13.300 15.815,12.674 15.726 C 12.281 15.671,12.015 15.554,11.717 15.306 C 11.364 15.014,11.018 14.933,10.670 15.061 " stroke="none" fill-rule="evenodd" fill="black"></path></svg>