<svg viewBox="0 0 24 24" xmlns="http://www.w3.org/2000/svg" fill="none" stroke="#000000" stroke-width="2" stroke-linecap="round" stroke-linejoin="round"><path d="M11.457 2.062 C 9.085 2.321,6.918 3.463,5.301 5.306 C 3.786 7.034,2.922 9.486,3.013 11.799 C 3.055 12.870,3.210 13.694,3.547 14.640 C 3.645 14.915,3.745 15.196,3.768 15.264 C 3.806 15.376,3.718 15.665,2.905 18.106 C 2.324 19.849,2.000 20.881,2.000 20.985 C 2.000 21.535,2.465 22.000,3.015 22.000 C 3.119 22.000,4.151 21.676,5.894 21.095 C 8.335 20.282,8.624 20.194,8.736 20.232 C 8.804 20.255,9.085 20.355,9.360 20.453 C 10.303 20.789,11.127 20.946,12.171 20.987 L 12.801 21.012 13.031 21.179 C 13.916 21.820,15.073 22.402,16.040 22.694 C 16.720 22.899,17.179 22.972,17.820 22.976 C 18.375 22.980,18.442 22.972,18.710 22.874 C 19.367 22.634,19.913 22.180,20.889 21.065 C 21.534 20.329,21.603 20.228,21.748 19.811 C 21.844 19.537,21.856 19.440,21.856 19.000 C 21.856 18.560,21.844 18.463,21.748 18.189 C 21.597 17.754,21.493 17.605,20.969 17.072 L 20.509 16.605 20.629 16.412 C 21.270 15.391,21.741 14.043,21.925 12.700 C 22.006 12.110,21.995 10.700,21.905 10.120 C 21.688 8.726,21.173 7.386,20.423 6.263 C 19.993 5.619,19.685 5.252,19.095 4.679 C 17.054 2.700,14.289 1.752,11.457 2.062 M13.232 4.041 C 14.995 4.226,16.564 4.969,17.798 6.202 C 19.525 7.930,20.294 10.359,19.879 12.780 C 19.722 13.701,19.338 14.717,18.872 15.450 L 18.752 15.640 18.442 15.640 C 18.075 15.640,17.599 15.753,17.307 15.909 C 17.193 15.970,16.925 16.189,16.710 16.396 L 16.320 16.772 16.030 16.580 C 15.003 15.901,14.078 14.978,13.450 14.006 L 13.235 13.673 13.610 13.286 C 14.175 12.704,14.360 12.263,14.360 11.500 C 14.360 11.039,14.294 10.736,14.113 10.360 C 14.010 10.147,13.861 9.972,13.285 9.389 C 12.689 8.786,12.542 8.658,12.321 8.554 C 11.097 7.973,9.841 7.994,9.019 8.611 C 8.513 8.990,8.382 9.454,8.627 9.998 L 8.742 10.254 8.570 10.597 C 8.343 11.049,8.175 11.583,8.073 12.177 C 7.767 13.960,8.468 16.151,10.003 18.210 C 10.196 18.468,10.349 18.680,10.344 18.680 C 10.295 18.680,9.696 18.452,9.360 18.305 C 8.709 18.020,8.810 18.004,6.542 18.759 C 5.488 19.111,4.619 19.393,4.613 19.386 C 4.607 19.380,4.880 18.539,5.221 17.517 C 5.562 16.496,5.856 15.568,5.874 15.455 C 5.914 15.200,5.861 14.980,5.650 14.520 C 5.027 13.168,4.855 11.561,5.165 10.000 C 5.497 8.332,6.440 6.774,7.780 5.682 C 9.301 4.442,11.307 3.838,13.232 4.041 M11.250 10.268 C 11.398 10.321,11.541 10.438,11.900 10.802 L 12.360 11.267 12.360 11.501 L 12.360 11.734 11.764 12.337 C 11.437 12.669,11.136 13.003,11.095 13.080 C 11.045 13.176,11.022 13.308,11.021 13.500 C 11.020 13.768,11.031 13.800,11.276 14.260 C 12.122 15.842,13.346 17.193,14.831 18.180 C 15.115 18.369,15.227 18.464,15.191 18.487 C 15.017 18.600,13.780 18.919,13.512 18.920 C 13.376 18.920,13.322 18.877,12.809 18.370 C 11.952 17.522,11.434 16.859,10.912 15.941 C 10.102 14.516,9.839 13.253,10.121 12.142 C 10.213 11.778,10.375 11.400,10.439 11.400 C 10.533 11.400,10.836 11.067,10.920 10.872 C 10.988 10.713,11.005 10.611,10.992 10.433 C 10.973 10.171,10.975 10.169,11.250 10.268 M19.568 18.471 C 20.023 18.942,20.004 19.053,19.333 19.814 C 18.761 20.462,18.454 20.761,18.207 20.908 C 18.044 21.005,18.013 21.009,17.684 20.985 C 17.491 20.970,17.152 20.914,16.930 20.860 C 16.304 20.709,15.549 20.400,15.805 20.400 C 15.900 20.400,16.788 19.987,17.194 19.755 C 17.786 19.416,18.444 18.938,18.864 18.540 C 19.060 18.355,19.240 18.203,19.263 18.202 C 19.287 18.201,19.424 18.322,19.568 18.471 " stroke="none" fill-rule="evenodd" fill="black"></path></svg>