<svg viewBox="0 0 24 24" xmlns="http://www.w3.org/2000/svg" fill="none" stroke="#000000" stroke-width="2" stroke-linecap="round" stroke-linejoin="round"><path d="M11.080 2.045 C 8.923 2.235,6.845 3.164,5.203 4.672 L 4.826 5.018 4.523 5.020 C 4.293 5.022,4.182 5.043,4.060 5.108 C 3.851 5.219,3.661 5.421,3.576 5.620 C 3.492 5.819,3.489 6.174,3.570 6.365 C 3.631 6.508,3.631 6.510,3.453 6.805 C 2.106 9.033,1.669 11.758,2.260 14.260 C 2.697 16.112,3.581 17.701,4.919 19.042 C 5.217 19.340,5.613 19.703,5.800 19.847 C 7.242 20.961,8.787 21.624,10.600 21.907 C 11.247 22.008,12.753 22.008,13.400 21.907 C 15.638 21.557,17.504 20.620,19.062 19.062 C 20.620 17.504,21.557 15.638,21.907 13.400 C 21.961 13.054,21.978 12.707,21.978 12.000 C 21.978 11.068,21.932 10.575,21.785 9.926 C 21.735 9.706,21.736 9.699,21.857 9.505 C 21.966 9.329,21.980 9.273,21.980 9.004 C 21.980 8.746,21.964 8.672,21.872 8.516 C 21.750 8.308,21.548 8.140,21.334 8.065 C 21.201 8.019,21.165 7.969,20.903 7.457 C 20.396 6.469,19.862 5.738,19.062 4.939 C 18.498 4.376,18.087 4.040,17.460 3.630 C 15.588 2.404,13.337 1.845,11.080 2.045 M12.734 4.041 C 14.574 4.216,16.228 4.976,17.554 6.256 C 17.949 6.636,18.402 7.181,18.691 7.620 L 18.927 7.980 15.174 8.002 C 11.856 8.022,11.388 8.032,11.145 8.091 C 10.057 8.355,9.105 9.043,8.568 9.953 C 8.481 10.100,8.398 10.261,8.382 10.310 C 8.367 10.360,8.342 10.399,8.327 10.399 C 8.303 10.398,6.192 6.901,6.103 6.714 C 6.073 6.650,6.107 6.594,6.303 6.394 C 7.962 4.694,10.362 3.816,12.734 4.041 M6.552 11.364 C 7.734 13.335,8.243 14.149,8.359 14.254 C 8.450 14.337,8.600 14.422,8.701 14.449 C 8.836 14.485,8.922 14.544,9.036 14.680 C 9.522 15.256,10.388 15.747,11.213 15.914 L 11.562 15.985 10.359 17.722 C 9.476 18.998,9.138 19.457,9.088 19.447 C 9.051 19.440,8.799 19.329,8.529 19.199 C 7.482 18.697,6.614 18.017,5.847 17.100 C 4.539 15.537,3.870 13.447,4.030 11.430 C 4.107 10.464,4.331 9.549,4.681 8.769 C 4.795 8.515,4.817 8.487,4.859 8.549 C 4.885 8.588,5.647 9.855,6.552 11.364 M12.523 10.073 C 13.490 10.326,14.122 11.306,13.966 12.309 C 13.940 12.478,13.896 12.647,13.869 12.684 C 13.842 12.720,13.691 12.928,13.534 13.145 C 13.210 13.594,13.128 13.677,12.891 13.796 C 12.490 13.997,11.944 14.054,11.508 13.940 C 10.823 13.762,10.249 13.194,10.073 12.523 C 9.740 11.246,10.690 10.005,12.000 10.005 C 12.143 10.005,12.378 10.036,12.523 10.073 M19.797 10.205 C 20.332 12.698,19.733 15.212,18.153 17.100 C 17.810 17.510,17.253 18.055,16.900 18.325 C 15.726 19.224,14.297 19.797,12.832 19.958 C 12.409 20.004,11.562 20.014,11.370 19.976 L 11.250 19.952 12.989 17.446 C 13.945 16.068,14.849 14.801,14.998 14.632 C 15.320 14.265,15.521 13.938,15.705 13.484 C 16.093 12.525,16.090 11.472,15.698 10.496 C 15.619 10.300,15.538 10.123,15.517 10.102 C 15.497 10.081,15.480 10.050,15.480 10.032 C 15.480 10.014,16.442 10.000,17.617 10.000 L 19.753 10.000 19.797 10.205 " stroke="none" fill-rule="evenodd" fill="black"></path></svg>