<svg viewBox="0 0 24 24" xmlns="http://www.w3.org/2000/svg" fill="none" stroke="#000000" stroke-width="2" stroke-linecap="round" stroke-linejoin="round"><path d="M11.280 1.023 C 11.203 1.032,10.951 1.059,10.720 1.083 C 8.832 1.283,6.991 2.023,5.360 3.235 C 4.751 3.688,3.684 4.755,3.226 5.367 C 0.728 8.714,0.301 13.032,2.097 16.780 C 2.643 17.918,3.276 18.801,4.238 19.762 C 5.199 20.724,6.082 21.357,7.220 21.903 C 10.967 23.699,15.288 23.270,18.637 20.770 C 19.246 20.316,20.316 19.246,20.770 18.637 C 23.744 14.652,23.744 9.348,20.770 5.363 C 20.316 4.755,19.247 3.686,18.640 3.235 C 17.045 2.049,15.365 1.360,13.423 1.096 C 13.000 1.038,11.574 0.990,11.280 1.023 M13.320 3.101 C 15.883 3.488,18.124 4.931,19.560 7.120 C 19.863 7.583,20.303 8.479,20.492 9.020 C 20.838 10.013,20.977 10.865,20.977 12.000 C 20.977 13.493,20.720 14.621,20.080 15.940 C 19.205 17.746,17.798 19.160,15.980 20.061 C 13.904 21.091,11.561 21.278,9.331 20.593 C 9.105 20.524,8.920 20.452,8.920 20.434 C 8.920 20.384,9.599 18.865,9.640 18.824 C 9.660 18.804,9.764 18.824,9.888 18.875 C 10.487 19.117,11.190 19.247,11.900 19.247 C 12.481 19.247,12.820 19.201,13.320 19.053 C 14.607 18.673,15.681 17.706,16.316 16.355 C 16.657 15.630,16.831 14.988,16.940 14.050 C 17.104 12.649,16.926 11.343,16.412 10.186 C 15.615 8.394,13.949 7.128,11.822 6.700 C 11.080 6.551,10.532 6.508,9.651 6.531 C 8.515 6.561,7.805 6.729,6.910 7.181 C 5.521 7.881,4.458 8.951,3.765 10.345 C 3.443 10.993,3.160 11.870,3.095 12.419 C 3.071 12.623,3.062 12.642,3.029 12.557 C 2.977 12.422,3.024 11.195,3.101 10.680 C 3.487 8.118,4.931 5.876,7.120 4.440 C 7.932 3.908,9.169 3.395,10.100 3.206 C 10.458 3.133,10.869 3.073,11.340 3.024 C 11.662 2.991,12.911 3.039,13.320 3.101 M11.300 8.633 C 12.346 8.835,13.161 9.240,13.802 9.878 C 14.662 10.733,15.058 11.898,14.985 13.360 C 14.926 14.544,14.624 15.492,14.077 16.212 C 13.340 17.183,12.142 17.494,10.785 17.068 C 10.634 17.020,10.503 16.962,10.494 16.938 C 10.462 16.856,11.479 14.635,11.655 14.403 C 11.988 13.965,12.202 13.492,12.281 13.020 C 12.312 12.839,12.426 12.519,12.605 12.112 C 12.758 11.767,12.909 11.409,12.941 11.317 C 13.218 10.532,12.427 9.776,11.643 10.075 L 11.425 10.158 11.203 9.947 C 10.784 9.550,10.283 9.273,9.700 9.115 C 9.284 9.002,8.441 8.991,8.028 9.093 C 7.688 9.177,7.275 9.351,6.973 9.539 C 6.633 9.749,6.890 9.532,7.310 9.254 C 7.828 8.910,8.351 8.697,8.965 8.580 C 9.392 8.498,10.762 8.529,11.300 8.633 M9.427 11.138 C 9.842 11.328,10.141 11.666,10.266 12.086 L 10.327 12.293 9.575 13.986 C 9.162 14.918,8.811 15.680,8.797 15.680 C 8.782 15.680,8.663 15.540,8.531 15.370 C 7.737 14.339,7.251 13.053,7.361 12.276 C 7.443 11.690,7.882 11.200,8.455 11.054 C 8.740 10.982,9.166 11.019,9.427 11.138 M5.430 11.680 C 5.323 12.076,5.316 12.831,5.416 13.340 C 5.683 14.705,6.467 16.156,7.542 17.276 L 7.932 17.682 7.521 18.611 C 7.294 19.122,7.106 19.545,7.101 19.550 C 7.084 19.571,6.289 18.964,6.020 18.724 C 4.866 17.695,3.951 16.304,3.462 14.832 C 3.362 14.530,3.280 14.261,3.280 14.235 C 3.280 14.207,3.319 14.223,3.371 14.271 C 3.595 14.482,4.069 14.553,4.382 14.422 C 4.729 14.277,4.999 13.875,5.000 13.500 C 5.001 12.874,5.186 12.029,5.442 11.470 C 5.522 11.297,5.518 11.356,5.430 11.680 " stroke="none" fill-rule="evenodd" fill="black"></path></svg>