<svg viewBox="0 0 24 24" xmlns="http://www.w3.org/2000/svg" fill="none" stroke="#000000" stroke-width="2" stroke-linecap="round" stroke-linejoin="round"><path d="M3.062 0.270 C 3.078 0.419,3.132 0.744,3.182 0.993 L 3.274 1.446 2.904 1.993 C 2.484 2.614,2.226 3.072,1.968 3.656 C 1.462 4.801,1.163 5.955,1.037 7.249 C 0.979 7.851,1.011 9.089,1.101 9.680 C 1.602 12.982,3.432 15.794,6.194 17.507 C 6.674 17.805,6.865 17.880,7.131 17.879 C 7.785 17.876,8.264 17.215,8.060 16.599 C 7.964 16.311,7.819 16.163,7.327 15.855 C 5.631 14.793,4.380 13.315,3.662 11.526 C 2.815 9.414,2.791 7.052,3.598 4.960 C 3.711 4.667,4.169 3.720,4.198 3.721 C 4.210 3.721,4.286 3.834,4.366 3.971 C 4.890 4.866,5.892 5.926,6.820 6.568 C 7.205 6.834,7.381 6.897,7.661 6.868 C 8.184 6.814,8.558 6.402,8.558 5.880 C 8.558 5.551,8.447 5.351,8.030 4.931 C 7.829 4.728,7.672 4.557,7.682 4.550 C 7.692 4.543,7.763 4.491,7.840 4.436 C 8.399 4.034,9.441 3.561,10.300 3.320 C 11.229 3.060,11.834 2.987,12.430 3.061 C 13.619 3.210,14.732 3.591,15.780 4.209 C 16.417 4.584,16.395 4.503,15.970 4.931 C 15.553 5.351,15.442 5.551,15.442 5.880 C 15.442 6.402,15.816 6.814,16.339 6.868 C 16.619 6.897,16.795 6.834,17.180 6.568 C 18.108 5.926,19.110 4.866,19.634 3.971 C 19.714 3.834,19.790 3.721,19.802 3.721 C 19.831 3.720,20.288 4.665,20.403 4.960 C 20.993 6.485,21.141 8.265,20.816 9.940 C 20.352 12.328,18.823 14.525,16.722 15.822 C 16.208 16.139,16.061 16.279,15.958 16.553 C 15.719 17.189,16.192 17.876,16.869 17.879 C 17.135 17.880,17.326 17.805,17.806 17.507 C 19.445 16.491,20.830 15.007,21.714 13.320 C 23.071 10.731,23.360 7.818,22.537 5.026 C 22.204 3.898,21.754 2.958,21.056 1.935 L 20.725 1.450 20.817 0.995 C 20.868 0.745,20.922 0.418,20.938 0.270 L 20.966 -0.000 18.373 0.001 L 15.780 0.001 16.132 0.179 C 16.828 0.529,17.783 1.222,18.276 1.733 L 18.452 1.916 18.344 2.168 C 18.254 2.376,18.003 2.832,17.845 3.074 C 17.818 3.117,17.700 3.056,17.315 2.801 C 16.156 2.032,14.722 1.445,13.372 1.185 C 12.524 1.022,12.064 0.985,11.570 1.040 C 9.790 1.236,8.152 1.831,6.647 2.828 C 6.398 2.993,6.188 3.121,6.180 3.114 C 6.121 3.055,5.711 2.314,5.639 2.137 L 5.549 1.915 5.724 1.733 C 6.213 1.225,7.159 0.539,7.863 0.180 L 8.215 -0.000 5.624 -0.000 L 3.034 0.000 3.062 0.270 M11.358 8.061 C 10.230 8.237,9.143 8.974,8.569 9.953 C 7.320 12.083,8.233 14.785,10.512 15.704 C 12.558 16.528,14.877 15.538,15.704 13.488 C 16.090 12.530,16.090 11.469,15.705 10.516 C 15.172 9.197,14.001 8.269,12.605 8.058 C 12.144 7.989,11.816 7.990,11.358 8.061 M12.523 10.073 C 13.262 10.266,13.850 10.924,13.967 11.690 C 14.067 12.343,13.873 12.933,13.403 13.404 C 13.002 13.807,12.547 14.000,12.000 14.000 C 11.485 14.000,11.038 13.822,10.653 13.465 C 9.323 12.229,10.189 10.005,12.000 10.005 C 12.143 10.005,12.378 10.036,12.523 10.073 " stroke="none" fill-rule="evenodd" fill="black"></path></svg>