<svg viewBox="0 0 24 24" xmlns="http://www.w3.org/2000/svg" fill="none" stroke="#000000" stroke-width="2" stroke-linecap="round" stroke-linejoin="round"><path d="M15.643 1.067 C 15.236 1.215,15.290 1.109,13.584 5.096 C 12.488 7.656,12.022 8.788,12.009 8.922 C 11.956 9.477,12.437 10.000,13.000 10.000 C 13.241 10.000,13.521 9.881,13.697 9.704 C 13.843 9.557,14.021 9.163,15.416 5.904 C 16.512 3.344,16.978 2.212,16.991 2.078 C 17.014 1.844,16.920 1.547,16.765 1.358 C 16.519 1.061,16.017 0.930,15.643 1.067 M7.664 9.061 C 7.454 9.140,7.266 9.289,7.163 9.455 C 7.117 9.530,6.881 10.280,6.640 11.122 C 6.399 11.963,6.192 12.661,6.181 12.673 C 6.169 12.684,5.284 12.318,4.213 11.860 C 2.890 11.294,2.205 11.021,2.077 11.009 C 1.523 10.956,1.000 11.437,1.000 12.000 C 1.000 12.241,1.119 12.521,1.296 12.697 C 1.440 12.840,1.716 12.970,3.546 13.753 L 5.632 14.645 5.556 14.913 C 5.515 15.060,5.422 15.385,5.350 15.634 L 5.220 16.089 4.980 16.176 C 4.112 16.490,3.396 17.246,3.123 18.137 C 2.998 18.546,2.971 19.052,3.060 19.320 C 3.208 19.765,2.976 19.645,7.986 21.870 C 10.475 22.976,12.590 23.909,12.686 23.944 C 12.914 24.027,13.476 23.996,13.860 23.878 C 14.812 23.586,15.586 22.813,15.877 21.863 C 15.987 21.502,16.028 20.948,15.960 20.737 C 15.932 20.651,15.036 18.618,13.969 16.220 C 12.379 12.649,12.018 11.806,11.974 11.560 C 11.866 10.964,11.657 10.501,11.321 10.108 C 10.898 9.615,10.426 9.297,9.861 9.125 C 9.572 9.038,9.453 9.027,8.680 9.015 C 7.990 9.004,7.789 9.013,7.664 9.061 M9.308 11.060 C 9.541 11.129,9.815 11.370,9.905 11.585 C 9.936 11.661,9.979 11.853,9.999 12.012 C 10.032 12.269,10.248 12.778,12.001 16.720 C 14.165 21.588,14.040 21.252,13.806 21.578 C 13.675 21.761,13.390 21.956,13.240 21.966 C 13.152 21.972,5.317 18.523,5.224 18.437 C 5.177 18.393,5.421 18.164,5.592 18.093 C 5.664 18.063,5.862 18.020,6.031 17.999 C 6.395 17.952,6.641 17.820,6.808 17.579 C 6.885 17.469,7.005 17.118,7.199 16.444 C 7.353 15.907,7.484 15.463,7.490 15.457 C 7.495 15.452,7.779 15.566,8.120 15.710 C 8.470 15.859,8.821 15.981,8.926 15.991 C 9.617 16.058,10.173 15.341,9.941 14.682 C 9.802 14.288,9.689 14.206,8.738 13.800 C 8.365 13.641,8.056 13.507,8.051 13.503 C 8.043 13.496,8.688 11.200,8.740 11.050 C 8.764 10.981,9.060 10.986,9.308 11.060 " stroke="none" fill-rule="evenodd" fill="black"></path></svg>