<svg viewBox="0 0 24 24" xmlns="http://www.w3.org/2000/svg" fill="none" stroke="#000000" stroke-width="2" stroke-linecap="round" stroke-linejoin="round"><path d="M11.160 1.045 C 8.327 1.274,6.278 2.910,5.683 5.419 C 5.514 6.128,5.459 7.145,5.557 7.731 C 5.779 9.068,6.576 10.166,8.127 11.273 L 8.474 11.521 8.487 12.871 C 8.502 14.363,8.507 14.396,8.772 14.675 C 8.912 14.822,9.248 14.999,9.389 15.000 L 9.478 15.000 9.489 18.610 C 9.499 21.987,9.505 22.230,9.572 22.380 C 9.672 22.602,9.864 22.793,10.100 22.905 L 10.300 22.999 12.000 22.999 L 13.700 22.999 13.900 22.905 C 14.136 22.793,14.328 22.602,14.428 22.380 C 14.495 22.231,14.501 21.973,14.520 18.534 L 14.540 14.847 14.650 14.761 C 14.711 14.713,14.810 14.590,14.870 14.487 L 14.980 14.300 15.000 12.914 L 15.020 11.527 15.460 11.209 C 17.502 9.730,18.213 8.270,17.942 6.118 C 17.684 4.072,16.589 2.481,14.860 1.642 C 14.310 1.375,14.017 1.273,13.477 1.161 C 12.762 1.013,12.022 0.975,11.160 1.045 M13.087 3.117 C 14.341 3.399,15.247 4.155,15.700 5.299 C 15.947 5.925,16.060 6.932,15.945 7.480 C 15.764 8.337,15.255 8.923,13.852 9.895 C 12.986 10.494,13.000 10.460,13.000 11.925 L 13.000 13.000 11.763 13.000 L 10.527 13.000 10.513 11.890 C 10.494 10.416,10.538 10.505,9.480 9.774 C 8.523 9.112,8.074 8.675,7.786 8.125 C 7.553 7.681,7.507 7.431,7.533 6.740 C 7.573 5.675,7.850 4.937,8.450 4.295 C 9.144 3.553,10.052 3.160,11.380 3.024 C 11.749 2.986,12.747 3.041,13.087 3.117 M12.480 18.000 L 12.480 21.000 12.000 21.000 L 11.520 21.000 11.520 18.000 L 11.520 15.000 12.000 15.000 L 12.480 15.000 12.480 18.000 " stroke="none" fill-rule="evenodd" fill="black"></path></svg>