<svg viewBox="0 0 24 24" xmlns="http://www.w3.org/2000/svg" fill="none" stroke="#000000" stroke-width="2" stroke-linecap="round" stroke-linejoin="round"><path d="M1.670 1.061 C 1.448 1.142,1.250 1.309,1.128 1.516 C 1.037 1.672,1.020 1.746,1.020 2.000 C 1.020 2.254,1.036 2.327,1.127 2.480 C 1.264 2.709,21.367 22.805,21.560 22.905 C 21.659 22.957,21.788 22.979,22.000 22.979 C 22.258 22.980,22.327 22.964,22.492 22.867 C 22.968 22.587,23.139 21.967,22.865 21.508 C 22.810 21.416,19.768 18.344,16.106 14.683 L 9.447 8.027 9.601 7.915 C 9.685 7.854,9.805 7.717,9.867 7.612 C 9.964 7.447,9.980 7.377,9.980 7.120 C 9.980 6.866,9.963 6.792,9.873 6.640 C 9.814 6.541,9.391 6.088,8.933 5.632 C 8.011 4.717,7.904 4.642,7.498 4.641 C 7.119 4.640,6.882 4.778,6.611 5.158 C 6.604 5.167,5.685 4.265,4.569 3.153 C 2.742 1.332,2.520 1.124,2.343 1.065 C 2.107 0.987,1.874 0.986,1.670 1.061 M16.080 4.723 C 15.866 4.820,14.293 6.360,14.134 6.628 C 13.862 7.088,14.032 7.707,14.508 7.987 C 14.673 8.084,14.742 8.100,15.000 8.099 C 15.213 8.099,15.340 8.077,15.440 8.025 C 15.604 7.938,17.155 6.415,17.320 6.177 C 17.547 5.853,17.536 5.366,17.295 5.028 C 17.041 4.671,16.497 4.534,16.080 4.723 M4.664 9.063 C 4.436 9.146,4.257 9.297,4.131 9.511 C 4.038 9.669,4.020 9.746,4.020 9.981 C 4.020 10.420,4.162 10.646,4.641 10.966 L 4.740 11.032 4.627 11.076 C 4.438 11.150,4.242 11.323,4.128 11.516 C 4.037 11.672,4.020 11.746,4.020 12.000 C 4.020 12.256,4.036 12.328,4.131 12.489 C 4.192 12.592,4.304 12.725,4.381 12.783 C 4.656 12.993,4.691 12.996,6.520 12.998 L 8.220 12.999 8.420 12.905 C 8.785 12.732,8.998 12.399,8.999 12.000 C 8.999 11.752,8.872 11.436,8.715 11.294 C 8.526 11.123,5.461 9.110,5.307 9.055 C 5.110 8.986,4.866 8.989,4.664 9.063 M18.679 9.058 C 18.534 9.111,15.456 11.139,15.285 11.294 C 15.232 11.341,15.147 11.470,15.095 11.580 C 14.856 12.087,15.080 12.682,15.600 12.917 C 15.772 12.995,15.854 12.998,17.480 12.997 C 19.310 12.996,19.344 12.993,19.619 12.783 C 19.696 12.725,19.808 12.592,19.869 12.489 C 19.964 12.328,19.980 12.256,19.980 12.000 C 19.980 11.746,19.963 11.672,19.872 11.516 C 19.758 11.323,19.562 11.150,19.373 11.076 L 19.260 11.032 19.359 10.966 C 19.785 10.681,19.956 10.442,19.991 10.083 C 20.058 9.385,19.331 8.817,18.679 9.058 M7.640 15.069 C 7.495 15.120,7.296 15.295,6.626 15.956 C 6.167 16.409,5.742 16.852,5.681 16.940 C 5.373 17.386,5.498 18.030,5.952 18.330 C 6.268 18.539,6.749 18.535,7.055 18.322 C 7.294 18.155,8.817 16.605,8.905 16.440 C 8.957 16.340,8.979 16.213,8.979 16.000 C 8.980 15.745,8.964 15.672,8.872 15.516 C 8.617 15.082,8.118 14.902,7.640 15.069 M11.695 15.057 C 11.466 15.129,11.256 15.299,11.128 15.516 L 11.020 15.700 11.020 17.503 L 11.020 19.306 11.141 19.503 C 11.543 20.156,12.457 20.156,12.859 19.503 L 12.980 19.306 12.980 17.503 L 12.980 15.700 12.872 15.516 C 12.628 15.101,12.150 14.915,11.695 15.057 " stroke="none" fill-rule="evenodd" fill="black"></path></svg>