<svg viewBox="0 0 24 24" xmlns="http://www.w3.org/2000/svg" fill="none" stroke="#000000" stroke-width="2" stroke-linecap="round" stroke-linejoin="round"><path d="M11.695 1.057 C 11.466 1.129,11.256 1.299,11.128 1.516 L 11.020 1.700 11.008 3.406 L 10.997 5.112 10.848 5.139 C 10.596 5.185,10.116 5.363,9.760 5.541 C 8.163 6.343,7.133 7.909,7.007 9.730 L 6.980 10.121 6.225 9.617 C 5.810 9.340,5.399 9.088,5.310 9.057 C 4.723 8.849,4.077 9.265,4.012 9.892 C 3.972 10.280,4.143 10.625,4.489 10.859 L 4.699 11.000 4.296 11.000 C 3.661 11.000,3.351 11.137,3.128 11.516 C 3.037 11.672,3.020 11.746,3.020 12.000 C 3.020 12.256,3.036 12.328,3.131 12.489 C 3.192 12.592,3.304 12.725,3.381 12.783 C 3.654 12.991,3.700 12.996,5.410 12.998 L 7.000 13.000 7.000 14.233 L 7.000 15.466 5.640 16.374 C 4.220 17.322,4.151 17.381,4.039 17.736 C 3.931 18.080,4.084 18.557,4.374 18.778 C 4.644 18.984,5.026 19.052,5.320 18.946 C 5.397 18.918,5.869 18.622,6.369 18.288 C 6.869 17.953,7.286 17.680,7.295 17.680 C 7.304 17.680,7.323 17.727,7.337 17.784 C 7.352 17.841,7.435 18.033,7.522 18.209 C 8.206 19.595,9.483 20.574,11.040 20.907 C 11.286 20.960,11.552 20.980,12.000 20.980 C 12.448 20.980,12.714 20.960,12.960 20.907 C 14.210 20.640,15.295 19.947,16.039 18.940 C 16.245 18.662,16.680 17.845,16.680 17.737 C 16.680 17.706,16.689 17.680,16.701 17.680 C 16.712 17.680,17.131 17.953,17.631 18.288 C 18.131 18.622,18.603 18.918,18.680 18.946 C 19.017 19.067,19.435 18.967,19.701 18.701 C 20.052 18.350,20.092 17.809,19.797 17.396 C 19.750 17.330,19.108 16.874,18.356 16.372 L 17.000 15.466 17.000 14.233 L 17.000 13.000 18.590 12.998 C 20.300 12.996,20.346 12.991,20.619 12.783 C 20.696 12.725,20.808 12.592,20.869 12.489 C 20.964 12.328,20.980 12.256,20.980 12.000 C 20.980 11.746,20.963 11.672,20.872 11.516 C 20.649 11.137,20.339 11.000,19.704 11.000 L 19.301 11.000 19.507 10.861 C 19.740 10.704,19.855 10.560,19.941 10.318 C 20.210 9.556,19.448 8.789,18.690 9.057 C 18.601 9.088,18.190 9.340,17.775 9.617 L 17.020 10.121 16.993 9.730 C 16.865 7.889,15.823 6.326,14.180 5.510 C 13.875 5.358,13.386 5.182,13.152 5.139 L 13.003 5.112 12.992 3.406 L 12.980 1.700 12.872 1.516 C 12.628 1.101,12.150 0.915,11.695 1.057 M12.861 7.129 C 13.815 7.408,14.611 8.213,14.888 9.178 L 14.980 9.500 14.980 13.000 L 14.980 16.500 14.888 16.822 C 14.566 17.947,13.563 18.817,12.402 18.979 L 12.224 19.003 12.441 18.890 C 12.687 18.762,12.897 18.516,12.960 18.281 C 12.988 18.176,12.998 17.065,12.991 14.912 L 12.980 11.700 12.871 11.514 C 12.479 10.848,11.521 10.848,11.129 11.514 L 11.020 11.700 11.009 14.912 C 11.002 17.065,11.012 18.176,11.040 18.281 C 11.103 18.516,11.313 18.762,11.559 18.890 L 11.776 19.003 11.598 18.979 C 10.437 18.817,9.434 17.947,9.112 16.822 L 9.020 16.500 9.020 13.000 L 9.020 9.500 9.112 9.178 C 9.426 8.083,10.359 7.247,11.499 7.040 C 11.832 6.980,12.500 7.023,12.861 7.129 " stroke="none" fill-rule="evenodd" fill="black"></path></svg>