<svg viewBox="0 0 24 24" xmlns="http://www.w3.org/2000/svg" fill="none" stroke="#000000" stroke-width="2" stroke-linecap="round" stroke-linejoin="round"><path d="M4.499 5.043 C 3.380 5.232,2.461 6.048,2.114 7.160 L 2.020 7.460 2.020 13.000 L 2.020 18.540 2.114 18.840 C 2.364 19.641,2.929 20.314,3.660 20.684 L 3.980 20.845 4.000 22.076 L 4.020 23.307 4.141 23.503 C 4.543 24.156,5.457 24.156,5.859 23.503 L 5.980 23.307 5.992 22.153 L 6.005 21.000 12.000 21.000 L 17.995 21.000 18.008 22.153 L 18.020 23.307 18.141 23.503 C 18.543 24.156,19.457 24.156,19.859 23.503 L 19.980 23.307 20.000 22.076 L 20.020 20.845 20.340 20.684 C 21.071 20.314,21.636 19.641,21.886 18.840 L 21.980 18.540 21.980 13.000 L 21.980 7.460 21.886 7.160 C 21.581 6.182,20.832 5.428,19.861 5.121 L 19.540 5.020 12.120 5.014 C 8.039 5.011,4.609 5.024,4.499 5.043 M19.310 7.061 C 19.452 7.103,19.571 7.178,19.697 7.303 C 19.978 7.584,20.000 7.703,20.000 8.947 L 20.000 10.000 12.000 10.000 L 4.000 10.000 4.000 8.947 C 4.000 7.702,4.022 7.585,4.304 7.303 C 4.421 7.185,4.552 7.100,4.673 7.063 C 4.964 6.974,19.009 6.971,19.310 7.061 M20.000 14.000 L 20.000 16.000 12.000 16.000 L 4.000 16.000 4.000 14.000 L 4.000 12.000 12.000 12.000 L 20.000 12.000 20.000 14.000 M20.000 18.054 C 20.000 18.181,19.882 18.483,19.779 18.618 C 19.718 18.698,19.585 18.813,19.484 18.872 L 19.300 18.980 12.000 18.980 L 4.700 18.980 4.516 18.872 C 4.240 18.709,4.000 18.339,4.000 18.075 C 4.000 18.002,4.206 18.000,12.000 18.000 C 18.663 18.000,20.000 18.009,20.000 18.054 " stroke="none" fill-rule="evenodd" fill="black"></path></svg>