<svg viewBox="0 0 24 24" xmlns="http://www.w3.org/2000/svg" fill="none" stroke="#000000" stroke-width="2" stroke-linecap="round" stroke-linejoin="round"><path d="M11.499 2.040 C 10.374 2.244,9.486 3.026,9.114 4.140 L 9.021 4.420 8.999 7.620 C 8.988 9.380,8.974 10.783,8.969 10.738 C 8.954 10.599,8.743 10.306,8.577 10.193 C 8.491 10.134,8.339 10.065,8.240 10.038 C 8.031 9.983,7.570 10.011,7.240 10.100 C 7.119 10.133,7.017 10.159,7.013 10.160 C 7.009 10.160,7.000 9.832,6.993 9.430 C 6.980 8.718,6.977 8.695,6.871 8.514 C 6.479 7.848,5.521 7.848,5.129 8.514 L 5.020 8.700 5.020 13.120 L 5.020 17.540 5.114 17.840 C 5.419 18.818,6.166 19.570,7.140 19.882 C 7.379 19.958,7.536 19.974,8.207 19.990 L 8.993 20.009 9.007 20.658 C 9.020 21.300,9.021 21.309,9.141 21.503 C 9.543 22.156,10.457 22.156,10.859 21.503 C 10.979 21.308,10.980 21.300,10.993 20.653 L 11.007 20.000 12.000 20.000 L 12.993 20.000 13.007 20.653 C 13.020 21.300,13.021 21.308,13.141 21.503 C 13.209 21.613,13.346 21.756,13.452 21.828 C 13.923 22.144,14.554 21.999,14.859 21.503 C 14.979 21.309,14.980 21.300,14.993 20.658 L 15.007 20.009 15.793 19.990 C 16.464 19.974,16.621 19.958,16.860 19.882 C 17.834 19.570,18.581 18.818,18.886 17.840 L 18.980 17.540 18.980 14.500 L 18.980 11.460 18.886 11.160 C 18.581 10.181,17.807 9.404,16.869 9.132 C 16.236 8.949,15.752 8.969,15.423 9.193 C 15.257 9.306,15.046 9.600,15.031 9.738 C 15.026 9.783,15.012 8.605,15.000 7.120 C 14.978 4.429,14.978 4.419,14.885 4.140 C 14.558 3.157,13.800 2.403,12.861 2.129 C 12.500 2.023,11.832 1.980,11.499 2.040 M12.310 4.061 C 12.589 4.144,12.856 4.411,12.939 4.690 C 12.993 4.869,13.000 5.697,13.000 11.447 L 13.000 18.000 12.000 18.000 L 11.000 18.000 11.000 11.447 C 11.000 4.073,10.976 4.630,11.304 4.303 C 11.583 4.024,11.916 3.944,12.310 4.061 M15.217 10.619 C 15.379 10.832,15.623 10.955,15.972 10.999 C 16.364 11.049,16.516 11.114,16.717 11.321 C 17.005 11.618,17.000 11.562,17.000 14.501 C 17.000 17.329,17.000 17.328,16.779 17.618 C 16.718 17.698,16.585 17.813,16.484 17.872 C 16.308 17.975,16.272 17.981,15.650 17.993 L 15.000 18.007 15.002 14.093 C 15.003 10.774,15.012 10.203,15.057 10.330 C 15.087 10.413,15.158 10.543,15.217 10.619 M9.000 14.603 L 9.000 18.007 8.350 17.993 C 7.728 17.981,7.692 17.975,7.516 17.872 C 7.415 17.813,7.284 17.700,7.225 17.623 C 6.999 17.327,7.000 17.334,7.000 15.002 C 7.000 12.589,6.997 12.616,7.287 12.318 C 7.484 12.114,7.637 12.049,8.028 11.999 C 8.228 11.974,8.392 11.925,8.508 11.858 C 8.702 11.744,8.914 11.480,8.948 11.310 C 8.960 11.250,8.977 11.200,8.985 11.200 C 8.993 11.200,9.000 12.732,9.000 14.603 " stroke="none" fill-rule="evenodd" fill="black"></path></svg>