<svg viewBox="0 0 24 24" xmlns="http://www.w3.org/2000/svg" fill="none" stroke="#000000" stroke-width="2" stroke-linecap="round" stroke-linejoin="round"><path d="M11.695 1.057 C 11.466 1.129,11.256 1.299,11.128 1.516 L 11.020 1.700 11.009 6.432 C 10.999 10.901,10.995 11.164,10.929 11.145 C 10.891 11.134,10.779 11.102,10.680 11.074 C 10.574 11.044,10.287 11.024,9.980 11.025 C 9.548 11.027,9.406 11.044,9.139 11.125 C 8.189 11.414,7.414 12.186,7.124 13.134 C 7.078 13.285,7.036 13.465,7.031 13.534 C 7.026 13.603,7.012 12.319,7.001 10.680 L 6.980 7.700 6.871 7.514 C 6.479 6.848,5.521 6.848,5.129 7.514 L 5.020 7.700 5.020 11.120 L 5.020 14.540 5.114 14.840 C 5.364 15.641,5.929 16.314,6.660 16.684 L 6.980 16.845 7.000 18.576 L 7.020 20.306 7.141 20.503 C 7.543 21.156,8.457 21.156,8.859 20.503 L 8.980 20.306 8.992 18.592 L 9.003 16.877 9.168 16.728 C 9.601 16.339,9.600 15.661,9.166 15.270 L 9.000 15.120 9.000 14.507 C 9.000 13.745,9.047 13.560,9.303 13.303 C 9.486 13.120,9.763 13.000,10.000 13.000 C 10.223 13.000,10.510 13.120,10.679 13.283 C 11.003 13.598,10.978 13.224,11.000 18.023 L 11.020 22.306 11.141 22.503 C 11.543 23.156,12.457 23.156,12.859 22.503 L 12.980 22.306 12.980 12.003 L 12.980 1.700 12.872 1.516 C 12.628 1.101,12.150 0.915,11.695 1.057 M17.695 11.057 C 17.466 11.129,17.256 11.299,17.128 11.516 L 17.020 11.700 16.999 12.980 C 16.984 13.854,16.962 14.296,16.929 14.373 C 16.844 14.569,16.674 14.760,16.487 14.870 C 16.323 14.966,16.253 14.978,15.763 15.001 C 15.323 15.021,15.190 15.042,15.060 15.109 C 14.709 15.293,14.512 15.614,14.512 16.003 C 14.512 16.422,14.768 16.785,15.174 16.940 C 15.445 17.043,16.457 17.008,16.860 16.880 C 17.830 16.574,18.581 15.818,18.886 14.840 C 18.977 14.549,18.980 14.497,18.980 13.120 L 18.980 11.700 18.872 11.516 C 18.628 11.101,18.150 10.915,17.695 11.057 " stroke="none" fill-rule="evenodd" fill="black"></path></svg>