<svg viewBox="0 0 24 24" xmlns="http://www.w3.org/2000/svg" fill="none" stroke="#000000" stroke-width="2" stroke-linecap="round" stroke-linejoin="round"><path d="M6.499 1.043 C 5.379 1.233,4.461 2.048,4.114 3.160 L 4.020 3.460 4.020 12.000 L 4.020 20.540 4.114 20.840 C 4.422 21.827,5.173 22.578,6.160 22.886 L 6.460 22.980 12.000 22.980 L 17.540 22.980 17.840 22.886 C 18.827 22.578,19.578 21.827,19.886 20.840 L 19.980 20.540 19.980 12.000 L 19.980 3.460 19.886 3.160 C 19.581 2.182,18.832 1.428,17.861 1.121 L 17.540 1.020 12.120 1.014 C 9.139 1.011,6.609 1.024,6.499 1.043 M17.310 3.061 C 17.589 3.144,17.856 3.411,17.939 3.690 C 17.993 3.870,18.000 4.860,18.000 12.001 C 18.000 18.754,17.991 20.138,17.945 20.290 C 17.872 20.533,17.707 20.740,17.484 20.872 L 17.300 20.980 12.000 20.980 L 6.700 20.980 6.516 20.872 C 6.415 20.813,6.284 20.700,6.225 20.623 C 5.985 20.308,6.000 20.888,6.000 12.022 C 6.000 2.888,5.974 3.632,6.304 3.303 C 6.621 2.985,6.234 3.006,11.983 3.003 C 16.458 3.000,17.131 3.008,17.310 3.061 M7.695 5.057 C 7.466 5.129,7.256 5.299,7.128 5.516 C 7.037 5.672,7.020 5.746,7.020 6.000 C 7.020 6.256,7.036 6.328,7.131 6.489 C 7.256 6.702,7.449 6.864,7.670 6.943 C 7.892 7.022,16.108 7.022,16.330 6.943 C 16.551 6.864,16.744 6.702,16.869 6.489 C 16.964 6.328,16.980 6.256,16.980 6.000 C 16.980 5.746,16.963 5.672,16.872 5.516 C 16.740 5.293,16.533 5.128,16.290 5.055 C 16.029 4.976,7.946 4.979,7.695 5.057 M7.695 9.057 C 7.466 9.129,7.256 9.299,7.128 9.516 C 7.036 9.672,7.020 9.746,7.020 10.003 C 7.020 10.271,7.034 10.329,7.141 10.503 C 7.543 11.156,8.457 11.156,8.859 10.503 C 8.966 10.329,8.980 10.271,8.980 10.003 C 8.980 9.746,8.964 9.672,8.872 9.516 C 8.628 9.101,8.150 8.915,7.695 9.057 M11.695 9.057 C 11.466 9.129,11.256 9.299,11.128 9.516 C 11.036 9.672,11.020 9.746,11.020 10.003 C 11.020 10.271,11.034 10.329,11.141 10.503 C 11.543 11.156,12.457 11.156,12.859 10.503 C 12.966 10.329,12.980 10.271,12.980 10.003 C 12.980 9.746,12.964 9.672,12.872 9.516 C 12.628 9.101,12.150 8.915,11.695 9.057 M15.695 9.057 C 15.466 9.129,15.256 9.299,15.128 9.516 C 15.036 9.672,15.020 9.746,15.020 10.003 C 15.020 10.271,15.034 10.329,15.141 10.503 C 15.543 11.156,16.457 11.156,16.859 10.503 C 16.966 10.329,16.980 10.271,16.980 10.003 C 16.980 9.746,16.964 9.672,16.872 9.516 C 16.628 9.101,16.150 8.915,15.695 9.057 M7.695 13.057 C 7.466 13.129,7.256 13.299,7.128 13.516 C 7.036 13.672,7.020 13.746,7.020 14.003 C 7.020 14.271,7.034 14.329,7.141 14.503 C 7.543 15.156,8.457 15.156,8.859 14.503 C 8.966 14.329,8.980 14.271,8.980 14.003 C 8.980 13.746,8.964 13.672,8.872 13.516 C 8.628 13.101,8.150 12.915,7.695 13.057 M11.695 13.057 C 11.466 13.129,11.256 13.299,11.128 13.516 C 11.036 13.672,11.020 13.746,11.020 14.003 C 11.020 14.271,11.034 14.329,11.141 14.503 C 11.543 15.156,12.457 15.156,12.859 14.503 C 12.966 14.329,12.980 14.271,12.980 14.003 C 12.980 13.746,12.964 13.672,12.872 13.516 C 12.628 13.101,12.150 12.915,11.695 13.057 M15.695 13.057 C 15.466 13.129,15.256 13.299,15.128 13.516 C 15.036 13.672,15.020 13.746,15.020 14.003 C 15.020 14.271,15.034 14.329,15.141 14.503 C 15.543 15.156,16.457 15.156,16.859 14.503 C 16.966 14.329,16.980 14.271,16.980 14.003 C 16.980 13.746,16.964 13.672,16.872 13.516 C 16.628 13.101,16.150 12.915,15.695 13.057 M7.695 17.057 C 7.466 17.129,7.256 17.299,7.128 17.516 C 7.036 17.672,7.020 17.746,7.020 18.003 C 7.020 18.271,7.034 18.329,7.141 18.503 C 7.543 19.156,8.457 19.156,8.859 18.503 C 8.966 18.329,8.980 18.271,8.980 18.003 C 8.980 17.746,8.964 17.672,8.872 17.516 C 8.628 17.101,8.150 16.915,7.695 17.057 M11.695 17.057 C 11.466 17.129,11.256 17.299,11.128 17.516 C 11.036 17.672,11.020 17.746,11.020 18.003 C 11.020 18.271,11.034 18.329,11.141 18.503 C 11.543 19.156,12.457 19.156,12.859 18.503 C 12.966 18.329,12.980 18.271,12.980 18.003 C 12.980 17.746,12.964 17.672,12.872 17.516 C 12.628 17.101,12.150 16.915,11.695 17.057 M15.695 17.057 C 15.466 17.129,15.256 17.299,15.128 17.516 C 15.036 17.672,15.020 17.746,15.020 18.003 C 15.020 18.271,15.034 18.329,15.141 18.503 C 15.543 19.156,16.457 19.156,16.859 18.503 C 16.966 18.329,16.980 18.271,16.980 18.003 C 16.980 17.746,16.964 17.672,16.872 17.516 C 16.628 17.101,16.150 16.915,15.695 17.057 " stroke="none" fill="black" fill-rule="evenodd"></path></svg>