<svg viewBox="0 0 24 24" xmlns="http://www.w3.org/2000/svg" fill="none" stroke="#000000" stroke-width="2" stroke-linecap="round" stroke-linejoin="round"><path d="M0.695 0.057 C 0.466 0.129,0.256 0.299,0.128 0.516 C 0.036 0.672,0.020 0.745,0.021 1.000 C 0.021 1.212,0.043 1.341,0.095 1.440 C 0.135 1.517,3.861 5.275,8.374 9.790 L 16.580 18.001 10.140 17.990 L 3.700 17.980 3.516 17.872 C 3.328 17.761,3.158 17.572,3.070 17.373 C 3.031 17.285,3.016 16.084,3.000 11.980 L 2.980 6.700 2.871 6.514 C 2.479 5.848,1.521 5.848,1.129 6.514 L 1.020 6.700 1.020 12.120 L 1.020 17.540 1.114 17.840 C 1.418 18.816,2.149 19.554,3.140 19.886 L 3.420 19.980 11.000 19.991 L 18.580 20.001 20.500 21.916 C 21.556 22.970,22.483 23.865,22.560 23.905 C 22.659 23.957,22.788 23.979,23.000 23.979 C 23.258 23.980,23.327 23.964,23.492 23.867 C 23.968 23.587,24.139 22.967,23.865 22.508 C 23.810 22.416,23.119 21.695,22.329 20.906 L 20.892 19.472 20.950 19.306 C 21.031 19.074,20.994 18.726,20.866 18.506 C 20.657 18.150,20.331 18.000,19.764 18.000 L 19.420 18.000 16.310 14.890 C 14.599 13.179,13.200 11.768,13.200 11.752 C 13.200 11.737,13.301 11.575,13.423 11.393 C 14.143 10.321,14.560 8.916,14.560 7.560 L 14.560 7.000 15.513 7.000 L 16.466 7.000 17.368 8.350 C 17.889 9.130,18.324 9.739,18.397 9.792 C 18.661 9.985,18.774 10.000,19.978 10.000 C 21.282 10.000,21.408 10.021,21.679 10.283 C 22.003 10.598,21.978 10.224,22.000 15.023 L 22.020 19.306 22.141 19.503 C 22.543 20.156,23.457 20.156,23.859 19.503 L 23.980 19.306 23.980 14.883 L 23.980 10.460 23.886 10.160 C 23.580 9.180,22.822 8.418,21.861 8.125 C 21.566 8.035,21.458 8.026,20.534 8.010 L 19.529 7.992 18.629 6.646 C 18.120 5.884,17.676 5.261,17.605 5.209 C 17.353 5.024,17.331 5.022,15.668 5.001 L 14.076 4.980 13.916 4.627 C 13.376 3.430,12.378 2.312,11.209 1.592 C 9.491 0.535,7.301 0.285,5.360 0.926 C 4.851 1.094,4.180 1.420,3.740 1.713 L 3.380 1.953 2.459 1.041 C 1.607 0.196,1.522 0.124,1.322 0.064 C 1.067 -0.012,0.920 -0.013,0.695 0.057 M8.112 2.603 C 9.296 2.732,10.353 3.256,11.181 4.124 C 11.357 4.309,11.579 4.577,11.674 4.720 L 11.848 4.980 11.294 5.003 C 10.989 5.016,10.689 5.047,10.627 5.073 C 10.433 5.154,10.240 5.325,10.128 5.516 C 10.037 5.672,10.020 5.746,10.020 6.000 C 10.020 6.256,10.036 6.328,10.131 6.489 C 10.192 6.592,10.304 6.725,10.381 6.783 C 10.633 6.976,10.756 6.996,11.666 6.998 C 12.399 7.000,12.515 7.008,12.536 7.063 C 12.582 7.183,12.560 7.981,12.500 8.347 C 12.401 8.959,12.146 9.662,11.855 10.129 L 11.738 10.318 8.279 6.857 C 5.030 3.606,4.825 3.393,4.897 3.338 C 5.079 3.202,5.689 2.919,6.040 2.808 C 6.724 2.592,7.399 2.525,8.112 2.603 " stroke="none" fill-rule="evenodd" fill="black"></path></svg>