<svg viewBox="0 0 24 24" xmlns="http://www.w3.org/2000/svg" fill="none" stroke="#000000" stroke-width="2" stroke-linecap="round" stroke-linejoin="round"><path d="M4.643 5.069 C 4.546 5.103,4.392 5.206,4.300 5.297 C 4.146 5.451,4.055 5.661,3.077 8.102 L 2.020 10.740 2.009 13.933 C 2.002 16.001,2.013 17.179,2.039 17.277 C 2.099 17.498,2.290 17.739,2.508 17.867 C 2.695 17.977,2.719 17.981,3.427 18.000 L 4.155 18.020 4.316 18.340 C 4.686 19.071,5.360 19.637,6.160 19.886 C 6.594 20.021,7.406 20.021,7.840 19.886 C 8.645 19.635,9.318 19.069,9.688 18.330 L 9.853 18.000 12.000 18.000 L 14.147 18.000 14.312 18.330 C 14.682 19.069,15.355 19.635,16.160 19.886 C 16.412 19.964,16.547 19.979,17.000 19.979 C 17.609 19.979,17.922 19.907,18.400 19.656 C 19.085 19.296,19.646 18.611,19.886 17.840 C 20.021 17.406,20.021 16.594,19.886 16.160 C 19.637 15.360,19.081 14.698,18.340 14.317 L 18.020 14.153 18.000 12.427 L 17.980 10.700 17.872 10.516 C 17.759 10.323,17.563 10.150,17.373 10.076 C 17.311 10.051,17.128 10.020,16.966 10.006 L 16.672 9.980 15.768 7.722 C 14.940 5.649,14.852 5.449,14.700 5.298 C 14.382 4.980,14.724 5.000,9.483 5.003 C 5.367 5.006,4.799 5.014,4.643 5.069 M14.221 9.252 C 14.712 10.480,15.160 11.545,15.216 11.619 C 15.349 11.792,15.543 11.910,15.797 11.971 L 16.000 12.019 16.000 13.082 L 16.000 14.145 15.670 14.313 C 15.091 14.607,14.597 15.102,14.312 15.670 L 14.147 16.000 12.000 16.000 L 9.853 16.000 9.688 15.670 C 9.321 14.938,8.642 14.363,7.861 14.125 C 7.588 14.042,7.458 14.027,7.000 14.027 C 6.542 14.027,6.412 14.042,6.139 14.125 C 5.358 14.363,4.679 14.938,4.312 15.670 C 4.195 15.904,4.125 16.000,4.073 16.000 C 4.003 16.000,4.000 15.902,4.000 13.600 L 4.000 11.200 4.804 9.190 C 5.247 8.085,5.624 7.139,5.643 7.090 L 5.678 7.000 9.503 7.010 L 13.328 7.020 14.221 9.252 M7.334 16.064 C 7.698 16.188,8.000 16.613,8.000 17.001 C 8.000 17.331,7.784 17.696,7.484 17.872 C 7.328 17.963,7.254 17.980,7.000 17.980 C 6.746 17.980,6.672 17.963,6.516 17.872 C 5.937 17.531,5.833 16.774,6.301 16.306 C 6.587 16.019,6.952 15.934,7.334 16.064 " stroke="none" fill-rule="evenodd" fill="black"></path></svg>