<svg viewBox="0 0 24 24" xmlns="http://www.w3.org/2000/svg" fill="none" stroke="#000000" stroke-width="2" stroke-linecap="round" stroke-linejoin="round"><path d="M16.920 3.024 C 16.076 3.077,15.155 3.233,14.340 3.461 C 13.236 3.770,12.444 4.105,12.243 4.349 C 11.907 4.756,11.931 5.333,12.299 5.701 C 12.601 6.004,13.004 6.073,13.420 5.896 C 13.850 5.712,14.404 5.519,14.897 5.381 C 15.419 5.235,16.223 5.078,16.419 5.084 L 16.540 5.087 16.400 5.125 C 15.807 5.287,15.017 5.696,14.518 6.099 C 14.189 6.365,14.043 6.594,14.012 6.896 L 13.989 7.116 13.878 7.059 C 13.713 6.973,13.106 6.805,12.721 6.738 C 12.280 6.660,11.360 6.660,10.919 6.738 C 10.098 6.881,9.279 7.219,8.633 7.680 C 7.240 8.674,5.736 11.000,3.942 14.934 C 2.791 17.460,1.324 21.172,1.288 21.649 C 1.245 22.220,1.690 22.690,2.269 22.686 C 2.452 22.685,2.645 22.631,3.200 22.426 C 7.124 20.976,10.882 19.276,13.140 17.929 C 13.775 17.550,14.602 16.988,15.040 16.636 C 15.307 16.422,15.467 16.323,15.577 16.303 C 15.935 16.237,16.240 15.899,16.320 15.483 C 16.342 15.366,16.421 15.170,16.495 15.046 C 17.385 13.568,17.563 11.814,16.981 10.268 L 16.881 10.000 17.013 10.000 C 17.354 10.000,17.731 9.767,17.877 9.467 C 18.118 8.969,18.610 8.832,19.696 8.962 C 20.173 9.019,20.347 8.986,20.606 8.789 C 21.076 8.430,21.122 7.720,20.701 7.299 C 20.506 7.104,20.296 7.024,19.794 6.956 L 19.448 6.909 19.612 6.784 C 20.174 6.356,20.090 5.425,19.462 5.121 C 19.256 5.021,18.663 4.922,18.270 4.921 C 18.122 4.920,18.000 4.911,18.000 4.900 C 18.000 4.889,18.075 4.812,18.166 4.730 C 18.574 4.362,18.603 3.717,18.228 3.326 C 17.959 3.046,17.664 2.978,16.920 3.024 M18.360 6.948 C 17.398 7.109,16.540 7.689,16.169 8.429 L 16.064 8.638 15.717 8.293 L 15.370 7.947 15.544 7.824 C 15.639 7.756,15.828 7.621,15.963 7.525 C 16.335 7.262,16.963 7.006,17.380 6.948 C 17.538 6.927,18.489 6.926,18.360 6.948 M12.762 8.779 C 13.381 8.936,14.103 9.419,14.549 9.973 C 15.291 10.895,15.506 12.115,15.133 13.293 L 15.034 13.608 14.461 13.044 C 13.814 12.406,13.677 12.322,13.284 12.321 C 12.835 12.319,12.466 12.587,12.342 13.005 C 12.264 13.267,12.265 13.333,12.344 13.603 C 12.402 13.800,12.468 13.881,13.065 14.483 L 13.723 15.146 13.271 15.467 C 11.770 16.535,9.382 17.752,6.000 19.170 C 4.689 19.720,4.042 19.975,4.019 19.952 C 3.952 19.886,5.565 16.139,6.425 14.363 L 6.801 13.585 7.431 14.207 C 7.777 14.550,8.121 14.861,8.195 14.898 C 8.268 14.936,8.424 14.977,8.540 14.989 C 9.262 15.063,9.808 14.373,9.579 13.675 C 9.516 13.482,9.424 13.375,8.674 12.618 C 8.215 12.155,7.840 11.763,7.840 11.747 C 7.840 11.694,8.320 10.955,8.608 10.564 C 9.368 9.534,10.062 8.989,10.880 8.779 C 11.414 8.642,12.221 8.642,12.762 8.779 " stroke="none" fill-rule="evenodd" fill="black"></path></svg>