<svg viewBox="0 0 24 24" xmlns="http://www.w3.org/2000/svg" fill="none" stroke="#000000" stroke-width="2" stroke-linecap="round" stroke-linejoin="round"><path d="M0.695 0.056 C 0.465 0.129,0.256 0.299,0.128 0.516 C 0.037 0.672,0.020 0.746,0.020 1.000 C 0.020 1.256,0.036 1.328,0.131 1.489 C 0.192 1.592,0.304 1.725,0.381 1.783 C 0.655 1.993,0.693 1.996,2.500 1.998 L 4.180 2.000 5.466 8.430 C 6.385 13.023,6.784 14.938,6.861 15.131 C 7.240 16.077,8.152 16.803,9.160 16.958 C 9.379 16.992,10.884 17.001,14.740 16.992 L 20.020 16.980 20.344 16.867 C 20.918 16.666,21.341 16.377,21.740 15.913 C 21.997 15.614,22.134 15.373,22.260 15.000 C 22.317 14.833,22.726 12.786,23.185 10.380 C 23.830 6.994,24.003 6.018,23.985 5.866 C 23.958 5.632,23.806 5.359,23.626 5.222 C 23.316 4.985,23.895 5.000,14.985 5.000 L 6.819 5.000 6.383 2.814 C 5.893 0.363,5.901 0.386,5.503 0.141 L 5.306 0.020 3.083 0.012 C 1.344 0.006,0.824 0.015,0.695 0.056 M21.696 7.490 C 21.644 7.760,21.593 8.019,21.581 8.066 L 21.560 8.152 21.360 8.076 C 21.113 7.982,20.914 7.980,20.657 8.067 C 20.491 8.123,20.345 8.247,19.730 8.854 L 19.000 9.574 18.270 8.854 C 17.655 8.247,17.509 8.123,17.343 8.067 C 16.865 7.905,16.383 8.083,16.128 8.516 C 16.036 8.672,16.020 8.745,16.021 9.000 C 16.021 9.213,16.043 9.340,16.096 9.440 C 16.136 9.517,16.486 9.900,16.873 10.290 L 17.577 11.000 16.873 11.710 C 16.486 12.101,16.139 12.481,16.101 12.555 C 15.872 13.008,16.056 13.601,16.508 13.867 C 16.673 13.964,16.742 13.980,17.000 13.979 C 17.213 13.979,17.340 13.957,17.440 13.904 C 17.517 13.864,17.899 13.514,18.290 13.127 L 19.000 12.423 19.730 13.141 C 20.131 13.537,20.465 13.862,20.471 13.865 C 20.478 13.868,20.455 13.996,20.420 14.150 C 20.343 14.488,20.185 14.719,19.926 14.871 L 19.740 14.980 14.540 14.980 L 9.340 14.980 9.156 14.872 C 8.963 14.758,8.789 14.561,8.717 14.373 C 8.674 14.263,7.240 7.151,7.240 7.051 C 7.240 7.010,8.673 7.000,14.514 7.000 L 21.789 7.000 21.696 7.490 M21.054 10.863 C 20.997 11.169,20.938 11.433,20.923 11.450 C 20.909 11.466,20.790 11.371,20.659 11.239 L 20.422 11.000 20.779 10.641 C 20.975 10.444,21.141 10.288,21.147 10.294 C 21.154 10.300,21.112 10.556,21.054 10.863 M8.477 19.073 C 7.806 19.249,7.238 19.823,7.060 20.508 C 6.941 20.962,7.003 21.492,7.225 21.930 C 7.361 22.199,7.801 22.639,8.070 22.775 C 8.659 23.073,9.341 23.073,9.930 22.775 C 10.196 22.640,10.638 22.200,10.771 21.937 C 10.994 21.498,11.052 21.007,10.940 20.529 C 10.858 20.182,10.720 19.927,10.465 19.653 C 10.074 19.232,9.560 19.005,9.000 19.005 C 8.857 19.005,8.622 19.036,8.477 19.073 M19.477 19.073 C 18.806 19.249,18.238 19.823,18.060 20.508 C 17.941 20.962,18.003 21.492,18.225 21.930 C 18.361 22.199,18.801 22.639,19.070 22.775 C 19.659 23.073,20.341 23.073,20.930 22.775 C 21.196 22.640,21.638 22.200,21.771 21.937 C 21.994 21.498,22.052 21.007,21.940 20.529 C 21.858 20.182,21.720 19.927,21.465 19.653 C 21.074 19.232,20.560 19.005,20.000 19.005 C 19.857 19.005,19.622 19.036,19.477 19.073 " stroke="none" fill-rule="evenodd" fill="black"></path></svg>