<svg viewBox="0 0 24 24" xmlns="http://www.w3.org/2000/svg" fill="none" stroke="#000000" stroke-width="2" stroke-linecap="round" stroke-linejoin="round"><path d="M7.667 2.065 C 7.406 2.145,7.153 2.401,7.061 2.678 C 6.932 3.067,6.960 3.153,7.695 4.628 C 8.061 5.362,8.360 5.971,8.360 5.981 C 8.360 5.992,7.796 6.000,7.107 6.000 C 5.674 6.000,5.583 6.015,5.300 6.298 C 5.145 6.453,5.010 6.775,3.067 11.632 C 0.784 17.340,0.899 17.004,1.095 17.420 C 1.209 17.660,1.358 17.807,1.600 17.917 C 1.777 17.997,1.845 17.998,5.388 17.999 L 8.997 18.000 9.008 19.650 L 9.020 21.300 9.131 21.489 C 9.256 21.702,9.449 21.864,9.670 21.943 C 9.889 22.021,14.111 22.021,14.330 21.943 C 14.551 21.864,14.744 21.702,14.869 21.489 L 14.980 21.300 14.992 19.650 L 15.003 18.000 18.612 18.000 L 22.220 17.999 22.420 17.905 C 22.660 17.791,22.807 17.642,22.917 17.400 C 23.097 17.001,23.200 17.301,20.933 11.632 C 18.990 6.775,18.855 6.453,18.700 6.298 C 18.417 6.015,18.326 6.000,16.893 6.000 C 16.204 6.000,15.640 5.992,15.640 5.981 C 15.640 5.971,15.939 5.362,16.305 4.628 C 17.035 3.165,17.068 3.065,16.944 2.693 C 16.712 1.992,15.816 1.776,15.304 2.297 C 15.176 2.427,14.944 2.858,14.260 4.232 L 13.381 6.000 12.000 6.000 L 10.619 6.000 9.740 4.232 C 8.781 2.304,8.708 2.191,8.340 2.066 C 8.106 1.986,7.924 1.986,7.667 2.065 M18.920 12.000 L 20.512 15.980 16.256 15.990 C 13.915 15.996,10.085 15.996,7.744 15.990 L 3.488 15.980 5.056 12.060 C 5.918 9.904,6.636 8.108,6.651 8.070 C 6.676 8.003,6.958 8.000,12.003 8.010 L 17.328 8.020 18.920 12.000 M10.695 9.055 C 10.464 9.130,10.255 9.300,10.128 9.516 C 10.037 9.672,10.020 9.746,10.020 10.000 C 10.020 10.257,10.036 10.327,10.133 10.492 C 10.338 10.841,10.705 11.029,11.105 10.988 C 11.485 10.949,11.764 10.742,11.923 10.383 L 12.010 10.187 12.060 10.333 C 12.134 10.550,12.298 10.744,12.511 10.869 C 12.673 10.964,12.743 10.980,13.000 10.979 C 13.228 10.978,13.338 10.958,13.460 10.893 C 14.171 10.513,14.177 9.479,13.470 9.116 C 12.937 8.841,12.251 9.112,12.058 9.672 L 12.010 9.813 11.923 9.617 C 11.759 9.247,11.473 9.043,11.083 9.016 C 10.960 9.007,10.786 9.025,10.695 9.055 M13.000 19.000 L 13.000 20.000 12.000 20.000 L 11.000 20.000 11.000 19.000 L 11.000 18.000 12.000 18.000 L 13.000 18.000 13.000 19.000 " stroke="none" fill-rule="evenodd" fill="black"></path></svg>