<svg viewBox="0 0 24 24" xmlns="http://www.w3.org/2000/svg" fill="none" stroke="#000000" stroke-width="2" stroke-linecap="round" stroke-linejoin="round"><path d="M10.240 2.035 C 10.185 2.053,10.086 2.096,10.020 2.131 C 9.954 2.166,8.694 3.402,7.220 4.877 C 5.746 6.353,4.522 7.560,4.500 7.560 C 4.478 7.560,3.929 7.028,3.280 6.377 C 2.631 5.727,2.028 5.156,1.940 5.108 C 1.717 4.988,1.284 4.988,1.060 5.108 C 0.607 5.349,0.403 5.852,0.559 6.344 C 0.632 6.571,3.807 9.764,4.100 9.904 C 4.364 10.030,4.636 10.030,4.900 9.904 C 5.197 9.762,11.368 3.573,11.441 3.344 C 11.646 2.697,11.224 2.060,10.563 2.017 C 10.440 2.009,10.295 2.017,10.240 2.035 M19.080 5.603 C 18.939 5.666,17.816 6.767,13.951 10.631 L 9.001 15.578 7.271 13.855 C 5.721 12.312,5.519 12.124,5.343 12.066 C 4.863 11.906,4.382 12.084,4.128 12.516 C 4.037 12.672,4.020 12.746,4.020 13.000 C 4.020 13.254,4.036 13.328,4.127 13.480 C 4.261 13.705,8.368 17.805,8.560 17.905 C 8.659 17.957,8.788 17.979,9.000 17.979 C 9.255 17.980,9.327 17.964,9.480 17.873 C 9.584 17.810,11.899 15.525,14.989 12.433 C 19.301 8.117,20.333 7.065,20.399 6.914 C 20.694 6.240,20.230 5.518,19.502 5.521 C 19.347 5.521,19.195 5.551,19.080 5.603 M22.180 10.059 C 22.092 10.092,22.011 10.119,22.000 10.119 C 21.990 10.120,19.553 12.546,16.586 15.510 C 10.773 21.319,11.001 21.074,11.001 21.500 C 11.001 21.874,11.270 22.277,11.618 22.422 C 11.837 22.513,12.189 22.507,12.405 22.408 C 12.538 22.348,13.876 21.031,17.986 16.914 C 23.828 11.063,23.493 11.425,23.489 10.980 C 23.485 10.610,23.282 10.287,22.943 10.112 C 22.736 10.006,22.386 9.981,22.180 10.059 " stroke="none" fill="black" fill-rule="evenodd"></path></svg>