<svg viewBox="0 0 24 24" xmlns="http://www.w3.org/2000/svg" fill="none" stroke="#000000" stroke-width="2" stroke-linecap="round" stroke-linejoin="round"><path d="M5.400 2.044 C 3.761 2.229,2.261 3.290,1.526 4.785 C 1.346 5.149,1.196 5.573,1.095 6.000 C 1.030 6.275,1.023 6.631,1.011 10.211 C 1.002 12.810,1.011 14.173,1.039 14.275 C 1.099 14.498,1.289 14.739,1.508 14.867 C 1.673 14.964,1.743 14.980,2.004 14.980 C 2.274 14.980,2.329 14.966,2.507 14.856 L 2.708 14.731 3.064 14.853 C 3.409 14.971,3.446 14.975,4.293 14.992 C 5.052 15.007,5.162 15.017,5.142 15.070 C 5.034 15.351,5.020 15.572,5.020 17.020 C 5.020 18.502,5.022 18.548,5.114 18.840 C 5.422 19.827,6.173 20.578,7.160 20.886 L 7.460 20.980 12.000 20.980 L 16.540 20.980 16.840 20.886 C 17.827 20.578,18.578 19.827,18.886 18.840 C 18.978 18.547,18.980 18.504,18.980 16.980 L 18.980 15.420 18.855 15.063 L 18.731 14.706 18.845 14.525 C 18.908 14.426,18.960 14.312,18.960 14.272 C 18.960 14.160,19.027 14.187,19.052 14.310 C 19.087 14.485,19.300 14.745,19.508 14.867 L 19.700 14.980 20.908 14.992 C 21.666 15.000,22.174 14.989,22.272 14.962 C 22.498 14.901,22.738 14.712,22.867 14.492 C 22.964 14.327,22.980 14.257,22.980 13.996 C 22.980 13.726,22.966 13.671,22.856 13.493 L 22.731 13.292 22.856 12.936 L 22.980 12.580 22.980 10.500 L 22.980 8.420 22.856 8.064 L 22.731 7.708 22.856 7.507 C 22.976 7.313,22.980 7.293,22.979 6.843 C 22.975 5.076,21.872 3.354,20.213 2.525 C 19.012 1.925,17.582 1.845,16.290 2.307 L 16.000 2.411 15.710 2.307 C 15.272 2.150,14.987 2.088,14.470 2.036 C 12.938 1.881,11.439 2.448,10.356 3.593 L 10.000 3.969 9.645 3.595 C 8.529 2.416,7.013 1.862,5.400 2.044 M6.861 4.129 C 7.802 4.404,8.575 5.174,8.878 6.139 L 8.979 6.460 8.991 9.730 L 9.003 13.000 8.392 13.000 C 7.705 13.001,7.389 13.041,6.980 13.180 C 6.700 13.276,6.700 13.276,6.591 13.197 C 6.360 13.031,6.292 13.023,4.980 13.001 L 3.700 12.980 3.516 12.872 C 3.415 12.813,3.284 12.700,3.225 12.623 C 3.005 12.335,3.000 12.288,3.000 10.522 C 3.000 8.642,3.006 8.601,3.303 8.303 C 3.561 8.045,3.743 8.000,4.537 7.998 C 5.230 7.996,5.378 7.967,5.619 7.783 C 5.696 7.725,5.808 7.592,5.869 7.489 C 5.964 7.328,5.980 7.256,5.980 7.000 C 5.980 6.746,5.963 6.672,5.872 6.516 C 5.740 6.293,5.533 6.128,5.290 6.055 C 4.964 5.957,3.686 5.985,3.230 6.101 L 3.121 6.129 3.181 5.956 C 3.273 5.695,3.493 5.325,3.696 5.088 C 4.188 4.514,4.779 4.171,5.499 4.040 C 5.832 3.980,6.500 4.023,6.861 4.129 M13.838 4.234 C 13.519 4.712,13.247 5.358,13.095 6.000 C 13.031 6.272,13.023 6.613,13.011 9.650 L 12.997 13.000 11.997 13.000 L 10.997 13.000 11.009 9.730 L 11.021 6.460 11.122 6.139 C 11.503 4.925,12.629 4.043,13.847 4.005 L 13.994 4.000 13.838 4.234 M18.876 4.134 C 19.724 4.380,20.529 5.135,20.819 5.956 L 20.879 6.129 20.770 6.101 C 20.475 6.026,20.164 6.000,19.554 6.000 L 18.889 6.000 18.861 5.850 C 18.784 5.427,18.453 4.670,18.151 4.224 L 17.992 3.989 18.282 4.017 C 18.441 4.033,18.709 4.086,18.876 4.134 M16.147 4.910 C 16.510 5.299,16.745 5.696,16.886 6.160 L 16.978 6.460 16.990 9.810 C 16.997 11.652,16.998 13.160,16.992 13.160 C 16.985 13.159,16.881 13.130,16.760 13.095 C 16.608 13.052,16.301 13.025,15.768 13.011 L 14.997 12.990 15.010 9.725 L 15.022 6.460 15.114 6.160 C 15.255 5.696,15.490 5.299,15.853 4.910 C 15.910 4.849,15.976 4.800,16.000 4.800 C 16.024 4.800,16.090 4.849,16.147 4.910 M20.310 8.061 C 20.589 8.144,20.856 8.411,20.939 8.690 C 21.024 8.976,21.029 12.010,20.945 12.290 C 20.822 12.700,20.517 12.937,20.034 12.998 C 19.870 13.019,19.686 13.055,19.625 13.078 C 19.367 13.176,19.120 13.443,19.040 13.711 C 19.022 13.771,19.005 12.511,19.003 10.910 L 19.000 8.000 19.553 8.000 C 19.931 8.000,20.170 8.019,20.310 8.061 M16.310 15.061 C 16.589 15.144,16.856 15.411,16.939 15.690 C 17.023 15.972,17.028 18.015,16.945 18.290 C 16.872 18.533,16.707 18.740,16.484 18.872 L 16.300 18.980 12.000 18.980 L 7.700 18.980 7.516 18.872 C 7.303 18.747,7.141 18.550,7.058 18.316 C 6.972 18.071,6.974 15.982,7.061 15.690 C 7.136 15.438,7.404 15.153,7.650 15.067 C 7.908 14.975,16.004 14.970,16.310 15.061 " stroke="none" fill-rule="evenodd" fill="black"></path></svg>