<svg viewBox="0 0 24 24" xmlns="http://www.w3.org/2000/svg" fill="none" stroke="#000000" stroke-width="2" stroke-linecap="round" stroke-linejoin="round"><path d="M2.695 1.057 C 2.466 1.129,2.256 1.299,2.128 1.516 L 2.020 1.700 2.020 8.000 L 2.020 14.300 2.133 14.492 C 2.195 14.597,2.317 14.735,2.404 14.799 C 2.521 14.883,3.757 15.312,7.072 16.417 L 11.580 17.920 14.110 19.438 C 16.790 21.045,16.783 21.042,17.179 20.982 C 17.418 20.946,17.712 20.742,17.852 20.513 C 17.964 20.332,17.993 20.146,18.993 13.148 C 19.959 6.389,20.016 5.957,19.967 5.774 C 19.899 5.517,19.755 5.304,19.561 5.176 C 19.433 5.091,17.845 4.681,11.271 3.037 C 6.799 1.918,3.077 1.003,3.000 1.004 C 2.923 1.005,2.786 1.029,2.695 1.057 M10.980 5.024 C 14.742 5.963,17.832 6.742,17.847 6.756 C 17.869 6.775,16.249 18.308,16.219 18.351 C 16.214 18.358,15.352 17.847,14.303 17.218 L 12.394 16.072 8.197 14.673 L 4.000 13.273 4.003 9.786 C 4.005 6.711,4.012 6.325,4.062 6.509 C 4.154 6.854,4.316 7.124,4.596 7.404 C 4.999 7.807,5.454 8.000,6.000 8.000 C 6.546 8.000,7.001 7.807,7.404 7.404 C 7.920 6.889,8.106 6.236,7.940 5.529 C 7.858 5.182,7.720 4.927,7.465 4.653 C 6.948 4.097,6.211 3.882,5.477 4.073 C 4.815 4.246,4.242 4.819,4.062 5.491 C 4.010 5.684,4.005 5.606,4.003 4.487 C 4.000 3.350,4.004 3.276,4.070 3.296 C 4.109 3.307,7.218 4.085,10.980 5.024 " stroke="none" fill-rule="evenodd" fill="black"></path></svg>