<svg viewBox="0 0 24 24" xmlns="http://www.w3.org/2000/svg" fill="none" stroke="#000000" stroke-width="2" stroke-linecap="round" stroke-linejoin="round"><path d="M14.660 1.076 C 14.550 1.117,14.208 1.267,13.900 1.410 C 13.107 1.779,11.659 2.351,10.752 2.655 C 9.524 3.066,8.838 3.241,7.330 3.526 C 6.856 3.616,6.512 4.014,6.512 4.474 C 6.512 4.990,6.838 5.388,7.340 5.484 C 7.658 5.544,9.159 5.236,10.500 4.835 C 11.589 4.509,13.336 3.864,14.217 3.463 C 14.390 3.384,14.535 3.324,14.538 3.329 C 14.541 3.335,14.663 3.592,14.808 3.900 C 15.504 5.373,16.340 7.299,16.770 8.420 C 17.012 9.051,17.374 10.124,17.350 10.139 C 17.345 10.143,17.196 10.196,17.020 10.257 C 15.884 10.651,14.874 11.575,14.399 12.656 L 14.269 12.952 14.005 12.770 C 12.844 11.970,11.270 11.788,9.911 12.297 C 9.720 12.369,9.574 12.408,9.587 12.384 C 9.601 12.360,10.248 11.338,11.026 10.114 C 12.561 7.698,12.567 7.688,12.478 7.287 C 12.408 6.971,12.160 6.674,11.876 6.566 C 11.758 6.521,11.026 6.391,10.400 6.304 C 8.863 6.089,6.911 6.122,5.480 6.385 C 3.780 6.698,2.434 7.281,1.489 8.114 C 1.116 8.442,1.020 8.625,1.020 9.003 C 1.020 9.271,1.034 9.329,1.141 9.503 C 1.441 9.991,2.072 10.144,2.525 9.839 C 2.621 9.774,2.817 9.622,2.960 9.502 C 3.760 8.830,5.222 8.364,7.058 8.196 C 7.591 8.147,9.397 8.171,9.685 8.230 L 9.830 8.260 8.454 10.420 C 7.698 11.608,7.061 12.643,7.040 12.720 C 6.909 13.186,7.171 13.747,7.600 13.918 C 7.677 13.949,7.745 13.977,7.751 13.981 C 7.757 13.985,7.689 14.112,7.600 14.264 C 7.402 14.602,7.226 15.050,7.110 15.512 C 7.036 15.803,7.022 15.967,7.024 16.520 C 7.026 17.098,7.039 17.228,7.129 17.563 C 7.449 18.756,8.145 19.713,9.136 20.323 C 10.426 21.117,12.019 21.213,13.391 20.579 C 14.332 20.144,15.192 19.275,15.600 18.346 L 15.729 18.053 15.994 18.233 C 16.783 18.766,17.755 19.036,18.717 18.988 C 21.615 18.846,23.623 16.034,22.815 13.248 C 22.390 11.781,21.210 10.603,19.742 10.181 C 19.546 10.124,19.383 10.074,19.381 10.069 C 19.379 10.064,19.344 9.925,19.304 9.760 C 18.950 8.318,17.736 5.341,16.264 2.304 C 15.798 1.341,15.678 1.181,15.336 1.065 C 15.091 0.981,14.909 0.985,14.660 1.076 M19.020 12.060 C 19.741 12.211,20.395 12.713,20.715 13.362 C 21.087 14.118,21.090 14.878,20.723 15.620 C 20.439 16.195,19.932 16.646,19.320 16.868 C 19.052 16.965,18.965 16.976,18.500 16.976 C 18.035 16.976,17.948 16.965,17.680 16.868 C 17.068 16.646,16.561 16.195,16.277 15.620 C 15.347 13.740,16.972 11.631,19.020 12.060 M12.020 14.060 C 12.741 14.211,13.395 14.713,13.715 15.362 C 14.087 16.118,14.090 16.878,13.723 17.620 C 13.439 18.195,12.932 18.646,12.320 18.868 C 12.052 18.965,11.965 18.976,11.500 18.976 C 11.035 18.976,10.948 18.965,10.680 18.868 C 10.068 18.646,9.561 18.195,9.277 17.620 C 8.347 15.740,9.972 13.631,12.020 14.060 " stroke="none" fill-rule="evenodd" fill="black"></path></svg>