<svg viewBox="0 0 24 24" xmlns="http://www.w3.org/2000/svg" fill="none" stroke="#000000" stroke-width="2" stroke-linecap="round" stroke-linejoin="round"><path d="M11.695 1.057 C 11.466 1.129,11.256 1.299,11.128 1.516 C 11.025 1.692,11.019 1.728,11.007 2.350 L 10.993 3.000 10.443 3.000 C 9.648 3.000,9.366 3.111,9.128 3.516 C 9.037 3.672,9.020 3.746,9.020 4.000 C 9.020 4.257,9.036 4.327,9.133 4.492 C 9.255 4.700,9.515 4.913,9.690 4.948 C 9.844 4.979,9.827 5.019,9.636 5.076 C 9.325 5.170,9.187 5.367,8.585 6.586 C 7.969 7.831,7.935 7.944,8.061 8.322 C 8.189 8.707,8.594 9.000,9.000 9.000 C 9.243 9.000,9.521 8.881,9.697 8.702 C 9.812 8.586,9.973 8.308,10.239 7.768 L 10.618 7.000 11.239 7.003 C 11.808 7.005,11.846 7.010,11.695 7.057 C 11.466 7.129,11.256 7.299,11.128 7.516 L 11.020 7.700 11.020 10.503 L 11.020 13.306 11.141 13.503 C 11.543 14.156,12.457 14.156,12.859 13.503 L 12.980 13.306 12.980 10.503 L 12.980 7.700 12.872 7.516 C 12.744 7.299,12.534 7.129,12.305 7.057 C 12.154 7.010,12.192 7.005,12.761 7.003 L 13.382 7.000 13.761 7.768 C 14.027 8.308,14.188 8.586,14.303 8.702 C 14.479 8.881,14.757 9.000,15.000 9.000 C 15.406 9.000,15.811 8.707,15.939 8.322 C 16.065 7.944,16.031 7.831,15.415 6.586 C 14.813 5.367,14.675 5.170,14.364 5.076 C 14.173 5.019,14.156 4.979,14.310 4.948 C 14.485 4.913,14.745 4.700,14.867 4.492 C 14.964 4.327,14.980 4.257,14.980 4.000 C 14.980 3.746,14.963 3.672,14.872 3.516 C 14.634 3.111,14.352 3.000,13.557 3.000 L 13.007 3.000 12.993 2.350 C 12.981 1.728,12.975 1.692,12.872 1.516 C 12.628 1.101,12.150 0.915,11.695 1.057 M6.695 17.057 C 6.466 17.129,6.256 17.299,6.128 17.516 C 6.037 17.672,6.020 17.746,6.020 18.000 C 6.020 18.256,6.036 18.328,6.131 18.489 C 6.256 18.702,6.449 18.864,6.670 18.943 C 6.892 19.022,17.108 19.022,17.330 18.943 C 17.551 18.864,17.744 18.702,17.869 18.489 C 17.964 18.328,17.980 18.256,17.980 18.000 C 17.980 17.746,17.963 17.672,17.872 17.516 C 17.740 17.293,17.533 17.128,17.290 17.055 C 17.028 16.976,6.946 16.978,6.695 17.057 M5.695 20.057 C 5.466 20.129,5.256 20.299,5.128 20.516 C 5.037 20.672,5.020 20.746,5.020 21.000 C 5.020 21.256,5.036 21.328,5.131 21.489 C 5.256 21.702,5.449 21.864,5.670 21.943 C 5.793 21.987,6.938 21.996,12.000 21.996 C 17.062 21.996,18.207 21.987,18.330 21.943 C 18.551 21.864,18.744 21.702,18.869 21.489 C 18.964 21.328,18.980 21.256,18.980 21.000 C 18.980 20.746,18.963 20.672,18.872 20.516 C 18.740 20.293,18.533 20.128,18.290 20.055 C 18.028 19.976,5.947 19.978,5.695 20.057 " stroke="none" fill-rule="evenodd" fill="black"></path></svg>