<svg viewBox="0 0 24 24" xmlns="http://www.w3.org/2000/svg" fill="none" stroke="#000000" stroke-width="2" stroke-linecap="round" stroke-linejoin="round"><path d="M9.155 0.190 C 8.566 0.826,8.243 1.438,8.082 2.228 C 7.700 4.105,8.756 6.031,10.540 6.711 C 10.716 6.778,10.890 6.842,10.927 6.854 C 10.985 6.872,10.995 6.965,11.007 7.587 C 11.020 8.286,11.022 8.304,11.133 8.492 C 11.256 8.701,11.515 8.913,11.693 8.949 C 11.835 8.977,11.757 9.038,11.578 9.039 C 11.200 9.041,10.419 9.356,9.940 9.699 C 9.374 10.105,8.773 10.871,8.472 11.569 C 8.166 12.278,7.965 13.343,8.009 14.022 C 8.032 14.388,8.170 14.638,8.452 14.828 C 8.919 15.141,9.554 14.998,9.853 14.512 C 9.956 14.345,9.973 14.271,10.005 13.832 C 10.053 13.182,10.101 12.928,10.254 12.520 C 10.492 11.888,10.903 11.392,11.388 11.153 C 11.630 11.034,11.694 11.020,12.000 11.020 C 12.306 11.020,12.370 11.034,12.612 11.153 C 13.097 11.392,13.508 11.888,13.746 12.520 C 13.899 12.928,13.947 13.182,13.995 13.832 C 14.027 14.271,14.044 14.345,14.147 14.512 C 14.543 15.157,15.461 15.151,15.859 14.503 C 15.980 14.305,15.980 14.305,15.975 13.723 C 15.963 12.337,15.483 11.101,14.602 10.186 C 14.244 9.813,13.937 9.586,13.497 9.366 C 13.164 9.200,12.639 9.040,12.422 9.039 C 12.243 9.038,12.165 8.977,12.307 8.949 C 12.485 8.913,12.744 8.701,12.867 8.492 C 12.978 8.304,12.980 8.286,12.993 7.587 C 13.005 6.965,13.015 6.872,13.073 6.854 C 14.334 6.456,15.238 5.644,15.704 4.488 C 15.994 3.769,16.070 2.977,15.921 2.243 C 15.758 1.443,15.434 0.826,14.845 0.190 L 14.669 0.000 12.000 0.000 L 9.331 0.000 9.155 0.190 M12.523 1.073 C 13.262 1.266,13.850 1.924,13.967 2.690 C 14.067 3.343,13.873 3.933,13.403 4.404 C 13.002 4.807,12.547 5.000,12.000 5.000 C 11.485 5.000,11.038 4.822,10.653 4.465 C 9.323 3.229,10.189 1.005,12.000 1.005 C 12.143 1.005,12.378 1.036,12.523 1.073 M6.695 17.057 C 6.466 17.129,6.256 17.299,6.128 17.516 C 6.037 17.672,6.020 17.746,6.020 18.000 C 6.020 18.256,6.036 18.328,6.131 18.489 C 6.256 18.702,6.449 18.864,6.670 18.943 C 6.892 19.022,17.108 19.022,17.330 18.943 C 17.551 18.864,17.744 18.702,17.869 18.489 C 17.964 18.328,17.980 18.256,17.980 18.000 C 17.980 17.746,17.963 17.672,17.872 17.516 C 17.740 17.293,17.533 17.128,17.290 17.055 C 17.028 16.976,6.946 16.978,6.695 17.057 M5.695 20.057 C 5.466 20.129,5.256 20.299,5.128 20.516 C 5.037 20.672,5.020 20.746,5.020 21.000 C 5.020 21.256,5.036 21.328,5.131 21.489 C 5.256 21.702,5.449 21.864,5.670 21.943 C 5.793 21.987,6.938 21.996,12.000 21.996 C 17.062 21.996,18.207 21.987,18.330 21.943 C 18.551 21.864,18.744 21.702,18.869 21.489 C 18.964 21.328,18.980 21.256,18.980 21.000 C 18.980 20.746,18.963 20.672,18.872 20.516 C 18.740 20.293,18.533 20.128,18.290 20.055 C 18.028 19.976,5.947 19.978,5.695 20.057 " stroke="none" fill-rule="evenodd" fill="black"></path></svg>