<svg viewBox="0 0 24 24" xmlns="http://www.w3.org/2000/svg" fill="none" stroke="#000000" stroke-width="2" stroke-linecap="round" stroke-linejoin="round"><path d="M5.580 3.095 C 5.340 3.209,5.193 3.358,5.083 3.600 C 5.002 3.779,5.002 3.820,5.001 11.390 L 5.000 19.000 4.446 19.000 C 3.648 19.000,3.367 19.110,3.128 19.516 C 3.037 19.672,3.020 19.746,3.020 20.000 C 3.020 20.256,3.036 20.328,3.131 20.489 C 3.256 20.702,3.449 20.864,3.670 20.943 C 3.893 21.022,20.107 21.022,20.330 20.943 C 20.551 20.864,20.744 20.702,20.869 20.489 C 20.964 20.328,20.980 20.256,20.980 20.000 C 20.980 19.746,20.963 19.672,20.872 19.516 C 20.633 19.110,20.352 19.000,19.554 19.000 L 19.000 19.000 18.999 11.390 C 18.998 3.820,18.998 3.779,18.917 3.600 C 18.807 3.358,18.660 3.209,18.420 3.095 L 18.220 3.001 12.000 3.001 L 5.780 3.001 5.580 3.095 M16.590 5.050 C 16.580 5.077,16.505 5.303,16.423 5.550 L 16.273 6.000 12.000 6.000 L 7.727 6.000 7.577 5.550 C 7.495 5.303,7.420 5.077,7.410 5.050 C 7.395 5.010,8.330 5.000,12.000 5.000 C 15.670 5.000,16.605 5.010,16.590 5.050 M17.000 13.500 L 17.000 19.000 12.000 19.000 L 7.000 19.000 7.000 13.500 L 7.000 8.000 12.000 8.000 L 17.000 8.000 17.000 13.500 " stroke="none" fill-rule="evenodd" fill="black"></path></svg>