<svg viewBox="0 0 24 24" xmlns="http://www.w3.org/2000/svg" fill="none" stroke="#000000" stroke-width="2" stroke-linecap="round" stroke-linejoin="round"><path d="M7.695 1.057 C 7.466 1.129,7.256 1.299,7.128 1.516 C 7.025 1.692,7.019 1.728,7.007 2.345 L 6.993 2.991 6.227 3.010 C 5.567 3.027,5.415 3.043,5.139 3.126 C 4.190 3.412,3.428 4.172,3.118 5.140 C 3.042 5.379,3.026 5.536,3.010 6.210 L 2.991 7.000 2.442 7.000 C 1.649 7.000,1.366 7.111,1.128 7.516 C 1.037 7.672,1.020 7.746,1.020 8.000 C 1.020 8.256,1.036 8.328,1.131 8.489 C 1.256 8.702,1.449 8.864,1.670 8.943 C 1.768 8.978,2.023 8.997,2.410 8.998 L 3.000 9.000 3.000 10.000 L 3.000 11.000 2.446 11.000 C 1.648 11.000,1.367 11.110,1.128 11.516 C 1.037 11.672,1.020 11.746,1.020 12.000 C 1.020 12.256,1.036 12.328,1.131 12.489 C 1.256 12.702,1.449 12.864,1.670 12.943 C 1.768 12.978,2.023 12.997,2.410 12.998 L 3.000 13.000 3.000 14.000 L 3.000 15.000 2.446 15.000 C 1.648 15.000,1.367 15.110,1.128 15.516 C 1.037 15.672,1.020 15.746,1.020 16.000 C 1.020 16.256,1.036 16.328,1.131 16.489 C 1.256 16.702,1.449 16.864,1.670 16.943 C 1.768 16.978,2.022 16.997,2.405 16.998 L 2.991 17.000 3.010 17.790 C 3.026 18.464,3.042 18.621,3.118 18.860 C 3.427 19.825,4.175 20.573,5.140 20.882 C 5.379 20.958,5.536 20.974,6.207 20.990 L 6.993 21.009 7.007 21.658 C 7.020 22.300,7.021 22.309,7.141 22.503 C 7.543 23.156,8.457 23.156,8.859 22.503 C 8.979 22.308,8.980 22.300,8.993 21.653 L 9.007 21.000 10.000 21.000 L 10.993 21.000 11.007 21.653 C 11.020 22.300,11.021 22.308,11.141 22.503 C 11.543 23.156,12.457 23.156,12.859 22.503 C 12.979 22.308,12.980 22.300,12.993 21.653 L 13.007 21.000 14.000 21.000 L 14.993 21.000 15.007 21.653 C 15.020 22.300,15.021 22.308,15.141 22.503 C 15.543 23.156,16.457 23.156,16.859 22.503 C 16.979 22.309,16.980 22.300,16.993 21.658 L 17.007 21.009 17.793 20.990 C 18.464 20.974,18.621 20.958,18.860 20.882 C 19.825 20.573,20.573 19.825,20.882 18.860 C 20.958 18.621,20.974 18.464,20.990 17.790 L 21.009 17.000 21.595 16.998 C 21.978 16.997,22.232 16.978,22.330 16.943 C 22.551 16.864,22.744 16.702,22.869 16.489 C 22.964 16.328,22.980 16.256,22.980 16.000 C 22.980 15.746,22.963 15.672,22.872 15.516 C 22.633 15.110,22.352 15.000,21.554 15.000 L 21.000 15.000 21.000 14.000 L 21.000 13.000 21.590 12.998 C 21.977 12.997,22.232 12.978,22.330 12.943 C 22.551 12.864,22.744 12.702,22.869 12.489 C 22.964 12.328,22.980 12.256,22.980 12.000 C 22.980 11.746,22.963 11.672,22.872 11.516 C 22.633 11.110,22.352 11.000,21.554 11.000 L 21.000 11.000 21.000 10.000 L 21.000 9.000 21.590 8.998 C 21.977 8.997,22.232 8.978,22.330 8.943 C 22.551 8.864,22.744 8.702,22.869 8.489 C 22.964 8.328,22.980 8.256,22.980 8.000 C 22.980 7.746,22.963 7.672,22.872 7.516 C 22.634 7.111,22.351 7.000,21.558 7.000 L 21.009 7.000 20.990 6.210 C 20.974 5.536,20.958 5.379,20.882 5.140 C 20.572 4.172,19.810 3.412,18.861 3.126 C 18.585 3.043,18.433 3.027,17.773 3.010 L 17.007 2.991 16.993 2.345 C 16.981 1.726,16.976 1.693,16.871 1.514 C 16.479 0.848,15.521 0.848,15.129 1.514 C 15.024 1.693,15.019 1.726,15.007 2.350 L 14.993 3.000 14.000 3.000 L 13.007 3.000 12.993 2.350 C 12.981 1.726,12.976 1.693,12.871 1.514 C 12.479 0.848,11.521 0.848,11.129 1.514 C 11.024 1.693,11.019 1.726,11.007 2.350 L 10.993 3.000 10.000 3.000 L 9.007 3.000 8.993 2.350 C 8.981 1.728,8.975 1.692,8.872 1.516 C 8.628 1.101,8.150 0.915,7.695 1.057 M18.310 5.061 C 18.589 5.144,18.856 5.411,18.939 5.690 C 18.992 5.869,19.000 6.651,19.000 12.001 C 19.000 17.059,18.991 18.139,18.945 18.290 C 18.872 18.533,18.707 18.740,18.484 18.872 L 18.300 18.980 12.000 18.980 L 5.700 18.980 5.516 18.872 C 5.303 18.747,5.141 18.550,5.058 18.316 C 4.968 18.060,4.971 5.993,5.061 5.690 C 5.140 5.421,5.412 5.143,5.673 5.063 C 5.963 4.974,18.010 4.972,18.310 5.061 M8.477 7.073 C 7.806 7.249,7.238 7.823,7.060 8.508 C 7.009 8.702,7.000 9.237,7.000 12.000 C 7.000 15.547,6.996 15.478,7.225 15.930 C 7.361 16.199,7.801 16.639,8.070 16.775 C 8.522 17.004,8.454 17.000,11.993 17.000 C 15.539 17.000,15.479 17.003,15.937 16.771 C 16.197 16.639,16.639 16.197,16.771 15.937 C 17.003 15.479,17.000 15.537,16.999 12.014 C 16.999 8.515,16.999 8.511,16.781 8.083 C 16.646 7.816,16.297 7.449,16.017 7.281 C 15.548 6.999,15.636 7.005,12.000 7.005 C 9.047 7.005,8.715 7.011,8.477 7.073 M15.000 12.000 L 15.000 15.000 12.000 15.000 L 9.000 15.000 9.000 12.000 L 9.000 9.000 12.000 9.000 L 15.000 9.000 15.000 12.000 " stroke="none" fill-rule="evenodd" fill="black"></path></svg>