<svg viewBox="0 0 24 24" xmlns="http://www.w3.org/2000/svg" fill="none" stroke="#000000" stroke-width="2" stroke-linecap="round" stroke-linejoin="round"><path d="M8.080 2.042 C 6.277 2.241,4.548 2.982,3.157 4.152 C 1.598 5.463,0.496 7.395,0.110 9.496 C -0.011 10.155,-0.020 11.711,0.094 12.360 C 0.375 13.967,0.893 15.199,1.785 16.385 C 2.146 16.864,2.422 17.144,2.610 17.221 C 2.825 17.309,3.170 17.308,3.390 17.220 C 3.618 17.128,3.897 16.814,3.955 16.584 C 4.059 16.171,3.980 15.917,3.605 15.461 C 2.597 14.236,2.078 12.862,2.012 11.240 C 1.931 9.243,2.721 7.312,4.187 5.919 C 5.145 5.010,6.506 4.326,7.800 4.103 C 9.489 3.812,11.338 4.186,12.750 5.102 C 14.165 6.021,15.141 7.295,15.661 8.900 C 15.871 9.550,15.984 9.726,16.297 9.892 C 16.448 9.971,16.541 9.980,17.540 10.004 C 18.516 10.028,18.657 10.040,19.002 10.131 C 20.100 10.420,21.051 11.189,21.560 12.200 C 22.487 14.040,21.881 16.239,20.134 17.373 C 19.550 17.752,19.400 17.967,19.400 18.427 C 19.400 18.675,19.553 18.995,19.748 19.156 C 19.942 19.316,20.276 19.416,20.504 19.382 C 20.893 19.323,21.679 18.803,22.260 18.220 C 23.109 17.366,23.678 16.260,23.926 14.980 C 24.016 14.515,23.995 13.390,23.886 12.873 C 23.537 11.212,22.695 9.942,21.342 9.033 C 20.336 8.358,19.402 8.065,18.068 8.006 L 17.475 7.980 17.324 7.596 C 16.450 5.372,14.461 3.435,12.180 2.586 C 11.627 2.380,10.885 2.190,10.280 2.099 C 9.770 2.023,8.546 1.991,8.080 2.042 M11.695 12.057 C 11.466 12.129,11.256 12.299,11.128 12.516 L 11.020 12.700 11.009 15.637 L 10.998 18.574 9.769 17.353 C 8.688 16.279,8.516 16.124,8.343 16.066 C 7.863 15.905,7.382 16.084,7.128 16.516 C 7.036 16.672,7.020 16.745,7.021 17.000 C 7.021 17.212,7.043 17.341,7.095 17.440 C 7.135 17.517,8.116 18.531,9.274 19.694 C 11.567 21.996,11.571 21.999,12.000 21.999 C 12.429 21.999,12.433 21.996,14.726 19.694 C 15.884 18.531,16.865 17.517,16.905 17.440 C 16.957 17.341,16.979 17.212,16.979 17.000 C 16.980 16.745,16.964 16.672,16.872 16.516 C 16.618 16.084,16.137 15.905,15.657 16.066 C 15.484 16.124,15.312 16.279,14.231 17.353 L 13.002 18.574 12.991 15.637 L 12.980 12.700 12.872 12.516 C 12.628 12.101,12.150 11.915,11.695 12.057 " stroke="none" fill-rule="evenodd" fill="black"></path></svg>