<svg viewBox="0 0 24 24" xmlns="http://www.w3.org/2000/svg" fill="none" stroke="#000000" stroke-width="2" stroke-linecap="round" stroke-linejoin="round"><path d="M8.340 0.028 C 6.851 0.126,5.297 0.660,4.025 1.510 C 3.436 1.904,3.108 2.173,2.601 2.682 C 1.497 3.788,0.666 5.251,0.276 6.775 C -0.044 8.023,-0.085 9.472,0.164 10.727 C 0.541 12.628,1.544 14.404,2.957 15.668 C 3.452 16.112,3.684 16.239,4.000 16.239 C 4.676 16.239,5.137 15.611,4.945 14.952 C 4.886 14.748,4.839 14.691,4.345 14.226 C 4.051 13.948,3.710 13.599,3.589 13.450 C 2.606 12.245,2.070 10.820,2.012 9.256 C 1.967 8.041,2.165 7.094,2.698 5.980 C 3.108 5.122,3.505 4.570,4.162 3.945 C 6.269 1.940,9.377 1.437,11.986 2.679 C 13.767 3.527,15.044 4.993,15.660 6.897 C 15.871 7.550,15.983 7.726,16.297 7.892 C 16.448 7.972,16.540 7.980,17.520 8.003 C 18.860 8.036,19.109 8.085,19.831 8.458 C 22.144 9.652,22.702 12.689,20.974 14.668 C 20.675 15.010,20.325 15.278,19.837 15.539 C 19.349 15.801,19.223 15.910,19.095 16.180 C 18.918 16.555,19.011 17.010,19.325 17.308 C 19.649 17.615,20.061 17.654,20.548 17.423 C 21.238 17.095,21.785 16.695,22.345 16.109 C 23.724 14.667,24.287 12.617,23.837 10.680 C 23.566 9.514,23.073 8.627,22.223 7.777 C 21.029 6.584,19.587 6.000,17.835 6.000 C 17.531 6.000,17.474 5.990,17.453 5.930 C 17.439 5.891,17.332 5.636,17.214 5.363 C 16.562 3.841,15.369 2.431,13.940 1.492 C 12.283 0.404,10.337 -0.105,8.340 0.028 M7.695 14.055 C 7.464 14.130,7.255 14.300,7.128 14.516 C 7.037 14.672,7.020 14.746,7.020 15.000 C 7.020 15.257,7.036 15.327,7.133 15.492 C 7.651 16.374,8.998 16.018,8.998 15.000 C 8.998 14.623,8.792 14.281,8.463 14.112 C 8.265 14.010,7.911 13.984,7.695 14.055 M15.695 14.055 C 15.464 14.130,15.255 14.300,15.128 14.516 C 15.037 14.672,15.020 14.746,15.020 15.000 C 15.020 15.257,15.036 15.327,15.133 15.492 C 15.651 16.374,16.998 16.018,16.998 15.000 C 16.998 14.623,16.792 14.281,16.463 14.112 C 16.265 14.010,15.911 13.984,15.695 14.055 M11.695 16.055 C 11.464 16.130,11.255 16.300,11.128 16.516 C 11.037 16.672,11.020 16.746,11.020 17.000 C 11.020 17.257,11.036 17.327,11.133 17.492 C 11.651 18.374,12.998 18.018,12.998 17.000 C 12.998 16.623,12.792 16.281,12.463 16.112 C 12.265 16.010,11.911 15.984,11.695 16.055 M7.695 18.055 C 7.464 18.130,7.255 18.300,7.128 18.516 C 7.037 18.672,7.020 18.746,7.020 19.000 C 7.020 19.257,7.036 19.327,7.133 19.492 C 7.651 20.374,8.998 20.018,8.998 19.000 C 8.998 18.623,8.792 18.281,8.463 18.112 C 8.265 18.010,7.911 17.984,7.695 18.055 M15.695 18.055 C 15.464 18.130,15.255 18.300,15.128 18.516 C 15.037 18.672,15.020 18.746,15.020 19.000 C 15.020 19.257,15.036 19.327,15.133 19.492 C 15.651 20.374,16.998 20.018,16.998 19.000 C 16.998 18.623,16.792 18.281,16.463 18.112 C 16.265 18.010,15.911 17.984,15.695 18.055 M11.695 20.055 C 11.464 20.130,11.255 20.300,11.128 20.516 C 11.037 20.672,11.020 20.746,11.020 21.000 C 11.020 21.257,11.036 21.327,11.133 21.492 C 11.651 22.374,12.998 22.018,12.998 21.000 C 12.998 20.623,12.792 20.281,12.463 20.112 C 12.265 20.010,11.911 19.984,11.695 20.055 " stroke="none" fill-rule="evenodd" fill="black"></path></svg>