<svg viewBox="0 0 24 24" xmlns="http://www.w3.org/2000/svg" fill="none" stroke="#000000" stroke-width="2" stroke-linecap="round" stroke-linejoin="round"><path d="M12.500 4.185 C 11.534 4.278,10.544 4.626,9.695 5.170 C 8.889 5.687,8.144 6.513,7.695 7.387 C 7.534 7.701,7.507 7.789,7.507 7.987 C 7.507 8.285,7.617 8.535,7.834 8.730 C 7.925 8.813,8.018 8.880,8.040 8.880 C 8.062 8.880,7.980 9.016,7.858 9.181 C 7.577 9.561,7.508 9.723,7.510 10.005 C 7.514 10.581,8.017 11.047,8.575 10.989 C 8.949 10.950,9.137 10.815,9.510 10.320 C 9.858 9.858,10.303 9.490,10.839 9.221 C 12.379 8.447,14.163 8.698,15.396 9.862 C 15.915 10.351,16.257 10.900,16.497 11.628 C 16.636 12.048,16.734 12.191,16.990 12.344 C 17.249 12.500,17.491 12.537,17.747 12.459 C 18.030 12.374,18.187 12.263,18.318 12.056 C 18.496 11.776,18.531 11.546,18.449 11.215 L 18.380 10.940 18.559 10.820 C 18.657 10.754,18.792 10.611,18.859 10.503 C 18.975 10.313,18.980 10.289,18.976 9.863 C 18.967 8.838,18.605 7.752,17.952 6.788 C 17.604 6.274,16.850 5.527,16.337 5.188 C 15.625 4.716,14.916 4.432,14.089 4.284 C 13.664 4.208,12.808 4.155,12.500 4.185 M13.795 6.265 C 14.546 6.399,15.250 6.772,15.814 7.336 C 16.026 7.548,16.360 7.961,16.360 8.011 C 16.360 8.025,16.217 7.937,16.043 7.817 C 15.649 7.546,15.040 7.238,14.623 7.099 C 13.299 6.658,11.809 6.675,10.605 7.144 C 10.465 7.199,10.342 7.235,10.332 7.225 C 10.303 7.196,10.707 6.891,10.995 6.725 C 11.882 6.216,12.733 6.076,13.795 6.265 M3.695 9.057 C 3.466 9.129,3.256 9.299,3.128 9.516 C 3.036 9.672,3.020 9.746,3.020 10.003 C 3.020 10.271,3.034 10.329,3.141 10.503 C 3.543 11.156,4.457 11.156,4.859 10.503 C 4.966 10.329,4.980 10.271,4.980 10.003 C 4.980 9.746,4.964 9.672,4.872 9.516 C 4.628 9.101,4.150 8.915,3.695 9.057 M3.695 13.057 C 3.466 13.129,3.256 13.299,3.128 13.516 C 3.037 13.672,3.020 13.746,3.020 14.000 C 3.020 14.256,3.036 14.328,3.131 14.489 C 3.256 14.702,3.449 14.864,3.670 14.943 C 3.893 15.022,20.107 15.022,20.330 14.943 C 20.551 14.864,20.744 14.702,20.869 14.489 C 20.964 14.328,20.980 14.256,20.980 14.000 C 20.980 13.746,20.963 13.672,20.872 13.516 C 20.740 13.293,20.533 13.128,20.290 13.055 C 20.027 12.976,3.947 12.978,3.695 13.057 M3.695 17.057 C 3.466 17.129,3.256 17.299,3.128 17.516 C 3.037 17.672,3.020 17.746,3.020 18.000 C 3.020 18.256,3.036 18.328,3.131 18.489 C 3.256 18.702,3.449 18.864,3.670 18.943 C 3.893 19.022,20.107 19.022,20.330 18.943 C 20.551 18.864,20.744 18.702,20.869 18.489 C 20.964 18.328,20.980 18.256,20.980 18.000 C 20.980 17.746,20.963 17.672,20.872 17.516 C 20.740 17.293,20.533 17.128,20.290 17.055 C 20.027 16.976,3.947 16.978,3.695 17.057 " stroke="none" fill-rule="evenodd" fill="black"></path></svg>