<svg viewBox="0 0 24 24" xmlns="http://www.w3.org/2000/svg" fill="none" stroke="#000000" stroke-width="2" stroke-linecap="round" stroke-linejoin="round"><path d="M11.400 1.044 C 9.761 1.229,8.261 2.290,7.526 3.785 C 7.158 4.533,7.020 5.136,7.020 6.000 C 7.020 6.670,7.078 7.044,7.268 7.600 C 7.511 8.312,7.874 8.903,8.417 9.472 C 8.712 9.781,8.750 9.834,8.619 9.751 C 7.715 9.184,6.606 8.927,5.530 9.036 C 4.579 9.132,3.846 9.408,3.068 9.963 C 2.067 10.677,1.364 11.771,1.093 13.040 C 0.992 13.511,0.992 14.489,1.093 14.960 C 1.526 16.984,3.016 18.474,5.040 18.907 C 5.511 19.008,6.489 19.008,6.960 18.907 C 8.488 18.580,9.748 17.630,10.433 16.288 C 10.718 15.728,10.860 15.275,10.973 14.560 C 10.982 14.505,10.992 15.932,10.995 17.730 L 11.000 21.000 10.446 21.000 C 9.648 21.000,9.367 21.110,9.128 21.516 C 9.037 21.672,9.020 21.746,9.020 22.000 C 9.020 22.256,9.036 22.328,9.131 22.489 C 9.256 22.702,9.449 22.864,9.670 22.943 C 9.889 23.021,14.111 23.021,14.330 22.943 C 14.551 22.864,14.744 22.702,14.869 22.489 C 14.964 22.328,14.980 22.256,14.980 22.000 C 14.980 21.746,14.963 21.672,14.872 21.516 C 14.633 21.110,14.352 21.000,13.554 21.000 L 13.000 21.000 13.005 17.730 C 13.008 15.932,13.018 14.505,13.027 14.560 C 13.087 14.941,13.180 15.343,13.268 15.600 C 13.846 17.291,15.253 18.525,17.040 18.907 C 17.511 19.008,18.489 19.008,18.960 18.907 C 20.488 18.580,21.748 17.630,22.433 16.288 C 22.838 15.494,22.980 14.899,22.980 14.000 C 22.980 13.101,22.838 12.506,22.433 11.713 C 21.794 10.461,20.610 9.514,19.240 9.161 C 18.306 8.920,17.125 8.983,16.247 9.320 C 15.982 9.422,15.499 9.663,15.340 9.773 C 15.274 9.819,15.382 9.685,15.580 9.476 C 16.275 8.743,16.697 7.943,16.907 6.960 C 16.960 6.714,16.980 6.448,16.980 6.000 C 16.980 5.101,16.838 4.506,16.433 3.713 C 15.794 2.461,14.604 1.510,13.240 1.162 C 12.669 1.016,12.019 0.974,11.400 1.044 M12.861 3.129 C 13.804 3.405,14.584 4.183,14.875 5.139 C 14.958 5.412,14.973 5.542,14.973 6.000 C 14.973 6.458,14.958 6.588,14.875 6.861 C 14.582 7.822,13.819 8.581,12.840 8.886 C 12.406 9.021,11.594 9.021,11.160 8.886 C 10.181 8.581,9.418 7.822,9.125 6.861 C 9.042 6.588,9.027 6.458,9.027 6.000 C 9.027 5.542,9.042 5.412,9.125 5.139 C 9.456 4.054,10.371 3.245,11.499 3.040 C 11.832 2.980,12.500 3.023,12.861 3.129 M10.400 10.733 C 10.961 10.923,11.332 10.980,12.000 10.980 C 12.911 10.980,13.506 10.836,14.312 10.418 L 14.725 10.205 14.388 10.558 C 13.602 11.384,13.148 12.377,13.016 13.560 C 12.992 13.774,12.981 13.800,12.957 13.711 C 12.870 13.392,12.564 13.114,12.214 13.035 C 11.714 12.923,11.172 13.236,11.043 13.711 C 11.019 13.800,11.008 13.774,10.984 13.560 C 10.852 12.381,10.396 11.384,9.608 10.554 L 9.275 10.205 9.688 10.418 C 9.914 10.536,10.235 10.677,10.400 10.733 M6.861 11.129 C 7.804 11.405,8.584 12.183,8.875 13.139 C 8.958 13.412,8.973 13.542,8.973 14.000 C 8.973 14.458,8.958 14.588,8.875 14.861 C 8.582 15.822,7.819 16.581,6.840 16.886 C 6.406 17.021,5.594 17.021,5.160 16.886 C 4.181 16.581,3.418 15.822,3.125 14.861 C 3.042 14.588,3.027 14.458,3.027 14.000 C 3.027 13.542,3.042 13.412,3.125 13.139 C 3.456 12.054,4.371 11.245,5.499 11.040 C 5.832 10.980,6.500 11.023,6.861 11.129 M18.861 11.129 C 19.804 11.405,20.584 12.183,20.875 13.139 C 20.958 13.412,20.973 13.542,20.973 14.000 C 20.973 14.458,20.958 14.588,20.875 14.861 C 20.582 15.822,19.819 16.581,18.840 16.886 C 18.406 17.021,17.594 17.021,17.160 16.886 C 16.181 16.581,15.418 15.822,15.125 14.861 C 15.042 14.588,15.027 14.458,15.027 14.000 C 15.027 13.542,15.042 13.412,15.125 13.139 C 15.456 12.054,16.371 11.245,17.499 11.040 C 17.832 10.980,18.500 11.023,18.861 11.129 " stroke="none" fill-rule="evenodd" fill="black"></path></svg>