<svg viewBox="0 0 24 24" xmlns="http://www.w3.org/2000/svg" fill="none" stroke="#000000" stroke-width="2" stroke-linecap="round" stroke-linejoin="round"><path d="M7.207 0.043 C 5.656 0.193,4.096 0.846,2.900 1.847 C 1.985 2.612,1.307 3.477,0.800 4.529 C -0.265 6.733,-0.265 9.267,0.800 11.471 C 1.197 12.294,1.611 12.886,2.259 13.554 C 2.718 14.028,3.104 14.351,3.620 14.690 L 3.980 14.927 4.001 17.754 L 4.021 20.580 4.115 20.860 C 4.444 21.848,5.184 22.582,6.160 22.886 L 6.460 22.980 11.000 22.980 L 15.540 22.980 15.840 22.886 C 16.817 22.581,17.563 21.842,17.884 20.860 C 17.970 20.595,17.976 20.506,17.991 19.230 L 18.006 17.880 18.434 17.880 C 19.355 17.880,20.435 17.663,21.442 17.277 C 21.783 17.145,21.989 16.964,22.117 16.680 C 22.284 16.310,22.176 15.843,21.859 15.565 C 21.522 15.269,21.181 15.242,20.574 15.461 C 19.825 15.732,19.052 15.880,18.384 15.880 L 18.007 15.880 17.994 15.290 C 17.981 14.732,17.974 14.690,17.871 14.514 C 17.479 13.848,16.520 13.848,16.130 14.513 C 16.035 14.676,16.019 14.751,16.006 15.109 C 15.998 15.335,15.983 15.520,15.972 15.520 C 15.962 15.520,15.771 15.448,15.547 15.361 C 14.889 15.104,14.123 14.628,13.548 14.120 L 13.357 13.950 13.750 13.545 C 14.388 12.887,14.805 12.291,15.200 11.471 C 16.265 9.267,16.265 6.733,15.200 4.529 C 14.693 3.477,14.015 2.612,13.100 1.847 C 11.483 0.494,9.337 -0.163,7.207 0.043 M8.564 2.039 C 10.921 2.269,12.913 3.837,13.671 6.060 C 14.168 7.517,14.068 9.251,13.410 10.580 C 12.550 12.316,11.056 13.478,9.160 13.885 C 8.810 13.960,8.617 13.975,8.000 13.975 C 7.236 13.975,6.778 13.912,6.226 13.729 L 6.020 13.660 6.000 10.680 L 5.980 7.700 5.871 7.514 C 5.479 6.848,4.521 6.848,4.129 7.514 L 4.020 7.700 4.000 10.079 L 3.980 12.458 3.726 12.199 C 2.316 10.762,1.726 8.719,2.143 6.720 C 2.560 4.724,4.101 2.997,6.060 2.329 C 6.864 2.054,7.712 1.957,8.564 2.039 M12.102 15.496 C 13.210 16.497,14.189 17.059,15.570 17.487 L 16.000 17.620 16.000 18.864 C 16.000 20.217,15.983 20.350,15.779 20.618 C 15.718 20.698,15.585 20.813,15.484 20.872 L 15.300 20.980 11.000 20.980 L 6.700 20.980 6.516 20.872 C 6.415 20.813,6.284 20.700,6.225 20.623 C 5.999 20.327,6.000 20.338,6.000 17.955 C 6.000 16.748,6.006 15.760,6.014 15.760 C 6.021 15.760,6.197 15.795,6.404 15.838 C 7.457 16.055,8.543 16.053,9.620 15.833 C 10.133 15.728,10.891 15.480,11.300 15.282 C 11.476 15.197,11.635 15.125,11.653 15.123 C 11.672 15.122,11.874 15.289,12.102 15.496 " stroke="none" fill-rule="evenodd" fill="black"></path></svg>