<svg viewBox="0 0 24 24" xmlns="http://www.w3.org/2000/svg" fill="none" stroke="#000000" stroke-width="2" stroke-linecap="round" stroke-linejoin="round"><path d="M14.207 1.043 C 11.804 1.275,9.612 2.620,8.264 4.689 C 7.953 5.166,7.594 5.924,7.405 6.500 C 7.249 6.979,7.080 7.703,7.080 7.898 C 7.080 7.983,7.062 8.000,6.967 8.000 C 6.905 8.000,6.766 8.029,6.657 8.065 C 6.478 8.124,6.217 8.372,3.847 10.735 C 2.368 12.210,1.188 13.418,1.127 13.520 C 1.036 13.672,1.020 13.746,1.020 14.000 C 1.020 14.257,1.036 14.327,1.133 14.492 C 1.263 14.714,1.502 14.901,1.736 14.965 C 1.938 15.019,2.267 14.989,2.445 14.899 C 2.519 14.862,3.598 13.816,4.842 12.575 L 7.103 10.318 7.175 10.663 C 7.250 11.024,7.448 11.670,7.594 12.030 C 7.676 12.232,7.661 12.302,7.562 12.183 C 7.497 12.104,7.176 12.000,7.000 12.000 C 6.920 12.000,6.766 12.029,6.657 12.065 C 6.478 12.124,6.217 12.372,3.847 14.735 C 2.368 16.210,1.188 17.418,1.127 17.520 C 1.036 17.672,1.020 17.746,1.020 18.000 C 1.020 18.257,1.036 18.327,1.133 18.492 C 1.413 18.968,2.033 19.139,2.492 18.865 C 2.707 18.737,7.810 13.624,7.898 13.448 C 7.934 13.375,7.975 13.227,7.988 13.118 L 8.011 12.920 8.246 13.283 C 8.375 13.483,8.545 13.730,8.623 13.832 L 8.765 14.019 8.593 14.091 C 8.459 14.148,7.830 14.753,5.827 16.752 C 4.368 18.209,3.188 19.419,3.127 19.520 C 3.036 19.672,3.020 19.746,3.020 20.000 C 3.020 20.257,3.036 20.327,3.133 20.492 C 3.413 20.968,4.033 21.139,4.492 20.865 C 4.584 20.810,5.825 19.599,7.248 18.173 C 9.170 16.248,9.856 15.536,9.912 15.410 L 9.988 15.239 10.165 15.375 C 10.534 15.656,11.053 15.971,11.529 16.200 C 14.259 17.519,17.467 17.184,19.900 15.326 C 20.239 15.067,20.925 14.394,21.211 14.040 C 23.163 11.625,23.547 8.317,22.200 5.529 C 21.693 4.477,21.015 3.612,20.100 2.847 C 18.483 1.494,16.337 0.837,14.207 1.043 M15.605 5.058 C 17.074 5.280,18.310 6.324,18.797 7.755 C 18.897 8.050,19.000 8.680,19.000 9.000 C 19.000 9.322,18.897 9.951,18.796 10.245 C 18.321 11.632,17.195 12.628,15.773 12.917 C 13.563 13.368,11.396 11.845,11.058 9.605 C 10.986 9.121,10.986 8.879,11.058 8.395 C 11.314 6.698,12.675 5.324,14.358 5.061 C 14.816 4.990,15.144 4.989,15.605 5.058 " stroke="none" fill-rule="evenodd" fill="black"></path></svg>