<svg viewBox="0 0 24 24" xmlns="http://www.w3.org/2000/svg" fill="none" stroke="#000000" stroke-width="2" stroke-linecap="round" stroke-linejoin="round"><path d="M11.280 1.026 C 9.617 1.179,8.507 1.476,7.180 2.120 C 6.045 2.671,5.193 3.285,4.238 4.239 C 3.277 5.198,2.643 6.080,2.097 7.220 C 0.301 10.968,0.728 15.286,3.226 18.633 C 3.686 19.248,4.752 20.314,5.367 20.774 C 7.433 22.315,9.836 23.073,12.380 22.986 C 14.043 22.929,15.364 22.594,16.900 21.840 C 17.965 21.317,18.769 20.743,19.674 19.861 C 20.607 18.951,21.293 18.014,21.840 16.900 C 22.598 15.357,22.931 14.040,22.987 12.360 C 23.072 9.829,22.311 7.427,20.770 5.363 C 20.316 4.755,19.247 3.686,18.640 3.235 C 16.963 1.988,15.207 1.296,13.120 1.061 C 12.644 1.007,11.679 0.989,11.280 1.026 M11.000 12.013 L 11.000 20.947 10.750 20.914 C 9.539 20.754,8.061 20.195,7.040 19.511 C 5.689 18.606,4.618 17.380,3.920 15.940 C 3.487 15.047,3.246 14.271,3.094 13.280 C 2.997 12.646,2.997 11.354,3.094 10.720 C 3.494 8.105,4.917 5.885,7.120 4.440 C 7.944 3.900,9.191 3.386,10.120 3.205 C 10.351 3.160,10.576 3.115,10.620 3.106 C 10.664 3.097,10.768 3.087,10.850 3.085 L 11.000 3.080 11.000 12.013 M13.400 3.157 C 15.995 3.733,18.581 5.694,19.925 8.105 C 20.912 9.877,21.200 11.628,20.837 13.645 C 20.371 16.236,18.673 18.579,16.320 19.877 C 15.388 20.392,14.180 20.793,13.230 20.904 L 13.000 20.931 13.000 12.006 C 13.000 7.096,13.013 3.080,13.030 3.081 C 13.047 3.081,13.213 3.116,13.400 3.157 " stroke="none" fill-rule="evenodd" fill="black"></path></svg>