<svg viewBox="0 0 24 24" xmlns="http://www.w3.org/2000/svg" fill="none" stroke="#000000" stroke-width="2" stroke-linecap="round" stroke-linejoin="round"><path d="M3.695 1.057 C 3.466 1.129,3.256 1.299,3.128 1.516 L 3.020 1.700 3.010 11.350 L 2.999 21.000 2.446 21.000 C 1.648 21.000,1.367 21.110,1.128 21.516 C 1.037 21.672,1.020 21.746,1.020 22.000 C 1.020 22.256,1.036 22.328,1.131 22.489 C 1.256 22.702,1.449 22.864,1.670 22.943 C 1.889 23.021,6.111 23.021,6.330 22.943 C 6.551 22.864,6.744 22.702,6.869 22.489 C 6.964 22.328,6.980 22.256,6.980 22.000 C 6.980 21.746,6.963 21.672,6.872 21.516 C 6.633 21.110,6.352 21.000,5.554 21.000 L 5.000 21.000 5.000 18.450 L 5.000 15.900 12.890 15.025 C 17.230 14.544,20.829 14.141,20.890 14.130 L 21.000 14.110 21.000 17.555 L 21.000 21.000 19.446 21.000 C 17.758 21.000,17.658 21.011,17.382 21.221 C 17.229 21.338,17.040 21.621,17.040 21.734 C 17.040 21.770,17.022 21.800,17.000 21.800 C 16.978 21.800,16.960 21.770,16.960 21.734 C 16.960 21.621,16.771 21.338,16.618 21.221 C 16.333 21.004,16.287 21.000,14.000 21.000 C 11.713 21.000,11.667 21.004,11.382 21.221 C 11.302 21.282,11.187 21.415,11.128 21.516 C 11.037 21.672,11.020 21.746,11.020 22.000 C 11.020 22.257,11.036 22.327,11.133 22.492 C 11.261 22.711,11.502 22.901,11.725 22.961 C 11.824 22.988,12.663 22.999,14.089 22.991 L 16.300 22.980 16.492 22.867 C 16.700 22.745,16.913 22.485,16.948 22.310 C 16.960 22.249,16.983 22.200,17.000 22.200 C 17.017 22.200,17.040 22.249,17.052 22.310 C 17.087 22.485,17.300 22.745,17.508 22.867 L 17.700 22.980 20.850 22.991 L 24.000 23.002 24.000 22.001 L 24.000 21.000 23.500 21.000 L 23.000 21.000 23.000 16.890 L 22.999 12.780 22.906 12.579 C 22.854 12.469,22.751 12.327,22.676 12.265 C 22.433 12.061,4.466 1.110,4.284 1.054 C 4.069 0.988,3.912 0.989,3.695 1.057 M11.990 8.059 C 15.802 10.387,18.920 12.302,18.920 12.316 C 18.920 12.329,15.855 12.680,12.110 13.096 C 8.364 13.512,5.232 13.860,5.150 13.871 L 5.000 13.891 5.000 8.843 C 5.000 6.067,5.014 3.802,5.030 3.811 C 5.046 3.820,8.178 5.731,11.990 8.059 " stroke="none" fill-rule="evenodd" fill="black"></path></svg>