<svg viewBox="0 0 24 24" xmlns="http://www.w3.org/2000/svg" fill="none" stroke="#000000" stroke-width="2" stroke-linecap="round" stroke-linejoin="round"><path d="M6.499 6.043 C 5.379 6.233,4.461 7.048,4.114 8.160 L 4.020 8.460 4.020 14.000 L 4.020 19.540 4.114 19.840 C 4.422 20.827,5.173 21.578,6.160 21.886 L 6.460 21.980 12.000 21.980 L 17.540 21.980 17.840 21.886 C 18.817 21.581,19.560 20.845,19.884 19.860 C 19.974 19.587,19.977 19.533,19.991 17.795 L 20.005 16.009 20.793 15.991 C 21.497 15.974,21.613 15.961,21.887 15.871 C 22.849 15.555,23.584 14.808,23.886 13.840 C 23.978 13.547,23.980 13.503,23.980 12.000 C 23.980 10.497,23.978 10.453,23.886 10.160 C 23.580 9.180,22.820 8.416,21.861 8.125 C 21.577 8.040,21.442 8.026,20.694 8.010 L 19.849 7.991 19.686 7.666 C 19.323 6.940,18.649 6.370,17.861 6.121 L 17.540 6.020 12.120 6.014 C 9.139 6.011,6.609 6.024,6.499 6.043 M17.310 8.061 C 17.589 8.144,17.856 8.411,17.939 8.690 C 17.992 8.868,18.000 9.546,18.000 14.001 C 18.000 18.212,17.990 19.139,17.945 19.290 C 17.872 19.533,17.707 19.740,17.484 19.872 L 17.300 19.980 12.000 19.980 L 6.700 19.980 6.516 19.872 C 6.303 19.747,6.141 19.550,6.058 19.316 C 5.969 19.061,5.971 8.993,6.061 8.690 C 6.140 8.421,6.412 8.143,6.673 8.063 C 6.963 7.974,17.010 7.972,17.310 8.061 M21.310 10.061 C 21.589 10.144,21.856 10.411,21.939 10.690 C 22.023 10.972,22.028 13.015,21.945 13.290 C 21.872 13.533,21.707 13.740,21.484 13.872 C 21.308 13.975,21.272 13.981,20.650 13.993 L 20.000 14.007 20.000 12.003 L 20.000 10.000 20.553 10.000 C 20.931 10.000,21.170 10.019,21.310 10.061 M8.695 12.057 C 8.466 12.129,8.256 12.299,8.128 12.516 C 8.037 12.672,8.020 12.746,8.020 13.000 C 8.020 13.256,8.036 13.328,8.131 13.489 C 8.256 13.702,8.449 13.864,8.670 13.943 C 8.891 14.022,15.109 14.022,15.330 13.943 C 15.551 13.864,15.744 13.702,15.869 13.489 C 15.964 13.328,15.980 13.256,15.980 13.000 C 15.980 12.746,15.963 12.672,15.872 12.516 C 15.740 12.293,15.533 12.128,15.290 12.055 C 15.030 11.977,8.945 11.979,8.695 12.057 " stroke="none" fill-rule="evenodd" fill="black"></path></svg>