<svg viewBox="0 0 24 24" xmlns="http://www.w3.org/2000/svg" fill="none" stroke="#000000" stroke-width="2" stroke-linecap="round" stroke-linejoin="round"><path d="M11.695 1.057 C 11.466 1.129,11.256 1.299,11.128 1.516 L 11.020 1.700 11.000 3.140 L 10.980 4.580 10.880 4.591 C 10.160 4.672,9.016 5.125,8.373 5.584 C 7.056 6.523,6.302 7.853,6.039 9.700 C 6.006 9.931,5.997 11.496,6.007 15.300 L 6.020 20.580 6.114 20.860 C 6.446 21.851,7.184 22.582,8.160 22.886 L 8.460 22.980 12.000 22.980 L 15.540 22.980 15.840 22.886 C 16.816 22.582,17.554 21.851,17.886 20.860 L 17.980 20.580 17.993 15.300 C 18.003 11.496,17.994 9.931,17.961 9.700 C 17.698 7.857,16.941 6.521,15.627 5.584 C 14.984 5.125,13.840 4.672,13.120 4.591 L 13.020 4.580 13.000 3.140 L 12.980 1.700 12.872 1.516 C 12.628 1.101,12.150 0.915,11.695 1.057 M13.251 6.654 C 14.775 7.052,15.757 8.222,15.959 9.879 C 15.985 10.095,16.000 12.013,16.000 15.163 C 16.000 19.237,15.990 20.139,15.945 20.290 C 15.872 20.533,15.707 20.740,15.484 20.872 L 15.300 20.980 12.000 20.980 L 8.700 20.980 8.516 20.872 C 8.415 20.813,8.284 20.700,8.225 20.623 C 7.988 20.313,8.000 20.593,8.000 15.184 C 8.000 12.019,8.015 10.095,8.041 9.879 C 8.209 8.501,8.885 7.492,10.020 6.925 C 10.649 6.611,11.148 6.520,12.140 6.538 C 12.755 6.550,12.917 6.566,13.251 6.654 " stroke="none" fill-rule="evenodd" fill="black"></path></svg>