<svg viewBox="0 0 24 24" xmlns="http://www.w3.org/2000/svg" fill="none" stroke="#000000" stroke-width="2" stroke-linecap="round" stroke-linejoin="round"><path d="M11.477 4.073 C 10.806 4.249,10.238 4.823,10.060 5.508 C 9.941 5.962,10.003 6.492,10.225 6.930 C 10.361 7.199,10.801 7.639,11.070 7.775 C 11.659 8.073,12.341 8.073,12.930 7.775 C 13.196 7.640,13.638 7.200,13.771 6.937 C 13.994 6.498,14.052 6.007,13.940 5.529 C 13.858 5.182,13.720 4.927,13.465 4.653 C 12.948 4.097,12.211 3.882,11.477 4.073 M6.477 7.073 C 5.806 7.249,5.238 7.823,5.060 8.508 C 4.941 8.962,5.003 9.492,5.225 9.930 C 5.361 10.199,5.801 10.639,6.070 10.775 C 6.657 11.073,7.345 11.071,7.937 10.771 C 8.197 10.639,8.639 10.197,8.771 9.937 C 8.994 9.498,9.052 9.007,8.940 8.529 C 8.858 8.182,8.720 7.927,8.465 7.653 C 8.074 7.232,7.560 7.005,7.000 7.005 C 6.857 7.005,6.622 7.036,6.477 7.073 M16.477 7.073 C 15.806 7.249,15.238 7.823,15.060 8.508 C 14.941 8.962,15.003 9.492,15.225 9.930 C 15.361 10.199,15.801 10.639,16.070 10.775 C 16.659 11.073,17.341 11.073,17.930 10.775 C 18.196 10.640,18.638 10.200,18.771 9.937 C 18.994 9.498,19.052 9.007,18.940 8.529 C 18.858 8.182,18.720 7.927,18.465 7.653 C 18.074 7.232,17.560 7.005,17.000 7.005 C 16.857 7.005,16.622 7.036,16.477 7.073 M11.499 9.040 C 10.363 9.246,9.460 10.049,9.114 11.160 C 8.979 11.594,8.979 12.406,9.114 12.840 C 9.421 13.826,10.174 14.579,11.160 14.886 C 11.594 15.021,12.406 15.021,12.840 14.886 C 13.826 14.579,14.579 13.826,14.886 12.840 C 15.021 12.406,15.021 11.594,14.886 11.160 C 14.581 10.179,13.810 9.407,12.861 9.129 C 12.500 9.023,11.832 8.980,11.499 9.040 M12.310 11.061 C 12.688 11.173,13.000 11.598,13.000 12.001 C 13.000 12.331,12.784 12.696,12.484 12.872 C 12.328 12.963,12.254 12.980,12.000 12.980 C 11.746 12.980,11.672 12.963,11.516 12.872 C 10.935 12.530,10.833 11.774,11.304 11.303 C 11.583 11.024,11.916 10.944,12.310 11.061 M6.477 13.073 C 5.806 13.249,5.238 13.823,5.060 14.508 C 4.941 14.962,5.003 15.492,5.225 15.930 C 5.361 16.199,5.801 16.639,6.070 16.775 C 6.657 17.073,7.345 17.071,7.937 16.771 C 8.197 16.639,8.639 16.197,8.771 15.937 C 8.994 15.498,9.052 15.007,8.940 14.529 C 8.858 14.182,8.720 13.927,8.465 13.653 C 8.074 13.232,7.560 13.005,7.000 13.005 C 6.857 13.005,6.622 13.036,6.477 13.073 M16.477 13.073 C 15.806 13.249,15.238 13.823,15.060 14.508 C 14.941 14.962,15.003 15.492,15.225 15.930 C 15.361 16.199,15.801 16.639,16.070 16.775 C 16.659 17.073,17.341 17.073,17.930 16.775 C 18.196 16.640,18.638 16.200,18.771 15.937 C 18.994 15.498,19.052 15.007,18.940 14.529 C 18.858 14.182,18.720 13.927,18.465 13.653 C 18.074 13.232,17.560 13.005,17.000 13.005 C 16.857 13.005,16.622 13.036,16.477 13.073 M11.477 16.073 C 10.806 16.249,10.238 16.823,10.060 17.508 C 9.941 17.962,10.003 18.492,10.225 18.930 C 10.361 19.199,10.801 19.639,11.070 19.775 C 11.659 20.073,12.341 20.073,12.930 19.775 C 13.196 19.640,13.638 19.200,13.771 18.937 C 13.994 18.498,14.052 18.007,13.940 17.529 C 13.858 17.182,13.720 16.927,13.465 16.653 C 13.074 16.232,12.560 16.005,12.000 16.005 C 11.857 16.005,11.622 16.036,11.477 16.073 " stroke="none" fill="black" fill-rule="evenodd"></path></svg>