<svg viewBox="0 0 24 24" xmlns="http://www.w3.org/2000/svg" fill="none" stroke="#000000" stroke-width="2" stroke-linecap="round" stroke-linejoin="round"><path d="M6.467 6.062 C 3.653 6.445,1.239 8.327,0.160 10.980 L 0.000 11.373 0.000 13.968 L 0.000 16.563 0.142 16.932 C 0.634 18.208,1.592 19.480,2.687 20.312 C 3.034 20.575,3.039 20.582,3.123 20.859 C 3.408 21.805,4.156 22.556,5.140 22.886 L 5.420 22.980 10.272 22.991 C 13.491 22.998,15.175 22.988,15.276 22.961 C 15.498 22.901,15.739 22.710,15.867 22.492 C 15.964 22.327,15.980 22.257,15.980 22.000 C 15.980 21.746,15.963 21.672,15.872 21.516 C 15.761 21.328,15.572 21.158,15.373 21.070 C 15.285 21.031,14.184 21.015,10.480 21.000 L 5.700 20.980 5.516 20.872 C 5.209 20.691,5.000 20.339,5.000 20.000 C 5.000 19.813,4.913 19.562,4.793 19.399 C 4.743 19.331,4.521 19.152,4.301 19.001 C 3.316 18.328,2.744 17.687,2.233 16.687 C 1.063 14.395,1.498 11.595,3.309 9.770 C 4.249 8.823,5.478 8.211,6.794 8.036 C 7.293 7.969,8.363 8.011,8.824 8.116 C 9.990 8.380,10.963 8.916,11.802 9.757 C 12.950 10.907,13.560 12.366,13.560 13.965 C 13.560 14.717,13.434 15.390,13.140 16.212 C 12.985 16.646,12.970 16.817,13.063 17.091 C 13.196 17.482,13.685 17.792,14.091 17.746 C 14.353 17.715,14.664 17.538,14.799 17.342 C 15.007 17.038,15.320 16.084,15.465 15.312 C 15.562 14.797,15.583 13.523,15.504 12.960 C 15.086 9.982,13.183 7.573,10.400 6.498 C 9.908 6.308,9.212 6.133,8.657 6.060 C 8.096 5.987,7.012 5.988,6.467 6.062 M5.695 11.057 C 5.466 11.129,5.256 11.299,5.128 11.516 C 5.037 11.672,5.020 11.746,5.020 12.000 C 5.020 12.256,5.036 12.328,5.131 12.489 C 5.256 12.702,5.449 12.864,5.670 12.943 C 5.889 13.021,10.111 13.021,10.330 12.943 C 10.551 12.864,10.744 12.702,10.869 12.489 C 10.964 12.328,10.980 12.256,10.980 12.000 C 10.980 11.746,10.963 11.672,10.872 11.516 C 10.740 11.293,10.533 11.128,10.290 11.055 C 10.033 10.978,5.943 10.979,5.695 11.057 " stroke="none" fill-rule="evenodd" fill="black"></path></svg>