<svg viewBox="0 0 24 24" xmlns="http://www.w3.org/2000/svg" fill="none" stroke="#000000" stroke-width="2" stroke-linecap="round" stroke-linejoin="round"><path d="M8.695 4.057 C 8.466 4.129,8.256 4.299,8.128 4.516 L 8.020 4.700 8.009 7.687 L 7.998 10.675 7.769 10.740 C 6.435 11.120,6.332 11.168,6.140 11.496 C 5.832 12.022,6.092 12.740,6.660 12.934 C 6.931 13.026,7.079 13.017,7.560 12.880 C 7.791 12.814,7.983 12.760,7.987 12.760 C 7.992 12.760,8.001 13.620,8.009 14.670 C 8.023 16.540,8.025 16.586,8.115 16.860 C 8.438 17.835,9.161 18.558,10.140 18.886 L 10.420 18.979 13.770 18.991 C 15.990 18.999,17.172 18.989,17.274 18.962 C 17.498 18.901,17.739 18.711,17.867 18.492 C 17.964 18.327,17.980 18.257,17.980 18.000 C 17.980 17.746,17.963 17.672,17.872 17.516 C 17.761 17.328,17.572 17.158,17.373 17.070 C 17.287 17.032,16.483 17.015,13.980 17.000 L 10.700 16.980 10.516 16.872 C 10.415 16.813,10.284 16.700,10.225 16.623 C 10.001 16.329,10.000 16.320,10.000 14.165 L 10.001 12.180 11.890 11.643 C 14.579 10.879,14.495 10.907,14.697 10.705 C 15.091 10.311,15.094 9.692,14.704 9.302 C 14.532 9.131,14.221 9.000,13.985 9.000 C 13.916 9.000,13.009 9.243,11.970 9.540 C 10.931 9.837,10.064 10.080,10.042 10.080 C 10.016 10.080,9.998 9.130,9.991 7.390 L 9.980 4.700 9.872 4.516 C 9.628 4.101,9.150 3.915,8.695 4.057 " stroke="none" fill-rule="evenodd" fill="black"></path></svg>