<svg viewBox="0 0 24 24" xmlns="http://www.w3.org/2000/svg" fill="none" stroke="#000000" stroke-width="2" stroke-linecap="round" stroke-linejoin="round"><path d="M11.280 1.023 C 11.203 1.032,10.951 1.059,10.720 1.083 C 8.832 1.283,6.991 2.023,5.360 3.235 C 4.751 3.688,3.684 4.755,3.226 5.367 C 0.728 8.714,0.301 13.032,2.097 16.780 C 2.643 17.918,3.276 18.801,4.238 19.762 C 5.573 21.098,6.968 21.947,8.738 22.502 C 9.055 22.602,9.273 22.697,9.389 22.785 C 9.663 22.994,10.010 23.054,10.320 22.947 C 10.420 22.912,10.533 22.909,10.720 22.935 C 11.057 22.983,12.943 22.983,13.280 22.935 C 13.467 22.909,13.580 22.912,13.680 22.947 C 13.990 23.054,14.337 22.994,14.611 22.785 C 14.727 22.697,14.945 22.602,15.262 22.502 C 16.497 22.115,17.580 21.559,18.637 20.770 C 19.246 20.316,20.316 19.246,20.770 18.637 C 23.744 14.652,23.744 9.348,20.770 5.363 C 20.316 4.755,19.247 3.686,18.640 3.235 C 17.045 2.049,15.365 1.360,13.423 1.096 C 13.000 1.038,11.574 0.990,11.280 1.023 M12.803 3.044 C 13.066 3.067,13.329 3.100,13.388 3.116 L 13.494 3.144 13.367 3.235 C 13.297 3.285,13.191 3.410,13.130 3.513 L 13.020 3.700 13.008 4.850 L 12.995 6.000 12.444 6.000 C 11.831 6.000,11.612 6.045,11.382 6.221 C 11.230 6.337,11.046 6.611,11.031 6.744 C 11.027 6.786,11.013 6.118,11.001 5.260 C 10.977 3.511,10.987 3.567,10.671 3.273 L 10.513 3.126 10.700 3.098 C 11.352 3.000,12.112 2.980,12.803 3.044 M9.119 3.490 C 9.119 3.496,9.093 3.572,9.061 3.660 C 8.980 3.886,8.976 7.103,9.057 7.330 C 9.136 7.551,9.298 7.744,9.511 7.869 C 9.672 7.964,9.744 7.980,10.000 7.980 C 10.256 7.980,10.328 7.964,10.489 7.869 C 10.702 7.744,10.864 7.551,10.943 7.330 C 10.989 7.202,10.997 7.527,10.998 9.590 L 11.000 12.000 9.446 12.000 C 7.758 12.000,7.658 12.011,7.382 12.221 C 7.302 12.282,7.187 12.415,7.128 12.516 C 7.037 12.672,7.020 12.746,7.020 13.000 C 7.020 13.256,7.036 13.328,7.131 13.489 C 7.192 13.592,7.304 13.725,7.381 13.783 C 7.654 13.991,7.700 13.996,9.410 13.998 L 11.000 14.000 10.997 16.410 C 10.995 17.741,10.978 18.771,10.960 18.711 C 10.862 18.384,10.563 18.113,10.214 18.035 C 9.792 17.941,9.352 18.134,9.129 18.514 C 9.020 18.699,9.020 18.703,9.007 19.590 C 9.000 20.079,8.987 20.480,8.978 20.480 C 8.909 20.480,8.252 20.189,7.856 19.982 C 6.129 19.084,4.765 17.684,3.920 15.940 C 3.280 14.621,3.023 13.493,3.023 12.000 C 3.023 10.507,3.280 9.379,3.920 8.060 C 4.888 6.063,6.568 4.494,8.636 3.655 C 9.029 3.495,9.121 3.464,9.119 3.490 M15.290 3.625 C 17.979 4.679,20.053 7.046,20.733 9.840 C 20.919 10.603,20.977 11.112,20.977 12.000 C 20.977 13.493,20.720 14.621,20.080 15.940 C 19.243 17.666,17.878 19.076,16.188 19.960 C 15.808 20.159,15.089 20.480,15.025 20.480 C 15.014 20.480,15.000 20.079,14.993 19.590 C 14.980 18.703,14.980 18.699,14.871 18.514 C 14.648 18.134,14.208 17.941,13.786 18.035 C 13.437 18.113,13.138 18.384,13.040 18.711 C 13.022 18.771,13.005 17.743,13.003 16.413 L 13.000 14.006 14.910 13.989 C 16.668 13.973,16.847 13.965,17.163 13.889 C 18.448 13.579,19.310 12.853,19.716 11.738 C 19.929 11.150,19.979 10.818,19.977 9.980 C 19.975 9.136,19.917 8.780,19.684 8.177 C 19.354 7.322,18.648 6.627,17.770 6.294 C 17.250 6.096,16.849 6.036,15.890 6.012 L 15.000 5.989 14.998 4.905 C 14.997 4.064,14.983 3.784,14.939 3.660 C 14.907 3.572,14.881 3.496,14.881 3.490 C 14.879 3.467,14.937 3.486,15.290 3.625 M16.539 8.042 C 16.706 8.066,16.919 8.111,17.012 8.144 C 17.405 8.281,17.720 8.599,17.861 9.000 C 17.973 9.320,18.022 9.950,17.970 10.415 C 17.875 11.266,17.591 11.666,16.923 11.889 C 16.670 11.974,16.589 11.978,14.830 11.991 L 13.000 12.005 13.000 10.003 L 13.000 8.000 14.617 8.000 C 15.537 8.000,16.366 8.018,16.539 8.042 M11.217 19.619 C 11.275 19.696,11.408 19.808,11.511 19.869 C 11.672 19.964,11.744 19.980,12.000 19.980 C 12.256 19.980,12.328 19.964,12.489 19.869 C 12.702 19.744,12.864 19.551,12.943 19.330 C 12.991 19.196,12.997 19.276,12.998 20.064 L 13.000 20.948 12.730 20.974 C 12.582 20.988,12.253 20.999,12.000 20.999 C 11.747 20.999,11.418 20.988,11.270 20.974 L 11.000 20.948 11.002 20.064 C 11.003 19.276,11.009 19.196,11.057 19.330 C 11.087 19.413,11.158 19.543,11.217 19.619 " stroke="none" fill-rule="evenodd" fill="black"></path></svg>