<svg viewBox="0 0 24 24" xmlns="http://www.w3.org/2000/svg" fill="none" stroke="#000000" stroke-width="2" stroke-linecap="round" stroke-linejoin="round"><path d="M9.695 5.057 C 9.466 5.129,9.256 5.299,9.128 5.516 C 9.037 5.672,9.020 5.746,9.020 6.000 C 9.020 6.256,9.036 6.328,9.131 6.489 C 9.256 6.702,9.449 6.864,9.670 6.943 C 9.768 6.978,10.022 6.997,10.408 6.998 L 10.995 7.000 11.008 8.153 L 11.020 9.307 11.141 9.503 C 11.543 10.156,12.457 10.156,12.859 9.503 L 12.980 9.307 12.993 8.493 C 13.003 7.853,13.017 7.680,13.059 7.680 C 13.166 7.680,13.667 7.853,13.900 7.970 C 14.593 8.319,15.148 8.883,15.438 9.533 C 15.644 9.995,15.715 10.488,15.643 10.961 C 15.535 11.670,15.096 12.144,14.385 12.316 C 14.236 12.352,14.059 12.353,13.645 12.319 C 12.986 12.265,12.677 12.303,12.430 12.469 C 12.030 12.738,11.882 13.298,12.096 13.736 C 12.205 13.958,12.380 14.122,12.613 14.220 C 12.764 14.283,13.263 14.350,13.748 14.373 C 14.697 14.418,15.256 15.196,15.082 16.227 C 15.034 16.512,14.874 16.903,14.715 17.127 C 14.637 17.237,14.627 17.240,14.559 17.179 C 14.374 17.012,14.207 17.000,12.000 17.000 C 9.713 17.000,9.667 17.004,9.382 17.221 C 9.302 17.282,9.187 17.415,9.128 17.516 C 9.037 17.672,9.020 17.746,9.020 18.000 C 9.020 18.256,9.036 18.328,9.131 18.489 C 9.360 18.879,9.625 18.996,10.285 18.998 L 10.750 19.000 10.770 19.178 C 10.781 19.276,10.832 19.434,10.884 19.528 C 10.975 19.696,10.978 19.731,10.999 21.003 L 11.020 22.307 11.141 22.503 C 11.543 23.156,12.457 23.156,12.859 22.503 L 12.980 22.307 12.992 21.238 L 13.005 20.169 13.320 20.122 C 13.999 20.023,14.732 19.733,15.274 19.350 C 17.107 18.054,17.673 15.529,16.509 13.835 L 16.327 13.570 16.567 13.335 C 18.440 11.499,17.859 8.147,15.386 6.517 C 15.188 6.387,15.016 6.280,15.003 6.280 C 14.990 6.280,14.980 6.149,14.980 5.990 C 14.980 5.747,14.963 5.670,14.872 5.516 C 14.740 5.293,14.533 5.128,14.290 5.055 C 14.033 4.978,9.943 4.979,9.695 5.057 " stroke="none" fill-rule="evenodd" fill="black"></path></svg>