<svg viewBox="0 0 24 24" xmlns="http://www.w3.org/2000/svg" fill="none" stroke="#000000" stroke-width="2" stroke-linecap="round" stroke-linejoin="round"><path d="M11.280 1.023 C 11.203 1.032,10.951 1.059,10.720 1.083 C 8.832 1.283,6.991 2.023,5.360 3.235 C 4.751 3.688,3.684 4.755,3.226 5.367 C 0.728 8.714,0.301 13.032,2.097 16.780 C 2.643 17.918,3.276 18.801,4.238 19.762 C 5.199 20.724,6.082 21.357,7.220 21.903 C 10.967 23.699,15.288 23.270,18.637 20.770 C 19.246 20.316,20.316 19.246,20.770 18.637 C 23.744 14.652,23.744 9.348,20.770 5.363 C 20.316 4.755,19.247 3.686,18.640 3.235 C 17.045 2.049,15.365 1.360,13.423 1.096 C 13.000 1.038,11.574 0.990,11.280 1.023 M7.596 7.387 C 6.225 9.671,5.081 11.603,5.054 11.680 C 4.949 11.973,5.016 12.356,5.219 12.622 C 5.272 12.692,5.407 12.808,5.520 12.880 L 5.724 13.011 5.525 13.125 C 5.101 13.367,4.912 13.832,5.049 14.295 C 5.082 14.408,5.834 15.443,7.432 17.574 C 8.715 19.286,9.758 20.696,9.748 20.705 C 9.738 20.715,9.472 20.638,9.155 20.534 C 8.513 20.324,7.580 19.873,7.040 19.511 C 5.157 18.249,3.791 16.312,3.267 14.160 C 3.081 13.397,3.023 12.888,3.023 12.000 C 3.023 10.507,3.280 9.379,3.920 8.060 C 4.933 5.970,6.767 4.318,8.939 3.538 C 9.342 3.394,10.048 3.196,10.074 3.221 C 10.081 3.228,8.966 5.103,7.596 7.387 M14.535 3.368 C 16.960 4.080,18.979 5.788,20.080 8.060 C 20.720 9.379,20.977 10.507,20.977 12.000 C 20.977 13.493,20.720 14.621,20.080 15.940 C 19.205 17.746,17.798 19.160,15.980 20.061 C 15.449 20.325,14.300 20.753,14.252 20.705 C 14.242 20.696,15.285 19.286,16.568 17.574 C 18.166 15.443,18.918 14.408,18.951 14.295 C 19.090 13.828,18.903 13.369,18.475 13.125 L 18.276 13.011 18.480 12.880 C 18.851 12.642,19.029 12.294,18.987 11.890 C 18.966 11.683,18.793 11.382,16.425 7.436 C 13.981 3.361,13.891 3.204,14.013 3.227 C 14.083 3.241,14.318 3.304,14.535 3.368 M14.357 7.878 L 16.646 11.696 16.553 11.766 C 16.502 11.805,16.401 11.869,16.330 11.908 L 16.200 11.978 14.238 10.999 L 12.275 10.020 12.000 10.020 L 11.725 10.020 9.762 10.999 L 7.800 11.978 7.670 11.908 C 7.599 11.869,7.497 11.804,7.445 11.764 L 7.349 11.691 9.665 7.829 C 11.393 4.945,11.991 3.978,12.025 4.013 C 12.049 4.039,13.099 5.778,14.357 7.878 M13.158 12.696 L 14.296 13.268 13.148 14.035 L 12.000 14.801 10.852 14.035 L 9.704 13.268 10.842 12.696 C 11.468 12.382,11.989 12.124,12.000 12.124 C 12.011 12.124,12.532 12.382,13.158 12.696 M9.605 15.604 C 10.664 16.309,11.602 16.912,11.690 16.944 C 11.778 16.975,11.918 17.000,12.000 17.000 C 12.082 17.000,12.222 16.975,12.310 16.944 C 12.398 16.912,13.338 16.308,14.398 15.601 C 15.459 14.894,16.353 14.321,16.385 14.328 C 16.418 14.334,16.442 14.358,16.439 14.380 C 16.434 14.427,12.030 20.317,12.000 20.317 C 11.960 20.316,7.526 14.367,7.549 14.344 C 7.563 14.331,7.597 14.320,7.627 14.320 C 7.656 14.320,8.547 14.898,9.605 15.604 " stroke="none" fill-rule="evenodd" fill="black"></path></svg>