<svg viewBox="0 0 24 24" xmlns="http://www.w3.org/2000/svg" fill="none" stroke="#000000" stroke-width="2" stroke-linecap="round" stroke-linejoin="round"><path d="M4.499 2.043 C 3.380 2.232,2.461 3.048,2.114 4.160 L 2.020 4.460 2.020 12.000 L 2.020 19.540 2.114 19.840 C 2.422 20.827,3.173 21.578,4.160 21.886 L 4.460 21.980 12.000 21.980 L 19.540 21.980 19.840 21.886 C 20.827 21.578,21.578 20.827,21.886 19.840 L 21.980 19.540 21.980 12.000 L 21.980 4.460 21.886 4.160 C 21.581 3.182,20.832 2.428,19.861 2.121 L 19.540 2.020 12.120 2.014 C 8.039 2.011,4.609 2.024,4.499 2.043 M10.800 4.016 C 10.800 4.025,9.744 5.722,8.453 7.786 C 7.162 9.851,6.082 11.603,6.054 11.680 C 5.949 11.971,6.016 12.355,6.219 12.622 C 6.272 12.692,6.407 12.808,6.520 12.880 L 6.724 13.011 6.525 13.125 C 6.089 13.374,5.902 13.858,6.062 14.327 C 6.109 14.464,6.669 15.162,8.382 17.218 C 9.624 18.709,10.651 19.945,10.663 19.965 C 10.677 19.987,9.491 19.998,7.693 19.991 L 4.700 19.980 4.516 19.872 C 4.415 19.813,4.284 19.700,4.225 19.623 C 3.986 19.309,4.000 19.795,4.000 12.022 C 4.000 4.005,3.975 4.631,4.304 4.303 C 4.612 3.994,4.476 4.006,7.830 4.003 C 9.463 4.001,10.800 4.007,10.800 4.016 M19.310 4.061 C 19.589 4.144,19.856 4.411,19.939 4.690 C 19.993 4.870,20.000 5.755,20.000 12.001 C 20.000 17.907,19.991 19.138,19.945 19.290 C 19.872 19.533,19.707 19.740,19.484 19.872 L 19.300 19.980 16.304 19.991 C 13.451 20.001,13.311 19.999,13.364 19.932 C 13.395 19.893,14.407 18.676,15.614 17.227 C 16.820 15.778,17.843 14.532,17.886 14.458 C 17.999 14.267,18.025 13.932,17.946 13.699 C 17.856 13.437,17.711 13.259,17.473 13.123 L 17.271 13.008 17.490 12.868 C 17.610 12.791,17.748 12.674,17.795 12.607 C 17.988 12.335,18.049 11.964,17.946 11.680 C 17.918 11.603,16.838 9.851,15.547 7.786 C 14.256 5.722,13.200 4.025,13.200 4.016 C 13.200 4.007,14.529 4.000,16.153 4.000 C 18.680 4.000,19.135 4.009,19.310 4.061 M13.800 8.766 C 14.779 10.331,15.585 11.626,15.592 11.642 C 15.599 11.659,15.450 11.765,15.261 11.879 L 14.918 12.086 13.589 11.554 C 12.360 11.062,12.240 11.022,12.000 11.022 C 11.760 11.022,11.640 11.062,10.411 11.554 L 9.082 12.086 8.739 11.879 C 8.550 11.765,8.401 11.659,8.408 11.642 C 8.439 11.564,11.982 5.920,12.000 5.920 C 12.011 5.920,12.821 7.201,13.800 8.766 M12.433 13.253 L 12.756 13.383 12.378 13.610 L 12.000 13.837 11.621 13.610 L 11.243 13.382 11.611 13.233 C 11.814 13.152,12.009 13.093,12.045 13.104 C 12.081 13.114,12.256 13.181,12.433 13.253 M10.187 15.086 C 10.887 15.508,11.546 15.886,11.650 15.926 C 11.868 16.011,12.088 16.020,12.284 15.954 C 12.359 15.929,13.020 15.549,13.753 15.110 C 15.042 14.338,15.089 14.314,15.204 14.362 C 15.270 14.389,15.318 14.426,15.312 14.445 C 15.289 14.511,12.033 18.400,12.000 18.400 C 11.967 18.400,8.711 14.512,8.689 14.446 C 8.679 14.417,8.819 14.330,8.887 14.323 C 8.902 14.321,9.487 14.665,10.187 15.086 " stroke="none" fill-rule="evenodd" fill="black"></path></svg>