<svg viewBox="0 0 24 24" xmlns="http://www.w3.org/2000/svg" fill="none" stroke="#000000" stroke-width="2" stroke-linecap="round" stroke-linejoin="round"><path d="M10.720 1.025 C 6.326 1.241,3.049 2.408,2.246 4.040 C 2.155 4.227,2.062 4.477,2.040 4.595 C 1.985 4.890,1.985 19.110,2.040 19.405 C 2.062 19.523,2.154 19.772,2.246 19.958 C 2.378 20.226,2.483 20.368,2.756 20.642 C 3.447 21.335,4.386 21.812,5.929 22.255 C 7.062 22.580,8.210 22.779,9.820 22.927 C 10.570 22.997,13.430 22.997,14.180 22.927 C 15.790 22.779,16.938 22.580,18.071 22.255 C 19.612 21.813,20.544 21.339,21.243 20.642 C 21.517 20.369,21.620 20.232,21.753 19.960 C 21.845 19.773,21.938 19.523,21.960 19.405 C 22.015 19.110,22.015 4.890,21.960 4.595 C 21.938 4.477,21.845 4.227,21.754 4.040 C 21.021 2.550,18.252 1.449,14.360 1.099 C 13.694 1.040,11.380 0.992,10.720 1.025 M13.380 3.041 C 15.749 3.169,17.637 3.567,18.985 4.221 C 19.391 4.418,19.565 4.529,19.755 4.709 C 19.890 4.837,20.000 4.964,20.000 4.991 C 20.000 5.063,19.730 5.350,19.535 5.483 C 18.579 6.141,16.663 6.664,14.320 6.907 C 13.381 7.004,10.619 7.004,9.680 6.907 C 7.374 6.668,5.533 6.174,4.540 5.529 C 4.292 5.369,4.000 5.077,4.000 4.991 C 4.000 4.964,4.110 4.837,4.245 4.709 C 4.822 4.160,6.409 3.585,8.120 3.305 C 9.742 3.039,11.616 2.945,13.380 3.041 M4.857 7.899 C 6.141 8.392,7.673 8.718,9.600 8.908 C 10.595 9.005,13.405 9.005,14.400 8.908 C 15.956 8.755,17.048 8.553,18.280 8.192 C 18.761 8.051,19.489 7.778,19.793 7.624 L 20.000 7.519 20.000 9.780 L 20.000 12.042 19.836 12.220 C 19.136 12.979,16.966 13.643,14.320 13.907 C 13.326 14.006,10.674 14.006,9.680 13.907 C 8.694 13.809,7.825 13.668,7.069 13.485 C 5.596 13.127,4.601 12.694,4.164 12.220 L 4.000 12.042 4.000 9.780 L 4.000 7.519 4.207 7.624 C 4.321 7.681,4.613 7.805,4.857 7.899 M4.488 14.757 C 5.223 15.072,6.287 15.387,7.260 15.577 C 8.655 15.849,9.755 15.955,11.519 15.988 C 12.651 16.009,12.799 16.019,12.669 16.064 C 12.452 16.139,12.251 16.307,12.128 16.516 C 12.036 16.672,12.020 16.745,12.021 17.000 C 12.021 17.213,12.043 17.340,12.096 17.440 C 12.136 17.517,12.486 17.899,12.873 18.290 L 13.577 19.000 12.873 19.710 C 12.486 20.101,12.141 20.477,12.106 20.546 C 12.071 20.615,12.030 20.748,12.015 20.842 L 11.988 21.012 11.139 20.986 C 9.599 20.938,8.256 20.773,7.069 20.485 C 5.596 20.127,4.601 19.694,4.164 19.220 L 4.000 19.042 4.000 16.801 C 4.000 15.568,4.007 14.560,4.015 14.560 C 4.023 14.560,4.236 14.649,4.488 14.757 M20.000 16.801 L 20.000 19.042 19.836 19.220 C 19.534 19.547,18.950 19.864,18.137 20.142 L 17.709 20.288 17.065 19.645 L 16.422 19.001 17.126 18.291 C 17.513 17.900,17.864 17.517,17.904 17.440 C 17.957 17.340,17.979 17.213,17.979 17.000 C 17.980 16.745,17.964 16.672,17.872 16.516 C 17.617 16.083,17.135 15.905,16.657 16.067 C 16.491 16.123,16.345 16.247,15.730 16.854 L 15.000 17.574 14.270 16.853 C 13.712 16.302,13.502 16.121,13.380 16.082 C 13.105 15.994,13.128 15.960,13.462 15.960 C 13.779 15.960,14.786 15.876,15.364 15.802 C 16.966 15.598,18.646 15.162,19.680 14.684 C 19.823 14.618,19.953 14.563,19.970 14.562 C 19.987 14.561,20.000 15.568,20.000 16.801 M15.195 20.615 L 15.367 20.790 15.133 20.817 C 15.005 20.831,14.819 20.853,14.720 20.866 L 14.540 20.889 14.759 20.664 C 14.879 20.541,14.988 20.440,15.000 20.440 C 15.013 20.440,15.101 20.519,15.195 20.615 " stroke="none" fill-rule="evenodd" fill="black"></path></svg>