<svg viewBox="0 0 24 24" xmlns="http://www.w3.org/2000/svg" fill="none" stroke="#000000" stroke-width="2" stroke-linecap="round" stroke-linejoin="round"><path d="M8.664 3.063 C 8.171 3.243,7.902 3.766,8.042 4.269 C 8.083 4.413,8.341 4.786,9.108 5.810 C 9.665 6.553,10.125 7.179,10.130 7.201 C 10.136 7.223,9.960 7.304,9.740 7.381 C 7.244 8.254,5.499 10.347,5.074 12.980 C 5.008 13.393,5.008 14.607,5.074 15.020 C 5.574 18.112,7.888 20.426,10.980 20.926 C 11.392 20.992,12.607 20.992,13.020 20.926 C 16.109 20.428,18.428 18.109,18.926 15.020 C 18.954 14.844,18.977 14.385,18.977 14.000 C 18.977 13.615,18.954 13.156,18.926 12.980 C 18.502 10.350,16.755 8.253,14.260 7.381 C 14.040 7.304,13.864 7.223,13.870 7.201 C 13.875 7.179,14.335 6.553,14.892 5.810 C 15.984 4.352,16.033 4.266,15.987 3.875 C 15.941 3.492,15.666 3.168,15.290 3.055 C 15.014 2.972,8.891 2.980,8.664 3.063 M12.510 5.658 C 12.241 6.020,12.011 6.317,12.000 6.317 C 11.989 6.317,11.759 6.020,11.490 5.658 L 10.999 5.000 12.000 5.000 L 13.001 5.000 12.510 5.658 M12.552 9.043 C 14.413 9.246,16.001 10.479,16.680 12.248 C 17.092 13.320,17.085 14.720,16.663 15.793 C 16.120 17.174,14.991 18.256,13.600 18.732 C 13.044 18.922,12.670 18.980,12.000 18.980 C 11.330 18.980,10.956 18.922,10.400 18.732 C 8.808 18.188,7.580 16.864,7.161 15.240 C 6.920 14.307,6.983 13.125,7.320 12.248 C 8.146 10.096,10.274 8.793,12.552 9.043 " stroke="none" fill-rule="evenodd" fill="black"></path></svg>