<svg viewBox="0 0 24 24" xmlns="http://www.w3.org/2000/svg" fill="none" stroke="#000000" stroke-width="2" stroke-linecap="round" stroke-linejoin="round"><path d="M5.695 2.057 C 5.466 2.129,5.256 2.299,5.128 2.516 C 5.037 2.672,5.020 2.746,5.020 3.000 C 5.020 3.256,5.036 3.328,5.131 3.489 C 5.256 3.702,5.449 3.864,5.670 3.943 C 5.793 3.987,6.883 3.997,11.643 3.998 L 17.467 4.000 19.089 6.434 L 20.712 8.868 17.356 12.224 L 14.000 15.579 10.290 11.876 C 7.784 9.374,6.528 8.148,6.420 8.096 C 6.270 8.025,6.127 8.019,4.100 8.008 C 2.631 8.000,1.884 8.010,1.764 8.040 C 1.514 8.103,1.260 8.292,1.131 8.511 C 1.036 8.672,1.020 8.744,1.020 9.000 C 1.020 9.254,1.036 9.327,1.127 9.480 C 1.263 9.708,11.367 19.805,11.560 19.905 C 11.755 20.007,12.247 20.007,12.440 19.904 C 12.517 19.864,12.900 19.514,13.290 19.127 L 14.000 18.423 14.710 19.127 C 15.101 19.514,15.481 19.861,15.555 19.899 C 16.008 20.128,16.601 19.944,16.867 19.492 C 16.964 19.327,16.980 19.258,16.979 19.000 C 16.979 18.787,16.957 18.660,16.904 18.560 C 16.864 18.483,16.514 18.100,16.126 17.710 L 15.422 16.999 19.146 13.270 C 22.554 9.857,22.876 9.523,22.935 9.343 C 23.015 9.100,23.018 8.900,22.943 8.690 C 22.912 8.601,21.952 7.127,20.809 5.414 C 18.596 2.096,18.622 2.130,18.240 2.043 C 17.950 1.977,5.908 1.990,5.695 2.057 M9.080 13.500 L 12.580 17.000 12.290 17.290 L 12.000 17.580 8.210 13.790 L 4.420 10.000 5.000 10.000 L 5.580 10.000 9.080 13.500 " stroke="none" fill-rule="evenodd" fill="black"></path></svg>