<svg viewBox="0 0 24 24" xmlns="http://www.w3.org/2000/svg" fill="none" stroke="#000000" stroke-width="2" stroke-linecap="round" stroke-linejoin="round"><path d="M5.499 3.043 C 4.380 3.233,3.461 4.048,3.114 5.160 L 3.020 5.460 3.020 12.000 L 3.020 18.540 3.114 18.840 C 3.422 19.827,4.173 20.578,5.160 20.886 L 5.460 20.980 12.000 20.980 L 18.540 20.980 18.840 20.886 C 19.827 20.578,20.578 19.827,20.886 18.840 L 20.980 18.540 20.980 12.000 L 20.980 5.460 20.886 5.160 C 20.581 4.182,19.832 3.428,18.861 3.121 L 18.540 3.020 12.120 3.014 C 8.589 3.011,5.609 3.024,5.499 3.043 M18.310 5.061 C 18.589 5.144,18.856 5.411,18.939 5.690 C 18.992 5.869,19.000 6.651,19.000 12.001 C 19.000 17.059,18.991 18.139,18.945 18.290 C 18.872 18.533,18.707 18.740,18.484 18.872 L 18.300 18.980 12.000 18.980 L 5.700 18.980 5.516 18.872 C 5.303 18.747,5.141 18.550,5.058 18.316 C 4.968 18.060,4.971 5.993,5.061 5.690 C 5.140 5.421,5.412 5.143,5.673 5.063 C 5.963 4.974,18.010 4.972,18.310 5.061 M7.960 6.062 C 7.605 6.138,7.107 6.393,6.832 6.639 C 6.532 6.907,6.239 7.352,6.118 7.722 C 6.034 7.976,6.020 8.094,6.022 8.520 C 6.024 8.959,6.038 9.056,6.133 9.320 C 6.391 10.036,6.960 10.605,7.680 10.867 C 7.949 10.965,8.034 10.976,8.500 10.976 C 8.966 10.976,9.051 10.965,9.319 10.867 C 9.484 10.807,9.688 10.712,9.774 10.656 C 9.859 10.599,9.922 10.568,9.912 10.586 C 9.715 10.987,9.600 11.261,9.560 11.433 C 9.496 11.707,9.496 12.293,9.560 12.567 C 9.599 12.731,9.797 13.206,9.909 13.403 C 9.916 13.415,9.782 13.356,9.611 13.272 C 8.885 12.913,8.112 12.915,7.380 13.277 C 6.794 13.567,6.317 14.112,6.118 14.722 C 6.034 14.976,6.020 15.094,6.022 15.520 C 6.024 15.960,6.038 16.056,6.133 16.320 C 6.394 17.039,6.963 17.608,7.680 17.868 C 7.948 17.965,8.035 17.976,8.500 17.976 C 8.965 17.976,9.052 17.965,9.320 17.868 C 10.037 17.608,10.605 17.040,10.867 16.320 C 10.965 16.051,10.976 15.966,10.976 15.500 C 10.976 15.034,10.965 14.949,10.867 14.681 C 10.807 14.516,10.712 14.312,10.656 14.226 C 10.599 14.141,10.568 14.078,10.586 14.088 C 11.278 14.429,11.489 14.490,12.000 14.490 C 12.505 14.490,12.777 14.412,13.411 14.089 C 13.427 14.080,13.388 14.160,13.323 14.266 C 13.091 14.645,13.024 14.924,13.024 15.500 C 13.024 15.966,13.035 16.051,13.133 16.320 C 13.395 17.040,13.963 17.608,14.680 17.868 C 14.948 17.965,15.035 17.976,15.500 17.976 C 15.965 17.976,16.052 17.965,16.320 17.868 C 17.037 17.608,17.605 17.040,17.867 16.320 C 17.965 16.051,17.976 15.966,17.976 15.500 C 17.976 15.035,17.965 14.948,17.868 14.680 C 17.646 14.068,17.195 13.561,16.620 13.277 C 15.888 12.915,15.115 12.913,14.389 13.272 C 14.218 13.356,14.084 13.415,14.091 13.403 C 14.203 13.206,14.401 12.731,14.440 12.567 C 14.504 12.293,14.504 11.707,14.440 11.433 C 14.400 11.261,14.285 10.987,14.088 10.586 C 14.078 10.568,14.141 10.599,14.226 10.656 C 14.312 10.712,14.516 10.807,14.681 10.867 C 14.949 10.965,15.034 10.976,15.500 10.976 C 15.966 10.976,16.051 10.965,16.320 10.867 C 17.040 10.605,17.608 10.037,17.868 9.320 C 17.965 9.052,17.976 8.965,17.976 8.500 C 17.976 8.035,17.965 7.948,17.868 7.680 C 17.438 6.495,16.206 5.803,14.980 6.060 C 14.608 6.138,14.113 6.387,13.832 6.639 C 13.532 6.907,13.239 7.352,13.118 7.722 C 13.034 7.976,13.020 8.094,13.022 8.520 C 13.024 8.960,13.038 9.056,13.133 9.319 C 13.193 9.484,13.286 9.686,13.341 9.768 C 13.395 9.851,13.440 9.926,13.440 9.936 C 13.440 9.946,13.342 9.895,13.223 9.824 C 12.843 9.595,12.607 9.540,12.000 9.540 C 11.393 9.540,11.157 9.595,10.777 9.824 C 10.658 9.895,10.560 9.946,10.560 9.936 C 10.560 9.926,10.605 9.851,10.659 9.768 C 10.714 9.686,10.807 9.484,10.867 9.319 C 10.965 9.051,10.976 8.966,10.976 8.500 C 10.976 8.035,10.965 7.948,10.868 7.680 C 10.437 6.490,9.192 5.798,7.960 6.062 M8.724 8.062 C 8.977 8.193,9.068 8.508,8.922 8.748 C 8.722 9.076,8.278 9.076,8.078 8.748 C 7.935 8.513,8.009 8.226,8.252 8.078 C 8.406 7.984,8.563 7.979,8.724 8.062 M15.724 8.062 C 15.872 8.139,16.000 8.341,16.000 8.500 C 16.000 8.748,15.748 9.000,15.500 9.000 C 15.256 9.000,15.000 8.748,15.000 8.508 C 15.000 8.257,15.248 8.000,15.492 8.000 C 15.554 8.000,15.658 8.028,15.724 8.062 M12.344 11.656 C 12.463 11.775,12.480 11.818,12.480 11.993 C 12.480 12.235,12.351 12.417,12.137 12.476 C 11.949 12.528,11.749 12.465,11.623 12.316 C 11.542 12.220,11.520 12.150,11.520 11.993 C 11.520 11.818,11.537 11.775,11.656 11.656 C 11.776 11.536,11.817 11.520,12.000 11.520 C 12.183 11.520,12.224 11.536,12.344 11.656 M8.724 15.062 C 8.872 15.139,9.000 15.341,9.000 15.500 C 9.000 15.748,8.748 16.000,8.500 16.000 C 8.256 16.000,8.000 15.748,8.000 15.508 C 8.000 15.257,8.248 15.000,8.492 15.000 C 8.554 15.000,8.658 15.028,8.724 15.062 M15.724 15.062 C 15.872 15.139,16.000 15.341,16.000 15.500 C 16.000 15.748,15.748 16.000,15.500 16.000 C 15.256 16.000,15.000 15.748,15.000 15.508 C 15.000 15.257,15.248 15.000,15.492 15.000 C 15.554 15.000,15.658 15.028,15.724 15.062 " stroke="none" fill="black" fill-rule="evenodd"></path></svg>