<svg viewBox="0 0 24 24" xmlns="http://www.w3.org/2000/svg" fill="none" stroke="#000000" stroke-width="2" stroke-linecap="round" stroke-linejoin="round"><path d="M5.260 1.028 C 4.181 1.181,3.212 1.992,2.857 3.040 C 2.750 3.357,1.366 12.265,1.331 12.863 C 1.246 14.324,2.273 15.636,3.739 15.938 C 3.988 15.990,4.440 16.000,6.518 16.000 L 9.000 16.000 9.000 17.684 C 9.000 19.228,9.007 19.401,9.083 19.773 C 9.311 20.892,9.985 21.851,10.956 22.436 C 11.683 22.875,12.819 23.111,13.340 22.934 C 13.762 22.790,13.671 22.966,15.755 18.273 L 17.650 14.006 19.115 13.991 C 20.513 13.976,20.593 13.972,20.860 13.884 C 21.843 13.562,22.581 12.817,22.886 11.840 L 22.980 11.540 22.980 7.500 L 22.980 3.460 22.886 3.160 C 22.581 2.182,21.832 1.428,20.861 1.121 L 20.540 1.020 12.960 1.016 C 8.791 1.013,5.326 1.019,5.260 1.028 M16.000 7.890 L 16.000 12.780 14.215 16.800 C 13.233 19.011,12.418 20.842,12.404 20.869 C 12.363 20.946,11.938 20.726,11.683 20.496 C 11.563 20.388,11.397 20.193,11.312 20.063 C 11.016 19.605,11.025 19.692,11.001 17.060 L 10.980 14.700 10.872 14.516 C 10.761 14.328,10.572 14.158,10.373 14.070 C 10.287 14.032,9.514 14.015,7.137 14.000 L 4.014 13.980 3.817 13.859 C 3.577 13.711,3.374 13.422,3.337 13.175 C 3.316 13.035,3.478 11.894,4.019 8.366 C 4.409 5.822,4.754 3.677,4.786 3.600 C 4.888 3.353,5.155 3.124,5.440 3.037 C 5.495 3.021,7.894 3.005,10.770 3.003 L 16.000 3.000 16.000 7.890 M20.310 3.061 C 20.589 3.144,20.856 3.411,20.939 3.690 C 20.992 3.866,21.000 4.389,21.000 7.501 C 21.000 11.415,21.005 11.321,20.779 11.618 C 20.718 11.698,20.585 11.813,20.484 11.872 L 20.300 11.980 19.150 11.992 L 18.000 12.005 18.000 7.502 L 18.000 3.000 19.053 3.000 C 19.879 3.000,20.150 3.013,20.310 3.061 " stroke="none" fill-rule="evenodd" fill="black"></path></svg>