<svg viewBox="0 0 24 24" xmlns="http://www.w3.org/2000/svg" fill="none" stroke="#000000" stroke-width="2" stroke-linecap="round" stroke-linejoin="round"><path d="M11.670 1.057 C 11.459 1.132,11.239 1.321,10.456 2.100 C 9.563 2.988,9.340 3.330,9.108 4.159 C 9.028 4.444,9.023 4.571,9.009 6.615 C 8.994 8.950,9.005 9.119,9.217 9.641 C 9.569 10.506,10.411 11.220,11.322 11.426 L 11.598 11.488 11.542 11.594 C 11.457 11.757,11.149 12.101,10.892 12.321 C 10.609 12.563,10.239 12.762,9.840 12.886 C 9.268 13.064,8.041 12.987,7.976 12.768 C 7.838 12.301,7.431 12.000,6.936 12.000 C 6.784 12.000,6.751 11.982,6.627 11.830 C 6.421 11.578,6.216 11.179,6.118 10.840 C 6.043 10.580,6.027 10.389,5.999 9.420 C 5.976 8.625,5.948 8.213,5.900 8.000 C 5.524 6.304,4.354 4.935,2.753 4.320 C 2.159 4.092,1.171 3.949,0.784 4.036 C -0.095 4.232,-0.279 5.406,0.498 5.861 C 0.647 5.949,0.758 5.974,1.121 6.005 C 1.363 6.026,1.701 6.084,1.871 6.133 C 2.801 6.402,3.589 7.191,3.874 8.139 C 3.961 8.429,3.973 8.567,4.002 9.580 C 4.020 10.196,4.053 10.785,4.076 10.888 C 4.163 11.288,4.245 11.563,4.359 11.843 L 4.477 12.135 4.324 12.277 C 4.087 12.498,4.022 12.653,4.021 13.000 C 4.020 13.257,4.036 13.327,4.131 13.489 C 4.256 13.702,4.449 13.864,4.670 13.943 C 4.768 13.978,5.023 13.997,5.410 13.998 L 6.001 14.000 6.230 14.156 C 6.534 14.361,7.029 14.605,7.400 14.732 C 7.957 14.922,8.330 14.980,9.000 14.980 C 9.684 14.980,10.050 14.921,10.638 14.717 C 10.825 14.653,10.982 14.600,10.988 14.600 C 10.995 14.600,11.000 14.818,11.000 15.083 L 11.000 15.567 10.756 15.346 C 10.395 15.019,10.054 14.928,9.684 15.058 C 9.450 15.141,9.253 15.303,9.128 15.516 C 9.036 15.672,9.020 15.745,9.021 16.000 C 9.021 16.213,9.043 16.341,9.095 16.440 C 9.136 16.517,9.580 16.994,10.083 17.500 L 10.997 18.420 11.009 20.363 L 11.020 22.306 11.141 22.503 C 11.209 22.613,11.346 22.756,11.452 22.828 C 11.923 23.144,12.554 22.999,12.859 22.503 L 12.980 22.306 12.991 20.363 L 13.003 18.420 13.917 17.500 C 14.420 16.994,14.864 16.517,14.905 16.440 C 14.957 16.341,14.979 16.213,14.979 16.000 C 14.980 15.745,14.964 15.672,14.872 15.516 C 14.747 15.303,14.550 15.141,14.316 15.058 C 13.946 14.928,13.605 15.019,13.244 15.346 L 13.000 15.567 13.000 14.283 L 13.000 12.999 13.156 12.770 C 13.473 12.301,13.766 11.612,13.883 11.060 C 13.927 10.854,13.968 10.783,14.172 10.564 C 14.459 10.254,14.640 9.978,14.777 9.641 C 14.966 9.175,15.000 8.890,15.000 7.784 L 15.000 6.765 15.170 6.627 C 15.613 6.265,16.162 6.067,16.890 6.004 C 17.242 5.974,17.354 5.948,17.502 5.861 C 18.279 5.406,18.095 4.232,17.216 4.036 C 16.815 3.946,15.823 4.094,15.208 4.337 C 15.031 4.406,14.952 4.421,14.943 4.388 C 14.742 3.617,14.616 3.332,14.278 2.884 C 14.044 2.573,13.000 1.529,12.628 1.235 C 12.336 1.003,11.997 0.940,11.670 1.057 M12.385 3.772 C 12.924 4.337,13.000 4.545,13.000 5.461 L 13.000 5.991 12.841 6.229 C 12.513 6.720,12.235 7.385,12.100 8.000 C 12.064 8.165,12.025 8.572,12.012 8.904 L 11.990 9.508 11.815 9.475 C 11.588 9.433,11.449 9.357,11.294 9.193 C 11.009 8.890,11.021 8.988,11.009 6.867 C 10.997 4.872,11.010 4.649,11.166 4.328 C 11.245 4.164,11.932 3.400,12.000 3.400 C 12.017 3.400,12.190 3.567,12.385 3.772 M16.695 12.057 C 16.466 12.129,16.256 12.299,16.128 12.516 C 16.037 12.672,16.020 12.746,16.020 13.000 C 16.020 13.256,16.036 13.328,16.131 13.489 C 16.256 13.702,16.449 13.864,16.670 13.943 C 16.885 14.020,19.115 14.020,19.330 13.943 C 19.551 13.864,19.744 13.702,19.869 13.489 C 19.964 13.328,19.980 13.256,19.980 13.000 C 19.980 12.746,19.963 12.672,19.872 12.516 C 19.740 12.293,19.533 12.128,19.290 12.055 C 19.039 11.979,16.937 11.981,16.695 12.057 " stroke="none" fill-rule="evenodd" fill="black"></path></svg>