<svg viewBox="0 0 24 24" xmlns="http://www.w3.org/2000/svg" fill="none" stroke="#000000" stroke-width="2" stroke-linecap="round" stroke-linejoin="round"><path d="M8.683 4.042 C 4.170 5.179,4.379 5.112,4.141 5.498 L 4.020 5.694 4.020 11.997 L 4.020 18.300 4.131 18.489 C 4.257 18.703,4.436 18.854,4.664 18.937 C 4.804 18.989,4.675 18.995,3.356 18.997 C 1.767 19.000,1.655 19.013,1.382 19.221 C 1.302 19.282,1.187 19.415,1.128 19.516 C 1.037 19.672,1.020 19.746,1.020 20.000 C 1.020 20.256,1.036 20.328,1.131 20.489 C 1.256 20.702,1.449 20.864,1.670 20.943 C 1.894 21.023,5.113 21.020,5.338 20.940 C 5.477 20.891,5.520 20.892,5.691 20.947 C 6.199 21.114,6.762 20.836,6.943 20.330 C 6.972 20.248,6.997 20.034,6.998 19.855 L 7.000 19.529 9.930 20.264 L 12.860 20.998 17.520 20.997 C 21.310 20.997,22.208 20.986,22.330 20.943 C 22.551 20.864,22.744 20.702,22.869 20.489 C 22.964 20.328,22.980 20.256,22.980 20.000 C 22.980 19.746,22.963 19.672,22.872 19.516 C 22.813 19.415,22.698 19.282,22.618 19.221 C 22.342 19.011,22.242 19.000,20.554 19.000 L 19.002 19.000 18.991 12.210 L 18.980 5.420 18.886 5.140 C 18.556 4.157,17.816 3.420,16.861 3.123 L 16.540 3.023 14.660 3.016 L 12.780 3.009 8.683 4.042 M16.310 5.061 C 16.589 5.144,16.856 5.411,16.939 5.690 C 16.993 5.869,17.000 6.697,17.000 12.447 L 17.000 19.000 15.500 19.000 L 14.000 19.000 14.000 12.000 L 14.000 5.000 15.053 5.000 C 15.879 5.000,16.150 5.013,16.310 5.061 M12.000 12.003 C 12.000 18.387,11.996 18.724,11.930 18.704 C 11.892 18.693,10.739 18.403,9.369 18.061 L 6.878 17.439 6.662 17.263 C 6.508 17.138,6.381 17.073,6.223 17.037 L 6.000 16.987 6.000 11.883 L 6.000 6.779 8.970 6.033 C 10.603 5.623,11.954 5.286,11.970 5.284 C 11.987 5.282,12.000 8.305,12.000 12.003 " stroke="none" fill-rule="evenodd" fill="black"></path></svg>