<svg viewBox="0 0 24 24" xmlns="http://www.w3.org/2000/svg" fill="none" stroke="#000000" stroke-width="2" stroke-linecap="round" stroke-linejoin="round"><path d="M11.120 1.644 C 9.604 1.815,8.069 2.470,6.900 3.446 C 5.758 4.400,4.929 5.582,4.460 6.925 C 3.858 8.649,3.847 10.414,4.427 12.160 C 5.452 15.248,8.110 17.547,11.108 17.940 C 13.653 18.274,16.276 17.141,18.052 14.940 C 19.298 13.397,20.000 11.471,20.000 9.600 C 20.000 7.547,19.224 5.598,17.820 4.125 C 16.474 2.712,14.743 1.850,12.832 1.642 C 12.386 1.594,11.560 1.595,11.120 1.644 M13.140 3.724 C 14.290 3.956,15.290 4.471,16.108 5.254 C 17.579 6.659,18.210 8.505,17.915 10.540 C 17.786 11.428,17.360 12.466,16.780 13.304 C 16.420 13.824,15.585 14.659,15.087 14.996 C 14.147 15.632,13.018 16.000,12.000 16.000 C 10.983 16.000,9.854 15.633,8.913 14.996 C 8.381 14.636,7.544 13.787,7.167 13.225 C 6.009 11.497,5.706 9.486,6.329 7.660 C 6.769 6.370,7.745 5.159,8.900 4.472 C 9.639 4.032,10.547 3.727,11.374 3.640 C 11.842 3.590,12.675 3.630,13.140 3.724 " stroke="none" fill-rule="evenodd" fill="black"></path></svg>