<svg viewBox="0 0 24 24" xmlns="http://www.w3.org/2000/svg" fill="none" stroke="#000000" stroke-width="2" stroke-linecap="round" stroke-linejoin="round"><path d="M6.700 4.056 C 6.612 4.085,6.063 4.346,5.480 4.638 C 4.313 5.223,4.179 5.322,4.059 5.683 C 4.009 5.834,3.997 5.956,4.014 6.126 L 4.039 6.360 3.229 6.765 C 2.342 7.208,2.176 7.336,2.065 7.664 C 1.983 7.905,1.983 8.094,2.066 8.343 C 2.123 8.516,2.268 8.678,3.236 9.653 C 3.843 10.265,4.421 10.814,4.520 10.873 C 4.672 10.963,4.746 10.980,5.000 10.980 C 5.256 10.980,5.328 10.964,5.489 10.869 C 5.745 10.718,5.813 10.618,6.255 9.731 L 6.639 8.963 6.889 8.986 C 7.059 9.001,7.194 8.989,7.306 8.950 L 7.472 8.892 11.792 13.216 L 16.112 17.540 16.053 17.700 C 16.012 17.809,16.001 17.940,16.015 18.111 L 16.037 18.361 15.229 18.765 C 14.342 19.208,14.176 19.336,14.065 19.664 C 13.983 19.905,13.983 20.094,14.066 20.343 C 14.123 20.516,14.268 20.678,15.236 21.653 C 15.843 22.265,16.421 22.814,16.520 22.873 C 16.672 22.963,16.746 22.980,17.000 22.980 C 17.256 22.980,17.328 22.964,17.489 22.869 C 17.745 22.719,17.813 22.618,18.251 21.739 L 18.631 20.979 18.966 20.979 C 19.260 20.980,19.323 20.967,19.489 20.869 C 19.592 20.808,19.721 20.700,19.775 20.629 C 19.829 20.558,20.120 20.003,20.422 19.396 C 21.008 18.217,21.061 18.053,20.960 17.735 C 20.843 17.361,20.582 17.121,20.199 17.032 C 20.059 17.000,20.000 16.967,20.000 16.920 C 20.000 16.884,19.970 16.767,19.934 16.660 C 19.844 16.397,19.592 16.150,19.321 16.060 C 19.014 15.958,18.782 15.999,18.282 16.241 L 17.864 16.444 13.210 11.790 L 8.556 7.136 8.764 6.708 C 8.991 6.240,9.041 5.991,8.960 5.735 C 8.843 5.361,8.582 5.121,8.199 5.032 C 8.059 5.000,8.000 4.967,8.000 4.920 C 8.000 4.753,7.856 4.454,7.701 4.299 C 7.433 4.031,7.061 3.941,6.700 4.056 " stroke="none" fill-rule="evenodd" fill="black"></path></svg>