<svg viewBox="0 0 24 24" xmlns="http://www.w3.org/2000/svg" fill="none" stroke="#000000" stroke-width="2" stroke-linecap="round" stroke-linejoin="round"><path d="M7.580 2.096 C 7.423 2.170,7.030 2.543,5.756 3.825 C 4.307 5.284,4.124 5.481,4.066 5.657 C 4.007 5.833,4.000 6.188,4.002 9.017 C 4.003 11.555,4.014 12.210,4.057 12.330 C 4.136 12.551,4.298 12.744,4.511 12.869 L 4.700 12.980 5.848 12.992 L 6.997 13.004 7.008 14.652 L 7.020 16.300 7.131 16.489 C 7.256 16.702,7.449 16.864,7.670 16.943 C 7.798 16.989,7.464 16.997,5.356 16.998 C 2.684 17.000,2.670 17.001,2.382 17.221 C 2.302 17.282,2.187 17.415,2.128 17.516 C 2.037 17.672,2.020 17.746,2.020 18.000 C 2.020 18.256,2.036 18.328,2.131 18.489 C 2.256 18.702,2.449 18.864,2.670 18.943 C 2.792 18.986,3.680 18.997,7.410 18.998 L 12.000 19.000 12.000 19.500 L 12.000 20.000 11.446 20.000 C 10.648 20.000,10.367 20.110,10.128 20.516 C 10.037 20.672,10.020 20.746,10.020 21.000 C 10.020 21.256,10.036 21.328,10.131 21.489 C 10.192 21.592,10.304 21.725,10.381 21.783 C 10.646 21.986,10.729 21.996,12.020 21.997 C 13.143 21.998,13.232 21.993,13.400 21.917 C 13.642 21.807,13.791 21.660,13.905 21.420 L 13.999 21.220 13.999 19.500 L 13.999 17.780 13.905 17.580 C 13.788 17.334,13.640 17.191,13.383 17.077 L 13.187 16.990 13.333 16.940 C 13.550 16.866,13.744 16.702,13.869 16.489 L 13.980 16.300 13.980 9.500 L 13.980 2.700 13.872 2.516 C 13.813 2.415,13.698 2.282,13.618 2.221 C 13.327 1.999,13.334 2.000,10.444 2.000 L 7.780 2.001 7.580 2.096 M15.695 2.057 C 15.466 2.129,15.256 2.299,15.128 2.516 L 15.020 2.700 15.010 9.414 C 15.003 13.835,15.013 16.179,15.039 16.278 C 15.099 16.498,15.291 16.739,15.508 16.867 L 15.700 16.980 18.500 16.980 L 21.300 16.980 21.492 16.867 C 21.709 16.739,21.901 16.498,21.961 16.278 C 21.987 16.179,21.997 13.835,21.990 9.414 L 21.980 2.700 21.872 2.516 C 21.740 2.293,21.533 2.128,21.290 2.055 C 21.031 1.977,15.944 1.979,15.695 2.057 M12.000 7.000 L 12.000 10.000 10.500 10.000 L 9.000 10.000 9.000 7.000 L 9.000 4.000 10.500 4.000 L 12.000 4.000 12.000 7.000 M20.000 7.000 L 20.000 10.000 18.500 10.000 L 17.000 10.000 17.000 7.000 L 17.000 4.000 18.500 4.000 L 20.000 4.000 20.000 7.000 M7.000 8.220 L 7.000 11.000 6.500 11.000 L 6.000 11.000 6.000 8.711 L 6.000 6.421 6.489 5.931 C 6.759 5.661,6.984 5.440,6.989 5.440 C 6.995 5.440,7.000 6.691,7.000 8.220 M12.000 13.500 L 12.000 15.000 10.500 15.000 L 9.000 15.000 9.000 13.500 L 9.000 12.000 10.500 12.000 L 12.000 12.000 12.000 13.500 M20.000 13.500 L 20.000 15.000 18.500 15.000 L 17.000 15.000 17.000 13.500 L 17.000 12.000 18.500 12.000 L 20.000 12.000 20.000 13.500 " stroke="none" fill-rule="evenodd" fill="black"></path></svg>