<svg viewBox="0 0 24 24" xmlns="http://www.w3.org/2000/svg" fill="none" stroke="#000000" stroke-width="2" stroke-linecap="round" stroke-linejoin="round"><path d="M11.280 1.023 C 11.203 1.032,10.951 1.059,10.720 1.083 C 8.832 1.283,6.991 2.023,5.360 3.235 C 4.751 3.688,3.684 4.755,3.226 5.367 C 0.728 8.714,0.301 13.032,2.097 16.780 C 2.643 17.918,3.276 18.801,4.238 19.762 C 5.199 20.724,6.082 21.357,7.220 21.903 C 10.967 23.699,15.288 23.270,18.637 20.770 C 19.246 20.316,20.316 19.246,20.770 18.637 C 23.744 14.652,23.744 9.348,20.770 5.363 C 20.316 4.755,19.247 3.686,18.640 3.235 C 17.045 2.049,15.365 1.360,13.423 1.096 C 13.000 1.038,11.574 0.990,11.280 1.023 M13.320 3.101 C 15.883 3.488,18.124 4.931,19.560 7.120 C 19.863 7.583,20.303 8.479,20.492 9.020 C 20.838 10.013,20.977 10.865,20.977 12.000 C 20.977 13.493,20.720 14.621,20.080 15.940 C 19.375 17.394,18.311 18.607,16.927 19.532 C 16.138 20.060,14.876 20.588,13.908 20.797 C 11.266 21.366,8.479 20.708,6.370 19.019 C 4.857 17.807,3.722 16.029,3.267 14.160 C 3.081 13.397,3.023 12.888,3.023 12.000 C 3.023 10.507,3.280 9.379,3.920 8.060 C 4.971 5.891,6.877 4.221,9.160 3.466 C 9.865 3.233,10.432 3.118,11.340 3.024 C 11.662 2.991,12.911 3.039,13.320 3.101 M8.668 7.061 C 8.585 7.092,8.462 7.156,8.396 7.203 C 8.270 7.293,7.205 8.853,7.076 9.137 C 6.972 9.365,6.980 9.655,7.095 9.900 C 7.261 10.250,7.524 10.439,7.925 10.497 L 8.109 10.523 8.056 10.672 C 7.948 10.975,8.014 11.353,8.222 11.626 C 8.443 11.916,8.920 12.069,9.264 11.961 C 9.607 11.853,9.698 11.754,10.319 10.820 C 10.647 10.327,10.934 9.855,10.957 9.772 C 11.024 9.532,11.007 9.316,10.905 9.100 C 10.732 8.736,10.418 8.520,10.061 8.520 C 9.962 8.520,9.880 8.513,9.880 8.505 C 9.880 8.497,9.907 8.414,9.940 8.320 C 10.212 7.550,9.434 6.780,8.668 7.061 M14.668 7.061 C 14.585 7.092,14.462 7.156,14.396 7.203 C 14.270 7.293,13.205 8.853,13.076 9.137 C 12.972 9.365,12.980 9.655,13.095 9.900 C 13.261 10.250,13.524 10.439,13.925 10.497 L 14.109 10.523 14.056 10.672 C 13.948 10.975,14.014 11.353,14.222 11.626 C 14.443 11.916,14.920 12.069,15.264 11.961 C 15.607 11.853,15.698 11.754,16.319 10.820 C 16.647 10.327,16.934 9.855,16.957 9.772 C 17.024 9.532,17.007 9.316,16.905 9.100 C 16.732 8.736,16.418 8.520,16.061 8.520 C 15.962 8.520,15.880 8.513,15.880 8.505 C 15.880 8.497,15.907 8.414,15.940 8.320 C 16.212 7.550,15.434 6.780,14.668 7.061 M7.670 13.055 C 7.157 13.246,6.887 13.799,7.057 14.311 C 7.189 14.708,7.906 15.424,8.714 15.965 C 9.205 16.294,9.718 16.546,10.240 16.714 C 10.915 16.932,11.230 16.980,12.000 16.980 C 12.770 16.980,13.085 16.932,13.760 16.714 C 14.282 16.546,14.795 16.294,15.286 15.965 C 16.094 15.424,16.811 14.708,16.943 14.311 C 17.121 13.776,16.804 13.181,16.264 13.036 C 16.071 12.984,15.722 13.016,15.556 13.102 C 15.492 13.135,15.237 13.366,14.990 13.614 C 14.330 14.276,13.772 14.622,12.971 14.867 C 12.655 14.963,12.558 14.974,12.000 14.974 C 11.442 14.974,11.345 14.963,11.029 14.867 C 10.228 14.622,9.670 14.276,9.010 13.614 C 8.763 13.366,8.506 13.134,8.439 13.100 C 8.266 13.010,7.854 12.986,7.670 13.055 " stroke="none" fill-rule="evenodd" fill="black"></path></svg>