<svg viewBox="0 0 24 24" xmlns="http://www.w3.org/2000/svg" fill="none" stroke="#000000" stroke-width="2" stroke-linecap="round" stroke-linejoin="round"><path d="M11.280 1.023 C 11.203 1.032,10.951 1.059,10.720 1.083 C 8.832 1.283,6.991 2.023,5.360 3.235 C 4.751 3.688,3.684 4.755,3.226 5.367 C 0.728 8.714,0.301 13.032,2.097 16.780 C 2.643 17.918,3.276 18.801,4.238 19.762 C 5.199 20.724,6.082 21.357,7.220 21.903 C 10.967 23.699,15.288 23.270,18.637 20.770 C 19.246 20.316,20.316 19.246,20.770 18.637 C 23.744 14.652,23.744 9.348,20.770 5.363 C 20.316 4.755,19.247 3.686,18.640 3.235 C 17.045 2.049,15.365 1.360,13.423 1.096 C 13.000 1.038,11.574 0.990,11.280 1.023 M13.320 3.101 C 15.883 3.488,18.124 4.931,19.560 7.120 C 19.863 7.583,20.303 8.479,20.492 9.020 C 20.838 10.013,20.977 10.865,20.977 12.000 C 20.977 13.493,20.720 14.621,20.080 15.940 C 19.375 17.394,18.311 18.607,16.927 19.532 C 16.138 20.060,14.876 20.588,13.908 20.797 C 11.266 21.366,8.479 20.708,6.370 19.019 C 4.857 17.807,3.722 16.029,3.267 14.160 C 3.081 13.397,3.023 12.888,3.023 12.000 C 3.023 10.507,3.280 9.379,3.920 8.060 C 4.971 5.891,6.877 4.221,9.160 3.466 C 9.865 3.233,10.432 3.118,11.340 3.024 C 11.662 2.991,12.911 3.039,13.320 3.101 M7.240 7.035 C 7.042 7.100,6.892 7.197,6.752 7.352 C 6.314 7.837,6.474 8.597,7.077 8.897 C 7.515 9.115,9.753 9.975,9.925 9.991 C 10.476 10.044,11.000 9.561,11.000 9.000 C 11.000 8.759,10.881 8.479,10.702 8.300 C 10.555 8.153,10.388 8.075,9.159 7.583 C 7.751 7.020,7.503 6.949,7.240 7.035 M16.080 7.093 C 15.937 7.145,15.290 7.402,14.641 7.662 C 13.605 8.078,13.443 8.155,13.298 8.300 C 13.119 8.479,13.000 8.759,13.000 9.000 C 13.000 9.561,13.524 10.044,14.075 9.991 C 14.248 9.975,16.496 9.111,16.920 8.898 C 17.287 8.713,17.492 8.389,17.490 7.999 C 17.486 7.271,16.797 6.828,16.080 7.093 M11.300 14.023 C 10.048 14.148,9.207 14.346,8.287 14.735 C 7.524 15.057,7.179 15.323,7.060 15.681 C 6.831 16.369,7.380 17.063,8.096 16.989 C 8.240 16.974,8.420 16.906,8.682 16.767 C 10.003 16.065,11.928 15.828,13.576 16.164 C 14.157 16.282,14.881 16.532,15.318 16.766 C 15.580 16.905,15.759 16.974,15.902 16.989 C 16.614 17.062,17.178 16.353,16.941 15.682 C 16.813 15.320,16.559 15.116,15.840 14.795 C 15.065 14.449,14.289 14.229,13.380 14.097 C 12.990 14.040,11.619 13.992,11.300 14.023 " stroke="none" fill-rule="evenodd" fill="black"></path></svg>