<svg viewBox="0 0 24 24" xmlns="http://www.w3.org/2000/svg" fill="none" stroke="#000000" stroke-width="2" stroke-linecap="round" stroke-linejoin="round"><path d="M11.280 1.023 C 11.203 1.032,10.951 1.059,10.720 1.083 C 8.832 1.283,6.991 2.023,5.360 3.235 C 4.751 3.688,3.684 4.755,3.226 5.367 C 0.728 8.714,0.301 13.032,2.097 16.780 C 2.643 17.918,3.276 18.801,4.238 19.762 C 5.199 20.724,6.082 21.357,7.220 21.903 C 10.967 23.699,15.288 23.270,18.637 20.770 C 19.246 20.316,20.316 19.246,20.770 18.637 C 23.744 14.652,23.744 9.348,20.770 5.363 C 20.316 4.755,19.247 3.686,18.640 3.235 C 17.045 2.049,15.365 1.360,13.423 1.096 C 13.000 1.038,11.574 0.990,11.280 1.023 M13.320 3.101 C 15.883 3.488,18.124 4.931,19.560 7.120 C 19.863 7.583,20.303 8.479,20.492 9.020 C 20.838 10.013,20.977 10.865,20.977 12.000 C 20.977 13.493,20.720 14.621,20.080 15.940 C 19.375 17.394,18.311 18.607,16.927 19.532 C 16.138 20.060,14.876 20.588,13.908 20.797 C 11.266 21.366,8.479 20.708,6.370 19.019 C 4.857 17.807,3.722 16.029,3.267 14.160 C 3.081 13.397,3.023 12.888,3.023 12.000 C 3.023 10.507,3.280 9.379,3.920 8.060 C 4.971 5.891,6.877 4.221,9.160 3.466 C 9.865 3.233,10.432 3.118,11.340 3.024 C 11.662 2.991,12.911 3.039,13.320 3.101 M8.695 8.055 C 8.464 8.130,8.255 8.300,8.128 8.516 C 8.037 8.672,8.020 8.746,8.020 9.000 C 8.020 9.257,8.036 9.327,8.133 9.492 C 8.651 10.374,9.998 10.018,9.998 9.000 C 9.998 8.623,9.792 8.281,9.463 8.112 C 9.265 8.010,8.911 7.984,8.695 8.055 M14.695 8.055 C 14.464 8.130,14.255 8.300,14.128 8.516 C 14.037 8.672,14.020 8.746,14.020 9.000 C 14.020 9.257,14.036 9.327,14.133 9.492 C 14.651 10.374,15.998 10.018,15.998 9.000 C 15.998 8.623,15.792 8.281,15.463 8.112 C 15.265 8.010,14.911 7.984,14.695 8.055 M9.695 12.057 C 9.466 12.129,9.256 12.299,9.128 12.516 C 9.025 12.692,9.019 12.728,9.007 13.350 L 8.993 14.000 8.443 14.000 C 7.648 14.000,7.366 14.111,7.128 14.516 C 7.037 14.672,7.020 14.746,7.020 15.000 C 7.020 15.256,7.036 15.328,7.131 15.489 C 7.256 15.702,7.449 15.864,7.670 15.943 C 7.768 15.978,8.023 15.997,8.410 15.998 L 9.000 16.000 9.002 16.590 C 9.003 16.977,9.022 17.232,9.057 17.330 C 9.136 17.551,9.298 17.744,9.511 17.869 C 9.672 17.964,9.744 17.980,10.000 17.980 C 10.257 17.980,10.327 17.964,10.492 17.867 C 10.700 17.745,10.913 17.485,10.948 17.310 C 10.960 17.250,10.983 17.200,11.000 17.200 C 11.017 17.200,11.040 17.250,11.052 17.310 C 11.087 17.485,11.300 17.745,11.508 17.867 C 11.673 17.964,11.743 17.980,12.000 17.980 C 12.257 17.980,12.327 17.964,12.492 17.867 C 12.700 17.745,12.913 17.485,12.948 17.310 C 12.960 17.250,12.983 17.200,13.000 17.200 C 13.017 17.200,13.040 17.250,13.052 17.310 C 13.087 17.485,13.300 17.745,13.508 17.867 C 13.673 17.964,13.743 17.980,14.000 17.980 C 14.256 17.980,14.328 17.964,14.489 17.869 C 14.702 17.744,14.864 17.551,14.943 17.330 C 14.978 17.232,14.997 16.977,14.998 16.590 L 15.000 16.000 15.590 15.998 C 15.977 15.997,16.232 15.978,16.330 15.943 C 16.551 15.864,16.744 15.702,16.869 15.489 C 16.964 15.328,16.980 15.256,16.980 15.000 C 16.980 14.746,16.963 14.672,16.872 14.516 C 16.634 14.111,16.352 14.000,15.557 14.000 L 15.007 14.000 14.993 13.350 C 14.981 12.726,14.976 12.693,14.871 12.514 C 14.572 12.006,13.906 11.858,13.423 12.192 C 13.255 12.307,13.040 12.609,13.040 12.728 C 13.040 12.768,13.022 12.800,13.000 12.800 C 12.978 12.800,12.960 12.768,12.960 12.728 C 12.960 12.609,12.745 12.307,12.577 12.192 C 12.107 11.867,11.458 11.997,11.153 12.478 C 11.091 12.576,11.040 12.688,11.040 12.728 C 11.040 12.768,11.022 12.800,11.000 12.800 C 10.978 12.800,10.960 12.770,10.960 12.734 C 10.960 12.621,10.771 12.338,10.618 12.221 C 10.350 12.017,10.014 11.957,9.695 12.057 " stroke="none" fill="black" fill-rule="evenodd"></path></svg>