<svg viewBox="0 0 24 24" xmlns="http://www.w3.org/2000/svg" fill="none" stroke="#000000" stroke-width="2" stroke-linecap="round" stroke-linejoin="round"><path d="M2.664 1.063 C 2.043 1.290,1.818 1.999,2.185 2.570 C 2.256 2.681,2.547 2.898,3.301 3.400 C 3.861 3.775,4.320 4.092,4.320 4.105 C 4.320 4.118,4.148 4.310,3.937 4.531 C 2.320 6.232,1.252 8.625,1.043 11.020 C 0.804 13.746,1.569 16.412,3.226 18.633 C 3.701 19.269,4.753 20.316,5.400 20.797 C 9.364 23.745,14.666 23.734,18.637 20.770 C 19.246 20.316,20.316 19.246,20.770 18.637 C 22.045 16.929,22.785 14.989,22.962 12.891 C 23.028 12.109,23.003 11.741,22.869 11.512 C 22.761 11.327,22.571 11.158,22.373 11.070 C 22.284 11.031,20.751 11.016,15.310 11.000 L 8.360 10.980 8.730 10.702 C 9.257 10.306,10.353 9.196,10.770 8.637 C 12.175 6.754,12.961 4.510,12.976 2.340 C 12.980 1.711,12.978 1.697,12.871 1.514 C 12.624 1.094,12.297 0.974,11.507 1.016 C 9.647 1.114,7.884 1.639,6.400 2.535 C 6.192 2.661,5.993 2.757,5.959 2.748 C 5.925 2.739,5.351 2.368,4.684 1.923 C 4.017 1.477,3.399 1.088,3.310 1.057 C 3.110 0.986,2.867 0.988,2.664 1.063 M20.674 1.059 C 20.594 1.089,19.798 1.601,18.904 2.198 C 17.206 3.332,17.153 3.375,17.039 3.736 C 16.931 4.080,17.084 4.557,17.374 4.778 C 17.644 4.984,18.026 5.052,18.320 4.946 C 18.544 4.865,21.700 2.740,21.796 2.606 C 21.843 2.539,21.908 2.410,21.941 2.318 C 22.211 1.552,21.434 0.780,20.674 1.059 M10.903 3.290 C 10.753 4.443,10.215 5.881,9.560 6.880 C 9.166 7.480,8.749 7.977,8.498 8.143 C 8.360 8.235,8.219 8.375,8.127 8.513 C 7.716 9.133,6.115 10.118,4.842 10.535 C 4.298 10.714,3.406 10.920,3.180 10.920 C 3.070 10.920,3.070 10.919,3.097 10.710 C 3.204 9.886,3.513 8.889,3.918 8.060 C 4.640 6.579,5.713 5.368,7.123 4.440 C 7.940 3.902,9.190 3.387,10.120 3.205 C 10.351 3.160,10.576 3.115,10.620 3.106 C 10.664 3.097,10.752 3.087,10.815 3.085 L 10.930 3.080 10.903 3.290 M14.695 8.055 C 14.464 8.130,14.255 8.300,14.128 8.516 C 14.037 8.672,14.020 8.746,14.020 9.000 C 14.020 9.257,14.036 9.327,14.133 9.492 C 14.651 10.374,15.998 10.018,15.998 9.000 C 15.998 8.623,15.792 8.281,15.463 8.112 C 15.265 8.010,14.911 7.984,14.695 8.055 M7.000 13.073 C 7.000 13.502,7.726 14.304,8.714 14.965 C 9.205 15.294,9.718 15.546,10.240 15.714 C 10.915 15.932,11.230 15.980,12.000 15.980 C 12.770 15.980,13.085 15.932,13.760 15.714 C 14.282 15.546,14.795 15.294,15.286 14.965 C 16.274 14.304,17.000 13.502,17.000 13.073 C 17.000 13.003,17.091 13.000,18.966 13.000 L 20.931 13.000 20.906 13.239 C 20.792 14.335,20.227 15.863,19.560 16.880 C 18.645 18.273,17.459 19.328,15.980 20.061 C 13.447 21.317,10.485 21.310,7.980 20.042 C 6.773 19.432,5.805 18.652,4.990 17.635 C 3.980 16.374,3.243 14.665,3.094 13.239 L 3.069 13.000 5.034 13.000 C 6.909 13.000,7.000 13.003,7.000 13.073 M14.541 13.038 C 14.495 13.114,13.847 13.522,13.587 13.640 C 13.442 13.706,13.165 13.808,12.971 13.867 C 12.655 13.963,12.558 13.974,12.000 13.974 C 11.442 13.974,11.345 13.963,11.029 13.867 C 10.835 13.808,10.558 13.706,10.413 13.640 C 10.153 13.522,9.505 13.114,9.459 13.038 C 9.444 13.014,10.374 13.000,12.000 13.000 C 13.626 13.000,14.556 13.014,14.541 13.038 " stroke="none" fill-rule="evenodd" fill="black"></path></svg>