<svg viewBox="0 0 24 24" xmlns="http://www.w3.org/2000/svg" fill="none" stroke="#000000" stroke-width="2" stroke-linecap="round" stroke-linejoin="round"><path d="M11.385 1.043 C 9.248 1.339,7.709 2.950,7.525 5.085 C 7.489 5.502,7.520 6.108,7.594 6.435 L 7.634 6.611 7.285 6.955 C 6.212 8.015,5.639 9.318,5.523 10.956 C 5.425 12.358,5.715 13.579,6.394 14.620 L 6.550 14.860 6.181 15.245 C 5.091 16.381,4.515 17.840,4.515 19.460 C 4.516 20.390,4.708 21.116,5.150 21.851 C 5.635 22.657,6.198 23.214,7.096 23.777 L 7.452 24.000 12.000 24.000 L 16.548 24.000 16.904 23.777 C 17.802 23.214,18.365 22.657,18.850 21.851 C 19.292 21.116,19.484 20.390,19.485 19.460 C 19.485 17.838,18.908 16.380,17.816 15.242 L 17.444 14.855 17.604 14.617 C 18.271 13.629,18.575 12.359,18.477 10.968 C 18.434 10.358,18.390 10.099,18.235 9.544 C 17.950 8.525,17.461 7.693,16.715 6.955 L 16.366 6.611 16.406 6.435 C 16.480 6.108,16.511 5.502,16.475 5.085 C 16.302 3.072,14.914 1.508,12.940 1.101 C 12.551 1.020,11.759 0.991,11.385 1.043 M12.760 3.102 C 13.603 3.357,14.223 4.014,14.423 4.864 C 14.528 5.308,14.485 5.992,14.321 6.498 C 14.091 7.203,14.187 7.477,14.842 7.981 C 15.728 8.664,16.234 9.510,16.424 10.625 C 16.507 11.115,16.483 12.169,16.380 12.540 C 16.224 13.097,15.917 13.615,15.423 14.154 C 15.074 14.534,15.023 14.639,15.021 14.981 C 15.019 15.398,15.130 15.588,15.573 15.927 C 16.212 16.416,16.525 16.733,16.822 17.189 C 17.304 17.930,17.509 18.697,17.469 19.610 C 17.437 20.344,17.231 20.833,16.730 21.365 C 16.350 21.768,16.008 22.011,15.420 22.299 C 14.382 22.806,13.509 22.980,12.000 22.980 C 10.491 22.980,9.618 22.806,8.580 22.299 C 7.566 21.803,6.929 21.161,6.636 20.336 C 6.528 20.032,6.488 19.251,6.558 18.814 C 6.747 17.646,7.294 16.788,8.369 15.974 C 8.875 15.590,8.980 15.422,8.979 15.000 C 8.978 14.637,8.933 14.542,8.577 14.154 C 8.083 13.615,7.776 13.097,7.620 12.540 C 7.517 12.169,7.493 11.115,7.576 10.625 C 7.766 9.510,8.272 8.664,9.158 7.981 C 9.813 7.477,9.909 7.203,9.679 6.498 C 9.515 5.992,9.472 5.308,9.577 4.864 C 9.804 3.898,10.586 3.180,11.580 3.025 C 11.814 2.989,12.542 3.037,12.760 3.102 M9.695 11.055 C 9.464 11.130,9.255 11.300,9.128 11.516 C 9.037 11.672,9.020 11.746,9.020 12.000 C 9.020 12.257,9.036 12.327,9.133 12.492 C 9.651 13.374,10.998 13.018,10.998 12.000 C 10.998 11.623,10.792 11.281,10.463 11.112 C 10.265 11.010,9.911 10.984,9.695 11.055 M13.695 11.055 C 13.464 11.130,13.255 11.300,13.128 11.516 C 13.037 11.672,13.020 11.746,13.020 12.000 C 13.020 12.257,13.036 12.327,13.133 12.492 C 13.651 13.374,14.998 13.018,14.998 12.000 C 14.998 11.623,14.792 11.281,14.463 11.112 C 14.265 11.010,13.911 10.984,13.695 11.055 M9.670 15.059 C 9.446 15.144,9.249 15.310,9.128 15.516 C 9.037 15.672,9.020 15.746,9.020 16.000 C 9.020 16.255,9.036 16.328,9.129 16.486 C 9.479 17.080,10.394 17.359,11.995 17.360 C 13.566 17.360,14.506 17.079,14.859 16.503 C 14.966 16.330,14.980 16.270,14.980 16.003 C 14.980 15.746,14.964 15.672,14.872 15.516 C 14.674 15.180,14.289 14.974,13.923 15.009 C 13.819 15.019,13.618 15.082,13.476 15.150 C 13.144 15.310,12.793 15.360,12.000 15.360 C 11.204 15.360,10.857 15.310,10.520 15.149 C 10.219 15.004,9.901 14.970,9.670 15.059 " stroke="none" fill-rule="evenodd" fill="black"></path></svg>