<svg viewBox="0 0 24 24" xmlns="http://www.w3.org/2000/svg" fill="none" stroke="#000000" stroke-width="2" stroke-linecap="round" stroke-linejoin="round"><path d="M11.280 1.023 C 11.203 1.032,10.951 1.059,10.720 1.083 C 8.832 1.283,6.991 2.023,5.360 3.235 C 4.751 3.688,3.684 4.755,3.226 5.367 C 0.728 8.714,0.301 13.032,2.097 16.780 C 2.643 17.918,3.276 18.801,4.238 19.762 C 5.199 20.724,6.082 21.357,7.220 21.903 C 10.967 23.699,15.288 23.270,18.637 20.770 C 19.246 20.316,20.316 19.246,20.770 18.637 C 23.744 14.652,23.744 9.348,20.770 5.363 C 20.316 4.755,19.247 3.686,18.640 3.235 C 17.045 2.049,15.365 1.360,13.423 1.096 C 13.000 1.038,11.574 0.990,11.280 1.023 M13.320 3.101 C 15.883 3.488,18.124 4.931,19.560 7.120 C 19.863 7.583,20.303 8.479,20.492 9.020 C 20.838 10.013,20.977 10.865,20.977 12.000 C 20.977 13.134,20.839 13.983,20.492 14.980 C 20.357 15.370,19.826 16.500,19.704 16.660 C 19.647 16.734,19.642 16.721,19.641 16.476 C 19.638 15.748,19.246 14.947,18.468 14.078 C 18.060 13.622,17.640 13.277,17.258 13.085 C 15.960 12.431,14.765 13.117,14.304 14.780 C 14.243 15.000,14.172 15.225,14.145 15.280 C 14.083 15.410,13.465 15.720,12.980 15.866 C 12.656 15.963,12.558 15.974,12.000 15.974 C 11.442 15.974,11.345 15.963,11.029 15.867 C 10.228 15.622,9.670 15.276,9.010 14.614 C 8.763 14.366,8.508 14.135,8.444 14.102 C 8.278 14.016,7.929 13.984,7.736 14.036 C 7.196 14.181,6.879 14.776,7.057 15.311 C 7.189 15.708,7.906 16.424,8.714 16.965 C 9.205 17.294,9.718 17.546,10.240 17.714 C 10.925 17.935,11.228 17.980,12.020 17.978 C 12.796 17.975,13.173 17.917,13.800 17.703 C 13.965 17.647,14.118 17.600,14.140 17.600 C 14.162 17.600,14.230 17.679,14.291 17.776 C 14.727 18.466,15.350 18.928,16.105 19.121 C 16.529 19.230,16.896 19.225,17.420 19.103 L 17.540 19.075 17.420 19.178 C 16.693 19.805,15.096 20.540,13.908 20.797 C 11.268 21.366,8.479 20.708,6.370 19.019 C 4.857 17.807,3.722 16.029,3.267 14.160 C 3.081 13.397,3.023 12.888,3.023 12.000 C 3.023 10.507,3.280 9.379,3.920 8.060 C 4.971 5.891,6.877 4.221,9.160 3.466 C 9.865 3.233,10.432 3.118,11.340 3.024 C 11.662 2.991,12.911 3.039,13.320 3.101 M8.695 8.055 C 8.464 8.130,8.255 8.300,8.128 8.516 C 8.037 8.672,8.020 8.746,8.020 9.000 C 8.020 9.257,8.036 9.327,8.133 9.492 C 8.651 10.374,9.998 10.018,9.998 9.000 C 9.998 8.623,9.792 8.281,9.463 8.112 C 9.265 8.010,8.911 7.984,8.695 8.055 M14.695 8.055 C 14.464 8.130,14.255 8.300,14.128 8.516 C 14.037 8.672,14.020 8.746,14.020 9.000 C 14.020 9.257,14.036 9.327,14.133 9.492 C 14.651 10.374,15.998 10.018,15.998 9.000 C 15.998 8.623,15.792 8.281,15.463 8.112 C 15.265 8.010,14.911 7.984,14.695 8.055 M17.367 15.892 C 17.755 16.459,17.732 16.679,17.256 16.984 C 16.807 17.271,16.496 17.258,16.177 16.939 C 16.010 16.772,16.002 16.754,16.025 16.589 C 16.046 16.437,16.096 16.366,16.416 16.032 C 16.617 15.821,16.818 15.583,16.861 15.502 L 16.940 15.354 17.074 15.507 C 17.148 15.591,17.280 15.764,17.367 15.892 " stroke="none" fill-rule="evenodd" fill="black"></path></svg>