<svg viewBox="0 0 24 24" xmlns="http://www.w3.org/2000/svg" fill="none" stroke="#000000" stroke-width="2" stroke-linecap="round" stroke-linejoin="round"><path d="M11.280 1.023 C 11.203 1.032,10.951 1.059,10.720 1.083 C 8.832 1.283,6.991 2.023,5.360 3.235 C 4.751 3.688,3.684 4.755,3.226 5.367 C 0.728 8.714,0.301 13.032,2.097 16.780 C 2.643 17.918,3.276 18.801,4.238 19.762 C 5.199 20.724,6.082 21.357,7.220 21.903 C 10.967 23.699,15.288 23.270,18.637 20.770 C 19.246 20.316,20.316 19.246,20.770 18.637 C 23.744 14.652,23.744 9.348,20.770 5.363 C 20.316 4.755,19.247 3.686,18.640 3.235 C 17.045 2.049,15.365 1.360,13.423 1.096 C 13.000 1.038,11.574 0.990,11.280 1.023 M13.320 3.101 C 15.883 3.488,18.124 4.931,19.560 7.120 C 19.863 7.583,20.303 8.479,20.492 9.020 C 20.749 9.758,20.918 10.600,20.977 11.440 L 21.001 11.780 20.898 11.571 C 20.710 11.190,20.313 10.967,19.905 11.013 C 19.607 11.047,17.529 12.075,17.298 12.303 C 17.119 12.479,17.000 12.758,17.000 13.000 C 17.000 13.406,17.293 13.811,17.678 13.939 C 18.056 14.065,18.169 14.031,19.414 13.415 C 20.630 12.814,20.813 12.687,20.934 12.357 L 20.998 12.180 20.976 12.540 C 20.837 14.775,19.905 16.828,18.316 18.400 C 17.596 19.112,16.908 19.601,15.980 20.061 C 13.447 21.317,10.485 21.310,7.980 20.042 C 7.044 19.569,6.380 19.093,5.665 18.382 C 4.089 16.817,3.162 14.765,3.024 12.540 L 3.002 12.180 3.066 12.357 C 3.187 12.687,3.370 12.814,4.586 13.415 C 5.831 14.031,5.944 14.065,6.322 13.939 C 6.707 13.811,7.000 13.406,7.000 13.000 C 7.000 12.773,6.884 12.488,6.725 12.321 C 6.518 12.105,4.389 11.046,4.095 11.013 C 3.669 10.965,3.212 11.245,3.066 11.643 L 3.002 11.820 3.024 11.460 C 3.202 8.591,4.696 6.031,7.120 4.440 C 7.932 3.908,9.169 3.395,10.100 3.206 C 10.458 3.133,10.869 3.073,11.340 3.024 C 11.662 2.991,12.911 3.039,13.320 3.101 M8.695 8.055 C 8.464 8.130,8.255 8.300,8.128 8.516 C 8.037 8.672,8.020 8.746,8.020 9.000 C 8.020 9.257,8.036 9.327,8.133 9.492 C 8.651 10.374,9.998 10.018,9.998 9.000 C 9.998 8.623,9.792 8.281,9.463 8.112 C 9.265 8.010,8.911 7.984,8.695 8.055 M14.695 8.055 C 14.464 8.130,14.255 8.300,14.128 8.516 C 14.037 8.672,14.020 8.746,14.020 9.000 C 14.020 9.257,14.036 9.327,14.133 9.492 C 14.651 10.374,15.998 10.018,15.998 9.000 C 15.998 8.623,15.792 8.281,15.463 8.112 C 15.265 8.010,14.911 7.984,14.695 8.055 M7.670 13.055 C 7.157 13.246,6.887 13.799,7.057 14.311 C 7.189 14.708,7.906 15.424,8.714 15.965 C 9.205 16.294,9.718 16.546,10.240 16.714 C 10.915 16.932,11.230 16.980,12.000 16.980 C 12.770 16.980,13.085 16.932,13.760 16.714 C 14.282 16.546,14.795 16.294,15.286 15.965 C 16.094 15.424,16.811 14.708,16.943 14.311 C 17.121 13.776,16.804 13.181,16.264 13.036 C 16.071 12.984,15.722 13.016,15.556 13.102 C 15.492 13.135,15.237 13.366,14.990 13.614 C 14.330 14.276,13.772 14.622,12.971 14.867 C 12.655 14.963,12.558 14.974,12.000 14.974 C 11.442 14.974,11.345 14.963,11.029 14.867 C 10.228 14.622,9.670 14.276,9.010 13.614 C 8.763 13.366,8.506 13.134,8.439 13.100 C 8.266 13.010,7.854 12.986,7.670 13.055 " stroke="none" fill-rule="evenodd" fill="black"></path></svg>