<svg viewBox="0 0 24 24" xmlns="http://www.w3.org/2000/svg" fill="none" stroke="#000000" stroke-width="2" stroke-linecap="round" stroke-linejoin="round"><path d="M11.280 1.023 C 11.203 1.032,10.951 1.059,10.720 1.083 C 8.832 1.283,6.991 2.023,5.360 3.235 C 4.751 3.688,3.684 4.755,3.226 5.367 C 0.728 8.714,0.301 13.032,2.097 16.780 C 2.643 17.918,3.276 18.801,4.238 19.762 C 5.199 20.724,6.082 21.357,7.220 21.903 C 10.967 23.699,15.288 23.270,18.637 20.770 C 19.246 20.316,20.316 19.246,20.770 18.637 C 23.744 14.652,23.744 9.348,20.770 5.363 C 20.316 4.755,19.247 3.686,18.640 3.235 C 17.045 2.049,15.365 1.360,13.423 1.096 C 13.000 1.038,11.574 0.990,11.280 1.023 M13.320 3.101 C 15.883 3.488,18.124 4.931,19.560 7.120 C 19.863 7.583,20.303 8.479,20.492 9.020 C 20.838 10.013,20.977 10.865,20.977 12.000 C 20.977 13.493,20.720 14.621,20.080 15.940 C 19.375 17.394,18.311 18.607,16.927 19.532 C 16.138 20.060,14.876 20.588,13.908 20.797 C 11.266 21.366,8.479 20.708,6.370 19.019 C 4.857 17.807,3.722 16.029,3.267 14.160 C 3.081 13.397,3.023 12.888,3.023 12.000 C 3.023 10.507,3.280 9.379,3.920 8.060 C 4.971 5.891,6.877 4.221,9.160 3.466 C 9.865 3.233,10.432 3.118,11.340 3.024 C 11.662 2.991,12.911 3.039,13.320 3.101 M7.695 9.057 C 7.466 9.129,7.256 9.299,7.128 9.516 C 7.037 9.672,7.020 9.746,7.020 10.000 C 7.020 10.256,7.036 10.328,7.131 10.489 C 7.256 10.702,7.449 10.864,7.670 10.943 C 7.892 11.022,16.108 11.022,16.330 10.943 C 16.551 10.864,16.744 10.702,16.869 10.489 C 16.964 10.328,16.980 10.256,16.980 10.000 C 16.980 9.746,16.963 9.672,16.872 9.516 C 16.740 9.293,16.533 9.128,16.290 9.055 C 16.029 8.976,7.946 8.979,7.695 9.057 M7.695 13.057 C 7.466 13.129,7.256 13.299,7.128 13.516 C 7.037 13.672,7.020 13.746,7.020 14.000 C 7.020 14.256,7.036 14.328,7.131 14.489 C 7.256 14.702,7.449 14.864,7.670 14.943 C 7.892 15.022,16.108 15.022,16.330 14.943 C 16.551 14.864,16.744 14.702,16.869 14.489 C 16.964 14.328,16.980 14.256,16.980 14.000 C 16.980 13.746,16.963 13.672,16.872 13.516 C 16.740 13.293,16.533 13.128,16.290 13.055 C 16.029 12.976,7.946 12.979,7.695 13.057 " stroke="none" fill-rule="evenodd" fill="black"></path></svg>