<svg viewBox="0 0 24 24" xmlns="http://www.w3.org/2000/svg" fill="none" stroke="#000000" stroke-width="2" stroke-linecap="round" stroke-linejoin="round"><path d="M11.280 1.023 C 11.203 1.032,10.951 1.059,10.720 1.083 C 8.832 1.283,6.991 2.023,5.360 3.235 C 4.751 3.688,3.684 4.755,3.226 5.367 C 0.728 8.714,0.301 13.032,2.097 16.780 C 2.643 17.918,3.276 18.801,4.238 19.762 C 5.199 20.724,6.082 21.357,7.220 21.903 C 10.967 23.699,15.288 23.270,18.637 20.770 C 19.246 20.316,20.316 19.246,20.770 18.637 C 23.744 14.652,23.744 9.348,20.770 5.363 C 20.316 4.755,19.247 3.686,18.640 3.235 C 17.045 2.049,15.365 1.360,13.423 1.096 C 13.000 1.038,11.574 0.990,11.280 1.023 M13.320 3.101 C 15.883 3.488,18.124 4.931,19.560 7.120 C 19.863 7.583,20.303 8.479,20.492 9.020 C 20.838 10.013,20.977 10.865,20.977 12.000 C 20.977 13.493,20.720 14.621,20.080 15.940 C 19.375 17.394,18.311 18.607,16.927 19.532 C 16.138 20.060,14.876 20.588,13.908 20.797 C 11.266 21.366,8.479 20.708,6.370 19.019 C 4.857 17.807,3.722 16.029,3.267 14.160 C 3.081 13.397,3.023 12.888,3.023 12.000 C 3.023 10.507,3.280 9.379,3.920 8.060 C 4.971 5.891,6.877 4.221,9.160 3.466 C 9.865 3.233,10.432 3.118,11.340 3.024 C 11.662 2.991,12.911 3.039,13.320 3.101 M10.880 3.384 C 10.825 3.394,10.611 3.429,10.403 3.463 C 9.978 3.532,9.193 3.782,8.825 3.966 C 7.581 4.589,6.614 5.547,6.024 6.740 C 5.577 7.645,5.408 8.310,5.372 9.300 C 5.341 10.186,5.461 10.914,5.773 11.730 L 5.876 12.000 5.773 12.270 C 5.461 13.086,5.341 13.814,5.372 14.700 C 5.406 15.652,5.573 16.332,5.980 17.180 C 6.843 18.977,8.512 20.220,10.520 20.564 C 10.945 20.636,11.119 20.646,11.680 20.627 C 12.656 20.595,13.317 20.434,14.180 20.020 C 15.061 19.597,15.751 19.033,16.395 18.209 C 16.611 17.932,16.878 17.495,16.943 17.311 C 17.210 16.555,16.441 15.792,15.682 16.059 C 15.408 16.156,15.289 16.268,15.013 16.688 C 14.704 17.158,14.372 17.525,14.005 17.801 C 12.385 19.019,10.142 18.900,8.664 17.518 C 8.236 17.118,7.831 16.520,7.636 16.000 C 7.310 15.133,7.277 14.051,7.553 13.239 L 7.628 13.020 11.464 13.000 L 15.300 12.980 15.492 12.867 C 16.211 12.444,16.143 11.412,15.373 11.070 C 15.286 11.032,14.376 11.015,11.442 11.000 L 7.623 10.980 7.536 10.700 C 7.488 10.546,7.436 10.325,7.421 10.210 L 7.392 10.000 10.786 9.998 C 13.517 9.997,14.209 9.986,14.330 9.943 C 14.551 9.864,14.744 9.702,14.869 9.489 C 14.964 9.328,14.980 9.256,14.980 9.000 C 14.980 8.746,14.963 8.672,14.872 8.516 C 14.813 8.415,14.698 8.282,14.618 8.221 C 14.323 7.997,14.383 8.000,10.874 8.000 C 9.095 8.000,7.640 7.990,7.640 7.979 C 7.640 7.930,7.903 7.440,8.059 7.198 C 8.771 6.093,10.130 5.361,11.467 5.360 C 12.925 5.360,14.195 6.057,15.010 7.306 C 15.288 7.732,15.407 7.844,15.682 7.941 C 16.444 8.210,17.211 7.448,16.943 6.689 C 16.912 6.601,16.809 6.405,16.715 6.254 C 15.825 4.832,14.363 3.820,12.700 3.475 C 12.315 3.396,11.140 3.337,10.880 3.384 " stroke="none" fill-rule="evenodd" fill="black"></path></svg>