<svg viewBox="0 0 24 24" xmlns="http://www.w3.org/2000/svg" fill="none" stroke="#000000" stroke-width="2" stroke-linecap="round" stroke-linejoin="round"><path d="M11.280 1.023 C 11.203 1.032,10.951 1.059,10.720 1.083 C 8.832 1.283,6.991 2.023,5.360 3.235 C 4.751 3.688,3.684 4.755,3.226 5.367 C 0.728 8.714,0.301 13.032,2.097 16.780 C 2.643 17.918,3.276 18.801,4.238 19.762 C 5.199 20.724,6.082 21.357,7.220 21.903 C 10.967 23.699,15.288 23.270,18.637 20.770 C 19.246 20.316,20.316 19.246,20.770 18.637 C 23.744 14.652,23.744 9.348,20.770 5.363 C 20.316 4.755,19.247 3.686,18.640 3.235 C 17.045 2.049,15.365 1.360,13.423 1.096 C 13.000 1.038,11.574 0.990,11.280 1.023 M13.320 3.101 C 15.883 3.488,18.124 4.931,19.560 7.120 C 19.863 7.583,20.303 8.479,20.492 9.020 C 20.669 9.528,20.816 10.133,20.906 10.720 C 21.003 11.354,21.003 12.646,20.906 13.280 C 20.569 15.485,19.519 17.388,17.836 18.850 C 17.690 18.977,17.556 19.080,17.537 19.080 C 17.519 19.080,16.837 18.417,16.022 17.606 C 14.704 16.295,14.518 16.124,14.343 16.066 C 13.993 15.949,13.669 16.002,13.377 16.225 C 13.229 16.338,13.046 16.613,13.032 16.744 C 13.027 16.786,13.014 16.343,13.002 15.760 L 12.980 14.700 12.871 14.514 C 12.479 13.848,11.521 13.848,11.129 14.514 L 11.020 14.700 10.998 15.760 C 10.986 16.343,10.973 16.786,10.968 16.744 C 10.954 16.613,10.771 16.338,10.623 16.225 C 10.331 16.002,10.007 15.949,9.657 16.066 C 9.482 16.124,9.296 16.295,7.978 17.606 C 7.163 18.417,6.481 19.080,6.463 19.080 C 6.412 19.080,5.942 18.664,5.583 18.300 C 4.471 17.175,3.639 15.688,3.267 14.160 C 3.081 13.397,3.023 12.888,3.023 12.000 C 3.023 10.507,3.280 9.379,3.920 8.060 C 4.971 5.891,6.877 4.221,9.160 3.466 C 9.865 3.233,10.432 3.118,11.340 3.024 C 11.662 2.991,12.911 3.039,13.320 3.101 M8.695 9.055 C 8.464 9.130,8.255 9.300,8.128 9.516 C 8.037 9.672,8.020 9.746,8.020 10.000 C 8.020 10.257,8.036 10.327,8.133 10.492 C 8.651 11.374,9.998 11.018,9.998 10.000 C 9.998 9.623,9.792 9.281,9.463 9.112 C 9.265 9.010,8.911 8.984,8.695 9.055 M14.695 9.055 C 14.464 9.130,14.255 9.300,14.128 9.516 C 14.037 9.672,14.020 9.746,14.020 10.000 C 14.020 10.257,14.036 10.327,14.133 10.492 C 14.651 11.374,15.998 11.018,15.998 10.000 C 15.998 9.623,15.792 9.281,15.463 9.112 C 15.265 9.010,14.911 8.984,14.695 9.055 M11.141 19.503 C 11.543 20.156,12.457 20.156,12.859 19.503 L 12.980 19.307 13.002 18.243 C 13.014 17.658,13.027 17.212,13.032 17.252 C 13.053 17.437,13.255 17.667,14.467 18.883 L 15.765 20.187 15.353 20.350 C 13.161 21.217,10.872 21.218,8.646 20.352 L 8.231 20.190 9.531 18.885 C 10.745 17.667,10.947 17.437,10.968 17.252 C 10.973 17.212,10.986 17.658,10.998 18.243 L 11.020 19.307 11.141 19.503 " stroke="none" fill-rule="evenodd" fill="black"></path></svg>