<svg viewBox="0 0 24 24" xmlns="http://www.w3.org/2000/svg" fill="none" stroke="#000000" stroke-width="2" stroke-linecap="round" stroke-linejoin="round"><path d="M11.280 1.023 C 11.203 1.032,10.951 1.059,10.720 1.083 C 8.832 1.283,6.991 2.023,5.360 3.235 C 4.751 3.688,3.684 4.755,3.226 5.367 C 0.728 8.714,0.301 13.032,2.097 16.780 C 2.643 17.918,3.276 18.801,4.238 19.762 C 5.199 20.724,6.082 21.357,7.220 21.903 C 10.967 23.699,15.288 23.270,18.637 20.770 C 19.246 20.316,20.316 19.246,20.770 18.637 C 23.744 14.652,23.744 9.348,20.770 5.363 C 20.316 4.755,19.247 3.686,18.640 3.235 C 17.045 2.049,15.365 1.360,13.423 1.096 C 13.000 1.038,11.574 0.990,11.280 1.023 M13.320 3.101 C 15.883 3.488,18.124 4.931,19.560 7.120 C 20.227 8.137,20.792 9.665,20.906 10.761 L 20.931 11.000 17.677 11.000 L 14.422 11.000 15.626 9.790 C 16.289 9.125,16.864 8.517,16.905 8.440 C 16.957 8.341,16.979 8.213,16.979 8.000 C 16.980 7.745,16.964 7.672,16.872 7.516 C 16.618 7.084,16.137 6.906,15.657 7.066 C 15.481 7.124,15.279 7.312,13.730 8.854 L 12.000 10.577 10.270 8.854 C 8.721 7.312,8.519 7.124,8.343 7.066 C 7.863 6.906,7.382 7.084,7.128 7.516 C 7.036 7.672,7.020 7.745,7.021 8.000 C 7.021 8.213,7.043 8.341,7.095 8.440 C 7.136 8.517,7.711 9.125,8.374 9.790 L 9.578 11.000 6.323 11.000 L 3.069 11.000 3.094 10.761 C 3.208 9.665,3.773 8.137,4.440 7.120 C 5.574 5.392,7.243 4.100,9.160 3.466 C 9.865 3.233,10.432 3.118,11.340 3.024 C 11.662 2.991,12.911 3.039,13.320 3.101 M13.460 14.883 C 14.494 15.918,15.421 16.813,15.520 16.873 C 15.673 16.964,15.746 16.980,16.000 16.980 C 16.257 16.980,16.327 16.964,16.492 16.867 C 16.714 16.737,16.901 16.498,16.965 16.264 C 17.019 16.061,16.989 15.733,16.899 15.555 C 16.862 15.481,16.289 14.876,15.626 14.210 L 14.422 13.000 17.677 13.000 L 20.931 13.000 20.906 13.239 C 20.792 14.335,20.227 15.863,19.560 16.880 C 18.645 18.273,17.459 19.328,15.980 20.061 C 13.447 21.317,10.485 21.310,7.980 20.042 C 6.773 19.432,5.805 18.652,4.990 17.635 C 3.980 16.374,3.243 14.665,3.094 13.239 L 3.069 13.000 7.324 13.000 L 11.580 13.000 13.460 14.883 " stroke="none" fill-rule="evenodd" fill="black"></path></svg>