<svg viewBox="0 0 24 24" xmlns="http://www.w3.org/2000/svg" fill="none" stroke="#000000" stroke-width="2" stroke-linecap="round" stroke-linejoin="round"><path d="M11.280 1.023 C 11.203 1.032,10.951 1.059,10.720 1.083 C 8.832 1.283,6.991 2.023,5.360 3.235 C 4.751 3.688,3.684 4.755,3.226 5.367 C 0.728 8.714,0.301 13.032,2.097 16.780 C 2.643 17.918,3.276 18.801,4.238 19.762 C 5.199 20.724,6.082 21.357,7.220 21.903 C 10.967 23.699,15.288 23.270,18.637 20.770 C 19.246 20.316,20.316 19.246,20.770 18.637 C 23.744 14.652,23.744 9.348,20.770 5.363 C 20.316 4.755,19.247 3.686,18.640 3.235 C 17.045 2.049,15.365 1.360,13.423 1.096 C 13.000 1.038,11.574 0.990,11.280 1.023 M13.320 3.101 C 15.883 3.488,18.124 4.931,19.560 7.120 C 19.863 7.583,20.303 8.479,20.492 9.020 C 20.838 10.013,20.977 10.865,20.977 12.000 C 20.977 13.493,20.720 14.621,20.080 15.940 C 19.375 17.394,18.311 18.607,16.927 19.532 C 16.138 20.060,14.876 20.588,13.908 20.797 C 11.266 21.366,8.479 20.708,6.370 19.019 C 4.857 17.807,3.722 16.029,3.267 14.160 C 3.081 13.397,3.023 12.888,3.023 12.000 C 3.023 10.507,3.280 9.379,3.920 8.060 C 4.971 5.891,6.877 4.221,9.160 3.466 C 9.865 3.233,10.432 3.118,11.340 3.024 C 11.662 2.991,12.911 3.039,13.320 3.101 M8.695 9.055 C 8.464 9.130,8.255 9.300,8.128 9.516 C 8.037 9.672,8.020 9.746,8.020 10.000 C 8.020 10.257,8.036 10.327,8.133 10.492 C 8.651 11.374,9.998 11.018,9.998 10.000 C 9.998 9.623,9.792 9.281,9.463 9.112 C 9.265 9.010,8.911 8.984,8.695 9.055 M14.695 9.055 C 14.464 9.130,14.255 9.300,14.128 9.516 C 14.037 9.672,14.020 9.746,14.020 10.000 C 14.020 10.257,14.036 10.327,14.133 10.492 C 14.651 11.374,15.998 11.018,15.998 10.000 C 15.998 9.623,15.792 9.281,15.463 9.112 C 15.265 9.010,14.911 8.984,14.695 9.055 M11.380 9.574 C 10.570 9.783,9.889 10.420,9.621 11.220 C 9.467 11.680,9.473 12.354,9.635 12.815 L 9.715 13.044 9.615 13.082 C 9.439 13.149,9.239 13.327,9.128 13.516 C 9.024 13.693,9.020 13.721,9.021 14.280 C 9.021 14.699,9.040 14.929,9.089 15.107 C 9.295 15.860,9.648 16.477,10.167 16.990 C 10.551 17.371,10.772 17.527,11.280 17.775 C 11.672 17.966,11.720 17.980,12.000 17.980 C 12.275 17.979,12.333 17.964,12.694 17.790 C 13.216 17.540,13.513 17.322,13.922 16.890 C 14.323 16.467,14.592 16.035,14.777 15.518 C 14.951 15.028,15.013 14.629,14.994 14.114 C 14.981 13.752,14.965 13.676,14.871 13.516 C 14.761 13.327,14.561 13.149,14.385 13.082 L 14.285 13.044 14.365 12.815 C 14.527 12.354,14.533 11.680,14.379 11.220 C 14.256 10.855,14.063 10.546,13.779 10.261 C 13.472 9.954,13.184 9.766,12.817 9.633 C 12.522 9.526,11.697 9.492,11.380 9.574 M12.344 11.656 C 12.463 11.775,12.480 11.818,12.480 11.993 C 12.480 12.235,12.351 12.417,12.137 12.476 C 11.949 12.528,11.749 12.465,11.623 12.316 C 11.542 12.220,11.520 12.150,11.520 11.993 C 11.520 11.818,11.537 11.775,11.656 11.656 C 11.776 11.536,11.817 11.520,12.000 11.520 C 12.183 11.520,12.224 11.536,12.344 11.656 M12.795 15.090 C 12.622 15.414,12.154 15.880,12.000 15.880 C 11.846 15.880,11.378 15.414,11.205 15.090 L 11.157 15.000 12.000 15.000 L 12.843 15.000 12.795 15.090 " stroke="none" fill-rule="evenodd" fill="black"></path></svg>