<svg viewBox="0 0 24 24" xmlns="http://www.w3.org/2000/svg" fill="none" stroke="#000000" stroke-width="2" stroke-linecap="round" stroke-linejoin="round"><path d="M11.280 1.023 C 11.203 1.032,10.951 1.059,10.720 1.083 C 8.832 1.283,6.991 2.023,5.360 3.235 C 4.751 3.688,3.684 4.755,3.226 5.367 C 0.728 8.714,0.301 13.032,2.097 16.780 C 2.643 17.918,3.276 18.801,4.238 19.762 C 5.199 20.724,6.082 21.357,7.220 21.903 C 10.967 23.699,15.288 23.270,18.637 20.770 C 19.246 20.316,20.316 19.246,20.770 18.637 C 23.744 14.652,23.744 9.348,20.770 5.363 C 20.316 4.755,19.247 3.686,18.640 3.235 C 17.045 2.049,15.365 1.360,13.423 1.096 C 13.000 1.038,11.574 0.990,11.280 1.023 M13.320 3.101 C 15.883 3.488,18.124 4.931,19.560 7.120 C 19.863 7.583,20.303 8.479,20.492 9.020 C 20.838 10.013,20.977 10.865,20.977 12.000 C 20.977 13.493,20.720 14.621,20.080 15.940 C 19.375 17.394,18.311 18.607,16.927 19.532 C 16.138 20.060,14.876 20.588,13.908 20.797 C 11.266 21.366,8.479 20.708,6.370 19.019 C 4.857 17.807,3.722 16.029,3.267 14.160 C 3.081 13.397,3.023 12.888,3.023 12.000 C 3.023 10.507,3.280 9.379,3.920 8.060 C 4.971 5.891,6.877 4.221,9.160 3.466 C 9.865 3.233,10.432 3.118,11.340 3.024 C 11.662 2.991,12.911 3.039,13.320 3.101 M6.643 9.069 C 6.258 9.205,5.968 9.665,6.009 10.074 C 6.019 10.176,6.292 10.965,6.615 11.826 L 7.202 13.393 7.118 13.534 C 7.000 13.735,6.974 14.061,7.057 14.311 C 7.241 14.864,8.474 15.930,9.494 16.417 C 9.919 16.620,10.477 16.807,10.960 16.908 C 11.436 17.008,12.564 17.008,13.040 16.908 C 13.523 16.807,14.081 16.620,14.506 16.417 C 15.526 15.930,16.759 14.864,16.943 14.311 C 17.026 14.061,17.000 13.735,16.882 13.534 L 16.798 13.393 17.389 11.826 C 17.945 10.353,17.980 10.243,17.980 9.980 C 17.980 9.748,17.962 9.669,17.872 9.516 C 17.740 9.293,17.533 9.128,17.290 9.055 C 17.139 9.010,16.213 9.001,11.964 9.003 C 7.412 9.006,6.800 9.013,6.643 9.069 M15.477 11.210 C 15.434 11.325,15.266 11.771,15.105 12.200 L 14.812 12.980 12.000 12.980 L 9.188 12.980 8.895 12.200 C 8.734 11.771,8.566 11.325,8.523 11.210 L 8.443 11.000 12.000 11.000 L 15.557 11.000 15.477 11.210 " stroke="none" fill-rule="evenodd" fill="black"></path></svg>