<svg viewBox="0 0 24 24" xmlns="http://www.w3.org/2000/svg" fill="none" stroke="#000000" stroke-width="2" stroke-linecap="round" stroke-linejoin="round"><path d="M3.695 7.055 C 3.464 7.130,3.255 7.300,3.128 7.516 L 3.020 7.700 3.010 14.350 L 2.999 21.000 2.446 21.000 C 1.648 21.000,1.367 21.110,1.128 21.516 C 1.037 21.672,1.020 21.746,1.020 22.000 C 1.020 22.256,1.036 22.328,1.131 22.489 C 1.256 22.702,1.449 22.864,1.670 22.943 C 1.893 23.023,22.107 23.023,22.330 22.943 C 22.551 22.864,22.744 22.702,22.869 22.489 C 22.964 22.328,22.980 22.256,22.980 22.000 C 22.980 21.746,22.963 21.672,22.872 21.516 C 22.633 21.110,22.352 21.000,21.554 21.000 L 21.001 21.000 20.990 14.350 L 20.980 7.700 20.871 7.514 C 20.604 7.060,20.047 6.887,19.563 7.108 C 19.480 7.146,18.910 7.680,18.213 8.373 L 17.005 9.572 16.993 8.636 L 16.980 7.700 16.871 7.514 C 16.604 7.060,16.048 6.887,15.563 7.108 C 15.477 7.147,14.737 7.853,13.710 8.875 L 12.000 10.577 10.270 8.854 C 8.721 7.312,8.519 7.124,8.343 7.066 C 7.950 6.935,7.589 7.018,7.303 7.303 C 7.028 7.578,7.000 7.710,7.000 8.716 L 7.000 9.577 5.790 8.375 C 5.036 7.627,4.522 7.147,4.427 7.104 C 4.223 7.010,3.898 6.988,3.695 7.055 M7.000 16.710 L 7.000 21.000 6.000 21.000 L 5.000 21.000 5.000 15.710 L 5.000 10.421 6.000 11.420 L 7.000 12.419 7.000 16.710 M11.560 12.905 C 11.660 12.957,11.786 12.978,12.000 12.978 C 12.214 12.978,12.340 12.957,12.440 12.905 C 12.517 12.864,13.125 12.289,13.790 11.626 L 15.000 10.422 15.000 15.711 L 15.000 21.000 12.000 21.000 L 9.000 21.000 9.000 15.711 L 9.000 10.422 10.210 11.626 C 10.876 12.289,11.483 12.864,11.560 12.905 M19.000 15.720 L 19.000 21.000 18.000 21.000 L 17.000 21.000 17.000 16.710 L 17.000 12.421 17.990 11.430 C 18.534 10.886,18.984 10.440,18.990 10.440 C 18.995 10.440,19.000 12.816,19.000 15.720 " stroke="none" fill-rule="evenodd" fill="black"></path></svg>