<svg viewBox="0 0 24 24" xmlns="http://www.w3.org/2000/svg" fill="none" stroke="#000000" stroke-width="2" stroke-linecap="round" stroke-linejoin="round"><path d="M3.695 2.057 C 3.466 2.129,3.256 2.299,3.128 2.516 L 3.020 2.700 3.008 4.350 L 2.997 6.000 2.445 6.000 C 1.648 6.000,1.367 6.110,1.128 6.516 C 1.037 6.672,1.020 6.746,1.020 7.000 C 1.020 7.256,1.036 7.328,1.131 7.489 C 1.256 7.702,1.449 7.864,1.670 7.943 C 1.768 7.978,2.023 7.997,2.410 7.998 L 3.000 8.000 3.000 12.000 L 3.000 16.000 2.446 16.000 C 1.648 16.000,1.367 16.110,1.128 16.516 C 1.037 16.672,1.020 16.746,1.020 17.000 C 1.020 17.256,1.036 17.328,1.131 17.489 C 1.256 17.702,1.449 17.864,1.670 17.943 C 1.768 17.978,2.022 17.997,2.408 17.998 L 2.997 18.000 3.008 19.653 L 3.020 21.306 3.141 21.503 C 3.543 22.156,4.457 22.156,4.859 21.503 L 4.980 21.306 4.992 19.653 L 5.003 18.000 6.000 18.000 L 6.997 18.000 7.008 19.653 L 7.020 21.306 7.141 21.503 C 7.543 22.156,8.457 22.156,8.859 21.503 L 8.980 21.306 8.992 19.653 L 9.003 18.000 10.000 18.000 L 10.997 18.000 11.008 19.653 L 11.020 21.306 11.141 21.503 C 11.209 21.613,11.346 21.756,11.452 21.828 C 11.923 22.144,12.554 21.999,12.859 21.503 L 12.980 21.306 12.992 19.653 L 13.003 18.000 14.000 18.000 L 14.997 18.000 15.008 19.653 L 15.020 21.306 15.141 21.503 C 15.543 22.156,16.457 22.156,16.859 21.503 L 16.980 21.306 16.992 19.653 L 17.003 18.000 18.000 18.000 L 18.997 18.000 19.008 19.653 L 19.020 21.306 19.141 21.503 C 19.543 22.156,20.457 22.156,20.859 21.503 L 20.980 21.306 20.992 19.653 L 21.003 18.000 21.592 17.998 C 21.978 17.997,22.232 17.978,22.330 17.943 C 22.551 17.864,22.744 17.702,22.869 17.489 C 22.964 17.328,22.980 17.256,22.980 17.000 C 22.980 16.746,22.963 16.672,22.872 16.516 C 22.633 16.110,22.352 16.000,21.554 16.000 L 21.000 16.000 21.000 12.000 L 21.000 8.000 21.590 7.998 C 21.977 7.997,22.232 7.978,22.330 7.943 C 22.551 7.864,22.744 7.702,22.869 7.489 C 22.964 7.328,22.980 7.256,22.980 7.000 C 22.980 6.746,22.963 6.672,22.872 6.516 C 22.633 6.110,22.352 6.000,21.555 6.000 L 21.003 6.000 20.992 4.350 L 20.980 2.700 20.871 2.514 C 20.479 1.848,19.521 1.848,19.129 2.514 L 19.020 2.700 19.008 4.350 L 18.997 6.000 18.000 6.000 L 17.003 6.000 16.992 4.350 L 16.980 2.700 16.871 2.514 C 16.479 1.848,15.521 1.848,15.129 2.514 L 15.020 2.700 15.008 4.350 L 14.997 6.000 14.000 6.000 L 13.003 6.000 12.992 4.350 L 12.980 2.700 12.871 2.514 C 12.479 1.848,11.521 1.848,11.129 2.514 L 11.020 2.700 11.008 4.350 L 10.997 6.000 10.000 6.000 L 9.003 6.000 8.992 4.350 L 8.980 2.700 8.871 2.514 C 8.479 1.848,7.521 1.848,7.129 2.514 L 7.020 2.700 7.008 4.350 L 6.997 6.000 6.000 6.000 L 5.003 6.000 4.992 4.350 L 4.980 2.700 4.872 2.516 C 4.628 2.101,4.150 1.915,3.695 2.057 M7.000 12.000 L 7.000 16.000 6.000 16.000 L 5.000 16.000 5.000 12.000 L 5.000 8.000 6.000 8.000 L 7.000 8.000 7.000 12.000 M11.000 12.000 L 11.000 16.000 10.000 16.000 L 9.000 16.000 9.000 12.000 L 9.000 8.000 10.000 8.000 L 11.000 8.000 11.000 12.000 M15.000 12.000 L 15.000 16.000 14.000 16.000 L 13.000 16.000 13.000 12.000 L 13.000 8.000 14.000 8.000 L 15.000 8.000 15.000 12.000 M19.000 12.000 L 19.000 16.000 18.000 16.000 L 17.000 16.000 17.000 12.000 L 17.000 8.000 18.000 8.000 L 19.000 8.000 19.000 12.000 " stroke="none" fill-rule="evenodd" fill="black"></path></svg>