<svg viewBox="0 0 24 24" xmlns="http://www.w3.org/2000/svg" fill="none" stroke="#000000" stroke-width="2" stroke-linecap="round" stroke-linejoin="round"><path d="M5.499 1.043 C 4.380 1.232,3.461 2.048,3.114 3.160 L 3.020 3.460 3.020 12.000 L 3.020 20.540 3.114 20.840 C 3.422 21.827,4.173 22.578,5.160 22.886 L 5.460 22.980 12.000 22.980 L 18.540 22.980 18.840 22.886 C 19.827 22.578,20.578 21.827,20.886 20.840 L 20.980 20.540 20.980 13.880 C 20.980 7.483,20.977 7.214,20.906 7.080 C 20.804 6.887,15.140 1.217,14.940 1.107 L 14.780 1.020 10.240 1.014 C 7.743 1.011,5.609 1.024,5.499 1.043 M13.002 5.590 C 13.003 7.649,13.014 8.211,13.057 8.330 C 13.136 8.551,13.298 8.744,13.511 8.869 L 13.700 8.980 16.350 8.991 L 19.000 9.002 19.000 14.555 C 19.000 19.144,18.990 20.139,18.945 20.290 C 18.872 20.533,18.707 20.740,18.484 20.872 L 18.300 20.980 12.000 20.980 L 5.700 20.980 5.516 20.872 C 5.415 20.813,5.284 20.700,5.225 20.623 C 4.985 20.308,5.000 20.888,5.000 12.022 C 5.000 2.888,4.974 3.632,5.304 3.303 C 5.615 2.991,5.409 3.006,9.430 3.003 L 13.000 3.000 13.002 5.590 M16.560 5.460 L 18.100 7.000 16.550 7.000 L 15.000 7.000 15.000 5.460 C 15.000 4.613,15.005 3.920,15.010 3.920 C 15.016 3.920,15.713 4.613,16.560 5.460 M9.695 10.057 C 9.466 10.129,9.256 10.299,9.128 10.516 L 9.020 10.700 9.009 13.917 C 8.999 16.823,9.005 17.153,9.064 17.333 C 9.225 17.817,9.809 18.114,10.284 17.954 C 10.359 17.929,11.605 17.198,13.052 16.331 C 15.877 14.638,15.861 14.649,15.964 14.264 C 16.059 13.911,15.918 13.459,15.647 13.247 C 15.370 13.032,10.420 10.089,10.260 10.045 C 10.057 9.989,9.903 9.992,9.695 10.057 M11.994 13.366 C 12.514 13.677,12.961 13.951,12.987 13.976 C 13.022 14.009,12.777 14.174,12.017 14.628 L 11.000 15.236 11.000 14.018 C 11.000 13.348,11.011 12.800,11.024 12.800 C 11.037 12.800,11.473 13.054,11.994 13.366 " stroke="none" fill-rule="evenodd" fill="black"></path></svg>