<svg viewBox="0 0 24 24" xmlns="http://www.w3.org/2000/svg" fill="none" stroke="#000000" stroke-width="2" stroke-linecap="round" stroke-linejoin="round"><path d="M5.499 1.043 C 4.380 1.232,3.461 2.048,3.114 3.160 L 3.020 3.460 3.020 12.000 L 3.020 20.540 3.114 20.840 C 3.422 21.827,4.173 22.578,5.160 22.886 L 5.460 22.980 12.000 22.980 L 18.540 22.980 18.840 22.886 C 19.827 22.578,20.578 21.827,20.886 20.840 L 20.980 20.540 20.980 13.880 C 20.980 7.483,20.977 7.214,20.906 7.080 C 20.804 6.887,15.140 1.217,14.940 1.107 L 14.780 1.020 10.240 1.014 C 7.743 1.011,5.609 1.024,5.499 1.043 M13.002 5.590 C 13.003 7.649,13.014 8.211,13.057 8.330 C 13.136 8.551,13.298 8.744,13.511 8.869 L 13.700 8.980 16.350 8.991 L 19.000 9.002 19.000 14.555 C 19.000 19.144,18.990 20.139,18.945 20.290 C 18.872 20.533,18.707 20.740,18.484 20.872 L 18.300 20.980 12.000 20.980 L 5.700 20.980 5.516 20.872 C 5.415 20.813,5.284 20.700,5.225 20.623 C 4.985 20.308,5.000 20.888,5.000 12.022 C 5.000 2.888,4.974 3.632,5.304 3.303 C 5.615 2.991,5.409 3.006,9.430 3.003 L 13.000 3.000 13.002 5.590 M16.560 5.460 L 18.100 7.000 16.550 7.000 L 15.000 7.000 15.000 5.460 C 15.000 4.613,15.005 3.920,15.010 3.920 C 15.016 3.920,15.713 4.613,16.560 5.460 M11.580 11.096 C 11.424 11.171,11.029 11.545,9.774 12.806 C 8.891 13.694,8.135 14.483,8.095 14.560 C 8.043 14.659,8.021 14.788,8.021 15.000 C 8.020 15.258,8.036 15.327,8.133 15.492 C 8.263 15.714,8.502 15.901,8.736 15.965 C 8.939 16.019,9.267 15.989,9.445 15.899 C 9.519 15.861,9.899 15.514,10.289 15.128 L 10.997 14.426 11.009 16.366 L 11.020 18.306 11.141 18.503 C 11.543 19.156,12.457 19.156,12.859 18.503 L 12.980 18.306 12.991 16.366 L 13.003 14.426 13.711 15.128 C 14.101 15.514,14.483 15.864,14.560 15.904 C 14.660 15.957,14.787 15.979,15.000 15.979 C 15.258 15.980,15.327 15.964,15.492 15.867 C 15.714 15.737,15.901 15.498,15.965 15.264 C 16.019 15.061,15.989 14.733,15.899 14.555 C 15.862 14.481,15.109 13.694,14.226 12.806 C 12.472 11.043,12.420 11.001,12.000 11.001 C 11.851 11.001,11.716 11.031,11.580 11.096 " stroke="none" fill-rule="evenodd" fill="black"></path></svg>