<svg viewBox="0 0 24 24" xmlns="http://www.w3.org/2000/svg" fill="none" stroke="#000000" stroke-width="2" stroke-linecap="round" stroke-linejoin="round"><path d="M5.499 1.043 C 4.380 1.232,3.461 2.048,3.114 3.160 L 3.020 3.460 3.020 12.000 L 3.020 20.540 3.114 20.840 C 3.422 21.827,4.173 22.578,5.160 22.886 L 5.460 22.980 12.000 22.980 L 18.540 22.980 18.840 22.886 C 19.827 22.578,20.578 21.827,20.886 20.840 L 20.980 20.540 20.980 13.880 C 20.980 7.483,20.977 7.214,20.906 7.080 C 20.804 6.887,15.140 1.217,14.940 1.107 L 14.780 1.020 10.240 1.014 C 7.743 1.011,5.609 1.024,5.499 1.043 M13.002 5.590 C 13.003 7.649,13.014 8.211,13.057 8.330 C 13.136 8.551,13.298 8.744,13.511 8.869 L 13.700 8.980 16.350 8.991 L 19.000 9.002 19.000 11.789 L 19.000 14.576 17.770 13.354 C 16.688 12.279,16.516 12.124,16.343 12.066 C 16.094 11.983,15.907 11.983,15.657 12.065 C 15.478 12.125,15.183 12.407,12.347 15.235 C 10.569 17.008,9.188 18.417,9.127 18.520 C 9.036 18.672,9.020 18.746,9.020 19.000 C 9.020 19.257,9.036 19.327,9.133 19.492 C 9.263 19.714,9.502 19.901,9.736 19.965 C 9.938 20.019,10.266 19.989,10.445 19.899 C 10.519 19.862,11.800 18.614,13.290 17.126 L 16.000 14.421 17.500 15.920 L 19.000 17.420 19.000 18.763 C 19.000 20.225,18.985 20.347,18.779 20.618 C 18.718 20.698,18.585 20.813,18.484 20.872 L 18.300 20.980 12.000 20.980 L 5.700 20.980 5.516 20.872 C 5.415 20.813,5.284 20.700,5.225 20.623 C 4.985 20.308,5.000 20.888,5.000 12.022 C 5.000 2.888,4.974 3.632,5.304 3.303 C 5.615 2.991,5.409 3.006,9.430 3.003 L 13.000 3.000 13.002 5.590 M16.560 5.460 L 18.100 7.000 16.550 7.000 L 15.000 7.000 15.000 5.460 C 15.000 4.613,15.005 3.920,15.010 3.920 C 15.016 3.920,15.713 4.613,16.560 5.460 M9.499 10.040 C 8.363 10.246,7.460 11.049,7.114 12.160 C 6.979 12.594,6.979 13.406,7.114 13.840 C 7.421 14.826,8.173 15.578,9.160 15.886 C 9.418 15.967,9.539 15.980,10.020 15.977 C 10.508 15.974,10.620 15.961,10.887 15.872 C 11.852 15.552,12.585 14.807,12.886 13.840 C 13.021 13.406,13.021 12.594,12.886 12.160 C 12.581 11.179,11.810 10.407,10.861 10.129 C 10.500 10.023,9.832 9.980,9.499 10.040 M10.310 12.061 C 10.688 12.173,11.000 12.598,11.000 13.001 C 11.000 13.331,10.784 13.696,10.484 13.872 C 10.328 13.963,10.254 13.980,10.000 13.980 C 9.746 13.980,9.672 13.963,9.516 13.872 C 8.935 13.530,8.833 12.774,9.304 12.303 C 9.583 12.024,9.916 11.944,10.310 12.061 " stroke="none" fill-rule="evenodd" fill="black"></path></svg>