<svg viewBox="0 0 24 24" xmlns="http://www.w3.org/2000/svg" fill="none" stroke="#000000" stroke-width="2" stroke-linecap="round" stroke-linejoin="round"><path d="M5.499 1.043 C 4.380 1.232,3.461 2.048,3.114 3.160 L 3.020 3.460 3.020 12.000 L 3.020 20.540 3.114 20.840 C 3.422 21.827,4.173 22.578,5.160 22.886 L 5.460 22.980 12.000 22.980 L 18.540 22.980 18.840 22.886 C 19.827 22.578,20.578 21.827,20.886 20.840 L 20.980 20.540 20.980 13.880 C 20.980 7.483,20.977 7.214,20.906 7.080 C 20.804 6.887,15.140 1.217,14.940 1.107 L 14.780 1.020 10.240 1.014 C 7.743 1.011,5.609 1.024,5.499 1.043 M13.002 5.590 C 13.003 7.649,13.014 8.211,13.057 8.330 C 13.136 8.551,13.298 8.744,13.511 8.869 L 13.700 8.980 16.350 8.991 L 19.000 9.002 19.000 14.555 C 19.000 19.144,18.990 20.139,18.945 20.290 C 18.872 20.533,18.707 20.740,18.484 20.872 L 18.300 20.980 12.000 20.980 L 5.700 20.980 5.516 20.872 C 5.415 20.813,5.284 20.700,5.225 20.623 C 4.985 20.308,5.000 20.888,5.000 12.022 C 5.000 2.888,4.974 3.632,5.304 3.303 C 5.615 2.991,5.409 3.006,9.430 3.003 L 13.000 3.000 13.002 5.590 M16.560 5.460 L 18.100 7.000 16.550 7.000 L 15.000 7.000 15.000 5.460 C 15.000 4.613,15.005 3.920,15.010 3.920 C 15.016 3.920,15.713 4.613,16.560 5.460 M9.499 11.040 C 8.363 11.246,7.460 12.049,7.114 13.160 C 6.979 13.594,6.979 14.406,7.114 14.840 C 7.421 15.826,8.173 16.578,9.160 16.886 C 9.417 16.966,9.541 16.980,10.020 16.978 C 10.541 16.976,10.605 16.967,10.940 16.851 L 11.300 16.726 12.360 17.779 C 12.943 18.357,13.481 18.862,13.555 18.899 C 14.009 19.128,14.601 18.944,14.867 18.492 C 14.964 18.327,14.980 18.258,14.979 18.000 C 14.979 17.787,14.957 17.659,14.905 17.560 C 14.864 17.483,14.357 16.943,13.779 16.360 L 12.726 15.300 12.851 14.940 C 12.967 14.605,12.976 14.541,12.978 14.020 C 12.980 13.541,12.966 13.417,12.886 13.160 C 12.580 12.178,11.810 11.407,10.861 11.129 C 10.500 11.023,9.832 10.980,9.499 11.040 M10.310 13.061 C 10.688 13.173,11.000 13.598,11.000 14.001 C 11.000 14.331,10.784 14.696,10.484 14.872 C 10.328 14.963,10.254 14.980,10.000 14.980 C 9.746 14.980,9.672 14.963,9.516 14.872 C 9.415 14.813,9.282 14.698,9.221 14.618 C 8.908 14.208,8.943 13.664,9.304 13.303 C 9.583 13.024,9.916 12.944,10.310 13.061 " stroke="none" fill-rule="evenodd" fill="black"></path></svg>