<svg viewBox="0 0 24 24" xmlns="http://www.w3.org/2000/svg" fill="none" stroke="#000000" stroke-width="2" stroke-linecap="round" stroke-linejoin="round"><path d="M5.499 1.043 C 4.380 1.232,3.461 2.048,3.114 3.160 L 3.020 3.460 3.020 12.000 L 3.020 20.540 3.114 20.840 C 3.422 21.827,4.173 22.578,5.160 22.886 L 5.460 22.980 12.000 22.980 L 18.540 22.980 18.840 22.886 C 19.827 22.578,20.578 21.827,20.886 20.840 L 20.980 20.540 20.980 13.880 C 20.980 7.483,20.977 7.214,20.906 7.080 C 20.804 6.887,15.140 1.217,14.940 1.107 L 14.780 1.020 10.240 1.014 C 7.743 1.011,5.609 1.024,5.499 1.043 M13.002 5.590 C 13.003 7.649,13.014 8.211,13.057 8.330 C 13.136 8.551,13.298 8.744,13.511 8.869 L 13.700 8.980 16.350 8.991 L 19.000 9.002 19.000 14.555 C 19.000 19.144,18.990 20.139,18.945 20.290 C 18.872 20.533,18.707 20.740,18.484 20.872 L 18.300 20.980 12.000 20.980 L 5.700 20.980 5.516 20.872 C 5.415 20.813,5.284 20.700,5.225 20.623 C 4.985 20.308,5.000 20.888,5.000 12.022 C 5.000 2.888,4.974 3.632,5.304 3.303 C 5.615 2.991,5.409 3.006,9.430 3.003 L 13.000 3.000 13.002 5.590 M16.560 5.460 L 18.100 7.000 16.550 7.000 L 15.000 7.000 15.000 5.460 C 15.000 4.613,15.005 3.920,15.010 3.920 C 15.016 3.920,15.713 4.613,16.560 5.460 M9.600 11.584 C 9.267 11.728,9.001 12.135,9.001 12.500 C 9.001 12.853,9.122 13.031,9.876 13.780 C 10.252 14.153,10.560 14.478,10.560 14.500 C 10.560 14.522,10.252 14.847,9.876 15.220 C 9.122 15.969,9.001 16.147,9.001 16.500 C 9.001 16.874,9.270 17.277,9.617 17.421 C 9.703 17.457,9.867 17.488,9.980 17.489 C 10.375 17.492,10.441 17.448,11.250 16.646 L 12.000 15.903 12.750 16.646 C 13.559 17.448,13.625 17.492,14.020 17.489 C 14.727 17.482,15.205 16.731,14.904 16.100 C 14.835 15.956,14.616 15.709,14.124 15.220 C 13.748 14.847,13.440 14.522,13.440 14.500 C 13.440 14.478,13.748 14.153,14.124 13.780 C 14.878 13.031,14.999 12.853,14.999 12.500 C 14.999 12.130,14.730 11.723,14.391 11.582 C 14.201 11.503,13.800 11.502,13.609 11.581 C 13.515 11.620,13.191 11.911,12.730 12.371 L 12.000 13.099 11.270 12.371 C 10.809 11.911,10.485 11.620,10.391 11.581 C 10.203 11.504,9.783 11.505,9.600 11.584 " stroke="none" fill-rule="evenodd" fill="black"></path></svg>