<svg viewBox="0 0 24 24" xmlns="http://www.w3.org/2000/svg" fill="none" stroke="#000000" stroke-width="2" stroke-linecap="round" stroke-linejoin="round"><path d="M11.670 2.057 C 11.474 2.127,11.238 2.321,10.697 2.859 C 9.143 4.406,8.420 6.005,8.565 7.580 C 8.606 8.018,8.740 8.575,8.906 8.992 C 8.964 9.140,9.196 9.620,9.420 10.060 C 9.702 10.611,9.849 10.949,9.894 11.144 C 10.061 11.879,10.016 12.407,9.754 12.800 C 9.467 13.230,9.145 13.414,8.536 13.500 C 8.299 13.533,8.105 13.585,8.010 13.640 L 7.861 13.729 7.707 13.554 C 7.249 13.033,6.899 12.477,6.642 11.860 C 6.550 11.640,6.446 11.392,6.411 11.310 C 6.158 10.713,5.391 10.532,4.852 10.944 C 4.612 11.127,4.472 11.529,4.242 12.700 C 3.798 14.956,3.972 16.758,4.800 18.471 C 5.197 19.294,5.611 19.886,6.259 20.554 C 6.951 21.270,7.648 21.775,8.526 22.199 C 11.317 23.547,14.624 23.164,17.040 21.211 C 17.394 20.925,18.067 20.239,18.326 19.900 C 19.467 18.406,20.063 16.556,19.988 14.742 C 19.943 13.669,19.712 12.789,19.220 11.820 C 18.645 10.687,17.891 9.777,16.720 8.802 C 15.455 7.750,14.595 6.697,13.898 5.348 C 13.467 4.514,13.188 3.747,12.999 2.880 C 12.904 2.446,12.667 2.168,12.295 2.057 C 12.064 1.987,11.866 1.987,11.670 2.057 M11.658 5.295 C 12.433 7.176,13.675 8.859,15.280 10.201 C 15.988 10.794,16.362 11.160,16.735 11.625 C 17.682 12.806,18.087 14.063,17.967 15.448 C 17.912 16.079,17.838 16.452,17.671 16.940 C 16.988 18.944,15.291 20.428,13.160 20.885 C 12.554 21.015,11.446 21.015,10.840 20.885 C 7.965 20.268,5.994 17.838,6.003 14.920 L 6.004 14.660 6.212 14.885 C 6.735 15.450,7.622 16.170,8.080 16.401 C 8.334 16.530,8.635 16.527,8.924 16.393 C 9.251 16.242,9.439 15.967,9.501 15.547 C 9.525 15.389,9.549 15.346,9.635 15.313 C 10.927 14.806,11.751 13.812,11.962 12.503 C 12.023 12.127,11.993 11.388,11.900 10.940 C 11.783 10.379,11.636 10.000,11.211 9.165 C 10.682 8.125,10.596 7.874,10.571 7.300 C 10.547 6.759,10.612 6.452,10.856 5.942 C 10.995 5.652,11.478 4.901,11.505 4.932 C 11.508 4.937,11.577 5.100,11.658 5.295 " stroke="none" fill-rule="evenodd" fill="black"></path></svg>