<svg viewBox="0 0 24 24" xmlns="http://www.w3.org/2000/svg" fill="none" stroke="#000000" stroke-width="2" stroke-linecap="round" stroke-linejoin="round"><path d="M13.080 6.999 C 9.247 7.256,5.430 9.713,2.142 14.040 C 1.649 14.688,1.127 15.473,1.056 15.674 C 0.947 15.979,1.010 16.348,1.218 16.620 C 1.473 16.955,2.875 17.748,4.000 18.193 C 5.723 18.876,7.332 19.177,9.260 19.178 C 11.265 19.180,12.922 18.851,14.937 18.053 C 17.440 17.062,19.717 15.540,22.193 13.201 C 22.898 12.535,22.980 12.410,22.980 12.000 C 22.980 11.595,22.888 11.448,22.292 10.895 C 21.025 9.721,19.987 8.954,18.796 8.312 C 18.497 8.150,18.194 7.960,18.124 7.890 C 17.439 7.205,16.521 6.901,15.553 7.038 C 15.300 7.074,15.115 7.076,14.854 7.046 C 14.320 6.984,13.594 6.964,13.080 6.999 M13.146 9.057 C 13.052 9.303,13.023 9.524,13.022 10.000 C 13.021 10.456,13.035 10.587,13.114 10.840 C 13.421 11.826,14.174 12.579,15.160 12.886 C 15.594 13.021,16.406 13.021,16.840 12.886 C 17.788 12.591,18.563 11.839,18.859 10.929 L 18.927 10.718 19.133 10.867 C 19.671 11.254,20.520 11.949,20.520 12.002 C 20.520 12.020,20.291 12.240,20.010 12.490 C 16.056 16.016,11.748 17.630,7.700 17.100 C 7.148 17.028,7.111 17.019,7.220 16.983 C 7.577 16.866,7.876 16.586,7.958 16.289 C 7.984 16.194,7.999 15.350,7.998 13.980 C 7.996 11.654,7.997 11.661,7.783 11.381 L 7.677 11.242 7.922 11.061 C 8.637 10.535,9.785 9.899,10.585 9.586 C 11.093 9.388,11.690 9.215,12.193 9.122 C 12.928 8.985,13.181 8.968,13.146 9.057 M16.237 9.385 C 16.907 9.604,16.947 9.629,16.982 9.858 C 17.040 10.247,16.836 10.665,16.486 10.871 C 16.328 10.964,16.255 10.980,16.000 10.980 C 15.746 10.980,15.672 10.963,15.516 10.872 C 14.946 10.537,14.833 9.785,15.282 9.322 C 15.468 9.131,15.452 9.130,16.237 9.385 M6.130 16.487 C 6.190 16.590,6.298 16.722,6.370 16.780 C 6.463 16.856,6.477 16.880,6.420 16.866 C 5.476 16.627,4.740 16.364,3.927 15.977 C 3.543 15.794,3.402 15.708,3.424 15.671 C 3.669 15.258,4.855 13.841,5.620 13.046 L 5.980 12.671 6.000 14.486 L 6.020 16.300 6.130 16.487 " stroke="none" fill-rule="evenodd" fill="black"></path></svg>