<svg viewBox="0 0 24 24" xmlns="http://www.w3.org/2000/svg" fill="none" stroke="#000000" stroke-width="2" stroke-linecap="round" stroke-linejoin="round"><path d="M16.480 5.073 C 16.026 5.191,15.575 5.520,15.314 5.923 C 15.204 6.092,15.172 6.115,15.006 6.139 C 14.616 6.194,13.843 6.362,13.425 6.482 C 11.268 7.102,9.441 8.402,7.923 10.400 C 7.030 11.575,6.548 12.398,5.149 15.140 C 3.769 17.844,3.453 18.419,2.831 19.357 C 2.435 19.955,2.062 20.439,1.634 20.913 C 1.143 21.456,1.041 21.616,1.013 21.884 C 0.971 22.295,1.155 22.660,1.508 22.867 C 1.673 22.964,1.743 22.980,2.000 22.980 C 2.256 22.980,2.328 22.964,2.490 22.868 C 2.824 22.672,3.794 21.526,4.430 20.577 C 5.105 19.569,5.555 18.755,6.910 16.100 C 7.938 14.084,8.212 13.579,8.696 12.806 C 10.402 10.081,12.271 8.682,14.861 8.195 L 15.303 8.111 15.582 8.390 C 16.036 8.844,16.504 9.026,17.120 8.989 C 17.483 8.968,17.812 8.866,18.059 8.698 C 18.138 8.644,18.219 8.600,18.239 8.600 C 18.303 8.600,18.600 9.096,18.718 9.401 C 18.897 9.864,18.975 10.312,18.977 10.880 C 18.978 11.548,18.905 11.744,18.504 12.142 C 17.973 12.668,17.305 12.918,16.218 12.997 C 15.955 13.016,15.689 13.051,15.627 13.076 C 15.437 13.150,15.241 13.323,15.128 13.516 C 15.037 13.672,15.020 13.746,15.020 14.000 C 15.020 14.257,15.036 14.327,15.133 14.492 C 15.263 14.714,15.502 14.901,15.736 14.965 C 15.961 15.027,16.756 14.983,17.292 14.880 C 18.933 14.563,20.208 13.641,20.711 12.407 C 20.940 11.846,21.012 11.401,20.987 10.720 C 20.940 9.468,20.610 8.440,19.966 7.544 C 19.744 7.235,19.288 6.779,19.069 6.648 C 18.997 6.605,18.943 6.526,18.915 6.421 C 18.801 6.000,18.432 5.531,18.017 5.281 C 17.577 5.016,16.997 4.937,16.480 5.073 M21.695 13.057 C 21.466 13.129,21.256 13.299,21.128 13.516 L 21.020 13.700 20.999 15.480 C 20.985 16.768,20.965 17.291,20.929 17.373 C 20.842 17.571,20.673 17.761,20.484 17.872 C 20.328 17.963,20.254 17.980,20.000 17.980 C 19.746 17.980,19.672 17.963,19.516 17.872 C 19.323 17.759,19.150 17.563,19.076 17.373 C 19.051 17.311,19.016 17.128,18.997 16.966 C 18.956 16.614,18.833 16.381,18.595 16.205 C 18.117 15.854,17.432 15.998,17.129 16.514 C 17.029 16.686,17.020 16.733,17.022 17.120 C 17.023 17.440,17.045 17.611,17.115 17.840 C 17.416 18.821,18.173 19.579,19.160 19.886 C 19.594 20.021,20.406 20.021,20.840 19.886 C 21.826 19.579,22.578 18.827,22.886 17.840 C 22.979 17.543,22.980 17.521,22.980 15.620 L 22.980 13.700 22.872 13.516 C 22.628 13.101,22.150 12.915,21.695 13.057 " stroke="none" fill-rule="evenodd" fill="black"></path></svg>