<svg viewBox="0 0 24 24" xmlns="http://www.w3.org/2000/svg" fill="none" stroke="#000000" stroke-width="2" stroke-linecap="round" stroke-linejoin="round"><path d="M8.240 1.037 C 7.793 1.175,7.512 1.546,7.512 2.000 C 7.512 2.405,7.719 2.724,8.100 2.905 C 8.263 2.982,8.365 2.999,8.650 3.000 L 9.000 3.000 9.000 5.810 L 8.999 8.620 8.650 8.786 C 7.843 9.169,6.813 9.990,6.203 10.736 C 5.004 12.204,4.406 14.056,4.524 15.936 C 4.671 18.290,5.878 20.395,7.840 21.722 C 9.172 22.622,10.913 23.081,12.530 22.958 C 16.078 22.688,18.896 20.061,19.420 16.535 C 19.506 15.955,19.507 14.941,19.422 14.420 C 19.191 13.006,18.652 11.783,17.797 10.736 C 17.187 9.990,16.157 9.169,15.350 8.786 L 15.001 8.620 15.000 5.810 L 15.000 3.000 15.350 3.000 C 15.635 2.999,15.737 2.982,15.900 2.905 C 16.281 2.724,16.488 2.405,16.488 2.000 C 16.488 1.615,16.293 1.297,15.940 1.106 L 15.780 1.020 12.060 1.013 C 10.014 1.009,8.295 1.020,8.240 1.037 M13.000 6.230 C 13.000 8.213,13.015 9.513,13.039 9.597 C 13.137 9.940,13.395 10.167,13.860 10.319 C 14.681 10.589,15.636 11.250,16.197 11.937 C 16.859 12.746,17.250 13.605,17.425 14.632 C 17.504 15.096,17.480 16.178,17.381 16.616 C 16.940 18.568,15.561 20.102,13.712 20.701 C 13.106 20.897,12.636 20.971,12.000 20.971 C 11.364 20.971,10.894 20.897,10.288 20.701 C 8.459 20.109,7.077 18.588,6.634 16.680 C 6.519 16.182,6.488 15.139,6.575 14.632 C 6.750 13.605,7.141 12.746,7.803 11.937 C 8.364 11.250,9.319 10.589,10.140 10.319 C 10.605 10.167,10.863 9.940,10.961 9.597 C 10.985 9.513,11.000 8.213,11.000 6.230 L 11.000 3.000 12.000 3.000 L 13.000 3.000 13.000 6.230 " stroke="none" fill-rule="evenodd" fill="black"></path></svg>