<svg viewBox="0 0 24 24" xmlns="http://www.w3.org/2000/svg" fill="none" stroke="#000000" stroke-width="2" stroke-linecap="round" stroke-linejoin="round"><path d="M13.643 1.067 C 13.238 1.215,13.316 1.063,11.243 5.730 L 9.347 10.000 8.620 10.000 C 7.820 10.000,7.627 10.035,7.382 10.221 C 7.067 10.462,6.925 10.922,7.052 11.295 C 7.086 11.395,7.638 12.350,8.277 13.415 C 8.917 14.481,9.440 15.361,9.440 15.370 C 9.440 15.380,9.291 15.345,9.110 15.292 C 8.454 15.102,7.846 15.025,7.000 15.025 C 5.882 15.025,5.041 15.182,4.040 15.578 C 2.889 16.033,1.430 17.003,1.130 17.513 C 1.036 17.673,1.020 17.745,1.020 18.003 C 1.020 18.271,1.034 18.329,1.141 18.503 C 1.441 18.991,2.072 19.144,2.525 18.838 C 2.621 18.773,2.808 18.629,2.940 18.518 C 3.729 17.852,4.936 17.283,5.960 17.094 C 6.480 16.999,7.520 16.999,8.040 17.094 C 9.166 17.302,10.394 17.910,11.290 18.704 C 11.597 18.976,11.971 19.064,12.305 18.944 C 12.390 18.914,12.703 18.741,13.000 18.560 C 14.035 17.931,15.282 17.358,16.102 17.136 C 16.435 17.046,16.582 17.028,17.000 17.028 C 17.418 17.028,17.565 17.046,17.898 17.136 C 18.732 17.362,19.950 17.925,21.066 18.599 C 21.579 18.908,21.707 18.969,21.891 18.988 C 22.823 19.084,23.368 17.947,22.699 17.302 C 22.333 16.950,20.542 15.981,19.500 15.573 C 17.887 14.941,16.814 14.861,15.380 15.267 C 14.638 15.477,13.533 15.961,12.556 16.502 L 12.083 16.765 11.961 16.675 C 11.895 16.625,11.840 16.584,11.840 16.582 C 11.840 16.581,11.878 16.481,11.924 16.360 C 11.989 16.192,12.003 16.085,11.988 15.906 C 11.968 15.685,11.907 15.572,10.865 13.836 L 9.764 12.000 9.955 12.000 C 10.238 12.000,10.511 11.891,10.697 11.704 C 10.841 11.559,11.093 11.014,12.870 7.014 C 13.976 4.525,14.907 2.412,14.940 2.319 C 15.104 1.856,14.896 1.342,14.455 1.122 C 14.212 1.000,13.886 0.978,13.643 1.067 M6.360 19.026 C 5.588 19.100,4.734 19.304,4.040 19.578 C 2.889 20.033,1.430 21.003,1.130 21.513 C 1.036 21.673,1.020 21.745,1.020 22.003 C 1.020 22.271,1.034 22.329,1.141 22.503 C 1.441 22.991,2.072 23.144,2.525 22.838 C 2.621 22.773,2.808 22.629,2.940 22.518 C 3.729 21.852,4.936 21.283,5.960 21.094 C 6.223 21.046,6.543 21.024,7.000 21.024 C 7.776 21.024,8.197 21.090,8.884 21.319 C 9.748 21.606,10.613 22.105,11.290 22.704 C 11.597 22.976,11.971 23.064,12.305 22.944 C 12.390 22.914,12.703 22.741,13.000 22.560 C 14.035 21.931,15.282 21.358,16.102 21.136 C 16.670 20.982,17.330 20.982,17.898 21.136 C 18.732 21.362,19.950 21.925,21.066 22.599 C 21.579 22.908,21.707 22.969,21.891 22.988 C 22.823 23.084,23.368 21.947,22.699 21.302 C 22.333 20.950,20.542 19.981,19.500 19.573 C 17.887 18.941,16.814 18.861,15.380 19.267 C 14.639 19.477,13.533 19.961,12.562 20.499 L 12.094 20.758 11.656 20.469 C 10.589 19.765,9.458 19.310,8.300 19.117 C 7.832 19.039,6.749 18.988,6.360 19.026 " stroke="none" fill-rule="evenodd" fill="black"></path></svg>