<svg viewBox="0 0 24 24" xmlns="http://www.w3.org/2000/svg" fill="none" stroke="#000000" stroke-width="2" stroke-linecap="round" stroke-linejoin="round"><path d="M11.260 3.046 C 10.527 3.127,9.737 3.403,9.160 3.780 C 8.535 4.188,7.884 4.952,7.560 5.656 C 7.073 6.717,6.922 7.744,7.036 9.230 C 7.171 10.985,7.525 12.022,8.250 12.786 C 8.837 13.403,9.583 13.751,10.690 13.923 L 11.000 13.971 11.000 16.445 C 11.000 18.086,10.986 18.920,10.960 18.920 C 10.838 18.920,10.135 18.738,9.785 18.617 C 8.872 18.299,8.185 17.866,7.476 17.161 C 6.853 16.543,6.492 15.991,6.228 15.255 C 6.107 14.920,6.056 14.650,6.004 14.089 C 5.960 13.610,5.864 13.404,5.595 13.205 C 5.120 12.856,4.432 12.999,4.134 13.507 C 4.002 13.732,3.972 14.074,4.037 14.628 C 4.369 17.486,6.812 20.006,9.980 20.759 C 10.742 20.940,11.111 20.980,12.000 20.980 C 12.887 20.980,13.255 20.940,14.020 20.759 C 14.673 20.605,15.117 20.444,15.785 20.120 C 18.091 19.000,19.701 16.883,19.963 14.628 C 20.028 14.074,19.998 13.732,19.866 13.507 C 19.568 12.999,18.880 12.856,18.405 13.205 C 18.136 13.404,18.040 13.610,17.996 14.089 C 17.944 14.650,17.893 14.920,17.772 15.255 C 17.508 15.991,17.147 16.543,16.524 17.161 C 15.815 17.866,15.128 18.299,14.215 18.617 C 13.865 18.738,13.162 18.920,13.040 18.920 C 13.014 18.920,13.000 18.066,13.000 16.386 L 13.000 13.853 13.170 13.802 C 13.529 13.694,14.120 13.348,14.460 13.046 C 15.360 12.246,16.078 11.063,16.614 9.495 C 16.918 8.606,17.014 8.158,16.988 7.761 C 16.927 6.817,16.576 5.758,16.079 5.016 C 15.809 4.614,15.227 4.032,14.840 3.780 C 13.893 3.161,12.606 2.897,11.260 3.046 M12.873 5.100 C 13.599 5.273,14.189 5.710,14.537 6.333 C 14.713 6.648,14.901 7.214,14.958 7.602 C 15.001 7.893,14.998 7.920,14.862 8.394 C 14.457 9.799,13.774 11.042,13.122 11.558 L 12.968 11.680 12.865 11.504 C 12.413 10.733,11.255 10.904,11.025 11.776 L 10.980 11.947 10.706 11.892 C 9.856 11.719,9.463 11.334,9.238 10.453 C 9.057 9.744,8.949 8.215,9.038 7.620 C 9.141 6.934,9.431 6.272,9.807 5.860 C 10.247 5.379,10.750 5.141,11.580 5.023 C 11.804 4.992,12.619 5.040,12.873 5.100 " stroke="none" fill-rule="evenodd" fill="black"></path></svg>