<svg viewBox="0 0 24 24" xmlns="http://www.w3.org/2000/svg" fill="none" stroke="#000000" stroke-width="2" stroke-linecap="round" stroke-linejoin="round"><path d="M6.860 2.047 C 6.166 2.125,5.361 2.388,4.780 2.727 C 1.937 4.387,1.140 8.012,3.028 10.691 C 3.277 11.045,3.839 11.629,4.130 11.838 C 4.235 11.912,4.320 11.985,4.320 12.000 C 4.320 12.015,4.234 12.088,4.130 12.163 C 4.026 12.237,3.787 12.452,3.599 12.639 C 1.483 14.756,1.471 18.192,3.573 20.333 C 5.170 21.960,7.501 22.436,9.624 21.570 C 10.429 21.241,11.374 20.515,11.840 19.867 C 11.913 19.764,11.986 19.680,12.001 19.680 C 12.017 19.680,12.075 19.749,12.131 19.833 C 12.293 20.079,12.872 20.646,13.233 20.913 C 15.187 22.359,17.815 22.360,19.763 20.915 C 21.806 19.401,22.538 16.749,21.570 14.376 C 21.241 13.571,20.515 12.626,19.867 12.160 C 19.764 12.087,19.680 12.015,19.680 12.000 C 19.680 11.985,19.764 11.913,19.867 11.840 C 19.969 11.766,20.191 11.569,20.359 11.403 C 22.311 9.474,22.546 6.436,20.915 4.237 C 19.770 2.692,17.883 1.848,15.998 2.037 C 14.928 2.144,14.054 2.480,13.200 3.113 C 12.857 3.367,12.293 3.921,12.136 4.159 C 12.077 4.247,12.017 4.320,12.001 4.320 C 11.986 4.320,11.913 4.236,11.840 4.133 C 11.766 4.031,11.569 3.809,11.403 3.641 C 10.207 2.435,8.557 1.855,6.860 2.047 M8.405 4.115 C 9.375 4.366,10.232 5.094,10.678 6.046 C 10.907 6.534,10.974 6.874,10.977 7.554 L 10.980 8.127 10.800 8.186 C 10.701 8.219,10.461 8.320,10.266 8.411 C 9.926 8.570,9.911 8.574,9.872 8.498 C 9.849 8.455,9.541 8.130,9.186 7.777 C 8.644 7.236,8.508 7.122,8.343 7.067 C 7.865 6.905,7.382 7.083,7.128 7.516 C 7.037 7.672,7.020 7.746,7.020 8.000 C 7.020 8.253,7.037 8.328,7.127 8.480 C 7.233 8.659,8.349 9.790,8.498 9.870 C 8.572 9.910,8.570 9.922,8.440 10.185 C 8.366 10.336,8.265 10.576,8.214 10.720 L 8.123 10.980 7.512 10.977 C 6.848 10.973,6.605 10.929,6.111 10.719 C 5.182 10.324,4.381 9.398,4.111 8.405 C 3.992 7.968,3.992 7.032,4.111 6.595 C 4.467 5.286,5.615 4.251,6.942 4.042 C 7.297 3.986,8.050 4.024,8.405 4.115 M17.405 4.115 C 18.375 4.366,19.232 5.094,19.678 6.046 C 19.906 6.532,19.978 6.881,19.978 7.500 C 19.978 8.119,19.906 8.468,19.678 8.954 C 19.223 9.925,18.391 10.624,17.360 10.903 C 17.169 10.955,16.938 10.974,16.487 10.977 L 15.874 10.980 15.779 10.709 C 15.727 10.560,15.626 10.320,15.555 10.175 C 15.430 9.921,15.428 9.910,15.502 9.870 C 15.651 9.790,16.767 8.659,16.873 8.480 C 16.963 8.328,16.980 8.253,16.980 8.000 C 16.980 7.746,16.963 7.672,16.872 7.516 C 16.618 7.083,16.135 6.905,15.657 7.067 C 15.492 7.122,15.356 7.236,14.814 7.777 C 14.459 8.130,14.151 8.455,14.128 8.498 C 14.089 8.574,14.074 8.570,13.734 8.411 C 13.539 8.320,13.299 8.219,13.200 8.186 L 13.020 8.127 13.022 7.554 C 13.025 6.863,13.096 6.509,13.325 6.035 C 13.847 4.954,14.812 4.220,15.942 4.042 C 16.297 3.986,17.050 4.024,17.405 4.115 M12.523 10.073 C 13.262 10.266,13.850 10.924,13.967 11.690 C 14.067 12.343,13.873 12.933,13.403 13.404 C 13.002 13.807,12.547 14.000,12.000 14.000 C 11.485 14.000,11.038 13.822,10.653 13.465 C 9.323 12.229,10.189 10.005,12.000 10.005 C 12.143 10.005,12.378 10.036,12.523 10.073 M8.215 13.280 C 8.265 13.424,8.366 13.663,8.439 13.812 L 8.573 14.084 8.476 14.148 C 8.277 14.283,7.229 15.347,7.127 15.520 C 7.037 15.672,7.020 15.747,7.020 16.000 C 7.020 16.257,7.036 16.327,7.133 16.492 C 7.413 16.968,8.032 17.138,8.492 16.866 C 8.662 16.765,9.793 15.646,9.870 15.502 C 9.910 15.428,9.921 15.430,10.175 15.555 C 10.320 15.626,10.560 15.727,10.709 15.779 L 10.980 15.874 10.977 16.447 C 10.974 17.126,10.907 17.466,10.678 17.954 C 10.223 18.925,9.401 19.617,8.360 19.905 C 7.993 20.007,7.007 20.007,6.640 19.905 C 5.412 19.565,4.437 18.601,4.111 17.405 C 3.992 16.968,3.992 16.032,4.111 15.595 C 4.467 14.286,5.630 13.238,6.942 13.044 C 7.073 13.024,7.392 13.011,7.652 13.014 L 8.124 13.020 8.215 13.280 M17.405 13.114 C 18.380 13.371,19.232 14.095,19.678 15.046 C 19.906 15.532,19.978 15.881,19.978 16.500 C 19.978 17.119,19.906 17.468,19.678 17.954 C 19.223 18.925,18.401 19.617,17.360 19.905 C 17.163 19.959,16.955 19.977,16.500 19.977 C 16.045 19.977,15.837 19.959,15.640 19.905 C 14.604 19.618,13.797 18.942,13.325 17.965 C 13.096 17.491,13.025 17.137,13.022 16.447 L 13.020 15.874 13.291 15.779 C 13.440 15.727,13.680 15.626,13.825 15.555 C 14.079 15.430,14.090 15.428,14.130 15.502 C 14.207 15.646,15.338 16.765,15.508 16.866 C 15.968 17.138,16.587 16.968,16.867 16.492 C 16.964 16.327,16.980 16.257,16.980 16.000 C 16.980 15.747,16.963 15.672,16.873 15.520 C 16.771 15.347,15.723 14.283,15.524 14.148 L 15.427 14.084 15.551 13.832 C 15.654 13.621,15.783 13.297,15.864 13.044 C 15.892 12.958,17.004 13.008,17.405 13.114 " stroke="none" fill-rule="evenodd" fill="black"></path></svg>