<svg viewBox="0 0 24 24" xmlns="http://www.w3.org/2000/svg" fill="none" stroke="#000000" stroke-width="2" stroke-linecap="round" stroke-linejoin="round"><path d="M11.280 1.023 C 11.203 1.032,10.951 1.059,10.720 1.083 C 8.832 1.283,6.991 2.023,5.360 3.235 C 4.751 3.688,3.684 4.755,3.226 5.367 C 0.728 8.714,0.301 13.032,2.097 16.780 C 3.161 18.999,5.029 20.862,7.250 21.919 C 10.861 23.636,15.062 23.285,18.340 20.991 C 19.145 20.428,20.168 19.435,20.770 18.634 C 23.743 14.676,23.743 9.347,20.770 5.363 C 20.316 4.755,19.247 3.686,18.640 3.235 C 17.045 2.049,15.365 1.360,13.423 1.096 C 13.000 1.038,11.574 0.990,11.280 1.023 M11.000 4.830 L 11.000 6.580 9.450 8.129 L 7.900 9.677 6.176 8.384 L 4.453 7.091 4.632 6.836 C 5.277 5.917,6.150 5.077,7.120 4.440 C 7.944 3.900,9.191 3.386,10.120 3.205 C 10.351 3.160,10.576 3.115,10.620 3.106 C 10.664 3.097,10.768 3.087,10.850 3.085 L 11.000 3.080 11.000 4.830 M13.889 3.203 C 14.835 3.397,16.066 3.906,16.880 4.440 C 17.850 5.077,18.723 5.917,19.368 6.836 L 19.547 7.091 17.824 8.384 L 16.100 9.677 14.550 8.129 L 13.000 6.580 13.000 4.824 L 13.000 3.069 13.239 3.094 C 13.370 3.107,13.662 3.156,13.889 3.203 M13.410 9.830 C 14.174 10.594,14.800 11.238,14.800 11.260 C 14.800 11.283,14.469 12.129,14.064 13.140 L 13.328 14.980 12.000 14.980 L 10.672 14.980 9.936 13.140 C 9.531 12.129,9.200 11.283,9.200 11.261 C 9.200 11.221,11.960 8.440,12.000 8.440 C 12.011 8.440,12.645 9.065,13.410 9.830 M5.366 10.274 L 7.171 11.629 7.986 13.664 C 8.434 14.783,8.800 15.717,8.800 15.740 C 8.800 15.762,8.153 16.427,7.363 17.217 L 5.926 18.653 5.597 18.317 C 4.460 17.156,3.640 15.693,3.267 14.160 C 3.083 13.408,3.024 12.886,3.023 12.020 C 3.022 11.211,3.059 10.814,3.203 10.120 C 3.278 9.756,3.518 8.920,3.547 8.920 C 3.554 8.920,4.373 9.529,5.366 10.274 M20.593 9.330 C 20.874 10.247,20.979 10.977,20.977 12.020 C 20.975 13.496,20.716 14.629,20.080 15.940 C 19.649 16.831,19.107 17.599,18.403 18.317 L 18.074 18.653 16.637 17.217 C 15.847 16.427,15.200 15.762,15.200 15.740 C 15.200 15.717,15.566 14.783,16.014 13.664 L 16.829 11.629 18.624 10.277 C 19.612 9.534,20.431 8.924,20.444 8.923 C 20.457 8.921,20.524 9.104,20.593 9.330 M14.998 18.418 C 15.778 19.199,16.407 19.846,16.396 19.858 C 16.384 19.869,16.146 19.988,15.865 20.122 C 13.423 21.291,10.551 21.287,8.111 20.113 C 7.830 19.977,7.600 19.856,7.600 19.844 C 7.600 19.831,8.234 19.186,9.010 18.410 L 10.420 17.000 12.000 17.000 L 13.580 17.000 14.998 18.418 " stroke="none" fill-rule="evenodd" fill="black"></path></svg>