<svg viewBox="0 0 24 24" xmlns="http://www.w3.org/2000/svg" fill="none" stroke="#000000" stroke-width="2" stroke-linecap="round" stroke-linejoin="round"><path d="M6.499 1.043 C 5.379 1.233,4.461 2.048,4.114 3.160 L 4.020 3.460 4.020 12.000 L 4.020 20.540 4.114 20.840 C 4.422 21.827,5.173 22.578,6.160 22.886 L 6.460 22.980 12.000 22.980 L 17.540 22.980 17.840 22.886 C 18.827 22.578,19.578 21.827,19.886 20.840 L 19.980 20.540 19.980 12.000 L 19.980 3.460 19.886 3.160 C 19.581 2.182,18.832 1.428,17.861 1.121 L 17.540 1.020 12.120 1.014 C 9.139 1.011,6.609 1.024,6.499 1.043 M14.695 3.057 C 14.466 3.129,14.256 3.299,14.128 3.516 L 14.020 3.700 14.020 5.503 L 14.020 7.306 14.141 7.503 C 14.543 8.156,15.457 8.156,15.859 7.503 L 15.980 7.306 15.980 5.503 L 15.980 3.700 15.872 3.516 C 15.744 3.299,15.534 3.129,15.305 3.057 C 15.160 3.012,15.258 3.005,16.123 3.003 C 17.290 2.999,17.417 3.024,17.697 3.303 C 18.007 3.614,18.000 3.538,18.000 6.447 L 18.000 9.000 12.000 9.000 L 6.000 9.000 6.000 6.447 C 6.000 3.538,5.993 3.614,6.304 3.303 C 6.618 2.989,6.359 3.006,10.860 3.005 C 14.190 3.005,14.832 3.014,14.695 3.057 M18.000 15.554 C 18.000 20.497,18.008 20.318,17.779 20.618 C 17.718 20.698,17.585 20.813,17.484 20.872 L 17.300 20.980 12.000 20.980 L 6.700 20.980 6.516 20.872 C 6.415 20.813,6.284 20.700,6.225 20.623 C 5.989 20.314,6.000 20.557,6.000 15.575 L 6.000 11.000 12.000 11.000 L 18.000 11.000 18.000 15.554 M14.695 13.057 C 14.466 13.129,14.256 13.299,14.128 13.516 L 14.020 13.700 14.020 16.003 L 14.020 18.306 14.141 18.503 C 14.209 18.613,14.346 18.756,14.452 18.828 C 14.923 19.144,15.554 18.999,15.859 18.503 L 15.980 18.306 15.980 16.003 L 15.980 13.700 15.872 13.516 C 15.628 13.101,15.150 12.915,14.695 13.057 " stroke="none" fill-rule="evenodd" fill="black"></path></svg>