<svg viewBox="0 0 24 24" xmlns="http://www.w3.org/2000/svg" fill="none" stroke="#000000" stroke-width="2" stroke-linecap="round" stroke-linejoin="round"><path d="M11.080 0.045 C 9.507 0.184,7.883 0.751,6.540 1.630 C 5.905 2.045,5.499 2.378,4.919 2.958 C 3.265 4.614,2.275 6.717,2.041 9.074 C 2.015 9.340,2.001 11.767,2.002 15.834 C 2.003 21.031,2.013 22.207,2.057 22.330 C 2.241 22.846,2.796 23.113,3.325 22.939 C 3.523 22.874,3.639 22.771,4.771 21.646 L 6.001 20.423 7.211 21.627 C 7.876 22.289,8.483 22.864,8.560 22.905 C 8.754 23.007,9.246 23.007,9.440 22.905 C 9.517 22.864,10.124 22.289,10.790 21.626 L 12.000 20.422 13.210 21.626 C 13.876 22.289,14.483 22.864,14.560 22.905 C 14.660 22.957,14.786 22.978,15.000 22.978 C 15.214 22.978,15.340 22.957,15.440 22.905 C 15.517 22.864,16.124 22.289,16.790 21.626 L 18.000 20.422 19.210 21.626 C 19.875 22.289,20.483 22.864,20.560 22.905 C 20.659 22.957,20.787 22.979,21.000 22.979 C 21.255 22.980,21.328 22.964,21.484 22.872 C 21.585 22.813,21.717 22.700,21.776 22.621 C 22.016 22.306,22.003 22.738,21.990 15.558 C 21.978 9.464,21.972 8.949,21.906 8.560 C 21.592 6.714,20.947 5.222,19.847 3.800 C 19.510 3.365,18.639 2.494,18.200 2.154 C 16.133 0.555,13.646 -0.182,11.080 0.045 M12.734 2.041 C 14.574 2.216,16.228 2.976,17.554 4.256 C 18.934 5.587,19.776 7.343,19.959 9.266 C 19.984 9.536,20.000 11.559,20.000 14.637 L 20.000 19.574 19.270 18.854 C 18.655 18.247,18.509 18.123,18.343 18.067 C 18.094 17.983,17.907 17.982,17.657 18.066 C 17.484 18.124,17.312 18.279,16.230 19.354 L 15.000 20.576 13.770 19.354 C 12.688 18.279,12.516 18.124,12.343 18.066 C 12.094 17.983,11.906 17.983,11.657 18.066 C 11.484 18.124,11.312 18.279,10.230 19.354 L 9.000 20.576 7.770 19.354 C 6.688 18.279,6.516 18.124,6.343 18.066 C 6.093 17.982,5.906 17.983,5.657 18.067 C 5.491 18.123,5.345 18.247,4.730 18.854 L 4.000 19.574 4.000 14.637 C 4.000 11.559,4.016 9.536,4.041 9.266 C 4.195 7.641,4.827 6.114,5.848 4.900 C 6.622 3.980,7.440 3.337,8.500 2.816 C 9.813 2.172,11.278 1.903,12.734 2.041 M7.695 9.055 C 7.464 9.130,7.255 9.300,7.128 9.516 C 7.037 9.672,7.020 9.746,7.020 10.000 C 7.020 10.257,7.036 10.327,7.133 10.492 C 7.651 11.374,8.998 11.018,8.998 10.000 C 8.998 9.623,8.792 9.281,8.463 9.112 C 8.265 9.010,7.911 8.984,7.695 9.055 M15.695 9.055 C 15.464 9.130,15.255 9.300,15.128 9.516 C 15.037 9.672,15.020 9.746,15.020 10.000 C 15.020 10.257,15.036 10.327,15.133 10.492 C 15.651 11.374,16.998 11.018,16.998 10.000 C 16.998 9.623,16.792 9.281,16.463 9.112 C 16.265 9.010,15.911 8.984,15.695 9.055 M9.670 13.061 C 9.448 13.142,9.250 13.309,9.128 13.516 C 9.037 13.672,9.020 13.746,9.020 14.000 C 9.020 14.380,9.123 14.571,9.506 14.898 C 10.069 15.379,10.704 15.738,11.280 15.903 C 11.639 16.006,12.361 16.006,12.720 15.903 C 13.495 15.681,14.595 14.954,14.874 14.481 C 14.963 14.329,14.980 14.253,14.980 14.000 C 14.980 13.746,14.963 13.672,14.872 13.516 C 14.747 13.303,14.550 13.141,14.316 13.058 C 13.955 12.931,13.623 13.016,13.260 13.327 C 12.797 13.725,12.281 14.000,12.000 14.000 C 11.719 14.000,11.203 13.725,10.740 13.327 C 10.379 13.017,10.027 12.930,9.670 13.061 " stroke="none" fill-rule="evenodd" fill="black"></path></svg>