<svg viewBox="0 0 24 24" xmlns="http://www.w3.org/2000/svg" fill="none" stroke="#000000" stroke-width="2" stroke-linecap="round" stroke-linejoin="round"><path d="M11.080 0.045 C 9.507 0.184,7.883 0.751,6.540 1.630 C 5.905 2.045,5.499 2.378,4.919 2.958 C 3.265 4.614,2.275 6.717,2.041 9.074 C 2.015 9.340,2.001 11.767,2.002 15.834 C 2.003 21.031,2.013 22.207,2.057 22.330 C 2.241 22.846,2.796 23.113,3.325 22.939 C 3.523 22.874,3.639 22.771,4.771 21.646 L 6.001 20.423 7.211 21.627 C 7.876 22.289,8.483 22.864,8.560 22.905 C 8.754 23.007,9.246 23.007,9.440 22.905 C 9.517 22.864,10.124 22.289,10.790 21.626 L 12.000 20.422 13.210 21.626 C 13.876 22.289,14.483 22.864,14.560 22.905 C 14.660 22.957,14.786 22.978,15.000 22.978 C 15.214 22.978,15.340 22.957,15.440 22.905 C 15.517 22.864,16.124 22.289,16.790 21.626 L 18.000 20.422 19.210 21.626 C 19.875 22.289,20.483 22.864,20.560 22.905 C 20.659 22.957,20.787 22.979,21.000 22.979 C 21.255 22.980,21.328 22.964,21.484 22.872 C 21.585 22.813,21.717 22.700,21.776 22.621 C 22.016 22.306,22.003 22.738,21.990 15.558 C 21.978 9.464,21.972 8.949,21.906 8.560 C 21.592 6.714,20.947 5.222,19.847 3.800 C 19.510 3.365,18.639 2.494,18.200 2.154 C 16.133 0.555,13.646 -0.182,11.080 0.045 M12.734 2.041 C 14.574 2.216,16.228 2.976,17.554 4.256 C 18.934 5.587,19.776 7.343,19.959 9.266 C 19.984 9.536,20.000 11.559,20.000 14.637 L 20.000 19.574 19.270 18.854 C 18.655 18.247,18.509 18.123,18.343 18.067 C 18.094 17.983,17.907 17.982,17.657 18.066 C 17.484 18.124,17.312 18.279,16.230 19.354 L 15.000 20.576 13.770 19.354 C 12.688 18.279,12.516 18.124,12.343 18.066 C 12.094 17.983,11.906 17.983,11.657 18.066 C 11.484 18.124,11.312 18.279,10.230 19.354 L 9.000 20.576 7.770 19.354 C 6.688 18.279,6.516 18.124,6.343 18.066 C 6.093 17.982,5.906 17.983,5.657 18.067 C 5.491 18.123,5.345 18.247,4.730 18.854 L 4.000 19.574 4.000 14.637 C 4.000 11.559,4.016 9.536,4.041 9.266 C 4.195 7.641,4.827 6.114,5.848 4.900 C 6.622 3.980,7.440 3.337,8.500 2.816 C 9.813 2.172,11.278 1.903,12.734 2.041 M9.477 8.073 C 8.806 8.249,8.238 8.823,8.060 9.508 C 7.941 9.962,8.003 10.492,8.225 10.930 C 8.361 11.199,8.801 11.639,9.070 11.775 C 9.659 12.073,10.341 12.073,10.930 11.775 C 11.381 11.546,11.865 10.924,11.941 10.476 C 11.974 10.279,12.023 10.276,12.054 10.470 C 12.127 10.913,12.620 11.547,13.070 11.775 C 13.659 12.073,14.341 12.073,14.930 11.775 C 15.196 11.640,15.638 11.200,15.771 10.937 C 16.065 10.358,16.068 9.649,15.781 9.083 C 15.646 8.816,15.297 8.449,15.017 8.281 C 14.413 7.918,13.587 7.918,12.983 8.281 C 12.542 8.546,12.123 9.110,12.054 9.531 C 12.020 9.743,11.973 9.749,11.943 9.547 C 11.878 9.111,11.470 8.553,11.017 8.281 C 10.734 8.110,10.345 8.005,10.000 8.005 C 9.857 8.005,9.622 8.036,9.477 8.073 " stroke="none" fill-rule="evenodd" fill="black"></path></svg>