<svg viewBox="0 0 24 24" xmlns="http://www.w3.org/2000/svg" fill="none" stroke="#000000" stroke-width="2" stroke-linecap="round" stroke-linejoin="round"><path d="M5.358 2.061 C 3.731 2.315,2.417 3.584,2.083 5.227 C 1.700 7.105,2.756 9.031,4.540 9.711 C 4.716 9.778,4.891 9.843,4.929 9.855 C 4.995 9.876,5.000 10.207,5.009 15.592 L 5.020 21.306 5.141 21.503 C 5.543 22.156,6.457 22.156,6.859 21.503 L 6.980 21.306 6.991 15.592 C 7.000 10.207,7.005 9.876,7.071 9.855 C 8.341 9.451,9.237 8.646,9.704 7.488 C 10.090 6.530,10.090 5.469,9.705 4.516 C 9.172 3.197,8.001 2.269,6.605 2.058 C 6.144 1.989,5.816 1.990,5.358 2.061 M6.523 4.073 C 7.262 4.266,7.850 4.924,7.967 5.690 C 8.029 6.098,7.967 6.522,7.793 6.880 C 7.638 7.198,7.227 7.625,6.930 7.775 C 6.492 7.997,5.962 8.059,5.508 7.940 C 4.823 7.762,4.249 7.194,4.073 6.523 C 3.683 5.028,5.028 3.683,6.523 4.073 M12.695 5.056 C 12.465 5.130,12.255 5.300,12.128 5.516 C 12.037 5.672,12.020 5.746,12.020 6.000 C 12.020 6.256,12.036 6.328,12.131 6.489 C 12.192 6.592,12.304 6.725,12.381 6.783 C 12.655 6.992,12.695 6.996,14.463 6.998 C 16.334 7.000,16.395 7.008,16.679 7.283 C 16.992 7.587,16.978 7.464,17.000 10.023 L 17.020 12.306 17.141 12.503 C 17.543 13.156,18.457 13.156,18.859 12.503 L 18.980 12.306 18.980 9.883 L 18.980 7.460 18.886 7.160 C 18.581 6.181,17.827 5.423,16.861 5.123 C 16.541 5.024,16.535 5.023,14.700 5.013 C 13.259 5.005,12.824 5.014,12.695 5.056 M14.670 14.061 C 14.448 14.142,14.250 14.309,14.128 14.516 C 14.036 14.672,14.020 14.745,14.021 15.000 C 14.021 15.213,14.043 15.341,14.095 15.440 C 14.136 15.517,14.711 16.125,15.374 16.790 L 16.578 18.000 15.374 19.210 C 14.711 19.875,14.138 20.481,14.101 20.555 C 13.872 21.009,14.056 21.601,14.508 21.867 C 14.673 21.964,14.742 21.980,15.000 21.979 C 15.213 21.979,15.341 21.957,15.440 21.905 C 15.517 21.864,16.125 21.289,16.790 20.626 L 18.000 19.422 19.210 20.626 C 19.875 21.289,20.481 21.862,20.555 21.899 C 21.009 22.128,21.601 21.944,21.867 21.492 C 21.964 21.327,21.980 21.258,21.979 21.000 C 21.979 20.787,21.957 20.659,21.905 20.560 C 21.864 20.483,21.289 19.875,20.626 19.210 L 19.422 18.000 20.626 16.790 C 21.289 16.125,21.864 15.517,21.905 15.440 C 21.957 15.341,21.979 15.213,21.979 15.000 C 21.980 14.745,21.964 14.672,21.872 14.516 C 21.618 14.084,21.137 13.905,20.657 14.066 C 20.484 14.124,20.312 14.279,19.230 15.354 L 18.000 16.576 16.770 15.354 C 15.688 14.279,15.516 14.124,15.343 14.066 C 15.108 13.987,14.875 13.985,14.670 14.061 " stroke="none" fill-rule="evenodd" fill="black"></path></svg>