<svg viewBox="0 0 24 24" xmlns="http://www.w3.org/2000/svg" fill="none" stroke="#000000" stroke-width="2" stroke-linecap="round" stroke-linejoin="round"><path d="M7.360 4.042 C 5.991 4.205,5.007 4.929,4.211 6.360 C 4.144 6.481,3.510 7.975,2.802 9.680 C 2.094 11.385,1.473 12.879,1.421 13.000 C 1.124 13.691,1.020 14.209,1.020 15.000 C 1.020 15.670,1.078 16.044,1.268 16.600 C 1.846 18.291,3.253 19.525,5.040 19.907 C 5.511 20.008,6.489 20.008,6.960 19.907 C 8.207 19.640,9.295 18.946,10.034 17.948 C 10.382 17.476,10.775 16.624,10.861 16.150 L 10.889 16.000 12.000 16.000 L 13.111 16.000 13.139 16.150 C 13.183 16.392,13.359 16.876,13.526 17.215 C 14.203 18.592,15.486 19.574,17.040 19.907 C 17.511 20.008,18.489 20.008,18.960 19.907 C 20.488 19.580,21.748 18.630,22.433 17.288 C 22.838 16.494,22.980 15.899,22.980 15.000 C 22.980 14.209,22.876 13.691,22.579 13.000 C 22.527 12.879,21.906 11.385,21.198 9.680 C 20.490 7.975,19.856 6.481,19.789 6.360 C 18.932 4.820,17.883 4.112,16.320 4.019 C 15.686 3.981,15.364 4.115,15.128 4.516 C 15.036 4.672,15.020 4.746,15.020 5.003 C 15.020 5.271,15.034 5.329,15.141 5.503 C 15.289 5.744,15.580 5.948,15.811 5.975 C 15.904 5.985,16.142 6.011,16.340 6.033 C 16.806 6.085,17.107 6.200,17.356 6.424 C 17.567 6.613,17.834 6.968,18.017 7.300 C 18.119 7.486,19.236 10.129,19.221 10.149 C 19.218 10.154,19.156 10.142,19.085 10.122 C 19.014 10.101,18.740 10.063,18.477 10.036 C 17.738 9.962,16.901 10.069,16.248 10.320 C 15.067 10.774,14.072 11.675,13.526 12.785 C 13.359 13.124,13.183 13.608,13.139 13.850 L 13.111 14.000 12.002 14.000 L 10.893 14.000 10.842 13.773 C 10.660 12.961,10.116 12.031,9.452 11.396 C 8.395 10.387,6.965 9.892,5.523 10.036 C 5.260 10.063,4.986 10.101,4.915 10.122 C 4.844 10.142,4.782 10.154,4.779 10.149 C 4.764 10.129,5.881 7.486,5.983 7.300 C 6.166 6.968,6.433 6.613,6.644 6.424 C 6.893 6.200,7.194 6.085,7.660 6.033 C 7.858 6.011,8.096 5.985,8.189 5.975 C 8.420 5.948,8.711 5.744,8.859 5.503 C 8.966 5.329,8.980 5.271,8.980 5.003 C 8.980 4.746,8.964 4.672,8.872 4.516 C 8.607 4.066,8.207 3.941,7.360 4.042 M6.861 12.129 C 7.804 12.405,8.597 13.197,8.869 14.134 C 8.919 14.307,8.960 14.496,8.960 14.552 C 8.960 14.646,8.949 14.639,8.847 14.478 C 8.717 14.273,8.490 14.106,8.260 14.044 C 8.155 14.015,7.375 14.000,6.000 14.000 C 4.625 14.000,3.845 14.015,3.740 14.044 C 3.510 14.106,3.283 14.273,3.153 14.478 C 3.051 14.639,3.040 14.646,3.040 14.552 C 3.040 14.367,3.219 13.825,3.368 13.559 C 3.819 12.757,4.594 12.204,5.499 12.040 C 5.832 11.980,6.500 12.023,6.861 12.129 M18.861 12.129 C 19.804 12.405,20.597 13.197,20.869 14.134 C 20.919 14.307,20.960 14.496,20.960 14.552 C 20.960 14.646,20.949 14.639,20.847 14.478 C 20.717 14.273,20.490 14.106,20.260 14.044 C 20.155 14.015,19.375 14.000,18.000 14.000 C 16.625 14.000,15.845 14.015,15.740 14.044 C 15.510 14.106,15.283 14.273,15.153 14.478 C 15.051 14.639,15.040 14.646,15.040 14.552 C 15.040 14.367,15.219 13.825,15.368 13.559 C 15.819 12.757,16.594 12.204,17.499 12.040 C 17.832 11.980,18.500 12.023,18.861 12.129 M3.497 15.859 L 3.694 15.980 6.000 15.980 L 8.306 15.980 8.503 15.859 C 8.615 15.790,8.756 15.654,8.830 15.544 C 8.944 15.375,8.960 15.363,8.960 15.451 C 8.960 15.634,8.780 16.177,8.632 16.441 C 8.244 17.130,7.600 17.649,6.840 17.886 C 6.406 18.021,5.594 18.021,5.160 17.886 C 4.400 17.649,3.756 17.130,3.368 16.441 C 3.220 16.177,3.040 15.634,3.040 15.451 C 3.040 15.363,3.056 15.375,3.170 15.544 C 3.244 15.654,3.385 15.790,3.497 15.859 M15.497 15.859 L 15.694 15.980 18.000 15.980 L 20.306 15.980 20.503 15.859 C 20.615 15.790,20.756 15.654,20.830 15.544 C 20.944 15.375,20.960 15.363,20.960 15.451 C 20.960 15.634,20.780 16.177,20.632 16.441 C 20.244 17.130,19.600 17.649,18.840 17.886 C 18.406 18.021,17.594 18.021,17.160 17.886 C 16.400 17.649,15.756 17.130,15.368 16.441 C 15.220 16.177,15.040 15.634,15.040 15.451 C 15.040 15.363,15.056 15.375,15.170 15.544 C 15.244 15.654,15.385 15.790,15.497 15.859 " stroke="none" fill-rule="evenodd" fill="black"></path></svg>