<svg viewBox="0 0 24 24" xmlns="http://www.w3.org/2000/svg" fill="none" stroke="#000000" stroke-width="2" stroke-linecap="round" stroke-linejoin="round"><path d="M5.667 3.065 C 5.406 3.145,5.153 3.401,5.061 3.678 C 4.932 4.067,4.960 4.153,5.695 5.628 C 6.061 6.362,6.360 6.971,6.360 6.981 C 6.360 6.992,5.805 7.000,5.126 7.000 C 3.783 7.000,3.650 7.017,3.382 7.221 C 3.302 7.282,3.187 7.415,3.128 7.516 C 3.037 7.672,3.020 7.746,3.020 8.000 C 3.020 8.256,3.036 8.328,3.131 8.489 C 3.256 8.702,3.449 8.864,3.670 8.943 C 3.791 8.986,4.516 8.997,7.410 8.998 L 11.000 9.000 11.000 10.000 L 11.000 11.000 6.446 11.000 C 1.503 11.000,1.682 10.992,1.382 11.221 C 1.302 11.282,1.187 11.415,1.128 11.516 C 1.037 11.672,1.020 11.746,1.020 12.000 C 1.020 12.256,1.036 12.328,1.131 12.489 C 1.256 12.702,1.449 12.864,1.670 12.943 C 1.792 12.986,2.680 12.997,6.410 12.998 L 11.000 13.000 11.000 14.000 L 11.000 15.000 10.446 15.000 C 9.648 15.000,9.367 15.110,9.128 15.516 C 9.037 15.672,9.020 15.746,9.020 16.000 C 9.020 16.256,9.036 16.328,9.131 16.489 C 9.256 16.702,9.449 16.864,9.670 16.943 C 9.790 16.986,10.382 16.997,12.600 16.998 L 15.381 17.000 16.260 18.768 C 17.219 20.696,17.292 20.809,17.660 20.934 C 17.767 20.970,17.920 21.000,18.000 21.000 C 18.406 21.000,18.811 20.707,18.939 20.322 C 19.068 19.933,19.040 19.847,18.305 18.372 C 17.939 17.638,17.640 17.029,17.640 17.019 C 17.640 17.008,18.212 16.999,18.910 16.998 C 20.276 16.996,20.353 16.987,20.619 16.783 C 20.696 16.725,20.808 16.592,20.869 16.489 C 20.964 16.328,20.980 16.256,20.980 16.000 C 20.980 15.746,20.963 15.672,20.872 15.516 C 20.813 15.415,20.698 15.282,20.618 15.221 C 20.322 14.995,20.410 15.000,16.554 15.000 L 13.000 15.000 13.000 14.000 L 13.000 13.000 17.590 12.998 C 21.320 12.997,22.208 12.986,22.330 12.943 C 22.551 12.864,22.744 12.702,22.869 12.489 C 22.964 12.328,22.980 12.256,22.980 12.000 C 22.980 11.746,22.963 11.672,22.872 11.516 C 22.813 11.415,22.698 11.282,22.618 11.221 C 22.318 10.992,22.497 11.000,17.554 11.000 L 13.000 11.000 13.000 10.000 L 13.000 9.000 13.590 8.998 C 13.977 8.997,14.232 8.978,14.330 8.943 C 14.551 8.864,14.744 8.702,14.869 8.489 C 14.964 8.328,14.980 8.256,14.980 8.000 C 14.980 7.746,14.963 7.672,14.872 7.516 C 14.813 7.415,14.698 7.282,14.618 7.221 C 14.327 6.999,14.341 7.000,11.363 7.000 L 8.619 7.000 7.740 5.232 C 6.781 3.304,6.708 3.191,6.340 3.066 C 6.106 2.986,5.924 2.986,5.667 3.065 " stroke="none" fill-rule="evenodd" fill="black"></path></svg>