<svg viewBox="0 0 24 24" xmlns="http://www.w3.org/2000/svg" fill="none" stroke="#000000" stroke-width="2" stroke-linecap="round" stroke-linejoin="round"><path d="M11.280 1.023 C 11.203 1.032,10.951 1.059,10.720 1.083 C 8.832 1.283,6.991 2.023,5.360 3.235 C 4.751 3.688,3.684 4.755,3.226 5.367 C 0.728 8.714,0.301 13.032,2.097 16.780 C 2.643 17.918,3.276 18.801,4.238 19.762 C 5.199 20.724,6.082 21.357,7.220 21.903 C 10.967 23.699,15.288 23.270,18.637 20.770 C 19.246 20.316,20.316 19.246,20.770 18.637 C 23.054 15.577,23.619 11.691,22.298 8.133 C 21.848 6.923,21.026 5.569,20.184 4.654 C 19.929 4.377,19.923 4.365,19.966 4.240 C 20.031 4.053,19.983 3.705,19.862 3.499 C 19.734 3.281,19.542 3.131,19.295 3.057 C 19.054 2.984,18.892 2.985,18.679 3.060 L 18.507 3.121 18.124 2.867 C 16.650 1.893,15.164 1.333,13.423 1.096 C 13.000 1.038,11.574 0.990,11.280 1.023 M9.642 3.410 C 8.325 5.415,7.388 7.990,7.120 10.340 C 7.095 10.560,7.066 10.798,7.055 10.870 L 7.036 11.000 5.052 11.000 L 3.069 11.000 3.094 10.761 C 3.208 9.665,3.773 8.137,4.440 7.120 C 5.573 5.393,7.229 4.110,9.160 3.463 C 9.457 3.364,9.706 3.282,9.714 3.281 C 9.722 3.281,9.689 3.339,9.642 3.410 M15.300 3.630 C 15.658 3.770,16.243 4.050,16.482 4.195 L 16.607 4.271 15.967 4.656 C 15.616 4.867,15.319 5.040,15.308 5.040 C 15.296 5.040,15.212 4.894,15.120 4.716 C 14.967 4.417,14.515 3.645,14.346 3.392 L 14.274 3.285 14.607 3.387 C 14.790 3.443,15.102 3.552,15.300 3.630 M12.268 3.913 C 12.601 4.362,13.081 5.137,13.340 5.644 L 13.567 6.087 13.474 6.151 C 13.146 6.374,12.974 6.732,13.012 7.107 C 13.068 7.651,13.556 8.045,14.104 7.988 L 14.319 7.966 14.418 8.293 C 14.633 9.000,14.845 10.047,14.903 10.691 L 14.931 11.000 12.000 11.000 L 9.069 11.000 9.097 10.691 C 9.256 8.935,9.994 6.728,10.981 5.060 C 11.380 4.385,11.960 3.555,12.010 3.586 C 12.027 3.597,12.143 3.743,12.268 3.913 M18.602 5.888 C 19.255 6.617,19.688 7.252,20.082 8.060 C 20.499 8.913,20.825 9.984,20.906 10.761 L 20.931 11.000 18.948 11.000 L 16.964 11.000 16.945 10.870 C 16.935 10.798,16.888 10.452,16.842 10.100 C 16.716 9.143,16.527 8.301,16.224 7.347 L 16.087 6.913 16.213 6.838 C 16.283 6.796,16.772 6.501,17.300 6.183 C 17.828 5.864,18.279 5.603,18.302 5.602 C 18.325 5.601,18.460 5.730,18.602 5.888 M7.055 13.130 C 7.066 13.202,7.095 13.440,7.120 13.660 C 7.387 16.008,8.326 18.588,9.641 20.587 L 9.725 20.715 9.392 20.614 C 7.358 19.993,5.625 18.686,4.440 16.880 C 3.773 15.863,3.208 14.335,3.094 13.239 L 3.069 13.000 5.052 13.000 L 7.036 13.000 7.055 13.130 M14.903 13.309 C 14.811 14.324,14.454 15.770,14.021 16.880 C 13.568 18.039,12.626 19.712,12.066 20.349 L 11.988 20.438 11.753 20.117 C 10.889 18.938,10.153 17.494,9.694 16.080 C 9.421 15.235,9.164 14.043,9.097 13.309 L 9.069 13.000 12.000 13.000 L 14.931 13.000 14.903 13.309 M20.906 13.239 C 20.825 14.017,20.498 15.087,20.082 15.940 C 18.982 18.194,16.995 19.890,14.607 20.614 L 14.274 20.715 14.346 20.608 C 14.583 20.252,15.008 19.503,15.278 18.964 C 16.089 17.343,16.611 15.651,16.842 13.900 C 16.888 13.548,16.935 13.202,16.945 13.130 L 16.964 13.000 18.948 13.000 L 20.931 13.000 20.906 13.239 " stroke="none" fill-rule="evenodd" fill="black"></path></svg>