<svg viewBox="0 0 24 24" xmlns="http://www.w3.org/2000/svg" fill="none" stroke="#000000" stroke-width="2" stroke-linecap="round" stroke-linejoin="round"><path d="M11.700 4.054 C 11.612 4.084,9.263 5.247,6.480 6.638 C 2.387 8.686,1.392 9.198,1.275 9.321 C 0.908 9.705,0.918 10.324,1.298 10.697 C 1.426 10.823,1.863 11.059,3.232 11.740 L 5.000 12.619 5.000 14.885 C 5.000 17.371,4.997 17.333,5.243 17.644 C 5.392 17.832,6.015 18.357,6.413 18.632 C 7.299 19.242,8.577 19.771,9.751 20.015 C 10.619 20.195,10.893 20.220,12.000 20.220 C 13.107 20.220,13.381 20.195,14.249 20.015 C 15.423 19.771,16.701 19.242,17.587 18.632 C 17.985 18.357,18.608 17.832,18.757 17.644 C 19.003 17.333,19.000 17.371,19.000 14.885 L 19.000 12.619 19.980 12.130 C 20.519 11.860,20.969 11.640,20.979 11.640 C 20.989 11.640,21.003 12.690,21.009 13.973 L 21.020 16.306 21.141 16.503 C 21.543 17.156,22.457 17.156,22.859 16.503 L 22.980 16.306 22.980 13.003 L 22.980 9.700 22.869 9.511 C 22.808 9.408,22.700 9.279,22.629 9.225 C 22.558 9.172,20.205 7.982,17.400 6.581 C 11.852 3.810,12.100 3.920,11.700 4.054 M15.860 8.050 C 17.983 9.111,19.720 9.989,19.720 10.000 C 19.720 10.011,17.983 10.889,15.860 11.950 L 12.000 13.880 8.140 11.950 C 6.017 10.889,4.280 10.011,4.280 10.000 C 4.280 9.985,11.936 6.134,11.990 6.122 C 11.995 6.121,13.737 6.988,15.860 8.050 M9.381 14.810 L 11.723 15.980 12.000 15.980 L 12.277 15.980 14.619 14.810 C 15.907 14.167,16.970 13.640,16.981 13.640 C 16.991 13.640,16.999 14.302,16.999 15.110 L 16.997 16.580 16.729 16.783 C 15.489 17.722,13.807 18.240,12.000 18.240 C 10.185 18.240,8.525 17.729,7.271 16.783 L 7.003 16.580 7.001 15.110 C 7.001 14.302,7.009 13.640,7.019 13.640 C 7.030 13.640,8.093 14.167,9.381 14.810 " stroke="none" fill-rule="evenodd" fill="black"></path></svg>