<svg viewBox="0 0 24 24" xmlns="http://www.w3.org/2000/svg" fill="none" stroke="#000000" stroke-width="2" stroke-linecap="round" stroke-linejoin="round"><path d="M11.700 6.026 C 11.279 6.088,10.745 6.332,10.327 6.655 C 9.654 7.174,8.795 8.266,8.215 9.340 L 8.020 9.700 8.020 14.260 C 8.020 19.385,8.005 19.101,8.324 20.060 C 8.763 21.379,9.635 22.370,10.694 22.753 C 11.304 22.974,11.550 23.000,13.014 22.999 C 14.508 22.999,14.782 22.966,15.408 22.711 C 16.646 22.206,17.547 20.956,17.889 19.269 L 17.980 18.820 17.980 14.260 L 17.980 9.700 17.785 9.340 C 17.355 8.544,16.798 7.765,16.260 7.205 C 15.834 6.761,15.551 6.536,15.153 6.323 C 14.608 6.032,14.573 6.027,13.120 6.017 C 12.405 6.013,11.766 6.017,11.700 6.026 M14.228 8.084 C 14.600 8.264,15.296 9.065,15.778 9.870 L 16.000 10.240 16.000 14.251 C 16.000 18.373,15.990 18.666,15.837 19.240 C 15.634 19.999,15.129 20.681,14.620 20.884 C 14.383 20.979,14.363 20.980,13.000 20.980 C 11.637 20.980,11.617 20.979,11.380 20.884 C 10.871 20.681,10.366 19.999,10.163 19.240 C 10.010 18.666,10.000 18.374,10.000 14.241 L 10.000 10.220 10.254 9.816 C 10.618 9.233,10.935 8.823,11.288 8.475 C 11.777 7.992,11.748 8.000,12.997 8.000 C 13.989 8.000,14.066 8.005,14.228 8.084 " stroke="none" fill-rule="evenodd" fill="black"></path></svg>