<svg viewBox="0 0 24 24" xmlns="http://www.w3.org/2000/svg" fill="none" stroke="#000000" stroke-width="2" stroke-linecap="round" stroke-linejoin="round"><path d="M12.534 0.041 C 11.633 0.204,10.806 0.972,10.581 1.858 C 10.547 1.990,10.520 2.143,10.520 2.199 C 10.520 2.255,10.177 4.011,9.758 6.101 C 8.927 10.239,8.938 10.160,9.138 10.501 C 9.564 11.226,10.661 11.127,10.933 10.337 C 10.962 10.251,11.334 8.425,11.759 6.280 C 12.183 4.135,12.553 2.324,12.581 2.256 C 12.635 2.127,12.842 2.000,13.000 2.000 C 13.146 2.000,13.360 2.124,13.422 2.243 C 13.472 2.340,13.480 3.002,13.480 6.916 C 13.480 10.157,13.493 11.537,13.525 11.688 C 13.724 12.618,14.968 12.783,15.385 11.934 L 15.500 11.700 15.500 6.920 C 15.500 2.465,15.495 2.122,15.429 1.883 C 15.299 1.413,15.130 1.128,14.761 0.759 C 14.243 0.242,13.818 0.051,13.120 0.020 C 12.911 0.011,12.647 0.021,12.534 0.041 M17.600 10.584 C 17.267 10.728,17.001 11.135,17.001 11.500 C 17.001 11.894,17.280 12.290,17.663 12.439 C 17.771 12.482,17.828 12.517,17.788 12.518 C 17.674 12.521,17.427 12.663,17.284 12.807 C 17.003 13.092,17.022 12.884,17.000 15.980 C 16.980 18.755,16.979 18.781,16.894 18.940 C 16.703 19.293,16.385 19.488,16.000 19.488 C 15.615 19.488,15.297 19.293,15.106 18.940 C 15.021 18.781,15.020 18.755,15.000 15.980 C 14.978 12.884,14.997 13.092,14.716 12.807 C 14.507 12.595,14.299 12.508,14.000 12.508 C 13.701 12.508,13.493 12.595,13.284 12.807 C 13.003 13.092,13.022 12.884,13.000 15.980 C 12.980 18.755,12.979 18.781,12.894 18.940 C 12.703 19.293,12.385 19.488,12.000 19.488 C 11.615 19.488,11.297 19.293,11.106 18.940 C 11.021 18.781,11.020 18.755,11.000 16.000 C 10.980 13.245,10.979 13.219,10.894 13.060 C 10.782 12.853,10.579 12.660,10.391 12.582 C 10.188 12.497,9.780 12.503,9.580 12.595 C 9.368 12.691,9.142 12.948,9.055 13.191 L 8.985 13.388 8.703 13.259 C 8.185 13.023,8.155 13.020,6.100 13.020 C 4.249 13.020,4.218 13.021,4.060 13.106 C 3.704 13.299,3.509 13.619,3.508 14.012 C 3.507 14.229,3.539 14.310,3.992 15.232 L 4.477 16.220 4.495 17.340 C 4.515 18.559,4.541 18.743,4.759 19.224 C 5.278 20.369,6.414 21.060,7.658 20.987 C 8.308 20.949,8.784 20.782,9.279 20.418 L 9.526 20.235 9.768 20.499 C 10.378 21.165,11.107 21.487,12.000 21.487 C 12.680 21.487,13.208 21.321,13.744 20.939 L 14.000 20.756 14.256 20.939 C 14.792 21.321,15.320 21.487,16.000 21.487 C 16.482 21.487,16.840 21.415,17.223 21.242 C 18.112 20.838,18.827 19.933,18.947 19.057 C 18.960 18.959,18.984 18.870,18.999 18.861 C 19.014 18.851,19.115 18.873,19.223 18.908 C 19.363 18.954,19.583 18.973,19.980 18.976 C 20.462 18.979,20.582 18.967,20.840 18.886 C 21.817 18.581,22.560 17.844,22.884 16.860 C 22.974 16.589,22.977 16.526,22.991 14.906 C 23.007 13.094,22.988 12.864,22.783 12.359 C 22.430 11.490,21.576 10.768,20.677 10.579 C 20.264 10.492,17.803 10.496,17.600 10.584 M20.391 12.582 C 20.579 12.660,20.782 12.853,20.894 13.060 C 20.977 13.214,20.981 13.274,20.993 14.620 C 21.002 15.549,20.991 16.089,20.961 16.224 C 20.905 16.485,20.723 16.731,20.486 16.871 C 20.328 16.964,20.255 16.980,20.000 16.980 C 19.746 16.980,19.672 16.963,19.516 16.872 C 19.327 16.761,19.158 16.571,19.070 16.373 C 19.035 16.292,19.015 15.820,19.000 14.720 C 18.978 13.025,18.986 13.081,18.716 12.807 C 18.644 12.734,18.521 12.640,18.442 12.599 L 18.300 12.524 19.271 12.522 C 20.061 12.520,20.270 12.532,20.391 12.582 M7.944 15.108 C 8.134 15.210,8.347 15.438,8.425 15.626 C 8.468 15.728,8.480 16.036,8.480 17.000 C 8.480 18.364,8.477 18.384,8.235 18.659 C 7.862 19.084,7.223 19.106,6.807 18.708 C 6.539 18.451,6.542 18.469,6.520 17.059 L 6.500 15.779 6.310 15.386 L 6.121 14.994 6.950 15.007 C 7.714 15.019,7.793 15.027,7.944 15.108 " stroke="none" fill-rule="evenodd" fill="black"></path></svg>