<svg viewBox="0 0 24 24" xmlns="http://www.w3.org/2000/svg" fill="none" stroke="#000000" stroke-width="2" stroke-linecap="round" stroke-linejoin="round"><path d="M15.499 1.040 C 14.363 1.246,13.461 2.048,13.114 3.160 L 13.020 3.460 13.020 6.380 L 13.020 9.300 13.131 9.489 C 13.256 9.702,13.450 9.866,13.665 9.939 L 13.811 9.989 13.575 10.018 C 13.284 10.053,12.799 10.211,12.560 10.349 C 11.838 10.764,11.270 11.492,11.095 12.226 C 11.058 12.377,11.015 12.536,10.997 12.580 C 10.971 12.646,10.965 12.638,10.963 12.534 C 10.959 12.347,10.810 11.894,10.656 11.600 C 10.387 11.087,9.876 10.590,9.332 10.314 L 9.003 10.147 8.991 7.284 L 8.979 4.420 8.885 4.140 C 8.558 3.158,7.811 2.415,6.861 2.125 C 6.588 2.042,6.458 2.027,6.000 2.027 C 5.542 2.027,5.412 2.042,5.139 2.125 C 4.178 2.418,3.420 3.180,3.114 4.160 L 3.020 4.460 3.020 12.883 L 3.020 21.306 3.141 21.503 C 3.543 22.156,4.457 22.156,4.859 21.503 L 4.980 21.306 5.000 17.023 C 5.022 12.224,4.997 12.598,5.321 12.283 C 5.559 12.053,5.769 12.000,6.447 12.000 L 7.000 12.000 7.002 14.590 C 7.003 16.649,7.014 17.211,7.057 17.330 C 7.136 17.551,7.298 17.744,7.511 17.869 C 7.672 17.964,7.744 17.980,8.000 17.980 C 8.256 17.980,8.328 17.964,8.489 17.869 C 8.702 17.744,8.864 17.551,8.943 17.330 C 8.989 17.201,8.997 17.458,9.000 19.180 C 9.003 20.742,9.015 21.213,9.057 21.330 C 9.136 21.551,9.298 21.744,9.511 21.869 C 9.672 21.964,9.744 21.980,10.000 21.980 C 10.257 21.980,10.327 21.964,10.492 21.867 C 10.700 21.745,10.913 21.485,10.948 21.310 C 10.976 21.169,11.024 21.169,11.052 21.310 C 11.086 21.481,11.299 21.744,11.496 21.860 C 11.971 22.138,12.584 21.973,12.867 21.492 L 12.980 21.300 13.000 17.020 L 13.020 12.740 13.106 12.579 C 13.301 12.216,13.599 12.031,13.999 12.026 C 14.392 12.021,14.696 12.209,14.894 12.579 C 14.978 12.737,14.980 12.783,15.000 15.020 C 15.020 17.261,15.021 17.303,15.106 17.460 C 15.518 18.223,16.630 18.158,16.937 17.354 C 16.997 17.196,17.002 16.945,16.990 14.800 C 16.978 12.534,16.973 12.407,16.895 12.154 L 16.813 11.889 16.977 11.840 C 17.241 11.762,17.643 11.534,17.891 11.321 C 18.391 10.893,18.702 10.430,18.886 9.840 L 18.980 9.540 18.980 6.500 L 18.980 3.460 18.886 3.160 C 18.580 2.178,17.810 1.407,16.861 1.129 C 16.500 1.023,15.832 0.980,15.499 1.040 M16.310 3.061 C 16.589 3.144,16.856 3.411,16.939 3.690 C 17.025 3.979,17.031 9.006,16.945 9.290 C 16.872 9.533,16.707 9.740,16.484 9.872 L 16.300 9.980 15.240 9.990 C 14.303 9.998,14.197 9.993,14.330 9.944 C 14.553 9.863,14.744 9.701,14.869 9.489 L 14.980 9.300 15.000 6.520 C 15.022 3.404,15.004 3.591,15.322 3.283 C 15.589 3.024,15.928 2.947,16.310 3.061 M6.310 4.061 C 6.452 4.103,6.571 4.178,6.697 4.303 C 7.007 4.614,7.000 4.539,7.000 7.443 L 7.000 9.991 6.230 10.011 C 5.699 10.025,5.392 10.052,5.240 10.095 C 5.119 10.130,5.016 10.159,5.010 10.160 C 5.005 10.160,5.000 8.975,5.000 7.527 C 5.000 4.529,4.992 4.614,5.304 4.303 C 5.583 4.024,5.916 3.944,6.310 4.061 " stroke="none" fill-rule="evenodd" fill="black"></path></svg>