<svg viewBox="0 0 24 24" xmlns="http://www.w3.org/2000/svg" fill="none" stroke="#000000" stroke-width="2" stroke-linecap="round" stroke-linejoin="round"><path d="M7.477 1.073 C 6.806 1.249,6.238 1.823,6.060 2.508 C 6.009 2.701,6.000 3.221,6.000 5.865 L 6.000 8.993 4.730 9.009 C 3.518 9.025,3.445 9.030,3.139 9.124 C 2.176 9.420,1.420 10.180,1.114 11.160 L 1.020 11.460 1.020 15.000 L 1.020 18.540 1.114 18.840 C 1.422 19.827,2.173 20.578,3.160 20.886 L 3.460 20.980 11.000 20.980 L 18.540 20.980 18.840 20.886 C 19.827 20.578,20.578 19.827,20.886 18.840 L 20.980 18.540 20.980 15.000 L 20.980 11.460 20.886 11.160 C 20.705 10.578,20.391 10.107,19.911 9.695 C 19.473 9.320,18.893 9.078,18.286 9.018 L 18.000 8.990 17.999 5.885 C 17.999 2.526,17.998 2.510,17.781 2.083 C 17.646 1.816,17.297 1.449,17.017 1.281 C 15.894 0.605,14.393 1.227,14.060 2.508 C 14.009 2.701,14.000 3.222,14.000 5.868 L 14.000 9.000 12.000 9.000 L 10.000 9.000 9.999 5.890 C 9.999 2.526,9.998 2.510,9.781 2.083 C 9.646 1.816,9.297 1.449,9.017 1.281 C 8.734 1.110,8.345 1.005,8.000 1.005 C 7.857 1.005,7.622 1.036,7.477 1.073 M18.310 11.061 C 18.589 11.144,18.856 11.411,18.939 11.690 C 19.025 11.980,19.031 18.004,18.945 18.290 C 18.872 18.533,18.707 18.740,18.484 18.872 L 18.300 18.980 11.000 18.980 L 3.700 18.980 3.516 18.872 C 3.303 18.747,3.141 18.550,3.058 18.316 C 2.969 18.063,2.971 11.991,3.061 11.690 C 3.140 11.421,3.412 11.143,3.673 11.063 C 3.964 10.974,18.009 10.971,18.310 11.061 " stroke="none" fill-rule="evenodd" fill="black"></path></svg>