<svg viewBox="0 0 24 24" xmlns="http://www.w3.org/2000/svg" fill="none" stroke="#000000" stroke-width="2" stroke-linecap="round" stroke-linejoin="round"><path d="M11.507 1.040 C 10.054 1.220,8.839 2.338,8.306 3.986 C 8.007 4.912,8.020 4.649,8.020 9.725 L 8.020 14.270 8.200 14.625 C 8.402 15.023,8.963 15.885,9.278 16.280 C 9.777 16.907,10.409 17.465,10.906 17.717 C 11.405 17.969,11.633 18.000,13.000 18.000 C 14.367 18.000,14.595 17.969,15.094 17.717 C 15.968 17.274,17.015 16.084,17.785 14.660 L 17.980 14.300 17.980 9.740 L 17.980 5.180 17.889 4.731 C 17.568 3.146,16.760 1.958,15.623 1.398 C 14.914 1.048,14.796 1.030,13.180 1.017 C 12.410 1.011,11.657 1.022,11.507 1.040 M14.620 3.117 C 15.129 3.318,15.633 4.000,15.837 4.760 C 15.990 5.334,16.000 5.627,16.000 9.749 L 16.000 13.760 15.778 14.130 C 15.318 14.898,14.709 15.617,14.302 15.875 L 14.104 16.000 13.000 16.000 L 11.896 16.000 11.698 15.875 C 11.297 15.621,10.759 14.991,10.254 14.184 L 10.000 13.780 10.000 9.759 C 10.000 5.626,10.010 5.334,10.163 4.760 C 10.335 4.118,10.768 3.459,11.175 3.221 C 11.519 3.019,11.674 3.002,13.080 3.012 C 14.344 3.021,14.387 3.024,14.620 3.117 " stroke="none" fill-rule="evenodd" fill="black"></path></svg>