<svg viewBox="0 0 24 24" xmlns="http://www.w3.org/2000/svg" fill="none" stroke="#000000" stroke-width="2" stroke-linecap="round" stroke-linejoin="round"><path d="M9.499 10.043 C 8.383 10.230,7.461 11.048,7.114 12.160 C 7.022 12.453,7.020 12.496,7.020 14.020 L 7.020 15.580 7.144 15.936 L 7.269 16.292 7.155 16.476 C 7.073 16.607,7.030 16.747,7.002 16.962 C 6.981 17.128,6.945 17.314,6.922 17.375 C 6.851 17.561,6.677 17.758,6.484 17.872 L 6.300 17.980 5.000 17.980 L 3.700 17.980 3.516 17.872 C 3.415 17.813,3.284 17.700,3.225 17.623 C 3.014 17.347,3.000 17.245,3.000 16.022 C 3.000 14.695,3.019 14.587,3.303 14.303 C 3.561 14.045,3.743 14.000,4.537 13.998 C 5.230 13.996,5.378 13.967,5.619 13.783 C 5.696 13.725,5.808 13.592,5.869 13.489 C 5.964 13.328,5.980 13.256,5.980 13.000 C 5.980 12.745,5.964 12.672,5.871 12.514 C 5.731 12.276,5.485 12.096,5.221 12.037 C 5.084 12.006,4.750 11.997,4.237 12.010 C 3.566 12.027,3.416 12.042,3.139 12.126 C 2.181 12.415,1.420 13.179,1.114 14.160 C 1.022 14.453,1.020 14.497,1.020 16.000 C 1.020 17.503,1.022 17.547,1.114 17.840 C 1.422 18.827,2.173 19.578,3.160 19.886 C 3.453 19.978,3.497 19.980,5.000 19.980 C 6.503 19.980,6.547 19.978,6.840 19.886 C 7.430 19.702,7.893 19.391,8.321 18.891 C 8.537 18.640,8.763 18.240,8.843 17.968 C 8.877 17.852,8.911 17.803,8.948 17.818 C 9.330 17.964,9.470 17.980,10.380 17.980 L 11.300 17.980 11.492 17.867 C 11.700 17.745,11.913 17.485,11.948 17.310 C 11.960 17.250,11.983 17.200,12.000 17.200 C 12.017 17.200,12.040 17.250,12.052 17.310 C 12.087 17.485,12.300 17.745,12.508 17.867 L 12.700 17.980 13.620 17.980 C 14.530 17.980,14.670 17.964,15.052 17.818 C 15.089 17.803,15.123 17.852,15.157 17.968 C 15.237 18.240,15.463 18.640,15.679 18.891 C 16.107 19.391,16.570 19.702,17.160 19.886 C 17.453 19.978,17.497 19.980,19.000 19.980 C 20.503 19.980,20.547 19.978,20.840 19.886 C 21.827 19.578,22.578 18.827,22.886 17.840 C 22.978 17.547,22.980 17.503,22.980 16.000 C 22.980 14.497,22.978 14.453,22.886 14.160 C 22.580 13.179,21.819 12.415,20.861 12.126 C 20.584 12.042,20.434 12.027,19.763 12.010 C 19.250 11.997,18.916 12.006,18.779 12.037 C 18.515 12.096,18.269 12.276,18.129 12.514 C 18.036 12.672,18.020 12.745,18.020 13.000 C 18.020 13.256,18.036 13.328,18.131 13.489 C 18.192 13.592,18.304 13.725,18.381 13.783 C 18.622 13.967,18.770 13.996,19.463 13.998 C 20.257 14.000,20.439 14.045,20.697 14.303 C 20.980 14.587,21.000 14.697,21.000 16.001 C 21.000 17.207,20.980 17.354,20.779 17.618 C 20.718 17.698,20.585 17.813,20.484 17.872 L 20.300 17.980 19.000 17.980 L 17.700 17.980 17.516 17.872 C 17.323 17.759,17.150 17.563,17.076 17.373 C 17.051 17.311,17.016 17.126,16.997 16.962 C 16.972 16.745,16.931 16.614,16.847 16.478 L 16.731 16.292 16.856 15.936 L 16.980 15.580 16.980 14.020 C 16.980 12.496,16.978 12.453,16.886 12.160 C 16.580 11.180,15.819 10.415,14.861 10.126 C 14.582 10.042,14.436 10.026,13.750 10.010 C 12.878 9.989,12.681 10.016,12.423 10.192 C 12.255 10.307,12.040 10.608,12.040 10.728 C 12.040 10.768,12.022 10.800,12.000 10.800 C 11.978 10.800,11.960 10.770,11.960 10.734 C 11.960 10.621,11.771 10.338,11.618 10.221 C 11.372 10.034,11.180 10.000,10.404 10.005 C 10.017 10.007,9.609 10.025,9.499 10.043 M12.052 11.310 C 12.087 11.485,12.300 11.745,12.508 11.867 C 12.696 11.978,12.715 11.980,13.480 12.002 C 14.364 12.027,14.453 12.050,14.717 12.321 C 14.978 12.591,15.000 12.720,15.000 14.001 C 15.000 15.207,14.980 15.354,14.779 15.618 C 14.718 15.698,14.585 15.813,14.484 15.872 C 14.306 15.977,14.276 15.981,13.520 16.003 C 12.706 16.027,12.613 16.045,12.375 16.226 C 12.227 16.339,12.040 16.623,12.040 16.734 C 12.040 16.770,12.022 16.800,12.000 16.800 C 11.978 16.800,11.960 16.770,11.960 16.734 C 11.960 16.623,11.773 16.339,11.625 16.226 C 11.387 16.045,11.294 16.027,10.480 16.003 C 9.724 15.981,9.694 15.977,9.516 15.872 C 9.415 15.813,9.284 15.700,9.225 15.623 C 9.014 15.347,9.000 15.245,9.000 14.022 C 9.000 12.718,9.021 12.592,9.283 12.321 C 9.547 12.050,9.636 12.027,10.520 12.002 C 11.285 11.980,11.304 11.978,11.492 11.867 C 11.700 11.745,11.913 11.485,11.948 11.310 C 11.960 11.250,11.983 11.200,12.000 11.200 C 12.017 11.200,12.040 11.250,12.052 11.310 " stroke="none" fill-rule="evenodd" fill="black"></path></svg>