<svg viewBox="0 0 24 24" xmlns="http://www.w3.org/2000/svg" fill="none" stroke="#000000" stroke-width="2" stroke-linecap="round" stroke-linejoin="round"><path d="M7.499 1.040 C 6.374 1.244,5.486 2.026,5.115 3.140 L 5.021 3.420 5.009 6.205 L 4.996 8.990 4.712 9.018 C 3.496 9.138,2.485 9.971,2.114 11.160 L 2.020 11.460 2.020 15.000 L 2.020 18.540 2.114 18.840 C 2.422 19.827,3.173 20.578,4.160 20.886 L 4.460 20.980 11.000 20.980 L 17.540 20.980 17.840 20.886 C 18.827 20.578,19.578 19.827,19.886 18.840 L 19.980 18.540 19.980 15.000 L 19.980 11.460 19.886 11.161 C 19.725 10.649,19.490 10.257,19.129 9.895 L 19.003 9.769 18.991 6.595 L 18.979 3.420 18.886 3.140 C 18.557 2.157,17.811 1.415,16.861 1.125 C 16.588 1.042,16.458 1.027,16.000 1.027 C 15.542 1.027,15.412 1.042,15.139 1.125 C 14.189 1.415,13.442 2.158,13.115 3.140 L 13.021 3.420 13.009 6.210 L 12.996 9.000 12.000 9.000 L 11.004 9.000 10.991 6.210 L 10.979 3.420 10.885 3.140 C 10.557 2.156,9.800 1.403,8.861 1.129 C 8.500 1.023,7.832 0.980,7.499 1.040 M8.310 3.061 C 8.452 3.103,8.571 3.178,8.697 3.303 C 9.007 3.614,9.000 3.538,9.000 6.447 L 9.000 9.000 8.000 9.000 L 7.000 9.000 7.000 6.447 C 7.000 3.538,6.993 3.614,7.304 3.303 C 7.583 3.024,7.916 2.944,8.310 3.061 M16.310 3.061 C 16.452 3.103,16.571 3.178,16.697 3.303 C 17.007 3.614,17.000 3.538,17.000 6.447 L 17.000 9.000 16.000 9.000 L 15.000 9.000 15.000 6.447 C 15.000 3.538,14.993 3.614,15.304 3.303 C 15.583 3.024,15.916 2.944,16.310 3.061 M17.310 11.061 C 17.589 11.144,17.856 11.411,17.939 11.690 C 18.025 11.980,18.031 18.004,17.945 18.290 C 17.872 18.533,17.707 18.740,17.484 18.872 L 17.300 18.980 11.000 18.980 L 4.700 18.980 4.516 18.872 C 4.303 18.747,4.141 18.550,4.058 18.316 C 3.969 18.063,3.971 11.991,4.061 11.690 C 4.140 11.421,4.412 11.143,4.673 11.063 C 4.963 10.974,17.010 10.972,17.310 11.061 " stroke="none" fill-rule="evenodd" fill="black"></path></svg>