<svg viewBox="0 0 24 24" xmlns="http://www.w3.org/2000/svg" fill="none" stroke="#000000" stroke-width="2" stroke-linecap="round" stroke-linejoin="round"><path d="M10.477 3.073 C 9.806 3.249,9.238 3.823,9.060 4.508 C 9.027 4.634,9.000 4.813,9.000 4.907 C 9.000 5.072,8.996 5.077,8.850 5.100 C 6.184 5.527,3.909 7.599,3.236 10.214 C 3.054 10.918,3.034 11.135,3.012 12.582 L 2.992 13.983 2.686 14.032 C 2.508 14.060,2.271 14.133,2.120 14.207 C 1.802 14.362,1.375 14.774,1.225 15.070 C 1.018 15.479,1.000 15.632,1.000 17.000 C 1.000 18.368,1.018 18.521,1.225 18.930 C 1.361 19.199,1.801 19.639,2.070 19.775 C 2.543 20.015,1.888 20.000,12.000 20.000 C 22.112 20.000,21.457 20.015,21.930 19.775 C 22.196 19.640,22.638 19.200,22.771 18.937 C 22.979 18.527,23.000 18.352,22.999 17.014 C 22.999 15.682,22.974 15.463,22.781 15.083 C 22.646 14.816,22.297 14.449,22.017 14.281 C 21.568 14.011,21.508 14.005,19.134 14.002 L 17.008 14.000 16.988 12.590 C 16.973 11.597,16.949 11.085,16.908 10.860 C 16.651 9.472,16.091 8.322,15.163 7.280 L 15.002 7.100 15.001 5.940 C 14.999 4.688,14.972 4.458,14.781 4.083 C 14.551 3.628,14.022 3.203,13.523 3.073 C 13.134 2.972,10.866 2.972,10.477 3.073 M13.000 5.341 C 13.000 5.676,12.998 5.682,12.916 5.638 C 12.606 5.472,11.647 5.180,11.150 5.100 C 11.068 5.087,11.000 5.059,11.000 5.038 C 11.000 5.015,11.392 5.000,12.000 5.000 L 13.000 5.000 13.000 5.341 M9.008 8.713 L 9.020 10.306 9.141 10.503 C 9.543 11.156,10.457 11.156,10.859 10.503 L 10.980 10.306 10.992 8.709 L 11.003 7.112 11.152 7.139 C 11.572 7.216,12.327 7.546,12.770 7.847 L 13.000 8.003 13.002 9.091 C 13.004 10.262,13.017 10.358,13.217 10.619 C 13.443 10.916,13.896 11.064,14.268 10.963 C 14.361 10.938,14.518 10.856,14.617 10.780 C 14.716 10.705,14.804 10.656,14.813 10.671 C 14.851 10.738,14.923 11.125,14.960 11.460 C 14.981 11.658,14.999 12.310,15.000 12.910 L 15.000 14.000 10.000 14.000 L 5.000 14.000 5.000 12.918 C 5.000 11.763,5.039 11.240,5.162 10.760 C 5.514 9.381,6.480 8.183,7.760 7.541 C 8.165 7.338,8.724 7.139,8.928 7.125 C 8.991 7.120,8.997 7.240,9.008 8.713 M21.000 17.000 L 21.000 18.000 12.000 18.000 L 3.000 18.000 3.000 17.000 L 3.000 16.000 12.000 16.000 L 21.000 16.000 21.000 17.000 " stroke="none" fill-rule="evenodd" fill="black"></path></svg>