<svg viewBox="0 0 24 24" xmlns="http://www.w3.org/2000/svg" fill="none" stroke="#000000" stroke-width="2" stroke-linecap="round" stroke-linejoin="round"><path d="M11.540 1.023 C 10.715 1.102,10.250 1.200,9.620 1.427 C 7.478 2.198,5.797 4.033,5.236 6.214 C 5.016 7.068,5.027 6.714,5.012 13.090 L 4.997 19.000 3.945 19.000 C 2.797 19.000,2.644 19.022,2.382 19.221 C 2.302 19.282,2.187 19.415,2.128 19.516 C 2.037 19.672,2.020 19.746,2.020 20.000 C 2.020 20.256,2.036 20.328,2.131 20.489 C 2.256 20.702,2.449 20.864,2.670 20.943 C 2.893 21.023,21.107 21.023,21.330 20.943 C 21.551 20.864,21.744 20.702,21.869 20.489 C 21.964 20.328,21.980 20.256,21.980 20.000 C 21.980 19.746,21.963 19.672,21.872 19.516 C 21.813 19.415,21.698 19.282,21.618 19.221 C 21.356 19.022,21.203 19.000,20.055 19.000 L 19.003 19.000 18.988 13.090 C 18.973 6.781,18.981 7.065,18.783 6.280 C 18.103 3.593,15.818 1.509,13.102 1.098 C 12.726 1.041,11.813 0.997,11.540 1.023 M12.552 3.043 C 12.765 3.066,13.075 3.120,13.240 3.162 C 14.985 3.607,16.393 5.015,16.838 6.760 C 16.992 7.363,17.000 7.680,17.000 13.418 L 17.000 19.000 12.000 19.000 L 7.000 19.000 7.000 13.418 C 7.000 9.746,7.015 7.704,7.043 7.448 C 7.343 4.706,9.800 2.741,12.552 3.043 " stroke="none" fill-rule="evenodd" fill="black"></path></svg>