<svg viewBox="0 0 24 24" xmlns="http://www.w3.org/2000/svg" fill="none" stroke="#000000" stroke-width="2" stroke-linecap="round" stroke-linejoin="round"><path d="M6.842 2.041 C 4.203 2.318,1.996 4.160,1.261 6.700 C 1.069 7.362,1.022 7.722,1.024 8.520 C 1.025 9.131,1.041 9.333,1.115 9.680 C 1.398 11.005,1.944 12.059,3.021 13.361 C 3.442 13.871,11.295 21.739,11.508 21.866 C 11.968 22.138,12.587 21.968,12.867 21.492 C 12.964 21.327,12.980 21.258,12.979 21.000 C 12.979 20.788,12.957 20.659,12.905 20.560 C 12.865 20.483,11.000 18.584,8.762 16.340 C 6.525 14.096,4.572 12.107,4.424 11.920 C 3.325 10.533,2.899 9.351,3.033 8.060 C 3.169 6.758,3.795 5.664,4.857 4.872 C 5.734 4.217,6.836 3.925,8.018 4.034 C 8.768 4.103,9.346 4.268,9.825 4.552 C 10.016 4.665,10.020 4.671,10.007 4.841 C 9.975 5.247,9.999 5.295,10.879 6.617 L 11.712 7.869 10.955 8.624 C 10.147 9.431,10.038 9.583,10.008 9.943 C 9.993 10.126,10.054 10.339,10.540 11.798 C 11.141 13.602,11.187 13.696,11.531 13.874 C 12.206 14.221,13.000 13.741,13.000 12.986 C 13.000 12.891,12.830 12.315,12.576 11.550 L 12.152 10.272 13.010 9.406 C 13.748 8.661,13.877 8.512,13.934 8.343 C 14.015 8.101,14.018 7.900,13.943 7.689 C 13.912 7.601,13.616 7.123,13.285 6.627 L 12.683 5.725 12.971 5.456 C 13.507 4.957,14.126 4.536,14.615 4.337 C 15.257 4.075,16.184 3.954,16.943 4.033 C 19.813 4.333,21.668 7.181,20.757 9.889 C 20.452 10.794,19.821 11.707,18.666 12.911 C 18.218 13.378,18.118 13.504,18.060 13.680 C 17.829 14.374,18.380 15.063,19.106 14.988 C 19.417 14.956,19.607 14.827,20.097 14.316 C 21.779 12.560,22.536 11.300,22.886 9.671 C 23.002 9.134,23.014 7.977,22.910 7.420 C 22.456 4.984,20.820 3.094,18.500 2.325 C 17.498 1.993,16.303 1.921,15.124 2.123 C 14.107 2.297,13.167 2.729,12.250 3.446 L 12.000 3.641 11.750 3.446 C 10.827 2.724,9.895 2.297,8.856 2.119 C 8.309 2.026,7.343 1.988,6.842 2.041 " stroke="none" fill-rule="evenodd" fill="black"></path></svg>