<svg viewBox="0 0 24 24" xmlns="http://www.w3.org/2000/svg" fill="none" stroke="#000000" stroke-width="2" stroke-linecap="round" stroke-linejoin="round"><path d="M21.640 1.069 C 21.490 1.121,21.252 1.338,20.231 2.353 L 19.001 3.575 18.271 2.854 C 17.655 2.247,17.509 2.123,17.343 2.067 C 17.095 1.983,16.908 1.982,16.657 2.065 C 16.475 2.124,15.909 2.680,9.294 9.295 C 2.536 16.053,2.125 16.472,2.063 16.665 C 2.005 16.845,1.998 17.081,2.008 18.585 L 2.020 20.300 2.131 20.489 C 2.192 20.592,2.304 20.725,2.381 20.783 C 2.655 20.992,2.694 20.996,4.483 20.998 C 5.916 21.000,6.173 20.991,6.343 20.935 C 6.522 20.875,6.817 20.593,9.653 17.765 C 11.431 15.992,12.812 14.583,12.873 14.480 C 12.964 14.327,12.980 14.254,12.980 13.997 C 12.980 13.729,12.966 13.671,12.860 13.502 C 12.710 13.262,12.480 13.095,12.214 13.032 C 12.016 12.985,12.006 12.976,11.983 12.827 C 11.939 12.557,11.848 12.437,11.126 11.709 L 10.422 10.999 12.738 8.682 L 15.054 6.366 15.162 6.533 C 15.312 6.764,19.387 10.814,19.560 10.905 C 19.659 10.957,19.788 10.979,20.000 10.979 C 20.258 10.980,20.327 10.964,20.492 10.867 C 20.968 10.587,21.139 9.967,20.865 9.508 C 20.750 9.314,16.685 5.246,16.492 5.131 L 16.363 5.055 16.681 4.739 L 16.999 4.422 17.710 5.126 C 18.100 5.514,18.483 5.864,18.560 5.904 C 18.660 5.957,18.787 5.979,19.000 5.979 C 19.255 5.980,19.327 5.964,19.480 5.873 C 19.704 5.739,22.804 2.632,22.905 2.440 C 22.957 2.341,22.979 2.212,22.979 2.000 C 22.980 1.745,22.964 1.672,22.872 1.516 C 22.617 1.083,22.120 0.902,21.640 1.069 M9.738 13.155 C 10.135 13.548,10.503 13.883,10.555 13.899 C 10.643 13.926,10.430 14.150,8.116 16.464 L 5.580 19.000 4.790 19.000 L 4.000 19.000 4.000 18.210 L 4.000 17.420 6.490 14.930 C 7.859 13.561,8.988 12.440,8.998 12.440 C 9.007 12.440,9.340 12.762,9.738 13.155 " stroke="none" fill-rule="evenodd" fill="black"></path></svg>