<svg viewBox="0 0 24 24" xmlns="http://www.w3.org/2000/svg" fill="none" stroke="#000000" stroke-width="2" stroke-linecap="round" stroke-linejoin="round"><path d="M12.118 1.403 C 11.706 1.447,11.218 1.633,10.827 1.897 C 10.647 2.019,8.637 3.518,6.361 5.229 C 2.475 8.149,2.215 8.352,2.121 8.539 L 2.020 8.738 2.020 14.139 L 2.020 19.540 2.114 19.840 C 2.419 20.816,3.153 21.557,4.140 21.885 C 4.418 21.978,4.435 21.978,6.768 21.991 C 8.321 22.000,9.169 21.990,9.272 21.962 C 9.498 21.901,9.738 21.711,9.867 21.492 C 9.964 21.327,9.980 21.257,9.980 21.000 C 9.980 20.746,9.963 20.672,9.872 20.516 C 9.761 20.328,9.572 20.158,9.373 20.070 C 9.289 20.033,8.681 20.015,6.980 20.000 L 4.700 19.980 4.516 19.872 C 4.415 19.813,4.284 19.700,4.225 19.623 C 3.989 19.313,4.000 19.580,4.000 14.325 L 4.000 9.500 8.010 6.496 C 10.216 4.844,12.080 3.469,12.154 3.440 C 12.369 3.355,12.737 3.376,12.939 3.486 C 13.036 3.538,14.663 4.903,16.557 6.520 L 19.999 9.460 20.000 14.284 C 20.000 18.256,19.990 19.139,19.945 19.290 C 19.872 19.533,19.707 19.740,19.484 19.872 L 19.300 19.980 17.020 20.000 C 15.319 20.015,14.711 20.033,14.627 20.070 C 14.428 20.158,14.239 20.328,14.128 20.516 C 14.037 20.672,14.020 20.746,14.020 21.000 C 14.020 21.257,14.036 21.327,14.133 21.492 C 14.262 21.711,14.502 21.901,14.728 21.962 C 14.831 21.990,15.679 22.000,17.232 21.991 C 19.565 21.978,19.582 21.978,19.860 21.885 C 20.847 21.557,21.581 20.816,21.886 19.840 L 21.980 19.540 21.980 14.140 L 21.980 8.740 21.887 8.552 C 21.808 8.390,21.275 7.921,18.054 5.172 C 15.997 3.416,14.211 1.915,14.087 1.836 C 13.515 1.473,12.845 1.325,12.118 1.403 M11.324 9.403 C 9.961 9.490,8.430 9.915,7.186 10.551 C 6.788 10.755,6.640 10.916,6.539 11.257 C 6.382 11.783,6.743 12.353,7.311 12.474 C 7.565 12.529,7.758 12.483,8.280 12.242 C 10.728 11.115,13.272 11.115,15.720 12.242 C 16.242 12.483,16.435 12.529,16.689 12.474 C 17.257 12.353,17.618 11.783,17.461 11.257 C 17.360 10.916,17.212 10.755,16.814 10.551 C 15.851 10.058,14.648 9.673,13.480 9.484 C 13.234 9.444,12.009 9.354,11.880 9.366 C 11.847 9.369,11.597 9.386,11.324 9.403 M11.260 11.784 C 10.405 11.905,9.716 12.095,8.989 12.410 C 8.289 12.713,8.060 12.951,8.011 13.425 C 7.953 13.984,8.430 14.497,9.000 14.490 C 9.172 14.487,9.324 14.442,9.695 14.282 C 11.301 13.589,12.699 13.589,14.305 14.282 C 14.676 14.442,14.828 14.487,15.000 14.490 C 15.570 14.497,16.047 13.984,15.989 13.425 C 15.940 12.951,15.710 12.713,15.011 12.410 C 13.963 11.958,13.255 11.801,12.160 11.781 C 11.731 11.773,11.326 11.774,11.260 11.784 M11.491 14.160 C 10.948 14.236,10.262 14.471,9.931 14.693 C 9.673 14.866,9.500 15.200,9.504 15.516 C 9.512 16.054,9.959 16.491,10.500 16.490 C 10.635 16.490,10.821 16.443,11.073 16.344 C 11.512 16.171,11.892 16.114,12.277 16.162 C 12.430 16.181,12.722 16.263,12.927 16.344 C 13.471 16.557,13.783 16.535,14.148 16.256 C 14.297 16.143,14.455 15.858,14.497 15.628 C 14.532 15.432,14.439 15.106,14.287 14.896 C 14.107 14.648,13.473 14.353,12.824 14.217 C 12.472 14.143,11.813 14.114,11.491 14.160 " stroke="none" fill-rule="evenodd" fill="black"></path></svg>