<svg viewBox="0 0 24 24" xmlns="http://www.w3.org/2000/svg" fill="none" stroke="#000000" stroke-width="2" stroke-linecap="round" stroke-linejoin="round"><path d="M12.118 1.403 C 11.706 1.447,11.218 1.633,10.827 1.897 C 10.647 2.019,8.637 3.518,6.361 5.229 C 2.475 8.149,2.215 8.352,2.121 8.539 L 2.020 8.738 2.020 14.139 L 2.020 19.540 2.114 19.840 C 2.419 20.816,3.153 21.557,4.140 21.885 C 4.418 21.978,4.433 21.978,6.799 21.991 C 8.947 22.003,9.195 21.998,9.353 21.937 C 9.595 21.845,9.795 21.657,9.906 21.420 L 9.999 21.220 10.000 18.057 C 10.000 14.469,9.988 14.618,10.303 14.303 C 10.587 14.019,10.694 14.000,12.037 13.998 C 13.266 13.996,13.356 13.984,13.619 13.783 C 13.696 13.725,13.808 13.592,13.869 13.489 C 13.964 13.328,13.980 13.256,13.980 13.000 C 13.980 12.745,13.964 12.672,13.871 12.514 C 13.731 12.277,13.485 12.096,13.224 12.038 C 13.086 12.007,12.606 11.998,11.740 12.009 C 10.518 12.025,10.446 12.030,10.139 12.124 C 9.187 12.417,8.442 13.159,8.115 14.140 L 8.021 14.420 8.009 17.212 L 7.996 20.003 6.348 19.992 L 4.700 19.980 4.516 19.872 C 4.415 19.813,4.284 19.700,4.225 19.623 C 3.989 19.313,4.000 19.580,4.000 14.325 L 4.000 9.500 8.010 6.496 C 10.216 4.844,12.080 3.469,12.154 3.440 C 12.369 3.355,12.737 3.376,12.939 3.486 C 13.036 3.538,14.663 4.903,16.557 6.520 L 19.999 9.460 20.000 14.284 C 20.000 18.256,19.990 19.139,19.945 19.290 C 19.872 19.533,19.707 19.740,19.484 19.872 L 19.300 19.980 17.020 20.000 C 15.319 20.015,14.711 20.033,14.627 20.070 C 14.428 20.158,14.239 20.328,14.128 20.516 C 14.037 20.672,14.020 20.746,14.020 21.000 C 14.020 21.257,14.036 21.327,14.133 21.492 C 14.262 21.711,14.502 21.901,14.728 21.962 C 14.831 21.990,15.679 22.000,17.232 21.991 C 19.565 21.978,19.582 21.978,19.860 21.885 C 20.847 21.557,21.581 20.816,21.886 19.840 L 21.980 19.540 21.980 14.140 L 21.980 8.740 21.887 8.552 C 21.808 8.390,21.275 7.921,18.054 5.172 C 15.997 3.416,14.211 1.915,14.087 1.836 C 13.515 1.473,12.845 1.325,12.118 1.403 " stroke="none" fill-rule="evenodd" fill="black"></path></svg>