<svg viewBox="0 0 24 24" xmlns="http://www.w3.org/2000/svg" fill="none" stroke="#000000" stroke-width="2" stroke-linecap="round" stroke-linejoin="round"><path d="M11.695 1.057 C 11.466 1.129,11.256 1.299,11.128 1.516 C 11.025 1.692,11.019 1.728,11.007 2.350 L 10.993 3.000 9.443 3.000 C 7.759 3.000,7.658 3.011,7.382 3.221 C 7.050 3.475,6.917 3.949,7.070 4.340 C 7.113 4.450,7.737 5.520,8.456 6.717 C 9.176 7.914,9.768 8.907,9.772 8.924 C 9.777 8.941,9.179 9.757,8.445 10.737 C 7.711 11.718,7.086 12.587,7.057 12.670 C 6.978 12.892,6.978 22.108,7.057 22.330 C 7.136 22.551,7.298 22.744,7.511 22.869 L 7.700 22.980 12.500 22.980 L 17.300 22.980 17.489 22.869 C 17.702 22.744,17.864 22.551,17.943 22.330 C 17.986 22.208,17.997 21.307,17.998 17.515 C 18.000 13.439,17.992 12.828,17.939 12.678 C 17.903 12.574,17.345 11.793,16.549 10.730 C 15.818 9.754,15.226 8.935,15.232 8.910 C 15.239 8.885,15.857 7.845,16.605 6.599 C 17.852 4.519,17.966 4.314,17.987 4.111 C 18.020 3.796,17.918 3.514,17.692 3.294 C 17.389 3.000,17.391 3.000,15.056 3.000 L 13.007 3.000 12.993 2.350 C 12.981 1.728,12.975 1.692,12.872 1.516 C 12.628 1.101,12.150 0.915,11.695 1.057 M15.200 5.024 C 15.200 5.037,14.731 5.828,14.159 6.782 C 13.586 7.736,13.091 8.592,13.059 8.683 C 12.989 8.880,12.984 9.082,13.043 9.293 C 13.070 9.392,13.597 10.128,14.543 11.390 L 16.000 13.334 16.000 17.167 L 16.000 21.000 12.500 21.000 L 9.000 21.000 9.000 17.167 L 9.000 13.333 10.002 11.997 C 10.553 11.262,11.021 10.644,11.041 10.623 C 11.061 10.603,11.059 10.652,11.037 10.732 C 11.012 10.823,11.001 11.529,11.008 12.592 L 11.020 14.306 11.141 14.503 C 11.543 15.156,12.457 15.156,12.859 14.503 L 12.980 14.306 12.980 12.503 L 12.980 10.700 12.871 10.514 C 12.647 10.133,12.208 9.941,11.782 10.036 C 11.663 10.063,11.520 10.120,11.466 10.162 C 11.412 10.205,11.357 10.240,11.344 10.240 C 11.331 10.240,11.455 10.060,11.618 9.839 C 12.001 9.325,12.076 9.063,11.945 8.695 C 11.914 8.610,11.411 7.744,10.827 6.770 L 9.764 5.000 12.482 5.000 C 13.977 5.000,15.200 5.011,15.200 5.024 " stroke="none" fill-rule="evenodd" fill="black"></path></svg>