<svg viewBox="0 0 24 24" xmlns="http://www.w3.org/2000/svg" fill="none" stroke="#000000" stroke-width="2" stroke-linecap="round" stroke-linejoin="round"><path d="M3.386 0.230 C 3.545 0.591,3.896 1.165,4.217 1.590 C 4.813 2.380,5.457 3.020,7.000 4.361 C 7.877 5.123,8.133 5.384,8.450 5.842 C 8.676 6.167,8.734 6.281,8.835 6.602 C 8.952 6.972,9.000 7.402,9.000 8.074 C 9.000 8.767,8.949 9.242,8.836 9.598 C 8.734 9.920,8.676 10.034,8.450 10.358 C 8.133 10.816,7.877 11.077,7.000 11.839 C 5.517 13.128,4.869 13.766,4.303 14.498 C 3.458 15.589,2.989 16.689,2.837 17.936 C 2.781 18.398,2.809 19.075,2.899 19.407 C 3.185 20.461,3.942 21.331,4.922 21.732 C 5.569 21.997,5.086 21.980,12.060 21.980 L 18.420 21.980 18.780 21.868 C 19.684 21.586,20.439 20.954,20.854 20.132 C 21.518 18.817,21.183 16.655,20.057 14.994 C 19.416 14.049,18.741 13.351,17.006 11.845 C 16.124 11.078,15.868 10.816,15.550 10.358 C 15.324 10.033,15.266 9.919,15.165 9.598 C 15.047 9.225,15.000 8.797,15.000 8.100 C 15.000 7.403,15.047 6.975,15.165 6.602 C 15.266 6.281,15.324 6.167,15.550 5.842 C 15.868 5.384,16.124 5.122,17.006 4.355 C 19.190 2.459,20.020 1.505,20.631 0.190 L 20.719 -0.000 19.589 0.003 L 18.460 0.006 18.191 0.373 C 17.696 1.046,17.151 1.584,15.560 2.967 C 13.859 4.445,13.231 5.446,13.044 6.980 C 12.988 7.444,12.988 8.756,13.044 9.220 C 13.135 9.966,13.376 10.679,13.724 11.233 C 14.165 11.934,14.659 12.456,15.880 13.513 C 17.523 14.935,18.266 15.767,18.724 16.700 C 19.215 17.700,19.333 18.759,19.014 19.307 C 18.904 19.495,18.626 19.765,18.455 19.850 C 18.148 20.003,18.157 20.003,11.920 19.991 L 5.860 19.980 5.670 19.892 C 5.406 19.770,5.076 19.445,4.937 19.171 C 4.828 18.957,4.820 18.908,4.821 18.500 C 4.824 17.807,5.002 17.168,5.388 16.469 C 5.835 15.661,6.620 14.812,8.120 13.513 C 9.615 12.219,10.192 11.547,10.585 10.639 C 10.887 9.942,11.000 9.253,11.000 8.100 C 11.000 7.247,10.955 6.791,10.819 6.253 C 10.529 5.106,9.896 4.232,8.440 2.967 C 6.849 1.584,6.304 1.046,5.809 0.373 L 5.540 0.006 4.412 0.003 L 3.284 0.000 3.386 0.230 " stroke="none" fill-rule="evenodd" fill="black"></path></svg>