<svg viewBox="0 0 24 24" xmlns="http://www.w3.org/2000/svg" fill="none" stroke="#000000" stroke-width="2" stroke-linecap="round" stroke-linejoin="round"><path d="M11.260 2.025 C 9.069 2.207,6.960 3.042,5.280 4.392 C 4.790 4.785,2.264 7.288,2.134 7.508 C 1.862 7.969,2.032 8.588,2.508 8.867 C 2.673 8.964,2.742 8.980,3.000 8.979 C 3.213 8.979,3.341 8.957,3.440 8.905 C 3.517 8.864,4.192 8.224,4.940 7.483 C 5.688 6.741,6.390 6.062,6.500 5.973 C 6.837 5.701,7.261 5.412,7.649 5.188 C 10.120 3.764,13.110 3.621,15.489 4.814 L 15.980 5.060 15.991 6.314 L 16.001 7.568 15.756 7.346 C 15.395 7.019,15.055 6.928,14.684 7.058 C 14.450 7.141,14.253 7.303,14.128 7.516 C 14.036 7.672,14.020 7.745,14.021 8.000 C 14.021 8.213,14.043 8.341,14.095 8.440 C 14.136 8.517,14.666 9.081,15.274 9.694 C 16.491 10.920,16.596 11.000,17.000 10.999 C 17.388 10.998,17.496 10.920,18.504 9.915 L 19.428 8.993 19.579 9.446 C 19.788 10.074,19.913 10.713,19.963 11.420 C 19.986 11.750,20.014 12.096,20.025 12.189 C 20.052 12.420,20.257 12.711,20.497 12.859 C 20.671 12.966,20.729 12.980,20.997 12.980 C 21.257 12.980,21.327 12.964,21.492 12.867 C 21.714 12.737,21.901 12.498,21.965 12.264 C 22.022 12.058,21.985 11.143,21.898 10.560 C 21.635 8.815,20.949 7.223,19.846 5.800 C 19.529 5.391,18.689 4.540,18.296 4.230 C 18.042 4.029,18.008 3.987,17.983 3.833 C 17.895 3.282,17.336 2.912,16.778 3.037 L 16.557 3.086 16.088 2.878 C 15.232 2.497,14.376 2.249,13.400 2.102 C 12.990 2.039,11.659 1.992,11.260 2.025 M18.394 7.212 C 18.386 7.216,18.293 7.300,18.189 7.398 L 18.000 7.577 18.000 7.145 L 18.000 6.713 18.205 6.958 C 18.318 7.093,18.403 7.207,18.394 7.212 M2.695 11.057 C 2.466 11.129,2.256 11.299,2.128 11.516 C 2.023 11.694,2.020 11.718,2.022 12.300 C 2.029 13.940,2.548 15.706,3.470 17.220 C 3.991 18.076,4.950 19.171,5.706 19.774 C 5.962 19.979,5.994 20.020,6.017 20.176 C 6.075 20.558,6.447 20.926,6.835 20.984 C 6.938 21.000,7.117 20.992,7.240 20.966 C 7.460 20.921,7.465 20.922,7.901 21.116 C 8.754 21.497,9.656 21.761,10.600 21.907 C 11.241 22.007,12.751 22.006,13.400 21.907 C 14.833 21.687,16.169 21.231,17.308 20.574 C 18.009 20.171,18.429 19.867,19.080 19.295 C 19.674 18.774,21.816 16.608,21.905 16.440 C 21.957 16.341,21.979 16.213,21.979 16.000 C 21.980 15.745,21.964 15.672,21.872 15.516 C 21.618 15.084,21.136 14.905,20.657 15.066 C 20.483 15.125,20.294 15.297,19.040 16.538 C 17.680 17.884,17.255 18.258,16.640 18.647 C 15.755 19.206,14.695 19.625,13.640 19.834 C 11.853 20.187,10.131 19.972,8.510 19.192 L 8.000 18.947 8.000 17.688 L 8.000 16.428 8.212 16.629 C 8.524 16.924,8.646 16.978,9.000 16.979 C 9.258 16.980,9.327 16.964,9.492 16.867 C 9.714 16.737,9.901 16.498,9.965 16.264 C 10.019 16.061,9.989 15.733,9.899 15.555 C 9.862 15.481,9.334 14.919,8.726 14.306 C 7.509 13.080,7.404 13.000,7.000 13.001 C 6.612 13.002,6.504 13.080,5.495 14.086 L 4.571 15.008 4.408 14.510 C 4.164 13.765,4.065 13.201,4.004 12.213 C 3.975 11.752,3.958 11.663,3.867 11.509 C 3.628 11.101,3.147 10.916,2.695 11.057 M6.000 16.863 L 6.000 17.286 5.803 17.053 L 5.606 16.820 5.791 16.630 C 5.893 16.526,5.982 16.440,5.988 16.440 C 5.995 16.440,6.000 16.630,6.000 16.863 " stroke="none" fill-rule="evenodd" fill="black"></path></svg>