<svg viewBox="0 0 24 24" xmlns="http://www.w3.org/2000/svg" fill="none" stroke="#000000" stroke-width="2" stroke-linecap="round" stroke-linejoin="round"><path d="M5.540 7.027 C 4.179 7.139,3.010 7.618,1.934 8.504 C 1.091 9.197,0.364 10.269,0.113 11.186 C -0.008 11.628,-0.008 12.372,0.113 12.814 C 0.300 13.498,0.745 14.266,1.327 14.907 C 2.389 16.078,3.771 16.782,5.360 16.963 C 7.315 17.185,9.277 16.267,11.456 14.111 C 11.740 13.830,11.977 13.600,11.982 13.600 C 11.987 13.600,12.168 13.812,12.383 14.070 C 13.803 15.775,14.943 16.546,16.500 16.855 C 18.878 17.328,21.098 16.626,22.674 14.905 C 23.501 14.001,24.000 12.907,24.000 12.000 C 24.000 10.446,22.617 8.575,20.802 7.675 C 19.221 6.891,17.523 6.802,16.012 7.424 C 14.893 7.884,13.765 8.685,12.541 9.890 C 12.256 10.170,12.019 10.400,12.015 10.400 C 12.011 10.400,11.832 10.189,11.617 9.930 C 10.398 8.467,9.447 7.741,8.222 7.340 C 7.416 7.076,6.392 6.956,5.540 7.027 M6.699 9.042 C 8.095 9.202,8.880 9.735,10.321 11.505 L 10.723 11.998 10.071 12.651 C 9.121 13.603,8.387 14.168,7.580 14.570 C 6.891 14.912,6.384 15.026,5.721 14.986 C 4.232 14.896,2.860 13.999,2.211 12.693 C 2.033 12.335,2.020 12.286,2.020 12.003 C 2.020 11.723,2.035 11.668,2.204 11.319 C 2.503 10.702,2.990 10.155,3.623 9.727 C 4.494 9.138,5.527 8.908,6.699 9.042 M18.640 9.058 C 19.503 9.189,20.182 9.510,20.877 10.115 C 21.239 10.430,21.566 10.858,21.789 11.307 C 21.967 11.666,21.980 11.713,21.980 12.000 C 21.980 12.287,21.967 12.334,21.789 12.693 C 21.558 13.158,21.227 13.584,20.835 13.922 C 19.919 14.710,18.950 15.042,17.723 14.987 C 16.055 14.913,15.241 14.411,13.676 12.491 L 13.277 12.002 13.929 11.349 C 14.826 10.451,15.511 9.915,16.300 9.494 C 17.130 9.052,17.791 8.929,18.640 9.058 " stroke="none" fill-rule="evenodd" fill="black"></path></svg>