<svg viewBox="0 0 24 24" xmlns="http://www.w3.org/2000/svg" fill="none" stroke="#000000" stroke-width="2" stroke-linecap="round" stroke-linejoin="round"><path d="M4.499 2.043 C 3.380 2.232,2.461 3.048,2.114 4.160 L 2.020 4.460 2.020 12.000 L 2.020 19.540 2.114 19.840 C 2.422 20.827,3.173 21.578,4.160 21.886 L 4.460 21.980 12.000 21.980 L 19.540 21.980 19.840 21.886 C 20.827 21.578,21.578 20.827,21.886 19.840 L 21.980 19.540 21.980 12.000 L 21.980 4.460 21.886 4.160 C 21.581 3.182,20.832 2.428,19.861 2.121 L 19.540 2.020 12.120 2.014 C 8.039 2.011,4.609 2.024,4.499 2.043 M19.310 4.061 C 19.589 4.144,19.856 4.411,19.939 4.690 C 19.993 4.870,20.000 5.755,20.000 12.001 C 20.000 17.907,19.991 19.138,19.945 19.290 C 19.872 19.533,19.707 19.740,19.484 19.872 L 19.300 19.980 12.000 19.980 L 4.700 19.980 4.516 19.872 C 4.415 19.813,4.284 19.700,4.225 19.623 C 3.986 19.309,4.000 19.795,4.000 12.022 C 4.000 5.758,4.007 4.870,4.061 4.690 C 4.140 4.421,4.412 4.143,4.673 4.063 C 4.964 3.974,19.009 3.971,19.310 4.061 M7.643 9.066 C 7.288 9.197,7.000 9.615,7.000 10.001 C 7.000 10.082,7.037 10.254,7.081 10.384 C 7.179 10.667,7.535 11.416,7.734 11.756 L 7.877 12.000 7.732 12.248 C 7.545 12.567,7.147 13.404,7.064 13.651 C 6.935 14.037,7.021 14.424,7.299 14.701 C 7.689 15.091,8.311 15.092,8.698 14.704 C 8.811 14.591,8.908 14.426,9.014 14.170 C 9.098 13.967,9.180 13.793,9.195 13.783 C 9.210 13.774,9.339 13.865,9.482 13.986 C 9.866 14.314,10.299 14.586,10.652 14.722 C 11.220 14.941,11.417 14.979,12.000 14.979 C 12.583 14.979,12.780 14.941,13.348 14.722 C 13.701 14.586,14.134 14.314,14.518 13.986 C 14.661 13.865,14.788 13.773,14.802 13.781 C 14.816 13.790,14.898 13.964,14.983 14.169 C 15.219 14.733,15.546 15.000,16.000 15.000 C 16.396 15.000,16.808 14.709,16.934 14.340 C 17.021 14.084,17.017 13.903,16.919 13.616 C 16.821 13.333,16.465 12.584,16.266 12.244 L 16.123 12.000 16.266 11.756 C 16.465 11.416,16.821 10.667,16.919 10.384 C 17.017 10.097,17.021 9.916,16.934 9.660 C 16.743 9.101,16.086 8.852,15.533 9.128 C 15.288 9.250,15.156 9.421,14.977 9.846 C 14.895 10.042,14.816 10.210,14.802 10.219 C 14.788 10.228,14.670 10.144,14.541 10.034 C 14.036 9.603,13.510 9.309,12.932 9.134 C 12.620 9.040,12.513 9.028,12.000 9.028 C 11.487 9.028,11.380 9.040,11.068 9.134 C 10.490 9.309,9.964 9.603,9.459 10.034 C 9.330 10.144,9.211 10.227,9.195 10.217 C 9.180 10.207,9.101 10.040,9.020 9.844 C 8.939 9.649,8.822 9.428,8.761 9.354 C 8.522 9.064,8.009 8.932,7.643 9.066 M12.700 11.198 C 13.050 11.369,13.640 11.872,13.640 11.999 C 13.640 12.080,13.222 12.486,12.936 12.682 C 12.679 12.860,12.268 12.998,12.000 12.998 C 11.730 12.998,11.321 12.860,11.056 12.678 C 10.948 12.604,10.734 12.420,10.580 12.268 L 10.300 11.993 10.631 11.681 C 11.359 10.994,11.986 10.848,12.700 11.198 " stroke="none" fill-rule="evenodd" fill="black"></path></svg>