<svg viewBox="0 0 24 24" xmlns="http://www.w3.org/2000/svg" fill="none" stroke="#000000" stroke-width="2" stroke-linecap="round" stroke-linejoin="round"><path d="M11.400 1.044 C 9.761 1.229,8.261 2.290,7.526 3.785 C 7.158 4.533,7.020 5.136,7.020 6.000 C 7.020 6.670,7.078 7.044,7.268 7.600 C 7.681 8.808,8.542 9.819,9.653 10.402 C 10.073 10.622,10.446 10.769,10.773 10.842 L 11.000 10.893 11.000 12.945 L 11.000 14.996 8.230 15.009 L 5.460 15.022 5.139 15.122 C 4.170 15.426,3.419 16.181,3.114 17.160 C 3.023 17.451,3.020 17.503,3.020 18.880 L 3.020 20.300 3.131 20.489 C 3.256 20.702,3.449 20.864,3.670 20.943 C 3.893 21.022,20.107 21.022,20.330 20.943 C 20.551 20.864,20.744 20.702,20.869 20.489 L 20.980 20.300 20.980 18.880 C 20.980 17.503,20.977 17.451,20.886 17.160 C 20.581 16.181,19.830 15.426,18.861 15.122 L 18.540 15.022 15.770 15.009 L 13.000 14.996 13.000 12.945 L 13.000 10.893 13.227 10.842 C 14.016 10.665,14.963 10.116,15.586 9.474 C 16.243 8.796,16.700 7.927,16.907 6.960 C 16.960 6.714,16.980 6.448,16.980 6.000 C 16.980 5.101,16.838 4.506,16.433 3.713 C 15.794 2.461,14.604 1.510,13.240 1.162 C 12.669 1.016,12.019 0.974,11.400 1.044 M12.861 3.129 C 13.804 3.405,14.584 4.183,14.875 5.139 C 14.958 5.412,14.973 5.542,14.973 6.000 C 14.973 6.458,14.958 6.588,14.875 6.861 C 14.582 7.822,13.819 8.581,12.840 8.886 C 12.406 9.021,11.594 9.021,11.160 8.886 C 10.181 8.581,9.418 7.822,9.125 6.861 C 9.042 6.588,9.027 6.458,9.027 6.000 C 9.027 5.542,9.042 5.412,9.125 5.139 C 9.456 4.054,10.371 3.245,11.499 3.040 C 11.832 2.980,12.500 3.023,12.861 3.129 M18.310 17.061 C 18.452 17.103,18.571 17.178,18.697 17.303 C 18.948 17.554,19.000 17.751,19.000 18.447 L 19.000 19.000 12.000 19.000 L 5.000 19.000 5.000 18.447 C 5.000 17.750,5.052 17.554,5.304 17.303 C 5.623 16.983,5.120 17.006,11.983 17.003 C 17.353 17.000,18.131 17.007,18.310 17.061 " stroke="none" fill-rule="evenodd" fill="black"></path></svg>