<svg viewBox="0 0 24 24" xmlns="http://www.w3.org/2000/svg" fill="none" stroke="#000000" stroke-width="2" stroke-linecap="round" stroke-linejoin="round"><path d="M11.499 0.040 C 10.363 0.246,9.460 1.049,9.114 2.160 C 8.979 2.594,8.979 3.406,9.114 3.840 C 9.365 4.645,9.931 5.318,10.670 5.688 L 11.000 5.853 11.000 9.925 L 11.000 13.997 7.730 14.009 L 4.460 14.021 4.139 14.122 C 3.170 14.427,2.419 15.182,2.114 16.160 C 2.022 16.453,2.020 16.497,2.020 18.000 C 2.020 19.503,2.022 19.547,2.114 19.840 C 2.422 20.827,3.173 21.578,4.160 21.886 L 4.460 21.980 12.000 21.980 L 19.540 21.980 19.840 21.886 C 20.827 21.578,21.578 20.827,21.886 19.840 C 21.978 19.547,21.980 19.503,21.980 18.000 C 21.980 16.497,21.978 16.453,21.886 16.160 C 21.581 15.182,20.830 14.427,19.861 14.122 L 19.540 14.021 16.270 14.009 L 13.000 13.997 13.000 9.925 L 13.000 5.853 13.330 5.688 C 14.069 5.318,14.635 4.645,14.886 3.840 C 15.021 3.406,15.021 2.594,14.886 2.160 C 14.581 1.179,13.810 0.407,12.861 0.129 C 12.500 0.023,11.832 -0.020,11.499 0.040 M19.334 16.064 C 19.596 16.153,19.861 16.427,19.939 16.690 C 20.023 16.972,20.028 19.015,19.945 19.290 C 19.872 19.533,19.707 19.740,19.484 19.872 L 19.300 19.980 12.000 19.980 L 4.700 19.980 4.516 19.872 C 4.303 19.747,4.141 19.550,4.058 19.316 C 3.972 19.071,3.974 16.982,4.061 16.690 C 4.140 16.421,4.412 16.143,4.673 16.063 C 4.833 16.014,5.904 16.005,12.003 16.003 C 18.454 16.000,19.164 16.006,19.334 16.064 " stroke="none" fill-rule="evenodd" fill="black"></path></svg>