<svg viewBox="0 0 24 24" xmlns="http://www.w3.org/2000/svg" fill="none" stroke="#000000" stroke-width="2" stroke-linecap="round" stroke-linejoin="round"><path d="M18.640 3.068 C 18.484 3.121,17.952 3.637,14.610 6.974 L 10.761 10.818 10.370 10.612 C 9.689 10.253,9.228 10.113,8.470 10.036 C 7.261 9.913,6.094 10.231,5.068 10.963 C 4.067 11.677,3.364 12.771,3.093 14.040 C 2.992 14.511,2.992 15.489,3.093 15.960 C 3.526 17.984,5.016 19.474,7.040 19.907 C 7.511 20.008,8.489 20.008,8.960 19.907 C 10.488 19.580,11.748 18.630,12.433 17.288 C 12.838 16.494,12.980 15.899,12.980 15.000 C 12.980 14.083,12.837 13.499,12.408 12.667 L 12.185 12.235 13.592 10.828 L 14.999 9.422 15.709 10.126 C 16.100 10.513,16.483 10.864,16.560 10.904 C 16.660 10.957,16.787 10.979,17.000 10.979 C 17.258 10.980,17.327 10.964,17.492 10.867 C 17.714 10.737,17.901 10.498,17.965 10.264 C 18.019 10.061,17.989 9.733,17.899 9.555 C 17.861 9.481,17.513 9.100,17.126 8.709 L 16.422 7.999 17.210 7.210 L 17.999 6.422 18.709 7.126 C 19.100 7.513,19.481 7.861,19.555 7.899 C 20.008 8.128,20.601 7.944,20.867 7.492 C 20.964 7.327,20.980 7.258,20.979 7.000 C 20.979 6.787,20.957 6.660,20.904 6.560 C 20.864 6.483,20.514 6.101,20.128 5.711 L 19.426 5.003 19.628 4.789 C 19.924 4.476,19.978 4.354,19.979 4.000 C 19.980 3.745,19.964 3.672,19.872 3.516 C 19.617 3.083,19.122 2.903,18.640 3.068 M8.861 12.129 C 9.804 12.405,10.584 13.183,10.875 14.139 C 10.958 14.412,10.973 14.542,10.973 15.000 C 10.973 15.458,10.958 15.588,10.875 15.861 C 10.582 16.822,9.819 17.581,8.840 17.886 C 8.406 18.021,7.594 18.021,7.160 17.886 C 6.181 17.581,5.418 16.822,5.125 15.861 C 5.042 15.588,5.027 15.458,5.027 15.000 C 5.027 14.542,5.042 14.412,5.125 14.139 C 5.456 13.054,6.371 12.245,7.499 12.040 C 7.832 11.980,8.500 12.023,8.861 12.129 " stroke="none" fill="black" fill-rule="evenodd"></path></svg>