<svg viewBox="0 0 24 24" xmlns="http://www.w3.org/2000/svg" fill="none" stroke="#000000" stroke-width="2" stroke-linecap="round" stroke-linejoin="round"><path d="M2.477 3.073 C 1.806 3.249,1.238 3.823,1.060 4.508 C 1.009 4.704,1.000 5.350,1.000 9.000 C 1.000 13.640,0.992 13.471,1.225 13.930 C 1.361 14.199,1.801 14.639,2.070 14.775 C 2.538 15.012,2.173 15.000,8.993 15.000 C 15.832 15.000,15.462 15.012,15.937 14.771 C 16.383 14.546,16.854 13.936,16.947 13.466 C 16.969 13.355,16.988 13.679,17.003 14.440 C 17.024 15.479,17.034 15.605,17.117 15.860 C 17.434 16.839,18.183 17.581,19.160 17.886 C 19.442 17.974,19.521 17.980,20.500 17.980 C 21.479 17.980,21.558 17.974,21.840 17.886 C 22.827 17.578,23.578 16.827,23.886 15.840 L 23.980 15.540 23.980 12.500 L 23.980 9.460 23.886 9.160 C 23.577 8.169,22.792 7.390,21.822 7.112 C 21.524 7.027,21.424 7.020,20.500 7.020 C 19.576 7.020,19.476 7.027,19.178 7.112 C 18.099 7.421,17.224 8.388,17.041 9.471 C 17.023 9.577,17.007 8.585,17.004 7.220 C 16.998 4.587,16.992 4.499,16.781 4.083 C 16.646 3.816,16.297 3.449,16.017 3.281 C 15.528 2.987,15.983 3.005,9.000 3.005 C 3.211 3.005,2.720 3.010,2.477 3.073 M15.000 9.000 L 15.000 13.000 9.000 13.000 L 3.000 13.000 3.000 9.000 L 3.000 5.000 9.000 5.000 L 15.000 5.000 15.000 9.000 M4.695 6.055 C 4.464 6.130,4.255 6.300,4.128 6.516 C 4.037 6.672,4.020 6.746,4.020 7.000 C 4.020 7.257,4.036 7.327,4.133 7.492 C 4.651 8.374,5.998 8.018,5.998 7.000 C 5.998 6.623,5.792 6.281,5.463 6.112 C 5.265 6.010,4.911 5.984,4.695 6.055 M7.695 6.055 C 7.464 6.130,7.255 6.300,7.128 6.516 C 7.037 6.672,7.020 6.746,7.020 7.000 C 7.020 7.257,7.036 7.327,7.133 7.492 C 7.651 8.374,8.998 8.018,8.998 7.000 C 8.998 6.623,8.792 6.281,8.463 6.112 C 8.265 6.010,7.911 5.984,7.695 6.055 M10.695 6.055 C 10.464 6.130,10.255 6.300,10.128 6.516 C 10.037 6.672,10.020 6.746,10.020 7.000 C 10.020 7.257,10.036 7.327,10.133 7.492 C 10.651 8.374,11.998 8.018,11.998 7.000 C 11.998 6.623,11.792 6.281,11.463 6.112 C 11.265 6.010,10.911 5.984,10.695 6.055 M19.573 11.380 C 19.730 11.734,20.126 11.999,20.500 11.999 C 20.874 11.999,21.270 11.734,21.427 11.380 C 21.486 11.245,21.501 11.055,21.519 10.180 L 21.540 9.140 21.710 9.315 C 22.006 9.619,22.000 9.553,22.000 12.501 C 22.000 15.329,22.000 15.328,21.779 15.618 C 21.718 15.698,21.585 15.813,21.484 15.872 C 21.301 15.980,21.297 15.980,20.500 15.980 C 19.703 15.980,19.699 15.980,19.516 15.872 C 19.415 15.813,19.284 15.700,19.225 15.623 C 18.996 15.323,19.000 15.378,19.000 12.522 C 19.000 9.550,18.994 9.619,19.290 9.315 L 19.460 9.140 19.481 10.180 C 19.499 11.055,19.514 11.245,19.573 11.380 " stroke="none" fill="black" fill-rule="evenodd"></path></svg>