<svg viewBox="0 0 24 24" xmlns="http://www.w3.org/2000/svg" fill="none" stroke="#000000" stroke-width="2" stroke-linecap="round" stroke-linejoin="round"><path d="M3.499 3.043 C 2.380 3.232,1.461 4.048,1.114 5.160 L 1.020 5.460 1.020 12.000 L 1.020 18.540 1.114 18.840 C 1.422 19.827,2.173 20.578,3.160 20.886 L 3.460 20.980 12.000 20.980 L 20.540 20.980 20.840 20.886 C 21.827 20.578,22.578 19.827,22.886 18.840 L 22.980 18.540 22.980 12.000 L 22.980 5.460 22.886 5.160 C 22.581 4.182,21.832 3.428,20.861 3.121 L 20.540 3.020 12.120 3.014 C 7.489 3.011,3.609 3.024,3.499 3.043 M20.310 5.061 C 20.589 5.144,20.856 5.411,20.939 5.690 C 20.992 5.869,21.000 6.651,21.000 12.001 C 21.000 17.059,20.991 18.139,20.945 18.290 C 20.872 18.533,20.707 18.740,20.484 18.872 L 20.300 18.980 12.000 18.980 L 3.700 18.980 3.516 18.872 C 3.303 18.747,3.141 18.550,3.058 18.316 C 2.968 18.060,2.971 5.993,3.061 5.690 C 3.140 5.421,3.412 5.143,3.673 5.063 C 3.833 5.014,5.030 5.005,11.983 5.003 C 19.144 5.000,20.130 5.007,20.310 5.061 M5.695 7.057 C 5.466 7.129,5.256 7.299,5.128 7.516 C 5.036 7.672,5.020 7.746,5.020 8.003 C 5.020 8.271,5.034 8.329,5.141 8.503 C 5.543 9.156,6.457 9.156,6.859 8.503 C 6.966 8.329,6.980 8.271,6.980 8.003 C 6.980 7.746,6.964 7.672,6.872 7.516 C 6.628 7.101,6.150 6.915,5.695 7.057 M9.695 7.057 C 9.466 7.129,9.256 7.299,9.128 7.516 C 9.036 7.672,9.020 7.746,9.020 8.003 C 9.020 8.271,9.034 8.329,9.141 8.503 C 9.543 9.156,10.457 9.156,10.859 8.503 C 10.966 8.329,10.980 8.271,10.980 8.003 C 10.980 7.746,10.964 7.672,10.872 7.516 C 10.628 7.101,10.150 6.915,9.695 7.057 M13.695 7.057 C 13.466 7.129,13.256 7.299,13.128 7.516 C 13.036 7.672,13.020 7.746,13.020 8.003 C 13.020 8.271,13.034 8.329,13.141 8.503 C 13.446 8.999,14.077 9.144,14.548 8.828 C 14.654 8.756,14.791 8.613,14.859 8.503 C 14.966 8.329,14.980 8.271,14.980 8.003 C 14.980 7.746,14.964 7.672,14.872 7.516 C 14.628 7.101,14.150 6.915,13.695 7.057 M17.695 7.057 C 17.466 7.129,17.256 7.299,17.128 7.516 C 17.036 7.672,17.020 7.746,17.020 8.003 C 17.020 8.271,17.034 8.329,17.141 8.503 C 17.446 8.999,18.077 9.144,18.548 8.828 C 18.654 8.756,18.791 8.613,18.859 8.503 C 18.966 8.329,18.980 8.271,18.980 8.003 C 18.980 7.746,18.964 7.672,18.872 7.516 C 18.628 7.101,18.150 6.915,17.695 7.057 M5.695 11.057 C 5.466 11.129,5.256 11.299,5.128 11.516 C 5.036 11.672,5.020 11.746,5.020 12.003 C 5.020 12.271,5.034 12.329,5.141 12.503 C 5.543 13.156,6.457 13.156,6.859 12.503 C 6.966 12.329,6.980 12.271,6.980 12.003 C 6.980 11.746,6.964 11.672,6.872 11.516 C 6.628 11.101,6.150 10.915,5.695 11.057 M9.695 11.057 C 9.466 11.129,9.256 11.299,9.128 11.516 C 9.036 11.672,9.020 11.746,9.020 12.003 C 9.020 12.271,9.034 12.329,9.141 12.503 C 9.543 13.156,10.457 13.156,10.859 12.503 C 10.966 12.329,10.980 12.271,10.980 12.003 C 10.980 11.746,10.964 11.672,10.872 11.516 C 10.628 11.101,10.150 10.915,9.695 11.057 M13.695 11.057 C 13.466 11.129,13.256 11.299,13.128 11.516 C 13.036 11.672,13.020 11.746,13.020 12.003 C 13.020 12.271,13.034 12.329,13.141 12.503 C 13.543 13.156,14.457 13.156,14.859 12.503 C 14.966 12.329,14.980 12.271,14.980 12.003 C 14.980 11.746,14.964 11.672,14.872 11.516 C 14.628 11.101,14.150 10.915,13.695 11.057 M17.695 11.057 C 17.466 11.129,17.256 11.299,17.128 11.516 C 17.036 11.672,17.020 11.746,17.020 12.003 C 17.020 12.271,17.034 12.329,17.141 12.503 C 17.543 13.156,18.457 13.156,18.859 12.503 C 18.966 12.329,18.980 12.271,18.980 12.003 C 18.980 11.746,18.964 11.672,18.872 11.516 C 18.628 11.101,18.150 10.915,17.695 11.057 M7.695 15.057 C 7.466 15.129,7.256 15.299,7.128 15.516 C 7.037 15.672,7.020 15.746,7.020 16.000 C 7.020 16.256,7.036 16.328,7.131 16.489 C 7.256 16.702,7.449 16.864,7.670 16.943 C 7.892 17.022,16.108 17.022,16.330 16.943 C 16.551 16.864,16.744 16.702,16.869 16.489 C 16.964 16.328,16.980 16.256,16.980 16.000 C 16.980 15.746,16.963 15.672,16.872 15.516 C 16.740 15.293,16.533 15.128,16.290 15.055 C 16.029 14.976,7.946 14.979,7.695 15.057 " stroke="none" fill="black" fill-rule="evenodd"></path></svg>