<svg viewBox="0 0 24 24" xmlns="http://www.w3.org/2000/svg" fill="none" stroke="#000000" stroke-width="2" stroke-linecap="round" stroke-linejoin="round"><path d="M2.695 1.057 C 2.466 1.129,2.256 1.299,2.128 1.516 L 2.020 1.700 2.020 5.640 L 2.020 9.580 2.125 9.887 C 2.296 10.387,2.496 10.704,2.896 11.104 C 3.300 11.507,3.621 11.709,4.113 11.871 C 4.388 11.961,4.503 11.974,5.209 11.991 L 5.999 12.009 6.009 17.158 L 6.020 22.306 6.141 22.503 C 6.543 23.156,7.457 23.156,7.859 22.503 L 7.980 22.306 7.991 17.158 L 8.001 12.009 8.791 11.990 C 9.464 11.974,9.621 11.958,9.860 11.882 C 10.834 11.570,11.581 10.818,11.886 9.840 L 11.980 9.540 11.980 5.620 L 11.980 1.700 11.871 1.514 C 11.479 0.848,10.521 0.848,10.129 1.514 L 10.020 1.700 10.000 5.480 C 9.985 8.383,9.968 9.286,9.930 9.373 C 9.842 9.572,9.672 9.761,9.484 9.872 C 9.308 9.975,9.272 9.981,8.651 9.993 L 8.001 10.007 7.991 5.853 L 7.980 1.700 7.871 1.514 C 7.479 0.848,6.521 0.848,6.129 1.514 L 6.020 1.700 6.009 5.850 L 5.999 10.000 5.426 10.000 C 5.010 10.000,4.804 9.983,4.669 9.937 C 4.452 9.863,4.210 9.643,4.098 9.418 C 4.023 9.265,4.019 9.134,4.000 5.480 L 3.980 1.700 3.872 1.516 C 3.628 1.101,3.150 0.915,2.695 1.057 " stroke="none" fill-rule="evenodd" fill="black"></path></svg>