<svg viewBox="0 0 24 24" xmlns="http://www.w3.org/2000/svg" fill="none" stroke="#000000" stroke-width="2" stroke-linecap="round" stroke-linejoin="round"><path d="M3.695 1.055 C 3.464 1.130,3.255 1.300,3.128 1.516 L 3.020 1.700 3.020 11.120 L 3.020 20.540 3.114 20.840 C 3.422 21.827,4.173 22.578,5.160 22.886 C 5.453 22.978,5.497 22.980,7.000 22.980 C 8.503 22.980,8.547 22.978,8.840 22.886 C 9.827 22.578,10.578 21.827,10.886 20.840 L 10.980 20.540 10.980 13.940 C 10.980 6.961,10.983 7.103,10.796 6.340 C 10.176 3.818,8.170 1.813,5.660 1.205 C 4.982 1.041,3.972 0.964,3.695 1.055 M5.600 3.268 C 7.184 3.808,8.427 5.148,8.838 6.760 C 8.993 7.367,9.000 7.662,9.000 13.972 C 9.000 19.055,8.991 20.139,8.945 20.290 C 8.872 20.533,8.707 20.740,8.484 20.872 L 8.300 20.980 7.000 20.980 L 5.700 20.980 5.516 20.872 C 5.415 20.813,5.284 20.700,5.225 20.623 C 4.985 20.308,5.000 20.925,5.000 11.631 L 5.000 3.111 5.150 3.139 C 5.232 3.154,5.435 3.212,5.600 3.268 " stroke="none" fill-rule="evenodd" fill="black"></path></svg>