<svg viewBox="0 0 24 24" xmlns="http://www.w3.org/2000/svg" fill="none" stroke="#000000" stroke-width="2" stroke-linecap="round" stroke-linejoin="round"><path d="M3.499 2.043 C 2.380 2.232,1.461 3.048,1.114 4.160 L 1.020 4.460 1.020 10.000 L 1.020 15.540 1.114 15.840 C 1.422 16.827,2.173 17.578,3.160 17.886 L 3.460 17.980 12.000 17.980 L 20.540 17.980 20.840 17.886 C 21.827 17.578,22.578 16.827,22.886 15.840 L 22.980 15.540 22.980 10.000 L 22.980 4.460 22.886 4.160 C 22.581 3.182,21.832 2.428,20.861 2.121 L 20.540 2.020 12.120 2.014 C 7.489 2.011,3.609 2.024,3.499 2.043 M20.310 4.061 C 20.589 4.144,20.856 4.411,20.939 4.690 C 20.992 4.868,21.000 5.546,21.000 10.001 C 21.000 14.212,20.990 15.139,20.945 15.290 C 20.872 15.533,20.707 15.740,20.484 15.872 L 20.300 15.980 12.000 15.980 L 3.700 15.980 3.516 15.872 C 3.303 15.747,3.141 15.550,3.058 15.316 C 2.969 15.061,2.971 4.993,3.061 4.690 C 3.140 4.421,3.412 4.143,3.673 4.063 C 3.833 4.014,5.030 4.005,11.983 4.003 C 19.144 4.000,20.130 4.007,20.310 4.061 M1.695 19.057 C 1.466 19.129,1.256 19.299,1.128 19.516 C 1.037 19.672,1.020 19.746,1.020 20.000 C 1.020 20.256,1.036 20.328,1.131 20.489 C 1.256 20.702,1.449 20.864,1.670 20.943 C 1.893 21.023,22.107 21.023,22.330 20.943 C 22.551 20.864,22.744 20.702,22.869 20.489 C 22.964 20.328,22.980 20.256,22.980 20.000 C 22.980 19.746,22.963 19.672,22.872 19.516 C 22.740 19.293,22.533 19.128,22.290 19.055 C 22.027 18.976,1.948 18.978,1.695 19.057 " stroke="none" fill="black" fill-rule="evenodd"></path></svg>