<svg viewBox="0 0 24 24" xmlns="http://www.w3.org/2000/svg" fill="none" stroke="#000000" stroke-width="2" stroke-linecap="round" stroke-linejoin="round"><path d="M1.580 3.595 C 1.374 3.689,1.150 3.938,1.060 4.175 C 0.918 4.547,1.065 5.453,1.365 6.052 C 1.808 6.935,2.557 7.559,3.548 7.870 L 3.900 7.980 11.820 7.991 C 17.107 7.999,19.829 7.989,20.008 7.961 C 20.415 7.898,20.863 7.742,21.240 7.531 C 21.709 7.268,22.268 6.709,22.531 6.240 C 22.954 5.485,23.117 4.549,22.905 4.100 C 22.720 3.710,22.419 3.519,21.991 3.521 C 21.407 3.523,21.043 3.911,20.984 4.597 C 20.935 5.162,20.609 5.631,20.100 5.868 L 19.860 5.980 12.000 5.980 L 4.140 5.980 3.900 5.868 C 3.391 5.631,3.065 5.162,3.016 4.597 C 2.973 4.101,2.769 3.758,2.420 3.596 C 2.207 3.497,1.795 3.496,1.580 3.595 M1.580 8.595 C 1.374 8.689,1.150 8.938,1.060 9.175 C 0.918 9.547,1.065 10.453,1.365 11.052 C 1.808 11.935,2.557 12.559,3.548 12.870 L 3.900 12.980 11.820 12.991 C 17.107 12.999,19.829 12.989,20.008 12.961 C 20.415 12.898,20.863 12.742,21.240 12.531 C 21.709 12.268,22.268 11.709,22.531 11.240 C 22.954 10.485,23.117 9.549,22.905 9.100 C 22.720 8.710,22.419 8.519,21.991 8.521 C 21.407 8.523,21.043 8.911,20.984 9.597 C 20.935 10.162,20.609 10.631,20.100 10.868 L 19.860 10.980 12.000 10.980 L 4.140 10.980 3.900 10.868 C 3.391 10.631,3.065 10.162,3.016 9.597 C 2.973 9.101,2.769 8.758,2.420 8.596 C 2.207 8.497,1.795 8.496,1.580 8.595 M1.580 13.595 C 1.374 13.689,1.150 13.938,1.060 14.175 C 0.918 14.547,1.065 15.453,1.365 16.052 C 1.808 16.935,2.557 17.559,3.548 17.870 L 3.900 17.980 11.820 17.991 C 17.107 17.999,19.829 17.989,20.008 17.961 C 20.415 17.898,20.863 17.742,21.240 17.531 C 21.709 17.268,22.268 16.709,22.531 16.240 C 22.954 15.485,23.117 14.549,22.905 14.100 C 22.720 13.710,22.419 13.519,21.991 13.521 C 21.407 13.523,21.043 13.911,20.984 14.597 C 20.935 15.162,20.609 15.631,20.100 15.868 L 19.860 15.980 12.000 15.980 L 4.140 15.980 3.900 15.868 C 3.391 15.631,3.065 15.162,3.016 14.597 C 2.973 14.101,2.769 13.758,2.420 13.596 C 2.207 13.497,1.795 13.496,1.580 13.595 " stroke="none" fill-rule="evenodd" fill="black"></path></svg>