<svg viewBox="0 0 24 24" xmlns="http://www.w3.org/2000/svg" fill="none" stroke="#000000" stroke-width="2" stroke-linecap="round" stroke-linejoin="round"><path d="M11.695 1.057 C 11.466 1.129,11.256 1.299,11.128 1.516 C 11.020 1.699,11.020 1.703,11.020 2.503 L 11.020 3.306 11.141 3.503 C 11.543 4.156,12.457 4.156,12.859 3.503 L 12.980 3.306 12.980 2.503 C 12.980 1.703,12.980 1.699,12.872 1.516 C 12.628 1.101,12.150 0.915,11.695 1.057 M11.207 7.043 C 9.760 7.183,8.286 7.768,7.100 8.674 C 6.773 8.924,6.125 9.556,5.821 9.920 C 5.045 10.850,4.406 12.186,4.163 13.387 C 4.053 13.929,3.986 14.624,4.008 14.997 C 4.029 15.357,4.146 15.604,4.381 15.783 C 4.676 16.009,4.239 15.996,12.000 15.996 C 19.761 15.996,19.324 16.009,19.619 15.783 C 19.854 15.604,19.971 15.357,19.992 14.997 C 20.029 14.349,19.868 13.336,19.595 12.500 C 19.034 10.784,17.881 9.290,16.340 8.282 C 14.878 7.325,12.996 6.870,11.207 7.043 M12.564 9.039 C 13.723 9.152,14.707 9.537,15.640 10.242 C 16.735 11.069,17.592 12.411,17.851 13.700 L 17.907 13.980 12.007 13.990 C 8.762 13.996,6.101 13.995,6.095 13.988 C 6.088 13.981,6.118 13.824,6.162 13.638 C 6.852 10.714,9.587 8.750,12.564 9.039 M1.695 11.057 C 1.466 11.129,1.256 11.299,1.128 11.516 C 1.037 11.672,1.020 11.746,1.020 12.000 C 1.020 12.256,1.036 12.328,1.131 12.489 C 1.256 12.702,1.449 12.864,1.670 12.943 C 1.878 13.017,3.122 13.017,3.330 12.943 C 3.551 12.864,3.744 12.702,3.869 12.489 C 3.964 12.328,3.980 12.256,3.980 12.000 C 3.980 11.746,3.963 11.672,3.872 11.516 C 3.740 11.293,3.533 11.128,3.290 11.055 C 3.050 10.983,1.928 10.984,1.695 11.057 M20.695 11.057 C 20.466 11.129,20.256 11.299,20.128 11.516 C 20.037 11.672,20.020 11.746,20.020 12.000 C 20.020 12.256,20.036 12.328,20.131 12.489 C 20.256 12.702,20.449 12.864,20.670 12.943 C 20.878 13.017,22.122 13.017,22.330 12.943 C 22.551 12.864,22.744 12.702,22.869 12.489 C 22.964 12.328,22.980 12.256,22.980 12.000 C 22.980 11.746,22.963 11.672,22.872 11.516 C 22.740 11.293,22.533 11.128,22.290 11.055 C 22.050 10.983,20.928 10.984,20.695 11.057 M11.695 20.057 C 11.466 20.129,11.256 20.299,11.128 20.516 C 11.020 20.699,11.020 20.703,11.020 21.503 L 11.020 22.306 11.141 22.503 C 11.543 23.156,12.457 23.156,12.859 22.503 L 12.980 22.306 12.980 21.503 C 12.980 20.703,12.980 20.699,12.872 20.516 C 12.628 20.101,12.150 19.915,11.695 20.057 " stroke="none" fill-rule="evenodd" fill="black"></path></svg>