<svg viewBox="0 0 24 24" xmlns="http://www.w3.org/2000/svg" fill="none" stroke="#000000" stroke-width="2" stroke-linecap="round" stroke-linejoin="round"><path d="M5.695 3.057 C 5.466 3.129,5.256 3.299,5.128 3.516 L 5.020 3.700 5.020 12.000 L 5.020 20.300 5.131 20.489 C 5.256 20.702,5.449 20.864,5.670 20.943 C 5.893 21.022,19.107 21.022,19.330 20.943 C 19.551 20.864,19.744 20.702,19.869 20.489 C 19.964 20.328,19.980 20.256,19.980 20.000 C 19.980 19.746,19.963 19.672,19.872 19.516 C 19.740 19.293,19.533 19.128,19.290 19.055 C 19.139 19.009,18.067 19.000,13.054 19.000 L 7.000 19.000 7.000 16.000 L 7.000 13.000 10.590 12.998 C 13.484 12.997,14.209 12.986,14.330 12.943 C 14.551 12.864,14.744 12.702,14.869 12.489 C 14.964 12.328,14.980 12.256,14.980 12.000 C 14.980 11.746,14.963 11.672,14.872 11.516 C 14.813 11.415,14.698 11.282,14.618 11.221 C 14.322 10.995,14.410 11.000,10.554 11.000 L 7.000 11.000 7.000 8.000 L 7.000 5.000 13.090 4.998 C 18.073 4.997,19.207 4.987,19.330 4.943 C 19.551 4.864,19.744 4.702,19.869 4.489 C 19.964 4.328,19.980 4.256,19.980 4.000 C 19.980 3.746,19.963 3.672,19.872 3.516 C 19.740 3.293,19.533 3.128,19.290 3.055 C 19.028 2.976,5.947 2.978,5.695 3.057 " stroke="none" fill-rule="evenodd" fill="black"></path></svg>