<svg viewBox="0 0 24 24" xmlns="http://www.w3.org/2000/svg" fill="none" stroke="#000000" stroke-width="2" stroke-linecap="round" stroke-linejoin="round"><path d="M5.695 3.057 C 5.466 3.129,5.256 3.299,5.128 3.516 L 5.020 3.700 5.009 11.940 C 4.999 19.547,5.003 20.194,5.065 20.356 C 5.156 20.598,5.362 20.814,5.600 20.916 L 5.800 21.002 10.250 20.989 C 14.351 20.977,14.724 20.971,15.000 20.905 C 16.543 20.539,17.756 19.614,18.433 18.288 C 18.662 17.839,18.805 17.439,18.907 16.960 C 19.008 16.489,19.008 15.511,18.907 15.040 C 18.624 13.715,17.867 12.582,16.787 11.863 L 16.434 11.629 16.633 11.424 C 17.239 10.802,17.706 9.899,17.907 8.960 C 17.960 8.714,17.980 8.448,17.980 8.000 C 17.980 7.552,17.960 7.286,17.907 7.040 C 17.625 5.721,16.863 4.576,15.800 3.874 C 15.046 3.375,14.396 3.135,13.552 3.043 C 12.950 2.977,5.910 2.990,5.695 3.057 M13.861 5.122 C 14.824 5.425,15.585 6.187,15.875 7.139 C 15.958 7.412,15.973 7.542,15.973 8.000 C 15.973 8.458,15.958 8.588,15.875 8.861 C 15.585 9.813,14.826 10.574,13.860 10.881 C 13.619 10.958,13.450 10.974,12.660 10.998 C 12.112 11.015,11.694 11.045,11.627 11.073 C 11.294 11.212,11.049 11.537,11.013 11.888 C 10.971 12.295,11.156 12.660,11.508 12.867 L 11.700 12.980 13.120 13.003 C 14.478 13.025,14.554 13.031,14.861 13.124 C 15.816 13.417,16.584 14.185,16.875 15.139 C 16.958 15.412,16.973 15.542,16.973 16.000 C 16.973 16.458,16.958 16.588,16.875 16.861 C 16.585 17.811,15.844 18.556,14.860 18.886 L 14.580 18.980 10.790 18.991 L 7.000 19.003 7.000 12.000 L 7.000 4.997 10.270 5.009 L 13.540 5.021 13.861 5.122 " stroke="none" fill-rule="evenodd" fill="black"></path></svg>