<svg viewBox="0 0 24 24" xmlns="http://www.w3.org/2000/svg" fill="none" stroke="#000000" stroke-width="2" stroke-linecap="round" stroke-linejoin="round"><path d="M5.695 3.057 C 5.466 3.129,5.256 3.299,5.128 3.516 L 5.020 3.700 5.020 9.180 C 5.020 13.519,5.031 14.731,5.073 15.000 C 5.552 18.090,7.881 20.425,10.980 20.926 C 11.392 20.992,12.607 20.992,13.020 20.926 C 16.116 20.426,18.449 18.086,18.927 15.000 C 18.969 14.731,18.980 13.515,18.980 9.180 L 18.980 3.700 18.871 3.514 C 18.479 2.848,17.521 2.848,17.129 3.514 L 17.020 3.700 16.996 9.180 C 16.981 12.801,16.958 14.728,16.930 14.860 C 16.800 15.474,16.659 15.869,16.398 16.353 C 15.683 17.681,14.466 18.585,12.960 18.907 C 12.489 19.008,11.511 19.008,11.040 18.907 C 9.771 18.636,8.677 17.933,7.963 16.932 C 7.503 16.287,7.246 15.692,7.070 14.860 C 7.042 14.728,7.019 12.801,7.004 9.180 L 6.980 3.700 6.872 3.516 C 6.628 3.101,6.150 2.915,5.695 3.057 " stroke="none" fill-rule="evenodd" fill="black"></path></svg>