<svg viewBox="0 0 24 24" xmlns="http://www.w3.org/2000/svg" fill="none" stroke="#000000" stroke-width="2" stroke-linecap="round" stroke-linejoin="round"><path d="M5.695 3.057 C 5.466 3.129,5.256 3.299,5.128 3.516 L 5.020 3.700 5.020 12.003 L 5.020 20.306 5.141 20.503 C 5.543 21.156,6.457 21.156,6.859 20.503 L 6.980 20.306 7.000 13.666 L 7.020 7.027 12.168 13.890 C 17.952 21.603,17.440 20.980,18.000 20.980 C 18.257 20.980,18.327 20.964,18.492 20.867 C 18.716 20.735,18.890 20.513,18.956 20.272 C 18.991 20.142,19.000 18.096,18.991 11.900 L 18.980 3.700 18.871 3.514 C 18.479 2.848,17.521 2.848,17.129 3.514 L 17.020 3.700 17.000 10.337 L 16.980 16.974 11.848 10.131 C 8.205 5.273,6.672 3.259,6.564 3.188 C 6.287 3.004,6.001 2.961,5.695 3.057 " stroke="none" fill-rule="evenodd" fill="black"></path></svg>