<svg viewBox="0 0 24 24" xmlns="http://www.w3.org/2000/svg" fill="none" stroke="#000000" stroke-width="2" stroke-linecap="round" stroke-linejoin="round"><path d="M5.695 3.057 C 5.466 3.129,5.256 3.299,5.128 3.516 L 5.020 3.700 5.020 12.003 L 5.020 20.306 5.141 20.503 C 5.543 21.156,6.457 21.156,6.859 20.503 L 6.980 20.306 6.991 16.653 L 7.002 13.000 10.591 12.998 C 13.484 12.997,14.209 12.986,14.330 12.943 C 14.551 12.864,14.744 12.702,14.869 12.489 C 14.964 12.328,14.980 12.256,14.980 12.000 C 14.980 11.746,14.963 11.672,14.872 11.516 C 14.813 11.415,14.698 11.282,14.618 11.221 C 14.322 10.995,14.410 11.000,10.554 11.000 L 7.000 11.000 7.000 8.000 L 7.000 5.000 12.590 4.998 C 17.155 4.997,18.208 4.987,18.330 4.943 C 18.551 4.864,18.744 4.702,18.869 4.489 C 18.964 4.328,18.980 4.256,18.980 4.000 C 18.980 3.746,18.963 3.672,18.872 3.516 C 18.740 3.293,18.533 3.128,18.290 3.055 C 18.028 2.976,5.947 2.978,5.695 3.057 " stroke="none" fill-rule="evenodd" fill="black"></path></svg>