<svg viewBox="0 0 24 24" xmlns="http://www.w3.org/2000/svg" fill="none" stroke="#000000" stroke-width="2" stroke-linecap="round" stroke-linejoin="round"><path d="M7.695 3.057 C 7.466 3.129,7.256 3.299,7.128 3.516 C 7.037 3.672,7.020 3.746,7.020 4.000 C 7.020 4.256,7.036 4.328,7.131 4.489 C 7.192 4.592,7.304 4.725,7.381 4.783 C 7.654 4.991,7.700 4.996,9.410 4.998 L 11.000 5.000 11.000 12.000 L 11.000 19.000 9.446 19.000 C 7.758 19.000,7.658 19.011,7.382 19.221 C 7.302 19.282,7.187 19.415,7.128 19.516 C 7.037 19.672,7.020 19.746,7.020 20.000 C 7.020 20.256,7.036 20.328,7.131 20.489 C 7.256 20.702,7.449 20.864,7.670 20.943 C 7.892 21.022,16.108 21.022,16.330 20.943 C 16.551 20.864,16.744 20.702,16.869 20.489 C 16.964 20.328,16.980 20.256,16.980 20.000 C 16.980 19.746,16.963 19.672,16.872 19.516 C 16.813 19.415,16.698 19.282,16.618 19.221 C 16.342 19.011,16.242 19.000,14.554 19.000 L 13.000 19.000 13.000 12.000 L 13.000 5.000 14.590 4.998 C 16.300 4.996,16.346 4.991,16.619 4.783 C 16.696 4.725,16.808 4.592,16.869 4.489 C 16.964 4.328,16.980 4.256,16.980 4.000 C 16.980 3.746,16.963 3.672,16.872 3.516 C 16.740 3.293,16.533 3.128,16.290 3.055 C 16.029 2.976,7.946 2.979,7.695 3.057 " stroke="none" fill-rule="evenodd" fill="black"></path></svg>