<svg viewBox="0 0 24 24" xmlns="http://www.w3.org/2000/svg" fill="none" stroke="#000000" stroke-width="2" stroke-linecap="round" stroke-linejoin="round"><path d="M5.695 3.057 C 5.466 3.129,5.256 3.299,5.128 3.516 L 5.020 3.700 5.020 12.003 L 5.020 20.306 5.141 20.503 C 5.543 21.156,6.457 21.156,6.859 20.503 L 6.980 20.306 7.000 13.666 L 7.020 7.027 9.168 9.890 C 11.605 13.140,11.458 12.980,12.000 12.980 C 12.542 12.980,12.395 13.140,14.832 9.890 L 16.980 7.027 17.000 13.666 L 17.020 20.306 17.141 20.503 C 17.543 21.156,18.457 21.156,18.859 20.503 L 18.980 20.306 18.991 12.103 C 19.000 5.905,18.991 3.858,18.956 3.728 C 18.890 3.487,18.716 3.265,18.492 3.133 C 18.327 3.036,18.258 3.020,17.999 3.021 C 17.450 3.023,17.662 2.784,14.668 6.781 C 13.212 8.726,12.011 10.317,12.000 10.317 C 11.989 10.317,10.801 8.741,9.360 6.815 C 7.528 4.367,6.692 3.280,6.579 3.201 C 6.300 3.006,6.009 2.959,5.695 3.057 " stroke="none" fill-rule="evenodd" fill="black"></path></svg>