<svg viewBox="0 0 24 24" xmlns="http://www.w3.org/2000/svg" fill="none" stroke="#000000" stroke-width="2" stroke-linecap="round" stroke-linejoin="round"><path d="M13.540 3.945 C 12.566 4.001,11.638 4.196,10.781 4.524 C 10.203 4.746,9.480 5.129,9.298 5.309 C 8.977 5.629,9.000 5.104,9.000 12.000 C 9.000 18.845,8.980 18.366,9.276 18.671 C 9.530 18.933,10.360 19.346,11.177 19.616 C 12.031 19.899,13.129 20.079,14.000 20.079 C 14.873 20.079,15.969 19.899,16.829 19.614 C 17.630 19.349,18.474 18.929,18.725 18.670 C 19.006 18.381,19.004 18.399,18.991 15.916 L 18.980 13.700 18.872 13.516 C 18.740 13.293,18.533 13.128,18.290 13.055 C 18.023 12.975,13.977 12.975,13.710 13.055 C 13.467 13.128,13.260 13.293,13.128 13.516 C 13.037 13.672,13.020 13.746,13.020 14.000 C 13.020 14.256,13.036 14.328,13.131 14.489 C 13.192 14.592,13.304 14.725,13.381 14.783 C 13.654 14.992,13.700 14.996,15.411 14.998 L 17.001 15.000 16.991 16.207 L 16.980 17.414 16.620 17.560 C 15.741 17.916,15.005 18.055,14.000 18.056 C 12.994 18.056,12.266 17.919,11.380 17.560 L 11.020 17.414 11.010 12.009 L 11.000 6.604 11.190 6.519 C 12.191 6.075,13.411 5.871,14.530 5.961 C 15.525 6.041,16.257 6.246,17.191 6.708 C 17.769 6.993,17.971 7.041,18.262 6.959 C 18.998 6.753,19.243 5.828,18.700 5.303 C 18.426 5.038,17.370 4.543,16.572 4.304 C 15.686 4.039,14.456 3.893,13.540 3.945 " stroke="none" fill-rule="evenodd" fill="black"></path></svg>