<svg viewBox="0 0 24 24" xmlns="http://www.w3.org/2000/svg" fill="none" stroke="#000000" stroke-width="2" stroke-linecap="round" stroke-linejoin="round"><path d="M5.695 3.056 C 5.465 3.129,5.255 3.299,5.128 3.516 L 5.020 3.700 5.010 11.914 C 5.003 17.333,5.013 20.180,5.040 20.278 C 5.099 20.498,5.291 20.739,5.508 20.867 L 5.700 20.980 9.540 20.992 C 12.153 21.000,13.527 20.990,13.840 20.960 C 15.932 20.757,17.876 19.841,19.358 18.358 C 22.079 15.637,22.771 11.506,21.084 8.060 C 20.633 7.140,20.094 6.382,19.379 5.663 C 18.013 4.287,16.320 3.428,14.320 3.095 C 13.943 3.032,13.491 3.023,9.880 3.014 C 6.640 3.005,5.828 3.014,5.695 3.056 M14.120 5.091 C 17.192 5.639,19.492 7.988,19.924 11.020 C 20.033 11.783,19.978 12.907,19.795 13.660 C 19.197 16.123,17.220 18.137,14.786 18.764 C 13.967 18.975,14.050 18.971,10.410 18.988 L 7.000 19.004 7.000 11.999 L 7.000 4.995 10.390 5.013 C 13.183 5.027,13.840 5.041,14.120 5.091 " stroke="none" fill-rule="evenodd" fill="black"></path></svg>