<svg viewBox="0 0 24 24" xmlns="http://www.w3.org/2000/svg" fill="none" stroke="#000000" stroke-width="2" stroke-linecap="round" stroke-linejoin="round"><path d="M5.695 3.057 C 5.466 3.129,5.256 3.299,5.128 3.516 L 5.020 3.700 5.010 11.914 C 5.003 17.333,5.013 20.180,5.040 20.278 C 5.099 20.498,5.291 20.739,5.508 20.867 L 5.700 20.980 11.914 20.990 C 16.003 20.997,18.179 20.987,18.278 20.961 C 18.498 20.901,18.739 20.710,18.867 20.492 C 18.964 20.327,18.980 20.257,18.980 20.000 C 18.980 19.746,18.963 19.672,18.872 19.516 C 18.740 19.293,18.533 19.128,18.290 19.055 C 18.139 19.010,17.144 19.000,12.554 19.000 L 7.001 19.000 6.990 11.350 L 6.980 3.700 6.872 3.516 C 6.628 3.101,6.150 2.915,5.695 3.057 " stroke="none" fill-rule="evenodd" fill="black"></path></svg>