<svg viewBox="0 0 24 24" xmlns="http://www.w3.org/2000/svg" fill="none" stroke="#000000" stroke-width="2" stroke-linecap="round" stroke-linejoin="round"><path d="M5.695 3.057 C 5.466 3.129,5.256 3.299,5.128 3.516 L 5.020 3.700 5.020 12.003 L 5.020 20.306 5.141 20.503 C 5.543 21.156,6.457 21.156,6.859 20.503 L 6.980 20.306 6.991 17.653 L 7.002 15.000 9.791 15.000 L 12.580 15.000 15.460 17.883 C 17.044 19.468,18.416 20.810,18.508 20.865 C 18.967 21.139,19.587 20.968,19.867 20.492 C 19.964 20.327,19.980 20.257,19.980 20.000 C 19.980 19.746,19.964 19.673,19.873 19.520 C 19.813 19.420,18.722 18.298,17.423 17.000 C 16.134 15.713,15.080 14.647,15.080 14.630 C 15.080 14.614,15.104 14.600,15.133 14.600 C 15.162 14.600,15.355 14.518,15.563 14.417 C 17.303 13.573,18.475 12.071,18.885 10.160 C 19.015 9.554,19.015 8.446,18.885 7.840 C 18.626 6.631,18.109 5.660,17.269 4.805 C 16.258 3.775,15.009 3.180,13.564 3.039 C 13.353 3.019,11.533 3.003,9.520 3.004 C 6.643 3.005,5.825 3.016,5.695 3.057 M13.605 5.058 C 15.074 5.280,16.310 6.324,16.797 7.755 C 16.897 8.050,17.000 8.680,17.000 9.000 C 17.000 9.322,16.897 9.951,16.796 10.245 C 16.321 11.632,15.195 12.628,13.773 12.917 C 13.383 12.997,13.243 13.000,10.184 13.000 L 7.000 13.000 7.000 9.000 L 7.000 5.000 10.110 5.000 C 12.622 5.000,13.294 5.012,13.605 5.058 " stroke="none" fill-rule="evenodd" fill="black"></path></svg>