<svg viewBox="0 0 24 24" xmlns="http://www.w3.org/2000/svg" fill="none" stroke="#000000" stroke-width="2" stroke-linecap="round" stroke-linejoin="round"><path d="M3.499 9.043 C 2.380 9.232,1.460 10.049,1.114 11.160 C 0.979 11.594,0.979 12.406,1.114 12.840 C 1.421 13.826,2.173 14.578,3.160 14.886 L 3.460 14.980 12.000 14.980 L 20.540 14.980 20.840 14.886 C 21.827 14.578,22.579 13.826,22.886 12.840 C 23.021 12.406,23.021 11.594,22.886 11.160 C 22.582 10.183,21.832 9.428,20.861 9.121 L 20.540 9.020 12.120 9.014 C 7.489 9.011,3.609 9.024,3.499 9.043 M20.310 11.061 C 20.688 11.173,21.000 11.598,21.000 12.001 C 21.000 12.331,20.784 12.696,20.484 12.872 L 20.300 12.980 16.240 12.989 C 12.793 12.996,12.203 12.989,12.330 12.943 C 12.552 12.864,12.744 12.701,12.869 12.489 C 12.964 12.328,12.980 12.256,12.980 12.000 C 12.980 11.746,12.963 11.672,12.872 11.516 C 12.744 11.299,12.534 11.129,12.305 11.057 C 12.168 11.014,12.804 11.005,16.123 11.003 C 19.577 11.000,20.133 11.008,20.310 11.061 " stroke="none" fill="black" fill-rule="evenodd"></path></svg>