<svg viewBox="0 0 24 24" xmlns="http://www.w3.org/2000/svg" fill="none" stroke="#000000" stroke-width="2" stroke-linecap="round" stroke-linejoin="round"><path d="M11.695 1.057 C 11.466 1.129,11.256 1.299,11.128 1.516 L 11.020 1.700 11.008 2.850 L 10.995 4.000 8.944 4.000 C 6.718 4.000,6.666 4.004,6.382 4.221 C 6.302 4.282,6.187 4.415,6.128 4.516 C 6.037 4.672,6.020 4.746,6.020 5.000 C 6.020 5.256,6.036 5.328,6.131 5.489 C 6.356 5.872,6.625 5.994,7.260 6.002 L 7.700 6.008 7.358 6.061 C 5.731 6.315,4.417 7.584,4.083 9.227 C 4.004 9.615,4.000 9.760,4.000 12.500 C 4.000 15.240,4.004 15.385,4.083 15.773 C 4.476 17.702,6.099 19.000,8.118 19.000 C 8.665 19.000,8.792 19.040,8.922 19.252 C 8.991 19.365,9.000 19.456,9.000 20.040 C 9.001 20.651,9.008 20.715,9.095 20.900 C 9.276 21.282,9.595 21.488,10.003 21.488 C 10.292 21.488,10.536 21.381,10.724 21.173 C 10.986 20.882,11.010 20.758,10.992 19.814 C 10.976 19.031,10.968 18.962,10.867 18.680 C 10.647 18.069,10.196 17.561,9.620 17.277 C 9.203 17.071,8.857 17.002,8.238 17.001 C 7.471 17.000,7.090 16.871,6.653 16.465 C 6.366 16.198,6.164 15.870,6.073 15.523 C 6.012 15.287,6.004 14.977,6.002 12.528 C 6.000 9.483,6.002 9.452,6.265 9.014 C 6.446 8.712,6.642 8.508,6.937 8.314 C 7.230 8.122,7.473 8.047,7.952 8.001 C 8.238 7.974,8.365 7.941,8.503 7.860 C 9.240 7.429,9.117 6.311,8.305 6.057 C 8.163 6.013,8.339 6.005,9.568 6.003 L 10.997 6.000 11.008 7.653 L 11.020 9.306 11.141 9.503 C 11.543 10.156,12.457 10.156,12.859 9.503 L 12.980 9.306 12.992 7.653 L 13.003 6.000 14.432 6.003 C 15.661 6.005,15.837 6.013,15.695 6.057 C 15.051 6.258,14.799 7.040,15.198 7.591 C 15.386 7.850,15.613 7.960,16.048 8.001 C 16.525 8.047,16.769 8.122,17.063 8.312 C 17.516 8.605,17.837 9.058,17.941 9.549 C 18.026 9.948,18.026 15.052,17.941 15.451 C 17.863 15.821,17.710 16.091,17.400 16.404 C 16.953 16.858,16.563 17.000,15.762 17.001 C 15.143 17.002,14.797 17.071,14.380 17.277 C 13.804 17.561,13.349 18.073,13.131 18.681 C 13.031 18.961,13.023 19.032,13.008 19.814 C 12.990 20.758,13.014 20.882,13.276 21.173 C 13.464 21.381,13.708 21.488,13.997 21.488 C 14.405 21.488,14.724 21.282,14.905 20.900 C 14.992 20.715,14.999 20.651,15.000 20.040 C 15.000 19.456,15.009 19.365,15.078 19.252 C 15.208 19.040,15.335 19.000,15.882 19.000 C 17.907 19.000,19.524 17.702,19.921 15.757 C 19.995 15.390,20.000 15.203,20.000 12.500 C 20.000 9.797,19.995 9.610,19.921 9.243 C 19.830 8.799,19.638 8.295,19.421 7.932 C 18.844 6.965,17.759 6.235,16.642 6.061 L 16.300 6.008 16.740 6.002 C 17.375 5.994,17.644 5.872,17.869 5.489 C 17.964 5.328,17.980 5.256,17.980 5.000 C 17.980 4.746,17.963 4.672,17.872 4.516 C 17.813 4.415,17.698 4.282,17.618 4.221 C 17.334 4.004,17.282 4.000,15.056 4.000 L 13.005 4.000 12.992 2.850 L 12.980 1.700 12.872 1.516 C 12.628 1.101,12.150 0.915,11.695 1.057 " stroke="none" fill-rule="evenodd" fill="black"></path></svg>