<svg viewBox="0 0 24 24" xmlns="http://www.w3.org/2000/svg" fill="none" stroke="#000000" stroke-width="2" stroke-linecap="round" stroke-linejoin="round"><path d="M13.000 0.035 C 12.600 0.166,12.319 0.480,12.258 0.866 L 12.233 1.020 12.059 1.006 C 11.848 0.989,11.633 1.053,11.423 1.194 C 11.254 1.308,11.040 1.608,11.040 1.731 C 11.040 1.772,10.957 1.890,10.855 1.993 C 10.614 2.237,10.512 2.466,10.512 2.764 C 10.512 3.175,10.792 3.574,11.158 3.684 C 11.337 3.738,11.352 3.764,11.254 3.845 C 11.134 3.944,11.001 4.288,11.001 4.500 C 11.001 4.874,11.270 5.277,11.618 5.422 C 11.854 5.520,12.204 5.508,12.436 5.393 L 12.627 5.299 12.811 5.393 C 13.069 5.526,13.412 5.524,13.690 5.386 C 13.892 5.286,13.896 5.286,13.999 5.359 C 14.141 5.460,14.459 5.511,14.695 5.470 C 15.390 5.350,15.718 4.498,15.297 3.910 C 15.197 3.771,15.177 3.720,15.222 3.720 C 15.331 3.720,15.581 3.570,15.732 3.415 C 16.111 3.025,16.072 2.364,15.649 1.994 C 15.550 1.908,15.478 1.799,15.445 1.688 C 15.385 1.479,15.164 1.225,14.943 1.109 C 14.825 1.047,14.705 1.023,14.510 1.022 L 14.240 1.020 14.239 0.900 C 14.237 0.621,13.991 0.260,13.703 0.112 C 13.531 0.024,13.159 -0.017,13.000 0.035 M19.058 3.619 C 18.904 3.696,17.881 4.697,14.490 8.090 C 12.087 10.494,10.120 12.482,10.120 12.507 C 10.120 12.532,10.033 12.615,9.926 12.692 L 9.731 12.832 8.416 11.513 C 7.692 10.788,7.028 10.156,6.940 10.108 C 6.717 9.988,6.284 9.988,6.060 10.108 C 5.715 10.292,5.515 10.610,5.511 10.980 C 5.508 11.400,5.503 11.393,6.974 12.870 L 8.339 14.240 4.753 17.830 C 2.781 19.805,1.135 21.483,1.095 21.560 C 1.043 21.659,1.021 21.788,1.021 22.000 C 1.020 22.258,1.036 22.327,1.133 22.492 C 1.263 22.714,1.502 22.901,1.736 22.965 C 1.938 23.019,2.266 22.989,2.445 22.899 C 2.519 22.862,4.195 21.219,6.170 19.247 L 9.759 15.661 10.110 16.009 C 10.501 16.397,10.670 16.488,11.000 16.488 C 11.405 16.488,11.724 16.281,11.905 15.900 C 12.115 15.457,11.997 15.085,11.488 14.585 L 11.168 14.270 11.308 14.075 C 11.385 13.968,11.468 13.880,11.493 13.880 C 11.518 13.880,13.506 11.913,15.911 9.510 C 19.370 6.052,20.303 5.098,20.381 4.940 C 20.711 4.270,20.246 3.520,19.500 3.520 C 19.320 3.520,19.204 3.546,19.058 3.619 " stroke="none" fill-rule="evenodd" fill="black"></path></svg>