<svg viewBox="0 0 24 24" xmlns="http://www.w3.org/2000/svg" fill="none" stroke="#000000" stroke-width="2" stroke-linecap="round" stroke-linejoin="round"><path d="M11.080 0.045 C 9.206 0.210,7.361 0.947,5.800 2.154 C 5.303 2.538,4.429 3.432,4.033 3.960 C 2.633 5.830,1.932 8.028,2.012 10.294 C 2.059 11.641,2.372 12.944,2.987 14.357 C 4.142 17.012,6.484 19.868,9.620 22.446 C 10.626 23.273,11.420 23.848,11.685 23.942 C 12.006 24.055,12.315 23.996,12.670 23.754 C 13.798 22.989,15.446 21.593,16.681 20.360 C 19.706 17.338,21.444 14.338,21.906 11.340 C 22.008 10.681,22.008 9.256,21.906 8.600 C 21.626 6.792,20.959 5.239,19.847 3.800 C 19.510 3.365,18.639 2.494,18.200 2.154 C 16.133 0.555,13.646 -0.182,11.080 0.045 M12.734 2.041 C 14.574 2.216,16.228 2.976,17.554 4.256 C 18.232 4.910,18.760 5.636,19.184 6.500 C 20.154 8.474,20.251 10.740,19.457 12.867 C 18.876 14.424,17.921 15.969,16.541 17.586 C 15.746 18.518,14.286 19.933,13.169 20.855 C 12.702 21.241,12.031 21.760,12.000 21.760 C 11.966 21.760,11.287 21.235,10.840 20.864 C 9.682 19.902,8.250 18.515,7.458 17.587 C 5.668 15.491,4.542 13.417,4.160 11.509 C 3.695 9.189,4.329 6.707,5.848 4.900 C 6.622 3.980,7.440 3.337,8.500 2.816 C 9.813 2.172,11.278 1.903,12.734 2.041 M8.695 9.057 C 8.466 9.129,8.256 9.299,8.128 9.516 C 8.037 9.672,8.020 9.746,8.020 10.000 C 8.020 10.256,8.036 10.328,8.131 10.489 C 8.256 10.702,8.449 10.864,8.670 10.943 C 8.891 11.022,15.109 11.022,15.330 10.943 C 15.551 10.864,15.744 10.702,15.869 10.489 C 15.964 10.328,15.980 10.256,15.980 10.000 C 15.980 9.746,15.963 9.672,15.872 9.516 C 15.740 9.293,15.533 9.128,15.290 9.055 C 15.030 8.977,8.945 8.979,8.695 9.057 " stroke="none" fill-rule="evenodd" fill="black"></path></svg>