<svg viewBox="0 0 24 24" xmlns="http://www.w3.org/2000/svg" fill="none" stroke="#000000" stroke-width="2" stroke-linecap="round" stroke-linejoin="round"><path d="M5.260 0.306 C 4.704 0.732,3.652 1.798,3.227 2.367 C 1.977 4.040,1.220 6.001,1.043 8.020 C 0.976 8.787,0.988 12.395,1.059 13.008 C 1.373 15.691,2.817 18.034,5.080 19.531 C 6.207 20.277,7.596 20.777,8.992 20.941 C 9.725 21.026,14.275 21.026,15.008 20.941 C 16.050 20.819,17.015 20.537,17.940 20.084 C 20.718 18.723,22.580 16.088,22.941 13.008 C 23.012 12.400,23.025 8.783,22.959 8.040 C 22.776 5.992,22.025 4.045,20.770 2.363 C 20.350 1.800,19.257 0.695,18.718 0.288 L 18.335 -0.000 15.418 0.007 C 13.813 0.010,12.572 0.020,12.660 0.027 C 14.532 0.186,16.208 0.847,17.631 1.987 C 19.438 3.435,20.581 5.471,20.928 7.860 C 21.003 8.377,21.002 12.475,20.926 12.980 C 20.465 16.077,18.104 18.445,15.000 18.927 C 14.513 19.003,9.487 19.003,9.000 18.927 C 5.895 18.445,3.535 16.078,3.074 12.980 C 2.998 12.475,2.997 8.377,3.072 7.860 C 3.322 6.139,3.952 4.661,4.987 3.369 C 6.541 1.429,8.796 0.243,11.340 0.027 C 11.428 0.020,10.186 0.010,8.580 0.007 L 5.660 0.000 5.260 0.306 M7.477 9.073 C 6.806 9.249,6.238 9.823,6.060 10.508 C 5.941 10.962,6.003 11.492,6.225 11.930 C 6.361 12.199,6.801 12.639,7.070 12.775 C 7.659 13.073,8.341 13.073,8.930 12.775 C 9.196 12.640,9.638 12.200,9.771 11.937 C 9.994 11.498,10.052 11.007,9.940 10.529 C 9.858 10.182,9.720 9.927,9.465 9.653 C 9.074 9.232,8.560 9.005,8.000 9.005 C 7.857 9.005,7.622 9.036,7.477 9.073 M15.477 9.073 C 14.806 9.249,14.238 9.823,14.060 10.508 C 13.941 10.962,14.003 11.492,14.225 11.930 C 14.361 12.199,14.801 12.639,15.070 12.775 C 15.659 13.073,16.341 13.073,16.930 12.775 C 17.196 12.640,17.638 12.200,17.771 11.937 C 17.994 11.498,18.052 11.007,17.940 10.529 C 17.858 10.182,17.720 9.927,17.465 9.653 C 17.074 9.232,16.560 9.005,16.000 9.005 C 15.857 9.005,15.622 9.036,15.477 9.073 M11.695 15.055 C 11.464 15.130,11.255 15.300,11.128 15.516 C 11.037 15.672,11.020 15.746,11.020 16.000 C 11.020 16.257,11.036 16.327,11.133 16.492 C 11.651 17.374,12.998 17.018,12.998 16.000 C 12.998 15.623,12.792 15.281,12.463 15.112 C 12.265 15.010,11.911 14.984,11.695 15.055 " stroke="none" fill-rule="evenodd" fill="black"></path></svg>