<svg viewBox="0 0 24 24" xmlns="http://www.w3.org/2000/svg" fill="none" stroke="#000000" stroke-width="2" stroke-linecap="round" stroke-linejoin="round"><path d="M12.499 3.042 C 11.382 3.237,10.482 4.029,10.115 5.140 C 10.025 5.414,10.023 5.463,10.009 7.284 L 9.995 9.148 9.668 9.314 C 8.930 9.689,8.361 10.361,8.123 11.137 C 8.017 11.484,7.974 12.040,8.036 12.268 C 8.122 12.584,8.417 12.866,8.780 12.983 C 8.845 13.003,8.829 13.018,8.695 13.059 C 8.467 13.128,8.256 13.298,8.128 13.516 C 8.037 13.672,8.020 13.746,8.020 14.000 C 8.020 14.256,8.036 14.328,8.131 14.489 C 8.256 14.702,8.449 14.864,8.670 14.943 C 8.885 15.020,11.115 15.020,11.330 14.943 C 11.551 14.864,11.744 14.702,11.869 14.489 C 11.964 14.328,11.980 14.256,11.980 14.000 C 11.980 13.745,11.964 13.672,11.871 13.514 C 11.743 13.297,11.485 13.094,11.283 13.050 C 11.204 13.034,12.976 13.011,15.220 13.000 C 19.088 12.981,19.307 12.976,19.435 12.906 C 19.596 12.819,19.599 12.822,19.719 13.199 C 20.163 14.595,20.042 16.303,19.410 17.580 C 18.554 19.307,17.089 20.452,15.180 20.886 L 14.780 20.976 8.760 20.998 C 4.066 21.015,2.715 21.031,2.627 21.070 C 2.428 21.158,2.239 21.328,2.128 21.516 C 2.037 21.672,2.020 21.746,2.020 22.000 C 2.020 22.256,2.036 22.328,2.131 22.489 C 2.256 22.702,2.449 22.864,2.670 22.943 C 2.893 23.023,21.107 23.023,21.330 22.943 C 21.551 22.864,21.744 22.702,21.869 22.489 C 21.964 22.328,21.980 22.256,21.980 22.000 C 21.980 21.746,21.963 21.672,21.872 21.516 C 21.813 21.415,21.698 21.282,21.618 21.221 C 21.363 21.027,21.192 21.000,20.207 21.000 L 19.307 21.000 19.725 20.570 C 20.387 19.888,20.799 19.302,21.200 18.471 C 22.519 15.741,22.183 12.526,20.325 10.100 C 19.865 9.499,19.052 8.751,18.380 8.309 L 18.020 8.073 17.997 6.746 C 17.976 5.508,17.969 5.401,17.883 5.140 C 17.566 4.166,16.815 3.418,15.861 3.124 C 15.548 3.027,15.504 3.024,14.120 3.015 C 13.339 3.010,12.609 3.022,12.499 3.042 M15.310 5.061 C 15.452 5.103,15.571 5.178,15.697 5.303 C 15.958 5.564,16.000 5.740,16.000 6.572 L 16.000 7.250 15.870 7.222 C 15.198 7.074,14.841 7.036,13.934 7.013 C 12.876 6.986,12.692 7.008,12.428 7.189 C 12.251 7.311,12.128 7.471,12.055 7.675 C 11.972 7.909,11.977 5.971,12.061 5.690 C 12.140 5.421,12.412 5.143,12.673 5.063 C 12.952 4.977,15.023 4.975,15.310 5.061 M12.217 8.619 C 12.275 8.696,12.408 8.808,12.511 8.869 C 12.699 8.979,12.703 8.980,13.680 9.006 C 14.672 9.032,14.963 9.064,15.538 9.207 C 16.019 9.326,15.989 9.287,16.006 9.829 C 16.019 10.258,16.030 10.317,16.131 10.489 C 16.256 10.702,16.449 10.864,16.670 10.943 C 16.798 10.989,16.404 10.996,14.000 10.996 C 11.596 10.996,11.202 10.989,11.330 10.943 C 11.551 10.864,11.744 10.702,11.869 10.489 L 11.980 10.300 11.993 9.240 C 12.005 8.307,12.012 8.198,12.058 8.330 C 12.087 8.413,12.158 8.543,12.217 8.619 M5.695 17.057 C 5.466 17.129,5.256 17.299,5.128 17.516 C 5.037 17.672,5.020 17.746,5.020 18.000 C 5.020 18.256,5.036 18.328,5.131 18.489 C 5.256 18.702,5.449 18.864,5.670 18.943 C 5.892 19.022,14.108 19.022,14.330 18.943 C 14.551 18.864,14.744 18.702,14.869 18.489 C 14.964 18.328,14.980 18.256,14.980 18.000 C 14.980 17.746,14.963 17.672,14.872 17.516 C 14.740 17.293,14.533 17.128,14.290 17.055 C 14.029 16.976,5.946 16.979,5.695 17.057 " stroke="none" fill-rule="evenodd" fill="black"></path></svg>