<svg viewBox="0 0 24 24" xmlns="http://www.w3.org/2000/svg" fill="none" stroke="#000000" stroke-width="2" stroke-linecap="round" stroke-linejoin="round"><path d="M11.207 2.043 C 9.656 2.193,8.096 2.846,6.900 3.847 C 5.985 4.612,5.307 5.477,4.800 6.529 C 3.453 9.317,3.837 12.625,5.789 15.040 C 6.075 15.394,6.761 16.067,7.100 16.326 C 7.804 16.863,8.680 17.327,9.500 17.595 C 9.979 17.751,10.703 17.920,10.898 17.920 L 11.000 17.920 11.000 19.460 L 11.000 21.000 9.946 21.000 C 8.797 21.000,8.644 21.022,8.382 21.221 C 8.302 21.282,8.187 21.415,8.128 21.516 C 8.037 21.672,8.020 21.746,8.020 22.000 C 8.020 22.256,8.036 22.328,8.131 22.489 C 8.256 22.702,8.449 22.864,8.670 22.943 C 8.891 23.022,15.109 23.022,15.330 22.943 C 15.551 22.864,15.744 22.702,15.869 22.489 C 15.964 22.328,15.980 22.256,15.980 22.000 C 15.980 21.746,15.963 21.672,15.872 21.516 C 15.813 21.415,15.698 21.282,15.618 21.221 C 15.356 21.022,15.203 21.000,14.054 21.000 L 13.000 21.000 13.000 19.460 L 13.000 17.920 13.102 17.920 C 13.297 17.920,14.021 17.751,14.500 17.595 C 15.320 17.327,16.196 16.863,16.900 16.326 C 17.239 16.067,17.925 15.394,18.211 15.040 C 20.163 12.625,20.547 9.317,19.200 6.529 C 18.693 5.477,18.015 4.612,17.100 3.847 C 15.483 2.494,13.337 1.837,11.207 2.043 M12.564 4.039 C 14.921 4.269,16.913 5.837,17.671 8.060 C 18.168 9.517,18.068 11.251,17.410 12.580 C 16.550 14.316,15.056 15.478,13.160 15.885 C 12.554 16.015,11.446 16.015,10.840 15.885 C 8.941 15.478,7.451 14.319,6.590 12.580 C 5.932 11.251,5.832 9.517,6.329 8.060 C 6.618 7.212,7.080 6.470,7.731 5.805 C 9.008 4.503,10.757 3.864,12.564 4.039 " stroke="none" fill="black" fill-rule="evenodd"></path></svg>