<svg viewBox="0 0 24 24" xmlns="http://www.w3.org/2000/svg" fill="none" stroke="#000000" stroke-width="2" stroke-linecap="round" stroke-linejoin="round"><path d="M10.995 2.044 C 8.989 2.199,7.157 2.850,5.733 3.914 C 5.278 4.255,4.564 4.967,4.245 5.400 C 3.601 6.272,3.162 7.338,3.042 8.319 C 2.985 8.783,2.986 15.272,3.043 15.792 C 3.254 17.718,4.177 19.439,5.700 20.751 C 7.008 21.877,8.678 22.618,10.560 22.907 C 11.207 23.007,12.793 23.007,13.440 22.907 C 16.234 22.478,18.557 21.040,19.882 18.920 C 20.452 18.008,20.837 16.888,20.957 15.792 C 21.014 15.272,21.015 8.783,20.958 8.319 C 20.838 7.338,20.399 6.272,19.755 5.400 C 19.432 4.962,18.719 4.252,18.260 3.911 C 16.351 2.492,13.775 1.830,10.995 2.044 M12.760 4.040 C 14.898 4.200,16.583 4.909,17.761 6.145 C 18.251 6.659,18.655 7.335,18.834 7.940 C 18.995 8.482,19.007 8.817,18.988 12.340 C 18.970 15.926,18.973 15.873,18.766 16.560 C 18.414 17.725,17.581 18.858,16.520 19.612 C 15.294 20.485,13.593 21.003,11.972 20.999 C 10.371 20.995,8.695 20.477,7.480 19.612 C 6.416 18.854,5.587 17.727,5.234 16.560 C 5.027 15.873,5.030 15.928,5.011 12.320 C 4.993 8.768,5.004 8.455,5.168 7.921 C 5.543 6.705,6.580 5.576,7.967 4.877 C 9.269 4.219,11.033 3.912,12.760 4.040 M11.358 6.061 C 10.725 6.160,10.119 6.424,9.562 6.843 C 9.228 7.095,8.785 7.573,8.630 7.849 L 8.545 8.000 8.219 8.000 C 7.665 8.000,7.342 8.153,7.128 8.516 C 7.036 8.672,7.020 8.746,7.020 9.003 C 7.020 9.271,7.034 9.329,7.141 9.503 C 7.288 9.742,7.578 9.946,7.821 9.982 L 8.000 10.009 8.000 10.188 C 8.000 10.466,8.152 11.146,8.289 11.479 C 8.714 12.516,9.490 13.292,10.512 13.704 C 12.558 14.528,14.877 13.538,15.704 11.488 C 15.853 11.117,16.000 10.473,16.000 10.188 L 16.000 10.009 16.179 9.982 C 16.422 9.946,16.712 9.742,16.859 9.503 C 16.966 9.329,16.980 9.271,16.980 9.003 C 16.980 8.746,16.964 8.672,16.872 8.516 C 16.658 8.153,16.335 8.000,15.781 8.000 L 15.455 8.000 15.370 7.849 C 15.215 7.573,14.772 7.095,14.438 6.843 C 13.866 6.412,13.276 6.160,12.605 6.058 C 12.144 5.989,11.816 5.990,11.358 6.061 M13.981 10.224 C 13.917 10.740,13.704 11.147,13.319 11.493 C 12.706 12.044,11.825 12.158,11.083 11.781 C 10.816 11.646,10.449 11.297,10.281 11.017 C 10.138 10.780,10.006 10.360,10.002 10.130 L 10.000 10.000 12.005 10.000 L 14.009 10.000 13.981 10.224 " stroke="none" fill-rule="evenodd" fill="black"></path></svg>