<svg viewBox="0 0 24 24" xmlns="http://www.w3.org/2000/svg" fill="none" stroke="#000000" stroke-width="2" stroke-linecap="round" stroke-linejoin="round"><path d="M7.695 3.057 C 7.051 3.258,6.799 4.040,7.198 4.591 C 7.263 4.681,7.403 4.805,7.508 4.867 L 7.700 4.980 10.120 5.002 L 12.540 5.023 12.861 5.123 C 13.820 5.421,14.585 6.186,14.875 7.139 C 14.958 7.412,14.973 7.542,14.973 8.000 C 14.973 8.458,14.958 8.588,14.875 8.861 C 14.585 9.811,13.839 10.561,12.860 10.885 C 12.583 10.976,12.552 10.977,10.160 10.999 C 8.359 11.015,7.711 11.033,7.627 11.070 C 7.022 11.337,6.817 12.065,7.198 12.591 C 7.263 12.681,7.403 12.805,7.508 12.867 L 7.700 12.980 10.120 13.002 L 12.540 13.023 12.861 13.123 C 13.820 13.421,14.585 14.186,14.875 15.139 C 14.958 15.412,14.973 15.542,14.973 16.000 C 14.973 16.458,14.958 16.588,14.875 16.861 C 14.585 17.811,13.839 18.561,12.860 18.885 C 12.583 18.976,12.552 18.977,10.160 18.999 C 8.359 19.015,7.711 19.033,7.627 19.070 C 7.429 19.158,7.239 19.327,7.128 19.516 C 7.037 19.672,7.020 19.746,7.020 20.000 C 7.020 20.257,7.036 20.327,7.133 20.492 C 7.262 20.711,7.502 20.901,7.728 20.962 C 7.831 20.990,8.693 20.999,10.292 20.989 C 12.415 20.976,12.736 20.966,13.000 20.904 C 14.536 20.544,15.756 19.614,16.433 18.288 C 16.662 17.839,16.805 17.439,16.907 16.960 C 17.008 16.489,17.008 15.511,16.907 15.040 C 16.689 14.021,16.186 13.101,15.474 12.418 C 15.312 12.262,15.135 12.105,15.081 12.068 L 14.982 12.000 15.081 11.932 C 15.135 11.895,15.312 11.738,15.474 11.582 C 16.186 10.899,16.689 9.979,16.907 8.960 C 17.008 8.489,17.008 7.511,16.907 7.040 C 16.625 5.721,15.863 4.576,14.800 3.874 C 14.046 3.375,13.396 3.135,12.552 3.043 C 11.965 2.978,7.907 2.991,7.695 3.057 " stroke="none" fill-rule="evenodd" fill="black"></path></svg>