<svg viewBox="0 0 24 24" xmlns="http://www.w3.org/2000/svg" fill="none" stroke="#000000" stroke-width="2" stroke-linecap="round" stroke-linejoin="round"><path d="M15.668 3.061 C 15.585 3.092,15.462 3.156,15.395 3.204 C 15.272 3.291,7.269 15.236,7.091 15.598 C 6.969 15.846,6.970 16.156,7.095 16.420 C 7.209 16.660,7.358 16.807,7.600 16.917 C 7.777 16.997,7.845 16.998,11.388 16.999 L 14.997 17.000 15.008 18.653 L 15.020 20.306 15.141 20.503 C 15.543 21.156,16.457 21.156,16.859 20.503 L 16.980 20.306 16.980 16.003 L 16.980 11.700 16.871 11.514 C 16.479 10.848,15.521 10.848,15.129 11.514 L 15.020 11.700 15.008 13.350 L 14.997 15.000 12.436 15.000 C 10.398 15.000,9.881 14.990,9.905 14.950 C 9.922 14.922,11.499 12.553,13.411 9.685 C 15.323 6.816,16.913 4.397,16.944 4.310 C 17.212 3.550,16.428 2.783,15.668 3.061 " stroke="none" fill-rule="evenodd" fill="black"></path></svg>