<svg viewBox="0 0 24 24" xmlns="http://www.w3.org/2000/svg" fill="none" stroke="#000000" stroke-width="2" stroke-linecap="round" stroke-linejoin="round"><path d="M11.400 3.044 C 9.761 3.229,8.261 4.290,7.526 5.785 C 7.333 6.177,7.187 6.599,7.093 7.040 C 7.027 7.349,7.020 7.618,7.020 10.000 C 7.020 12.382,7.027 12.651,7.093 12.960 C 7.526 14.984,9.016 16.474,11.040 16.907 C 11.511 17.008,12.489 17.008,12.960 16.907 C 14.488 16.580,15.748 15.630,16.433 14.288 C 16.838 13.494,16.980 12.899,16.980 12.000 C 16.980 11.101,16.838 10.506,16.433 9.713 C 15.794 8.461,14.610 7.514,13.240 7.161 C 11.894 6.814,10.366 7.076,9.224 7.851 L 8.989 8.011 9.017 7.720 C 9.137 6.503,9.968 5.487,11.139 5.123 L 11.460 5.023 13.880 5.002 L 16.300 4.980 16.492 4.867 C 17.248 4.423,17.123 3.306,16.290 3.055 C 16.144 3.011,15.667 3.001,13.904 3.005 C 12.692 3.008,11.565 3.026,11.400 3.044 M12.861 9.129 C 13.804 9.405,14.584 10.183,14.875 11.139 C 14.958 11.412,14.973 11.542,14.973 12.000 C 14.973 12.458,14.958 12.588,14.875 12.861 C 14.582 13.822,13.819 14.581,12.840 14.886 C 12.406 15.021,11.594 15.021,11.160 14.886 C 10.181 14.581,9.418 13.822,9.125 12.861 C 9.042 12.588,9.027 12.458,9.027 12.000 C 9.027 11.542,9.042 11.412,9.125 11.139 C 9.456 10.054,10.371 9.245,11.499 9.040 C 11.832 8.980,12.500 9.023,12.861 9.129 " stroke="none" fill-rule="evenodd" fill="black"></path></svg>