<svg viewBox="0 0 24 24" xmlns="http://www.w3.org/2000/svg" fill="none" stroke="#000000" stroke-width="2" stroke-linecap="round" stroke-linejoin="round"><path d="M11.069 1.039 C 9.923 1.151,8.808 1.421,7.864 1.817 C 4.167 3.367,1.679 6.573,1.094 10.540 C 0.995 11.213,0.995 12.787,1.094 13.460 C 1.407 15.585,2.228 17.433,3.573 19.043 C 5.340 21.157,7.752 22.495,10.540 22.906 C 11.213 23.005,12.787 23.005,13.460 22.906 C 15.505 22.604,17.309 21.828,18.854 20.585 C 20.851 18.978,22.200 16.806,22.755 14.300 C 22.929 13.514,22.977 13.022,22.977 12.000 C 22.977 10.978,22.929 10.486,22.755 9.700 C 22.033 6.440,19.934 3.714,16.997 2.220 C 15.840 1.632,14.837 1.309,13.572 1.120 C 12.946 1.026,11.638 0.984,11.069 1.039 M13.320 3.101 C 14.819 3.326,16.217 3.925,17.498 4.892 C 17.912 5.204,18.796 6.088,19.108 6.502 C 19.883 7.529,20.395 8.567,20.697 9.726 C 20.916 10.563,20.977 11.060,20.977 12.000 C 20.977 12.940,20.916 13.437,20.697 14.274 C 20.403 15.403,19.879 16.478,19.162 17.425 L 18.968 17.681 18.867 17.511 C 18.811 17.417,17.815 16.393,16.653 15.235 C 14.748 13.338,14.521 13.124,14.343 13.065 C 13.862 12.906,13.382 13.084,13.128 13.516 C 13.036 13.672,13.020 13.745,13.021 14.000 C 13.021 14.212,13.043 14.341,13.095 14.440 C 13.192 14.626,17.292 18.737,17.509 18.866 L 17.678 18.967 17.569 19.056 C 17.108 19.436,16.340 19.905,15.718 20.186 C 12.688 21.555,9.290 21.182,6.600 19.185 C 6.139 18.842,5.223 17.938,4.891 17.498 C 3.914 16.201,3.329 14.829,3.093 13.280 C 2.997 12.647,2.997 11.353,3.093 10.720 C 3.330 9.167,3.914 7.798,4.892 6.502 C 5.204 6.088,6.088 5.204,6.502 4.892 C 7.963 3.789,9.507 3.191,11.320 3.025 C 11.675 2.992,12.908 3.039,13.320 3.101 M7.477 6.073 C 6.806 6.249,6.238 6.823,6.060 7.508 C 5.941 7.962,6.003 8.492,6.225 8.930 C 6.361 9.199,6.801 9.639,7.070 9.775 C 7.659 10.073,8.341 10.073,8.930 9.775 C 9.196 9.640,9.638 9.200,9.771 8.937 C 9.994 8.498,10.052 8.007,9.940 7.529 C 9.858 7.182,9.720 6.927,9.465 6.653 C 9.074 6.232,8.560 6.005,8.000 6.005 C 7.857 6.005,7.622 6.036,7.477 6.073 M15.477 6.073 C 14.806 6.249,14.238 6.823,14.060 7.508 C 13.941 7.962,14.003 8.492,14.225 8.930 C 14.361 9.199,14.801 9.639,15.070 9.775 C 15.659 10.073,16.341 10.073,16.930 9.775 C 17.196 9.640,17.638 9.200,17.771 8.937 C 17.994 8.498,18.052 8.007,17.940 7.529 C 17.858 7.182,17.720 6.927,17.465 6.653 C 17.074 6.232,16.560 6.005,16.000 6.005 C 15.857 6.005,15.622 6.036,15.477 6.073 M7.477 14.073 C 6.806 14.249,6.238 14.823,6.060 15.508 C 5.941 15.962,6.003 16.492,6.225 16.930 C 6.361 17.199,6.801 17.639,7.070 17.775 C 7.659 18.073,8.341 18.073,8.930 17.775 C 9.196 17.640,9.638 17.200,9.771 16.937 C 9.994 16.498,10.052 16.007,9.940 15.529 C 9.858 15.182,9.720 14.927,9.465 14.653 C 9.074 14.232,8.560 14.005,8.000 14.005 C 7.857 14.005,7.622 14.036,7.477 14.073 " stroke="none" fill-rule="evenodd" fill="black"></path></svg>