<svg viewBox="0 0 24 24" xmlns="http://www.w3.org/2000/svg" fill="none" stroke="#000000" stroke-width="2" stroke-linecap="round" stroke-linejoin="round"><path d="M11.280 1.023 C 11.203 1.032,10.951 1.059,10.720 1.083 C 8.832 1.283,6.991 2.023,5.360 3.235 C 4.751 3.688,3.684 4.755,3.226 5.367 C 0.728 8.714,0.301 13.032,2.097 16.780 C 2.643 17.918,3.276 18.801,4.238 19.762 C 5.199 20.724,6.082 21.357,7.220 21.903 C 10.967 23.699,15.288 23.270,18.637 20.770 C 19.246 20.316,20.316 19.246,20.770 18.637 C 23.744 14.652,23.744 9.348,20.770 5.363 C 20.316 4.755,19.247 3.686,18.640 3.235 C 17.045 2.049,15.365 1.360,13.423 1.096 C 13.000 1.038,11.574 0.990,11.280 1.023 M13.320 3.101 C 15.883 3.488,18.124 4.931,19.560 7.120 C 19.863 7.583,20.303 8.479,20.492 9.020 C 20.838 10.013,20.977 10.865,20.977 12.000 C 20.977 13.493,20.720 14.621,20.080 15.940 C 19.375 17.394,18.311 18.607,16.927 19.532 C 16.138 20.060,14.876 20.588,13.908 20.797 C 11.266 21.366,8.479 20.708,6.370 19.019 C 4.857 17.807,3.722 16.029,3.267 14.160 C 3.081 13.397,3.023 12.888,3.023 12.000 C 3.023 10.507,3.280 9.379,3.920 8.060 C 4.971 5.891,6.877 4.221,9.160 3.466 C 9.865 3.233,10.432 3.118,11.340 3.024 C 11.662 2.991,12.911 3.039,13.320 3.101 M8.695 8.056 C 8.465 8.129,8.255 8.300,8.128 8.516 L 8.020 8.700 8.020 13.003 L 8.020 17.306 8.141 17.503 C 8.543 18.156,9.457 18.156,9.859 17.503 L 9.980 17.306 9.992 15.656 L 10.003 14.005 11.792 13.991 C 13.533 13.977,13.587 13.974,13.860 13.884 C 14.845 13.559,15.582 12.816,15.886 11.840 C 16.021 11.406,16.021 10.594,15.886 10.160 C 15.582 9.182,14.829 8.425,13.861 8.122 L 13.540 8.022 11.200 8.013 C 9.351 8.005,8.825 8.014,8.695 8.056 M13.310 10.061 C 13.688 10.173,14.000 10.598,14.000 11.001 C 14.000 11.331,13.784 11.696,13.484 11.872 L 13.300 11.980 11.650 11.992 L 10.000 12.003 10.000 11.002 L 10.000 10.000 11.553 10.000 C 12.826 10.000,13.142 10.011,13.310 10.061 " stroke="none" fill-rule="evenodd" fill="black"></path></svg>