<svg viewBox="0 0 24 24" xmlns="http://www.w3.org/2000/svg" fill="none" stroke="#000000" stroke-width="2" stroke-linecap="round" stroke-linejoin="round"><path d="M4.769 2.817 C 3.827 2.997,2.944 3.476,2.183 4.220 C 1.815 4.580,1.366 5.125,1.168 5.453 C 0.859 5.963,1.007 6.573,1.511 6.869 C 1.669 6.962,1.746 6.980,1.981 6.980 C 2.398 6.980,2.592 6.868,2.911 6.442 C 3.310 5.909,3.581 5.620,3.927 5.360 C 4.321 5.063,4.544 4.947,4.926 4.841 C 6.039 4.532,7.157 5.117,8.138 6.520 C 9.127 7.935,10.181 8.766,11.420 9.108 C 11.784 9.209,11.881 9.219,12.500 9.219 C 13.119 9.219,13.215 9.209,13.576 9.109 C 14.820 8.763,15.875 7.932,16.862 6.520 C 17.349 5.823,17.913 5.287,18.441 5.019 C 18.735 4.870,19.186 4.760,19.500 4.760 C 20.408 4.760,21.229 5.293,22.089 6.442 C 22.408 6.868,22.602 6.980,23.019 6.980 C 23.254 6.980,23.331 6.962,23.489 6.869 C 23.993 6.573,24.141 5.963,23.832 5.453 C 23.478 4.868,22.721 4.062,22.132 3.643 C 21.682 3.323,21.055 3.021,20.573 2.891 C 20.221 2.797,20.109 2.786,19.500 2.786 C 18.891 2.786,18.779 2.797,18.427 2.891 C 18.211 2.949,17.847 3.089,17.619 3.200 C 16.657 3.673,15.954 4.324,15.088 5.548 C 14.584 6.260,14.033 6.760,13.465 7.020 C 12.236 7.583,10.986 7.065,9.912 5.548 C 9.049 4.329,8.340 3.671,7.381 3.200 C 6.788 2.909,6.317 2.796,5.620 2.777 C 5.249 2.767,4.962 2.781,4.769 2.817 M4.769 8.817 C 3.827 8.997,2.944 9.476,2.183 10.220 C 1.815 10.580,1.366 11.125,1.168 11.453 C 0.859 11.963,1.007 12.573,1.511 12.869 C 1.669 12.962,1.746 12.980,1.981 12.980 C 2.398 12.980,2.592 12.868,2.911 12.442 C 3.310 11.909,3.581 11.620,3.927 11.360 C 4.321 11.063,4.544 10.947,4.926 10.841 C 6.039 10.532,7.157 11.117,8.138 12.520 C 9.127 13.935,10.181 14.766,11.420 15.108 C 11.784 15.209,11.881 15.219,12.500 15.219 C 13.119 15.219,13.215 15.209,13.576 15.109 C 14.820 14.763,15.875 13.932,16.862 12.520 C 17.349 11.823,17.913 11.287,18.441 11.019 C 18.735 10.870,19.186 10.760,19.500 10.760 C 20.408 10.760,21.229 11.293,22.089 12.442 C 22.408 12.868,22.602 12.980,23.019 12.980 C 23.254 12.980,23.331 12.962,23.489 12.869 C 23.993 12.573,24.141 11.963,23.832 11.453 C 23.478 10.868,22.721 10.062,22.132 9.643 C 21.682 9.323,21.055 9.021,20.573 8.891 C 20.221 8.797,20.109 8.786,19.500 8.786 C 18.891 8.786,18.779 8.797,18.427 8.891 C 18.211 8.949,17.847 9.089,17.619 9.200 C 16.657 9.673,15.954 10.324,15.088 11.548 C 13.489 13.808,11.511 13.808,9.912 11.548 C 9.049 10.329,8.340 9.671,7.381 9.200 C 6.788 8.909,6.317 8.796,5.620 8.777 C 5.249 8.767,4.962 8.781,4.769 8.817 M4.769 14.817 C 3.827 14.997,2.944 15.476,2.183 16.220 C 1.815 16.580,1.366 17.125,1.168 17.453 C 0.859 17.963,1.007 18.573,1.511 18.869 C 1.669 18.962,1.746 18.980,1.981 18.980 C 2.398 18.980,2.592 18.868,2.911 18.442 C 3.310 17.909,3.581 17.620,3.927 17.360 C 4.321 17.063,4.544 16.947,4.926 16.841 C 6.039 16.532,7.157 17.117,8.138 18.520 C 9.127 19.935,10.181 20.766,11.420 21.108 C 11.784 21.209,11.881 21.219,12.500 21.219 C 13.119 21.219,13.215 21.209,13.576 21.109 C 14.820 20.763,15.875 19.932,16.862 18.520 C 17.349 17.823,17.913 17.287,18.441 17.019 C 18.735 16.870,19.186 16.760,19.500 16.760 C 20.408 16.760,21.229 17.293,22.089 18.442 C 22.408 18.868,22.602 18.980,23.019 18.980 C 23.254 18.980,23.331 18.962,23.489 18.869 C 23.993 18.573,24.141 17.963,23.832 17.453 C 23.478 16.868,22.721 16.062,22.132 15.643 C 21.682 15.323,21.055 15.021,20.573 14.891 C 20.221 14.797,20.109 14.786,19.500 14.786 C 18.891 14.786,18.779 14.797,18.427 14.891 C 18.211 14.949,17.847 15.089,17.619 15.200 C 16.657 15.673,15.954 16.324,15.088 17.548 C 13.489 19.808,11.511 19.808,9.912 17.548 C 9.049 16.329,8.340 15.671,7.381 15.200 C 6.788 14.909,6.317 14.796,5.620 14.777 C 5.249 14.767,4.962 14.781,4.769 14.817 " stroke="none" fill-rule="evenodd" fill="black"></path></svg>