<svg viewBox="0 0 24 24" xmlns="http://www.w3.org/2000/svg" fill="none" stroke="#000000" stroke-width="2" stroke-linecap="round" stroke-linejoin="round"><path d="M1.695 1.057 C 1.466 1.129,1.256 1.299,1.128 1.516 L 1.020 1.700 1.020 6.000 L 1.020 10.300 1.131 10.489 C 1.256 10.702,1.449 10.864,1.670 10.943 C 1.892 11.022,10.108 11.022,10.330 10.943 C 10.551 10.864,10.744 10.702,10.869 10.489 L 10.980 10.300 10.980 6.000 L 10.980 1.700 10.872 1.516 C 10.740 1.293,10.533 1.128,10.290 1.055 C 10.029 0.976,1.946 0.979,1.695 1.057 M13.695 1.057 C 13.466 1.129,13.256 1.299,13.128 1.516 L 13.020 1.700 13.020 6.000 L 13.020 10.300 13.131 10.489 C 13.256 10.702,13.449 10.864,13.670 10.943 C 13.892 11.022,22.108 11.022,22.330 10.943 C 22.551 10.864,22.744 10.702,22.869 10.489 L 22.980 10.300 22.980 6.000 L 22.980 1.700 22.872 1.516 C 22.740 1.293,22.533 1.128,22.290 1.055 C 22.029 0.976,13.946 0.979,13.695 1.057 M9.000 6.000 L 9.000 9.000 6.000 9.000 L 3.000 9.000 3.000 6.000 L 3.000 3.000 6.000 3.000 L 9.000 3.000 9.000 6.000 M21.000 6.000 L 21.000 9.000 18.000 9.000 L 15.000 9.000 15.000 6.000 L 15.000 3.000 18.000 3.000 L 21.000 3.000 21.000 6.000 M1.695 13.057 C 1.466 13.129,1.256 13.299,1.128 13.516 L 1.020 13.700 1.020 18.000 L 1.020 22.300 1.131 22.489 C 1.256 22.702,1.449 22.864,1.670 22.943 C 1.892 23.022,10.108 23.022,10.330 22.943 C 10.551 22.864,10.744 22.702,10.869 22.489 L 10.980 22.300 10.980 18.000 L 10.980 13.700 10.872 13.516 C 10.740 13.293,10.533 13.128,10.290 13.055 C 10.029 12.976,1.946 12.979,1.695 13.057 M13.695 13.057 C 13.466 13.129,13.256 13.299,13.128 13.516 L 13.020 13.700 13.020 18.000 L 13.020 22.300 13.131 22.489 C 13.256 22.702,13.449 22.864,13.670 22.943 C 13.892 23.022,22.108 23.022,22.330 22.943 C 22.551 22.864,22.744 22.702,22.869 22.489 L 22.980 22.300 22.980 18.000 L 22.980 13.700 22.872 13.516 C 22.740 13.293,22.533 13.128,22.290 13.055 C 22.029 12.976,13.946 12.979,13.695 13.057 M9.000 18.000 L 9.000 21.000 6.000 21.000 L 3.000 21.000 3.000 18.000 L 3.000 15.000 6.000 15.000 L 9.000 15.000 9.000 18.000 M21.000 18.000 L 21.000 21.000 18.000 21.000 L 15.000 21.000 15.000 18.000 L 15.000 15.000 18.000 15.000 L 21.000 15.000 21.000 18.000 " stroke="none" fill="black" fill-rule="evenodd"></path></svg>