<svg viewBox="0 0 24 24" xmlns="http://www.w3.org/2000/svg" fill="none" stroke="#000000" stroke-width="2" stroke-linecap="round" stroke-linejoin="round"><path d="M11.280 1.023 C 11.203 1.032,10.951 1.059,10.720 1.083 C 8.832 1.283,6.991 2.023,5.360 3.235 C 4.751 3.688,3.684 4.755,3.226 5.367 C 0.737 8.702,0.304 13.012,2.081 16.748 C 3.887 20.545,7.781 23.000,12.000 23.000 C 17.303 23.000,21.883 19.174,22.820 13.962 C 23.368 10.918,22.641 7.869,20.770 5.363 C 20.316 4.755,19.247 3.686,18.640 3.235 C 17.045 2.049,15.365 1.360,13.423 1.096 C 13.000 1.038,11.574 0.990,11.280 1.023 M11.000 7.330 L 11.000 11.580 7.986 14.594 L 4.972 17.608 4.831 17.434 C 4.383 16.882,3.785 15.773,3.508 14.980 C 3.331 14.472,3.184 13.867,3.094 13.280 C 2.997 12.646,2.997 11.354,3.094 10.720 C 3.494 8.105,4.917 5.885,7.120 4.440 C 7.944 3.900,9.191 3.386,10.120 3.205 C 10.351 3.160,10.576 3.115,10.620 3.106 C 10.664 3.097,10.768 3.087,10.850 3.085 L 11.000 3.080 11.000 7.330 M13.889 3.203 C 16.528 3.745,18.884 5.592,20.080 8.060 C 20.720 9.379,20.977 10.507,20.977 12.000 C 20.977 13.135,20.838 13.987,20.492 14.980 C 20.215 15.773,19.617 16.882,19.169 17.434 L 19.028 17.608 16.014 14.594 L 13.000 11.580 13.000 7.324 L 13.000 3.069 13.239 3.094 C 13.370 3.107,13.662 3.156,13.889 3.203 M11.000 17.693 L 11.000 20.947 10.750 20.914 C 9.645 20.768,8.366 20.314,7.361 19.711 C 7.096 19.552,6.531 19.164,6.402 19.053 C 6.386 19.039,10.961 14.440,10.990 14.440 C 10.995 14.440,11.000 15.904,11.000 17.693 M17.599 19.040 C 17.597 19.076,16.989 19.500,16.635 19.713 C 15.642 20.311,14.350 20.769,13.250 20.914 L 13.000 20.947 13.000 17.684 L 13.000 14.420 15.300 16.720 C 16.565 17.985,17.600 19.029,17.599 19.040 " stroke="none" fill="black" fill-rule="evenodd"></path></svg>