<svg viewBox="0 0 24 24" xmlns="http://www.w3.org/2000/svg" fill="none" stroke="#000000" stroke-width="2" stroke-linecap="round" stroke-linejoin="round"><path d="M22.660 0.066 C 22.470 0.123,21.878 0.708,11.347 11.233 C 4.792 17.785,0.191 22.414,0.127 22.520 C 0.036 22.672,0.020 22.746,0.020 23.000 C 0.020 23.257,0.036 23.327,0.133 23.492 C 0.263 23.714,0.502 23.901,0.736 23.965 C 0.938 24.019,1.266 23.989,1.445 23.899 C 1.519 23.862,2.996 22.418,4.726 20.690 L 7.872 17.549 8.366 17.966 C 9.020 18.519,9.591 18.953,10.197 19.358 C 13.070 21.281,16.090 22.427,19.360 22.837 C 19.857 22.900,20.047 22.907,20.315 22.877 C 21.374 22.756,22.291 22.097,22.716 21.154 C 22.987 20.550,22.980 20.628,22.980 18.380 C 22.980 16.353,22.979 16.338,22.886 16.040 C 22.586 15.079,21.875 14.338,20.953 14.026 C 20.850 13.991,20.544 13.926,20.273 13.880 C 19.319 13.721,19.020 13.646,18.000 13.311 C 17.425 13.122,17.345 13.106,16.898 13.089 C 16.492 13.074,16.360 13.085,16.058 13.160 C 15.412 13.322,15.073 13.532,14.392 14.192 L 13.922 14.649 13.425 14.300 C 13.152 14.108,12.748 13.803,12.527 13.622 L 12.126 13.293 17.946 7.477 C 21.323 4.101,23.810 1.584,23.873 1.480 C 23.964 1.327,23.980 1.254,23.980 1.000 C 23.980 0.746,23.963 0.672,23.872 0.516 C 23.740 0.293,23.533 0.128,23.290 0.055 C 23.062 -0.014,22.915 -0.011,22.660 0.066 M3.620 1.043 C 2.712 1.195,1.886 1.791,1.464 2.599 C 1.126 3.246,1.057 3.829,1.197 4.840 C 1.481 6.899,2.053 8.867,2.911 10.741 C 3.395 11.798,4.224 13.234,4.516 13.521 C 5.067 14.062,5.994 13.779,6.164 13.017 C 6.236 12.696,6.179 12.523,5.782 11.860 C 4.723 10.092,4.036 8.466,3.585 6.660 C 3.311 5.560,3.079 4.086,3.135 3.793 C 3.195 3.474,3.516 3.129,3.835 3.041 C 4.032 2.986,7.212 2.987,7.409 3.042 C 7.612 3.098,7.881 3.311,7.987 3.500 C 8.037 3.589,8.112 3.861,8.162 4.138 C 8.306 4.933,8.465 5.559,8.705 6.268 C 8.975 7.070,8.999 7.311,8.840 7.609 C 8.784 7.714,8.398 8.153,7.971 8.600 C 7.291 9.310,7.195 9.426,7.141 9.608 C 7.065 9.866,7.065 9.934,7.143 10.197 C 7.228 10.483,7.462 10.733,7.745 10.839 C 8.008 10.937,8.119 10.940,8.403 10.856 C 8.604 10.797,8.674 10.737,9.333 10.066 C 10.389 8.991,10.586 8.730,10.783 8.152 C 11.046 7.378,11.015 6.894,10.629 5.720 C 10.389 4.991,10.285 4.571,10.082 3.513 C 9.945 2.795,9.709 2.344,9.217 1.860 C 8.776 1.425,8.274 1.162,7.682 1.057 C 7.338 0.995,3.973 0.984,3.620 1.043 M10.995 14.953 C 11.386 15.297,12.035 15.787,12.580 16.149 C 13.668 16.874,13.952 16.987,14.378 16.863 C 14.604 16.797,14.656 16.754,15.438 15.985 C 16.324 15.113,16.373 15.080,16.787 15.080 C 16.907 15.080,17.147 15.135,17.402 15.221 C 18.279 15.518,18.951 15.687,19.852 15.837 C 20.145 15.886,20.387 15.951,20.490 16.008 C 20.691 16.119,20.902 16.386,20.961 16.602 C 20.989 16.706,20.999 17.347,20.992 18.470 C 20.980 20.135,20.978 20.184,20.894 20.340 C 20.707 20.685,20.388 20.886,20.023 20.888 C 19.598 20.890,18.149 20.640,17.280 20.415 C 14.848 19.783,12.566 18.676,10.540 17.146 C 10.018 16.751,9.320 16.169,9.320 16.127 C 9.320 16.100,10.687 14.720,10.714 14.720 C 10.723 14.720,10.849 14.825,10.995 14.953 " stroke="none" fill-rule="evenodd" fill="black"></path></svg>