<svg viewBox="0 0 24 24" xmlns="http://www.w3.org/2000/svg" fill="none" stroke="#000000" stroke-width="2" stroke-linecap="round" stroke-linejoin="round"><path d="M11.780 3.039 C 11.547 3.099,11.439 3.159,11.298 3.309 C 11.219 3.392,10.098 5.152,8.806 7.220 L 6.457 10.980 4.099 11.000 C 2.334 11.015,1.712 11.033,1.627 11.070 C 1.428 11.158,1.239 11.328,1.128 11.516 L 1.020 11.700 1.008 12.908 C 1.000 13.666,1.011 14.174,1.038 14.272 C 1.099 14.498,1.288 14.738,1.508 14.867 L 1.700 14.980 4.079 15.000 L 6.457 15.020 8.805 18.780 C 10.099 20.851,11.226 22.614,11.315 22.706 C 11.606 23.003,11.576 23.000,14.000 23.000 C 16.427 23.000,16.399 23.003,16.701 22.701 C 16.877 22.525,17.000 22.242,17.000 22.013 C 17.000 21.914,15.425 15.499,15.296 15.070 C 15.276 15.004,15.393 15.000,17.370 15.000 L 19.466 15.000 20.368 16.350 C 20.889 17.130,21.324 17.739,21.397 17.792 C 21.659 17.984,21.778 18.000,22.925 18.000 L 24.000 18.000 24.000 16.380 L 24.000 14.759 23.560 13.880 L 23.120 13.000 23.560 12.120 L 24.000 11.241 24.000 9.620 L 24.000 8.000 22.970 8.001 C 22.404 8.002,21.859 8.020,21.760 8.043 C 21.404 8.124,21.328 8.212,20.368 9.649 L 19.466 11.000 17.370 11.000 C 15.393 11.000,15.276 10.996,15.296 10.930 C 15.307 10.892,15.697 9.339,16.162 7.480 C 17.090 3.767,17.074 3.861,16.865 3.504 C 16.809 3.410,16.698 3.282,16.618 3.221 C 16.332 3.003,16.289 3.000,14.004 3.004 C 12.847 3.006,11.846 3.022,11.780 3.039 M14.704 5.070 C 14.693 5.109,14.303 6.661,13.838 8.520 C 12.907 12.244,12.925 12.137,13.140 12.504 C 13.234 12.663,13.519 12.920,13.603 12.920 C 13.621 12.920,13.685 12.940,13.747 12.964 L 13.860 13.008 13.695 13.059 C 13.328 13.170,13.051 13.506,13.014 13.888 C 12.996 14.071,13.110 14.567,13.838 17.480 C 14.303 19.339,14.693 20.892,14.704 20.931 C 14.725 20.997,14.662 21.001,13.634 20.991 L 12.543 20.980 10.194 17.220 C 8.902 15.152,7.781 13.392,7.702 13.309 C 7.559 13.157,7.443 13.094,7.220 13.042 C 7.102 13.015,7.103 13.014,7.308 12.945 C 7.426 12.905,7.581 12.811,7.668 12.727 C 7.754 12.642,8.768 11.061,10.018 9.059 C 11.226 7.124,12.293 5.419,12.387 5.270 L 12.559 5.000 13.642 5.000 C 14.655 5.000,14.724 5.005,14.704 5.070 M21.429 11.905 C 21.032 12.705,21.020 12.737,21.020 13.000 C 21.020 13.263,21.032 13.295,21.433 14.105 C 21.661 14.564,21.829 14.922,21.809 14.900 C 21.788 14.878,21.536 14.508,21.248 14.077 C 20.697 13.253,20.564 13.114,20.260 13.049 L 20.100 13.015 20.260 12.963 C 20.593 12.856,20.706 12.736,21.271 11.892 C 21.570 11.445,21.820 11.080,21.826 11.080 C 21.833 11.080,21.654 11.451,21.429 11.905 " stroke="none" fill-rule="evenodd" fill="black"></path></svg>