<svg viewBox="0 0 24 24" xmlns="http://www.w3.org/2000/svg" fill="none" stroke="#000000" stroke-width="2" stroke-linecap="round" stroke-linejoin="round"><path d="M11.385 1.043 C 9.248 1.339,7.709 2.950,7.525 5.085 C 7.489 5.502,7.520 6.108,7.594 6.435 L 7.634 6.611 7.285 6.955 C 6.212 8.015,5.639 9.318,5.523 10.956 C 5.425 12.358,5.715 13.579,6.394 14.620 L 6.550 14.860 6.181 15.245 C 5.091 16.381,4.515 17.840,4.515 19.460 C 4.516 20.390,4.708 21.116,5.150 21.851 C 5.635 22.657,6.198 23.214,7.096 23.777 L 7.452 24.000 12.000 24.000 L 16.548 24.000 16.904 23.777 C 17.802 23.214,18.365 22.657,18.850 21.851 C 19.292 21.116,19.484 20.390,19.485 19.460 C 19.485 17.838,18.908 16.380,17.816 15.242 L 17.444 14.855 17.604 14.617 C 18.271 13.629,18.575 12.359,18.477 10.968 C 18.434 10.358,18.390 10.099,18.235 9.544 C 17.950 8.525,17.461 7.693,16.715 6.955 L 16.366 6.611 16.406 6.435 C 16.480 6.108,16.511 5.502,16.475 5.085 C 16.302 3.072,14.914 1.508,12.940 1.101 C 12.551 1.020,11.759 0.991,11.385 1.043 M12.760 3.102 C 13.603 3.357,14.223 4.014,14.423 4.864 C 14.528 5.308,14.485 5.992,14.321 6.498 C 14.091 7.203,14.187 7.477,14.842 7.981 C 15.728 8.664,16.234 9.510,16.424 10.625 C 16.507 11.115,16.483 12.169,16.380 12.540 C 16.224 13.097,15.917 13.615,15.423 14.154 C 15.074 14.534,15.023 14.639,15.021 14.981 C 15.019 15.398,15.130 15.588,15.573 15.927 C 16.212 16.416,16.525 16.733,16.822 17.189 C 17.304 17.930,17.509 18.697,17.469 19.610 C 17.437 20.344,17.231 20.833,16.730 21.365 C 16.350 21.768,16.008 22.011,15.420 22.299 C 14.382 22.806,13.509 22.980,12.000 22.980 C 10.491 22.980,9.618 22.806,8.580 22.299 C 7.566 21.803,6.929 21.161,6.636 20.336 C 6.528 20.032,6.488 19.251,6.558 18.814 C 6.747 17.646,7.294 16.788,8.369 15.974 C 8.875 15.590,8.980 15.422,8.979 15.000 C 8.978 14.637,8.933 14.542,8.577 14.154 C 8.083 13.615,7.776 13.097,7.620 12.540 C 7.517 12.169,7.493 11.115,7.576 10.625 C 7.766 9.510,8.272 8.664,9.158 7.981 C 9.813 7.477,9.909 7.203,9.679 6.498 C 9.515 5.992,9.472 5.308,9.577 4.864 C 9.804 3.898,10.586 3.180,11.580 3.025 C 11.814 2.989,12.542 3.037,12.760 3.102 M8.695 11.055 C 8.464 11.130,8.255 11.300,8.128 11.516 C 8.037 11.672,8.020 11.746,8.020 12.000 C 8.020 12.257,8.036 12.327,8.133 12.492 C 8.651 13.374,9.998 13.018,9.998 12.000 C 9.998 11.623,9.792 11.281,9.463 11.112 C 9.265 11.010,8.911 10.984,8.695 11.055 M14.695 11.055 C 14.464 11.130,14.255 11.300,14.128 11.516 C 14.037 11.672,14.020 11.746,14.020 12.000 C 14.020 12.257,14.036 12.327,14.133 12.492 C 14.651 13.374,15.998 13.018,15.998 12.000 C 15.998 11.623,15.792 11.281,15.463 11.112 C 15.265 11.010,14.911 10.984,14.695 11.055 M9.670 15.061 C 9.448 15.142,9.250 15.309,9.128 15.516 C 9.037 15.672,9.020 15.746,9.020 16.000 C 9.020 16.380,9.123 16.571,9.506 16.898 C 10.069 17.379,10.704 17.738,11.280 17.903 C 11.639 18.006,12.361 18.006,12.720 17.903 C 13.495 17.681,14.595 16.954,14.874 16.481 C 14.963 16.329,14.980 16.253,14.980 16.000 C 14.980 15.746,14.963 15.672,14.872 15.516 C 14.747 15.303,14.550 15.141,14.316 15.058 C 13.955 14.931,13.623 15.016,13.260 15.327 C 12.797 15.725,12.281 16.000,12.000 16.000 C 11.719 16.000,11.203 15.725,10.740 15.327 C 10.379 15.017,10.027 14.930,9.670 15.061 " stroke="none" fill-rule="evenodd" fill="black"></path></svg>