<svg viewBox="0 0 24 24" xmlns="http://www.w3.org/2000/svg" fill="none" stroke="#000000" stroke-width="2" stroke-linecap="round" stroke-linejoin="round"><path d="M11.400 3.044 C 9.761 3.229,8.261 4.290,7.526 5.785 C 7.333 6.177,7.187 6.599,7.093 7.040 C 7.025 7.355,7.020 7.651,7.020 11.000 C 7.020 14.349,7.025 14.645,7.093 14.960 C 7.526 16.984,9.016 18.474,11.040 18.907 C 11.511 19.008,12.489 19.008,12.960 18.907 C 14.488 18.580,15.748 17.630,16.433 16.288 C 16.662 15.839,16.805 15.439,16.907 14.960 C 16.975 14.645,16.980 14.349,16.980 11.000 C 16.980 7.651,16.975 7.355,16.907 7.040 C 16.576 5.491,15.600 4.219,14.213 3.525 C 13.352 3.095,12.397 2.932,11.400 3.044 M12.861 5.129 C 13.803 5.404,14.582 6.182,14.876 7.139 C 14.969 7.442,14.975 7.524,14.988 8.620 L 15.002 9.780 14.919 9.600 C 14.707 9.143,14.253 8.922,13.767 9.038 C 12.894 9.248,12.730 10.410,13.508 10.867 C 13.673 10.964,13.742 10.980,14.000 10.979 C 14.450 10.978,14.735 10.798,14.918 10.400 L 15.001 10.220 14.989 12.380 L 14.977 14.540 14.877 14.861 C 14.576 15.828,13.818 16.582,12.840 16.886 C 12.406 17.021,11.594 17.021,11.160 16.886 C 10.182 16.582,9.424 15.828,9.123 14.861 L 9.023 14.540 9.012 12.360 C 9.003 10.477,9.009 10.200,9.056 10.330 C 9.137 10.553,9.299 10.744,9.511 10.869 C 9.673 10.964,9.743 10.980,10.000 10.979 C 10.228 10.978,10.338 10.958,10.460 10.893 C 11.318 10.435,11.100 9.145,10.142 9.014 C 9.680 8.951,9.218 9.232,9.053 9.675 C 9.007 9.801,9.001 9.662,9.013 8.640 C 9.025 7.521,9.031 7.444,9.124 7.139 C 9.458 6.052,10.371 5.245,11.499 5.040 C 11.832 4.980,12.500 5.023,12.861 5.129 M11.695 11.057 C 11.466 11.129,11.256 11.299,11.128 11.516 C 11.036 11.672,11.020 11.745,11.021 12.000 C 11.022 12.332,11.101 12.533,11.306 12.728 C 11.785 13.181,12.580 13.046,12.893 12.460 C 13.025 12.211,13.015 11.760,12.872 11.516 C 12.628 11.101,12.150 10.915,11.695 11.057 " stroke="none" fill-rule="evenodd" fill="black"></path></svg>