<svg viewBox="0 0 24 24" xmlns="http://www.w3.org/2000/svg" fill="none" stroke="#000000" stroke-width="2" stroke-linecap="round" stroke-linejoin="round"><path d="M7.695 1.057 C 7.466 1.129,7.256 1.299,7.128 1.516 L 7.020 1.700 6.997 4.640 C 6.977 7.178,6.965 7.618,6.908 7.855 C 6.593 9.170,5.712 10.205,4.479 10.711 C 4.120 10.859,3.460 11.000,3.130 11.000 C 2.667 11.000,2.329 11.174,2.128 11.516 L 2.020 11.700 2.020 13.000 L 2.020 14.300 2.131 14.489 C 2.256 14.702,2.449 14.864,2.670 14.943 C 2.791 14.986,3.598 14.997,6.909 14.998 L 10.998 15.000 11.009 18.653 L 11.020 22.306 11.141 22.503 C 11.543 23.156,12.457 23.156,12.859 22.503 L 12.980 22.306 12.991 18.653 L 13.002 15.000 17.091 14.998 C 20.402 14.997,21.209 14.986,21.330 14.943 C 21.551 14.864,21.744 14.702,21.869 14.489 L 21.980 14.300 21.980 13.000 L 21.980 11.700 21.872 11.516 C 21.671 11.174,21.333 11.000,20.870 11.000 C 20.540 11.000,19.880 10.859,19.521 10.711 C 18.288 10.205,17.407 9.170,17.092 7.855 C 17.035 7.618,17.023 7.178,17.003 4.640 L 16.980 1.700 16.871 1.514 C 16.479 0.848,15.521 0.848,15.129 1.514 L 15.020 1.700 15.020 4.720 C 15.020 7.728,15.020 7.742,15.113 8.160 C 15.447 9.680,16.236 10.919,17.443 11.820 C 18.146 12.344,18.882 12.668,19.890 12.897 C 19.951 12.910,20.000 12.939,20.000 12.961 C 20.000 12.986,17.203 13.000,12.000 13.000 C 6.797 13.000,4.000 12.986,4.000 12.961 C 4.000 12.939,4.049 12.910,4.110 12.897 C 5.457 12.591,6.393 12.087,7.269 11.195 C 8.107 10.342,8.618 9.384,8.887 8.160 C 8.980 7.742,8.980 7.728,8.980 4.720 L 8.980 1.700 8.872 1.516 C 8.628 1.101,8.150 0.915,7.695 1.057 " stroke="none" fill-rule="evenodd" fill="black"></path></svg>