<svg viewBox="0 0 24 24" xmlns="http://www.w3.org/2000/svg" fill="none" stroke="#000000" stroke-width="2" stroke-linecap="round" stroke-linejoin="round"><path d="M11.808 2.581 C 10.875 2.784,9.969 3.601,9.668 4.510 C 9.509 4.992,9.481 5.386,9.480 7.142 L 9.480 8.744 9.375 8.956 C 9.234 9.238,8.982 9.421,8.657 9.478 C 8.512 9.503,7.741 9.520,6.757 9.521 C 4.925 9.521,4.770 9.537,4.272 9.766 C 3.531 10.108,2.907 10.786,2.668 11.510 C 2.294 12.642,2.571 13.816,3.404 14.630 C 3.839 15.054,4.177 15.249,4.760 15.410 C 5.037 15.487,5.204 15.495,6.943 15.516 L 8.827 15.540 9.022 15.661 C 9.143 15.736,9.264 15.857,9.339 15.978 L 9.460 16.173 9.484 18.057 C 9.505 19.796,9.513 19.963,9.590 20.240 C 9.751 20.823,9.946 21.161,10.370 21.596 C 11.023 22.264,11.910 22.580,12.834 22.476 C 13.536 22.397,14.133 22.104,14.630 21.596 C 15.054 21.161,15.249 20.823,15.410 20.240 C 15.487 19.963,15.495 19.796,15.516 18.057 L 15.540 16.173 15.661 15.978 C 15.736 15.857,15.857 15.736,15.978 15.661 L 16.173 15.540 18.057 15.516 C 19.796 15.495,19.963 15.487,20.240 15.410 C 20.823 15.249,21.161 15.054,21.596 14.630 C 22.429 13.816,22.706 12.642,22.332 11.510 C 22.093 10.786,21.469 10.108,20.728 9.766 C 20.230 9.537,20.075 9.521,18.243 9.521 C 17.259 9.520,16.488 9.503,16.343 9.478 C 16.018 9.421,15.766 9.238,15.625 8.956 L 15.520 8.744 15.520 7.142 C 15.519 5.386,15.491 4.992,15.332 4.510 C 15.028 3.591,14.122 2.780,13.174 2.579 C 12.834 2.507,12.143 2.508,11.808 2.581 M13.023 4.662 C 13.143 4.736,13.264 4.857,13.339 4.978 L 13.460 5.173 13.484 7.057 C 13.505 8.796,13.513 8.963,13.590 9.240 C 13.751 9.823,13.947 10.163,14.370 10.594 C 14.796 11.029,15.167 11.246,15.760 11.410 C 16.037 11.487,16.204 11.495,17.943 11.516 L 19.827 11.540 20.022 11.661 C 20.607 12.023,20.641 12.897,20.086 13.300 C 19.959 13.393,19.823 13.449,19.657 13.478 C 19.512 13.503,18.741 13.520,17.757 13.521 C 15.925 13.521,15.770 13.537,15.272 13.766 C 14.531 14.108,13.907 14.786,13.668 15.510 C 13.509 15.992,13.481 16.386,13.480 18.145 L 13.480 19.751 13.369 19.963 C 13.004 20.662,11.976 20.659,11.626 19.957 L 11.520 19.744 11.520 18.142 C 11.519 16.386,11.491 15.992,11.332 15.510 C 11.093 14.786,10.469 14.108,9.728 13.766 C 9.230 13.537,9.075 13.521,7.243 13.521 C 6.259 13.520,5.488 13.503,5.343 13.478 C 5.011 13.420,4.763 13.237,4.620 12.943 C 4.526 12.751,4.513 12.683,4.526 12.446 C 4.546 12.093,4.694 11.837,4.978 11.661 L 5.173 11.540 7.057 11.516 C 8.796 11.495,8.963 11.487,9.240 11.410 C 9.823 11.249,10.161 11.054,10.596 10.630 C 11.109 10.129,11.396 9.538,11.479 8.814 C 11.501 8.619,11.519 7.744,11.520 6.869 C 11.520 5.151,11.521 5.144,11.740 4.856 C 11.794 4.786,11.933 4.680,12.049 4.622 C 12.230 4.530,12.300 4.517,12.544 4.528 C 12.776 4.539,12.863 4.563,13.023 4.662 " stroke="none" fill-rule="evenodd" fill="black"></path></svg>