<svg viewBox="0 0 24 24" xmlns="http://www.w3.org/2000/svg" fill="none" stroke="#000000" stroke-width="2" stroke-linecap="round" stroke-linejoin="round"><path d="M11.600 1.083 C 11.501 1.128,11.369 1.213,11.306 1.272 C 11.231 1.343,9.460 4.841,6.107 11.540 L 1.023 21.700 1.021 22.000 C 1.020 22.257,1.036 22.327,1.131 22.489 C 1.256 22.702,1.449 22.864,1.670 22.943 C 1.794 22.987,3.597 22.997,11.983 22.998 C 21.340 23.000,22.161 22.995,22.340 22.934 C 22.750 22.794,23.032 22.347,22.990 21.906 C 22.973 21.733,22.179 20.117,17.915 11.583 C 15.135 6.019,12.806 1.403,12.740 1.327 C 12.478 1.022,11.974 0.914,11.600 1.083 M11.000 13.640 L 11.000 21.000 7.320 21.000 C 5.296 21.000,3.640 20.991,3.640 20.980 C 3.640 20.954,10.977 6.280,10.990 6.280 C 10.995 6.280,11.000 9.592,11.000 13.640 M20.358 20.970 C 20.359 20.987,18.704 21.000,16.680 21.000 L 13.000 21.000 13.002 13.630 L 13.004 6.260 16.680 13.600 C 18.702 17.637,20.357 20.953,20.358 20.970 " stroke="none" fill-rule="evenodd" fill="black"></path></svg>