<svg viewBox="0 0 24 24" xmlns="http://www.w3.org/2000/svg" fill="none" stroke="#000000" stroke-width="2" stroke-linecap="round" stroke-linejoin="round"><path d="M4.625 3.976 C 4.396 4.062,4.245 4.183,3.899 4.560 C 2.688 5.881,1.823 7.467,1.361 9.215 C 0.671 11.820,0.995 14.688,2.248 17.080 C 2.852 18.231,4.024 19.730,4.503 19.961 C 4.860 20.134,5.345 20.049,5.632 19.762 C 5.850 19.544,5.899 19.415,5.899 19.060 C 5.899 18.664,5.869 18.605,5.417 18.115 C 3.544 16.085,2.706 13.393,3.103 10.681 C 3.242 9.732,3.495 8.925,3.939 8.020 C 4.357 7.167,4.851 6.455,5.509 5.756 C 5.812 5.435,5.918 5.217,5.918 4.920 C 5.918 4.543,5.712 4.201,5.383 4.032 C 5.180 3.927,4.826 3.901,4.625 3.976 M18.800 3.957 C 18.365 4.089,18.082 4.470,18.082 4.920 C 18.082 5.217,18.188 5.435,18.491 5.756 C 19.581 6.914,20.371 8.353,20.734 9.843 C 21.372 12.465,20.807 15.244,19.201 17.378 C 19.051 17.577,18.771 17.911,18.578 18.120 C 18.168 18.565,18.082 18.727,18.082 19.060 C 18.082 19.625,18.511 20.048,19.084 20.048 C 19.419 20.048,19.617 19.937,19.994 19.539 C 22.009 17.410,23.085 14.570,22.986 11.640 C 22.897 8.988,21.889 6.515,20.102 4.560 C 19.761 4.188,19.547 4.022,19.325 3.961 C 19.159 3.915,18.945 3.913,18.800 3.957 M7.336 6.856 C 7.186 6.926,7.042 7.051,6.795 7.329 C 4.730 9.648,4.423 13.031,6.039 15.660 C 6.391 16.233,6.995 16.944,7.268 17.106 C 7.728 17.378,8.347 17.208,8.627 16.732 C 8.724 16.567,8.740 16.498,8.739 16.240 C 8.738 15.878,8.696 15.789,8.336 15.390 C 7.356 14.306,6.888 12.904,7.038 11.500 C 7.158 10.374,7.567 9.459,8.338 8.598 C 8.688 8.206,8.783 7.990,8.748 7.660 C 8.677 6.966,7.967 6.562,7.336 6.856 M15.935 6.817 C 15.706 6.889,15.496 7.059,15.368 7.276 C 15.276 7.432,15.260 7.505,15.261 7.760 C 15.262 8.122,15.304 8.211,15.664 8.610 C 16.644 9.694,17.112 11.095,16.963 12.500 C 16.843 13.622,16.428 14.546,15.653 15.412 C 15.312 15.794,15.218 16.012,15.252 16.340 C 15.306 16.864,15.717 17.238,16.240 17.239 C 16.596 17.240,16.812 17.113,17.205 16.671 C 18.117 15.647,18.702 14.404,18.926 13.020 C 18.954 12.844,18.977 12.385,18.977 12.000 C 18.977 11.615,18.954 11.156,18.926 10.980 C 18.689 9.512,18.033 8.181,17.049 7.173 C 16.821 6.939,16.729 6.874,16.557 6.823 C 16.306 6.748,16.158 6.747,15.935 6.817 M11.499 9.040 C 10.363 9.246,9.460 10.049,9.114 11.160 C 8.979 11.594,8.979 12.406,9.114 12.840 C 9.421 13.826,10.174 14.579,11.160 14.886 C 11.594 15.021,12.406 15.021,12.840 14.886 C 13.826 14.579,14.579 13.826,14.886 12.840 C 15.021 12.406,15.021 11.594,14.886 11.160 C 14.581 10.179,13.810 9.407,12.861 9.129 C 12.500 9.023,11.832 8.980,11.499 9.040 M12.310 11.061 C 12.688 11.173,13.000 11.598,13.000 12.001 C 13.000 12.331,12.784 12.696,12.484 12.872 C 12.328 12.963,12.254 12.980,12.000 12.980 C 11.746 12.980,11.672 12.963,11.516 12.872 C 10.935 12.530,10.833 11.774,11.304 11.303 C 11.583 11.024,11.916 10.944,12.310 11.061 " stroke="none" fill-rule="evenodd" fill="black"></path></svg>