<svg viewBox="0 0 24 24" xmlns="http://www.w3.org/2000/svg" fill="none" stroke="#000000" stroke-width="2" stroke-linecap="round" stroke-linejoin="round"><path d="M6.581 2.442 C 6.204 2.630,6.022 2.923,6.022 3.340 C 6.023 3.565,6.043 3.659,6.128 3.820 C 6.186 3.930,7.017 5.376,7.975 7.034 L 9.716 10.049 9.562 10.254 C 9.363 10.521,9.230 10.790,9.114 11.161 C 9.035 11.413,9.021 11.546,9.021 12.000 C 9.021 12.454,9.035 12.587,9.114 12.839 C 9.230 13.210,9.363 13.479,9.562 13.746 L 9.716 13.951 7.975 16.966 C 7.017 18.623,6.186 20.070,6.128 20.180 C 5.988 20.446,5.979 20.858,6.109 21.104 C 6.428 21.708,7.252 21.838,7.707 21.355 C 7.777 21.281,8.644 19.818,9.633 18.104 L 11.432 14.987 12.006 14.980 C 12.479 14.974,12.629 14.957,12.860 14.882 C 13.656 14.626,14.323 14.059,14.688 13.330 L 14.853 13.000 18.017 12.998 C 20.555 12.997,21.210 12.986,21.330 12.943 C 21.551 12.864,21.744 12.702,21.869 12.489 C 21.964 12.328,21.980 12.256,21.980 12.000 C 21.980 11.587,21.865 11.392,21.448 11.098 C 21.441 11.093,21.491 11.030,21.557 10.956 C 21.851 10.635,21.889 10.379,21.740 9.734 C 21.319 7.925,20.391 6.265,19.051 4.931 C 18.431 4.313,18.249 4.200,17.874 4.200 C 17.324 4.200,16.880 4.638,16.880 5.180 C 16.880 5.520,16.949 5.631,17.540 6.240 C 18.152 6.871,18.482 7.282,18.814 7.827 C 19.271 8.577,19.534 9.205,19.760 10.086 C 19.856 10.459,19.954 10.748,20.018 10.844 L 20.121 11.000 17.487 11.000 L 14.853 11.000 14.688 10.670 C 14.321 9.937,13.641 9.362,12.861 9.125 C 12.594 9.044,12.448 9.027,11.987 9.022 L 11.435 9.016 9.634 5.898 C 8.644 4.183,7.778 2.721,7.709 2.650 C 7.640 2.578,7.510 2.483,7.419 2.440 C 7.198 2.332,6.799 2.334,6.581 2.442 M2.695 11.057 C 2.466 11.129,2.256 11.299,2.128 11.516 C 2.024 11.694,2.020 11.719,2.023 12.280 C 2.034 13.990,2.604 15.880,3.551 17.340 C 4.170 18.294,4.390 18.504,4.817 18.548 C 5.155 18.583,5.382 18.502,5.621 18.262 C 5.841 18.042,5.920 17.852,5.920 17.544 C 5.920 17.298,5.845 17.129,5.564 16.742 C 4.609 15.425,4.154 14.148,4.025 12.425 C 3.975 11.756,3.960 11.667,3.867 11.508 C 3.628 11.101,3.146 10.916,2.695 11.057 " stroke="none" fill-rule="evenodd" fill="black"></path></svg>