<svg viewBox="0 0 24 24" xmlns="http://www.w3.org/2000/svg" fill="none" stroke="#000000" stroke-width="2" stroke-linecap="round" stroke-linejoin="round"><path d="M5.695 1.057 C 5.466 1.129,5.256 1.299,5.128 1.516 L 5.020 1.700 5.008 3.345 L 4.997 4.991 4.228 5.010 C 3.567 5.027,3.416 5.043,3.139 5.126 C 2.181 5.415,1.420 6.179,1.114 7.160 L 1.020 7.460 1.020 12.000 L 1.020 16.540 1.114 16.840 C 1.422 17.827,2.173 18.578,3.160 18.886 L 3.460 18.980 12.000 18.980 L 20.540 18.980 20.840 18.886 C 21.827 18.578,22.578 17.827,22.886 16.840 L 22.980 16.540 22.980 12.000 L 22.980 7.460 22.886 7.160 C 22.581 6.182,21.832 5.428,20.861 5.121 L 20.540 5.020 13.772 5.009 L 7.003 4.998 6.992 3.349 L 6.980 1.700 6.872 1.516 C 6.628 1.101,6.150 0.915,5.695 1.057 M20.310 7.061 C 20.589 7.144,20.856 7.411,20.939 7.690 C 20.992 7.867,21.000 8.441,21.000 12.001 C 21.000 16.458,21.007 16.319,20.779 16.618 C 20.718 16.698,20.585 16.813,20.484 16.872 L 20.300 16.980 12.000 16.980 L 3.700 16.980 3.516 16.872 C 3.303 16.747,3.141 16.550,3.058 16.316 C 2.969 16.062,2.971 7.992,3.061 7.690 C 3.140 7.421,3.412 7.143,3.673 7.063 C 3.833 7.014,5.030 7.005,11.983 7.003 C 19.144 7.000,20.130 7.007,20.310 7.061 M7.499 9.040 C 6.363 9.246,5.460 10.049,5.114 11.160 C 4.979 11.594,4.979 12.406,5.114 12.840 C 5.421 13.826,6.174 14.579,7.160 14.886 C 7.594 15.021,8.406 15.021,8.840 14.886 C 9.826 14.579,10.579 13.826,10.886 12.840 C 11.021 12.406,11.021 11.594,10.886 11.160 C 10.581 10.179,9.810 9.407,8.861 9.129 C 8.500 9.023,7.832 8.980,7.499 9.040 M8.310 11.061 C 8.688 11.173,9.000 11.598,9.000 12.001 C 9.000 12.331,8.784 12.696,8.484 12.872 C 8.328 12.963,8.254 12.980,8.000 12.980 C 7.746 12.980,7.672 12.963,7.516 12.872 C 6.935 12.530,6.833 11.774,7.304 11.303 C 7.583 11.024,7.916 10.944,8.310 11.061 M13.695 11.057 C 13.466 11.129,13.256 11.299,13.128 11.516 C 13.037 11.672,13.020 11.746,13.020 12.000 C 13.020 12.256,13.036 12.328,13.131 12.489 C 13.256 12.702,13.449 12.864,13.670 12.943 C 13.889 13.021,18.111 13.021,18.330 12.943 C 18.551 12.864,18.744 12.702,18.869 12.489 C 18.964 12.328,18.980 12.256,18.980 12.000 C 18.980 11.746,18.963 11.672,18.872 11.516 C 18.740 11.293,18.533 11.128,18.290 11.055 C 18.033 10.978,13.943 10.979,13.695 11.057 " stroke="none" fill="black" fill-rule="evenodd"></path></svg>