<svg viewBox="0 0 24 24" xmlns="http://www.w3.org/2000/svg" fill="none" stroke="#000000" stroke-width="2" stroke-linecap="round" stroke-linejoin="round"><path d="M3.689 1.059 C 3.474 1.126,3.273 1.278,3.162 1.456 C 3.115 1.532,2.784 2.473,2.425 3.547 L 1.773 5.500 0.886 5.511 L -0.000 5.522 -0.000 7.709 L -0.000 9.897 0.180 10.080 L 0.360 10.263 0.180 10.800 L 0.000 11.337 0.000 13.427 L 0.000 15.518 0.130 15.494 C 0.202 15.480,0.316 15.447,0.384 15.419 C 0.453 15.391,1.294 14.779,2.255 14.059 L 4.001 12.750 5.750 14.064 C 6.963 14.975,7.561 15.400,7.700 15.449 C 7.925 15.529,8.218 15.513,8.419 15.410 C 8.484 15.376,9.317 14.764,10.269 14.049 L 12.000 12.749 13.750 14.064 C 14.963 14.975,15.561 15.400,15.700 15.449 C 15.925 15.529,16.218 15.513,16.419 15.410 C 16.484 15.376,17.316 14.764,18.268 14.050 L 19.999 12.750 21.769 14.076 C 23.015 15.010,23.586 15.414,23.699 15.443 C 23.788 15.466,23.892 15.494,23.930 15.505 C 23.996 15.524,24.000 15.407,24.000 13.431 L 24.000 11.337 23.820 10.800 L 23.640 10.263 23.820 10.080 L 24.000 9.897 24.000 7.709 L 24.000 5.522 23.114 5.511 L 22.227 5.500 21.573 3.542 C 21.192 2.399,20.878 1.523,20.819 1.439 C 20.529 1.020,19.987 0.892,19.521 1.131 C 19.182 1.306,19.147 1.382,18.435 3.516 L 17.780 5.480 16.000 5.480 L 14.219 5.480 13.664 3.810 C 12.885 1.464,12.901 1.507,12.703 1.309 C 12.381 0.988,11.931 0.920,11.521 1.131 C 11.182 1.306,11.147 1.382,10.435 3.516 L 9.780 5.480 8.000 5.480 L 6.219 5.480 5.664 3.810 C 4.885 1.464,4.901 1.507,4.703 1.309 C 4.425 1.031,4.063 0.942,3.689 1.059 M4.276 6.010 C 4.416 6.434,4.573 6.864,4.625 6.968 C 4.767 7.252,5.061 7.447,5.420 7.498 C 5.609 7.524,5.645 7.551,6.090 7.992 C 6.349 8.249,6.560 8.477,6.560 8.500 C 6.560 8.523,6.360 8.739,6.116 8.981 C 5.392 9.696,5.374 9.802,5.775 10.991 C 5.918 11.415,6.013 11.748,5.987 11.733 C 5.961 11.717,5.616 11.462,5.220 11.166 C 4.824 10.870,4.442 10.603,4.371 10.574 C 4.206 10.505,3.794 10.505,3.629 10.574 C 3.558 10.603,3.176 10.870,2.780 11.166 C 2.384 11.462,2.039 11.717,2.013 11.733 C 1.987 11.748,2.082 11.415,2.225 10.991 C 2.391 10.495,2.486 10.149,2.489 10.020 C 2.500 9.623,2.467 9.577,1.410 8.513 L 0.429 7.527 1.584 7.513 C 2.838 7.499,2.817 7.502,3.151 7.253 C 3.329 7.119,3.428 6.906,3.724 6.010 C 3.864 5.587,3.988 5.240,4.000 5.240 C 4.012 5.240,4.136 5.587,4.276 6.010 M12.276 6.010 C 12.416 6.434,12.573 6.864,12.625 6.968 C 12.767 7.252,13.061 7.447,13.420 7.498 C 13.609 7.524,13.645 7.551,14.090 7.992 C 14.348 8.249,14.560 8.477,14.560 8.500 C 14.560 8.523,14.360 8.739,14.116 8.981 C 13.391 9.697,13.372 9.806,13.774 10.991 C 13.917 11.415,14.013 11.748,13.987 11.733 C 13.961 11.717,13.616 11.462,13.220 11.166 C 12.824 10.870,12.442 10.603,12.371 10.574 C 12.206 10.505,11.794 10.505,11.629 10.574 C 11.558 10.603,11.176 10.870,10.780 11.166 C 10.384 11.462,10.039 11.717,10.013 11.733 C 9.987 11.748,10.083 11.415,10.226 10.991 C 10.628 9.806,10.609 9.697,9.884 8.981 C 9.640 8.739,9.440 8.523,9.440 8.500 C 9.440 8.477,9.652 8.249,9.910 7.992 C 10.355 7.551,10.391 7.524,10.580 7.498 C 10.939 7.447,11.233 7.252,11.375 6.968 C 11.427 6.864,11.584 6.434,11.724 6.010 C 11.864 5.587,11.988 5.240,12.000 5.240 C 12.012 5.240,12.136 5.587,12.276 6.010 M20.276 6.010 C 20.572 6.906,20.671 7.119,20.849 7.253 C 21.183 7.502,21.162 7.499,22.416 7.513 L 23.571 7.527 22.590 8.513 C 21.533 9.577,21.500 9.623,21.511 10.020 C 21.514 10.149,21.609 10.495,21.775 10.991 C 21.918 11.415,22.013 11.748,21.987 11.733 C 21.961 11.717,21.616 11.462,21.220 11.166 C 20.824 10.870,20.442 10.603,20.371 10.574 C 20.206 10.505,19.794 10.505,19.629 10.574 C 19.558 10.603,19.176 10.870,18.780 11.166 C 18.384 11.462,18.039 11.717,18.013 11.733 C 17.987 11.748,18.082 11.415,18.225 10.991 C 18.626 9.802,18.608 9.696,17.884 8.981 C 17.640 8.739,17.440 8.523,17.440 8.500 C 17.440 8.477,17.652 8.249,17.910 7.992 C 18.355 7.551,18.391 7.524,18.580 7.498 C 18.939 7.447,19.233 7.252,19.375 6.968 C 19.427 6.864,19.584 6.434,19.724 6.010 C 19.864 5.587,19.988 5.240,20.000 5.240 C 20.012 5.240,20.136 5.587,20.276 6.010 M8.191 10.091 L 8.359 10.262 8.190 10.771 C 8.098 11.051,8.012 11.280,8.000 11.280 C 7.988 11.280,7.902 11.051,7.810 10.771 L 7.641 10.262 7.809 10.091 C 7.901 9.997,7.987 9.920,8.000 9.920 C 8.013 9.920,8.099 9.997,8.191 10.091 M16.191 10.091 L 16.359 10.262 16.190 10.771 C 16.098 11.051,16.012 11.280,16.000 11.280 C 15.988 11.280,15.902 11.051,15.810 10.771 L 15.641 10.262 15.809 10.091 C 15.901 9.997,15.987 9.920,16.000 9.920 C 16.013 9.920,16.099 9.997,16.191 10.091 " stroke="none" fill-rule="evenodd" fill="black"></path></svg>