<svg viewBox="0 0 24 24" xmlns="http://www.w3.org/2000/svg" fill="none" stroke="#000000" stroke-width="2" stroke-linecap="round" stroke-linejoin="round"><path d="M11.100 2.043 C 10.582 2.097,10.016 2.199,9.460 2.339 C 6.409 3.108,3.777 5.456,2.675 8.388 C 2.495 8.869,2.477 9.120,2.603 9.400 C 2.779 9.788,3.070 9.976,3.500 9.978 C 3.990 9.981,4.270 9.769,4.486 9.232 C 4.956 8.067,5.467 7.262,6.258 6.446 C 6.920 5.763,7.553 5.294,8.386 4.870 C 10.837 3.622,13.801 3.739,16.160 5.177 C 16.720 5.519,17.100 5.830,18.100 6.768 L 19.000 7.612 19.000 8.306 L 19.000 9.000 16.446 9.000 C 13.675 9.000,13.672 9.000,13.382 9.221 C 13.230 9.337,13.046 9.612,13.032 9.744 C 13.027 9.786,13.014 9.343,13.002 8.760 L 12.980 7.700 12.871 7.514 C 12.479 6.848,11.521 6.848,11.129 7.514 L 11.020 7.700 11.020 10.003 L 11.020 12.306 11.141 12.503 C 11.543 13.156,12.457 13.156,12.859 12.503 L 12.980 12.307 13.000 11.243 C 13.011 10.658,13.032 10.234,13.047 10.300 C 13.089 10.487,13.298 10.744,13.508 10.867 L 13.700 10.980 16.912 10.991 C 19.005 10.998,20.177 10.988,20.276 10.961 C 20.497 10.901,20.739 10.710,20.865 10.495 C 20.959 10.334,20.979 10.247,20.998 9.911 L 21.020 9.515 21.694 10.148 C 22.065 10.495,22.438 10.822,22.522 10.873 C 22.729 10.998,23.058 11.029,23.301 10.946 C 23.558 10.858,23.736 10.715,23.869 10.489 C 23.962 10.331,23.980 10.254,23.980 10.020 C 23.980 9.550,23.968 9.536,22.403 8.067 L 21.004 6.754 20.992 5.227 L 20.980 3.700 20.871 3.514 C 20.479 2.848,19.521 2.848,19.129 3.514 C 19.028 3.687,19.019 3.739,19.000 4.272 L 18.980 4.844 18.660 4.557 C 17.249 3.292,15.513 2.458,13.640 2.145 C 12.820 2.008,11.831 1.968,11.100 2.043 M0.689 13.056 C 0.452 13.134,0.262 13.289,0.131 13.511 C -0.016 13.762,-0.026 14.167,0.109 14.440 C 0.177 14.579,0.805 15.190,2.849 17.108 C 4.307 18.476,5.626 19.698,5.779 19.823 C 7.086 20.885,8.805 21.622,10.640 21.908 C 11.281 22.008,12.751 22.006,13.400 21.905 C 14.003 21.810,14.954 21.568,15.480 21.376 C 16.039 21.170,17.006 20.681,17.500 20.352 C 19.235 19.198,20.557 17.567,21.301 15.665 C 21.521 15.100,21.535 14.883,21.370 14.557 C 21.057 13.939,20.265 13.821,19.768 14.319 C 19.701 14.386,19.586 14.589,19.513 14.770 C 19.165 15.635,18.721 16.408,18.211 17.040 C 17.925 17.394,17.239 18.066,16.900 18.326 C 15.222 19.608,13.069 20.201,11.052 19.938 C 9.615 19.751,8.297 19.220,7.174 18.374 C 7.008 18.249,5.797 17.137,4.484 15.903 C 1.424 13.029,1.579 13.172,1.433 13.096 C 1.261 13.008,0.898 12.988,0.689 13.056 M11.695 15.055 C 11.464 15.130,11.255 15.300,11.128 15.516 C 11.037 15.672,11.020 15.746,11.020 16.000 C 11.020 16.257,11.036 16.327,11.133 16.492 C 11.651 17.374,12.998 17.018,12.998 16.000 C 12.998 15.623,12.792 15.281,12.463 15.112 C 12.265 15.010,11.911 14.984,11.695 15.055 " stroke="none" fill-rule="evenodd" fill="black"></path></svg>