<svg viewBox="0 0 24 24" xmlns="http://www.w3.org/2000/svg" fill="none" stroke="#000000" stroke-width="2" stroke-linecap="round" stroke-linejoin="round"><path d="M11.695 1.057 C 11.466 1.129,11.256 1.299,11.128 1.516 C 11.025 1.692,11.019 1.728,11.007 2.348 L 10.993 2.996 8.227 3.009 L 5.460 3.022 5.139 3.122 C 4.170 3.426,3.419 4.181,3.114 5.160 L 3.020 5.460 3.020 10.020 L 3.020 14.580 3.144 14.936 L 3.269 15.292 3.144 15.493 L 3.020 15.693 3.020 18.116 L 3.020 20.540 3.114 20.840 C 3.422 21.827,4.173 22.578,5.160 22.886 L 5.460 22.980 12.000 22.980 L 18.540 22.980 18.840 22.886 C 19.827 22.578,20.578 21.827,20.886 20.840 L 20.980 20.540 20.980 18.116 L 20.980 15.693 20.856 15.493 L 20.731 15.292 20.856 14.936 L 20.980 14.580 20.980 10.020 L 20.980 5.460 20.886 5.160 C 20.581 4.181,19.830 3.426,18.861 3.122 L 18.540 3.022 15.773 3.009 L 13.007 2.996 12.993 2.348 C 12.981 1.728,12.975 1.692,12.872 1.516 C 12.628 1.101,12.150 0.915,11.695 1.057 M18.310 5.061 C 18.589 5.144,18.856 5.411,18.939 5.690 C 18.992 5.867,19.000 6.441,19.000 10.001 C 19.000 14.458,19.007 14.319,18.779 14.618 C 18.718 14.698,18.585 14.813,18.484 14.872 L 18.300 14.980 12.000 14.980 L 5.700 14.980 5.516 14.872 C 5.415 14.813,5.282 14.698,5.221 14.618 C 4.993 14.319,5.000 14.458,5.000 10.001 C 5.000 5.359,4.983 5.623,5.304 5.303 C 5.623 4.983,5.120 5.006,11.983 5.003 C 17.353 5.000,18.131 5.007,18.310 5.061 M8.380 7.574 C 7.921 7.693,7.429 7.999,7.101 8.369 C 6.891 8.608,6.632 9.115,6.559 9.433 C 6.532 9.550,6.510 9.806,6.510 10.000 C 6.510 10.446,6.568 10.695,6.766 11.112 C 6.983 11.568,7.417 12.006,7.866 12.224 C 8.039 12.308,8.185 12.379,8.192 12.383 C 8.198 12.387,8.162 12.460,8.112 12.545 C 8.038 12.669,8.020 12.759,8.020 13.000 C 8.020 13.256,8.036 13.328,8.131 13.489 C 8.256 13.702,8.449 13.864,8.670 13.943 C 8.891 14.022,15.109 14.022,15.330 13.943 C 15.551 13.864,15.744 13.702,15.869 13.489 C 15.964 13.328,15.980 13.256,15.980 13.000 C 15.980 12.759,15.962 12.669,15.888 12.545 C 15.838 12.460,15.802 12.387,15.808 12.383 C 15.815 12.379,15.961 12.308,16.134 12.224 C 16.583 12.006,17.017 11.568,17.234 11.112 C 17.432 10.695,17.490 10.446,17.490 10.000 C 17.490 9.554,17.432 9.305,17.235 8.890 C 16.974 8.341,16.432 7.860,15.817 7.630 C 15.612 7.554,15.501 7.542,15.000 7.542 C 14.499 7.542,14.388 7.554,14.183 7.630 C 13.813 7.769,13.527 7.956,13.215 8.264 C 12.992 8.485,12.892 8.623,12.768 8.884 C 12.568 9.305,12.510 9.553,12.510 10.000 C 12.510 10.445,12.568 10.695,12.763 11.106 C 12.876 11.343,12.994 11.510,13.194 11.716 L 13.469 12.000 12.000 12.000 L 10.531 12.000 10.806 11.716 C 11.105 11.408,11.350 10.965,11.441 10.567 C 11.503 10.293,11.503 9.707,11.441 9.433 C 11.259 8.640,10.610 7.920,9.817 7.633 C 9.522 7.526,8.697 7.492,8.380 7.574 M9.344 9.656 C 9.463 9.775,9.480 9.818,9.480 9.993 C 9.480 10.150,9.458 10.220,9.377 10.316 C 9.251 10.465,9.051 10.528,8.863 10.476 C 8.649 10.417,8.520 10.235,8.520 9.993 C 8.520 9.818,8.537 9.775,8.656 9.656 C 8.776 9.536,8.817 9.520,9.000 9.520 C 9.183 9.520,9.224 9.536,9.344 9.656 M15.344 9.656 C 15.463 9.775,15.480 9.818,15.480 9.993 C 15.480 10.235,15.351 10.417,15.137 10.476 C 14.949 10.528,14.749 10.465,14.623 10.316 C 14.542 10.220,14.520 10.150,14.520 9.993 C 14.520 9.818,14.537 9.775,14.656 9.656 C 14.776 9.536,14.817 9.520,15.000 9.520 C 15.183 9.520,15.224 9.536,15.344 9.656 M5.315 16.931 C 5.458 16.969,6.977 16.980,12.000 16.980 C 18.470 16.980,18.620 16.977,18.935 16.856 C 18.994 16.834,19.000 16.972,19.000 18.469 C 19.000 20.249,18.991 20.340,18.779 20.618 C 18.718 20.698,18.585 20.813,18.484 20.872 L 18.300 20.980 12.000 20.980 L 5.700 20.980 5.516 20.872 C 5.415 20.813,5.284 20.700,5.225 20.623 C 5.005 20.334,5.000 20.291,5.000 18.491 C 5.000 16.974,5.006 16.834,5.065 16.856 C 5.101 16.870,5.213 16.904,5.315 16.931 " stroke="none" fill-rule="evenodd" fill="black"></path></svg>