<svg viewBox="0 0 24 24" xmlns="http://www.w3.org/2000/svg" fill="none" stroke="#000000" stroke-width="2" stroke-linecap="round" stroke-linejoin="round"><path d="M11.695 1.057 C 11.466 1.129,11.256 1.299,11.128 1.516 L 11.020 1.700 11.008 2.848 L 10.996 3.997 7.728 4.009 L 4.460 4.021 4.139 4.122 C 3.170 4.427,2.419 5.182,2.114 6.160 L 2.020 6.460 2.020 12.000 L 2.020 17.540 2.114 17.840 C 2.419 18.817,3.159 19.563,4.140 19.884 C 4.403 19.969,4.498 19.976,5.708 19.991 L 6.996 20.007 7.008 21.157 L 7.020 22.307 7.141 22.503 C 7.543 23.156,8.457 23.156,8.859 22.503 L 8.980 22.307 8.992 21.153 L 9.005 20.000 12.000 20.000 L 14.995 20.000 15.008 21.153 L 15.020 22.307 15.141 22.503 C 15.543 23.156,16.457 23.156,16.859 22.503 L 16.980 22.307 16.992 21.157 L 17.004 20.007 18.292 19.991 C 19.502 19.976,19.597 19.969,19.860 19.884 C 20.841 19.563,21.581 18.817,21.886 17.840 L 21.980 17.540 21.980 12.000 L 21.980 6.460 21.886 6.160 C 21.581 5.182,20.830 4.427,19.861 4.122 L 19.540 4.021 16.272 4.009 L 13.004 3.997 12.992 2.848 L 12.980 1.700 12.872 1.516 C 12.628 1.101,12.150 0.915,11.695 1.057 M19.310 6.061 C 19.589 6.144,19.856 6.411,19.939 6.690 C 19.992 6.868,20.000 7.546,20.000 12.001 C 20.000 16.212,19.990 17.139,19.945 17.290 C 19.872 17.533,19.707 17.740,19.484 17.872 L 19.300 17.980 12.000 17.980 L 4.700 17.980 4.516 17.872 C 4.303 17.747,4.141 17.550,4.058 17.316 C 3.969 17.061,3.971 6.993,4.061 6.690 C 4.140 6.421,4.412 6.143,4.673 6.063 C 4.964 5.974,19.009 5.971,19.310 6.061 M8.477 10.073 C 7.806 10.249,7.238 10.823,7.060 11.508 C 6.941 11.962,7.003 12.492,7.225 12.930 C 7.361 13.199,7.801 13.639,8.070 13.775 C 8.659 14.073,9.341 14.073,9.930 13.775 C 10.196 13.640,10.638 13.200,10.771 12.937 C 10.994 12.498,11.052 12.007,10.940 11.529 C 10.858 11.182,10.720 10.927,10.465 10.653 C 10.074 10.232,9.560 10.005,9.000 10.005 C 8.857 10.005,8.622 10.036,8.477 10.073 M14.477 10.073 C 13.806 10.249,13.238 10.823,13.060 11.508 C 12.941 11.962,13.003 12.492,13.225 12.930 C 13.361 13.199,13.801 13.639,14.070 13.775 C 14.657 14.073,15.345 14.071,15.937 13.771 C 16.197 13.639,16.639 13.197,16.771 12.937 C 16.994 12.498,17.052 12.007,16.940 11.529 C 16.858 11.182,16.720 10.927,16.465 10.653 C 16.074 10.232,15.560 10.005,15.000 10.005 C 14.857 10.005,14.622 10.036,14.477 10.073 M8.695 15.057 C 8.466 15.129,8.256 15.299,8.128 15.516 C 8.037 15.672,8.020 15.746,8.020 16.000 C 8.020 16.256,8.036 16.328,8.131 16.489 C 8.256 16.702,8.449 16.864,8.670 16.943 C 8.891 17.022,15.109 17.022,15.330 16.943 C 15.551 16.864,15.744 16.702,15.869 16.489 C 15.964 16.328,15.980 16.256,15.980 16.000 C 15.980 15.746,15.963 15.672,15.872 15.516 C 15.740 15.293,15.533 15.128,15.290 15.055 C 15.030 14.977,8.945 14.979,8.695 15.057 " stroke="none" fill-rule="evenodd" fill="black"></path></svg>