<svg viewBox="0 0 24 24" xmlns="http://www.w3.org/2000/svg" fill="none" stroke="#000000" stroke-width="2" stroke-linecap="round" stroke-linejoin="round"><path d="M5.695 5.057 C 5.466 5.129,5.256 5.299,5.128 5.516 L 5.020 5.700 5.009 9.341 L 4.998 12.982 4.689 13.031 C 4.258 13.099,3.919 13.274,3.596 13.597 C 3.310 13.882,3.154 14.147,3.060 14.508 C 2.971 14.847,2.971 19.153,3.060 19.492 C 3.153 19.852,3.310 20.118,3.596 20.404 C 3.882 20.690,4.148 20.847,4.508 20.940 C 4.854 21.030,19.146 21.030,19.492 20.940 C 19.852 20.847,20.118 20.690,20.404 20.404 C 20.694 20.114,20.841 19.863,20.937 19.491 C 21.028 19.141,21.030 14.912,20.940 14.529 C 20.852 14.156,20.699 13.891,20.404 13.597 C 20.081 13.274,19.742 13.099,19.311 13.031 L 19.002 12.982 18.991 10.341 L 18.980 7.700 18.871 7.514 C 18.479 6.848,17.521 6.848,17.129 7.514 L 17.020 7.700 17.009 10.350 L 16.998 13.000 16.000 13.000 L 15.002 13.000 14.991 9.350 L 14.980 5.700 14.871 5.514 C 14.479 4.848,13.521 4.848,13.129 5.514 L 13.020 5.700 13.009 9.350 L 12.998 13.000 12.000 13.000 L 11.002 13.000 10.991 10.350 L 10.980 7.700 10.871 7.514 C 10.479 6.848,9.521 6.848,9.129 7.514 L 9.020 7.700 9.009 10.350 L 8.998 13.000 8.000 13.000 L 7.002 13.000 6.991 9.350 L 6.980 5.700 6.872 5.516 C 6.628 5.101,6.150 4.915,5.695 5.057 M19.000 17.000 L 19.000 19.000 12.000 19.000 L 5.000 19.000 5.000 17.000 L 5.000 15.000 12.000 15.000 L 19.000 15.000 19.000 17.000 " stroke="none" fill="black" fill-rule="evenodd"></path></svg>