<svg viewBox="0 0 24 24" xmlns="http://www.w3.org/2000/svg" fill="none" stroke="#000000" stroke-width="2" stroke-linecap="round" stroke-linejoin="round"><path d="M11.280 1.026 C 10.361 1.111,9.790 1.206,9.120 1.385 C 7.774 1.746,6.365 2.454,5.204 3.351 C 4.691 3.747,3.631 4.828,3.231 5.363 C 1.962 7.058,1.210 9.026,1.037 11.103 C 0.969 11.915,0.996 12.267,1.144 12.508 C 1.541 13.152,2.458 13.154,2.854 12.510 C 2.963 12.334,2.973 12.281,3.005 11.750 C 3.068 10.671,3.188 10.001,3.467 9.160 C 4.354 6.488,6.488 4.354,9.160 3.467 C 10.000 3.188,10.671 3.068,11.747 3.005 C 12.258 2.975,12.331 2.961,12.498 2.863 C 13.248 2.424,13.119 1.304,12.290 1.055 C 12.124 1.005,11.652 0.991,11.280 1.026 M11.400 7.044 C 9.824 7.222,8.289 8.273,7.590 9.651 L 7.493 9.843 7.444 9.679 C 7.384 9.478,7.160 9.223,6.943 9.108 C 6.716 8.989,6.284 8.988,6.060 9.108 C 5.854 9.218,5.663 9.418,5.572 9.620 C 5.507 9.764,5.499 9.942,5.488 11.386 L 5.475 12.992 4.468 13.010 C 3.542 13.026,3.434 13.035,3.139 13.125 C 2.178 13.418,1.420 14.180,1.114 15.160 L 1.020 15.460 1.020 18.000 L 1.020 20.540 1.114 20.840 C 1.422 21.827,2.173 22.578,3.160 22.886 L 3.460 22.980 12.000 22.980 L 20.540 22.980 20.840 22.886 C 21.827 22.578,22.578 21.827,22.886 20.840 L 22.980 20.540 22.980 18.000 L 22.980 15.460 22.886 15.160 C 22.580 14.180,21.822 13.418,20.861 13.125 C 20.566 13.035,20.458 13.026,19.532 13.010 L 18.525 12.992 18.512 11.386 C 18.499 9.607,18.499 9.609,18.228 9.326 C 18.015 9.104,17.819 9.022,17.500 9.022 C 17.181 9.022,16.985 9.104,16.772 9.326 C 16.501 9.609,16.501 9.607,16.488 11.390 L 16.475 13.000 12.328 12.998 C 8.813 12.997,8.203 12.988,8.330 12.943 C 8.548 12.865,8.744 12.702,8.863 12.499 C 8.948 12.353,8.974 12.240,9.005 11.879 C 9.070 11.123,9.284 10.568,9.696 10.088 C 10.277 9.410,10.929 9.087,11.879 9.005 C 12.242 8.974,12.353 8.949,12.502 8.861 C 13.248 8.424,13.116 7.304,12.290 7.055 C 12.091 6.995,11.861 6.992,11.400 7.044 M7.713 12.961 C 7.812 12.991,7.809 12.993,7.670 12.997 C 7.559 12.999,7.520 12.984,7.520 12.938 C 7.520 12.903,7.539 12.887,7.563 12.902 C 7.587 12.917,7.654 12.943,7.713 12.961 M20.310 15.061 C 20.589 15.144,20.856 15.411,20.939 15.690 C 21.025 15.978,21.030 20.007,20.945 20.290 C 20.872 20.533,20.707 20.740,20.484 20.872 L 20.300 20.980 12.000 20.980 L 3.700 20.980 3.516 20.872 C 3.415 20.813,3.284 20.700,3.225 20.623 C 3.000 20.327,3.000 20.332,3.000 18.022 C 3.000 15.589,2.998 15.608,3.301 15.306 C 3.627 14.980,2.853 15.007,11.963 15.003 C 19.142 15.000,20.130 15.007,20.310 15.061 " stroke="none" fill-rule="evenodd" fill="black"></path></svg>