<svg viewBox="0 0 24 24" xmlns="http://www.w3.org/2000/svg" fill="none" stroke="#000000" stroke-width="2" stroke-linecap="round" stroke-linejoin="round"><path d="M14.650 3.066 C 14.557 3.099,14.401 3.204,14.303 3.300 C 14.162 3.436,14.108 3.530,14.043 3.746 C 13.999 3.897,13.349 6.684,12.599 9.940 C 11.850 13.196,11.227 15.892,11.215 15.930 C 11.196 15.995,11.080 16.000,9.524 16.000 L 7.853 16.000 7.688 15.670 C 7.321 14.938,6.642 14.363,5.861 14.125 C 5.588 14.042,5.458 14.027,5.000 14.027 C 4.542 14.027,4.412 14.042,4.139 14.125 C 3.178 14.418,2.419 15.181,2.114 16.160 C 2.036 16.412,2.021 16.547,2.021 17.000 C 2.021 17.453,2.036 17.588,2.114 17.840 C 2.421 18.826,3.174 19.579,4.160 19.886 C 4.594 20.021,5.406 20.021,5.840 19.886 C 6.645 19.635,7.318 19.069,7.688 18.330 L 7.853 18.000 11.000 18.000 L 14.147 18.000 14.312 18.330 C 14.682 19.069,15.355 19.635,16.160 19.886 C 16.594 20.021,17.406 20.021,17.840 19.886 C 18.826 19.579,19.579 18.826,19.886 17.840 C 20.021 17.406,20.021 16.594,19.886 16.160 C 19.581 15.181,18.822 14.418,17.861 14.125 C 17.588 14.042,17.458 14.027,17.000 14.027 C 16.542 14.027,16.412 14.042,16.139 14.125 C 15.358 14.363,14.679 14.938,14.312 15.670 L 14.147 16.000 13.713 16.000 C 13.435 16.000,13.280 15.985,13.280 15.958 C 13.280 15.934,13.894 13.257,14.644 10.008 C 16.137 3.538,16.076 3.865,15.862 3.499 C 15.620 3.087,15.109 2.904,14.650 3.066 M16.695 7.056 C 16.465 7.130,16.255 7.300,16.128 7.516 C 16.037 7.672,16.020 7.746,16.020 8.000 C 16.020 8.256,16.036 8.328,16.131 8.489 C 16.192 8.592,16.304 8.725,16.381 8.783 C 16.655 8.992,16.695 8.996,18.463 8.998 C 20.334 9.000,20.395 9.008,20.679 9.283 C 21.001 9.596,20.978 9.284,21.000 13.523 L 21.020 17.306 21.141 17.503 C 21.543 18.156,22.457 18.156,22.859 17.503 L 22.980 17.306 22.980 13.383 L 22.980 9.460 22.886 9.160 C 22.581 8.181,21.827 7.423,20.861 7.123 C 20.541 7.024,20.535 7.023,18.700 7.013 C 17.259 7.005,16.824 7.014,16.695 7.056 " stroke="none" fill-rule="evenodd" fill="black"></path></svg>