<svg viewBox="0 0 24 24" xmlns="http://www.w3.org/2000/svg" fill="none" stroke="#000000" stroke-width="2" stroke-linecap="round" stroke-linejoin="round"><path d="M10.340 2.024 C 9.026 2.160,8.091 2.415,7.060 2.918 C 5.244 3.804,3.840 5.202,2.939 7.020 C 1.688 9.542,1.688 12.458,2.939 14.980 C 3.404 15.918,3.897 16.609,4.621 17.337 C 7.349 20.077,11.484 20.777,14.940 19.083 C 15.468 18.824,16.037 18.479,16.438 18.173 L 16.616 18.037 18.518 19.934 C 19.564 20.978,20.481 21.862,20.555 21.899 C 21.010 22.128,21.601 21.944,21.867 21.492 C 21.964 21.327,21.980 21.258,21.979 21.000 C 21.979 20.788,21.957 20.659,21.905 20.560 C 21.865 20.483,20.978 19.564,19.934 18.518 L 18.037 16.616 18.173 16.438 C 18.479 16.037,18.824 15.468,19.083 14.940 C 20.302 12.453,20.302 9.548,19.084 7.060 C 17.773 4.384,15.266 2.546,12.320 2.101 C 11.911 2.039,10.662 1.991,10.340 2.024 M12.102 4.098 C 15.099 4.551,17.491 6.985,17.924 10.020 C 17.990 10.483,17.990 11.517,17.924 11.980 C 17.487 15.047,15.126 17.424,12.020 17.926 C 11.607 17.992,10.393 17.992,9.980 17.926 C 6.873 17.424,4.513 15.047,4.076 11.980 C 3.967 11.217,4.022 10.093,4.205 9.340 C 4.815 6.828,6.824 4.818,9.340 4.205 C 9.624 4.135,10.064 4.069,10.540 4.023 C 10.813 3.997,11.726 4.041,12.102 4.098 M8.670 8.061 C 8.448 8.142,8.250 8.309,8.128 8.516 C 8.036 8.672,8.020 8.745,8.021 9.000 C 8.021 9.213,8.043 9.340,8.096 9.440 C 8.136 9.517,8.486 9.900,8.873 10.290 L 9.577 11.000 8.873 11.710 C 8.486 12.101,8.139 12.481,8.101 12.555 C 7.872 13.008,8.056 13.601,8.508 13.867 C 8.673 13.964,8.742 13.980,9.000 13.979 C 9.213 13.979,9.340 13.957,9.440 13.904 C 9.517 13.864,9.900 13.514,10.290 13.127 L 11.000 12.423 11.710 13.127 C 12.101 13.514,12.483 13.864,12.560 13.904 C 12.660 13.957,12.787 13.979,13.000 13.979 C 13.258 13.980,13.327 13.964,13.492 13.867 C 13.714 13.737,13.901 13.498,13.965 13.264 C 14.019 13.061,13.989 12.733,13.899 12.555 C 13.861 12.481,13.514 12.101,13.127 11.710 L 12.423 11.000 13.127 10.290 C 13.514 9.900,13.864 9.517,13.904 9.440 C 13.957 9.340,13.979 9.213,13.979 9.000 C 13.980 8.745,13.964 8.672,13.872 8.516 C 13.617 8.083,13.135 7.905,12.657 8.067 C 12.491 8.123,12.345 8.247,11.730 8.854 L 11.000 9.574 10.270 8.854 C 9.655 8.247,9.509 8.123,9.343 8.067 C 9.108 7.987,8.876 7.985,8.670 8.061 " stroke="none" fill-rule="evenodd" fill="black"></path></svg>