<svg viewBox="0 0 24 24" xmlns="http://www.w3.org/2000/svg" fill="none" stroke="#000000" stroke-width="2" stroke-linecap="round" stroke-linejoin="round"><path d="M9.695 1.057 C 9.466 1.129,9.256 1.299,9.128 1.516 C 9.025 1.692,9.019 1.728,9.007 2.350 L 8.993 3.000 6.443 3.000 C 3.676 3.000,3.672 3.000,3.382 3.221 C 3.302 3.282,3.187 3.415,3.128 3.516 C 3.037 3.672,3.020 3.746,3.020 4.000 C 3.020 4.256,3.036 4.328,3.131 4.489 C 3.256 4.702,3.449 4.864,3.670 4.943 C 3.789 4.986,4.370 4.997,6.520 4.998 C 8.667 5.000,9.299 5.012,9.605 5.058 C 11.074 5.280,12.310 6.324,12.797 7.755 C 12.995 8.340,13.000 8.455,12.998 13.300 C 12.997 17.043,12.988 17.795,12.945 17.675 C 12.862 17.443,12.783 17.356,11.633 16.216 C 10.679 15.270,10.515 15.124,10.343 15.066 C 9.864 14.905,9.382 15.084,9.128 15.516 C 9.036 15.672,9.020 15.745,9.021 16.000 C 9.021 16.213,9.043 16.341,9.095 16.440 C 9.197 16.633,11.297 18.740,11.520 18.873 C 11.672 18.964,11.746 18.980,12.000 18.980 C 12.257 18.980,12.327 18.964,12.492 18.867 C 12.702 18.744,12.911 18.487,12.953 18.300 C 12.969 18.229,12.988 18.410,13.000 18.743 C 13.019 19.284,13.025 19.314,13.141 19.503 C 13.543 20.156,14.457 20.156,14.859 19.503 L 14.980 19.306 14.992 17.869 L 15.004 16.432 15.214 16.631 C 15.477 16.879,15.633 16.961,15.895 16.988 C 16.295 17.029,16.662 16.842,16.867 16.492 C 16.964 16.327,16.980 16.258,16.979 16.000 C 16.979 15.787,16.957 15.659,16.905 15.560 C 16.864 15.483,16.420 15.006,15.917 14.500 L 15.004 13.580 14.989 10.900 C 14.975 8.297,14.972 8.208,14.885 7.820 C 14.456 5.910,13.317 4.451,11.580 3.590 C 11.426 3.514,11.234 3.430,11.153 3.403 L 11.006 3.356 10.993 2.528 C 10.980 1.711,10.979 1.698,10.872 1.516 C 10.628 1.101,10.150 0.915,9.695 1.057 M3.695 21.057 C 3.466 21.129,3.256 21.299,3.128 21.516 C 3.037 21.672,3.020 21.746,3.020 22.000 C 3.020 22.256,3.036 22.328,3.131 22.489 C 3.256 22.702,3.449 22.864,3.670 22.943 C 3.792 22.987,4.774 22.996,9.000 22.996 C 13.226 22.996,14.208 22.987,14.330 22.943 C 14.551 22.864,14.744 22.702,14.869 22.489 C 14.964 22.328,14.980 22.256,14.980 22.000 C 14.980 21.746,14.963 21.672,14.872 21.516 C 14.740 21.293,14.533 21.128,14.290 21.055 C 14.028 20.976,3.946 20.978,3.695 21.057 " stroke="none" fill-rule="evenodd" fill="black"></path></svg>