<svg viewBox="0 0 24 24" xmlns="http://www.w3.org/2000/svg" fill="none" stroke="#000000" stroke-width="2" stroke-linecap="round" stroke-linejoin="round"><path d="M17.670 1.061 C 17.448 1.142,17.250 1.309,17.128 1.516 C 17.036 1.672,17.020 1.745,17.021 2.000 C 17.021 2.213,17.043 2.341,17.095 2.440 C 17.136 2.517,17.709 3.123,18.370 3.786 L 19.571 4.992 17.755 5.012 C 15.882 5.033,15.724 5.046,15.140 5.220 C 14.289 5.474,13.389 6.045,12.848 6.674 C 12.722 6.820,12.037 7.700,11.324 8.630 C 10.611 9.559,10.016 10.320,10.000 10.320 C 9.985 10.320,9.362 9.524,8.616 8.550 C 7.870 7.577,7.134 6.654,6.980 6.499 C 6.243 5.760,5.376 5.298,4.340 5.093 C 3.949 5.015,2.062 4.973,1.782 5.036 C 1.515 5.096,1.269 5.276,1.129 5.514 C 1.036 5.672,1.020 5.745,1.020 6.000 C 1.020 6.256,1.036 6.328,1.131 6.489 C 1.192 6.592,1.304 6.725,1.381 6.783 C 1.635 6.977,1.753 6.996,2.705 6.998 C 3.677 7.000,4.118 7.054,4.523 7.218 C 4.897 7.370,5.234 7.593,5.520 7.878 C 5.821 8.179,8.695 11.909,8.695 12.000 C 8.695 12.062,5.921 15.697,5.605 16.048 C 5.368 16.312,4.944 16.606,4.588 16.754 C 4.097 16.957,3.786 17.000,2.788 17.000 C 1.808 17.000,1.637 17.027,1.382 17.221 C 1.302 17.282,1.187 17.415,1.128 17.516 C 1.037 17.672,1.020 17.746,1.020 18.000 C 1.020 18.256,1.036 18.328,1.131 18.489 C 1.256 18.702,1.449 18.864,1.670 18.943 C 1.888 19.021,3.610 19.019,4.132 18.940 C 5.072 18.799,5.853 18.451,6.619 17.836 C 7.025 17.509,7.159 17.348,8.676 15.370 C 9.389 14.441,9.984 13.680,10.000 13.680 C 10.016 13.680,10.611 14.441,11.324 15.370 C 12.037 16.300,12.722 17.179,12.847 17.324 C 13.394 17.962,14.262 18.513,15.134 18.779 C 15.763 18.971,16.122 19.000,17.919 19.000 L 19.578 19.000 18.374 20.210 C 17.711 20.876,17.138 21.481,17.101 21.555 C 16.872 22.009,17.056 22.601,17.508 22.867 C 17.673 22.964,17.742 22.980,18.000 22.979 C 18.212 22.979,18.341 22.957,18.440 22.905 C 18.517 22.865,19.531 21.884,20.694 20.726 C 22.996 18.433,22.999 18.429,22.999 18.000 C 22.999 17.569,22.999 17.569,20.674 15.255 C 18.750 13.340,18.521 13.124,18.343 13.065 C 17.862 12.906,17.382 13.084,17.128 13.516 C 17.036 13.672,17.020 13.745,17.021 14.000 C 17.021 14.213,17.043 14.341,17.095 14.440 C 17.136 14.517,17.711 15.125,18.374 15.790 L 19.578 17.000 17.947 17.000 C 16.152 17.000,15.961 16.981,15.412 16.754 C 15.056 16.606,14.632 16.312,14.395 16.048 C 14.079 15.697,11.305 12.062,11.305 12.000 C 11.305 11.909,14.179 8.179,14.480 7.878 C 14.923 7.437,15.441 7.169,16.063 7.061 C 16.334 7.013,16.759 7.000,17.994 7.000 L 19.578 7.000 18.374 8.210 C 17.711 8.876,17.138 9.481,17.101 9.555 C 16.872 10.009,17.056 10.601,17.508 10.867 C 17.673 10.964,17.742 10.980,18.000 10.979 C 18.212 10.979,18.341 10.957,18.440 10.905 C 18.517 10.865,19.531 9.884,20.694 8.726 C 22.996 6.433,22.999 6.429,22.999 6.000 C 22.999 5.569,22.999 5.569,20.674 3.255 C 18.750 1.340,18.521 1.124,18.343 1.065 C 18.107 0.987,17.874 0.986,17.670 1.061 " stroke="none" fill-rule="evenodd" fill="black"></path></svg>