<svg viewBox="0 0 24 24" xmlns="http://www.w3.org/2000/svg" fill="none" stroke="#000000" stroke-width="2" stroke-linecap="round" stroke-linejoin="round"><path d="M11.695 2.057 C 11.466 2.129,11.256 2.299,11.128 2.516 L 11.020 2.700 11.008 3.850 L 10.995 5.000 7.448 5.000 C 4.981 5.000,3.851 5.014,3.741 5.045 C 3.502 5.111,3.255 5.300,3.131 5.511 C 3.036 5.673,3.020 5.743,3.021 6.000 C 3.021 6.213,3.043 6.341,3.095 6.440 C 3.136 6.517,3.711 7.124,4.373 7.789 L 5.577 8.999 4.354 10.229 C 3.229 11.361,3.126 11.477,3.061 11.675 C 2.887 12.204,3.154 12.759,3.670 12.943 C 3.784 12.984,4.152 12.997,5.199 12.998 L 6.578 13.000 5.374 14.210 C 4.711 14.876,4.136 15.483,4.095 15.560 C 4.043 15.659,4.021 15.787,4.021 16.000 C 4.020 16.254,4.036 16.327,4.127 16.480 C 4.186 16.579,4.960 17.382,5.847 18.264 C 7.286 19.695,7.481 19.876,7.657 19.934 C 7.827 19.991,8.075 20.000,9.425 20.000 L 10.995 20.000 11.008 21.153 L 11.020 22.307 11.141 22.503 C 11.543 23.156,12.457 23.156,12.859 22.503 L 12.980 22.307 12.992 21.153 L 13.005 20.000 16.592 19.998 C 19.485 19.997,20.209 19.986,20.330 19.943 C 20.846 19.759,21.113 19.204,20.939 18.675 C 20.874 18.477,20.771 18.361,19.646 17.229 L 18.423 15.999 19.627 14.789 C 20.289 14.124,20.864 13.517,20.905 13.440 C 20.957 13.341,20.979 13.213,20.979 13.000 C 20.980 12.743,20.964 12.673,20.869 12.511 C 20.745 12.300,20.498 12.111,20.259 12.045 C 20.158 12.016,19.615 12.000,18.761 12.000 L 17.422 12.000 18.626 10.790 C 19.289 10.124,19.864 9.517,19.905 9.440 C 19.957 9.341,19.979 9.213,19.979 9.000 C 19.980 8.745,19.964 8.673,19.873 8.520 C 19.722 8.266,16.623 5.194,16.420 5.097 C 16.272 5.026,16.139 5.019,14.632 5.008 L 13.004 4.997 12.992 3.848 L 12.980 2.700 12.872 2.516 C 12.628 2.101,12.150 1.915,11.695 2.057 M11.000 9.000 L 11.000 11.000 8.711 11.000 L 6.423 11.000 7.127 10.290 C 7.514 9.900,7.864 9.517,7.904 9.440 C 7.957 9.340,7.978 9.215,7.978 9.000 C 7.978 8.785,7.957 8.660,7.904 8.560 C 7.864 8.483,7.514 8.101,7.127 7.710 L 6.423 7.000 8.711 7.000 L 11.000 7.000 11.000 9.000 M16.580 8.000 L 17.579 9.000 16.580 10.000 L 15.581 11.000 14.290 11.000 L 13.000 11.000 13.000 9.000 L 13.000 7.000 14.290 7.000 L 15.581 7.000 16.580 8.000 M11.000 16.000 L 11.000 18.000 9.710 18.000 L 8.419 18.000 7.420 17.000 L 6.421 16.000 7.420 15.000 L 8.419 14.000 9.710 14.000 L 11.000 14.000 11.000 16.000 M16.873 14.710 C 16.486 15.101,16.136 15.483,16.096 15.560 C 16.043 15.660,16.022 15.785,16.022 16.000 C 16.022 16.215,16.043 16.340,16.096 16.440 C 16.136 16.517,16.486 16.899,16.873 17.290 L 17.577 18.000 15.289 18.000 L 13.000 18.000 13.000 16.000 L 13.000 14.000 15.289 14.000 L 17.577 14.000 16.873 14.710 " stroke="none" fill-rule="evenodd" fill="black"></path></svg>