<svg viewBox="0 0 24 24" xmlns="http://www.w3.org/2000/svg" fill="none" stroke="#000000" stroke-width="2" stroke-linecap="round" stroke-linejoin="round"><path d="M9.477 1.073 C 8.806 1.249,8.238 1.823,8.060 2.508 C 8.011 2.695,8.000 3.084,8.000 4.659 L 8.000 6.580 5.596 8.980 C 2.982 11.590,3.001 11.568,3.001 12.000 C 3.001 12.432,2.982 12.410,5.596 15.020 L 8.000 17.420 8.000 19.341 C 8.000 21.425,8.006 21.499,8.225 21.930 C 8.361 22.199,8.801 22.639,9.070 22.775 C 9.509 22.997,9.545 23.000,12.000 23.000 C 14.455 23.000,14.491 22.997,14.930 22.775 C 15.196 22.640,15.638 22.200,15.771 21.937 C 15.992 21.501,16.000 21.412,16.000 19.334 L 16.000 17.420 18.404 15.020 C 21.018 12.410,20.999 12.432,20.999 12.000 C 20.999 11.568,21.018 11.590,18.404 8.980 L 16.000 6.580 15.999 4.680 C 15.999 2.629,15.987 2.488,15.781 2.083 C 15.646 1.816,15.297 1.449,15.017 1.281 C 14.564 1.008,14.524 1.005,12.000 1.005 C 9.992 1.005,9.711 1.012,9.477 1.073 M14.000 3.991 L 14.000 4.981 13.790 5.031 C 13.520 5.095,13.291 5.261,13.140 5.502 C 13.034 5.671,13.020 5.729,13.020 5.997 C 13.020 6.387,13.101 6.528,13.617 7.039 L 14.000 7.418 14.000 9.203 L 14.000 10.987 13.786 11.035 C 13.515 11.096,13.270 11.275,13.129 11.514 C 13.036 11.672,13.020 11.745,13.020 12.003 C 13.020 12.271,13.034 12.329,13.141 12.503 C 13.288 12.742,13.578 12.946,13.821 12.982 L 14.000 13.009 14.000 14.795 L 14.000 16.582 13.617 16.961 C 13.101 17.472,13.020 17.613,13.020 18.003 C 13.020 18.271,13.034 18.329,13.141 18.503 C 13.288 18.742,13.578 18.946,13.821 18.982 L 14.000 19.009 14.000 20.005 L 14.000 21.000 12.000 21.000 L 10.000 21.000 10.000 20.005 L 10.000 19.009 10.179 18.982 C 10.422 18.946,10.712 18.742,10.859 18.503 C 10.966 18.329,10.980 18.271,10.980 18.003 C 10.980 17.613,10.899 17.472,10.383 16.961 L 10.000 16.582 10.000 14.795 L 10.000 13.009 10.179 12.982 C 10.422 12.946,10.712 12.742,10.859 12.503 C 10.966 12.329,10.980 12.271,10.980 12.003 C 10.980 11.745,10.964 11.672,10.871 11.514 C 10.730 11.275,10.485 11.096,10.214 11.035 L 10.000 10.987 10.000 9.203 L 10.000 7.418 10.383 7.039 C 10.899 6.528,10.980 6.387,10.980 5.997 C 10.980 5.729,10.966 5.671,10.860 5.502 C 10.709 5.261,10.480 5.095,10.210 5.031 L 10.000 4.981 10.000 3.991 L 10.000 3.000 12.000 3.000 L 14.000 3.000 14.000 3.991 M8.000 10.220 L 8.000 11.000 7.210 11.000 L 6.421 11.000 7.200 10.220 C 7.629 9.791,7.984 9.440,7.990 9.440 C 7.995 9.440,8.000 9.791,8.000 10.220 M16.800 10.220 L 17.579 11.000 16.790 11.000 L 16.000 11.000 16.000 10.220 C 16.000 9.791,16.005 9.440,16.010 9.440 C 16.016 9.440,16.371 9.791,16.800 10.220 M8.000 13.790 L 8.000 14.579 7.220 13.800 C 6.791 13.371,6.440 13.016,6.440 13.010 C 6.440 13.005,6.791 13.000,7.220 13.000 L 8.000 13.000 8.000 13.790 M17.560 13.010 C 17.560 13.016,17.209 13.371,16.780 13.800 L 16.000 14.579 16.000 13.790 L 16.000 13.000 16.780 13.000 C 17.209 13.000,17.560 13.005,17.560 13.010 " stroke="none" fill-rule="evenodd" fill="black"></path></svg>