<svg viewBox="0 0 24 24" xmlns="http://www.w3.org/2000/svg" fill="none" stroke="#000000" stroke-width="2" stroke-linecap="round" stroke-linejoin="round"><path d="M11.647 1.067 C 11.552 1.101,11.407 1.194,11.324 1.274 C 11.216 1.379,9.772 3.945,6.133 10.500 C 3.360 15.494,1.068 19.650,1.040 19.736 C 0.929 20.081,1.083 20.556,1.381 20.783 C 1.678 21.010,0.992 20.996,11.983 20.998 C 21.340 21.000,22.161 20.995,22.340 20.934 C 22.819 20.771,23.113 20.187,22.954 19.716 C 22.929 19.641,20.640 15.494,17.867 10.500 C 14.319 4.109,12.783 1.378,12.680 1.278 C 12.424 1.029,12.000 0.943,11.647 1.067 M16.140 11.504 C 18.406 15.586,20.266 18.943,20.273 18.963 C 20.281 18.986,17.072 19.000,12.000 19.000 C 6.928 19.000,3.719 18.986,3.727 18.963 C 3.759 18.872,11.982 4.083,12.000 4.083 C 12.011 4.083,13.874 7.423,16.140 11.504 M11.695 7.057 C 11.466 7.129,11.256 7.299,11.128 7.516 L 11.020 7.700 11.020 10.503 L 11.020 13.306 11.141 13.503 C 11.543 14.156,12.457 14.156,12.859 13.503 L 12.980 13.306 12.980 10.503 L 12.980 7.700 12.872 7.516 C 12.628 7.101,12.150 6.915,11.695 7.057 M11.695 16.055 C 11.464 16.130,11.255 16.300,11.128 16.516 C 11.037 16.672,11.020 16.746,11.020 17.000 C 11.020 17.257,11.036 17.327,11.133 17.492 C 11.651 18.374,12.998 18.018,12.998 17.000 C 12.998 16.623,12.792 16.281,12.463 16.112 C 12.265 16.010,11.911 15.984,11.695 16.055 " stroke="none" fill-rule="evenodd" fill="black"></path></svg>