<svg viewBox="0 0 24 24" xmlns="http://www.w3.org/2000/svg" fill="none" stroke="#000000" stroke-width="2" stroke-linecap="round" stroke-linejoin="round"><path d="M11.140 1.044 C 9.319 1.215,7.572 2.028,6.302 3.294 C 4.281 5.310,3.515 8.359,4.316 11.200 C 4.733 12.679,5.629 14.212,6.640 15.173 L 7.000 15.516 7.002 17.348 C 7.004 19.320,7.006 19.343,7.217 19.619 C 7.275 19.696,7.408 19.808,7.511 19.869 L 7.700 19.980 8.908 19.992 C 9.666 20.000,10.174 19.989,10.272 19.962 C 10.498 19.901,10.738 19.712,10.867 19.492 C 10.976 19.306,10.980 19.279,10.993 18.650 L 11.007 18.000 12.000 18.000 L 12.993 18.000 13.007 18.650 C 13.020 19.279,13.024 19.306,13.133 19.492 C 13.262 19.712,13.502 19.901,13.728 19.962 C 13.826 19.989,14.334 20.000,15.092 19.992 L 16.300 19.980 16.489 19.869 C 16.592 19.808,16.725 19.696,16.783 19.619 C 16.994 19.343,16.996 19.320,16.998 17.348 L 17.000 15.516 17.360 15.173 C 18.604 13.989,19.556 12.146,19.906 10.240 C 20.017 9.637,20.006 8.262,19.885 7.580 C 19.587 5.904,18.864 4.476,17.740 3.339 C 16.053 1.633,13.677 0.807,11.140 1.044 M12.620 3.042 C 14.086 3.181,15.294 3.735,16.280 4.720 C 17.204 5.645,17.795 6.871,17.937 8.160 L 17.962 8.380 17.868 8.099 C 17.552 7.150,16.800 6.411,15.861 6.125 C 15.588 6.042,15.458 6.027,15.000 6.027 C 14.542 6.027,14.412 6.042,14.139 6.125 C 13.188 6.415,12.414 7.187,12.124 8.134 C 12.078 8.285,12.040 8.461,12.040 8.524 C 12.040 8.588,12.022 8.640,12.000 8.640 C 11.978 8.640,11.960 8.588,11.960 8.524 C 11.960 8.461,11.922 8.285,11.876 8.134 C 11.586 7.187,10.812 6.415,9.861 6.125 C 9.588 6.042,9.458 6.027,9.000 6.027 C 8.542 6.027,8.412 6.042,8.139 6.125 C 7.200 6.411,6.448 7.150,6.132 8.099 L 6.038 8.380 6.063 8.160 C 6.278 6.214,7.514 4.457,9.258 3.620 C 10.299 3.120,11.418 2.928,12.620 3.042 M9.310 8.061 C 9.688 8.173,10.000 8.598,10.000 9.001 C 10.000 9.331,9.784 9.696,9.484 9.872 C 9.328 9.963,9.254 9.980,9.000 9.980 C 8.746 9.980,8.672 9.963,8.516 9.872 C 7.935 9.530,7.833 8.774,8.304 8.303 C 8.583 8.024,8.916 7.944,9.310 8.061 M15.310 8.061 C 15.688 8.173,16.000 8.598,16.000 9.001 C 16.000 9.331,15.784 9.696,15.484 9.872 C 15.328 9.963,15.254 9.980,15.000 9.980 C 14.746 9.980,14.672 9.963,14.516 9.872 C 13.935 9.530,13.833 8.774,14.304 8.303 C 14.583 8.024,14.916 7.944,15.310 8.061 M12.040 9.476 C 12.040 9.539,12.078 9.715,12.124 9.866 C 12.416 10.820,13.184 11.582,14.160 11.886 C 14.594 12.021,15.406 12.021,15.840 11.886 C 16.805 11.586,17.559 10.847,17.865 9.901 C 17.979 9.549,17.982 9.602,17.878 10.143 C 17.763 10.736,17.600 11.207,17.281 11.860 C 16.921 12.597,16.587 13.088,16.105 13.589 L 15.710 14.000 12.000 14.000 L 8.290 14.000 7.895 13.589 C 7.413 13.088,7.079 12.597,6.719 11.860 C 6.400 11.207,6.237 10.736,6.122 10.143 C 6.018 9.602,6.021 9.549,6.135 9.901 C 6.441 10.847,7.195 11.586,8.160 11.886 C 8.594 12.021,9.406 12.021,9.840 11.886 C 10.816 11.582,11.584 10.820,11.876 9.866 C 11.922 9.715,11.960 9.539,11.960 9.476 C 11.960 9.412,11.978 9.360,12.000 9.360 C 12.022 9.360,12.040 9.412,12.040 9.476 M9.695 16.057 C 9.393 16.152,9.129 16.415,9.040 16.711 C 9.017 16.786,9.006 16.691,9.003 16.410 L 9.000 16.000 9.430 16.003 C 9.842 16.005,9.853 16.008,9.695 16.057 M14.997 16.410 C 14.994 16.691,14.983 16.786,14.960 16.711 C 14.871 16.415,14.607 16.152,14.305 16.057 C 14.147 16.008,14.158 16.005,14.570 16.003 L 15.000 16.000 14.997 16.410 " stroke="none" fill-rule="evenodd" fill="black"></path></svg>