<svg viewBox="0 0 24 24" xmlns="http://www.w3.org/2000/svg" fill="none" stroke="#000000" stroke-width="2" stroke-linecap="round" stroke-linejoin="round"><path d="M11.540 5.023 C 10.715 5.102,10.250 5.200,9.620 5.427 C 8.081 5.981,6.727 7.118,5.938 8.520 C 5.633 9.062,5.651 9.040,5.509 9.041 C 5.103 9.043,4.285 9.302,3.618 9.641 C 2.746 10.083,1.543 10.960,1.211 11.394 C 0.661 12.115,1.273 13.118,2.179 12.982 C 2.381 12.952,2.572 12.827,3.028 12.426 C 3.415 12.086,4.062 11.650,4.516 11.423 C 5.078 11.142,5.020 11.079,5.021 11.970 C 5.022 12.967,5.118 13.563,5.408 14.360 C 5.770 15.355,6.300 16.184,7.058 16.942 C 8.220 18.104,9.614 18.775,11.245 18.957 L 11.591 18.995 11.945 19.280 C 12.638 19.836,13.518 20.364,14.200 20.633 C 14.365 20.698,14.698 20.802,14.940 20.865 C 15.332 20.966,15.448 20.979,16.000 20.979 C 16.552 20.979,16.668 20.966,17.060 20.865 C 18.191 20.572,19.349 19.919,20.437 18.960 C 20.875 18.574,20.980 18.389,20.980 18.000 C 20.980 17.746,20.963 17.672,20.872 17.516 C 20.747 17.303,20.550 17.141,20.316 17.058 C 19.932 16.923,19.617 17.015,19.198 17.385 C 18.038 18.411,16.872 18.999,16.000 18.999 C 15.747 18.999,15.342 18.925,15.100 18.834 C 14.838 18.735,14.520 18.588,14.521 18.565 C 14.521 18.551,14.696 18.460,14.911 18.361 C 16.398 17.678,17.573 16.530,18.296 15.051 C 18.786 14.050,18.977 13.199,18.977 12.020 C 18.977 11.056,18.878 10.467,18.573 9.620 C 17.715 7.237,15.581 5.473,13.102 5.098 C 12.726 5.041,11.813 4.997,11.540 5.023 M12.552 7.043 C 13.430 7.139,14.183 7.429,14.920 7.955 C 16.029 8.747,16.836 10.105,16.944 11.363 L 16.969 11.660 16.851 11.480 C 16.716 11.272,16.490 11.105,16.260 11.044 C 16.155 11.015,15.373 11.000,13.996 11.000 C 11.713 11.000,11.667 11.004,11.382 11.221 C 11.229 11.338,11.040 11.621,11.040 11.734 C 11.040 11.770,11.022 11.800,11.000 11.800 C 10.978 11.800,10.960 11.770,10.960 11.734 C 10.960 11.346,9.585 10.244,8.294 9.596 L 7.768 9.332 8.019 8.996 C 9.076 7.582,10.779 6.848,12.552 7.043 M7.475 11.417 C 7.938 11.650,8.583 12.085,8.972 12.426 C 9.143 12.577,9.364 12.757,9.463 12.828 C 9.773 13.049,10.198 13.053,10.535 12.839 C 10.724 12.719,10.960 12.404,10.960 12.272 C 10.960 12.160,11.027 12.187,11.052 12.310 C 11.087 12.485,11.300 12.745,11.508 12.867 L 11.700 12.980 14.003 12.980 L 16.306 12.980 16.503 12.859 C 16.615 12.790,16.758 12.652,16.835 12.539 L 16.971 12.340 16.943 12.620 C 16.870 13.372,16.537 14.228,16.051 14.912 C 15.806 15.256,15.256 15.806,14.912 16.051 C 13.542 17.024,11.796 17.252,10.225 16.661 C 8.918 16.168,7.832 15.082,7.339 13.775 C 7.095 13.126,6.973 12.325,7.021 11.680 C 7.047 11.318,7.062 11.240,7.103 11.240 C 7.113 11.240,7.280 11.320,7.475 11.417 " stroke="none" fill-rule="evenodd" fill="black"></path></svg>