<svg viewBox="0 0 24 24" xmlns="http://www.w3.org/2000/svg" fill="none" stroke="#000000" stroke-width="2" stroke-linecap="round" stroke-linejoin="round"><path d="M11.740 6.043 C 11.674 6.062,11.559 6.110,11.484 6.149 C 11.390 6.198,9.958 7.919,6.772 11.811 C 4.255 14.886,2.160 17.464,2.115 17.539 C 1.998 17.738,1.975 18.062,2.060 18.325 C 2.125 18.528,2.259 18.670,4.395 20.813 C 5.774 22.197,6.793 23.187,7.000 23.344 C 7.187 23.486,7.514 23.691,7.727 23.801 L 8.113 24.000 9.997 24.000 L 11.882 24.000 12.231 23.824 C 12.925 23.473,13.050 23.360,16.025 20.385 C 18.660 17.751,18.876 17.525,18.936 17.338 C 18.995 17.155,19.000 16.647,18.991 11.918 L 18.980 6.700 18.872 6.516 C 18.813 6.415,18.698 6.282,18.618 6.221 C 18.324 5.997,18.375 6.000,14.984 6.003 C 13.266 6.005,11.806 6.023,11.740 6.043 M17.000 12.291 L 17.000 16.582 14.370 19.204 C 11.840 21.727,11.728 21.833,11.418 21.991 C 10.916 22.247,10.546 22.338,10.000 22.338 C 9.454 22.338,9.083 22.247,8.582 21.991 C 8.276 21.835,8.162 21.729,6.304 19.879 L 4.349 17.931 5.550 16.463 L 6.751 14.995 7.027 14.986 C 7.244 14.979,7.341 14.955,7.482 14.872 C 7.704 14.739,10.807 11.629,10.899 11.445 C 10.990 11.265,11.019 10.938,10.963 10.732 C 10.938 10.639,10.859 10.486,10.787 10.392 L 10.657 10.221 11.558 9.113 L 12.460 8.005 14.730 8.003 L 17.000 8.000 17.000 12.291 " stroke="none" fill-rule="evenodd" fill="black"></path></svg>