<svg viewBox="0 0 24 24" xmlns="http://www.w3.org/2000/svg" fill="none" stroke="#000000" stroke-width="2" stroke-linecap="round" stroke-linejoin="round"><path d="M11.695 1.057 C 11.466 1.129,11.256 1.299,11.128 1.516 L 11.020 1.700 11.020 3.000 L 11.020 4.300 11.133 4.492 C 11.256 4.702,11.513 4.911,11.700 4.953 C 11.766 4.968,9.939 4.989,7.640 5.000 L 3.460 5.020 3.139 5.121 C 2.169 5.427,1.419 6.182,1.114 7.160 L 1.020 7.460 1.020 12.000 L 1.020 16.540 1.114 16.840 C 1.418 17.816,2.149 18.554,3.140 18.886 L 3.420 18.980 7.640 19.000 C 9.961 19.011,11.796 19.034,11.717 19.050 C 11.515 19.094,11.257 19.297,11.129 19.514 L 11.020 19.700 11.020 21.003 L 11.020 22.306 11.141 22.503 C 11.543 23.156,12.457 23.156,12.859 22.503 L 12.980 22.306 12.980 21.003 L 12.980 19.700 12.871 19.514 C 12.743 19.297,12.485 19.094,12.283 19.050 C 12.204 19.034,14.039 19.011,16.360 19.000 L 20.580 18.980 20.860 18.886 C 21.851 18.554,22.582 17.816,22.886 16.840 L 22.980 16.540 22.980 12.000 L 22.980 7.460 22.886 7.160 C 22.581 6.182,21.831 5.427,20.861 5.121 L 20.540 5.020 16.360 5.000 C 14.061 4.989,12.234 4.968,12.300 4.953 C 12.487 4.911,12.744 4.702,12.867 4.492 L 12.980 4.300 12.980 3.000 L 12.980 1.700 12.872 1.516 C 12.628 1.101,12.150 0.915,11.695 1.057 M7.000 9.000 L 7.000 11.000 5.000 11.000 L 3.000 11.000 3.000 9.447 C 3.000 7.649,3.007 7.599,3.304 7.303 C 3.596 7.011,3.629 7.006,5.430 7.003 L 7.000 7.000 7.000 9.000 M15.000 9.000 L 15.000 11.000 12.000 11.000 L 9.000 11.000 9.000 9.000 L 9.000 7.000 12.000 7.000 L 15.000 7.000 15.000 9.000 M20.310 7.061 C 20.452 7.103,20.571 7.178,20.697 7.303 C 20.993 7.599,21.000 7.650,21.000 9.447 L 21.000 11.000 19.000 11.000 L 17.000 11.000 17.000 9.000 L 17.000 7.000 18.553 7.000 C 19.826 7.000,20.142 7.011,20.310 7.061 M7.000 15.002 L 7.000 17.003 5.350 16.992 L 3.700 16.980 3.516 16.872 C 3.415 16.813,3.284 16.700,3.225 16.623 C 3.006 16.336,3.000 16.283,3.000 14.575 L 3.000 13.000 5.000 13.000 L 7.000 13.000 7.000 15.002 M15.000 15.000 L 15.000 17.000 12.000 17.000 L 9.000 17.000 9.000 15.000 L 9.000 13.000 12.000 13.000 L 15.000 13.000 15.000 15.000 M21.000 14.554 C 21.000 16.242,20.989 16.342,20.779 16.618 C 20.718 16.698,20.585 16.813,20.484 16.872 L 20.300 16.980 18.650 16.992 L 17.000 17.003 17.000 15.002 L 17.000 13.000 19.000 13.000 L 21.000 13.000 21.000 14.554 " stroke="none" fill-rule="evenodd" fill="black"></path></svg>