<svg viewBox="0 0 24 24" xmlns="http://www.w3.org/2000/svg" fill="none" stroke="#000000" stroke-width="2" stroke-linecap="round" stroke-linejoin="round"><path d="M11.669 1.072 C 11.413 1.164,11.226 1.321,11.127 1.528 C 11.081 1.623,10.665 3.068,10.201 4.740 C 9.737 6.412,9.331 7.874,9.298 7.989 L 9.238 8.198 5.889 8.209 C 2.669 8.220,2.534 8.223,2.384 8.297 C 1.997 8.489,1.780 8.859,1.812 9.272 C 1.849 9.760,1.754 9.676,4.741 11.844 C 6.215 12.913,7.418 13.804,7.415 13.824 C 7.412 13.844,6.965 15.316,6.422 17.096 C 5.879 18.876,5.425 20.418,5.412 20.522 C 5.369 20.887,5.571 21.269,5.911 21.469 C 6.072 21.564,6.144 21.580,6.400 21.580 C 6.634 21.580,6.732 21.561,6.843 21.495 C 6.922 21.449,8.159 20.561,9.593 19.523 L 12.199 17.635 14.810 19.527 C 16.245 20.567,17.489 21.453,17.574 21.496 C 18.218 21.817,19.008 21.311,18.998 20.583 C 18.996 20.489,18.565 19.016,17.983 17.120 C 17.427 15.305,16.978 13.807,16.987 13.792 C 16.995 13.777,18.167 12.922,19.590 11.892 C 21.013 10.862,22.243 9.955,22.324 9.875 C 22.720 9.482,22.668 8.764,22.218 8.421 C 21.923 8.196,21.987 8.200,18.417 8.200 L 15.127 8.200 14.021 4.884 C 13.236 2.530,12.884 1.526,12.807 1.426 C 12.521 1.049,12.099 0.918,11.669 1.072 M13.611 9.813 C 13.673 9.893,13.808 10.008,13.911 10.069 L 14.100 10.180 16.294 10.200 L 18.488 10.220 16.776 11.460 C 14.870 12.840,14.851 12.858,14.813 13.306 C 14.795 13.522,14.844 13.707,15.473 15.760 C 15.847 16.981,16.147 17.986,16.139 17.994 C 16.131 18.002,15.351 17.448,14.406 16.764 C 13.460 16.079,12.611 15.492,12.518 15.459 C 12.304 15.384,12.096 15.384,11.882 15.459 C 11.789 15.492,10.940 16.079,9.994 16.764 C 9.049 17.448,8.269 18.002,8.261 17.994 C 8.253 17.986,8.552 16.980,8.926 15.760 C 9.554 13.710,9.605 13.522,9.587 13.306 C 9.549 12.858,9.530 12.840,7.624 11.460 L 5.912 10.220 8.106 10.200 L 10.300 10.180 10.489 10.069 C 10.690 9.951,10.846 9.774,10.919 9.582 C 10.944 9.518,11.206 8.591,11.503 7.522 C 11.799 6.454,12.052 5.553,12.065 5.520 C 12.078 5.487,12.406 6.407,12.794 7.564 C 13.298 9.066,13.532 9.710,13.611 9.813 " stroke="none" fill-rule="evenodd" fill="black"></path></svg>