<svg viewBox="0 0 24 24" xmlns="http://www.w3.org/2000/svg" fill="none" stroke="#000000" stroke-width="2" stroke-linecap="round" stroke-linejoin="round"><path d="M11.400 10.044 C 9.761 10.229,8.263 11.289,7.525 12.785 C 7.376 13.088,7.207 13.556,7.119 13.909 C 7.081 14.063,7.063 14.081,6.909 14.119 C 5.924 14.363,5.050 14.863,4.384 15.563 C 3.723 16.257,3.301 17.067,3.093 18.040 C 3.028 18.343,3.020 18.596,3.020 20.340 L 3.020 22.300 3.131 22.489 C 3.256 22.702,3.449 22.864,3.670 22.943 C 3.792 22.986,4.615 22.997,8.020 22.998 L 12.220 22.999 12.420 22.906 C 12.657 22.796,12.845 22.595,12.936 22.354 C 12.996 22.195,13.001 21.765,12.991 17.440 L 12.980 12.700 12.890 12.547 C 12.803 12.401,12.802 12.385,12.857 12.167 C 13.037 11.461,13.041 10.806,12.868 10.510 C 12.608 10.066,12.240 9.949,11.400 10.044 M10.664 12.383 C 10.552 12.675,10.019 13.261,9.626 13.523 C 9.266 13.764,9.242 13.731,9.499 13.344 C 9.686 13.063,10.086 12.669,10.379 12.477 C 10.640 12.306,10.702 12.286,10.664 12.383 M8.861 16.129 C 9.803 16.404,10.581 17.181,10.876 18.139 C 10.970 18.445,10.975 18.518,10.991 19.730 L 11.007 21.000 8.000 21.000 L 4.993 21.000 5.009 19.730 C 5.025 18.518,5.030 18.445,5.124 18.139 C 5.459 17.051,6.371 16.245,7.499 16.040 C 7.832 15.980,8.500 16.023,8.861 16.129 " stroke="none" fill-rule="evenodd" fill="black"></path></svg>