<svg viewBox="0 0 24 24" xmlns="http://www.w3.org/2000/svg" fill="none" stroke="#000000" stroke-width="2" stroke-linecap="round" stroke-linejoin="round"><path d="M4.831 2.022 C 4.819 2.034,4.656 2.060,4.468 2.079 C 3.299 2.200,2.242 3.263,2.041 4.520 C 2.011 4.712,1.998 5.160,2.007 5.760 C 2.019 6.633,2.026 6.711,2.106 6.860 C 2.288 7.196,2.623 7.398,3.000 7.398 C 3.377 7.398,3.713 7.196,3.893 6.860 C 3.973 6.712,3.981 6.625,4.000 5.720 C 4.023 4.665,4.036 4.593,4.256 4.332 C 4.315 4.262,4.461 4.158,4.579 4.102 L 4.795 4.000 6.988 3.998 C 8.714 3.997,9.212 3.985,9.330 3.943 C 9.551 3.864,9.744 3.702,9.869 3.489 C 9.964 3.328,9.980 3.256,9.980 3.000 C 9.980 2.746,9.963 2.672,9.872 2.516 C 9.813 2.415,9.698 2.282,9.618 2.221 C 9.333 2.004,9.289 2.000,6.980 2.000 C 5.810 2.000,4.843 2.010,4.831 2.022 M12.695 2.057 C 12.466 2.129,12.256 2.299,12.128 2.516 C 12.037 2.672,12.020 2.746,12.020 3.000 C 12.020 3.256,12.036 3.328,12.131 3.489 C 12.256 3.702,12.449 3.864,12.670 3.943 C 12.889 4.021,17.111 4.021,17.330 3.943 C 17.551 3.864,17.744 3.702,17.869 3.489 C 17.964 3.328,17.980 3.256,17.980 3.000 C 17.980 2.746,17.963 2.672,17.872 2.516 C 17.740 2.293,17.533 2.128,17.290 2.055 C 17.033 1.978,12.943 1.979,12.695 2.057 M20.378 2.973 C 20.025 3.109,19.802 3.352,19.717 3.691 C 19.654 3.948,19.686 4.145,19.846 4.469 L 19.980 4.740 20.000 6.440 C 20.014 7.654,20.034 8.171,20.069 8.250 C 20.155 8.442,20.437 8.712,20.629 8.786 C 20.863 8.875,21.138 8.874,21.373 8.785 C 21.598 8.699,21.885 8.394,21.952 8.169 C 22.027 7.919,22.017 4.786,21.940 4.423 C 21.826 3.887,21.547 3.326,21.301 3.138 C 21.047 2.944,20.641 2.872,20.378 2.973 M2.820 9.440 C 2.607 9.473,2.445 9.563,2.268 9.746 C 1.994 10.027,1.996 10.008,2.009 12.484 C 2.020 14.667,2.021 14.702,2.106 14.860 C 2.494 15.578,3.506 15.578,3.894 14.860 C 3.979 14.701,3.980 14.680,3.980 12.420 C 3.980 10.306,3.975 10.129,3.908 9.996 C 3.703 9.584,3.281 9.368,2.820 9.440 M20.617 10.937 C 20.415 11.025,20.193 11.246,20.094 11.460 L 20.001 11.660 20.000 13.835 C 20.000 15.401,20.013 16.055,20.048 16.169 C 20.115 16.394,20.402 16.699,20.627 16.785 C 20.862 16.875,21.138 16.875,21.373 16.785 C 21.598 16.699,21.885 16.394,21.952 16.169 C 21.987 16.055,22.000 15.401,22.000 13.835 L 21.999 11.660 21.906 11.460 C 21.804 11.242,21.581 11.022,21.374 10.935 C 21.208 10.865,20.778 10.866,20.617 10.937 M2.820 17.440 C 2.484 17.492,2.165 17.765,2.055 18.094 C 1.957 18.391,1.996 19.470,2.119 19.860 C 2.424 20.823,3.183 21.581,4.140 21.879 C 4.538 22.003,5.308 22.037,5.591 21.943 C 6.269 21.718,6.496 20.836,6.006 20.331 C 5.779 20.097,5.605 20.032,5.114 20.000 C 4.630 19.967,4.420 19.879,4.226 19.625 C 4.053 19.398,4.027 19.288,4.002 18.700 C 3.976 18.086,3.936 17.954,3.710 17.722 C 3.477 17.484,3.169 17.386,2.820 17.440 M20.416 18.933 C 20.177 19.048,20.042 19.182,19.880 19.467 C 19.816 19.581,19.702 19.720,19.629 19.776 C 19.361 19.981,19.232 20.000,18.145 20.000 C 17.576 20.000,17.075 20.018,16.991 20.042 C 16.598 20.151,16.280 20.580,16.280 21.000 C 16.280 21.420,16.598 21.849,16.991 21.958 C 17.231 22.025,19.243 22.011,19.577 21.940 C 20.494 21.746,21.257 21.162,21.678 20.331 C 21.882 19.928,21.841 19.494,21.571 19.195 C 21.267 18.858,20.796 18.752,20.416 18.933 M8.945 20.058 C 8.559 20.197,8.280 20.592,8.280 21.000 C 8.280 21.420,8.598 21.849,8.991 21.958 C 9.085 21.984,9.930 22.000,11.283 22.000 C 13.678 22.000,13.665 22.001,13.950 21.725 C 14.466 21.224,14.341 20.417,13.698 20.098 C 13.547 20.024,13.435 20.020,11.320 20.011 C 9.503 20.004,9.072 20.012,8.945 20.058 " stroke="none" fill="black" fill-rule="evenodd"></path></svg>