<svg viewBox="0 0 24 24" xmlns="http://www.w3.org/2000/svg" fill="none" stroke="#000000" stroke-width="2" stroke-linecap="round" stroke-linejoin="round"><path d="M11.240 5.023 C 9.671 5.107,8.188 5.367,6.923 5.780 C 4.013 6.731,1.923 8.471,1.250 10.500 C 1.020 11.193,1.020 11.196,1.020 14.020 C 1.020 16.564,1.022 16.627,1.107 16.944 C 1.294 17.637,1.555 18.184,1.990 18.792 C 3.380 20.736,6.176 22.242,9.388 22.776 C 10.385 22.942,10.845 22.978,12.000 22.978 C 13.155 22.978,13.615 22.942,14.612 22.776 C 18.589 22.115,21.820 19.995,22.735 17.447 C 22.985 16.752,22.980 16.821,22.980 14.000 C 22.980 11.198,22.980 11.193,22.750 10.500 C 22.336 9.250,21.357 8.075,19.946 7.134 C 18.352 6.069,16.143 5.341,13.780 5.101 C 13.215 5.043,11.721 4.998,11.240 5.023 M12.940 7.041 C 16.987 7.284,20.294 9.063,20.904 11.327 C 20.996 11.666,20.996 12.334,20.904 12.673 C 20.472 14.279,18.666 15.683,16.062 16.439 C 11.167 17.860,5.135 16.437,3.428 13.460 C 2.527 11.889,3.124 10.192,5.039 8.883 C 7.005 7.540,9.919 6.861,12.940 7.041 M3.566 16.521 C 5.199 17.783,7.633 18.645,10.360 18.927 C 11.012 18.995,12.989 18.995,13.640 18.927 C 16.056 18.676,18.209 17.984,19.860 16.927 C 20.110 16.767,20.509 16.472,20.866 16.182 L 20.992 16.080 20.973 16.250 C 20.862 17.216,20.055 18.261,18.743 19.138 C 18.231 19.479,17.202 19.987,16.547 20.220 C 15.150 20.718,13.505 21.000,12.000 21.000 C 8.834 21.000,5.658 19.853,4.029 18.122 C 3.454 17.510,3.095 16.840,3.027 16.250 L 3.008 16.080 3.134 16.182 C 3.203 16.239,3.398 16.391,3.566 16.521 " stroke="none" fill-rule="evenodd" fill="black"></path></svg>