<svg viewBox="0 0 24 24" xmlns="http://www.w3.org/2000/svg" fill="none" stroke="#000000" stroke-width="2" stroke-linecap="round" stroke-linejoin="round"><path d="M1.670 1.061 C 1.448 1.142,1.250 1.309,1.128 1.516 C 1.036 1.672,1.020 1.745,1.021 2.000 C 1.021 2.212,1.043 2.341,1.095 2.440 C 1.135 2.517,2.303 3.717,3.691 5.107 C 5.941 7.361,6.204 7.637,6.117 7.657 C 6.064 7.669,5.075 7.815,3.920 7.981 C 2.765 8.147,1.742 8.312,1.646 8.346 C 0.991 8.585,0.795 9.418,1.271 9.944 C 1.353 10.035,2.433 11.094,3.670 12.299 C 4.908 13.503,5.920 14.493,5.920 14.499 C 5.920 14.504,5.675 15.929,5.376 17.664 C 5.077 19.400,4.832 20.911,4.831 21.021 C 4.825 21.564,5.260 22.006,5.806 22.011 C 6.095 22.013,6.021 22.050,9.332 20.306 C 10.779 19.544,11.980 18.920,12.000 18.920 C 12.021 18.920,13.222 19.544,14.669 20.306 C 16.116 21.069,17.449 21.764,17.632 21.852 C 18.050 22.053,18.286 22.065,18.618 21.903 C 19.058 21.687,19.254 21.223,19.139 20.671 C 19.116 20.559,19.279 20.706,20.266 21.686 C 20.901 22.316,21.483 22.864,21.560 22.905 C 21.659 22.957,21.787 22.979,22.000 22.979 C 22.258 22.980,22.327 22.964,22.492 22.867 C 22.714 22.737,22.901 22.498,22.965 22.264 C 23.019 22.061,22.989 21.733,22.899 21.555 C 22.862 21.481,21.863 20.448,20.678 19.260 L 18.524 17.100 18.302 15.806 C 18.180 15.094,18.080 14.506,18.080 14.499 C 18.080 14.493,19.120 13.474,20.390 12.235 C 21.661 10.997,22.747 9.920,22.804 9.842 C 23.158 9.359,23.003 8.669,22.480 8.401 C 22.282 8.300,22.236 8.292,18.840 7.799 C 17.157 7.554,15.768 7.342,15.754 7.327 C 15.740 7.312,15.087 5.995,14.302 4.400 C 13.517 2.805,12.825 1.437,12.763 1.360 C 12.525 1.062,12.060 0.934,11.679 1.060 C 11.271 1.196,11.272 1.194,9.780 4.229 L 8.420 6.996 5.480 4.063 C 2.805 1.394,2.522 1.125,2.343 1.065 C 2.107 0.987,1.874 0.986,1.670 1.061 M13.117 6.530 C 13.716 7.745,14.252 8.799,14.307 8.872 C 14.439 9.046,14.655 9.177,14.900 9.233 C 15.010 9.258,16.162 9.433,17.459 9.622 C 18.757 9.811,19.822 9.969,19.827 9.974 C 19.832 9.979,19.018 10.780,18.017 11.755 C 16.868 12.874,16.168 13.586,16.117 13.686 C 16.013 13.891,15.982 14.163,16.032 14.436 L 16.071 14.651 12.992 11.572 L 9.913 8.493 10.943 6.407 C 11.510 5.259,11.985 4.320,12.000 4.320 C 12.015 4.320,12.517 5.315,13.117 6.530 M12.325 13.750 L 16.669 18.100 16.753 18.618 C 16.799 18.903,16.829 19.144,16.821 19.153 C 16.812 19.162,15.808 18.645,14.589 18.004 C 13.152 17.249,12.308 16.828,12.187 16.805 C 12.080 16.785,11.920 16.785,11.813 16.805 C 11.692 16.828,10.847 17.250,9.411 18.004 C 8.192 18.644,7.187 19.160,7.177 19.150 C 7.167 19.141,7.350 18.027,7.583 16.676 C 8.032 14.075,8.040 13.993,7.883 13.686 C 7.832 13.586,7.132 12.874,5.981 11.754 C 4.680 10.487,4.180 9.976,4.230 9.964 C 4.269 9.956,5.119 9.827,6.120 9.678 C 7.121 9.529,7.949 9.406,7.960 9.404 C 7.971 9.402,9.935 11.357,12.325 13.750 " stroke="none" fill="black" fill-rule="evenodd"></path></svg>