<svg viewBox="0 0 24 24" xmlns="http://www.w3.org/2000/svg" fill="none" stroke="#000000" stroke-width="2" stroke-linecap="round" stroke-linejoin="round"><path d="M11.580 1.095 C 11.470 1.147,11.332 1.242,11.272 1.305 C 11.213 1.368,10.532 2.751,9.758 4.380 C 8.984 6.008,8.339 7.352,8.325 7.367 C 8.311 7.382,6.833 7.604,5.040 7.859 C 3.247 8.114,1.724 8.341,1.656 8.363 C 1.315 8.471,1.001 8.921,1.001 9.300 C 1.001 9.728,0.983 9.708,3.555 12.179 C 4.856 13.428,5.920 14.453,5.920 14.455 C 5.920 14.458,5.668 15.909,5.360 17.680 C 5.052 19.451,4.800 20.955,4.800 21.023 C 4.800 21.663,5.502 22.158,6.108 21.944 C 6.195 21.913,7.381 21.313,8.743 20.610 C 10.106 19.907,11.526 19.174,11.900 18.982 C 12.274 18.791,12.632 18.585,12.695 18.527 C 12.758 18.468,12.853 18.330,12.905 18.220 L 12.999 18.020 12.999 9.900 L 12.999 1.780 12.905 1.580 C 12.664 1.072,12.081 0.858,11.580 1.095 M10.970 17.202 C 10.892 17.270,7.186 19.159,7.167 19.140 C 7.155 19.128,7.339 18.000,7.577 16.633 C 8.034 14.002,8.040 13.953,7.881 13.642 C 7.829 13.541,7.151 12.861,5.997 11.752 C 4.257 10.081,4.198 10.019,4.307 9.990 C 4.369 9.974,5.491 9.808,6.800 9.621 C 8.109 9.435,9.249 9.263,9.333 9.238 C 9.422 9.213,9.565 9.116,9.676 9.007 C 9.839 8.847,9.945 8.654,10.423 7.647 L 10.980 6.474 10.990 11.825 C 10.996 14.768,10.987 17.188,10.970 17.202 " stroke="none" fill-rule="evenodd" fill="black"></path></svg>