<svg viewBox="0 0 24 24" xmlns="http://www.w3.org/2000/svg" fill="none" stroke="#000000" stroke-width="2" stroke-linecap="round" stroke-linejoin="round"><path d="M11.643 1.067 C 11.239 1.214,11.275 1.146,9.740 4.730 L 8.341 8.000 5.120 8.000 C 2.893 8.000,1.851 8.014,1.741 8.045 C 1.502 8.111,1.255 8.300,1.131 8.511 C 1.036 8.673,1.020 8.743,1.021 9.000 C 1.021 9.212,1.043 9.341,1.095 9.440 C 1.135 9.517,2.229 10.643,3.526 11.942 C 5.150 13.569,5.876 14.323,5.860 14.365 C 5.842 14.412,5.803 14.392,5.681 14.277 C 5.280 13.895,4.585 13.934,4.235 14.358 C 4.080 14.546,2.034 19.661,2.009 19.924 C 1.983 20.196,2.094 20.497,2.298 20.700 C 2.546 20.949,2.740 21.000,3.427 21.000 C 3.955 21.000,4.000 21.006,4.000 21.073 C 4.000 21.113,4.030 21.233,4.066 21.340 C 4.229 21.819,4.811 22.113,5.284 21.955 C 5.359 21.930,5.781 21.705,6.221 21.455 L 7.023 21.000 7.601 20.998 C 7.979 20.997,8.232 20.978,8.330 20.943 C 8.698 20.812,8.953 20.482,8.989 20.090 L 9.010 19.860 10.505 19.007 L 12.000 18.155 13.495 19.007 L 14.990 19.860 15.011 20.090 C 15.047 20.482,15.302 20.812,15.670 20.943 C 15.768 20.978,16.021 20.997,16.399 20.998 L 16.977 21.000 17.779 21.455 C 18.219 21.705,18.641 21.930,18.716 21.955 C 19.189 22.113,19.771 21.819,19.934 21.340 C 19.970 21.233,20.000 21.113,20.000 21.073 C 20.000 21.006,20.045 21.000,20.573 21.000 C 21.260 21.000,21.454 20.949,21.702 20.700 C 21.906 20.497,22.017 20.196,21.991 19.924 C 21.966 19.661,19.920 14.546,19.765 14.358 C 19.415 13.934,18.720 13.895,18.319 14.277 C 18.198 14.391,18.158 14.411,18.140 14.365 C 18.124 14.324,18.868 13.552,20.493 11.923 C 22.737 9.674,22.874 9.528,22.940 9.325 C 23.118 8.777,22.831 8.218,22.290 8.055 C 22.142 8.010,21.500 8.000,18.883 8.000 L 15.659 8.000 14.261 4.736 C 12.762 1.237,12.782 1.275,12.418 1.101 C 12.209 1.000,11.866 0.985,11.643 1.067 M13.083 7.070 C 14.018 9.254,14.159 9.559,14.303 9.704 C 14.602 10.005,14.550 10.000,17.216 10.000 L 19.578 10.000 17.854 11.730 C 16.242 13.347,16.125 13.474,16.060 13.675 C 16.014 13.816,15.998 13.954,16.012 14.075 C 16.028 14.209,17.008 17.722,17.344 18.849 C 17.357 18.891,16.425 18.380,14.932 17.527 C 13.595 16.763,12.437 16.111,12.360 16.080 C 12.180 16.005,11.820 16.005,11.640 16.080 C 11.563 16.111,10.405 16.763,9.068 17.527 C 7.575 18.380,6.643 18.891,6.656 18.849 C 6.949 17.867,7.969 14.225,7.986 14.103 C 8.001 13.995,7.984 13.845,7.941 13.696 C 7.874 13.463,7.852 13.438,6.148 11.730 L 4.422 10.000 6.784 10.000 C 9.450 10.000,9.398 10.005,9.697 9.704 C 9.841 9.559,9.982 9.254,10.917 7.070 C 11.498 5.712,11.986 4.600,12.000 4.600 C 12.014 4.600,12.502 5.712,13.083 7.070 M4.562 18.894 C 4.506 19.042,4.475 19.027,4.527 18.878 C 4.550 18.811,4.577 18.763,4.586 18.772 C 4.595 18.781,4.584 18.836,4.562 18.894 M19.477 18.889 C 19.502 18.960,19.506 19.001,19.486 18.979 C 19.443 18.934,19.386 18.760,19.413 18.760 C 19.424 18.760,19.452 18.818,19.477 18.889 " stroke="none" fill-rule="evenodd" fill="black"></path></svg>