<svg viewBox="0 0 24 24" xmlns="http://www.w3.org/2000/svg" fill="none" stroke="#000000" stroke-width="2" stroke-linecap="round" stroke-linejoin="round"><path d="M11.667 2.065 C 11.542 2.103,11.412 2.186,11.300 2.298 C 11.088 2.510,11.175 2.240,10.060 6.146 L 9.191 9.191 6.146 10.060 C 2.355 11.141,2.518 11.088,2.300 11.306 C 1.866 11.741,1.923 12.461,2.421 12.809 C 2.545 12.895,3.312 13.129,5.886 13.865 L 9.191 14.809 10.060 17.855 C 11.175 21.761,11.084 21.477,11.300 21.694 C 11.701 22.095,12.305 22.097,12.704 21.698 C 12.911 21.491,12.827 21.752,13.940 17.854 L 14.809 14.809 17.854 13.940 C 21.761 12.825,21.477 12.916,21.694 12.700 C 22.095 12.299,22.097 11.695,21.698 11.296 C 21.491 11.089,21.752 11.173,17.854 10.060 L 14.809 9.191 13.940 6.146 C 12.828 2.249,12.915 2.522,12.706 2.312 C 12.419 2.025,12.067 1.942,11.667 2.065 M12.551 8.568 C 13.110 10.521,13.148 10.618,13.435 10.817 C 13.541 10.890,14.125 11.075,15.432 11.449 C 16.448 11.739,17.280 11.988,17.280 12.001 C 17.280 12.013,16.565 12.227,15.690 12.476 C 13.515 13.095,13.510 13.096,13.298 13.308 C 13.091 13.515,13.118 13.439,12.477 15.690 C 12.228 16.565,12.013 17.280,12.000 17.280 C 11.987 17.280,11.772 16.565,11.523 15.690 C 10.882 13.439,10.909 13.515,10.702 13.308 C 10.490 13.096,10.485 13.095,8.310 12.476 C 7.436 12.227,6.720 12.013,6.720 12.001 C 6.720 11.988,7.552 11.739,8.568 11.449 C 10.521 10.890,10.618 10.852,10.817 10.565 C 10.890 10.459,11.075 9.875,11.449 8.568 C 11.739 7.552,11.987 6.720,12.000 6.720 C 12.013 6.720,12.261 7.552,12.551 8.568 " stroke="none" fill-rule="evenodd" fill="black"></path></svg>