<svg viewBox="0 0 24 24" xmlns="http://www.w3.org/2000/svg" fill="none" stroke="#000000" stroke-width="2" stroke-linecap="round" stroke-linejoin="round"><path d="M11.700 1.054 C 11.612 1.084,9.713 2.022,7.480 3.138 C 4.216 4.771,3.392 5.199,3.275 5.321 C 2.986 5.624,3.000 5.381,3.000 9.990 L 3.000 14.126 3.102 14.573 C 4.060 18.751,7.249 21.940,11.427 22.898 C 11.979 23.024,12.021 23.024,12.573 22.898 C 14.647 22.422,16.446 21.430,17.938 19.938 C 19.430 18.446,20.422 16.647,20.898 14.573 L 21.000 14.126 21.000 9.990 C 21.000 5.338,21.017 5.613,20.702 5.303 C 20.568 5.171,19.745 4.746,16.418 3.087 C 11.943 0.856,12.096 0.922,11.700 1.054 M15.500 4.870 L 19.000 6.620 19.000 10.252 C 19.000 14.201,19.010 13.998,18.771 14.800 C 17.958 17.531,15.739 19.813,13.037 20.696 C 12.278 20.944,12.060 20.982,11.753 20.922 C 11.287 20.830,10.420 20.518,9.856 20.240 C 7.631 19.140,5.923 17.132,5.229 14.800 C 4.990 13.998,5.000 14.201,5.000 10.252 L 5.000 6.620 8.490 4.872 C 10.410 3.911,11.984 3.123,11.990 3.122 C 11.995 3.121,13.575 3.907,15.500 4.870 M11.695 6.057 C 11.466 6.129,11.256 6.299,11.128 6.516 L 11.020 6.700 11.009 8.850 L 10.997 11.000 9.445 11.000 C 7.758 11.000,7.658 11.011,7.382 11.221 C 7.302 11.282,7.187 11.415,7.128 11.516 C 7.037 11.672,7.020 11.746,7.020 12.000 C 7.020 12.256,7.036 12.328,7.131 12.489 C 7.192 12.592,7.304 12.725,7.381 12.783 C 7.654 12.991,7.700 12.996,9.409 12.998 L 10.997 13.000 11.009 15.153 L 11.020 17.306 11.141 17.503 C 11.543 18.156,12.457 18.156,12.859 17.503 L 12.980 17.306 12.991 15.153 L 13.003 13.000 14.591 12.998 C 16.300 12.996,16.346 12.991,16.619 12.783 C 16.696 12.725,16.808 12.592,16.869 12.489 C 16.964 12.328,16.980 12.256,16.980 12.000 C 16.980 11.746,16.963 11.672,16.872 11.516 C 16.813 11.415,16.698 11.282,16.618 11.221 C 16.342 11.011,16.242 11.000,14.555 11.000 L 13.003 11.000 12.991 8.850 L 12.980 6.700 12.872 6.516 C 12.628 6.101,12.150 5.915,11.695 6.057 " stroke="none" fill-rule="evenodd" fill="black"></path></svg>