<svg viewBox="0 0 24 24" xmlns="http://www.w3.org/2000/svg" fill="none" stroke="#000000" stroke-width="2" stroke-linecap="round" stroke-linejoin="round"><path d="M11.280 1.023 C 11.203 1.032,10.951 1.059,10.720 1.083 C 8.832 1.283,6.991 2.023,5.360 3.235 C 4.751 3.688,3.684 4.755,3.226 5.367 C 0.728 8.714,0.301 13.032,2.097 16.780 C 2.643 17.918,3.276 18.801,4.238 19.762 C 5.199 20.724,6.082 21.357,7.220 21.903 C 10.967 23.699,15.288 23.270,18.637 20.770 C 19.246 20.316,20.316 19.246,20.770 18.637 C 22.226 16.687,23.000 14.383,23.000 12.000 C 23.000 9.654,22.225 7.315,20.831 5.449 C 20.655 5.213,20.503 5.002,20.495 4.979 C 20.486 4.957,20.594 4.825,20.735 4.685 L 20.991 4.431 21.006 4.870 C 21.020 5.274,21.030 5.323,21.142 5.504 C 21.543 6.156,22.457 6.156,22.859 5.503 L 22.980 5.306 22.992 3.563 C 23.002 2.016,22.996 1.801,22.937 1.646 C 22.845 1.405,22.657 1.204,22.420 1.094 C 22.221 1.001,22.215 1.001,20.556 1.000 C 18.749 1.000,18.660 1.009,18.382 1.221 C 18.302 1.282,18.187 1.415,18.128 1.516 C 18.037 1.672,18.020 1.746,18.020 2.000 C 18.020 2.256,18.036 2.328,18.131 2.489 C 18.350 2.861,18.631 2.996,19.199 2.998 L 19.578 3.000 19.319 3.261 C 19.177 3.404,19.040 3.513,19.014 3.503 C 18.989 3.494,18.790 3.352,18.574 3.189 C 17.081 2.065,15.336 1.356,13.423 1.096 C 13.000 1.038,11.574 0.990,11.280 1.023 M13.320 3.101 C 13.867 3.184,14.481 3.334,14.980 3.508 C 15.773 3.785,16.882 4.383,17.434 4.830 L 17.608 4.972 16.899 5.681 L 16.191 6.390 15.873 6.178 C 15.029 5.613,14.002 5.222,12.980 5.076 C 12.217 4.967,11.093 5.022,10.340 5.205 C 7.593 5.872,5.535 8.130,5.074 10.980 C 5.008 11.393,5.008 12.607,5.074 13.020 C 5.574 16.112,7.888 18.426,10.980 18.926 C 11.392 18.992,12.607 18.992,13.020 18.926 C 16.109 18.428,18.428 16.109,18.926 13.020 C 18.954 12.844,18.977 12.385,18.977 12.000 C 18.977 11.615,18.954 11.156,18.926 10.980 C 18.760 9.951,18.372 8.948,17.822 8.127 L 17.610 7.809 18.319 7.101 L 19.028 6.392 19.170 6.566 C 19.617 7.118,20.215 8.227,20.492 9.020 C 20.838 10.013,20.977 10.865,20.977 12.000 C 20.977 13.493,20.720 14.621,20.080 15.940 C 19.375 17.394,18.311 18.607,16.927 19.532 C 16.138 20.060,14.876 20.588,13.908 20.797 C 11.266 21.366,8.479 20.708,6.370 19.019 C 4.857 17.807,3.722 16.029,3.267 14.160 C 3.081 13.397,3.023 12.888,3.023 12.000 C 3.023 10.507,3.280 9.379,3.920 8.060 C 4.971 5.891,6.877 4.221,9.160 3.466 C 9.865 3.233,10.432 3.118,11.340 3.024 C 11.662 2.991,12.911 3.039,13.320 3.101 M12.552 7.043 C 13.198 7.113,13.682 7.258,14.272 7.557 C 14.797 7.823,14.785 7.787,14.456 8.127 C 14.124 8.469,14.041 8.613,14.012 8.895 C 13.971 9.295,14.158 9.662,14.508 9.867 C 14.673 9.964,14.742 9.980,15.000 9.979 C 15.373 9.978,15.481 9.924,15.873 9.544 C 16.157 9.270,16.169 9.263,16.227 9.340 C 16.313 9.455,16.584 9.998,16.680 10.248 C 17.092 11.320,17.085 12.720,16.663 13.793 C 16.120 15.174,14.991 16.256,13.600 16.732 C 13.044 16.922,12.670 16.980,12.000 16.980 C 11.330 16.980,10.956 16.922,10.400 16.732 C 8.808 16.188,7.580 14.864,7.161 13.240 C 6.920 12.307,6.983 11.125,7.320 10.248 C 8.146 8.096,10.274 6.793,12.552 7.043 M11.499 9.040 C 10.363 9.246,9.460 10.049,9.114 11.160 C 8.979 11.594,8.979 12.406,9.114 12.840 C 9.421 13.826,10.174 14.579,11.160 14.886 C 11.594 15.021,12.406 15.021,12.840 14.886 C 13.826 14.579,14.579 13.826,14.886 12.840 C 15.021 12.406,15.021 11.594,14.886 11.160 C 14.581 10.179,13.810 9.407,12.861 9.129 C 12.500 9.023,11.832 8.980,11.499 9.040 M12.310 11.061 C 12.688 11.173,13.000 11.598,13.000 12.001 C 13.000 12.331,12.784 12.696,12.484 12.872 C 12.328 12.963,12.254 12.980,12.000 12.980 C 11.746 12.980,11.672 12.963,11.516 12.872 C 10.935 12.530,10.833 11.774,11.304 11.303 C 11.583 11.024,11.916 10.944,12.310 11.061 " stroke="none" fill-rule="evenodd" fill="black"></path></svg>