<svg viewBox="0 0 24 24" xmlns="http://www.w3.org/2000/svg" fill="none" stroke="#000000" stroke-width="2" stroke-linecap="round" stroke-linejoin="round"><path d="M9.670 1.061 C 9.448 1.142,9.250 1.309,9.128 1.516 C 9.037 1.672,9.020 1.746,9.020 2.000 C 9.020 2.254,9.036 2.327,9.127 2.480 C 9.263 2.708,19.367 12.805,19.560 12.905 C 19.659 12.957,19.788 12.979,20.000 12.979 C 20.258 12.980,20.327 12.964,20.492 12.867 C 20.968 12.587,21.139 11.967,20.865 11.508 C 20.810 11.416,18.465 9.043,15.653 6.235 C 10.955 1.544,10.524 1.125,10.343 1.065 C 10.107 0.987,9.874 0.986,9.670 1.061 M9.640 5.069 C 9.488 5.121,9.208 5.381,7.847 6.735 C 6.960 7.618,6.186 8.421,6.127 8.520 C 6.036 8.673,6.020 8.746,6.020 9.003 C 6.020 9.271,6.034 9.329,6.141 9.502 C 6.295 9.751,6.539 9.922,6.818 9.978 L 7.038 10.022 5.067 12.783 C 3.594 14.846,3.081 15.592,3.042 15.733 C 2.799 16.602,3.770 17.324,4.531 16.842 C 4.686 16.744,5.099 16.185,7.309 13.091 C 9.268 10.348,9.918 9.410,9.958 9.267 C 10.073 8.858,9.912 8.425,9.554 8.179 L 9.368 8.051 10.067 7.356 C 10.911 6.515,10.980 6.413,10.980 6.000 C 10.980 5.746,10.963 5.672,10.872 5.516 C 10.617 5.083,10.121 4.902,9.640 5.069 M12.670 12.061 C 12.448 12.142,12.250 12.309,12.128 12.516 C 12.036 12.672,12.020 12.745,12.021 13.000 C 12.021 13.212,12.043 13.341,12.095 13.440 C 12.196 13.632,15.296 16.739,15.520 16.873 C 15.672 16.964,15.746 16.980,16.000 16.980 C 16.257 16.980,16.327 16.964,16.492 16.867 C 16.968 16.587,17.138 15.968,16.866 15.508 C 16.811 15.416,16.040 14.618,15.153 13.736 C 13.714 12.305,13.519 12.124,13.343 12.066 C 13.108 11.987,12.875 11.986,12.670 12.061 M9.670 15.057 C 9.449 15.136,9.256 15.298,9.131 15.511 C 9.036 15.673,9.020 15.744,9.020 16.004 C 9.020 16.275,9.033 16.329,9.148 16.513 L 9.276 16.719 6.769 18.511 C 4.007 20.486,4.059 20.440,4.013 20.890 C 3.956 21.442,4.347 21.932,4.888 21.987 C 5.240 22.023,5.381 21.957,6.213 21.364 L 6.990 20.810 7.010 21.064 C 7.057 21.649,7.532 22.047,8.112 21.987 C 8.509 21.946,8.575 21.882,9.823 20.321 C 10.457 19.528,10.986 18.880,11.000 18.880 C 11.014 18.880,11.543 19.528,12.177 20.321 C 13.425 21.882,13.491 21.946,13.888 21.987 C 14.447 22.044,14.931 21.657,14.988 21.107 C 15.029 20.703,14.986 20.632,13.696 19.020 C 13.044 18.206,12.460 17.475,12.396 17.395 L 12.281 17.249 12.566 16.895 C 12.914 16.461,12.998 16.288,12.999 16.000 C 13.000 15.451,12.551 15.002,12.000 15.002 C 11.736 15.002,11.541 15.084,11.211 15.335 C 11.077 15.437,10.956 15.520,10.941 15.520 C 10.927 15.520,10.829 15.431,10.723 15.323 C 10.440 15.032,10.030 14.929,9.670 15.057 " stroke="none" fill-rule="evenodd" fill="black"></path></svg>