<svg viewBox="0 0 24 24" xmlns="http://www.w3.org/2000/svg" fill="none" stroke="#000000" stroke-width="2" stroke-linecap="round" stroke-linejoin="round"><path d="M11.280 1.023 C 11.203 1.032,10.951 1.059,10.720 1.083 C 8.832 1.283,6.991 2.023,5.360 3.235 C 4.751 3.688,3.684 4.755,3.226 5.367 C 1.684 7.434,0.929 9.827,1.013 12.380 C 1.071 14.108,1.457 15.572,2.263 17.116 C 3.718 19.905,6.383 21.980,9.440 22.706 C 10.852 23.041,12.587 23.091,13.960 22.835 C 16.206 22.415,18.169 21.383,19.776 19.776 C 21.384 18.168,22.415 16.208,22.835 13.960 C 23.091 12.587,23.041 10.852,22.706 9.440 C 21.981 6.386,19.898 3.712,17.117 2.263 C 15.506 1.423,14.051 1.051,12.260 1.021 C 11.798 1.014,11.357 1.014,11.280 1.023 M12.760 3.041 C 14.204 3.170,15.761 3.704,16.900 4.462 C 18.293 5.388,19.452 6.711,20.122 8.140 C 20.706 9.386,20.975 10.598,20.971 11.960 C 20.967 13.316,20.755 14.384,20.260 15.536 C 19.805 16.596,19.246 17.428,18.423 18.273 C 16.982 19.753,15.204 20.634,13.080 20.923 C 12.545 20.996,11.259 20.986,10.740 20.905 C 9.752 20.750,8.882 20.479,8.020 20.058 C 6.230 19.184,4.690 17.611,3.852 15.800 C 2.407 12.680,2.845 9.042,4.987 6.369 C 6.854 4.039,9.801 2.777,12.760 3.041 " stroke="none" fill-rule="evenodd" fill="black"></path></svg>