<svg viewBox="0 0 24 24" xmlns="http://www.w3.org/2000/svg" fill="none" stroke="#000000" stroke-width="2" stroke-linecap="round" stroke-linejoin="round"><path d="M11.580 4.095 C 11.470 4.147,11.333 4.242,11.276 4.305 C 11.218 4.368,9.116 8.077,6.603 12.546 C 2.442 19.947,2.033 20.691,2.013 20.890 C 1.981 21.196,2.083 21.485,2.298 21.700 C 2.626 22.028,1.731 22.000,12.017 21.998 C 21.925 21.996,21.322 22.010,21.619 21.783 C 21.917 21.556,22.071 21.082,21.960 20.736 C 21.893 20.527,12.857 4.451,12.724 4.305 C 12.565 4.130,12.258 4.001,12.000 4.001 C 11.852 4.001,11.715 4.032,11.580 4.095 M9.714 17.856 L 8.428 20.000 6.571 20.000 L 4.714 20.000 4.867 19.726 C 4.951 19.575,6.361 17.067,8.000 14.154 L 10.980 8.857 10.990 12.285 L 11.000 15.713 9.714 17.856 M19.147 19.750 L 19.287 20.000 17.426 20.000 L 15.564 20.000 14.282 17.864 L 13.000 15.727 13.000 12.275 L 13.000 8.822 16.003 14.161 C 17.655 17.097,19.070 19.613,19.147 19.750 M11.000 19.820 C 11.000 19.993,10.995 20.000,10.881 20.000 L 10.762 20.000 10.871 19.820 C 10.930 19.721,10.984 19.640,10.990 19.640 C 10.995 19.640,11.000 19.721,11.000 19.820 M13.199 19.970 C 13.199 19.987,13.155 20.000,13.100 20.000 C 13.007 20.000,13.000 19.986,13.000 19.810 L 13.000 19.620 13.099 19.780 C 13.153 19.868,13.198 19.953,13.199 19.970 " stroke="none" fill-rule="evenodd" fill="black"></path></svg>