<svg viewBox="0 0 24 24" xmlns="http://www.w3.org/2000/svg" fill="none" stroke="#000000" stroke-width="2" stroke-linecap="round" stroke-linejoin="round"><path d="M8.477 2.073 C 7.806 2.249,7.238 2.823,7.060 3.508 C 7.012 3.693,7.000 4.051,7.000 5.364 L 7.000 6.991 6.230 7.010 C 5.567 7.027,5.416 7.043,5.139 7.126 C 4.181 7.415,3.420 8.179,3.114 9.160 L 3.020 9.460 3.020 13.000 L 3.020 16.540 3.114 16.840 C 3.422 17.827,4.173 18.578,5.160 18.886 L 5.460 18.980 12.000 18.980 L 18.540 18.980 18.840 18.886 C 19.827 18.578,20.578 17.827,20.886 16.840 L 20.980 16.540 20.980 13.000 L 20.980 9.460 20.886 9.160 C 20.580 8.179,19.819 7.415,18.861 7.126 C 18.584 7.043,18.433 7.027,17.770 7.010 L 17.000 6.991 16.999 5.385 C 16.999 3.653,16.982 3.479,16.781 3.083 C 16.646 2.816,16.297 2.449,16.017 2.281 C 14.894 1.605,13.393 2.227,13.060 3.508 C 13.011 3.693,13.000 4.051,13.000 5.368 L 13.000 7.000 12.000 7.000 L 11.000 7.000 10.999 5.390 C 10.999 3.652,10.982 3.479,10.781 3.083 C 10.646 2.816,10.297 2.449,10.017 2.281 C 9.734 2.110,9.345 2.005,9.000 2.005 C 8.857 2.005,8.622 2.036,8.477 2.073 M18.310 9.061 C 18.589 9.144,18.856 9.411,18.939 9.690 C 19.025 9.980,19.031 16.004,18.945 16.290 C 18.872 16.533,18.707 16.740,18.484 16.872 L 18.300 16.980 12.000 16.980 L 5.700 16.980 5.516 16.872 C 5.303 16.747,5.141 16.550,5.058 16.316 C 4.969 16.063,4.971 9.991,5.061 9.690 C 5.140 9.421,5.412 9.143,5.673 9.063 C 5.963 8.974,18.010 8.972,18.310 9.061 M15.477 12.073 C 14.806 12.249,14.238 12.823,14.060 13.508 C 13.941 13.962,14.003 14.492,14.225 14.930 C 14.361 15.199,14.801 15.639,15.070 15.775 C 15.659 16.073,16.341 16.073,16.930 15.775 C 17.196 15.640,17.638 15.200,17.771 14.937 C 17.994 14.498,18.052 14.007,17.940 13.529 C 17.858 13.182,17.720 12.927,17.465 12.653 C 17.074 12.232,16.560 12.005,16.000 12.005 C 15.857 12.005,15.622 12.036,15.477 12.073 " stroke="none" fill-rule="evenodd" fill="black"></path></svg>