<svg viewBox="0 0 24 24" xmlns="http://www.w3.org/2000/svg" fill="none" stroke="#000000" stroke-width="2" stroke-linecap="round" stroke-linejoin="round"><path d="M6.507 3.041 C 4.818 3.244,3.478 4.721,3.096 6.800 C 2.988 7.392,2.994 8.464,3.110 8.974 C 3.474 10.583,4.299 12.185,6.480 15.519 L 6.991 16.300 6.957 16.570 C 6.913 16.921,6.853 17.137,6.739 17.359 C 6.531 17.764,6.266 17.999,6.016 18.000 C 5.509 18.001,5.063 18.397,5.012 18.892 C 4.971 19.296,5.134 19.601,5.578 19.949 C 6.185 20.424,6.828 20.643,7.620 20.645 C 8.457 20.648,9.283 20.332,9.870 19.785 L 10.000 19.664 10.130 19.785 C 10.314 19.957,10.627 20.173,10.860 20.291 C 10.988 20.355,11.106 20.457,11.187 20.572 C 11.515 21.041,12.156 21.132,12.621 20.777 C 12.733 20.692,12.880 20.623,12.998 20.600 C 13.520 20.501,14.015 20.271,14.452 19.924 C 14.867 19.594,14.980 19.396,14.980 19.000 C 14.980 18.744,14.964 18.672,14.869 18.511 C 14.695 18.215,14.323 18.001,13.980 18.000 C 13.734 17.999,13.468 17.762,13.261 17.359 C 13.149 17.141,13.095 16.950,13.043 16.581 L 13.003 16.302 13.529 15.501 C 14.164 14.533,15.015 13.173,15.346 12.600 C 16.149 11.207,16.656 10.016,16.889 8.974 C 17.015 8.411,17.014 7.374,16.887 6.731 C 16.575 5.157,15.761 3.959,14.623 3.398 C 14.401 3.288,14.076 3.159,13.900 3.111 C 13.583 3.024,13.548 3.023,10.180 3.016 C 8.310 3.012,6.657 3.023,6.507 3.041 M13.620 5.116 C 13.800 5.188,13.930 5.282,14.141 5.496 C 14.611 5.971,14.874 6.612,14.968 7.509 C 15.118 8.948,14.421 10.489,11.857 14.389 C 11.507 14.921,11.171 15.451,11.110 15.566 L 11.000 15.774 11.000 16.755 L 11.000 17.736 10.870 17.520 C 10.556 16.996,9.915 16.851,9.421 17.192 C 9.322 17.261,9.186 17.426,9.061 17.630 C 8.865 17.949,8.566 18.339,8.538 18.311 C 8.530 18.304,8.585 18.145,8.660 17.959 C 8.915 17.320,9.079 16.108,8.961 15.738 C 8.933 15.651,8.583 15.076,8.182 14.460 C 6.315 11.590,5.646 10.385,5.239 9.166 C 5.021 8.512,4.972 8.121,5.031 7.530 C 5.089 6.954,5.194 6.561,5.404 6.135 C 5.583 5.770,5.921 5.370,6.175 5.221 C 6.550 5.001,6.504 5.003,10.080 5.012 L 13.380 5.020 13.620 5.116 " stroke="none" fill-rule="evenodd" fill="black"></path></svg>