<svg viewBox="0 0 24 24" xmlns="http://www.w3.org/2000/svg" fill="none" stroke="#000000" stroke-width="2" stroke-linecap="round" stroke-linejoin="round"><path d="M8.240 4.037 C 7.869 4.152,7.640 4.400,7.509 4.828 C 7.456 4.999,7.138 6.059,6.801 7.182 L 6.189 9.225 5.865 9.125 C 5.554 9.030,5.486 9.025,4.260 9.009 C 3.394 8.998,2.914 9.007,2.776 9.038 C 2.515 9.096,2.269 9.277,2.129 9.514 C 2.036 9.672,2.020 9.745,2.020 10.000 C 2.020 10.256,2.036 10.328,2.131 10.489 C 2.192 10.592,2.304 10.725,2.381 10.783 C 2.644 10.984,2.734 10.996,3.963 10.998 C 5.306 11.000,5.413 11.019,5.697 11.303 C 5.935 11.542,6.000 11.760,6.000 12.330 L 6.000 12.765 5.830 12.627 C 5.571 12.416,5.175 12.215,4.820 12.113 C 4.357 11.981,3.595 11.987,3.139 12.125 C 2.179 12.417,1.419 13.181,1.114 14.160 C 0.979 14.594,0.979 15.407,1.114 15.839 C 1.275 16.352,1.509 16.743,1.875 17.109 C 1.945 17.179,2.053 17.332,2.113 17.448 C 2.240 17.690,2.488 17.897,2.728 17.962 C 2.838 17.992,3.332 18.001,4.236 17.991 C 5.505 17.976,5.596 17.970,5.860 17.884 C 6.831 17.566,7.561 16.837,7.885 15.860 C 7.978 15.581,7.978 15.574,8.000 12.800 L 8.021 10.020 8.533 8.340 C 8.815 7.416,9.090 6.511,9.145 6.330 L 9.245 6.000 11.472 6.000 L 13.700 5.999 13.900 5.905 C 14.281 5.724,14.488 5.405,14.488 5.000 C 14.488 4.615,14.293 4.297,13.940 4.106 C 13.781 4.020,13.765 4.020,11.060 4.013 C 9.564 4.009,8.295 4.020,8.240 4.037 M17.695 4.057 C 17.466 4.129,17.256 4.299,17.128 4.516 C 17.037 4.672,17.020 4.746,17.020 5.000 C 17.020 5.256,17.036 5.328,17.131 5.489 C 17.192 5.592,17.304 5.725,17.381 5.783 C 17.643 5.983,17.738 5.996,18.910 5.998 L 20.000 6.000 20.000 8.000 L 20.000 10.000 18.946 10.000 C 17.797 10.000,17.644 10.022,17.382 10.221 C 17.064 10.463,16.922 10.939,17.054 11.317 L 17.115 11.493 16.936 11.288 C 16.570 10.870,15.860 10.414,15.245 10.204 C 14.951 10.103,14.322 10.000,14.000 10.000 C 12.635 10.000,11.253 10.787,10.569 11.953 C 9.320 14.083,10.233 16.785,12.512 17.704 C 13.231 17.994,14.023 18.070,14.757 17.921 C 15.136 17.843,15.762 17.619,15.933 17.499 C 16.055 17.414,16.088 17.425,16.207 17.598 C 16.266 17.684,16.401 17.804,16.507 17.867 L 16.700 17.980 18.240 17.980 C 19.665 17.980,19.790 17.974,19.920 17.906 C 20.096 17.812,20.310 17.612,20.382 17.475 C 20.412 17.417,20.789 15.963,21.219 14.244 L 22.002 11.117 21.991 7.909 L 21.980 4.700 21.872 4.516 C 21.740 4.293,21.533 4.128,21.290 4.055 C 21.035 3.978,17.941 3.980,17.695 4.057 M18.712 11.993 C 19.639 12.004,19.722 12.011,19.703 12.073 C 19.692 12.110,19.484 12.941,19.240 13.920 C 18.996 14.899,18.778 15.768,18.757 15.850 L 18.717 16.000 18.098 16.000 C 17.758 16.000,17.480 15.986,17.480 15.968 C 17.480 15.950,17.497 15.919,17.517 15.898 C 17.602 15.811,17.847 15.120,17.921 14.757 C 18.070 14.022,17.994 13.231,17.702 12.508 C 17.626 12.319,17.521 12.095,17.469 12.012 C 17.417 11.928,17.360 11.835,17.342 11.805 C 17.324 11.775,17.397 11.802,17.505 11.865 L 17.700 11.980 18.712 11.993 M14.523 12.073 C 15.262 12.266,15.850 12.924,15.967 13.690 C 16.067 14.343,15.873 14.933,15.403 15.404 C 15.002 15.807,14.547 16.000,14.000 16.000 C 13.485 16.000,13.038 15.822,12.653 15.465 C 11.323 14.229,12.189 12.005,14.000 12.005 C 14.143 12.005,14.378 12.036,14.523 12.073 M4.310 14.061 C 4.688 14.173,5.000 14.598,5.000 15.001 C 5.000 15.331,4.784 15.696,4.484 15.872 C 4.328 15.963,4.254 15.980,4.000 15.980 C 3.746 15.980,3.672 15.963,3.516 15.872 C 2.935 15.530,2.833 14.774,3.304 14.303 C 3.583 14.024,3.916 13.944,4.310 14.061 " stroke="none" fill-rule="evenodd" fill="black"></path></svg>