<svg viewBox="0 0 24 24" xmlns="http://www.w3.org/2000/svg" fill="none" stroke="#000000" stroke-width="2" stroke-linecap="round" stroke-linejoin="round"><path d="M5.499 2.043 C 4.380 2.233,3.461 3.048,3.114 4.160 L 3.020 4.460 3.020 11.000 L 3.020 17.540 3.114 17.840 C 3.238 18.240,3.437 18.609,3.679 18.891 C 4.256 19.565,4.930 19.919,5.770 19.990 L 6.120 20.020 5.600 20.800 C 4.971 21.741,4.914 21.905,5.061 22.322 C 5.289 22.969,6.070 23.202,6.616 22.786 C 6.684 22.734,7.143 22.086,7.636 21.346 L 8.533 20.000 12.000 20.000 L 15.467 20.000 16.364 21.346 C 16.857 22.086,17.316 22.734,17.384 22.786 C 18.039 23.285,19.000 22.817,19.000 22.000 C 19.000 21.745,18.904 21.556,18.383 20.775 L 17.879 20.020 18.230 19.990 C 19.479 19.885,20.508 19.053,20.886 17.840 L 20.980 17.540 20.980 11.000 L 20.980 4.460 20.886 4.160 C 20.581 3.182,19.832 2.428,18.861 2.121 L 18.540 2.020 12.120 2.014 C 8.589 2.011,5.609 2.024,5.499 2.043 M11.000 7.000 L 11.000 10.000 8.000 10.000 L 5.000 10.000 5.000 7.447 C 5.000 4.538,4.993 4.614,5.304 4.303 C 5.609 3.997,5.520 4.006,8.430 4.003 L 11.000 4.000 11.000 7.000 M18.310 4.061 C 18.452 4.103,18.571 4.178,18.697 4.303 C 19.007 4.614,19.000 4.538,19.000 7.447 L 19.000 10.000 16.000 10.000 L 13.000 10.000 13.000 7.000 L 13.000 4.000 15.553 4.000 C 17.722 4.000,18.136 4.009,18.310 4.061 M19.000 14.554 C 19.000 17.325,19.000 17.328,18.779 17.618 C 18.718 17.698,18.585 17.813,18.484 17.872 L 18.300 17.980 12.000 17.980 L 5.700 17.980 5.516 17.872 C 5.415 17.813,5.284 17.700,5.225 17.623 C 4.996 17.323,5.000 17.373,5.000 14.575 L 5.000 12.000 12.000 12.000 L 19.000 12.000 19.000 14.554 M8.477 13.073 C 7.806 13.249,7.238 13.823,7.060 14.508 C 6.941 14.962,7.003 15.492,7.225 15.930 C 7.361 16.199,7.801 16.639,8.070 16.775 C 8.659 17.073,9.341 17.073,9.930 16.775 C 10.196 16.640,10.638 16.200,10.771 15.937 C 10.994 15.498,11.052 15.007,10.940 14.529 C 10.858 14.182,10.720 13.927,10.465 13.653 C 10.074 13.232,9.560 13.005,9.000 13.005 C 8.857 13.005,8.622 13.036,8.477 13.073 M14.477 13.073 C 13.806 13.249,13.238 13.823,13.060 14.508 C 12.941 14.962,13.003 15.492,13.225 15.930 C 13.361 16.199,13.801 16.639,14.070 16.775 C 14.657 17.073,15.345 17.071,15.937 16.771 C 16.197 16.639,16.639 16.197,16.771 15.937 C 16.994 15.498,17.052 15.007,16.940 14.529 C 16.858 14.182,16.720 13.927,16.465 13.653 C 16.074 13.232,15.560 13.005,15.000 13.005 C 14.857 13.005,14.622 13.036,14.477 13.073 " stroke="none" fill-rule="evenodd" fill="black"></path></svg>