<svg viewBox="0 0 24 24" xmlns="http://www.w3.org/2000/svg" fill="none" stroke="#000000" stroke-width="2" stroke-linecap="round" stroke-linejoin="round"><path d="M1.670 1.061 C 1.448 1.142,1.250 1.309,1.128 1.516 C 1.036 1.672,1.020 1.745,1.021 2.000 C 1.021 2.213,1.043 2.341,1.095 2.440 C 1.136 2.517,1.711 3.124,2.374 3.790 L 3.578 5.000 3.235 5.000 C 2.664 5.000,2.344 5.149,2.128 5.516 C 2.037 5.672,2.020 5.746,2.020 6.000 C 2.020 6.256,2.036 6.328,2.131 6.489 C 2.256 6.702,2.449 6.864,2.670 6.943 C 2.768 6.978,3.023 6.997,3.409 6.998 L 3.998 7.000 4.009 13.790 L 4.020 20.580 4.114 20.860 C 4.446 21.851,5.184 22.582,6.160 22.886 L 6.460 22.980 12.000 22.980 L 17.540 22.980 17.840 22.886 C 18.599 22.649,19.289 22.091,19.644 21.426 L 19.769 21.192 20.595 22.011 C 21.049 22.462,21.483 22.864,21.560 22.905 C 21.659 22.957,21.787 22.979,22.000 22.979 C 22.258 22.980,22.327 22.964,22.492 22.867 C 22.968 22.587,23.139 21.967,22.865 21.508 C 22.810 21.416,22.143 20.719,21.383 19.960 L 20.000 18.580 20.000 12.790 L 20.000 7.000 20.590 6.998 C 20.977 6.997,21.232 6.978,21.330 6.943 C 21.551 6.864,21.744 6.702,21.869 6.489 C 21.964 6.328,21.980 6.256,21.980 6.000 C 21.980 5.746,21.963 5.672,21.872 5.516 C 21.740 5.293,21.533 5.128,21.290 5.055 C 21.138 5.009,19.870 5.000,13.765 5.000 L 6.423 5.000 4.481 3.065 C 2.736 1.326,2.520 1.124,2.343 1.065 C 2.107 0.987,1.875 0.986,1.670 1.061 M18.000 11.780 C 18.000 14.409,17.995 16.560,17.990 16.560 C 17.984 16.560,15.829 14.409,13.200 11.780 L 8.420 7.000 13.210 7.000 L 18.000 7.000 18.000 11.780 M18.000 19.764 C 18.000 20.336,17.851 20.656,17.484 20.872 L 17.300 20.980 12.000 20.980 L 6.700 20.980 6.516 20.872 C 6.415 20.813,6.284 20.700,6.225 20.623 C 5.986 20.310,6.000 20.723,6.000 13.785 L 6.000 7.420 12.000 13.420 L 18.000 19.420 18.000 19.764 " stroke="none" fill-rule="evenodd" fill="black"></path></svg>