<svg viewBox="0 0 24 24" xmlns="http://www.w3.org/2000/svg" fill="none" stroke="#000000" stroke-width="2" stroke-linecap="round" stroke-linejoin="round"><path d="M11.200 3.045 C 8.541 3.311,6.067 4.984,4.672 7.460 C 4.131 8.419,3.739 9.611,3.577 10.780 C 3.489 11.418,3.490 12.588,3.578 13.180 C 4.063 16.418,6.243 18.831,9.447 19.677 C 9.858 19.785,10.294 19.869,10.808 19.939 L 10.996 19.964 11.008 21.135 L 11.020 22.306 11.141 22.503 C 11.543 23.156,12.457 23.156,12.859 22.503 L 12.980 22.306 12.992 21.135 L 13.004 19.964 13.192 19.939 C 15.850 19.579,17.871 18.410,19.166 16.483 C 20.053 15.163,20.487 13.694,20.488 12.000 C 20.491 9.431,19.518 7.117,17.694 5.356 C 15.934 3.655,13.555 2.809,11.200 3.045 M12.940 5.085 C 14.909 5.379,16.750 6.781,17.728 8.732 C 18.231 9.737,18.481 10.811,18.479 11.970 C 18.478 13.223,18.232 14.160,17.648 15.140 C 16.578 16.935,14.478 17.998,12.000 17.998 C 8.995 17.998,6.637 16.466,5.822 13.986 C 5.748 13.763,5.676 13.510,5.661 13.425 L 5.635 13.271 5.757 13.358 C 5.985 13.520,6.562 13.765,6.952 13.865 C 7.412 13.982,8.029 14.029,8.264 13.965 C 8.498 13.901,8.737 13.714,8.867 13.492 C 8.964 13.327,8.980 13.257,8.980 13.000 C 8.980 12.746,8.963 12.672,8.872 12.516 C 8.758 12.323,8.561 12.149,8.373 12.077 C 8.311 12.053,8.087 12.017,7.876 11.996 C 7.241 11.936,6.808 11.741,6.474 11.365 C 6.226 11.086,6.085 10.755,6.038 10.336 C 6.016 10.140,5.981 9.886,5.961 9.770 C 5.917 9.521,5.971 9.335,6.249 8.780 C 6.681 7.916,7.141 7.302,7.832 6.672 C 8.897 5.699,10.097 5.171,11.580 5.024 C 11.814 5.001,12.616 5.037,12.940 5.085 " stroke="none" fill-rule="evenodd" fill="black"></path></svg>