<svg viewBox="0 0 24 24" xmlns="http://www.w3.org/2000/svg" fill="none" stroke="#000000" stroke-width="2" stroke-linecap="round" stroke-linejoin="round"><path d="M8.695 9.057 C 8.285 9.185,8.038 9.518,8.009 9.980 L 7.990 10.272 7.726 10.466 C 7.372 10.725,6.754 11.345,6.454 11.741 C 5.725 12.702,5.256 13.801,5.082 14.958 C 5.057 15.122,5.031 15.262,5.024 15.270 C 5.017 15.277,5.002 15.149,4.992 14.986 C 4.969 14.629,4.848 14.392,4.595 14.205 C 4.119 13.855,3.432 13.998,3.132 14.510 C 2.851 14.990,3.053 16.167,3.567 17.043 C 3.878 17.574,4.409 18.107,4.956 18.436 C 5.512 18.771,6.341 19.000,7.000 19.000 C 7.659 19.000,8.488 18.771,9.044 18.436 C 9.544 18.135,10.141 17.556,10.370 17.150 C 10.444 17.019,10.473 17.000,10.602 17.000 C 10.741 17.000,10.755 17.012,10.835 17.198 C 11.054 17.706,11.037 18.379,10.793 18.880 C 10.638 19.198,10.227 19.625,9.930 19.775 C 9.668 19.908,9.319 20.000,9.078 20.000 C 8.511 20.000,8.066 20.371,8.013 20.888 C 7.971 21.293,8.156 21.661,8.505 21.865 C 8.766 22.018,9.190 22.038,9.744 21.924 C 11.124 21.640,12.188 20.763,12.705 19.484 C 12.979 18.806,13.067 17.998,12.940 17.334 C 12.907 17.161,12.880 17.015,12.880 17.010 C 12.880 17.005,13.751 17.000,14.815 17.000 L 16.750 17.000 16.835 17.198 C 17.054 17.706,17.037 18.379,16.793 18.880 C 16.638 19.198,16.227 19.625,15.930 19.775 C 15.668 19.908,15.319 20.000,15.078 20.000 C 14.511 20.000,14.066 20.371,14.013 20.888 C 13.971 21.293,14.156 21.661,14.505 21.865 C 14.878 22.084,15.714 22.016,16.488 21.704 C 18.271 20.985,19.298 19.094,18.918 17.230 C 18.873 17.008,18.818 16.794,18.796 16.753 C 18.766 16.697,18.783 16.635,18.868 16.490 C 18.975 16.308,18.980 16.278,18.977 15.800 C 18.973 15.263,18.921 14.847,18.795 14.345 C 18.751 14.172,18.723 14.023,18.733 14.014 C 18.742 14.005,18.788 14.087,18.835 14.197 C 18.912 14.376,18.954 14.594,19.021 15.165 C 19.051 15.412,19.236 15.694,19.465 15.839 C 19.938 16.139,20.558 15.992,20.856 15.508 C 20.956 15.345,20.977 15.264,20.991 14.988 C 21.021 14.393,20.784 13.540,20.421 12.932 C 19.961 12.161,19.142 11.511,18.245 11.204 C 17.977 11.112,17.333 11.001,17.060 11.000 C 16.922 10.999,16.863 10.966,16.633 10.764 C 16.486 10.635,16.286 10.472,16.188 10.402 L 16.010 10.274 15.991 9.981 C 15.977 9.760,15.947 9.644,15.867 9.508 C 15.564 8.990,14.868 8.854,14.391 9.218 L 14.216 9.352 13.858 9.255 C 13.240 9.089,12.754 9.030,12.000 9.030 C 11.246 9.030,10.760 9.089,10.141 9.256 L 9.782 9.352 9.630 9.232 C 9.361 9.019,9.020 8.955,8.695 9.057 M12.540 11.040 C 12.895 11.079,13.410 11.184,13.513 11.239 C 13.585 11.277,13.172 11.652,12.915 11.782 C 12.165 12.163,11.283 12.042,10.663 11.475 C 10.404 11.239,10.402 11.243,10.820 11.144 C 11.380 11.012,11.961 10.977,12.540 11.040 M8.944 12.570 C 9.522 13.262,10.324 13.733,11.243 13.921 C 11.740 14.022,12.268 14.022,12.758 13.921 C 12.966 13.878,13.141 13.848,13.147 13.853 C 13.152 13.859,13.122 14.034,13.079 14.242 C 13.036 14.450,13.001 14.706,13.001 14.810 L 13.000 15.000 12.317 15.000 L 11.633 15.000 11.467 14.865 C 11.375 14.790,11.201 14.666,11.080 14.589 C 10.959 14.512,10.788 14.382,10.701 14.299 C 10.443 14.054,10.345 14.030,9.562 14.019 C 9.087 14.012,8.811 14.025,8.696 14.059 C 8.351 14.163,8.073 14.479,8.017 14.830 L 7.990 15.000 7.550 15.000 L 7.111 15.000 7.139 14.850 C 7.225 14.376,7.576 13.610,7.939 13.100 C 8.145 12.811,8.625 12.280,8.680 12.280 C 8.692 12.280,8.811 12.410,8.944 12.570 M16.270 13.410 C 16.404 13.633,16.657 14.162,16.698 14.306 C 16.722 14.391,16.717 14.390,16.441 14.278 C 16.148 14.159,15.651 14.040,15.444 14.040 C 15.275 14.040,15.265 13.992,15.396 13.815 C 15.567 13.583,16.019 13.200,16.121 13.200 C 16.133 13.200,16.200 13.295,16.270 13.410 " stroke="none" fill-rule="evenodd" fill="black"></path></svg>