<svg viewBox="0 0 24 24" xmlns="http://www.w3.org/2000/svg" fill="none" stroke="#000000" stroke-width="2" stroke-linecap="round" stroke-linejoin="round"><path d="M7.695 5.057 C 7.466 5.129,7.256 5.299,7.128 5.516 C 7.025 5.692,7.020 5.724,7.020 6.260 C 7.020 6.568,7.029 6.971,7.040 7.156 L 7.060 7.493 6.396 7.662 C 4.140 8.238,2.550 9.090,1.671 10.195 C 1.253 10.720,1.049 11.243,1.012 11.880 C 0.974 12.526,1.188 13.176,1.624 13.747 C 2.012 14.254,2.566 14.724,3.247 15.123 L 3.513 15.279 2.757 17.550 C 2.273 19.001,2.000 19.879,2.000 19.983 C 1.999 20.740,2.792 21.222,3.469 20.874 C 3.823 20.691,3.843 20.646,4.643 18.250 L 5.376 16.053 5.758 16.168 C 7.053 16.558,8.833 16.860,10.320 16.941 C 10.551 16.954,10.798 16.973,10.869 16.984 L 10.997 17.003 11.009 19.155 L 11.020 21.306 11.141 21.503 C 11.543 22.156,12.457 22.156,12.859 21.503 L 12.980 21.306 12.991 19.155 L 13.003 17.003 13.131 16.984 C 13.202 16.973,13.449 16.954,13.680 16.941 C 15.167 16.860,16.947 16.558,18.242 16.168 L 18.624 16.053 19.357 18.250 C 20.157 20.646,20.177 20.691,20.531 20.874 C 21.208 21.222,22.001 20.740,22.000 19.983 C 22.000 19.879,21.727 19.001,21.243 17.550 L 20.487 15.279 20.753 15.123 C 21.419 14.733,21.931 14.304,22.329 13.805 C 22.792 13.223,22.980 12.703,22.980 12.000 C 22.980 11.297,22.792 10.778,22.329 10.195 C 21.450 9.090,19.860 8.238,17.604 7.662 L 16.940 7.493 16.960 7.156 C 16.971 6.971,16.980 6.568,16.980 6.260 C 16.980 5.724,16.975 5.692,16.872 5.516 C 16.740 5.293,16.533 5.128,16.290 5.055 C 16.029 4.976,7.946 4.979,7.695 5.057 M10.620 7.044 C 10.290 7.062,9.844 7.095,9.628 7.118 C 9.076 7.177,9.040 7.175,9.040 7.080 C 9.040 7.002,9.065 7.000,10.130 7.006 C 11.185 7.012,11.201 7.013,10.620 7.044 M14.960 7.080 C 14.960 7.175,14.924 7.177,14.372 7.118 C 14.156 7.095,13.710 7.062,13.380 7.044 C 12.799 7.013,12.815 7.012,13.870 7.006 C 14.935 7.000,14.960 7.002,14.960 7.080 M13.920 9.083 C 14.217 9.108,14.466 9.134,14.474 9.141 C 14.505 9.170,14.107 9.878,13.941 10.089 C 13.364 10.821,12.417 11.143,11.433 10.940 C 10.700 10.789,10.119 10.321,9.726 9.566 C 9.608 9.340,9.518 9.148,9.526 9.141 C 9.538 9.129,10.215 9.075,11.000 9.023 C 11.408 8.996,13.376 9.036,13.920 9.083 M7.599 9.729 C 7.738 10.110,8.089 10.786,8.314 11.105 C 8.998 12.074,9.908 12.669,11.100 12.927 C 11.417 12.995,12.583 12.995,12.900 12.927 C 14.120 12.663,15.059 12.032,15.751 11.013 C 15.941 10.734,16.254 10.119,16.388 9.762 C 16.442 9.620,16.493 9.491,16.503 9.475 C 16.512 9.460,16.788 9.516,17.115 9.600 C 18.700 10.007,19.853 10.542,20.512 11.174 C 20.860 11.509,20.979 11.718,20.979 12.000 C 20.979 12.167,20.953 12.265,20.873 12.401 C 20.744 12.621,20.338 13.015,20.029 13.219 L 19.798 13.372 19.709 13.290 C 19.563 13.155,19.304 13.039,19.091 13.014 C 18.530 12.947,18.000 13.428,18.000 14.003 L 18.000 14.152 17.715 14.239 C 16.680 14.553,15.496 14.769,13.940 14.928 C 13.306 14.993,10.694 14.993,10.060 14.928 C 8.504 14.769,7.320 14.553,6.285 14.239 L 6.000 14.152 6.000 14.003 C 6.000 13.482,5.529 13.000,5.019 13.000 C 4.814 13.000,4.520 13.106,4.352 13.242 L 4.195 13.368 3.967 13.217 C 3.661 13.014,3.256 12.620,3.127 12.401 C 2.981 12.152,2.981 11.848,3.127 11.599 C 3.448 11.052,4.331 10.469,5.505 10.028 C 6.106 9.803,7.418 9.429,7.484 9.465 C 7.497 9.472,7.549 9.591,7.599 9.729 " stroke="none" fill-rule="evenodd" fill="black"></path></svg>