<svg viewBox="0 0 24 24" xmlns="http://www.w3.org/2000/svg" fill="none" stroke="#000000" stroke-width="2" stroke-linecap="round" stroke-linejoin="round"><path d="M11.280 1.025 C 10.102 1.133,9.154 1.394,8.240 1.865 C 6.260 2.883,4.902 4.747,4.322 7.240 C 4.207 7.731,4.107 8.315,4.059 8.770 L 4.034 9.000 2.963 9.000 C 1.796 9.000,1.644 9.021,1.382 9.221 C 1.302 9.282,1.187 9.415,1.128 9.516 C 1.037 9.672,1.020 9.746,1.020 10.000 C 1.020 10.256,1.036 10.328,1.131 10.489 C 1.256 10.702,1.449 10.864,1.670 10.943 C 1.792 10.986,2.680 10.997,6.410 10.998 L 11.000 11.000 11.000 12.000 L 11.000 13.000 10.446 13.000 C 9.648 13.000,9.367 13.110,9.128 13.516 C 9.037 13.672,9.020 13.746,9.020 14.000 C 9.020 14.256,9.036 14.328,9.131 14.489 C 9.256 14.702,9.449 14.864,9.670 14.943 C 9.768 14.978,10.023 14.997,10.410 14.998 L 11.000 15.000 11.000 16.290 L 11.000 17.580 9.617 18.960 C 8.857 19.719,8.190 20.416,8.135 20.508 C 7.861 20.967,8.032 21.587,8.508 21.867 C 8.673 21.964,8.742 21.980,9.000 21.979 C 9.213 21.979,9.340 21.957,9.440 21.904 C 9.517 21.864,9.897 21.516,10.285 21.131 L 10.991 20.432 11.006 20.870 C 11.020 21.274,11.030 21.323,11.142 21.504 C 11.543 22.156,12.457 22.156,12.858 21.504 C 12.970 21.323,12.980 21.274,12.994 20.870 L 13.009 20.432 13.715 21.131 C 14.103 21.516,14.483 21.864,14.560 21.904 C 14.660 21.957,14.787 21.979,15.000 21.979 C 15.258 21.980,15.327 21.964,15.492 21.867 C 15.968 21.587,16.139 20.967,15.865 20.508 C 15.810 20.416,15.143 19.719,14.383 18.960 L 13.000 17.580 13.000 16.290 L 13.000 15.000 13.590 14.998 C 13.977 14.997,14.232 14.978,14.330 14.943 C 14.551 14.864,14.744 14.702,14.869 14.489 C 14.964 14.328,14.980 14.256,14.980 14.000 C 14.980 13.746,14.963 13.672,14.872 13.516 C 14.633 13.110,14.352 13.000,13.554 13.000 L 13.000 13.000 13.000 12.000 L 13.000 11.000 17.590 10.998 C 21.320 10.997,22.208 10.986,22.330 10.943 C 22.551 10.864,22.744 10.702,22.869 10.489 C 22.964 10.328,22.980 10.256,22.980 10.000 C 22.980 9.746,22.963 9.672,22.872 9.516 C 22.813 9.415,22.698 9.282,22.618 9.221 C 22.356 9.021,22.204 9.000,21.037 9.000 L 19.966 9.000 19.941 8.770 C 19.475 4.460,17.078 1.667,13.360 1.101 C 12.953 1.039,11.646 0.991,11.280 1.025 M12.726 3.042 C 14.169 3.188,15.251 3.682,16.132 4.596 C 17.077 5.577,17.742 7.107,17.912 8.695 L 17.945 9.000 12.000 9.000 L 6.055 9.000 6.088 8.695 C 6.299 6.725,7.238 4.936,8.551 4.001 C 9.643 3.224,11.135 2.881,12.726 3.042 " stroke="none" fill-rule="evenodd" fill="black"></path></svg>