<svg viewBox="0 0 24 24" xmlns="http://www.w3.org/2000/svg" fill="none" stroke="#000000" stroke-width="2" stroke-linecap="round" stroke-linejoin="round"><path d="M11.340 2.025 C 8.230 2.277,5.979 3.963,4.750 6.960 C 4.380 7.864,4.069 9.079,4.014 9.842 C 3.992 10.140,4.000 10.209,4.077 10.382 C 4.191 10.640,4.334 10.788,4.580 10.905 L 4.780 10.999 12.000 10.999 L 19.220 10.999 19.422 10.905 C 19.766 10.745,19.998 10.388,19.999 10.014 C 20.001 9.587,19.765 8.453,19.513 7.680 C 18.478 4.504,16.302 2.545,13.320 2.102 C 12.902 2.040,11.722 1.994,11.340 2.025 M13.161 4.097 C 13.932 4.234,14.633 4.505,15.241 4.901 C 15.669 5.181,16.368 5.894,16.690 6.380 C 17.130 7.045,17.648 8.228,17.780 8.870 L 17.806 9.000 16.905 9.000 L 16.005 9.000 15.992 7.850 L 15.980 6.700 15.871 6.514 C 15.479 5.848,14.521 5.848,14.129 6.514 L 14.020 6.700 14.008 7.850 L 13.995 9.000 12.000 9.000 L 10.005 9.000 9.992 7.850 L 9.980 6.700 9.871 6.514 C 9.479 5.848,8.521 5.848,8.129 6.514 L 8.020 6.700 8.008 7.850 L 7.995 9.000 7.095 9.000 L 6.194 9.000 6.220 8.870 C 6.352 8.228,6.870 7.045,7.310 6.380 C 7.627 5.901,8.329 5.182,8.741 4.913 C 9.509 4.413,10.351 4.129,11.380 4.024 C 11.699 3.991,12.828 4.037,13.161 4.097 M11.695 12.057 C 11.466 12.129,11.256 12.299,11.128 12.516 L 11.020 12.700 11.020 17.503 L 11.020 22.306 11.141 22.503 C 11.543 23.156,12.457 23.156,12.859 22.503 L 12.980 22.306 12.980 17.503 L 12.980 12.700 12.872 12.516 C 12.628 12.101,12.150 11.915,11.695 12.057 " stroke="none" fill-rule="evenodd" fill="black"></path></svg>