<svg viewBox="0 0 24 24" xmlns="http://www.w3.org/2000/svg" fill="none" stroke="#000000" stroke-width="2" stroke-linecap="round" stroke-linejoin="round"><path d="M11.280 4.024 C 9.621 4.172,8.451 4.495,7.100 5.180 C 5.950 5.762,5.014 6.455,3.999 7.476 C 3.104 8.376,2.461 9.192,1.790 10.282 C 1.501 10.750,1.152 11.418,1.060 11.680 C 0.934 12.036,1.026 12.428,1.299 12.701 C 1.679 13.082,2.295 13.092,2.679 12.725 C 2.771 12.637,2.920 12.401,3.060 12.120 C 3.561 11.119,4.282 10.087,5.105 9.195 C 6.703 7.463,8.588 6.410,10.630 6.108 L 11.000 6.053 11.000 12.710 C 11.000 19.280,11.001 19.373,11.083 19.773 C 11.357 21.118,12.249 22.195,13.512 22.704 C 15.560 23.529,17.874 22.540,18.705 20.484 C 19.014 19.720,19.083 18.877,18.868 18.510 C 18.568 17.998,17.881 17.855,17.405 18.205 C 17.146 18.396,17.042 18.610,16.997 19.047 C 16.976 19.252,16.933 19.511,16.901 19.622 C 16.778 20.048,16.333 20.571,15.912 20.784 C 15.347 21.070,14.651 21.069,14.083 20.781 C 13.816 20.646,13.449 20.297,13.281 20.017 C 12.986 19.527,13.005 20.022,13.002 12.657 L 13.000 6.053 13.390 6.110 C 14.472 6.269,15.701 6.723,16.660 7.320 C 18.344 8.369,19.984 10.208,20.940 12.120 C 21.080 12.401,21.229 12.637,21.321 12.725 C 21.488 12.884,21.773 13.000,22.000 13.000 C 22.569 13.000,23.044 12.477,22.990 11.910 C 22.965 11.650,22.530 10.777,22.061 10.044 C 19.871 6.622,16.862 4.552,13.420 4.099 C 12.954 4.037,11.644 3.992,11.280 4.024 " stroke="none" fill-rule="evenodd" fill="black"></path></svg>