<svg viewBox="0 0 24 24" xmlns="http://www.w3.org/2000/svg" fill="none" stroke="#000000" stroke-width="2" stroke-linecap="round" stroke-linejoin="round"><path d="M11.380 1.043 C 8.430 1.334,6.051 3.883,6.025 6.783 C 6.020 7.298,6.022 7.308,6.141 7.503 C 6.539 8.150,7.457 8.157,7.852 7.514 C 7.949 7.356,7.972 7.264,8.004 6.894 C 8.073 6.090,8.164 5.746,8.464 5.160 C 8.920 4.269,9.743 3.559,10.712 3.220 L 10.980 3.126 11.000 12.716 L 11.020 22.306 11.141 22.503 C 11.543 23.156,12.457 23.156,12.859 22.503 L 12.980 22.306 13.000 12.716 L 13.020 3.126 13.288 3.220 C 14.257 3.559,15.080 4.269,15.536 5.160 C 15.836 5.746,15.927 6.090,15.996 6.894 C 16.028 7.264,16.051 7.356,16.148 7.514 C 16.543 8.157,17.461 8.150,17.859 7.503 C 17.978 7.308,17.980 7.298,17.975 6.783 C 17.953 4.386,16.282 2.127,13.940 1.329 C 13.131 1.053,12.261 0.956,11.380 1.043 " stroke="none" fill-rule="evenodd" fill="black"></path></svg>