<svg viewBox="0 0 24 24" xmlns="http://www.w3.org/2000/svg" fill="none" stroke="#000000" stroke-width="2" stroke-linecap="round" stroke-linejoin="round"><path d="M9.400 2.044 C 7.761 2.229,6.261 3.290,5.526 4.785 C 5.158 5.533,5.020 6.136,5.020 7.000 C 5.020 7.670,5.078 8.044,5.268 8.600 C 5.846 10.291,7.253 11.525,9.040 11.907 C 9.511 12.008,10.489 12.008,10.960 11.907 C 12.488 11.580,13.748 10.630,14.433 9.288 C 14.838 8.494,14.980 7.899,14.980 7.000 C 14.980 6.101,14.838 5.506,14.433 4.713 C 13.794 3.461,12.604 2.510,11.240 2.162 C 10.669 2.016,10.019 1.974,9.400 2.044 M10.861 4.129 C 11.804 4.405,12.584 5.183,12.875 6.139 C 12.958 6.412,12.973 6.542,12.973 7.000 C 12.973 7.458,12.958 7.588,12.875 7.861 C 12.582 8.822,11.819 9.581,10.840 9.886 C 10.406 10.021,9.594 10.021,9.160 9.886 C 8.181 9.581,7.418 8.822,7.125 7.861 C 7.042 7.588,7.027 7.458,7.027 7.000 C 7.027 6.542,7.042 6.412,7.125 6.139 C 7.456 5.054,8.371 4.245,9.499 4.040 C 9.832 3.980,10.500 4.023,10.861 4.129 M16.780 8.727 C 15.822 8.907,14.879 9.485,14.324 10.235 C 14.038 10.620,13.988 10.780,14.019 11.201 C 14.089 12.137,14.021 12.744,13.761 13.520 C 13.524 14.228,13.491 14.293,13.388 14.264 C 13.135 14.195,12.882 14.193,12.686 14.258 C 12.422 14.346,12.144 14.611,12.075 14.841 L 12.024 15.011 11.979 14.812 C 11.894 14.433,11.648 14.163,11.290 14.055 C 11.062 13.986,8.049 13.977,7.448 14.043 C 6.565 14.139,5.818 14.428,5.068 14.963 C 4.067 15.677,3.364 16.771,3.093 18.040 C 3.030 18.334,3.020 18.579,3.020 19.843 L 3.020 21.306 3.141 21.503 C 3.543 22.156,4.457 22.156,4.859 21.503 L 4.980 21.307 5.003 19.883 C 5.025 18.522,5.031 18.446,5.124 18.139 C 5.416 17.185,6.182 16.419,7.139 16.123 C 7.457 16.026,7.481 16.024,9.380 16.002 L 11.300 15.980 11.489 15.869 C 11.701 15.744,11.865 15.550,11.939 15.336 L 11.988 15.192 12.016 15.366 C 12.049 15.570,12.199 15.842,12.340 15.953 C 12.395 15.996,12.440 16.045,12.440 16.062 C 12.440 16.079,12.366 16.189,12.275 16.306 C 12.003 16.659,11.937 16.972,12.061 17.322 C 12.289 17.970,13.070 18.202,13.616 17.786 C 13.684 17.734,13.848 17.546,13.978 17.369 L 14.216 17.047 14.389 17.269 C 14.483 17.391,14.624 17.619,14.700 17.775 C 14.958 18.304,14.971 18.397,14.997 19.923 L 15.020 21.307 15.141 21.503 C 15.543 22.156,16.457 22.156,16.859 21.503 L 16.980 21.306 16.980 19.863 C 16.980 18.602,16.971 18.377,16.905 18.080 C 16.691 17.103,16.276 16.326,15.593 15.617 L 15.242 15.255 15.420 14.817 C 15.874 13.697,16.134 12.387,16.063 11.574 L 16.037 11.288 16.198 11.151 C 16.572 10.831,16.988 10.681,17.500 10.681 C 18.005 10.681,18.434 10.834,18.788 11.140 L 18.932 11.264 18.943 11.902 C 18.965 13.170,19.289 14.335,20.000 15.708 C 20.369 16.422,20.993 17.385,21.269 17.668 C 21.811 18.225,22.684 18.044,22.939 17.322 C 23.068 16.957,23.002 16.676,22.688 16.254 C 21.871 15.156,21.205 13.736,21.019 12.700 C 20.976 12.458,20.958 12.162,20.965 11.800 C 20.985 10.737,20.986 10.752,20.890 10.560 C 20.675 10.131,20.113 9.574,19.553 9.236 C 19.208 9.028,18.648 8.813,18.250 8.737 C 17.920 8.674,17.092 8.668,16.780 8.727 " stroke="none" fill-rule="evenodd" fill="black"></path></svg>