<svg viewBox="0 0 24 24" xmlns="http://www.w3.org/2000/svg" fill="none" stroke="#000000" stroke-width="2" stroke-linecap="round" stroke-linejoin="round"><path d="M1.670 1.061 C 1.448 1.142,1.250 1.309,1.128 1.516 C 1.037 1.672,1.020 1.746,1.020 2.000 C 1.020 2.254,1.036 2.327,1.127 2.480 C 1.264 2.709,21.367 22.805,21.560 22.905 C 21.659 22.957,21.788 22.979,22.000 22.979 C 22.258 22.980,22.327 22.964,22.492 22.867 C 22.968 22.587,23.139 21.967,22.865 21.508 C 22.810 21.416,18.215 16.793,12.653 11.235 C 3.300 1.889,2.525 1.125,2.343 1.065 C 2.107 0.987,1.874 0.986,1.670 1.061 M11.695 3.057 C 11.466 3.129,11.256 3.299,11.128 3.516 L 11.020 3.700 11.020 5.503 L 11.020 7.306 11.141 7.503 C 11.543 8.156,12.457 8.156,12.859 7.503 L 12.980 7.306 12.980 5.503 L 12.980 3.700 12.872 3.516 C 12.628 3.101,12.150 2.915,11.695 3.057 M17.280 5.403 C 17.149 5.462,16.786 5.797,15.947 6.632 C 15.312 7.263,14.743 7.852,14.682 7.940 C 14.279 8.518,14.617 9.347,15.305 9.469 C 15.549 9.512,15.855 9.462,16.017 9.352 C 16.198 9.229,18.386 7.048,18.520 6.857 C 18.747 6.533,18.736 6.046,18.495 5.708 C 18.241 5.351,17.697 5.215,17.280 5.403 M3.695 11.057 C 3.466 11.129,3.256 11.299,3.128 11.516 C 3.037 11.672,3.020 11.746,3.020 12.000 C 3.020 12.256,3.036 12.328,3.131 12.489 C 3.256 12.702,3.449 12.864,3.670 12.943 C 3.888 13.021,7.112 13.021,7.330 12.943 C 7.551 12.864,7.744 12.702,7.869 12.489 C 7.964 12.328,7.980 12.256,7.980 12.000 C 7.980 11.746,7.963 11.672,7.872 11.516 C 7.740 11.293,7.533 11.128,7.290 11.055 C 7.035 10.978,3.941 10.980,3.695 11.057 M16.695 11.057 C 16.466 11.129,16.256 11.299,16.128 11.516 C 16.037 11.672,16.020 11.746,16.020 12.000 C 16.020 12.256,16.036 12.328,16.131 12.489 C 16.256 12.702,16.449 12.864,16.670 12.943 C 16.888 13.021,20.112 13.021,20.330 12.943 C 20.551 12.864,20.744 12.702,20.869 12.489 C 20.964 12.328,20.980 12.256,20.980 12.000 C 20.980 11.746,20.963 11.672,20.872 11.516 C 20.740 11.293,20.533 11.128,20.290 11.055 C 20.035 10.978,16.941 10.980,16.695 11.057 M8.080 14.603 C 7.949 14.662,7.586 14.997,6.747 15.832 C 6.112 16.463,5.543 17.052,5.482 17.140 C 5.079 17.718,5.417 18.547,6.105 18.669 C 6.370 18.716,6.658 18.659,6.855 18.521 C 6.946 18.458,7.537 17.888,8.168 17.253 C 9.037 16.380,9.336 16.055,9.398 15.914 C 9.695 15.241,9.230 14.518,8.502 14.521 C 8.346 14.521,8.196 14.551,8.080 14.603 M11.695 16.057 C 11.466 16.129,11.256 16.299,11.128 16.516 L 11.020 16.700 11.020 18.503 L 11.020 20.306 11.141 20.503 C 11.209 20.613,11.346 20.756,11.452 20.828 C 11.923 21.144,12.554 20.999,12.859 20.503 L 12.980 20.306 12.980 18.503 L 12.980 16.700 12.872 16.516 C 12.628 16.101,12.150 15.915,11.695 16.057 " stroke="none" fill-rule="evenodd" fill="black"></path></svg>