<svg viewBox="0 0 24 24" xmlns="http://www.w3.org/2000/svg" fill="none" stroke="#000000" stroke-width="2" stroke-linecap="round" stroke-linejoin="round"><path d="M11.695 1.057 C 11.466 1.129,11.256 1.299,11.128 1.516 L 11.020 1.700 11.000 3.897 L 10.980 6.093 10.700 6.149 C 10.102 6.269,9.259 6.624,8.740 6.973 L 8.540 7.108 7.040 5.620 C 5.708 4.298,5.518 4.124,5.343 4.066 C 4.863 3.906,4.382 4.084,4.128 4.516 C 4.037 4.672,4.020 4.746,4.020 5.000 C 4.020 5.254,4.036 5.327,4.127 5.480 C 4.186 5.579,4.881 6.305,5.672 7.094 L 7.109 8.528 6.970 8.734 C 6.593 9.293,6.300 10.021,6.103 10.890 L 6.078 11.000 3.986 11.000 C 1.714 11.000,1.667 11.004,1.382 11.221 C 1.302 11.282,1.187 11.415,1.128 11.516 C 1.037 11.672,1.020 11.746,1.020 12.000 C 1.020 12.256,1.036 12.328,1.131 12.489 C 1.256 12.702,1.449 12.864,1.670 12.943 C 1.788 12.985,2.275 12.997,3.949 12.998 L 6.078 13.000 6.103 13.110 C 6.300 13.979,6.593 14.707,6.970 15.266 L 7.109 15.472 5.672 16.906 C 4.881 17.695,4.186 18.421,4.127 18.520 C 4.036 18.673,4.020 18.746,4.020 19.000 C 4.020 19.257,4.036 19.327,4.133 19.492 C 4.413 19.968,5.033 20.139,5.492 19.865 C 5.584 19.810,6.305 19.119,7.094 18.328 L 8.528 16.891 8.734 17.030 C 9.293 17.407,10.022 17.700,10.889 17.896 L 10.997 17.921 11.009 20.114 L 11.020 22.306 11.141 22.503 C 11.543 23.156,12.457 23.156,12.859 22.503 L 12.980 22.306 12.991 20.114 L 13.003 17.921 13.111 17.896 C 13.982 17.699,14.665 17.425,15.245 17.040 L 15.470 16.890 16.905 18.328 C 17.694 19.118,18.416 19.810,18.508 19.865 C 18.967 20.139,19.587 19.968,19.867 19.492 C 19.964 19.327,19.980 19.257,19.980 19.000 C 19.980 18.746,19.964 18.673,19.873 18.520 C 19.814 18.421,19.118 17.694,18.328 16.905 L 16.890 15.470 17.040 15.245 C 17.425 14.664,17.699 13.984,17.897 13.110 L 17.922 13.000 20.051 12.998 C 21.725 12.997,22.212 12.985,22.330 12.943 C 22.551 12.864,22.744 12.702,22.869 12.489 C 22.964 12.328,22.980 12.256,22.980 12.000 C 22.980 11.746,22.963 11.672,22.872 11.516 C 22.813 11.415,22.698 11.282,22.618 11.221 C 22.333 11.004,22.286 11.000,20.014 11.000 L 17.922 11.000 17.897 10.890 C 17.699 10.016,17.425 9.336,17.040 8.755 L 16.890 8.530 18.328 7.095 C 19.118 6.306,19.814 5.579,19.873 5.480 C 19.964 5.327,19.980 5.254,19.980 5.000 C 19.980 4.746,19.963 4.672,19.872 4.516 C 19.618 4.084,19.137 3.906,18.657 4.066 C 18.482 4.124,18.292 4.298,16.960 5.620 L 15.460 7.108 15.260 6.973 C 14.741 6.624,13.898 6.269,13.300 6.149 L 13.020 6.093 13.000 3.897 L 12.980 1.700 12.872 1.516 C 12.628 1.101,12.150 0.915,11.695 1.057 M12.605 8.058 C 13.184 8.146,13.769 8.373,14.240 8.693 C 14.472 8.851,15.149 9.528,15.307 9.760 C 15.627 10.231,15.854 10.816,15.942 11.395 C 16.014 11.879,16.014 12.121,15.942 12.605 C 15.854 13.184,15.628 13.767,15.307 14.240 C 15.096 14.552,14.363 15.248,14.060 15.424 C 12.754 16.186,11.246 16.186,9.940 15.424 C 9.637 15.248,8.904 14.552,8.693 14.240 C 8.372 13.767,8.146 13.184,8.058 12.605 C 7.986 12.121,7.986 11.879,8.058 11.395 C 8.125 10.956,8.231 10.621,8.431 10.220 C 8.640 9.801,8.777 9.618,9.198 9.198 C 9.618 8.777,9.801 8.640,10.220 8.431 C 10.981 8.051,11.755 7.930,12.605 8.058 " stroke="none" fill-rule="evenodd" fill="black"></path></svg>