<svg viewBox="0 0 24 24" xmlns="http://www.w3.org/2000/svg" fill="none" stroke="#000000" stroke-width="2" stroke-linecap="round" stroke-linejoin="round"><path d="M11.695 1.057 C 11.466 1.129,11.256 1.299,11.128 1.516 L 11.020 1.700 11.009 3.757 L 10.997 5.814 10.454 4.184 C 9.861 2.406,9.815 2.309,9.476 2.133 C 8.794 1.779,8.000 2.254,8.000 3.016 C 8.000 3.116,8.205 3.793,8.545 4.812 C 9.141 6.601,9.187 6.697,9.531 6.874 C 9.934 7.081,10.390 7.013,10.704 6.698 C 10.803 6.600,10.895 6.459,10.924 6.364 C 10.981 6.173,11.021 6.156,11.052 6.310 C 11.087 6.485,11.300 6.745,11.508 6.867 C 11.673 6.964,11.743 6.980,12.000 6.980 C 12.257 6.980,12.327 6.964,12.492 6.867 C 12.700 6.745,12.913 6.485,12.948 6.310 C 12.979 6.156,13.019 6.173,13.076 6.364 C 13.105 6.459,13.197 6.600,13.296 6.698 C 13.610 7.013,14.066 7.081,14.469 6.874 C 14.813 6.697,14.859 6.601,15.455 4.812 C 15.795 3.793,16.000 3.116,16.000 3.016 C 16.000 2.254,15.206 1.779,14.521 2.131 C 14.188 2.303,14.138 2.408,13.546 4.184 L 13.003 5.814 12.991 3.757 L 12.980 1.700 12.872 1.516 C 12.628 1.101,12.150 0.915,11.695 1.057 M14.700 9.047 C 14.483 9.129,14.282 9.278,14.183 9.430 C 14.130 9.513,13.749 10.426,13.337 11.460 C 12.925 12.494,12.576 13.354,12.562 13.370 C 12.547 13.387,11.842 12.882,10.996 12.247 C 9.420 11.067,9.312 11.000,8.969 11.000 C 8.755 11.000,8.470 11.128,8.303 11.298 C 8.171 11.433,7.689 12.368,5.760 16.232 L 3.380 21.000 2.636 21.000 C 1.819 21.000,1.628 21.034,1.382 21.221 C 1.302 21.282,1.187 21.415,1.128 21.516 C 1.037 21.672,1.020 21.746,1.020 22.000 C 1.020 22.256,1.036 22.328,1.131 22.489 C 1.256 22.702,1.449 22.864,1.670 22.943 C 1.893 23.023,22.107 23.023,22.330 22.943 C 22.551 22.864,22.744 22.702,22.869 22.489 C 22.964 22.328,22.980 22.256,22.980 22.000 C 22.980 21.746,22.963 21.672,22.872 21.516 C 22.813 21.415,22.698 21.282,22.618 21.221 C 22.374 21.035,22.180 21.000,21.384 20.999 L 20.660 20.998 18.262 15.236 C 15.673 9.014,15.798 9.283,15.418 9.101 C 15.231 9.011,14.868 8.984,14.700 9.047 M16.795 16.906 C 17.722 19.132,18.480 20.963,18.480 20.976 C 18.480 20.989,15.591 21.000,12.060 21.000 C 8.529 21.000,5.640 20.991,5.640 20.980 C 5.640 20.969,6.477 19.286,7.500 17.240 L 9.360 13.520 10.958 14.718 C 12.114 15.584,12.604 15.929,12.728 15.962 C 13.098 16.062,13.549 15.920,13.777 15.630 C 13.833 15.559,14.134 14.863,14.446 14.085 C 14.964 12.791,15.017 12.678,15.061 12.765 C 15.088 12.817,15.868 14.681,16.795 16.906 " stroke="none" fill-rule="evenodd" fill="black"></path></svg>