<svg viewBox="0 0 24 24" xmlns="http://www.w3.org/2000/svg" fill="none" stroke="#000000" stroke-width="2" stroke-linecap="round" stroke-linejoin="round"><path d="M13.499 1.043 C 12.392 1.229,11.482 2.030,11.116 3.140 C 11.026 3.413,11.023 3.467,11.009 5.208 L 10.995 6.997 7.727 7.009 L 4.460 7.021 4.139 7.122 C 3.170 7.427,2.419 8.182,2.114 9.160 L 2.020 9.460 2.020 13.000 L 2.020 16.540 2.114 16.840 C 2.422 17.827,3.173 18.578,4.160 18.886 L 4.460 18.980 12.000 18.980 L 19.540 18.980 19.840 18.886 C 20.827 18.578,21.578 17.827,21.886 16.840 L 21.980 16.540 21.980 13.000 L 21.980 9.460 21.886 9.160 C 21.581 8.182,20.830 7.427,19.861 7.122 L 19.540 7.021 16.270 7.009 L 13.000 6.997 13.000 5.446 C 13.000 3.650,13.007 3.599,13.303 3.303 C 13.587 3.019,13.694 3.000,15.037 2.998 C 16.266 2.996,16.356 2.984,16.619 2.783 C 16.696 2.725,16.808 2.592,16.869 2.489 C 16.964 2.328,16.980 2.256,16.980 2.000 C 16.980 1.746,16.963 1.672,16.872 1.516 C 16.813 1.415,16.698 1.282,16.618 1.221 C 16.350 1.016,16.216 1.000,14.904 1.005 C 14.242 1.007,13.609 1.025,13.499 1.043 M19.310 9.061 C 19.589 9.144,19.856 9.411,19.939 9.690 C 19.973 9.802,20.000 9.918,20.000 9.947 C 20.000 9.991,18.595 10.000,12.000 10.000 C 5.405 10.000,4.000 9.991,4.000 9.947 C 4.000 9.918,4.027 9.802,4.061 9.690 C 4.140 9.421,4.412 9.143,4.673 9.063 C 4.964 8.974,19.009 8.971,19.310 9.061 M9.695 12.057 C 9.466 12.129,9.256 12.299,9.128 12.516 C 9.037 12.672,9.020 12.746,9.020 13.000 C 9.020 13.256,9.036 13.328,9.131 13.489 C 9.256 13.702,9.449 13.864,9.670 13.943 C 9.889 14.021,14.111 14.021,14.330 13.943 C 14.551 13.864,14.744 13.702,14.869 13.489 C 14.964 13.328,14.980 13.256,14.980 13.000 C 14.980 12.746,14.963 12.672,14.872 12.516 C 14.744 12.299,14.534 12.129,14.305 12.057 C 14.167 12.014,14.612 12.005,17.070 12.003 L 20.000 12.000 20.000 14.054 C 20.000 16.283,19.996 16.334,19.779 16.618 C 19.718 16.698,19.585 16.813,19.484 16.872 L 19.300 16.980 12.000 16.980 L 4.700 16.980 4.516 16.872 C 4.415 16.813,4.284 16.700,4.225 16.623 C 4.000 16.328,4.000 16.328,4.000 14.075 L 4.000 12.000 6.930 12.003 C 9.388 12.005,9.833 12.014,9.695 12.057 " stroke="none" fill-rule="evenodd" fill="black"></path></svg>