<svg viewBox="0 0 24 24" xmlns="http://www.w3.org/2000/svg" fill="none" stroke="#000000" stroke-width="2" stroke-linecap="round" stroke-linejoin="round"><path d="M4.499 4.043 C 3.380 4.232,2.461 5.048,2.114 6.160 L 2.020 6.460 2.020 12.000 L 2.020 17.540 2.114 17.840 C 2.422 18.827,3.173 19.578,4.160 19.886 L 4.460 19.980 12.000 19.980 L 19.540 19.980 19.840 19.886 C 20.827 19.578,21.578 18.827,21.886 17.840 L 21.980 17.540 21.980 12.000 L 21.980 6.460 21.886 6.160 C 21.581 5.182,20.832 4.428,19.861 4.121 L 19.540 4.020 12.120 4.014 C 8.039 4.011,4.609 4.024,4.499 4.043 M19.310 6.061 C 19.452 6.103,19.571 6.178,19.697 6.303 C 19.981 6.588,20.000 6.694,20.000 8.030 C 20.000 9.093,19.996 9.164,19.930 9.145 C 19.542 9.029,19.405 9.020,17.980 9.020 C 16.555 9.020,16.488 9.023,16.178 9.112 C 15.208 9.390,14.422 10.170,14.114 11.160 C 13.979 11.594,13.979 12.406,14.114 12.840 C 14.421 13.826,15.173 14.578,16.160 14.886 C 16.451 14.977,16.503 14.980,17.880 14.980 L 19.300 14.980 19.489 14.869 C 19.702 14.744,19.864 14.551,19.943 14.330 C 20.023 14.105,20.026 17.022,19.945 17.290 C 19.872 17.533,19.707 17.740,19.484 17.872 L 19.300 17.980 12.000 17.980 L 4.700 17.980 4.516 17.872 C 4.303 17.747,4.141 17.550,4.058 17.316 C 3.969 17.061,3.971 6.993,4.061 6.690 C 4.140 6.421,4.412 6.143,4.673 6.063 C 4.964 5.974,19.009 5.971,19.310 6.061 M19.308 11.060 C 19.439 11.099,19.571 11.179,19.681 11.286 L 19.852 11.452 19.116 11.823 C 18.581 12.093,18.345 12.234,18.252 12.341 C 18.127 12.486,18.000 12.782,18.000 12.931 C 18.000 13.003,17.968 13.006,17.350 12.993 C 16.728 12.981,16.692 12.975,16.516 12.872 C 15.932 12.528,15.831 11.775,16.307 11.299 C 16.584 11.023,16.678 11.006,17.983 11.003 C 18.872 11.001,19.148 11.013,19.308 11.060 " stroke="none" fill-rule="evenodd" fill="black"></path></svg>