<svg viewBox="0 0 24 24" xmlns="http://www.w3.org/2000/svg" fill="none" stroke="#000000" stroke-width="2" stroke-linecap="round" stroke-linejoin="round"><path d="M5.499 1.043 C 4.380 1.233,3.461 2.048,3.114 3.160 L 3.020 3.460 3.020 12.000 L 3.020 20.540 3.114 20.840 C 3.422 21.827,4.173 22.578,5.160 22.886 L 5.460 22.980 12.000 22.980 L 18.540 22.980 18.840 22.886 C 19.827 22.578,20.578 21.827,20.886 20.840 L 20.980 20.540 20.980 12.000 L 20.980 3.460 20.886 3.160 C 20.581 2.182,19.832 1.428,18.861 1.121 L 18.540 1.020 12.120 1.014 C 8.589 1.011,5.609 1.024,5.499 1.043 M18.310 3.061 C 18.589 3.144,18.856 3.411,18.939 3.690 C 18.993 3.870,19.000 4.860,19.000 12.001 C 19.000 18.754,18.991 20.138,18.945 20.290 C 18.872 20.533,18.707 20.740,18.484 20.872 L 18.300 20.980 12.000 20.980 L 5.700 20.980 5.516 20.872 C 5.415 20.813,5.284 20.700,5.225 20.623 C 4.985 20.308,5.000 20.888,5.000 12.022 C 5.000 2.888,4.974 3.632,5.304 3.303 C 5.623 2.983,5.120 3.006,11.983 3.003 C 17.353 3.000,18.131 3.007,18.310 3.061 M7.695 5.055 C 7.464 5.130,7.255 5.300,7.128 5.516 C 7.037 5.672,7.020 5.746,7.020 6.000 C 7.020 6.257,7.036 6.327,7.133 6.492 C 7.651 7.374,8.998 7.018,8.998 6.000 C 8.998 5.623,8.792 5.281,8.463 5.112 C 8.265 5.010,7.911 4.984,7.695 5.055 M10.695 5.057 C 10.466 5.129,10.256 5.299,10.128 5.516 C 10.037 5.672,10.020 5.746,10.020 6.000 C 10.020 6.256,10.036 6.328,10.131 6.489 C 10.355 6.871,10.624 6.993,11.260 7.004 L 11.700 7.011 11.380 7.043 C 8.784 7.299,6.676 9.219,6.115 11.840 C 5.984 12.450,5.984 13.558,6.114 14.160 C 6.639 16.588,8.417 18.365,10.840 18.885 C 11.446 19.015,12.554 19.015,13.160 18.885 C 14.397 18.620,15.412 18.068,16.269 17.195 C 17.109 16.340,17.626 15.369,17.885 14.160 C 17.960 13.810,17.975 13.617,17.975 13.000 C 17.975 12.383,17.960 12.190,17.885 11.840 C 17.626 10.631,17.109 9.660,16.269 8.805 C 15.277 7.795,14.003 7.179,12.620 7.043 L 12.300 7.011 12.740 7.004 C 13.376 6.993,13.645 6.871,13.869 6.489 C 13.964 6.328,13.980 6.256,13.980 6.000 C 13.980 5.746,13.963 5.672,13.872 5.516 C 13.740 5.293,13.533 5.128,13.290 5.055 C 13.039 4.979,10.937 4.981,10.695 5.057 M12.605 9.058 C 14.074 9.280,15.310 10.324,15.797 11.755 C 15.897 12.050,16.000 12.680,16.000 13.000 C 16.000 13.322,15.897 13.951,15.796 14.245 C 15.321 15.632,14.195 16.628,12.773 16.917 C 10.563 17.368,8.396 15.845,8.058 13.605 C 7.986 13.121,7.986 12.879,8.058 12.395 C 8.314 10.698,9.675 9.324,11.358 9.061 C 11.816 8.990,12.144 8.989,12.605 9.058 " stroke="none" fill-rule="evenodd" fill="black"></path></svg>