<svg viewBox="0 0 24 24" xmlns="http://www.w3.org/2000/svg" fill="none" stroke="#000000" stroke-width="2" stroke-linecap="round" stroke-linejoin="round"><path d="M11.695 2.057 C 11.466 2.129,11.256 2.299,11.128 2.516 C 11.025 2.692,11.019 2.728,11.007 3.347 L 10.993 3.995 9.227 4.009 C 7.477 4.023,7.457 4.024,7.139 4.123 C 6.173 4.423,5.419 5.181,5.114 6.160 L 5.020 6.460 5.020 12.000 L 5.020 17.540 5.114 17.840 C 5.419 18.817,6.155 19.560,7.140 19.884 C 7.413 19.974,7.467 19.977,9.207 19.991 L 10.993 20.005 11.007 20.656 C 11.020 21.300,11.021 21.309,11.141 21.503 C 11.209 21.613,11.346 21.756,11.452 21.828 C 11.923 22.144,12.554 21.999,12.859 21.503 C 12.979 21.309,12.980 21.300,12.993 20.656 L 13.007 20.005 14.793 19.991 C 16.533 19.977,16.587 19.974,16.860 19.884 C 17.845 19.560,18.581 18.817,18.886 17.840 L 18.980 17.540 18.980 12.000 L 18.980 6.460 18.886 6.160 C 18.581 5.181,17.827 4.423,16.861 4.123 C 16.543 4.024,16.523 4.023,14.773 4.009 L 13.007 3.995 12.993 3.347 C 12.981 2.728,12.975 2.692,12.872 2.516 C 12.628 2.101,12.150 1.915,11.695 2.057 M16.310 6.061 C 16.589 6.144,16.856 6.411,16.939 6.690 C 16.992 6.868,17.000 7.546,17.000 12.001 C 17.000 16.212,16.990 17.139,16.945 17.290 C 16.872 17.533,16.707 17.740,16.484 17.872 L 16.300 17.980 12.000 17.980 L 7.700 17.980 7.516 17.872 C 7.303 17.747,7.141 17.550,7.058 17.316 C 6.969 17.061,6.971 6.993,7.061 6.690 C 7.140 6.421,7.412 6.143,7.673 6.063 C 7.962 5.974,16.011 5.972,16.310 6.061 M8.695 11.057 C 8.466 11.129,8.256 11.299,8.128 11.516 C 8.037 11.672,8.020 11.746,8.020 12.000 C 8.020 12.256,8.036 12.328,8.131 12.489 C 8.256 12.702,8.449 12.864,8.670 12.943 C 8.891 13.022,15.109 13.022,15.330 12.943 C 15.551 12.864,15.744 12.702,15.869 12.489 C 15.964 12.328,15.980 12.256,15.980 12.000 C 15.980 11.746,15.963 11.672,15.872 11.516 C 15.740 11.293,15.533 11.128,15.290 11.055 C 15.030 10.977,8.945 10.979,8.695 11.057 " stroke="none" fill-rule="evenodd" fill="black"></path></svg>