<svg viewBox="0 0 24 24" xmlns="http://www.w3.org/2000/svg" fill="none" stroke="#000000" stroke-width="2" stroke-linecap="round" stroke-linejoin="round"><path d="M11.358 1.061 C 9.150 1.405,7.636 3.582,8.082 5.772 C 8.158 6.141,8.394 6.806,8.483 6.898 C 8.503 6.919,8.520 6.950,8.520 6.968 C 8.520 6.986,8.021 7.000,7.410 7.000 C 6.800 7.000,6.184 7.019,6.043 7.042 C 5.080 7.199,4.236 7.828,3.820 8.699 C 3.728 8.892,3.291 10.412,2.417 13.580 C 1.719 16.110,1.124 18.288,1.095 18.420 C 0.934 19.155,1.135 20.100,1.585 20.718 C 2.029 21.329,2.570 21.703,3.300 21.903 C 3.572 21.978,3.817 21.980,12.000 21.980 C 20.183 21.980,20.428 21.978,20.700 21.903 C 21.445 21.699,22.028 21.287,22.447 20.670 C 22.870 20.047,23.060 19.156,22.915 18.472 C 22.861 18.216,20.394 9.264,20.299 8.980 C 19.974 8.005,19.019 7.215,17.957 7.042 C 17.816 7.019,17.201 7.000,16.590 7.000 C 15.980 7.000,15.480 6.986,15.480 6.968 C 15.480 6.950,15.497 6.919,15.517 6.898 C 15.602 6.811,15.847 6.120,15.921 5.757 C 16.070 5.024,15.994 4.230,15.705 3.516 C 15.172 2.197,14.001 1.269,12.605 1.058 C 12.144 0.989,11.816 0.990,11.358 1.061 M12.523 3.073 C 13.262 3.266,13.850 3.924,13.967 4.690 C 14.029 5.098,13.967 5.522,13.793 5.880 C 13.638 6.198,13.227 6.625,12.930 6.775 C 12.492 6.997,11.962 7.059,11.508 6.940 C 10.823 6.762,10.249 6.194,10.073 5.523 C 9.683 4.028,11.028 2.683,12.523 3.073 M17.805 9.061 C 18.045 9.143,18.255 9.322,18.354 9.530 C 18.470 9.774,20.925 18.696,20.950 18.963 C 20.984 19.347,20.768 19.709,20.391 19.897 L 20.184 20.000 12.042 20.000 C 6.557 20.000,3.851 19.986,3.751 19.958 C 3.379 19.855,3.040 19.419,3.040 19.043 C 3.040 18.830,5.510 9.814,5.646 9.530 C 5.690 9.436,5.792 9.306,5.872 9.240 C 6.173 8.993,5.813 9.007,11.983 9.003 C 16.945 9.000,17.647 9.007,17.805 9.061 " stroke="none" fill-rule="evenodd" fill="black"></path></svg>