<svg viewBox="0 0 24 24" xmlns="http://www.w3.org/2000/svg" fill="none" stroke="#000000" stroke-width="2" stroke-linecap="round" stroke-linejoin="round"><path d="M7.380 4.043 C 4.783 4.299,2.692 6.204,2.113 8.840 C 2.022 9.254,2.020 9.296,2.020 11.783 L 2.020 14.306 2.141 14.503 C 2.543 15.156,3.457 15.156,3.859 14.503 L 3.980 14.306 4.003 11.863 C 4.023 9.797,4.037 9.378,4.092 9.145 C 4.423 7.759,5.420 6.657,6.755 6.203 C 7.050 6.103,7.680 6.000,8.000 6.000 C 8.320 6.000,8.950 6.103,9.245 6.203 C 9.653 6.342,10.154 6.618,10.510 6.899 C 11.189 7.436,11.763 8.374,11.911 9.188 L 11.948 9.395 11.744 9.317 C 11.391 9.181,10.956 9.085,10.470 9.036 C 9.742 8.962,8.898 9.070,8.248 9.320 C 7.067 9.774,6.072 10.675,5.526 11.785 C 5.158 12.533,5.020 13.136,5.020 14.000 C 5.020 14.670,5.078 15.044,5.268 15.600 C 5.846 17.291,7.253 18.525,9.040 18.907 C 9.511 19.008,10.489 19.008,10.960 18.907 C 12.488 18.580,13.748 17.630,14.433 16.288 C 14.838 15.494,14.980 14.899,14.980 14.000 C 14.980 13.330,14.922 12.957,14.732 12.400 C 14.605 12.029,14.361 11.534,14.155 11.230 L 13.999 11.000 18.090 10.998 C 21.402 10.997,22.209 10.986,22.330 10.943 C 22.551 10.864,22.744 10.702,22.869 10.489 C 22.964 10.328,22.980 10.256,22.980 10.000 C 22.980 9.746,22.963 9.672,22.872 9.516 C 22.813 9.415,22.698 9.282,22.618 9.221 C 22.319 8.993,22.457 9.000,18.014 9.000 L 13.922 9.000 13.897 8.890 C 13.597 7.569,13.128 6.679,12.269 5.805 C 10.978 4.490,9.230 3.860,7.380 4.043 M10.840 11.121 C 11.176 11.215,11.575 11.419,11.830 11.627 C 11.960 11.733,12.000 11.793,12.000 11.883 L 12.000 12.000 9.943 12.000 C 8.812 12.000,7.855 12.012,7.816 12.027 C 7.752 12.051,7.751 12.046,7.803 11.973 C 7.903 11.830,8.292 11.519,8.553 11.372 C 8.820 11.222,9.165 11.101,9.499 11.040 C 9.812 10.984,10.498 11.025,10.840 11.121 M7.177 13.562 C 7.309 13.762,7.594 13.948,7.820 13.982 L 7.990 14.008 8.017 14.305 C 8.087 15.081,8.453 15.758,9.109 16.323 C 9.370 16.548,9.848 16.804,10.154 16.882 C 10.502 16.972,10.397 17.014,9.890 16.989 C 8.976 16.945,8.295 16.610,7.695 15.911 C 7.192 15.325,6.943 14.511,7.018 13.702 C 7.034 13.536,7.052 13.400,7.058 13.400 C 7.064 13.400,7.118 13.473,7.177 13.562 M12.000 14.054 C 12.000 14.181,11.882 14.483,11.779 14.618 C 11.718 14.698,11.585 14.813,11.484 14.872 C 11.328 14.963,11.254 14.980,11.000 14.980 C 10.746 14.980,10.672 14.963,10.516 14.872 C 10.293 14.740,10.128 14.533,10.055 14.290 C 9.961 13.978,9.889 14.000,11.000 14.000 C 11.810 14.000,12.000 14.010,12.000 14.054 " stroke="none" fill-rule="evenodd" fill="black"></path></svg>