<svg viewBox="0 0 24 24" xmlns="http://www.w3.org/2000/svg" fill="none" stroke="#000000" stroke-width="2" stroke-linecap="round" stroke-linejoin="round"><path d="M11.300 14.039 C 10.162 14.161,9.115 14.534,8.172 15.154 C 7.754 15.429,7.622 15.594,7.551 15.931 C 7.511 16.125,7.514 16.188,7.577 16.388 C 7.677 16.706,7.934 16.963,8.252 17.063 C 8.576 17.165,8.833 17.107,9.237 16.843 C 10.507 16.010,12.021 15.790,13.480 16.226 C 13.845 16.335,14.403 16.596,14.686 16.790 C 15.042 17.034,15.205 17.097,15.480 17.098 C 15.692 17.099,15.778 17.078,15.946 16.985 C 16.423 16.722,16.611 16.129,16.367 15.655 C 16.266 15.458,16.132 15.335,15.771 15.105 C 15.012 14.623,14.086 14.261,13.246 14.118 C 12.718 14.027,11.769 13.989,11.300 14.039 M11.695 19.055 C 11.464 19.130,11.255 19.300,11.128 19.516 C 11.037 19.672,11.020 19.746,11.020 20.000 C 11.020 20.257,11.036 20.327,11.133 20.492 C 11.651 21.374,12.998 21.018,12.998 20.000 C 12.998 19.623,12.792 19.281,12.463 19.112 C 12.265 19.010,11.911 18.984,11.695 19.055 " stroke="none" fill-rule="evenodd" fill="black"></path></svg>