<svg viewBox="0 0 24 24" xmlns="http://www.w3.org/2000/svg" fill="none" stroke="#000000" stroke-width="2" stroke-linecap="round" stroke-linejoin="round"><path d="M16.060 5.024 C 14.843 5.205,13.932 5.721,13.280 6.600 C 13.036 6.929,12.753 7.515,12.643 7.920 C 12.542 8.294,12.480 8.945,12.524 9.181 C 12.587 9.517,12.790 9.768,13.120 9.917 L 13.300 9.998 7.596 9.999 C 2.881 10.000,1.861 10.010,1.710 10.055 C 1.467 10.128,1.260 10.293,1.128 10.516 C 1.037 10.672,1.020 10.746,1.020 11.000 C 1.020 11.256,1.036 11.328,1.131 11.489 C 1.256 11.702,1.449 11.864,1.670 11.943 C 1.793 11.987,3.240 11.997,9.812 11.998 C 18.528 12.000,18.062 12.012,18.644 11.775 C 19.462 11.443,20.173 10.644,20.399 9.803 C 20.481 9.499,20.511 9.021,20.474 8.613 C 20.316 6.874,19.064 5.452,17.379 5.100 C 17.063 5.034,16.292 4.990,16.060 5.024 M16.965 7.058 C 17.635 7.200,18.202 7.714,18.404 8.364 C 18.495 8.655,18.506 9.181,18.425 9.374 C 18.338 9.581,18.118 9.804,17.900 9.906 L 17.700 9.999 15.700 9.999 L 13.700 9.999 13.900 9.905 C 14.134 9.793,14.331 9.599,14.417 9.394 C 14.450 9.314,14.495 9.071,14.516 8.854 C 14.575 8.240,14.728 7.913,15.134 7.529 C 15.608 7.081,16.271 6.910,16.965 7.058 M1.695 13.057 C 1.466 13.129,1.256 13.299,1.128 13.516 C 1.037 13.672,1.020 13.746,1.020 14.000 C 1.020 14.256,1.036 14.328,1.131 14.489 C 1.256 14.702,1.449 14.864,1.670 14.943 C 1.793 14.987,3.068 14.997,8.767 14.998 C 13.444 14.999,15.816 15.014,16.027 15.043 C 16.643 15.126,17.298 15.419,17.738 15.806 L 17.935 15.980 15.438 16.002 C 12.705 16.027,12.807 16.018,12.254 16.277 C 11.586 16.590,11.056 17.120,10.761 17.773 C 10.541 18.257,10.469 18.754,10.526 19.387 C 10.630 20.530,11.210 21.565,12.132 22.252 C 12.629 22.621,13.459 22.921,14.179 22.989 L 14.498 23.020 14.526 23.187 C 14.581 23.510,14.792 23.768,15.120 23.917 C 15.413 24.049,16.156 24.009,16.872 23.822 C 19.815 23.055,21.585 20.055,20.822 17.128 C 20.240 14.893,18.362 13.276,16.077 13.042 C 15.432 12.975,1.909 12.990,1.695 13.057 M17.240 18.037 C 16.952 18.125,16.689 18.353,16.583 18.606 C 16.550 18.686,16.505 18.929,16.484 19.146 C 16.428 19.729,16.314 19.995,15.961 20.375 C 15.732 20.621,15.525 20.763,15.220 20.882 C 15.016 20.961,14.908 20.975,14.500 20.975 C 14.092 20.975,13.984 20.961,13.780 20.882 C 13.207 20.659,12.749 20.168,12.583 19.603 C 12.505 19.335,12.501 18.804,12.575 18.626 C 12.686 18.361,12.952 18.125,13.240 18.037 C 13.295 18.021,14.240 18.007,15.340 18.007 C 16.440 18.007,17.295 18.021,17.240 18.037 M18.975 18.125 C 19.044 18.469,18.969 19.173,18.815 19.640 C 18.692 20.012,18.443 20.455,18.215 20.708 L 18.042 20.900 18.161 20.632 C 18.476 19.920,18.588 18.924,18.396 18.549 C 18.285 18.332,18.015 18.115,17.760 18.037 C 17.704 18.020,17.942 18.005,18.305 18.003 L 18.950 18.000 18.975 18.125 " stroke="none" fill-rule="evenodd" fill="black"></path></svg>