<svg viewBox="0 0 24 24" xmlns="http://www.w3.org/2000/svg" fill="none" stroke="#000000" stroke-width="2" stroke-linecap="round" stroke-linejoin="round"><path d="M11.580 3.095 C 11.470 3.147,11.332 3.242,11.272 3.305 C 11.209 3.373,9.781 6.387,7.768 10.700 L 4.371 17.980 4.056 18.005 C 3.882 18.019,3.689 18.051,3.627 18.075 C 3.437 18.151,3.241 18.324,3.128 18.516 C 3.037 18.672,3.020 18.746,3.020 19.000 C 3.020 19.256,3.036 19.328,3.131 19.489 C 3.256 19.702,3.449 19.864,3.670 19.943 C 3.893 20.022,20.107 20.022,20.330 19.943 C 20.551 19.864,20.744 19.702,20.869 19.489 C 20.964 19.328,20.980 19.256,20.980 19.000 C 20.980 18.746,20.963 18.672,20.872 18.516 C 20.759 18.324,20.563 18.151,20.373 18.075 C 20.311 18.051,20.118 18.019,19.945 18.005 L 19.629 17.980 17.320 13.032 C 15.607 9.362,15.005 8.034,14.989 7.892 C 14.973 7.747,14.712 7.186,13.914 5.583 C 13.334 4.418,12.806 3.403,12.740 3.326 C 12.469 3.011,11.968 2.912,11.580 3.095 M14.700 12.147 C 16.174 15.307,17.386 17.916,17.393 17.946 C 17.403 17.989,17.311 18.000,16.943 18.000 L 16.481 18.000 15.002 16.152 L 13.523 14.304 13.616 14.182 C 14.049 13.613,14.117 12.746,13.781 12.083 C 13.646 11.816,13.297 11.449,13.017 11.281 C 11.894 10.605,10.393 11.227,10.060 12.508 C 9.894 13.145,10.067 13.839,10.512 14.323 L 10.706 14.535 10.017 16.257 L 9.328 17.980 7.961 17.991 C 6.823 17.999,6.596 17.992,6.607 17.947 C 6.629 17.854,11.979 6.402,12.000 6.402 C 12.011 6.402,13.226 8.987,14.700 12.147 M13.120 17.000 L 13.922 18.000 12.701 18.000 L 11.481 18.000 11.556 17.810 C 11.598 17.706,11.761 17.296,11.920 16.900 C 12.079 16.504,12.224 16.140,12.243 16.090 C 12.262 16.041,12.287 16.000,12.298 16.000 C 12.309 16.000,12.679 16.450,13.120 17.000 " stroke="none" fill-rule="evenodd" fill="black"></path></svg>