<svg viewBox="0 0 24 24" xmlns="http://www.w3.org/2000/svg" fill="none" stroke="#000000" stroke-width="2" stroke-linecap="round" stroke-linejoin="round"><path d="M11.280 1.023 C 11.203 1.032,10.951 1.059,10.720 1.083 C 8.832 1.283,6.991 2.023,5.360 3.235 C 4.751 3.688,3.684 4.755,3.226 5.367 C 0.728 8.714,0.301 13.032,2.097 16.780 C 2.643 17.918,3.276 18.801,4.238 19.762 C 5.199 20.724,6.082 21.357,7.220 21.903 C 10.967 23.699,15.288 23.270,18.637 20.770 C 19.246 20.316,20.316 19.246,20.770 18.637 C 23.744 14.652,23.744 9.348,20.770 5.363 C 20.316 4.755,19.247 3.686,18.640 3.235 C 17.045 2.049,15.365 1.360,13.423 1.096 C 13.000 1.038,11.574 0.990,11.280 1.023 M13.320 3.101 C 15.883 3.488,18.124 4.931,19.560 7.120 C 19.863 7.583,20.303 8.479,20.492 9.020 C 20.838 10.013,20.977 10.865,20.977 12.000 C 20.977 13.493,20.720 14.621,20.080 15.940 C 19.375 17.394,18.311 18.607,16.927 19.532 C 16.138 20.060,14.876 20.588,13.908 20.797 C 11.266 21.366,8.479 20.708,6.370 19.019 C 4.857 17.807,3.722 16.029,3.267 14.160 C 3.081 13.397,3.023 12.888,3.023 12.000 C 3.023 10.507,3.280 9.379,3.920 8.060 C 4.971 5.891,6.877 4.221,9.160 3.466 C 9.865 3.233,10.432 3.118,11.340 3.024 C 11.662 2.991,12.911 3.039,13.320 3.101 M7.695 6.057 C 7.466 6.129,7.256 6.299,7.128 6.516 C 7.037 6.672,7.020 6.746,7.020 7.000 C 7.020 7.254,7.036 7.327,7.127 7.480 C 7.187 7.579,8.082 8.506,9.117 9.540 L 11.000 11.420 11.000 11.710 L 11.000 12.000 9.946 12.000 C 9.169 12.000,8.845 12.014,8.710 12.055 C 8.045 12.255,7.788 13.054,8.211 13.604 C 8.327 13.756,8.565 13.914,8.780 13.983 C 8.845 14.003,8.829 14.018,8.695 14.059 C 8.467 14.128,8.256 14.298,8.128 14.516 C 8.037 14.672,8.020 14.746,8.020 15.000 C 8.020 15.256,8.036 15.328,8.131 15.489 C 8.192 15.592,8.304 15.725,8.381 15.783 C 8.642 15.983,8.738 15.996,9.908 15.998 L 10.995 16.000 11.008 17.153 L 11.020 18.307 11.141 18.503 C 11.543 19.156,12.457 19.156,12.859 18.503 L 12.980 18.307 12.992 17.153 L 13.005 16.000 14.092 15.998 C 15.262 15.996,15.358 15.983,15.619 15.783 C 15.696 15.725,15.808 15.592,15.869 15.489 C 15.964 15.328,15.980 15.256,15.980 15.000 C 15.980 14.746,15.963 14.672,15.872 14.516 C 15.744 14.298,15.533 14.128,15.305 14.059 C 15.171 14.018,15.155 14.003,15.220 13.983 C 15.435 13.914,15.673 13.756,15.789 13.604 C 16.212 13.054,15.955 12.255,15.290 12.055 C 15.155 12.014,14.831 12.000,14.054 12.000 L 13.000 12.000 13.000 11.710 L 13.000 11.420 14.883 9.540 C 15.918 8.506,16.813 7.579,16.873 7.480 C 16.964 7.327,16.980 7.254,16.980 7.000 C 16.980 6.746,16.963 6.672,16.872 6.516 C 16.740 6.293,16.533 6.128,16.290 6.055 C 16.054 5.984,15.943 5.986,15.677 6.064 C 15.470 6.125,15.384 6.203,13.730 7.852 L 12.000 9.577 10.270 7.852 C 8.616 6.203,8.530 6.125,8.323 6.064 C 8.066 5.988,7.919 5.987,7.695 6.057 " stroke="none" fill-rule="evenodd" fill="black"></path></svg>