<svg viewBox="0 0 24 24" xmlns="http://www.w3.org/2000/svg" fill="none" stroke="#000000" stroke-width="2" stroke-linecap="round" stroke-linejoin="round"><path d="M5.358 8.061 C 4.230 8.237,3.143 8.974,2.569 9.953 C 1.320 12.083,2.233 14.785,4.512 15.704 C 4.939 15.876,5.537 16.000,5.946 16.001 L 6.260 16.002 6.420 16.228 C 6.646 16.548,7.401 17.302,7.780 17.585 C 8.715 18.285,9.784 18.739,10.940 18.926 C 11.355 18.993,12.645 18.993,13.060 18.926 C 14.216 18.739,15.285 18.285,16.220 17.585 C 16.599 17.302,17.354 16.548,17.580 16.228 L 17.740 16.002 18.054 16.001 C 18.226 16.000,18.543 15.964,18.757 15.921 C 20.117 15.643,21.193 14.755,21.704 13.488 C 22.090 12.530,22.090 11.469,21.705 10.516 C 21.172 9.197,20.001 8.269,18.605 8.058 C 18.121 7.986,17.879 7.986,17.395 8.058 C 15.156 8.396,13.632 10.563,14.082 12.772 C 14.267 13.680,14.739 14.479,15.430 15.056 C 15.590 15.189,15.720 15.311,15.720 15.326 C 15.720 15.380,15.080 15.935,14.792 16.131 C 13.084 17.292,10.784 17.264,9.100 16.061 C 8.847 15.881,8.280 15.372,8.280 15.325 C 8.280 15.310,8.410 15.189,8.570 15.056 C 9.262 14.478,9.733 13.676,9.921 12.757 C 10.070 12.024,9.994 11.230,9.705 10.516 C 9.172 9.197,8.001 8.269,6.605 8.058 C 6.144 7.989,5.816 7.990,5.358 8.061 M6.523 10.073 C 7.951 10.446,8.473 12.264,7.463 13.349 L 7.253 13.575 7.165 13.224 C 7.117 13.031,7.058 12.636,7.035 12.346 C 7.011 12.057,6.965 11.742,6.931 11.646 C 6.631 10.786,5.389 10.794,5.059 11.658 C 4.999 11.815,4.992 11.918,5.013 12.332 C 5.039 12.814,5.121 13.411,5.199 13.677 C 5.221 13.753,5.232 13.822,5.223 13.830 C 5.186 13.868,4.866 13.663,4.653 13.465 C 3.323 12.229,4.189 10.005,6.000 10.005 C 6.143 10.005,6.378 10.036,6.523 10.073 M18.523 10.073 C 19.262 10.266,19.850 10.924,19.967 11.690 C 20.067 12.343,19.873 12.933,19.403 13.404 C 19.172 13.636,18.821 13.875,18.777 13.830 C 18.768 13.822,18.779 13.753,18.801 13.677 C 18.879 13.411,18.961 12.814,18.987 12.332 C 19.016 11.776,18.970 11.585,18.745 11.329 C 18.262 10.778,17.309 10.958,17.069 11.646 C 17.035 11.742,16.989 12.057,16.965 12.346 C 16.942 12.636,16.883 13.029,16.836 13.219 L 16.749 13.566 16.583 13.403 C 16.231 13.058,16.007 12.527,16.002 12.028 C 15.991 10.920,16.895 10.005,18.000 10.005 C 18.143 10.005,18.378 10.036,18.523 10.073 " stroke="none" fill-rule="evenodd" fill="black"></path></svg>