<svg viewBox="0 0 24 24" xmlns="http://www.w3.org/2000/svg" fill="none" stroke="#000000" stroke-width="2" stroke-linecap="round" stroke-linejoin="round"><path d="M7.440 2.023 C 7.385 2.032,7.205 2.060,7.040 2.084 C 6.004 2.233,4.882 2.762,4.018 3.509 C 3.094 4.308,2.405 5.500,2.113 6.805 C 2.033 7.162,2.020 7.326,2.022 7.980 C 2.024 8.613,2.039 8.810,2.114 9.160 C 2.477 10.845,3.324 12.085,4.768 13.048 C 5.641 13.629,6.861 14.004,7.865 13.998 C 8.366 13.995,8.658 13.847,8.869 13.489 C 8.964 13.328,8.980 13.256,8.980 13.000 C 8.980 12.746,8.963 12.672,8.872 12.516 C 8.758 12.323,8.561 12.149,8.375 12.078 C 8.314 12.055,8.130 12.019,7.966 11.998 C 7.623 11.955,7.387 11.835,7.226 11.625 C 7.081 11.434,7.037 11.309,6.997 10.966 C 6.956 10.614,6.833 10.381,6.595 10.205 C 6.121 9.857,5.432 9.999,5.135 10.505 L 5.031 10.683 4.898 10.531 C 4.560 10.145,4.220 9.430,4.092 8.834 C 3.986 8.343,3.996 7.534,4.113 7.062 C 4.287 6.363,4.737 5.579,5.235 5.110 C 6.781 3.654,9.160 3.641,10.731 5.080 L 10.999 5.326 11.010 13.316 L 11.020 21.306 11.141 21.503 C 11.543 22.156,12.457 22.156,12.859 21.503 L 12.980 21.306 12.990 13.316 L 13.001 5.326 13.269 5.080 C 14.274 4.160,15.644 3.803,16.960 4.120 C 17.375 4.220,18.086 4.561,18.441 4.831 C 19.118 5.345,19.673 6.201,19.887 7.062 C 20.004 7.534,20.014 8.343,19.908 8.834 C 19.780 9.430,19.440 10.145,19.102 10.531 L 18.969 10.683 18.865 10.505 C 18.568 9.999,17.879 9.857,17.405 10.205 C 17.169 10.379,17.047 10.609,17.002 10.966 C 16.957 11.320,16.916 11.438,16.774 11.625 C 16.613 11.835,16.377 11.955,16.034 11.998 C 15.870 12.019,15.686 12.055,15.625 12.078 C 15.439 12.149,15.242 12.323,15.128 12.516 C 15.037 12.672,15.020 12.746,15.020 13.000 C 15.020 13.256,15.036 13.328,15.131 13.489 C 15.342 13.848,15.634 13.996,16.140 13.998 C 17.055 14.002,18.289 13.649,19.067 13.159 C 20.907 12.003,21.910 10.285,21.987 8.160 C 22.014 7.415,21.925 6.797,21.695 6.122 C 21.103 4.390,19.899 3.114,18.209 2.427 C 17.483 2.132,16.856 2.019,15.960 2.023 C 15.185 2.026,14.760 2.094,14.072 2.325 C 13.398 2.550,12.527 3.039,12.130 3.413 L 12.000 3.536 11.870 3.413 C 11.293 2.869,10.169 2.330,9.170 2.119 C 8.796 2.040,7.692 1.979,7.440 2.023 " stroke="none" fill-rule="evenodd" fill="black"></path></svg>