<svg viewBox="0 0 24 24" xmlns="http://www.w3.org/2000/svg" fill="none" stroke="#000000" stroke-width="2" stroke-linecap="round" stroke-linejoin="round"><path d="M5.695 2.057 C 5.466 2.129,5.256 2.299,5.128 2.516 C 5.026 2.691,5.020 2.726,5.023 3.200 C 5.037 5.118,5.962 7.051,7.486 8.345 L 7.672 8.503 7.391 8.741 C 6.186 9.768,5.345 11.307,5.074 12.980 C 5.008 13.393,5.008 14.607,5.074 15.020 C 5.574 18.112,7.888 20.426,10.980 20.926 C 11.392 20.992,12.607 20.992,13.020 20.926 C 16.109 20.428,18.428 18.109,18.926 15.020 C 18.954 14.844,18.977 14.385,18.977 14.000 C 18.977 13.056,18.876 12.462,18.573 11.620 C 18.177 10.520,17.456 9.463,16.609 8.741 L 16.328 8.503 16.514 8.345 C 18.037 7.053,18.963 5.116,18.977 3.200 C 18.980 2.724,18.975 2.691,18.871 2.514 C 18.648 2.134,18.208 1.941,17.786 2.035 C 17.375 2.127,17.056 2.473,17.019 2.866 C 17.009 2.973,16.981 3.258,16.958 3.500 C 16.873 4.376,16.639 5.024,16.126 5.800 C 15.746 6.376,15.129 6.961,14.546 7.300 C 14.353 7.412,14.350 7.412,14.166 7.348 C 13.091 6.973,11.533 6.915,10.340 7.205 C 10.164 7.248,9.937 7.312,9.835 7.348 L 9.651 7.412 9.421 7.281 C 8.702 6.869,7.955 6.065,7.556 5.272 C 7.245 4.654,7.108 4.180,7.042 3.500 C 7.019 3.258,6.991 2.973,6.981 2.866 C 6.946 2.497,6.665 2.168,6.290 2.055 C 6.068 1.988,5.913 1.989,5.695 2.057 M10.220 9.759 C 10.896 9.937,11.235 9.978,12.020 9.976 C 12.798 9.974,13.228 9.919,13.860 9.739 C 14.058 9.682,14.257 9.626,14.303 9.615 C 14.360 9.600,14.501 9.671,14.763 9.846 C 16.301 10.874,17.148 12.653,16.964 14.470 C 16.889 15.212,16.733 15.732,16.398 16.353 C 15.683 17.681,14.466 18.585,12.960 18.907 C 12.489 19.008,11.511 19.008,11.040 18.907 C 10.067 18.699,9.257 18.277,8.563 17.616 C 8.035 17.114,7.582 16.435,7.320 15.752 C 6.915 14.699,6.915 13.301,7.320 12.248 C 7.577 11.579,8.029 10.895,8.535 10.410 C 8.946 10.016,9.580 9.584,9.697 9.619 C 9.743 9.632,9.978 9.695,10.220 9.759 " stroke="none" fill-rule="evenodd" fill="black"></path></svg>