<svg xmlns="http://www.w3.org/2000/svg" width="24" height="24" viewBox="0 0 24 24" version="1.1">
	<path d="M 9.026 2 C 8.553 2, 7.531 3.912, 6.755 6.250 C 5.747 9.285, 4.723 10.591, 3.172 10.820 C 1.977 10.995, 1 11.558, 1 12.070 C 1 12.581, 2.341 13, 3.981 13 C 6.327 13, 7.096 12.467, 7.589 10.500 C 7.934 9.125, 8.529 8, 8.912 8 C 9.294 8, 10.621 11.150, 11.861 15 C 13.101 18.850, 14.502 22, 14.974 22 C 15.447 22, 16.469 20.088, 17.245 17.750 C 18.253 14.715, 19.277 13.409, 20.828 13.180 C 22.023 13.005, 23 12.442, 23 11.930 C 23 11.419, 21.659 11, 20.019 11 C 17.673 11, 16.904 11.533, 16.411 13.500 C 16.066 14.875, 15.471 16, 15.088 16 C 14.706 16, 13.379 12.850, 12.139 9 C 10.899 5.150, 9.498 2, 9.026 2" stroke="none" fill="black" fill-rule="evenodd"/>
</svg>