<svg xmlns="http://www.w3.org/2000/svg" width="24" height="24" viewBox="0 0 24 24" version="1.1">
	<path d="M 12.232 2.215 C 4.190 1.991, 1.849 2.231, 1.431 3.320 C 1.137 4.085, 1.033 7.588, 1.199 11.105 C 1.470 16.868, 1.722 17.532, 3.750 17.820 C 4.988 17.995, 6 17.658, 6 17.070 C 6 16.481, 5.325 16, 4.500 16 C 3.333 16, 3 14.667, 3 10 L 3 4 12 4 L 21 4 21 10 C 21 14.667, 20.667 16, 19.500 16 C 18.675 16, 18 16.481, 18 17.070 C 18 17.658, 19.012 17.995, 20.250 17.820 C 22.355 17.521, 22.500 17.016, 22.500 10 L 22.500 2.500 12.232 2.215 M 12 14 C 11.506 14, 9.954 15.505, 8.551 17.344 C 7.148 19.184, 6 20.984, 6 21.344 C 6 21.705, 8.700 22, 12 22 C 15.300 22, 18 21.705, 18 21.344 C 18 20.984, 16.852 19.184, 15.449 17.344 C 14.046 15.505, 12.494 14, 12 14 M 12 17 C 11.568 17, 10.955 17.675, 10.638 18.500 C 10.249 19.515, 10.689 20, 12 20 C 13.311 20, 13.751 19.515, 13.362 18.500 C 13.045 17.675, 12.432 17, 12 17" stroke="none" fill="black" fill-rule="evenodd"/>
</svg>