<svg xmlns="http://www.w3.org/2000/svg" width="24" height="24" viewBox="0 0 24 24" version="1.1">
	<path d="M 5.155 2 C 4.690 2, 3.493 2.903, 2.494 4.006 C 1.496 5.110, 0.973 6.307, 1.333 6.667 C 1.693 7.027, 2.890 6.504, 3.994 5.506 C 5.097 4.507, 6 3.310, 6 2.845 C 6 2.380, 5.620 2, 5.155 2 M 18.845 2 C 18.380 2, 18 2.380, 18 2.845 C 18 3.310, 18.903 4.507, 20.006 5.506 C 21.110 6.504, 22.307 7.027, 22.667 6.667 C 23.027 6.307, 22.504 5.110, 21.506 4.006 C 20.507 2.903, 19.310 2, 18.845 2 M 12 4 C 9.848 4, 7.918 4.928, 5.923 6.923 C 4.056 8.790, 3.006 10.868, 3.015 12.673 C 3.024 14.228, 3.448 16.160, 3.958 16.966 C 4.548 17.900, 4.491 18.908, 3.800 19.741 C 3.203 20.460, 3.012 21.345, 3.374 21.707 C 3.737 22.070, 4.513 21.887, 5.099 21.301 C 5.853 20.547, 7.017 20.558, 9.082 21.337 C 11.206 22.139, 12.794 22.139, 14.918 21.337 C 16.983 20.558, 18.147 20.547, 18.901 21.301 C 19.487 21.887, 20.263 22.070, 20.626 21.707 C 20.988 21.345, 20.797 20.460, 20.200 19.741 C 19.509 18.908, 19.452 17.900, 20.042 16.966 C 20.552 16.160, 20.976 14.228, 20.985 12.673 C 20.994 10.868, 19.944 8.790, 18.077 6.923 C 16.082 4.928, 14.152 4, 12 4 M 12 6 C 10.850 6, 8.805 7.105, 7.455 8.455 C 6.105 9.805, 5 11.850, 5 13 C 5 14.150, 6.105 16.195, 7.455 17.545 C 8.805 18.895, 10.850 20, 12 20 C 13.150 20, 15.195 18.895, 16.545 17.545 C 17.895 16.195, 19 14.150, 19 13 C 19 11.850, 17.895 9.805, 16.545 8.455 C 15.195 7.105, 13.150 6, 12 6 M 15.122 10 C 14.640 10, 13.676 10.685, 12.981 11.523 C 12.252 12.402, 10.932 12.796, 9.859 12.455 C 8.836 12.131, 8 12.290, 8 12.810 C 8 13.330, 8.688 14.326, 9.529 15.024 C 10.798 16.077, 11.480 15.898, 13.529 13.972 C 14.888 12.696, 16 11.280, 16 10.826 C 16 10.372, 15.605 10, 15.122 10" stroke="none" fill="black" fill-rule="evenodd"/>
</svg>