<svg xmlns="http://www.w3.org/2000/svg" width="24" height="24" viewBox="0 0 24 24" version="1.1">
	<path d="M 2.494 4.006 C 1.496 5.110, 0.973 6.307, 1.333 6.667 C 2.063 7.396, 6 4.171, 6 2.845 C 6 1.385, 4.381 1.921, 2.494 4.006 M 18 2.845 C 18 4.171, 21.937 7.396, 22.667 6.667 C 23.027 6.307, 22.504 5.110, 21.506 4.006 C 19.619 1.921, 18 1.385, 18 2.845 M 5.923 6.923 C 2.933 9.913, 2.121 14.062, 3.958 16.966 C 4.548 17.900, 4.491 18.908, 3.800 19.741 C 2.457 21.359, 3.630 22.770, 5.099 21.301 C 5.853 20.547, 7.017 20.558, 9.082 21.337 C 11.206 22.139, 12.794 22.139, 14.918 21.337 C 16.983 20.558, 18.147 20.547, 18.901 21.301 C 20.370 22.770, 21.543 21.359, 20.200 19.741 C 19.509 18.908, 19.452 17.900, 20.042 16.966 C 21.879 14.062, 21.067 9.913, 18.077 6.923 C 14.147 2.993, 9.853 2.993, 5.923 6.923 M 7.455 8.455 C 6.105 9.805, 5 11.850, 5 13 C 5 15.698, 9.302 20, 12 20 C 14.698 20, 19 15.698, 19 13 C 19 10.302, 14.698 6, 12 6 C 10.850 6, 8.805 7.105, 7.455 8.455 M 11 10.500 C 11 11.325, 10.325 12, 9.500 12 C 8.675 12, 8 12.450, 8 13 C 8 13.550, 8.675 14, 9.500 14 C 10.325 14, 11 14.675, 11 15.500 C 11 16.325, 11.450 17, 12 17 C 12.550 17, 13 16.325, 13 15.500 C 13 14.675, 13.675 14, 14.500 14 C 15.325 14, 16 13.550, 16 13 C 16 12.450, 15.325 12, 14.500 12 C 13.675 12, 13 11.325, 13 10.500 C 13 9.675, 12.550 9, 12 9 C 11.450 9, 11 9.675, 11 10.500" stroke="none" fill="#000000" fill-rule="evenodd"/>
</svg>