<svg xmlns="http://www.w3.org/2000/svg" width="24" height="24" viewBox="0 0 24 24" version="1.1">
	<path d="M 11.899 1 C 8.114 1, 6.880 1.528, 4.196 4.298 C 1.562 7.015, 1 8.388, 1 12.101 C 1 15.886, 1.528 17.120, 4.298 19.804 C 7.015 22.438, 8.388 23, 12.101 23 C 15.886 23, 17.120 22.472, 19.804 19.702 C 22.438 16.985, 23 15.612, 23 11.899 C 23 8.114, 22.472 6.880, 19.702 4.196 C 16.985 1.562, 15.612 1, 11.899 1 M 11.882 3 C 9.344 3, 7.631 3.775, 5.687 5.805 C 3.815 7.759, 3 9.673, 3 12.118 C 3 14.656, 3.775 16.369, 5.805 18.313 C 7.721 20.149, 9.683 21, 12 21 C 14.317 21, 16.279 20.149, 18.195 18.313 C 20.258 16.336, 21 14.667, 21 12 C 21 9.333, 20.258 7.664, 18.195 5.687 C 16.241 3.815, 14.327 3, 11.882 3 M 12 7 C 11.450 7, 11 8.350, 11 10 C 11 11.650, 11.450 13, 12 13 C 12.550 13, 13 11.650, 13 10 C 13 8.350, 12.550 7, 12 7 M 12 15 C 11.450 15, 11 15.450, 11 16 C 11 16.550, 11.450 17, 12 17 C 12.550 17, 13 16.550, 13 16 C 13 15.450, 12.550 15, 12 15" stroke="none" fill="black" fill-rule="evenodd"/>
</svg>