<svg xmlns="http://www.w3.org/2000/svg" width="24" height="24" viewBox="0 0 24 24" version="1.1">
	<path d="M 4.196 4.298 C 1.562 7.015, 1 8.388, 1 12.101 C 1 15.886, 1.528 17.120, 4.298 19.804 C 7.015 22.438, 8.388 23, 12.101 23 C 15.886 23, 17.120 22.472, 19.804 19.702 C 22.438 16.985, 23 15.612, 23 11.899 C 23 8.114, 22.472 6.880, 19.702 4.196 C 16.985 1.562, 15.612 1, 11.899 1 C 8.114 1, 6.880 1.528, 4.196 4.298 M 5.687 5.805 C 1.972 9.682, 2.019 14.686, 5.805 18.313 C 11.596 23.862, 21 19.955, 21 12 C 21 3.951, 11.244 0.004, 5.687 5.805 M 11 10 C 11 11.650, 11.450 13, 12 13 C 12.550 13, 13 11.650, 13 10 C 13 8.350, 12.550 7, 12 7 C 11.450 7, 11 8.350, 11 10 M 11 16 C 11 16.550, 11.450 17, 12 17 C 12.550 17, 13 16.550, 13 16 C 13 15.450, 12.550 15, 12 15 C 11.450 15, 11 15.450, 11 16" stroke="none" fill="#000000" fill-rule="evenodd"/>
</svg>