<svg xmlns="http://www.w3.org/2000/svg" width="24" height="24" viewBox="0 0 24 24" version="1.1">
	<path d="M 5.522 9.623 C 2.923 13.903, 1.026 18.180, 1.197 19.373 C 1.484 21.388, 2.053 21.500, 12 21.500 C 21.947 21.500, 22.516 21.388, 22.803 19.373 C 23.240 16.312, 14.340 2, 12 2 C 10.766 2, 8.608 4.540, 5.522 9.623 M 7.245 11.056 C 4.910 14.937, 3 18.537, 3 19.056 C 3 19.578, 7.023 20, 12 20 C 16.977 20, 21 19.578, 21 19.056 C 21 17.883, 12.701 4, 12 4 C 11.719 4, 9.579 7.175, 7.245 11.056 M 11 11 C 11 12.650, 11.450 14, 12 14 C 12.550 14, 13 12.650, 13 11 C 13 9.350, 12.550 8, 12 8 C 11.450 8, 11 9.350, 11 11 M 11 17 C 11 17.550, 11.450 18, 12 18 C 12.550 18, 13 17.550, 13 17 C 13 16.450, 12.550 16, 12 16 C 11.450 16, 11 16.450, 11 17" stroke="none" fill="#000000" fill-rule="evenodd"/>
</svg>