<svg xmlns="http://www.w3.org/2000/svg" width="24" height="24" viewBox="0 0 24 24" version="1.1">
	<path d="M 3 11 C 3 13.200, 2.550 15, 2 15 C 1.450 15, 1 15.900, 1 17 C 1 18.100, 1.450 19, 2 19 C 2.550 19, 3 18.100, 3 17 C 3 15.900, 3.450 15, 4 15 C 4.550 15, 5 15.450, 5 16 C 5 16.550, 5.900 17, 7 17 C 8.100 17, 9 16.550, 9 16 C 9 15.450, 10.350 15, 12 15 C 13.650 15, 15 15.450, 15 16 C 15 16.550, 15.900 17, 17 17 C 18.100 17, 19 16.550, 19 16 C 19 15.450, 19.450 15, 20 15 C 20.550 15, 21 15.900, 21 17 C 21 18.100, 21.450 19, 22 19 C 22.550 19, 23 18.100, 23 17 C 23 15.900, 22.550 15, 22 15 C 21.450 15, 21 13.200, 21 11 L 21 7 12 7 L 3 7 3 11 M 5.158 11 C 5.158 12.375, 5.385 12.938, 5.662 12.250 C 5.940 11.563, 5.940 10.438, 5.662 9.750 C 5.385 9.063, 5.158 9.625, 5.158 11 M 10 11 C 10 12.333, 10.667 13, 12 13 C 13.333 13, 14 12.333, 14 11 C 14 9.667, 13.333 9, 12 9 C 10.667 9, 10 9.667, 10 11 M 18.158 11 C 18.158 12.375, 18.385 12.938, 18.662 12.250 C 18.940 11.563, 18.940 10.438, 18.662 9.750 C 18.385 9.063, 18.158 9.625, 18.158 11" stroke="none" fill="black" fill-rule="evenodd"/>
</svg>