<svg viewBox="0 0 24 24" xmlns="http://www.w3.org/2000/svg" fill="none" stroke="#000000" stroke-width="2" stroke-linecap="round" stroke-linejoin="round"><path d="M3.580 7.095 C 3.340 7.209,3.193 7.358,3.083 7.600 C 3.003 7.776,3.002 7.845,3.003 10.980 C 3.003 13.550,3.014 14.210,3.057 14.330 C 3.136 14.551,3.298 14.744,3.511 14.869 C 3.693 14.976,3.724 14.980,4.347 14.993 L 4.993 15.007 5.007 15.653 C 5.020 16.276,5.024 16.307,5.131 16.489 C 5.256 16.702,5.449 16.864,5.670 16.943 C 5.885 17.020,8.115 17.020,8.330 16.943 C 8.551 16.864,8.744 16.702,8.869 16.489 C 8.976 16.307,8.980 16.277,8.993 15.650 L 9.007 15.000 12.000 15.000 L 14.993 15.000 15.007 15.650 C 15.020 16.277,15.024 16.307,15.131 16.489 C 15.256 16.702,15.449 16.864,15.670 16.943 C 15.885 17.020,18.115 17.020,18.330 16.943 C 18.551 16.864,18.744 16.702,18.869 16.489 C 18.976 16.307,18.980 16.276,18.993 15.653 L 19.007 15.007 19.653 14.993 C 20.276 14.980,20.307 14.976,20.489 14.869 C 20.702 14.744,20.864 14.551,20.943 14.330 C 20.986 14.210,20.997 13.550,20.997 10.980 C 20.998 7.845,20.997 7.776,20.917 7.600 C 20.807 7.358,20.660 7.209,20.420 7.095 L 20.220 7.001 12.000 7.001 L 3.780 7.001 3.580 7.095 M6.695 9.057 C 6.466 9.129,6.256 9.299,6.128 9.516 L 6.020 9.700 6.008 10.908 C 6.000 11.666,6.011 12.174,6.038 12.272 C 6.099 12.498,6.288 12.738,6.508 12.867 C 6.689 12.973,6.734 12.981,7.280 13.000 C 7.685 13.014,7.818 13.029,7.721 13.051 C 7.437 13.114,7.040 13.508,7.040 13.728 C 7.040 13.768,7.022 13.800,7.000 13.800 C 6.978 13.800,6.960 13.770,6.960 13.734 C 6.960 13.621,6.771 13.338,6.618 13.221 C 6.387 13.045,6.169 13.000,5.554 13.000 L 5.000 13.000 5.000 11.000 L 5.000 9.000 5.930 9.003 C 6.752 9.005,6.841 9.011,6.695 9.057 M14.695 9.057 C 14.466 9.129,14.256 9.299,14.128 9.516 L 14.020 9.700 14.020 11.000 L 14.020 12.300 14.131 12.489 C 14.256 12.702,14.449 12.864,14.670 12.943 C 14.798 12.989,14.404 12.996,12.000 12.996 C 9.596 12.996,9.202 12.989,9.330 12.943 C 9.551 12.864,9.744 12.702,9.869 12.489 L 9.980 12.300 9.980 11.000 L 9.980 9.700 9.872 9.516 C 9.744 9.299,9.534 9.129,9.305 9.057 C 9.167 9.014,9.603 9.005,12.000 9.005 C 14.397 9.005,14.833 9.014,14.695 9.057 M19.000 11.000 L 19.000 13.000 18.446 13.000 C 17.831 13.000,17.613 13.045,17.382 13.221 C 17.229 13.338,17.040 13.621,17.040 13.734 C 17.040 13.770,17.022 13.800,17.000 13.800 C 16.978 13.800,16.960 13.768,16.960 13.728 C 16.960 13.508,16.563 13.114,16.279 13.051 C 16.182 13.029,16.315 13.014,16.720 13.000 C 17.266 12.981,17.311 12.973,17.492 12.867 C 17.712 12.738,17.901 12.498,17.962 12.272 C 17.989 12.174,18.000 11.666,17.992 10.908 L 17.980 9.700 17.872 9.516 C 17.744 9.299,17.534 9.129,17.305 9.057 C 17.159 9.011,17.248 9.005,18.070 9.003 L 19.000 9.000 19.000 11.000 M1.695 15.057 C 1.466 15.129,1.256 15.299,1.128 15.516 L 1.020 15.700 1.020 17.003 L 1.020 18.306 1.141 18.503 C 1.543 19.156,2.457 19.156,2.859 18.503 L 2.980 18.306 2.980 17.003 L 2.980 15.700 2.872 15.516 C 2.628 15.101,2.150 14.915,1.695 15.057 M21.695 15.057 C 21.466 15.129,21.256 15.299,21.128 15.516 L 21.020 15.700 21.020 17.003 L 21.020 18.306 21.141 18.503 C 21.543 19.156,22.457 19.156,22.859 18.503 L 22.980 18.306 22.980 17.003 L 22.980 15.700 22.872 15.516 C 22.628 15.101,22.150 14.915,21.695 15.057 " stroke="none" fill-rule="evenodd" fill="black"></path></svg>