<svg viewBox="0 0 24 24" xmlns="http://www.w3.org/2000/svg" fill="none" stroke="#000000" stroke-width="2" stroke-linecap="round" stroke-linejoin="round"><path d="M11.180 1.044 C 9.394 1.232,7.759 2.014,6.461 3.300 C 4.595 5.151,3.418 7.922,3.072 11.280 C 3.003 11.951,3.004 14.033,3.074 14.680 C 3.465 18.311,5.015 20.822,7.654 22.099 C 8.479 22.498,9.323 22.744,10.420 22.906 C 11.101 23.007,12.899 23.007,13.580 22.906 C 15.655 22.600,17.191 21.871,18.433 20.604 C 19.829 19.180,20.653 17.222,20.926 14.680 C 20.996 14.028,20.997 11.947,20.927 11.280 C 20.575 7.899,19.410 5.156,17.539 3.300 C 15.841 1.617,13.530 0.797,11.180 1.044 M13.161 3.116 C 16.240 3.731,18.381 6.770,18.906 11.267 C 19.001 12.082,19.001 13.922,18.907 14.677 C 18.755 15.886,18.494 16.828,18.077 17.669 C 17.282 19.275,16.011 20.295,14.251 20.739 C 13.485 20.932,13.053 20.978,12.000 20.978 C 10.947 20.978,10.515 20.932,9.749 20.739 C 7.058 20.060,5.503 18.035,5.094 14.680 C 4.997 13.881,4.998 12.102,5.095 11.260 C 5.488 7.879,6.805 5.288,8.812 3.949 C 9.562 3.449,10.426 3.145,11.440 3.024 C 11.751 2.987,12.793 3.042,13.161 3.116 M8.695 12.055 C 8.464 12.130,8.255 12.300,8.128 12.516 C 8.037 12.672,8.020 12.746,8.020 13.000 C 8.020 13.257,8.036 13.327,8.133 13.492 C 8.651 14.374,9.998 14.018,9.998 13.000 C 9.998 12.623,9.792 12.281,9.463 12.112 C 9.265 12.010,8.911 11.984,8.695 12.055 M14.695 12.055 C 14.464 12.130,14.255 12.300,14.128 12.516 C 14.037 12.672,14.020 12.746,14.020 13.000 C 14.020 13.257,14.036 13.327,14.133 13.492 C 14.651 14.374,15.998 14.018,15.998 13.000 C 15.998 12.623,15.792 12.281,15.463 12.112 C 15.265 12.010,14.911 11.984,14.695 12.055 M9.670 16.061 C 9.448 16.142,9.250 16.309,9.128 16.516 C 9.037 16.672,9.020 16.746,9.020 17.000 C 9.020 17.257,9.036 17.328,9.133 17.492 C 9.382 17.916,10.204 18.419,10.989 18.628 C 11.330 18.719,11.459 18.732,12.000 18.732 C 12.541 18.732,12.670 18.719,13.011 18.628 C 13.796 18.419,14.618 17.916,14.867 17.492 C 14.964 17.328,14.980 17.257,14.980 17.000 C 14.980 16.746,14.963 16.672,14.872 16.516 C 14.747 16.303,14.550 16.141,14.316 16.058 C 13.964 15.934,13.638 16.013,13.283 16.306 C 12.840 16.674,12.300 16.815,11.674 16.726 C 11.281 16.671,11.015 16.554,10.717 16.306 C 10.364 16.014,10.018 15.933,9.670 16.061 " stroke="none" fill-rule="evenodd" fill="black"></path></svg>