<svg xmlns="http://www.w3.org/2000/svg" width="24" height="24" viewBox="0 0 24 24" version="1.1">
	<path d="M 7.750 2.080 C 3.610 4.491, 1.614 13.529, 4.163 18.316 C 5.929 21.631, 8.143 22.936, 12 22.936 C 17.703 22.936, 21 19.120, 21 12.516 C 21 3.923, 14.022 -1.573, 7.750 2.080 M 8.056 4.944 C 5.433 7.567, 4.465 13.294, 6.012 17.029 C 8.210 22.335, 15.790 22.335, 17.988 17.029 C 20.380 11.254, 16.857 3, 12 3 C 10.900 3, 9.125 3.875, 8.056 4.944 M 8 13 C 8 13.550, 8.450 14, 9 14 C 9.550 14, 10 13.550, 10 13 C 10 12.450, 9.550 12, 9 12 C 8.450 12, 8 12.450, 8 13 M 14 13 C 14 13.550, 14.450 14, 15 14 C 15.550 14, 16 13.550, 16 13 C 16 12.450, 15.550 12, 15 12 C 14.450 12, 14 12.450, 14 13 M 9.306 17.417 C 9.504 18.012, 10.717 18.500, 12 18.500 C 13.283 18.500, 14.496 18.012, 14.694 17.417 C 14.901 16.796, 13.749 16.333, 12 16.333 C 10.251 16.333, 9.099 16.796, 9.306 17.417" stroke="none" fill="#000000" fill-rule="evenodd"/>
</svg>