<svg xmlns="http://www.w3.org/2000/svg" width="24" height="24" viewBox="0 0 24 24" version="1.1">
	<path d="M 2 6 C 2 6.600, 6 7, 12 7 C 18 7, 22 6.600, 22 6 C 22 5.400, 18 5, 12 5 C 6 5, 2 5.400, 2 6 M 2 10 C 2 10.600, 6 11, 12 11 C 18 11, 22 10.600, 22 10 C 22 9.400, 18 9, 12 9 C 6 9, 2 9.400, 2 10 M 2 14 C 2 14.600, 6 15, 12 15 C 18 15, 22 14.600, 22 14 C 22 13.400, 18 13, 12 13 C 6 13, 2 13.400, 2 14 M 2 18 C 2 18.600, 6 19, 12 19 C 18 19, 22 18.600, 22 18 C 22 17.400, 18 17, 12 17 C 6 17, 2 17.400, 2 18" stroke="none" fill="#000000" fill-rule="evenodd"/>
</svg>