<svg xmlns="http://www.w3.org/2000/svg" width="24" height="24" viewBox="0 0 24 24" version="1.1">
	<path d="M 2 6 C 2 6.600, 6 7, 12 7 C 18 7, 22 6.600, 22 6 C 22 5.400, 18 5, 12 5 C 6 5, 2 5.400, 2 6 M 6 10 C 6 10.583, 9.333 11, 14 11 C 18.667 11, 22 10.583, 22 10 C 22 9.417, 18.667 9, 14 9 C 9.333 9, 6 9.417, 6 10 M 2 14 C 2 14.600, 6 15, 12 15 C 18 15, 22 14.600, 22 14 C 22 13.400, 18 13, 12 13 C 6 13, 2 13.400, 2 14 M 6 18 C 6 18.583, 9.333 19, 14 19 C 18.667 19, 22 18.583, 22 18 C 22 17.417, 18.667 17, 14 17 C 9.333 17, 6 17.417, 6 18" stroke="none" fill="#000000" fill-rule="evenodd"/>
</svg>