<svg xmlns="http://www.w3.org/2000/svg" width="24" height="24" viewBox="0 0 24 24" version="1.1">
	<path d="M 12 5 C 6 5, 2 5.400, 2 6 C 2 6.600, 6 7, 12 7 C 18 7, 22 6.600, 22 6 C 22 5.400, 18 5, 12 5 M 10 9 C 5.333 9, 2 9.417, 2 10 C 2 10.583, 5.333 11, 10 11 C 14.667 11, 18 10.583, 18 10 C 18 9.417, 14.667 9, 10 9 M 12 13 C 6 13, 2 13.400, 2 14 C 2 14.600, 6 15, 12 15 C 18 15, 22 14.600, 22 14 C 22 13.400, 18 13, 12 13 M 10 17 C 5.333 17, 2 17.417, 2 18 C 2 18.583, 5.333 19, 10 19 C 14.667 19, 18 18.583, 18 18 C 18 17.417, 14.667 17, 10 17" stroke="none" fill="black" fill-rule="evenodd"/>
</svg>