<svg xmlns="http://www.w3.org/2000/svg" width="24" height="24" viewBox="0 0 24 24" version="1.1">
	<path d="M 12 5 C 6 5, 2 5.400, 2 6 C 2 6.600, 6 7, 12 7 C 18 7, 22 6.600, 22 6 C 22 5.400, 18 5, 12 5 M 12 9 C 8 9, 5 9.429, 5 10 C 5 10.571, 8 11, 12 11 C 16 11, 19 10.571, 19 10 C 19 9.429, 16 9, 12 9 M 12 13 C 6 13, 2 13.400, 2 14 C 2 14.600, 6 15, 12 15 C 18 15, 22 14.600, 22 14 C 22 13.400, 18 13, 12 13 M 12 17 C 8 17, 5 17.429, 5 18 C 5 18.571, 8 19, 12 19 C 16 19, 19 18.571, 19 18 C 19 17.429, 16 17, 12 17" stroke="none" fill="black" fill-rule="evenodd"/>
</svg>