<svg viewBox="0 0 24 24" xmlns="http://www.w3.org/2000/svg" fill="none" stroke="#000000" stroke-width="2" stroke-linecap="round" stroke-linejoin="round"><path d="M2.499 4.043 C 1.381 4.232,0.461 5.048,0.114 6.160 L 0.020 6.460 0.020 11.000 L 0.020 15.540 0.114 15.840 C 0.367 16.652,0.938 17.326,1.680 17.691 L 2.020 17.858 2.023 18.479 C 2.025 19.034,2.037 19.137,2.133 19.452 C 2.318 20.056,2.561 20.476,2.978 20.915 C 3.906 21.890,5.283 22.236,6.588 21.821 C 7.606 21.497,8.497 20.606,8.821 19.588 C 8.957 19.158,9.012 18.765,8.992 18.351 L 8.975 18.000 11.998 18.000 L 15.020 18.000 15.024 18.550 C 15.028 19.022,15.044 19.150,15.135 19.452 C 15.316 20.052,15.559 20.475,15.978 20.915 C 16.906 21.890,18.283 22.236,19.588 21.821 C 20.606 21.497,21.497 20.606,21.821 19.588 C 21.965 19.133,22.013 18.758,21.988 18.280 L 21.965 17.860 22.313 17.692 C 23.058 17.331,23.631 16.657,23.886 15.840 L 23.980 15.540 23.980 11.000 L 23.980 6.460 23.886 6.160 C 23.581 5.182,22.832 4.428,21.861 4.121 L 21.540 4.020 12.120 4.014 C 6.939 4.011,2.609 4.024,2.499 4.043 M11.695 6.057 C 11.466 6.129,11.256 6.299,11.128 6.516 C 11.025 6.692,11.019 6.728,11.007 7.350 L 10.993 8.000 10.443 8.000 C 9.648 8.000,9.366 8.111,9.128 8.516 C 9.037 8.672,9.020 8.746,9.020 9.000 C 9.020 9.256,9.036 9.328,9.131 9.489 C 9.256 9.702,9.449 9.864,9.670 9.943 C 9.768 9.978,10.022 9.997,10.407 9.998 L 10.993 10.000 11.007 10.653 C 11.020 11.300,11.021 11.308,11.141 11.503 C 11.543 12.156,12.457 12.156,12.859 11.503 C 12.979 11.308,12.980 11.300,12.993 10.653 L 13.007 10.000 13.593 9.998 C 13.978 9.997,14.232 9.978,14.330 9.943 C 14.551 9.864,14.744 9.702,14.869 9.489 C 14.964 9.328,14.980 9.256,14.980 9.000 C 14.980 8.746,14.963 8.672,14.872 8.516 C 14.634 8.111,14.352 8.000,13.557 8.000 L 13.007 8.000 12.993 7.350 C 12.981 6.728,12.975 6.692,12.872 6.516 C 12.744 6.299,12.534 6.129,12.305 6.057 C 12.167 6.014,12.703 6.005,15.569 6.003 L 18.997 6.000 19.009 8.153 L 19.020 10.306 19.141 10.503 C 19.543 11.156,20.457 11.156,20.859 10.503 L 20.980 10.306 20.991 8.153 C 21.000 6.432,21.013 6.000,21.054 6.000 C 21.240 6.000,21.531 6.137,21.697 6.303 C 22.017 6.623,22.000 6.359,22.000 11.001 C 22.000 14.365,21.990 15.140,21.945 15.290 C 21.835 15.655,21.517 15.935,21.153 15.984 C 20.978 16.008,20.962 16.001,20.696 15.785 C 20.359 15.511,19.809 15.231,19.380 15.114 C 18.931 14.992,18.075 14.991,17.636 15.111 C 17.105 15.256,16.422 15.621,16.158 15.902 L 16.066 16.000 12.013 16.000 L 7.960 16.000 7.690 15.780 C 7.358 15.510,6.806 15.230,6.380 15.115 C 5.960 15.001,5.117 14.990,4.707 15.092 C 4.156 15.230,3.518 15.561,3.172 15.890 C 3.055 16.001,3.028 16.009,2.855 15.986 C 2.619 15.953,2.365 15.807,2.225 15.623 C 1.990 15.315,2.000 15.515,2.000 11.022 C 2.000 6.356,1.983 6.624,2.304 6.303 C 2.619 5.987,2.303 6.006,7.360 6.005 C 11.098 6.005,11.832 6.014,11.695 6.057 M6.949 18.110 C 6.966 18.171,6.978 18.364,6.977 18.540 C 6.975 18.799,6.953 18.907,6.864 19.104 C 6.725 19.413,6.418 19.720,6.100 19.868 C 5.893 19.965,5.810 19.980,5.500 19.980 C 5.190 19.980,5.107 19.965,4.900 19.868 C 4.582 19.720,4.275 19.413,4.136 19.104 C 4.047 18.907,4.025 18.799,4.023 18.540 C 4.022 18.364,4.034 18.171,4.051 18.110 L 4.082 18.000 5.500 18.000 L 6.918 18.000 6.949 18.110 M19.949 18.110 C 19.966 18.171,19.978 18.364,19.977 18.540 C 19.975 18.799,19.953 18.907,19.864 19.104 C 19.725 19.413,19.418 19.720,19.100 19.868 C 18.893 19.965,18.810 19.980,18.500 19.980 C 18.190 19.980,18.107 19.965,17.900 19.868 C 17.582 19.720,17.275 19.413,17.136 19.104 C 17.047 18.907,17.025 18.799,17.023 18.540 C 17.022 18.364,17.034 18.171,17.051 18.110 L 17.082 18.000 18.500 18.000 L 19.918 18.000 19.949 18.110 " stroke="none" fill-rule="evenodd" fill="black"></path></svg>