<svg xmlns="http://www.w3.org/2000/svg" width="24" height="24" viewBox="0 0 24 24" version="1.1">
	<path d="M 13.210 4.067 C 6.725 3.983, 1.100 4.234, 0.710 4.624 C 0.319 5.014, -0 7.776, 0 10.762 C 0 14.648, 0.588 17.017, 2.068 19.096 C 3.206 20.693, 4.777 22, 5.560 22 C 6.343 22, 7.545 21.100, 8.232 20 C 8.944 18.860, 10.564 18, 12 18 C 13.436 18, 15.056 18.860, 15.768 20 C 16.455 21.100, 17.635 22, 18.390 22 C 19.145 22, 20.941 20.455, 22.381 18.567 C 24.467 15.832, 25 14.022, 25 9.676 L 25 4.219 13.210 4.067 M 0.723 7.750 C 0.502 5.962, 0.320 7.425, 0.320 11 C 0.320 14.575, 0.502 16.038, 0.723 14.250 C 0.945 12.462, 0.945 9.538, 0.723 7.750 M 6.500 6 L 2 6 2 10.840 L 2 15.680 12 15.680 L 22 15.680 21.850 10.590 C 21.765 7.698, 21.520 6.687, 21.284 8.250 C 21.055 9.762, 20.447 11, 19.934 11 C 19.420 11, 19 9.875, 19 8.500 C 19 6.389, 18.533 6, 16 6 C 14.350 6, 13 6.412, 13 6.917 C 13 7.421, 13.558 8.019, 14.241 8.247 C 15.133 8.544, 14.993 9.150, 13.741 10.402 C 12.086 12.057, 11.914 12.057, 10.259 10.402 C 9.007 9.150, 8.867 8.544, 9.759 8.247 C 10.442 8.019, 11 7.421, 11 6.917 C 11 6.412, 8.975 6, 6.500 6 M 5.441 18 C 4.584 18, 4.165 18.457, 4.510 19.016 C 4.856 19.575, 5.557 19.774, 6.069 19.457 C 6.581 19.141, 7 18.684, 7 18.441 C 7 18.198, 6.298 18, 5.441 18 M 18.441 18 C 17.584 18, 17.165 18.457, 17.510 19.016 C 17.856 19.575, 18.557 19.774, 19.069 19.457 C 19.581 19.141, 20 18.684, 20 18.441 C 20 18.198, 19.298 18, 18.441 18" stroke="none" fill="black" fill-rule="evenodd"/>
</svg>