<svg xmlns="http://www.w3.org/2000/svg" width="24" height="24" viewBox="0 0 24 24" version="1.1">
	<path d="M 0.710 4.624 C 0.319 5.014, -0 7.776, 0 10.762 C 0 19.278, 5.105 25.007, 8.232 20 C 9.856 17.400, 14.144 17.400, 15.768 20 C 17.564 22.876, 19.398 22.479, 22.381 18.567 C 24.467 15.832, 25 14.022, 25 9.676 L 25 4.219 13.210 4.067 C 6.725 3.983, 1.100 4.234, 0.710 4.624 M 0.320 11 C 0.320 14.575, 0.502 16.038, 0.723 14.250 C 0.945 12.462, 0.945 9.538, 0.723 7.750 C 0.502 5.962, 0.320 7.425, 0.320 11 M 2 10.840 L 2 15.680 12 15.680 L 22 15.680 21.850 10.590 C 21.765 7.698, 21.520 6.687, 21.284 8.250 C 20.763 11.686, 19 11.879, 19 8.500 C 19 6.389, 18.533 6, 16 6 C 13.015 6, 11.874 7.458, 14.241 8.247 C 15.133 8.544, 14.993 9.150, 13.741 10.402 C 12.086 12.057, 11.914 12.057, 10.259 10.402 C 9.007 9.150, 8.867 8.544, 9.759 8.247 C 12.585 7.305, 10.693 6, 6.500 6 L 2 6 2 10.840 M 4.510 19.016 C 4.856 19.575, 5.557 19.774, 6.069 19.457 C 7.456 18.600, 7.198 18, 5.441 18 C 4.584 18, 4.165 18.457, 4.510 19.016 M 17.510 19.016 C 17.856 19.575, 18.557 19.774, 19.069 19.457 C 20.456 18.600, 20.198 18, 18.441 18 C 17.584 18, 17.165 18.457, 17.510 19.016" stroke="none" fill="#000000" fill-rule="evenodd"/>
</svg>