<svg xmlns="http://www.w3.org/2000/svg" width="24" height="24" viewBox="0 0 24 24" version="1.1">
	<path d="M 12 1 C 11.120 1, 9.860 1.540, 9.200 2.200 C 8.540 2.860, 8 4.062, 8 4.871 C 8 5.680, 8.699 7.115, 9.553 8.059 C 10.661 9.283, 11.020 11.376, 10.803 15.360 C 10.500 20.941, 10.499 20.943, 8.020 19.702 C 6.656 19.019, 4.979 17.344, 4.294 15.980 C 3.253 13.908, 3.291 13.447, 4.524 13.177 C 5.336 12.999, 6 12.436, 6 11.927 C 6 11.417, 4.819 11, 3.375 11 C 0.947 11, 0.799 11.244, 1.399 14.250 C 1.756 16.038, 3.173 18.625, 4.547 20 C 6.540 21.994, 8.048 22.500, 12 22.500 C 15.952 22.500, 17.460 21.994, 19.453 20 C 20.827 18.625, 22.244 16.038, 22.601 14.250 C 23.201 11.244, 23.053 11, 20.625 11 C 19.181 11, 18 11.417, 18 11.927 C 18 12.436, 18.664 12.999, 19.476 13.177 C 20.709 13.447, 20.747 13.908, 19.706 15.980 C 19.021 17.344, 17.344 19.019, 15.980 19.702 C 13.501 20.943, 13.500 20.941, 13.197 15.360 C 12.980 11.376, 13.339 9.283, 14.447 8.059 C 15.301 7.115, 16 5.680, 16 4.871 C 16 4.062, 15.460 2.860, 14.800 2.200 C 14.140 1.540, 12.880 1, 12 1 M 12 3 C 11.515 3, 10.816 3.489, 10.446 4.087 C 10.077 4.685, 10.275 5.675, 10.887 6.287 C 11.704 7.104, 12.296 7.104, 13.113 6.287 C 13.725 5.675, 13.923 4.685, 13.554 4.087 C 13.184 3.489, 12.485 3, 12 3" stroke="none" fill="black" fill-rule="evenodd"/>
</svg>