<svg xmlns="http://www.w3.org/2000/svg" width="24" height="24" viewBox="0 0 24 24" version="1.1">
	<path d="M 9.200 2.200 C 7.563 3.837, 7.694 6.004, 9.553 8.059 C 10.661 9.283, 11.020 11.376, 10.803 15.360 C 10.500 20.941, 10.499 20.943, 8.020 19.702 C 4.766 18.074, 2.393 13.643, 4.524 13.177 C 7.018 12.630, 6.158 11, 3.375 11 C 0.947 11, 0.799 11.244, 1.399 14.250 C 2.468 19.602, 6.192 22.500, 12 22.500 C 17.808 22.500, 21.532 19.602, 22.601 14.250 C 23.201 11.244, 23.053 11, 20.625 11 C 17.842 11, 16.982 12.630, 19.476 13.177 C 21.607 13.643, 19.234 18.074, 15.980 19.702 C 13.501 20.943, 13.500 20.941, 13.197 15.360 C 12.980 11.376, 13.339 9.283, 14.447 8.059 C 16.306 6.004, 16.437 3.837, 14.800 2.200 C 13.264 0.664, 10.736 0.664, 9.200 2.200 M 10.446 4.087 C 9.416 5.755, 11.733 7.667, 13.113 6.287 C 14.267 5.133, 13.545 3, 12 3 C 11.515 3, 10.816 3.489, 10.446 4.087" stroke="none" fill="black" fill-rule="evenodd"/>
</svg>