<svg xmlns="http://www.w3.org/2000/svg" width="24" height="24" viewBox="0 0 24 24" version="1.1">
	<path d="M 7.500 1.894 C 3.457 3.652, 1.500 6.976, 1.500 12.082 C 1.500 16.074, 2.001 17.456, 4.273 19.727 C 6.557 22.011, 7.919 22.500, 12 22.500 C 19.011 22.500, 22.500 19.011, 22.500 12 C 22.500 7.999, 22 6.546, 19.903 4.448 C 17.099 1.644, 10.974 0.383, 7.500 1.894 M 7.142 4.750 C 5.376 6.236, 5.258 6.758, 6.364 8.212 C 7.543 9.764, 7.821 9.599, 9.317 6.462 C 11.129 2.661, 10.352 2.049, 7.142 4.750 M 13.153 4.247 C 11.182 6.218, 11.865 7, 15.559 7 C 19.209 7, 19.423 5.832, 16.098 4.052 C 14.891 3.407, 13.930 3.470, 13.153 4.247 M 3 12 C 3 14.518, 3.394 15, 5.453 15 C 7.891 15, 7.896 14.981, 6.203 12.006 C 4.037 8.199, 3 8.197, 3 12 M 9.389 10.430 C 8.393 13.025, 9.788 15.169, 12.246 14.820 C 15.450 14.365, 15.450 9.635, 12.246 9.180 C 10.893 8.988, 9.750 9.488, 9.389 10.430 M 17.797 11.994 C 19.963 15.801, 21 15.803, 21 12 C 21 9.482, 20.606 9, 18.547 9 C 16.109 9, 16.104 9.019, 17.797 11.994 M 14.683 17.538 C 12.871 21.339, 13.648 21.951, 16.858 19.250 C 18.624 17.764, 18.742 17.242, 17.636 15.788 C 16.457 14.236, 16.179 14.401, 14.683 17.538 M 6.879 19.048 C 8.708 20.571, 9.576 20.767, 10.629 19.893 C 12.959 17.959, 12.160 16.999, 8.250 17.033 L 4.500 17.067 6.879 19.048" stroke="none" fill="black" fill-rule="evenodd"/>
</svg>