<svg xmlns="http://www.w3.org/2000/svg" width="24" height="24" viewBox="0 0 24 24" version="1.1">
	<path d="M 13.403 1.438 C 11.256 1.210, 8.600 1.416, 7.500 1.894 C 6.400 2.373, 4.600 3.764, 3.500 4.987 C 2.078 6.568, 1.500 8.618, 1.500 12.082 C 1.500 16.074, 2.001 17.456, 4.273 19.727 C 6.557 22.011, 7.919 22.500, 12 22.500 C 16.081 22.500, 17.443 22.011, 19.727 19.727 C 22.011 17.443, 22.500 16.081, 22.500 12 C 22.500 7.999, 22 6.546, 19.903 4.448 C 18.256 2.802, 15.876 1.699, 13.403 1.438 M 10.095 3 C 9.614 3, 8.286 3.788, 7.142 4.750 C 5.376 6.236, 5.258 6.758, 6.364 8.212 C 7.543 9.764, 7.821 9.599, 9.317 6.462 C 10.225 4.558, 10.575 3, 10.095 3 M 16.098 4.052 C 14.891 3.407, 13.930 3.470, 13.153 4.247 C 12.519 4.881, 12 5.760, 12 6.200 C 12 6.640, 13.602 7, 15.559 7 C 17.664 7, 18.867 6.594, 18.503 6.005 C 18.165 5.458, 17.083 4.579, 16.098 4.052 M 3.750 9.006 C 3.337 9.003, 3 10.350, 3 12 C 3 14.518, 3.394 15, 5.453 15 C 7.891 15, 7.896 14.981, 6.203 12.006 C 5.267 10.360, 4.162 9.010, 3.750 9.006 M 12.246 9.180 C 10.893 8.988, 9.750 9.488, 9.389 10.430 C 9.057 11.293, 9.057 12.707, 9.389 13.570 C 9.750 14.512, 10.893 15.012, 12.246 14.820 C 13.898 14.585, 14.500 13.833, 14.500 12 C 14.500 10.167, 13.898 9.415, 12.246 9.180 M 18.547 9 C 16.109 9, 16.104 9.019, 17.797 11.994 C 18.733 13.640, 19.837 14.990, 20.250 14.994 C 20.663 14.997, 21 13.650, 21 12 C 21 9.482, 20.606 9, 18.547 9 M 17.636 15.788 C 16.457 14.236, 16.179 14.401, 14.683 17.538 C 13.775 19.442, 13.425 21, 13.905 21 C 14.386 21, 15.714 20.212, 16.858 19.250 C 18.624 17.764, 18.742 17.242, 17.636 15.788 M 8.250 17.033 L 4.500 17.067 6.879 19.048 C 8.708 20.571, 9.576 20.767, 10.629 19.893 C 11.383 19.267, 12 18.360, 12 17.878 C 12 17.395, 10.313 17.015, 8.250 17.033" stroke="none" fill="black" fill-rule="evenodd"/>
</svg>