<svg xmlns="http://www.w3.org/2000/svg" width="24" height="24" viewBox="0 0 24 24" version="1.1">
	<path d="M 2.440 3.296 C 2.151 4.050, 2.046 8.455, 2.207 13.084 L 2.500 21.500 12 21.500 L 21.500 21.500 21.500 12 L 21.500 2.500 12.233 2.212 C 5.103 1.991, 2.845 2.241, 2.440 3.296 M 4 12.219 L 4 20.437 9.966 14.533 C 15.834 8.727, 15.966 8.660, 17.966 10.470 C 19.980 12.292, 20 12.270, 20 8.155 L 20 4 12 4 L 4 4 4 12.219 M 6.364 7.493 C 6.018 8.396, 6.214 9.614, 6.800 10.200 C 8.324 11.724, 11.210 10.331, 10.812 8.265 C 10.369 5.963, 7.165 5.407, 6.364 7.493 M 11.500 16 L 7.594 20 13.797 20 C 19.638 20, 20 19.863, 20 17.655 C 20 15.651, 17.337 12, 15.874 12 C 15.617 12, 13.648 13.800, 11.500 16" stroke="none" fill="#000000" fill-rule="evenodd"/>
</svg>