<svg xmlns="http://www.w3.org/2000/svg" width="24" height="24" viewBox="0 0 24 24" version="1.1">
	<path d="M 5.447 2.277 C 5.157 3.032, 5.051 7.891, 5.210 13.075 L 5.500 22.500 12 22.500 L 18.500 22.500 18.500 12 L 18.500 1.500 12.237 1.202 C 7.637 0.983, 5.834 1.268, 5.447 2.277 M 7 5 C 7 6.733, 7.667 7, 12 7 C 16.333 7, 17 6.733, 17 5 C 17 3.267, 16.333 3, 12 3 C 7.667 3, 7 3.267, 7 5 M 7 15 L 7 21 12 21 L 17 21 17 15 L 17 9 12 9 L 7 9 7 15 M 10.195 14.555 C 9.115 15.778, 9.158 16.301, 10.445 17.588 C 11.852 18.994, 12.150 18.993, 13.571 17.571 C 14.968 16.175, 14.976 15.833, 13.643 14.500 C 11.838 12.696, 11.836 12.696, 10.195 14.555" stroke="none" fill="black" fill-rule="evenodd"/>
</svg>