<svg viewBox="0 0 24 24" xmlns="http://www.w3.org/2000/svg" fill="none" stroke="#000000" stroke-width="2" stroke-linecap="round" stroke-linejoin="round"><path d="M7.499 1.043 C 6.379 1.234,5.461 2.048,5.114 3.160 L 5.020 3.460 5.020 12.000 L 5.020 20.540 5.114 20.840 C 5.422 21.827,6.173 22.578,7.160 22.886 L 7.460 22.980 12.000 22.980 L 16.540 22.980 16.840 22.886 C 17.827 22.578,18.578 21.827,18.886 20.840 L 18.980 20.540 18.980 12.000 L 18.980 3.460 18.886 3.160 C 18.581 2.182,17.832 1.428,16.861 1.121 L 16.540 1.020 12.120 1.014 C 9.689 1.011,7.609 1.024,7.499 1.043 M16.310 3.061 C 16.452 3.103,16.571 3.178,16.697 3.303 C 16.993 3.599,17.000 3.650,17.000 5.447 L 17.000 7.000 12.000 7.000 L 7.000 7.000 7.000 5.447 C 7.000 3.649,7.007 3.599,7.304 3.303 C 7.618 2.989,7.346 3.006,11.983 3.003 C 15.563 3.000,16.132 3.008,16.310 3.061 M17.000 14.554 C 17.000 19.144,16.990 20.139,16.945 20.290 C 16.872 20.533,16.707 20.740,16.484 20.872 L 16.300 20.980 12.000 20.980 L 7.700 20.980 7.516 20.872 C 7.415 20.813,7.284 20.700,7.225 20.623 C 6.987 20.312,7.000 20.650,7.000 14.575 L 7.000 9.000 12.000 9.000 L 17.000 9.000 17.000 14.554 M11.695 13.057 C 11.466 13.129,11.256 13.299,11.128 13.516 C 11.025 13.692,11.019 13.728,11.007 14.350 L 10.993 15.000 10.443 15.000 C 9.648 15.000,9.366 15.111,9.128 15.516 C 9.037 15.672,9.020 15.746,9.020 16.000 C 9.020 16.256,9.036 16.328,9.131 16.489 C 9.256 16.702,9.449 16.864,9.670 16.943 C 9.768 16.978,10.022 16.997,10.407 16.998 L 10.993 17.000 11.007 17.653 C 11.020 18.300,11.021 18.308,11.141 18.503 C 11.209 18.613,11.346 18.756,11.452 18.828 C 11.923 19.144,12.554 18.999,12.859 18.503 C 12.979 18.308,12.980 18.300,12.993 17.653 L 13.007 17.000 13.593 16.998 C 13.978 16.997,14.232 16.978,14.330 16.943 C 14.551 16.864,14.744 16.702,14.869 16.489 C 14.964 16.328,14.980 16.256,14.980 16.000 C 14.980 15.746,14.963 15.672,14.872 15.516 C 14.634 15.111,14.352 15.000,13.557 15.000 L 13.007 15.000 12.993 14.350 C 12.981 13.728,12.975 13.692,12.872 13.516 C 12.628 13.101,12.150 12.915,11.695 13.057 " stroke="none" fill="black" fill-rule="evenodd"></path></svg>