<svg xmlns="http://www.w3.org/2000/svg" width="24" height="24" viewBox="0 0 24 24" version="1.1">
	<path d="M 11.469 3 C 6.086 3, 3.790 3.383, 3.422 4.344 C 3.138 5.083, 3.040 9.020, 3.203 13.094 L 3.500 20.500 12.250 20.789 C 20.483 21.061, 21 20.958, 21 19.039 C 21 17.918, 21.450 17, 22 17 C 22.550 17, 23 15.650, 23 14 C 23 12.350, 22.550 11, 22 11 C 21.450 11, 21 10.100, 21 9 C 21 7.900, 20.550 7, 20 7 C 19.450 7, 19 6.100, 19 5 C 19 3.177, 18.333 3, 11.469 3 M 11 5 C 7.667 5, 5 5.444, 5 6 C 5 6.556, 7.667 7, 11 7 C 14.333 7, 17 6.556, 17 6 C 17 5.444, 14.333 5, 11 5 M 12 9 L 5 9 5 14 L 5 19 12 19 C 15.850 19, 19 18.602, 19 18.117 C 19 17.631, 18.100 16.998, 17 16.710 C 15.769 16.388, 15 15.346, 15 14 C 15 12.654, 15.769 11.612, 17 11.290 C 18.100 11.002, 19 10.369, 19 9.883 C 19 9.398, 15.850 9, 12 9 M 19 13 C 17.900 13, 17 13.450, 17 14 C 17 14.550, 17.900 15, 19 15 C 20.100 15, 21 14.550, 21 14 C 21 13.450, 20.100 13, 19 13" stroke="none" fill="black" fill-rule="evenodd"/>
</svg>