<svg viewBox="0 0 24 24" xmlns="http://www.w3.org/2000/svg" fill="none" stroke="#000000" stroke-width="2" stroke-linecap="round" stroke-linejoin="round"><path d="M8.695 1.057 C 8.466 1.129,8.256 1.299,8.128 1.516 C 8.025 1.692,8.019 1.728,8.007 2.347 L 7.993 2.993 6.727 3.009 C 5.518 3.025,5.445 3.030,5.139 3.124 C 4.176 3.420,3.420 4.180,3.114 5.160 L 3.020 5.460 3.020 13.000 L 3.020 20.540 3.114 20.840 C 3.422 21.827,4.173 22.578,5.160 22.886 L 5.460 22.980 12.000 22.980 L 18.540 22.980 18.840 22.886 C 19.827 22.578,20.578 21.827,20.886 20.840 L 20.980 20.540 20.980 13.000 L 20.980 5.460 20.886 5.160 C 20.580 4.180,19.824 3.420,18.861 3.124 C 18.555 3.030,18.482 3.025,17.273 3.009 L 16.007 2.993 15.993 2.347 C 15.981 1.726,15.976 1.693,15.871 1.514 C 15.479 0.848,14.521 0.848,14.129 1.514 L 14.020 1.700 14.020 4.003 L 14.020 6.306 14.141 6.503 C 14.543 7.156,15.457 7.156,15.859 6.503 C 15.979 6.308,15.980 6.300,15.993 5.653 L 16.007 5.000 17.056 5.000 C 18.297 5.000,18.416 5.022,18.697 5.303 C 19.024 5.631,19.000 5.009,19.000 13.001 C 19.000 18.907,18.991 20.138,18.945 20.290 C 18.872 20.533,18.707 20.740,18.484 20.872 L 18.300 20.980 12.000 20.980 L 5.700 20.980 5.516 20.872 C 5.415 20.813,5.284 20.700,5.225 20.623 C 4.986 20.309,5.000 20.795,5.000 13.022 C 5.000 5.006,4.975 5.631,5.303 5.303 C 5.584 5.022,5.703 5.000,6.944 5.000 L 7.993 5.000 8.007 5.653 C 8.020 6.300,8.021 6.308,8.141 6.503 C 8.543 7.156,9.457 7.156,9.859 6.503 L 9.980 6.306 9.980 4.003 L 9.980 1.700 9.872 1.516 C 9.628 1.101,9.150 0.915,8.695 1.057 M7.695 9.057 C 7.466 9.129,7.256 9.299,7.128 9.516 C 7.037 9.672,7.020 9.746,7.020 10.000 C 7.020 10.256,7.036 10.328,7.131 10.489 C 7.256 10.702,7.449 10.864,7.670 10.943 C 7.892 11.022,16.108 11.022,16.330 10.943 C 16.551 10.864,16.744 10.702,16.869 10.489 C 16.964 10.328,16.980 10.256,16.980 10.000 C 16.980 9.746,16.963 9.672,16.872 9.516 C 16.740 9.293,16.533 9.128,16.290 9.055 C 16.029 8.976,7.946 8.979,7.695 9.057 M7.695 13.057 C 7.466 13.129,7.256 13.299,7.128 13.516 C 7.037 13.672,7.020 13.746,7.020 14.000 C 7.020 14.256,7.036 14.328,7.131 14.489 C 7.256 14.702,7.449 14.864,7.670 14.943 C 7.892 15.022,16.108 15.022,16.330 14.943 C 16.551 14.864,16.744 14.702,16.869 14.489 C 16.964 14.328,16.980 14.256,16.980 14.000 C 16.980 13.746,16.963 13.672,16.872 13.516 C 16.740 13.293,16.533 13.128,16.290 13.055 C 16.029 12.976,7.946 12.979,7.695 13.057 M7.695 17.057 C 7.466 17.129,7.256 17.299,7.128 17.516 C 7.037 17.672,7.020 17.746,7.020 18.000 C 7.020 18.256,7.036 18.328,7.131 18.489 C 7.256 18.702,7.449 18.864,7.670 18.943 C 7.889 19.021,12.111 19.021,12.330 18.943 C 12.551 18.864,12.744 18.702,12.869 18.489 C 12.964 18.328,12.980 18.256,12.980 18.000 C 12.980 17.746,12.963 17.672,12.872 17.516 C 12.740 17.293,12.533 17.128,12.290 17.055 C 12.033 16.978,7.943 16.979,7.695 17.057 " stroke="none" fill-rule="evenodd" fill="black"></path></svg>