<svg xmlns="http://www.w3.org/2000/svg" width="24" height="24" viewBox="0 0 24 24" version="1.1">
	<path d="M 7.500 1.894 C 3.457 3.652, 1.500 6.976, 1.500 12.082 C 1.500 16.074, 2.001 17.456, 4.273 19.727 C 6.557 22.011, 7.919 22.500, 12 22.500 C 19.011 22.500, 22.500 19.011, 22.500 12 C 22.500 7.999, 22 6.546, 19.903 4.448 C 17.099 1.644, 10.974 0.383, 7.500 1.894 M 5.923 5.923 C 3.928 7.918, 3 9.848, 3 12 C 3 16.302, 7.698 21, 12 21 C 14.152 21, 16.082 20.072, 18.077 18.077 C 22.007 14.147, 22.007 9.853, 18.077 5.923 C 14.147 1.993, 9.853 1.993, 5.923 5.923 M 11.806 8.144 C 10.020 8.797, 8.723 10.309, 7.957 12.632 C 7.321 14.558, 7.040 16.374, 7.333 16.667 C 7.626 16.960, 9.435 16.681, 11.353 16.049 C 13.859 15.222, 15.144 14.026, 15.920 11.800 C 17.737 6.588, 17.247 6.153, 11.806 8.144 M 10.345 11.543 C 10.019 12.392, 10.014 13.347, 10.333 13.667 C 11.342 14.676, 14 13.128, 14 11.531 C 14 9.535, 11.112 9.545, 10.345 11.543" stroke="none" fill="black" fill-rule="evenodd"/>
</svg>