<svg xmlns="http://www.w3.org/2000/svg" width="24" height="24" viewBox="0 0 24 24" version="1.1">
	<path d="M 13.403 1.438 C 11.256 1.210, 8.600 1.416, 7.500 1.894 C 6.400 2.373, 4.600 3.764, 3.500 4.987 C 2.078 6.568, 1.500 8.618, 1.500 12.082 C 1.500 16.074, 2.001 17.456, 4.273 19.727 C 6.557 22.011, 7.919 22.500, 12 22.500 C 16.081 22.500, 17.443 22.011, 19.727 19.727 C 22.011 17.443, 22.500 16.081, 22.500 12 C 22.500 7.999, 22 6.546, 19.903 4.448 C 18.256 2.802, 15.876 1.699, 13.403 1.438 M 12 3 C 9.848 3, 7.918 3.928, 5.923 5.923 C 3.928 7.918, 3 9.848, 3 12 C 3 14.152, 3.928 16.082, 5.923 18.077 C 7.918 20.072, 9.848 21, 12 21 C 14.152 21, 16.082 20.072, 18.077 18.077 C 20.072 16.082, 21 14.152, 21 12 C 21 9.848, 20.072 7.918, 18.077 5.923 C 16.082 3.928, 14.152 3, 12 3 M 15.750 7.079 C 15.063 7.122, 13.288 7.601, 11.806 8.144 C 10.020 8.797, 8.723 10.309, 7.957 12.632 C 7.321 14.558, 7.040 16.374, 7.333 16.667 C 7.626 16.960, 9.435 16.681, 11.353 16.049 C 13.859 15.222, 15.144 14.026, 15.920 11.800 C 16.514 10.096, 17 8.319, 17 7.851 C 17 7.383, 16.438 7.036, 15.750 7.079 M 12.469 10 C 11.626 10, 10.671 10.694, 10.345 11.543 C 10.019 12.392, 10.014 13.347, 10.333 13.667 C 10.653 13.986, 11.608 13.981, 12.457 13.655 C 13.306 13.329, 14 12.374, 14 11.531 C 14 10.689, 13.311 10, 12.469 10" stroke="none" fill="black" fill-rule="evenodd"/>
</svg>