<svg xmlns="http://www.w3.org/2000/svg" width="24" height="24" viewBox="0 0 24 24" version="1.1">
	<path d="M 12.233 2.212 C 5.103 1.991, 2.845 2.241, 2.440 3.296 C 2.151 4.050, 2.046 8.455, 2.207 13.084 L 2.500 21.500 12 21.500 L 21.500 21.500 21.500 12 L 21.500 2.500 12.233 2.212 M 12 4 L 4 4 4 12.219 L 4 20.437 9.966 14.533 C 15.834 8.727, 15.966 8.660, 17.966 10.470 C 19.980 12.292, 20 12.270, 20 8.155 L 20 4 12 4 M 8.735 6.188 C 7.778 6.003, 6.711 6.591, 6.364 7.493 C 6.018 8.396, 6.214 9.614, 6.800 10.200 C 7.386 10.786, 8.604 10.982, 9.507 10.636 C 10.409 10.289, 10.997 9.222, 10.812 8.265 C 10.628 7.307, 9.693 6.372, 8.735 6.188 M 15.874 12 C 15.617 12, 13.648 13.800, 11.500 16 L 7.594 20 13.797 20 C 19.638 20, 20 19.863, 20 17.655 C 20 16.365, 19.177 14.565, 18.171 13.655 C 17.165 12.745, 16.132 12, 15.874 12" stroke="none" fill="black" fill-rule="evenodd"/>
</svg>