<svg xmlns="http://www.w3.org/2000/svg" width="24" height="24" viewBox="0 0 24 24" version="1.1">
	<path d="M 8 1.930 C 8 2.442, 6.988 3.005, 5.750 3.180 C 3.597 3.486, 3.500 3.909, 3.500 13 L 3.500 22.500 12 22.500 L 20.500 22.500 20.500 13 C 20.500 3.909, 20.403 3.486, 18.250 3.180 C 17.012 3.005, 16 2.442, 16 1.930 C 16 1.419, 15.550 1, 15 1 C 14.450 1, 14 2.350, 14 4 C 14 5.650, 14.450 7, 15 7 C 15.550 7, 16 6.550, 16 6 C 16 5.450, 16.675 5, 17.500 5 C 18.708 5, 19 6.556, 19 13 L 19 21 12 21 L 5 21 5 13 C 5 6.556, 5.292 5, 6.500 5 C 7.325 5, 8 5.450, 8 6 C 8 6.550, 8.450 7, 9 7 C 9.550 7, 10 5.650, 10 4 C 10 2.350, 9.550 1, 9 1 C 8.450 1, 8 1.419, 8 1.930 M 7 10 C 7 10.550, 9.250 11, 12 11 C 14.750 11, 17 10.550, 17 10 C 17 9.450, 14.750 9, 12 9 C 9.250 9, 7 9.450, 7 10 M 7 14 C 7 14.550, 9.250 15, 12 15 C 14.750 15, 17 14.550, 17 14 C 17 13.450, 14.750 13, 12 13 C 9.250 13, 7 13.450, 7 14 M 7 18 C 7 18.550, 8.350 19, 10 19 C 11.650 19, 13 18.550, 13 18 C 13 17.450, 11.650 17, 10 17 C 8.350 17, 7 17.450, 7 18" stroke="none" fill="#000000" fill-rule="evenodd"/>
</svg>