<svg xmlns="http://www.w3.org/2000/svg" width="24" height="24" viewBox="0 0 24 24" version="1.1">
	<path d="M 12.750 1.187 C 11.787 1.003, 11 1.299, 11 1.843 C 11 2.388, 11.563 3.062, 12.250 3.341 C 13.196 3.724, 13.142 4.096, 12.029 4.869 C 11.220 5.431, 10.863 6.196, 11.236 6.569 C 11.609 6.942, 12.640 6.968, 13.527 6.628 C 14.507 6.252, 15.015 5.129, 14.820 3.765 C 14.644 2.530, 13.713 1.370, 12.750 1.187 M 14.162 10.426 C 11.067 10.287, 8.364 10.757, 7.079 11.657 C 5.658 12.652, 5 14.204, 5 16.557 C 5 18.709, 5.779 20.779, 7.077 22.077 C 8.418 23.418, 9.748 23.902, 10.827 23.442 C 11.747 23.050, 13.588 22.791, 14.918 22.867 C 16.248 22.943, 18.161 22.259, 19.168 21.348 C 20.202 20.412, 20.993 18.342, 20.985 16.595 C 20.976 14.893, 20.564 12.859, 20.068 12.076 C 19.521 11.212, 17.195 10.562, 14.162 10.426 M 14.290 12.938 C 11.974 12.629, 9.386 12.764, 8.540 13.238 C 7.693 13.712, 7.007 15.090, 7.015 16.300 C 7.024 17.510, 7.361 18.986, 7.765 19.581 C 8.169 20.176, 10.411 20.605, 12.746 20.535 C 15.081 20.465, 17.482 19.918, 18.081 19.319 C 18.679 18.721, 19.019 17.166, 18.835 15.865 C 18.559 13.917, 17.757 13.401, 14.290 12.938" stroke="none" fill="black" fill-rule="evenodd"/>
</svg>