<svg xmlns="http://www.w3.org/2000/svg" width="24" height="24" viewBox="0 0 24 24" version="1.1">
	<path d="M 11 1.843 C 11 2.388, 11.563 3.062, 12.250 3.341 C 13.196 3.724, 13.142 4.096, 12.029 4.869 C 10.202 6.139, 11.335 7.469, 13.527 6.628 C 15.653 5.812, 15.055 1.626, 12.750 1.187 C 11.787 1.003, 11 1.299, 11 1.843 M 7.079 11.657 C 2.741 14.696, 6.156 25.432, 10.827 23.442 C 11.747 23.050, 13.588 22.791, 14.918 22.867 C 16.248 22.943, 18.161 22.259, 19.168 21.348 C 21.106 19.594, 21.601 14.497, 20.068 12.076 C 18.808 10.086, 9.740 9.794, 7.079 11.657 M 8.540 13.238 C 6.934 14.136, 6.497 17.715, 7.765 19.581 C 8.703 20.960, 16.641 20.759, 18.081 19.319 C 18.679 18.721, 19.019 17.166, 18.835 15.865 C 18.559 13.917, 17.757 13.401, 14.290 12.938 C 11.974 12.629, 9.386 12.764, 8.540 13.238" stroke="none" fill="#000000" fill-rule="evenodd"/>
</svg>