<svg viewBox="0 0 24 24" xmlns="http://www.w3.org/2000/svg" fill="none" stroke="#000000" stroke-width="2" stroke-linecap="round" stroke-linejoin="round"><path d="M11.670 1.054 C 11.025 1.296,10.802 2.076,11.221 2.625 C 11.367 2.816,11.612 2.942,11.980 3.015 C 12.156 3.050,12.412 3.134,12.549 3.201 C 12.824 3.337,13.190 3.650,13.321 3.862 L 13.407 4.000 13.321 4.138 C 13.190 4.351,12.805 4.681,12.544 4.804 C 12.414 4.866,12.140 4.954,11.936 5.001 C 11.503 5.100,11.298 5.227,11.140 5.496 C 10.865 5.966,11.027 6.585,11.498 6.861 C 11.752 7.010,12.045 7.028,12.515 6.924 C 13.701 6.662,14.684 5.898,15.221 4.820 C 15.467 4.326,15.526 4.090,15.475 3.810 C 15.419 3.506,15.033 2.777,14.750 2.440 C 14.080 1.643,13.039 1.085,12.100 1.018 C 11.913 1.005,11.770 1.017,11.670 1.054 M9.340 10.395 C 8.277 10.631,7.342 11.200,6.559 12.086 C 4.816 14.060,4.322 17.040,5.303 19.667 C 6.033 21.621,7.530 23.008,9.339 23.406 C 10.183 23.591,11.070 23.469,11.893 23.054 C 12.155 22.922,12.739 22.524,12.973 22.318 C 13.072 22.231,13.177 22.160,13.206 22.161 C 13.236 22.161,13.548 22.270,13.900 22.402 C 15.010 22.820,15.635 22.942,16.340 22.879 C 16.975 22.823,17.417 22.693,18.020 22.386 C 19.841 21.459,21.105 19.439,21.363 17.043 C 21.426 16.452,21.390 15.448,21.282 14.823 C 20.877 12.488,19.390 10.898,17.158 10.416 C 16.905 10.361,16.644 10.342,16.120 10.341 C 15.268 10.340,15.116 10.373,14.093 10.785 C 13.693 10.946,13.315 11.082,13.253 11.086 C 13.079 11.097,12.916 11.050,12.200 10.780 C 11.215 10.409,10.972 10.353,10.260 10.337 C 9.793 10.326,9.589 10.339,9.340 10.395 M11.160 12.536 C 12.350 12.960,12.599 13.038,12.894 13.074 C 13.443 13.142,13.903 13.037,14.932 12.605 C 15.545 12.349,15.746 12.308,16.280 12.332 C 16.533 12.344,16.848 12.382,16.980 12.417 C 17.314 12.505,17.896 12.801,18.173 13.024 C 19.610 14.178,19.817 17.201,18.595 19.189 C 18.335 19.612,17.691 20.278,17.335 20.492 C 16.632 20.915,15.928 20.996,15.180 20.739 C 14.436 20.484,13.700 20.184,13.541 20.072 L 13.354 19.940 12.567 19.929 C 11.656 19.916,11.541 19.942,11.289 20.214 C 11.071 20.452,10.983 20.698,11.011 21.001 L 11.033 21.242 10.872 21.324 C 10.092 21.722,8.946 21.377,8.122 20.496 C 7.682 20.026,7.343 19.453,7.122 18.807 C 6.575 17.210,6.759 15.390,7.605 14.010 C 7.750 13.774,7.957 13.523,8.240 13.240 C 8.587 12.893,8.724 12.787,9.023 12.631 C 9.521 12.372,9.734 12.318,10.220 12.333 C 10.581 12.343,10.673 12.363,11.160 12.536 " stroke="none" fill-rule="evenodd" fill="black"></path></svg>