<svg viewBox="0 0 24 24" xmlns="http://www.w3.org/2000/svg" fill="none" stroke="#000000" stroke-width="2" stroke-linecap="round" stroke-linejoin="round"><path d="M0.695 2.057 C 0.466 2.129,0.256 2.299,0.128 2.516 L 0.020 2.700 0.009 5.412 C 0.002 7.172,0.012 8.177,0.039 8.276 C 0.099 8.498,0.290 8.739,0.508 8.867 C 0.694 8.976,0.721 8.980,1.350 8.993 L 1.999 9.007 2.010 15.153 L 2.020 21.300 2.131 21.489 C 2.256 21.702,2.449 21.864,2.670 21.943 C 2.893 22.023,21.107 22.023,21.330 21.943 C 21.551 21.864,21.744 21.702,21.869 21.489 L 21.980 21.300 21.990 15.153 L 22.001 9.007 22.650 8.993 C 23.279 8.980,23.306 8.976,23.492 8.867 C 23.710 8.739,23.901 8.498,23.961 8.276 C 23.988 8.177,23.998 7.172,23.991 5.412 L 23.980 2.700 23.872 2.516 C 23.740 2.293,23.533 2.128,23.290 2.055 C 23.027 1.976,0.948 1.978,0.695 2.057 M9.080 5.500 L 7.580 7.000 4.790 7.000 L 2.000 7.000 2.000 5.500 L 2.000 4.000 6.290 4.000 L 10.580 4.000 9.080 5.500 M22.000 5.500 L 22.000 7.000 19.210 7.000 L 16.420 7.000 14.920 5.500 L 13.420 4.000 17.710 4.000 L 22.000 4.000 22.000 5.500 M12.800 6.220 L 13.579 7.000 12.000 7.000 L 10.421 7.000 11.200 6.220 C 11.629 5.791,11.989 5.440,12.000 5.440 C 12.011 5.440,12.371 5.791,12.800 6.220 M9.290 10.710 L 11.000 12.420 11.000 16.210 L 11.000 20.000 7.500 20.000 L 4.000 20.000 4.000 14.500 L 4.000 9.000 5.790 9.000 L 7.580 9.000 9.290 10.710 M12.790 9.790 L 12.000 10.580 11.210 9.790 L 10.420 9.000 12.000 9.000 L 13.580 9.000 12.790 9.790 M20.000 14.500 L 20.000 20.000 16.500 20.000 L 13.000 20.000 13.000 16.210 L 13.000 12.420 14.710 10.710 L 16.420 9.000 18.210 9.000 L 20.000 9.000 20.000 14.500 " stroke="none" fill-rule="evenodd" fill="black"></path></svg>