<svg xmlns="http://www.w3.org/2000/svg" width="24" height="24" viewBox="0 0 24 24" version="1.1">
	<path d="M 12.502 1.807 L -0 2.114 -0 5.557 C -0 7.451, 0.450 9, 1 9 C 1.564 9, 2 11.833, 2 15.500 L 2 22 12 22 L 22 22 22 15.607 C 22 10.847, 22.383 9.067, 23.500 8.638 C 24.411 8.289, 25.001 6.774, 25.002 4.781 L 25.004 1.500 12.502 1.807 M 0.687 3.238 C 0.437 2.282, 0.241 3.300, 0.252 5.500 C 0.263 7.700, 0.468 8.482, 0.707 7.238 C 0.946 5.994, 0.937 4.194, 0.687 3.238 M 12 4 C 3.778 4, 2 4.267, 2 5.500 C 2 6.733, 3.778 7, 12 7 C 20.222 7, 22 6.733, 22 5.500 C 22 4.267, 20.222 4, 12 4 M 12 9 L 4 9 4 14.500 L 4 20 12 20 L 20 20 20 14.500 L 20 9 12 9 M 12 11 C 10.350 11, 9 11.450, 9 12 C 9 12.550, 10.350 13, 12 13 C 13.650 13, 15 12.550, 15 12 C 15 11.450, 13.650 11, 12 11" stroke="none" fill="black" fill-rule="evenodd"/>
</svg>