<svg xmlns="http://www.w3.org/2000/svg" width="24" height="24" viewBox="0 0 24 24" version="1.1">
	<path d="M 6.500 9 C 4.919 10.650, 3.104 12, 2.467 12 C 1.751 12, 1.240 14.101, 1.129 17.500 L 0.949 23 11.975 23 C 18.658 23, 23 22.606, 23 22 C 23 21.450, 22.100 21, 21 21 C 19.381 21, 19 20.333, 19 17.500 C 19 14.667, 19.381 14, 21 14 C 22.100 14, 23 13.550, 23 13 C 23 12.450, 22.296 12, 21.435 12 C 20.575 12, 18.735 10.650, 17.347 9 C 14.006 5.030, 10.304 5.030, 6.500 9 M 11 8.714 C 11.825 9.020, 13.400 9.733, 14.500 10.299 C 16.288 11.218, 16.354 11.151, 15.128 9.664 C 14.373 8.749, 12.798 8.036, 11.628 8.079 C 10.167 8.133, 9.970 8.332, 11 8.714 M 7.667 11.667 C 7.300 12.033, 7 14.283, 7 16.667 L 7 21 12 21 C 16.690 21, 17 20.842, 17 18.455 C 17 14.042, 10.221 9.112, 7.667 11.667 M 3.607 15.582 C 2.671 18.020, 2.888 21, 4 21 C 4.550 21, 5 19.425, 5 17.500 C 5 13.705, 4.560 13.099, 3.607 15.582" stroke="none" fill="black" fill-rule="evenodd"/>
</svg>