<svg xmlns="http://www.w3.org/2000/svg" width="24" height="24" viewBox="0 0 24 24" version="1.1">
	<path d="M -0 5.557 C -0 7.451, 0.450 9, 1 9 C 1.564 9, 2 11.833, 2 15.500 L 2 22 12 22 L 22 22 22 15.607 C 22 10.847, 22.383 9.067, 23.500 8.638 C 24.411 8.289, 25.001 6.774, 25.002 4.781 L 25.004 1.500 12.502 1.807 L -0 2.114 -0 5.557 M 0.252 5.500 C 0.263 7.700, 0.468 8.482, 0.707 7.238 C 0.946 5.994, 0.937 4.194, 0.687 3.238 C 0.437 2.282, 0.241 3.300, 0.252 5.500 M 2 5.500 C 2 6.486, 2.986 7, 4.878 7 C 6.460 7, 8.315 6.325, 9 5.500 C 10.072 4.208, 9.673 4, 6.122 4 C 3.125 4, 2 4.409, 2 5.500 M 15 5.500 C 15.685 6.325, 17.540 7, 19.122 7 C 21.014 7, 22 6.486, 22 5.500 C 22 4.409, 20.875 4, 17.878 4 C 14.327 4, 13.928 4.208, 15 5.500 M 4 14.500 L 4 20 7.500 20 C 10.893 20, 11 19.883, 11 16.155 C 11 12.085, 8.703 9, 5.671 9 C 4.312 9, 4 10.027, 4 14.500 M 14.655 10.829 C 13.745 11.835, 13 14.310, 13 16.329 C 13 19.858, 13.136 20, 16.500 20 L 20 20 20 14.500 C 20 9.821, 19.725 9, 18.155 9 C 17.140 9, 15.565 9.823, 14.655 10.829" stroke="none" fill="#000000" fill-rule="evenodd"/>
</svg>