<svg xmlns="http://www.w3.org/2000/svg" width="24" height="24" viewBox="0 0 24 24" version="1.1">
	<path d="M 12 3 C 6.147 3, 4.844 3.300, 4.396 4.750 C 4.098 5.713, 3.437 7.281, 2.927 8.236 C 2.417 9.191, 2.014 11.666, 2.032 13.736 C 2.049 15.806, 2.776 18.400, 3.647 19.500 C 4.743 20.886, 5.373 21.116, 5.698 20.250 C 5.999 19.446, 8.250 19, 12 19 C 15.750 19, 18.001 19.446, 18.302 20.250 C 18.627 21.116, 19.257 20.886, 20.353 19.500 C 21.224 18.400, 21.951 15.806, 21.968 13.736 C 21.986 11.666, 21.583 9.191, 21.073 8.236 C 20.563 7.281, 19.902 5.713, 19.604 4.750 C 19.156 3.300, 17.853 3, 12 3 M 12 5 C 8.700 5, 6 5.360, 6 5.801 C 6 6.241, 6.563 7.812, 7.250 9.293 C 8.258 11.464, 9.177 11.984, 12 11.984 C 14.823 11.984, 15.742 11.464, 16.750 9.293 C 17.437 7.812, 18 6.241, 18 5.801 C 18 5.360, 15.300 5, 12 5 M 5 10 C 4.450 10, 4 11.575, 4 13.500 L 4 17 12 17 L 20 17 20 13.500 C 20 11.575, 19.550 10, 19 10 C 18.450 10, 18 10.900, 18 12 C 18 13.778, 17.333 14, 12 14 C 6.667 14, 6 13.778, 6 12 C 6 10.900, 5.550 10, 5 10" stroke="none" fill="black" fill-rule="evenodd"/>
</svg>