<svg xmlns="http://www.w3.org/2000/svg" width="24" height="24" viewBox="0 0 24 24" version="1.1">
	<path d="M 4.885 8.250 C 4.234 9.488, 3.256 10.790, 2.712 11.144 C 2.081 11.556, 2.148 12.279, 2.896 13.144 C 3.541 13.890, 4.691 15.399, 5.452 16.498 C 7.211 19.038, 8.534 17.865, 7.046 15.086 C 5.971 13.078, 6.156 13, 12 13 C 17.844 13, 18.029 13.078, 16.954 15.086 C 15.466 17.865, 16.789 19.038, 18.548 16.498 C 19.309 15.399, 20.415 13.938, 21.005 13.250 C 21.770 12.360, 21.770 11.640, 21.005 10.750 C 20.415 10.063, 19.309 8.601, 18.548 7.502 C 16.789 4.962, 15.466 6.135, 16.954 8.914 C 18.029 10.922, 17.844 11, 12 11 C 6.308 11, 5.994 10.879, 6.965 9.066 C 8.251 6.662, 8.266 6, 7.035 6 C 6.505 6, 5.537 7.012, 4.885 8.250" stroke="none" fill="black" fill-rule="evenodd"/>
</svg>