<svg xmlns="http://www.w3.org/2000/svg" width="24" height="24" viewBox="0 0 24 24" version="1.1">
	<path d="M 16.826 5 C 15.442 5, 13.565 5.823, 12.655 6.829 C 11.439 8.173, 11 10.559, 11 15.829 C 11 19.773, 11.430 23, 11.956 23 C 12.482 23, 13.045 19.785, 13.206 15.855 C 13.432 10.351, 13.902 8.457, 15.250 7.610 C 16.495 6.827, 17.487 6.818, 18.690 7.577 C 19.620 8.163, 20.586 9.286, 20.837 10.071 C 21.144 11.035, 20.591 10.878, 19.140 9.589 C 17.956 8.539, 16.689 7.978, 16.323 8.343 C 15.958 8.709, 16.714 10.131, 18.004 11.504 L 20.349 14 18.004 16.496 C 16.714 17.869, 15.965 19.299, 16.340 19.673 C 16.714 20.048, 18.366 19.065, 20.010 17.490 C 22.094 15.494, 23 13.669, 23 11.468 C 23 9.679, 22.207 7.593, 21.171 6.655 C 20.165 5.745, 18.210 5, 16.826 5" stroke="none" fill="black" fill-rule="evenodd"/>
</svg>