<svg xmlns="http://www.w3.org/2000/svg" width="24" height="24" viewBox="0 0 24 24" version="1.1">
	<path d="M 7.500 1.894 C 3.457 3.652, 1.500 6.976, 1.500 12.082 C 1.500 16.074, 2.001 17.456, 4.273 19.727 C 6.557 22.011, 7.919 22.500, 12 22.500 C 19.011 22.500, 22.500 19.011, 22.500 12 C 22.500 7.999, 22 6.546, 19.903 4.448 C 17.099 1.644, 10.974 0.383, 7.500 1.894 M 5.923 5.923 C 3.928 7.918, 3 9.848, 3 12 C 3 16.302, 7.698 21, 12 21 C 14.152 21, 16.082 20.072, 18.077 18.077 C 22.007 14.147, 22.007 9.853, 18.077 5.923 C 14.147 1.993, 9.853 1.993, 5.923 5.923 M 9.004 9.496 C 6.517 12.143, 6.895 14.162, 9.476 12.020 C 10.786 10.933, 11 11.193, 11 13.878 C 11 15.595, 11.450 17, 12 17 C 12.550 17, 13 15.595, 13 13.878 C 13 11.193, 13.214 10.933, 14.524 12.020 C 17.105 14.162, 17.483 12.143, 14.996 9.496 C 12.101 6.414, 11.899 6.414, 9.004 9.496" stroke="none" fill="#000000" fill-rule="evenodd"/>
</svg>