<svg xmlns="http://www.w3.org/2000/svg" width="24" height="24" viewBox="0 0 24 24" version="1.1">
	<path d="M 14.804 5 C 14.362 5, 14 5.308, 14 5.686 C 14 6.063, 14.978 7.413, 16.174 8.686 L 18.349 11 11.746 11 C 7.076 11, 4.683 11.460, 3.571 12.571 C 2.676 13.467, 2 15.833, 2 18.071 C 2 20.232, 2.450 22, 3 22 C 3.550 22, 4 21.155, 4 20.122 C 4 19.090, 4.695 17.668, 5.546 16.962 C 6.396 16.257, 6.860 15.077, 6.577 14.340 C 6.182 13.310, 7.483 13, 12.206 13 L 18.349 13 16.004 15.496 C 14.714 16.869, 13.976 18.309, 14.363 18.696 C 14.750 19.083, 16.723 17.743, 18.748 15.719 L 22.429 12.038 19.018 8.519 C 17.142 6.583, 15.246 5, 14.804 5" stroke="none" fill="black" fill-rule="evenodd"/>
</svg>