<svg viewBox="0 0 24 24" xmlns="http://www.w3.org/2000/svg" fill="none" stroke="#000000" stroke-width="2" stroke-linecap="round" stroke-linejoin="round"><path d="M8.640 5.068 C 8.485 5.121,8.033 5.556,5.326 8.255 C 1.921 11.650,2.001 11.560,2.001 12.000 C 2.001 12.440,1.924 12.353,5.306 15.726 C 7.019 17.434,8.481 18.862,8.555 18.899 C 9.010 19.128,9.601 18.944,9.867 18.492 C 9.964 18.327,9.980 18.258,9.979 18.000 C 9.979 17.788,9.957 17.659,9.905 17.560 C 9.865 17.483,8.839 16.425,7.626 15.209 L 5.420 12.999 11.480 13.009 L 17.540 13.020 17.861 13.121 C 18.425 13.300,18.902 13.619,19.304 14.088 C 19.470 14.282,19.771 14.762,19.744 14.789 C 19.738 14.795,19.560 14.710,19.349 14.599 C 18.809 14.314,18.322 14.151,18.000 14.147 C 17.785 14.144,17.703 14.164,17.526 14.260 C 17.038 14.527,16.860 15.146,17.137 15.618 C 17.267 15.840,17.427 15.974,17.668 16.062 C 18.461 16.351,18.685 16.478,19.075 16.854 C 19.345 17.115,19.630 17.516,19.759 17.819 C 19.957 18.280,19.970 18.388,19.995 19.883 L 20.020 21.307 20.141 21.503 C 20.543 22.156,21.457 22.156,21.859 21.503 L 21.980 21.306 21.980 18.343 C 21.980 15.629,21.974 15.351,21.907 15.040 C 21.497 13.126,20.086 11.633,18.240 11.162 C 17.635 11.007,17.330 11.000,11.292 11.000 L 5.421 11.000 7.626 8.790 C 8.839 7.575,9.865 6.517,9.905 6.440 C 9.957 6.341,9.979 6.212,9.979 6.000 C 9.980 5.745,9.964 5.672,9.872 5.516 C 9.617 5.083,9.122 4.903,8.640 5.068 " stroke="none" fill-rule="evenodd" fill="black"></path></svg>