<svg viewBox="0 0 24 24" xmlns="http://www.w3.org/2000/svg" fill="none" stroke="#000000" stroke-width="2" stroke-linecap="round" stroke-linejoin="round"><path d="M11.695 1.057 C 11.466 1.129,11.256 1.299,11.128 1.516 L 11.020 1.700 11.000 7.700 L 10.980 13.700 8.038 17.620 C 5.696 20.740,5.085 21.579,5.042 21.731 C 4.800 22.597,5.769 23.325,6.525 22.845 C 6.665 22.756,7.222 22.037,9.340 19.209 C 10.792 17.270,11.989 15.683,12.000 15.683 C 12.011 15.683,13.208 17.270,14.660 19.209 C 16.778 22.037,17.335 22.756,17.475 22.845 C 18.231 23.325,19.200 22.597,18.958 21.731 C 18.915 21.579,18.304 20.740,15.962 17.620 L 13.020 13.700 13.000 7.700 L 12.980 1.700 12.872 1.516 C 12.628 1.101,12.150 0.915,11.695 1.057 " stroke="none" fill-rule="evenodd" fill="black"></path></svg>