<svg viewBox="0 0 24 24" xmlns="http://www.w3.org/2000/svg" fill="none" stroke="#000000" stroke-width="2" stroke-linecap="round" stroke-linejoin="round"><path d="M2.695 2.057 C 2.466 2.129,2.256 2.299,2.128 2.516 L 2.020 2.700 2.007 5.020 C 1.994 7.444,2.014 7.877,2.166 8.620 C 2.412 9.820,3.007 11.072,3.789 12.040 C 4.075 12.394,4.761 13.067,5.100 13.326 C 6.279 14.226,7.703 14.797,9.168 14.958 C 9.408 14.984,10.715 15.000,12.568 15.000 L 15.579 15.000 13.874 16.710 C 12.936 17.651,12.135 18.483,12.095 18.560 C 12.043 18.659,12.021 18.788,12.021 19.000 C 12.020 19.258,12.036 19.327,12.133 19.492 C 12.263 19.714,12.502 19.901,12.736 19.965 C 12.938 20.019,13.266 19.989,13.445 19.899 C 13.519 19.862,14.756 18.659,16.194 17.226 C 19.036 14.393,18.999 14.435,18.999 14.000 C 18.999 13.564,19.039 13.609,16.174 10.755 C 13.785 8.374,13.522 8.124,13.343 8.065 C 12.862 7.906,12.382 8.084,12.128 8.516 C 12.036 8.672,12.020 8.745,12.021 9.000 C 12.021 9.212,12.043 9.341,12.095 9.440 C 12.135 9.517,12.936 10.350,13.874 11.292 L 15.580 13.003 12.400 12.989 C 9.273 12.975,9.213 12.974,8.820 12.885 C 6.711 12.410,5.052 10.976,4.361 9.029 C 4.038 8.120,4.030 8.034,4.004 5.200 L 3.980 2.700 3.872 2.516 C 3.628 2.101,3.150 1.915,2.695 2.057 " stroke="none" fill-rule="evenodd" fill="black"></path></svg>