<svg xmlns="http://www.w3.org/2000/svg" width="24" height="24" viewBox="0 0 24 24" version="1.1">
	<path d="M 12 4 C 11.673 4, 9.656 5.792, 7.518 7.982 C 5.380 10.172, 3.943 12.276, 4.325 12.659 C 4.708 13.041, 6.366 12.065, 8.010 10.490 L 11 7.626 11 13.813 C 11 17.271, 11.441 20, 12 20 C 12.559 20, 13 17.271, 13 13.813 L 13 7.626 15.990 10.490 C 17.634 12.065, 19.292 13.041, 19.675 12.659 C 20.057 12.276, 18.620 10.172, 16.482 7.982 C 14.344 5.792, 12.327 4, 12 4" stroke="none" fill="black" fill-rule="evenodd"/>
</svg>