<svg xmlns="http://www.w3.org/2000/svg" width="24" height="24" viewBox="0 0 24 24" version="1.1">
	<path d="M 10.500 3.091 C 9.950 3.636, 8.601 4.701, 7.502 5.459 C 4.960 7.211, 6.137 8.532, 8.914 7.046 C 10.922 5.971, 11 6.156, 11 12 C 11 17.692, 10.879 18.006, 9.066 17.035 C 6.658 15.747, 6 15.733, 6 16.974 C 6 17.510, 7.350 18.647, 9 19.500 C 11.711 20.902, 12.289 20.902, 15 19.500 C 16.650 18.647, 18 17.510, 18 16.974 C 18 15.733, 17.342 15.747, 14.934 17.035 C 13.121 18.006, 13 17.692, 13 12 C 13 6.156, 13.078 5.971, 15.086 7.046 C 17.865 8.534, 19.038 7.211, 16.498 5.452 C 15.399 4.691, 13.956 3.603, 13.292 3.034 C 11.863 1.810, 11.791 1.812, 10.500 3.091" stroke="none" fill="black" fill-rule="evenodd"/>
</svg>