<svg xmlns="http://www.w3.org/2000/svg" width="24" height="24" viewBox="0 0 24 24" version="1.1">
	<path d="M 2.440 3.296 C 2.151 4.050, 2.046 8.455, 2.207 13.084 L 2.500 21.500 12 21.500 L 21.500 21.500 21.500 12 L 21.500 2.500 12.233 2.212 C 5.103 1.991, 2.845 2.241, 2.440 3.296 M 4 12 L 4 20 12 20 L 20 20 20 12 L 20 4 12 4 L 4 4 4 12 M 11 10.122 C 11 12.807, 10.786 13.067, 9.476 11.980 C 6.701 9.677, 6.555 12.010, 9.303 14.758 L 12 17.455 14.697 14.758 C 17.445 12.010, 17.299 9.677, 14.524 11.980 C 13.214 13.067, 13 12.807, 13 10.122 C 13 8.405, 12.550 7, 12 7 C 11.450 7, 11 8.405, 11 10.122" stroke="none" fill="black" fill-rule="evenodd"/>
</svg>