<svg viewBox="0 0 24 24" xmlns="http://www.w3.org/2000/svg" fill="none" stroke="#000000" stroke-width="2" stroke-linecap="round" stroke-linejoin="round"><path d="M7.700 7.047 C 7.484 7.129,7.283 7.278,7.183 7.430 C 7.018 7.683,3.029 17.710,3.009 17.923 C 2.956 18.477,3.437 19.000,4.000 19.000 C 4.241 19.000,4.521 18.881,4.700 18.702 C 4.855 18.548,4.968 18.281,6.421 14.648 C 7.276 12.510,7.987 10.760,8.000 10.760 C 8.013 10.760,8.724 12.510,9.579 14.648 C 11.032 18.281,11.145 18.548,11.300 18.702 C 11.693 19.095,12.301 19.093,12.696 18.697 C 12.863 18.531,12.942 18.344,14.423 14.641 C 15.277 12.507,15.987 10.760,16.000 10.760 C 16.014 10.760,16.274 11.386,16.579 12.150 C 16.885 12.915,17.160 13.602,17.191 13.678 C 17.242 13.801,17.207 13.778,16.887 13.473 C 16.507 13.112,16.297 13.000,15.998 13.000 C 15.661 13.000,15.308 13.209,15.128 13.516 C 15.036 13.672,15.020 13.745,15.021 14.000 C 15.021 14.212,15.043 14.341,15.095 14.440 C 15.135 14.517,16.116 15.531,17.274 16.694 C 18.940 18.366,19.422 18.828,19.580 18.904 C 20.100 19.152,20.730 18.896,20.937 18.354 C 20.996 18.198,21.002 17.948,20.991 15.940 L 20.980 13.700 20.871 13.514 C 20.563 12.991,19.870 12.852,19.392 13.217 L 19.219 13.349 18.046 10.416 C 16.776 7.239,16.800 7.288,16.418 7.098 C 16.054 6.918,15.498 7.040,15.236 7.358 C 15.159 7.451,14.610 8.775,13.573 11.368 C 12.721 13.498,12.013 15.240,12.000 15.240 C 11.987 15.240,11.278 13.495,10.424 11.361 C 8.740 7.150,8.804 7.286,8.418 7.101 C 8.231 7.011,7.868 6.984,7.700 7.047 " stroke="none" fill="black" fill-rule="evenodd"></path></svg>