<svg viewBox="0 0 24 24" xmlns="http://www.w3.org/2000/svg" fill="none" stroke="#000000" stroke-width="2" stroke-linecap="round" stroke-linejoin="round"><path d="M16.380 5.043 C 13.783 5.299,11.694 7.202,11.113 9.840 L 11.020 10.260 11.020 16.283 L 11.020 22.306 11.141 22.503 C 11.543 23.156,12.457 23.156,12.859 22.503 L 12.980 22.306 13.002 16.363 C 13.022 10.983,13.030 10.394,13.091 10.145 C 13.379 8.965,14.131 7.990,15.160 7.464 C 15.611 7.233,15.930 7.129,16.395 7.058 C 16.879 6.986,17.121 6.986,17.605 7.058 C 19.074 7.280,20.310 8.324,20.797 9.755 C 20.915 10.102,20.999 10.697,21.000 11.179 L 21.000 11.577 19.270 9.854 C 17.721 8.312,17.519 8.124,17.343 8.066 C 16.863 7.906,16.382 8.084,16.128 8.516 C 16.036 8.672,16.020 8.745,16.021 9.000 C 16.021 9.212,16.043 9.341,16.095 9.440 C 16.135 9.517,17.161 10.575,18.374 11.790 L 20.579 14.000 18.374 16.210 C 17.161 17.426,16.135 18.483,16.095 18.560 C 16.043 18.659,16.021 18.788,16.021 19.000 C 16.020 19.258,16.036 19.327,16.133 19.492 C 16.413 19.968,17.033 20.139,17.492 19.865 C 17.584 19.810,18.832 18.590,20.265 17.153 C 22.478 14.934,22.881 14.512,22.938 14.356 C 22.999 14.190,23.004 13.981,22.989 12.196 C 22.974 10.335,22.968 10.197,22.884 9.820 C 22.615 8.612,22.101 7.653,21.269 6.805 C 19.978 5.490,18.230 4.860,16.380 5.043 " stroke="none" fill-rule="evenodd" fill="black"></path></svg>