<svg xmlns="http://www.w3.org/2000/svg" width="24" height="24" viewBox="0 0 24 24" version="1.1">
	<path d="M 6.174 1 C 5.720 1, 4.293 2.123, 3.004 3.496 C 1.714 4.869, 0.950 6.283, 1.305 6.639 C 1.661 6.994, 2.638 6.716, 3.476 6.020 C 4.385 5.265, 5 5.174, 5 5.794 C 5 6.366, 4.442 7.019, 3.759 7.247 C 2.878 7.541, 3.050 8.193, 4.350 9.493 C 5.830 10.972, 6.342 11.065, 7.015 9.976 C 7.702 8.864, 8.123 8.857, 9.424 9.937 C 10.501 10.831, 11 12.947, 11 16.622 C 11 19.580, 11.450 22, 12 22 C 12.550 22, 13 19.580, 13 16.622 C 13 12.947, 13.499 10.831, 14.576 9.937 C 15.877 8.857, 16.298 8.864, 16.985 9.976 C 17.658 11.065, 18.170 10.972, 19.650 9.493 C 20.950 8.193, 21.122 7.541, 20.241 7.247 C 19.558 7.019, 19 6.366, 19 5.794 C 19 5.174, 19.615 5.265, 20.524 6.020 C 21.362 6.716, 22.339 6.994, 22.695 6.639 C 23.050 6.283, 22.286 4.869, 20.996 3.496 C 19.707 2.123, 18.280 1, 17.826 1 C 17.372 1, 17 2.301, 17 3.892 C 17 6.142, 16.446 6.922, 14.500 7.411 C 13.125 7.756, 10.875 7.756, 9.500 7.411 C 7.554 6.922, 7 6.142, 7 3.892 C 7 2.301, 6.628 1, 6.174 1" stroke="none" fill="black" fill-rule="evenodd"/>
</svg>