<svg xmlns="http://www.w3.org/2000/svg" width="24" height="24" viewBox="0 0 24 24" version="1.1">
	<path d="M 6.826 5 C 5.442 5, 3.565 5.823, 2.655 6.829 C 1.745 7.835, 1 10, 1 11.642 C 1 13.650, 1.978 15.563, 3.990 17.490 C 5.634 19.065, 7.286 20.048, 7.660 19.673 C 8.035 19.299, 7.286 17.869, 5.996 16.496 L 3.651 14 5.996 11.504 C 7.286 10.131, 8.042 8.709, 7.677 8.343 C 7.311 7.978, 6.044 8.539, 4.860 9.589 C 3.409 10.878, 2.856 11.035, 3.163 10.071 C 3.414 9.286, 4.380 8.163, 5.310 7.577 C 6.513 6.818, 7.505 6.827, 8.750 7.610 C 10.098 8.457, 10.568 10.351, 10.794 15.855 C 10.955 19.785, 11.518 23, 12.044 23 C 12.570 23, 13 19.695, 13 15.655 C 13 9.809, 12.627 7.972, 11.171 6.655 C 10.165 5.745, 8.210 5, 6.826 5" stroke="none" fill="black" fill-rule="evenodd"/>
</svg>