<svg xmlns="http://www.w3.org/2000/svg" width="24" height="24" viewBox="0 0 24 24" version="1.1">
	<path d="M 5.133 12.133 C 2.764 17.833, 2.561 19, 3.935 19 C 4.450 19, 5.440 17.425, 6.136 15.500 C 6.832 13.575, 7.671 12, 8 12 C 8.329 12, 9.168 13.575, 9.864 15.500 C 11.288 19.438, 12.560 19.963, 13.500 17 C 14.300 14.479, 15.218 14.479, 17.500 17 C 20.017 19.782, 21 19.501, 21 16 C 21 14.350, 20.605 13, 20.121 13 C 19.638 13, 18.683 11.650, 18 10 C 16.383 6.097, 15.414 6.214, 13.864 10.500 C 13.168 12.425, 12.329 14, 12 14 C 11.671 14, 10.832 12.425, 10.136 10.500 C 9.440 8.575, 8.510 7, 8.069 7 C 7.628 7, 6.307 9.310, 5.133 12.133" stroke="none" fill="black" fill-rule="evenodd"/>
</svg>