<svg xmlns="http://www.w3.org/2000/svg" width="24" height="24" viewBox="0 0 24 24" version="1.1">
	<path d="M 5.980 1 C 5.441 1, 5 1.243, 5 1.540 C 5 1.837, 5.894 3.831, 6.986 5.972 C 8.078 8.113, 9.428 10.146, 9.986 10.491 C 10.544 10.836, 11 13.791, 11 17.059 C 11 20.353, 11.446 23, 12 23 C 12.554 23, 13 20.353, 13 17.059 C 13 13.791, 13.456 10.836, 14.014 10.491 C 14.572 10.146, 15.922 8.113, 17.014 5.972 C 18.106 3.831, 19 1.837, 19 1.540 C 19 1.243, 18.559 1, 18.020 1 C 17.482 1, 16.122 2.800, 15 5 C 13.878 7.200, 12.528 9, 12 9 C 11.472 9, 10.122 7.200, 9 5 C 7.878 2.800, 6.518 1, 5.980 1" stroke="none" fill="black" fill-rule="evenodd"/>
</svg>