<svg xmlns="http://www.w3.org/2000/svg" width="24" height="24" viewBox="0 0 24 24" version="1.1">
	<path d="M 7.500 1.894 C 3.457 3.652, 1.500 6.976, 1.500 12.082 C 1.500 16.074, 2.001 17.456, 4.273 19.727 C 6.557 22.011, 7.919 22.500, 12 22.500 C 19.011 22.500, 22.500 19.011, 22.500 12 C 22.500 7.999, 22 6.546, 19.903 4.448 C 17.099 1.644, 10.974 0.383, 7.500 1.894 M 5.923 5.923 C 3.928 7.918, 3 9.848, 3 12 C 3 16.302, 7.698 21, 12 21 C 14.152 21, 16.082 20.072, 18.077 18.077 C 22.007 14.147, 22.007 9.853, 18.077 5.923 C 14.147 1.993, 9.853 1.993, 5.923 5.923 M 8.974 9.527 L 6.600 12.055 9.270 14.724 C 11.998 17.452, 14.310 17.284, 12.020 14.524 C 10.933 13.214, 11.193 13, 13.878 13 C 15.595 13, 17 12.550, 17 12 C 17 11.450, 15.560 11, 13.800 11 C 11.311 11, 10.867 10.733, 11.800 9.800 C 12.460 9.140, 13 8.240, 13 7.800 C 13 6.292, 11.348 7.001, 8.974 9.527" stroke="none" fill="black" fill-rule="evenodd"/>
</svg>