<svg xmlns="http://www.w3.org/2000/svg" width="24" height="24" viewBox="0 0 24 24" version="1.1">
	<path d="M 14 5.686 C 14 6.063, 14.978 7.413, 16.174 8.686 L 18.349 11 11.746 11 C 7.076 11, 4.683 11.460, 3.571 12.571 C 1.843 14.300, 1.376 22, 3 22 C 3.550 22, 4 21.155, 4 20.122 C 4 19.090, 4.695 17.668, 5.546 16.962 C 6.396 16.257, 6.860 15.077, 6.577 14.340 C 6.182 13.310, 7.483 13, 12.206 13 L 18.349 13 16.004 15.496 C 12.205 19.540, 14.722 19.745, 18.748 15.719 L 22.429 12.038 19.018 8.519 C 15.779 5.177, 14 4.172, 14 5.686" stroke="none" fill="#000000" fill-rule="evenodd"/>
</svg>