<svg xmlns="http://www.w3.org/2000/svg" width="24" height="24" viewBox="0 0 24 24" version="1.1">
	<path d="M 5 1.540 C 5 2.677, 9.020 9.894, 9.986 10.491 C 10.544 10.836, 11 13.791, 11 17.059 C 11 20.353, 11.446 23, 12 23 C 12.554 23, 13 20.353, 13 17.059 C 13 13.791, 13.456 10.836, 14.014 10.491 C 14.980 9.894, 19 2.677, 19 1.540 C 19 -0.347, 16.723 1.623, 15 5 C 13.878 7.200, 12.528 9, 12 9 C 11.472 9, 10.122 7.200, 9 5 C 7.277 1.623, 5 -0.347, 5 1.540" stroke="none" fill="black" fill-rule="evenodd"/>
</svg>