<svg viewBox="0 0 24 24" xmlns="http://www.w3.org/2000/svg" fill="none" stroke="#000000" stroke-width="2" stroke-linecap="round" stroke-linejoin="round"><path d="M5.723 1.047 C 5.647 1.068,5.512 1.137,5.423 1.200 C 5.176 1.373,1.178 5.400,1.101 5.555 C 0.872 6.010,1.056 6.601,1.508 6.867 C 1.673 6.964,1.742 6.980,2.000 6.979 C 2.213 6.979,2.341 6.957,2.440 6.905 C 2.517 6.864,3.124 6.289,3.790 5.626 L 5.000 4.422 5.000 5.711 L 5.000 7.000 4.446 7.000 C 3.648 7.000,3.367 7.110,3.128 7.516 C 3.037 7.672,3.020 7.746,3.020 8.000 C 3.020 8.256,3.036 8.328,3.131 8.489 C 3.256 8.702,3.449 8.864,3.670 8.943 C 3.768 8.978,4.022 8.997,4.407 8.998 L 4.993 9.000 5.007 9.653 C 5.020 10.300,5.021 10.308,5.141 10.503 C 5.543 11.156,6.457 11.156,6.859 10.503 C 6.979 10.308,6.980 10.301,6.994 9.649 L 7.007 8.991 7.774 9.010 C 8.433 9.027,8.585 9.043,8.861 9.126 C 9.810 9.412,10.575 10.175,10.878 11.139 L 10.979 11.460 11.000 16.383 L 11.020 21.306 11.141 21.503 C 11.543 22.156,12.457 22.156,12.859 21.503 L 12.980 21.306 13.000 16.383 L 13.021 11.460 13.122 11.139 C 13.425 10.175,14.190 9.412,15.139 9.126 C 15.415 9.043,15.567 9.027,16.226 9.010 L 16.993 8.991 17.006 9.649 C 17.020 10.301,17.021 10.308,17.141 10.503 C 17.543 11.156,18.457 11.156,18.859 10.503 C 18.979 10.308,18.980 10.300,18.993 9.653 L 19.007 9.000 19.593 8.998 C 19.978 8.997,20.232 8.978,20.330 8.943 C 20.551 8.864,20.744 8.702,20.869 8.489 C 20.964 8.328,20.980 8.256,20.980 8.000 C 20.980 7.746,20.963 7.672,20.872 7.516 C 20.633 7.110,20.352 7.000,19.554 7.000 L 19.000 7.000 19.000 5.711 L 19.000 4.422 20.210 5.626 C 20.875 6.289,21.483 6.864,21.560 6.905 C 21.659 6.957,21.787 6.979,22.000 6.979 C 22.258 6.980,22.327 6.964,22.492 6.867 C 22.968 6.587,23.138 5.968,22.866 5.508 C 22.811 5.416,21.815 4.393,20.653 3.235 C 18.748 1.338,18.521 1.124,18.343 1.065 C 17.950 0.935,17.589 1.018,17.303 1.303 C 16.991 1.616,17.000 1.518,17.000 4.427 L 17.000 7.000 16.418 7.000 C 15.738 7.000,15.180 7.054,14.760 7.162 C 13.858 7.392,13.021 7.891,12.356 8.593 L 12.000 8.969 11.645 8.595 C 11.261 8.188,10.835 7.861,10.353 7.602 C 9.526 7.156,8.807 7.000,7.583 7.000 L 7.002 7.000 6.991 4.350 L 6.980 1.700 6.872 1.516 C 6.635 1.113,6.163 0.920,5.723 1.047 " stroke="none" fill-rule="evenodd" fill="black"></path></svg>