<svg viewBox="0 0 24 24" xmlns="http://www.w3.org/2000/svg" fill="none" stroke="#000000" stroke-width="2" stroke-linecap="round" stroke-linejoin="round"><path d="M8.580 3.096 C 8.421 3.172,7.851 3.723,5.774 5.806 C 4.341 7.244,3.135 8.483,3.095 8.560 C 3.043 8.659,3.021 8.788,3.021 9.000 C 3.020 9.258,3.036 9.327,3.133 9.492 C 3.263 9.714,3.502 9.901,3.736 9.965 C 3.939 10.019,4.267 9.989,4.445 9.899 C 4.519 9.862,5.349 9.065,6.289 8.127 L 7.998 6.423 8.009 12.502 L 8.020 18.580 8.114 18.860 C 8.443 19.840,9.160 20.557,10.140 20.886 L 10.420 20.980 15.272 20.991 C 18.491 20.998,20.175 20.988,20.276 20.961 C 20.498 20.901,20.739 20.710,20.867 20.492 C 20.964 20.327,20.980 20.257,20.980 20.000 C 20.980 19.746,20.963 19.672,20.872 19.516 C 20.761 19.328,20.572 19.158,20.373 19.070 C 20.285 19.031,19.184 19.015,15.480 19.000 L 10.700 18.980 10.516 18.872 C 10.415 18.813,10.284 18.700,10.225 18.623 C 9.987 18.311,10.000 18.677,10.000 12.286 L 10.000 6.421 11.710 8.126 C 12.650 9.064,13.483 9.865,13.560 9.905 C 13.659 9.957,13.788 9.979,14.000 9.979 C 14.258 9.980,14.327 9.964,14.492 9.867 C 14.714 9.737,14.901 9.498,14.965 9.264 C 15.019 9.062,14.989 8.734,14.899 8.555 C 14.862 8.481,13.659 7.244,12.226 5.806 C 9.393 2.964,9.435 3.001,9.000 3.001 C 8.851 3.001,8.716 3.031,8.580 3.096 " stroke="none" fill-rule="evenodd" fill="black"></path></svg>