<svg xmlns="http://www.w3.org/2000/svg" width="24" height="24" viewBox="0 0 24 24" version="1.1">
	<path d="M 5.510 5.990 C 2.391 9.245, 2.763 11.430, 5.946 8.549 C 7.869 6.808, 7.909 6.897, 8.202 13.639 L 8.500 20.500 14.750 20.798 C 18.629 20.983, 21 20.698, 21 20.048 C 21 19.444, 18.667 19, 15.500 19 L 10 19 10 12.845 C 10 6.747, 10.019 6.707, 12.006 8.506 C 15.224 11.418, 15.636 9.274, 12.490 5.990 C 10.915 4.345, 9.344 3, 9 3 C 8.656 3, 7.085 4.345, 5.510 5.990" stroke="none" fill="black" fill-rule="evenodd"/>
</svg>