<svg xmlns="http://www.w3.org/2000/svg" width="24" height="24" viewBox="0 0 24 24" version="1.1">
	<path d="M 8.069 7 C 7.628 7, 6.307 9.310, 5.133 12.133 C 3.960 14.957, 3 17.657, 3 18.133 C 3 18.610, 3.421 19, 3.935 19 C 4.450 19, 5.440 17.425, 6.136 15.500 C 6.832 13.575, 7.671 12, 8 12 C 8.329 12, 9.168 13.575, 9.864 15.500 C 10.560 17.425, 11.520 19, 11.997 19 C 12.475 19, 13.151 18.100, 13.500 17 C 13.849 15.900, 14.485 15, 14.912 15 C 15.340 15, 16.505 15.900, 17.500 17 C 18.495 18.100, 19.690 19, 20.155 19 C 20.620 19, 21 17.650, 21 16 C 21 14.350, 20.605 13, 20.121 13 C 19.638 13, 18.683 11.650, 18 10 C 17.317 8.350, 16.391 7, 15.943 7 C 15.496 7, 14.560 8.575, 13.864 10.500 C 13.168 12.425, 12.329 14, 12 14 C 11.671 14, 10.832 12.425, 10.136 10.500 C 9.440 8.575, 8.510 7, 8.069 7" stroke="none" fill="black" fill-rule="evenodd"/>
</svg>