<svg xmlns="http://www.w3.org/2000/svg" width="24" height="24" viewBox="0 0 24 24" version="1.1">
	<path d="M 12 1 C 11.439 1, 11 3.768, 11 7.303 C 11 12.787, 10.595 14.157, 7.880 17.849 C 6.163 20.183, 5.075 22.408, 5.461 22.795 C 5.848 23.181, 6.838 22.598, 7.663 21.498 C 8.488 20.399, 9.801 18.612, 10.581 17.527 C 11.993 15.564, 12.007 15.564, 13.419 17.527 C 14.199 18.612, 15.512 20.399, 16.337 21.498 C 17.162 22.598, 18.152 23.181, 18.539 22.795 C 18.925 22.408, 17.837 20.183, 16.120 17.849 C 13.405 14.157, 13 12.787, 13 7.303 C 13 3.768, 12.561 1, 12 1" stroke="none" fill="black" fill-rule="evenodd"/>
</svg>