<svg xmlns="http://www.w3.org/2000/svg" width="24" height="24" viewBox="0 0 24 24" version="1.1">
	<path d="M 7.500 1.894 C 3.457 3.652, 1.500 6.976, 1.500 12.082 C 1.500 16.074, 2.001 17.456, 4.273 19.727 C 6.557 22.011, 7.919 22.500, 12 22.500 C 19.011 22.500, 22.500 19.011, 22.500 12 C 22.500 7.999, 22 6.546, 19.903 4.448 C 17.099 1.644, 10.974 0.383, 7.500 1.894 M 5.923 5.923 C 3.928 7.918, 3 9.848, 3 12 C 3 16.302, 7.698 21, 12 21 C 14.152 21, 16.082 20.072, 18.077 18.077 C 22.007 14.147, 22.007 9.853, 18.077 5.923 C 14.147 1.993, 9.853 1.993, 5.923 5.923 M 11 7.800 C 11 8.240, 11.540 9.140, 12.200 9.800 C 13.133 10.733, 12.689 11, 10.200 11 C 8.440 11, 7 11.450, 7 12 C 7 12.550, 8.405 13, 10.122 13 C 12.807 13, 13.067 13.214, 11.980 14.524 C 9.690 17.284, 12.002 17.452, 14.730 14.724 L 17.400 12.055 15.026 9.527 C 12.652 7.001, 11 6.292, 11 7.800" stroke="none" fill="#000000" fill-rule="evenodd"/>
</svg>