<svg xmlns="http://www.w3.org/2000/svg" width="24" height="24" viewBox="0 0 24 24" version="1.1">
	<path d="M 13.403 1.438 C 11.256 1.210, 8.600 1.416, 7.500 1.894 C 6.400 2.373, 4.600 3.764, 3.500 4.987 C 2.078 6.568, 1.500 8.618, 1.500 12.082 C 1.500 16.074, 2.001 17.456, 4.273 19.727 C 6.557 22.011, 7.919 22.500, 12 22.500 C 16.081 22.500, 17.443 22.011, 19.727 19.727 C 22.011 17.443, 22.500 16.081, 22.500 12 C 22.500 7.999, 22 6.546, 19.903 4.448 C 18.256 2.802, 15.876 1.699, 13.403 1.438 M 12 3 C 9.848 3, 7.918 3.928, 5.923 5.923 C 3.928 7.918, 3 9.848, 3 12 C 3 14.152, 3.928 16.082, 5.923 18.077 C 7.918 20.072, 9.848 21, 12 21 C 14.152 21, 16.082 20.072, 18.077 18.077 C 20.072 16.082, 21 14.152, 21 12 C 21 9.848, 20.072 7.918, 18.077 5.923 C 16.082 3.928, 14.152 3, 12 3 M 12 7 C 11.450 7, 11 8.405, 11 10.122 C 11 12.807, 10.786 13.067, 9.476 11.980 C 8.638 11.284, 7.649 11.018, 7.279 11.388 C 6.909 11.758, 7.820 13.274, 9.303 14.758 L 12 17.455 14.697 14.758 C 16.180 13.274, 17.091 11.758, 16.721 11.388 C 16.351 11.018, 15.362 11.284, 14.524 11.980 C 13.214 13.067, 13 12.807, 13 10.122 C 13 8.405, 12.550 7, 12 7" stroke="none" fill="black" fill-rule="evenodd"/>
</svg>