<svg xmlns="http://www.w3.org/2000/svg" width="24" height="24" viewBox="0 0 24 24" version="1.1">
	<path d="M 9 3 C 8.656 3, 7.085 4.345, 5.510 5.990 C 3.935 7.634, 2.948 9.281, 3.317 9.650 C 3.686 10.019, 4.869 9.524, 5.946 8.549 C 7.869 6.808, 7.909 6.897, 8.202 13.639 L 8.500 20.500 14.750 20.798 C 18.629 20.983, 21 20.698, 21 20.048 C 21 19.444, 18.667 19, 15.500 19 L 10 19 10 12.845 C 10 6.747, 10.019 6.707, 12.006 8.506 C 13.110 9.504, 14.314 10.019, 14.683 9.650 C 15.052 9.281, 14.065 7.634, 12.490 5.990 C 10.915 4.345, 9.344 3, 9 3" stroke="none" fill="black" fill-rule="evenodd"/>
</svg>