<svg xmlns="http://www.w3.org/2000/svg" width="24" height="24" viewBox="0 0 24 24" version="1.1">
	<path d="M 12.535 8 C 12.241 8, 12 8.464, 12 9.031 C 12 9.599, 12.675 10.322, 13.500 10.638 C 14.325 10.955, 15 11.616, 15 12.107 C 15 12.598, 14.395 13, 13.655 13 C 12.915 13, 11.495 12.100, 10.500 11 C 9.505 9.900, 7.690 9, 6.467 9 C 5.245 9, 3.676 9.686, 2.980 10.524 C 2.284 11.362, 1.960 12.294, 2.260 12.593 C 2.560 12.893, 3.734 12.559, 4.869 11.850 C 6.686 10.715, 7.289 10.903, 9.922 13.425 C 12.814 16.196, 12.993 16.235, 15.455 14.621 C 16.855 13.704, 18 12.566, 18 12.092 C 18 11.618, 16.891 10.503, 15.535 9.615 C 14.180 8.727, 12.830 8, 12.535 8" stroke="none" fill="black" fill-rule="evenodd"/>
</svg>