<svg viewBox="0 0 24 24" xmlns="http://www.w3.org/2000/svg" fill="none" stroke="#000000" stroke-width="2" stroke-linecap="round" stroke-linejoin="round"><path d="M7.660 6.066 C 7.474 6.122,7.278 6.308,4.826 8.753 C 1.961 11.609,2.001 11.564,2.001 12.000 C 2.001 12.435,1.964 12.393,4.806 15.226 C 6.244 16.659,7.481 17.862,7.555 17.899 C 8.010 18.128,8.601 17.944,8.867 17.492 C 8.964 17.327,8.980 17.258,8.979 17.000 C 8.979 16.788,8.957 16.659,8.905 16.560 C 8.865 16.483,8.064 15.651,7.126 14.710 L 5.421 13.000 8.801 13.000 C 12.798 13.000,13.098 13.019,14.016 13.324 C 14.872 13.609,15.631 14.074,16.260 14.700 C 16.977 15.412,17.464 16.232,17.744 17.199 C 17.953 17.917,17.969 18.122,17.995 20.283 L 18.020 22.306 18.141 22.503 C 18.543 23.156,19.457 23.156,19.859 22.503 L 19.980 22.306 19.980 20.203 C 19.980 18.171,19.977 18.082,19.886 17.580 C 19.461 15.223,18.184 13.328,16.220 12.140 C 15.242 11.548,14.000 11.151,12.780 11.040 C 12.528 11.017,10.864 11.000,8.881 11.000 L 5.421 11.000 7.126 9.290 C 8.064 8.350,8.865 7.517,8.905 7.440 C 8.957 7.341,8.979 7.212,8.979 7.000 C 8.980 6.745,8.964 6.672,8.872 6.516 C 8.740 6.293,8.533 6.128,8.290 6.055 C 8.062 5.986,7.915 5.989,7.660 6.066 " stroke="none" fill-rule="evenodd" fill="black"></path></svg>