<svg xmlns="http://www.w3.org/2000/svg" width="24" height="24" viewBox="0 0 24 24" version="1.1">
	<path d="M 13.403 1.438 C 11.256 1.210, 8.600 1.416, 7.500 1.894 C 6.400 2.373, 4.600 3.764, 3.500 4.987 C 2.078 6.568, 1.500 8.618, 1.500 12.082 C 1.500 16.074, 2.001 17.456, 4.273 19.727 C 6.557 22.011, 7.919 22.500, 12 22.500 C 16.081 22.500, 17.443 22.011, 19.727 19.727 C 22.011 17.443, 22.500 16.081, 22.500 12 C 22.500 7.999, 22 6.546, 19.903 4.448 C 18.256 2.802, 15.876 1.699, 13.403 1.438 M 12 3 C 9.848 3, 7.918 3.928, 5.923 5.923 C 3.928 7.918, 3 9.848, 3 12 C 3 14.152, 3.928 16.082, 5.923 18.077 C 7.918 20.072, 9.848 21, 12 21 C 14.152 21, 16.082 20.072, 18.077 18.077 C 20.072 16.082, 21 14.152, 21 12 C 21 9.848, 20.072 7.918, 18.077 5.923 C 16.082 3.928, 14.152 3, 12 3 M 12 7 C 11.642 7, 10.293 8.123, 9.004 9.496 C 7.714 10.869, 6.950 12.283, 7.305 12.639 C 7.661 12.994, 8.638 12.716, 9.476 12.020 C 10.786 10.933, 11 11.193, 11 13.878 C 11 15.595, 11.450 17, 12 17 C 12.550 17, 13 15.595, 13 13.878 C 13 11.193, 13.214 10.933, 14.524 12.020 C 15.362 12.716, 16.339 12.994, 16.695 12.639 C 17.050 12.283, 16.286 10.869, 14.996 9.496 C 13.707 8.123, 12.358 7, 12 7" stroke="none" fill="black" fill-rule="evenodd"/>
</svg>