<svg xmlns="http://www.w3.org/2000/svg" width="24" height="24" viewBox="0 0 24 24" version="1.1">
	<path d="M 8.187 6 C 7.740 6, 6.071 7.360, 4.479 9.022 L 1.583 12.045 4.759 15.221 C 6.507 16.968, 8.248 18.086, 8.628 17.705 C 9.009 17.324, 8.504 16.110, 7.506 15.006 C 5.716 13.029, 5.749 13, 9.845 13 C 12.667 13, 14.642 13.642, 16 15 C 17.111 16.111, 18 18.333, 18 20 C 18 21.650, 18.450 23, 19 23 C 19.550 23, 20 21.405, 20 19.455 C 20 17.024, 19.228 15.138, 17.545 13.455 C 15.636 11.545, 14.048 11, 10.390 11 C 5.900 11, 5.764 10.918, 7.345 9.171 C 8.255 8.165, 9 7.040, 9 6.671 C 9 6.302, 8.634 6, 8.187 6" stroke="none" fill="black" fill-rule="evenodd"/>
</svg>