<svg xmlns="http://www.w3.org/2000/svg" width="24" height="24" viewBox="0 0 24 24" version="1.1">
	<path d="M 21 2 C 20.450 2, 20 3.575, 20 5.500 C 20 7.667, 19.238 9.762, 18 11 C 16.730 12.270, 14.667 13, 12.345 13 C 8.750 13, 8.720 12.967, 10.506 10.994 C 11.504 9.890, 12.009 8.676, 11.628 8.295 C 11.248 7.914, 9.496 9.042, 7.737 10.801 L 4.538 14 7.737 17.199 C 9.496 18.958, 11.248 20.086, 11.628 19.705 C 12.009 19.324, 11.504 18.110, 10.506 17.006 C 8.716 15.028, 8.749 15, 12.890 15 C 16.017 15, 17.719 14.372, 19.545 12.545 C 21.343 10.748, 22 9.007, 22 6.045 C 22 3.820, 21.550 2, 21 2" stroke="none" fill="black" fill-rule="evenodd"/>
</svg>