<svg xmlns="http://www.w3.org/2000/svg" width="24" height="24" viewBox="0 0 24 24" version="1.1">
	<path d="M 2.655 6.829 C 0.015 9.746, 0.574 14.218, 3.990 17.490 C 7.578 20.928, 9.340 20.055, 5.996 16.496 L 3.651 14 5.996 11.504 C 8.832 8.485, 7.891 6.899, 4.860 9.589 C 3.409 10.878, 2.856 11.035, 3.163 10.071 C 3.944 7.624, 6.782 6.373, 8.750 7.610 C 10.098 8.457, 10.568 10.351, 10.794 15.855 C 11.181 25.261, 13 25.097, 13 15.655 C 13 9.809, 12.627 7.972, 11.171 6.655 C 8.756 4.469, 4.716 4.552, 2.655 6.829" stroke="none" fill="#000000" fill-rule="evenodd"/>
</svg>