<svg xmlns="http://www.w3.org/2000/svg" width="24" height="24" viewBox="0 0 24 24" version="1.1">
	<path d="M 11.792 2.050 C 11.631 2.078, 11.050 2.546, 10.500 3.091 C 9.950 3.636, 8.601 4.701, 7.502 5.459 C 6.402 6.217, 5.801 7.135, 6.166 7.499 C 6.530 7.864, 7.767 7.660, 8.914 7.046 C 10.922 5.971, 11 6.156, 11 12 C 11 17.692, 10.879 18.006, 9.066 17.035 C 8.002 16.466, 6.877 16, 6.566 16 C 6.255 16, 6 16.438, 6 16.974 C 6 17.510, 7.350 18.647, 9 19.500 C 11.711 20.902, 12.289 20.902, 15 19.500 C 16.650 18.647, 18 17.510, 18 16.974 C 18 16.438, 17.745 16, 17.434 16 C 17.123 16, 15.998 16.466, 14.934 17.035 C 13.121 18.006, 13 17.692, 13 12 C 13 6.156, 13.078 5.971, 15.086 7.046 C 16.233 7.660, 17.470 7.864, 17.834 7.499 C 18.199 7.135, 17.598 6.214, 16.498 5.452 C 15.399 4.691, 13.956 3.603, 13.292 3.034 C 12.628 2.465, 11.953 2.022, 11.792 2.050" stroke="none" fill="black" fill-rule="evenodd"/>
</svg>