<svg xmlns="http://www.w3.org/2000/svg" width="24" height="24" viewBox="0 0 24 24" version="1.1">
	<path d="M 2.440 3.296 C 2.151 4.050, 2.046 8.455, 2.207 13.084 L 2.500 21.500 12 21.500 L 21.500 21.500 21.500 12 L 21.500 2.500 12.233 2.212 C 5.103 1.991, 2.845 2.241, 2.440 3.296 M 4 12 L 4 20 12 20 L 20 20 20 12 L 20 4 12 4 L 4 4 4 12 M 9.004 9.496 C 6.517 12.143, 6.895 14.162, 9.476 12.020 C 10.786 10.933, 11 11.193, 11 13.878 C 11 15.595, 11.450 17, 12 17 C 12.550 17, 13 15.595, 13 13.878 C 13 11.193, 13.214 10.933, 14.524 12.020 C 17.105 14.162, 17.483 12.143, 14.996 9.496 C 12.101 6.414, 11.899 6.414, 9.004 9.496" stroke="none" fill="#000000" fill-rule="evenodd"/>
</svg>