<svg viewBox="0 0 24 24" xmlns="http://www.w3.org/2000/svg" fill="none" stroke="#000000" stroke-width="2" stroke-linecap="round" stroke-linejoin="round"><path d="M11.580 2.095 C 11.178 2.285,11.002 2.593,11.001 3.108 L 11.000 3.436 8.711 4.808 C 7.452 5.563,6.356 6.245,6.276 6.325 C 5.982 6.617,5.922 7.131,6.138 7.501 C 6.375 7.905,6.879 8.097,7.305 7.945 C 7.390 7.914,8.256 7.411,9.230 6.827 L 11.000 5.764 11.000 12.000 L 11.000 18.236 9.206 17.160 C 8.153 16.527,7.335 16.062,7.226 16.033 C 6.984 15.968,6.643 16.035,6.421 16.191 C 5.939 16.529,5.867 17.255,6.274 17.676 C 6.413 17.820,11.343 20.810,11.658 20.942 C 11.833 21.015,12.163 21.017,12.331 20.946 C 12.402 20.916,13.621 20.195,15.040 19.344 C 16.712 18.341,17.665 17.747,17.748 17.654 C 18.131 17.226,18.050 16.521,17.579 16.191 C 17.357 16.035,17.016 15.968,16.774 16.033 C 16.665 16.062,15.847 16.527,14.794 17.160 L 13.000 18.236 13.000 12.018 C 13.000 8.598,13.011 5.800,13.024 5.800 C 13.037 5.800,13.833 6.272,14.794 6.848 C 15.754 7.425,16.603 7.919,16.680 7.946 C 17.107 8.099,17.626 7.904,17.862 7.501 C 18.078 7.131,18.018 6.617,17.724 6.325 C 17.644 6.245,16.548 5.563,15.289 4.808 L 13.000 3.436 13.000 3.108 C 12.999 2.592,12.810 2.269,12.400 2.083 C 12.150 1.970,11.835 1.975,11.580 2.095 " stroke="none" fill-rule="evenodd" fill="black"></path></svg>