<svg xmlns="http://www.w3.org/2000/svg" width="24" height="24" viewBox="0 0 24 24" version="1.1">
	<path d="M 15.813 6 C 15.366 6, 15 6.302, 15 6.671 C 15 7.040, 15.745 8.165, 16.655 9.171 C 18.236 10.918, 18.100 11, 13.610 11 C 9.952 11, 8.364 11.545, 6.455 13.455 C 4.772 15.138, 4 17.024, 4 19.455 C 4 21.405, 4.450 23, 5 23 C 5.550 23, 6 21.650, 6 20 C 6 18.333, 6.889 16.111, 8 15 C 9.358 13.642, 11.333 13, 14.155 13 C 18.251 13, 18.284 13.029, 16.494 15.006 C 15.496 16.110, 14.991 17.324, 15.372 17.705 C 15.752 18.086, 17.493 16.968, 19.241 15.221 L 22.417 12.045 19.521 9.022 C 17.929 7.360, 16.260 6, 15.813 6" stroke="none" fill="black" fill-rule="evenodd"/>
</svg>