<svg xmlns="http://www.w3.org/2000/svg" width="24" height="24" viewBox="0 0 24 24" version="1.1">
	<path d="M 3 2 C 2.450 2, 2 3.820, 2 6.045 C 2 9.007, 2.657 10.748, 4.455 12.545 C 6.281 14.372, 7.983 15, 11.110 15 C 15.251 15, 15.284 15.028, 13.494 17.006 C 12.496 18.110, 11.991 19.324, 12.372 19.705 C 12.752 20.086, 14.504 18.958, 16.263 17.199 L 19.462 14 16.263 10.801 C 14.504 9.042, 12.752 7.914, 12.372 8.295 C 11.991 8.676, 12.496 9.890, 13.494 10.994 C 15.280 12.967, 15.250 13, 11.655 13 C 9.333 13, 7.270 12.270, 6 11 C 4.762 9.762, 4 7.667, 4 5.500 C 4 3.575, 3.550 2, 3 2" stroke="none" fill="black" fill-rule="evenodd"/>
</svg>