<svg xmlns="http://www.w3.org/2000/svg" width="24" height="24" viewBox="0 0 24 24" version="1.1">
	<path d="M 12.233 2.212 C 5.103 1.991, 2.845 2.241, 2.440 3.296 C 2.151 4.050, 2.046 8.455, 2.207 13.084 L 2.500 21.500 12 21.500 L 21.500 21.500 21.500 12 L 21.500 2.500 12.233 2.212 M 12 4 L 4 4 4 12 L 4 20 12 20 L 20 20 20 12 L 20 4 12 4 M 12 7 C 11.450 7, 11 8.405, 11 10.122 C 11 12.807, 10.786 13.067, 9.476 11.980 C 8.638 11.284, 7.649 11.018, 7.279 11.388 C 6.909 11.758, 7.820 13.274, 9.303 14.758 L 12 17.455 14.697 14.758 C 16.180 13.274, 17.091 11.758, 16.721 11.388 C 16.351 11.018, 15.362 11.284, 14.524 11.980 C 13.214 13.067, 13 12.807, 13 10.122 C 13 8.405, 12.550 7, 12 7" stroke="none" fill="black" fill-rule="evenodd"/>
</svg>