<svg xmlns="http://www.w3.org/2000/svg" width="24" height="24" viewBox="0 0 24 24" version="1.1">
	<path d="M 11.510 5.990 C 8.364 9.274, 8.776 11.418, 11.994 8.506 C 13.981 6.707, 14 6.747, 14 12.845 L 14 19 8.500 19 C 5.333 19, 3 19.444, 3 20.048 C 3 20.698, 5.371 20.983, 9.250 20.798 L 15.500 20.500 15.798 13.639 C 16.091 6.897, 16.131 6.808, 18.054 8.549 C 21.237 11.430, 21.609 9.245, 18.490 5.990 C 16.915 4.345, 15.344 3, 15 3 C 14.656 3, 13.085 4.345, 11.510 5.990" stroke="none" fill="#000000" fill-rule="evenodd"/>
</svg>