<svg xmlns="http://www.w3.org/2000/svg" width="24" height="24" viewBox="0 0 24 24" version="1.1">
	<path d="M 6.174 5 C 5.720 5, 4.328 6.087, 3.080 7.415 C 1.516 9.080, 1.016 10.477, 1.472 11.913 C 1.836 13.058, 3.116 14.193, 4.317 14.434 C 5.517 14.675, 7.389 14.826, 8.475 14.770 C 9.561 14.713, 11.248 13.729, 12.225 12.583 L 14 10.500 15.910 12.750 C 16.961 13.988, 18.086 15, 18.410 15 C 18.735 15, 19 14.357, 19 13.571 C 19 12.786, 18.288 11.431, 17.419 10.562 C 16.506 9.649, 14.498 9.079, 12.669 9.212 C 10.926 9.340, 8.806 10.290, 7.958 11.325 C 6.544 13.048, 6.303 13.070, 5.070 11.584 C 3.932 10.213, 3.977 9.683, 5.362 8.153 C 6.263 7.157, 7 6.040, 7 5.671 C 7 5.302, 6.628 5, 6.174 5" stroke="none" fill="black" fill-rule="evenodd"/>
</svg>