<svg xmlns="http://www.w3.org/2000/svg" width="24" height="24" viewBox="0 0 24 24" version="1.1">
	<path d="M 9.196 5 C 8.754 5, 6.858 6.583, 4.982 8.519 L 1.571 12.038 5.252 15.719 C 7.277 17.743, 9.250 19.083, 9.637 18.696 C 10.024 18.309, 9.286 16.869, 7.996 15.496 L 5.651 13 11.794 13 C 16.517 13, 17.818 13.310, 17.423 14.340 C 17.140 15.077, 17.604 16.257, 18.454 16.962 C 19.305 17.668, 20 19.090, 20 20.122 C 20 21.155, 20.450 22, 21 22 C 21.550 22, 22 20.232, 22 18.071 C 22 15.833, 21.324 13.467, 20.429 12.571 C 19.317 11.460, 16.924 11, 12.254 11 L 5.651 11 7.826 8.686 C 9.022 7.413, 10 6.063, 10 5.686 C 10 5.308, 9.638 5, 9.196 5" stroke="none" fill="black" fill-rule="evenodd"/>
</svg>