<svg xmlns="http://www.w3.org/2000/svg" width="24" height="24" viewBox="0 0 24 24" version="1.1">
	<path d="M 12.655 6.829 C 11.439 8.173, 11 10.559, 11 15.829 C 11 25.143, 12.823 25.164, 13.206 15.855 C 13.432 10.351, 13.902 8.457, 15.250 7.610 C 17.218 6.373, 20.056 7.624, 20.837 10.071 C 21.144 11.035, 20.591 10.878, 19.140 9.589 C 16.109 6.899, 15.168 8.485, 18.004 11.504 L 20.349 14 18.004 16.496 C 14.660 20.055, 16.422 20.928, 20.010 17.490 C 25.168 12.549, 23.243 5, 16.826 5 C 15.442 5, 13.565 5.823, 12.655 6.829" stroke="none" fill="#000000" fill-rule="evenodd"/>
</svg>