<svg viewBox="0 0 24 24" xmlns="http://www.w3.org/2000/svg" fill="none" stroke="#000000" stroke-width="2" stroke-linecap="round" stroke-linejoin="round"><path d="M11.280 1.023 C 11.203 1.032,10.951 1.059,10.720 1.083 C 8.832 1.283,6.991 2.023,5.360 3.235 C 4.751 3.688,3.684 4.755,3.226 5.367 C 0.728 8.714,0.301 13.032,2.097 16.780 C 2.643 17.918,3.276 18.801,4.238 19.762 C 5.199 20.724,6.082 21.357,7.220 21.903 C 10.967 23.699,15.288 23.270,18.637 20.770 C 19.246 20.316,20.316 19.246,20.770 18.637 C 23.744 14.652,23.744 9.348,20.770 5.363 C 20.316 4.755,19.247 3.686,18.640 3.235 C 17.045 2.049,15.365 1.360,13.423 1.096 C 13.000 1.038,11.574 0.990,11.280 1.023 M13.320 3.101 C 15.883 3.488,18.124 4.931,19.560 7.120 C 19.863 7.583,20.303 8.479,20.492 9.020 C 20.838 10.013,20.977 10.865,20.977 12.000 C 20.977 13.493,20.720 14.621,20.080 15.940 C 19.375 17.394,18.311 18.607,16.927 19.532 C 16.138 20.060,14.876 20.588,13.908 20.797 C 11.266 21.366,8.479 20.708,6.370 19.019 C 4.857 17.807,3.722 16.029,3.267 14.160 C 3.081 13.397,3.023 12.888,3.023 12.000 C 3.023 10.507,3.280 9.379,3.920 8.060 C 4.971 5.891,6.877 4.221,9.160 3.466 C 9.865 3.233,10.432 3.118,11.340 3.024 C 11.662 2.991,12.911 3.039,13.320 3.101 M11.695 7.057 C 11.466 7.129,11.256 7.299,11.128 7.516 L 11.020 7.700 11.000 8.984 L 10.980 10.268 9.910 9.658 C 8.793 9.021,8.624 8.954,8.312 9.021 C 7.787 9.135,7.412 9.673,7.517 10.163 C 7.616 10.623,7.719 10.712,8.969 11.420 C 9.513 11.728,9.958 11.989,9.958 12.000 C 9.959 12.011,9.515 12.272,8.971 12.580 C 7.715 13.292,7.615 13.379,7.517 13.837 C 7.375 14.500,8.075 15.145,8.742 14.965 C 8.831 14.941,9.374 14.653,9.950 14.325 L 10.996 13.729 11.008 15.018 L 11.020 16.306 11.141 16.503 C 11.209 16.613,11.346 16.756,11.452 16.828 C 11.923 17.144,12.554 16.999,12.859 16.503 L 12.980 16.306 12.992 15.018 L 13.004 13.729 14.050 14.325 C 14.626 14.653,15.169 14.941,15.258 14.965 C 15.925 15.145,16.625 14.500,16.483 13.837 C 16.385 13.379,16.285 13.292,15.029 12.580 C 14.485 12.272,14.041 12.011,14.042 12.000 C 14.042 11.989,14.487 11.728,15.031 11.420 C 16.281 10.712,16.384 10.623,16.483 10.163 C 16.588 9.673,16.213 9.135,15.688 9.021 C 15.376 8.954,15.207 9.021,14.090 9.658 L 13.020 10.268 13.000 8.984 L 12.980 7.700 12.872 7.516 C 12.628 7.101,12.150 6.915,11.695 7.057 " stroke="none" fill-rule="evenodd" fill="black"></path></svg>