<svg xmlns="http://www.w3.org/2000/svg" width="24" height="24" viewBox="0 0 24 24" version="1.1">
	<path d="M 4.400 4.400 C 1.613 7.187, 1 8.557, 1 12 C 1 15.443, 1.613 16.813, 4.400 19.600 C 9.223 24.423, 14.777 24.423, 19.600 19.600 C 22.387 16.813, 23 15.443, 23 12 C 23 5.986, 18.014 1, 12 1 C 8.557 1, 7.187 1.613, 4.400 4.400 M 8 4.253 C 2.770 6.984, 1.773 14.674, 6.137 18.624 C 8.563 20.820, 15.012 21.065, 17.437 19.052 C 19.017 17.741, 19.009 17.582, 17.313 16.590 C 16.316 16.007, 14.204 15.523, 12.621 15.515 C 9.047 15.496, 7 12.796, 8.632 10.250 C 9.249 9.287, 10.934 8.518, 12.377 8.539 C 13.820 8.561, 15 8.224, 15 7.789 C 15 7.355, 15.423 7, 15.940 7 C 16.456 7, 17.019 8.688, 17.190 10.750 C 17.605 15.764, 20.577 16.109, 20.338 11.116 C 20.051 5.116, 13.416 1.426, 8 4.253 M 10.446 11.087 C 9.416 12.755, 11.733 14.667, 13.113 13.287 C 14.267 12.133, 13.545 10, 12 10 C 11.515 10, 10.816 10.489, 10.446 11.087" stroke="none" fill="black" fill-rule="evenodd"/>
</svg>