<svg xmlns="http://www.w3.org/2000/svg" width="24" height="24" viewBox="0 0 24 24" version="1.1">
	<path d="M 12 1 C 8.557 1, 7.187 1.613, 4.400 4.400 C 1.613 7.187, 1 8.557, 1 12 C 1 15.443, 1.613 16.813, 4.400 19.600 C 7.187 22.387, 8.557 23, 12 23 C 15.443 23, 16.813 22.387, 19.600 19.600 C 22.387 16.813, 23 15.443, 23 12 C 23 8.557, 22.387 7.187, 19.600 4.400 C 16.813 1.613, 15.443 1, 12 1 M 13.497 3.498 C 11.848 3.196, 9.375 3.536, 8 4.253 C 6.625 4.971, 4.905 6.799, 4.178 8.315 C 3.425 9.887, 3.127 12.301, 3.485 13.932 C 3.831 15.505, 5.024 17.617, 6.137 18.624 C 7.349 19.721, 9.680 20.455, 11.954 20.455 C 14.040 20.455, 16.508 19.824, 17.437 19.052 C 19.017 17.741, 19.009 17.582, 17.313 16.590 C 16.316 16.007, 14.204 15.523, 12.621 15.515 C 10.984 15.506, 9.261 14.745, 8.626 13.750 C 7.804 12.461, 7.806 11.539, 8.632 10.250 C 9.249 9.287, 10.934 8.518, 12.377 8.539 C 13.820 8.561, 15 8.224, 15 7.789 C 15 7.355, 15.423 7, 15.940 7 C 16.456 7, 17.019 8.688, 17.190 10.750 C 17.399 13.279, 17.989 14.500, 19 14.500 C 20.070 14.500, 20.454 13.529, 20.338 11.116 C 20.249 9.254, 19.347 6.903, 18.334 5.890 C 17.322 4.877, 15.145 3.801, 13.497 3.498 M 12 10 C 11.515 10, 10.816 10.489, 10.446 11.087 C 10.077 11.685, 10.275 12.675, 10.887 13.287 C 11.704 14.104, 12.296 14.104, 13.113 13.287 C 13.725 12.675, 13.923 11.685, 13.554 11.087 C 13.184 10.489, 12.485 10, 12 10" stroke="none" fill="black" fill-rule="evenodd"/>
</svg>