<svg xmlns="http://www.w3.org/2000/svg" width="24" height="24" viewBox="0 0 24 24" version="1.1">
	<path d="M 7.500 1.894 C 3.457 3.652, 1.500 6.976, 1.500 12.082 C 1.500 17.921, 4.605 21.743, 10.054 22.612 C 13.872 23.221, 19 21.677, 19 19.918 C 19 19.217, 18.333 19.075, 17.250 19.545 C 12.392 21.653, 9.100 21.254, 6.029 18.183 C 1.990 14.143, 1.953 9.893, 5.923 5.923 C 9.879 1.967, 14.145 1.991, 18.144 5.990 C 20.307 8.153, 21.047 9.745, 20.817 11.740 C 20.335 15.936, 17.567 15.301, 17.199 10.910 C 16.920 7.581, 16.651 7.311, 13.489 7.192 C 8.265 6.996, 5.430 10.970, 7.952 14.956 C 9.248 17.006, 20.448 17.370, 22.071 15.415 C 23.816 13.311, 22.474 7.019, 19.684 4.229 C 17.096 1.642, 10.838 0.443, 7.500 1.894 M 9.958 10.550 C 8.896 11.831, 8.961 12.390, 10.336 13.764 C 11.888 15.317, 12.112 15.317, 13.664 13.764 C 15.039 12.390, 15.104 11.831, 14.042 10.550 C 12.423 8.600, 11.577 8.600, 9.958 10.550" stroke="none" fill="#000000" fill-rule="evenodd"/>
</svg>