<svg xmlns="http://www.w3.org/2000/svg" width="24" height="24" viewBox="0 0 24 24" version="1.1">
	<path d="M 13.403 1.438 C 11.256 1.210, 8.600 1.416, 7.500 1.894 C 6.400 2.373, 4.600 3.764, 3.500 4.987 C 2.078 6.568, 1.500 8.618, 1.500 12.082 C 1.500 15.973, 2.014 17.469, 4.054 19.508 C 5.458 20.913, 8.158 22.309, 10.054 22.612 C 11.949 22.914, 14.737 22.686, 16.250 22.106 C 17.762 21.525, 19 20.540, 19 19.918 C 19 19.217, 18.333 19.075, 17.250 19.545 C 16.288 19.963, 14.051 20.509, 12.279 20.758 C 9.687 21.123, 8.467 20.621, 6.029 18.183 C 3.938 16.091, 3 14.178, 3 12 C 3 9.848, 3.928 7.918, 5.923 5.923 C 7.918 3.928, 9.848 3, 12 3 C 14.169 3, 16.088 3.934, 18.144 5.990 C 20.307 8.153, 21.047 9.745, 20.817 11.740 C 20.628 13.386, 19.894 14.500, 19 14.500 C 18.001 14.500, 17.400 13.301, 17.199 10.910 C 16.920 7.581, 16.651 7.311, 13.489 7.192 C 11.597 7.121, 9.394 7.749, 8.539 8.603 C 7.693 9.450, 7.007 10.898, 7.015 11.821 C 7.024 12.745, 7.445 14.155, 7.952 14.956 C 8.562 15.921, 10.900 16.486, 14.878 16.630 C 19.083 16.782, 21.238 16.418, 22.071 15.415 C 22.792 14.546, 23.024 12.533, 22.660 10.295 C 22.331 8.267, 20.992 5.537, 19.684 4.229 C 18.246 2.791, 15.762 1.687, 13.403 1.438 M 12 9 C 11.585 9, 10.666 9.698, 9.958 10.550 C 8.896 11.831, 8.961 12.390, 10.336 13.764 C 11.888 15.317, 12.112 15.317, 13.664 13.764 C 15.039 12.390, 15.104 11.831, 14.042 10.550 C 13.334 9.698, 12.415 9, 12 9" stroke="none" fill="black" fill-rule="evenodd"/>
</svg>