<svg viewBox="0 0 24 24" xmlns="http://www.w3.org/2000/svg" fill="none" stroke="#000000" stroke-width="2" stroke-linecap="round" stroke-linejoin="round"><path d="M11.160 1.023 C 11.083 1.032,10.849 1.059,10.640 1.083 C 9.408 1.224,8.172 1.606,6.980 2.214 C 3.929 3.770,1.748 6.726,1.162 10.097 C 0.821 12.061,1.033 14.198,1.746 16.000 C 3.099 19.414,6.039 21.942,9.584 22.738 C 10.437 22.929,10.910 22.977,11.980 22.978 C 13.023 22.979,13.360 22.949,14.209 22.779 C 17.164 22.185,19.819 20.311,21.405 17.697 C 21.940 16.816,22.297 15.982,22.629 14.840 C 23.012 13.518,22.977 13.772,22.977 12.300 C 22.978 10.913,22.944 10.511,22.756 9.660 C 22.045 6.444,19.929 3.698,17.020 2.214 C 15.869 1.627,14.814 1.291,13.506 1.096 C 13.121 1.039,11.470 0.988,11.160 1.023 M13.280 3.101 C 15.296 3.407,17.036 4.299,18.443 5.746 C 19.827 7.171,20.606 8.789,20.924 10.900 C 21.001 11.406,20.990 12.733,20.905 13.300 C 20.816 13.893,20.736 14.068,20.402 14.404 C 20.003 14.806,19.547 15.000,19.000 15.000 C 18.317 15.000,17.695 14.654,17.312 14.063 C 17.011 13.597,17.025 13.751,17.001 10.560 L 16.980 7.700 16.871 7.514 C 16.648 7.134,16.208 6.941,15.786 7.035 C 15.515 7.096,15.270 7.275,15.129 7.514 C 15.021 7.698,15.020 7.710,15.007 8.513 L 14.994 9.325 14.805 9.148 C 14.168 8.552,13.418 8.181,12.605 8.058 C 12.121 7.986,11.879 7.986,11.395 8.058 C 9.155 8.396,7.632 10.563,8.083 12.773 C 8.357 14.118,9.249 15.195,10.512 15.704 C 11.471 16.090,12.529 16.090,13.488 15.704 C 14.087 15.462,14.627 15.078,15.023 14.612 L 15.236 14.360 15.318 14.545 C 15.363 14.647,15.400 14.738,15.400 14.748 C 15.400 14.758,15.472 14.888,15.561 15.036 C 15.883 15.579,16.408 16.106,16.956 16.436 C 17.550 16.794,18.381 17.013,19.068 16.992 C 19.295 16.986,19.480 16.989,19.480 17.000 C 19.480 17.011,19.365 17.173,19.225 17.360 C 17.232 20.011,14.008 21.354,10.740 20.896 C 7.677 20.466,5.037 18.471,3.781 15.637 C 2.265 12.218,3.035 8.203,5.707 5.597 C 6.382 4.938,6.902 4.550,7.700 4.109 C 8.758 3.524,9.977 3.161,11.340 3.024 C 11.666 2.991,12.874 3.039,13.280 3.101 M12.523 10.073 C 13.262 10.266,13.850 10.924,13.967 11.690 C 14.067 12.343,13.873 12.933,13.403 13.404 C 13.002 13.807,12.547 14.000,12.000 14.000 C 11.485 14.000,11.038 13.822,10.653 13.465 C 9.323 12.229,10.189 10.005,12.000 10.005 C 12.143 10.005,12.378 10.036,12.523 10.073 " stroke="none" fill-rule="evenodd" fill="black"></path></svg>