<svg xmlns="http://www.w3.org/2000/svg" width="24" height="24" viewBox="0 0 24 24" version="1.1">
	<path d="M 7.500 1.894 C 3.457 3.652, 1.500 6.976, 1.500 12.082 C 1.500 16.074, 2.001 17.456, 4.273 19.727 C 6.557 22.011, 7.919 22.500, 12 22.500 C 19.011 22.500, 22.500 19.011, 22.500 12 C 22.500 7.999, 22 6.546, 19.903 4.448 C 17.099 1.644, 10.974 0.383, 7.500 1.894 M 8.040 3.954 C 6.790 4.745, 6.848 5.175, 8.445 6.939 C 9.471 8.073, 11.070 9, 12 9 C 12.930 9, 14.529 8.073, 15.555 6.939 C 17.152 5.175, 17.210 4.745, 15.960 3.954 C 14.084 2.767, 9.916 2.767, 8.040 3.954 M 3.607 8.582 C 2.728 10.872, 2.888 14.275, 3.954 15.960 C 4.745 17.210, 5.175 17.152, 6.939 15.555 C 9.487 13.249, 9.568 10.824, 7.171 8.655 C 4.900 6.599, 4.372 6.588, 3.607 8.582 M 16.655 8.829 C 14.446 11.269, 14.569 13.300, 17.061 15.555 C 18.825 17.152, 19.255 17.210, 20.046 15.960 C 21.636 13.446, 20.918 7, 19.048 7 C 18.642 7, 17.565 7.823, 16.655 8.829 M 8.445 17.061 C 6.848 18.825, 6.790 19.255, 8.040 20.046 C 9.916 21.233, 14.084 21.233, 15.960 20.046 C 17.210 19.255, 17.152 18.825, 15.555 17.061 C 14.529 15.927, 12.930 15, 12 15 C 11.070 15, 9.471 15.927, 8.445 17.061" stroke="none" fill="#000000" fill-rule="evenodd"/>
</svg>