<svg xmlns="http://www.w3.org/2000/svg" width="24" height="24" viewBox="0 0 24 24" version="1.1">
	<path d="M 13.403 1.438 C 11.256 1.210, 8.600 1.416, 7.500 1.894 C 6.400 2.373, 4.600 3.764, 3.500 4.987 C 2.078 6.568, 1.500 8.618, 1.500 12.082 C 1.500 16.074, 2.001 17.456, 4.273 19.727 C 6.557 22.011, 7.919 22.500, 12 22.500 C 16.081 22.500, 17.443 22.011, 19.727 19.727 C 22.011 17.443, 22.500 16.081, 22.500 12 C 22.500 7.999, 22 6.546, 19.903 4.448 C 18.256 2.802, 15.876 1.699, 13.403 1.438 M 12 3.031 C 10.625 3.031, 8.843 3.446, 8.040 3.954 C 6.790 4.745, 6.848 5.175, 8.445 6.939 C 9.471 8.073, 11.070 9, 12 9 C 12.930 9, 14.529 8.073, 15.555 6.939 C 17.152 5.175, 17.210 4.745, 15.960 3.954 C 15.157 3.446, 13.375 3.031, 12 3.031 M 4.778 7 C 4.468 7, 3.941 7.712, 3.607 8.582 C 3.273 9.452, 3.007 11.139, 3.015 12.332 C 3.024 13.524, 3.446 15.157, 3.954 15.960 C 4.745 17.210, 5.175 17.152, 6.939 15.555 C 8.073 14.529, 9 12.930, 9 12 C 9 11.070, 8.177 9.565, 7.171 8.655 C 6.165 7.745, 5.089 7, 4.778 7 M 19.048 7 C 18.642 7, 17.565 7.823, 16.655 8.829 C 15.745 9.835, 15 11.340, 15 12.174 C 15 13.008, 15.927 14.529, 17.061 15.555 C 18.825 17.152, 19.255 17.210, 20.046 15.960 C 20.554 15.157, 20.976 13.524, 20.985 12.332 C 20.993 11.139, 20.727 9.452, 20.393 8.582 C 20.059 7.712, 19.454 7, 19.048 7 M 12 15 C 11.070 15, 9.471 15.927, 8.445 17.061 C 6.848 18.825, 6.790 19.255, 8.040 20.046 C 8.843 20.554, 10.625 20.969, 12 20.969 C 13.375 20.969, 15.157 20.554, 15.960 20.046 C 17.210 19.255, 17.152 18.825, 15.555 17.061 C 14.529 15.927, 12.930 15, 12 15" stroke="none" fill="black" fill-rule="evenodd"/>
</svg>