<svg viewBox="0 0 24 24" xmlns="http://www.w3.org/2000/svg" fill="none" stroke="#000000" stroke-width="2" stroke-linecap="round" stroke-linejoin="round"><path d="M11.069 1.039 C 9.923 1.151,8.808 1.421,7.864 1.817 C 4.167 3.367,1.679 6.573,1.094 10.540 C 0.995 11.213,0.995 12.787,1.094 13.460 C 1.407 15.585,2.228 17.433,3.573 19.043 C 5.340 21.157,7.752 22.495,10.540 22.906 C 11.213 23.005,12.787 23.005,13.460 22.906 C 15.505 22.604,17.309 21.828,18.854 20.585 C 20.851 18.978,22.200 16.806,22.755 14.300 C 22.929 13.514,22.977 13.022,22.977 12.000 C 22.977 10.978,22.929 10.486,22.755 9.700 C 22.033 6.440,19.934 3.714,16.997 2.220 C 15.840 1.632,14.837 1.309,13.572 1.120 C 12.946 1.026,11.638 0.984,11.069 1.039 M13.320 3.101 C 14.246 3.240,15.231 3.557,16.069 3.986 C 16.473 4.193,17.242 4.681,17.491 4.888 L 17.602 4.980 15.451 7.128 L 13.300 9.275 13.002 9.174 C 12.356 8.955,11.644 8.955,10.998 9.174 L 10.700 9.275 8.549 7.128 L 6.398 4.980 6.509 4.888 C 6.761 4.678,7.528 4.191,7.928 3.987 C 8.954 3.461,10.100 3.137,11.320 3.025 C 11.675 2.992,12.908 3.039,13.320 3.101 M9.149 11.060 C 9.031 11.399,9.023 11.453,9.023 12.000 C 9.023 12.547,9.031 12.601,9.149 12.940 L 9.274 13.300 7.127 15.451 L 4.980 17.602 4.888 17.491 C 4.681 17.242,4.193 16.473,3.986 16.069 C 3.551 15.220,3.241 14.252,3.093 13.280 C 2.997 12.647,2.997 11.353,3.093 10.720 C 3.320 9.231,3.883 7.870,4.771 6.666 L 4.973 6.393 7.124 8.546 L 9.275 10.700 9.149 11.060 M19.500 7.060 C 20.042 7.869,20.450 8.776,20.697 9.726 C 20.916 10.563,20.977 11.060,20.977 12.000 C 20.977 12.940,20.916 13.437,20.697 14.274 C 20.527 14.925,20.352 15.388,20.035 16.020 C 19.815 16.459,19.338 17.219,19.112 17.491 L 19.020 17.602 16.873 15.451 L 14.726 13.300 14.851 12.940 C 14.969 12.601,14.977 12.547,14.977 12.000 C 14.977 11.453,14.969 11.399,14.851 11.060 L 14.726 10.700 16.873 8.549 L 19.020 6.398 19.112 6.509 C 19.163 6.570,19.337 6.818,19.500 7.060 M11.120 14.872 C 11.387 14.963,11.484 14.975,12.000 14.976 C 12.548 14.976,12.600 14.970,12.940 14.851 L 13.300 14.725 15.456 16.878 L 17.611 19.031 17.316 19.249 C 14.149 21.577,9.851 21.577,6.684 19.249 L 6.389 19.031 8.544 16.875 C 10.061 15.358,10.718 14.727,10.760 14.745 C 10.793 14.759,10.955 14.816,11.120 14.872 " stroke="none" fill-rule="evenodd" fill="black"></path></svg>