<svg xmlns="http://www.w3.org/2000/svg" width="24" height="24" viewBox="0 0 24 24" version="1.1">
	<path d="M 12.861 2.914 C 11.562 3.967, 10.835 5.164, 11.244 5.574 C 11.653 5.985, 12.813 5.574, 13.823 4.661 C 15.988 2.701, 18.136 2.536, 19.800 4.200 C 21.673 6.073, 21.231 8.149, 18.313 11.195 C 15.439 14.195, 13.124 14.724, 11.217 12.817 C 10.566 12.166, 9.689 11.978, 9.268 12.398 C 8.256 13.411, 11.867 16, 14.291 16 C 16.858 16, 23 9.724, 23 7.100 C 23 4.487, 19.633 1, 17.111 1 C 16.072 1, 14.159 1.861, 12.861 2.914 M 4.104 11.535 C 2.397 13.479, 1 15.954, 1 17.035 C 1 19.534, 4.422 23, 6.889 23 C 9.221 23, 13.776 19.449, 12.756 18.426 C 12.347 18.015, 11.187 18.426, 10.177 19.339 C 8.012 21.299, 5.864 21.464, 4.200 19.800 C 2.276 17.876, 2.797 15.569, 5.805 12.687 C 8.843 9.776, 10.927 9.327, 12.783 11.183 C 13.434 11.834, 14.311 12.022, 14.732 11.602 C 15.804 10.529, 12.069 8, 9.412 8 C 8.140 8, 5.894 9.495, 4.104 11.535" stroke="none" fill="black" fill-rule="evenodd"/>
</svg>