<svg xmlns="http://www.w3.org/2000/svg" width="24" height="24" viewBox="0 0 24 24" version="1.1">
	<path d="M 17.111 1 C 16.072 1, 14.159 1.861, 12.861 2.914 C 11.562 3.967, 10.835 5.164, 11.244 5.574 C 11.653 5.985, 12.813 5.574, 13.823 4.661 C 14.832 3.747, 16.320 3, 17.129 3 C 17.938 3, 19.140 3.540, 19.800 4.200 C 20.460 4.860, 21 6.073, 21 6.895 C 21 7.718, 19.791 9.653, 18.313 11.195 C 16.835 12.738, 14.900 14, 14.013 14 C 13.126 14, 11.868 13.467, 11.217 12.817 C 10.566 12.166, 9.689 11.978, 9.268 12.398 C 8.847 12.819, 9.376 13.802, 10.443 14.582 C 11.509 15.362, 13.241 16, 14.291 16 C 15.341 16, 17.730 14.470, 19.600 12.600 C 21.470 10.730, 23 8.255, 23 7.100 C 23 5.945, 22.100 4.100, 21 3 C 19.900 1.900, 18.150 1, 17.111 1 M 9.412 8 C 8.140 8, 5.894 9.495, 4.104 11.535 C 2.397 13.479, 1 15.954, 1 17.035 C 1 18.116, 1.900 19.900, 3 21 C 4.100 22.100, 5.850 23, 6.889 23 C 7.928 23, 9.841 22.139, 11.139 21.086 C 12.438 20.033, 13.165 18.836, 12.756 18.426 C 12.347 18.015, 11.187 18.426, 10.177 19.339 C 9.168 20.253, 7.680 21, 6.871 21 C 6.062 21, 4.860 20.460, 4.200 19.800 C 3.540 19.140, 3 17.874, 3 16.987 C 3 16.100, 4.262 14.165, 5.805 12.687 C 7.347 11.209, 9.282 10, 10.105 10 C 10.927 10, 12.132 10.533, 12.783 11.183 C 13.434 11.834, 14.311 12.022, 14.732 11.602 C 15.153 11.181, 14.624 10.198, 13.557 9.418 C 12.491 8.638, 10.625 8, 9.412 8" stroke="none" fill="black" fill-rule="evenodd"/>
</svg>