<svg viewBox="0 0 24 24" xmlns="http://www.w3.org/2000/svg" fill="none" stroke="#000000" stroke-width="2" stroke-linecap="round" stroke-linejoin="round"><path d="M7.891 2.044 C 6.010 2.263,4.391 3.587,3.759 5.422 C 3.421 6.405,3.431 7.666,3.786 8.649 C 4.326 10.146,5.459 11.256,6.944 11.742 C 10.179 12.802,13.486 10.404,13.486 7.000 C 13.486 3.996,10.888 1.695,7.891 2.044 M9.271 4.095 C 10.331 4.387,11.204 5.292,11.421 6.323 C 11.499 6.695,11.496 7.332,11.415 7.692 C 11.163 8.812,10.250 9.701,9.111 9.936 C 7.936 10.179,6.755 9.715,6.054 8.734 C 5.684 8.216,5.520 7.683,5.520 7.000 C 5.520 6.186,5.766 5.543,6.299 4.965 C 6.670 4.562,7.322 4.179,7.800 4.084 C 7.921 4.060,8.056 4.032,8.100 4.022 C 8.252 3.987,9.061 4.037,9.271 4.095 M18.477 12.073 C 17.784 12.254,17.184 12.886,17.038 13.589 C 17.010 13.726,17.002 14.078,17.015 14.571 C 17.027 14.994,17.037 15.376,17.036 15.420 C 17.028 16.144,16.975 18.510,16.968 18.428 C 16.964 18.367,16.932 18.178,16.897 18.008 C 16.638 16.743,15.854 15.570,14.800 14.874 C 14.046 14.375,13.396 14.135,12.552 14.043 C 12.024 13.985,4.976 13.985,4.448 14.043 C 3.565 14.139,2.818 14.428,2.068 14.963 C 1.067 15.677,0.364 16.771,0.093 18.040 C 0.030 18.334,0.020 18.579,0.020 19.843 L 0.020 21.306 0.141 21.503 C 0.543 22.156,1.457 22.156,1.859 21.503 L 1.980 21.307 2.004 19.883 C 2.030 18.292,2.041 18.218,2.320 17.660 C 2.690 16.923,3.393 16.337,4.178 16.112 L 4.500 16.020 8.500 16.020 L 12.500 16.020 12.822 16.112 C 13.785 16.388,14.580 17.173,14.876 18.139 C 14.969 18.446,14.975 18.522,14.997 19.883 L 15.020 21.307 15.141 21.503 C 15.543 22.156,16.457 22.156,16.859 21.503 L 16.980 21.307 17.000 20.303 C 17.012 19.696,17.032 19.363,17.049 19.460 C 17.135 19.923,17.618 20.546,18.070 20.775 C 18.479 20.982,18.632 21.000,20.000 21.000 C 21.368 21.000,21.521 20.982,21.930 20.775 C 22.196 20.640,22.638 20.200,22.771 19.937 C 22.990 19.506,23.000 19.396,22.999 17.514 C 22.999 15.632,22.985 15.485,22.775 15.069 C 22.625 14.774,22.198 14.362,21.880 14.207 C 21.730 14.134,21.492 14.060,21.318 14.032 L 21.016 13.984 20.968 13.684 C 20.904 13.286,20.742 12.951,20.471 12.659 C 20.074 12.232,19.563 12.005,19.000 12.005 C 18.857 12.005,18.622 12.036,18.477 12.073 M21.000 17.500 L 21.000 19.000 20.000 19.000 L 19.000 19.000 19.000 17.500 L 19.000 16.000 20.000 16.000 L 21.000 16.000 21.000 17.500 " stroke="none" fill-rule="evenodd" fill="black"></path></svg>