<svg xmlns="http://www.w3.org/2000/svg" width="24" height="24" viewBox="0 0 24 24" version="1.1">
	<path d="M 4.408 4.500 C 2.891 6.816, 2.891 7.184, 4.408 9.500 C 6.572 12.802, 10.428 12.802, 12.592 9.500 C 14.109 7.184, 14.109 6.816, 12.592 4.500 C 10.428 1.198, 6.572 1.198, 4.408 4.500 M 6.390 5.426 C 5.480 7.797, 6.767 10.191, 8.747 9.810 C 11.125 9.352, 11.125 4.648, 8.747 4.190 C 7.783 4.004, 6.722 4.560, 6.390 5.426 M 17.667 12.667 C 17.300 13.033, 17 14.190, 17 15.238 C 17 16.970, 16.857 17, 15.429 15.571 C 13.283 13.426, 3.717 13.426, 1.571 15.571 C -0.163 17.306, -0.581 22, 1 22 C 1.550 22, 2 21.190, 2 20.200 C 2 17.344, 4.080 16, 8.500 16 C 12.920 16, 15 17.344, 15 20.200 C 15 21.190, 15.450 22, 16 22 C 16.550 22, 17 21.645, 17 21.211 C 17 20.776, 18.238 20.439, 19.750 20.461 C 21.884 20.491, 22.574 19.977, 22.830 18.168 C 23.012 16.885, 22.380 14.972, 21.425 13.918 C 19.578 11.876, 18.737 11.596, 17.667 12.667 M 19 17.500 C 19 18.325, 19.450 19, 20 19 C 20.550 19, 21 18.325, 21 17.500 C 21 16.675, 20.550 16, 20 16 C 19.450 16, 19 16.675, 19 17.500" stroke="none" fill="black" fill-rule="evenodd"/>
</svg>