<svg xmlns="http://www.w3.org/2000/svg" width="24" height="24" viewBox="0 0 24 24" version="1.1">
	<path d="M 6.455 2.455 C 3.663 5.246, 3.237 9.609, 5.469 12.559 C 6.531 13.963, 6.766 15.860, 6.318 19.415 C 5.743 23.979, 5.834 24.270, 7.599 23.486 C 8.645 23.023, 10.625 22.643, 12 22.643 C 13.375 22.643, 15.355 23.023, 16.401 23.486 C 18.166 24.270, 18.257 23.979, 17.682 19.415 C 17.234 15.860, 17.469 13.963, 18.531 12.559 C 24.250 5, 13.175 -4.266, 6.455 2.455 M 8 4 C 6.900 5.100, 6 6.900, 6 8 C 6 10.576, 9.424 14, 12 14 C 14.576 14, 18 10.576, 18 8 C 18 5.424, 14.576 2, 12 2 C 10.900 2, 9.100 2.900, 8 4 M 9 17.833 C 9 19.204, 9.758 19.667, 12 19.667 C 14.242 19.667, 15 19.204, 15 17.833 C 15 16.463, 14.242 16, 12 16 C 9.758 16, 9 16.463, 9 17.833" stroke="none" fill="black" fill-rule="evenodd"/>
</svg>