<svg xmlns="http://www.w3.org/2000/svg" width="24" height="24" viewBox="0 0 24 24" version="1.1">
	<path d="M 12 0 C 10.052 0, 8.002 0.907, 6.455 2.455 C 4.995 3.914, 4 6.066, 4 7.763 C 4 9.333, 4.661 11.491, 5.469 12.559 C 6.531 13.963, 6.766 15.860, 6.318 19.415 C 5.743 23.979, 5.834 24.270, 7.599 23.486 C 8.645 23.023, 10.625 22.643, 12 22.643 C 13.375 22.643, 15.355 23.023, 16.401 23.486 C 18.166 24.270, 18.257 23.979, 17.682 19.415 C 17.234 15.860, 17.469 13.963, 18.531 12.559 C 19.339 11.491, 20 9.333, 20 7.763 C 20 6.066, 19.005 3.914, 17.545 2.455 C 15.998 0.907, 13.948 0, 12 0 M 12 2 C 10.900 2, 9.100 2.900, 8 4 C 6.900 5.100, 6 6.900, 6 8 C 6 9.100, 6.900 10.900, 8 12 C 9.100 13.100, 10.900 14, 12 14 C 13.100 14, 14.900 13.100, 16 12 C 17.100 10.900, 18 9.100, 18 8 C 18 6.900, 17.100 5.100, 16 4 C 14.900 2.900, 13.100 2, 12 2 M 12 16 C 9.758 16, 9 16.463, 9 17.833 C 9 19.204, 9.758 19.667, 12 19.667 C 14.242 19.667, 15 19.204, 15 17.833 C 15 16.463, 14.242 16, 12 16" stroke="none" fill="black" fill-rule="evenodd"/>
</svg>