<svg xmlns="http://www.w3.org/2000/svg" width="24" height="24" viewBox="0 0 24 24" version="1.1">
	<path d="M 10.070 4.426 C 8.805 5.772, 8.112 7.372, 8.512 8.019 C 8.937 8.706, 7.501 10.952, 5.021 13.478 C -2.510 21.153, 1.938 25.422, 9.615 17.887 C 12.737 14.823, 14 14.075, 14 15.292 C 14 17.897, 16.821 17.333, 20.077 14.077 C 23.382 10.772, 23.888 8, 21.187 8 C 20.190 8, 18.081 6.650, 16.500 5 C 14.919 3.350, 13.338 2, 12.987 2 C 12.636 2, 11.323 3.092, 10.070 4.426 M 11.450 6.081 C 11.082 6.676, 11.900 8.363, 13.266 9.831 C 14.632 11.299, 15.928 13.089, 16.145 13.809 C 16.415 14.705, 17.299 14.311, 18.944 12.559 C 20.704 10.686, 20.946 10, 19.849 10 C 19.024 10, 17.292 8.875, 16 7.500 C 13.418 4.752, 12.457 4.452, 11.450 6.081 M 6.518 14.982 C 4.380 17.172, 2.946 19.280, 3.333 19.667 C 4.066 20.399, 12 13.195, 12 11.797 C 12 10.132, 10.275 11.135, 6.518 14.982" stroke="none" fill="black" fill-rule="evenodd"/>
</svg>