<svg xmlns="http://www.w3.org/2000/svg" width="24" height="24" viewBox="0 0 24 24" version="1.1">
	<path d="M 12.987 2 C 12.636 2, 11.323 3.092, 10.070 4.426 C 8.805 5.772, 8.112 7.372, 8.512 8.019 C 8.937 8.706, 7.501 10.952, 5.021 13.478 C 2.412 16.137, 0.945 18.476, 1.166 19.624 C 1.362 20.643, 2.357 21.638, 3.376 21.834 C 4.529 22.056, 6.889 20.563, 9.615 17.887 C 12.737 14.823, 14 14.075, 14 15.292 C 14 16.231, 14.710 17, 15.577 17 C 16.444 17, 18.469 15.685, 20.077 14.077 C 21.685 12.469, 23 10.444, 23 9.577 C 23 8.710, 22.184 8, 21.187 8 C 20.190 8, 18.081 6.650, 16.500 5 C 14.919 3.350, 13.338 2, 12.987 2 M 12.885 5 C 12.463 5, 11.817 5.487, 11.450 6.081 C 11.082 6.676, 11.900 8.363, 13.266 9.831 C 14.632 11.299, 15.928 13.089, 16.145 13.809 C 16.415 14.705, 17.299 14.311, 18.944 12.559 C 20.704 10.686, 20.946 10, 19.849 10 C 19.024 10, 17.292 8.875, 16 7.500 C 14.708 6.125, 13.306 5, 12.885 5 M 11.203 11 C 10.765 11, 8.656 12.792, 6.518 14.982 C 4.380 17.172, 2.946 19.280, 3.333 19.667 C 3.720 20.054, 5.828 18.620, 8.018 16.482 C 10.208 14.344, 12 12.235, 12 11.797 C 12 11.359, 11.641 11, 11.203 11" stroke="none" fill="black" fill-rule="evenodd"/>
</svg>