<svg xmlns="http://www.w3.org/2000/svg" width="24" height="24" viewBox="0 0 24 24" version="1.1">
	<path d="M 11.679 5.015 C 7.730 5.024, 3.881 5.423, 3.124 5.902 C 2.367 6.381, 1.692 8.382, 1.624 10.348 C 1.556 12.313, 1.950 13.957, 2.500 14 C 3.050 14.043, 3.725 12.598, 4 10.789 L 4.500 7.500 10.500 7.500 L 16.500 7.500 16.500 11.500 L 16.500 15.500 9.250 15.794 C 5.262 15.955, 2 16.264, 2 16.479 C 2 16.694, 2.439 18.024, 2.975 19.435 C 3.599 21.074, 4.715 22, 6.069 22 C 7.346 22, 8.395 21.206, 8.710 20 C 8.998 18.900, 9.578 18, 10 18 C 10.422 18, 11.011 18.936, 11.310 20.079 C 11.699 21.563, 12.507 22.064, 14.136 21.829 C 15.584 21.620, 16.626 20.614, 16.987 19.074 C 17.299 17.740, 18.105 16.465, 18.778 16.241 C 19.450 16.017, 20 16.546, 20 17.417 C 20 18.288, 20.418 19, 20.929 19 C 21.439 19, 21.857 16.525, 21.857 13.500 C 21.857 9.944, 21.327 7.470, 20.357 6.500 C 19.299 5.442, 16.743 5.005, 11.679 5.015 M 6 18 C 5.450 18, 5 18.450, 5 19 C 5 19.550, 5.450 20, 6 20 C 6.550 20, 7 19.550, 7 19 C 7 18.450, 6.550 18, 6 18 M 14 18 C 13.450 18, 13 18.450, 13 19 C 13 19.550, 13.450 20, 14 20 C 14.550 20, 15 19.550, 15 19 C 15 18.450, 14.550 18, 14 18" stroke="none" fill="black" fill-rule="evenodd"/>
</svg>