<svg xmlns="http://www.w3.org/2000/svg" width="24" height="24" viewBox="0 0 24 24" version="1.1">
	<path d="M 3.124 5.902 C 1.538 6.907, 1.001 13.882, 2.500 14 C 3.050 14.043, 3.725 12.598, 4 10.789 L 4.500 7.500 10.500 7.500 L 16.500 7.500 16.500 11.500 L 16.500 15.500 9.250 15.794 C 5.262 15.955, 2 16.264, 2 16.479 C 2 16.694, 2.439 18.024, 2.975 19.435 C 4.172 22.584, 7.938 22.955, 8.710 20 C 9.388 17.407, 10.622 17.445, 11.310 20.079 C 12.084 23.038, 16.230 22.304, 16.987 19.074 C 17.634 16.314, 20 15.012, 20 17.417 C 20 18.288, 20.418 19, 20.929 19 C 22.516 19, 22.021 8.164, 20.357 6.500 C 18.681 4.824, 5.546 4.368, 3.124 5.902 M 5 19 C 5 19.550, 5.450 20, 6 20 C 6.550 20, 7 19.550, 7 19 C 7 18.450, 6.550 18, 6 18 C 5.450 18, 5 18.450, 5 19 M 13 19 C 13 19.550, 13.450 20, 14 20 C 14.550 20, 15 19.550, 15 19 C 15 18.450, 14.550 18, 14 18 C 13.450 18, 13 18.450, 13 19" stroke="none" fill="black" fill-rule="evenodd"/>
</svg>