<svg viewBox="0 0 24 24" xmlns="http://www.w3.org/2000/svg" fill="none" stroke="#000000" stroke-width="2" stroke-linecap="round" stroke-linejoin="round"><path d="M5.280 5.027 C 4.727 5.084,4.076 5.292,3.655 5.544 C 2.408 6.293,1.658 7.482,1.523 8.925 C 1.464 9.554,1.466 13.610,1.525 13.887 C 1.725 14.819,2.968 14.984,3.385 14.134 L 3.500 13.900 3.520 11.320 C 3.543 8.467,3.529 8.624,3.812 8.120 C 3.979 7.821,4.406 7.406,4.709 7.247 C 5.191 6.994,5.025 7.001,10.243 7.001 C 13.439 7.000,15.063 7.014,15.223 7.043 C 15.952 7.174,16.652 7.819,16.891 8.578 C 16.979 8.857,16.980 8.886,16.980 11.500 C 16.980 14.114,16.979 14.143,16.891 14.422 C 16.680 15.095,16.140 15.655,15.460 15.906 C 15.269 15.977,14.957 15.981,8.740 16.000 L 2.220 16.020 2.060 16.106 C 1.707 16.297,1.512 16.615,1.512 17.000 C 1.512 17.405,1.719 17.724,2.100 17.905 C 2.272 17.986,2.361 17.999,2.734 18.000 C 3.095 18.000,3.165 18.010,3.146 18.057 C 3.052 18.303,3.023 18.524,3.022 19.000 C 3.021 19.456,3.035 19.587,3.114 19.840 C 3.421 20.826,4.174 21.579,5.160 21.886 C 5.594 22.021,6.406 22.021,6.840 21.886 C 7.826 21.579,8.579 20.826,8.886 19.840 C 9.032 19.372,9.015 18.479,8.854 18.057 C 8.835 18.008,9.000 18.000,10.000 18.000 C 11.000 18.000,11.165 18.008,11.146 18.057 C 11.052 18.303,11.023 18.524,11.022 19.000 C 11.021 19.456,11.035 19.587,11.114 19.840 C 11.421 20.826,12.174 21.579,13.160 21.886 C 13.594 22.021,14.406 22.021,14.840 21.886 C 15.826 21.579,16.579 20.826,16.886 19.840 C 16.964 19.588,16.979 19.453,16.979 19.000 C 16.979 18.436,16.909 18.090,16.717 17.714 L 16.642 17.567 16.871 17.438 C 17.548 17.056,18.179 16.378,18.539 15.646 C 18.905 14.901,18.999 14.395,19.004 13.125 L 19.008 12.180 19.525 15.260 C 20.103 18.703,20.069 18.570,20.452 18.828 C 21.028 19.215,21.785 18.914,21.967 18.227 C 22.015 18.045,21.994 17.888,21.608 15.567 C 21.383 14.210,21.199 13.071,21.199 13.035 C 21.200 12.996,21.245 12.961,21.310 12.948 C 21.485 12.913,21.745 12.700,21.867 12.492 L 21.980 12.300 21.980 10.840 C 21.980 9.579,21.970 9.334,21.907 9.040 C 21.625 7.721,20.863 6.576,19.800 5.874 C 19.046 5.375,18.396 5.135,17.552 5.043 C 17.192 5.003,5.651 4.989,5.280 5.027 M18.892 7.679 C 19.386 8.102,19.704 8.575,19.874 9.139 C 19.957 9.416,19.973 9.567,19.990 10.230 C 20.009 10.972,20.007 11.000,19.932 11.000 C 19.608 11.000,19.168 11.331,19.073 11.646 C 19.026 11.799,19.017 11.629,18.997 10.220 C 18.971 8.484,18.958 8.368,18.705 7.730 C 18.651 7.593,18.618 7.480,18.633 7.480 C 18.648 7.481,18.764 7.570,18.892 7.679 M6.310 18.061 C 6.688 18.173,7.000 18.598,7.000 19.001 C 7.000 19.331,6.784 19.696,6.484 19.872 C 6.328 19.963,6.254 19.980,6.000 19.980 C 5.746 19.980,5.672 19.963,5.516 19.872 C 4.935 19.530,4.833 18.774,5.304 18.303 C 5.583 18.024,5.916 17.944,6.310 18.061 M14.310 18.061 C 14.688 18.173,15.000 18.598,15.000 19.001 C 15.000 19.331,14.784 19.696,14.484 19.872 C 14.328 19.963,14.254 19.980,14.000 19.980 C 13.746 19.980,13.672 19.963,13.516 19.872 C 12.935 19.530,12.833 18.774,13.304 18.303 C 13.583 18.024,13.916 17.944,14.310 18.061 " stroke="none" fill-rule="evenodd" fill="black"></path></svg>