<svg xmlns="http://www.w3.org/2000/svg" width="24" height="24" viewBox="0 0 24 24" version="1.1">
	<path d="M 3.575 3.526 C 2.300 5.471, 1.987 7.941, 2.210 14.276 L 2.500 22.500 12 22.500 L 21.500 22.500 21.790 14.276 C 22.202 2.588, 21.031 1, 12 1 C 5.864 1, 5.075 1.236, 3.575 3.526 M 5.500 4 C 5.110 4.631, 7.509 5, 12 5 C 16.491 5, 18.890 4.631, 18.500 4 C 17.695 2.697, 6.305 2.697, 5.500 4 M 4 14 L 4 21 7.500 21 C 9.944 21, 11 20.548, 11 19.500 C 11 18.675, 10.325 18, 9.500 18 C 8.675 18, 8 17.550, 8 17 C 8 16.450, 8.760 16, 9.689 16 C 11.110 16, 11.031 15.677, 9.189 13.961 C 7.182 12.091, 6.185 9, 7.590 9 C 7.914 9, 9.039 10.012, 10.090 11.250 L 12 13.500 13.910 11.250 C 14.961 10.012, 16.086 9, 16.410 9 C 17.815 9, 16.818 12.091, 14.811 13.961 C 12.969 15.677, 12.890 16, 14.311 16 C 15.240 16, 16 16.450, 16 17 C 16 17.550, 15.325 18, 14.500 18 C 13.675 18, 13 18.675, 13 19.500 C 13 20.548, 14.056 21, 16.500 21 L 20 21 20 14 L 20 7 12 7 L 4 7 4 14" stroke="none" fill="#000000" fill-rule="evenodd"/>
</svg>