<svg xmlns="http://www.w3.org/2000/svg" width="24" height="24" viewBox="0 0 24 24" version="1.1">
	<path d="M 11.860 1 C 10.479 1, 8.370 2.042, 7.174 3.314 C 5.978 4.587, 5 6.822, 5 8.280 C 5 9.799, 6.281 12.389, 8 14.347 C 9.699 16.283, 11 18.899, 11 20.382 C 11 21.822, 11.450 23, 12 23 C 12.550 23, 13 21.822, 13 20.382 C 13 18.899, 14.301 16.283, 16 14.347 C 17.801 12.297, 19 9.815, 19 8.140 C 19 6.515, 18.033 4.440, 16.686 3.174 C 15.413 1.978, 13.241 1, 11.860 1 M 11.826 3 C 10.992 3, 9.565 3.823, 8.655 4.829 C 7.745 5.835, 7 7.384, 7 8.273 C 7 9.161, 8.125 11.151, 9.500 12.694 L 12 15.500 14.500 12.694 C 15.875 11.151, 17 9.083, 17 8.099 C 17 7.115, 16.177 5.565, 15.171 4.655 C 14.165 3.745, 12.660 3, 11.826 3" stroke="none" fill="black" fill-rule="evenodd"/>
</svg>