<svg xmlns="http://www.w3.org/2000/svg" width="24" height="24" viewBox="0 0 24 24" version="1.1">
	<path d="M 7.174 3.314 C 4.154 6.529, 4.435 10.287, 8 14.347 C 9.699 16.283, 11 18.899, 11 20.382 C 11 21.822, 11.450 23, 12 23 C 12.550 23, 13 21.822, 13 20.382 C 13 18.899, 14.301 16.283, 16 14.347 C 19.654 10.186, 19.899 6.193, 16.686 3.174 C 13.683 0.354, 9.904 0.409, 7.174 3.314 M 8.655 4.829 C 6.361 7.363, 6.582 9.419, 9.500 12.694 L 12 15.500 14.500 12.694 C 17.466 9.366, 17.670 6.917, 15.171 4.655 C 12.794 2.504, 10.709 2.560, 8.655 4.829" stroke="none" fill="black" fill-rule="evenodd"/>
</svg>