<svg viewBox="0 0 24 24" xmlns="http://www.w3.org/2000/svg" fill="none" stroke="#000000" stroke-width="2" stroke-linecap="round" stroke-linejoin="round"><path d="M11.540 1.023 C 10.715 1.102,10.250 1.200,9.620 1.427 C 8.648 1.777,7.802 2.316,7.059 3.059 C 5.007 5.111,4.452 8.090,5.585 10.969 C 6.408 13.060,8.151 15.238,10.527 17.146 L 10.998 17.523 11.009 19.915 L 11.020 22.306 11.141 22.503 C 11.543 23.156,12.457 23.156,12.859 22.503 L 12.980 22.306 12.991 19.915 L 13.002 17.523 13.473 17.146 C 14.792 16.087,15.957 14.902,16.867 13.691 C 17.752 12.514,18.435 11.157,18.739 9.966 C 18.933 9.212,18.976 8.864,18.977 8.060 C 18.978 7.056,18.883 6.482,18.573 5.620 C 17.715 3.237,15.581 1.473,13.102 1.098 C 12.726 1.041,11.813 0.997,11.540 1.023 M12.552 3.043 C 14.413 3.246,16.001 4.479,16.680 6.248 C 17.004 7.090,17.075 8.150,16.876 9.140 C 16.531 10.847,15.295 12.783,13.435 14.530 C 12.970 14.966,12.044 15.760,12.000 15.760 C 11.955 15.760,11.026 14.964,10.565 14.531 C 8.701 12.777,7.469 10.847,7.124 9.140 C 6.925 8.150,6.996 7.090,7.320 6.248 C 8.146 4.096,10.274 2.793,12.552 3.043 " stroke="none" fill-rule="evenodd" fill="black"></path></svg>