<svg xmlns="http://www.w3.org/2000/svg" width="24" height="24" viewBox="0 0 24 24" version="1.1">
	<path d="M 1.200 3.200 C -0.491 4.891, -0.291 8.514, 1.580 10.067 C 2.869 11.136, 3.745 11.143, 6.330 10.106 C 8.074 9.407, 10.345 8.759, 11.379 8.667 C 13.687 8.462, 17.044 3.991, 14.872 4.015 C 14.117 4.024, 12.853 4.440, 12.063 4.940 C 11.109 5.544, 9.357 5.202, 6.853 3.925 C 2.393 1.650, 2.710 1.690, 1.200 3.200 M 21 6 C 21 7.244, 20.333 8, 19.237 8 C 18.267 8, 15.117 9.587, 12.237 11.527 C 6.870 15.141, 5.557 18.157, 8.200 20.800 C 10.536 23.136, 12.909 21.959, 16.646 16.611 C 18.842 13.469, 20.952 11.428, 21.706 11.718 C 22.635 12.074, 23 11.056, 23 8.107 C 23 5.848, 22.550 4, 22 4 C 21.450 4, 21 4.900, 21 6 M 2.177 6.667 C 2.582 8.755, 4.052 9.261, 6 7.984 C 7.333 7.109, 7.333 6.891, 6 6.015 C 3.690 4.499, 1.818 4.818, 2.177 6.667 M 12.687 13.613 C 10.394 15.114, 8.999 16.752, 9.187 17.721 C 9.776 20.759, 11.631 20.041, 14.877 15.522 C 18.552 10.404, 18.139 10.045, 12.687 13.613" stroke="none" fill="#000000" fill-rule="evenodd"/>
</svg>