<svg xmlns="http://www.w3.org/2000/svg" width="24" height="24" viewBox="0 0 24 24" version="1.1">
	<path d="M 2.740 2 C 2.553 2, 1.860 2.540, 1.200 3.200 C 0.540 3.860, -0 5.380, -0 6.578 C -0 7.775, 0.711 9.345, 1.580 10.067 C 2.869 11.136, 3.745 11.143, 6.330 10.106 C 8.074 9.407, 10.345 8.759, 11.379 8.667 C 12.412 8.575, 13.930 7.488, 14.751 6.250 C 15.976 4.403, 15.998 4.003, 14.872 4.015 C 14.117 4.024, 12.853 4.440, 12.063 4.940 C 11.109 5.544, 9.357 5.202, 6.853 3.925 C 4.777 2.866, 2.927 2, 2.740 2 M 22 4 C 21.450 4, 21 4.900, 21 6 C 21 7.244, 20.333 8, 19.237 8 C 18.267 8, 15.117 9.587, 12.237 11.527 C 8.491 14.049, 7 15.700, 7 17.327 C 7 18.577, 7.540 20.140, 8.200 20.800 C 8.860 21.460, 10.183 22, 11.140 22 C 12.112 22, 14.542 19.622, 16.646 16.611 C 18.842 13.469, 20.952 11.428, 21.706 11.718 C 22.635 12.074, 23 11.056, 23 8.107 C 23 5.848, 22.550 4, 22 4 M 3.177 5.015 C 2.449 5.007, 1.999 5.750, 2.177 6.667 C 2.355 7.584, 2.950 8.477, 3.500 8.651 C 4.050 8.825, 5.175 8.525, 6 7.984 C 7.333 7.109, 7.333 6.891, 6 6.015 C 5.175 5.474, 3.905 5.024, 3.177 5.015 M 17.312 11.059 C 16.865 11.091, 14.784 12.241, 12.687 13.613 C 10.394 15.114, 8.999 16.752, 9.187 17.721 C 9.359 18.609, 9.979 19.494, 10.565 19.689 C 11.151 19.884, 13.091 18.009, 14.877 15.522 C 16.663 13.035, 17.759 11.026, 17.312 11.059" stroke="none" fill="black" fill-rule="evenodd"/>
</svg>