<svg xmlns="http://www.w3.org/2000/svg" width="24" height="24" viewBox="0 0 24 24" version="1.1">
	<path d="M 9.560 9.406 C 2.726 16.008, 1.843 18.242, 5.227 20.373 C 6.649 21.269, 7.718 20.712, 11.271 17.225 C 14.607 13.950, 15.858 13.258, 16.777 14.177 C 17.431 14.831, 18.282 15.052, 18.667 14.667 C 19.052 14.282, 18.837 13.437, 18.190 12.790 C 17.289 11.889, 17.530 11.065, 19.224 9.262 C 20.954 7.420, 21.200 6.540, 20.359 5.205 C 18.383 2.067, 16.329 2.866, 9.560 9.406 M 15.569 6.924 C 14.634 7.957, 14.289 9.061, 14.801 9.377 C 15.314 9.694, 16.497 9.108, 17.431 8.076 C 18.366 7.043, 18.711 5.939, 18.199 5.623 C 17.686 5.306, 16.503 5.892, 15.569 6.924 M 8.572 13.926 C 6.508 16.040, 5.236 18.028, 5.747 18.344 C 6.257 18.659, 8.364 17.188, 10.428 15.074 C 12.492 12.960, 13.764 10.972, 13.253 10.656 C 12.743 10.341, 10.636 11.812, 8.572 13.926" stroke="none" fill="black" fill-rule="evenodd"/>
</svg>