<svg xmlns="http://www.w3.org/2000/svg" width="24" height="24" viewBox="0 0 24 24" version="1.1">
	<path d="M 1.425 6.334 C 1.129 7.106, 1.024 10.160, 1.193 13.119 L 1.500 18.500 12 18.500 L 22.500 18.500 22.500 12 L 22.500 5.500 12.232 5.215 C 4.143 4.990, 1.850 5.228, 1.425 6.334 M 3 12 L 3 17 12 17 L 21 17 21 12 L 21 7 12 7 L 3 7 3 12 M 9.389 10.430 C 8.393 13.025, 9.788 15.169, 12.246 14.820 C 15.450 14.365, 15.450 9.635, 12.246 9.180 C 10.893 8.988, 9.750 9.488, 9.389 10.430 M 5 12 C 5 12.550, 5.450 13, 6 13 C 6.550 13, 7 12.550, 7 12 C 7 11.450, 6.550 11, 6 11 C 5.450 11, 5 11.450, 5 12 M 11 12 C 11 12.550, 11.450 13, 12 13 C 12.550 13, 13 12.550, 13 12 C 13 11.450, 12.550 11, 12 11 C 11.450 11, 11 11.450, 11 12 M 17 12 C 17 12.550, 17.450 13, 18 13 C 18.550 13, 19 12.550, 19 12 C 19 11.450, 18.550 11, 18 11 C 17.450 11, 17 11.450, 17 12" stroke="none" fill="black" fill-rule="evenodd"/>
</svg>