<svg xmlns="http://www.w3.org/2000/svg" width="24" height="24" viewBox="0 0 24 24" version="1.1">
	<path d="M 5.754 6.779 C -1.434 10.900, -0.386 12.768, 7 9 C 11.901 6.500, 13.725 6.500, 17.500 9 C 20.758 11.157, 23 11.572, 23 10.017 C 23 8.912, 13.770 3.984, 11.783 4.029 C 11.077 4.044, 8.364 5.282, 5.754 6.779 M 11 12 C 11 13.650, 11.450 15, 12 15 C 12.550 15, 13 13.650, 13 12 C 13 10.350, 12.550 9, 12 9 C 11.450 9, 11 10.350, 11 12 M 4 16.500 C 4 18.425, 3.550 20, 3 20 C 2.450 20, 2 20.450, 2 21 C 2 21.600, 6 22, 12 22 C 18 22, 22 21.600, 22 21 C 22 20.450, 21.550 20, 21 20 C 20.450 20, 20 18.425, 20 16.500 C 20 14.575, 19.550 13, 19 13 C 18.450 13, 18 14.575, 18 16.500 L 18 20 12 20 L 6 20 6 16.500 C 6 14.575, 5.550 13, 5 13 C 4.450 13, 4 14.575, 4 16.500" stroke="none" fill="#000000" fill-rule="evenodd"/>
</svg>