<svg xmlns="http://www.w3.org/2000/svg" width="24" height="24" viewBox="0 0 24 24" version="1.1">
	<path d="M 11.783 4.029 C 11.077 4.044, 8.364 5.282, 5.754 6.779 C 3.144 8.275, 1.006 9.838, 1.004 10.250 C 1.002 10.662, 1.468 11, 2.040 11 C 2.612 11, 4.844 10.100, 7 9 C 9.156 7.900, 11.726 7.003, 12.710 7.007 C 13.695 7.010, 15.850 7.907, 17.500 9 C 19.150 10.093, 21.063 10.990, 21.750 10.993 C 22.438 10.997, 23 10.558, 23 10.017 C 23 9.476, 20.765 7.901, 18.033 6.517 C 15.302 5.133, 12.489 4.013, 11.783 4.029 M 12 9 C 11.450 9, 11 10.350, 11 12 C 11 13.650, 11.450 15, 12 15 C 12.550 15, 13 13.650, 13 12 C 13 10.350, 12.550 9, 12 9 M 5 13 C 4.450 13, 4 14.575, 4 16.500 C 4 18.425, 3.550 20, 3 20 C 2.450 20, 2 20.450, 2 21 C 2 21.600, 6 22, 12 22 C 18 22, 22 21.600, 22 21 C 22 20.450, 21.550 20, 21 20 C 20.450 20, 20 18.425, 20 16.500 C 20 14.575, 19.550 13, 19 13 C 18.450 13, 18 14.575, 18 16.500 L 18 20 12 20 L 6 20 6 16.500 C 6 14.575, 5.550 13, 5 13" stroke="none" fill="black" fill-rule="evenodd"/>
</svg>