<svg xmlns="http://www.w3.org/2000/svg" width="24" height="24" viewBox="0 0 24 24" version="1.1">
	<path d="M 2 12 C 2 19.333, 2.167 20, 4 20 C 5.833 20, 6 19.333, 6 12 C 6 4.667, 5.833 4, 4 4 C 2.167 4, 2 4.667, 2 12 M 7 12 C 7 16.667, 7.417 20, 8 20 C 8.583 20, 9 16.667, 9 12 C 9 7.333, 8.583 4, 8 4 C 7.417 4, 7 7.333, 7 12 M 11 12 C 11 16.667, 11.417 20, 12 20 C 12.583 20, 13 16.667, 13 12 C 13 7.333, 12.583 4, 12 4 C 11.417 4, 11 7.333, 11 12 M 14 12 C 14 19.333, 14.167 20, 16 20 C 17.833 20, 18 19.333, 18 12 C 18 4.667, 17.833 4, 16 4 C 14.167 4, 14 4.667, 14 12 M 20 12 C 20 16.667, 20.417 20, 21 20 C 21.583 20, 22 16.667, 22 12 C 22 7.333, 21.583 4, 21 4 C 20.417 4, 20 7.333, 20 12" stroke="none" fill="#000000" fill-rule="evenodd"/>
</svg>