<svg viewBox="0 0 24 24" xmlns="http://www.w3.org/2000/svg" fill="none" stroke="#000000" stroke-width="2" stroke-linecap="round" stroke-linejoin="round"><path d="M2.695 4.057 C 2.466 4.129,2.256 4.299,2.128 4.516 L 2.020 4.700 2.010 11.914 C 2.003 16.668,2.013 19.179,2.039 19.278 C 2.099 19.498,2.291 19.739,2.508 19.867 C 2.673 19.964,2.743 19.980,3.000 19.980 C 3.257 19.980,3.327 19.964,3.492 19.867 C 3.700 19.745,3.913 19.485,3.948 19.310 C 3.960 19.249,3.984 19.200,4.000 19.200 C 4.016 19.200,4.040 19.249,4.052 19.310 C 4.087 19.485,4.300 19.745,4.508 19.867 C 4.673 19.964,4.743 19.980,5.000 19.980 C 5.257 19.980,5.327 19.964,5.492 19.867 C 5.709 19.739,5.901 19.498,5.961 19.278 C 5.987 19.179,5.997 16.668,5.990 11.914 L 5.980 4.700 5.871 4.514 C 5.572 4.006,4.906 3.858,4.423 4.192 C 4.255 4.307,4.040 4.609,4.040 4.728 C 4.040 4.768,4.022 4.800,4.000 4.800 C 3.978 4.800,3.960 4.770,3.960 4.734 C 3.960 4.621,3.771 4.338,3.618 4.221 C 3.350 4.017,3.014 3.957,2.695 4.057 M7.695 4.057 C 7.466 4.129,7.256 4.299,7.128 4.516 L 7.020 4.700 7.020 12.003 L 7.020 19.306 7.141 19.503 C 7.543 20.156,8.457 20.156,8.859 19.503 L 8.980 19.306 8.980 12.003 L 8.980 4.700 8.872 4.516 C 8.628 4.101,8.150 3.915,7.695 4.057 M11.695 4.057 C 11.466 4.129,11.256 4.299,11.128 4.516 L 11.020 4.700 11.020 12.003 L 11.020 19.306 11.141 19.503 C 11.543 20.156,12.457 20.156,12.859 19.503 L 12.980 19.306 12.980 12.003 L 12.980 4.700 12.872 4.516 C 12.628 4.101,12.150 3.915,11.695 4.057 M14.695 4.057 C 14.466 4.129,14.256 4.299,14.128 4.516 L 14.020 4.700 14.010 11.914 C 14.003 16.668,14.013 19.179,14.039 19.278 C 14.099 19.498,14.291 19.739,14.508 19.867 C 14.673 19.964,14.743 19.980,15.000 19.980 C 15.257 19.980,15.327 19.964,15.492 19.867 C 15.700 19.745,15.913 19.485,15.948 19.310 C 15.960 19.249,15.983 19.200,16.000 19.200 C 16.017 19.200,16.040 19.249,16.052 19.310 C 16.087 19.485,16.300 19.745,16.508 19.867 C 16.673 19.964,16.743 19.980,17.000 19.980 C 17.257 19.980,17.327 19.964,17.492 19.867 C 17.709 19.739,17.901 19.498,17.961 19.278 C 17.987 19.179,17.997 16.668,17.990 11.914 L 17.980 4.700 17.871 4.514 C 17.572 4.006,16.906 3.858,16.423 4.192 C 16.255 4.307,16.040 4.609,16.040 4.728 C 16.040 4.768,16.022 4.800,16.000 4.800 C 15.978 4.800,15.960 4.770,15.960 4.734 C 15.960 4.621,15.771 4.338,15.618 4.221 C 15.350 4.017,15.014 3.957,14.695 4.057 M20.695 4.057 C 20.466 4.129,20.256 4.299,20.128 4.516 L 20.020 4.700 20.020 12.003 L 20.020 19.306 20.141 19.503 C 20.543 20.156,21.457 20.156,21.859 19.503 L 21.980 19.306 21.980 12.003 L 21.980 4.700 21.872 4.516 C 21.628 4.101,21.150 3.915,20.695 4.057 " stroke="none" fill-rule="evenodd" fill="black"></path></svg>