<svg xmlns="http://www.w3.org/2000/svg" width="24" height="24" viewBox="0 0 24 24" version="1.1">
	<path d="M 13.403 1.438 C 11.256 1.210, 8.600 1.416, 7.500 1.894 C 6.400 2.373, 4.600 3.764, 3.500 4.987 C 2.078 6.568, 1.500 8.618, 1.500 12.082 C 1.500 16.074, 2.001 17.456, 4.273 19.727 C 6.557 22.011, 7.919 22.500, 12 22.500 C 16.081 22.500, 17.443 22.011, 19.727 19.727 C 22.011 17.443, 22.500 16.081, 22.500 12 C 22.500 7.999, 22 6.546, 19.903 4.448 C 18.256 2.802, 15.876 1.699, 13.403 1.438 M 9.813 3.479 C 9.609 3.276, 8.835 3.484, 8.093 3.943 C 7.327 4.416, 7.075 5.313, 7.510 6.017 C 8.084 6.945, 8.517 6.828, 9.230 5.553 C 9.754 4.617, 10.017 3.683, 9.813 3.479 M 13.656 3 C 12.793 3, 11.869 4.320, 11.474 6.117 C 10.948 8.511, 11.251 9.695, 12.778 11.222 C 14.305 12.749, 15.489 13.052, 17.883 12.526 C 19.680 12.131, 21 11.207, 21 10.344 C 21 9.520, 19.685 7.531, 18.077 5.923 C 16.469 4.315, 14.480 3, 13.656 3 M 4.867 7 C 4.464 7, 3.838 7.934, 3.476 9.075 C 3.114 10.217, 2.971 11.286, 3.159 11.451 C 3.346 11.616, 4.512 12.063, 5.750 12.443 C 7.527 12.989, 8 12.742, 8 11.267 C 8 10.240, 7.460 8.860, 6.800 8.200 C 6.140 7.540, 5.270 7, 4.867 7 M 5.039 14.478 C 2.657 13.755, 2.627 13.806, 4.112 16.042 C 4.956 17.313, 6.687 19.044, 7.958 19.888 C 10.194 21.373, 10.245 21.343, 9.522 18.961 C 9.111 17.608, 8.488 16.213, 8.138 15.862 C 7.787 15.512, 6.392 14.889, 5.039 14.478 M 20.219 14.079 C 19.823 14.122, 18.935 14.386, 18.244 14.664 C 17.553 14.943, 17.242 15.582, 17.553 16.085 C 17.864 16.588, 18.493 17, 18.952 17 C 19.411 17, 20.045 16.325, 20.362 15.500 C 20.678 14.675, 20.614 14.036, 20.219 14.079 M 12.771 16 C 11.372 16, 10.965 16.467, 11.393 17.582 C 11.727 18.452, 12 19.577, 12 20.082 C 12 20.587, 12.563 20.993, 13.250 20.985 C 13.938 20.976, 15.146 20.561, 15.936 20.061 C 17.126 19.308, 17.147 18.883, 16.063 17.576 C 15.344 16.709, 13.862 16, 12.771 16" stroke="none" fill="black" fill-rule="evenodd"/>
</svg>