<svg xmlns="http://www.w3.org/2000/svg" width="24" height="24" viewBox="0 0 24 24" version="1.1">
	<path d="M 7.500 1.894 C 3.457 3.652, 1.500 6.976, 1.500 12.082 C 1.500 16.074, 2.001 17.456, 4.273 19.727 C 6.557 22.011, 7.919 22.500, 12 22.500 C 19.011 22.500, 22.500 19.011, 22.500 12 C 22.500 7.999, 22 6.546, 19.903 4.448 C 17.099 1.644, 10.974 0.383, 7.500 1.894 M 8.093 3.943 C 7.327 4.416, 7.075 5.313, 7.510 6.017 C 8.084 6.945, 8.517 6.828, 9.230 5.553 C 10.387 3.486, 9.914 2.817, 8.093 3.943 M 11.474 6.117 C 10.512 10.499, 13.501 13.488, 17.883 12.526 C 21.799 11.666, 21.857 9.703, 18.077 5.923 C 14.297 2.143, 12.334 2.201, 11.474 6.117 M 3.476 9.075 C 2.717 11.468, 2.753 11.522, 5.750 12.443 C 7.527 12.989, 8 12.742, 8 11.267 C 8 9.396, 6.241 7, 4.867 7 C 4.464 7, 3.838 7.934, 3.476 9.075 M 4.112 16.042 C 4.956 17.313, 6.687 19.044, 7.958 19.888 C 10.194 21.373, 10.245 21.343, 9.522 18.961 C 8.592 15.895, 8.105 15.408, 5.039 14.478 C 2.657 13.755, 2.627 13.806, 4.112 16.042 M 18.244 14.664 C 17.553 14.943, 17.242 15.582, 17.553 16.085 C 18.403 17.460, 19.714 17.187, 20.362 15.500 C 20.950 13.965, 20.459 13.771, 18.244 14.664 M 11.393 17.582 C 11.727 18.452, 12 19.577, 12 20.082 C 12 21.251, 14.073 21.240, 15.936 20.061 C 17.126 19.308, 17.147 18.883, 16.063 17.576 C 14.294 15.445, 10.575 15.449, 11.393 17.582" stroke="none" fill="#000000" fill-rule="evenodd"/>
</svg>