<svg viewBox="0 0 24 24" xmlns="http://www.w3.org/2000/svg" fill="none" stroke="#000000" stroke-width="2" stroke-linecap="round" stroke-linejoin="round"><path d="M11.280 1.023 C 11.203 1.032,10.951 1.059,10.720 1.083 C 8.832 1.283,6.991 2.023,5.360 3.235 C 4.751 3.688,3.684 4.755,3.226 5.367 C 0.728 8.714,0.301 13.032,2.097 16.780 C 2.643 17.918,3.276 18.801,4.238 19.762 C 5.199 20.724,6.082 21.357,7.220 21.903 C 10.967 23.699,15.288 23.270,18.637 20.770 C 19.246 20.316,20.316 19.246,20.770 18.637 C 23.744 14.652,23.744 9.348,20.770 5.363 C 20.316 4.755,19.247 3.686,18.640 3.235 C 17.045 2.049,15.365 1.360,13.423 1.096 C 13.000 1.038,11.574 0.990,11.280 1.023 M13.315 3.102 C 15.863 3.475,18.122 4.929,19.560 7.120 C 19.863 7.583,20.303 8.479,20.492 9.020 C 20.735 9.717,20.960 10.803,20.960 11.278 L 20.960 11.446 20.270 11.778 C 19.077 12.353,17.969 12.759,16.731 13.076 C 16.032 13.254,15.132 13.440,14.967 13.440 C 14.879 13.440,14.475 13.055,12.710 11.290 C 11.279 9.859,10.560 9.113,10.560 9.059 C 10.560 8.900,10.766 7.891,10.924 7.280 C 11.274 5.922,11.739 4.678,12.358 3.443 L 12.561 3.040 12.725 3.040 C 12.816 3.040,13.081 3.068,13.315 3.102 M10.186 3.350 C 9.803 4.114,9.169 5.956,8.918 7.035 L 8.831 7.410 7.617 6.197 C 6.447 5.027,6.405 4.980,6.471 4.907 C 6.615 4.748,7.511 4.186,8.015 3.939 C 8.624 3.640,9.161 3.440,9.780 3.279 C 10.022 3.217,10.234 3.164,10.251 3.163 C 10.268 3.161,10.238 3.246,10.186 3.350 M8.389 10.220 C 8.367 10.418,8.347 11.196,8.344 11.950 C 8.342 12.859,8.326 13.320,8.299 13.320 C 8.276 13.320,7.898 13.231,7.459 13.121 C 6.083 12.779,4.989 12.385,3.730 11.778 L 3.040 11.446 3.040 11.278 C 3.040 10.803,3.265 9.717,3.508 9.020 C 3.785 8.227,4.383 7.118,4.831 6.566 L 4.972 6.392 6.701 8.126 L 8.430 9.860 8.389 10.220 M11.971 13.673 C 11.598 13.691,10.504 13.639,10.440 13.600 C 10.384 13.565,10.325 12.842,10.322 12.140 L 10.320 11.741 11.281 12.700 L 12.241 13.660 11.971 13.673 M4.260 14.199 C 5.469 14.679,6.982 15.115,8.225 15.340 L 8.589 15.406 8.692 15.933 C 8.982 17.418,9.406 18.815,9.968 20.140 C 10.298 20.917,10.295 20.845,9.994 20.778 C 9.073 20.570,7.818 20.032,7.040 19.511 C 6.019 18.826,5.122 17.919,4.440 16.880 C 3.962 16.151,3.485 15.056,3.282 14.220 C 3.234 14.022,3.186 13.829,3.175 13.791 C 3.159 13.735,3.215 13.750,3.468 13.865 C 3.639 13.944,3.996 14.094,4.260 14.199 M20.753 14.090 C 20.538 15.019,20.042 16.155,19.489 16.982 C 19.313 17.245,19.135 17.491,19.093 17.529 C 19.020 17.595,18.973 17.553,17.803 16.383 L 16.590 15.169 17.045 15.061 C 18.114 14.806,19.572 14.307,20.480 13.886 C 20.623 13.820,20.760 13.765,20.785 13.763 C 20.815 13.761,20.805 13.866,20.753 14.090 M15.878 17.298 C 16.834 18.255,17.608 19.044,17.598 19.053 C 17.588 19.061,17.445 19.167,17.280 19.288 C 16.292 20.010,15.001 20.576,13.791 20.817 C 13.162 20.943,12.608 20.999,12.563 20.942 C 12.419 20.763,11.727 19.217,11.472 18.504 C 11.171 17.664,10.852 16.536,10.702 15.780 L 10.678 15.660 12.049 15.655 C 13.150 15.651,13.928 15.618,14.120 15.565 C 14.131 15.562,14.922 16.342,15.878 17.298 " stroke="none" fill-rule="evenodd" fill="black"></path></svg>