<svg xmlns="http://www.w3.org/2000/svg" width="24" height="24" viewBox="0 0 24 24" version="1.1">
	<path d="M 5.590 8 C 4.886 8, 3.565 8.823, 2.655 9.829 C 1.745 10.835, 1 11.960, 1 12.329 C 1 12.698, 1.865 13, 2.923 13 C 3.981 13, 6.196 14.350, 7.846 16 C 9.911 18.065, 11.829 19, 14 19 C 16.152 19, 18.082 18.072, 20.077 16.077 C 21.685 14.469, 23 12.739, 23 12.232 C 23 11.725, 22.095 10.491, 20.989 9.490 C 19.277 7.941, 18.447 7.834, 15.389 8.773 C 13.051 9.490, 10.940 9.548, 9.335 8.937 C 7.979 8.422, 6.294 8, 5.590 8 M 5.724 10 C 5.157 10, 6.315 11.575, 8.297 13.500 C 10.279 15.425, 12.762 17, 13.816 17 C 14.869 17, 16.952 16.039, 18.444 14.865 C 20.895 12.938, 21.008 12.579, 19.610 11.182 C 18.213 9.784, 17.881 9.797, 16.202 11.317 C 15.179 12.243, 13.196 13, 11.794 13 C 10.392 13, 8.685 12.325, 8 11.500 C 7.315 10.675, 6.291 10, 5.724 10" stroke="none" fill="black" fill-rule="evenodd"/>
</svg>