<svg viewBox="0 0 24 24" xmlns="http://www.w3.org/2000/svg" fill="none" stroke="#000000" stroke-width="2" stroke-linecap="round" stroke-linejoin="round"><path d="M5.580 8.064 C 4.612 8.207,3.889 8.561,2.944 9.356 C 2.355 9.851,1.399 10.993,1.132 11.520 C 0.973 11.833,0.972 12.219,1.131 12.489 C 1.192 12.592,1.304 12.725,1.381 12.783 C 1.656 12.993,1.687 12.996,3.570 12.998 L 5.319 13.000 5.498 13.356 C 6.075 14.506,6.812 15.526,7.686 16.389 C 9.069 17.753,10.607 18.550,12.500 18.884 C 12.947 18.962,13.157 18.975,14.000 18.975 C 14.843 18.975,15.053 18.962,15.500 18.884 C 17.434 18.543,19.003 17.715,20.408 16.293 C 21.502 15.186,22.450 13.708,22.930 12.360 C 23.090 11.912,22.994 11.619,22.451 10.890 C 21.321 9.375,20.061 8.419,18.820 8.135 C 18.406 8.040,17.652 8.040,17.267 8.134 C 16.647 8.285,16.075 8.599,15.495 9.108 L 15.180 9.383 14.965 9.254 C 14.406 8.916,13.570 8.928,12.983 9.281 C 12.542 9.546,12.123 10.110,12.054 10.531 C 12.020 10.743,11.973 10.749,11.943 10.547 C 11.878 10.111,11.470 9.553,11.017 9.281 C 10.430 8.928,9.594 8.916,9.035 9.254 L 8.820 9.383 8.516 9.117 C 7.935 8.609,7.402 8.309,6.808 8.157 C 6.509 8.080,5.822 8.028,5.580 8.064 M6.548 10.179 C 6.886 10.333,7.137 10.538,7.342 10.824 C 7.444 10.968,7.653 11.214,7.807 11.373 C 7.960 11.531,8.141 11.768,8.208 11.900 C 8.360 12.197,8.789 12.633,9.070 12.775 C 9.507 12.996,10.038 13.059,10.490 12.941 C 10.676 12.892,10.757 12.890,10.948 12.930 C 11.254 12.993,12.746 12.993,13.052 12.930 C 13.243 12.890,13.324 12.892,13.510 12.941 C 13.962 13.059,14.493 12.996,14.930 12.775 C 15.211 12.633,15.640 12.197,15.792 11.900 C 15.859 11.768,16.040 11.531,16.193 11.373 C 16.347 11.214,16.556 10.968,16.658 10.824 C 16.865 10.535,17.112 10.335,17.466 10.171 C 17.882 9.978,18.468 10.034,18.960 10.313 C 19.541 10.643,20.071 11.110,20.567 11.732 L 20.879 12.123 20.718 12.443 C 20.059 13.756,19.129 14.903,18.105 15.669 C 15.727 17.447,12.273 17.447,9.895 15.669 C 8.694 14.770,7.550 13.241,6.981 11.773 C 6.843 11.417,6.696 11.235,6.450 11.114 C 6.269 11.024,6.210 11.019,5.183 11.000 L 4.107 10.980 4.355 10.777 C 4.797 10.415,5.321 10.142,5.720 10.065 C 5.933 10.024,6.330 10.079,6.548 10.179 " stroke="none" fill-rule="evenodd" fill="black"></path></svg>