<svg xmlns="http://www.w3.org/2000/svg" width="24" height="24" viewBox="0 0 24 24" version="1.1">
	<path d="M 2.655 9.829 C 0.499 12.211, 0.566 13, 2.923 13 C 3.981 13, 6.196 14.350, 7.846 16 C 11.856 20.009, 16.118 20.036, 20.077 16.077 C 23.540 12.614, 23.640 11.890, 20.989 9.490 C 19.277 7.941, 18.447 7.834, 15.389 8.773 C 13.051 9.490, 10.940 9.548, 9.335 8.937 C 5.799 7.593, 4.525 7.763, 2.655 9.829 M 8.297 13.500 C 12.462 17.545, 14.661 17.841, 18.444 14.865 C 20.895 12.938, 21.008 12.579, 19.610 11.182 C 18.213 9.784, 17.881 9.797, 16.202 11.317 C 13.896 13.404, 9.659 13.499, 8 11.500 C 7.315 10.675, 6.291 10, 5.724 10 C 5.157 10, 6.315 11.575, 8.297 13.500" stroke="none" fill="black" fill-rule="evenodd"/>
</svg>