<svg viewBox="0 0 24 24" xmlns="http://www.w3.org/2000/svg" fill="none" stroke="#000000" stroke-width="2" stroke-linecap="round" stroke-linejoin="round"><path d="M5.580 4.095 C 5.340 4.209,5.193 4.358,5.083 4.600 C 5.005 4.774,5.002 4.854,5.001 6.885 L 5.000 8.990 4.714 9.018 C 3.505 9.137,2.513 9.947,2.114 11.140 L 2.021 11.420 2.009 14.704 L 1.997 17.988 1.784 18.036 C 1.515 18.096,1.270 18.275,1.129 18.514 C 1.036 18.672,1.020 18.745,1.020 19.000 C 1.020 19.256,1.036 19.328,1.131 19.489 C 1.256 19.702,1.449 19.864,1.670 19.943 C 1.893 20.023,22.107 20.023,22.330 19.943 C 22.551 19.864,22.744 19.702,22.869 19.489 C 22.964 19.328,22.980 19.256,22.980 19.000 C 22.980 18.745,22.964 18.672,22.871 18.514 C 22.730 18.275,22.485 18.096,22.216 18.036 L 22.003 17.988 21.991 14.704 L 21.979 11.420 21.886 11.140 C 21.558 10.159,20.821 9.425,19.861 9.121 L 19.540 9.020 13.270 9.009 L 7.000 8.998 7.000 8.213 L 7.000 7.428 7.212 7.629 C 7.477 7.879,7.632 7.961,7.895 7.988 C 8.295 8.029,8.662 7.842,8.867 7.492 C 8.964 7.327,8.980 7.258,8.979 7.000 C 8.979 6.787,8.957 6.659,8.905 6.560 C 8.864 6.483,8.334 5.919,7.726 5.306 C 6.510 4.080,6.405 4.001,6.000 4.001 C 5.852 4.001,5.715 4.032,5.580 4.095 M19.310 11.061 C 19.589 11.144,19.856 11.411,19.939 11.690 C 19.991 11.865,20.000 12.331,20.000 14.947 L 20.000 18.000 12.000 18.000 L 4.000 18.000 4.000 14.947 C 4.000 12.331,4.009 11.865,4.061 11.690 C 4.140 11.421,4.412 11.143,4.673 11.063 C 4.964 10.974,19.009 10.971,19.310 11.061 " stroke="none" fill-rule="evenodd" fill="black"></path></svg>