<svg xmlns="http://www.w3.org/2000/svg" width="24" height="24" viewBox="0 0 24 24" version="1.1">
	<path d="M 5 6.140 C 5 7.317, 4.375 8.779, 3.612 9.390 C 2.849 10, 2.004 12.637, 1.735 15.250 L 1.246 20 12.028 20 L 22.810 20 22.323 15.750 C 21.533 8.863, 21.708 9.001, 13.781 8.985 C 9.024 8.975, 6.998 8.654, 7.936 8.061 C 9.126 7.308, 9.147 6.883, 8.063 5.576 C 6.242 3.382, 5 3.610, 5 6.140 M 4 14.500 L 4 18 12 18 L 20 18 20 14.500 L 20 11 12 11 L 4 11 4 14.500" stroke="none" fill="black" fill-rule="evenodd"/>
</svg>