<svg xmlns="http://www.w3.org/2000/svg" width="24" height="24" viewBox="0 0 24 24" version="1.1">
	<path d="M 7.664 3.432 C 7.362 4.220, 5.626 5.008, 3.807 5.182 L 0.500 5.500 0.500 12 L 0.500 18.500 10 18.500 L 19.500 18.500 19.500 12 L 19.500 5.500 14.750 5.195 C 11.415 4.981, 10 4.460, 10 3.445 C 10 1.581, 8.378 1.572, 7.664 3.432 M 2 12 L 2 17 10 17 L 18 17 18 12 L 18 7 13.250 7.116 C 10.637 7.180, 9.287 7.438, 10.250 7.689 C 12.303 8.226, 12.359 8.671, 10.902 12.851 C 9.493 16.892, 7.620 17.008, 8.500 13 C 9.015 10.655, 8.814 10, 7.579 10 C 6.711 10, 6 9.325, 6 8.500 C 6 7.667, 5.111 7, 4 7 C 2.267 7, 2 7.667, 2 12 M 22 12 C 22 13.100, 22.450 14, 23 14 C 23.550 14, 24 13.100, 24 12 C 24 10.900, 23.550 10, 23 10 C 22.450 10, 22 10.900, 22 12" stroke="none" fill="#000000" fill-rule="evenodd"/>
</svg>