<svg xmlns="http://www.w3.org/2000/svg" width="24" height="24" viewBox="0 0 24 24" version="1.1">
	<path d="M 10.233 5.212 C 2.993 4.987, 0.848 5.232, 0.426 6.331 C 0.129 7.105, 0.024 10.160, 0.193 13.119 L 0.500 18.500 10 18.500 L 19.500 18.500 19.500 12 L 19.500 5.500 10.233 5.212 M 5.579 7 L 2 7 2 12.057 L 2 17.115 6.241 16.807 C 9.335 16.583, 10.573 16.027, 10.815 14.750 C 11.022 13.655, 10.528 13, 9.494 13 C 8.178 13, 7.975 12.389, 8.500 10 C 9.136 7.103, 9.036 7, 5.579 7 M 15.167 7 C 13.608 7, 12.033 7.300, 11.667 7.667 C 11.300 8.033, 11 8.933, 11 9.667 C 11 10.400, 11.711 11, 12.579 11 C 13.814 11, 14.015 11.655, 13.500 14 C 12.901 16.728, 13.075 17, 15.421 17 C 17.849 17, 18 16.708, 18 12 C 18 7.176, 17.900 7, 15.167 7 M 23 10 C 22.450 10, 22 10.900, 22 12 C 22 13.100, 22.450 14, 23 14 C 23.550 14, 24 13.100, 24 12 C 24 10.900, 23.550 10, 23 10" stroke="none" fill="black" fill-rule="evenodd"/>
</svg>