<svg xmlns="http://www.w3.org/2000/svg" width="24" height="24" viewBox="0 0 24 24" version="1.1">
	<path d="M 12 2 C 10.052 2, 8.002 2.907, 6.455 4.455 C 4.787 6.122, 4 8.027, 4 10.396 C 4 12.313, 4.562 14.229, 5.249 14.654 C 5.936 15.078, 7.398 15.442, 8.499 15.463 C 10.081 15.492, 10.565 16.285, 10.810 19.250 C 10.981 21.313, 11.516 23, 12 23 C 12.484 23, 13.019 21.313, 13.190 19.250 C 13.447 16.145, 13.892 15.480, 15.782 15.385 C 17.037 15.322, 18.234 15.097, 18.442 14.885 C 18.651 14.673, 19.132 12.837, 19.512 10.805 C 20.099 7.663, 19.820 6.729, 17.646 4.555 C 16.008 2.917, 13.982 2, 12 2 M 12 6 C 10.485 6, 8.685 6.675, 8 7.500 C 6.920 8.801, 7.451 9, 12 9 C 16.549 9, 17.080 8.801, 16 7.500 C 15.315 6.675, 13.515 6, 12 6" stroke="none" fill="black" fill-rule="evenodd"/>
</svg>