<svg viewBox="0 0 24 24" xmlns="http://www.w3.org/2000/svg" fill="none" stroke="#000000" stroke-width="2" stroke-linecap="round" stroke-linejoin="round"><path d="M11.207 2.043 C 10.294 2.131,9.352 2.400,8.501 2.817 C 5.988 4.045,4.328 6.431,4.037 9.232 C 3.974 9.839,4.001 10.266,4.113 10.457 C 4.198 10.600,4.200 10.642,4.201 11.932 C 4.201 13.432,4.225 13.628,4.465 14.120 C 4.578 14.351,4.691 14.499,4.956 14.761 C 5.480 15.279,5.985 15.490,6.700 15.490 C 7.346 15.490,7.888 15.285,8.342 14.870 L 8.602 14.631 8.812 14.829 C 8.928 14.939,9.101 15.077,9.196 15.138 C 9.609 15.398,10.258 15.543,10.749 15.485 L 10.998 15.455 11.009 18.881 L 11.020 22.306 11.141 22.503 C 11.543 23.156,12.457 23.156,12.859 22.503 L 12.980 22.306 12.991 18.881 L 13.002 15.455 13.251 15.485 C 13.754 15.545,14.427 15.389,14.823 15.122 L 15.000 15.003 15.177 15.122 C 15.758 15.514,16.679 15.605,17.384 15.340 C 18.143 15.054,18.776 14.322,18.940 13.540 C 18.983 13.332,18.999 12.969,18.999 12.135 L 19.000 11.009 19.179 10.982 C 19.420 10.946,19.712 10.742,19.856 10.508 C 20.002 10.271,20.033 9.903,19.963 9.232 C 19.806 7.723,19.240 6.295,18.325 5.100 C 18.055 4.747,17.510 4.190,17.100 3.847 C 15.483 2.494,13.337 1.837,11.207 2.043 M13.260 5.792 C 14.885 6.146,16.353 7.216,17.198 8.662 C 17.287 8.814,17.360 8.953,17.360 8.969 C 17.360 8.986,14.948 9.000,12.000 9.000 C 9.052 9.000,6.640 8.986,6.640 8.969 C 6.640 8.920,6.948 8.408,7.148 8.123 C 7.436 7.716,8.165 7.017,8.621 6.714 C 9.481 6.141,10.207 5.864,11.260 5.705 C 11.326 5.695,11.722 5.693,12.140 5.700 C 12.706 5.710,12.992 5.733,13.260 5.792 M7.200 12.044 C 7.200 12.914,7.189 13.110,7.137 13.222 C 7.052 13.400,6.909 13.487,6.700 13.487 C 6.491 13.487,6.348 13.400,6.263 13.222 C 6.211 13.110,6.200 12.914,6.200 12.044 L 6.200 11.000 6.700 11.000 L 7.200 11.000 7.200 12.044 M11.000 12.044 C 11.000 12.914,10.989 13.110,10.937 13.222 C 10.852 13.400,10.709 13.487,10.500 13.487 C 10.291 13.487,10.148 13.400,10.063 13.222 C 10.011 13.110,10.000 12.914,10.000 12.044 L 10.000 11.000 10.500 11.000 L 11.000 11.000 11.000 12.044 M14.000 12.044 C 14.000 12.914,13.989 13.110,13.937 13.222 C 13.852 13.400,13.709 13.487,13.500 13.487 C 13.291 13.487,13.148 13.400,13.063 13.222 C 13.011 13.110,13.000 12.914,13.000 12.044 L 13.000 11.000 13.500 11.000 L 14.000 11.000 14.000 12.044 M17.000 12.044 C 17.000 12.914,16.989 13.110,16.937 13.222 C 16.852 13.400,16.709 13.487,16.500 13.487 C 16.291 13.487,16.148 13.400,16.063 13.222 C 16.011 13.110,16.000 12.914,16.000 12.044 L 16.000 11.000 16.500 11.000 L 17.000 11.000 17.000 12.044 " stroke="none" fill-rule="evenodd" fill="black"></path></svg>