<svg xmlns="http://www.w3.org/2000/svg" width="24" height="24" viewBox="0 0 24 24" version="1.1">
	<path d="M 6.455 4.455 C 4.787 6.122, 4 8.027, 4 10.396 C 4 14.064, 5.187 15.401, 8.499 15.463 C 10.081 15.492, 10.565 16.285, 10.810 19.250 C 11.212 24.099, 12.788 24.099, 13.190 19.250 C 13.447 16.145, 13.892 15.480, 15.782 15.385 C 18.673 15.239, 18.687 15.222, 19.512 10.805 C 20.099 7.663, 19.820 6.729, 17.646 4.555 C 14.297 1.206, 9.744 1.165, 6.455 4.455 M 8 7.500 C 6.920 8.801, 7.451 9, 12 9 C 16.549 9, 17.080 8.801, 16 7.500 C 15.315 6.675, 13.515 6, 12 6 C 10.485 6, 8.685 6.675, 8 7.500" stroke="none" fill="#000000" fill-rule="evenodd"/>
</svg>