<svg xmlns="http://www.w3.org/2000/svg" width="24" height="24" viewBox="0 0 24 24" version="1.1">
	<path d="M 3.200 3.200 C 1.656 4.744, 1.666 7.266, 3.223 8.823 C 3.896 9.496, 4.312 11.598, 4.149 13.494 C 3.924 16.100, 4.470 17.561, 6.380 19.471 C 11.662 24.753, 20.484 20.839, 19.851 13.494 C 19.688 11.598, 20.104 9.496, 20.777 8.823 C 23.320 6.280, 21.457 2, 17.808 2 C 16.823 2, 15.455 2.900, 14.768 4 C 14.081 5.100, 12.835 6, 12 6 C 11.165 6, 9.919 5.100, 9.232 4 C 7.833 1.759, 5.015 1.385, 3.200 3.200 M 4.446 5.087 C 3.416 6.755, 5.733 8.667, 7.113 7.287 C 8.267 6.133, 7.545 4, 6 4 C 5.515 4, 4.816 4.489, 4.446 5.087 M 16.446 5.087 C 15.416 6.755, 17.733 8.667, 19.113 7.287 C 20.267 6.133, 19.545 4, 18 4 C 17.515 4, 16.816 4.489, 16.446 5.087 M 8 10 C 6.900 11.100, 6 12.900, 6 14 C 6 16.576, 9.424 20, 12 20 C 14.576 20, 18 16.576, 18 14 C 18 11.424, 14.576 8, 12 8 C 10.900 8, 9.100 8.900, 8 10 M 9 11.571 C 9 11.886, 9.675 12.818, 10.500 13.643 C 11.833 14.976, 12.180 14.963, 13.619 13.524 C 14.510 12.633, 14.935 11.602, 14.565 11.231 C 14.194 10.861, 13.431 11.220, 12.869 12.029 C 12.096 13.142, 11.724 13.196, 11.341 12.250 C 10.837 11.009, 9 10.476, 9 11.571 M 9.306 16.417 C 9.504 17.012, 10.717 17.500, 12 17.500 C 13.283 17.500, 14.496 17.012, 14.694 16.417 C 14.901 15.796, 13.749 15.333, 12 15.333 C 10.251 15.333, 9.099 15.796, 9.306 16.417" stroke="none" fill="black" fill-rule="evenodd"/>
</svg>