<svg xmlns="http://www.w3.org/2000/svg" width="24" height="24" viewBox="0 0 24 24" version="1.1">
	<path d="M 6.192 2 C 5.206 2, 3.860 2.540, 3.200 3.200 C 2.540 3.860, 2 5.120, 2 6 C 2 6.880, 2.550 8.150, 3.223 8.823 C 3.896 9.496, 4.312 11.598, 4.149 13.494 C 3.924 16.100, 4.470 17.561, 6.380 19.471 C 7.995 21.085, 10.027 22, 12 22 C 13.973 22, 16.005 21.085, 17.620 19.471 C 19.530 17.561, 20.076 16.100, 19.851 13.494 C 19.688 11.598, 20.104 9.496, 20.777 8.823 C 21.450 8.150, 22 6.880, 22 6 C 22 5.120, 21.460 3.860, 20.800 3.200 C 20.140 2.540, 18.794 2, 17.808 2 C 16.823 2, 15.455 2.900, 14.768 4 C 14.081 5.100, 12.835 6, 12 6 C 11.165 6, 9.919 5.100, 9.232 4 C 8.545 2.900, 7.177 2, 6.192 2 M 6 4 C 5.515 4, 4.816 4.489, 4.446 5.087 C 4.077 5.685, 4.275 6.675, 4.887 7.287 C 5.704 8.104, 6.296 8.104, 7.113 7.287 C 7.725 6.675, 7.923 5.685, 7.554 5.087 C 7.184 4.489, 6.485 4, 6 4 M 18 4 C 17.515 4, 16.816 4.489, 16.446 5.087 C 16.077 5.685, 16.275 6.675, 16.887 7.287 C 17.704 8.104, 18.296 8.104, 19.113 7.287 C 19.725 6.675, 19.923 5.685, 19.554 5.087 C 19.184 4.489, 18.485 4, 18 4 M 12 8 C 10.900 8, 9.100 8.900, 8 10 C 6.900 11.100, 6 12.900, 6 14 C 6 15.100, 6.900 16.900, 8 18 C 9.100 19.100, 10.900 20, 12 20 C 13.100 20, 14.900 19.100, 16 18 C 17.100 16.900, 18 15.100, 18 14 C 18 12.900, 17.100 11.100, 16 10 C 14.900 8.900, 13.100 8, 12 8 M 9.917 11 C 9.412 11, 9 11.257, 9 11.571 C 9 11.886, 9.675 12.818, 10.500 13.643 C 11.833 14.976, 12.180 14.963, 13.619 13.524 C 14.510 12.633, 14.935 11.602, 14.565 11.231 C 14.194 10.861, 13.431 11.220, 12.869 12.029 C 12.096 13.142, 11.724 13.196, 11.341 12.250 C 11.062 11.563, 10.421 11, 9.917 11 M 12 15.333 C 10.251 15.333, 9.099 15.796, 9.306 16.417 C 9.504 17.012, 10.717 17.500, 12 17.500 C 13.283 17.500, 14.496 17.012, 14.694 16.417 C 14.901 15.796, 13.749 15.333, 12 15.333" stroke="none" fill="black" fill-rule="evenodd"/>
</svg>