<svg xmlns="http://www.w3.org/2000/svg" width="24" height="24" viewBox="0 0 24 24" version="1.1">
	<path d="M 3.704 3.630 C 3.317 4.017, 3 5.357, 3 6.608 C 3 7.859, 2.550 9.160, 2 9.500 C 0.695 10.307, 0.695 21, 2 21 C 2.550 21, 3 20.550, 3 20 C 3 19.407, 6.667 19, 12 19 C 17.333 19, 21 19.407, 21 20 C 21 20.550, 21.450 21, 22 21 C 23.253 21, 23.328 10.741, 22.085 9.450 C 21.581 8.928, 21.019 7.375, 20.835 6 C 20.513 3.596, 20.190 3.489, 12.454 3.213 C 8.028 3.055, 4.091 3.242, 3.704 3.630 M 5 7 C 5 8.556, 5.667 9, 8 9 C 10.333 9, 11 8.556, 11 7 C 11 5.444, 10.333 5, 8 5 C 5.667 5, 5 5.444, 5 7 M 13 7 C 13 8.556, 13.667 9, 16 9 C 18.333 9, 19 8.556, 19 7 C 19 5.444, 18.333 5, 16 5 C 13.667 5, 13 5.444, 13 7 M 3 14 L 3 17 12 17 L 21 17 21 14 L 21 11 12 11 L 3 11 3 14" stroke="none" fill="#000000" fill-rule="evenodd"/>
</svg>