<svg xmlns="http://www.w3.org/2000/svg" width="24" height="24" viewBox="0 0 24 24" version="1.1">
	<path d="M 1.713 7.621 C 1.321 8.013, 1 10.958, 1 14.167 L 1 20 12.048 20 L 23.095 20 22.798 13.750 L 22.500 7.500 18.010 7.500 C 13.820 7.500, 13.480 7.700, 12.924 10.500 L 12.329 13.500 11.915 10.500 C 11.531 7.723, 11.163 7.478, 6.963 7.204 C 4.467 7.041, 2.105 7.229, 1.713 7.621 M 3 11 C 3 12.619, 3.667 13, 6.500 13 C 9.333 13, 10 12.619, 10 11 C 10 9.381, 9.333 9, 6.500 9 C 3.667 9, 3 9.381, 3 11 M 15 11 C 15 12.556, 15.667 13, 18 13 C 20.333 13, 21 12.556, 21 11 C 21 9.444, 20.333 9, 18 9 C 15.667 9, 15 9.444, 15 11 M 3 16.500 C 3 17.722, 4.667 18, 12 18 C 19.333 18, 21 17.722, 21 16.500 C 21 15.278, 19.333 15, 12 15 C 4.667 15, 3 15.278, 3 16.500" stroke="none" fill="black" fill-rule="evenodd"/>
</svg>