<svg xmlns="http://www.w3.org/2000/svg" width="24" height="24" viewBox="0 0 24 24" version="1.1">
	<path d="M 6.823 1.689 C 2.973 2.307, 1.408 4.502, 2.834 7.284 C 3.459 8.503, 4.089 12.425, 4.235 16 L 4.500 22.500 10.986 22.500 C 16.666 22.500, 17.520 22.253, 17.856 20.510 C 18.066 19.416, 19.085 17.928, 20.119 17.204 C 22.598 15.468, 22.509 12.470, 19.926 10.661 C 18.119 9.395, 18.020 8.941, 19.157 7.120 C 20.248 5.374, 20.219 4.800, 18.980 3.614 C 17.335 2.038, 10.946 1.026, 6.823 1.689 M 9.729 3.604 C 9.363 3.970, 8.143 4.322, 7.019 4.385 C 5.894 4.448, 4.980 4.950, 4.987 5.500 C 4.994 6.054, 7.675 6.500, 11 6.500 C 14.325 6.500, 17.006 6.054, 17.013 5.500 C 17.020 4.950, 16.232 4.437, 15.263 4.359 C 14.293 4.282, 12.801 3.931, 11.948 3.578 C 11.094 3.226, 10.096 3.238, 9.729 3.604 M 6 15 L 6 21 11 21 L 16 21 16 15 L 16 9 11 9 L 6 9 6 15 M 8 15 C 8 17.200, 8.450 19, 9 19 C 9.550 19, 10 17.200, 10 15 C 10 12.800, 9.550 11, 9 11 C 8.450 11, 8 12.800, 8 15 M 12 15 C 12 17.200, 12.450 19, 13 19 C 13.550 19, 14 17.200, 14 15 C 14 12.800, 13.550 11, 13 11 C 12.450 11, 12 12.800, 12 15 M 18 14 C 18 15.867, 18.267 16.133, 19.200 15.200 C 20.133 14.267, 20.133 13.733, 19.200 12.800 C 18.267 11.867, 18 12.133, 18 14" stroke="none" fill="black" fill-rule="evenodd"/>
</svg>