<svg xmlns="http://www.w3.org/2000/svg" width="24" height="24" viewBox="0 0 24 24" version="1.1">
	<path d="M 0 0.826 C 0 1.280, 1.125 2.708, 2.500 4 C 5.350 6.677, 5.684 10.164, 3.494 14.364 C 2.672 15.940, 2 17.402, 2 17.614 C 2 17.826, 5.241 18, 9.202 18 C 15.942 18, 16.616 18.204, 19.687 21.182 C 21.493 22.932, 23.292 24.041, 23.685 23.648 C 24.407 22.926, 2.188 0, 0.766 0 C 0.345 0, 0 0.372, 0 0.826 M 8.667 1.667 C 7.196 3.137, 8.150 3.920, 10.773 3.395 C 14.292 2.692, 16.722 5.199, 17.172 10 C 17.352 11.925, 17.929 13.275, 18.453 13 C 20.083 12.145, 18.936 5.614, 16.741 3.250 C 14.763 1.120, 10.123 0.210, 8.667 1.667 M 6.394 12.500 L 5.298 16 9.845 16 L 14.392 16 11 12.500 C 9.134 10.575, 7.581 9, 7.549 9 C 7.516 9, 6.996 10.575, 6.394 12.500 M 9.306 21.417 C 9.504 22.012, 10.717 22.500, 12 22.500 C 13.283 22.500, 14.496 22.012, 14.694 21.417 C 14.901 20.796, 13.749 20.333, 12 20.333 C 10.251 20.333, 9.099 20.796, 9.306 21.417" stroke="none" fill="black" fill-rule="evenodd"/>
</svg>