<svg xmlns="http://www.w3.org/2000/svg" width="24" height="24" viewBox="0 0 24 24" version="1.1">
	<path d="M 0.766 0 C 0.345 0, 0 0.372, 0 0.826 C 0 1.280, 1.125 2.708, 2.500 4 C 3.918 5.332, 4.997 7.464, 4.994 8.924 C 4.990 10.341, 4.315 12.789, 3.494 14.364 C 2.672 15.940, 2 17.402, 2 17.614 C 2 17.826, 5.241 18, 9.202 18 C 15.942 18, 16.616 18.204, 19.687 21.182 C 21.493 22.932, 23.292 24.041, 23.685 23.648 C 24.079 23.255, 19.255 17.773, 12.967 11.466 C 6.678 5.160, 1.188 0, 0.766 0 M 11.992 1 C 10.530 1, 9.033 1.300, 8.667 1.667 C 8.300 2.033, 8 2.697, 8 3.142 C 8 3.586, 9.248 3.700, 10.773 3.395 C 12.711 3.008, 14.042 3.391, 15.195 4.670 C 16.102 5.677, 16.991 8.075, 17.172 10 C 17.352 11.925, 17.929 13.275, 18.453 13 C 18.978 12.725, 19.277 10.925, 19.118 9 C 18.960 7.075, 17.890 4.487, 16.741 3.250 C 15.584 2.005, 13.464 1, 11.992 1 M 7.549 9 C 7.516 9, 6.996 10.575, 6.394 12.500 L 5.298 16 9.845 16 L 14.392 16 11 12.500 C 9.134 10.575, 7.581 9, 7.549 9 M 12 20.333 C 10.251 20.333, 9.099 20.796, 9.306 21.417 C 9.504 22.012, 10.717 22.500, 12 22.500 C 13.283 22.500, 14.496 22.012, 14.694 21.417 C 14.901 20.796, 13.749 20.333, 12 20.333" stroke="none" fill="black" fill-rule="evenodd"/>
</svg>