<svg xmlns="http://www.w3.org/2000/svg" width="24" height="24" viewBox="0 0 24 24" version="1.1">
	<path d="M 7.174 3.314 C 5.966 4.600, 4.997 6.934, 4.994 8.564 C 4.990 10.179, 4.315 12.789, 3.494 14.364 C 2.672 15.940, 2 17.402, 2 17.614 C 2 17.826, 6.500 18, 12 18 C 17.500 18, 22 17.826, 22 17.614 C 22 17.402, 21.328 15.940, 20.506 14.364 C 19.685 12.789, 19.010 10.116, 19.006 8.424 C 18.993 2.029, 11.445 -1.231, 7.174 3.314 M 8.790 4.750 C 7.953 5.713, 6.992 8.637, 6.654 11.250 L 6.038 16 12 16 L 17.962 16 17.346 11.250 C 16.383 3.815, 12.298 0.712, 8.790 4.750 M 9.306 21.417 C 9.504 22.012, 10.717 22.500, 12 22.500 C 13.283 22.500, 14.496 22.012, 14.694 21.417 C 14.901 20.796, 13.749 20.333, 12 20.333 C 10.251 20.333, 9.099 20.796, 9.306 21.417" stroke="none" fill="black" fill-rule="evenodd"/>
</svg>