<svg xmlns="http://www.w3.org/2000/svg" width="24" height="24" viewBox="0 0 24 24" version="1.1">
	<path d="M 15.269 5 C 14.845 5, 12.511 6.817, 10.082 9.038 C 6.891 11.955, 5.449 12.726, 4.887 11.817 C 4.459 11.124, 3.972 10.770, 3.804 11.029 C 3.637 11.288, 2.938 12.506, 2.250 13.736 C 1.563 14.966, 1 16.789, 1 17.786 C 1 18.784, 1.540 20.140, 2.200 20.800 C 2.860 21.460, 4.345 22, 5.500 22 C 6.655 22, 8.140 21.460, 8.800 20.800 C 9.460 20.140, 10.032 18.453, 10.070 17.050 C 10.128 14.963, 10.271 14.831, 10.859 16.324 C 11.255 17.327, 11.889 18.002, 12.270 17.824 C 12.650 17.646, 13.671 18.512, 14.537 19.750 C 15.404 20.987, 17.123 22, 18.357 22 C 19.591 22, 21.140 21.460, 21.800 20.800 C 22.460 20.140, 23 18.655, 23 17.500 C 23 16.345, 22.460 14.860, 21.800 14.200 C 21.140 13.540, 19.713 13, 18.629 13 C 17.545 13, 15.835 13.745, 14.829 14.655 C 13.823 15.565, 13 15.827, 13 15.237 C 13 14.647, 12.728 13.454, 12.395 12.586 C 11.896 11.286, 12.336 11.117, 14.895 11.629 C 16.896 12.029, 18 11.850, 18 11.125 C 18 10.506, 17.276 10, 16.392 10 C 15.175 10, 14.936 9.391, 15.411 7.500 C 15.756 6.125, 15.692 5, 15.269 5 M 5.735 15.188 C 4.778 15.003, 3.711 15.591, 3.364 16.493 C 3.018 17.396, 3.214 18.614, 3.800 19.200 C 4.386 19.786, 5.604 19.982, 6.507 19.636 C 7.409 19.289, 7.997 18.222, 7.812 17.265 C 7.628 16.307, 6.693 15.372, 5.735 15.188 M 18.735 15.188 C 17.778 15.003, 16.711 15.591, 16.364 16.493 C 16.018 17.396, 16.214 18.614, 16.800 19.200 C 17.386 19.786, 18.604 19.982, 19.507 19.636 C 20.409 19.289, 20.997 18.222, 20.812 17.265 C 20.628 16.307, 19.693 15.372, 18.735 15.188" stroke="none" fill="black" fill-rule="evenodd"/>
</svg>