<svg viewBox="0 0 24 24" xmlns="http://www.w3.org/2000/svg" fill="none" stroke="#000000" stroke-width="2" stroke-linecap="round" stroke-linejoin="round"><path d="M14.700 5.053 C 14.612 5.082,14.498 5.132,14.447 5.163 C 14.396 5.194,14.002 5.622,13.571 6.114 C 13.033 6.728,12.749 7.022,12.665 7.051 C 12.598 7.075,11.576 7.819,10.394 8.705 C 7.940 10.544,8.019 10.468,8.021 11.000 C 8.022 11.342,8.074 11.469,8.328 11.744 L 8.489 11.919 8.375 12.050 C 8.312 12.123,8.030 12.445,7.750 12.766 L 7.239 13.350 6.986 13.258 C 5.644 12.771,4.008 13.014,2.857 13.871 C 0.943 15.295,0.440 17.854,1.677 19.864 C 2.287 20.855,3.242 21.550,4.437 21.871 C 4.778 21.963,4.895 21.974,5.500 21.974 C 6.105 21.974,6.222 21.963,6.563 21.871 C 8.251 21.417,9.419 20.249,9.871 18.563 C 9.961 18.228,9.974 18.098,9.976 17.520 C 9.978 16.967,9.964 16.803,9.890 16.512 C 9.774 16.052,9.598 15.602,9.403 15.270 L 9.245 15.000 9.833 15.000 L 10.420 15.000 10.710 15.513 L 11.000 16.025 11.000 16.862 C 11.001 17.660,11.005 17.710,11.095 17.900 C 11.209 18.139,11.402 18.332,11.618 18.422 C 11.813 18.503,12.176 18.507,12.362 18.431 C 12.482 18.381,12.518 18.381,12.640 18.432 C 12.821 18.508,13.180 18.504,13.369 18.423 C 13.650 18.304,13.884 18.042,13.958 17.764 C 13.976 17.697,13.999 17.780,14.032 18.030 C 14.347 20.397,16.368 22.104,18.717 21.988 C 21.615 21.846,23.623 19.034,22.815 16.248 C 22.215 14.177,20.194 12.811,18.060 13.033 C 15.948 13.253,14.315 14.848,14.033 16.964 C 13.986 17.316,13.985 17.318,13.937 17.178 C 13.910 17.100,13.688 16.686,13.444 16.258 L 13.000 15.480 13.000 14.667 C 13.000 14.014,12.987 13.815,12.933 13.657 C 12.877 13.489,12.748 13.339,12.054 12.638 L 11.242 11.816 12.105 10.828 C 12.580 10.285,12.982 9.840,12.997 9.840 C 13.013 9.840,13.306 10.259,13.648 10.770 C 13.991 11.282,14.328 11.742,14.397 11.792 C 14.662 11.986,14.770 12.000,16.015 11.998 C 17.268 11.996,17.355 11.985,17.619 11.783 C 17.696 11.725,17.808 11.592,17.869 11.489 C 17.964 11.328,17.980 11.256,17.980 11.000 C 17.980 10.746,17.963 10.672,17.872 10.516 C 17.813 10.415,17.698 10.282,17.618 10.221 C 17.369 10.032,17.184 10.000,16.320 10.000 L 15.533 10.000 14.949 9.124 L 14.365 8.247 15.101 7.404 C 15.506 6.941,15.866 6.505,15.902 6.436 C 16.136 5.983,15.914 5.345,15.436 5.098 C 15.265 5.010,14.899 4.988,14.700 5.053 M6.020 15.060 C 6.741 15.211,7.395 15.713,7.715 16.362 C 8.087 17.118,8.090 17.878,7.723 18.620 C 7.439 19.195,6.932 19.646,6.320 19.868 C 6.052 19.965,5.965 19.976,5.500 19.976 C 5.035 19.976,4.948 19.965,4.680 19.868 C 3.495 19.438,2.803 18.206,3.060 16.980 C 3.339 15.644,4.674 14.778,6.020 15.060 M19.020 15.060 C 19.741 15.211,20.395 15.713,20.715 16.362 C 21.087 17.118,21.090 17.878,20.723 18.620 C 20.439 19.195,19.932 19.646,19.320 19.868 C 19.052 19.965,18.965 19.976,18.500 19.976 C 18.035 19.976,17.948 19.965,17.680 19.868 C 17.068 19.646,16.561 19.195,16.277 18.620 C 15.347 16.740,16.972 14.631,19.020 15.060 " stroke="none" fill-rule="evenodd" fill="black"></path></svg>