<svg xmlns="http://www.w3.org/2000/svg" width="24" height="24" viewBox="0 0 24 24" version="1.1">
	<path d="M 11.250 7.863 C 9.462 9.394, 8 11.175, 8 11.823 C 8 12.470, 6.965 13, 5.700 13 C 2.834 13, 1 14.756, 1 17.500 C 1 20.180, 2.820 22, 5.500 22 C 8.293 22, 9.984 20.169, 10.070 17.050 C 10.128 14.963, 10.271 14.831, 10.859 16.324 C 11.255 17.327, 11.889 18.002, 12.270 17.824 C 12.650 17.646, 13.671 18.512, 14.537 19.750 C 17.284 23.671, 23 22.151, 23 17.500 C 23 13.166, 18.287 11.525, 14.829 14.655 C 13.823 15.565, 13 15.827, 13 15.237 C 13 14.647, 12.728 13.454, 12.395 12.586 C 11.896 11.286, 12.336 11.117, 14.895 11.629 C 16.896 12.029, 18 11.850, 18 11.125 C 18 10.506, 17.276 10, 16.392 10 C 15.175 10, 14.936 9.391, 15.411 7.500 C 16.209 4.317, 15.300 4.397, 11.250 7.863 M 3.364 16.493 C 3.018 17.396, 3.214 18.614, 3.800 19.200 C 5.324 20.724, 8.210 19.331, 7.812 17.265 C 7.369 14.963, 4.165 14.407, 3.364 16.493 M 16.364 16.493 C 16.018 17.396, 16.214 18.614, 16.800 19.200 C 18.324 20.724, 21.210 19.331, 20.812 17.265 C 20.369 14.963, 17.165 14.407, 16.364 16.493" stroke="none" fill="black" fill-rule="evenodd"/>
</svg>