<svg xmlns="http://www.w3.org/2000/svg" width="24" height="24" viewBox="0 0 24 24" version="1.1">
	<path d="M 16 2 C 14.979 2, 13.405 2.738, 12.503 3.640 C 11.600 4.542, 10.166 6.342, 9.316 7.640 C 8.407 9.028, 6.788 10, 5.385 10 C 4.073 10, 3 10.417, 3 10.927 C 3 11.436, 3.683 11.999, 4.517 12.177 C 5.732 12.436, 5.501 13.247, 3.355 16.254 C 1.881 18.319, 0.934 20.268, 1.252 20.585 C 1.569 20.902, 2.738 20.676, 3.849 20.081 C 4.960 19.486, 7.958 19, 10.511 19 C 14.309 19, 15.686 18.468, 18.077 16.077 C 20.335 13.819, 21 12.242, 21 9.148 C 21 6.840, 20.334 4.477, 19.429 3.571 C 18.564 2.707, 17.021 2, 16 2 M 16.128 4.015 C 15.782 4.024, 15.028 4.361, 14.452 4.765 C 13.875 5.169, 12.364 6.988, 11.093 8.808 C 9.822 10.627, 9.021 12.354, 9.312 12.646 C 9.604 12.937, 11.192 12.179, 12.841 10.960 C 14.697 9.587, 15.621 8.177, 15.268 7.256 C 14.818 6.082, 15.202 5.929, 17.091 6.529 C 19.229 7.207, 19.339 7.113, 18.120 5.644 C 17.369 4.740, 16.473 4.007, 16.128 4.015 M 18.844 10.108 C 18.655 9.582, 17.375 10.070, 16 11.192 C 14.625 12.313, 12.627 13.844, 11.560 14.593 C 10.494 15.341, 9.910 16.243, 10.264 16.597 C 10.617 16.951, 12.047 16.954, 13.441 16.604 C 14.834 16.254, 16.698 14.865, 17.581 13.516 C 18.465 12.168, 19.033 10.634, 18.844 10.108" stroke="none" fill="black" fill-rule="evenodd"/>
</svg>