<svg xmlns="http://www.w3.org/2000/svg" width="24" height="24" viewBox="0 0 24 24" version="1.1">
	<path d="M 12.503 3.640 C 11.600 4.542, 10.166 6.342, 9.316 7.640 C 8.407 9.028, 6.788 10, 5.385 10 C 2.762 10, 2.100 11.661, 4.517 12.177 C 5.732 12.436, 5.501 13.247, 3.355 16.254 C 0.453 20.318, 0.644 21.796, 3.849 20.081 C 4.960 19.486, 7.958 19, 10.511 19 C 16.803 19, 21 15.058, 21 9.148 C 21 2.854, 16.322 -0.179, 12.503 3.640 M 14.452 4.765 C 12.717 5.981, 8.742 12.076, 9.312 12.646 C 10.373 13.706, 15.843 8.756, 15.268 7.256 C 14.818 6.082, 15.202 5.929, 17.091 6.529 C 19.229 7.207, 19.339 7.113, 18.120 5.644 C 16.610 3.825, 16.001 3.679, 14.452 4.765 M 16 11.192 C 14.625 12.313, 12.627 13.844, 11.560 14.593 C 9.097 16.321, 10.137 17.434, 13.441 16.604 C 16.032 15.954, 19.463 11.828, 18.844 10.108 C 18.655 9.582, 17.375 10.070, 16 11.192" stroke="none" fill="black" fill-rule="evenodd"/>
</svg>