<svg xmlns="http://www.w3.org/2000/svg" width="24" height="24" viewBox="0 0 24 24" version="1.1">
	<path d="M 5.015 9.750 C 5.032 17.313, 5.493 18.476, 9.028 19.887 C 10.774 20.583, 10.986 20.892, 9.750 20.937 C 6.087 21.069, 8.192 23, 12 23 C 15.808 23, 17.913 21.069, 14.250 20.937 C 13.014 20.892, 13.226 20.583, 14.972 19.887 C 18.507 18.476, 18.968 17.313, 18.985 9.750 L 19 3 12 3 L 5 3 5.015 9.750 M 7 6 C 7 6.550, 9.250 7, 12 7 C 14.750 7, 17 6.550, 17 6 C 17 5.450, 14.750 5, 12 5 C 9.250 5, 7 5.450, 7 6 M 7 12.300 C 7 16.275, 8.514 18, 12 18 C 15.486 18, 17 16.275, 17 12.300 C 17 9.007, 16.990 9, 12 9 C 7.010 9, 7 9.007, 7 12.300" stroke="none" fill="black" fill-rule="evenodd"/>
</svg>