<svg xmlns="http://www.w3.org/2000/svg" width="24" height="24" viewBox="0 0 24 24" version="1.1">
	<path d="M 12 3 L 5 3 5.015 9.750 C 5.024 13.463, 5.374 17.040, 5.794 17.700 C 6.213 18.360, 7.669 19.344, 9.028 19.887 C 10.774 20.583, 10.986 20.892, 9.750 20.937 C 8.787 20.971, 8 21.450, 8 22 C 8 22.550, 9.800 23, 12 23 C 14.200 23, 16 22.550, 16 22 C 16 21.450, 15.213 20.971, 14.250 20.937 C 13.014 20.892, 13.226 20.583, 14.972 19.887 C 16.331 19.344, 17.787 18.360, 18.206 17.700 C 18.626 17.040, 18.976 13.463, 18.985 9.750 L 19 3 12 3 M 12 5 C 9.250 5, 7 5.450, 7 6 C 7 6.550, 9.250 7, 12 7 C 14.750 7, 17 6.550, 17 6 C 17 5.450, 14.750 5, 12 5 M 12 9 C 7.010 9, 7 9.007, 7 12.300 C 7 14.115, 7.540 16.140, 8.200 16.800 C 8.860 17.460, 10.570 18, 12 18 C 13.430 18, 15.140 17.460, 15.800 16.800 C 16.460 16.140, 17 14.115, 17 12.300 C 17 9.007, 16.990 9, 12 9" stroke="none" fill="black" fill-rule="evenodd"/>
</svg>