<svg xmlns="http://www.w3.org/2000/svg" width="24" height="24" viewBox="0 0 24 24" version="1.1">
	<path d="M 11 4.500 C 11 6.975, 11.450 9, 12 9 C 12.550 9, 13 8.454, 13 7.786 C 13 7.026, 13.639 7.210, 14.707 8.279 C 16.048 9.619, 16.153 10.247, 15.198 11.202 C 14.242 12.158, 12.701 11.152, 8.017 6.517 C 4.736 3.270, 1.728 0.939, 1.331 1.336 C 0.934 1.732, 3.678 5.148, 7.427 8.926 C 11.472 13.003, 13.955 16.264, 13.533 16.947 C 13 17.809, 12.463 17.799, 11.387 16.906 C 9.265 15.145, 8.336 16.764, 10.326 18.754 C 11.779 20.208, 12.344 20.267, 14.129 19.151 C 15.984 17.993, 16.557 18.159, 19.102 20.598 C 22.910 24.246, 24.164 22.824, 20.507 19.007 C 17.728 16.107, 17.704 15.985, 19.490 14.011 C 21.775 11.486, 20.673 10.081, 18.177 12.339 C 15.589 14.682, 14.319 14.410, 16.516 11.983 C 18.293 10.018, 18.271 9.892, 15.671 7.178 C 14.202 5.645, 13 3.403, 13 2.195 C 13 0.988, 12.550 0, 12 0 C 11.450 0, 11 2.025, 11 4.500" stroke="none" fill="#000000" fill-rule="evenodd"/>
</svg>