<svg xmlns="http://www.w3.org/2000/svg" width="24" height="24" viewBox="0 0 24 24" version="1.1">
	<path d="M 12 0 C 11.450 0, 11 2.025, 11 4.500 C 11 6.975, 11.450 9, 12 9 C 12.550 9, 13 8.454, 13 7.786 C 13 7.026, 13.639 7.210, 14.707 8.279 C 16.048 9.619, 16.153 10.247, 15.198 11.202 C 14.242 12.158, 12.701 11.152, 8.017 6.517 C 4.736 3.270, 1.728 0.939, 1.331 1.336 C 0.934 1.732, 3.678 5.148, 7.427 8.926 C 11.472 13.003, 13.955 16.264, 13.533 16.947 C 13 17.809, 12.463 17.799, 11.387 16.906 C 10.597 16.251, 9.652 16.015, 9.285 16.381 C 8.919 16.748, 9.387 17.816, 10.326 18.754 C 11.779 20.208, 12.344 20.267, 14.129 19.151 C 15.984 17.993, 16.557 18.159, 19.102 20.598 C 20.685 22.114, 22.289 23.045, 22.667 22.667 C 23.045 22.289, 22.073 20.642, 20.507 19.007 C 17.728 16.107, 17.704 15.985, 19.490 14.011 C 20.497 12.898, 21.027 11.693, 20.667 11.333 C 20.307 10.973, 19.187 11.426, 18.177 12.339 C 17.168 13.253, 15.971 14, 15.516 14 C 15.062 14, 15.512 13.092, 16.516 11.983 C 18.293 10.018, 18.271 9.892, 15.671 7.178 C 14.202 5.645, 13 3.403, 13 2.195 C 13 0.988, 12.550 0, 12 0" stroke="none" fill="black" fill-rule="evenodd"/>
</svg>