<svg xmlns="http://www.w3.org/2000/svg" width="24" height="24" viewBox="0 0 24 24" version="1.1">
	<path d="M 11.702 0 C 11.316 0, 11 2.103, 11 4.674 L 11 9.349 8.676 7.165 C 7.398 5.964, 6.041 5.292, 5.662 5.672 C 5.282 6.051, 6.187 7.630, 7.673 9.181 L 10.374 12 7.673 14.819 C 6.187 16.370, 5.282 17.949, 5.662 18.328 C 6.041 18.708, 7.398 18.036, 8.676 16.835 L 11 14.651 11 19.326 C 11 21.897, 11.316 24, 11.702 24 C 12.089 24, 13.889 22.562, 15.702 20.804 L 18.999 17.609 16.312 14.804 L 13.626 12 16.312 9.196 L 18.999 6.391 15.702 3.196 C 13.889 1.438, 12.089 0, 11.702 0 M 13.378 4 C 13.170 4, 13 5.180, 13 6.622 C 13 8.850, 13.228 9.056, 14.512 7.990 C 15.663 7.035, 15.753 6.407, 14.890 5.367 C 14.266 4.615, 13.585 4, 13.378 4 M 13.378 15 C 13.170 15, 13 16.180, 13 17.622 C 13 19.850, 13.228 20.056, 14.512 18.990 C 15.663 18.035, 15.753 17.407, 14.890 16.367 C 14.266 15.615, 13.585 15, 13.378 15" stroke="none" fill="black" fill-rule="evenodd"/>
</svg>