<svg viewBox="0 0 24 24" xmlns="http://www.w3.org/2000/svg" fill="none" stroke="#000000" stroke-width="2" stroke-linecap="round" stroke-linejoin="round"><path d="M11.695 1.057 C 11.466 1.129,11.256 1.299,11.128 1.516 L 11.020 1.700 11.000 6.756 L 10.980 11.812 8.265 9.484 C 6.772 8.204,5.499 7.130,5.436 7.098 C 5.147 6.948,4.690 6.994,4.403 7.202 C 4.316 7.265,4.195 7.403,4.133 7.508 C 4.038 7.669,4.020 7.745,4.020 7.980 C 4.020 8.502,3.904 8.380,6.739 10.810 L 9.270 12.980 5.505 13.000 L 1.740 13.020 1.550 13.114 C 1.222 13.275,1.000 13.639,1.000 14.016 C 1.000 14.260,3.049 20.385,3.200 20.594 C 3.264 20.682,3.403 20.805,3.508 20.867 L 3.700 20.980 12.000 20.980 L 20.300 20.980 20.492 20.867 C 20.597 20.805,20.735 20.683,20.799 20.595 C 20.882 20.480,21.202 19.572,21.962 17.292 C 22.965 14.283,23.009 14.138,22.989 13.914 C 22.955 13.541,22.725 13.227,22.373 13.070 C 22.286 13.032,21.386 13.015,18.495 13.000 L 14.730 12.980 17.261 10.810 C 20.096 8.380,19.980 8.502,19.980 7.980 C 19.980 7.745,19.962 7.669,19.867 7.508 C 19.805 7.403,19.684 7.265,19.597 7.202 C 19.310 6.994,18.853 6.948,18.564 7.098 C 18.501 7.130,17.228 8.204,15.735 9.484 L 13.020 11.812 13.000 6.756 L 12.980 1.700 12.872 1.516 C 12.628 1.101,12.150 0.915,11.695 1.057 M20.590 15.050 C 20.580 15.078,20.280 15.978,19.923 17.050 L 19.273 19.000 12.000 19.000 L 4.727 19.000 4.077 17.050 C 3.720 15.978,3.420 15.078,3.410 15.050 C 3.395 15.010,5.130 15.000,12.000 15.000 C 18.870 15.000,20.605 15.010,20.590 15.050 " stroke="none" fill-rule="evenodd" fill="black"></path></svg>