<svg xmlns="http://www.w3.org/2000/svg" width="24" height="24" viewBox="0 0 24 24" version="1.1">
	<path d="M 10.802 6.098 L 10.500 11.195 7.697 8.984 C 3.973 6.045, 2.714 7.493, 6.306 10.585 L 9.112 13 5.056 13 C 0.623 13, 0.485 13.225, 2.098 17.851 L 3.196 21 12 21 L 20.804 21 21.902 17.851 C 23.515 13.225, 23.377 13, 18.944 13 L 14.888 13 17.694 10.585 C 21.286 7.493, 20.027 6.045, 16.303 8.984 L 13.500 11.195 13.198 6.098 C 12.807 -0.496, 11.193 -0.496, 10.802 6.098 M 4.190 16.750 C 4.475 18.230, 5.678 18.500, 12 18.500 C 18.322 18.500, 19.525 18.230, 19.810 16.750 C 20.108 15.199, 19.220 15, 12 15 C 4.780 15, 3.892 15.199, 4.190 16.750" stroke="none" fill="#000000" fill-rule="evenodd"/>
</svg>