<svg xmlns="http://www.w3.org/2000/svg" width="24" height="24" viewBox="0 0 24 24" version="1.1">
	<path d="M 12 1 C 11.507 1, 10.969 3.294, 10.802 6.098 L 10.500 11.195 7.697 8.984 C 6.156 7.767, 4.581 7.087, 4.197 7.471 C 3.814 7.856, 4.763 9.257, 6.306 10.585 L 9.112 13 5.056 13 C 2.825 13, 1 13.383, 1 13.851 C 1 14.319, 1.494 16.119, 2.098 17.851 L 3.196 21 12 21 L 20.804 21 21.902 17.851 C 22.506 16.119, 23 14.319, 23 13.851 C 23 13.383, 21.175 13, 18.944 13 L 14.888 13 17.694 10.585 C 19.237 9.257, 20.186 7.856, 19.803 7.471 C 19.419 7.087, 17.844 7.767, 16.303 8.984 L 13.500 11.195 13.198 6.098 C 13.031 3.294, 12.493 1, 12 1 M 12 15 C 4.780 15, 3.892 15.199, 4.190 16.750 C 4.475 18.230, 5.678 18.500, 12 18.500 C 18.322 18.500, 19.525 18.230, 19.810 16.750 C 20.108 15.199, 19.220 15, 12 15" stroke="none" fill="black" fill-rule="evenodd"/>
</svg>