<svg xmlns="http://www.w3.org/2000/svg" width="24" height="24" viewBox="0 0 24 24" version="1.1">
	<path d="M 10.429 3 L 5 3 5 12 L 5 21 10.929 21 C 15.116 21, 17.344 20.513, 18.515 19.342 C 19.656 18.201, 19.963 16.876, 19.501 15.092 C 19.132 13.666, 18.865 11.067, 18.909 9.316 C 18.953 7.564, 18.284 5.427, 17.423 4.566 C 16.386 3.529, 14.022 3, 10.429 3 M 10.878 5 C 7.236 5, 7 5.182, 7 8 C 7 10.818, 7.236 11, 10.878 11 C 13.104 11, 15.285 10.361, 16 9.500 C 16.993 8.303, 16.993 7.697, 16 6.500 C 15.285 5.639, 13.104 5, 10.878 5 M 11.378 13 C 7.180 13, 7 13.124, 7 16 C 7 18.876, 7.180 19, 11.378 19 C 14.049 19, 16.240 18.415, 17 17.500 C 17.993 16.303, 17.993 15.697, 17 14.500 C 16.240 13.585, 14.049 13, 11.378 13" stroke="none" fill="black" fill-rule="evenodd"/>
</svg>