<svg xmlns="http://www.w3.org/2000/svg" width="24" height="24" viewBox="0 0 24 24" version="1.1">
	<path d="M 16.768 0.566 C 16.421 0.912, 16.392 1.858, 16.703 2.668 C 17.164 3.870, 16.596 4.015, 13.617 3.456 C 4.800 1.802, -1.458 9.511, 2.195 17.528 C 5.327 24.402, 16.085 24.604, 19.575 17.855 C 21.404 14.318, 21.377 11.629, 19.474 7.950 C 17.928 4.959, 18.622 4.022, 20.783 6.183 C 21.434 6.834, 22.289 7.045, 22.682 6.651 C 23.076 6.258, 22.047 4.586, 20.397 2.936 C 18.747 1.286, 17.114 0.219, 16.768 0.566 M 11.031 6.942 C 10.409 8.105, 9.465 8.787, 8.934 8.459 C 8.402 8.131, 8.226 7.443, 8.543 6.931 C 9.471 5.430, 7.280 5.863, 5.637 7.506 C -0.280 13.423, 6.200 23.231, 13.914 20.036 C 17.876 18.395, 19.658 14.003, 17.993 9.984 C 17.001 7.589, 16.461 7.202, 15.372 8.106 C 14.617 8.733, 13.944 8.965, 13.875 8.622 C 13.806 8.280, 13.694 7.588, 13.625 7.083 C 13.344 5.024, 12.094 4.956, 11.031 6.942" stroke="none" fill="#000000" fill-rule="evenodd"/>
</svg>