<svg xmlns="http://www.w3.org/2000/svg" width="24" height="24" viewBox="0 0 24 24" version="1.1">
	<path d="M 20.397 2.936 C 18.747 1.286, 17.114 0.219, 16.768 0.566 C 16.421 0.912, 16.392 1.858, 16.703 2.668 C 17.164 3.870, 16.596 4.015, 13.617 3.456 C 11.401 3.040, 8.776 3.264, 6.936 4.026 C 5.269 4.717, 3.252 6.546, 2.453 8.091 C 1.654 9.636, 1 11.802, 1 12.903 C 1 14.005, 1.538 16.086, 2.195 17.528 C 2.852 18.970, 4.629 20.791, 6.145 21.575 C 7.661 22.359, 9.802 23, 10.903 23 C 12.005 23, 14.086 22.462, 15.528 21.805 C 16.970 21.148, 18.791 19.371, 19.575 17.855 C 20.359 16.339, 21 14.155, 21 13 C 21 11.845, 20.313 9.573, 19.474 7.950 C 18.635 6.328, 18.320 5, 18.774 5 C 19.228 5, 20.133 5.532, 20.783 6.183 C 21.434 6.834, 22.289 7.045, 22.682 6.651 C 23.076 6.258, 22.047 4.586, 20.397 2.936 M 12.831 5.498 C 12.463 5.130, 11.653 5.780, 11.031 6.942 C 10.409 8.105, 9.465 8.787, 8.934 8.459 C 8.402 8.131, 8.226 7.443, 8.543 6.931 C 8.859 6.419, 8.674 6, 8.130 6 C 7.587 6, 6.465 6.678, 5.637 7.506 C 4.809 8.334, 3.836 9.942, 3.475 11.080 C 3.114 12.217, 3.348 14.426, 3.995 15.988 C 4.642 17.550, 6.483 19.372, 8.086 20.036 C 10.362 20.978, 11.638 20.978, 13.914 20.036 C 15.524 19.369, 17.369 17.524, 18.036 15.914 C 18.985 13.622, 18.976 12.356, 17.993 9.984 C 17.001 7.589, 16.461 7.202, 15.372 8.106 C 14.617 8.733, 13.944 8.965, 13.875 8.622 C 13.806 8.280, 13.694 7.588, 13.625 7.083 C 13.556 6.579, 13.199 5.866, 12.831 5.498" stroke="none" fill="black" fill-rule="evenodd"/>
</svg>