<svg xmlns="http://www.w3.org/2000/svg" width="24" height="24" viewBox="0 0 24 24" version="1.1">
	<path d="M 14.200 2.200 C 13.540 2.860, 13 4.122, 13 5.004 C 13 7.009, 7.149 12.691, 4.607 13.155 C 3.566 13.345, 2.221 14.284, 1.618 15.241 C 0.722 16.664, 1.116 17.577, 3.769 20.231 C 6.418 22.880, 7.338 23.278, 8.759 22.387 C 9.716 21.787, 10.635 20.396, 10.800 19.295 C 11.167 16.852, 16.793 11.319, 19.393 10.845 C 20.434 10.655, 21.771 9.729, 22.365 8.786 C 23.231 7.411, 22.869 6.473, 20.535 4.036 C 17.374 0.738, 16.047 0.353, 14.200 2.200 M 15.638 3.695 C 15.287 4.046, 15 5.067, 15 5.964 C 15 8.069, 7.918 15, 5.767 15 C 3.113 15, 2.992 16.390, 5.441 18.747 C 7.822 21.039, 9 20.803, 9 18.036 C 9 15.931, 16.082 9, 18.233 9 C 19.140 9, 20.098 8.651, 20.361 8.224 C 20.991 7.205, 16.467 2.866, 15.638 3.695" stroke="none" fill="black" fill-rule="evenodd"/>
</svg>