<svg xmlns="http://www.w3.org/2000/svg" width="24" height="24" viewBox="0 0 24 24" version="1.1">
	<path d="M 16.513 1 C 15.901 1, 14.860 1.540, 14.200 2.200 C 13.540 2.860, 13 4.122, 13 5.004 C 13 5.886, 11.538 8.003, 9.750 9.709 C 7.962 11.414, 5.648 12.965, 4.607 13.155 C 3.566 13.345, 2.221 14.284, 1.618 15.241 C 0.722 16.664, 1.116 17.577, 3.769 20.231 C 6.418 22.880, 7.338 23.278, 8.759 22.387 C 9.716 21.787, 10.635 20.396, 10.800 19.295 C 10.965 18.195, 12.540 15.921, 14.300 14.243 C 16.060 12.564, 18.352 11.035, 19.393 10.845 C 20.434 10.655, 21.771 9.729, 22.365 8.786 C 23.231 7.411, 22.869 6.473, 20.535 4.036 C 18.935 2.366, 17.125 1, 16.513 1 M 18.559 5.253 C 17.304 4.045, 15.990 3.344, 15.638 3.695 C 15.287 4.046, 15 5.067, 15 5.964 C 15 6.860, 13.294 9.260, 11.208 11.297 C 9.122 13.334, 6.674 15, 5.767 15 C 4.860 15, 3.902 15.349, 3.639 15.776 C 3.375 16.202, 4.186 17.539, 5.441 18.747 C 6.696 19.955, 8.010 20.656, 8.362 20.305 C 8.713 19.954, 9 18.933, 9 18.036 C 9 17.140, 10.706 14.740, 12.792 12.703 C 14.878 10.666, 17.326 9, 18.233 9 C 19.140 9, 20.098 8.651, 20.361 8.224 C 20.625 7.798, 19.814 6.461, 18.559 5.253" stroke="none" fill="black" fill-rule="evenodd"/>
</svg>