<svg xmlns="http://www.w3.org/2000/svg" width="24" height="24" viewBox="0 0 24 24" version="1.1">
	<path d="M 1 10.600 L 1 19 5.450 19 C 8.622 19, 10.202 19.503, 10.950 20.750 C 11.950 22.417, 12.050 22.417, 13.050 20.750 C 13.798 19.503, 15.378 19, 18.550 19 L 23 19 23 10.600 L 23 2.200 12 2.200 L 1 2.200 1 10.600 M 3 10.500 L 3 17 7 17 L 11 17 11 11.700 C 11 5.714, 9.842 4, 5.800 4 C 3.021 4, 3 4.048, 3 10.500 M 14.200 5.200 C 13.540 5.860, 13 8.785, 13 11.700 L 13 17 17 17 L 21 17 21 10.500 C 21 4.048, 20.979 4, 18.200 4 C 16.660 4, 14.860 4.540, 14.200 5.200" stroke="none" fill="#000000" fill-rule="evenodd"/>
</svg>