<svg xmlns="http://www.w3.org/2000/svg" width="24" height="24" viewBox="0 0 24 24" version="1.1">
	<path d="M 4.706 2.627 C 3.685 3.649, 3.835 22, 4.865 22 C 5.341 22, 6.874 21.100, 8.273 20 C 11.454 17.498, 12.546 17.498, 15.727 20 C 17.126 21.100, 18.675 22, 19.171 22 C 19.667 22, 19.944 17.613, 19.786 12.250 L 19.500 2.500 12.456 2.210 C 8.582 2.051, 5.095 2.239, 4.706 2.627 M 6 11.530 L 6 19.060 9 16.842 L 12 14.624 15 16.842 L 18 19.060 18 11.530 L 18 4 12 4 L 6 4 6 11.530 M 11 8 C 11 8.550, 10.277 9, 9.393 9 C 8.338 9, 7.995 9.544, 8.393 10.582 C 8.727 11.452, 9 12.502, 9 12.915 C 9 13.328, 10.350 13.667, 12 13.667 C 13.650 13.667, 15 13.328, 15 12.915 C 15 12.502, 15.273 11.452, 15.607 10.582 C 16.005 9.544, 15.662 9, 14.607 9 C 13.723 9, 13 8.550, 13 8 C 13 7.450, 12.550 7, 12 7 C 11.450 7, 11 7.450, 11 8" stroke="none" fill="black" fill-rule="evenodd"/>
</svg>