<svg xmlns="http://www.w3.org/2000/svg" width="24" height="24" viewBox="0 0 24 24" version="1.1">
	<path d="M 4.706 2.627 C 3.685 3.649, 3.835 22, 4.865 22 C 5.341 22, 6.874 21.100, 8.273 20 C 11.454 17.498, 12.546 17.498, 15.727 20 C 17.126 21.100, 18.675 22, 19.171 22 C 19.667 22, 19.944 17.613, 19.786 12.250 L 19.500 2.500 12.456 2.210 C 8.582 2.051, 5.095 2.239, 4.706 2.627 M 6 11.530 L 6 19.060 9 16.842 L 12 14.624 15 16.842 L 18 19.060 18 11.530 L 18 4 12 4 L 6 4 6 11.530 M 11 7.500 C 11 8.325, 10.325 9, 9.500 9 C 8.675 9, 8 9.450, 8 10 C 8 10.550, 8.675 11, 9.500 11 C 10.325 11, 11 11.675, 11 12.500 C 11 13.325, 11.450 14, 12 14 C 12.550 14, 13 13.325, 13 12.500 C 13 11.675, 13.675 11, 14.500 11 C 15.325 11, 16 10.550, 16 10 C 16 9.450, 15.325 9, 14.500 9 C 13.675 9, 13 8.325, 13 7.500 C 13 6.675, 12.550 6, 12 6 C 11.450 6, 11 6.675, 11 7.500" stroke="none" fill="#000000" fill-rule="evenodd"/>
</svg>