<svg xmlns="http://www.w3.org/2000/svg" width="24" height="24" viewBox="0 0 24 24" version="1.1">
	<path d="M 4.706 2.627 C 3.685 3.649, 3.835 22, 4.865 22 C 5.341 22, 6.874 21.100, 8.273 20 C 11.454 17.498, 12.546 17.498, 15.727 20 C 17.126 21.100, 18.675 22, 19.171 22 C 19.667 22, 19.944 17.613, 19.786 12.250 L 19.500 2.500 12.456 2.210 C 8.582 2.051, 5.095 2.239, 4.706 2.627 M 6 11.530 L 6 19.060 9 16.842 L 12 14.624 15 16.842 L 18 19.060 18 11.530 L 18 4 12 4 L 6 4 6 11.530 M 12.981 8.523 C 12.252 9.402, 10.932 9.796, 9.859 9.455 C 7.611 8.742, 7.415 10.270, 9.529 12.024 C 10.798 13.077, 11.480 12.898, 13.529 10.972 C 14.888 9.696, 16 8.280, 16 7.826 C 16 6.494, 14.348 6.876, 12.981 8.523" stroke="none" fill="black" fill-rule="evenodd"/>
</svg>