<svg xmlns="http://www.w3.org/2000/svg" width="24" height="24" viewBox="0 0 24 24" version="1.1">
	<path d="M 12.456 2.210 C 8.582 2.051, 5.095 2.239, 4.706 2.627 C 4.318 3.015, 4 7.533, 4 12.667 C 4 17.800, 4.389 22, 4.865 22 C 5.341 22, 6.874 21.100, 8.273 20 C 9.671 18.900, 11.349 18, 12 18 C 12.651 18, 14.329 18.900, 15.727 20 C 17.126 21.100, 18.675 22, 19.171 22 C 19.667 22, 19.944 17.613, 19.786 12.250 L 19.500 2.500 12.456 2.210 M 12 4 L 6 4 6 11.530 L 6 19.060 9 16.842 L 12 14.624 15 16.842 L 18 19.060 18 11.530 L 18 4 12 4" stroke="none" fill="black" fill-rule="evenodd"/>
</svg>