<svg xmlns="http://www.w3.org/2000/svg" width="24" height="24" viewBox="0 0 24 24" version="1.1">
	<path d="M 4.200 2.200 C 2.579 3.821, 2.579 20.179, 4.200 21.800 C 4.928 22.528, 8.467 23, 13.200 23 L 21 23 21 12 L 21 1 13.200 1 C 8.467 1, 4.928 1.472, 4.200 2.200 M 5.667 3.667 C 5.300 4.033, 5 6.958, 5 10.167 L 5 16 12 16 L 19 16 19 9.500 L 19 3 12.667 3 C 9.183 3, 6.033 3.300, 5.667 3.667 M 5.694 18.639 C 4.161 20.172, 6.569 21, 12.559 21 C 17.618 21, 19 20.678, 19 19.500 C 19 18.325, 17.630 18, 12.667 18 C 9.183 18, 6.046 18.288, 5.694 18.639" stroke="none" fill="#000000" fill-rule="evenodd"/>
</svg>