<svg xmlns="http://www.w3.org/2000/svg" width="24" height="24" viewBox="0 0 24 24" version="1.1">
	<path d="M 12.234 3.209 C 5.913 2.987, 3.843 3.244, 3.437 4.303 C 3.145 5.064, 3.040 9.020, 3.203 13.094 L 3.500 20.500 12 20.500 L 20.500 20.500 20.500 12 L 20.500 3.500 12.234 3.209 M 12 5 L 5 5 5 12 L 5 19 12 19 L 19 19 19 12 L 19 5 12 5 M 12 11 C 11.450 11, 11 11.450, 11 12 C 11 12.550, 11.450 13, 12 13 C 12.550 13, 13 12.550, 13 12 C 13 11.450, 12.550 11, 12 11" stroke="none" fill="black" fill-rule="evenodd"/>
</svg>