<svg xmlns="http://www.w3.org/2000/svg" width="24" height="24" viewBox="0 0 24 24" version="1.1">
	<path d="M 3.437 4.303 C 3.145 5.064, 3.040 9.020, 3.203 13.094 L 3.500 20.500 12 20.500 L 20.500 20.500 20.500 12 L 20.500 3.500 12.234 3.209 C 5.913 2.987, 3.843 3.244, 3.437 4.303 M 5 8 C 5 10.667, 5.333 11, 8 11 C 10.667 11, 11 10.667, 11 8 C 11 5.333, 10.667 5, 8 5 C 5.333 5, 5 5.333, 5 8 M 13 8 C 13 10.667, 13.333 11, 16 11 C 18.667 11, 19 10.667, 19 8 C 19 5.333, 18.667 5, 16 5 C 13.333 5, 13 5.333, 13 8 M 5 16 C 5 18.667, 5.333 19, 8 19 C 10.667 19, 11 18.667, 11 16 C 11 13.333, 10.667 13, 8 13 C 5.333 13, 5 13.333, 5 16 M 13 16 C 13 18.667, 13.333 19, 16 19 C 18.667 19, 19 18.667, 19 16 C 19 13.333, 18.667 13, 16 13 C 13.333 13, 13 13.333, 13 16" stroke="none" fill="black" fill-rule="evenodd"/>
</svg>