<svg xmlns="http://www.w3.org/2000/svg" width="24" height="24" viewBox="0 0 24 24" version="1.1">
	<path d="M 4 3 C 3.407 3, 3 6.667, 3 12 C 3 17.333, 3.407 21, 4 21 C 4.593 21, 5 17.333, 5 12 C 5 6.667, 4.593 3, 4 3 M 18 3 C 16.350 3, 15 3.450, 15 4 C 15 4.550, 16.350 5, 18 5 C 19.650 5, 21 4.550, 21 4 C 21 3.450, 19.650 3, 18 3 M 12.993 5 C 12.630 5, 12.033 5.300, 11.667 5.667 C 11.300 6.033, 11 7.383, 11 8.667 C 11 9.950, 11.399 11, 11.887 11 C 12.374 11, 12.971 9.650, 13.213 8 C 13.455 6.350, 13.357 5, 12.993 5 M 12 13 C 11.450 13, 11 14.098, 11 15.441 C 11 16.784, 11.450 18.160, 12 18.500 C 12.583 18.861, 13 17.844, 13 16.059 C 13 14.377, 12.550 13, 12 13 M 17.500 19 C 16.125 19, 15 19.450, 15 20 C 15 20.550, 16.125 21, 17.500 21 C 18.875 21, 20 20.550, 20 20 C 20 19.450, 18.875 19, 17.500 19" stroke="none" fill="black" fill-rule="evenodd"/>
</svg>