<svg xmlns="http://www.w3.org/2000/svg" width="24" height="24" viewBox="0 0 24 24" version="1.1">
	<path d="M 4 3 C 3.450 3, 3 4.350, 3 6 C 3 7.650, 3.450 9, 4 9 C 4.550 9, 5 7.650, 5 6 C 5 4.350, 4.550 3, 4 3 M 20 4 C 19.450 4, 19 5.125, 19 6.500 C 19 7.875, 19.450 9, 20 9 C 20.550 9, 21 7.875, 21 6.500 C 21 5.125, 20.550 4, 20 4 M 7.973 10.783 C 6.082 10.505, 5.079 10.744, 5.300 11.419 C 5.495 12.014, 6.857 12.642, 8.327 12.816 C 9.797 12.990, 11 12.704, 11 12.180 C 11 11.656, 9.638 11.027, 7.973 10.783 M 16.059 11 C 14.377 11, 13 11.450, 13 12 C 13 12.550, 14.098 13, 15.441 13 C 16.784 13, 18.160 12.550, 18.500 12 C 18.861 11.417, 17.844 11, 16.059 11 M 12 19 C 6.667 19, 3 19.407, 3 20 C 3 20.593, 6.667 21, 12 21 C 17.333 21, 21 20.593, 21 20 C 21 19.407, 17.333 19, 12 19" stroke="none" fill="black" fill-rule="evenodd"/>
</svg>