<svg xmlns="http://www.w3.org/2000/svg" width="24" height="24" viewBox="0 0 24 24" version="1.1">
	<path d="M 3.667 3.667 C 2.629 4.704, 2.883 8, 4 8 C 4.550 8, 5 7.325, 5 6.500 C 5 5.500, 6 5, 8 5 C 9.650 5, 11 4.550, 11 4 C 11 2.894, 4.725 2.608, 3.667 3.667 M 13 4 C 13 4.550, 14.350 5, 16 5 C 17.650 5, 19 4.550, 19 4 C 19 3.450, 17.650 3, 16 3 C 14.350 3, 13 3.450, 13 4 M 19 9 C 19 10.650, 19.450 12, 20 12 C 20.550 12, 21 10.650, 21 9 C 21 7.350, 20.550 6, 20 6 C 19.450 6, 19 7.350, 19 9 M 3 13.500 C 3 14.875, 3.450 16, 4 16 C 4.550 16, 5 14.875, 5 13.500 C 5 12.125, 4.550 11, 4 11 C 3.450 11, 3 12.125, 3 13.500 M 19 17.059 C 19 18.844, 19.417 19.861, 20 19.500 C 20.550 19.160, 21 17.784, 21 16.441 C 21 15.098, 20.550 14, 20 14 C 19.450 14, 19 15.377, 19 17.059 M 4 19.639 C 4 20.424, 5.058 21, 6.500 21 C 7.875 21, 9 20.602, 9 20.117 C 9 19.631, 7.875 19.018, 6.500 18.755 C 4.824 18.435, 4 18.726, 4 19.639 M 11 20 C 11 20.550, 12.350 21, 14 21 C 15.650 21, 17 20.550, 17 20 C 17 19.450, 15.650 19, 14 19 C 12.350 19, 11 19.450, 11 20" stroke="none" fill="#000000" fill-rule="evenodd"/>
</svg>