<svg xmlns="http://www.w3.org/2000/svg" width="24" height="24" viewBox="0 0 24 24" version="1.1">
	<path d="M 6 3 C 4.350 3, 3 3.450, 3 4 C 3 4.550, 4.350 5, 6 5 C 7.650 5, 9 4.550, 9 4 C 9 3.450, 7.650 3, 6 3 M 14 3 C 12.350 3, 11 3.450, 11 4 C 11 4.550, 12.350 5, 14 5 C 15.650 5, 17 4.550, 17 4 C 17 3.450, 15.650 3, 14 3 M 20 3 C 19.450 3, 19 4.350, 19 6 C 19 7.650, 19.450 9, 20 9 C 20.550 9, 21 7.650, 21 6 C 21 4.350, 20.550 3, 20 3 M 4 7 C 3.450 7, 3 8.350, 3 10 C 3 11.650, 3.450 13, 4 13 C 4.550 13, 5 11.650, 5 10 C 5 8.350, 4.550 7, 4 7 M 20.018 11 C 19.458 11, 19 12.260, 19 13.800 C 19 15.340, 18.460 17.140, 17.800 17.800 C 17.140 18.460, 14.440 19, 11.800 19 C 9.160 19, 7 19.450, 7 20 C 7 20.569, 9.947 21, 13.841 21 L 20.683 21 20.860 16 C 20.960 13.157, 20.597 11, 20.018 11 M 4 15 C 3.450 15, 3 16.350, 3 18 C 3 19.650, 3.450 21, 4 21 C 4.550 21, 5 19.650, 5 18 C 5 16.350, 4.550 15, 4 15" stroke="none" fill="black" fill-rule="evenodd"/>
</svg>