<svg xmlns="http://www.w3.org/2000/svg" width="24" height="24" viewBox="0 0 24 24" version="1.1">
	<path d="M 3 4 C 3 4.593, 6.667 5, 12 5 C 17.333 5, 21 4.593, 21 4 C 21 3.407, 17.333 3, 12 3 C 6.667 3, 3 3.407, 3 4 M 5.667 11.667 C 4.261 13.072, 5.114 13.637, 8 13.213 C 9.650 12.971, 11 12.374, 11 11.887 C 11 10.858, 6.655 10.679, 5.667 11.667 M 13 12 C 13 12.550, 14.377 13, 16.059 13 C 17.844 13, 18.861 12.583, 18.500 12 C 18.160 11.450, 16.784 11, 15.441 11 C 14.098 11, 13 11.450, 13 12 M 3 18 C 3 19.650, 3.450 21, 4 21 C 4.550 21, 5 19.650, 5 18 C 5 16.350, 4.550 15, 4 15 C 3.450 15, 3 16.350, 3 18 M 19 17.500 C 19 18.875, 19.450 20, 20 20 C 20.550 20, 21 18.875, 21 17.500 C 21 16.125, 20.550 15, 20 15 C 19.450 15, 19 16.125, 19 17.500" stroke="none" fill="black" fill-rule="evenodd"/>
</svg>