<svg viewBox="0 0 24 24" xmlns="http://www.w3.org/2000/svg" fill="none" stroke="#000000" stroke-width="2" stroke-linecap="round" stroke-linejoin="round"><path d="M3.695 3.057 C 3.466 3.129,3.256 3.299,3.128 3.516 C 3.037 3.672,3.020 3.746,3.020 4.000 C 3.020 4.256,3.036 4.328,3.131 4.489 C 3.256 4.702,3.449 4.864,3.670 4.943 C 3.893 5.022,20.107 5.022,20.330 4.943 C 20.551 4.864,20.744 4.702,20.869 4.489 C 20.964 4.328,20.980 4.256,20.980 4.000 C 20.980 3.746,20.963 3.672,20.872 3.516 C 20.740 3.293,20.533 3.128,20.290 3.055 C 20.027 2.976,3.947 2.978,3.695 3.057 M7.700 11.025 C 7.015 11.072,6.362 11.255,5.741 11.573 C 5.521 11.685,5.271 11.841,5.184 11.918 C 4.527 12.511,4.958 13.598,5.851 13.600 C 6.053 13.600,6.138 13.572,6.511 13.382 C 7.185 13.038,7.231 13.030,8.680 13.002 C 10.058 12.975,10.090 12.969,10.370 12.723 C 10.797 12.349,10.797 11.651,10.370 11.277 C 10.091 11.032,10.041 11.023,8.920 11.017 C 8.359 11.014,7.810 11.017,7.700 11.025 M13.523 11.041 C 13.213 11.106,12.914 11.362,12.799 11.660 C 12.668 12.001,12.789 12.476,13.070 12.723 C 13.358 12.977,13.350 12.975,15.060 13.000 L 16.620 13.023 17.115 13.194 C 17.667 13.385,17.787 13.388,18.120 13.219 C 18.343 13.106,18.451 12.992,18.557 12.760 C 18.745 12.343,18.603 11.825,18.231 11.575 C 17.994 11.415,17.471 11.226,16.970 11.118 C 16.624 11.043,16.418 11.032,15.140 11.018 C 14.339 11.010,13.622 11.020,13.523 11.041 M19.780 14.476 C 19.563 14.530,19.363 14.646,19.235 14.792 C 18.990 15.071,18.996 15.009,18.999 17.303 C 19.001 18.496,19.019 19.489,19.041 19.609 C 19.113 19.996,19.436 20.326,19.810 20.395 C 20.349 20.494,20.859 20.143,20.960 19.605 C 21.010 19.335,21.011 16.170,20.961 15.613 C 20.919 15.156,20.866 14.998,20.683 14.790 C 20.470 14.547,20.064 14.406,19.780 14.476 M3.800 15.046 C 3.429 15.114,3.111 15.449,3.038 15.850 C 3.011 15.997,3.000 16.821,3.008 18.150 C 3.021 20.429,3.013 20.349,3.277 20.650 C 3.744 21.182,4.612 21.030,4.915 20.363 C 4.973 20.236,4.980 19.964,4.980 18.000 C 4.980 15.550,4.990 15.654,4.723 15.350 C 4.501 15.096,4.152 14.981,3.800 15.046 " stroke="none" fill-rule="evenodd" fill="black"></path></svg>