<svg viewBox="0 0 24 24" xmlns="http://www.w3.org/2000/svg" fill="none" stroke="#000000" stroke-width="2" stroke-linecap="round" stroke-linejoin="round"><path d="M5.820 3.044 C 5.732 3.065,5.591 3.081,5.507 3.081 C 5.289 3.080,4.788 3.256,4.462 3.449 C 3.970 3.739,3.461 4.326,3.252 4.845 C 3.044 5.359,3.023 5.515,3.022 6.580 C 3.020 7.696,3.035 7.786,3.272 8.048 C 3.486 8.284,3.690 8.377,4.000 8.377 C 4.297 8.377,4.501 8.290,4.708 8.074 C 4.954 7.817,4.973 7.721,4.998 6.640 C 5.023 5.555,5.028 5.532,5.305 5.263 C 5.582 4.994,5.537 4.999,8.000 4.989 L 10.220 4.980 10.408 4.887 C 10.763 4.712,10.968 4.388,10.968 4.000 C 10.968 3.612,10.763 3.288,10.408 3.113 L 10.220 3.020 8.100 3.014 C 6.909 3.010,5.910 3.024,5.820 3.044 M13.800 3.043 C 13.701 3.063,13.549 3.129,13.461 3.191 C 12.731 3.703,12.972 4.801,13.850 4.962 C 13.997 4.989,14.821 5.000,16.150 4.992 L 18.220 4.980 18.408 4.887 C 18.763 4.712,18.968 4.388,18.968 4.000 C 18.968 3.612,18.763 3.288,18.408 3.113 L 18.220 3.020 16.100 3.013 C 14.934 3.010,13.899 3.023,13.800 3.043 M19.687 5.931 C 19.481 5.997,19.177 6.294,19.093 6.511 C 19.026 6.686,19.020 6.867,19.020 8.880 C 19.020 11.006,19.022 11.064,19.104 11.240 C 19.287 11.637,19.569 11.818,20.000 11.818 C 20.431 11.818,20.713 11.637,20.896 11.240 C 20.978 11.064,20.980 11.006,20.980 8.880 C 20.980 6.383,20.990 6.462,20.641 6.149 C 20.361 5.897,20.030 5.821,19.687 5.931 M3.569 10.541 C 3.358 10.648,3.235 10.777,3.095 11.040 C 3.024 11.172,3.020 11.308,3.020 13.380 C 3.020 15.807,3.016 15.765,3.272 16.048 C 3.486 16.284,3.690 16.377,4.000 16.377 C 4.297 16.377,4.501 16.290,4.708 16.074 C 4.985 15.785,4.979 15.837,4.993 13.620 C 5.000 12.520,4.994 11.509,4.980 11.374 C 4.925 10.842,4.554 10.475,4.045 10.448 C 3.821 10.437,3.748 10.451,3.569 10.541 M19.687 13.931 C 19.498 13.991,19.182 14.289,19.095 14.490 C 19.028 14.644,19.019 14.828,19.000 16.500 C 18.981 18.180,18.972 18.354,18.905 18.500 C 18.817 18.690,18.831 19.069,18.934 19.268 C 19.097 19.584,19.468 19.812,19.819 19.811 C 20.360 19.810,20.727 19.415,20.909 18.642 C 20.972 18.376,20.980 18.122,20.980 16.520 C 20.980 14.428,20.984 14.457,20.641 14.149 C 20.361 13.897,20.030 13.821,19.687 13.931 M4.156 18.375 C 3.770 18.513,3.505 18.890,3.506 19.299 C 3.507 19.615,3.617 19.829,3.940 20.140 C 4.415 20.598,5.025 20.881,5.704 20.959 C 6.161 21.011,8.164 21.012,8.438 20.960 C 8.713 20.908,8.949 20.744,9.099 20.502 C 9.206 20.329,9.220 20.271,9.220 20.000 C 9.220 19.729,9.206 19.671,9.099 19.498 C 8.949 19.256,8.713 19.092,8.438 19.040 C 8.323 19.018,7.673 19.000,6.993 19.000 C 5.580 19.000,5.617 19.007,5.223 18.661 C 4.856 18.339,4.514 18.247,4.156 18.375 M12.093 19.042 C 11.732 19.113,11.447 19.373,11.342 19.725 C 11.265 19.984,11.265 20.016,11.342 20.275 C 11.419 20.532,11.636 20.783,11.880 20.896 C 12.054 20.977,12.128 20.980,14.130 20.992 C 15.431 21.000,16.283 20.989,16.423 20.963 C 16.710 20.910,16.947 20.749,17.099 20.502 C 17.206 20.329,17.220 20.271,17.220 20.000 C 17.220 19.729,17.206 19.671,17.099 19.498 C 16.949 19.256,16.713 19.092,16.438 19.040 C 16.186 18.992,12.336 18.994,12.093 19.042 " stroke="none" fill="black" fill-rule="evenodd"></path></svg>