<svg viewBox="0 0 24 24" xmlns="http://www.w3.org/2000/svg" fill="none" stroke="#000000" stroke-width="2" stroke-linecap="round" stroke-linejoin="round"><path d="M3.800 3.043 C 3.701 3.063,3.549 3.129,3.461 3.191 C 2.731 3.703,2.972 4.801,3.850 4.962 C 3.997 4.989,4.821 5.000,6.150 4.992 L 8.220 4.980 8.408 4.887 C 8.763 4.712,8.968 4.388,8.968 4.000 C 8.968 3.612,8.763 3.288,8.408 3.113 L 8.220 3.020 6.100 3.013 C 4.934 3.010,3.899 3.023,3.800 3.043 M11.800 3.043 C 11.701 3.063,11.549 3.129,11.461 3.191 C 10.731 3.703,10.972 4.801,11.850 4.962 C 11.997 4.989,12.821 5.000,14.150 4.992 L 16.220 4.980 16.408 4.887 C 16.763 4.712,16.968 4.388,16.968 4.000 C 16.968 3.612,16.763 3.288,16.408 3.113 L 16.220 3.020 14.100 3.013 C 12.934 3.010,11.899 3.023,11.800 3.043 M19.800 3.046 C 19.429 3.114,19.111 3.449,19.038 3.850 C 19.011 3.997,19.000 4.821,19.008 6.150 C 19.021 8.429,19.013 8.349,19.277 8.650 C 19.744 9.182,20.612 9.030,20.915 8.363 C 20.973 8.236,20.980 7.964,20.980 6.000 C 20.980 3.550,20.990 3.654,20.723 3.350 C 20.501 3.096,20.152 2.981,19.800 3.046 M3.800 7.046 C 3.429 7.114,3.111 7.449,3.038 7.850 C 3.011 7.997,3.000 8.821,3.008 10.150 C 3.021 12.429,3.013 12.349,3.277 12.650 C 3.744 13.182,4.612 13.030,4.915 12.363 C 4.973 12.236,4.980 11.964,4.980 10.000 C 4.980 7.550,4.990 7.654,4.723 7.350 C 4.501 7.096,4.152 6.981,3.800 7.046 M19.670 11.055 C 19.446 11.138,19.255 11.300,19.131 11.511 L 19.020 11.700 18.998 14.120 L 18.977 16.540 18.877 16.861 C 18.580 17.817,17.841 18.558,16.860 18.886 L 16.580 18.979 12.180 19.000 C 7.320 19.022,7.662 19.003,7.350 19.277 C 6.923 19.651,6.923 20.349,7.350 20.723 C 7.666 21.001,7.132 20.979,13.857 20.991 C 17.864 20.998,20.010 20.988,20.157 20.961 C 21.020 20.803,21.265 19.715,20.555 19.201 C 20.464 19.135,20.325 19.071,20.245 19.058 C 19.988 19.015,19.988 19.016,20.155 18.771 C 20.479 18.292,20.753 17.644,20.904 17.000 C 20.966 16.736,20.976 16.415,20.989 14.292 C 20.999 12.693,20.990 11.831,20.962 11.728 C 20.902 11.505,20.712 11.262,20.500 11.138 C 20.277 11.007,19.899 10.969,19.670 11.055 M3.800 15.046 C 3.429 15.114,3.111 15.449,3.038 15.850 C 3.011 15.997,3.000 16.821,3.008 18.150 C 3.021 20.429,3.013 20.349,3.277 20.650 C 3.744 21.182,4.612 21.030,4.915 20.363 C 4.973 20.236,4.980 19.964,4.980 18.000 C 4.980 15.550,4.990 15.654,4.723 15.350 C 4.501 15.096,4.152 14.981,3.800 15.046 " stroke="none" fill-rule="evenodd" fill="black"></path></svg>