<svg xmlns="http://www.w3.org/2000/svg" width="24" height="24" viewBox="0 0 24 24" version="1.1">
	<path d="M 3 4 C 3 4.550, 4.350 5, 6 5 C 7.650 5, 9 4.550, 9 4 C 9 3.450, 7.650 3, 6 3 C 4.350 3, 3 3.450, 3 4 M 19 12 C 19 17.333, 19.407 21, 20 21 C 20.593 21, 21 17.333, 21 12 C 21 6.667, 20.593 3, 20 3 C 19.407 3, 19 6.667, 19 12 M 10.783 7.973 C 11.027 9.638, 11.656 11, 12.180 11 C 13.476 11, 12.774 5.744, 11.419 5.300 C 10.744 5.079, 10.505 6.082, 10.783 7.973 M 11 16.059 C 11 17.844, 11.417 18.861, 12 18.500 C 12.550 18.160, 13 16.784, 13 15.441 C 13 14.098, 12.550 13, 12 13 C 11.450 13, 11 14.377, 11 16.059 M 4 20 C 4 20.550, 5.125 21, 6.500 21 C 7.875 21, 9 20.550, 9 20 C 9 19.450, 7.875 19, 6.500 19 C 5.125 19, 4 19.450, 4 20" stroke="none" fill="#000000" fill-rule="evenodd"/>
</svg>