<svg viewBox="0 0 24 24" xmlns="http://www.w3.org/2000/svg" fill="none" stroke="#000000" stroke-width="2" stroke-linecap="round" stroke-linejoin="round"><path d="M3.800 3.046 C 3.429 3.114,3.111 3.449,3.038 3.850 C 3.011 3.997,3.000 4.821,3.008 6.150 C 3.018 7.958,3.028 8.238,3.085 8.363 C 3.452 9.171,4.548 9.171,4.915 8.363 C 4.973 8.236,4.980 7.964,4.980 6.000 C 4.980 3.550,4.990 3.654,4.723 3.350 C 4.501 3.096,4.152 2.981,3.800 3.046 M19.800 3.606 C 19.437 3.673,19.113 4.008,19.041 4.391 C 19.019 4.511,19.001 5.504,18.999 6.697 C 18.996 8.991,18.990 8.929,19.235 9.209 C 19.701 9.738,20.593 9.585,20.867 8.929 C 20.970 8.684,21.005 7.886,20.992 6.097 C 20.979 4.164,20.984 4.207,20.723 3.910 C 20.501 3.656,20.152 3.541,19.800 3.606 M5.415 10.496 C 5.087 10.649,4.872 10.991,4.872 11.361 C 4.872 11.651,4.978 11.896,5.184 12.082 C 5.399 12.275,6.059 12.606,6.520 12.751 C 7.158 12.953,7.391 12.977,8.720 12.978 C 9.917 12.980,9.944 12.978,10.128 12.887 C 10.483 12.712,10.688 12.388,10.688 12.000 C 10.688 11.612,10.483 11.288,10.128 11.113 C 9.947 11.023,9.893 11.019,8.680 10.997 C 7.231 10.970,7.186 10.962,6.511 10.618 C 6.138 10.428,6.053 10.400,5.851 10.400 C 5.692 10.401,5.556 10.431,5.415 10.496 M17.100 10.808 L 16.620 10.977 15.060 10.998 C 13.531 11.020,13.496 11.022,13.312 11.113 C 12.957 11.288,12.752 11.612,12.752 12.000 C 12.752 12.388,12.957 12.712,13.312 12.887 C 13.499 12.979,13.509 12.980,15.020 12.977 C 16.429 12.975,16.570 12.968,16.950 12.886 C 17.468 12.775,17.991 12.587,18.231 12.425 C 18.603 12.175,18.745 11.657,18.557 11.240 C 18.451 11.008,18.343 10.894,18.119 10.780 C 17.793 10.614,17.640 10.618,17.100 10.808 M3.695 19.057 C 3.466 19.129,3.256 19.299,3.128 19.516 C 3.037 19.672,3.020 19.746,3.020 20.000 C 3.020 20.256,3.036 20.328,3.131 20.489 C 3.256 20.702,3.449 20.864,3.670 20.943 C 3.893 21.022,20.107 21.022,20.330 20.943 C 20.551 20.864,20.744 20.702,20.869 20.489 C 20.964 20.328,20.980 20.256,20.980 20.000 C 20.980 19.746,20.963 19.672,20.872 19.516 C 20.740 19.293,20.533 19.128,20.290 19.055 C 20.027 18.976,3.947 18.978,3.695 19.057 " stroke="none" fill-rule="evenodd" fill="black"></path></svg>