<svg viewBox="0 0 24 24" xmlns="http://www.w3.org/2000/svg" fill="none" stroke="#000000" stroke-width="2" stroke-linecap="round" stroke-linejoin="round"><path d="M3.695 3.057 C 3.466 3.129,3.256 3.299,3.128 3.516 L 3.020 3.700 3.020 12.003 L 3.020 20.306 3.141 20.503 C 3.543 21.156,4.457 21.156,4.859 20.503 L 4.980 20.306 4.980 12.003 L 4.980 3.700 4.872 3.516 C 4.628 3.101,4.150 2.915,3.695 3.057 M15.800 3.043 C 15.701 3.063,15.549 3.129,15.461 3.191 C 14.731 3.703,14.972 4.801,15.850 4.962 C 15.997 4.989,16.821 5.000,18.150 4.992 L 20.220 4.980 20.408 4.887 C 20.763 4.712,20.968 4.388,20.968 4.000 C 20.968 3.612,20.763 3.288,20.408 3.113 L 20.220 3.020 18.100 3.013 C 16.934 3.010,15.899 3.023,15.800 3.043 M12.429 4.883 C 12.060 4.972,11.867 5.165,11.573 5.741 C 11.347 6.182,11.157 6.741,11.076 7.200 C 11.040 7.403,11.023 7.894,11.022 8.720 C 11.020 10.064,11.022 10.081,11.277 10.370 C 11.651 10.797,12.349 10.797,12.723 10.370 C 12.969 10.090,12.975 10.058,13.002 8.680 C 13.030 7.234,13.037 7.196,13.382 6.506 C 13.569 6.132,13.600 6.037,13.600 5.845 C 13.599 5.445,13.342 5.061,12.980 4.921 C 12.832 4.863,12.581 4.846,12.429 4.883 M11.800 12.766 C 11.579 12.807,11.338 12.970,11.191 13.181 C 11.009 13.441,10.989 13.676,11.012 15.200 C 11.031 16.398,11.045 16.631,11.118 16.970 C 11.225 17.471,11.415 17.994,11.575 18.231 C 11.825 18.603,12.343 18.745,12.760 18.557 C 12.993 18.451,13.106 18.343,13.223 18.113 C 13.390 17.785,13.387 17.675,13.195 17.119 L 13.023 16.620 13.000 15.060 C 12.975 13.350,12.977 13.358,12.723 13.070 C 12.501 12.816,12.152 12.701,11.800 12.766 M15.240 19.008 C 14.478 19.139,14.202 20.167,14.790 20.683 C 14.998 20.866,15.156 20.919,15.613 20.961 C 16.170 21.011,19.335 21.010,19.605 20.960 C 19.996 20.887,20.325 20.566,20.395 20.190 C 20.494 19.649,20.141 19.138,19.600 19.041 C 19.344 18.995,15.486 18.966,15.240 19.008 " stroke="none" fill-rule="evenodd" fill="black"></path></svg>