<svg xmlns="http://www.w3.org/2000/svg" width="24" height="24" viewBox="0 0 24 24" version="1.1">
	<path d="M 13.403 1.438 C 11.256 1.210, 8.600 1.416, 7.500 1.894 C 6.400 2.373, 4.600 3.764, 3.500 4.987 C 2.078 6.568, 1.500 8.618, 1.500 12.082 C 1.500 16.074, 2.001 17.456, 4.273 19.727 C 6.557 22.011, 7.919 22.500, 12 22.500 C 16.081 22.500, 17.443 22.011, 19.727 19.727 C 22.011 17.443, 22.500 16.081, 22.500 12 C 22.500 7.999, 22 6.546, 19.903 4.448 C 18.256 2.802, 15.876 1.699, 13.403 1.438 M 12 3 C 9.848 3, 7.918 3.928, 5.923 5.923 C 3.928 7.918, 3 9.848, 3 12 C 3 14.152, 3.928 16.082, 5.923 18.077 C 7.918 20.072, 9.848 21, 12 21 C 14.152 21, 16.082 20.072, 18.077 18.077 C 20.072 16.082, 21 14.152, 21 12 C 21 9.848, 20.072 7.918, 18.077 5.923 C 16.082 3.928, 14.152 3, 12 3 M 12.237 7.397 C 10.443 7.307, 8.728 7.630, 8.428 8.116 C 8.128 8.602, 8.128 9.398, 8.428 9.884 C 8.728 10.370, 10.443 10.693, 12.237 10.603 C 14.333 10.498, 15.500 9.925, 15.500 9 C 15.500 8.075, 14.333 7.502, 12.237 7.397 M 12 12 C 11.515 12, 10.816 12.489, 10.446 13.087 C 10.077 13.685, 10.275 14.675, 10.887 15.287 C 11.704 16.104, 12.296 16.104, 13.113 15.287 C 13.725 14.675, 13.923 13.685, 13.554 13.087 C 13.184 12.489, 12.485 12, 12 12" stroke="none" fill="black" fill-rule="evenodd"/>
</svg>