<svg viewBox="0 0 24 24" xmlns="http://www.w3.org/2000/svg" fill="none" stroke="#000000" stroke-width="2" stroke-linecap="round" stroke-linejoin="round"><path d="M11.280 1.023 C 11.203 1.032,10.951 1.059,10.720 1.083 C 8.832 1.283,6.991 2.023,5.360 3.235 C 4.751 3.688,3.684 4.755,3.226 5.367 C 0.728 8.714,0.301 13.032,2.097 16.780 C 2.643 17.918,3.276 18.801,4.238 19.762 C 5.199 20.724,6.082 21.357,7.220 21.903 C 10.967 23.699,15.288 23.270,18.637 20.770 C 19.246 20.316,20.316 19.246,20.770 18.637 C 23.744 14.652,23.744 9.348,20.770 5.363 C 20.316 4.755,19.247 3.686,18.640 3.235 C 17.045 2.049,15.365 1.360,13.423 1.096 C 13.000 1.038,11.574 0.990,11.280 1.023 M13.320 3.101 C 15.883 3.488,18.124 4.931,19.560 7.120 C 19.863 7.583,20.303 8.479,20.492 9.020 C 20.838 10.013,20.977 10.865,20.977 12.000 C 20.977 13.493,20.720 14.621,20.080 15.940 C 19.375 17.394,18.311 18.607,16.927 19.532 C 16.138 20.060,14.876 20.588,13.908 20.797 C 11.266 21.366,8.479 20.708,6.370 19.019 C 4.857 17.807,3.722 16.029,3.267 14.160 C 3.081 13.397,3.023 12.888,3.023 12.000 C 3.023 10.507,3.280 9.379,3.920 8.060 C 4.971 5.891,6.877 4.221,9.160 3.466 C 9.865 3.233,10.432 3.118,11.340 3.024 C 11.662 2.991,12.911 3.039,13.320 3.101 M9.477 7.073 C 8.806 7.249,8.238 7.823,8.060 8.508 C 7.941 8.962,8.003 9.492,8.225 9.930 C 8.361 10.199,8.801 10.639,9.070 10.775 C 9.659 11.073,10.341 11.073,10.930 10.775 C 11.381 10.546,11.865 9.924,11.941 9.476 C 11.974 9.279,12.023 9.276,12.054 9.470 C 12.127 9.913,12.620 10.547,13.070 10.775 C 13.659 11.073,14.341 11.073,14.930 10.775 C 15.196 10.640,15.638 10.200,15.771 9.937 C 16.065 9.358,16.068 8.649,15.781 8.083 C 15.646 7.816,15.297 7.449,15.017 7.281 C 14.413 6.918,13.587 6.918,12.983 7.281 C 12.542 7.546,12.123 8.110,12.054 8.531 C 12.020 8.743,11.973 8.749,11.943 8.547 C 11.878 8.111,11.470 7.553,11.017 7.281 C 10.734 7.110,10.345 7.005,10.000 7.005 C 9.857 7.005,9.622 7.036,9.477 7.073 M11.477 12.073 C 10.806 12.249,10.238 12.823,10.060 13.508 C 9.941 13.962,10.003 14.492,10.225 14.930 C 10.361 15.199,10.801 15.639,11.070 15.775 C 11.659 16.073,12.341 16.073,12.930 15.775 C 13.196 15.640,13.638 15.200,13.771 14.937 C 13.994 14.498,14.052 14.007,13.940 13.529 C 13.858 13.182,13.720 12.927,13.465 12.653 C 13.074 12.232,12.560 12.005,12.000 12.005 C 11.857 12.005,11.622 12.036,11.477 12.073 " stroke="none" fill="black" fill-rule="evenodd"></path></svg>