<svg xmlns="http://www.w3.org/2000/svg" width="24" height="24" viewBox="0 0 24 24" version="1.1">
	<path d="M 12.256 1.299 C 6.321 1.135, 4.860 1.405, 4.141 2.799 C 3.659 3.735, 2.719 6.824, 2.053 9.664 C 0.993 14.182, 1.057 15.157, 2.562 17.455 C 3.509 18.899, 5.232 20.616, 6.392 21.270 C 7.551 21.924, 10.212 22.541, 12.303 22.643 C 15.452 22.795, 16.716 22.218, 19.642 19.291 C 22.771 16.162, 23.101 15.352, 22.517 12.239 C 22.154 10.304, 21.325 7.097, 20.676 5.111 L 19.494 1.500 12.256 1.299 M 7.582 3.393 C 6.637 3.031, 5.952 3.333, 5.882 4.143 C 5.816 4.889, 5.832 5.885, 5.917 6.355 C 6.001 6.826, 5.566 7.818, 4.949 8.561 C 4.332 9.304, 4.099 10.351, 4.430 10.887 C 4.762 11.423, 4.575 12.144, 4.016 12.490 C 3.457 12.835, 3 13.507, 3 13.982 C 3 14.457, 4.388 16.234, 6.084 17.930 C 7.780 19.626, 9.580 20.759, 10.084 20.448 C 10.588 20.137, 11 16.309, 11 11.941 C 11 7.573, 10.587 4, 10.082 4 C 9.577 4, 8.452 3.727, 7.582 3.393 M 17.250 3.116 C 16.837 3.180, 15.713 3.438, 14.750 3.689 C 13.270 4.076, 13 5.362, 13 12.014 C 13 16.342, 13.412 20.137, 13.916 20.448 C 14.420 20.759, 16.220 19.626, 17.916 17.930 C 19.612 16.234, 21 14.457, 21 13.982 C 21 13.507, 20.570 12.852, 20.044 12.527 C 19.518 12.202, 19.323 11.321, 19.612 10.569 C 19.900 9.817, 19.656 8.905, 19.068 8.542 C 18.481 8.179, 18 6.784, 18 5.441 C 18 4.098, 17.663 3.052, 17.250 3.116" stroke="none" fill="black" fill-rule="evenodd"/>
</svg>