<svg xmlns="http://www.w3.org/2000/svg" width="24" height="24" viewBox="0 0 24 24" version="1.1">
	<path d="M 4.141 2.799 C 3.659 3.735, 2.719 6.824, 2.053 9.664 C 0.993 14.182, 1.057 15.157, 2.562 17.455 C 4.827 20.911, 7.656 22.418, 12.303 22.643 C 15.452 22.795, 16.716 22.218, 19.642 19.291 C 23.451 15.483, 23.563 13.936, 20.676 5.111 L 19.494 1.500 12.256 1.299 C 6.321 1.135, 4.860 1.405, 4.141 2.799 M 5.882 4.143 C 5.816 4.889, 5.832 5.885, 5.917 6.355 C 6.001 6.826, 5.566 7.818, 4.949 8.561 C 4.332 9.304, 4.099 10.351, 4.430 10.887 C 4.762 11.423, 4.575 12.144, 4.016 12.490 C 3.457 12.835, 3 13.507, 3 13.982 C 3 15.461, 9.118 21.045, 10.084 20.448 C 11.282 19.708, 11.280 4, 10.082 4 C 9.577 4, 8.452 3.727, 7.582 3.393 C 6.637 3.031, 5.952 3.333, 5.882 4.143 M 14.750 3.689 C 13.270 4.076, 13 5.362, 13 12.014 C 13 16.342, 13.412 20.137, 13.916 20.448 C 14.882 21.045, 21 15.461, 21 13.982 C 21 13.507, 20.570 12.852, 20.044 12.527 C 19.518 12.202, 19.323 11.321, 19.612 10.569 C 19.900 9.817, 19.656 8.905, 19.068 8.542 C 18.481 8.179, 18 6.784, 18 5.441 C 18 2.962, 17.848 2.880, 14.750 3.689" stroke="none" fill="#000000" fill-rule="evenodd"/>
</svg>