<svg viewBox="0 0 24 24" xmlns="http://www.w3.org/2000/svg" fill="none" stroke="#000000" stroke-width="2" stroke-linecap="round" stroke-linejoin="round"><path d="M9.063 1.482 C 7.870 1.669,6.905 2.368,6.412 3.400 C 6.312 3.609,6.218 3.806,6.202 3.838 C 6.185 3.873,6.053 3.916,5.870 3.947 C 4.656 4.152,3.605 5.052,3.193 6.240 C 3.087 6.543,3.000 7.016,3.000 7.282 C 3.000 7.500,2.997 7.506,2.805 7.652 C 1.817 8.406,1.212 9.863,1.360 11.135 C 1.477 12.144,1.850 12.902,2.584 13.628 L 2.957 13.996 2.865 14.268 C 2.720 14.699,2.665 15.112,2.693 15.572 C 2.754 16.606,3.235 17.519,4.050 18.147 C 4.243 18.296,4.274 18.337,4.241 18.398 C 4.220 18.438,4.154 18.648,4.096 18.865 C 4.003 19.207,3.989 19.337,3.989 19.840 C 3.989 20.339,4.004 20.474,4.093 20.804 C 4.486 22.259,5.538 23.311,6.996 23.708 C 7.329 23.798,7.458 23.812,7.960 23.811 C 8.457 23.811,8.595 23.796,8.924 23.707 C 9.649 23.511,10.185 23.211,10.715 22.703 C 11.059 22.374,11.168 22.168,11.170 21.845 C 11.171 21.577,11.083 21.350,10.908 21.166 C 10.695 20.945,10.499 20.862,10.180 20.862 C 9.841 20.862,9.721 20.919,9.360 21.251 C 8.704 21.856,7.854 21.992,7.086 21.616 C 6.317 21.239,5.880 20.409,6.000 19.557 C 6.052 19.195,6.168 18.926,6.415 18.600 C 6.665 18.271,6.728 18.117,6.730 17.841 C 6.733 17.342,6.419 16.980,5.865 16.844 C 5.405 16.731,5.012 16.410,4.812 15.980 C 4.715 15.772,4.700 15.692,4.701 15.380 C 4.702 15.073,4.718 14.985,4.812 14.783 C 4.872 14.653,5.003 14.452,5.102 14.336 C 5.331 14.067,5.412 13.876,5.412 13.600 C 5.412 13.173,5.171 12.840,4.729 12.656 C 4.021 12.361,3.585 11.899,3.414 11.260 C 3.334 10.960,3.346 10.455,3.439 10.151 C 3.592 9.659,3.949 9.227,4.406 8.983 C 4.674 8.840,4.862 8.667,4.973 8.460 C 5.045 8.326,5.056 8.248,5.045 7.980 C 5.008 7.137,5.017 7.034,5.146 6.759 C 5.300 6.430,5.550 6.181,5.878 6.026 C 6.146 5.900,6.278 5.887,7.000 5.919 C 7.608 5.945,7.995 5.549,8.055 4.840 C 8.131 3.945,8.931 3.323,9.802 3.480 C 10.129 3.539,10.394 3.682,10.617 3.921 C 10.826 4.144,10.931 4.342,11.000 4.640 C 11.064 4.919,11.126 5.040,11.283 5.197 C 11.492 5.406,11.706 5.494,12.000 5.494 C 12.298 5.494,12.504 5.407,12.716 5.193 C 12.880 5.026,12.936 4.917,12.999 4.640 C 13.098 4.207,13.408 3.800,13.786 3.607 C 14.308 3.341,15.002 3.433,15.439 3.827 C 15.770 4.125,15.957 4.538,15.960 4.980 C 15.961 5.185,16.112 5.504,16.285 5.668 C 16.486 5.858,16.695 5.932,17.000 5.919 C 17.724 5.887,17.853 5.900,18.122 6.028 C 18.451 6.184,18.699 6.431,18.853 6.758 C 18.987 7.042,19.012 7.350,18.944 7.903 C 18.914 8.152,18.920 8.209,18.997 8.383 C 19.110 8.638,19.283 8.815,19.572 8.969 C 20.247 9.330,20.641 9.981,20.640 10.734 C 20.638 11.631,20.177 12.279,19.271 12.656 C 18.829 12.840,18.588 13.173,18.588 13.600 C 18.588 13.876,18.669 14.067,18.898 14.336 C 18.997 14.452,19.128 14.653,19.188 14.783 C 19.282 14.985,19.298 15.073,19.299 15.380 C 19.300 15.692,19.285 15.772,19.188 15.980 C 18.988 16.410,18.595 16.731,18.135 16.844 C 17.581 16.980,17.267 17.342,17.270 17.841 C 17.272 18.117,17.335 18.271,17.585 18.600 C 17.832 18.926,17.948 19.195,18.000 19.557 C 18.120 20.409,17.683 21.239,16.914 21.616 C 16.146 21.992,15.296 21.856,14.640 21.251 C 14.279 20.919,14.159 20.862,13.820 20.862 C 13.501 20.862,13.305 20.945,13.092 21.166 C 12.917 21.350,12.829 21.577,12.830 21.845 C 12.832 22.168,12.941 22.374,13.285 22.703 C 13.816 23.211,14.352 23.512,15.076 23.707 C 15.619 23.853,16.415 23.860,16.940 23.724 C 18.173 23.404,19.163 22.592,19.666 21.491 C 20.076 20.590,20.135 19.543,19.828 18.608 L 19.732 18.315 19.956 18.143 C 21.133 17.235,21.608 15.672,21.135 14.268 L 21.043 13.996 21.416 13.628 C 22.147 12.905,22.523 12.140,22.640 11.135 C 22.788 9.863,22.183 8.406,21.195 7.652 C 21.003 7.506,21.000 7.500,21.000 7.282 C 21.000 7.016,20.913 6.543,20.807 6.240 C 20.395 5.052,19.344 4.152,18.130 3.947 C 17.947 3.916,17.815 3.873,17.798 3.838 C 17.782 3.806,17.688 3.609,17.588 3.400 C 16.884 1.925,15.189 1.149,13.574 1.562 C 13.066 1.691,12.651 1.910,12.190 2.291 L 12.000 2.447 11.810 2.291 C 11.349 1.910,10.936 1.692,10.420 1.559 C 10.052 1.464,9.409 1.427,9.063 1.482 M11.695 7.057 C 11.466 7.129,11.256 7.299,11.128 7.516 C 11.023 7.695,11.020 7.721,11.007 8.424 L 10.994 9.148 10.667 9.315 C 9.922 9.693,9.364 10.356,9.114 11.160 C 8.979 11.594,8.979 12.406,9.114 12.840 C 9.363 13.640,9.929 14.314,10.660 14.684 L 10.980 14.845 11.000 15.576 C 11.020 16.304,11.020 16.307,11.141 16.503 C 11.543 17.156,12.457 17.156,12.859 16.503 C 12.980 16.307,12.980 16.304,13.000 15.576 L 13.020 14.845 13.340 14.684 C 14.071 14.314,14.637 13.640,14.886 12.840 C 15.021 12.406,15.021 11.594,14.886 11.160 C 14.636 10.356,14.078 9.693,13.333 9.315 L 13.006 9.148 12.993 8.424 C 12.980 7.721,12.977 7.695,12.872 7.516 C 12.628 7.101,12.150 6.915,11.695 7.057 M12.310 11.061 C 12.688 11.173,13.000 11.598,13.000 12.001 C 13.000 12.331,12.784 12.696,12.484 12.872 C 12.328 12.963,12.254 12.980,12.000 12.980 C 11.746 12.980,11.672 12.963,11.516 12.872 C 10.935 12.530,10.833 11.774,11.304 11.303 C 11.583 11.024,11.916 10.944,12.310 11.061 " stroke="none" fill-rule="evenodd" fill="black"></path></svg>