<svg xmlns="http://www.w3.org/2000/svg" width="24" height="24" viewBox="0 0 24 24" version="1.1">
	<path d="M 12.499 1.444 C 10.684 1.300, 8.075 1.967, 6.556 2.963 C 5.066 3.941, 3.212 5.966, 2.434 7.464 C 1.205 9.833, 1.225 10.861, 2.582 15.344 C 3.440 18.180, 4.497 21.175, 4.930 22 C 5.364 22.825, 6.756 23.500, 8.026 23.500 C 9.295 23.500, 10.521 22.936, 10.751 22.247 C 11.020 21.440, 10.337 21.084, 8.834 21.247 C 6.949 21.451, 6.546 21.068, 6.738 19.250 C 6.869 18.012, 6.591 17, 6.119 17 C 5.648 17, 5.011 15.458, 4.705 13.573 C 4.400 11.687, 4.393 9.212, 4.691 8.073 C 4.989 6.933, 5.856 6, 6.617 6 C 7.377 6, 8 5.550, 8 5 C 8 4.450, 8.637 4, 9.417 4 C 10.196 4, 11.096 4.563, 11.417 5.250 C 11.883 6.250, 12.117 6.250, 12.583 5.250 C 12.904 4.562, 13.804 4, 14.583 4 C 15.363 4, 16 4.450, 16 5 C 16 5.550, 16.623 6, 17.383 6 C 18.144 6, 19.011 6.933, 19.309 8.073 C 19.607 9.212, 19.600 11.687, 19.295 13.573 C 18.989 15.458, 18.352 17, 17.881 17 C 17.409 17, 17.131 18.012, 17.262 19.250 C 17.454 21.068, 17.051 21.451, 15.166 21.247 C 13.663 21.084, 12.980 21.440, 13.249 22.247 C 13.479 22.936, 14.705 23.500, 15.974 23.500 C 17.244 23.500, 18.636 22.825, 19.070 22 C 19.503 21.175, 20.560 18.180, 21.418 15.344 C 22.766 10.893, 22.789 9.822, 21.588 7.507 C 20.823 6.033, 19.193 4.123, 17.966 3.263 C 16.738 2.404, 14.278 1.585, 12.499 1.444 M 12 7 C 11.636 7, 10.736 8.125, 10 9.500 C 8.883 11.588, 8.883 12.412, 10 14.500 C 10.736 15.875, 11.636 17, 12 17 C 12.364 17, 13.264 15.875, 14 14.500 C 15.117 12.412, 15.117 11.588, 14 9.500 C 13.264 8.125, 12.364 7, 12 7 M 12 11 C 11.450 11, 11 11.450, 11 12 C 11 12.550, 11.450 13, 12 13 C 12.550 13, 13 12.550, 13 12 C 13 11.450, 12.550 11, 12 11" stroke="none" fill="black" fill-rule="evenodd"/>
</svg>