<svg xmlns="http://www.w3.org/2000/svg" width="24" height="24" viewBox="0 0 24 24" version="1.1">
	<path d="M 4.893 3.804 C 1.882 6.494, 1.500 7.406, 1.500 11.895 C 1.500 16.091, 1.973 17.428, 4.273 19.727 C 6.557 22.011, 7.919 22.500, 12 22.500 C 16.081 22.500, 17.443 22.011, 19.727 19.727 C 22.011 17.443, 22.500 16.081, 22.500 12 C 22.500 5.537, 19.300 2.014, 12.761 1.277 C 8.825 0.833, 7.878 1.137, 4.893 3.804 M 5.114 6.582 C 2.942 9.343, 2.428 11.005, 3.750 10.994 C 4.672 10.986, 8.225 4.892, 7.645 4.312 C 7.416 4.082, 6.277 5.104, 5.114 6.582 M 13.750 4.689 C 12.787 4.941, 12 5.584, 12 6.119 C 12 7.451, 16.651 12, 18.014 12 C 18.621 12, 18.840 12.450, 18.500 13 C 18.160 13.550, 18.584 14, 19.441 14 C 21.698 14, 21.404 9.784, 18.927 6.635 C 17.788 5.186, 16.550 4.052, 16.177 4.116 C 15.805 4.180, 14.713 4.438, 13.750 4.689 M 8.489 8.018 C 7.574 9.498, 8.442 10.255, 10.577 9.838 C 12.140 9.534, 12.156 9.371, 10.745 8.201 C 9.620 7.269, 8.984 7.218, 8.489 8.018 M 3 14.077 C 3 16.489, 8.859 21, 11.993 21 C 14.684 21, 15.093 20.674, 14.820 18.750 C 14.543 16.799, 13.990 16.540, 10.670 16.803 C 7.510 17.053, 6.747 16.748, 6.304 15.053 C 5.754 12.950, 3 12.136, 3 14.077 M 8 14 C 8 15.174, 8.769 15.174, 11.500 14 C 13.272 13.238, 13.187 13.133, 10.750 13.070 C 9.238 13.032, 8 13.450, 8 14 M 17 17.622 C 17 18.951, 17.271 19.020, 18.500 18 C 19.325 17.315, 20 16.585, 20 16.378 C 20 16.170, 19.325 16, 18.500 16 C 17.675 16, 17 16.730, 17 17.622" stroke="none" fill="black" fill-rule="evenodd"/>
</svg>