<svg viewBox="0 0 24 24" xmlns="http://www.w3.org/2000/svg"><path d="M13.720 4.697 C 13.086 4.873,12.383 5.406,11.737 6.201 C 11.307 6.730,11.092 7.432,11.130 8.178 C 11.196 9.449,12.053 10.558,13.530 11.284 C 14.016 11.523,14.036 11.523,14.586 11.262 C 15.394 10.879,16.024 10.357,16.451 9.715 C 17.365 8.342,17.198 6.721,16.021 5.537 C 15.387 4.899,14.839 4.635,14.168 4.644 C 14.021 4.646,13.819 4.670,13.720 4.697 M6.720 9.697 C 6.086 9.873,5.383 10.406,4.737 11.201 C 4.307 11.730,4.092 12.432,4.130 13.178 C 4.196 14.449,5.053 15.558,6.530 16.284 C 7.016 16.523,7.036 16.523,7.586 16.262 C 8.394 15.879,9.024 15.357,9.451 14.715 C 10.365 13.342,10.198 11.721,9.021 10.537 C 8.387 9.899,7.839 9.635,7.168 9.644 C 7.021 9.646,6.819 9.670,6.720 9.697 M20.780 9.702 C 20.191 9.851,19.558 10.293,18.948 10.983 C 18.376 11.630,18.154 12.195,18.148 13.020 C 18.145 13.520,18.233 13.908,18.445 14.332 C 18.843 15.126,19.620 15.831,20.617 16.304 L 20.993 16.482 21.248 16.386 C 21.861 16.155,22.469 15.769,22.918 15.324 C 23.422 14.824,23.759 14.252,23.919 13.624 C 24.021 13.224,24.029 12.542,23.936 12.163 C 23.860 11.853,23.621 11.323,23.437 11.056 C 23.071 10.523,22.374 9.951,21.864 9.763 C 21.554 9.649,21.092 9.623,20.780 9.702 " fill="#000000" stroke="none" fill-rule="evenodd"></path></svg>