<svg xmlns="http://www.w3.org/2000/svg" width="24" height="24" viewBox="0 0 24 24" version="1.1">
	<path d="M 2.635 7.073 C -0.906 9.857, -0.906 14.143, 2.635 16.927 C 5.874 19.475, 7.142 19.515, 10.050 17.161 C 12.256 15.374, 12.375 15.375, 14.184 17.184 C 15.550 18.550, 16.517 18.794, 17.814 18.099 C 18.787 17.579, 20.457 17.231, 21.526 17.326 C 23 17.458, 23.701 16.575, 24.430 13.672 C 25.534 9.272, 24.291 6.398, 21.403 6.674 C 20.402 6.769, 18.787 6.421, 17.814 5.901 C 16.517 5.206, 15.550 5.450, 14.184 6.816 C 12.375 8.625, 12.256 8.626, 10.050 6.839 C 7.142 4.485, 5.874 4.525, 2.635 7.073 M 3.243 9.157 C 0.379 12.021, 2.932 16.444, 7.093 15.827 C 10.129 15.376, 11.818 12.524, 10.394 10.250 C 9.049 8.102, 4.928 7.472, 3.243 9.157 M 14.500 10 C 13.663 12.638, 14.784 16, 16.500 16 C 18.216 16, 19.337 12.638, 18.500 10 C 18.151 8.900, 17.251 8, 16.500 8 C 15.749 8, 14.849 8.900, 14.500 10 M 0.232 12 C 0.232 13.925, 0.438 14.713, 0.689 13.750 C 0.941 12.787, 0.941 11.213, 0.689 10.250 C 0.438 9.287, 0.232 10.075, 0.232 12" stroke="none" fill="#000000" fill-rule="evenodd"/>
</svg>