<svg viewBox="0 0 24 24" xmlns="http://www.w3.org/2000/svg"><path d="M5.545 2.659 C 5.376 2.719,5.144 2.921,5.061 3.080 C 5.032 3.135,4.177 5.727,3.161 8.840 C 1.404 14.222,1.314 14.512,1.328 14.745 C 1.339 14.925,1.371 15.033,1.447 15.148 C 1.525 15.266,2.840 16.242,6.745 19.081 C 9.602 21.158,11.967 22.857,12.000 22.857 C 12.059 22.857,22.183 15.534,22.415 15.324 C 22.578 15.177,22.678 14.936,22.679 14.691 C 22.680 14.522,22.326 13.396,20.835 8.831 C 19.821 5.723,18.967 3.134,18.938 3.077 C 18.856 2.916,18.581 2.690,18.413 2.643 C 18.059 2.545,17.770 2.619,17.515 2.875 C 17.330 3.059,17.328 3.067,16.862 4.500 C 16.604 5.292,16.169 6.629,15.895 7.470 L 15.396 9.000 12.000 9.000 L 8.604 9.000 8.105 7.470 C 7.831 6.629,7.396 5.292,7.138 4.500 C 6.672 3.067,6.669 3.059,6.485 2.875 C 6.221 2.610,5.893 2.535,5.545 2.659 " fill="#000000" stroke="none" fill-rule="evenodd"></path></svg>