<svg xmlns="http://www.w3.org/2000/svg" width="24" height="24" viewBox="0 0 24 24" version="1.1">
	<path d="M 13.403 1.438 C 11.256 1.210, 8.600 1.416, 7.500 1.894 C 6.400 2.373, 4.600 3.764, 3.500 4.987 C 2.078 6.568, 1.500 8.618, 1.500 12.082 C 1.500 16.074, 2.001 17.456, 4.273 19.727 C 6.557 22.011, 7.919 22.500, 12 22.500 C 16.081 22.500, 17.443 22.011, 19.727 19.727 C 22.011 17.443, 22.500 16.081, 22.500 12 C 22.500 7.999, 22 6.546, 19.903 4.448 C 18.256 2.802, 15.876 1.699, 13.403 1.438 M 9.923 3 C 9.331 3, 7.531 4.315, 5.923 5.923 C 3.928 7.918, 3 9.848, 3 12 C 3 14.152, 3.928 16.082, 5.923 18.077 C 7.918 20.072, 9.848 21, 12 21 C 14.152 21, 16.082 20.072, 18.077 18.077 C 19.833 16.321, 21 14.099, 21 12.511 C 21 11.058, 20.565 9.057, 20.034 8.064 C 19.293 6.680, 18.129 6.339, 15.034 6.602 C 11.570 6.895, 11 6.665, 11 4.972 C 11 3.887, 10.515 3, 9.923 3 M 14 3 C 13.450 3, 13 3.477, 13 4.059 C 13 4.641, 13.450 4.840, 14 4.500 C 14.550 4.160, 15 3.684, 15 3.441 C 15 3.198, 14.550 3, 14 3 M 6 10 C 4.667 10, 4 10.667, 4 12 C 4 13.100, 4.257 14, 4.571 14 C 4.886 14, 5.786 13.357, 6.571 12.571 C 7.357 11.786, 8 10.886, 8 10.571 C 8 10.257, 7.100 10, 6 10 M 16 10 C 14.900 10, 14 10.257, 14 10.571 C 14 10.886, 14.643 11.786, 15.429 12.571 C 16.214 13.357, 17.114 14, 17.429 14 C 17.743 14, 18 13.100, 18 12 C 18 10.667, 17.333 10, 16 10 M 13 15.333 C 11.251 15.333, 10.099 15.796, 10.306 16.417 C 10.504 17.012, 11.717 17.500, 13 17.500 C 14.283 17.500, 15.496 17.012, 15.694 16.417 C 15.901 15.796, 14.749 15.333, 13 15.333" stroke="none" fill="black" fill-rule="evenodd"/>
</svg>