<svg viewBox="0 0 24 24" xmlns="http://www.w3.org/2000/svg"><path d="M11.491 3.058 C 10.295 3.331,9.272 4.755,9.039 6.470 C 8.943 7.175,9.049 7.665,9.422 8.245 C 9.898 8.986,10.843 9.716,11.621 9.942 C 12.276 10.132,13.326 9.762,14.046 9.087 C 14.857 8.325,15.127 7.459,14.943 6.209 C 14.700 4.557,13.883 3.414,12.718 3.098 C 12.394 3.010,11.788 2.990,11.491 3.058 M10.320 10.025 C 8.740 10.168,7.570 10.708,7.135 11.492 C 7.037 11.669,7.020 11.744,7.020 12.000 C 7.020 12.257,7.037 12.330,7.137 12.510 C 7.262 12.736,7.564 13.054,7.815 13.225 C 8.060 13.391,8.589 13.626,8.960 13.733 C 9.618 13.923,10.038 13.975,10.920 13.976 C 11.844 13.976,12.207 13.919,12.874 13.669 C 13.346 13.491,13.634 13.317,13.967 13.005 C 14.326 12.670,14.490 12.351,14.490 11.986 C 14.490 11.053,13.641 10.346,12.220 10.098 C 11.871 10.037,10.685 9.991,10.320 10.025 M9.858 15.040 C 7.639 15.215,6.515 15.869,6.508 16.989 C 6.507 17.242,6.525 17.314,6.651 17.569 C 6.825 17.920,7.096 18.232,7.488 18.532 C 8.864 19.585,11.181 20.202,12.763 19.937 C 14.258 19.686,15.770 18.683,16.326 17.574 C 16.584 17.059,16.551 16.788,16.189 16.438 C 15.598 15.865,14.086 15.326,12.435 15.100 C 11.887 15.025,10.469 14.992,9.858 15.040 " fill="#000000" stroke="none" fill-rule="evenodd"></path></svg>