<svg xmlns="http://www.w3.org/2000/svg" width="24" height="24" viewBox="0 0 24 24" version="1.1">
	<path d="M 1.442 2.290 C 1.155 3.038, 1.051 7.891, 1.210 13.075 L 1.500 22.500 12 22.500 L 22.500 22.500 22.500 12 L 22.500 1.500 12.232 1.215 C 4.296 0.994, 1.846 1.238, 1.442 2.290 M 8.267 6.733 L 12 10.467 15.733 6.733 L 19.467 3 12 3 L 4.533 3 8.267 6.733 M 3 12 L 3 19.467 6.733 15.733 L 10.467 12 6.733 8.267 L 3 4.533 3 12 M 16.982 8.519 L 13.571 12.038 17.286 15.752 L 21 19.467 21 12.233 C 21 8.255, 20.863 5, 20.696 5 C 20.529 5, 18.858 6.583, 16.982 8.519 M 8 17.500 L 4.608 21 12 21 L 19.392 21 16 17.500 C 14.134 15.575, 12.334 14, 12 14 C 11.666 14, 9.866 15.575, 8 17.500" stroke="none" fill="black" fill-rule="evenodd"/>
</svg>