<svg viewBox="0 0 24 24" xmlns="http://www.w3.org/2000/svg"><path d="M16.231 2.512 L 15.602 3.099 15.755 3.260 C 15.839 3.348,16.937 4.513,18.195 5.850 C 19.454 7.187,20.493 8.280,20.504 8.280 C 20.516 8.280,20.812 8.015,21.162 7.692 L 21.800 7.103 21.646 6.942 C 21.562 6.853,20.463 5.687,19.205 4.350 C 17.946 3.013,16.904 1.921,16.888 1.923 C 16.873 1.924,16.577 2.189,16.231 2.512 M13.389 4.071 C 13.272 4.219,13.035 4.518,12.863 4.736 C 12.690 4.954,12.547 5.154,12.545 5.181 C 12.541 5.224,18.502 9.953,18.585 9.973 C 18.622 9.982,19.685 8.635,19.671 8.597 C 19.665 8.582,19.435 8.392,19.160 8.176 C 18.885 7.960,17.522 6.887,16.131 5.793 L 13.601 3.802 13.389 4.071 M10.201 8.198 C 9.845 8.910,9.808 9.002,9.870 9.034 C 10.111 9.160,16.760 12.280,16.787 12.280 C 16.821 12.280,17.615 10.720,17.592 10.701 C 17.585 10.695,16.041 9.966,14.160 9.080 C 12.279 8.195,10.709 7.454,10.671 7.434 C 10.611 7.403,10.547 7.508,10.201 8.198 M8.701 12.141 C 8.595 12.592,8.520 12.974,8.535 12.988 C 8.569 13.023,15.971 14.602,15.994 14.580 C 16.015 14.558,16.405 12.910,16.391 12.901 C 16.370 12.887,8.979 11.319,8.937 11.320 C 8.913 11.320,8.807 11.689,8.701 12.141 M6.600 16.620 L 6.600 18.520 11.750 18.510 L 16.900 18.500 16.910 16.610 L 16.921 14.720 16.000 14.720 L 15.080 14.720 15.080 15.760 L 15.080 16.800 11.740 16.800 L 8.400 16.800 8.400 15.760 L 8.400 14.720 7.500 14.720 L 6.600 14.720 6.600 16.620 " fill="#000000" stroke="none" fill-rule="evenodd"></path></svg>