<svg viewBox="0 0 24 24" xmlns="http://www.w3.org/2000/svg"><path d="M13.000 6.000 L 13.000 7.000 12.000 7.000 L 11.000 7.000 11.000 6.500 L 11.000 6.000 10.000 6.000 L 9.000 6.000 9.000 6.500 L 9.000 7.000 8.000 7.000 L 7.000 7.000 7.000 6.500 L 7.000 6.000 6.000 6.000 L 5.000 6.000 5.000 6.497 L 5.000 6.993 4.650 7.203 C 4.190 7.480,3.847 7.756,3.479 8.148 C 2.854 8.812,2.435 9.588,2.189 10.540 C 2.036 11.131,1.985 11.643,2.012 12.317 C 2.112 14.787,3.318 16.850,5.480 18.250 C 6.806 19.109,8.386 19.652,10.300 19.906 C 11.033 20.004,12.967 20.004,13.700 19.906 C 15.614 19.652,17.194 19.109,18.520 18.250 C 20.633 16.881,21.850 14.846,21.986 12.450 L 22.013 11.993 21.006 12.497 L 20.000 13.000 19.999 12.810 C 19.998 12.501,19.891 11.805,19.788 11.440 C 19.530 10.525,19.137 9.814,18.531 9.161 C 18.162 8.763,17.817 8.484,17.350 8.203 L 17.000 7.993 17.000 7.497 L 17.000 7.000 16.000 7.000 L 15.000 7.000 15.000 6.000 L 15.000 5.000 14.000 5.000 L 13.000 5.000 13.000 6.000 M8.000 12.000 L 8.000 13.000 7.000 13.000 L 6.000 13.000 6.000 12.000 L 6.000 11.000 7.000 11.000 L 8.000 11.000 8.000 12.000 M12.000 12.000 L 12.000 13.000 11.000 13.000 L 10.000 13.000 10.000 12.000 L 10.000 11.000 11.000 11.000 L 12.000 11.000 12.000 12.000 M16.000 12.000 L 16.000 13.000 15.000 13.000 L 14.000 13.000 14.000 12.000 L 14.000 11.000 15.000 11.000 L 16.000 11.000 16.000 12.000 M8.000 16.000 L 8.000 17.000 7.000 17.000 L 6.000 17.000 6.000 16.000 L 6.000 15.000 7.000 15.000 L 8.000 15.000 8.000 16.000 M12.000 16.000 L 12.000 17.000 11.000 17.000 L 10.000 17.000 10.000 16.000 L 10.000 15.000 11.000 15.000 L 12.000 15.000 12.000 16.000 M16.000 16.000 L 16.000 17.000 15.000 17.000 L 14.000 17.000 14.000 16.000 L 14.000 15.000 15.000 15.000 L 16.000 15.000 16.000 16.000 " fill="#000000" stroke="none" fill-rule="evenodd"></path></svg>