<svg viewBox="0 0 24 24" xmlns="http://www.w3.org/2000/svg" fill="none" stroke="#000000" stroke-width="2" stroke-linecap="round" stroke-linejoin="round"><path d="M11.648 1.070 C 11.552 1.110,9.467 2.704,6.858 4.734 C 1.678 8.764,2.020 8.462,2.020 9.000 C 2.020 9.540,1.737 9.287,6.299 12.830 C 8.530 14.563,10.356 15.989,10.356 16.000 C 10.356 16.011,8.927 17.131,7.180 18.488 L 4.002 20.956 3.991 18.328 L 3.980 15.700 3.871 15.514 C 3.479 14.848,2.521 14.848,2.129 15.514 L 2.020 15.700 2.020 19.500 L 2.020 23.300 2.129 23.486 C 2.190 23.589,2.331 23.746,2.445 23.836 L 2.650 24.000 4.265 24.000 C 5.153 24.000,5.880 23.994,5.880 23.987 C 5.880 23.979,5.602 23.759,5.261 23.497 C 4.921 23.234,4.643 23.011,4.644 23.000 C 4.645 22.966,11.958 17.300,12.000 17.300 C 12.042 17.300,19.355 22.966,19.356 23.000 C 19.357 23.011,19.079 23.234,18.739 23.497 C 18.398 23.759,18.120 23.979,18.120 23.987 C 18.120 23.994,18.847 24.000,19.735 24.000 L 21.350 24.000 21.555 23.836 C 21.669 23.746,21.810 23.589,21.871 23.486 L 21.980 23.300 21.980 19.500 L 21.980 15.700 21.871 15.514 C 21.479 14.848,20.521 14.848,20.129 15.514 L 20.020 15.700 20.009 18.328 L 19.998 20.956 16.820 18.488 C 15.073 17.131,13.644 16.011,13.644 16.000 C 13.644 15.989,15.470 14.563,17.701 12.830 C 22.263 9.287,21.980 9.540,21.980 9.000 C 21.980 8.462,22.319 8.762,17.170 4.755 C 14.646 2.790,12.509 1.147,12.422 1.103 C 12.209 0.996,11.866 0.981,11.648 1.070 M15.698 6.140 C 17.709 7.702,19.356 8.989,19.356 9.000 C 19.357 9.011,17.927 10.131,16.180 11.488 L 13.002 13.956 12.991 11.328 L 12.980 8.700 12.871 8.514 C 12.479 7.848,11.521 7.848,11.129 8.514 L 11.020 8.700 11.009 11.328 L 10.998 13.956 7.820 11.488 C 6.073 10.131,4.644 9.011,4.644 9.000 C 4.645 8.965,11.979 3.281,12.010 3.291 C 12.026 3.296,13.686 4.578,15.698 6.140 " fill="black" stroke="none" fill-rule="evenodd"></path></svg>