<svg viewBox="0 0 24 24" xmlns="http://www.w3.org/2000/svg"><path d="M5.433 2.043 C 4.858 2.128,4.224 2.377,3.731 2.712 C 2.956 3.239,2.396 4.034,2.129 4.989 L 2.020 5.380 2.020 12.000 L 2.020 18.620 2.131 19.017 C 2.552 20.526,3.707 21.608,5.226 21.917 C 5.627 21.999,5.720 22.000,12.000 22.000 C 18.280 22.000,18.373 21.999,18.774 21.917 C 20.291 21.608,21.457 20.515,21.872 19.012 L 21.980 18.620 21.980 12.000 L 21.980 5.380 21.874 4.995 C 21.611 4.045,21.044 3.239,20.269 2.712 C 19.929 2.481,19.353 2.218,18.958 2.112 L 18.620 2.022 12.140 2.015 C 8.576 2.012,5.558 2.024,5.433 2.043 " stroke="none" fill="black" fill-rule="evenodd"></path></svg>