<svg viewBox="0 0 24 24" xmlns="http://www.w3.org/2000/svg"><path d="M17.400 2.281 C 16.774 2.360,16.269 2.612,15.799 3.080 C 15.556 3.321,15.460 3.454,15.310 3.760 C 15.010 4.372,15.000 4.468,15.000 6.638 L 15.000 8.520 15.475 8.520 L 15.951 8.520 15.705 8.770 C 15.414 9.068,15.189 9.475,15.079 9.904 C 15.006 10.190,15.000 10.353,15.000 12.106 L 15.000 14.000 17.500 14.000 L 20.000 14.000 19.999 12.130 C 19.999 10.015,19.989 9.917,19.717 9.367 C 19.603 9.136,19.475 8.954,19.299 8.774 C 19.159 8.632,19.066 8.509,19.093 8.501 C 19.119 8.493,19.237 8.477,19.356 8.465 C 20.020 8.396,20.670 7.986,21.076 7.378 C 21.817 6.270,21.536 4.719,20.459 3.978 C 20.307 3.873,20.202 3.759,20.115 3.603 C 20.045 3.481,19.843 3.234,19.664 3.055 C 19.395 2.786,19.275 2.700,18.960 2.548 C 18.442 2.300,17.935 2.213,17.400 2.281 M10.518 3.611 C 9.952 3.804,9.385 4.268,9.130 4.748 L 9.000 4.991 9.000 6.760 L 9.000 8.529 10.190 8.510 C 11.486 8.489,11.637 8.468,12.100 8.240 C 12.592 7.999,13.039 7.545,13.264 7.060 C 13.564 6.411,13.564 5.589,13.264 4.940 C 12.781 3.895,11.501 3.276,10.518 3.611 M5.000 6.117 L 5.000 6.714 4.823 6.803 C 4.391 7.018,3.948 7.482,3.736 7.940 C 3.631 8.168,3.535 8.531,3.508 8.810 L 3.490 9.000 4.244 9.000 L 4.999 9.000 5.009 7.850 L 5.020 6.700 5.240 6.625 C 5.553 6.518,6.220 6.493,6.572 6.576 C 7.490 6.792,8.211 7.514,8.424 8.430 C 8.458 8.579,8.494 8.707,8.503 8.716 C 8.512 8.726,8.520 8.010,8.520 7.127 L 8.520 5.520 6.760 5.520 L 5.000 5.520 5.000 6.117 M7.480 15.260 L 7.480 15.520 6.322 15.520 C 5.642 15.520,5.076 15.538,4.952 15.564 C 4.835 15.588,4.587 15.680,4.400 15.769 C 4.124 15.900,3.999 15.992,3.739 16.255 C 3.202 16.799,2.970 17.403,3.013 18.140 C 3.053 18.798,3.274 19.280,3.757 19.761 C 4.187 20.189,4.627 20.405,5.226 20.481 C 5.485 20.514,5.543 20.538,5.729 20.689 C 5.966 20.882,6.307 21.046,6.659 21.138 C 6.957 21.216,7.551 21.217,7.837 21.141 L 8.054 21.084 8.303 21.316 C 8.598 21.593,8.878 21.759,9.260 21.886 C 9.488 21.962,9.625 21.980,10.000 21.980 C 10.397 21.980,10.504 21.965,10.781 21.870 C 11.575 21.597,12.193 20.939,12.424 20.120 C 12.508 19.821,12.556 18.240,12.480 18.240 C 12.365 18.240,11.963 18.514,11.720 18.759 C 11.418 19.062,11.194 19.458,11.081 19.889 L 11.004 20.180 11.002 18.590 L 11.000 17.000 11.740 17.000 L 12.480 17.000 12.480 17.600 C 12.480 17.930,12.485 18.200,12.490 18.199 C 12.495 18.199,12.617 18.162,12.760 18.117 C 13.897 17.758,15.175 18.297,15.712 19.361 C 15.806 19.547,15.908 19.817,15.938 19.960 C 15.989 20.198,15.994 20.086,15.997 18.610 L 16.000 17.000 14.260 17.000 L 12.520 17.000 12.520 16.000 L 12.520 15.000 10.000 15.000 L 7.480 15.000 7.480 15.260 " fill="#000000" stroke="none" fill-rule="evenodd"></path></svg>