<svg xmlns="http://www.w3.org/2000/svg" width="24" height="24" viewBox="0 0 24 24" version="1.1">
	<path d="M 12.883 3 C 12.398 3, 12 6.095, 12 9.878 C 12 14.870, 11.575 17.108, 10.450 18.042 C 9.167 19.106, 8.607 19.030, 7.200 17.600 C 5.599 15.971, 5.630 15.764, 7.750 14.025 C 8.988 13.010, 10 11.914, 10 11.590 C 10 11.265, 9.357 11, 8.571 11 C 7.786 11, 6.436 11.707, 5.571 12.571 C 4.707 13.436, 4 14.979, 4 16 C 4 17.021, 4.707 18.564, 5.571 19.429 C 6.436 20.293, 7.979 21, 9 21 C 10.021 21, 11.564 20.293, 12.429 19.429 C 13.369 18.488, 14 16.134, 14 13.567 C 14 9.531, 14.148 9.306, 16.500 9.755 C 17.875 10.018, 19 9.783, 19 9.233 C 19 8.683, 18.067 7.989, 16.926 7.691 C 15.785 7.393, 14.607 6.215, 14.309 5.074 C 14.011 3.933, 13.369 3, 12.883 3" stroke="none" fill="black" fill-rule="evenodd"/>
</svg>