<svg viewBox="0 0 24 24" xmlns="http://www.w3.org/2000/svg"><path d="M16.160 4.582 C 15.492 4.726,14.647 5.109,14.029 5.548 C 13.307 6.060,12.482 7.030,12.047 7.875 C 11.627 8.694,11.470 9.301,11.489 10.040 L 11.500 10.500 11.657 10.513 C 12.306 10.566,13.403 10.194,14.094 9.687 C 14.796 9.172,15.650 8.154,16.070 7.333 C 16.463 6.566,16.662 5.840,16.706 5.010 L 16.732 4.520 16.576 4.523 C 16.490 4.525,16.303 4.551,16.160 4.582 M16.840 10.041 C 16.208 10.116,15.604 10.309,14.720 10.720 C 14.002 11.054,13.680 11.161,13.320 11.187 C 12.906 11.216,12.623 11.142,11.620 10.740 C 10.243 10.189,9.814 10.095,8.845 10.132 C 5.666 10.252,3.834 13.009,4.564 16.573 C 4.669 17.089,4.976 18.011,5.231 18.580 C 6.321 21.012,8.290 23.044,10.112 23.616 C 11.029 23.904,11.566 23.865,13.090 23.405 C 13.448 23.297,13.879 23.186,14.049 23.159 C 14.487 23.089,15.094 23.128,15.560 23.256 C 16.874 23.618,17.175 23.676,17.456 23.623 L 17.600 23.596 17.600 21.117 L 17.600 18.637 17.850 18.845 C 18.136 19.083,18.411 19.221,18.729 19.285 C 18.946 19.328,18.955 19.327,19.284 19.160 C 20.735 18.429,21.756 17.251,22.092 15.920 C 22.207 15.465,22.215 14.463,22.107 13.980 C 21.885 12.992,21.500 12.248,20.853 11.561 C 19.781 10.420,18.318 9.867,16.840 10.041 " fill="#000000" stroke="none" fill-rule="evenodd"></path></svg>