<svg xmlns="http://www.w3.org/2000/svg" width="24" height="24" viewBox="0 0 24 24" version="1.1">
	<path d="M 7.500 1.894 C 3.457 3.652, 1.500 6.976, 1.500 12.082 C 1.500 16.074, 2.001 17.456, 4.273 19.727 C 6.557 22.011, 7.919 22.500, 12 22.500 C 19.011 22.500, 22.500 19.011, 22.500 12 C 22.500 7.999, 22 6.546, 19.903 4.448 C 17.099 1.644, 10.974 0.383, 7.500 1.894 M 5.923 5.923 C 3.928 7.918, 3 9.848, 3 12 C 3 16.302, 7.698 21, 12 21 C 16.007 21, 21 16.290, 21 12.511 C 21 7.710, 19.499 6.223, 15.034 6.602 C 11.570 6.895, 11 6.665, 11 4.972 C 11 2.204, 9.330 2.517, 5.923 5.923 M 13 4.059 C 13 4.641, 13.450 4.840, 14 4.500 C 14.550 4.160, 15 3.684, 15 3.441 C 15 3.198, 14.550 3, 14 3 C 13.450 3, 13 3.477, 13 4.059 M 4 12 C 4 14.369, 4.634 14.509, 6.571 12.571 C 8.509 10.634, 8.369 10, 6 10 C 4.667 10, 4 10.667, 4 12 M 14 10.571 C 14 11.314, 16.686 14, 17.429 14 C 17.743 14, 18 13.100, 18 12 C 18 10.667, 17.333 10, 16 10 C 14.900 10, 14 10.257, 14 10.571 M 10.306 16.417 C 10.504 17.012, 11.717 17.500, 13 17.500 C 14.283 17.500, 15.496 17.012, 15.694 16.417 C 15.901 15.796, 14.749 15.333, 13 15.333 C 11.251 15.333, 10.099 15.796, 10.306 16.417" stroke="none" fill="black" fill-rule="evenodd"/>
</svg>