<svg xmlns="http://www.w3.org/2000/svg" width="24" height="24" viewBox="0 0 24 24" version="1.1">
	<path d="M 12 9.878 C 12 14.870, 11.575 17.108, 10.450 18.042 C 9.167 19.106, 8.607 19.030, 7.200 17.600 C 5.599 15.971, 5.630 15.764, 7.750 14.025 C 10.349 11.893, 10.591 11, 8.571 11 C 6.557 11, 4 13.797, 4 16 C 4 18.386, 6.614 21, 9 21 C 12.106 21, 14 18.185, 14 13.567 C 14 9.531, 14.148 9.306, 16.500 9.755 C 19.502 10.329, 19.886 8.465, 16.926 7.691 C 15.785 7.393, 14.607 6.215, 14.309 5.074 C 13.186 0.780, 12 3.247, 12 9.878" stroke="none" fill="#000000" fill-rule="evenodd"/>
</svg>