<svg xmlns="http://www.w3.org/2000/svg" width="24" height="24" viewBox="0 0 24 24" version="1.1">
	<path d="M 11.816 2.004 C 10.542 2.006, 8.062 2.884, 6.304 3.956 C 4.024 5.347, 2.917 6.925, 2.440 9.469 C 2.041 11.596, 2.277 14.255, 3.026 16.064 C 3.717 17.731, 5.546 19.748, 7.091 20.547 C 8.636 21.346, 10.802 22, 11.903 22 C 13.005 22, 15.086 21.462, 16.528 20.805 C 17.970 20.148, 19.791 18.371, 20.575 16.855 C 21.359 15.339, 21.990 12.839, 21.978 11.300 C 21.966 9.760, 21.178 7.540, 20.228 6.367 C 19.277 5.194, 17.517 3.731, 16.316 3.117 C 15.114 2.503, 13.089 2.002, 11.816 2.004 M 11.703 4.035 C 11.041 4.055, 9.482 4.636, 8.238 5.327 C 6.246 6.433, 6.138 6.806, 7.335 8.443 C 8.276 9.730, 8.914 9.948, 9.406 9.151 C 9.798 8.518, 11.891 8, 14.059 8 C 16.227 8, 18 7.622, 18 7.161 C 18 6.699, 16.854 5.799, 15.453 5.161 C 14.052 4.522, 12.365 4.016, 11.703 4.035 M 4.750 10 C 4.338 10, 4 10.654, 4 11.453 C 4 12.252, 4.511 14.027, 5.135 15.398 C 5.760 16.769, 6.961 18.155, 7.806 18.479 C 8.650 18.803, 9.674 18.528, 10.081 17.869 C 10.506 17.182, 9.687 15.247, 8.161 13.335 C 6.697 11.501, 5.162 10, 4.750 10 M 12 10 C 11.515 10, 10.816 10.489, 10.446 11.087 C 10.077 11.685, 10.275 12.675, 10.887 13.287 C 11.704 14.104, 12.296 14.104, 13.113 13.287 C 13.725 12.675, 13.923 11.685, 13.554 11.087 C 13.184 10.489, 12.485 10, 12 10 M 18 10 C 16.715 10, 16 10.667, 16 11.865 C 16 12.891, 15.049 14.940, 13.886 16.418 C 12.723 17.896, 11.990 19.323, 12.257 19.590 C 12.523 19.857, 13.875 19.558, 15.261 18.927 C 16.646 18.296, 18.279 16.683, 18.890 15.343 C 19.500 14.002, 20 12.252, 20 11.453 C 20 10.654, 19.100 10, 18 10" stroke="none" fill="black" fill-rule="evenodd"/>
</svg>