<svg xmlns="http://www.w3.org/2000/svg" width="24" height="24" viewBox="0 0 24 24" version="1.1">
	<path d="M 12.500 3.658 C 10.850 3.854, 7.587 4.265, 5.250 4.569 L 1 5.123 1 14.511 L 1 23.900 12 23.841 L 23 23.781 23 13.390 L 23 3 19.250 3.150 C 17.188 3.232, 14.150 3.461, 12.500 3.658 M 16.250 5.723 C 13.413 6.076, 13 6.500, 13 9.063 C 13 11.823, 13.241 12, 17 12 C 20.905 12, 21 11.917, 21 8.500 C 21 6.575, 20.663 5.072, 20.250 5.160 C 19.837 5.248, 18.038 5.502, 16.250 5.723 M 5.750 6.716 C 3.470 7.062, 3 7.634, 3 10.066 C 3 12.752, 3.295 13, 6.500 13 C 9.833 13, 10 12.833, 10 9.500 C 10 7.575, 9.662 6.067, 9.250 6.150 C 8.838 6.232, 7.263 6.487, 5.750 6.716 M 3 19 C 3 21.291, 3.454 22, 4.918 22 C 5.973 22, 7.548 22.273, 8.418 22.607 C 9.680 23.091, 10 22.485, 10 19.607 C 10 16.151, 9.853 16, 6.500 16 C 3.278 16, 3 16.238, 3 19 M 13 18.500 C 13 20.477, 13.505 21, 15.418 21 C 16.748 21, 18.548 21.273, 19.418 21.607 C 20.651 22.080, 21 21.529, 21 19.107 C 21 16.149, 20.808 16, 17 16 C 13.400 16, 13 16.250, 13 18.500" stroke="none" fill="#000000" fill-rule="evenodd"/>
</svg>