<svg viewBox="0 0 24 24" xmlns="http://www.w3.org/2000/svg"><path d="M4.522 4.978 C 3.170 6.062,2.058 6.967,2.051 6.988 C 2.035 7.036,6.916 10.457,7.000 10.457 C 7.068 10.457,11.960 7.046,11.960 6.998 C 11.960 6.971,7.015 2.996,6.990 3.003 C 6.985 3.005,5.874 3.893,4.522 4.978 M14.522 4.978 C 13.170 6.062,12.058 6.967,12.051 6.988 C 12.035 7.036,16.916 10.457,17.000 10.457 C 17.068 10.457,21.960 7.046,21.960 6.998 C 21.960 6.971,17.015 2.996,16.990 3.003 C 16.985 3.005,15.874 3.893,14.522 4.978 M19.433 9.293 C 18.143 10.199,17.072 10.955,17.053 10.974 C 17.035 10.993,17.082 11.060,17.159 11.124 L 17.298 11.241 17.199 11.337 C 17.062 11.470,12.411 14.720,12.357 14.720 C 12.333 14.720,11.118 13.883,9.657 12.860 L 7.000 11.000 4.529 12.730 C 3.169 13.681,2.057 14.478,2.057 14.500 C 2.057 14.522,3.171 15.320,4.533 16.273 C 6.907 17.935,7.113 18.090,9.505 20.004 L 12.000 22.001 14.318 20.150 C 15.593 19.133,16.637 18.288,16.638 18.274 C 16.639 18.259,15.605 17.523,14.340 16.638 C 13.075 15.753,12.040 15.015,12.040 15.000 C 12.040 14.984,12.111 14.921,12.199 14.861 L 12.357 14.751 14.589 16.313 C 15.816 17.172,16.856 17.903,16.900 17.938 C 16.978 17.999,16.977 18.003,16.824 18.136 L 16.667 18.271 16.831 18.379 C 16.930 18.444,17.016 18.475,17.048 18.457 C 17.247 18.341,21.960 15.022,21.960 14.998 C 21.960 14.982,20.929 14.145,19.670 13.139 C 18.410 12.132,17.366 11.296,17.348 11.280 C 17.330 11.265,18.302 10.464,19.508 9.501 C 21.634 7.802,21.838 7.637,21.799 7.643 C 21.788 7.644,20.724 8.387,19.433 9.293 " fill="#000000" stroke="none" fill-rule="evenodd"></path></svg>