<svg viewBox="0 0 24 24" xmlns="http://www.w3.org/2000/svg"><path d="M7.875 2.062 C 6.568 2.299,5.533 3.237,5.133 4.548 C 5.038 4.863,5.026 4.963,5.026 5.500 C 5.026 6.037,5.038 6.137,5.133 6.452 C 5.432 7.432,6.058 8.186,6.941 8.631 C 7.210 8.766,7.652 8.910,7.946 8.957 C 8.163 8.991,8.136 9.008,7.760 9.078 C 7.179 9.186,6.584 9.502,6.112 9.952 C 5.732 10.315,5.571 10.529,5.363 10.945 C 5.092 11.486,5.022 11.807,5.022 12.500 C 5.022 13.005,5.036 13.150,5.113 13.417 C 5.295 14.053,5.602 14.558,6.091 15.025 C 6.574 15.488,7.158 15.805,7.740 15.919 C 8.200 16.010,8.198 16.008,7.875 16.064 C 6.576 16.292,5.533 17.237,5.133 18.548 C 4.976 19.066,4.976 19.934,5.133 20.452 C 5.501 21.656,6.344 22.499,7.548 22.867 C 7.863 22.962,7.963 22.974,8.500 22.974 C 9.037 22.974,9.137 22.962,9.452 22.867 C 10.655 22.500,11.488 21.667,11.870 20.452 L 11.980 20.100 11.991 14.552 L 12.002 9.005 14.051 8.991 L 16.100 8.977 16.452 8.868 C 17.662 8.493,18.500 7.655,18.867 6.452 C 18.962 6.137,18.974 6.037,18.974 5.500 C 18.974 4.963,18.962 4.863,18.867 4.548 C 18.462 3.221,17.427 2.292,16.092 2.060 C 15.606 1.975,8.346 1.977,7.875 2.062 " fill="#000000" stroke="none" fill-rule="evenodd"></path></svg>