<svg viewBox="0 0 24 24" xmlns="http://www.w3.org/2000/svg" fill="none" stroke="#000000" stroke-width="2" stroke-linecap="round" stroke-linejoin="round"><path d="M16.780 3.517 C 14.008 3.799,11.689 4.050,11.627 4.075 C 11.538 4.111,11.472 4.106,11.310 4.053 C 11.107 3.986,11.079 3.989,6.412 4.508 C 2.076 4.990,1.705 5.037,1.530 5.127 C 1.315 5.238,1.103 5.491,1.042 5.711 C 1.014 5.809,1.001 7.272,1.002 10.020 C 1.003 13.494,1.013 14.206,1.060 14.338 C 1.109 14.475,1.108 14.521,1.057 14.678 C 1.006 14.835,1.000 15.444,1.009 19.080 L 1.020 23.300 1.131 23.489 C 1.192 23.592,1.301 23.723,1.374 23.778 C 1.680 24.011,1.397 24.000,6.925 24.000 L 12.000 24.000 12.000 23.498 L 12.000 22.996 12.130 23.018 C 12.202 23.030,14.452 23.257,17.132 23.524 C 20.302 23.839,22.066 23.999,22.181 23.982 C 22.423 23.946,22.712 23.741,22.859 23.503 L 22.980 23.306 22.980 19.003 L 22.980 14.700 22.872 14.516 C 22.744 14.298,22.533 14.128,22.305 14.059 C 22.171 14.018,22.155 14.003,22.220 13.983 C 22.574 13.869,22.876 13.586,22.958 13.289 C 22.986 13.190,22.999 11.572,22.998 8.480 C 22.997 4.691,22.986 3.792,22.943 3.670 C 22.806 3.287,22.474 3.039,22.068 3.017 C 21.932 3.010,19.552 3.235,16.780 3.517 M21.000 8.560 L 21.000 12.000 17.000 12.000 L 13.000 12.000 13.000 8.960 C 13.000 7.288,13.005 5.918,13.010 5.916 C 13.044 5.904,20.728 5.128,20.850 5.125 L 21.000 5.120 21.000 8.560 M10.000 9.560 L 10.000 13.000 6.500 13.000 L 3.000 13.000 3.000 9.949 L 3.000 6.899 6.430 6.514 C 8.316 6.302,9.892 6.127,9.930 6.125 C 9.996 6.120,10.000 6.309,10.000 9.560 M10.000 19.440 C 10.000 21.332,9.986 22.880,9.968 22.880 C 9.950 22.880,8.399 22.709,6.520 22.500 C 4.641 22.291,3.081 22.120,3.052 22.120 C 3.010 22.120,3.000 21.549,3.000 19.060 L 3.000 16.000 6.500 16.000 L 10.000 16.000 10.000 19.440 M21.000 18.940 C 21.000 21.713,20.996 21.880,20.930 21.881 C 20.892 21.882,19.091 21.707,16.930 21.492 L 13.000 21.101 13.000 18.550 L 13.000 16.000 17.000 16.000 L 21.000 16.000 21.000 18.940 " stroke="none" fill-rule="evenodd" fill="black"></path></svg>