<svg viewBox="0 0 24 24" xmlns="http://www.w3.org/2000/svg"><path d="M11.080 2.044 C 7.452 2.359,4.205 4.708,2.787 8.043 C 2.464 8.804,2.064 10.206,2.148 10.281 C 2.228 10.352,6.514 12.000,6.620 12.001 C 6.878 12.002,7.316 12.126,7.639 12.289 C 8.103 12.522,8.478 12.897,8.711 13.361 C 8.929 13.793,8.998 14.131,8.997 14.763 C 8.996 15.789,9.260 16.487,9.886 17.114 C 10.189 17.417,10.489 17.620,10.849 17.766 C 12.214 18.322,13.709 17.849,14.528 16.603 L 14.723 16.305 15.012 16.232 C 15.386 16.137,15.797 15.939,16.109 15.703 C 16.375 15.502,16.719 15.102,16.720 14.994 C 16.720 14.957,16.591 14.808,16.432 14.661 C 16.017 14.277,15.399 14.000,14.958 14.000 C 14.852 14.000,14.828 13.975,14.742 13.781 C 14.461 13.144,13.926 12.610,13.260 12.298 C 12.861 12.112,12.670 12.057,12.270 12.017 L 12.000 11.989 12.000 6.994 L 12.000 2.000 11.730 2.006 C 11.582 2.009,11.289 2.026,11.080 2.044 M12.340 14.066 C 12.563 14.142,12.845 14.401,12.911 14.591 C 12.952 14.708,12.944 14.731,12.800 14.905 C 12.715 15.008,12.593 15.190,12.529 15.309 L 12.412 15.526 12.252 15.333 C 11.967 14.991,11.733 14.544,11.661 14.210 C 11.637 14.098,11.646 14.075,11.727 14.042 C 11.873 13.984,12.128 13.994,12.340 14.066 M12.575 15.652 L 12.690 15.744 12.585 15.813 C 12.527 15.851,12.436 15.899,12.382 15.919 L 12.285 15.956 12.342 15.768 C 12.373 15.665,12.399 15.575,12.400 15.570 C 12.401 15.538,12.475 15.572,12.575 15.652 " fill="#000000" stroke="none" fill-rule="evenodd"></path></svg>