<svg xmlns="http://www.w3.org/2000/svg" width="24" height="24" viewBox="0 0 24 24" version="1.1">
	<path d="M 5.875 4.971 C 3.417 7.429, 2.935 8.679, 3.082 12.221 C 3.179 14.574, 2.926 17.737, 2.521 19.250 C 1.720 22.236, 2.380 22.567, 6.222 21.106 C 7.787 20.511, 9.900 20.673, 12.537 21.591 C 20.325 24.301, 21.099 23.687, 21.693 14.336 C 22.074 8.331, 21.920 7.766, 19.126 4.973 C 15.021 0.867, 9.980 0.867, 5.875 4.971 M 7.490 6.419 C 5.485 8.424, 5.108 9.710, 5.286 13.930 C 5.444 17.700, 5.846 18.889, 6.832 18.511 C 7.564 18.230, 8.274 18, 8.409 18 C 8.544 18, 8.540 15.981, 8.401 13.513 C 8.126 8.644, 8.931 7.526, 12.009 8.503 C 13.407 8.947, 14 10.017, 14 12.099 C 14 15.448, 16.235 16.880, 18.513 14.989 C 20.749 13.134, 20.304 9.214, 17.545 6.455 C 14.428 3.338, 10.585 3.324, 7.490 6.419 M 10.359 12.508 C 9.689 14.253, 12.496 19, 14.197 19 C 14.831 19, 14.313 17.898, 13.048 16.551 C 11.721 15.139, 10.999 13.445, 11.342 12.551 C 11.669 11.698, 11.712 11, 11.437 11 C 11.162 11, 10.677 11.678, 10.359 12.508 M 17 20 C 15.718 20.828, 15.754 20.972, 17.250 20.985 C 18.212 20.993, 19 20.550, 19 20 C 19 18.780, 18.887 18.780, 17 20" stroke="none" fill="#000000" fill-rule="evenodd"/>
</svg>