<svg viewBox="0 0 24 24" xmlns="http://www.w3.org/2000/svg"><path d="M18.860 4.619 C 17.937 4.816,17.046 5.176,16.365 5.628 C 15.964 5.894,15.351 6.471,15.135 6.785 C 15.029 6.939,14.967 6.996,14.922 6.978 C 14.718 6.897,14.020 6.795,13.520 6.774 C 12.088 6.713,10.996 7.079,10.106 7.920 C 9.176 8.799,8.945 9.700,9.400 10.672 C 9.740 11.399,10.590 12.214,11.600 12.781 C 12.316 13.184,12.440 13.304,12.440 13.596 C 12.440 13.711,12.430 13.720,12.300 13.720 C 12.210 13.720,12.129 13.751,12.075 13.805 C 11.999 13.881,11.992 13.920,12.013 14.147 C 12.027 14.288,12.049 14.423,12.064 14.446 C 12.100 14.505,12.342 14.106,12.403 13.888 L 12.452 13.715 12.616 13.742 C 12.706 13.757,12.906 13.804,13.060 13.846 C 14.592 14.263,14.553 14.255,15.080 14.258 C 15.526 14.260,15.598 14.250,15.749 14.169 C 16.040 14.014,16.060 13.952,16.057 13.242 C 16.055 12.679,16.045 12.590,15.949 12.300 C 15.798 11.848,15.584 11.508,15.285 11.244 C 14.779 10.800,14.760 10.778,14.760 10.631 C 14.760 10.379,14.997 10.149,15.980 9.442 C 17.119 8.624,17.892 7.918,18.408 7.226 C 18.694 6.840,19.020 6.249,19.182 5.819 C 19.302 5.501,19.480 4.790,19.480 4.630 C 19.480 4.493,19.451 4.493,18.860 4.619 M11.798 14.827 C 11.377 15.323,10.605 16.017,8.800 17.522 C 8.261 17.971,7.604 18.527,7.340 18.758 C 6.815 19.217,6.072 19.925,6.092 19.946 C 6.111 19.965,7.629 19.452,8.360 19.180 C 10.592 18.349,12.035 17.451,12.707 16.473 C 13.038 15.992,13.032 16.027,12.823 15.795 C 12.600 15.547,12.301 15.072,12.181 14.778 C 12.132 14.657,12.083 14.550,12.074 14.540 C 12.064 14.531,11.940 14.659,11.798 14.827 " fill="#000000" stroke="none" fill-rule="evenodd"></path></svg>