<svg xmlns="http://www.w3.org/2000/svg" width="24" height="24" viewBox="0 0 24 24" version="1.1">
	<path d="M 12.761 1.277 C 8.825 0.833, 7.878 1.137, 4.893 3.804 C 1.882 6.494, 1.500 7.406, 1.500 11.895 C 1.500 16.091, 1.973 17.428, 4.273 19.727 C 6.557 22.011, 7.919 22.500, 12 22.500 C 16.081 22.500, 17.443 22.011, 19.727 19.727 C 22.011 17.443, 22.500 16.081, 22.500 12 C 22.500 7.982, 22.002 6.548, 19.868 4.413 C 18.078 2.624, 15.803 1.619, 12.761 1.277 M 7.645 4.312 C 7.416 4.082, 6.277 5.104, 5.114 6.582 C 3.951 8.060, 3 9.659, 3 10.135 C 3 10.611, 3.337 10.997, 3.750 10.994 C 4.162 10.990, 5.302 9.579, 6.281 7.858 C 7.261 6.137, 7.875 4.541, 7.645 4.312 M 16.177 4.116 C 15.805 4.180, 14.713 4.438, 13.750 4.689 C 12.787 4.941, 12 5.584, 12 6.119 C 12 6.653, 13.105 8.195, 14.455 9.545 C 15.805 10.895, 17.406 12, 18.014 12 C 18.621 12, 18.840 12.450, 18.500 13 C 18.160 13.550, 18.584 14, 19.441 14 C 20.414 14, 21 13.110, 21 11.635 C 21 10.334, 20.067 8.084, 18.927 6.635 C 17.788 5.186, 16.550 4.052, 16.177 4.116 M 10.745 8.201 C 9.620 7.269, 8.984 7.218, 8.489 8.018 C 8.110 8.631, 8.035 9.368, 8.322 9.655 C 8.609 9.942, 9.624 10.025, 10.577 9.838 C 12.140 9.534, 12.156 9.371, 10.745 8.201 M 4.383 13 C 3.623 13, 3 13.485, 3 14.077 C 3 14.669, 4.315 16.469, 5.923 18.077 C 7.915 20.069, 9.848 21, 11.993 21 C 14.684 21, 15.093 20.674, 14.820 18.750 C 14.543 16.799, 13.990 16.540, 10.670 16.803 C 7.510 17.053, 6.747 16.748, 6.304 15.053 C 6.008 13.924, 5.144 13, 4.383 13 M 10.750 13.070 C 9.238 13.032, 8 13.450, 8 14 C 8 14.550, 8.338 14.968, 8.750 14.930 C 9.162 14.891, 10.400 14.473, 11.500 14 C 13.272 13.238, 13.187 13.133, 10.750 13.070 M 18.500 16 C 17.675 16, 17 16.730, 17 17.622 C 17 18.951, 17.271 19.020, 18.500 18 C 19.325 17.315, 20 16.585, 20 16.378 C 20 16.170, 19.325 16, 18.500 16" stroke="none" fill="black" fill-rule="evenodd"/>
</svg>