<svg xmlns="http://www.w3.org/2000/svg" width="24" height="24" viewBox="0 0 24 24" version="1.1">
	<path d="M 12.500 2 C 9.782 2, 8.086 2.760, 5.875 4.971 C 3.417 7.429, 2.935 8.679, 3.082 12.221 C 3.179 14.574, 2.926 17.737, 2.521 19.250 C 2.061 20.964, 2.176 22, 2.826 22 C 3.400 22, 4.928 21.598, 6.222 21.106 C 7.787 20.511, 9.900 20.673, 12.537 21.591 C 14.717 22.349, 17.261 22.977, 18.191 22.985 C 19.121 22.993, 20.198 22.488, 20.585 21.863 C 20.971 21.238, 21.470 17.851, 21.693 14.336 C 22.074 8.331, 21.920 7.766, 19.126 4.973 C 16.914 2.761, 15.219 2, 12.500 2 M 12.500 4 C 11.075 4, 8.821 5.089, 7.490 6.419 C 5.485 8.424, 5.108 9.710, 5.286 13.930 C 5.444 17.700, 5.846 18.889, 6.832 18.511 C 7.564 18.230, 8.274 18, 8.409 18 C 8.544 18, 8.540 15.981, 8.401 13.513 C 8.261 11.046, 8.568 8.767, 9.083 8.449 C 9.597 8.131, 10.914 8.155, 12.009 8.503 C 13.407 8.947, 14 10.017, 14 12.099 C 14 13.822, 14.633 15.306, 15.513 15.643 C 16.345 15.963, 17.695 15.668, 18.513 14.989 C 19.331 14.311, 20 12.665, 20 11.332 C 20 9.999, 18.895 7.805, 17.545 6.455 C 16.195 5.105, 13.925 4, 12.500 4 M 11.437 11 C 11.162 11, 10.677 11.678, 10.359 12.508 C 10.040 13.337, 10.515 15.137, 11.413 16.508 C 12.311 17.878, 13.564 19, 14.197 19 C 14.831 19, 14.313 17.898, 13.048 16.551 C 11.721 15.139, 10.999 13.445, 11.342 12.551 C 11.669 11.698, 11.712 11, 11.437 11 M 18.750 19.015 C 18.613 19.024, 17.825 19.467, 17 20 C 15.718 20.828, 15.754 20.972, 17.250 20.985 C 18.212 20.993, 19 20.550, 19 20 C 19 19.450, 18.887 19.007, 18.750 19.015" stroke="none" fill="black" fill-rule="evenodd"/>
</svg>