<svg xmlns="http://www.w3.org/2000/svg" width="24" height="24" viewBox="0 0 24 24" version="1.1">
	<path d="M 7.500 1.894 C 3.594 3.593, 1.540 6.933, 1.699 11.328 C 2.104 22.519, 2.265 23.171, 4.450 22.492 C 5.578 22.142, 7.175 21.925, 8 22.010 C 14.949 22.729, 17.165 22.290, 19.777 19.678 C 22.008 17.446, 22.500 16.060, 22.500 12 C 22.500 7.999, 22 6.546, 19.903 4.448 C 17.099 1.644, 10.974 0.383, 7.500 1.894 M 5.923 5.923 C 2.749 9.097, 2.280 12.106, 4.250 16.662 C 5.041 18.492, 6.108 19.431, 7.157 19.221 C 8.068 19.039, 9.107 19.364, 9.466 19.945 C 10.719 21.973, 15.140 21.014, 18.077 18.077 C 22.007 14.147, 22.007 9.853, 18.077 5.923 C 14.147 1.993, 9.853 1.993, 5.923 5.923 M 14.475 6.041 C 14.121 6.613, 13.055 6.835, 12.105 6.533 C 10.845 6.133, 9.909 6.968, 8.646 9.616 C 6.788 13.512, 7.087 15.003, 9.349 13.125 C 10.118 12.487, 11.389 12.212, 12.174 12.513 C 13.105 12.871, 14.191 11.823, 15.300 9.496 C 16.235 7.536, 17 5.722, 17 5.466 C 17 4.577, 15.115 5.006, 14.475 6.041" stroke="none" fill="#000000" fill-rule="evenodd"/>
</svg>