<svg xmlns="http://www.w3.org/2000/svg" width="24" height="24" viewBox="0 0 24 24" version="1.1">
	<path d="M 13.403 1.438 C 11.256 1.210, 8.600 1.416, 7.500 1.894 C 6.400 2.373, 4.600 3.764, 3.500 4.987 C 2.078 6.568, 1.500 8.618, 1.500 12.082 C 1.500 16.074, 2.001 17.456, 4.273 19.727 C 6.557 22.011, 7.919 22.500, 12 22.500 C 16.081 22.500, 17.443 22.011, 19.727 19.727 C 22.011 17.443, 22.500 16.081, 22.500 12 C 22.500 7.999, 22 6.546, 19.903 4.448 C 18.256 2.802, 15.876 1.699, 13.403 1.438 M 13.497 3.498 C 11.848 3.196, 9.375 3.536, 8 4.253 C 6.625 4.971, 4.905 6.799, 4.178 8.315 C 3.425 9.887, 3.127 12.301, 3.485 13.932 C 3.831 15.505, 5.024 17.617, 6.137 18.624 C 7.372 19.742, 9.684 20.455, 12.075 20.455 C 14.792 20.455, 16.673 19.772, 18.222 18.222 C 19.786 16.658, 20.455 14.795, 20.455 12 C 20.455 9.356, 19.786 7.342, 18.474 6.029 C 17.384 4.940, 15.145 3.801, 13.497 3.498 M 12.668 9.116 C 11.476 9.180, 9.713 9.438, 8.750 9.689 C 7.787 9.941, 7 10.564, 7 11.073 C 7 11.583, 7.787 12.036, 8.750 12.079 C 9.795 12.126, 9.997 12.361, 9.250 12.662 C 8.563 12.940, 8 13.579, 8 14.083 C 8 14.588, 9.800 15, 12 15 C 14.200 15, 16 14.588, 16 14.083 C 16 13.579, 14.762 12.678, 13.250 12.082 C 10.683 11.069, 10.749 11.033, 14.250 11.544 C 16.313 11.845, 18 11.668, 18 11.152 C 18 10.636, 17.288 9.941, 16.418 9.607 C 15.548 9.273, 13.861 9.052, 12.668 9.116 M 11 16 C 9.350 16, 8 16.450, 8 17 C 8 17.550, 9.350 18, 11 18 C 12.650 18, 14 17.550, 14 17 C 14 16.450, 12.650 16, 11 16" stroke="none" fill="black" fill-rule="evenodd"/>
</svg>