<svg viewBox="0 0 24 24" xmlns="http://www.w3.org/2000/svg" fill="none" stroke="#000000" stroke-width="2" stroke-linecap="round" stroke-linejoin="round"><path d="M12.695 3.057 C 12.466 3.129,12.256 3.299,12.128 3.516 L 12.020 3.700 12.000 10.120 L 11.980 16.540 11.879 16.861 C 11.572 17.832,10.817 18.582,9.840 18.886 C 9.406 19.021,8.594 19.021,8.160 18.886 C 7.181 18.581,6.418 17.822,6.125 16.861 C 6.042 16.588,6.027 16.458,6.027 16.000 C 6.027 15.542,6.042 15.412,6.125 15.139 C 6.415 14.187,7.199 13.402,8.129 13.133 C 8.299 13.084,8.637 13.026,8.879 13.005 C 9.242 12.974,9.353 12.949,9.502 12.861 C 10.279 12.406,10.095 11.232,9.216 11.036 C 8.829 10.949,7.841 11.092,7.248 11.320 C 6.565 11.582,5.886 12.035,5.384 12.563 C 4.723 13.257,4.301 14.067,4.093 15.040 C 3.992 15.511,3.992 16.489,4.093 16.960 C 4.526 18.984,6.016 20.474,8.040 20.907 C 8.286 20.960,8.552 20.980,9.000 20.980 C 9.898 20.980,10.494 20.838,11.286 20.433 C 12.614 19.756,13.539 18.543,13.905 17.000 C 13.970 16.725,13.977 16.363,13.989 12.594 L 14.002 8.488 14.411 8.795 C 15.111 9.322,15.958 9.701,16.831 9.878 C 17.349 9.984,18.042 10.026,18.264 9.965 C 18.498 9.901,18.737 9.714,18.867 9.492 C 18.964 9.327,18.980 9.257,18.980 9.000 C 18.980 8.746,18.963 8.672,18.872 8.516 C 18.671 8.174,18.333 8.000,17.870 8.000 C 17.540 8.000,16.880 7.859,16.521 7.711 C 15.610 7.337,14.869 6.657,14.443 5.804 C 14.162 5.242,14.071 4.890,14.004 4.110 C 13.974 3.764,13.947 3.645,13.866 3.506 C 13.628 3.101,13.145 2.916,12.695 3.057 " stroke="none" fill-rule="evenodd" fill="black"></path></svg>