<svg viewBox="0 0 24 24" xmlns="http://www.w3.org/2000/svg"><path d="M11.120 2.039 C 9.316 2.220,7.707 2.807,6.280 3.806 C 2.738 6.286,1.178 10.759,2.422 14.865 C 2.918 16.499,3.728 17.850,4.939 19.061 C 5.713 19.836,6.453 20.383,7.377 20.863 C 10.307 22.387,13.718 22.377,16.672 20.837 C 16.964 20.685,17.246 20.560,17.299 20.560 C 17.357 20.560,17.404 20.531,17.418 20.485 C 17.431 20.444,17.680 20.233,17.971 20.016 C 18.566 19.572,19.438 18.727,19.846 18.200 C 21.452 16.121,22.190 13.633,21.958 11.080 C 21.919 10.655,21.708 9.478,21.655 9.392 C 21.642 9.372,21.548 9.550,21.445 9.787 C 21.283 10.162,20.998 10.692,21.051 10.520 C 21.126 10.276,21.538 9.172,21.566 9.142 C 21.586 9.120,21.600 9.140,21.600 9.192 C 21.600 9.240,21.616 9.280,21.635 9.280 C 21.689 9.280,22.035 8.021,21.992 7.979 C 21.983 7.969,21.888 8.204,21.782 8.500 C 21.676 8.796,21.576 9.030,21.559 9.020 C 21.543 9.009,21.517 8.951,21.501 8.890 C 21.437 8.632,21.097 7.824,20.863 7.377 C 19.550 4.858,17.162 2.974,14.430 2.303 C 13.446 2.062,12.028 1.948,11.120 2.039 M7.365 13.690 C 8.543 16.930,9.503 19.586,9.498 19.592 C 9.493 19.599,9.329 19.543,9.134 19.468 C 6.610 18.493,4.729 16.284,4.177 13.648 C 3.890 12.274,3.977 10.779,4.423 9.440 C 4.569 8.999,5.134 7.800,5.194 7.800 C 5.211 7.800,6.187 10.450,7.365 13.690 M15.458 18.854 L 15.556 19.167 15.252 19.308 C 14.591 19.613,13.641 19.867,12.820 19.959 C 12.434 20.002,11.508 20.015,11.471 19.977 C 11.453 19.960,13.521 13.686,13.625 13.440 C 13.645 13.392,15.020 17.454,15.458 18.854 " fill="#000000" stroke="none" fill-rule="evenodd"></path></svg>