<svg xmlns="http://www.w3.org/2000/svg" width="24" height="24" viewBox="0 0 24 24" version="1.1">
	<path d="M 7 4.595 C 1.070 9.306, 1.282 8.998, 3.062 10.332 C 3.919 10.974, 5.886 12.508, 7.433 13.740 L 10.245 15.981 7.873 17.957 C 4.728 20.576, 4 20.490, 4 17.500 C 4 16.125, 3.550 15, 3 15 C 2.450 15, 2 17.025, 2 19.500 C 2 22.833, 2.389 24, 3.500 24 C 4.325 24, 5.003 23.663, 5.007 23.250 C 5.015 22.333, 11.258 17.998, 12.562 18.005 C 13.078 18.007, 14.938 19.357, 16.696 21.005 C 18.453 22.652, 20.366 24, 20.946 24 C 21.529 24, 22 21.988, 22 19.500 C 22 17.025, 21.550 15, 21 15 C 20.450 15, 20 16.125, 20 17.500 C 20 18.875, 19.663 19.985, 19.250 19.967 C 18.243 19.922, 13.612 16.031, 14.108 15.647 C 14.324 15.480, 16.188 14.088, 18.250 12.553 C 20.313 11.018, 22 9.404, 22 8.966 C 22 8.250, 12.749 0.986, 11.866 1.010 C 11.665 1.015, 9.475 2.628, 7 4.595 M 8.385 6.186 C 6.798 7.388, 5.324 8.502, 5.108 8.661 C 4.607 9.031, 9.254 12.923, 10.250 12.967 C 10.662 12.985, 11 11.875, 11 10.500 C 11 9.125, 11.450 8, 12 8 C 12.550 8, 13 9.125, 13 10.500 C 13 13.482, 13.730 13.576, 16.832 10.990 L 19.165 9.046 16.332 6.555 C 12.835 3.478, 12.009 3.440, 8.385 6.186" stroke="none" fill="#000000" fill-rule="evenodd"/>
</svg>