<svg xmlns="http://www.w3.org/2000/svg" width="24" height="24" viewBox="0 0 24 24" version="1.1">
	<path d="M 10.750 4.707 C 5.387 6.668, 1 8.572, 1 8.937 C 1 9.302, 3.029 10.587, 5.509 11.792 C 8.927 13.453, 10.547 15.073, 12.208 18.491 C 13.413 20.971, 14.699 23, 15.067 23 C 15.694 23, 23.029 3.375, 23.009 1.750 C 22.994 0.491, 20.897 0.997, 10.750 4.707 M 11.316 6.871 C 5.764 9.078, 5.236 9.770, 8.480 10.584 C 10.689 11.139, 11.780 10.682, 14.329 8.133 C 17.822 4.639, 17.387 4.457, 11.316 6.871 M 15.263 10.250 C 12.394 13.231, 12.245 13.704, 13.465 15.961 L 14.797 18.423 16.279 14.874 C 18.194 10.290, 19.233 7, 18.764 7 C 18.559 7, 16.984 8.462, 15.263 10.250" stroke="none" fill="#000000" fill-rule="evenodd"/>
</svg>