<svg xmlns="http://www.w3.org/2000/svg" width="24" height="24" viewBox="0 0 24 24" version="1.1">
	<path d="M 7.500 1.894 C 3.457 3.652, 1.500 6.976, 1.500 12.082 C 1.500 16.074, 2.001 17.456, 4.273 19.727 C 6.557 22.011, 7.919 22.500, 12 22.500 C 19.011 22.500, 22.500 19.011, 22.500 12 C 22.500 7.999, 22 6.546, 19.903 4.448 C 17.099 1.644, 10.974 0.383, 7.500 1.894 M 8 4.253 C 2.770 6.984, 1.773 14.674, 6.137 18.624 C 9.054 21.264, 15.391 21.054, 18.222 18.222 C 21.155 15.290, 21.288 8.843, 18.474 6.029 C 15.873 3.429, 11.123 2.623, 8 4.253 M 8.750 9.689 C 7.787 9.941, 7 10.564, 7 11.073 C 7 11.583, 7.787 12.036, 8.750 12.079 C 9.795 12.126, 9.997 12.361, 9.250 12.662 C 6.644 13.714, 8.156 15, 12 15 C 16.632 15, 17.213 13.645, 13.250 12.082 C 10.683 11.069, 10.749 11.033, 14.250 11.544 C 16.313 11.845, 18 11.668, 18 11.152 C 18 9.289, 13.192 8.528, 8.750 9.689 M 8 17 C 8 17.550, 9.350 18, 11 18 C 12.650 18, 14 17.550, 14 17 C 14 16.450, 12.650 16, 11 16 C 9.350 16, 8 16.450, 8 17" stroke="none" fill="black" fill-rule="evenodd"/>
</svg>