<svg xmlns="http://www.w3.org/2000/svg" width="24" height="24" viewBox="0 0 24 24" version="1.1">
	<path d="M 13.403 1.438 C 11.256 1.210, 8.600 1.416, 7.500 1.894 C 6.400 2.373, 4.611 3.752, 3.524 4.960 C 2.148 6.490, 1.594 8.423, 1.699 11.328 C 1.782 13.623, 1.974 17.216, 2.125 19.314 C 2.366 22.650, 2.657 23.049, 4.450 22.492 C 5.578 22.142, 7.175 21.925, 8 22.010 C 8.825 22.096, 11.200 22.218, 13.277 22.283 C 16.151 22.373, 17.705 21.750, 19.777 19.678 C 22.008 17.446, 22.500 16.060, 22.500 12 C 22.500 7.999, 22 6.546, 19.903 4.448 C 18.256 2.802, 15.876 1.699, 13.403 1.438 M 12 3 C 9.848 3, 7.918 3.928, 5.923 5.923 C 4.275 7.571, 3 9.920, 3 11.308 C 3 12.662, 3.562 15.071, 4.250 16.662 C 5.041 18.492, 6.108 19.431, 7.157 19.221 C 8.068 19.039, 9.107 19.364, 9.466 19.945 C 9.825 20.525, 11.251 21, 12.636 21 C 14.086 21, 16.394 19.760, 18.077 18.077 C 20.072 16.082, 21 14.152, 21 12 C 21 9.848, 20.072 7.918, 18.077 5.923 C 16.082 3.928, 14.152 3, 12 3 M 16.059 5 C 15.541 5, 14.829 5.468, 14.475 6.041 C 14.121 6.613, 13.055 6.835, 12.105 6.533 C 10.845 6.133, 9.909 6.968, 8.646 9.616 C 7.694 11.614, 7.148 13.481, 7.433 13.766 C 7.718 14.052, 8.581 13.763, 9.349 13.125 C 10.118 12.487, 11.389 12.212, 12.174 12.513 C 13.105 12.871, 14.191 11.823, 15.300 9.496 C 16.235 7.536, 17 5.722, 17 5.466 C 17 5.210, 16.577 5, 16.059 5" stroke="none" fill="black" fill-rule="evenodd"/>
</svg>