<svg viewBox="0 0 24 24" xmlns="http://www.w3.org/2000/svg"><path d="M3.001 3.030 C 3.003 3.174,4.996 18.970,5.014 18.987 C 5.026 19.000,6.604 19.458,8.518 20.005 L 12.000 21.000 15.482 20.005 C 17.396 19.458,18.974 19.000,18.986 18.987 C 19.004 18.970,20.997 3.174,20.999 3.030 C 21.000 3.014,16.950 3.000,12.000 3.000 C 7.050 3.000,3.000 3.014,3.001 3.030 M9.600 9.031 C 9.600 9.089,9.759 10.658,9.782 10.831 L 9.805 11.001 8.653 10.991 L 7.500 10.980 7.413 10.120 C 7.365 9.647,7.324 9.201,7.323 9.130 L 7.320 9.000 8.460 9.000 C 9.087 9.000,9.600 9.014,9.600 9.031 " fill="#000000" stroke="none" fill-rule="evenodd"></path></svg>