<svg viewBox="0 0 24 24" xmlns="http://www.w3.org/2000/svg" fill="none" stroke="#000000" stroke-width="2" stroke-linecap="round" stroke-linejoin="round"><path d="M11.280 1.023 C 11.203 1.032,10.951 1.059,10.720 1.083 C 8.832 1.283,6.991 2.023,5.360 3.235 C 4.751 3.688,3.684 4.755,3.226 5.367 C 0.728 8.714,0.301 13.032,2.097 16.780 C 2.643 17.918,3.276 18.801,4.238 19.762 C 5.199 20.724,6.082 21.357,7.220 21.903 C 10.967 23.699,15.288 23.270,18.637 20.770 C 19.246 20.316,20.316 19.246,20.770 18.637 C 23.744 14.652,23.744 9.348,20.770 5.363 C 20.316 4.755,19.247 3.686,18.640 3.235 C 17.045 2.049,15.365 1.360,13.423 1.096 C 13.000 1.038,11.574 0.990,11.280 1.023 M13.320 3.101 C 15.883 3.488,18.124 4.931,19.560 7.120 C 19.863 7.583,20.303 8.479,20.492 9.020 C 20.838 10.013,20.977 10.865,20.977 12.000 C 20.977 13.493,20.720 14.621,20.080 15.940 C 19.375 17.394,18.311 18.607,16.927 19.532 C 16.138 20.060,14.876 20.588,13.908 20.797 C 11.266 21.366,8.479 20.708,6.370 19.019 C 4.857 17.807,3.722 16.029,3.267 14.160 C 3.081 13.397,3.023 12.888,3.023 12.000 C 3.023 10.507,3.280 9.379,3.920 8.060 C 4.971 5.891,6.877 4.221,9.160 3.466 C 9.865 3.233,10.432 3.118,11.340 3.024 C 11.662 2.991,12.911 3.039,13.320 3.101 M12.220 9.283 C 11.109 9.335,9.947 9.502,8.740 9.781 C 7.571 10.052,7.340 10.155,7.138 10.499 C 6.832 11.022,7.093 11.741,7.660 11.934 C 7.939 12.029,8.033 12.020,8.806 11.825 C 10.562 11.381,12.258 11.197,13.833 11.280 C 15.033 11.343,15.802 11.480,16.767 11.803 C 17.433 12.027,17.609 12.042,17.900 11.905 C 18.562 11.591,18.702 10.752,18.172 10.275 C 17.820 9.958,16.427 9.552,15.100 9.379 C 14.650 9.320,13.311 9.237,13.000 9.248 C 12.923 9.250,12.572 9.266,12.220 9.283 M11.200 12.444 C 10.079 12.533,8.317 12.928,7.956 13.172 C 7.529 13.459,7.382 14.025,7.618 14.474 C 7.761 14.747,8.163 14.998,8.463 14.999 C 8.552 15.000,8.849 14.937,9.123 14.861 C 10.248 14.545,11.080 14.427,12.200 14.425 C 13.316 14.422,14.107 14.551,15.002 14.881 C 15.398 15.027,15.629 15.033,15.900 14.905 C 16.279 14.725,16.487 14.406,16.490 14.001 C 16.493 13.411,16.179 13.136,15.140 12.821 C 13.979 12.469,12.579 12.335,11.200 12.444 M10.179 15.699 C 9.710 15.771,9.351 15.854,8.867 16.003 C 8.536 16.105,8.447 16.151,8.303 16.295 C 7.908 16.690,7.906 17.308,8.299 17.701 C 8.479 17.881,8.758 18.000,9.000 18.000 C 9.080 18.000,9.291 17.957,9.467 17.904 C 10.146 17.701,10.421 17.661,11.160 17.661 C 11.900 17.662,11.982 17.675,12.529 17.883 C 12.698 17.947,12.907 18.000,12.992 18.000 C 13.668 18.000,14.163 17.313,13.941 16.682 C 13.817 16.330,13.632 16.170,13.105 15.959 C 12.558 15.740,12.139 15.670,11.300 15.656 C 10.797 15.648,10.418 15.663,10.179 15.699 " stroke="none" fill-rule="evenodd" fill="black"></path></svg>