<svg xmlns="http://www.w3.org/2000/svg" width="24" height="24" viewBox="0 0 24 24" version="1.1">
	<path d="M 7.500 1.894 C 3.457 3.652, 1.500 6.976, 1.500 12.082 C 1.500 16.074, 2.001 17.456, 4.273 19.727 C 6.557 22.011, 7.919 22.500, 12 22.500 C 19.011 22.500, 22.500 19.011, 22.500 12 C 22.500 7.999, 22 6.546, 19.903 4.448 C 17.099 1.644, 10.974 0.383, 7.500 1.894 M 5.923 5.923 C 4.315 7.531, 3 9.381, 3 10.034 C 3 10.687, 3.830 10.197, 4.844 8.944 C 8.457 4.482, 17 7.136, 17 12.721 C 17 16.768, 15.210 19, 11.965 19 C 10.334 19, 9 19.450, 9 20 C 9 22.272, 15.195 20.959, 18.077 18.077 C 22.007 14.147, 22.007 9.853, 18.077 5.923 C 14.147 1.993, 9.853 1.993, 5.923 5.923 M 11.943 9.944 C 13.120 10.688, 13.166 11.340, 12.193 13.475 C 10.676 16.805, 10.692 17, 12.481 17 C 14.475 17, 15.548 12.366, 13.989 10.487 C 13.310 9.669, 12.248 9.007, 11.628 9.015 C 11.007 9.024, 11.149 9.442, 11.943 9.944 M 7.736 11.598 C 6.834 12.499, 8.075 15.071, 9.105 14.435 C 9.597 14.131, 10 13.234, 10 12.441 C 10 10.968, 8.809 10.525, 7.736 11.598 M 4 15.378 C 4 17.016, 6.428 19.239, 7.283 18.384 C 7.987 17.680, 5.869 14, 4.759 14 C 4.342 14, 4 14.620, 4 15.378" stroke="none" fill="black" fill-rule="evenodd"/>
</svg>