<svg xmlns="http://www.w3.org/2000/svg" viewBox="0 0 24 24">
  <g fill="none" stroke="#000" stroke-width="2" stroke-linecap="round" stroke-linejoin="round">
    <circle fill="currentColor" stroke="none" cx="12" cy="12" r="2"/><path stroke="currentColor" stroke-width="1.5" d="M12 21.3c-2.4 0-4.6-.9-6.3-2.4-1.7-1.5-2.7-3.6-2.7-5.9 0-2.3 1-4.4 2.7-5.9 1.7-1.5 3.9-2.4 6.3-2.4s4.6.9 6.3 2.4c1.7 1.5 2.7 3.6 2.7 5.9 0 2.3-1 4.4-2.7 5.9-1.7 1.5-3.9 2.4-6.3 2.4z" transform="rotate(0 12 12)" opacity="0.4"/><ellipse fill="none" stroke="currentColor" stroke-width="1.5" cx="12" cy="12" rx="10" ry="4" transform="rotate(60 12 12)"/><ellipse fill="none" stroke="currentColor" stroke-width="1.5" cx="12" cy="12" rx="10" ry="4" transform="rotate(120 12 12)"/><ellipse fill="none" stroke="currentColor" stroke-width="1.5" cx="12" cy="12" rx="10" ry="4"/>
  </g>
</svg>