<svg viewBox="0 0 24 24" xmlns="http://www.w3.org/2000/svg" fill="none" stroke="#000000" stroke-width="2" stroke-linecap="round" stroke-linejoin="round"><path d="M11.296 3.043 C 9.311 3.221,7.619 4.291,6.747 5.920 C 6.207 6.928,6.000 7.868,6.000 9.309 C 6.000 10.166,5.982 10.251,5.756 10.474 C 5.451 10.774,4.947 10.944,4.207 10.998 C 3.950 11.016,3.689 11.051,3.627 11.076 C 3.437 11.150,3.241 11.323,3.128 11.516 C 3.024 11.693,3.020 11.720,3.024 12.260 C 3.031 13.383,3.355 14.341,3.951 15.001 C 4.186 15.262,4.575 15.569,4.824 15.690 L 4.989 15.770 5.012 16.195 C 5.132 18.362,6.871 20.099,9.560 20.738 C 10.344 20.924,10.893 20.978,12.000 20.978 C 13.107 20.978,13.656 20.924,14.440 20.738 C 17.127 20.100,18.868 18.361,18.988 16.197 L 19.011 15.775 19.225 15.663 C 19.507 15.515,19.933 15.154,20.166 14.865 C 20.684 14.222,20.973 13.286,20.978 12.240 C 20.980 11.723,20.975 11.692,20.872 11.516 C 20.759 11.323,20.563 11.150,20.373 11.076 C 20.311 11.051,20.050 11.016,19.793 10.998 C 19.053 10.944,18.549 10.774,18.244 10.474 C 18.019 10.252,18.000 10.164,18.000 9.330 C 18.000 7.874,17.793 6.928,17.253 5.920 C 16.890 5.241,16.324 4.594,15.680 4.124 C 15.316 3.858,14.545 3.463,14.120 3.325 C 13.303 3.060,12.267 2.957,11.296 3.043 M13.087 5.118 C 14.340 5.398,15.247 6.155,15.700 7.299 C 15.910 7.831,15.963 8.204,15.998 9.400 C 16.028 10.437,16.036 10.517,16.133 10.792 C 16.276 11.194,16.435 11.459,16.724 11.775 C 17.176 12.268,17.816 12.638,18.532 12.819 C 18.875 12.906,18.899 12.919,18.886 13.006 C 18.854 13.214,18.647 13.586,18.473 13.745 C 18.289 13.913,18.189 13.956,17.796 14.037 C 17.516 14.094,17.274 14.268,17.129 14.514 C 17.022 14.696,17.020 14.717,16.994 15.560 C 16.980 16.035,16.947 16.492,16.920 16.580 C 16.630 17.544,15.535 18.400,14.140 18.755 C 13.414 18.940,13.067 18.976,12.000 18.976 C 10.933 18.976,10.586 18.940,9.860 18.755 C 8.682 18.456,7.667 17.772,7.268 17.009 C 7.054 16.598,7.033 16.486,7.006 15.560 C 6.980 14.717,6.978 14.696,6.871 14.514 C 6.726 14.268,6.484 14.094,6.204 14.037 C 5.811 13.956,5.711 13.913,5.527 13.745 C 5.353 13.586,5.146 13.214,5.114 13.006 C 5.101 12.919,5.125 12.906,5.468 12.819 C 6.184 12.638,6.824 12.268,7.276 11.775 C 7.565 11.459,7.724 11.194,7.867 10.792 C 7.964 10.516,7.972 10.440,8.000 9.400 C 8.033 8.207,8.086 7.842,8.303 7.293 C 8.807 6.020,9.875 5.232,11.360 5.039 C 11.762 4.986,12.689 5.029,13.087 5.118 " stroke="none" fill-rule="evenodd" fill="black"></path></svg>