<svg viewBox="0 0 24 24" xmlns="http://www.w3.org/2000/svg"><path d="M14.538 3.288 C 14.536 4.013,14.529 4.082,14.426 4.418 C 14.209 5.122,13.793 5.771,13.299 6.173 C 12.160 7.098,10.434 7.056,8.960 6.068 C 8.586 5.817,7.964 5.194,7.703 4.809 C 7.594 4.650,7.493 4.533,7.478 4.549 C 7.463 4.566,7.321 4.775,7.162 5.014 C 7.003 5.252,6.469 5.988,5.974 6.649 C 4.994 7.960,4.636 8.483,4.209 9.229 C 2.423 12.350,2.628 15.719,4.752 18.143 C 5.834 19.378,7.444 20.311,9.223 20.734 C 10.508 21.041,11.995 21.079,13.205 20.837 C 16.894 20.099,19.553 17.134,19.963 13.300 C 20.083 12.183,19.874 10.779,19.472 9.985 C 19.395 9.833,19.394 9.820,19.462 9.371 C 19.708 7.743,19.124 5.729,18.072 4.581 C 17.602 4.068,16.805 3.499,15.980 3.088 C 15.542 2.870,14.890 2.604,14.640 2.541 L 14.540 2.516 14.538 3.288 " fill="#000000" stroke="none" fill-rule="evenodd"></path></svg>