<svg viewBox="0 0 24 24" xmlns="http://www.w3.org/2000/svg" fill="none" stroke="currentColor" stroke-width="2" stroke-linecap="round" stroke-linejoin="round"><path fill="#F24E1E" stroke="none" d="M5 5.5A3.5 3.5 0 0 1 8.5 2H12v7H8.5A3.5 3.5 0 0 1 5 5.5z"/><path fill="#A259FF" stroke="none" d="M12 2h3.5a3.5 3.5 0 1 1 0 7H12V2z"/><path fill="#1ABCFE" stroke="none" d="M12 12.5a3.5 3.5 0 1 1-7 0 3.5 3.5 0 0 1 7 0z"/><path fill="#0ACF83" stroke="none" d="M5 19.5A3.5 3.5 0 0 1 8.5 16H12v3.5a3.5 3.5 0 1 1-7 0z"/><path fill="#FF7262" stroke="none" d="M5 12.5A3.5 3.5 0 0 1 8.5 9H12v7H8.5A3.5 3.5 0 0 1 5 12.5z"/></svg>