<svg xmlns="http://www.w3.org/2000/svg" width="24" height="24" viewBox="0 0 24 24" version="1.1">
	<path d="M 13.403 1.438 C 11.256 1.210, 8.600 1.416, 7.500 1.894 C 6.400 2.373, 4.600 3.764, 3.500 4.987 C 2.078 6.568, 1.500 8.618, 1.500 12.082 C 1.500 16.074, 2.001 17.456, 4.273 19.727 C 6.557 22.011, 7.919 22.500, 12 22.500 C 16.081 22.500, 17.443 22.011, 19.727 19.727 C 22.011 17.443, 22.500 16.081, 22.500 12 C 22.500 7.999, 22 6.546, 19.903 4.448 C 18.256 2.802, 15.876 1.699, 13.403 1.438 M 12 3 C 9.848 3, 7.918 3.928, 5.923 5.923 C 4.315 7.531, 3 9.381, 3 10.034 C 3 10.687, 3.830 10.197, 4.844 8.944 C 6.055 7.448, 7.767 6.667, 9.831 6.667 C 11.560 6.667, 13.880 7.486, 14.987 8.488 C 16.094 9.490, 17 11.395, 17 12.721 C 17 14.047, 16.534 16.002, 15.965 17.066 C 15.299 18.310, 13.873 19, 11.965 19 C 10.334 19, 9 19.450, 9 20 C 9 20.550, 10.385 21, 12.077 21 C 14.144 21, 16.113 20.041, 18.077 18.077 C 20.072 16.082, 21 14.152, 21 12 C 21 9.848, 20.072 7.918, 18.077 5.923 C 16.082 3.928, 14.152 3, 12 3 M 11.628 9.015 C 11.007 9.024, 11.149 9.442, 11.943 9.944 C 13.120 10.688, 13.166 11.340, 12.193 13.475 C 11.537 14.916, 11 16.298, 11 16.547 C 11 16.796, 11.666 17, 12.481 17 C 13.295 17, 14.246 15.869, 14.593 14.487 C 14.954 13.046, 14.697 11.340, 13.989 10.487 C 13.310 9.669, 12.248 9.007, 11.628 9.015 M 9.167 11 C 8.708 11, 8.064 11.269, 7.736 11.598 C 7.407 11.927, 7.379 12.824, 7.674 13.592 C 7.968 14.360, 8.612 14.740, 9.105 14.435 C 9.597 14.131, 10 13.234, 10 12.441 C 10 11.648, 9.625 11, 9.167 11 M 4.759 14 C 4.342 14, 4 14.620, 4 15.378 C 4 16.135, 4.604 17.256, 5.342 17.869 C 6.080 18.481, 6.954 18.713, 7.283 18.384 C 7.613 18.054, 7.351 16.933, 6.701 15.892 C 6.051 14.851, 5.177 14, 4.759 14" stroke="none" fill="black" fill-rule="evenodd"/>
</svg>