<svg xmlns="http://www.w3.org/2000/svg" width="24" height="24" viewBox="0 0 24 24" version="1.1">
	<path d="M 11.826 3 C 10.442 3, 8.565 3.823, 7.655 4.829 C 6.745 5.835, 6 7.424, 6 8.360 C 6 9.297, 5.325 10.322, 4.500 10.638 C 3.675 10.955, 3 11.911, 3 12.763 C 3 13.614, 4.148 15.816, 5.551 17.656 C 7.675 20.440, 8.755 21, 12 21 C 15.245 21, 16.325 20.440, 18.449 17.656 C 19.852 15.816, 21 13.614, 21 12.763 C 21 11.911, 20.325 10.955, 19.500 10.638 C 18.675 10.322, 18 9.218, 18 8.186 C 18 7.154, 17.177 5.565, 16.171 4.655 C 15.165 3.745, 13.210 3, 11.826 3 M 12 5 C 11.120 5, 9.860 5.540, 9.200 6.200 C 8.540 6.860, 8 8.398, 8 9.617 C 8 10.836, 7.522 11.993, 6.938 12.187 C 6.205 12.432, 6.187 13.362, 6.880 15.185 C 7.433 16.639, 8.811 18.123, 9.943 18.482 C 11.074 18.841, 12.926 18.841, 14.057 18.482 C 15.189 18.123, 16.567 16.639, 17.120 15.185 C 17.813 13.362, 17.795 12.432, 17.062 12.187 C 16.478 11.993, 16 10.836, 16 9.617 C 16 8.397, 15.460 6.860, 14.800 6.200 C 14.140 5.540, 12.880 5, 12 5" stroke="none" fill="black" fill-rule="evenodd"/>
</svg>