<svg viewBox="0 0 24 24" xmlns="http://www.w3.org/2000/svg"><path d="M11.380 2.045 C 10.764 2.122,10.045 2.395,9.480 2.767 C 9.125 3.001,8.568 3.545,8.328 3.893 C 7.687 4.823,7.439 5.771,7.523 6.966 C 7.599 8.038,7.748 8.664,8.451 10.868 C 8.492 10.994,8.485 11.004,8.066 11.441 C 6.910 12.648,6.512 13.440,6.510 14.540 C 6.508 15.382,6.651 15.998,7.006 16.682 C 7.228 17.108,7.441 17.393,8.000 18.009 C 8.728 18.811,8.942 19.349,8.984 20.480 C 9.011 21.196,9.023 21.258,9.168 21.423 C 9.529 21.835,10.341 22.000,12.000 22.000 C 13.615 22.000,14.444 21.839,14.807 21.454 C 14.964 21.288,15.000 21.157,15.000 20.747 C 15.001 20.020,15.108 19.425,15.318 18.973 C 15.499 18.584,15.713 18.301,16.266 17.719 C 16.808 17.149,17.020 16.866,17.184 16.494 C 17.506 15.767,17.600 14.289,17.379 13.435 C 17.206 12.770,16.932 12.369,16.114 11.587 L 15.505 11.005 15.547 10.873 C 16.247 8.677,16.403 8.021,16.477 6.966 C 16.582 5.472,16.131 4.237,15.127 3.272 C 14.114 2.298,12.800 1.868,11.380 2.045 " fill="#000000" stroke="none" fill-rule="evenodd"></path></svg>