<svg viewBox="0 0 24 24" xmlns="http://www.w3.org/2000/svg"><path d="M4.000 3.021 C 4.000 3.066,5.960 18.748,5.981 18.867 L 6.003 18.994 9.011 19.997 L 12.020 21.000 15.000 20.007 L 17.980 19.014 18.012 18.877 C 18.036 18.771,20.000 3.109,20.000 3.021 C 20.000 3.009,16.400 3.000,12.000 3.000 C 7.600 3.000,4.000 3.009,4.000 3.021 M16.747 7.260 L 16.496 8.500 13.000 8.500 L 9.503 8.500 9.414 8.060 C 9.364 7.818,9.323 7.598,9.322 7.570 C 9.320 7.530,10.073 7.520,12.957 7.520 L 16.593 7.520 16.634 7.330 C 16.656 7.225,16.743 6.789,16.827 6.361 C 16.958 5.691,16.981 5.612,16.989 5.801 C 16.995 5.943,16.909 6.458,16.747 7.260 " fill="#000000" stroke="none" fill-rule="evenodd"></path></svg>