<svg xmlns="http://www.w3.org/2000/svg" width="24" height="24" viewBox="0 0 24 24" version="1.1">
	<path d="M 6.304 3.956 C -1.506 8.718, 2.615 22, 11.903 22 C 19.678 22, 24.919 12.158, 20.228 6.367 C 16.446 1.699, 11.431 0.830, 6.304 3.956 M 8.238 5.327 C 6.246 6.433, 6.138 6.806, 7.335 8.443 C 8.276 9.730, 8.914 9.948, 9.406 9.151 C 9.798 8.518, 11.891 8, 14.059 8 C 18.580 8, 19.147 6.844, 15.453 5.161 C 12.281 3.715, 11.091 3.743, 8.238 5.327 M 4 11.453 C 4 13.851, 6.166 17.850, 7.806 18.479 C 10.668 19.577, 10.866 16.725, 8.161 13.335 C 5.290 9.737, 4 9.153, 4 11.453 M 10.446 11.087 C 9.416 12.755, 11.733 14.667, 13.113 13.287 C 14.267 12.133, 13.545 10, 12 10 C 11.515 10, 10.816 10.489, 10.446 11.087 M 16 11.865 C 16 12.891, 15.049 14.940, 13.886 16.418 C 11.359 19.630, 11.831 20.490, 15.261 18.927 C 19.544 16.976, 21.684 10, 18 10 C 16.715 10, 16 10.667, 16 11.865" stroke="none" fill="black" fill-rule="evenodd"/>
</svg>