<svg viewBox="0 0 24 24" xmlns="http://www.w3.org/2000/svg"><path d="M8.142 5.008 C 8.130 5.059,8.056 5.514,7.977 6.020 C 7.897 6.526,7.824 6.954,7.814 6.970 C 7.804 6.986,7.418 7.000,6.958 7.000 C 6.306 7.000,6.120 7.011,6.120 7.051 C 6.120 7.099,4.069 21.731,4.017 22.050 L 3.993 22.200 5.533 22.200 L 7.074 22.200 7.097 22.090 C 7.110 22.030,7.246 21.170,7.400 20.180 C 7.555 19.190,7.691 18.331,7.704 18.270 L 7.726 18.160 9.153 18.160 C 11.190 18.159,11.915 18.096,12.846 17.840 C 13.780 17.583,14.473 17.196,15.103 16.580 C 15.681 16.014,16.021 15.476,16.293 14.695 C 16.582 13.865,16.705 12.941,16.668 11.880 C 16.623 10.600,16.351 9.659,15.791 8.847 L 15.579 8.540 15.607 8.180 C 15.622 7.982,15.617 7.635,15.596 7.410 C 15.475 6.130,14.836 5.339,13.675 5.033 C 13.349 4.946,13.273 4.944,10.751 4.930 L 8.162 4.916 8.142 5.008 " fill="#000000" stroke="none" fill-rule="evenodd"></path></svg>