<svg xmlns="http://www.w3.org/2000/svg" width="24" height="24" viewBox="0 0 24 24" version="1.1">
	<path d="M 6.524 5 C 5.834 5, 4.084 5.933, 2.635 7.073 C 0.888 8.447, 0 10.107, -0 12 C -0 13.893, 0.888 15.553, 2.635 16.927 C 4.084 18.067, 5.834 19, 6.524 19 C 7.214 19, 8.801 18.172, 10.050 17.161 C 12.256 15.374, 12.375 15.375, 14.184 17.184 C 15.550 18.550, 16.517 18.794, 17.814 18.099 C 18.787 17.579, 20.457 17.231, 21.526 17.326 C 23 17.458, 23.701 16.575, 24.430 13.672 C 25.085 11.060, 25.046 9.312, 24.307 8.172 C 23.711 7.252, 22.404 6.578, 21.403 6.674 C 20.402 6.769, 18.787 6.421, 17.814 5.901 C 16.517 5.206, 15.550 5.450, 14.184 6.816 C 12.375 8.625, 12.256 8.626, 10.050 6.839 C 8.801 5.828, 7.214 5, 6.524 5 M 6.892 8.207 C 5.569 8.046, 3.927 8.473, 3.243 9.157 C 2.559 9.841, 2 11.155, 2 12.078 C 2 13, 2.650 14.295, 3.445 14.954 C 4.240 15.614, 5.881 16.006, 7.093 15.827 C 8.304 15.647, 9.789 14.712, 10.393 13.750 C 11.188 12.481, 11.188 11.519, 10.394 10.250 C 9.791 9.287, 8.216 8.368, 6.892 8.207 M 16.500 8 C 15.749 8, 14.849 8.900, 14.500 10 C 14.151 11.100, 14.151 12.900, 14.500 14 C 14.849 15.100, 15.749 16, 16.500 16 C 17.251 16, 18.151 15.100, 18.500 14 C 18.849 12.900, 18.849 11.100, 18.500 10 C 18.151 8.900, 17.251 8, 16.500 8 M 0.689 10.250 C 0.438 9.287, 0.232 10.075, 0.232 12 C 0.232 13.925, 0.438 14.713, 0.689 13.750 C 0.941 12.787, 0.941 11.213, 0.689 10.250" stroke="none" fill="black" fill-rule="evenodd"/>
</svg>