<svg viewBox="0 0 24 24" xmlns="http://www.w3.org/2000/svg"><path d="M11.420 2.060 C 10.616 2.212,9.751 2.709,9.138 3.371 C 8.638 3.911,8.301 4.510,8.092 5.230 C 8.038 5.417,8.023 5.698,8.010 6.730 L 7.994 8.000 9.997 8.000 L 12.000 8.000 12.000 9.000 L 12.000 10.000 7.999 10.000 L 3.998 10.000 4.010 14.270 C 4.022 18.986,4.001 18.591,4.280 19.314 C 4.653 20.280,5.721 21.348,6.689 21.721 C 7.389 21.991,7.248 21.980,10.000 21.980 C 12.752 21.980,12.611 21.991,13.311 21.721 C 14.279 21.348,15.347 20.280,15.720 19.314 C 15.970 18.665,15.973 18.644,15.990 17.270 L 16.006 16.000 14.003 16.000 L 12.000 16.000 12.000 15.000 L 12.000 14.000 16.001 14.000 L 20.002 14.000 19.990 9.730 C 19.980 5.826,19.973 5.440,19.910 5.230 C 19.689 4.491,19.361 3.909,18.862 3.371 C 18.228 2.686,17.306 2.172,16.480 2.042 C 16.075 1.978,11.773 1.994,11.420 2.060 M11.340 5.066 C 11.709 5.192,12.000 5.604,12.000 6.000 C 12.000 6.242,11.881 6.521,11.701 6.701 C 11.310 7.092,10.690 7.092,10.299 6.701 C 9.907 6.309,9.908 5.690,10.300 5.298 C 10.577 5.020,10.957 4.936,11.340 5.066 M13.340 17.066 C 13.709 17.192,14.000 17.604,14.000 18.000 C 14.000 18.527,13.527 19.000,13.000 19.000 C 12.758 19.000,12.479 18.881,12.299 18.701 C 11.907 18.309,11.908 17.690,12.300 17.298 C 12.577 17.020,12.957 16.936,13.340 17.066 " fill="#000000" stroke="none" fill-rule="evenodd"></path></svg>