<svg xmlns="http://www.w3.org/2000/svg" width="24" height="24" viewBox="0 0 24 24" version="1.1">
	<path d="M 21.750 1.071 C 21.063 1.110, 16.113 2.747, 10.750 4.707 C 5.387 6.668, 1 8.572, 1 8.937 C 1 9.302, 3.029 10.587, 5.509 11.792 C 8.927 13.453, 10.547 15.073, 12.208 18.491 C 13.413 20.971, 14.699 23, 15.067 23 C 15.435 23, 17.374 18.388, 19.377 12.750 C 21.380 7.113, 23.014 2.163, 23.009 1.750 C 23.004 1.337, 22.438 1.032, 21.750 1.071 M 16.481 5.104 C 15.941 5.161, 13.617 5.956, 11.316 6.871 C 9.015 7.785, 6.825 8.842, 6.448 9.218 C 6.072 9.595, 6.986 10.209, 8.480 10.584 C 10.689 11.139, 11.780 10.682, 14.329 8.133 C 16.052 6.410, 17.020 5.047, 16.481 5.104 M 18.764 7 C 18.559 7, 16.984 8.462, 15.263 10.250 C 12.394 13.231, 12.245 13.704, 13.465 15.961 L 14.797 18.423 16.279 14.874 C 17.095 12.923, 18.071 10.352, 18.448 9.163 C 18.826 7.973, 18.968 7, 18.764 7" stroke="none" fill="black" fill-rule="evenodd"/>
</svg>