<svg xmlns="http://www.w3.org/2000/svg" width="24" height="24" viewBox="0 0 24 24" version="1.1">
	<path d="M 11.866 1.010 C 11.665 1.015, 9.475 2.628, 7 4.595 C 4.525 6.561, 2.276 8.394, 2.002 8.667 C 1.727 8.940, 2.204 9.689, 3.062 10.332 C 3.919 10.974, 5.886 12.508, 7.433 13.740 L 10.245 15.981 7.873 17.957 C 6.568 19.044, 5.162 19.948, 4.750 19.967 C 4.338 19.985, 4 18.875, 4 17.500 C 4 16.125, 3.550 15, 3 15 C 2.450 15, 2 17.025, 2 19.500 C 2 22.833, 2.389 24, 3.500 24 C 4.325 24, 5.003 23.663, 5.007 23.250 C 5.011 22.837, 6.501 21.488, 8.319 20.250 C 10.136 19.013, 12.046 18.002, 12.562 18.005 C 13.078 18.007, 14.938 19.357, 16.696 21.005 C 18.453 22.652, 20.366 24, 20.946 24 C 21.529 24, 22 21.988, 22 19.500 C 22 17.025, 21.550 15, 21 15 C 20.450 15, 20 16.125, 20 17.500 C 20 18.875, 19.663 19.985, 19.250 19.967 C 18.837 19.948, 17.424 19.037, 16.108 17.942 C 14.793 16.846, 13.893 15.814, 14.108 15.647 C 14.324 15.480, 16.188 14.088, 18.250 12.553 C 20.313 11.018, 22 9.404, 22 8.966 C 22 8.529, 19.802 6.557, 17.116 4.585 C 14.430 2.613, 12.067 1.004, 11.866 1.010 M 12.385 4.032 C 11.772 4.014, 9.972 4.984, 8.385 6.186 C 6.798 7.388, 5.324 8.502, 5.108 8.661 C 4.893 8.820, 5.793 9.846, 7.108 10.942 C 8.424 12.037, 9.838 12.948, 10.250 12.967 C 10.662 12.985, 11 11.875, 11 10.500 C 11 9.125, 11.450 8, 12 8 C 12.550 8, 13 9.125, 13 10.500 C 13 11.875, 13.338 12.985, 13.750 12.967 C 14.162 12.948, 15.550 12.059, 16.832 10.990 L 19.165 9.046 16.332 6.555 C 14.775 5.184, 12.998 4.049, 12.385 4.032" stroke="none" fill="black" fill-rule="evenodd"/>
</svg>