<svg viewBox="0 0 24 24" xmlns="http://www.w3.org/2000/svg"><path d="M7.346 2.422 C 6.445 2.601,5.733 3.295,5.404 4.315 C 5.117 5.200,5.088 6.452,5.322 7.758 C 5.363 7.988,5.392 8.181,5.386 8.187 C 5.380 8.193,5.205 8.260,4.998 8.335 C 3.822 8.762,2.944 9.270,2.266 9.918 C 1.722 10.438,1.427 10.932,1.303 11.530 C 1.224 11.915,1.224 12.085,1.303 12.470 C 1.428 13.073,1.717 13.554,2.286 14.103 C 2.945 14.739,3.798 15.231,4.998 15.665 C 5.205 15.741,5.380 15.807,5.386 15.813 C 5.392 15.819,5.363 16.012,5.322 16.242 C 5.192 16.965,5.147 17.576,5.173 18.260 C 5.219 19.470,5.519 20.302,6.133 20.921 C 6.744 21.536,7.600 21.761,8.589 21.566 C 9.582 21.369,10.532 20.845,11.813 19.785 L 12.000 19.630 12.187 19.785 C 13.472 20.848,14.416 21.369,15.411 21.566 C 16.403 21.762,17.241 21.541,17.865 20.919 C 18.479 20.307,18.781 19.472,18.827 18.260 C 18.853 17.573,18.807 16.956,18.677 16.243 C 18.635 16.014,18.606 15.821,18.612 15.814 C 18.619 15.808,18.795 15.741,19.002 15.665 C 20.202 15.231,21.055 14.739,21.714 14.103 C 22.283 13.554,22.572 13.073,22.697 12.470 C 22.776 12.085,22.776 11.915,22.697 11.530 C 22.573 10.932,22.278 10.438,21.734 9.918 C 21.056 9.270,20.178 8.762,19.002 8.335 C 18.795 8.260,18.619 8.192,18.612 8.186 C 18.606 8.179,18.635 7.986,18.677 7.757 C 18.914 6.460,18.884 5.230,18.594 4.309 C 18.274 3.294,17.544 2.593,16.626 2.419 C 15.380 2.183,13.970 2.756,12.170 4.230 L 12.000 4.370 11.830 4.230 C 10.024 2.751,8.593 2.174,7.346 2.422 " stroke="none" fill-rule="evenodd" fill="black"></path></svg>