<svg viewBox="0 0 24 24" xmlns="http://www.w3.org/2000/svg"><path d="M2.015 3.032 C 2.027 3.051,4.270 6.908,6.999 11.603 C 9.729 16.298,11.980 20.140,12.000 20.140 C 12.020 20.140,14.277 16.288,17.014 11.580 L 21.991 3.020 19.725 3.010 C 18.479 3.004,17.442 3.006,17.420 3.015 C 17.398 3.023,16.624 4.319,15.701 5.895 C 14.777 7.471,14.012 8.760,14.000 8.760 C 13.988 8.760,13.221 7.469,12.296 5.890 L 10.614 3.020 9.503 3.009 C 8.506 3.000,8.393 3.005,8.415 3.061 C 8.428 3.096,9.233 5.639,10.203 8.712 C 11.173 11.785,11.980 14.314,11.997 14.331 C 12.013 14.349,12.176 14.137,12.359 13.861 C 12.542 13.586,12.700 13.360,12.710 13.360 C 12.721 13.360,12.704 13.400,12.672 13.450 C 12.641 13.500,12.482 13.769,12.319 14.050 C 12.156 14.330,12.013 14.560,12.001 14.560 C 11.989 14.560,10.456 11.963,8.596 8.790 L 5.214 3.020 3.604 3.010 C 2.719 3.004,2.004 3.014,2.015 3.032 " fill="#000000" stroke="none" fill-rule="evenodd"></path></svg>