<svg viewBox="0 0 24 24" xmlns="http://www.w3.org/2000/svg" fill="none" stroke="#000000" stroke-width="2" stroke-linecap="round" stroke-linejoin="round"><path d="M7.499 5.043 C 6.389 5.231,5.487 6.025,5.114 7.140 L 5.021 7.420 5.009 10.706 L 4.997 13.991 4.820 14.018 C 4.428 14.077,4.062 14.465,4.014 14.871 C 3.966 15.274,4.119 15.561,4.767 16.287 C 4.993 16.540,5.055 16.641,5.124 16.867 C 5.414 17.812,6.185 18.582,7.140 18.879 C 7.335 18.940,7.566 18.972,7.900 18.986 C 8.357 19.005,8.404 19.015,8.880 19.200 C 11.601 20.260,14.432 20.264,17.080 19.212 C 18.257 18.745,19.626 17.903,19.860 17.504 C 20.212 16.904,19.838 16.119,19.153 16.019 C 18.818 15.970,18.678 16.022,18.091 16.415 C 17.484 16.821,16.834 17.168,16.280 17.382 L 15.918 17.522 15.719 17.322 C 15.381 16.985,15.553 17.000,11.986 17.000 L 8.867 17.000 8.608 16.858 C 8.235 16.653,7.747 16.322,7.358 16.010 L 7.020 15.739 7.010 11.800 C 6.998 7.355,6.980 7.626,7.306 7.301 C 7.625 6.982,7.305 7.000,12.500 7.000 C 17.658 7.000,17.370 6.984,17.679 7.283 C 17.997 7.592,17.977 7.388,18.001 10.660 L 18.022 13.580 18.115 13.860 C 18.440 14.839,19.190 15.587,20.137 15.877 C 20.481 15.982,21.040 16.026,21.264 15.965 C 21.498 15.901,21.737 15.714,21.867 15.492 C 21.964 15.327,21.980 15.257,21.980 15.000 C 21.980 14.746,21.963 14.672,21.872 14.516 C 21.758 14.323,21.561 14.149,21.375 14.078 C 21.314 14.055,21.130 14.019,20.966 13.998 C 20.523 13.942,20.233 13.740,20.070 13.373 C 20.032 13.287,20.015 12.553,19.999 10.340 L 19.978 7.420 19.885 7.140 C 19.560 6.161,18.821 5.425,17.861 5.121 L 17.540 5.020 12.620 5.014 C 9.914 5.011,7.609 5.024,7.499 5.043 " stroke="none" fill-rule="evenodd" fill="black"></path></svg>