<svg viewBox="0 0 24 24" xmlns="http://www.w3.org/2000/svg"><path d="M1.000 11.500 L 1.000 15.000 4.240 15.000 L 7.480 15.000 7.480 16.000 L 7.480 17.000 9.240 17.000 L 11.000 17.000 11.000 16.000 L 11.000 15.000 17.000 15.000 L 23.000 15.000 23.000 11.500 L 23.000 8.000 12.000 8.000 L 1.000 8.000 1.000 11.500 M5.000 12.000 L 5.000 13.000 4.000 13.000 L 3.000 13.000 3.000 12.000 L 3.000 11.000 4.000 11.000 L 5.000 11.000 5.000 12.000 M17.000 12.000 L 17.000 13.000 16.000 13.000 L 15.000 13.000 15.000 12.000 L 15.000 11.000 16.000 11.000 L 17.000 11.000 17.000 12.000 " fill="#000000" stroke="none" fill-rule="evenodd"></path></svg>