<svg viewBox="0 0 24 24" xmlns="http://www.w3.org/2000/svg" fill="none" stroke="#000000" stroke-width="2" stroke-linecap="round" stroke-linejoin="round"><path d="M3.499 1.043 C 2.380 1.232,1.461 2.048,1.114 3.160 L 1.020 3.460 1.020 12.000 L 1.020 20.540 1.114 20.840 C 1.422 21.827,2.173 22.578,3.160 22.886 L 3.460 22.980 12.000 22.980 L 20.540 22.980 20.840 22.886 C 21.827 22.578,22.578 21.827,22.886 20.840 L 22.980 20.540 22.980 12.000 L 22.980 3.460 22.886 3.160 C 22.581 2.182,21.832 1.428,20.861 1.121 L 20.540 1.020 12.120 1.014 C 7.489 1.011,3.609 1.024,3.499 1.043 M19.640 3.068 C 19.484 3.121,18.966 3.623,15.730 6.854 L 12.000 10.579 8.270 6.854 C 5.034 3.623,4.516 3.121,4.360 3.068 C 4.197 3.012,4.907 3.006,12.000 3.006 C 19.093 3.006,19.803 3.012,19.640 3.068 M3.119 4.519 C 3.120 4.530,4.798 6.217,6.850 8.269 L 10.579 12.000 6.850 15.731 C 4.798 17.783,3.120 19.470,3.119 19.481 C 3.119 19.491,3.093 19.572,3.061 19.660 C 3.011 19.800,3.004 18.856,3.004 12.000 C 3.004 5.144,3.011 4.200,3.061 4.340 C 3.093 4.428,3.119 4.509,3.119 4.519 M20.998 12.010 C 20.997 18.859,20.989 19.800,20.939 19.660 C 20.907 19.572,20.881 19.491,20.881 19.481 C 20.880 19.470,19.202 17.783,17.150 15.731 L 13.421 12.000 17.126 8.290 C 19.164 6.249,20.861 4.522,20.896 4.452 C 20.931 4.382,20.960 4.296,20.960 4.262 C 20.960 4.228,20.969 4.200,20.980 4.200 C 20.991 4.200,20.999 7.715,20.998 12.010 M15.660 17.083 C 17.662 19.086,19.352 20.763,19.415 20.809 C 19.479 20.855,19.596 20.916,19.675 20.945 C 19.794 20.987,18.439 20.996,12.000 20.996 C 5.561 20.996,4.206 20.987,4.325 20.945 C 4.404 20.916,4.521 20.855,4.585 20.809 C 4.648 20.763,6.338 19.086,8.340 17.083 C 10.342 15.079,11.989 13.440,12.000 13.440 C 12.011 13.440,13.658 15.079,15.660 17.083 " stroke="none" fill-rule="evenodd" fill="black"></path></svg>