<svg xmlns="http://www.w3.org/2000/svg" width="24" height="24" viewBox="0 0 24 24" version="1.1">
	<path d="M 7.655 4.829 C 6.745 5.835, 6 7.424, 6 8.360 C 6 9.297, 5.325 10.322, 4.500 10.638 C 2.304 11.481, 2.661 13.867, 5.551 17.656 C 7.675 20.440, 8.755 21, 12 21 C 15.245 21, 16.325 20.440, 18.449 17.656 C 21.339 13.867, 21.696 11.481, 19.500 10.638 C 18.675 10.322, 18 9.218, 18 8.186 C 18 3.632, 10.841 1.308, 7.655 4.829 M 9.200 6.200 C 8.540 6.860, 8 8.398, 8 9.617 C 8 10.836, 7.522 11.993, 6.938 12.187 C 5.219 12.760, 7.595 17.737, 9.943 18.482 C 11.074 18.841, 12.926 18.841, 14.057 18.482 C 16.405 17.737, 18.781 12.760, 17.062 12.187 C 16.478 11.993, 16 10.836, 16 9.617 C 16 5.600, 11.873 3.527, 9.200 6.200" stroke="none" fill="#000000" fill-rule="evenodd"/>
</svg>