<svg xmlns="http://www.w3.org/2000/svg" width="24" height="24" viewBox="0 0 24 24" version="1.1">
	<path d="M 5.569 6.204 C 5.346 6.917, 4.949 9.389, 4.684 11.698 C 3.979 17.862, 5.591 19.500, 12.362 19.500 C 16.876 19.500, 18.287 19.069, 20.080 17.144 C 21.470 15.652, 21.885 14.547, 21.212 14.131 C 20.627 13.770, 20.003 11.680, 19.824 9.487 L 19.500 5.500 12.736 5.204 C 7.863 4.991, 5.860 5.270, 5.569 6.204 M 7.195 11.750 L 7.500 16.500 12.750 16.500 C 15.638 16.500, 18 16.163, 18 15.750 C 18 15.338, 18 13.200, 18 11 L 18 7 12.445 7 L 6.890 7 7.195 11.750" stroke="none" fill="#000000" fill-rule="evenodd"/>
</svg>