<svg xmlns="http://www.w3.org/2000/svg" width="24" height="24" viewBox="0 0 24 24" version="1.1">
	<path d="M 12 2 C 8.694 2, 7.706 2.409, 7.305 3.943 C 6.994 5.131, 5.767 6.006, 4.148 6.193 C 1.547 6.495, 1.500 6.632, 1.500 14 L 1.500 21.500 12 21.500 L 22.500 21.500 22.500 14 C 22.500 6.632, 22.453 6.495, 19.852 6.193 C 18.233 6.006, 17.006 5.131, 16.695 3.943 C 16.294 2.409, 15.306 2, 12 2 M 12 4 C 10.350 4, 9 4.450, 9 5 C 9 5.550, 10.350 6, 12 6 C 13.650 6, 15 5.550, 15 5 C 15 4.450, 13.650 4, 12 4 M 5 8 C 3.222 8, 3 8.667, 3 14 C 3 19.333, 3.222 20, 5 20 C 6.778 20, 7 19.333, 7 14 C 7 8.667, 6.778 8, 5 8 M 12 8 L 9 8 9 14 L 9 20 12 20 L 15 20 15 14 L 15 8 12 8 M 19 8 C 17.222 8, 17 8.667, 17 14 C 17 19.333, 17.222 20, 19 20 C 20.778 20, 21 19.333, 21 14 C 21 8.667, 20.778 8, 19 8" stroke="none" fill="black" fill-rule="evenodd"/>
</svg>