<svg xmlns="http://www.w3.org/2000/svg" width="24" height="24" viewBox="0 0 24 24" version="1.1">
	<path d="M 12 2 C 8.694 2, 7.706 2.409, 7.305 3.943 C 6.994 5.131, 5.767 6.006, 4.148 6.193 C 1.547 6.495, 1.500 6.632, 1.500 14 L 1.500 21.500 12 21.500 L 22.500 21.500 22.500 14 C 22.500 6.632, 22.453 6.495, 19.852 6.193 C 18.233 6.006, 17.006 5.131, 16.695 3.943 C 16.294 2.409, 15.306 2, 12 2 M 12 4 C 10.350 4, 9 4.450, 9 5 C 9 5.550, 10.350 6, 12 6 C 13.650 6, 15 5.550, 15 5 C 15 4.450, 13.650 4, 12 4 M 5 8 C 3.222 8, 3 8.667, 3 14 C 3 19.333, 3.222 20, 5 20 C 6.778 20, 7 19.333, 7 14 C 7 8.667, 6.778 8, 5 8 M 12 8 C 9.467 8, 9 8.389, 9 10.500 C 9 11.875, 9.412 13, 9.917 13 C 10.421 13, 11.096 12.438, 11.417 11.750 C 11.883 10.750, 12.117 10.750, 12.583 11.750 C 12.904 12.438, 13.579 13, 14.083 13 C 14.588 13, 15 11.875, 15 10.500 C 15 8.389, 14.533 8, 12 8 M 19 8 C 17.222 8, 17 8.667, 17 14 C 17 19.333, 17.222 20, 19 20 C 20.778 20, 21 19.333, 21 14 C 21 8.667, 20.778 8, 19 8 M 9.917 15 C 9.412 15, 9 16.125, 9 17.500 C 9 19.611, 9.467 20, 12 20 C 14.533 20, 15 19.611, 15 17.500 C 15 16.125, 14.588 15, 14.083 15 C 13.579 15, 12.904 15.563, 12.583 16.250 C 12.117 17.250, 11.883 17.250, 11.417 16.250 C 11.096 15.563, 10.421 15, 9.917 15" stroke="none" fill="black" fill-rule="evenodd"/>
</svg>