<svg xmlns="http://www.w3.org/2000/svg" width="24" height="24" viewBox="0 0 24 24" version="1.1">
	<path d="M 2.201 3.321 C 0.300 8.579, 0.747 11.686, 3.917 15.234 C 7.597 19.351, 9.172 18.181, 5.624 13.966 C 2.983 10.826, 2.331 7.603, 3.854 5.203 C 4.512 4.165, 4.932 4.213, 5.952 5.442 C 7.236 6.989, 9.490 6.602, 8.502 5.003 C 7.751 3.788, 11.606 2.740, 14.015 3.505 C 15.123 3.856, 15.790 4.531, 15.498 5.003 C 14.510 6.602, 16.764 6.989, 18.048 5.442 C 19.068 4.213, 19.488 4.165, 20.146 5.203 C 21.669 7.603, 21.017 10.826, 18.376 13.966 C 16.932 15.681, 16.069 17.403, 16.458 17.792 C 17.686 19.019, 23 12.125, 23 9.305 C 23 4.939, 20.787 0, 18.830 0 C 17.700 0, 17.263 0.521, 17.618 1.446 C 18.085 2.663, 17.684 2.707, 15.086 1.726 C 12.737 0.840, 11.263 0.840, 8.914 1.726 C 6.316 2.707, 5.915 2.663, 6.382 1.446 C 6.737 0.521, 6.300 0, 5.170 0 C 4.075 0, 2.944 1.265, 2.201 3.321 M 9.040 9.452 C 7.485 11.325, 8.028 13.989, 10.250 15.388 C 13.715 17.570, 17.617 12.653, 14.960 9.452 C 13.416 7.591, 10.584 7.591, 9.040 9.452 M 10.446 11.087 C 9.416 12.755, 11.733 14.667, 13.113 13.287 C 14.267 12.133, 13.545 10, 12 10 C 11.515 10, 10.816 10.489, 10.446 11.087" stroke="none" fill="black" fill-rule="evenodd"/>
</svg>