<svg xmlns="http://www.w3.org/2000/svg" width="24" height="24" viewBox="0 0 24 24" version="1.1">
	<path d="M 5.170 0 C 4.075 0, 2.944 1.265, 2.201 3.321 C 1.540 5.148, 1 7.840, 1 9.305 C 1 10.835, 2.242 13.358, 3.917 15.234 C 5.522 17.029, 7.153 18.180, 7.542 17.792 C 7.931 17.403, 7.068 15.681, 5.624 13.966 C 4.181 12.250, 3.007 9.869, 3.015 8.673 C 3.024 7.478, 3.401 5.916, 3.854 5.203 C 4.512 4.165, 4.932 4.213, 5.952 5.442 C 6.653 6.287, 7.633 6.727, 8.130 6.420 C 8.626 6.113, 8.794 5.475, 8.502 5.003 C 8.210 4.531, 8.877 3.856, 9.985 3.505 C 11.093 3.153, 12.907 3.153, 14.015 3.505 C 15.123 3.856, 15.790 4.531, 15.498 5.003 C 15.206 5.475, 15.374 6.113, 15.870 6.420 C 16.367 6.727, 17.347 6.287, 18.048 5.442 C 19.068 4.213, 19.488 4.165, 20.146 5.203 C 20.599 5.916, 20.976 7.478, 20.985 8.673 C 20.993 9.869, 19.819 12.250, 18.376 13.966 C 16.932 15.681, 16.069 17.403, 16.458 17.792 C 16.847 18.180, 18.478 17.029, 20.083 15.234 C 21.758 13.358, 23 10.835, 23 9.305 C 23 7.840, 22.460 5.148, 21.799 3.321 C 21.056 1.265, 19.925 0, 18.830 0 C 17.700 0, 17.263 0.521, 17.618 1.446 C 18.085 2.663, 17.684 2.707, 15.086 1.726 C 12.737 0.840, 11.263 0.840, 8.914 1.726 C 6.316 2.707, 5.915 2.663, 6.382 1.446 C 6.737 0.521, 6.300 0, 5.170 0 M 12 8 C 11.035 8, 9.703 8.653, 9.040 9.452 C 8.377 10.251, 7.985 11.665, 8.167 12.595 C 8.350 13.525, 9.287 14.782, 10.250 15.388 C 11.525 16.190, 12.475 16.190, 13.750 15.388 C 14.713 14.782, 15.650 13.525, 15.833 12.595 C 16.015 11.665, 15.623 10.251, 14.960 9.452 C 14.297 8.653, 12.965 8, 12 8 M 12 10 C 11.515 10, 10.816 10.489, 10.446 11.087 C 10.077 11.685, 10.275 12.675, 10.887 13.287 C 11.704 14.104, 12.296 14.104, 13.113 13.287 C 13.725 12.675, 13.923 11.685, 13.554 11.087 C 13.184 10.489, 12.485 10, 12 10" stroke="none" fill="black" fill-rule="evenodd"/>
</svg>