<svg xmlns="http://www.w3.org/2000/svg" width="24" height="24" viewBox="0 0 24 24" version="1.1">
	<path d="M 13.685 4.534 C 11.828 8.429, 11.578 10, 12.815 10 C 13.674 10, 17 3.616, 17 1.966 C 17 -0.144, 15.281 1.188, 13.685 4.534 M 6.629 10.525 C 6.219 11.593, 5.290 11.860, 3.522 11.416 C 0.517 10.662, 0.041 12.561, 3 13.500 C 5.160 14.186, 5.602 15.510, 4 16.500 C 1.838 17.836, 3.220 19.761, 7.925 21.965 C 12.937 24.312, 16 24.194, 16 21.652 C 16 20.876, 14.842 17.712, 13.427 14.621 C 10.830 8.949, 7.909 7.189, 6.629 10.525 M 8.427 12.118 C 7.981 12.839, 8.151 13.550, 8.823 13.774 C 10.463 14.321, 10.300 16, 8.607 16 C 5.563 16, 6.253 18.750, 9.710 20.399 C 11.656 21.327, 13.426 21.907, 13.645 21.688 C 13.864 21.470, 12.955 18.943, 11.625 16.073 C 10.019 12.606, 8.946 11.279, 8.427 12.118" stroke="none" fill="black" fill-rule="evenodd"/>
</svg>