<svg xmlns="http://www.w3.org/2000/svg" width="24" height="24" viewBox="0 0 24 24" version="1.1">
	<path d="M 16.185 1 C 15.737 1, 14.612 2.590, 13.685 4.534 C 12.758 6.478, 12 8.503, 12 9.034 C 12 9.565, 12.367 10, 12.815 10 C 13.263 10, 14.388 8.410, 15.315 6.466 C 16.242 4.522, 17 2.497, 17 1.966 C 17 1.435, 16.633 1, 16.185 1 M 9.034 9 C 8.033 9, 6.951 9.686, 6.629 10.525 C 6.219 11.593, 5.290 11.860, 3.522 11.416 C 2.036 11.043, 1 11.211, 1 11.824 C 1 12.397, 1.900 13.151, 3 13.500 C 4.100 13.849, 5 14.528, 5 15.008 C 5 15.489, 4.550 16.160, 4 16.500 C 3.450 16.840, 3 17.690, 3 18.388 C 3 19.087, 5.216 20.696, 7.925 21.965 C 10.634 23.234, 13.559 24, 14.425 23.667 C 15.291 23.335, 16 22.428, 16 21.652 C 16 20.876, 14.842 17.712, 13.427 14.621 C 11.675 10.795, 10.272 9, 9.034 9 M 11.625 16.073 C 10.019 12.606, 8.946 11.279, 8.427 12.118 C 7.981 12.839, 8.151 13.550, 8.823 13.774 C 9.470 13.990, 10 14.579, 10 15.083 C 10 15.588, 9.373 16, 8.607 16 C 7.841 16, 6.980 16.610, 6.694 17.356 C 6.370 18.199, 7.512 19.351, 9.710 20.399 C 11.656 21.327, 13.426 21.907, 13.645 21.688 C 13.864 21.470, 12.955 18.943, 11.625 16.073" stroke="none" fill="black" fill-rule="evenodd"/>
</svg>