<svg xmlns="http://www.w3.org/2000/svg" width="24" height="24" viewBox="0 0 24 24" version="1.1">
	<path d="M 8.185 1.684 C 5.653 2.697, 4.803 7.051, 6.602 9.797 C 7.513 11.186, 8.537 14.613, 8.879 17.412 C 9.440 22.007, 9.742 22.500, 12 22.500 C 14.338 22.500, 14.519 22.132, 14.797 16.833 C 14.977 13.415, 15.671 10.688, 16.547 9.961 C 18.554 8.295, 18.366 4.641, 16.171 2.655 C 14.394 1.046, 10.855 0.616, 8.185 1.684 M 9.250 3.662 C 7.418 4.402, 7.786 8.163, 9.944 10.750 C 12.203 13.459, 12.594 13.516, 13.354 11.250 C 13.678 10.287, 14.491 8.750, 15.163 7.834 C 17.383 4.804, 13.394 1.990, 9.250 3.662" stroke="none" fill="#000000" fill-rule="evenodd"/>
</svg>