<svg viewBox="0 0 24 24" xmlns="http://www.w3.org/2000/svg" fill="none" stroke="#000000" stroke-width="2" stroke-linecap="round" stroke-linejoin="round"><path d="M18.660 0.066 C 18.471 0.122,18.117 0.469,12.295 6.293 C 6.612 11.978,6.124 12.475,6.065 12.657 C 6.007 12.832,6.000 13.207,6.002 16.017 C 6.003 18.555,6.014 19.210,6.057 19.330 C 6.136 19.551,6.298 19.744,6.511 19.869 C 6.693 19.976,6.724 19.980,7.347 19.993 L 7.993 20.007 8.007 20.657 C 8.020 21.300,8.021 21.309,8.141 21.503 C 8.543 22.156,9.457 22.156,9.859 21.503 L 9.980 21.306 9.991 18.362 L 10.002 15.418 13.500 11.920 L 16.999 8.422 17.709 9.126 C 18.100 9.513,18.483 9.864,18.560 9.904 C 18.660 9.957,18.787 9.979,19.000 9.979 C 19.258 9.980,19.327 9.964,19.492 9.867 C 19.714 9.737,19.901 9.498,19.965 9.264 C 20.019 9.061,19.989 8.733,19.899 8.555 C 19.861 8.481,19.514 8.100,19.126 7.710 L 18.422 6.999 20.127 5.290 C 21.064 4.349,21.865 3.517,21.905 3.440 C 21.957 3.341,21.979 3.212,21.979 3.000 C 21.980 2.746,21.964 2.672,21.873 2.520 C 21.815 2.421,21.266 1.842,20.653 1.234 C 19.610 0.198,19.526 0.125,19.323 0.064 C 19.060 -0.013,18.923 -0.013,18.660 0.066 M19.300 2.720 L 19.578 3.001 13.854 8.730 C 8.853 13.736,8.121 14.483,8.068 14.640 C 8.008 14.816,8.006 14.803,8.003 14.120 L 8.000 13.420 13.490 7.930 C 16.509 4.911,18.989 2.440,19.001 2.440 C 19.013 2.440,19.147 2.566,19.300 2.720 M2.695 20.057 C 2.466 20.129,2.256 20.299,2.128 20.516 C 2.037 20.672,2.020 20.746,2.020 21.000 C 2.020 21.256,2.036 21.328,2.131 21.489 C 2.256 21.702,2.449 21.864,2.670 21.943 C 2.878 22.017,4.122 22.017,4.330 21.943 C 4.551 21.864,4.744 21.702,4.869 21.489 C 4.964 21.328,4.980 21.256,4.980 21.000 C 4.980 20.746,4.963 20.672,4.872 20.516 C 4.740 20.293,4.533 20.128,4.290 20.055 C 4.050 19.983,2.928 19.984,2.695 20.057 " stroke="none" fill-rule="evenodd" fill="black"></path></svg>