<svg xmlns="http://www.w3.org/2000/svg" width="24" height="24" viewBox="0 0 24 24" version="1.1">
	<path d="M 19.099 0 C 18.738 0, 15.643 2.825, 12.221 6.277 C 7.122 11.422, 6 13.148, 6 15.848 C 6 17.660, 6.643 19.786, 7.429 20.571 C 8.214 21.357, 9.114 22, 9.429 22 C 9.743 22, 10 20.513, 10 18.696 C 10 16.265, 10.880 14.539, 13.332 12.163 C 15.715 9.853, 17.188 9.135, 18.505 9.640 C 19.991 10.211, 20.212 9.996, 19.649 8.529 C 19.218 7.406, 19.587 6.009, 20.614 4.874 C 21.970 3.376, 22.044 2.758, 21.016 1.519 C 20.322 0.683, 19.460 0, 19.099 0 M 18.716 3 C 18.560 3, 15.972 5.588, 12.966 8.750 L 7.500 14.500 13.250 9.034 C 16.413 6.028, 19 3.440, 19 3.284 C 19 3.128, 18.872 3, 18.716 3 M 3.500 20 C 2.675 20, 2 20.450, 2 21 C 2 21.550, 2.675 22, 3.500 22 C 4.325 22, 5 21.550, 5 21 C 5 20.450, 4.325 20, 3.500 20" stroke="none" fill="black" fill-rule="evenodd"/>
</svg>