<svg xmlns="http://www.w3.org/2000/svg" width="24" height="24" viewBox="0 0 24 24" version="1.1">
	<path d="M 11.921 1.079 C 10.590 1.122, 8.908 1.395, 8.185 1.684 C 7.462 1.973, 6.438 3.348, 5.909 4.740 C 5.183 6.648, 5.354 7.891, 6.602 9.797 C 7.513 11.186, 8.537 14.613, 8.879 17.412 C 9.440 22.007, 9.742 22.500, 12 22.500 C 14.338 22.500, 14.519 22.132, 14.797 16.833 C 14.977 13.415, 15.671 10.688, 16.547 9.961 C 17.346 9.298, 18 7.755, 18 6.533 C 18 5.310, 17.177 3.565, 16.171 2.655 C 15.165 1.745, 13.253 1.036, 11.921 1.079 M 12.128 3.079 C 11.232 3.122, 9.938 3.385, 9.250 3.662 C 8.563 3.940, 8.015 5.142, 8.033 6.333 C 8.052 7.525, 8.911 9.512, 9.944 10.750 C 10.976 11.988, 12.033 13, 12.294 13 C 12.554 13, 13.031 12.212, 13.354 11.250 C 13.678 10.287, 14.491 8.750, 15.163 7.834 C 16.131 6.513, 16.112 5.840, 15.070 4.584 C 14.347 3.713, 13.023 3.036, 12.128 3.079" stroke="none" fill="black" fill-rule="evenodd"/>
</svg>