<svg xmlns="http://www.w3.org/2000/svg" width="24" height="24" viewBox="0 0 24 24" version="1.1">
	<path d="M 11 3.500 C 11 5.840, 10.674 6, 5.893 6 C 1.434 6, 0.873 6.222, 1.474 7.750 C 1.852 8.713, 2.598 12.167, 3.131 15.427 C 3.664 18.687, 4.330 21.724, 4.609 22.177 C 5.273 23.250, 18.727 23.250, 19.391 22.177 C 19.670 21.724, 20.336 18.687, 20.869 15.427 C 21.402 12.167, 22.148 8.713, 22.526 7.750 C 23.127 6.222, 22.566 6, 18.107 6 C 13.326 6, 13 5.840, 13 3.500 C 13 2.125, 12.550 1, 12 1 C 11.450 1, 11 2.125, 11 3.500 M 5.099 12.750 C 5.529 15.363, 5.908 18.288, 5.940 19.250 C 5.990 20.716, 6.975 21, 12 21 C 17.025 21, 18.010 20.716, 18.060 19.250 C 18.092 18.288, 18.471 15.363, 18.901 12.750 L 19.683 8 12 8 L 4.317 8 5.099 12.750" stroke="none" fill="#000000" fill-rule="evenodd"/>
</svg>