<svg viewBox="0 0 24 24" xmlns="http://www.w3.org/2000/svg" fill="none" stroke="#000000" stroke-width="2" stroke-linecap="round" stroke-linejoin="round"><path d="M11.695 1.057 C 11.466 1.129,11.256 1.299,11.128 1.516 L 11.020 1.700 11.009 3.850 L 10.997 6.000 6.445 6.000 C 2.703 6.000,1.860 6.010,1.710 6.055 C 1.053 6.253,0.793 7.032,1.198 7.591 C 1.360 7.815,1.625 7.963,1.910 7.988 L 2.140 8.009 3.070 14.075 C 3.581 17.411,4.010 20.248,4.025 20.380 C 4.146 21.516,5.007 22.526,6.160 22.886 L 6.460 22.980 12.000 22.980 L 17.540 22.980 17.840 22.886 C 18.993 22.526,19.854 21.516,19.975 20.380 C 19.990 20.248,20.419 17.411,20.930 14.075 L 21.860 8.009 22.090 7.988 C 22.375 7.963,22.640 7.815,22.802 7.591 C 23.207 7.032,22.947 6.253,22.290 6.055 C 22.140 6.010,21.297 6.000,17.555 6.000 L 13.003 6.000 12.991 3.850 L 12.980 1.700 12.872 1.516 C 12.628 1.101,12.150 0.915,11.695 1.057 M19.825 8.070 C 19.814 8.109,19.399 10.804,18.903 14.060 C 18.406 17.316,17.982 20.079,17.960 20.200 C 17.910 20.474,17.751 20.702,17.498 20.860 L 17.306 20.980 12.003 20.980 L 6.700 20.980 6.516 20.872 C 6.218 20.697,6.000 20.339,6.000 20.024 C 6.000 19.911,4.230 8.308,4.179 8.090 L 4.158 8.000 12.002 8.000 C 19.453 8.000,19.844 8.004,19.825 8.070 " stroke="none" fill-rule="evenodd" fill="black"></path></svg>