<svg xmlns="http://www.w3.org/2000/svg" width="24" height="24" viewBox="0 0 24 24" version="1.1">
	<path d="M 1 1.768 C 1 3.205, 21.931 23.402, 22.662 22.671 C 23.063 22.271, 20.439 18.919, 16.833 15.222 C 13.226 11.525, 10.003 7.713, 9.669 6.750 C 9.336 5.787, 8.443 5, 7.686 5 C 6.929 5, 5.495 4.100, 4.500 3 C 2.657 0.964, 1 0.380, 1 1.768 M 14.459 6.067 C 13.286 7.964, 14.996 8.432, 16.738 6.690 C 18.297 5.132, 18.300 5, 16.773 5 C 15.863 5, 14.821 5.480, 14.459 6.067 M 4 11 C 4 12.467, 4.667 13, 6.500 13 C 9.477 13, 9.767 11.481, 7.066 10.035 C 4.377 8.596, 4 8.715, 4 11 M 16.750 10.080 C 14.226 11.550, 14.599 13, 17.500 13 C 19.333 13, 20 12.467, 20 11 C 20 8.771, 19.325 8.580, 16.750 10.080 M 6.131 16.342 C 5.519 17.080, 5.310 17.976, 5.667 18.333 C 6.417 19.084, 9 17.181, 9 15.878 C 9 14.561, 7.393 14.821, 6.131 16.342 M 11 17.500 C 11 18.875, 11.450 20, 12 20 C 12.550 20, 13 18.875, 13 17.500 C 13 16.125, 12.550 15, 12 15 C 11.450 15, 11 16.125, 11 17.500" stroke="none" fill="#000000" fill-rule="evenodd"/>
</svg>