<svg xmlns="http://www.w3.org/2000/svg" width="24" height="24" viewBox="0 0 24 24" version="1.1">
	<path d="M 1.845 1 C 1.380 1, 1 1.346, 1 1.768 C 1 2.190, 5.710 7.230, 11.467 12.967 C 17.224 18.705, 22.262 23.071, 22.662 22.671 C 23.063 22.271, 20.439 18.919, 16.833 15.222 C 13.226 11.525, 10.003 7.713, 9.669 6.750 C 9.336 5.787, 8.443 5, 7.686 5 C 6.929 5, 5.495 4.100, 4.500 3 C 3.505 1.900, 2.310 1, 1.845 1 M 16.773 5 C 15.863 5, 14.821 5.480, 14.459 6.067 C 14.096 6.653, 14.081 7.414, 14.424 7.757 C 14.767 8.100, 15.808 7.620, 16.738 6.690 C 18.297 5.132, 18.300 5, 16.773 5 M 4.566 9 C 4.255 9, 4 9.900, 4 11 C 4 12.467, 4.667 13, 6.500 13 C 7.875 13, 9 12.566, 9 12.035 C 9 11.505, 8.130 10.605, 7.066 10.035 C 6.002 9.466, 4.877 9, 4.566 9 M 19.250 9.030 C 18.837 9.047, 17.712 9.519, 16.750 10.080 C 15.787 10.641, 15 11.527, 15 12.050 C 15 12.572, 16.125 13, 17.500 13 C 19.333 13, 20 12.467, 20 11 C 20 9.900, 19.663 9.014, 19.250 9.030 M 8.122 15 C 7.640 15, 6.744 15.604, 6.131 16.342 C 5.519 17.080, 5.310 17.976, 5.667 18.333 C 6.024 18.690, 6.920 18.481, 7.658 17.869 C 8.396 17.256, 9 16.360, 9 15.878 C 9 15.395, 8.605 15, 8.122 15 M 12 15 C 11.450 15, 11 16.125, 11 17.500 C 11 18.875, 11.450 20, 12 20 C 12.550 20, 13 18.875, 13 17.500 C 13 16.125, 12.550 15, 12 15" stroke="none" fill="black" fill-rule="evenodd"/>
</svg>