<svg xmlns="http://www.w3.org/2000/svg" width="24" height="24" viewBox="0 0 24 24" version="1.1">
	<path d="M 11 3.031 C 11 4.149, 10.342 5.315, 9.538 5.624 C 8.734 5.932, 7.802 7.050, 7.466 8.107 C 7.131 9.164, 6.388 9.740, 5.816 9.386 C 5.244 9.033, 4.384 9.364, 3.904 10.122 C 2.548 12.262, 2.829 13, 5 13 C 7.328 13, 7.703 15.516, 5.500 16.362 C 4.675 16.678, 4 17.449, 4 18.076 C 4 18.702, 4.708 18.942, 5.574 18.610 C 6.440 18.278, 7.822 18.679, 8.646 19.503 C 10.560 21.417, 13.440 21.417, 15.354 19.503 C 16.178 18.679, 17.560 18.278, 18.426 18.610 C 19.292 18.942, 20 18.702, 20 18.076 C 20 17.449, 19.325 16.678, 18.500 16.362 C 16.297 15.516, 16.672 13, 19 13 C 21.171 13, 21.452 12.262, 20.096 10.122 C 19.616 9.364, 18.756 9.033, 18.184 9.386 C 17.612 9.740, 16.869 9.164, 16.534 8.107 C 16.198 7.050, 15.266 5.932, 14.462 5.624 C 13.658 5.315, 13 4.149, 13 3.031 C 13 1.914, 12.550 1, 12 1 C 11.450 1, 11 1.914, 11 3.031 M 10.200 8.200 C 8.749 9.651, 8.599 16.634, 10 17.500 C 10.595 17.868, 11 16.677, 11 14.559 C 11 12.602, 11.450 11, 12 11 C 12.550 11, 13 12.602, 13 14.559 C 13 16.677, 13.405 17.868, 14 17.500 C 16.336 16.056, 14.611 7, 12 7 C 11.670 7, 10.860 7.540, 10.200 8.200" stroke="none" fill="#000000" fill-rule="evenodd"/>
</svg>