<svg xmlns="http://www.w3.org/2000/svg" width="24" height="24" viewBox="0 0 24 24" version="1.1">
	<path d="M 5.709 1.624 C 5.319 2.014, 5 4.231, 5 6.550 C 5 9.963, 4.608 10.869, 2.945 11.304 C 1.144 11.775, 0.928 12.500, 1.195 17.171 L 1.500 22.500 12 22.500 L 22.500 22.500 22.798 15.669 C 23.064 9.554, 22.886 8.783, 21.103 8.317 C 19.744 7.961, 19.014 6.796, 18.806 4.648 C 18.503 1.536, 18.431 1.497, 12.459 1.208 C 9.136 1.047, 6.099 1.234, 5.709 1.624 M 7 12 L 7 21 12 21 L 17 21 17 12 L 17 3 12 3 L 7 3 7 12 M 9 6 C 9 6.550, 10.350 7, 12 7 C 13.650 7, 15 6.550, 15 6 C 15 5.450, 13.650 5, 12 5 C 10.350 5, 9 5.450, 9 6 M 9 10 C 9 10.550, 10.350 11, 12 11 C 13.650 11, 15 10.550, 15 10 C 15 9.450, 13.650 9, 12 9 C 10.350 9, 9 9.450, 9 10 M 19 15.500 C 19 18.525, 19.450 21, 20 21 C 20.550 21, 21 18.525, 21 15.500 C 21 12.475, 20.550 10, 20 10 C 19.450 10, 19 12.475, 19 15.500 M 3 17 C 3 19.200, 3.450 21, 4 21 C 4.550 21, 5 19.200, 5 17 C 5 14.800, 4.550 13, 4 13 C 3.450 13, 3 14.800, 3 17 M 9 14 C 9 14.550, 10.350 15, 12 15 C 13.650 15, 15 14.550, 15 14 C 15 13.450, 13.650 13, 12 13 C 10.350 13, 9 13.450, 9 14 M 9 18 C 9 18.550, 10.350 19, 12 19 C 13.650 19, 15 18.550, 15 18 C 15 17.450, 13.650 17, 12 17 C 10.350 17, 9 17.450, 9 18" stroke="none" fill="#000000" fill-rule="evenodd"/>
</svg>