<svg xmlns="http://www.w3.org/2000/svg" width="24" height="24" viewBox="0 0 24 24" version="1.1">
	<path d="M 3.444 2.284 C 3.156 3.035, 3.051 7.891, 3.210 13.075 L 3.500 22.500 12 22.500 L 20.500 22.500 20.500 12 L 20.500 1.500 12.234 1.209 C 5.965 0.989, 3.842 1.248, 3.444 2.284 M 5 12 C 5 19.333, 5.278 21, 6.500 21 C 7.333 21, 8 20.111, 8 19 C 8 17.333, 8.667 17, 12 17 C 15.333 17, 16 17.333, 16 19 C 16 20.111, 16.667 21, 17.500 21 C 18.722 21, 19 19.333, 19 12 L 19 3 12 3 L 5 3 5 12 M 7 6 C 7 6.550, 7.450 7, 8 7 C 8.550 7, 9 6.550, 9 6 C 9 5.450, 8.550 5, 8 5 C 7.450 5, 7 5.450, 7 6 M 15 6 C 15 6.550, 15.450 7, 16 7 C 16.550 7, 17 6.550, 17 6 C 17 5.450, 16.550 5, 16 5 C 15.450 5, 15 5.450, 15 6 M 7 10 C 7 10.550, 7.450 11, 8 11 C 8.550 11, 9 10.550, 9 10 C 9 9.450, 8.550 9, 8 9 C 7.450 9, 7 9.450, 7 10 M 15 10 C 15 10.550, 15.450 11, 16 11 C 16.550 11, 17 10.550, 17 10 C 17 9.450, 16.550 9, 16 9 C 15.450 9, 15 9.450, 15 10 M 7 14 C 7 14.550, 7.450 15, 8 15 C 8.550 15, 9 14.550, 9 14 C 9 13.450, 8.550 13, 8 13 C 7.450 13, 7 13.450, 7 14 M 15 14 C 15 14.550, 15.450 15, 16 15 C 16.550 15, 17 14.550, 17 14 C 17 13.450, 16.550 13, 16 13 C 15.450 13, 15 13.450, 15 14 M 10 20 C 10 20.550, 10.900 21, 12 21 C 13.100 21, 14 20.550, 14 20 C 14 19.450, 13.100 19, 12 19 C 10.900 19, 10 19.450, 10 20" stroke="none" fill="black" fill-rule="evenodd"/>
</svg>