<svg xmlns="http://www.w3.org/2000/svg" width="24" height="24" viewBox="0 0 24 24" version="1.1">
	<path d="M 12 3 C 9.834 3, 7.913 3.933, 5.867 5.979 C 3.264 8.582, 2.927 9.559, 3.194 13.729 L 3.500 18.500 12 18.500 L 20.500 18.500 20.806 13.729 C 21.073 9.559, 20.736 8.582, 18.133 5.979 C 16.087 3.933, 14.166 3, 12 3 M 12 5 C 10.850 5, 8.692 6.237, 7.205 7.750 L 4.500 10.500 8.250 10.810 C 10.312 10.981, 13.687 10.981, 15.750 10.810 L 19.500 10.500 16.795 7.750 C 15.308 6.237, 13.150 5, 12 5 M 12 13 C 8 13, 5 13.429, 5 14 C 5 14.571, 8 15, 12 15 C 16 15, 19 14.571, 19 14 C 19 13.429, 16 13, 12 13" stroke="none" fill="black" fill-rule="evenodd"/>
</svg>