<svg viewBox="0 0 24 24" xmlns="http://www.w3.org/2000/svg" fill="none" stroke="#000000" stroke-width="2" stroke-linecap="round" stroke-linejoin="round"><path d="M11.340 3.024 C 10.432 3.118,9.865 3.233,9.160 3.466 C 7.260 4.094,5.614 5.359,4.468 7.073 C 4.128 7.581,3.667 8.541,3.461 9.169 C 3.147 10.127,2.963 11.299,3.018 11.993 C 3.033 12.184,3.040 12.412,3.033 12.500 C 3.024 12.629,3.020 14.560,3.027 15.560 C 3.028 15.681,3.028 15.951,3.027 16.160 C 3.023 17.362,3.910 18.496,5.160 18.886 L 5.460 18.980 12.000 18.980 L 18.540 18.980 18.840 18.886 C 20.090 18.496,20.977 17.363,20.973 16.160 C 20.971 15.628,20.971 15.524,20.974 14.030 C 20.976 13.298,20.972 12.619,20.965 12.520 C 20.959 12.421,20.966 12.184,20.981 11.993 C 21.038 11.300,20.854 10.127,20.538 9.169 C 19.485 5.966,16.680 3.608,13.320 3.101 C 12.911 3.039,11.662 2.991,11.340 3.024 M13.102 5.098 C 15.581 5.473,17.715 7.237,18.573 9.620 C 18.719 10.025,18.851 10.520,18.896 10.830 L 18.921 11.000 12.000 11.000 L 5.079 11.000 5.104 10.830 C 5.150 10.512,5.319 9.891,5.456 9.531 C 6.187 7.615,7.709 6.115,9.620 5.427 C 10.250 5.200,10.715 5.102,11.540 5.023 C 11.813 4.997,12.726 5.041,13.102 5.098 M19.000 14.000 L 19.000 15.000 12.000 15.000 L 5.000 15.000 5.000 14.000 L 5.000 13.000 12.000 13.000 L 19.000 13.000 19.000 14.000 " stroke="none" fill-rule="evenodd" fill="black"></path></svg>