<svg xmlns="http://www.w3.org/2000/svg" width="24" height="24" viewBox="0 0 24 24" version="1.1">
	<path d="M 3.714 3.619 C 2.329 5.004, 2.943 12.041, 4.500 12.638 C 5.551 13.042, 6 14.680, 6 18.107 C 6 20.798, 6.450 23, 7 23 C 7.550 23, 8 20.798, 8 18.107 C 8 14.599, 8.441 13.045, 9.558 12.616 C 10.705 12.176, 11.035 10.895, 10.808 7.759 C 10.524 3.828, 10.267 3.477, 7.464 3.203 C 5.794 3.039, 4.107 3.227, 3.714 3.619 M 5 8 C 5 10.333, 5.444 11, 7 11 C 8.556 11, 9 10.333, 9 8 C 9 5.667, 8.556 5, 7 5 C 5.444 5, 5 5.667, 5 8 M 13.389 6.430 C 12.393 9.025, 13.788 11.169, 16.246 10.820 C 19.450 10.365, 19.450 5.635, 16.246 5.180 C 14.893 4.988, 13.750 5.488, 13.389 6.430 M 15 8 C 15 8.550, 15.450 9, 16 9 C 16.550 9, 17 8.550, 17 8 C 17 7.450, 16.550 7, 16 7 C 15.450 7, 15 7.450, 15 8 M 13 16 C 13 16.550, 14.800 17, 17 17 C 19.200 17, 21 16.550, 21 16 C 21 15.450, 19.200 15, 17 15 C 14.800 15, 13 15.450, 13 16 M 13 20 C 13 20.550, 14.575 21, 16.500 21 C 18.425 21, 20 20.550, 20 20 C 20 19.450, 18.425 19, 16.500 19 C 14.575 19, 13 19.450, 13 20" stroke="none" fill="#000000" fill-rule="evenodd"/>
</svg>