<svg viewBox="0 0 24 24" xmlns="http://www.w3.org/2000/svg" fill="none" stroke="#000000" stroke-width="2" stroke-linecap="round" stroke-linejoin="round"><path d="M4.477 3.073 C 3.806 3.249,3.238 3.823,3.060 4.508 C 2.971 4.850,2.971 11.150,3.060 11.492 C 3.153 11.852,3.310 12.118,3.596 12.404 C 4.073 12.881,4.426 13.000,5.368 13.000 L 5.999 13.000 6.009 17.653 L 6.020 22.306 6.141 22.503 C 6.209 22.613,6.346 22.756,6.452 22.828 C 6.923 23.144,7.554 22.999,7.859 22.503 L 7.980 22.306 7.991 17.653 L 8.001 13.000 8.632 13.000 C 9.321 13.000,9.572 12.956,9.930 12.775 C 10.196 12.640,10.638 12.200,10.771 11.937 C 11.003 11.479,11.000 11.537,10.999 8.014 C 10.999 4.515,10.999 4.511,10.781 4.083 C 10.646 3.816,10.297 3.449,10.017 3.281 C 9.564 3.008,9.524 3.005,7.000 3.005 C 4.992 3.005,4.711 3.012,4.477 3.073 M9.000 8.000 L 9.000 11.000 7.000 11.000 L 5.000 11.000 5.000 8.000 L 5.000 5.000 7.000 5.000 L 9.000 5.000 9.000 8.000 M15.499 5.040 C 14.363 5.246,13.460 6.049,13.114 7.160 C 12.979 7.594,12.979 8.406,13.114 8.840 C 13.421 9.826,14.174 10.579,15.160 10.886 C 15.594 11.021,16.406 11.021,16.840 10.886 C 17.826 10.579,18.579 9.826,18.886 8.840 C 19.021 8.406,19.021 7.594,18.886 7.160 C 18.581 6.179,17.810 5.407,16.861 5.129 C 16.500 5.023,15.832 4.980,15.499 5.040 M16.310 7.061 C 16.688 7.173,17.000 7.598,17.000 8.001 C 17.000 8.331,16.784 8.696,16.484 8.872 C 16.328 8.963,16.254 8.980,16.000 8.980 C 15.746 8.980,15.672 8.963,15.516 8.872 C 14.932 8.528,14.831 7.775,15.307 7.299 C 15.582 7.024,15.918 6.944,16.310 7.061 M13.695 15.057 C 13.466 15.129,13.256 15.299,13.128 15.516 C 13.037 15.672,13.020 15.746,13.020 16.000 C 13.020 16.256,13.036 16.328,13.131 16.489 C 13.256 16.702,13.449 16.864,13.670 16.943 C 13.891 17.022,20.109 17.022,20.330 16.943 C 20.551 16.864,20.744 16.702,20.869 16.489 C 20.964 16.328,20.980 16.256,20.980 16.000 C 20.980 15.746,20.963 15.672,20.872 15.516 C 20.740 15.293,20.533 15.128,20.290 15.055 C 20.030 14.977,13.945 14.979,13.695 15.057 M13.695 19.057 C 13.466 19.129,13.256 19.299,13.128 19.516 C 13.037 19.672,13.020 19.746,13.020 20.000 C 13.020 20.256,13.036 20.328,13.131 20.489 C 13.256 20.702,13.449 20.864,13.670 20.943 C 13.890 21.021,19.110 21.021,19.330 20.943 C 19.551 20.864,19.744 20.702,19.869 20.489 C 19.964 20.328,19.980 20.256,19.980 20.000 C 19.980 19.746,19.963 19.672,19.872 19.516 C 19.740 19.293,19.533 19.128,19.290 19.055 C 19.031 18.977,13.944 18.979,13.695 19.057 " stroke="none" fill-rule="evenodd" fill="black"></path></svg>