<svg xmlns="http://www.w3.org/2000/svg" width="24" height="24" viewBox="0 0 24 24" version="1.1">
	<path d="M 12.452 5.215 C 7.475 5.058, 3.087 5.246, 2.702 5.632 C 2.316 6.018, 2 9.094, 2 12.467 C 2 15.841, 2.563 19.812, 3.250 21.293 C 3.938 22.773, 4.838 23.988, 5.250 23.992 C 5.662 23.996, 6 23.325, 6 22.500 C 6 21.333, 7.333 21, 12 21 C 16.667 21, 18 21.333, 18 22.500 C 18 23.325, 18.340 24, 18.756 24 C 19.172 24, 20.094 22.685, 20.806 21.077 C 21.556 19.383, 21.973 15.495, 21.800 11.827 L 21.500 5.500 12.452 5.215 M 12 7 C 5.556 7, 4 7.292, 4 8.500 C 4 9.708, 5.556 10, 12 10 C 18.444 10, 20 9.708, 20 8.500 C 20 7.292, 18.444 7, 12 7 M 12 12 C 4.667 12, 4 12.167, 4 14 C 4 15.833, 4.667 16, 12 16 C 19.333 16, 20 15.833, 20 14 C 20 12.167, 19.333 12, 12 12 M 12 18.349 C 7.325 18.349, 5.412 18.522, 7.750 18.732 C 10.087 18.943, 13.912 18.943, 16.250 18.732 C 18.587 18.522, 16.675 18.349, 12 18.349" stroke="none" fill="black" fill-rule="evenodd"/>
</svg>