<svg xmlns="http://www.w3.org/2000/svg" width="24" height="24" viewBox="0 0 24 24" version="1.1">
	<path d="M 12.459 2.208 C 11.336 2.047, 10.099 2.235, 9.709 2.624 C 9.319 3.014, 9 4.833, 9 6.667 C 9 8.500, 8.550 10, 8 10 C 7.450 10, 7 9.550, 7 9 C 7 8.450, 6.550 8, 6 8 C 5.450 8, 5 10.489, 5 13.531 C 5 17.887, 5.372 19.200, 6.750 19.708 C 7.713 20.064, 8.838 20.837, 9.250 21.427 C 9.755 22.149, 10.327 22.010, 11 21 C 11.889 19.667, 12.111 19.667, 13 21 C 13.673 22.010, 14.245 22.149, 14.750 21.427 C 15.162 20.837, 16.288 20.064, 17.250 19.708 C 18.571 19.221, 19 17.930, 19 14.438 C 19 10.698, 18.628 9.715, 17.056 9.304 C 15.747 8.962, 15.012 7.767, 14.806 5.648 C 14.584 3.367, 13.938 2.419, 12.459 2.208 M 12 4 C 11.429 4, 11 7, 11 11 C 11 15, 11.429 18, 12 18 C 12.571 18, 13 15, 13 11 C 13 7, 12.571 4, 12 4 M 16 11 C 15.450 11, 15 12.575, 15 14.500 C 15 16.425, 15.450 18, 16 18 C 16.550 18, 17 16.425, 17 14.500 C 17 12.575, 16.550 11, 16 11 M 8 12 C 7.450 12, 7 13.350, 7 15 C 7 16.650, 7.450 18, 8 18 C 8.550 18, 9 16.650, 9 15 C 9 13.350, 8.550 12, 8 12" stroke="none" fill="black" fill-rule="evenodd"/>
</svg>