<svg xmlns="http://www.w3.org/2000/svg" width="24" height="24" viewBox="0 0 24 24" version="1.1">
	<path d="M 11 5.883 C 11 9.926, 10.656 10.857, 9 11.290 C 7.409 11.706, 7 11.320, 7 9.406 C 7 8.083, 6.550 7, 6 7 C 4.695 7, 4.695 15.694, 6 16.500 C 6.550 16.840, 7 17.991, 7 19.059 C 7 20.127, 7.450 21, 8 21 C 8.550 21, 9 19.200, 9 17 C 9 14.800, 9.450 13, 10 13 C 10.550 13, 11 15.250, 11 18 C 11 20.750, 11.450 23, 12 23 C 12.606 23, 13 18.667, 13 12 C 13 5.333, 12.606 1, 12 1 C 11.450 1, 11 3.198, 11 5.883 M 17 12.917 C 17 13.971, 16.438 15.034, 15.750 15.280 C 15.063 15.525, 14.818 16.068, 15.207 16.487 C 15.596 16.905, 16.608 16.981, 17.457 16.655 C 19.141 16.009, 19.622 11, 18 11 C 17.450 11, 17 11.863, 17 12.917" stroke="none" fill="#000000" fill-rule="evenodd"/>
</svg>