<svg xmlns="http://www.w3.org/2000/svg" width="24" height="24" viewBox="0 0 24 24" version="1.1">
	<path d="M 4.446 2.281 C 4.157 3.034, 4.051 7.891, 4.210 13.075 L 4.500 22.500 12 22.500 L 19.500 22.500 19.500 12 L 19.500 1.500 12.236 1.206 C 6.800 0.986, 4.839 1.257, 4.446 2.281 M 6 12 L 6 21 12 21 L 18 21 18 12 L 18 3 12 3 L 6 3 6 12 M 7 6 C 7 6.550, 9.250 7, 12 7 C 14.750 7, 17 6.550, 17 6 C 17 5.450, 14.750 5, 12 5 C 9.250 5, 7 5.450, 7 6 M 7 10 C 7 10.550, 7.450 11, 8 11 C 8.550 11, 9 10.550, 9 10 C 9 9.450, 8.550 9, 8 9 C 7.450 9, 7 9.450, 7 10 M 11 10 C 11 10.550, 11.450 11, 12 11 C 12.550 11, 13 10.550, 13 10 C 13 9.450, 12.550 9, 12 9 C 11.450 9, 11 9.450, 11 10 M 15 10 C 15 10.550, 15.450 11, 16 11 C 16.550 11, 17 10.550, 17 10 C 17 9.450, 16.550 9, 16 9 C 15.450 9, 15 9.450, 15 10 M 7 14 C 7 14.550, 7.450 15, 8 15 C 8.550 15, 9 14.550, 9 14 C 9 13.450, 8.550 13, 8 13 C 7.450 13, 7 13.450, 7 14 M 11 14 C 11 14.550, 11.450 15, 12 15 C 12.550 15, 13 14.550, 13 14 C 13 13.450, 12.550 13, 12 13 C 11.450 13, 11 13.450, 11 14 M 15 14 C 15 14.550, 15.450 15, 16 15 C 16.550 15, 17 14.550, 17 14 C 17 13.450, 16.550 13, 16 13 C 15.450 13, 15 13.450, 15 14 M 7 18 C 7 18.550, 7.450 19, 8 19 C 8.550 19, 9 18.550, 9 18 C 9 17.450, 8.550 17, 8 17 C 7.450 17, 7 17.450, 7 18 M 11 18 C 11 18.550, 11.450 19, 12 19 C 12.550 19, 13 18.550, 13 18 C 13 17.450, 12.550 17, 12 17 C 11.450 17, 11 17.450, 11 18 M 15 18 C 15 18.550, 15.450 19, 16 19 C 16.550 19, 17 18.550, 17 18 C 17 17.450, 16.550 17, 16 17 C 15.450 17, 15 17.450, 15 18" stroke="none" fill="black" fill-rule="evenodd"/>
</svg>