<svg xmlns="http://www.w3.org/2000/svg" width="24" height="24" viewBox="0 0 24 24" version="1.1">
	<path d="M 7 1.930 C 7 2.442, 5.988 3.005, 4.750 3.180 C 2.597 3.486, 2.500 3.909, 2.500 13 L 2.500 22.500 12 22.500 L 21.500 22.500 21.500 13.014 C 21.500 4.321, 21.333 3.496, 19.500 3.148 C 18.400 2.939, 17.128 2.258, 16.674 1.634 C 16.069 0.803, 15.712 0.834, 15.341 1.750 C 14.741 3.228, 9 3.455, 9 2 C 9 1.450, 8.550 1, 8 1 C 7.450 1, 7 1.419, 7 1.930 M 4 7 C 4 8.833, 4.667 9, 12 9 C 19.333 9, 20 8.833, 20 7 C 20 4.804, 17.513 4.258, 16.583 6.250 C 16.117 7.250, 15.883 7.250, 15.417 6.250 C 15.096 5.563, 13.558 5, 12 5 C 10.442 5, 8.904 5.563, 8.583 6.250 C 8.117 7.250, 7.883 7.250, 7.417 6.250 C 6.487 4.258, 4 4.804, 4 7 M 4 16 L 4 21 12 21 L 20 21 20 16 L 20 11 12 11 L 4 11 4 16" stroke="none" fill="#000000" fill-rule="evenodd"/>
</svg>