<svg xmlns="http://www.w3.org/2000/svg" width="24" height="24" viewBox="0 0 24 24" version="1.1">
	<path d="M 8 1 C 7.450 1, 7 1.419, 7 1.930 C 7 2.442, 5.988 3.005, 4.750 3.180 C 2.597 3.486, 2.500 3.909, 2.500 13 L 2.500 22.500 12 22.500 L 21.500 22.500 21.500 13.014 C 21.500 4.321, 21.333 3.496, 19.500 3.148 C 18.400 2.939, 17.128 2.258, 16.674 1.634 C 16.069 0.803, 15.712 0.834, 15.341 1.750 C 15.062 2.438, 13.521 3, 11.917 3 C 10.313 3, 9 2.550, 9 2 C 9 1.450, 8.550 1, 8 1 M 5.417 5 C 4.638 5, 4 5.900, 4 7 C 4 8.833, 4.667 9, 12 9 C 19.333 9, 20 8.833, 20 7 C 20 5.900, 19.363 5, 18.583 5 C 17.804 5, 16.904 5.562, 16.583 6.250 C 16.117 7.250, 15.883 7.250, 15.417 6.250 C 15.096 5.563, 13.558 5, 12 5 C 10.442 5, 8.904 5.563, 8.583 6.250 C 8.117 7.250, 7.883 7.250, 7.417 6.250 C 7.096 5.563, 6.196 5, 5.417 5 M 12 11 L 4 11 4 16 L 4 21 12 21 L 20 21 20 16 L 20 11 12 11" stroke="none" fill="black" fill-rule="evenodd"/>
</svg>