<svg xmlns="http://www.w3.org/2000/svg" width="24" height="24" viewBox="0 0 24 24" version="1.1">
	<path d="M 0 0.729 C 0 1.130, 3.703 5.180, 8.228 9.729 L 16.456 18 9.728 18 L 3 18 3 12 C 3 8.492, 2.566 6, 1.954 6 C 1.301 6, 1.020 8.532, 1.204 12.750 L 1.500 19.500 10.129 19.787 C 17.202 20.023, 19.078 20.428, 20.534 22.037 C 21.511 23.117, 22.690 24, 23.155 24 C 25.010 24, 23.767 22.026, 19 17.401 C 13.952 12.504, 13.205 10.735, 15.034 8 C 15.908 6.692, 16.168 6.724, 17.068 8.250 C 17.635 9.213, 18.977 10, 20.050 10 C 21.723 10, 22 10.709, 22 15 C 22 17.825, 22.457 20, 23.050 20 C 23.696 20, 23.984 17.792, 23.800 14.260 C 23.548 9.437, 23.180 8.460, 21.500 8.148 C 20.400 7.944, 19.140 7.152, 18.700 6.389 C 18.260 5.625, 17.093 5, 16.105 5 C 15.118 5, 13.471 4.072, 12.445 2.939 C 11.076 1.427, 9.581 0.950, 6.832 1.148 C 4.771 1.297, 2.766 1.099, 2.376 0.709 C 1.452 -0.215, 0 -0.203, 0 0.729 M 7.986 6.462 C 9.923 8.473, 11.644 9.568, 11.858 8.926 C 12.070 8.289, 11.715 7.442, 11.069 7.043 C 10.423 6.643, 10.031 5.683, 10.197 4.908 C 10.394 3.993, 9.449 3.385, 7.500 3.171 L 4.500 2.842 7.986 6.462" stroke="none" fill="#000000" fill-rule="evenodd"/>
</svg>