<svg xmlns="http://www.w3.org/2000/svg" width="24" height="24" viewBox="0 0 24 24" version="1.1">
	<path d="M 12 2 C 9.683 2, 7.775 2.574, 7.300 3.413 C 6.860 4.191, 5.150 4.978, 3.500 5.163 L 0.500 5.500 0.500 13.500 L 0.500 21.500 11.355 21.785 C 18.502 21.972, 22.687 21.674, 23.605 20.912 C 24.561 20.119, 25 17.497, 25 12.582 L 25 5.409 21.263 5.157 C 19.208 5.019, 17.161 4.252, 16.714 3.453 C 16.219 2.570, 14.371 2, 12 2 M 12 4 C 10.446 4, 8.959 4.663, 8.638 5.500 C 8.302 6.377, 6.803 7, 5.031 7 L 2 7 2 13.500 L 2 20 12 20 L 22 20 22 13.500 L 22 7 18.969 7 C 17.197 7, 15.698 6.377, 15.362 5.500 C 15.041 4.663, 13.554 4, 12 4 M 0.727 9.224 C 0.512 7.176, 0.339 9.100, 0.343 13.500 C 0.346 17.900, 0.522 19.576, 0.733 17.224 C 0.945 14.872, 0.942 11.272, 0.727 9.224 M 12 8 C 10.979 8, 9.436 8.707, 8.571 9.571 C 7.707 10.436, 7 11.979, 7 13 C 7 14.021, 7.707 15.564, 8.571 16.429 C 9.436 17.293, 10.979 18, 12 18 C 13.021 18, 14.564 17.293, 15.429 16.429 C 16.293 15.564, 17 14.021, 17 13 C 17 11.979, 16.293 10.436, 15.429 9.571 C 14.564 8.707, 13.021 8, 12 8 M 12 10 C 11.585 10, 10.666 10.698, 9.958 11.550 C 8.896 12.831, 8.961 13.390, 10.336 14.764 C 11.888 16.317, 12.112 16.317, 13.664 14.764 C 15.039 13.390, 15.104 12.831, 14.042 11.550 C 13.334 10.698, 12.415 10, 12 10" stroke="none" fill="black" fill-rule="evenodd"/>
</svg>