<svg xmlns="http://www.w3.org/2000/svg" width="24" height="24" viewBox="0 0 24 24" version="1.1">
	<path d="M 7.300 3.413 C 6.860 4.191, 5.150 4.978, 3.500 5.163 L 0.500 5.500 0.500 13.500 L 0.500 21.500 11.355 21.785 C 18.502 21.972, 22.687 21.674, 23.605 20.912 C 24.561 20.119, 25 17.497, 25 12.582 L 25 5.409 21.263 5.157 C 19.208 5.019, 17.161 4.252, 16.714 3.453 C 15.642 1.539, 8.378 1.508, 7.300 3.413 M 8.638 5.500 C 8.302 6.377, 6.803 7, 5.031 7 L 2 7 2 13.500 L 2 20 12 20 L 22 20 22 13.500 L 22 7 18.969 7 C 17.197 7, 15.698 6.377, 15.362 5.500 C 14.611 3.544, 9.389 3.544, 8.638 5.500 M 0.343 13.500 C 0.346 17.900, 0.522 19.576, 0.733 17.224 C 0.945 14.872, 0.942 11.272, 0.727 9.224 C 0.512 7.176, 0.339 9.100, 0.343 13.500 M 8.571 9.571 C 5.539 12.604, 7.734 18, 12 18 C 14.386 18, 17 15.386, 17 13 C 17 10.614, 14.386 8, 12 8 C 10.979 8, 9.436 8.707, 8.571 9.571 M 9.958 11.550 C 8.896 12.831, 8.961 13.390, 10.336 14.764 C 11.888 16.317, 12.112 16.317, 13.664 14.764 C 15.039 13.390, 15.104 12.831, 14.042 11.550 C 12.423 9.600, 11.577 9.600, 9.958 11.550" stroke="none" fill="#000000" fill-rule="evenodd"/>
</svg>