<svg xmlns="http://www.w3.org/2000/svg" width="24" height="24" viewBox="0 0 24 24" version="1.1">
	<path d="M 6.750 3.068 C 3.058 5.017, 3 5.140, 3 11.004 C 3 16.922, 3.025 16.972, 6.908 18.953 C 9.057 20.049, 11.082 21.521, 11.408 22.223 C 11.888 23.259, 12.112 23.259, 12.592 22.223 C 12.918 21.521, 14.943 20.049, 17.092 18.953 C 20.976 16.972, 21 16.922, 21 11 C 21 5.064, 20.984 5.033, 17.040 3.020 C 12.218 0.560, 11.494 0.564, 6.750 3.068 M 7.750 5.572 C 5.467 6.810, 5 7.734, 5 11.006 C 5 14.375, 5.436 15.174, 8 16.500 L 11 18.051 11 11.026 C 11 7.162, 10.887 4.018, 10.750 4.040 C 10.613 4.062, 9.262 4.751, 7.750 5.572 M 13 11 L 13 18.051 16 16.500 C 18.565 15.174, 19 14.376, 19 11 C 19 7.624, 18.565 6.826, 16 5.500 L 13 3.949 13 11" stroke="none" fill="black" fill-rule="evenodd"/>
</svg>