<svg viewBox="0 0 24 24" xmlns="http://www.w3.org/2000/svg" fill="none" stroke="#000000" stroke-width="2" stroke-linecap="round" stroke-linejoin="round"><path d="M7.591 3.085 C 4.229 4.765,3.392 5.199,3.275 5.321 C 2.983 5.627,3.000 5.266,3.000 11.000 C 3.000 16.783,2.979 16.384,3.298 16.697 C 3.432 16.828,4.200 17.227,7.229 18.738 L 10.994 20.617 11.007 21.462 L 11.020 22.307 11.141 22.503 C 11.209 22.613,11.346 22.756,11.452 22.828 C 11.923 23.144,12.554 22.999,12.859 22.503 L 12.980 22.307 12.993 21.462 L 13.006 20.617 16.771 18.738 C 19.800 17.227,20.568 16.828,20.702 16.697 C 21.021 16.384,21.000 16.783,21.000 11.000 C 21.000 5.266,21.017 5.627,20.725 5.321 C 20.608 5.199,19.771 4.765,16.409 3.085 C 12.300 1.031,12.235 1.000,12.000 1.000 C 11.765 1.000,11.700 1.031,7.591 3.085 M11.000 11.000 C 11.000 15.048,10.991 18.360,10.980 18.360 C 10.969 18.360,9.619 17.690,7.980 16.870 L 5.000 15.380 5.000 11.000 L 5.000 6.620 7.970 5.132 C 9.604 4.314,10.954 3.643,10.970 3.642 C 10.987 3.641,11.000 6.952,11.000 11.000 M16.020 5.130 L 19.000 6.620 19.000 11.000 L 19.000 15.380 16.020 16.870 C 14.381 17.690,13.031 18.360,13.020 18.360 C 13.009 18.360,13.000 15.048,13.000 11.000 C 13.000 6.952,13.009 3.640,13.020 3.640 C 13.031 3.640,14.381 4.310,16.020 5.130 " stroke="none" fill-rule="evenodd" fill="black"></path></svg>