<svg xmlns="http://www.w3.org/2000/svg" width="24" height="24" viewBox="0 0 24 24" version="1.1">
	<path d="M 3.161 7.547 C 2.522 8.948, 2 11.797, 2 13.878 C 2 16.891, 2.510 17.935, 4.500 19 C 6.588 20.117, 7.412 20.117, 9.500 19 C 11.561 17.897, 12.427 17.891, 14.433 18.964 C 18.759 21.280, 21.368 18.644, 19.111 14.236 C 18.622 13.281, 17.395 10.813, 16.383 8.750 C 14.616 5.145, 14.347 5, 9.433 5 C 4.925 5, 4.184 5.301, 3.161 7.547 M 5.035 8.934 C 4.466 9.998, 4 11.736, 4 12.796 C 4 14.287, 4.539 14.620, 6.383 14.267 C 7.693 14.017, 9.070 14.304, 9.442 14.906 C 10.399 16.454, 13.537 16.263, 14.940 14.572 C 15.865 13.458, 15.776 12.468, 14.537 10.072 C 13.231 7.546, 12.337 7, 9.510 7 C 7.133 7, 5.751 7.598, 5.035 8.934 M 6 17 C 6 17.550, 6.450 18, 7 18 C 7.550 18, 8 17.550, 8 17 C 8 16.450, 7.550 16, 7 16 C 6.450 16, 6 16.450, 6 17" stroke="none" fill="black" fill-rule="evenodd"/>
</svg>