<svg xmlns="http://www.w3.org/2000/svg" width="24" height="24" viewBox="0 0 24 24" version="1.1">
	<path d="M 13 4.015 C 11.667 4.891, 11.667 5.109, 13 5.985 C 14.189 6.765, 13.966 6.973, 11.924 6.985 C 9.417 7, 5.866 9.972, 4.740 13 C 4.433 13.825, 3.470 16.163, 2.600 18.197 C 1.730 20.230, 1.396 22.127, 1.858 22.412 C 2.321 22.698, 5.916 21.390, 9.849 19.505 C 16.466 16.334, 17 15.844, 17 12.945 C 17 10.654, 17.537 9.672, 19 9.290 C 21.481 8.641, 21.505 7.889, 19.133 5.153 C 17.102 2.812, 15.333 2.484, 13 4.015 M 9.114 10.363 C 8.291 11.355, 8.239 12.030, 8.951 12.470 C 10.561 13.465, 10.195 15.289, 8.515 14.644 C 7.105 14.103, 4.273 17.607, 5.295 18.629 C 6.314 19.647, 12.991 15.559, 12.751 14.064 C 12.613 13.204, 13.098 12.624, 13.828 12.776 C 14.626 12.942, 15.022 12.343, 14.818 11.276 C 14.389 9.027, 10.711 8.438, 9.114 10.363" stroke="none" fill="black" fill-rule="evenodd"/>
</svg>