<svg xmlns="http://www.w3.org/2000/svg" width="24" height="24" viewBox="0 0 24 24" version="1.1">
	<path d="M 15.883 3.015 C 15.122 3.024, 13.825 3.474, 13 4.015 C 11.667 4.891, 11.667 5.109, 13 5.985 C 14.189 6.765, 13.966 6.973, 11.924 6.985 C 10.508 6.993, 8.437 8.012, 7.323 9.250 C 6.209 10.488, 5.047 12.175, 4.740 13 C 4.433 13.825, 3.470 16.163, 2.600 18.197 C 1.730 20.230, 1.396 22.127, 1.858 22.412 C 2.321 22.698, 5.916 21.390, 9.849 19.505 C 16.466 16.334, 17 15.844, 17 12.945 C 17 10.654, 17.537 9.672, 19 9.290 C 20.100 9.002, 21 8.438, 21 8.036 C 21 7.635, 20.160 6.337, 19.133 5.153 C 18.106 3.969, 16.643 3.007, 15.883 3.015 M 12.402 9.202 C 11.260 9.038, 9.780 9.560, 9.114 10.363 C 8.291 11.355, 8.239 12.030, 8.951 12.470 C 9.528 12.826, 10 13.590, 10 14.166 C 10 14.742, 9.332 14.958, 8.515 14.644 C 7.632 14.305, 6.587 14.904, 5.934 16.123 C 5.331 17.250, 5.044 18.377, 5.295 18.629 C 5.547 18.880, 7.384 18.308, 9.377 17.357 C 11.571 16.311, 12.903 15.011, 12.751 14.064 C 12.613 13.204, 13.098 12.624, 13.828 12.776 C 14.626 12.942, 15.022 12.343, 14.818 11.276 C 14.632 10.299, 13.545 9.366, 12.402 9.202" stroke="none" fill="black" fill-rule="evenodd"/>
</svg>