<svg xmlns="http://www.w3.org/2000/svg" width="24" height="24" viewBox="0 0 24 24" version="1.1">
	<path d="M 2.892 -0 C 1.301 -0, 0 0.450, 0 1 C 0 1.550, 0.852 2, 1.893 2 C 2.934 2, 4.023 2.617, 4.313 3.372 C 4.602 4.127, 5.148 6.807, 5.526 9.327 C 5.904 11.848, 6.728 14.559, 7.357 15.353 C 8.024 16.195, 10.893 16.976, 14.247 17.230 C 18.638 17.562, 20.320 17.291, 21.375 16.082 C 22.134 15.212, 23.063 12.363, 23.439 9.750 L 24.123 5 15.580 5 C 7.303 5, 7.019 4.923, 6.411 2.500 C 5.922 0.554, 5.142 -0, 2.892 -0 M 14.358 7 C 8.983 7, 7.164 7.329, 7.448 8.250 C 7.660 8.938, 8.104 10.738, 8.436 12.250 C 8.929 14.500, 9.580 15, 12.019 15 C 13.659 15, 15 14.550, 15 14 C 15 13.450, 15.675 13, 16.500 13 C 17.325 13, 18 12.325, 18 11.500 C 18 10.675, 18.417 10, 18.927 10 C 19.436 10, 20.025 10.787, 20.234 11.750 C 20.457 12.778, 20.828 12.160, 21.134 10.250 L 21.654 7 14.358 7 M 9 19 C 8.515 19, 7.816 19.489, 7.446 20.087 C 7.077 20.685, 7.275 21.675, 7.887 22.287 C 8.704 23.104, 9.296 23.104, 10.113 22.287 C 10.725 21.675, 10.923 20.685, 10.554 20.087 C 10.184 19.489, 9.485 19, 9 19 M 20 19 C 19.515 19, 18.816 19.489, 18.446 20.087 C 18.077 20.685, 18.275 21.675, 18.887 22.287 C 19.704 23.104, 20.296 23.104, 21.113 22.287 C 21.725 21.675, 21.923 20.685, 21.554 20.087 C 21.184 19.489, 20.485 19, 20 19" stroke="none" fill="black" fill-rule="evenodd"/>
</svg>