<svg viewBox="0 0 24 24" xmlns="http://www.w3.org/2000/svg" fill="none" stroke="#000000" stroke-width="2" stroke-linecap="round" stroke-linejoin="round"><path d="M0.695 0.056 C 0.465 0.129,0.256 0.299,0.128 0.516 C 0.037 0.672,0.020 0.746,0.020 1.000 C 0.020 1.256,0.036 1.328,0.131 1.489 C 0.192 1.592,0.304 1.725,0.381 1.783 C 0.655 1.993,0.693 1.996,2.500 1.998 L 4.180 2.000 5.466 8.430 C 6.385 13.023,6.784 14.938,6.861 15.131 C 7.240 16.077,8.152 16.803,9.160 16.958 C 9.379 16.992,10.884 17.001,14.740 16.992 L 20.020 16.980 20.344 16.867 C 20.918 16.666,21.341 16.377,21.740 15.913 C 21.997 15.614,22.134 15.373,22.260 15.000 C 22.317 14.833,22.726 12.786,23.185 10.380 C 23.830 6.994,24.003 6.018,23.985 5.866 C 23.958 5.632,23.806 5.359,23.626 5.222 C 23.316 4.985,23.895 5.000,14.985 5.000 L 6.819 5.000 6.383 2.814 C 5.893 0.363,5.901 0.386,5.503 0.141 L 5.306 0.020 3.083 0.012 C 1.344 0.006,0.824 0.015,0.695 0.056 M21.695 7.490 C 21.643 7.760,21.515 8.434,21.411 8.990 L 21.220 10.000 18.556 10.000 C 15.666 10.000,15.673 10.000,15.382 10.221 C 15.302 10.282,15.187 10.415,15.128 10.516 C 15.037 10.672,15.020 10.746,15.020 11.000 C 15.020 11.256,15.036 11.328,15.131 11.489 C 15.256 11.702,15.449 11.864,15.670 11.943 C 15.789 11.985,16.338 11.997,18.331 11.998 L 20.842 12.000 20.821 12.090 C 20.809 12.139,20.709 12.653,20.599 13.231 C 20.488 13.809,20.380 14.327,20.359 14.383 C 20.291 14.561,20.114 14.760,19.924 14.872 L 19.740 14.980 14.540 14.980 L 9.340 14.980 9.156 14.872 C 8.963 14.758,8.789 14.561,8.717 14.373 C 8.674 14.263,7.240 7.151,7.240 7.051 C 7.240 7.010,8.673 7.000,14.514 7.000 L 21.789 7.000 21.695 7.490 M8.477 19.073 C 7.806 19.249,7.238 19.823,7.060 20.508 C 6.941 20.962,7.003 21.492,7.225 21.930 C 7.361 22.199,7.801 22.639,8.070 22.775 C 8.659 23.073,9.341 23.073,9.930 22.775 C 10.196 22.640,10.638 22.200,10.771 21.937 C 10.994 21.498,11.052 21.007,10.940 20.529 C 10.858 20.182,10.720 19.927,10.465 19.653 C 10.074 19.232,9.560 19.005,9.000 19.005 C 8.857 19.005,8.622 19.036,8.477 19.073 M19.477 19.073 C 18.806 19.249,18.238 19.823,18.060 20.508 C 17.941 20.962,18.003 21.492,18.225 21.930 C 18.361 22.199,18.801 22.639,19.070 22.775 C 19.659 23.073,20.341 23.073,20.930 22.775 C 21.196 22.640,21.638 22.200,21.771 21.937 C 21.994 21.498,22.052 21.007,21.940 20.529 C 21.858 20.182,21.720 19.927,21.465 19.653 C 21.074 19.232,20.560 19.005,20.000 19.005 C 19.857 19.005,19.622 19.036,19.477 19.073 " stroke="none" fill-rule="evenodd" fill="black"></path></svg>