<svg xmlns="http://www.w3.org/2000/svg" width="24" height="24" viewBox="0 0 24 24" version="1.1">
	<path d="M 2.892 -0 C 1.301 -0, 0 0.450, 0 1 C 0 1.550, 0.870 2, 1.933 2 C 2.996 2, 4.097 2.788, 4.379 3.750 C 4.662 4.712, 5.202 7.300, 5.578 9.500 C 5.955 11.700, 6.670 14.287, 7.167 15.250 C 7.885 16.642, 9.387 17, 14.500 17 C 19.607 17, 21.119 16.640, 21.849 15.250 C 22.354 14.287, 23.085 11.588, 23.472 9.250 L 24.176 5 15.607 5 C 7.301 5, 7.019 4.923, 6.411 2.500 C 5.922 0.554, 5.142 -0, 2.892 -0 M 14.154 7 C 8.942 7, 7.165 7.331, 7.448 8.250 C 7.660 8.938, 8.104 10.738, 8.436 12.250 C 9.002 14.834, 9.362 15, 14.412 15 C 18.390 15, 19.944 14.589, 20.393 13.418 C 20.727 12.548, 21 11.593, 21 11.296 C 21 10.998, 20.325 11.315, 19.500 12 C 18.303 12.993, 17.697 12.993, 16.500 12 C 15.675 11.315, 15 10.330, 15 9.810 C 15 9.290, 15.836 9.131, 16.859 9.455 C 17.932 9.796, 19.252 9.402, 19.981 8.523 C 21.093 7.183, 20.390 7, 14.154 7 M 9 19 C 8.515 19, 7.816 19.489, 7.446 20.087 C 7.077 20.685, 7.275 21.675, 7.887 22.287 C 8.704 23.104, 9.296 23.104, 10.113 22.287 C 10.725 21.675, 10.923 20.685, 10.554 20.087 C 10.184 19.489, 9.485 19, 9 19 M 20 19 C 19.515 19, 18.816 19.489, 18.446 20.087 C 18.077 20.685, 18.275 21.675, 18.887 22.287 C 19.704 23.104, 20.296 23.104, 21.113 22.287 C 21.725 21.675, 21.923 20.685, 21.554 20.087 C 21.184 19.489, 20.485 19, 20 19" stroke="none" fill="black" fill-rule="evenodd"/>
</svg>