<svg viewBox="0 0 24 24" xmlns="http://www.w3.org/2000/svg" fill="none" stroke="#000000" stroke-width="2" stroke-linecap="round" stroke-linejoin="round"><path d="M0.695 0.056 C 0.465 0.129,0.256 0.299,0.128 0.516 C 0.037 0.672,0.020 0.746,0.020 1.000 C 0.020 1.256,0.036 1.328,0.131 1.489 C 0.192 1.592,0.304 1.725,0.381 1.783 C 0.655 1.993,0.693 1.996,2.500 1.998 L 4.180 2.000 5.466 8.430 C 6.385 13.023,6.784 14.938,6.861 15.131 C 7.148 15.847,7.759 16.462,8.489 16.769 C 9.046 17.003,8.972 17.000,13.679 17.000 L 17.991 17.000 18.018 17.179 C 18.054 17.422,18.258 17.712,18.497 17.859 C 18.671 17.966,18.729 17.980,19.000 17.980 C 19.271 17.980,19.329 17.966,19.503 17.859 C 19.753 17.705,19.949 17.419,19.984 17.158 L 20.010 16.963 20.229 16.899 C 20.761 16.744,21.166 16.502,21.560 16.103 C 21.867 15.792,22.093 15.465,22.190 15.195 C 22.250 15.026,22.291 14.979,22.467 14.880 C 23.027 14.564,23.168 13.891,22.781 13.384 L 22.646 13.207 23.325 9.653 C 23.856 6.876,24.000 6.054,23.985 5.888 C 23.962 5.638,23.815 5.366,23.626 5.222 C 23.316 4.985,23.895 5.000,14.985 5.000 L 6.819 5.000 6.383 2.814 C 5.893 0.363,5.901 0.386,5.503 0.141 L 5.306 0.020 3.083 0.012 C 1.344 0.006,0.824 0.015,0.695 0.056 M21.776 7.070 C 21.767 7.109,21.517 8.418,21.220 9.980 C 20.924 11.542,20.672 12.861,20.660 12.910 C 20.640 12.994,20.617 13.000,20.321 13.000 L 20.005 13.000 19.992 11.850 L 19.980 10.700 19.871 10.514 C 19.479 9.848,18.521 9.848,18.129 10.514 L 18.020 10.700 18.008 11.850 L 17.995 13.000 16.944 13.000 C 15.797 13.000,15.643 13.022,15.382 13.221 C 15.302 13.282,15.187 13.415,15.128 13.516 C 15.037 13.672,15.020 13.746,15.020 14.000 C 15.020 14.256,15.036 14.328,15.131 14.489 C 15.256 14.701,15.448 14.864,15.670 14.943 C 15.798 14.989,15.341 14.996,12.580 14.989 L 9.340 14.980 9.156 14.872 C 8.963 14.758,8.789 14.561,8.717 14.373 C 8.674 14.263,7.240 7.151,7.240 7.051 C 7.240 7.010,8.674 7.000,14.516 7.000 C 21.426 7.000,21.792 7.004,21.776 7.070 M8.477 19.073 C 7.806 19.249,7.238 19.823,7.060 20.508 C 6.941 20.962,7.003 21.492,7.225 21.930 C 7.361 22.199,7.801 22.639,8.070 22.775 C 8.659 23.073,9.341 23.073,9.930 22.775 C 10.196 22.640,10.638 22.200,10.771 21.937 C 10.994 21.498,11.052 21.007,10.940 20.529 C 10.858 20.182,10.720 19.927,10.465 19.653 C 10.074 19.232,9.560 19.005,9.000 19.005 C 8.857 19.005,8.622 19.036,8.477 19.073 M19.477 19.073 C 18.806 19.249,18.238 19.823,18.060 20.508 C 17.941 20.962,18.003 21.492,18.225 21.930 C 18.361 22.199,18.801 22.639,19.070 22.775 C 19.659 23.073,20.341 23.073,20.930 22.775 C 21.196 22.640,21.638 22.200,21.771 21.937 C 21.994 21.498,22.052 21.007,21.940 20.529 C 21.858 20.182,21.720 19.927,21.465 19.653 C 21.074 19.232,20.560 19.005,20.000 19.005 C 19.857 19.005,19.622 19.036,19.477 19.073 " stroke="none" fill-rule="evenodd" fill="black"></path></svg>