<svg xmlns="http://www.w3.org/2000/svg" width="24" height="24" viewBox="0 0 24 24" version="1.1">
	<path d="M 0 1 C 0 1.550, 0.852 2, 1.893 2 C 4.075 2, 4.580 3.018, 5.526 9.327 C 6.484 15.713, 7.604 16.728, 14.247 17.230 C 21.134 17.750, 22.441 16.687, 23.439 9.750 L 24.123 5 15.580 5 C 7.303 5, 7.019 4.923, 6.411 2.500 C 5.922 0.554, 5.142 -0, 2.892 -0 C 1.301 -0, 0 0.450, 0 1 M 7.448 8.250 C 7.660 8.938, 8.104 10.738, 8.436 12.250 C 8.929 14.500, 9.580 15, 12.019 15 C 13.659 15, 15 14.550, 15 14 C 15 13.450, 15.675 13, 16.500 13 C 17.325 13, 18 12.325, 18 11.500 C 18 9.416, 19.769 9.614, 20.234 11.750 C 20.457 12.778, 20.828 12.160, 21.134 10.250 L 21.654 7 14.358 7 C 8.983 7, 7.164 7.329, 7.448 8.250 M 7.446 20.087 C 6.416 21.755, 8.733 23.667, 10.113 22.287 C 11.267 21.133, 10.545 19, 9 19 C 8.515 19, 7.816 19.489, 7.446 20.087 M 18.446 20.087 C 17.416 21.755, 19.733 23.667, 21.113 22.287 C 22.267 21.133, 21.545 19, 20 19 C 19.515 19, 18.816 19.489, 18.446 20.087" stroke="none" fill="#000000" fill-rule="evenodd"/>
</svg>