<svg xmlns="http://www.w3.org/2000/svg" width="24" height="24" viewBox="0 0 24 24" version="1.1">
	<path d="M 0 1 C 0 1.550, 0.870 2, 1.933 2 C 3.970 2, 4.470 3.028, 5.578 9.500 C 6.783 16.537, 7.335 17, 14.500 17 C 21.717 17, 22.267 16.526, 23.472 9.250 L 24.176 5 15.607 5 C 7.301 5, 7.019 4.923, 6.411 2.500 C 5.922 0.554, 5.142 -0, 2.892 -0 C 1.301 -0, 0 0.450, 0 1 M 7.448 8.250 C 7.660 8.938, 8.104 10.738, 8.436 12.250 C 9.002 14.834, 9.362 15, 14.412 15 C 18.266 15, 19.949 14.576, 20.362 13.500 C 20.794 12.374, 20.197 12, 17.969 12 C 16.336 12, 15 11.550, 15 11 C 15 10.450, 16.302 10, 17.893 10 C 19.542 10, 21.034 9.355, 21.362 8.500 C 21.841 7.250, 20.700 7, 14.500 7 C 9.011 7, 7.164 7.328, 7.448 8.250 M 7.446 20.087 C 6.416 21.755, 8.733 23.667, 10.113 22.287 C 11.267 21.133, 10.545 19, 9 19 C 8.515 19, 7.816 19.489, 7.446 20.087 M 18.446 20.087 C 17.416 21.755, 19.733 23.667, 21.113 22.287 C 22.267 21.133, 21.545 19, 20 19 C 19.515 19, 18.816 19.489, 18.446 20.087" stroke="none" fill="#000000" fill-rule="evenodd"/>
</svg>