<svg xmlns="http://www.w3.org/2000/svg" width="24" height="24" viewBox="0 0 24 24" version="1.1">
	<path d="M 10 5 C 9.558 5, 8.725 6.350, 8.150 8 C 7.575 9.650, 6.608 11, 6.002 11 C 5.293 11, 5.007 13.047, 5.200 16.750 L 5.500 22.500 11.396 22.804 C 14.638 22.972, 17.766 22.634, 18.346 22.054 C 18.926 21.474, 20.210 21, 21.200 21 C 22.693 21, 23 20.148, 23 16 C 23 13.169, 22.544 11, 21.948 11 C 21.369 11, 20.425 9.650, 19.850 8 C 19.275 6.350, 18.442 5, 18 5 C 17.558 5, 16.725 6.350, 16.150 8 C 15.575 9.650, 14.607 11, 14 11 C 13.393 11, 12.425 9.650, 11.850 8 C 11.275 6.350, 10.442 5, 10 5 M 10.250 11.038 C 9.838 11.059, 8.938 11.715, 8.250 12.496 C 7.563 13.277, 7 15.510, 7 17.458 C 7 19.406, 7.450 21, 8 21 C 8.550 21, 9 20.100, 9 19 C 9 17.444, 9.667 17, 12 17 C 14.333 17, 15 17.444, 15 19 C 15 20.100, 15.450 21, 16 21 C 16.550 21, 17 20.550, 17 20 C 17 19.450, 17.900 19, 19 19 C 20.481 19, 21 18.333, 21 16.429 C 21 15.014, 20.249 13.106, 19.330 12.188 C 18.116 10.973, 17.548 10.856, 17.247 11.759 C 17.019 12.442, 15.521 13, 13.917 13 C 12.313 13, 11 12.550, 11 12 C 11 11.450, 10.662 11.017, 10.250 11.038 M 12 19 C 11.450 19, 11 19.450, 11 20 C 11 20.550, 11.450 21, 12 21 C 12.550 21, 13 20.550, 13 20 C 13 19.450, 12.550 19, 12 19" stroke="none" fill="black" fill-rule="evenodd"/>
</svg>