<svg viewBox="0 0 24 24" xmlns="http://www.w3.org/2000/svg" fill="none" stroke="#000000" stroke-width="2" stroke-linecap="round" stroke-linejoin="round"><path d="M9.659 5.070 C 9.436 5.167,9.318 5.256,9.193 5.424 C 9.118 5.523,8.809 6.397,8.179 8.283 L 7.273 11.000 6.583 11.000 C 5.822 11.000,5.624 11.036,5.382 11.221 C 5.302 11.282,5.187 11.415,5.128 11.516 L 5.020 11.700 5.020 16.120 L 5.020 20.540 5.114 20.840 C 5.422 21.827,6.173 22.578,7.160 22.886 L 7.460 22.980 12.000 22.980 L 16.540 22.980 16.840 22.886 C 17.641 22.636,18.314 22.071,18.684 21.340 L 18.845 21.020 20.573 21.000 L 22.300 20.980 22.492 20.867 C 22.710 20.739,22.901 20.498,22.961 20.277 C 22.987 20.178,22.998 18.672,22.991 15.913 L 22.980 11.700 22.872 11.516 C 22.813 11.415,22.698 11.282,22.618 11.221 C 22.376 11.036,22.178 11.000,21.417 11.000 L 20.727 11.000 19.819 8.276 C 19.099 6.120,18.884 5.519,18.785 5.391 C 18.633 5.193,18.360 5.046,18.089 5.014 C 17.692 4.967,17.245 5.232,17.084 5.612 C 17.045 5.705,16.621 6.955,16.143 8.390 L 15.273 11.000 14.000 11.000 L 12.727 11.000 11.819 8.276 C 10.830 5.312,10.832 5.318,10.471 5.131 C 10.221 5.001,9.876 4.975,9.659 5.070 M10.553 10.837 C 11.128 12.567,11.179 12.674,11.508 12.867 L 11.700 12.980 14.000 12.980 L 16.300 12.980 16.492 12.867 C 16.819 12.675,16.869 12.569,17.446 10.839 C 17.740 9.960,17.989 9.240,18.000 9.240 C 18.012 9.240,18.260 9.959,18.553 10.837 C 19.128 12.567,19.179 12.674,19.508 12.867 C 19.694 12.976,19.721 12.980,20.350 12.993 L 21.000 13.007 21.000 16.003 L 21.000 19.000 19.446 19.000 C 17.758 19.000,17.658 19.011,17.382 19.221 C 17.165 19.387,17.046 19.620,17.002 19.966 C 16.981 20.130,16.945 20.314,16.922 20.375 C 16.851 20.561,16.677 20.758,16.484 20.872 C 16.308 20.975,16.272 20.981,15.652 20.993 L 15.003 21.007 14.992 19.353 L 14.980 17.700 14.872 17.516 C 14.740 17.293,14.533 17.128,14.290 17.055 C 14.023 16.975,9.977 16.975,9.710 17.055 C 9.467 17.128,9.260 17.293,9.128 17.516 L 9.020 17.700 9.008 19.353 L 8.997 21.007 8.348 20.993 C 7.728 20.981,7.692 20.975,7.516 20.872 C 7.415 20.813,7.284 20.700,7.225 20.623 C 6.992 20.317,7.000 20.464,7.000 16.578 L 7.000 13.007 7.650 12.993 C 8.279 12.980,8.306 12.976,8.492 12.867 C 8.819 12.675,8.869 12.569,9.446 10.839 C 9.740 9.960,9.989 9.240,10.000 9.240 C 10.012 9.240,10.260 9.959,10.553 10.837 M13.000 20.000 L 13.000 21.000 12.000 21.000 L 11.000 21.000 11.000 20.000 L 11.000 19.000 12.000 19.000 L 13.000 19.000 13.000 20.000 " stroke="none" fill-rule="evenodd" fill="black"></path></svg>