<svg xmlns="http://www.w3.org/2000/svg" width="24" height="24" viewBox="0 0 24 24" version="1.1">
	<path d="M 8.150 8 C 7.575 9.650, 6.608 11, 6.002 11 C 5.293 11, 5.007 13.047, 5.200 16.750 L 5.500 22.500 11.396 22.804 C 14.638 22.972, 17.766 22.634, 18.346 22.054 C 18.926 21.474, 20.210 21, 21.200 21 C 22.693 21, 23 20.148, 23 16 C 23 13.169, 22.544 11, 21.948 11 C 21.369 11, 20.425 9.650, 19.850 8 C 18.526 4.202, 17.474 4.202, 16.150 8 C 15.575 9.650, 14.607 11, 14 11 C 13.393 11, 12.425 9.650, 11.850 8 C 10.526 4.202, 9.474 4.202, 8.150 8 M 8.250 12.496 C 6.764 14.183, 6.564 21, 8 21 C 8.550 21, 9 20.100, 9 19 C 9 17.444, 9.667 17, 12 17 C 14.333 17, 15 17.444, 15 19 C 15 20.100, 15.450 21, 16 21 C 16.550 21, 17 20.550, 17 20 C 17 19.450, 17.900 19, 19 19 C 20.481 19, 21 18.333, 21 16.429 C 21 13.511, 17.934 9.697, 17.247 11.759 C 16.757 13.230, 11 13.452, 11 12 C 11 10.592, 9.723 10.822, 8.250 12.496 M 11 20 C 11 20.550, 11.450 21, 12 21 C 12.550 21, 13 20.550, 13 20 C 13 19.450, 12.550 19, 12 19 C 11.450 19, 11 19.450, 11 20" stroke="none" fill="#000000" fill-rule="evenodd"/>
</svg>