<svg xmlns="http://www.w3.org/2000/svg" width="24" height="24" viewBox="0 0 24 24" version="1.1">
	<path d="M 12.449 3.217 C 6.922 3.062, 2.084 3.249, 1.699 3.634 C 1.315 4.019, 1 5.383, 1 6.667 C 1 7.950, 1.450 9, 2 9 C 2.550 9, 3 8.100, 3 7 C 3 5.148, 3.667 5, 12 5 L 21 5 21 12 L 21 19 17 19 C 14.800 19, 13 19.475, 13 20.055 C 13 20.689, 14.893 20.988, 17.750 20.805 L 22.500 20.500 22.500 12 L 22.500 3.500 12.449 3.217 M 1.953 11 C 1.429 11, 1 11.395, 1 11.879 C 1 12.362, 2.311 13.301, 3.914 13.964 C 5.524 14.631, 7.369 16.476, 8.036 18.086 C 8.699 19.689, 9.638 21, 10.121 21 C 10.605 21, 11 20.528, 11 19.950 C 11 19.373, 10.359 17.661, 9.575 16.145 C 8.791 14.629, 6.970 12.852, 5.528 12.195 C 4.086 11.538, 2.477 11, 1.953 11 M 2.171 15 C 1.527 15, 1 15.205, 1 15.455 C 1 15.705, 2.145 17.055, 3.545 18.455 C 4.945 19.855, 6.295 21, 6.545 21 C 6.795 21, 7 20.395, 7 19.655 C 7 18.915, 6.177 17.565, 5.171 16.655 C 4.165 15.745, 2.815 15, 2.171 15 M 2 19 C 1.450 19, 1 19.450, 1 20 C 1 20.550, 1.450 21, 2 21 C 2.550 21, 3 20.550, 3 20 C 3 19.450, 2.550 19, 2 19" stroke="none" fill="black" fill-rule="evenodd"/>
</svg>