<svg xmlns="http://www.w3.org/2000/svg" width="24" height="24" viewBox="0 0 24 24" version="1.1">
	<path d="M 1.699 3.634 C 0.628 4.705, 0.869 9, 2 9 C 2.550 9, 3 8.100, 3 7 C 3 5.148, 3.667 5, 12 5 L 21 5 21 12 L 21 19 17 19 C 14.800 19, 13 19.475, 13 20.055 C 13 20.689, 14.893 20.988, 17.750 20.805 L 22.500 20.500 22.500 12 L 22.500 3.500 12.449 3.217 C 6.922 3.062, 2.084 3.249, 1.699 3.634 M 1 11.879 C 1 12.362, 2.311 13.301, 3.914 13.964 C 5.524 14.631, 7.369 16.476, 8.036 18.086 C 8.699 19.689, 9.638 21, 10.121 21 C 12.783 21, 9.019 13.785, 5.528 12.195 C 2.415 10.776, 1 10.678, 1 11.879 M 1 15.455 C 1 16.047, 5.953 21, 6.545 21 C 7.714 21, 6.808 18.136, 5.171 16.655 C 3.475 15.120, 1 14.407, 1 15.455 M 1 20 C 1 20.550, 1.450 21, 2 21 C 2.550 21, 3 20.550, 3 20 C 3 19.450, 2.550 19, 2 19 C 1.450 19, 1 19.450, 1 20" stroke="none" fill="#000000" fill-rule="evenodd"/>
</svg>