<svg xmlns="http://www.w3.org/2000/svg" width="24" height="24" viewBox="0 0 24 24" version="1.1">
	<path d="M 7.865 2 C 7.315 2, 7.151 2.900, 7.500 4 C 7.933 5.365, 7.680 6, 6.701 6 C 5.912 6, 4.307 8.310, 3.133 11.133 C 1.960 13.957, 1 16.657, 1 17.133 C 1 17.610, 2.800 18, 5 18 C 8.333 18, 9 18.333, 9 20 C 9 21.556, 9.667 22, 12 22 C 14.333 22, 15 21.556, 15 20 C 15 18.333, 15.667 18, 19 18 C 21.200 18, 23 17.610, 23 17.133 C 23 16.657, 22.040 13.957, 20.867 11.133 C 19.693 8.310, 18.088 6, 17.299 6 C 16.320 6, 16.067 5.365, 16.500 4 C 16.849 2.900, 16.685 2, 16.135 2 C 15.585 2, 14.849 2.900, 14.500 4 C 14.151 5.100, 13.026 6, 12 6 C 10.974 6, 9.849 5.100, 9.500 4 C 9.151 2.900, 8.415 2, 7.865 2 M 12 8 C 7.123 8, 6.834 8.153, 5.449 11.468 C 4.652 13.375, 4 15.175, 4 15.468 C 4 15.761, 7.600 16, 12 16 C 16.400 16, 20 15.761, 20 15.468 C 20 15.175, 19.348 13.375, 18.551 11.468 C 17.166 8.153, 16.877 8, 12 8 M 12 9 C 10.900 9, 10 9.450, 10 10 C 10 10.550, 10.900 11, 12 11 C 13.100 11, 14 10.550, 14 10 C 14 9.450, 13.100 9, 12 9 M 12 18 C 11.450 18, 11 18.450, 11 19 C 11 19.550, 11.450 20, 12 20 C 12.550 20, 13 19.550, 13 19 C 13 18.450, 12.550 18, 12 18" stroke="none" fill="black" fill-rule="evenodd"/>
</svg>