<svg xmlns="http://www.w3.org/2000/svg" width="24" height="24" viewBox="0 0 24 24" version="1.1">
	<path d="M 2.753 2.654 C 2.488 3.119, 2.256 6.393, 2.238 9.930 C 2.210 15.672, 2.508 16.662, 5.026 19.180 C 8.998 23.152, 15.010 23.144, 18.991 19.162 C 21.605 16.549, 21.816 15.778, 21.665 9.412 L 21.500 2.500 18 2.777 C 12.141 3.240, 9.638 3.175, 6.368 2.477 C 4.646 2.109, 3.019 2.189, 2.753 2.654 M 4.457 10.026 C 4.494 15.255, 4.854 16.463, 6.861 18.088 C 9.847 20.507, 14.118 20.535, 17.055 18.157 C 18.938 16.632, 19.361 15.237, 19.505 10.082 C 19.670 4.165, 19.573 3.887, 17.589 4.576 C 14.919 5.503, 9.096 5.509, 6.457 4.588 C 4.541 3.919, 4.417 4.258, 4.457 10.026 M 8 13 C 8 13.550, 8.450 14, 9 14 C 9.550 14, 10 13.550, 10 13 C 10 12.450, 9.550 12, 9 12 C 8.450 12, 8 12.450, 8 13 M 14 13 C 14 13.550, 14.450 14, 15 14 C 15.550 14, 16 13.550, 16 13 C 16 12.450, 15.550 12, 15 12 C 14.450 12, 14 12.450, 14 13 M 8 16.069 C 8 17.305, 11.776 18.206, 14 17.500 C 17.313 16.448, 16.258 15.273, 12 15.273 C 9.800 15.273, 8 15.631, 8 16.069" stroke="none" fill="black" fill-rule="evenodd"/>
</svg>