<svg viewBox="0 0 24 24" xmlns="http://www.w3.org/2000/svg" fill="none" stroke="#000000" stroke-width="2" stroke-linecap="round" stroke-linejoin="round"><path d="M3.913 1.881 C 2.731 2.080,2.232 2.662,2.077 4.021 C 1.960 5.043,2.233 7.080,2.785 9.310 L 2.926 9.879 2.709 10.390 C 2.221 11.534,2.000 12.495,2.000 13.471 C 2.000 17.058,4.420 20.149,8.203 21.395 C 10.665 22.205,13.335 22.205,15.797 21.395 C 19.579 20.150,22.000 17.057,22.000 13.471 C 22.000 12.495,21.779 11.534,21.291 10.390 L 21.074 9.879 21.215 9.310 C 21.766 7.085,22.040 5.041,21.923 4.021 C 21.747 2.475,21.130 1.910,19.553 1.851 C 18.643 1.817,17.922 1.930,16.931 2.260 C 15.813 2.632,14.578 3.331,13.876 3.987 L 13.688 4.164 13.234 4.094 C 12.612 3.998,11.388 3.998,10.766 4.094 L 10.312 4.164 10.124 3.987 C 9.065 2.997,7.171 2.124,5.595 1.900 C 5.158 1.838,4.229 1.828,3.913 1.881 M5.760 3.958 C 6.306 4.093,6.708 4.235,7.199 4.467 C 7.997 4.843,8.493 5.181,9.100 5.764 C 9.498 6.146,9.549 6.179,9.812 6.238 C 9.962 6.272,10.078 6.262,10.467 6.181 C 11.615 5.943,12.381 5.943,13.520 6.178 C 13.881 6.253,14.021 6.266,14.171 6.238 C 14.440 6.187,14.496 6.151,14.900 5.764 C 15.507 5.181,16.003 4.843,16.801 4.467 C 17.678 4.053,18.338 3.882,19.182 3.852 C 19.914 3.825,19.897 3.816,19.935 4.287 C 20.005 5.158,19.690 7.215,19.196 9.120 C 19.049 9.687,18.998 9.950,19.010 10.084 C 19.021 10.201,19.123 10.472,19.289 10.824 C 19.820 11.949,19.981 12.582,19.977 13.520 C 19.973 14.477,19.792 15.249,19.380 16.072 C 18.348 18.135,16.139 19.530,13.280 19.926 C 12.782 19.995,11.218 19.995,10.720 19.926 C 8.872 19.670,7.259 18.983,6.072 17.945 C 5.029 17.033,4.354 15.858,4.094 14.500 C 4.049 14.262,4.025 13.930,4.023 13.520 C 4.019 12.582,4.180 11.949,4.711 10.824 C 4.877 10.472,4.979 10.201,4.990 10.084 C 5.002 9.950,4.951 9.687,4.804 9.120 C 4.582 8.265,4.279 6.791,4.184 6.100 C 4.029 4.977,4.016 4.029,4.154 3.892 C 4.246 3.800,5.295 3.843,5.760 3.958 M8.695 12.055 C 8.464 12.130,8.255 12.300,8.128 12.516 C 8.037 12.672,8.020 12.746,8.020 13.000 C 8.020 13.257,8.036 13.327,8.133 13.492 C 8.651 14.374,9.998 14.018,9.998 13.000 C 9.998 12.623,9.792 12.281,9.463 12.112 C 9.265 12.010,8.911 11.984,8.695 12.055 M14.695 12.055 C 14.464 12.130,14.255 12.300,14.128 12.516 C 14.037 12.672,14.020 12.746,14.020 13.000 C 14.020 13.257,14.036 13.327,14.133 13.492 C 14.651 14.374,15.998 14.018,15.998 13.000 C 15.998 12.623,15.792 12.281,15.463 12.112 C 15.265 12.010,14.911 11.984,14.695 12.055 M8.667 15.065 C 8.265 15.188,7.968 15.649,8.009 16.083 C 8.035 16.346,8.190 16.633,8.389 16.785 C 8.605 16.949,11.727 18.000,12.000 18.000 C 12.273 18.000,15.395 16.949,15.611 16.785 C 16.174 16.355,16.094 15.441,15.465 15.127 C 15.069 14.929,15.012 14.939,13.428 15.464 L 12.000 15.938 10.586 15.469 C 9.696 15.174,9.115 15.001,9.016 15.003 C 8.930 15.004,8.773 15.032,8.667 15.065 " stroke="none" fill-rule="evenodd" fill="black"></path></svg>