<svg viewBox="0 0 24 24" xmlns="http://www.w3.org/2000/svg" fill="none" stroke="#000000" stroke-width="2" stroke-linecap="round" stroke-linejoin="round"><path d="M2.695 2.057 C 2.466 2.129,2.256 2.299,2.128 2.516 L 2.020 2.700 2.020 12.000 L 2.020 21.300 2.131 21.489 C 2.256 21.702,2.449 21.864,2.670 21.943 C 2.893 22.023,21.107 22.023,21.330 21.943 C 21.551 21.864,21.744 21.702,21.869 21.489 C 21.964 21.328,21.980 21.256,21.980 21.000 C 21.980 20.746,21.963 20.672,21.872 20.516 C 21.740 20.293,21.533 20.128,21.290 20.055 C 21.138 20.009,19.686 20.000,12.554 20.000 L 4.001 20.000 3.990 11.350 L 3.980 2.700 3.872 2.516 C 3.628 2.101,3.150 1.915,2.695 2.057 M18.440 7.035 C 18.187 7.118,17.978 7.314,16.101 9.227 C 15.004 10.345,13.988 11.380,13.843 11.527 L 13.580 11.795 12.480 10.732 C 11.803 10.078,11.318 9.641,11.220 9.595 C 11.021 9.504,10.614 9.497,10.409 9.581 C 10.306 9.624,9.627 10.274,8.226 11.671 C 6.029 13.862,6.001 13.896,6.001 14.300 C 6.001 14.674,6.270 15.077,6.617 15.221 C 6.805 15.300,7.130 15.309,7.344 15.241 C 7.469 15.201,7.829 14.863,9.148 13.549 L 10.795 11.906 10.968 12.061 C 11.062 12.146,11.551 12.612,12.052 13.098 C 12.554 13.583,13.040 14.025,13.132 14.080 C 13.269 14.161,13.353 14.180,13.581 14.180 C 13.803 14.180,13.901 14.159,14.052 14.080 C 14.325 13.936,19.500 8.653,19.610 8.405 C 19.889 7.778,19.452 7.061,18.763 7.017 C 18.640 7.009,18.495 7.017,18.440 7.035 " stroke="none" fill-rule="evenodd" fill="black"></path></svg>