<svg xmlns="http://www.w3.org/2000/svg" width="24" height="24" viewBox="0 0 24 24" version="1.1">
	<path d="M 14.250 1.399 L 11 0.750 11 6.875 L 11 13 17.125 13 L 23.250 13 22.601 9.750 C 22.244 7.962, 20.950 5.498, 19.726 4.274 C 18.502 3.050, 16.038 1.756, 14.250 1.399 M 7.589 2 C 6.813 2, 5.013 3.385, 3.589 5.077 C 1.770 7.238, 1 9.316, 1 12.061 C 1 14.965, 1.749 16.807, 3.918 19.234 C 6.476 22.098, 7.452 22.500, 11.837 22.500 C 15.754 22.500, 17.398 21.974, 19.419 20.076 C 20.839 18.742, 22 17.055, 22 16.326 C 22 15.597, 21.810 15, 21.577 15 C 21.344 15, 19.804 16.350, 18.154 18 C 16.089 20.065, 14.171 21, 12 21 C 9.848 21, 7.918 20.072, 5.923 18.077 C 3.928 16.082, 3 14.152, 3 12 C 3 9.829, 3.935 7.911, 6 5.846 C 7.650 4.196, 9 2.656, 9 2.423 C 9 2.190, 8.365 2, 7.589 2 M 14.077 3 C 13.485 3, 13 4.800, 13 7 L 13 11 17 11 C 19.200 11, 21 10.515, 21 9.923 C 21 9.331, 19.685 7.531, 18.077 5.923 C 16.469 4.315, 14.669 3, 14.077 3" stroke="none" fill="black" fill-rule="evenodd"/>
</svg>