<svg xmlns="http://www.w3.org/2000/svg" width="24" height="24" viewBox="0 0 24 24" version="1.1">
	<path d="M 11 6.875 L 11 13 17.125 13 L 23.250 13 22.601 9.750 C 21.772 5.602, 18.398 2.228, 14.250 1.399 L 11 0.750 11 6.875 M 3.589 5.077 C -0.083 9.441, 0.044 14.898, 3.918 19.234 C 6.476 22.098, 7.452 22.500, 11.837 22.500 C 15.754 22.500, 17.398 21.974, 19.419 20.076 C 20.839 18.742, 22 17.055, 22 16.326 C 22 14.427, 21.517 14.637, 18.154 18 C 14.144 22.009, 9.882 22.036, 5.923 18.077 C 1.964 14.118, 1.991 9.856, 6 5.846 C 9.392 2.454, 9.580 2, 7.589 2 C 6.813 2, 5.013 3.385, 3.589 5.077 M 13 7 L 13 11 17 11 C 21.760 11, 22.004 9.850, 18.077 5.923 C 14.150 1.996, 13 2.240, 13 7" stroke="none" fill="#000000" fill-rule="evenodd"/>
</svg>