<svg xmlns="http://www.w3.org/2000/svg" width="24" height="24" viewBox="0 0 24 24" version="1.1">
	<path d="M 3.446 5.087 C 2.416 6.755, 4.733 8.667, 6.113 7.287 C 7.267 6.133, 6.545 4, 5 4 C 4.515 4, 3.816 4.489, 3.446 5.087 M 15.446 6.087 C 14.416 7.755, 16.733 9.667, 18.113 8.287 C 19.267 7.133, 18.545 5, 17 5 C 16.515 5, 15.816 5.489, 15.446 6.087 M 5.446 11.087 C 4.416 12.755, 6.733 14.667, 8.113 13.287 C 9.267 12.133, 8.545 10, 7 10 C 6.515 10, 5.816 10.489, 5.446 11.087 M 10.446 16.087 C 9.416 17.755, 11.733 19.667, 13.113 18.287 C 14.267 17.133, 13.545 15, 12 15 C 11.515 15, 10.816 15.489, 10.446 16.087 M 16.446 17.087 C 15.416 18.755, 17.733 20.667, 19.113 19.287 C 20.267 18.133, 19.545 16, 18 16 C 17.515 16, 16.816 16.489, 16.446 17.087" stroke="none" fill="#000000" fill-rule="evenodd"/>
</svg>