<svg viewBox="0 0 24 24" xmlns="http://www.w3.org/2000/svg" fill="none" stroke="#000000" stroke-width="2" stroke-linecap="round" stroke-linejoin="round"><path d="M14.380 2.043 C 11.784 2.299,9.676 4.219,9.115 6.840 C 8.984 7.450,8.984 8.558,9.114 9.160 C 9.639 11.588,11.417 13.365,13.840 13.885 C 14.446 14.015,15.554 14.015,16.160 13.885 C 17.397 13.620,18.412 13.068,19.269 12.195 C 20.109 11.340,20.626 10.369,20.885 9.160 C 21.015 8.554,21.015 7.446,20.885 6.840 C 20.626 5.631,20.109 4.660,19.269 3.805 C 17.978 2.490,16.230 1.860,14.380 2.043 M15.605 4.058 C 17.074 4.280,18.310 5.324,18.797 6.755 C 18.897 7.050,19.000 7.680,19.000 8.000 C 19.000 8.322,18.897 8.951,18.796 9.245 C 18.321 10.632,17.195 11.628,15.773 11.917 C 13.563 12.368,11.396 10.845,11.058 8.605 C 10.986 8.121,10.986 7.879,11.058 7.395 C 11.314 5.698,12.675 4.324,14.358 4.061 C 14.816 3.990,15.144 3.989,15.605 4.058 M5.358 12.061 C 4.230 12.237,3.143 12.974,2.569 13.953 C 1.320 16.083,2.233 18.785,4.512 19.704 C 6.558 20.528,8.877 19.538,9.704 17.488 C 10.090 16.530,10.090 15.469,9.705 14.516 C 9.172 13.197,8.001 12.269,6.605 12.058 C 6.144 11.989,5.816 11.990,5.358 12.061 M6.523 14.073 C 7.262 14.266,7.850 14.924,7.967 15.690 C 8.067 16.343,7.873 16.933,7.403 17.404 C 7.002 17.807,6.547 18.000,6.000 18.000 C 5.485 18.000,5.038 17.822,4.653 17.465 C 3.323 16.229,4.189 14.005,6.000 14.005 C 6.143 14.005,6.378 14.036,6.523 14.073 M15.499 16.040 C 14.363 16.246,13.460 17.049,13.114 18.160 C 12.979 18.594,12.979 19.406,13.114 19.840 C 13.421 20.826,14.174 21.579,15.160 21.886 C 15.412 21.964,15.547 21.979,16.000 21.979 C 16.453 21.979,16.588 21.964,16.840 21.886 C 17.826 21.579,18.579 20.826,18.886 19.840 C 19.021 19.406,19.021 18.594,18.886 18.160 C 18.581 17.179,17.810 16.407,16.861 16.129 C 16.500 16.023,15.832 15.980,15.499 16.040 M16.310 18.061 C 16.688 18.173,17.000 18.598,17.000 19.001 C 17.000 19.331,16.784 19.696,16.484 19.872 C 16.328 19.963,16.254 19.980,16.000 19.980 C 15.746 19.980,15.672 19.963,15.516 19.872 C 14.932 19.528,14.831 18.775,15.307 18.299 C 15.582 18.024,15.918 17.944,16.310 18.061 " stroke="none" fill="black" fill-rule="evenodd"></path></svg>