<svg xmlns="http://www.w3.org/2000/svg" width="24" height="24" viewBox="0 0 24 24" version="1.1">
	<path d="M 10.655 3.829 C 7.067 7.793, 9.825 14, 15.174 14 C 20.295 14, 22.966 7.089, 19.171 3.655 C 16.756 1.469, 12.716 1.552, 10.655 3.829 M 12.040 5.452 C 9.383 8.653, 13.285 13.570, 16.750 11.388 C 17.712 10.782, 18.650 9.525, 18.833 8.595 C 19.578 4.807, 14.518 2.466, 12.040 5.452 M 3.040 13.452 C 0.383 16.653, 4.285 21.570, 7.750 19.388 C 8.713 18.782, 9.650 17.525, 9.833 16.595 C 10.578 12.807, 5.518 10.466, 3.040 13.452 M 4.446 15.087 C 3.416 16.755, 5.733 18.667, 7.113 17.287 C 8.267 16.133, 7.545 14, 6 14 C 5.515 14, 4.816 14.489, 4.446 15.087 M 13.389 17.430 C 12.393 20.025, 13.788 22.169, 16.246 21.820 C 17.898 21.585, 18.500 20.833, 18.500 19 C 18.500 17.167, 17.898 16.415, 16.246 16.180 C 14.893 15.988, 13.750 16.488, 13.389 17.430 M 15 19 C 15 19.550, 15.450 20, 16 20 C 16.550 20, 17 19.550, 17 19 C 17 18.450, 16.550 18, 16 18 C 15.450 18, 15 18.450, 15 19" stroke="none" fill="#000000" fill-rule="evenodd"/>
</svg>