<svg viewBox="0 0 24 24" xmlns="http://www.w3.org/2000/svg" fill="none" stroke="#000000" stroke-width="2" stroke-linecap="round" stroke-linejoin="round"><path d="M4.477 4.073 C 3.806 4.249,3.238 4.823,3.060 5.508 C 2.941 5.962,3.003 6.492,3.225 6.930 C 3.361 7.199,3.801 7.639,4.070 7.775 C 4.659 8.073,5.341 8.073,5.930 7.775 C 6.196 7.640,6.638 7.200,6.771 6.937 C 6.994 6.498,7.052 6.007,6.940 5.529 C 6.858 5.182,6.720 4.927,6.465 4.653 C 5.948 4.097,5.211 3.882,4.477 4.073 M16.477 5.073 C 15.806 5.249,15.238 5.823,15.060 6.508 C 14.941 6.962,15.003 7.492,15.225 7.930 C 15.361 8.199,15.801 8.639,16.070 8.775 C 16.659 9.073,17.341 9.073,17.930 8.775 C 18.196 8.640,18.638 8.200,18.771 7.937 C 18.994 7.498,19.052 7.007,18.940 6.529 C 18.858 6.182,18.720 5.927,18.465 5.653 C 18.074 5.232,17.560 5.005,17.000 5.005 C 16.857 5.005,16.622 5.036,16.477 5.073 M6.477 10.073 C 5.806 10.249,5.238 10.823,5.060 11.508 C 4.941 11.962,5.003 12.492,5.225 12.930 C 5.361 13.199,5.801 13.639,6.070 13.775 C 6.657 14.073,7.345 14.071,7.937 13.771 C 8.197 13.639,8.639 13.197,8.771 12.937 C 8.994 12.498,9.052 12.007,8.940 11.529 C 8.858 11.182,8.720 10.927,8.465 10.653 C 8.074 10.232,7.560 10.005,7.000 10.005 C 6.857 10.005,6.622 10.036,6.477 10.073 M11.477 15.073 C 10.806 15.249,10.238 15.823,10.060 16.508 C 9.941 16.962,10.003 17.492,10.225 17.930 C 10.361 18.199,10.801 18.639,11.070 18.775 C 11.659 19.073,12.341 19.073,12.930 18.775 C 13.196 18.640,13.638 18.200,13.771 17.937 C 13.994 17.498,14.052 17.007,13.940 16.529 C 13.858 16.182,13.720 15.927,13.465 15.653 C 13.074 15.232,12.560 15.005,12.000 15.005 C 11.857 15.005,11.622 15.036,11.477 15.073 M17.477 16.073 C 16.806 16.249,16.238 16.823,16.060 17.508 C 15.941 17.962,16.003 18.492,16.225 18.930 C 16.361 19.199,16.801 19.639,17.070 19.775 C 17.659 20.073,18.341 20.073,18.930 19.775 C 19.196 19.640,19.638 19.200,19.771 18.937 C 19.994 18.498,20.052 18.007,19.940 17.529 C 19.858 17.182,19.720 16.927,19.465 16.653 C 19.074 16.232,18.560 16.005,18.000 16.005 C 17.857 16.005,17.622 16.036,17.477 16.073 " stroke="none" fill="black" fill-rule="evenodd"></path></svg>