<svg xmlns="http://www.w3.org/2000/svg" width="24" height="24" viewBox="0 0 24 24" version="1.1">
	<path d="M 14.826 2 C 13.442 2, 11.565 2.823, 10.655 3.829 C 9.745 4.835, 9 6.790, 9 8.174 C 9 9.558, 9.823 11.435, 10.829 12.345 C 11.835 13.255, 13.790 14, 15.174 14 C 16.558 14, 18.435 13.177, 19.345 12.171 C 20.255 11.165, 21 9.210, 21 7.826 C 21 6.442, 20.177 4.565, 19.171 3.655 C 18.165 2.745, 16.210 2, 14.826 2 M 15 4 C 14.035 4, 12.703 4.653, 12.040 5.452 C 11.377 6.251, 10.985 7.665, 11.167 8.595 C 11.350 9.525, 12.287 10.782, 13.250 11.388 C 14.525 12.190, 15.475 12.190, 16.750 11.388 C 17.712 10.782, 18.650 9.525, 18.833 8.595 C 19.015 7.665, 18.623 6.251, 17.960 5.452 C 17.297 4.653, 15.965 4, 15 4 M 6 12 C 5.035 12, 3.703 12.653, 3.040 13.452 C 2.377 14.251, 1.985 15.665, 2.167 16.595 C 2.350 17.525, 3.288 18.782, 4.250 19.388 C 5.525 20.190, 6.475 20.190, 7.750 19.388 C 8.713 18.782, 9.650 17.525, 9.833 16.595 C 10.015 15.665, 9.623 14.251, 8.960 13.452 C 8.297 12.653, 6.965 12, 6 12 M 6 14 C 5.515 14, 4.816 14.489, 4.446 15.087 C 4.077 15.685, 4.275 16.675, 4.887 17.287 C 5.704 18.104, 6.296 18.104, 7.113 17.287 C 7.725 16.675, 7.923 15.685, 7.554 15.087 C 7.184 14.489, 6.485 14, 6 14 M 16.246 16.180 C 14.893 15.988, 13.750 16.488, 13.389 17.430 C 13.057 18.293, 13.057 19.707, 13.389 20.570 C 13.750 21.512, 14.893 22.012, 16.246 21.820 C 17.898 21.585, 18.500 20.833, 18.500 19 C 18.500 17.167, 17.898 16.415, 16.246 16.180 M 16 18 C 15.450 18, 15 18.450, 15 19 C 15 19.550, 15.450 20, 16 20 C 16.550 20, 17 19.550, 17 19 C 17 18.450, 16.550 18, 16 18" stroke="none" fill="black" fill-rule="evenodd"/>
</svg>