<svg xmlns="http://www.w3.org/2000/svg" width="24" height="24" viewBox="0 0 24 24" version="1.1">
	<path d="M 5 4 C 4.515 4, 3.816 4.489, 3.446 5.087 C 3.077 5.685, 3.275 6.675, 3.887 7.287 C 4.704 8.104, 5.296 8.104, 6.113 7.287 C 6.725 6.675, 6.923 5.685, 6.554 5.087 C 6.184 4.489, 5.485 4, 5 4 M 17 5 C 16.515 5, 15.816 5.489, 15.446 6.087 C 15.077 6.685, 15.275 7.675, 15.887 8.287 C 16.704 9.104, 17.296 9.104, 18.113 8.287 C 18.725 7.675, 18.923 6.685, 18.554 6.087 C 18.184 5.489, 17.485 5, 17 5 M 7 10 C 6.515 10, 5.816 10.489, 5.446 11.087 C 5.077 11.685, 5.275 12.675, 5.887 13.287 C 6.704 14.104, 7.296 14.104, 8.113 13.287 C 8.725 12.675, 8.923 11.685, 8.554 11.087 C 8.184 10.489, 7.485 10, 7 10 M 12 15 C 11.515 15, 10.816 15.489, 10.446 16.087 C 10.077 16.685, 10.275 17.675, 10.887 18.287 C 11.704 19.104, 12.296 19.104, 13.113 18.287 C 13.725 17.675, 13.923 16.685, 13.554 16.087 C 13.184 15.489, 12.485 15, 12 15 M 18 16 C 17.515 16, 16.816 16.489, 16.446 17.087 C 16.077 17.685, 16.275 18.675, 16.887 19.287 C 17.704 20.104, 18.296 20.104, 19.113 19.287 C 19.725 18.675, 19.923 17.685, 19.554 17.087 C 19.184 16.489, 18.485 16, 18 16" stroke="none" fill="black" fill-rule="evenodd"/>
</svg>