<svg xmlns="http://www.w3.org/2000/svg" width="24" height="24" viewBox="0 0 24 24" version="1.1">
	<path d="M 3 2 C 2.400 2, 2 6, 2 12 L 2 22 12 22 C 18 22, 22 21.600, 22 21 C 22 20.407, 18.333 20, 13 20 L 4 20 4 11 C 4 5.667, 3.593 2, 3 2 M 19.222 7 C 18.794 7, 17.439 8.005, 16.211 9.234 C 14.365 11.079, 13.652 11.264, 12.104 10.297 C 10.542 9.321, 9.849 9.531, 7.944 11.559 C 6.687 12.897, 5.971 14.305, 6.353 14.687 C 6.735 15.068, 7.774 14.655, 8.661 13.768 C 9.934 12.495, 10.660 12.395, 12.103 13.297 C 13.622 14.245, 14.447 13.945, 16.966 11.532 C 18.635 9.934, 20 8.260, 20 7.813 C 20 7.366, 19.650 7, 19.222 7" stroke="none" fill="black" fill-rule="evenodd"/>
</svg>