<svg xmlns="http://www.w3.org/2000/svg" width="24" height="24" viewBox="0 0 24 24" version="1.1">
	<path d="M 17 12 C 17 17.333, 17.407 21, 18 21 C 18.593 21, 19 17.333, 19 12 C 19 6.667, 18.593 3, 18 3 C 17.407 3, 17 6.667, 17 12 M 11 15 C 11 18.333, 11.444 21, 12 21 C 12.556 21, 13 18.333, 13 15 C 13 11.667, 12.556 9, 12 9 C 11.444 9, 11 11.667, 11 15 M 5 18 C 5 19.650, 5.450 21, 6 21 C 6.550 21, 7 19.650, 7 18 C 7 16.350, 6.550 15, 6 15 C 5.450 15, 5 16.350, 5 18" stroke="none" fill="#000000" fill-rule="evenodd"/>
</svg>