<svg xmlns="http://www.w3.org/2000/svg" width="24" height="24" viewBox="0 0 24 24" version="1.1">
	<path d="M 7.689 4.766 C 5.351 7.104, 4.713 7.302, 2.992 6.227 C 0.501 4.671, 0.379 6.128, 2.815 8.333 C 4.519 9.875, 4.838 9.762, 7.997 6.503 C 9.849 4.593, 11.145 2.812, 10.879 2.545 C 10.612 2.279, 9.177 3.278, 7.689 4.766 M 13.780 10.694 C 9.158 15.316, 9.055 15.359, 7.037 13.533 C 3.902 10.696, 3.237 12.691, 6.297 15.752 L 8.988 18.443 14.494 13.006 C 19.711 7.854, 20.966 6, 19.237 6 C 18.817 6, 16.361 8.112, 13.780 10.694 M 16.474 16.026 C 13.223 19.312, 11.014 22, 11.565 22 C 12.867 22, 23.539 11.206, 22.884 10.551 C 22.610 10.277, 19.725 12.741, 16.474 16.026" stroke="none" fill="#000000" fill-rule="evenodd"/>
</svg>