<svg xmlns="http://www.w3.org/2000/svg" width="24" height="24" viewBox="0 0 24 24" version="1.1">
	<path d="M 10.879 2.545 C 10.612 2.279, 9.177 3.278, 7.689 4.766 C 5.351 7.104, 4.713 7.302, 2.992 6.227 C 1.896 5.543, 1 5.367, 1 5.837 C 1 6.306, 1.817 7.429, 2.815 8.333 C 4.519 9.875, 4.838 9.762, 7.997 6.503 C 9.849 4.593, 11.145 2.812, 10.879 2.545 M 19.237 6 C 18.817 6, 16.361 8.112, 13.780 10.694 C 9.158 15.316, 9.055 15.359, 7.037 13.533 C 5.910 12.513, 4.677 11.990, 4.297 12.370 C 3.917 12.750, 4.817 14.272, 6.297 15.752 L 8.988 18.443 14.494 13.006 C 17.522 10.015, 20 7.215, 20 6.784 C 20 6.353, 19.657 6, 19.237 6 M 22.884 10.551 C 22.610 10.277, 19.725 12.741, 16.474 16.026 C 13.223 19.312, 11.014 22, 11.565 22 C 12.117 22, 15.002 19.536, 17.976 16.525 C 20.950 13.513, 23.158 10.825, 22.884 10.551" stroke="none" fill="black" fill-rule="evenodd"/>
</svg>