<svg xmlns="http://www.w3.org/2000/svg" width="24" height="24" viewBox="0 0 24 24" version="1.1">
	<path d="M 2 7.922 L 2 14.845 5.750 16.058 C 7.813 16.725, 11.231 18.141, 13.347 19.205 C 15.463 20.269, 17.405 20.928, 17.664 20.669 C 18.430 19.903, 20.301 5.968, 19.717 5.384 C 19.089 4.755, 5.086 1.042, 3.250 1.017 C 2.369 1.005, 2 3.042, 2 7.922 M 7.599 6.604 C 7.234 7.554, 6.350 7.965, 5.429 7.611 C 4.197 7.138, 3.939 7.648, 4.187 10.066 C 4.462 12.749, 5.192 13.398, 10.227 15.438 L 15.955 17.758 16.532 14.129 C 16.850 12.133, 17.266 9.721, 17.456 8.770 C 17.708 7.509, 16.811 6.764, 14.151 6.025 C 9.211 4.653, 8.317 4.732, 7.599 6.604" stroke="none" fill="black" fill-rule="evenodd"/>
</svg>