<svg xmlns="http://www.w3.org/2000/svg" width="24" height="24" viewBox="0 0 24 24" version="1.1">
	<path d="M 2.354 3.789 C 1.582 4.561, 1 7.261, 1 10.071 C 1 14.277, 1.284 15, 2.934 15 C 4.300 15, 4.960 15.807, 5.184 17.750 C 5.493 20.435, 5.652 20.500, 12 20.500 C 18.348 20.500, 18.507 20.435, 18.816 17.750 C 19.040 15.807, 19.700 15, 21.066 15 C 22.716 15, 23 14.277, 23 10.071 C 23 2.962, 21.698 2.052, 11.827 2.262 C 6.536 2.375, 3.236 2.907, 2.354 3.789 M 4.500 5 C 4.160 5.550, 4.359 6, 4.941 6 C 5.523 6, 6 6.450, 6 7 C 6 7.550, 5.325 8, 4.500 8 C 3.567 8, 3 8.944, 3 10.500 C 3 12.611, 3.467 13, 6 13 C 8.727 13, 9 12.700, 9 9.700 C 9 5.349, 6.134 2.356, 4.500 5 M 12.200 5.200 C 10.810 6.590, 10.563 13, 11.899 13 C 12.394 13, 12.960 10.975, 13.157 8.500 C 13.353 6.025, 13.489 4, 13.457 4 C 13.426 4, 12.860 4.540, 12.200 5.200 M 15 9.500 C 15 11.425, 15.450 13, 16 13 C 16.550 13, 17 11.425, 17 9.500 C 17 7.575, 16.550 6, 16 6 C 15.450 6, 15 7.575, 15 9.500 M 19 10.500 C 19 11.875, 19.450 13, 20 13 C 20.550 13, 21 11.875, 21 10.500 C 21 9.125, 20.550 8, 20 8 C 19.450 8, 19 9.125, 19 10.500 M 7 17 C 7 18.733, 7.667 19, 12 19 C 16.333 19, 17 18.733, 17 17 C 17 15.267, 16.333 15, 12 15 C 7.667 15, 7 15.267, 7 17" stroke="none" fill="black" fill-rule="evenodd"/>
</svg>