<svg xmlns="http://www.w3.org/2000/svg" width="24" height="24" viewBox="0 0 24 24" version="1.1">
	<path d="M 14.598 1.119 C 13.994 1.185, 11.925 1.823, 10 2.537 C 8.075 3.251, 6.599 4.283, 6.721 4.830 C 6.842 5.377, 5.605 6.291, 3.971 6.860 C 2.337 7.430, 1 8.418, 1 9.055 C 1 9.704, 1.700 9.945, 2.593 9.603 C 3.469 9.267, 5.343 8.701, 6.757 8.346 C 9.002 7.783, 9.225 7.942, 8.512 9.600 C 8.063 10.645, 7.489 12.969, 7.237 14.764 C 6.984 16.562, 7.332 18.695, 8.011 19.514 C 8.690 20.331, 10.288 21, 11.563 21 C 12.839 21, 14.160 20.550, 14.500 20 C 14.840 19.450, 16.351 19, 17.859 19 C 19.367 19, 21.140 18.460, 21.800 17.800 C 22.460 17.140, 23 15.591, 23 14.357 C 23 13.123, 22.202 11.525, 21.228 10.807 C 20.253 10.088, 18.610 7.588, 17.576 5.250 C 16.542 2.912, 15.202 1.054, 14.598 1.119 M 13.589 4.100 C 12.990 4.155, 11.375 4.560, 10 5 C 7.812 5.701, 7.760 5.813, 9.583 5.900 C 10.729 5.955, 11.968 6.302, 12.337 6.670 C 12.705 7.039, 12.320 8.389, 11.480 9.670 C 10.028 11.887, 10.070 12, 12.355 12 C 13.675 12, 15.274 11.375, 15.907 10.612 C 16.778 9.563, 16.768 8.586, 15.869 6.612 C 15.215 5.175, 14.189 4.045, 13.589 4.100 M 18.735 12.188 C 17.778 12.003, 16.711 12.591, 16.364 13.493 C 16.018 14.396, 16.214 15.614, 16.800 16.200 C 17.386 16.786, 18.604 16.982, 19.507 16.636 C 20.409 16.289, 20.997 15.222, 20.812 14.265 C 20.628 13.307, 19.693 12.372, 18.735 12.188 M 11.735 14.188 C 10.778 14.003, 9.711 14.591, 9.364 15.493 C 9.018 16.396, 9.214 17.614, 9.800 18.200 C 10.386 18.786, 11.604 18.982, 12.507 18.636 C 13.409 18.289, 13.997 17.222, 13.812 16.265 C 13.628 15.307, 12.693 14.372, 11.735 14.188" stroke="none" fill="black" fill-rule="evenodd"/>
</svg>