<svg xmlns="http://www.w3.org/2000/svg" width="24" height="24" viewBox="0 0 24 24" version="1.1">
	<path d="M 10 2.537 C 8.075 3.251, 6.599 4.283, 6.721 4.830 C 6.842 5.377, 5.605 6.291, 3.971 6.860 C 2.337 7.430, 1 8.418, 1 9.055 C 1 9.704, 1.700 9.945, 2.593 9.603 C 3.469 9.267, 5.343 8.701, 6.757 8.346 C 9.002 7.783, 9.225 7.942, 8.512 9.600 C 7.012 13.088, 6.764 18.010, 8.011 19.514 C 9.410 21.199, 13.567 21.510, 14.500 20 C 14.840 19.450, 16.351 19, 17.859 19 C 19.367 19, 21.140 18.460, 21.800 17.800 C 23.566 16.034, 23.260 12.305, 21.228 10.807 C 20.253 10.088, 18.610 7.588, 17.576 5.250 C 15.552 0.673, 15.283 0.577, 10 2.537 M 10 5 C 7.812 5.701, 7.760 5.813, 9.583 5.900 C 12.671 6.048, 13.185 7.069, 11.480 9.670 C 10.028 11.887, 10.070 12, 12.355 12 C 15.915 12, 17.333 9.826, 15.869 6.612 C 14.617 3.865, 14.040 3.706, 10 5 M 16.364 13.493 C 16.018 14.396, 16.214 15.614, 16.800 16.200 C 18.324 17.724, 21.210 16.331, 20.812 14.265 C 20.369 11.963, 17.165 11.407, 16.364 13.493 M 9.364 15.493 C 9.018 16.396, 9.214 17.614, 9.800 18.200 C 11.324 19.724, 14.210 18.331, 13.812 16.265 C 13.369 13.963, 10.165 13.407, 9.364 15.493" stroke="none" fill="#000000" fill-rule="evenodd"/>
</svg>