<svg xmlns="http://www.w3.org/2000/svg" width="24" height="24" viewBox="0 0 24 24" version="1.1">
	<path d="M 12.456 0.203 C 10.791 0.039, 9.107 0.227, 8.714 0.619 C 8.321 1.012, 8 2.010, 8 2.838 C 8 3.665, 8.745 5.165, 9.655 6.171 C 11.195 7.873, 11.195 8.127, 9.655 9.829 C 8.745 10.835, 8 12.410, 8 13.329 C 8 14.248, 8.398 15, 8.883 15 C 9.369 15, 10.002 14.100, 10.290 13 C 10.577 11.900, 11.347 11, 12 11 C 12.653 11, 13.423 11.900, 13.710 13 C 13.998 14.100, 14.631 15, 15.117 15 C 15.602 15, 16 14.248, 16 13.329 C 16 12.410, 15.255 10.835, 14.345 9.829 C 12.803 8.125, 12.809 7.868, 14.433 6.074 C 15.391 5.015, 16.020 3.328, 15.829 2.324 C 15.602 1.125, 14.447 0.398, 12.456 0.203 M 12 1 C 11.515 1, 10.816 1.489, 10.446 2.087 C 10.077 2.685, 10.275 3.675, 10.887 4.287 C 11.704 5.104, 12.296 5.104, 13.113 4.287 C 13.725 3.675, 13.923 2.685, 13.554 2.087 C 13.184 1.489, 12.485 1, 12 1 M 12 17 C 8.667 17, 6 17.444, 6 18 C 6 18.556, 8.667 19, 12 19 C 15.333 19, 18 18.556, 18 18 C 18 17.444, 15.333 17, 12 17 M 12 20 C 8 20, 5 20.429, 5 21 C 5 21.571, 8 22, 12 22 C 16 22, 19 21.571, 19 21 C 19 20.429, 16 20, 12 20" stroke="none" fill="black" fill-rule="evenodd"/>
</svg>