<svg xmlns="http://www.w3.org/2000/svg" width="24" height="24" viewBox="0 0 24 24" version="1.1">
	<path d="M 8.714 0.619 C 7.507 1.826, 7.918 4.252, 9.655 6.171 C 11.195 7.873, 11.195 8.127, 9.655 9.829 C 7.893 11.776, 7.412 15, 8.883 15 C 9.369 15, 10.002 14.100, 10.290 13 C 10.964 10.420, 13.036 10.420, 13.710 13 C 13.998 14.100, 14.631 15, 15.117 15 C 16.588 15, 16.107 11.776, 14.345 9.829 C 12.803 8.125, 12.809 7.868, 14.433 6.074 C 16.991 3.248, 16.085 0.559, 12.456 0.203 C 10.791 0.039, 9.107 0.227, 8.714 0.619 M 10.446 2.087 C 9.416 3.755, 11.733 5.667, 13.113 4.287 C 14.267 3.133, 13.545 1, 12 1 C 11.515 1, 10.816 1.489, 10.446 2.087 M 6 18 C 6 18.556, 8.667 19, 12 19 C 15.333 19, 18 18.556, 18 18 C 18 17.444, 15.333 17, 12 17 C 8.667 17, 6 17.444, 6 18 M 5 21 C 5 21.571, 8 22, 12 22 C 16 22, 19 21.571, 19 21 C 19 20.429, 16 20, 12 20 C 8 20, 5 20.429, 5 21" stroke="none" fill="black" fill-rule="evenodd"/>
</svg>