<svg xmlns="http://www.w3.org/2000/svg" width="24" height="24" viewBox="0 0 24 24" version="1.1">
	<path d="M 5 11 C 5 15.667, 4.583 19, 4 19 C 3.450 19, 3 19.450, 3 20 C 3 20.593, 6.667 21, 12 21 C 17.333 21, 21 20.593, 21 20 C 21 19.450, 20.550 19, 20 19 C 19.417 19, 19 15.667, 19 11 L 19 3 12 3 L 5 3 5 11 M 9.750 5.706 C 10.988 5.944, 13.012 5.944, 14.250 5.706 C 15.488 5.467, 14.475 5.272, 12 5.272 C 9.525 5.272, 8.512 5.467, 9.750 5.706 M 7 13.500 L 7 19 12 19 L 17 19 17 13.500 L 17 8 12 8 L 7 8 7 13.500" stroke="none" fill="black" fill-rule="evenodd"/>
</svg>