<svg xmlns="http://www.w3.org/2000/svg" width="24" height="24" viewBox="0 0 24 24" version="1.1">
	<path d="M 10.413 2.322 C 8.885 4.071, 7.767 9, 8.898 9 C 9.412 9, 10.060 8.437, 10.338 7.750 C 10.615 7.063, 10.878 8.188, 10.921 10.250 C 10.964 12.313, 11.450 14, 12 14 C 12.550 14, 13.036 12.313, 13.079 10.250 C 13.122 8.188, 13.385 7.063, 13.662 7.750 C 13.940 8.437, 14.588 9, 15.102 9 C 16.323 9, 15.035 3.892, 13.403 2.260 C 11.885 0.742, 11.790 0.744, 10.413 2.322 M 6 18 C 6 18.556, 8.667 19, 12 19 C 15.333 19, 18 18.556, 18 18 C 18 17.444, 15.333 17, 12 17 C 8.667 17, 6 17.444, 6 18 M 5 21 C 5 21.571, 8 22, 12 22 C 16 22, 19 21.571, 19 21 C 19 20.429, 16 20, 12 20 C 8 20, 5 20.429, 5 21" stroke="none" fill="black" fill-rule="evenodd"/>
</svg>