<svg xmlns="http://www.w3.org/2000/svg" width="24" height="24" viewBox="0 0 24 24" version="1.1">
	<path d="M 12 5 C 11.656 5, 10.085 6.345, 8.510 7.990 C 6.935 9.634, 5.952 11.286, 6.327 11.660 C 6.701 12.035, 8.131 11.286, 9.504 9.996 L 12 7.651 14.496 9.996 C 15.869 11.286, 17.299 12.035, 17.673 11.660 C 18.048 11.286, 17.065 9.634, 15.490 7.990 C 13.915 6.345, 12.344 5, 12 5 M 12 12 C 11.656 12, 10.085 13.345, 8.510 14.990 C 6.935 16.634, 5.952 18.286, 6.327 18.660 C 6.701 19.035, 8.131 18.286, 9.504 16.996 L 12 14.651 14.496 16.996 C 15.869 18.286, 17.299 19.035, 17.673 18.660 C 18.048 18.286, 17.065 16.634, 15.490 14.990 C 13.915 13.345, 12.344 12, 12 12" stroke="none" fill="black" fill-rule="evenodd"/>
</svg>