<svg xmlns="http://www.w3.org/2000/svg" width="24" height="24" viewBox="0 0 24 24" version="1.1">
	<path d="M 11.187 6 C 10.740 6, 9.071 7.360, 7.479 9.022 L 4.583 12.045 7.759 15.221 C 9.507 16.968, 11.252 18.081, 11.639 17.695 C 12.025 17.308, 11.286 15.869, 9.996 14.496 L 7.651 12 9.826 9.686 C 11.022 8.413, 12 7.063, 12 6.686 C 12 6.308, 11.634 6, 11.187 6 M 18.187 6 C 17.740 6, 16.071 7.360, 14.479 9.022 L 11.583 12.045 14.759 15.221 C 16.507 16.968, 18.252 18.081, 18.639 17.695 C 19.025 17.308, 18.286 15.869, 16.996 14.496 L 14.651 12 16.826 9.686 C 18.022 8.413, 19 7.063, 19 6.686 C 19 6.308, 18.634 6, 18.187 6" stroke="none" fill="black" fill-rule="evenodd"/>
</svg>