<svg xmlns="http://www.w3.org/2000/svg" width="24" height="24" viewBox="0 0 24 24" version="1.1">
	<path d="M 5.813 6 C 5.366 6, 5 6.308, 5 6.686 C 5 7.063, 5.978 8.413, 7.174 9.686 L 9.349 12 7.004 14.496 C 5.714 15.869, 4.975 17.308, 5.361 17.695 C 5.748 18.081, 7.493 16.968, 9.241 15.221 L 12.417 12.045 9.521 9.022 C 7.929 7.360, 6.260 6, 5.813 6 M 12.813 6 C 12.366 6, 12 6.308, 12 6.686 C 12 7.063, 12.978 8.413, 14.174 9.686 L 16.349 12 14.004 14.496 C 12.714 15.869, 11.975 17.308, 12.361 17.695 C 12.748 18.081, 14.493 16.968, 16.241 15.221 L 19.417 12.045 16.521 9.022 C 14.929 7.360, 13.260 6, 12.813 6" stroke="none" fill="black" fill-rule="evenodd"/>
</svg>