<svg xmlns="http://www.w3.org/2000/svg" width="24" height="24" viewBox="0 0 24 24" version="1.1">
	<path d="M 8.510 7.990 C 5.072 11.578, 5.945 13.340, 9.504 9.996 L 12 7.651 14.496 9.996 C 18.055 13.340, 18.928 11.578, 15.490 7.990 C 13.915 6.345, 12.344 5, 12 5 C 11.656 5, 10.085 6.345, 8.510 7.990 M 8.510 14.990 C 5.072 18.578, 5.945 20.340, 9.504 16.996 L 12 14.651 14.496 16.996 C 18.055 20.340, 18.928 18.578, 15.490 14.990 C 13.915 13.345, 12.344 12, 12 12 C 11.656 12, 10.085 13.345, 8.510 14.990" stroke="none" fill="black" fill-rule="evenodd"/>
</svg>