<svg xmlns="http://www.w3.org/2000/svg" width="24" height="24" viewBox="0 0 24 24" version="1.1">
	<path d="M 6.686 5 C 6.308 5, 6 5.366, 6 5.813 C 6 6.260, 7.360 7.929, 9.022 9.521 L 12.045 12.417 15.221 9.241 C 16.968 7.493, 18.081 5.748, 17.695 5.361 C 17.308 4.975, 15.869 5.714, 14.496 7.004 L 12 9.349 9.686 7.174 C 8.413 5.978, 7.063 5, 6.686 5 M 6.686 12 C 6.308 12, 6 12.366, 6 12.813 C 6 13.260, 7.360 14.929, 9.022 16.521 L 12.045 19.417 15.221 16.241 C 16.968 14.493, 18.081 12.748, 17.695 12.361 C 17.308 11.975, 15.869 12.714, 14.496 14.004 L 12 16.349 9.686 14.174 C 8.413 12.978, 7.063 12, 6.686 12" stroke="none" fill="black" fill-rule="evenodd"/>
</svg>