<svg xmlns="http://www.w3.org/2000/svg" width="24" height="24" viewBox="0 0 24 24" version="1.1">
	<path d="M 7.917 1 C 7.412 1, 7 1.450, 7 2 C 7 2.550, 6.311 3, 5.469 3 C 4.626 3, 3.647 3.788, 3.292 4.750 C 2.936 5.713, 2.163 6.838, 1.573 7.250 C 0.851 7.755, 0.990 8.327, 2 9 C 3.333 9.889, 3.333 10.111, 2 11 C 0.667 11.889, 0.667 12.111, 2 13 C 3.333 13.889, 3.333 14.111, 2 15 C 0.990 15.673, 0.851 16.245, 1.573 16.750 C 2.163 17.163, 2.936 18.288, 3.292 19.250 C 3.647 20.212, 4.589 21, 5.385 21 C 6.182 21, 7.062 21.563, 7.341 22.250 C 7.722 23.191, 8.114 23.129, 8.924 22 C 9.880 20.667, 10.111 20.667, 11 22 C 11.889 23.333, 12.111 23.333, 13 22 C 13.889 20.667, 14.111 20.667, 15 22 C 15.673 23.010, 16.245 23.149, 16.750 22.427 C 17.163 21.837, 18.288 21.064, 19.250 20.708 C 20.212 20.353, 21 19.411, 21 18.615 C 21 17.818, 21.563 16.938, 22.250 16.659 C 23.191 16.278, 23.129 15.886, 22 15.076 C 20.667 14.120, 20.667 13.889, 22 13 C 23.333 12.111, 23.333 11.889, 22 11 C 20.667 10.111, 20.667 9.889, 22 9 C 23.010 8.327, 23.149 7.755, 22.427 7.250 C 21.837 6.838, 21.064 5.713, 20.708 4.750 C 20.353 3.788, 19.411 3, 18.615 3 C 17.818 3, 16.938 2.438, 16.659 1.750 C 16.278 0.809, 15.886 0.871, 15.076 2 C 14.120 3.333, 13.889 3.333, 13 2 C 12.111 0.667, 11.880 0.667, 10.924 2 C 10.114 3.129, 9.722 3.191, 9.341 2.250 C 9.062 1.563, 8.421 1, 7.917 1 M 12 5 L 5 5 5 12 L 5 19 12 19 L 19 19 19 12 L 19 5 12 5 M 12.241 7.192 C 9.212 6.973, 7.820 7.307, 7.420 8.347 C 7.112 9.151, 7.003 11.315, 7.180 13.155 C 7.491 16.405, 7.627 16.500, 12 16.500 L 16.500 16.500 16.500 12 L 16.500 7.500 12.241 7.192 M 12 9 C 9.333 9, 9 9.333, 9 12 C 9 14.667, 9.333 15, 12 15 C 14.667 15, 15 14.667, 15 12 C 15 9.333, 14.667 9, 12 9" stroke="none" fill="black" fill-rule="evenodd"/>
</svg>