<svg viewBox="0 0 24 24" xmlns="http://www.w3.org/2000/svg" fill="none" stroke="#000000" stroke-width="2" stroke-linecap="round" stroke-linejoin="round"><path d="M11.714 1.037 C 11.655 1.056,11.549 1.105,11.478 1.146 C 11.351 1.218,7.291 6.242,7.106 6.555 C 6.971 6.783,6.983 7.238,7.131 7.489 C 7.350 7.861,7.631 7.996,8.199 7.998 L 8.579 8.000 6.874 9.710 C 5.936 10.650,5.135 11.483,5.095 11.560 C 5.043 11.659,5.021 11.788,5.021 12.000 C 5.020 12.255,5.036 12.328,5.128 12.484 C 5.187 12.585,5.300 12.716,5.377 12.775 C 5.643 12.978,5.776 13.000,6.715 13.000 L 7.579 13.000 5.374 15.210 C 4.161 16.425,3.135 17.483,3.095 17.560 C 3.043 17.659,3.021 17.788,3.021 18.000 C 3.020 18.255,3.036 18.328,3.128 18.484 C 3.187 18.585,3.300 18.716,3.377 18.775 C 3.683 19.008,3.536 19.000,7.423 19.000 L 10.997 19.000 11.008 20.653 L 11.020 22.306 11.141 22.503 C 11.543 23.156,12.457 23.156,12.859 22.503 L 12.980 22.306 12.992 20.653 L 13.003 19.000 16.592 18.998 C 19.485 18.997,20.209 18.986,20.330 18.943 C 20.845 18.759,21.112 18.205,20.940 17.675 C 20.874 17.472,20.741 17.331,18.646 15.230 L 16.422 13.000 17.301 12.998 C 17.930 12.997,18.223 12.981,18.330 12.943 C 18.845 12.759,19.112 12.204,18.940 11.675 C 18.874 11.474,18.756 11.346,17.146 9.730 L 15.423 8.000 15.801 7.998 C 16.368 7.996,16.650 7.861,16.869 7.489 C 17.017 7.238,17.029 6.783,16.894 6.555 C 16.847 6.475,15.872 5.240,14.728 3.810 C 12.889 1.512,12.627 1.201,12.464 1.122 C 12.263 1.025,11.884 0.981,11.714 1.037 M12.976 4.820 L 13.921 6.000 13.410 6.000 C 12.836 6.000,12.656 6.037,12.412 6.206 C 12.241 6.323,12.040 6.609,12.040 6.734 C 12.040 6.770,12.022 6.800,12.000 6.800 C 11.978 6.800,11.960 6.770,11.960 6.734 C 11.960 6.621,11.771 6.338,11.618 6.221 C 11.391 6.048,11.167 6.000,10.593 6.000 L 10.079 6.000 11.024 4.820 C 11.543 4.171,11.983 3.640,12.000 3.640 C 12.017 3.640,12.457 4.171,12.976 4.820 M12.040 7.262 C 12.040 7.426,12.288 7.700,13.874 9.290 L 15.579 11.000 14.739 11.000 C 14.250 11.000,13.834 11.019,13.741 11.045 C 13.502 11.111,13.255 11.300,13.131 11.511 C 13.036 11.673,13.020 11.743,13.021 12.000 C 13.021 12.212,13.043 12.341,13.095 12.440 C 13.135 12.517,14.161 13.574,15.374 14.790 L 17.579 17.000 12.001 17.000 L 6.422 17.000 8.646 14.770 C 10.741 12.669,10.874 12.528,10.940 12.325 C 11.118 11.777,10.831 11.218,10.290 11.055 C 10.160 11.016,9.863 11.000,9.265 11.000 L 8.423 11.000 10.147 9.270 C 11.627 7.786,11.879 7.516,11.922 7.370 C 11.972 7.203,12.040 7.140,12.040 7.262 " stroke="none" fill-rule="evenodd" fill="black"></path></svg>