<svg xmlns="http://www.w3.org/2000/svg" width="24" height="24" viewBox="0 0 24 24" version="1.1">
	<path d="M 12 1 C 11.525 1, 10.156 2.376, 8.959 4.058 C 7.762 5.739, 7.057 7.390, 7.393 7.726 C 7.729 8.063, 7.234 9.189, 6.292 10.230 C 4.991 11.667, 4.876 12.305, 5.813 12.885 C 6.727 13.449, 6.521 14.123, 5.024 15.479 C 3.911 16.486, 3 17.690, 3 18.155 C 3 18.620, 4.800 19, 7 19 C 10.333 19, 11 19.333, 11 21 C 11 22.100, 11.450 23, 12 23 C 12.550 23, 13 22.100, 13 21 C 13 19.333, 13.667 19, 17 19 C 19.200 19, 21 18.620, 21 18.155 C 21 17.690, 20.089 16.486, 18.976 15.479 C 17.479 14.123, 17.273 13.449, 18.187 12.885 C 19.124 12.305, 19.009 11.667, 17.708 10.230 C 16.766 9.189, 16.271 8.063, 16.607 7.726 C 16.943 7.390, 16.238 5.739, 15.041 4.058 C 13.844 2.376, 12.475 1, 12 1 M 12 4 C 11.450 4, 11 4.450, 11 5 C 11 5.550, 11.450 6, 12 6 C 12.550 6, 13 5.550, 13 5 C 13 4.450, 12.550 4, 12 4 M 12 8 C 11.585 8, 10.721 8.631, 10.081 9.403 C 9.186 10.480, 9.216 10.912, 10.208 11.266 C 11.125 11.592, 10.796 12.491, 9.076 14.363 L 6.651 17 12 17 L 17.349 17 14.924 14.363 C 13.204 12.491, 12.875 11.592, 13.792 11.266 C 14.784 10.912, 14.814 10.480, 13.919 9.403 C 13.279 8.631, 12.415 8, 12 8" stroke="none" fill="black" fill-rule="evenodd"/>
</svg>