<svg xmlns="http://www.w3.org/2000/svg" width="24" height="24" viewBox="0 0 24 24" version="1.1">
	<path d="M 11 3.417 C 11 4.196, 10.438 5.096, 9.750 5.417 C 8.750 5.883, 8.750 6.117, 9.750 6.583 C 10.438 6.904, 11 8.621, 11 10.399 C 11 13.129, 10.378 13.981, 7 15.880 C 4.043 17.542, 3 18.763, 3 20.564 C 3 22.965, 3.130 23, 12 23 C 20.870 23, 21 22.965, 21 20.564 C 21 18.763, 19.957 17.542, 17 15.880 C 13.622 13.981, 13 13.129, 13 10.399 C 13 8.621, 13.563 6.904, 14.250 6.583 C 15.250 6.117, 15.250 5.883, 14.250 5.417 C 13.563 5.096, 13 4.196, 13 3.417 C 13 2.638, 12.550 2, 12 2 C 11.450 2, 11 2.638, 11 3.417 M 8.750 17.392 C 5.626 19.763, 6.740 21, 12 21 C 17.370 21, 18.864 19.068, 15.066 17.035 C 12.529 15.678, 10.886 15.771, 8.750 17.392" stroke="none" fill="#000000" fill-rule="evenodd"/>
</svg>