<svg viewBox="0 0 24 24" xmlns="http://www.w3.org/2000/svg" fill="none" stroke="#000000" stroke-width="2" stroke-linecap="round" stroke-linejoin="round"><path d="M11.695 2.057 C 11.466 2.129,11.256 2.299,11.128 2.516 L 11.020 2.700 11.008 3.850 L 10.995 5.000 10.444 5.000 C 9.648 5.000,9.367 5.111,9.128 5.516 C 9.037 5.672,9.020 5.746,9.020 6.000 C 9.020 6.256,9.036 6.328,9.131 6.489 C 9.256 6.702,9.449 6.864,9.670 6.943 C 9.768 6.978,10.023 6.997,10.410 6.998 L 11.000 7.000 10.998 10.230 L 10.997 13.460 7.210 15.820 C 5.078 17.149,3.359 18.247,3.275 18.332 C 3.001 18.611,2.995 18.656,3.008 20.585 L 3.020 22.300 3.131 22.489 C 3.256 22.702,3.449 22.864,3.670 22.943 C 3.893 23.022,20.107 23.022,20.330 22.943 C 20.551 22.864,20.744 22.702,20.869 22.489 L 20.980 22.300 20.992 20.585 C 21.005 18.656,20.999 18.611,20.725 18.332 C 20.641 18.247,18.922 17.149,16.790 15.820 L 13.003 13.460 13.002 10.230 L 13.000 7.000 13.590 6.998 C 13.977 6.997,14.232 6.978,14.330 6.943 C 14.551 6.864,14.744 6.702,14.869 6.489 C 14.964 6.328,14.980 6.256,14.980 6.000 C 14.980 5.746,14.963 5.672,14.872 5.516 C 14.633 5.111,14.352 5.000,13.556 5.000 L 13.005 5.000 12.992 3.850 L 12.980 2.700 12.872 2.516 C 12.628 2.101,12.150 1.915,11.695 2.057 M14.599 16.804 C 16.671 18.100,17.160 18.421,17.137 18.474 C 17.010 18.772,17.003 18.845,17.002 19.910 L 17.000 21.000 12.000 21.000 L 7.000 21.000 6.998 19.910 C 6.997 19.035,6.985 18.788,6.936 18.660 C 6.902 18.572,6.872 18.476,6.867 18.448 C 6.860 18.398,11.888 15.211,11.986 15.204 C 12.012 15.202,13.188 15.922,14.599 16.804 " stroke="none" fill-rule="evenodd" fill="black"></path></svg>