<svg xmlns="http://www.w3.org/2000/svg" width="24" height="24" viewBox="0 0 24 24" version="1.1">
	<path d="M 10.059 1 C 8.991 1, 7.821 1.480, 7.459 2.067 C 7.096 2.653, 7.036 3.369, 7.325 3.658 C 7.613 3.946, 8.783 3.886, 9.925 3.524 C 11.066 3.162, 12 2.446, 12 1.933 C 12 1.420, 11.127 1, 10.059 1 M 15.628 2.022 C 13.576 2.044, 13.588 2.112, 15.972 3.944 C 17.332 4.989, 18.816 5.614, 19.271 5.333 C 19.725 5.052, 19.570 4.187, 18.926 3.411 C 18.282 2.635, 16.798 2.010, 15.628 2.022 M 5.102 4.563 C 4.621 4.266, 3.796 4.580, 3.269 5.261 C 2.742 5.942, 2.009 7.031, 1.639 7.681 C 1.270 8.330, 1.375 9.114, 1.874 9.422 C 2.373 9.731, 3.500 8.885, 4.380 7.544 C 5.259 6.202, 5.584 4.861, 5.102 4.563 M 21.098 7.193 C 20.053 6.850, 19.859 7.339, 20.335 9.116 C 20.686 10.427, 20.979 11.838, 20.986 12.250 C 20.994 12.662, 21.480 13, 22.066 13 C 22.653 13, 22.990 11.797, 22.816 10.327 C 22.642 8.857, 21.869 7.447, 21.098 7.193 M 1.893 12 C 1.402 12, 1 12.845, 1 13.878 C 1 14.910, 1.675 16.315, 2.500 17 C 3.723 18.015, 4 17.960, 4 16.704 C 4 15.857, 3.727 14.452, 3.393 13.582 C 3.059 12.712, 2.384 12, 1.893 12 M 21.241 15 C 20.823 15, 19.892 15.944, 19.171 17.097 C 18.451 18.251, 18.107 19.440, 18.407 19.740 C 18.706 20.040, 19.638 19.716, 20.476 19.020 C 21.314 18.324, 22 17.135, 22 16.378 C 22 15.620, 21.658 15, 21.241 15 M 6.582 19.393 C 5.712 19.059, 5 19.268, 5 19.858 C 5 20.447, 5.870 21.395, 6.934 21.965 C 7.998 22.534, 9.123 23, 9.434 23 C 9.745 23, 10 22.325, 10 21.500 C 10 20.675, 9.587 20, 9.082 20 C 8.577 20, 7.452 19.727, 6.582 19.393 M 15.833 20.116 C 15.100 20.180, 13.713 20.438, 12.750 20.689 C 11.787 20.941, 11 21.594, 11 22.140 C 11 22.686, 12.203 22.990, 13.673 22.816 C 15.143 22.642, 16.530 21.938, 16.756 21.250 C 16.982 20.563, 16.567 20.052, 15.833 20.116" stroke="none" fill="black" fill-rule="evenodd"/>
</svg>