<svg xmlns="http://www.w3.org/2000/svg" width="24" height="24" viewBox="0 0 24 24" version="1.1">
	<path d="M 13.403 1.438 C 11.256 1.210, 8.600 1.416, 7.500 1.894 C 6.400 2.373, 4.600 3.764, 3.500 4.987 C 2.078 6.568, 1.500 8.618, 1.500 12.082 C 1.500 16.074, 2.001 17.456, 4.273 19.727 C 6.557 22.011, 7.919 22.500, 12 22.500 C 16.081 22.500, 17.443 22.011, 19.727 19.727 C 22.011 17.443, 22.500 16.081, 22.500 12 C 22.500 7.999, 22 6.546, 19.903 4.448 C 18.256 2.802, 15.876 1.699, 13.403 1.438 M 12 3 C 9.848 3, 7.918 3.928, 5.923 5.923 C 3.928 7.918, 3 9.848, 3 12 C 3 14.152, 3.928 16.082, 5.923 18.077 C 7.918 20.072, 9.848 21, 12 21 C 14.152 21, 16.082 20.072, 18.077 18.077 C 20.072 16.082, 21 14.152, 21 12 C 21 9.848, 20.072 7.918, 18.077 5.923 C 16.082 3.928, 14.152 3, 12 3 M 16.195 8 C 15.753 8, 14.469 9.235, 13.342 10.744 C 11.544 13.152, 11.088 13.318, 9.622 12.102 C 8.703 11.339, 7.632 11.035, 7.241 11.426 C 6.850 11.817, 7.648 12.996, 9.015 14.046 C 10.382 15.096, 11.801 15.966, 12.168 15.978 C 12.536 15.990, 13.774 14.484, 14.918 12.632 C 16.063 10.780, 17 8.980, 17 8.632 C 17 8.284, 16.638 8, 16.195 8" stroke="none" fill="black" fill-rule="evenodd"/>
</svg>