<svg xmlns="http://www.w3.org/2000/svg" width="24" height="24" viewBox="0 0 24 24" version="1.1">
	<path d="M 7.459 2.067 C 7.096 2.653, 7.036 3.369, 7.325 3.658 C 8.110 4.443, 12 3.008, 12 1.933 C 12 0.645, 8.269 0.755, 7.459 2.067 M 15.972 3.944 C 17.332 4.989, 18.816 5.614, 19.271 5.333 C 20.643 4.485, 17.907 1.998, 15.628 2.022 C 13.576 2.044, 13.588 2.112, 15.972 3.944 M 3.269 5.261 C 1.370 7.718, 0.983 8.872, 1.874 9.422 C 2.373 9.731, 3.500 8.885, 4.380 7.544 C 6.009 5.056, 5.012 3.006, 3.269 5.261 M 20.335 9.116 C 20.686 10.427, 20.979 11.838, 20.986 12.250 C 20.994 12.662, 21.480 13, 22.066 13 C 23.626 13, 22.749 7.736, 21.098 7.193 C 20.053 6.850, 19.859 7.339, 20.335 9.116 M 1 13.878 C 1 14.910, 1.675 16.315, 2.500 17 C 3.723 18.015, 4 17.960, 4 16.704 C 4 14.427, 2.913 12, 1.893 12 C 1.402 12, 1 12.845, 1 13.878 M 19.171 17.097 C 18.451 18.251, 18.107 19.440, 18.407 19.740 C 19.224 20.557, 22 17.959, 22 16.378 C 22 14.358, 20.670 14.697, 19.171 17.097 M 5 19.858 C 5 20.831, 8.061 23, 9.434 23 C 9.745 23, 10 22.325, 10 21.500 C 10 20.675, 9.587 20, 9.082 20 C 8.577 20, 7.452 19.727, 6.582 19.393 C 5.712 19.059, 5 19.268, 5 19.858 M 12.750 20.689 C 11.787 20.941, 11 21.594, 11 22.140 C 11 23.562, 16.264 22.748, 16.756 21.250 C 17.168 19.997, 16.016 19.836, 12.750 20.689" stroke="none" fill="black" fill-rule="evenodd"/>
</svg>