<svg xmlns="http://www.w3.org/2000/svg" width="24" height="24" viewBox="0 0 24 24" version="1.1">
	<path d="M 7.500 1.894 C 3.457 3.652, 1.500 6.976, 1.500 12.082 C 1.500 16.074, 2.001 17.456, 4.273 19.727 C 6.557 22.011, 7.919 22.500, 12 22.500 C 19.011 22.500, 22.500 19.011, 22.500 12 C 22.500 7.999, 22 6.546, 19.903 4.448 C 17.099 1.644, 10.974 0.383, 7.500 1.894 M 5.923 5.923 C 3.928 7.918, 3 9.848, 3 12 C 3 16.302, 7.698 21, 12 21 C 14.152 21, 16.082 20.072, 18.077 18.077 C 22.007 14.147, 22.007 9.853, 18.077 5.923 C 14.147 1.993, 9.853 1.993, 5.923 5.923 M 8 8.800 C 8 9.240, 8.521 10.121, 9.158 10.758 C 10.034 11.634, 10 12.295, 9.015 13.482 C 7.346 15.493, 8.474 16.681, 10.476 15.020 C 11.705 14, 12.295 14, 13.524 15.020 C 14.362 15.716, 15.327 16.007, 15.667 15.667 C 16.007 15.327, 15.716 14.362, 15.020 13.524 C 14 12.295, 14 11.705, 15.020 10.476 C 16.681 8.474, 15.493 7.346, 13.482 9.015 C 12.295 10, 11.634 10.034, 10.758 9.158 C 9.421 7.821, 8 7.636, 8 8.800" stroke="none" fill="#000000" fill-rule="evenodd"/>
</svg>