<svg xmlns="http://www.w3.org/2000/svg" width="24" height="24" viewBox="0 0 24 24" version="1.1">
	<path d="M 13.403 1.438 C 11.256 1.210, 8.600 1.416, 7.500 1.894 C 6.400 2.373, 4.600 3.764, 3.500 4.987 C 2.078 6.568, 1.500 8.618, 1.500 12.082 C 1.500 16.074, 2.001 17.456, 4.273 19.727 C 6.557 22.011, 7.919 22.500, 12 22.500 C 16.081 22.500, 17.443 22.011, 19.727 19.727 C 22.011 17.443, 22.500 16.081, 22.500 12 C 22.500 7.999, 22 6.546, 19.903 4.448 C 18.256 2.802, 15.876 1.699, 13.403 1.438 M 12 3 C 9.848 3, 7.918 3.928, 5.923 5.923 C 3.928 7.918, 3 9.848, 3 12 C 3 14.152, 3.928 16.082, 5.923 18.077 C 7.918 20.072, 9.848 21, 12 21 C 14.152 21, 16.082 20.072, 18.077 18.077 C 20.072 16.082, 21 14.152, 21 12 C 21 9.848, 20.072 7.918, 18.077 5.923 C 16.082 3.928, 14.152 3, 12 3 M 8.800 8 C 8.360 8, 8 8.360, 8 8.800 C 8 9.240, 8.521 10.121, 9.158 10.758 C 10.034 11.634, 10 12.295, 9.015 13.482 C 8.300 14.343, 7.993 15.327, 8.333 15.667 C 8.673 16.007, 9.638 15.716, 10.476 15.020 C 11.705 14, 12.295 14, 13.524 15.020 C 14.362 15.716, 15.327 16.007, 15.667 15.667 C 16.007 15.327, 15.716 14.362, 15.020 13.524 C 14 12.295, 14 11.705, 15.020 10.476 C 15.716 9.638, 16.007 8.673, 15.667 8.333 C 15.327 7.993, 14.343 8.300, 13.482 9.015 C 12.295 10, 11.634 10.034, 10.758 9.158 C 10.121 8.521, 9.240 8, 8.800 8" stroke="none" fill="black" fill-rule="evenodd"/>
</svg>