<svg viewBox="0 0 24 24" xmlns="http://www.w3.org/2000/svg" fill="none" stroke="#000000" stroke-width="2" stroke-linecap="round" stroke-linejoin="round"><path d="M10.540 1.100 C 9.386 1.260,8.315 1.575,7.334 2.043 C 6.868 2.266,6.712 2.420,6.614 2.756 C 6.462 3.274,6.751 3.818,7.264 3.980 C 7.573 4.077,7.740 4.047,8.320 3.790 C 9.281 3.365,10.114 3.149,11.213 3.040 C 11.452 3.016,11.718 2.968,11.804 2.934 C 12.002 2.855,12.290 2.537,12.352 2.329 C 12.498 1.844,12.271 1.326,11.820 1.116 C 11.629 1.027,11.108 1.021,10.540 1.100 M15.160 1.598 C 14.368 1.755,14.082 2.718,14.658 3.287 C 14.764 3.391,14.934 3.484,15.234 3.602 C 16.162 3.968,17.083 4.516,17.820 5.142 C 18.253 5.510,18.460 5.613,18.760 5.612 C 19.125 5.611,19.427 5.432,19.621 5.103 C 19.759 4.866,19.784 4.624,19.701 4.337 C 19.642 4.135,19.592 4.062,19.348 3.828 C 18.526 3.040,17.154 2.194,15.971 1.745 C 15.577 1.596,15.366 1.557,15.160 1.598 M4.080 4.532 C 3.590 4.685,2.371 6.454,1.835 7.790 C 1.461 8.723,1.414 8.998,1.574 9.340 C 1.956 10.160,3.111 10.107,3.420 9.256 C 3.867 8.026,4.317 7.203,5.036 6.300 C 5.468 5.757,5.530 5.438,5.289 4.990 C 5.065 4.572,4.561 4.382,4.080 4.532 M20.780 6.889 C 20.426 7.015,20.146 7.358,20.096 7.727 C 20.070 7.912,20.084 7.958,20.437 8.889 C 20.729 9.660,20.888 10.390,20.960 11.300 C 21.015 11.984,21.055 12.123,21.265 12.358 C 21.473 12.588,21.700 12.691,22.001 12.689 C 22.505 12.687,22.917 12.326,22.985 11.825 C 23.037 11.451,22.872 10.124,22.676 9.340 C 22.470 8.512,22.055 7.439,21.848 7.196 C 21.589 6.895,21.133 6.763,20.780 6.889 M1.813 11.916 C 1.473 12.003,1.187 12.274,1.079 12.616 C 0.995 12.883,1.110 13.810,1.342 14.726 C 1.575 15.650,2.153 17.047,2.433 17.366 C 2.911 17.910,3.858 17.727,4.098 17.045 C 4.218 16.705,4.186 16.519,3.904 15.922 C 3.461 14.985,3.233 14.220,3.083 13.175 C 3.039 12.865,2.983 12.559,2.959 12.495 C 2.902 12.344,2.657 12.092,2.476 11.999 C 2.305 11.911,1.991 11.872,1.813 11.916 M20.900 14.735 C 20.622 14.867,20.506 15.006,20.324 15.426 C 19.871 16.471,19.361 17.273,18.662 18.040 C 18.492 18.227,18.315 18.461,18.270 18.560 C 18.103 18.923,18.189 19.383,18.478 19.672 C 18.656 19.850,18.810 19.923,19.063 19.949 C 19.516 19.996,19.777 19.831,20.377 19.123 C 21.142 18.219,21.771 17.188,22.175 16.175 C 22.349 15.736,22.362 15.511,22.226 15.220 C 21.986 14.706,21.408 14.495,20.900 14.735 M5.460 18.795 C 5.079 18.895,4.804 19.189,4.718 19.590 C 4.682 19.761,4.685 19.838,4.738 20.021 C 4.819 20.297,4.979 20.479,5.457 20.837 C 6.395 21.540,7.460 22.090,8.595 22.456 C 9.261 22.672,9.537 22.645,9.887 22.329 C 10.327 21.933,10.320 21.246,9.871 20.862 C 9.756 20.763,9.560 20.674,9.151 20.536 C 8.205 20.215,7.398 19.787,6.520 19.141 C 6.333 19.003,6.141 18.871,6.094 18.846 C 5.978 18.786,5.608 18.757,5.460 18.795 M15.720 20.238 C 15.643 20.254,15.409 20.331,15.200 20.410 C 14.243 20.771,13.077 21.000,12.197 21.000 C 11.665 21.000,11.339 21.158,11.128 21.516 C 11.037 21.672,11.020 21.746,11.020 22.000 C 11.020 22.257,11.036 22.327,11.133 22.492 C 11.263 22.714,11.502 22.901,11.736 22.965 C 11.918 23.015,12.792 22.990,13.360 22.919 C 14.584 22.766,16.247 22.256,16.580 21.932 C 16.883 21.638,16.970 21.195,16.801 20.813 C 16.693 20.570,16.586 20.455,16.360 20.342 C 16.150 20.236,15.918 20.199,15.720 20.238 " stroke="none" fill-rule="evenodd" fill="black"></path></svg>