<svg xmlns="http://www.w3.org/2000/svg" width="24" height="24" viewBox="0 0 24 24" version="1.1">
	<path d="M 11.596 1.106 C 9.893 1.164, 7.246 1.872, 5.713 2.678 C 2.937 4.139, 2.928 4.179, 3.213 13.322 L 3.500 22.500 12 22.500 L 20.500 22.500 20.786 13.341 L 21.073 4.183 17.883 2.591 C 16.128 1.716, 13.299 1.048, 11.596 1.106 M 12 3 C 10.350 3, 9 3.450, 9 4 C 9 4.550, 10.350 5, 12 5 C 13.650 5, 15 4.550, 15 4 C 15 3.450, 13.650 3, 12 3 M 6.094 5 C 5.393 5, 5 7.877, 5 13 L 5 21 12 21 L 19 21 19 13 C 19 7.877, 18.607 5, 17.906 5 C 17.305 5, 16.577 5.900, 16.290 7 C 15.884 8.553, 14.926 9, 12 9 C 9.074 9, 8.116 8.553, 7.710 7 C 7.423 5.900, 6.695 5, 6.094 5 M 12 11 C 9.800 11, 8 11.450, 8 12 C 8 12.550, 9.800 13, 12 13 C 14.200 13, 16 12.550, 16 12 C 16 11.450, 14.200 11, 12 11 M 12 15 C 9.800 15, 8 15.450, 8 16 C 8 16.550, 9.800 17, 12 17 C 14.200 17, 16 16.550, 16 16 C 16 15.450, 14.200 15, 12 15" stroke="none" fill="black" fill-rule="evenodd"/>
</svg>