<svg viewBox="0 0 24 24" xmlns="http://www.w3.org/2000/svg" fill="none" stroke="#000000" stroke-width="2" stroke-linecap="round" stroke-linejoin="round"><path d="M8.477 1.073 C 7.806 1.249,7.238 1.823,7.060 2.508 C 7.027 2.634,7.000 2.794,7.000 2.864 L 7.000 2.991 6.230 3.010 C 5.567 3.027,5.416 3.043,5.139 3.126 C 4.181 3.415,3.420 4.179,3.114 5.160 L 3.020 5.460 3.020 13.000 L 3.020 20.540 3.114 20.840 C 3.422 21.827,4.173 22.578,5.160 22.886 L 5.460 22.980 12.000 22.980 L 18.540 22.980 18.840 22.886 C 19.827 22.578,20.578 21.827,20.886 20.840 L 20.980 20.540 20.980 13.000 L 20.980 5.460 20.886 5.160 C 20.580 4.179,19.819 3.415,18.861 3.126 C 18.585 3.043,18.433 3.027,17.778 3.010 L 17.017 2.991 16.968 2.687 C 16.942 2.520,16.869 2.275,16.806 2.141 C 16.665 1.839,16.321 1.464,16.017 1.281 C 15.548 0.999,15.636 1.005,12.000 1.005 C 9.047 1.005,8.715 1.011,8.477 1.073 M15.000 4.000 L 15.000 5.000 12.000 5.000 L 9.000 5.000 9.000 4.000 L 9.000 3.000 12.000 3.000 L 15.000 3.000 15.000 4.000 M7.000 5.132 C 7.000 5.546,7.233 6.042,7.601 6.409 C 7.902 6.710,8.231 6.891,8.617 6.966 L 8.854 7.013 8.691 7.061 C 8.468 7.127,8.256 7.298,8.128 7.516 C 8.037 7.672,8.020 7.746,8.020 8.000 C 8.020 8.256,8.036 8.328,8.131 8.489 C 8.256 8.702,8.449 8.864,8.670 8.943 C 8.891 9.022,15.109 9.022,15.330 8.943 C 15.551 8.864,15.744 8.702,15.869 8.489 C 15.964 8.328,15.980 8.256,15.980 8.000 C 15.980 7.746,15.963 7.672,15.872 7.516 C 15.744 7.298,15.532 7.127,15.309 7.061 L 15.148 7.014 15.397 6.961 C 15.796 6.876,16.099 6.709,16.399 6.409 C 16.547 6.261,16.715 6.048,16.771 5.937 C 16.888 5.707,17.000 5.309,17.000 5.124 L 17.000 5.000 17.553 5.000 C 18.249 5.000,18.446 5.052,18.697 5.303 C 19.024 5.631,19.000 5.009,19.000 13.001 C 19.000 18.907,18.991 20.138,18.945 20.290 C 18.872 20.533,18.707 20.740,18.484 20.872 L 18.300 20.980 12.000 20.980 L 5.700 20.980 5.516 20.872 C 5.415 20.813,5.284 20.700,5.225 20.623 C 4.986 20.309,5.000 20.795,5.000 13.022 C 5.000 5.005,4.975 5.631,5.304 5.303 C 5.554 5.052,5.727 5.006,6.430 5.003 L 7.000 5.000 7.000 5.132 M8.695 11.057 C 8.466 11.129,8.256 11.299,8.128 11.516 C 8.037 11.672,8.020 11.746,8.020 12.000 C 8.020 12.256,8.036 12.328,8.131 12.489 C 8.256 12.702,8.449 12.864,8.670 12.943 C 8.891 13.022,15.109 13.022,15.330 12.943 C 15.551 12.864,15.744 12.702,15.869 12.489 C 15.964 12.328,15.980 12.256,15.980 12.000 C 15.980 11.746,15.963 11.672,15.872 11.516 C 15.740 11.293,15.533 11.128,15.290 11.055 C 15.030 10.977,8.945 10.979,8.695 11.057 M8.695 15.057 C 8.466 15.129,8.256 15.299,8.128 15.516 C 8.037 15.672,8.020 15.746,8.020 16.000 C 8.020 16.256,8.036 16.328,8.131 16.489 C 8.256 16.702,8.449 16.864,8.670 16.943 C 8.891 17.022,15.109 17.022,15.330 16.943 C 15.551 16.864,15.744 16.702,15.869 16.489 C 15.964 16.328,15.980 16.256,15.980 16.000 C 15.980 15.746,15.963 15.672,15.872 15.516 C 15.740 15.293,15.533 15.128,15.290 15.055 C 15.030 14.977,8.945 14.979,8.695 15.057 " stroke="none" fill-rule="evenodd" fill="black"></path></svg>