<svg xmlns="http://www.w3.org/2000/svg" width="24" height="24" viewBox="0 0 24 24" version="1.1">
	<path d="M 11.596 1.106 C 9.893 1.164, 7.246 1.872, 5.713 2.678 C 2.937 4.139, 2.928 4.179, 3.213 13.322 L 3.500 22.500 12 22.500 L 20.500 22.500 20.786 13.341 L 21.073 4.183 17.883 2.591 C 16.128 1.716, 13.299 1.048, 11.596 1.106 M 12 3 C 10.350 3, 9 3.450, 9 4 C 9 4.550, 10.350 5, 12 5 C 13.650 5, 15 4.550, 15 4 C 15 3.450, 13.650 3, 12 3 M 5.941 5 C 5.423 5, 5 8.600, 5 13 L 5 21 12 21 L 19 21 19 13 C 19 8.600, 18.577 5, 18.059 5 C 17.541 5, 16.840 5.450, 16.500 6 C 16.160 6.550, 14.135 7, 12 7 C 9.865 7, 7.840 6.550, 7.500 6 C 7.160 5.450, 6.459 5, 5.941 5" stroke="none" fill="black" fill-rule="evenodd"/>
</svg>