<svg xmlns="http://www.w3.org/2000/svg" width="24" height="24" viewBox="0 0 24 24" version="1.1">
	<path d="M 5.713 2.678 C 2.937 4.139, 2.928 4.179, 3.213 13.322 L 3.500 22.500 12 22.500 L 20.500 22.500 20.786 13.341 L 21.073 4.183 17.883 2.591 C 14.027 0.668, 9.473 0.700, 5.713 2.678 M 9 4 C 9 4.550, 10.350 5, 12 5 C 13.650 5, 15 4.550, 15 4 C 15 3.450, 13.650 3, 12 3 C 10.350 3, 9 3.450, 9 4 M 5 13 L 5 21 12 21 L 19 21 19 13 C 19 5.724, 18.147 3.335, 16.500 6 C 15.696 7.301, 8.304 7.301, 7.500 6 C 5.853 3.335, 5 5.724, 5 13" stroke="none" fill="#000000" fill-rule="evenodd"/>
</svg>