<svg xmlns="http://www.w3.org/2000/svg" width="24" height="24" viewBox="0 0 24 24" version="1.1">
	<path d="M 9.750 5.080 C 8.787 5.641, 8 7.163, 8 8.463 C 8 10.688, 8.181 10.758, 11.081 9.663 C 13.783 8.644, 14.342 8.746, 15.629 10.500 C 17.054 12.444, 16.897 12.508, 10.048 12.794 C -0.218 13.222, 1.356 15, 12 15 C 17.333 15, 21 14.593, 21 14 C 21 13.450, 20.387 13, 19.639 13 C 18.741 13, 18.434 12.183, 18.737 10.598 C 19.036 9.033, 18.465 7.465, 17.098 6.098 C 14.815 3.815, 12.478 3.491, 9.750 5.080 M 3 10 C 3 10.550, 3.450 11, 4 11 C 4.550 11, 5 10.550, 5 10 C 5 9.450, 4.550 9, 4 9 C 3.450 9, 3 9.450, 3 10 M 3 18 C 3 18.593, 6.667 19, 12 19 C 17.333 19, 21 18.593, 21 18 C 21 17.407, 17.333 17, 12 17 C 6.667 17, 3 17.407, 3 18" stroke="none" fill="#000000" fill-rule="evenodd"/>
</svg>