<svg xmlns="http://www.w3.org/2000/svg" width="24" height="24" viewBox="0 0 24 24" version="1.1">
	<path d="M 2.923 4.923 C -0.318 8.164, -0.913 12.369, 1.418 15.557 C 3.202 17.996, 4.535 16.869, 3.081 14.151 C 1.427 11.061, 1.770 9.139, 4.455 6.455 C 7.715 3.194, 10.598 3.358, 14 7 C 15.541 8.650, 17.432 10, 18.201 10 C 21.807 10, 23.056 14.176, 20.345 17.171 C 18.803 18.875, 18.807 19, 20.396 19 C 22.423 19, 25.053 13.302, 24.882 9.282 L 24.763 6.500 24 9.500 C 23.580 11.150, 23.183 11.928, 23.118 11.229 C 23.053 10.529, 21.806 9.413, 20.346 8.748 C 18.887 8.083, 16.447 6.293, 14.923 4.770 C 11.152 0.998, 6.793 1.054, 2.923 4.923 M 0.232 11 C 0.232 12.925, 0.438 13.713, 0.689 12.750 C 0.941 11.787, 0.941 10.213, 0.689 9.250 C 0.438 8.287, 0.232 9.075, 0.232 11 M 9.004 13.496 C 6.517 16.143, 6.895 18.162, 9.476 16.020 C 10.794 14.926, 11 15.245, 11 18.378 C 11 20.370, 11.450 22, 12 22 C 12.550 22, 13 20.370, 13 18.378 C 13 15.245, 13.206 14.926, 14.524 16.020 C 17.105 18.162, 17.483 16.143, 14.996 13.496 C 13.707 12.123, 12.358 11, 12 11 C 11.642 11, 10.293 12.123, 9.004 13.496" stroke="none" fill="black" fill-rule="evenodd"/>
</svg>