<svg xmlns="http://www.w3.org/2000/svg" width="24" height="24" viewBox="0 0 24 24" version="1.1">
	<path d="M 9 2 C 6.848 2, 4.918 2.928, 2.923 4.923 C 1.043 6.803, -0 8.876, -0 10.732 C -0 12.319, 0.638 14.491, 1.418 15.557 C 2.198 16.624, 3.135 17.199, 3.499 16.834 C 3.864 16.470, 3.676 15.262, 3.081 14.151 C 2.486 13.040, 2 11.406, 2 10.520 C 2 9.634, 3.105 7.805, 4.455 6.455 C 5.805 5.105, 7.874 4, 9.053 4 C 10.233 4, 12.459 5.350, 14 7 C 15.541 8.650, 17.432 10, 18.201 10 C 18.971 10, 20.140 10.540, 20.800 11.200 C 21.460 11.860, 22 13.062, 22 13.871 C 22 14.680, 21.255 16.165, 20.345 17.171 C 18.803 18.875, 18.807 19, 20.396 19 C 21.398 19, 22.700 17.568, 23.551 15.532 C 24.348 13.625, 24.947 10.812, 24.882 9.282 L 24.763 6.500 24 9.500 C 23.580 11.150, 23.183 11.928, 23.118 11.229 C 23.053 10.529, 21.806 9.413, 20.346 8.748 C 18.887 8.083, 16.447 6.293, 14.923 4.770 C 13.068 2.914, 11.113 2, 9 2 M 0.689 9.250 C 0.438 8.287, 0.232 9.075, 0.232 11 C 0.232 12.925, 0.438 13.713, 0.689 12.750 C 0.941 11.787, 0.941 10.213, 0.689 9.250 M 12 12 C 11.450 12, 11 13.405, 11 15.122 C 11 17.807, 10.786 18.067, 9.476 16.980 C 8.638 16.284, 7.649 16.018, 7.279 16.388 C 6.909 16.758, 7.820 18.274, 9.303 19.758 L 12 22.455 14.697 19.758 C 16.180 18.274, 17.091 16.758, 16.721 16.388 C 16.351 16.018, 15.362 16.284, 14.524 16.980 C 13.214 18.067, 13 17.807, 13 15.122 C 13 13.405, 12.550 12, 12 12" stroke="none" fill="black" fill-rule="evenodd"/>
</svg>