<svg xmlns="http://www.w3.org/2000/svg" width="24" height="24" viewBox="0 0 24 24" version="1.1">
	<path d="M 9 -0 C 6.848 -0, 4.918 0.928, 2.923 2.923 C 0.982 4.864, 0 6.861, 0 8.867 C 0 10.620, 1.014 13.066, 2.415 14.694 C 3.743 16.237, 5.144 17.186, 5.529 16.803 C 5.913 16.419, 5.277 14.896, 4.114 13.418 C 2.951 11.940, 2 9.871, 2 8.820 C 2 7.769, 3.105 5.805, 4.455 4.455 C 5.805 3.105, 7.874 2, 9.053 2 C 10.233 2, 12.459 3.350, 14 5 C 15.541 6.650, 17.432 8, 18.201 8 C 18.971 8, 20.140 8.540, 20.800 9.200 C 21.460 9.860, 22 11.206, 22 12.192 C 22 13.177, 21.100 14.545, 20 15.232 C 18.900 15.919, 18 16.823, 18 17.241 C 18 17.658, 18.605 18, 19.345 18 C 20.085 18, 21.432 17.180, 22.340 16.177 C 23.247 15.174, 24.211 12.137, 24.481 9.427 C 24.774 6.484, 24.669 5.460, 24.219 6.883 C 23.536 9.041, 23.338 9.112, 22.110 7.633 C 21.365 6.735, 20.170 6, 19.454 6 C 18.739 6, 16.804 4.650, 15.154 3 C 13.089 0.935, 11.171 -0, 9 -0 M 0.689 7.250 C 0.438 6.287, 0.232 7.075, 0.232 9 C 0.232 10.925, 0.438 11.713, 0.689 10.750 C 0.941 9.787, 0.941 8.213, 0.689 7.250 M 13.082 10 C 12.576 10, 11.226 11.516, 10.082 13.368 C 8.937 15.220, 8 17.020, 8 17.368 C 8 17.716, 9.151 18, 10.557 18 C 12.999 18, 13.044 18.099, 11.557 20.223 C 10.701 21.445, 10 22.795, 10 23.223 C 10 23.650, 10.413 24, 10.918 24 C 11.424 24, 12.774 22.484, 13.918 20.632 C 15.063 18.780, 16 16.980, 16 16.632 C 16 16.284, 14.849 16, 13.443 16 C 11.001 16, 10.956 15.901, 12.443 13.777 C 13.299 12.555, 14 11.205, 14 10.777 C 14 10.350, 13.587 10, 13.082 10" stroke="none" fill="black" fill-rule="evenodd"/>
</svg>