<svg xmlns="http://www.w3.org/2000/svg" width="24" height="24" viewBox="0 0 24 24" version="1.1">
	<path d="M 2.923 2.923 C -0.533 6.379, -0.917 10.647, 1.914 14.139 C 4.306 17.090, 5.782 15.955, 3.602 12.842 C 1.363 9.646, 1.601 7.308, 4.455 4.455 C 7.715 1.194, 10.598 1.358, 14 5 C 15.541 6.650, 17.432 8, 18.201 8 C 21.746 8, 23.062 12.169, 20.435 15.072 C 19.448 16.162, 19.247 17.035, 19.891 17.433 C 21.434 18.386, 24.143 13.568, 24.469 9.288 C 24.628 7.205, 24.561 6.251, 24.320 7.170 C 23.911 8.729, 23.681 8.729, 20.836 7.170 C 19.160 6.251, 16.522 4.263, 14.972 2.750 C 11.133 -0.996, 6.780 -0.934, 2.923 2.923 M 0.232 9 C 0.232 10.925, 0.438 11.713, 0.689 10.750 C 0.941 9.787, 0.941 8.213, 0.689 7.250 C 0.438 6.287, 0.232 7.075, 0.232 9 M 7 17 C 7 19.750, 7.450 22, 8 22 C 8.550 22, 9 19.750, 9 17 C 9 14.250, 8.550 12, 8 12 C 7.450 12, 7 14.250, 7 17 M 15 17 C 15 19.750, 15.450 22, 16 22 C 16.550 22, 17 19.750, 17 17 C 17 14.250, 16.550 12, 16 12 C 15.450 12, 15 14.250, 15 17 M 11 19 C 11 21.750, 11.450 24, 12 24 C 12.550 24, 13 21.750, 13 19 C 13 16.250, 12.550 14, 12 14 C 11.450 14, 11 16.250, 11 19" stroke="none" fill="#000000" fill-rule="evenodd"/>
</svg>