<svg xmlns="http://www.w3.org/2000/svg" width="24" height="24" viewBox="0 0 24 24" version="1.1">
	<path d="M 2.923 2.923 C -0.533 6.379, -0.917 10.647, 1.914 14.139 C 4.306 17.090, 5.782 15.955, 3.602 12.842 C 1.363 9.646, 1.601 7.308, 4.455 4.455 C 7.715 1.194, 10.598 1.358, 14 5 C 15.541 6.650, 17.432 8, 18.201 8 C 21.746 8, 23.062 12.169, 20.435 15.072 C 19.448 16.162, 19.247 17.035, 19.891 17.433 C 21.434 18.386, 24.143 13.568, 24.469 9.288 C 24.628 7.205, 24.561 6.251, 24.320 7.170 C 23.911 8.729, 23.681 8.729, 20.836 7.170 C 19.160 6.251, 16.522 4.263, 14.972 2.750 C 11.133 -0.996, 6.780 -0.934, 2.923 2.923 M 0.232 9 C 0.232 10.925, 0.438 11.713, 0.689 10.750 C 0.941 9.787, 0.941 8.213, 0.689 7.250 C 0.438 6.287, 0.232 7.075, 0.232 9 M 7 15 C 7 15.550, 7.450 16, 8 16 C 8.550 16, 9 15.550, 9 15 C 9 14.450, 8.550 14, 8 14 C 7.450 14, 7 14.450, 7 15 M 15 15 C 15 15.550, 15.450 16, 16 16 C 16.550 16, 17 15.550, 17 15 C 17 14.450, 16.550 14, 16 14 C 15.450 14, 15 14.450, 15 15 M 11 17 C 11 17.550, 11.450 18, 12 18 C 12.550 18, 13 17.550, 13 17 C 13 16.450, 12.550 16, 12 16 C 11.450 16, 11 16.450, 11 17 M 7 19 C 7 19.550, 7.450 20, 8 20 C 8.550 20, 9 19.550, 9 19 C 9 18.450, 8.550 18, 8 18 C 7.450 18, 7 18.450, 7 19 M 15 19 C 15 19.550, 15.450 20, 16 20 C 16.550 20, 17 19.550, 17 19 C 17 18.450, 16.550 18, 16 18 C 15.450 18, 15 18.450, 15 19 M 11 21 C 11 21.550, 11.450 22, 12 22 C 12.550 22, 13 21.550, 13 21 C 13 20.450, 12.550 20, 12 20 C 11.450 20, 11 20.450, 11 21" stroke="none" fill="#000000" fill-rule="evenodd"/>
</svg>