<svg xmlns="http://www.w3.org/2000/svg" width="24" height="24" viewBox="0 0 24 24" version="1.1">
	<path d="M 2.923 5.923 C 0.928 7.918, -0 9.848, -0 12 C -0 14.152, 0.928 16.082, 2.923 18.077 C 5.629 20.783, 6.398 21, 13.268 21 C 22.153 21, 23.748 19.781, 24.481 12.427 C 24.774 9.484, 24.669 8.460, 24.219 9.883 C 23.536 12.041, 23.338 12.112, 22.110 10.633 C 21.365 9.735, 20.170 9, 19.454 9 C 18.739 9, 16.804 7.650, 15.154 6 C 11.144 1.991, 6.882 1.964, 2.923 5.923 M 4.455 7.455 C 1.327 10.582, 1.342 13.432, 4.500 16.591 C 6.744 18.835, 7.683 19.061, 13.646 18.796 C 18.669 18.572, 20.559 18.073, 21.390 16.750 C 22.738 14.605, 21.200 11.679, 18.439 11.137 C 17.423 10.938, 15.378 9.475, 13.895 7.887 C 10.594 4.354, 7.688 4.221, 4.455 7.455 M 0.232 12 C 0.232 13.925, 0.438 14.713, 0.689 13.750 C 0.941 12.787, 0.941 11.213, 0.689 10.250 C 0.438 9.287, 0.232 10.075, 0.232 12" stroke="none" fill="black" fill-rule="evenodd"/>
</svg>