<svg xmlns="http://www.w3.org/2000/svg" width="24" height="24" viewBox="0 0 24 24" version="1.1">
	<path d="M 12 1 C 10.979 1, 9.397 1.746, 8.485 2.658 C 7.520 3.623, 7.014 5.294, 7.275 6.658 C 7.610 8.408, 7.271 9, 5.933 9 C 4.948 9, 3.436 9.707, 2.571 10.571 C 1.707 11.436, 1 12.979, 1 14 C 1 15.021, 1.707 16.564, 2.571 17.429 C 3.436 18.293, 4.979 19, 6 19 C 7.021 19, 8.564 18.293, 9.429 17.429 C 10.857 16, 11 16.091, 11 18.429 C 11 19.843, 10.550 21, 10 21 C 9.450 21, 9 21.450, 9 22 C 9 22.550, 10.350 23, 12 23 C 13.650 23, 15 22.550, 15 22 C 15 21.450, 14.550 21, 14 21 C 13.450 21, 13 19.843, 13 18.429 C 13 16.091, 13.143 16, 14.571 17.429 C 15.436 18.293, 16.979 19, 18 19 C 19.021 19, 20.564 18.293, 21.429 17.429 C 22.293 16.564, 23 15.021, 23 14 C 23 12.979, 22.293 11.436, 21.429 10.571 C 20.564 9.707, 19.052 9, 18.067 9 C 16.729 9, 16.390 8.408, 16.725 6.658 C 16.986 5.294, 16.480 3.623, 15.515 2.658 C 14.603 1.746, 13.021 1, 12 1 M 12 3 C 11.585 3, 10.666 3.698, 9.958 4.550 C 8.896 5.831, 8.961 6.390, 10.336 7.764 C 11.888 9.317, 12.112 9.317, 13.664 7.764 C 15.039 6.390, 15.104 5.831, 14.042 4.550 C 13.334 3.698, 12.415 3, 12 3 M 6 11 C 5.585 11, 4.666 11.698, 3.958 12.550 C 2.896 13.831, 2.961 14.390, 4.336 15.764 C 5.888 17.317, 6.112 17.317, 7.664 15.764 C 9.039 14.390, 9.104 13.831, 8.042 12.550 C 7.334 11.698, 6.415 11, 6 11 M 12 11 C 10.133 11, 9.867 11.267, 10.800 12.200 C 11.733 13.133, 12.267 13.133, 13.200 12.200 C 14.133 11.267, 13.867 11, 12 11 M 18 11 C 17.585 11, 16.666 11.698, 15.958 12.550 C 14.896 13.831, 14.961 14.390, 16.336 15.764 C 17.888 17.317, 18.112 17.317, 19.664 15.764 C 21.039 14.390, 21.104 13.831, 20.042 12.550 C 19.334 11.698, 18.415 11, 18 11" stroke="none" fill="black" fill-rule="evenodd"/>
</svg>