<svg xmlns="http://www.w3.org/2000/svg" width="24" height="24" viewBox="0 0 24 24" version="1.1">
	<path d="M 19 1 C 19 1.593, 15.333 2, 10 2 C 5.050 2, 1.011 2.337, 1.025 2.750 C 1.039 3.163, 3.289 6.192, 6.025 9.482 C 11.477 16.038, 12.759 21, 9 21 C 7.900 21, 7 21.450, 7 22 C 7 22.550, 9.250 23, 12 23 C 14.750 23, 17 22.550, 17 22 C 17 21.450, 16.100 21, 15 21 C 11.647 21, 12.488 16.251, 16.759 11.064 C 23.626 2.725, 23.368 3.226, 21.671 1.528 C 19.902 -0.241, 19 -0.419, 19 1 M 5.700 5.353 C 6.140 6.096, 7.755 8.176, 9.288 9.975 L 12.077 13.245 15.497 9.372 C 17.378 7.243, 18.935 5.162, 18.958 4.750 C 18.981 4.338, 15.828 4, 11.950 4 C 6.298 4, 5.059 4.268, 5.700 5.353" stroke="none" fill="#000000" fill-rule="evenodd"/>
</svg>