<svg viewBox="0 0 24 24" xmlns="http://www.w3.org/2000/svg" fill="none" stroke="#000000" stroke-width="2" stroke-linecap="round" stroke-linejoin="round"><path d="M19.643 0.066 C 19.336 0.179,19.175 0.391,18.761 1.232 L 18.382 2.000 10.118 2.000 C 0.840 2.000,1.625 1.973,1.298 2.300 C 0.998 2.600,0.915 3.121,1.113 3.457 C 1.156 3.531,3.399 6.238,6.096 9.475 L 11.000 15.360 11.000 18.180 L 11.000 21.000 9.446 21.000 C 7.758 21.000,7.658 21.011,7.382 21.221 C 7.302 21.282,7.187 21.415,7.128 21.516 C 7.037 21.672,7.020 21.746,7.020 22.000 C 7.020 22.256,7.036 22.328,7.131 22.489 C 7.256 22.702,7.449 22.864,7.670 22.943 C 7.892 23.022,16.108 23.022,16.330 22.943 C 16.551 22.864,16.744 22.702,16.869 22.489 C 16.964 22.328,16.980 22.256,16.980 22.000 C 16.980 21.746,16.963 21.672,16.872 21.516 C 16.813 21.415,16.698 21.282,16.618 21.221 C 16.342 21.011,16.242 21.000,14.554 21.000 L 13.000 21.000 13.000 18.180 L 13.000 15.360 17.909 9.470 C 20.609 6.230,22.855 3.508,22.899 3.420 C 23.025 3.171,23.012 2.755,22.872 2.516 C 22.813 2.415,22.698 2.282,22.618 2.221 C 22.373 2.034,22.181 2.000,21.374 2.000 C 20.970 2.000,20.640 1.993,20.640 1.984 C 20.640 1.975,20.715 1.812,20.806 1.622 C 20.903 1.420,20.980 1.194,20.991 1.082 C 21.014 0.843,20.922 0.549,20.765 0.358 C 20.523 0.065,20.011 -0.069,19.643 0.066 M19.814 4.050 C 19.733 4.181,12.029 13.400,12.000 13.400 C 11.971 13.400,4.267 4.181,4.186 4.050 C 4.161 4.010,5.734 4.000,12.000 4.000 C 18.266 4.000,19.839 4.010,19.814 4.050 " stroke="none" fill-rule="evenodd" fill="black"></path></svg>