<svg xmlns="http://www.w3.org/2000/svg" width="24" height="24" viewBox="0 0 24 24" version="1.1">
	<path d="M 8.196 5 C 7.754 5, 5.858 6.583, 3.982 8.519 L 0.571 12.038 4.252 15.719 C 6.277 17.743, 8.253 19.080, 8.644 18.690 C 9.035 18.299, 8.065 16.634, 6.490 14.990 L 3.626 12 6.313 9.195 C 7.791 7.653, 9 6.078, 9 5.695 C 9 5.313, 8.638 5, 8.196 5 M 15.804 5 C 15.362 5, 15 5.313, 15 5.695 C 15 6.078, 16.209 7.653, 17.687 9.195 L 20.374 12 17.510 14.990 C 15.935 16.634, 14.965 18.299, 15.356 18.690 C 15.747 19.080, 17.723 17.743, 19.748 15.719 L 23.429 12.038 20.018 8.519 C 18.142 6.583, 16.246 5, 15.804 5" stroke="none" fill="black" fill-rule="evenodd"/>
</svg>