<svg xmlns="http://www.w3.org/2000/svg" width="24" height="24" viewBox="0 0 24 24" version="1.1">
	<path d="M 14.611 2.278 C 14.306 1.973, 13.656 2.798, 13.167 4.111 C 12.678 5.425, 11.680 8.862, 10.950 11.750 C 10.219 14.638, 9.335 17, 8.985 17 C 8.635 17, 7.289 15.872, 5.994 14.493 L 3.639 11.987 6.496 9.004 C 8.068 7.363, 9.035 5.701, 8.644 5.310 C 8.253 4.920, 6.261 6.285, 4.217 8.345 L 0.500 12.090 4.732 16.064 C 7.060 18.250, 8.972 20.255, 8.982 20.519 C 8.992 20.784, 9.338 21.034, 9.750 21.075 C 10.162 21.117, 11.364 18.079, 12.419 14.325 C 13.474 10.571, 14.500 7.299, 14.699 7.053 C 14.898 6.807, 16.265 7.810, 17.737 9.283 L 20.414 11.959 17.530 14.969 C 15.944 16.625, 14.965 18.299, 15.356 18.690 C 15.747 19.080, 17.739 17.715, 19.783 15.655 L 23.500 11.910 19.268 7.936 C 16.940 5.750, 15.065 3.708, 15.101 3.397 C 15.137 3.087, 14.917 2.583, 14.611 2.278" stroke="none" fill="black" fill-rule="evenodd"/>
</svg>