<svg viewBox="0 0 24 24" xmlns="http://www.w3.org/2000/svg" fill="none" stroke="#000000" stroke-width="2" stroke-linecap="round" stroke-linejoin="round"><path d="M6.664 2.063 C 6.440 2.145,6.257 2.297,6.145 2.491 C 6.092 2.584,5.587 4.048,5.023 5.744 L 3.998 8.829 4.009 14.204 L 4.020 19.580 4.114 19.860 C 4.446 20.851,5.184 21.582,6.160 21.886 L 6.460 21.980 12.000 21.980 L 17.540 21.980 17.840 21.886 C 18.816 21.582,19.554 20.851,19.886 19.860 L 19.980 19.580 19.991 14.204 L 20.002 8.827 18.956 5.691 C 17.815 2.266,17.835 2.315,17.461 2.122 L 17.262 2.020 12.041 2.013 C 7.586 2.006,6.797 2.014,6.664 2.063 M17.137 6.590 L 18.000 9.180 18.000 14.144 C 18.000 18.234,17.990 19.139,17.945 19.290 C 17.872 19.533,17.707 19.740,17.484 19.872 L 17.300 19.980 12.000 19.980 L 6.700 19.980 6.516 19.872 C 6.415 19.813,6.284 19.700,6.225 19.623 C 5.988 19.313,6.000 19.595,6.000 14.165 L 6.000 9.180 6.863 6.590 L 7.727 4.000 12.000 4.000 L 16.273 4.000 17.137 6.590 M11.695 7.057 C 11.466 7.129,11.256 7.299,11.128 7.516 L 11.020 7.700 11.008 8.850 L 10.995 10.000 9.444 10.000 C 7.758 10.000,7.658 10.011,7.382 10.221 C 7.302 10.282,7.187 10.415,7.128 10.516 C 7.037 10.672,7.020 10.746,7.020 11.000 C 7.020 11.256,7.036 11.328,7.131 11.489 C 7.192 11.592,7.304 11.725,7.381 11.783 C 7.654 11.991,7.700 11.996,9.409 11.998 L 10.997 12.000 11.009 14.153 L 11.020 16.306 11.141 16.503 C 11.543 17.156,12.457 17.156,12.859 16.503 L 12.980 16.306 12.991 14.153 L 13.003 12.000 14.591 11.998 C 16.300 11.996,16.346 11.991,16.619 11.783 C 16.696 11.725,16.808 11.592,16.869 11.489 C 16.964 11.328,16.980 11.256,16.980 11.000 C 16.980 10.746,16.963 10.672,16.872 10.516 C 16.813 10.415,16.698 10.282,16.618 10.221 C 16.342 10.011,16.242 10.000,14.556 10.000 L 13.005 10.000 12.992 8.850 L 12.980 7.700 12.872 7.516 C 12.628 7.101,12.150 6.915,11.695 7.057 " stroke="none" fill-rule="evenodd" fill="black"></path></svg>