<svg xmlns="http://www.w3.org/2000/svg" width="24" height="24" viewBox="0 0 24 24" version="1.1">
	<path d="M 6 0 C 5.450 0, 5 1.125, 5 2.500 C 5 3.875, 5.450 5, 6 5 C 6.550 5, 7 3.875, 7 2.500 C 7 1.125, 6.550 0, 6 0 M 10 0 C 9.450 0, 9 1.125, 9 2.500 C 9 3.875, 9.450 5, 10 5 C 10.550 5, 11 3.875, 11 2.500 C 11 1.125, 10.550 0, 10 0 M 14 0 C 13.450 0, 13 1.125, 13 2.500 C 13 3.875, 13.450 5, 14 5 C 14.550 5, 15 3.875, 15 2.500 C 15 1.125, 14.550 0, 14 0 M 10.929 7 L 1 7 1 12.929 C 1 16.985, 1.496 19.353, 2.571 20.429 C 3.642 21.499, 6.009 22, 10 22 C 13.877 22, 16.304 21.505, 17.179 20.535 C 17.905 19.729, 19.041 18.491, 19.702 17.785 C 20.363 17.078, 21.601 15.920, 22.452 15.211 C 23.303 14.501, 24 13.071, 24 12.032 C 24 10.993, 23.293 9.436, 22.429 8.571 C 21.211 7.354, 18.621 7, 10.929 7 M 10 9 L 3 9 3 13.300 C 3 15.665, 3.540 18.140, 4.200 18.800 C 4.860 19.460, 7.470 20, 10 20 C 12.530 20, 15.140 19.460, 15.800 18.800 C 16.460 18.140, 17 15.665, 17 13.300 L 17 9 10 9 M 20.714 10.286 C 19.095 8.667, 19 8.762, 19 12 C 19 15.238, 19.095 15.333, 20.714 13.714 C 22.333 12.095, 22.333 11.905, 20.714 10.286" stroke="none" fill="black" fill-rule="evenodd"/>
</svg>