<svg xmlns="http://www.w3.org/2000/svg" width="24" height="24" viewBox="0 0 24 24" version="1.1">
	<path d="M 5 2.500 C 5 3.875, 5.450 5, 6 5 C 6.550 5, 7 3.875, 7 2.500 C 7 1.125, 6.550 0, 6 0 C 5.450 0, 5 1.125, 5 2.500 M 9 2.500 C 9 3.875, 9.450 5, 10 5 C 10.550 5, 11 3.875, 11 2.500 C 11 1.125, 10.550 0, 10 0 C 9.450 0, 9 1.125, 9 2.500 M 13 2.500 C 13 3.875, 13.450 5, 14 5 C 14.550 5, 15 3.875, 15 2.500 C 15 1.125, 14.550 0, 14 0 C 13.450 0, 13 1.125, 13 2.500 M 1 12.929 C 1 16.985, 1.496 19.353, 2.571 20.429 C 4.674 22.531, 15.309 22.608, 17.179 20.535 C 19.867 17.554, 20.941 16.470, 22.452 15.211 C 24.442 13.553, 24.431 10.574, 22.429 8.571 C 21.211 7.354, 18.621 7, 10.929 7 L 1 7 1 12.929 M 3 13.300 C 3 18.764, 4.291 20, 10 20 C 15.709 20, 17 18.764, 17 13.300 L 17 9 10 9 L 3 9 3 13.300 M 19 12 C 19 15.238, 19.095 15.333, 20.714 13.714 C 22.333 12.095, 22.333 11.905, 20.714 10.286 C 19.095 8.667, 19 8.762, 19 12" stroke="none" fill="black" fill-rule="evenodd"/>
</svg>