<svg xmlns="http://www.w3.org/2000/svg" width="24" height="24" viewBox="0 0 24 24" version="1.1">
	<path d="M 4.970 5.750 C 4.360 7.813, 4.004 12.200, 4.180 15.500 L 4.500 21.500 12 21.500 L 19.500 21.500 19.820 15.500 C 19.996 12.200, 19.640 7.813, 19.030 5.750 L 17.920 2 12 2 L 6.080 2 4.970 5.750 M 6.975 6.565 C 6.439 7.976, 6 11.576, 6 14.565 L 6 20 12 20 L 18 20 18 14.565 C 18 11.576, 17.561 7.976, 17.025 6.565 C 15.584 2.777, 8.416 2.777, 6.975 6.565 M 11 8.500 C 11 9.333, 10.111 10, 9 10 C 7.900 10, 7 10.450, 7 11 C 7 11.550, 7.900 12, 9 12 C 10.467 12, 11 12.667, 11 14.500 C 11 15.875, 11.450 17, 12 17 C 12.550 17, 13 15.875, 13 14.500 C 13 12.667, 13.533 12, 15 12 C 16.100 12, 17 11.550, 17 11 C 17 10.450, 16.100 10, 15 10 C 13.889 10, 13 9.333, 13 8.500 C 13 7.675, 12.550 7, 12 7 C 11.450 7, 11 7.675, 11 8.500" stroke="none" fill="black" fill-rule="evenodd"/>
</svg>