<svg xmlns="http://www.w3.org/2000/svg" width="24" height="24" viewBox="0 0 24 24" version="1.1">
	<path d="M 8 0 C 6.052 0, 4.002 0.907, 2.455 2.455 C 0.973 3.936, -0 6.063, -0 7.820 C -0 9.421, 0.865 11.830, 1.922 13.174 C 2.980 14.518, 3.992 17.167, 4.172 19.059 L 4.500 22.500 11 22.500 C 16.888 22.500, 17.529 22.298, 17.806 20.352 C 17.975 19.171, 18.987 17.975, 20.056 17.696 C 21.125 17.416, 22 16.665, 22 16.026 C 22 15.320, 21.216 15.114, 20 15.500 C 18.802 15.880, 18 15.680, 18 15 C 18 14.294, 17.188 14.123, 15.849 14.548 C 14.028 15.126, 13.821 14.944, 14.501 13.365 C 14.943 12.339, 15.507 10.063, 15.755 8.307 C 16.102 5.845, 15.620 4.529, 13.648 2.557 C 12.008 0.917, 9.982 0, 8 0 M 8 2 C 6.900 2, 5.100 2.900, 4 4 C 2.900 5.100, 2.007 6.787, 2.015 7.750 C 2.024 8.713, 2.467 10.175, 3 11 C 3.755 12.169, 3.973 11.893, 3.985 9.750 C 3.993 8.238, 4.450 7, 5 7 C 5.550 7, 6 8.575, 6 10.500 C 6 13.333, 6.381 14, 8 14 C 9.100 14, 10.900 13.100, 12 12 C 13.100 10.900, 14 9.100, 14 8 C 14 6.900, 13.100 5.100, 12 4 C 10.900 2.900, 9.100 2, 8 2 M 13.750 16.850 C 12.512 16.091, 10.262 15.619, 8.750 15.801 C 6.594 16.061, 6 16.659, 6 18.566 C 6 20.820, 6.370 21, 11 21 C 14.593 21, 16 20.610, 16 19.615 C 16 18.853, 14.988 17.609, 13.750 16.850" stroke="none" fill="black" fill-rule="evenodd"/>
</svg>