<svg xmlns="http://www.w3.org/2000/svg" width="24" height="24" viewBox="0 0 24 24" version="1.1">
	<path d="M 2.455 2.455 C -0.527 5.436, -0.743 9.786, 1.922 13.174 C 2.980 14.518, 3.992 17.167, 4.172 19.059 L 4.500 22.500 11 22.500 C 16.888 22.500, 17.529 22.298, 17.806 20.352 C 17.975 19.171, 18.987 17.975, 20.056 17.696 C 21.125 17.416, 22 16.665, 22 16.026 C 22 15.320, 21.216 15.114, 20 15.500 C 18.802 15.880, 18 15.680, 18 15 C 18 14.294, 17.188 14.123, 15.849 14.548 C 14.028 15.126, 13.821 14.944, 14.501 13.365 C 16.524 8.669, 16.247 5.156, 13.648 2.557 C 10.297 -0.794, 5.745 -0.836, 2.455 2.455 M 4 4 C 1.828 6.172, 1.476 8.641, 3 11 C 3.755 12.169, 3.973 11.893, 3.985 9.750 C 3.993 8.238, 4.450 7, 5 7 C 5.550 7, 6 8.575, 6 10.500 C 6 13.333, 6.381 14, 8 14 C 10.576 14, 14 10.576, 14 8 C 14 5.424, 10.576 2, 8 2 C 6.900 2, 5.100 2.900, 4 4 M 8.750 15.801 C 6.594 16.061, 6 16.659, 6 18.566 C 6 20.820, 6.370 21, 11 21 C 14.593 21, 16 20.610, 16 19.615 C 16 17.574, 11.907 15.420, 8.750 15.801" stroke="none" fill="#000000" fill-rule="evenodd"/>
</svg>