<svg viewBox="0 0 24 24" xmlns="http://www.w3.org/2000/svg" fill="none" stroke="#000000" stroke-width="2" stroke-linecap="round" stroke-linejoin="round"><path d="M1.695 6.057 C 1.466 6.129,1.256 6.299,1.128 6.516 L 1.020 6.700 1.009 11.914 C 1.002 15.337,1.013 17.179,1.039 17.277 C 1.099 17.498,1.290 17.739,1.508 17.867 L 1.700 17.980 3.000 17.980 L 4.300 17.980 4.492 17.867 C 4.700 17.745,4.913 17.485,4.948 17.310 C 4.960 17.250,4.984 17.200,5.000 17.200 C 5.017 17.200,5.040 17.250,5.052 17.310 C 5.087 17.485,5.300 17.745,5.508 17.867 L 5.700 17.980 7.000 17.980 L 8.300 17.980 8.492 17.867 C 8.700 17.745,8.913 17.485,8.948 17.310 C 8.960 17.250,8.984 17.200,9.000 17.200 C 9.017 17.200,9.040 17.250,9.052 17.310 C 9.087 17.485,9.300 17.745,9.508 17.867 L 9.700 17.980 11.000 17.980 L 12.300 17.980 12.492 17.867 C 12.700 17.745,12.913 17.485,12.948 17.310 C 12.960 17.249,12.984 17.200,13.000 17.200 C 13.017 17.200,13.040 17.249,13.052 17.310 C 13.087 17.485,13.300 17.745,13.508 17.867 L 13.700 17.980 15.000 17.980 L 16.300 17.980 16.492 17.867 C 16.700 17.745,16.913 17.485,16.948 17.310 C 16.976 17.169,17.024 17.169,17.052 17.310 C 17.087 17.485,17.300 17.745,17.508 17.867 L 17.700 17.980 19.000 17.980 L 20.300 17.980 20.489 17.869 C 20.702 17.744,20.864 17.551,20.943 17.330 C 20.986 17.211,20.997 16.649,20.998 14.593 L 21.000 12.007 21.650 11.993 C 22.279 11.980,22.306 11.976,22.492 11.867 C 22.711 11.739,22.901 11.498,22.961 11.275 C 22.988 11.176,22.999 10.337,22.991 8.911 L 22.980 6.700 22.872 6.516 C 22.740 6.293,22.533 6.128,22.290 6.055 C 22.027 5.976,1.948 5.978,1.695 6.057 M21.000 9.000 L 21.000 10.000 20.446 10.000 C 19.831 10.000,19.613 10.045,19.382 10.221 C 19.229 10.338,19.040 10.621,19.040 10.734 C 19.040 10.770,19.022 10.800,19.000 10.800 C 18.978 10.800,18.960 10.770,18.960 10.734 C 18.960 10.621,18.771 10.338,18.618 10.221 C 18.354 10.020,18.207 10.000,17.000 10.000 C 15.793 10.000,15.646 10.020,15.382 10.221 C 15.229 10.338,15.040 10.621,15.040 10.734 C 15.040 10.770,15.022 10.800,15.000 10.800 C 14.978 10.800,14.960 10.770,14.960 10.734 C 14.960 10.621,14.771 10.338,14.618 10.221 C 14.354 10.020,14.207 10.000,13.000 10.000 C 11.793 10.000,11.646 10.020,11.382 10.221 C 11.229 10.338,11.040 10.621,11.040 10.734 C 11.040 10.770,11.022 10.800,11.000 10.800 C 10.978 10.800,10.960 10.770,10.960 10.734 C 10.960 10.621,10.771 10.338,10.618 10.221 C 10.354 10.020,10.207 10.000,9.000 10.000 C 7.793 10.000,7.646 10.020,7.382 10.221 C 7.229 10.338,7.040 10.621,7.040 10.734 C 7.040 10.770,7.022 10.800,7.000 10.800 C 6.978 10.800,6.960 10.770,6.960 10.734 C 6.960 10.621,6.771 10.338,6.618 10.221 C 6.354 10.020,6.207 10.000,5.000 10.000 C 3.795 10.000,3.645 10.020,3.385 10.219 C 3.231 10.336,3.093 10.533,3.040 10.711 C 3.021 10.773,3.005 10.217,3.003 9.410 L 3.000 8.000 12.000 8.000 L 21.000 8.000 21.000 9.000 " stroke="none" fill-rule="evenodd" fill="black"></path></svg>