<svg xmlns="http://www.w3.org/2000/svg" width="24" height="24" viewBox="0 0 24 24" version="1.1">
	<path d="M 15.010 1 C 13.072 1, 11.188 1.835, 9.933 3.250 C 8.836 4.488, 6.314 7.424, 4.329 9.776 C 2.344 12.128, 1.009 14.343, 1.364 14.697 C 1.718 15.051, 3.244 14.256, 4.754 12.930 C 6.544 11.359, 6.305 11.816, 4.068 14.245 C 2.181 16.294, 0.948 18.281, 1.329 18.662 C 1.709 19.043, 3.479 18.037, 5.260 16.427 L 8.500 13.500 5.573 16.740 C 3.963 18.521, 2.955 20.289, 3.333 20.667 C 3.711 21.045, 5.254 20.176, 6.760 18.736 C 9.100 16.499, 10.110 16.199, 13.674 16.680 C 17.241 17.161, 18.223 16.868, 20.424 14.667 C 22.081 13.010, 23 10.988, 23 9 C 23 7.052, 22.093 5.002, 20.545 3.455 C 19.002 1.911, 16.948 1, 15.010 1 M 15 5 C 14.035 5, 12.703 5.653, 12.040 6.452 C 11.377 7.251, 10.985 8.665, 11.167 9.595 C 11.350 10.525, 12.287 11.782, 13.250 12.388 C 14.525 13.190, 15.475 13.190, 16.750 12.388 C 17.712 11.782, 18.650 10.525, 18.833 9.595 C 19.015 8.665, 18.623 7.251, 17.960 6.452 C 17.297 5.653, 15.965 5, 15 5" stroke="none" fill="black" fill-rule="evenodd"/>
</svg>