<svg xmlns="http://www.w3.org/2000/svg" width="24" height="24" viewBox="0 0 24 24" version="1.1">
	<path d="M 9.933 3.250 C 3.546 10.452, 0.794 14.128, 1.364 14.697 C 1.718 15.051, 3.244 14.256, 4.754 12.930 C 6.544 11.359, 6.305 11.816, 4.068 14.245 C -0.132 18.804, 0.781 20.475, 5.260 16.427 L 8.500 13.500 5.573 16.740 C 1.983 20.713, 2.965 22.364, 6.760 18.736 C 9.100 16.499, 10.110 16.199, 13.674 16.680 C 17.241 17.161, 18.223 16.868, 20.424 14.667 C 23.794 11.297, 23.844 6.753, 20.545 3.455 C 17.372 0.281, 12.647 0.190, 9.933 3.250 M 12.040 6.452 C 9.383 9.653, 13.285 14.570, 16.750 12.388 C 17.712 11.782, 18.650 10.525, 18.833 9.595 C 19.578 5.807, 14.518 3.466, 12.040 6.452" stroke="none" fill="#000000" fill-rule="evenodd"/>
</svg>