<svg xmlns="http://www.w3.org/2000/svg" width="24" height="24" viewBox="0 0 24 24" version="1.1">
	<path d="M 6 2 C 5.120 2, 3.860 2.540, 3.200 3.200 C 2.540 3.860, 2 5.120, 2 6 C 2 6.880, 2.540 8.140, 3.200 8.800 C 3.860 9.460, 5.210 10, 6.200 10 C 7.312 10, 8 10.738, 8 11.930 C 8 13.139, 7.197 13.980, 5.852 14.180 C 4.671 14.356, 3.211 15.287, 2.607 16.250 C 1.811 17.521, 1.812 18.479, 2.612 19.750 C 3.218 20.712, 4.475 21.650, 5.405 21.833 C 6.335 22.015, 7.749 21.623, 8.548 20.960 C 9.347 20.297, 10 18.910, 10 17.878 C 10 16.689, 10.709 16, 11.930 16 C 13.139 16, 13.980 16.803, 14.180 18.148 C 14.356 19.329, 15.288 20.789, 16.250 21.393 C 17.521 22.189, 18.479 22.188, 19.750 21.388 C 20.713 20.782, 21.650 19.525, 21.833 18.595 C 22.015 17.665, 21.623 16.251, 20.960 15.452 C 20.297 14.653, 18.910 14, 17.878 14 C 16.667 14, 16 13.290, 16 12 C 16 10.710, 16.667 10, 17.878 10 C 18.910 10, 20.297 9.347, 20.960 8.548 C 21.623 7.749, 22.015 6.335, 21.833 5.405 C 21.650 4.475, 20.713 3.218, 19.750 2.612 C 18.479 1.812, 17.521 1.811, 16.250 2.607 C 15.288 3.211, 14.356 4.671, 14.180 5.852 C 13.980 7.197, 13.139 8, 11.930 8 C 10.738 8, 10 7.312, 10 6.200 C 10 5.210, 9.460 3.860, 8.800 3.200 C 8.140 2.540, 6.880 2, 6 2 M 6.342 4.280 C 5.705 4.068, 4.890 4.368, 4.533 4.947 C 4.175 5.526, 4.160 6.450, 4.500 7 C 4.840 7.550, 5.799 8, 6.632 8 C 7.508 8, 8.010 7.297, 7.823 6.333 C 7.645 5.416, 6.979 4.492, 6.342 4.280 M 18.438 4.313 C 17.853 4.118, 17.066 4.268, 16.688 4.646 C 16.309 5.024, 16 5.966, 16 6.740 C 16 7.541, 16.753 8.002, 17.750 7.810 C 18.712 7.624, 19.500 6.841, 19.500 6.070 C 19.500 5.298, 19.022 4.507, 18.438 4.313 M 12 10 C 10.667 10, 10 10.667, 10 12 C 10 13.333, 10.667 14, 12 14 C 13.333 14, 14 13.333, 14 12 C 14 10.667, 13.333 10, 12 10 M 6.559 16 C 5.766 16, 4.816 16.489, 4.446 17.087 C 4.077 17.685, 4.236 18.636, 4.800 19.200 C 5.364 19.764, 6.315 19.923, 6.913 19.554 C 7.511 19.184, 8 18.234, 8 17.441 C 8 16.648, 7.352 16, 6.559 16 M 17.659 16.173 C 16.323 15.916, 15.916 16.323, 16.173 17.659 C 16.368 18.672, 17.196 19.500, 18.014 19.500 C 18.831 19.500, 19.500 18.831, 19.500 18.014 C 19.500 17.196, 18.672 16.368, 17.659 16.173" stroke="none" fill="black" fill-rule="evenodd"/>
</svg>