<svg xmlns="http://www.w3.org/2000/svg" width="24" height="24" viewBox="0 0 24 24" version="1.1">
	<path d="M 3.200 3.200 C 0.675 5.725, 2.561 10, 6.200 10 C 8.855 10, 8.541 13.780, 5.852 14.180 C 2.860 14.626, 1.191 17.494, 2.612 19.750 C 4.831 23.273, 10 21.963, 10 17.878 C 10 15.157, 13.772 15.400, 14.180 18.148 C 14.626 21.140, 17.494 22.809, 19.750 21.388 C 23.273 19.169, 21.963 14, 17.878 14 C 16.667 14, 16 13.290, 16 12 C 16 10.710, 16.667 10, 17.878 10 C 21.963 10, 23.273 4.831, 19.750 2.612 C 17.494 1.191, 14.626 2.860, 14.180 5.852 C 13.780 8.541, 10 8.855, 10 6.200 C 10 2.561, 5.725 0.675, 3.200 3.200 M 4.533 4.947 C 3.653 6.370, 4.775 8, 6.632 8 C 7.508 8, 8.010 7.297, 7.823 6.333 C 7.434 4.324, 5.437 3.484, 4.533 4.947 M 16.688 4.646 C 15.314 6.020, 16.026 8.142, 17.750 7.810 C 18.712 7.624, 19.500 6.841, 19.500 6.070 C 19.500 4.491, 17.736 3.598, 16.688 4.646 M 10 12 C 10 13.333, 10.667 14, 12 14 C 13.333 14, 14 13.333, 14 12 C 14 10.667, 13.333 10, 12 10 C 10.667 10, 10 10.667, 10 12 M 4.446 17.087 C 3.573 18.499, 5.501 20.427, 6.913 19.554 C 7.511 19.184, 8 18.234, 8 17.441 C 8 15.757, 5.426 15.501, 4.446 17.087 M 16.173 17.659 C 16.594 19.848, 19.500 20.157, 19.500 18.014 C 19.500 17.196, 18.672 16.368, 17.659 16.173 C 16.323 15.916, 15.916 16.323, 16.173 17.659" stroke="none" fill="black" fill-rule="evenodd"/>
</svg>