<svg xmlns="http://www.w3.org/2000/svg" width="24" height="24" viewBox="0 0 24 24" version="1.1">
	<path d="M 13.403 1.438 C 11.256 1.210, 8.600 1.416, 7.500 1.894 C 6.400 2.373, 4.600 3.764, 3.500 4.987 C 2.078 6.568, 1.500 8.618, 1.500 12.082 C 1.500 16.074, 2.001 17.456, 4.273 19.727 C 6.557 22.011, 7.919 22.500, 12 22.500 C 16.081 22.500, 17.443 22.011, 19.727 19.727 C 22.011 17.443, 22.500 16.081, 22.500 12 C 22.500 7.999, 22 6.546, 19.903 4.448 C 18.256 2.802, 15.876 1.699, 13.403 1.438 M 10.139 3 C 9.757 3, 8.448 3.698, 7.230 4.551 C 6.012 5.404, 4.516 7.037, 3.904 8.178 C 3.049 9.778, 3.104 10.455, 4.147 11.127 C 5.276 11.855, 5.264 12.152, 4.079 12.915 C 2.868 13.695, 2.904 14.205, 4.329 16.379 C 5.248 17.782, 6.957 19.442, 8.127 20.068 C 9.786 20.956, 10.446 20.909, 11.127 19.853 C 11.861 18.716, 12.139 18.716, 12.873 19.853 C 13.554 20.909, 14.214 20.956, 15.873 20.068 C 17.043 19.442, 18.752 17.782, 19.671 16.379 C 21.096 14.205, 21.132 13.695, 19.921 12.915 C 18.693 12.124, 18.693 11.876, 19.921 11.085 C 21.132 10.305, 21.096 9.795, 19.671 7.621 C 18.752 6.218, 17.043 4.558, 15.873 3.932 C 14.215 3.045, 13.536 3.092, 12.797 4.147 C 12.058 5.200, 11.735 5.223, 11.341 4.250 C 11.062 3.563, 10.521 3, 10.139 3 M 12 7 C 10.979 7, 9.436 7.707, 8.571 8.571 C 7.707 9.436, 7 10.979, 7 12 C 7 13.021, 7.707 14.564, 8.571 15.429 C 9.436 16.293, 10.979 17, 12 17 C 13.021 17, 14.564 16.293, 15.429 15.429 C 16.293 14.564, 17 13.021, 17 12 C 17 10.979, 16.293 9.436, 15.429 8.571 C 14.564 7.707, 13.021 7, 12 7 M 12 9 C 11.585 9, 10.666 9.698, 9.958 10.550 C 8.896 11.831, 8.961 12.390, 10.336 13.764 C 11.888 15.317, 12.112 15.317, 13.664 13.764 C 15.039 12.390, 15.104 11.831, 14.042 10.550 C 13.334 9.698, 12.415 9, 12 9" stroke="none" fill="black" fill-rule="evenodd"/>
</svg>