<svg xmlns="http://www.w3.org/2000/svg" width="24" height="24" viewBox="0 0 24 24" version="1.1">
	<path d="M 7.500 1.894 C 3.457 3.652, 1.500 6.976, 1.500 12.082 C 1.500 16.074, 2.001 17.456, 4.273 19.727 C 6.557 22.011, 7.919 22.500, 12 22.500 C 19.011 22.500, 22.500 19.011, 22.500 12 C 22.500 7.999, 22 6.546, 19.903 4.448 C 17.099 1.644, 10.974 0.383, 7.500 1.894 M 7.230 4.551 C 3.950 6.849, 2.456 10.036, 4.147 11.127 C 5.276 11.855, 5.264 12.152, 4.079 12.915 C 2.868 13.695, 2.904 14.205, 4.329 16.379 C 6.655 19.929, 9.982 21.629, 11.127 19.853 C 11.861 18.716, 12.139 18.716, 12.873 19.853 C 14.018 21.629, 17.345 19.929, 19.671 16.379 C 21.096 14.205, 21.132 13.695, 19.921 12.915 C 18.693 12.124, 18.693 11.876, 19.921 11.085 C 21.132 10.305, 21.096 9.795, 19.671 7.621 C 17.330 4.048, 14.034 2.382, 12.797 4.147 C 12.058 5.200, 11.735 5.223, 11.341 4.250 C 10.678 2.617, 9.911 2.673, 7.230 4.551 M 8.571 8.571 C 5.539 11.604, 7.734 17, 12 17 C 14.386 17, 17 14.386, 17 12 C 17 9.614, 14.386 7, 12 7 C 10.979 7, 9.436 7.707, 8.571 8.571 M 9.958 10.550 C 8.896 11.831, 8.961 12.390, 10.336 13.764 C 11.888 15.317, 12.112 15.317, 13.664 13.764 C 15.039 12.390, 15.104 11.831, 14.042 10.550 C 12.423 8.600, 11.577 8.600, 9.958 10.550" stroke="none" fill="#000000" fill-rule="evenodd"/>
</svg>