<svg xmlns="http://www.w3.org/2000/svg" width="24" height="24" viewBox="0 0 24 24" version="1.1">
	<path d="M 12 0 C 9.317 0, 8.907 0.327, 9.180 2.250 C 9.415 3.898, 10.169 4.500, 12 4.500 C 13.831 4.500, 14.585 3.898, 14.820 2.250 C 15.093 0.327, 14.683 0, 12 0 M 12 1 C 11.450 1, 11 1.450, 11 2 C 11 2.550, 11.450 3, 12 3 C 12.550 3, 13 2.550, 13 2 C 13 1.450, 12.550 1, 12 1 M 11.236 17.126 C 9.731 17.196, 6.813 17.725, 4.750 18.303 C 2.688 18.880, 1 19.723, 1 20.176 C 1 20.629, 5.950 21, 12 21 C 18.050 21, 23 20.643, 23 20.207 C 23 19.771, 20.969 18.871, 18.486 18.207 C 16.003 17.543, 12.740 17.057, 11.236 17.126" stroke="none" fill="black" fill-rule="evenodd"/>
</svg>