<svg xmlns="http://www.w3.org/2000/svg" width="24" height="24" viewBox="0 0 24 24" version="1.1">
	<path d="M 9.180 2.250 C 9.415 3.898, 10.169 4.500, 12 4.500 C 13.831 4.500, 14.585 3.898, 14.820 2.250 C 15.093 0.327, 14.683 0, 12 0 C 9.317 0, 8.907 0.327, 9.180 2.250 M 11 2 C 11 2.550, 11.450 3, 12 3 C 12.550 3, 13 2.550, 13 2 C 13 1.450, 12.550 1, 12 1 C 11.450 1, 11 1.450, 11 2 M 4.750 18.303 C -1.740 20.120, 0.626 21, 12 21 C 18.050 21, 23 20.643, 23 20.207 C 23 19.148, 14.674 16.968, 11.236 17.126 C 9.731 17.196, 6.813 17.725, 4.750 18.303" stroke="none" fill="black" fill-rule="evenodd"/>
</svg>