<svg viewBox="0 0 24 24" xmlns="http://www.w3.org/2000/svg" fill="none" stroke="#000000" stroke-width="2" stroke-linecap="round" stroke-linejoin="round"><path d="M9.626 0.164 C 9.439 0.382,9.228 0.792,9.114 1.160 C 9.036 1.412,9.021 1.547,9.021 2.000 C 9.021 2.609,9.093 2.922,9.344 3.400 C 9.704 4.085,10.389 4.646,11.160 4.886 C 11.594 5.021,12.406 5.021,12.840 4.886 C 13.826 4.579,14.579 3.826,14.886 2.840 C 15.021 2.406,15.021 1.594,14.886 1.160 C 14.772 0.792,14.561 0.382,14.374 0.164 L 14.234 0.000 12.000 -0.000 L 9.766 -0.000 9.626 0.164 M12.310 1.061 C 12.688 1.173,13.000 1.598,13.000 2.001 C 13.000 2.331,12.784 2.696,12.484 2.872 C 12.328 2.963,12.254 2.980,12.000 2.980 C 11.746 2.980,11.672 2.963,11.516 2.872 C 10.935 2.530,10.833 1.774,11.304 1.303 C 11.583 1.024,11.916 0.944,12.310 1.061 M11.320 17.144 C 8.751 17.254,6.300 17.828,4.185 18.816 L 3.790 19.000 2.841 19.000 C 1.805 19.000,1.639 19.025,1.382 19.221 C 1.302 19.282,1.187 19.415,1.128 19.516 C 1.037 19.672,1.020 19.746,1.020 20.000 C 1.020 20.256,1.036 20.328,1.131 20.489 C 1.256 20.702,1.449 20.864,1.670 20.943 C 1.893 21.023,22.107 21.023,22.330 20.943 C 22.551 20.864,22.744 20.702,22.869 20.489 C 22.964 20.328,22.980 20.256,22.980 20.000 C 22.980 19.746,22.963 19.672,22.872 19.516 C 22.813 19.415,22.698 19.282,22.618 19.221 C 22.361 19.025,22.195 19.000,21.159 19.000 L 20.210 19.000 19.815 18.816 C 17.998 17.968,15.697 17.367,13.640 17.203 C 13.072 17.158,11.769 17.125,11.320 17.144 " stroke="none" fill-rule="evenodd" fill="black"></path></svg>