<svg xmlns="http://www.w3.org/2000/svg" width="24" height="24" viewBox="0 0 24 24" version="1.1">
	<path d="M 11 3 C 11 4.100, 11.450 5, 12 5 C 12.550 5, 13 4.100, 13 3 C 13 1.900, 12.550 1, 12 1 C 11.450 1, 11 1.900, 11 3 M 4.188 5.063 C 4.428 5.784, 5.216 6.572, 5.938 6.813 C 6.688 7.063, 7.063 6.688, 6.813 5.938 C 6.572 5.216, 5.784 4.428, 5.063 4.188 C 4.313 3.938, 3.938 4.313, 4.188 5.063 M 17.459 5.067 C 17.096 5.653, 17.040 6.373, 17.333 6.667 C 18.050 7.383, 20 6.121, 20 4.941 C 20 3.663, 18.274 3.748, 17.459 5.067 M 8.571 8.571 C 5.539 11.604, 7.734 17, 12 17 C 14.386 17, 17 14.386, 17 12 C 17 9.614, 14.386 7, 12 7 C 10.979 7, 9.436 7.707, 8.571 8.571 M 9.958 10.550 C 8.896 11.831, 8.961 12.390, 10.336 13.764 C 11.888 15.317, 12.112 15.317, 13.664 13.764 C 15.039 12.390, 15.104 11.831, 14.042 10.550 C 12.423 8.600, 11.577 8.600, 9.958 10.550 M 1 12 C 1 12.550, 1.900 13, 3 13 C 4.100 13, 5 12.550, 5 12 C 5 11.450, 4.100 11, 3 11 C 1.900 11, 1 11.450, 1 12 M 19 12 C 19 12.550, 19.900 13, 21 13 C 22.100 13, 23 12.550, 23 12 C 23 11.450, 22.100 11, 21 11 C 19.900 11, 19 11.450, 19 12 M 4.459 18.067 C 4.096 18.653, 4.040 19.373, 4.333 19.667 C 5.050 20.383, 7 19.121, 7 17.941 C 7 16.663, 5.274 16.748, 4.459 18.067 M 17.188 18.063 C 17.428 18.784, 18.216 19.572, 18.938 19.813 C 19.688 20.063, 20.063 19.688, 19.813 18.938 C 19.572 18.216, 18.784 17.428, 18.063 17.188 C 17.313 16.938, 16.938 17.313, 17.188 18.063 M 11 21 C 11 22.100, 11.450 23, 12 23 C 12.550 23, 13 22.100, 13 21 C 13 19.900, 12.550 19, 12 19 C 11.450 19, 11 19.900, 11 21" stroke="none" fill="#000000" fill-rule="evenodd"/>
</svg>