<svg xmlns="http://www.w3.org/2000/svg" width="24" height="24" viewBox="0 0 24 24" version="1.1">
	<path d="M 12 1 C 11.450 1, 11 1.900, 11 3 C 11 4.100, 11.450 5, 12 5 C 12.550 5, 13 4.100, 13 3 C 13 1.900, 12.550 1, 12 1 M 5.063 4.188 C 4.313 3.938, 3.938 4.313, 4.188 5.063 C 4.428 5.784, 5.216 6.572, 5.938 6.813 C 6.688 7.063, 7.063 6.688, 6.813 5.938 C 6.572 5.216, 5.784 4.428, 5.063 4.188 M 19.059 4 C 18.541 4, 17.821 4.480, 17.459 5.067 C 17.096 5.653, 17.040 6.373, 17.333 6.667 C 17.627 6.960, 18.347 6.904, 18.933 6.541 C 19.520 6.179, 20 5.459, 20 4.941 C 20 4.423, 19.577 4, 19.059 4 M 12 7 C 10.979 7, 9.436 7.707, 8.571 8.571 C 7.707 9.436, 7 10.979, 7 12 C 7 13.021, 7.707 14.564, 8.571 15.429 C 9.436 16.293, 10.979 17, 12 17 C 13.021 17, 14.564 16.293, 15.429 15.429 C 16.293 14.564, 17 13.021, 17 12 C 17 10.979, 16.293 9.436, 15.429 8.571 C 14.564 7.707, 13.021 7, 12 7 M 12 9 C 11.585 9, 10.666 9.698, 9.958 10.550 C 8.896 11.831, 8.961 12.390, 10.336 13.764 C 11.888 15.317, 12.112 15.317, 13.664 13.764 C 15.039 12.390, 15.104 11.831, 14.042 10.550 C 13.334 9.698, 12.415 9, 12 9 M 3 11 C 1.900 11, 1 11.450, 1 12 C 1 12.550, 1.900 13, 3 13 C 4.100 13, 5 12.550, 5 12 C 5 11.450, 4.100 11, 3 11 M 21 11 C 19.900 11, 19 11.450, 19 12 C 19 12.550, 19.900 13, 21 13 C 22.100 13, 23 12.550, 23 12 C 23 11.450, 22.100 11, 21 11 M 6.059 17 C 5.541 17, 4.821 17.480, 4.459 18.067 C 4.096 18.653, 4.040 19.373, 4.333 19.667 C 4.627 19.960, 5.347 19.904, 5.933 19.541 C 6.520 19.179, 7 18.459, 7 17.941 C 7 17.423, 6.577 17, 6.059 17 M 18.063 17.188 C 17.313 16.938, 16.938 17.313, 17.188 18.063 C 17.428 18.784, 18.216 19.572, 18.938 19.813 C 19.688 20.063, 20.063 19.688, 19.813 18.938 C 19.572 18.216, 18.784 17.428, 18.063 17.188 M 12 19 C 11.450 19, 11 19.900, 11 21 C 11 22.100, 11.450 23, 12 23 C 12.550 23, 13 22.100, 13 21 C 13 19.900, 12.550 19, 12 19" stroke="none" fill="black" fill-rule="evenodd"/>
</svg>