<svg xmlns="http://www.w3.org/2000/svg" width="24" height="24" viewBox="0 0 24 24" version="1.1">
	<path d="M 7.500 1.945 C 3.498 3.583, 1.500 6.960, 1.500 12.082 C 1.500 18.502, 4.726 21.989, 11.355 22.737 C 15.586 23.213, 16.223 22.977, 19.473 19.727 C 22.389 16.811, 23 15.473, 23 12 C 23 8.557, 22.387 7.187, 19.600 4.400 C 16.094 0.894, 12.066 0.077, 7.500 1.945 M 5.923 5.923 C 3.928 7.918, 3 9.848, 3 12 C 3 15.141, 7.507 21, 9.923 21 C 10.613 21, 11 17.762, 11 12 C 11 6.238, 10.613 3, 9.923 3 C 9.331 3, 7.531 4.315, 5.923 5.923 M 13 12 L 13 21.051 15.859 19.573 C 17.432 18.760, 19.286 16.723, 19.980 15.047 C 21.632 11.061, 19.861 6.496, 15.859 4.427 L 13 2.949 13 12" stroke="none" fill="#000000" fill-rule="evenodd"/>
</svg>