<svg xmlns="http://www.w3.org/2000/svg" width="24" height="24" viewBox="0 0 24 24" version="1.1">
	<path d="M 12.850 1.063 C 11.008 1.098, 8.600 1.495, 7.500 1.945 C 6.400 2.396, 4.600 3.764, 3.500 4.987 C 2.078 6.568, 1.500 8.618, 1.500 12.082 C 1.500 16.011, 2.010 17.464, 4.132 19.587 C 5.944 21.399, 8.195 22.380, 11.355 22.737 C 15.586 23.213, 16.223 22.977, 19.473 19.727 C 22.389 16.811, 23 15.473, 23 12 C 23 8.557, 22.387 7.187, 19.600 4.400 C 17.037 1.837, 15.376 1.016, 12.850 1.063 M 9.923 3 C 9.331 3, 7.531 4.315, 5.923 5.923 C 3.928 7.918, 3 9.848, 3 12 C 3 14.152, 3.928 16.082, 5.923 18.077 C 7.531 19.685, 9.331 21, 9.923 21 C 10.613 21, 11 17.762, 11 12 C 11 6.238, 10.613 3, 9.923 3 M 15.859 4.427 L 13 2.949 13 12 L 13 21.051 15.859 19.573 C 17.432 18.760, 19.286 16.723, 19.980 15.047 C 20.997 12.594, 20.997 11.406, 19.980 8.953 C 19.286 7.277, 17.432 5.240, 15.859 4.427" stroke="none" fill="black" fill-rule="evenodd"/>
</svg>