<svg xmlns="http://www.w3.org/2000/svg" width="24" height="24" viewBox="0 0 24 24" version="1.1">
	<path d="M 8.476 3.075 C 8.114 4.217, 8.108 5.441, 8.463 5.796 C 9.213 6.546, 10.962 4.085, 10.985 2.250 C 11.010 0.223, 9.191 0.821, 8.476 3.075 M 13.015 2.250 C 13.038 4.085, 14.787 6.546, 15.537 5.796 C 16.411 4.922, 15.099 1, 13.933 1 C 13.420 1, 13.007 1.563, 13.015 2.250 M 3 8.917 C 3 9.971, 2.438 11.062, 1.750 11.341 C 0.799 11.726, 0.782 12.049, 1.681 12.690 C 2.331 13.154, 3.006 15.550, 3.181 18.016 L 3.500 22.500 12 22.500 L 20.500 22.500 20.819 18.016 C 20.994 15.550, 21.669 13.154, 22.319 12.690 C 23.218 12.049, 23.201 11.726, 22.250 11.341 C 21.562 11.062, 21 9.971, 21 8.917 C 21 7.862, 20.550 7, 20 7 C 19.450 7, 19 7.900, 19 9 C 19 10.810, 18.333 11, 12 11 C 5.667 11, 5 10.810, 5 9 C 5 7.900, 4.550 7, 4 7 C 3.450 7, 3 7.863, 3 8.917 M 5 17 L 5 21 12 21 L 19 21 19 17 L 19 13 12 13 L 5 13 5 17" stroke="none" fill="#000000" fill-rule="evenodd"/>
</svg>