<svg viewBox="0 0 24 24" xmlns="http://www.w3.org/2000/svg" fill="none" stroke="#000000" stroke-width="2" stroke-linecap="round" stroke-linejoin="round"><path d="M9.689 1.059 C 9.473 1.126,9.273 1.278,9.162 1.457 C 9.028 1.673,8.000 4.793,8.000 4.983 C 7.999 5.741,8.792 6.222,9.469 5.874 C 9.813 5.697,9.859 5.601,10.455 3.812 C 10.795 2.793,11.000 2.116,11.000 2.016 C 11.000 1.604,10.715 1.194,10.340 1.066 C 10.110 0.988,9.923 0.986,9.689 1.059 M13.643 1.066 C 13.282 1.199,13.000 1.615,13.000 2.016 C 13.000 2.116,13.205 2.793,13.545 3.812 C 14.141 5.601,14.187 5.697,14.531 5.874 C 15.207 6.221,16.000 5.741,16.000 4.984 C 16.000 4.884,15.795 4.207,15.455 3.188 C 14.860 1.402,14.816 1.310,14.471 1.131 C 14.229 1.005,13.884 0.978,13.643 1.066 M3.695 7.057 C 3.466 7.129,3.256 7.299,3.128 7.516 L 3.020 7.700 3.008 9.350 L 2.997 11.000 2.445 11.000 C 1.648 11.000,1.367 11.110,1.128 11.516 C 1.037 11.672,1.020 11.746,1.020 12.000 C 1.020 12.256,1.036 12.328,1.131 12.489 C 1.256 12.702,1.449 12.864,1.670 12.943 C 1.768 12.978,2.022 12.997,2.409 12.998 L 2.997 13.000 3.009 16.790 L 3.020 20.580 3.114 20.860 C 3.446 21.851,4.184 22.582,5.160 22.886 L 5.460 22.980 12.000 22.980 L 18.540 22.980 18.840 22.886 C 19.816 22.582,20.554 21.851,20.886 20.860 L 20.980 20.580 20.991 16.790 L 21.003 13.000 21.591 12.998 C 21.978 12.997,22.232 12.978,22.330 12.943 C 22.551 12.864,22.744 12.702,22.869 12.489 C 22.964 12.328,22.980 12.256,22.980 12.000 C 22.980 11.746,22.963 11.672,22.872 11.516 C 22.633 11.110,22.352 11.000,21.555 11.000 L 21.003 11.000 20.992 9.350 L 20.980 7.700 20.871 7.514 C 20.479 6.848,19.521 6.848,19.129 7.514 L 19.020 7.700 19.008 9.350 L 18.997 11.000 12.000 11.000 L 5.003 11.000 4.992 9.350 L 4.980 7.700 4.872 7.516 C 4.628 7.101,4.150 6.915,3.695 7.057 M19.000 16.554 C 19.000 20.410,19.005 20.322,18.779 20.618 C 18.718 20.698,18.585 20.813,18.484 20.872 L 18.300 20.980 12.000 20.980 L 5.700 20.980 5.516 20.872 C 5.415 20.813,5.284 20.700,5.225 20.623 C 4.992 20.317,5.000 20.464,5.000 16.575 L 5.000 13.000 12.000 13.000 L 19.000 13.000 19.000 16.554 " stroke="none" fill-rule="evenodd" fill="black"></path></svg>