<svg xmlns="http://www.w3.org/2000/svg" width="24" height="24" viewBox="0 0 24 24" version="1.1">
	<path d="M 15 6.930 C 15 7.442, 16.012 8.056, 17.250 8.294 C 18.488 8.533, 15.787 8.789, 11.250 8.864 C 6.713 8.939, 3 9.383, 3 9.851 C 3 10.319, 3.494 12.119, 4.098 13.851 C 4.979 16.379, 5.752 17, 8.014 17 C 9.565 17, 11.096 16.438, 11.417 15.750 C 11.883 14.750, 12.117 14.750, 12.583 15.750 C 12.904 16.437, 14.461 17, 16.043 17 C 18.524 17, 19.082 16.459, 20.096 13.075 C 20.742 10.916, 21 8.441, 20.667 7.575 C 20.029 5.911, 15 5.339, 15 6.930 M 6.190 12.750 C 6.376 13.713, 7.190 14.500, 8 14.500 C 8.810 14.500, 9.624 13.713, 9.810 12.750 C 10.046 11.522, 9.506 11, 8 11 C 6.494 11, 5.954 11.522, 6.190 12.750 M 14.190 12.750 C 14.628 15.021, 17.372 15.021, 17.810 12.750 C 18.046 11.522, 17.506 11, 16 11 C 14.494 11, 13.954 11.522, 14.190 12.750" stroke="none" fill="black" fill-rule="evenodd"/>
</svg>