<svg viewBox="0 0 24 24" xmlns="http://www.w3.org/2000/svg" fill="none" stroke="#000000" stroke-width="2" stroke-linecap="round" stroke-linejoin="round"><path d="M15.695 6.055 C 15.464 6.130,15.255 6.300,15.128 6.516 C 15.037 6.672,15.020 6.746,15.020 7.000 C 15.020 7.256,15.036 7.328,15.131 7.489 C 15.192 7.592,15.304 7.725,15.381 7.783 C 15.644 7.984,15.734 7.996,16.963 7.998 C 18.306 8.000,18.413 8.019,18.697 8.303 C 18.863 8.469,19.000 8.760,19.000 8.947 C 19.000 8.991,17.662 9.000,11.390 9.000 L 3.780 9.001 3.580 9.095 C 3.224 9.264,3.003 9.602,3.001 9.980 C 3.000 10.258,5.028 16.356,5.201 16.595 C 5.264 16.683,5.403 16.805,5.508 16.867 L 5.700 16.980 8.000 16.980 L 10.300 16.980 10.492 16.867 C 10.819 16.675,10.869 16.569,11.446 14.839 C 11.740 13.960,11.989 13.240,12.000 13.240 C 12.012 13.240,12.260 13.959,12.553 14.837 C 13.128 16.567,13.179 16.674,13.508 16.867 L 13.700 16.980 16.000 16.980 L 18.300 16.980 18.492 16.867 C 18.597 16.805,18.735 16.683,18.798 16.596 C 18.881 16.481,19.204 15.565,19.961 13.296 L 21.009 10.155 20.990 9.288 C 20.974 8.529,20.961 8.385,20.882 8.140 C 20.571 7.171,19.815 6.418,18.861 6.124 C 18.551 6.028,18.495 6.025,17.200 6.014 C 16.166 6.005,15.822 6.014,15.695 6.055 M10.590 11.050 C 10.580 11.078,10.280 11.978,9.923 13.050 L 9.273 15.000 8.000 15.000 L 6.727 15.000 6.077 13.050 C 5.720 11.978,5.420 11.078,5.410 11.050 C 5.395 11.010,5.930 11.000,8.000 11.000 C 10.070 11.000,10.605 11.010,10.590 11.050 M18.590 11.050 C 18.580 11.078,18.280 11.978,17.923 13.050 L 17.273 15.000 16.000 15.000 L 14.727 15.000 14.077 13.050 C 13.720 11.978,13.420 11.078,13.410 11.050 C 13.395 11.010,13.930 11.000,16.000 11.000 C 18.070 11.000,18.605 11.010,18.590 11.050 " stroke="none" fill-rule="evenodd" fill="black"></path></svg>