<svg xmlns="http://www.w3.org/2000/svg" width="24" height="24" viewBox="0 0 24 24" version="1.1">
	<path d="M 9.187 3 C 8.740 3, 7.071 4.360, 5.479 6.022 L 2.583 9.045 5.759 12.221 C 7.507 13.968, 9.248 15.086, 9.628 14.705 C 10.009 14.324, 9.504 13.110, 8.506 12.006 C 6.711 10.024, 6.748 10, 11.645 10 C 14.370 10, 17.140 10.540, 17.800 11.200 C 18.460 11.860, 19 14.335, 19 16.700 C 19 19.065, 19.450 21, 20 21 C 20.550 21, 21 18.782, 21 16.071 C 21 12.924, 20.432 10.575, 19.429 9.571 C 18.375 8.518, 16.016 8, 12.274 8 C 6.928 8, 6.760 7.922, 8.345 6.171 C 9.255 5.165, 10 4.040, 10 3.671 C 10 3.302, 9.634 3, 9.187 3" stroke="none" fill="black" fill-rule="evenodd"/>
</svg>