<svg viewBox="0 0 24 24" xmlns="http://www.w3.org/2000/svg" fill="none" stroke="#000000" stroke-width="2" stroke-linecap="round" stroke-linejoin="round"><path d="M19.695 3.057 C 19.466 3.129,19.256 3.299,19.128 3.516 L 19.020 3.700 18.999 6.260 C 18.988 7.668,18.974 8.786,18.969 8.744 C 18.953 8.612,18.770 8.337,18.623 8.225 C 18.331 8.003,18.008 7.949,17.657 8.065 C 17.478 8.124,17.217 8.372,14.847 10.735 C 13.368 12.210,12.188 13.418,12.127 13.520 C 12.036 13.673,12.020 13.745,12.021 14.000 C 12.021 14.212,12.043 14.341,12.095 14.440 C 12.195 14.632,17.294 19.738,17.520 19.873 C 17.672 19.964,17.746 19.980,18.000 19.980 C 18.257 19.980,18.327 19.964,18.492 19.867 C 18.702 19.744,18.911 19.487,18.953 19.300 C 18.969 19.229,18.988 19.410,19.000 19.743 C 19.019 20.284,19.025 20.314,19.141 20.503 C 19.543 21.156,20.457 21.156,20.859 20.503 L 20.980 20.306 20.980 12.003 L 20.980 3.700 20.872 3.516 C 20.628 3.101,20.150 2.915,19.695 3.057 M10.640 8.068 C 10.485 8.121,10.093 8.495,7.847 10.735 C 6.368 12.209,5.188 13.418,5.127 13.520 C 5.036 13.673,5.020 13.745,5.021 14.000 C 5.021 14.212,5.043 14.341,5.095 14.440 C 5.192 14.625,10.292 19.737,10.508 19.865 C 10.967 20.139,11.587 19.968,11.867 19.492 C 11.964 19.327,11.980 19.258,11.979 19.000 C 11.979 18.788,11.957 18.659,11.905 18.560 C 11.865 18.483,10.839 17.425,9.626 16.210 L 7.421 14.000 9.626 11.790 C 10.839 10.574,11.865 9.517,11.905 9.440 C 11.957 9.341,11.979 9.212,11.979 9.000 C 11.980 8.745,11.964 8.672,11.872 8.516 C 11.617 8.083,11.122 7.903,10.640 8.068 M18.998 14.010 C 18.997 18.247,18.990 18.801,18.939 18.660 C 18.907 18.572,18.881 18.492,18.881 18.482 C 18.880 18.471,17.877 17.459,16.651 16.231 L 14.421 14.000 16.627 11.790 C 17.839 10.574,18.861 9.522,18.896 9.452 C 18.931 9.382,18.960 9.296,18.960 9.262 C 18.960 9.228,18.969 9.200,18.980 9.200 C 18.991 9.200,18.999 11.364,18.998 14.010 " stroke="none" fill-rule="evenodd" fill="black"></path></svg>