<svg xmlns="http://www.w3.org/2000/svg" width="24" height="24" viewBox="0 0 24 24" version="1.1">
	<path d="M 7.929 3 C 5.218 3, 3 3.450, 3 4 C 3 4.550, 4.935 5, 7.300 5 C 9.665 5, 12.140 5.540, 12.800 6.200 C 13.460 6.860, 14 9.630, 14 12.355 C 14 17.252, 13.976 17.289, 11.994 15.494 C 10.890 14.496, 9.676 13.991, 9.295 14.372 C 8.914 14.752, 10.042 16.504, 11.801 18.263 L 15 21.462 18.199 18.263 C 19.958 16.504, 21.086 14.752, 20.705 14.372 C 20.324 13.991, 19.110 14.496, 18.006 15.494 C 16.021 17.291, 16 17.252, 16 11.726 C 16 7.984, 15.482 5.625, 14.429 4.571 C 13.425 3.568, 11.076 3, 7.929 3" stroke="none" fill="black" fill-rule="evenodd"/>
</svg>