<svg xmlns="http://www.w3.org/2000/svg" width="24" height="24" viewBox="0 0 24 24" version="1.1">
	<path d="M 15 3 C 14.656 3, 13.085 4.345, 11.510 5.990 C 9.935 7.634, 8.948 9.281, 9.317 9.650 C 9.686 10.019, 10.890 9.504, 11.994 8.506 C 13.976 6.711, 14 6.748, 14 11.645 C 14 14.370, 13.460 17.140, 12.800 17.800 C 12.140 18.460, 9.665 19, 7.300 19 C 4.935 19, 3 19.450, 3 20 C 3 20.550, 5.218 21, 7.929 21 C 11.076 21, 13.425 20.432, 14.429 19.429 C 15.482 18.375, 16 16.016, 16 12.274 C 16 6.748, 16.021 6.709, 18.006 8.506 C 19.110 9.504, 20.314 10.019, 20.683 9.650 C 21.052 9.281, 20.065 7.634, 18.490 5.990 C 16.915 4.345, 15.344 3, 15 3" stroke="none" fill="black" fill-rule="evenodd"/>
</svg>