<svg xmlns="http://www.w3.org/2000/svg" width="24" height="24" viewBox="0 0 24 24" version="1.1">
	<path d="M 9 3 C 8.656 3, 7.085 4.345, 5.510 5.990 C 3.935 7.634, 2.948 9.281, 3.317 9.650 C 3.686 10.019, 4.890 9.504, 5.994 8.506 C 7.979 6.709, 8 6.748, 8 12.274 C 8 16.016, 8.518 18.375, 9.571 19.429 C 10.575 20.432, 12.924 21, 16.071 21 C 18.782 21, 21 20.550, 21 20 C 21 19.450, 19.065 19, 16.700 19 C 14.335 19, 11.860 18.460, 11.200 17.800 C 10.540 17.140, 10 14.370, 10 11.645 C 10 6.748, 10.024 6.711, 12.006 8.506 C 13.110 9.504, 14.314 10.019, 14.683 9.650 C 15.052 9.281, 14.065 7.634, 12.490 5.990 C 10.915 4.345, 9.344 3, 9 3" stroke="none" fill="black" fill-rule="evenodd"/>
</svg>