<svg xmlns="http://www.w3.org/2000/svg" width="24" height="24" viewBox="0 0 24 24" version="1.1">
	<path d="M 5.510 5.990 C 2.364 9.274, 2.776 11.418, 5.994 8.506 C 7.979 6.709, 8 6.748, 8 12.274 C 8 19.394, 9.485 21, 16.071 21 C 18.782 21, 21 20.550, 21 20 C 21 19.450, 19.065 19, 16.700 19 C 11.170 19, 10 17.715, 10 11.645 C 10 6.748, 10.024 6.711, 12.006 8.506 C 15.224 11.418, 15.636 9.274, 12.490 5.990 C 10.915 4.345, 9.344 3, 9 3 C 8.656 3, 7.085 4.345, 5.510 5.990" stroke="none" fill="#000000" fill-rule="evenodd"/>
</svg>