<svg xmlns="http://www.w3.org/2000/svg" width="24" height="24" viewBox="0 0 24 24" version="1.1">
	<path d="M 19 4.987 C 19 6.079, 17.313 8.554, 15.250 10.487 L 11.500 14 15.235 17.500 C 17.290 19.425, 19.427 21, 19.985 21 C 20.596 21, 21 17.420, 21 12 C 21 6.667, 20.593 3, 20 3 C 19.450 3, 19 3.894, 19 4.987 M 7.479 11.022 L 4.583 14.045 7.759 17.221 C 11.438 20.899, 13.504 20.229, 9.996 16.496 L 7.651 14 9.826 11.686 C 11.022 10.413, 12 9.063, 12 8.686 C 12 7.224, 10.253 8.127, 7.479 11.022 M 16.468 12.035 C 14.674 14.018, 14.682 14.127, 16.813 16.258 L 19 18.444 19 14.222 C 19 11.900, 18.845 10, 18.655 10 C 18.465 10, 17.481 10.916, 16.468 12.035" stroke="none" fill="black" fill-rule="evenodd"/>
</svg>