<svg xmlns="http://www.w3.org/2000/svg" width="24" height="24" viewBox="0 0 24 24" version="1.1">
	<path d="M 20 3 C 19.450 3, 19 4.935, 19 7.300 C 19 9.665, 18.460 12.140, 17.800 12.800 C 17.140 13.460, 14.370 14, 11.645 14 C 6.748 14, 6.711 13.976, 8.506 11.994 C 9.504 10.890, 10.009 9.676, 9.628 9.295 C 9.248 8.914, 7.496 10.042, 5.737 11.801 L 2.538 15 5.737 18.199 C 7.496 19.958, 9.248 21.086, 9.628 20.705 C 10.009 20.324, 9.504 19.110, 8.506 18.006 C 6.709 16.021, 6.748 16, 12.274 16 C 16.016 16, 18.375 15.482, 19.429 14.429 C 20.432 13.425, 21 11.076, 21 7.929 C 21 5.218, 20.550 3, 20 3" stroke="none" fill="black" fill-rule="evenodd"/>
</svg>