<svg xmlns="http://www.w3.org/2000/svg" width="24" height="24" viewBox="0 0 24 24" version="1.1">
	<path d="M 4 3 C 3.450 3, 3 5.218, 3 7.929 C 3 11.076, 3.568 13.425, 4.571 14.429 C 5.625 15.482, 7.984 16, 11.726 16 C 17.252 16, 17.291 16.021, 15.494 18.006 C 14.496 19.110, 13.991 20.324, 14.372 20.705 C 14.752 21.086, 16.504 19.958, 18.263 18.199 L 21.462 15 18.263 11.801 C 16.504 10.042, 14.752 8.914, 14.372 9.295 C 13.991 9.676, 14.496 10.890, 15.494 11.994 C 17.289 13.976, 17.252 14, 12.355 14 C 9.630 14, 6.860 13.460, 6.200 12.800 C 5.540 12.140, 5 9.665, 5 7.300 C 5 4.935, 4.550 3, 4 3" stroke="none" fill="black" fill-rule="evenodd"/>
</svg>