<svg xmlns="http://www.w3.org/2000/svg" width="24" height="24" viewBox="0 0 24 24" version="1.1">
	<path d="M 14.813 3 C 14.366 3, 14 3.302, 14 3.671 C 14 4.040, 14.745 5.165, 15.655 6.171 C 17.240 7.922, 17.072 8, 11.726 8 C 7.984 8, 5.625 8.518, 4.571 9.571 C 3.568 10.575, 3 12.924, 3 16.071 C 3 18.782, 3.450 21, 4 21 C 4.550 21, 5 19.065, 5 16.700 C 5 14.335, 5.540 11.860, 6.200 11.200 C 6.860 10.540, 9.630 10, 12.355 10 C 17.252 10, 17.289 10.024, 15.494 12.006 C 14.496 13.110, 13.991 14.324, 14.372 14.705 C 14.752 15.086, 16.493 13.968, 18.241 12.221 L 21.417 9.045 18.521 6.022 C 16.929 4.360, 15.260 3, 14.813 3" stroke="none" fill="black" fill-rule="evenodd"/>
</svg>