<svg xmlns="http://www.w3.org/2000/svg" width="24" height="24" viewBox="0 0 24 24" version="1.1">
	<path d="M 16.071 3 C 12.924 3, 10.575 3.568, 9.571 4.571 C 8.518 5.625, 8 7.984, 8 11.726 C 8 17.252, 7.979 17.291, 5.994 15.494 C 4.890 14.496, 3.676 13.991, 3.295 14.372 C 2.914 14.752, 4.042 16.504, 5.801 18.263 L 9 21.462 12.199 18.263 C 13.958 16.504, 15.086 14.752, 14.705 14.372 C 14.324 13.991, 13.110 14.496, 12.006 15.494 C 10.024 17.289, 10 17.252, 10 12.355 C 10 9.630, 10.540 6.860, 11.200 6.200 C 11.860 5.540, 14.335 5, 16.700 5 C 19.065 5, 21 4.550, 21 4 C 21 3.450, 18.782 3, 16.071 3" stroke="none" fill="black" fill-rule="evenodd"/>
</svg>