<svg xmlns="http://www.w3.org/2000/svg" width="24" height="24" viewBox="0 0 24 24" version="1.1">
	<path d="M 14 3.671 C 14 4.040, 14.745 5.165, 15.655 6.171 C 17.240 7.922, 17.072 8, 11.726 8 C 4.606 8, 3 9.485, 3 16.071 C 3 18.782, 3.450 21, 4 21 C 4.550 21, 5 19.065, 5 16.700 C 5 11.170, 6.285 10, 12.355 10 C 17.252 10, 17.289 10.024, 15.494 12.006 C 12.419 15.404, 14.866 15.596, 18.241 12.221 L 21.417 9.045 18.521 6.022 C 15.757 3.137, 14 2.223, 14 3.671" stroke="none" fill="black" fill-rule="evenodd"/>
</svg>