<svg xmlns="http://www.w3.org/2000/svg" width="24" height="24" viewBox="0 0 24 24" version="1.1">
	<path d="M 11.510 5.990 C 8.364 9.274, 8.776 11.418, 11.994 8.506 C 13.976 6.711, 14 6.748, 14 11.645 C 14 17.715, 12.830 19, 7.300 19 C 4.935 19, 3 19.450, 3 20 C 3 20.550, 5.218 21, 7.929 21 C 14.515 21, 16 19.394, 16 12.274 C 16 6.748, 16.021 6.709, 18.006 8.506 C 21.224 11.418, 21.636 9.274, 18.490 5.990 C 16.915 4.345, 15.344 3, 15 3 C 14.656 3, 13.085 4.345, 11.510 5.990" stroke="none" fill="black" fill-rule="evenodd"/>
</svg>