<svg xmlns="http://www.w3.org/2000/svg" width="24" height="24" viewBox="0 0 24 24" version="1.1">
	<path d="M 3.726 1 C 3.327 1, 3 5.500, 3 11 C 3 17, 2.600 21, 2 21 C 1.450 21, 1 21.450, 1 22 C 1 22.550, 2.350 23, 4 23 C 5.650 23, 7 22.550, 7 22 C 7 21.450, 6.550 21, 6 21 C 5.450 21, 5 19.907, 5 18.572 C 5 16.355, 5.500 16.090, 10.750 15.519 C 13.912 15.176, 17.512 14.685, 18.750 14.428 C 20.745 14.015, 21 14.360, 21 17.481 L 21 21 16 21 C 13.250 21, 11 21.450, 11 22 C 11 22.566, 13.869 23, 17.607 23 C 23.221 23, 24.123 22.762, 23.607 21.418 C 23.273 20.548, 23 18.123, 23 16.029 C 23 12.296, 22.818 12.112, 13.726 6.611 C 8.625 3.525, 4.125 1, 3.726 1 M 8.250 5.813 L 5 3.837 5 8.823 L 5 13.810 9.250 13.343 C 11.588 13.086, 14.587 12.652, 15.915 12.377 C 18.276 11.890, 18.254 11.833, 14.915 9.834 C 13.037 8.710, 10.038 6.900, 8.250 5.813" stroke="none" fill="black" fill-rule="evenodd"/>
</svg>