<svg viewBox="0 0 24 24" xmlns="http://www.w3.org/2000/svg" fill="none" stroke="#000000" stroke-width="2" stroke-linecap="round" stroke-linejoin="round"><path d="M11.190 1.042 C 9.430 1.169,7.658 1.767,6.154 2.742 C 5.736 3.014,5.600 3.180,5.525 3.519 C 5.395 4.100,5.905 4.705,6.516 4.696 C 6.755 4.692,6.909 4.629,7.312 4.370 C 9.421 3.013,12.116 2.648,14.558 3.386 C 15.269 3.601,16.062 3.967,16.688 4.370 C 17.199 4.699,17.410 4.758,17.735 4.663 C 18.378 4.476,18.669 3.829,18.373 3.244 C 18.276 3.053,18.209 2.986,17.920 2.791 C 16.000 1.499,13.584 0.871,11.190 1.042 M8.520 4.581 C 6.148 4.986,4.220 6.577,3.397 8.808 C 2.854 10.281,2.872 12.022,3.446 13.477 C 3.955 14.769,4.965 15.957,6.163 16.673 C 6.761 17.031,6.211 17.000,12.000 17.000 C 17.789 17.000,17.239 17.031,17.837 16.673 C 19.035 15.957,20.045 14.769,20.554 13.477 C 21.127 12.025,21.145 10.279,20.604 8.809 C 19.774 6.561,17.834 4.970,15.440 4.577 C 14.969 4.500,8.976 4.503,8.520 4.581 M15.640 6.653 C 16.887 7.013,17.961 7.895,18.511 9.010 C 18.815 9.628,18.943 10.116,18.986 10.814 C 19.081 12.373,18.337 13.921,17.072 14.790 L 16.767 15.000 12.000 15.000 L 7.233 15.000 6.928 14.790 C 6.156 14.259,5.518 13.400,5.228 12.500 C 5.057 11.968,5.023 11.733,5.024 11.080 C 5.025 10.227,5.132 9.740,5.472 9.047 C 6.107 7.751,7.369 6.808,8.797 6.560 C 8.898 6.542,10.393 6.531,12.120 6.535 L 15.260 6.543 15.640 6.653 M8.695 9.057 C 8.466 9.129,8.256 9.299,8.128 9.516 L 8.020 9.700 8.020 11.503 L 8.020 13.306 8.141 13.503 C 8.543 14.156,9.457 14.156,9.859 13.503 L 9.980 13.306 9.980 11.503 L 9.980 9.700 9.872 9.516 C 9.628 9.101,9.150 8.915,8.695 9.057 M14.695 9.057 C 14.466 9.129,14.256 9.299,14.128 9.516 L 14.020 9.700 14.020 11.503 L 14.020 13.306 14.141 13.503 C 14.543 14.156,15.457 14.156,15.859 13.503 L 15.980 13.306 15.980 11.503 L 15.980 9.700 15.872 9.516 C 15.628 9.101,15.150 8.915,14.695 9.057 " stroke="none" fill-rule="evenodd" fill="black"></path></svg>