<svg xmlns="http://www.w3.org/2000/svg" width="24" height="24" viewBox="0 0 24 24" version="1.1">
	<path d="M 6.792 2.057 C 5.852 2.605, 5.310 3.644, 5.587 4.366 C 5.864 5.089, 5.396 6.257, 4.546 6.962 C 2.441 8.709, 2.597 13.325, 4.829 15.345 C 7.476 17.741, 17.124 17.626, 19.345 15.171 C 21.426 12.871, 21.483 8.645, 19.454 6.962 C 18.604 6.257, 18.138 5.084, 18.417 4.355 C 19.501 1.531, 10.684 -0.212, 6.792 2.057 M 10.750 3.662 C 11.438 3.940, 12.563 3.940, 13.250 3.662 C 13.938 3.385, 13.375 3.158, 12 3.158 C 10.625 3.158, 10.063 3.385, 10.750 3.662 M 6.244 8.156 C 4.586 9.814, 4.668 12.480, 6.422 13.936 C 7.212 14.591, 9.946 14.979, 12.570 14.808 C 17.957 14.457, 20.272 12.247, 18.392 9.250 C 17.031 7.081, 8.121 6.279, 6.244 8.156 M 8 11.500 C 8 12.875, 8.450 14, 9 14 C 9.550 14, 10 12.875, 10 11.500 C 10 10.125, 9.550 9, 9 9 C 8.450 9, 8 10.125, 8 11.500 M 14 11.500 C 14 12.875, 14.450 14, 15 14 C 15.550 14, 16 12.875, 16 11.500 C 16 10.125, 15.550 9, 15 9 C 14.450 9, 14 10.125, 14 11.500" stroke="none" fill="#000000" fill-rule="evenodd"/>
</svg>