<svg xmlns="http://www.w3.org/2000/svg" width="24" height="24" viewBox="0 0 24 24" version="1.1">
	<path d="M 11.816 1.030 C 9.992 1.047, 7.731 1.509, 6.792 2.057 C 5.852 2.605, 5.310 3.644, 5.587 4.366 C 5.864 5.089, 5.396 6.257, 4.546 6.962 C 3.695 7.668, 3 9.470, 3 10.967 C 3 12.465, 3.823 14.435, 4.829 15.345 C 6.065 16.464, 8.444 17, 12.174 17 C 16.248 17, 18.123 16.522, 19.345 15.171 C 20.255 14.165, 21 12.196, 21 10.794 C 21 9.392, 20.305 7.668, 19.454 6.962 C 18.604 6.257, 18.138 5.084, 18.417 4.355 C 18.697 3.627, 18.072 2.574, 17.029 2.015 C 15.985 1.457, 13.639 1.014, 11.816 1.030 M 12 3.158 C 10.625 3.158, 10.063 3.385, 10.750 3.662 C 11.438 3.940, 12.563 3.940, 13.250 3.662 C 13.938 3.385, 13.375 3.158, 12 3.158 M 12.391 7.206 C 9.442 7.030, 6.992 7.408, 6.244 8.156 C 5.560 8.840, 5 10.155, 5 11.078 C 5 12, 5.640 13.286, 6.422 13.936 C 7.212 14.591, 9.946 14.979, 12.570 14.808 C 15.740 14.601, 17.656 13.924, 18.392 12.750 C 19.189 11.480, 19.189 10.520, 18.392 9.250 C 17.641 8.053, 15.744 7.407, 12.391 7.206 M 9 9 C 8.450 9, 8 10.125, 8 11.500 C 8 12.875, 8.450 14, 9 14 C 9.550 14, 10 12.875, 10 11.500 C 10 10.125, 9.550 9, 9 9 M 15 9 C 14.450 9, 14 10.125, 14 11.500 C 14 12.875, 14.450 14, 15 14 C 15.550 14, 16 12.875, 16 11.500 C 16 10.125, 15.550 9, 15 9" stroke="none" fill="black" fill-rule="evenodd"/>
</svg>