<svg xmlns="http://www.w3.org/2000/svg" width="24" height="24" viewBox="0 0 24 24" version="1.1">
	<path d="M 6 0 C 5.450 0, 5 1.125, 5 2.500 C 5 4.500, 4.500 5, 2.500 5 C 1.125 5, 0 5.450, 0 6 C 0 6.550, 1.103 7, 2.450 7 C 4.731 7, 4.921 7.396, 5.200 12.750 L 5.500 18.500 11.250 18.800 C 16.604 19.079, 17 19.269, 17 21.550 C 17 22.897, 17.450 24, 18 24 C 18.550 24, 19 22.875, 19 21.500 C 19 19.500, 19.500 19, 21.500 19 C 22.875 19, 24 18.550, 24 18 C 24 17.450, 22.897 17, 21.550 17 C 19.269 17, 19.079 16.604, 18.800 11.250 L 18.500 5.500 12.750 5.200 C 7.396 4.921, 7 4.731, 7 2.450 C 7 1.103, 6.550 0, 6 0 M 12 7 L 7 7 7 12 L 7 17 12 17 L 17 17 17 12 L 17 7 12 7" stroke="none" fill="black" fill-rule="evenodd"/>
</svg>