<svg viewBox="0 0 24 24" xmlns="http://www.w3.org/2000/svg" fill="none" stroke="#000000" stroke-width="2" stroke-linecap="round" stroke-linejoin="round"><path d="M11.695 1.057 C 11.466 1.129,11.256 1.299,11.128 1.516 L 11.020 1.700 11.009 4.350 L 10.998 7.000 8.945 7.000 C 6.717 7.000,6.666 7.004,6.382 7.221 C 6.302 7.282,6.187 7.415,6.128 7.516 C 6.037 7.672,6.020 7.746,6.020 8.000 C 6.020 8.256,6.036 8.328,6.131 8.489 C 6.256 8.702,6.449 8.864,6.670 8.943 C 6.788 8.985,7.269 8.997,8.910 8.998 L 10.999 9.000 11.010 15.653 L 11.020 22.306 11.141 22.503 C 11.543 23.156,12.457 23.156,12.859 22.503 L 12.980 22.306 12.990 15.653 L 13.001 9.000 15.090 8.998 C 16.731 8.997,17.212 8.985,17.330 8.943 C 17.551 8.864,17.744 8.702,17.869 8.489 C 17.964 8.328,17.980 8.256,17.980 8.000 C 17.980 7.746,17.963 7.672,17.872 7.516 C 17.813 7.415,17.698 7.282,17.618 7.221 C 17.334 7.004,17.283 7.000,15.055 7.000 L 13.002 7.000 12.991 4.350 L 12.980 1.700 12.872 1.516 C 12.628 1.101,12.150 0.915,11.695 1.057 " stroke="none" fill-rule="evenodd" fill="black"></path></svg>