<svg xmlns="http://www.w3.org/2000/svg" width="24" height="24" viewBox="0 0 24 24" version="1.1">
	<path d="M 13.403 1.438 C 11.256 1.210, 8.600 1.416, 7.500 1.894 C 6.400 2.373, 4.600 3.764, 3.500 4.987 C 2.078 6.568, 1.500 8.618, 1.500 12.082 C 1.500 16.074, 2.001 17.456, 4.273 19.727 C 6.557 22.011, 7.919 22.500, 12 22.500 C 16.081 22.500, 17.443 22.011, 19.727 19.727 C 22.011 17.443, 22.500 16.081, 22.500 12 C 22.500 7.999, 22 6.546, 19.903 4.448 C 18.256 2.802, 15.876 1.699, 13.403 1.438 M 9.923 3 C 9.331 3, 7.531 4.315, 5.923 5.923 C 4.315 7.531, 3 9.331, 3 9.923 C 3 10.515, 3.900 11, 5 11 C 6.100 11, 7 11.450, 7 12 C 7 12.550, 6.100 13, 5 13 C 3.900 13, 3 13.485, 3 14.077 C 3 14.669, 4.315 16.469, 5.923 18.077 C 7.531 19.685, 9.331 21, 9.923 21 C 10.515 21, 11 20.100, 11 19 C 11 17.900, 11.450 17, 12 17 C 12.550 17, 13 17.900, 13 19 C 13 20.100, 13.485 21, 14.077 21 C 14.669 21, 16.469 19.685, 18.077 18.077 C 19.685 16.469, 21 14.669, 21 14.077 C 21 13.485, 20.100 13, 19 13 C 17.900 13, 17 12.550, 17 12 C 17 11.450, 17.900 11, 19 11 C 20.100 11, 21 10.515, 21 9.923 C 21 9.331, 19.685 7.531, 18.077 5.923 C 16.469 4.315, 14.669 3, 14.077 3 C 13.485 3, 13 3.900, 13 5 C 13 6.100, 12.550 7, 12 7 C 11.450 7, 11 6.100, 11 5 C 11 3.900, 10.515 3, 9.923 3" stroke="none" fill="black" fill-rule="evenodd"/>
</svg>