<svg xmlns="http://www.w3.org/2000/svg" width="24" height="24" viewBox="0 0 24 24" version="1.1">
	<path d="M 12 1 C 11.450 1, 11 2.350, 11 4 C 11 6.533, 10.611 7, 8.500 7 C 7.125 7, 6 7.450, 6 8 C 6 8.550, 7.125 9, 8.500 9 C 10.929 9, 11 9.200, 11 16 C 11 20, 11.429 23, 12 23 C 12.571 23, 13 20, 13 16 C 13 9.200, 13.071 9, 15.500 9 C 16.875 9, 18 8.550, 18 8 C 18 7.450, 16.875 7, 15.500 7 C 13.389 7, 13 6.533, 13 4 C 13 2.350, 12.550 1, 12 1" stroke="none" fill="black" fill-rule="evenodd"/>
</svg>