<svg xmlns="http://www.w3.org/2000/svg" width="24" height="24" viewBox="0 0 24 24" version="1.1">
	<path d="M 7.500 1.894 C 3.457 3.652, 1.500 6.976, 1.500 12.082 C 1.500 16.074, 2.001 17.456, 4.273 19.727 C 6.557 22.011, 7.919 22.500, 12 22.500 C 19.011 22.500, 22.500 19.011, 22.500 12 C 22.500 7.999, 22 6.546, 19.903 4.448 C 17.099 1.644, 10.974 0.383, 7.500 1.894 M 5.923 5.923 C 2.506 9.340, 2.204 11, 5 11 C 6.100 11, 7 11.450, 7 12 C 7 12.550, 6.100 13, 5 13 C 2.204 13, 2.506 14.660, 5.923 18.077 C 9.340 21.494, 11 21.796, 11 19 C 11 17.900, 11.450 17, 12 17 C 12.550 17, 13 17.900, 13 19 C 13 21.796, 14.660 21.494, 18.077 18.077 C 21.494 14.660, 21.796 13, 19 13 C 17.900 13, 17 12.550, 17 12 C 17 11.450, 17.900 11, 19 11 C 21.796 11, 21.494 9.340, 18.077 5.923 C 14.660 2.506, 13 2.204, 13 5 C 13 6.100, 12.550 7, 12 7 C 11.450 7, 11 6.100, 11 5 C 11 2.204, 9.340 2.506, 5.923 5.923" stroke="none" fill="#000000" fill-rule="evenodd"/>
</svg>