<svg xmlns="http://www.w3.org/2000/svg" width="24" height="24" viewBox="0 0 24 24" version="1.1">
	<path d="M 1.803 3 C 1.152 3, 0.994 4.221, 1.389 6.196 C 1.741 7.953, 2.489 11.103, 3.053 13.196 L 4.077 17 12 17 L 19.923 17 20.947 13.196 C 21.511 11.103, 22.259 7.953, 22.611 6.196 C 23.006 4.221, 22.848 3, 22.197 3 C 21.619 3, 20.035 4.419, 18.677 6.153 L 16.210 9.306 14.579 6.153 C 13.682 4.419, 12.522 3, 12 3 C 11.478 3, 10.318 4.419, 9.421 6.153 L 7.790 9.306 5.323 6.153 C 3.965 4.419, 2.381 3, 1.803 3 M 12 7 C 11.450 7, 11 7.364, 11 7.809 C 11 8.254, 10.374 9.474, 9.608 10.521 C 8.426 12.138, 7.975 12.224, 6.608 11.090 C 5.683 10.322, 5 10.197, 5 10.796 C 5 11.368, 5.273 12.548, 5.607 13.418 C 6.064 14.608, 7.646 15, 12 15 C 16.354 15, 17.936 14.608, 18.393 13.418 C 18.727 12.548, 19 11.368, 19 10.796 C 19 10.197, 18.317 10.322, 17.392 11.090 C 16.025 12.224, 15.574 12.138, 14.392 10.521 C 13.626 9.474, 13 8.254, 13 7.809 C 13 7.364, 12.550 7, 12 7 M 12 19 C 7.333 19, 4 19.417, 4 20 C 4 20.583, 7.333 21, 12 21 C 16.667 21, 20 20.583, 20 20 C 20 19.417, 16.667 19, 12 19" stroke="none" fill="black" fill-rule="evenodd"/>
</svg>