<svg xmlns="http://www.w3.org/2000/svg" width="24" height="24" viewBox="0 0 24 24" version="1.1">
	<path d="M 1.389 6.196 C 1.741 7.953, 2.489 11.103, 3.053 13.196 L 4.077 17 12 17 L 19.923 17 20.947 13.196 C 23.877 2.316, 23.236 0.328, 18.677 6.153 L 16.210 9.306 14.579 6.153 C 13.682 4.419, 12.522 3, 12 3 C 11.478 3, 10.318 4.419, 9.421 6.153 L 7.790 9.306 5.323 6.153 C 2.116 2.056, 0.565 2.073, 1.389 6.196 M 11 7.809 C 11 8.254, 10.374 9.474, 9.608 10.521 C 8.426 12.138, 7.975 12.224, 6.608 11.090 C 4.935 9.701, 4.537 10.629, 5.607 13.418 C 6.478 15.688, 17.522 15.688, 18.393 13.418 C 19.463 10.629, 19.065 9.701, 17.392 11.090 C 16.025 12.224, 15.574 12.138, 14.392 10.521 C 13.626 9.474, 13 8.254, 13 7.809 C 13 7.364, 12.550 7, 12 7 C 11.450 7, 11 7.364, 11 7.809 M 4 20 C 4 20.583, 7.333 21, 12 21 C 16.667 21, 20 20.583, 20 20 C 20 19.417, 16.667 19, 12 19 C 7.333 19, 4 19.417, 4 20" stroke="none" fill="#000000" fill-rule="evenodd"/>
</svg>