<svg xmlns="http://www.w3.org/2000/svg" width="24" height="24" viewBox="0 0 24 24" version="1.1">
	<path d="M 13.403 1.438 C 11.256 1.210, 8.600 1.416, 7.500 1.894 C 6.400 2.373, 4.600 3.764, 3.500 4.987 C 2.078 6.568, 1.500 8.618, 1.500 12.082 C 1.500 16.074, 2.001 17.456, 4.273 19.727 C 6.557 22.011, 7.919 22.500, 12 22.500 C 16.081 22.500, 17.443 22.011, 19.727 19.727 C 22.011 17.443, 22.500 16.081, 22.500 12 C 22.500 7.999, 22 6.546, 19.903 4.448 C 18.256 2.802, 15.876 1.699, 13.403 1.438 M 12 3 C 9.848 3, 7.918 3.928, 5.923 5.923 C 4.017 7.829, 3 9.870, 3 11.788 C 3 13.406, 3.933 15.916, 5.073 17.365 C 6.212 18.814, 7.675 19.964, 8.323 19.921 C 9.149 19.866, 9.127 19.692, 8.250 19.338 C 7.463 19.020, 7 16.800, 7 13.345 C 7 9.661, 7.523 7.334, 8.591 6.266 C 9.946 4.911, 10.328 4.885, 11.167 6.088 C 11.923 7.171, 12.270 7.209, 12.659 6.250 C 12.938 5.563, 13.517 5, 13.945 5 C 14.374 5, 15.235 7.543, 15.859 10.651 C 16.707 14.875, 16.706 16.649, 15.854 17.675 C 15.228 18.431, 15.042 19.375, 15.443 19.774 C 15.843 20.173, 17.257 19.237, 18.585 17.694 C 19.986 16.066, 21 13.620, 21 11.867 C 21 9.861, 20.018 7.864, 18.077 5.923 C 16.082 3.928, 14.152 3, 12 3 M 11.250 9.180 C 9.702 8.961, 9 9.372, 9 10.500 C 9 11.628, 9.702 12.039, 11.250 11.820 C 12.488 11.644, 13.500 11.050, 13.500 10.500 C 13.500 9.950, 12.488 9.356, 11.250 9.180 M 11.531 14.184 C 9.727 13.958, 9 14.336, 9 15.500 C 9 16.664, 9.727 17.042, 11.531 16.816 C 12.923 16.642, 14.062 16.050, 14.062 15.500 C 14.062 14.950, 12.923 14.358, 11.531 14.184 M 12 19 C 11.450 19, 11 19.450, 11 20 C 11 20.550, 11.450 21, 12 21 C 12.550 21, 13 20.550, 13 20 C 13 19.450, 12.550 19, 12 19" stroke="none" fill="black" fill-rule="evenodd"/>
</svg>