<svg xmlns="http://www.w3.org/2000/svg" width="24" height="24" viewBox="0 0 24 24" version="1.1">
	<path d="M 7.500 1.894 C 3.457 3.652, 1.500 6.976, 1.500 12.082 C 1.500 16.074, 2.001 17.456, 4.273 19.727 C 6.557 22.011, 7.919 22.500, 12 22.500 C 19.011 22.500, 22.500 19.011, 22.500 12 C 22.500 7.999, 22 6.546, 19.903 4.448 C 17.099 1.644, 10.974 0.383, 7.500 1.894 M 5.923 5.923 C 4.017 7.829, 3 9.870, 3 11.788 C 3 14.920, 6.359 20.053, 8.323 19.921 C 9.149 19.866, 9.127 19.692, 8.250 19.338 C 6.346 18.569, 6.615 8.242, 8.591 6.266 C 9.946 4.911, 10.328 4.885, 11.167 6.088 C 11.923 7.171, 12.270 7.209, 12.659 6.250 C 13.695 3.697, 14.755 5.156, 15.859 10.651 C 16.707 14.875, 16.706 16.649, 15.854 17.675 C 13.586 20.409, 16.233 20.427, 18.585 17.694 C 21.924 13.814, 21.742 9.588, 18.077 5.923 C 14.147 1.993, 9.853 1.993, 5.923 5.923 M 9 10.500 C 9 11.628, 9.702 12.039, 11.250 11.820 C 12.488 11.644, 13.500 11.050, 13.500 10.500 C 13.500 9.950, 12.488 9.356, 11.250 9.180 C 9.702 8.961, 9 9.372, 9 10.500 M 9 15.500 C 9 16.664, 9.727 17.042, 11.531 16.816 C 14.807 16.407, 14.807 14.593, 11.531 14.184 C 9.727 13.958, 9 14.336, 9 15.500 M 11 20 C 11 20.550, 11.450 21, 12 21 C 12.550 21, 13 20.550, 13 20 C 13 19.450, 12.550 19, 12 19 C 11.450 19, 11 19.450, 11 20" stroke="none" fill="black" fill-rule="evenodd"/>
</svg>