<svg viewBox="0 0 24 24" xmlns="http://www.w3.org/2000/svg"><path d="M7.020 7.000 L 2.020 12.000 3.280 13.260 L 4.540 14.520 5.800 13.260 L 7.060 12.000 8.320 13.260 L 9.580 14.520 8.320 15.780 L 7.060 17.040 9.580 19.560 L 12.100 22.080 13.350 20.830 C 14.173 20.007,14.593 19.560,14.579 19.522 C 14.564 19.484,14.978 19.043,15.788 18.232 L 17.020 17.000 15.780 15.760 L 14.540 14.520 15.800 13.260 L 17.060 12.000 18.300 13.240 L 19.540 14.480 18.290 15.730 C 17.602 16.418,17.040 16.998,17.040 17.020 C 17.040 17.042,17.607 16.493,18.300 15.800 C 18.993 15.107,19.560 14.522,19.560 14.500 C 19.560 14.478,20.113 13.907,20.790 13.230 L 22.020 12.000 17.020 7.000 L 12.020 2.000 7.020 7.000 M13.267 8.207 L 14.515 9.454 13.267 10.724 L 12.020 11.993 10.750 10.727 L 9.480 9.460 10.730 8.210 C 11.417 7.523,11.989 6.960,12.000 6.960 C 12.011 6.960,12.581 7.521,13.267 8.207 " fill="#000000" stroke="none" fill-rule="evenodd"></path></svg>