<svg viewBox="0 0 24 24" xmlns="http://www.w3.org/2000/svg"><path d="M11.120 2.039 C 8.336 2.318,5.905 3.624,4.193 5.760 C 1.474 9.155,1.267 13.917,3.682 17.533 C 6.770 22.155,12.946 23.386,17.560 20.299 C 22.155 17.225,23.377 11.041,20.299 6.440 C 18.728 4.092,16.319 2.562,13.493 2.119 C 12.909 2.027,11.660 1.985,11.120 2.039 M14.680 9.100 L 14.680 10.320 13.830 10.324 L 12.980 10.327 13.460 10.400 C 14.375 10.539,15.118 10.771,15.642 11.080 C 16.594 11.641,16.646 12.336,15.781 12.914 C 15.255 13.266,14.431 13.543,13.517 13.674 L 13.020 13.746 13.010 16.253 L 12.999 18.760 11.000 18.760 L 9.000 18.760 9.000 16.245 L 9.000 13.730 8.750 13.703 C 7.024 13.514,5.596 12.759,5.601 12.037 C 5.606 11.278,6.969 10.562,8.800 10.358 C 9.031 10.332,9.242 10.304,9.270 10.297 C 9.309 10.286,9.320 10.008,9.320 9.081 L 9.320 7.880 12.000 7.880 L 14.680 7.880 14.680 9.100 M11.140 11.325 C 9.980 11.452,9.240 11.786,9.240 12.181 C 9.240 12.277,9.484 12.521,9.678 12.619 C 10.263 12.915,11.521 13.083,12.550 13.001 C 13.606 12.917,14.343 12.702,14.618 12.397 C 14.784 12.213,14.793 12.140,14.669 11.956 C 14.501 11.706,13.906 11.473,13.154 11.362 C 12.735 11.300,11.564 11.278,11.140 11.325 " fill="#000000" stroke="none" fill-rule="evenodd"></path></svg>