<svg viewBox="0 0 24 24" xmlns="http://www.w3.org/2000/svg"><path d="M8.901 7.149 C 7.211 9.960,5.814 12.275,5.798 12.294 C 5.782 12.313,5.528 12.184,5.234 12.009 C 4.940 11.833,4.694 11.695,4.686 11.702 C 4.678 11.709,4.853 11.968,5.075 12.277 L 5.478 12.838 5.055 13.542 C 4.822 13.929,4.638 14.251,4.646 14.258 C 4.654 14.266,5.353 14.679,6.200 15.177 C 7.047 15.675,7.785 16.132,7.840 16.191 C 7.895 16.251,8.847 17.573,9.955 19.130 C 11.063 20.687,11.983 21.960,12.000 21.960 C 12.016 21.960,12.937 20.687,14.045 19.130 C 15.153 17.573,16.105 16.251,16.160 16.191 C 16.215 16.132,16.953 15.675,17.800 15.177 C 18.647 14.679,19.346 14.265,19.354 14.258 C 19.362 14.251,19.178 13.929,18.945 13.542 L 18.522 12.838 18.925 12.277 C 19.147 11.968,19.322 11.710,19.314 11.703 C 19.306 11.696,19.059 11.834,18.764 12.008 C 18.470 12.182,18.216 12.310,18.200 12.292 C 18.184 12.275,16.791 9.965,15.104 7.160 C 13.418 4.355,12.024 2.055,12.006 2.049 C 11.988 2.043,10.591 4.338,8.901 7.149 " fill="#000000" stroke="none" fill-rule="evenodd"></path></svg>