<svg viewBox="0 0 24 24" xmlns="http://www.w3.org/2000/svg" fill="none" stroke="#000000" stroke-width="2" stroke-linecap="round" stroke-linejoin="round"><path d="M11.280 1.023 C 11.203 1.032,10.951 1.059,10.720 1.083 C 8.832 1.283,6.991 2.023,5.360 3.235 C 4.751 3.688,3.684 4.755,3.226 5.367 C 0.728 8.714,0.301 13.032,2.097 16.780 C 2.643 17.918,3.276 18.801,4.238 19.762 C 5.199 20.724,6.082 21.357,7.220 21.903 C 10.967 23.699,15.288 23.270,18.637 20.770 C 19.246 20.316,20.316 19.246,20.770 18.637 C 23.744 14.652,23.744 9.348,20.770 5.363 C 20.316 4.755,19.247 3.686,18.640 3.235 C 17.045 2.049,15.365 1.360,13.423 1.096 C 13.000 1.038,11.574 0.990,11.280 1.023 M13.320 3.101 C 15.883 3.488,18.124 4.931,19.560 7.120 C 19.863 7.583,20.303 8.479,20.492 9.020 C 20.838 10.013,20.977 10.865,20.977 12.000 C 20.977 13.493,20.720 14.621,20.080 15.940 C 19.235 17.684,17.865 19.091,16.144 19.981 C 15.675 20.224,14.929 20.542,14.898 20.512 C 14.890 20.504,14.909 20.426,14.940 20.338 C 14.981 20.224,14.997 19.967,14.999 19.420 L 15.002 18.660 15.291 18.500 C 15.706 18.270,16.281 17.686,16.531 17.240 C 17.398 15.692,17.015 13.784,15.625 12.732 C 15.490 12.629,15.376 12.543,15.370 12.540 C 15.365 12.536,15.442 12.391,15.541 12.217 C 15.926 11.543,16.080 10.716,15.959 9.969 C 15.860 9.363,15.546 8.672,15.179 8.252 L 15.005 8.052 14.992 6.876 L 14.980 5.700 14.871 5.514 C 14.479 4.848,13.521 4.848,13.129 5.514 C 13.024 5.694,13.020 5.723,13.007 6.374 L 12.993 7.049 12.872 7.024 C 12.805 7.011,12.358 7.000,11.878 7.000 L 11.007 7.000 10.993 6.350 C 10.981 5.726,10.976 5.693,10.871 5.514 C 10.479 4.848,9.521 4.848,9.129 5.514 C 9.024 5.693,9.019 5.726,9.007 6.350 L 8.993 7.000 8.387 7.001 C 7.863 7.002,7.755 7.013,7.600 7.083 C 7.358 7.193,7.209 7.340,7.095 7.580 L 7.001 7.780 7.001 13.000 L 7.001 18.220 7.095 18.420 C 7.209 18.660,7.358 18.807,7.600 18.917 C 7.755 18.987,7.863 18.998,8.390 18.999 L 9.000 19.000 9.002 19.590 C 9.003 19.992,9.021 20.230,9.060 20.338 C 9.091 20.426,9.110 20.503,9.103 20.511 C 9.071 20.542,8.307 20.219,7.856 19.983 C 6.125 19.080,4.765 17.683,3.920 15.940 C 3.280 14.621,3.023 13.493,3.023 12.000 C 3.023 10.507,3.280 9.379,3.920 8.060 C 4.971 5.891,6.877 4.221,9.160 3.466 C 9.865 3.233,10.432 3.118,11.340 3.024 C 11.662 2.991,12.911 3.039,13.320 3.101 M13.104 9.133 C 13.414 9.276,13.722 9.586,13.866 9.900 C 13.961 10.106,13.977 10.192,13.977 10.500 C 13.977 10.808,13.961 10.894,13.866 11.100 C 13.722 11.414,13.414 11.724,13.104 11.867 L 12.860 11.980 10.930 11.991 L 9.000 12.003 9.000 10.499 L 9.000 8.996 10.930 9.008 L 12.860 9.020 13.104 9.133 M14.104 14.133 C 14.414 14.276,14.722 14.586,14.866 14.900 C 14.961 15.106,14.977 15.192,14.977 15.500 C 14.977 15.808,14.961 15.894,14.866 16.100 C 14.722 16.414,14.414 16.724,14.104 16.867 L 13.860 16.980 11.430 16.991 L 9.000 17.002 9.000 15.499 L 9.000 13.997 11.430 14.008 L 13.860 14.020 14.104 14.133 M13.007 19.650 C 13.019 20.275,13.024 20.307,13.130 20.487 C 13.190 20.590,13.297 20.719,13.367 20.774 L 13.495 20.874 13.357 20.897 C 12.585 21.030,11.415 21.030,10.643 20.897 L 10.505 20.874 10.633 20.774 C 10.703 20.719,10.810 20.590,10.870 20.487 C 10.976 20.307,10.981 20.275,10.993 19.650 L 11.007 19.000 12.000 19.000 L 12.993 19.000 13.007 19.650 " stroke="none" fill-rule="evenodd" fill="black"></path></svg>