<svg viewBox="0 0 24 24" xmlns="http://www.w3.org/2000/svg" fill="none" stroke="#000000" stroke-width="2" stroke-linecap="round" stroke-linejoin="round"><path d="M17.080 1.500 L 15.580 3.000 10.737 3.000 C 6.748 3.000,5.861 3.010,5.710 3.055 C 5.467 3.128,5.260 3.293,5.128 3.516 L 5.020 3.700 5.020 11.120 L 5.020 18.540 5.114 18.840 C 5.422 19.827,6.173 20.578,7.160 20.886 L 7.460 20.980 12.000 20.980 L 16.540 20.980 16.840 20.886 C 17.827 20.578,18.578 19.827,18.886 18.840 L 18.980 18.540 18.980 11.117 L 18.980 3.694 18.860 3.500 C 18.794 3.394,18.656 3.250,18.554 3.179 L 18.368 3.052 19.567 1.856 C 20.226 1.198,20.808 0.588,20.861 0.500 C 20.913 0.412,20.968 0.263,20.983 0.170 L 21.010 -0.000 19.795 -0.000 L 18.580 0.000 17.080 1.500 M17.000 11.554 C 17.000 16.991,16.991 18.138,16.945 18.290 C 16.872 18.533,16.707 18.740,16.484 18.872 L 16.300 18.980 12.000 18.980 L 7.700 18.980 7.516 18.872 C 7.415 18.813,7.284 18.700,7.225 18.623 C 6.986 18.310,7.000 18.743,7.000 11.575 L 7.000 5.000 12.000 5.000 L 17.000 5.000 17.000 11.554 " stroke="none" fill-rule="evenodd" fill="black"></path></svg>