<svg xmlns="http://www.w3.org/2000/svg" width="24" height="24" viewBox="0 0 24 24" version="1.1">
	<path d="M 11.315 6 C 6.871 6, 4.780 6.411, 4.417 7.355 C 4.131 8.101, 4.033 11.588, 4.199 15.105 L 4.500 21.500 12 21.500 C 19.368 21.500, 19.505 21.453, 19.807 18.852 C 19.994 17.233, 20.869 16.006, 22.057 15.695 C 23.440 15.334, 24 14.317, 24 12.167 C 24 9.777, 23.341 8.818, 20.846 7.573 C 18.968 6.636, 15.113 6, 11.315 6 M 12 8 L 6 8 6 14 L 6 20 12 20 L 18 20 18 14 L 18 8 12 8 M 21 10 C 20.450 10, 20 10.900, 20 12 C 20 13.100, 20.450 14, 21 14 C 21.550 14, 22 13.100, 22 12 C 22 10.900, 21.550 10, 21 10 M 12 12 C 9.800 12, 8 12.450, 8 13 C 8 13.550, 9.800 14, 12 14 C 14.200 14, 16 13.550, 16 13 C 16 12.450, 14.200 12, 12 12" stroke="none" fill="black" fill-rule="evenodd"/>
</svg>