<svg xmlns="http://www.w3.org/2000/svg" width="24" height="24" viewBox="0 0 24 24" version="1.1">
	<path d="M 12 1 C 11.450 1, 11 1.900, 11 3 C 11 4.100, 10.341 5, 9.535 5 C 8.730 5, 7.584 5.908, 6.990 7.019 C 6.396 8.129, 6.042 12.067, 6.205 15.769 L 6.500 22.500 12 22.500 L 17.500 22.500 17.795 15.769 C 17.958 12.067, 17.604 8.129, 17.010 7.019 C 16.416 5.908, 15.270 5, 14.465 5 C 13.659 5, 13 4.100, 13 3 C 13 1.900, 12.550 1, 12 1 M 12 7 C 10.382 7, 8.960 7.663, 8.607 8.582 C 8.273 9.452, 8 12.602, 8 15.582 L 8 21 12 21 L 16 21 16 15.582 C 16 12.602, 15.727 9.452, 15.393 8.582 C 15.040 7.663, 13.618 7, 12 7" stroke="none" fill="black" fill-rule="evenodd"/>
</svg>