<svg viewBox="0 0 24 24" xmlns="http://www.w3.org/2000/svg" fill="none" stroke="#000000" stroke-width="2" stroke-linecap="round" stroke-linejoin="round"><path d="M11.280 1.023 C 11.203 1.032,10.951 1.059,10.720 1.083 C 8.832 1.283,6.991 2.023,5.360 3.235 C 4.751 3.688,3.684 4.755,3.226 5.367 C 0.728 8.714,0.301 13.032,2.097 16.780 C 2.643 17.918,3.276 18.801,4.238 19.762 C 5.199 20.724,6.082 21.357,7.220 21.903 C 10.967 23.699,15.288 23.270,18.637 20.770 C 19.246 20.316,20.316 19.246,20.770 18.637 C 23.744 14.652,23.744 9.348,20.770 5.363 C 20.316 4.755,19.247 3.686,18.640 3.235 C 17.045 2.049,15.365 1.360,13.423 1.096 C 13.000 1.038,11.574 0.990,11.280 1.023 M13.320 3.101 C 15.883 3.488,18.124 4.931,19.560 7.120 C 19.863 7.583,20.303 8.479,20.492 9.020 C 20.838 10.013,20.977 10.865,20.977 12.000 C 20.977 13.493,20.720 14.621,20.080 15.940 C 19.375 17.394,18.311 18.607,16.927 19.532 C 16.138 20.060,14.876 20.588,13.908 20.797 C 11.266 21.366,8.479 20.708,6.370 19.019 C 4.857 17.807,3.722 16.029,3.267 14.160 C 3.081 13.397,3.023 12.888,3.023 12.000 C 3.023 10.507,3.280 9.379,3.920 8.060 C 4.971 5.891,6.877 4.221,9.160 3.466 C 9.865 3.233,10.432 3.118,11.340 3.024 C 11.662 2.991,12.911 3.039,13.320 3.101 M8.695 6.057 C 8.466 6.129,8.256 6.299,8.128 6.516 L 8.020 6.700 8.009 10.913 C 8.002 13.672,8.013 15.178,8.039 15.277 C 8.099 15.498,8.290 15.739,8.508 15.867 L 8.700 15.980 11.160 15.980 C 13.388 15.980,13.652 15.973,13.960 15.907 C 15.488 15.580,16.748 14.630,17.433 13.288 C 17.662 12.839,17.805 12.439,17.907 11.960 C 18.008 11.489,18.008 10.511,17.907 10.040 C 17.625 8.721,16.863 7.576,15.800 6.874 C 15.046 6.375,14.396 6.135,13.552 6.043 C 12.965 5.978,8.907 5.991,8.695 6.057 M13.861 8.123 C 14.422 8.297,14.900 8.617,15.304 9.088 C 15.483 9.297,15.715 9.675,15.797 9.890 L 15.838 10.000 12.919 10.000 L 10.000 10.000 10.000 8.997 L 10.000 7.995 11.770 8.009 C 13.523 8.023,13.543 8.024,13.861 8.123 M15.797 12.110 C 15.715 12.325,15.483 12.703,15.305 12.911 C 14.902 13.381,14.436 13.694,13.860 13.884 C 13.587 13.974,13.533 13.977,11.790 13.991 L 10.000 14.005 10.000 13.003 L 10.000 12.000 12.919 12.000 L 15.838 12.000 15.797 12.110 " stroke="none" fill-rule="evenodd" fill="black"></path></svg>