<svg xmlns="http://www.w3.org/2000/svg" width="24" height="24" viewBox="0 0 24 24" version="1.1">
	<path d="M 9 6 C 9 6.550, 9.450 7, 10 7 C 10.550 7, 11 7.675, 11 8.500 C 11 10.238, 12.656 10.531, 13.203 8.890 C 13.432 8.204, 14.099 8.414, 14.951 9.441 C 16.155 10.892, 16.056 11.173, 14.164 11.667 C 11.650 12.325, 11.351 13.537, 13.500 14.362 C 16.078 15.351, 15.140 17, 12 17 C 10.350 17, 9 17.450, 9 18 C 9 18.550, 9.450 19, 10 19 C 10.550 19, 11 19.900, 11 21 C 11 22.100, 11.450 23, 12 23 C 12.550 23, 13 22.510, 13 21.910 C 13 21.311, 13.853 20.073, 14.895 19.160 C 17.741 16.667, 18.441 9.814, 16.122 7.141 C 14.251 4.984, 9 4.143, 9 6" stroke="none" fill="black" fill-rule="evenodd"/>
</svg>