<svg xmlns="http://www.w3.org/2000/svg" width="24" height="24" viewBox="0 0 24 24" version="1.1">
	<path d="M 8 6 C 8 8.889, 7.583 10, 6.500 10 C 5.675 10, 5 10.450, 5 11 C 5 11.550, 5.675 12, 6.500 12 C 7.325 12, 8 12.450, 8 13 C 8 13.550, 7.325 14, 6.500 14 C 5.675 14, 5 14.450, 5 15 C 5 15.550, 5.675 16, 6.500 16 C 7.500 16, 8 17, 8 19 C 8 20.650, 8.450 22, 9 22 C 9.550 22, 10 20.650, 10 19 C 10 16.467, 10.389 16, 12.500 16 C 13.875 16, 15 15.550, 15 15 C 15 14.450, 13.875 14, 12.500 14 C 11.125 14, 10 13.550, 10 13 C 10 12.450, 11.318 12, 12.929 12 C 16.259 12, 19 9.742, 19 7 C 19 3.995, 16.179 2, 11.929 2 C 8.012 2, 8 2.012, 8 6 M 10 7 C 10 9.492, 10.402 10, 12.378 10 C 13.685 10, 15.315 9.325, 16 8.500 C 17.668 6.491, 15.663 4, 12.378 4 C 10.402 4, 10 4.508, 10 7" stroke="none" fill="black" fill-rule="evenodd"/>
</svg>