<svg xmlns="http://www.w3.org/2000/svg" width="24" height="24" viewBox="0 0 24 24" version="1.1">
	<path d="M 7.500 1.894 C 3.457 3.652, 1.500 6.976, 1.500 12.082 C 1.500 16.074, 2.001 17.456, 4.273 19.727 C 6.557 22.011, 7.919 22.500, 12 22.500 C 19.011 22.500, 22.500 19.011, 22.500 12 C 22.500 7.999, 22 6.546, 19.903 4.448 C 17.099 1.644, 10.974 0.383, 7.500 1.894 M 5.923 5.923 C 3.928 7.918, 3 9.848, 3 12 C 3 16.302, 7.698 21, 12 21 C 14.152 21, 16.082 20.072, 18.077 18.077 C 22.007 14.147, 22.007 9.853, 18.077 5.923 C 14.147 1.993, 9.853 1.993, 5.923 5.923 M 6 6.878 C 6 7.360, 6.675 8.315, 7.500 9 C 9.461 10.627, 9.402 12.899, 7.339 15.177 C 5.178 17.566, 6.434 18.822, 8.823 16.661 C 11.143 14.561, 12.857 14.561, 15.177 16.661 C 17.566 18.822, 18.822 17.566, 16.661 15.177 C 14.561 12.857, 14.561 11.143, 16.661 8.823 C 18.822 6.434, 17.566 5.178, 15.177 7.339 C 12.899 9.402, 10.627 9.461, 9 7.500 C 7.627 5.845, 6 5.508, 6 6.878 M 11 12 C 11 12.550, 11.450 13, 12 13 C 12.550 13, 13 12.550, 13 12 C 13 11.450, 12.550 11, 12 11 C 11.450 11, 11 11.450, 11 12" stroke="none" fill="black" fill-rule="evenodd"/>
</svg>