<svg xmlns="http://www.w3.org/2000/svg" width="24" height="24" viewBox="0 0 24 24" version="1.1">
	<path d="M 5 3.934 C 5 5.275, 5.842 5.995, 7.750 6.284 L 10.500 6.700 7.750 6.850 C 3.645 7.074, 4.427 9, 8.622 9 C 11.729 9, 12.068 9.214, 11 10.500 C 10.315 11.325, 8.685 12, 7.378 12 C 6.070 12, 5.049 12.338, 5.108 12.750 C 5.313 14.176, 16.019 23.315, 16.693 22.640 C 17.065 22.268, 15.635 20.187, 13.515 18.015 C 10.348 14.772, 9.951 13.956, 11.292 13.441 C 12.190 13.097, 13.196 11.957, 13.529 10.908 C 13.906 9.720, 15.052 9, 16.567 9 C 17.905 9, 19 8.550, 19 8 C 19 7.450, 17.843 7, 16.429 7 C 15.014 7, 13.182 6.325, 12.357 5.500 C 11.024 4.167, 11.310 4, 14.929 4 C 17.168 4, 19 3.550, 19 3 C 19 2.429, 16 2, 12 2 C 5.747 2, 5 2.206, 5 3.934" stroke="none" fill="black" fill-rule="evenodd"/>
</svg>