<svg xmlns="http://www.w3.org/2000/svg" width="24" height="24" viewBox="0 0 24 24" version="1.1">
	<path d="M 2.702 2.632 C 1.501 3.832, 1.890 20.814, 3.136 21.584 C 4.871 22.656, 19.981 22.419, 21.098 21.302 C 21.643 20.757, 21.953 16.343, 21.791 11.409 L 21.500 2.500 12.452 2.215 C 7.475 2.058, 3.087 2.246, 2.702 2.632 M 4 12 C 4 19.256, 4.181 20, 5.943 20 C 7.653 20, 7.877 19.305, 7.805 14.224 C 7.760 11.047, 8.041 7.447, 8.429 6.224 C 9.033 4.320, 8.766 4, 6.567 4 C 4.025 4, 4 4.077, 4 12 M 11 5 C 11 5.550, 11.450 6, 12 6 C 12.550 6, 13 5.550, 13 5 C 13 4.450, 12.550 4, 12 4 C 11.450 4, 11 4.450, 11 5 M 15 4.759 C 15 5.177, 15.900 6.081, 17 6.768 C 21.149 9.359, 18.774 14, 13.300 14 C 9.818 14, 8.962 15.873, 11.015 19 C 11.891 20.333, 12.120 20.333, 13.076 19 C 13.886 17.871, 14.278 17.809, 14.659 18.750 C 14.938 19.438, 16.254 20, 17.583 20 C 19.938 20, 20 19.793, 20 12 C 20 4.133, 19.958 4, 17.500 4 C 16.125 4, 15 4.342, 15 4.759 M 10 10 C 10 11.797, 10.504 12.078, 13.250 11.813 C 17.664 11.388, 17.664 8.612, 13.250 8.187 C 10.504 7.922, 10 8.203, 10 10" stroke="none" fill="black" fill-rule="evenodd"/>
</svg>