<svg xmlns="http://www.w3.org/2000/svg" width="24" height="24" viewBox="0 0 24 24" version="1.1">
	<path d="M 7.500 1.894 C 3.457 3.652, 1.500 6.976, 1.500 12.082 C 1.500 16.074, 2.001 17.456, 4.273 19.727 C 6.557 22.011, 7.919 22.500, 12 22.500 C 19.011 22.500, 22.500 19.011, 22.500 12 C 22.500 7.999, 22 6.546, 19.903 4.448 C 17.099 1.644, 10.974 0.383, 7.500 1.894 M 5.923 5.923 C 3.928 7.918, 3 9.848, 3 12 C 3 18.012, 9.992 22.567, 15.668 20.253 C 17.044 19.692, 16.506 19.381, 13.510 19.003 C 10.534 18.628, 9.424 17.991, 9.144 16.500 C 8.938 15.400, 8.258 14.128, 7.634 13.674 C 6.803 13.069, 6.834 12.712, 7.750 12.341 C 8.438 12.062, 9 10.296, 9 8.417 C 9 6.537, 9.450 5, 10 5 C 10.550 5, 11 6.359, 11 8.019 C 11 10.740, 11.247 10.976, 13.500 10.411 C 15.021 10.029, 16 10.210, 16 10.873 C 16 11.472, 14.875 12.244, 13.500 12.589 C 12 12.966, 11 13.932, 11 15.003 C 11 17.588, 18.763 18.312, 20.080 15.850 C 21.814 12.610, 21.069 8.915, 18.077 5.923 C 14.147 1.993, 9.853 1.993, 5.923 5.923" stroke="none" fill="black" fill-rule="evenodd"/>
</svg>