<svg xmlns="http://www.w3.org/2000/svg" width="24" height="24" viewBox="0 0 24 24" version="1.1">
	<path d="M 13.403 1.438 C 11.256 1.210, 8.600 1.416, 7.500 1.894 C 6.400 2.373, 4.600 3.764, 3.500 4.987 C 2.078 6.568, 1.500 8.618, 1.500 12.082 C 1.500 16.074, 2.001 17.456, 4.273 19.727 C 6.557 22.011, 7.919 22.500, 12 22.500 C 16.081 22.500, 17.443 22.011, 19.727 19.727 C 22.011 17.443, 22.500 16.081, 22.500 12 C 22.500 7.999, 22 6.546, 19.903 4.448 C 18.256 2.802, 15.876 1.699, 13.403 1.438 M 12 3 C 11.450 3, 11 3.675, 11 4.500 C 11 5.325, 11.450 6, 12 6 C 12.550 6, 13 5.325, 13 4.500 C 13 3.675, 12.550 3, 12 3 M 8.073 4 C 7.562 4, 6.212 5.186, 5.073 6.635 C 3.933 8.084, 3 10.534, 3 12.079 C 3 13.624, 4.067 16.129, 5.371 17.645 C 7.562 20.192, 7.865 20.277, 9.371 18.772 C 10.267 17.876, 11 16.436, 11 15.571 C 11 14.667, 10.152 14, 9 14 C 7.900 14, 7 13.550, 7 13 C 7 12.450, 7.900 12, 9 12 C 10.333 12, 11 11.333, 11 10 C 11 8.900, 10.550 8, 10 8 C 9.450 8, 9 7.100, 9 6 C 9 4.900, 8.583 4, 8.073 4 M 15.878 4 C 15.395 4, 15 4.398, 15 4.883 C 15 5.369, 15.926 6.009, 17.057 6.305 C 18.745 6.746, 18.903 6.588, 17.935 5.421 C 17.286 4.640, 16.360 4, 15.878 4 M 15.250 8.180 C 13.518 7.935, 13 8.354, 13 10 C 13 11.646, 13.518 12.065, 15.250 11.820 C 16.488 11.644, 17.500 10.825, 17.500 10 C 17.500 9.175, 16.488 8.356, 15.250 8.180 M 20.737 9 C 20.593 9, 20.030 10.012, 19.487 11.250 C 18.877 12.641, 17.450 13.621, 15.750 13.816 C 14.108 14.005, 13 14.739, 13 15.638 C 13 16.466, 13.733 17.876, 14.629 18.772 C 16.135 20.277, 16.438 20.192, 18.629 17.645 C 19.963 16.094, 21 13.600, 21 11.944 C 21 10.325, 20.882 9, 20.737 9" stroke="none" fill="black" fill-rule="evenodd"/>
</svg>