<svg viewBox="0 0 24 24" xmlns="http://www.w3.org/2000/svg" fill="none" stroke="#000000" stroke-width="2" stroke-linecap="round" stroke-linejoin="round"><path d="M5.695 3.057 C 5.466 3.129,5.256 3.299,5.128 3.516 L 5.020 3.700 5.009 8.914 C 5.002 12.337,5.013 14.179,5.039 14.277 C 5.099 14.498,5.290 14.739,5.508 14.867 L 5.700 14.980 9.220 14.980 L 12.740 14.980 13.160 14.887 C 14.384 14.618,15.342 14.107,16.195 13.269 C 17.068 12.412,17.620 11.397,17.885 10.160 C 18.015 9.554,18.015 8.446,17.885 7.840 C 17.626 6.631,17.109 5.660,16.269 4.805 C 15.258 3.775,14.009 3.180,12.564 3.039 C 12.353 3.019,10.758 3.003,9.020 3.004 C 6.551 3.005,5.824 3.017,5.695 3.057 M12.605 5.058 C 14.037 5.274,15.240 6.262,15.758 7.645 C 15.854 7.903,15.958 8.364,15.959 8.538 C 15.960 8.654,15.958 8.653,15.847 8.478 C 15.717 8.273,15.490 8.106,15.260 8.044 C 15.151 8.014,13.817 8.000,11.050 8.000 L 7.000 8.000 7.000 6.500 L 7.000 5.000 9.610 5.000 C 11.685 5.000,12.299 5.012,12.605 5.058 M15.921 9.750 C 15.779 10.567,15.259 11.468,14.612 12.021 C 14.070 12.483,13.471 12.775,12.773 12.917 C 12.387 12.996,12.238 13.000,9.684 13.000 L 7.000 13.000 7.000 11.501 L 7.000 10.001 11.153 9.991 L 15.306 9.980 15.503 9.859 C 15.612 9.792,15.754 9.657,15.820 9.557 C 15.961 9.343,15.984 9.387,15.921 9.750 " stroke="none" fill-rule="evenodd" fill="black"></path></svg>