<svg xmlns="http://www.w3.org/2000/svg" width="24" height="24" viewBox="0 0 24 24" version="1.1">
	<path d="M 12.233 2.212 C 5.103 1.991, 2.845 2.241, 2.440 3.296 C 2.151 4.050, 2.046 8.455, 2.207 13.084 L 2.500 21.500 12 21.500 L 21.500 21.500 21.500 12 L 21.500 2.500 12.233 2.212 M 7 4 L 4 4 4 12 L 4 20 7.122 20 C 10.178 20, 10.209 19.952, 8.608 17.750 C 7.708 16.512, 6.675 14.860, 6.313 14.078 C 5.950 13.295, 6.632 10.956, 7.827 8.880 C 9.022 6.803, 10 4.855, 10 4.552 C 10 4.248, 8.650 4, 7 4 M 17 4 C 15.350 4, 14.003 4.338, 14.007 4.750 C 14.010 5.162, 14.907 6.850, 16 8.500 C 17.093 10.150, 17.990 12.106, 17.993 12.846 C 17.997 13.586, 17.069 15.498, 15.932 17.096 L 13.864 20 16.932 20 L 20 20 20 12 L 20 4 17 4 M 12 7 C 11.489 7, 10.605 7.870, 10.035 8.934 C 9.466 9.998, 9 11.011, 9 11.184 C 9 11.358, 10.350 11.500, 12 11.500 C 13.650 11.500, 15 11.358, 15 11.184 C 15 11.011, 14.534 9.998, 13.965 8.934 C 13.395 7.870, 12.511 7, 12 7 M 12.126 15.429 C 10.958 15.429, 10.423 15.940, 10.737 16.757 C 11.017 17.487, 11.725 17.925, 12.311 17.730 C 12.896 17.535, 13.521 16.937, 13.699 16.402 C 13.878 15.867, 13.170 15.429, 12.126 15.429" stroke="none" fill="black" fill-rule="evenodd"/>
</svg>