<svg xmlns="http://www.w3.org/2000/svg" width="24" height="24" viewBox="0 0 24 24" version="1.1">
	<path d="M 13.403 1.438 C 11.256 1.210, 8.600 1.416, 7.500 1.894 C 6.400 2.373, 4.600 3.764, 3.500 4.987 C 2.078 6.568, 1.500 8.618, 1.500 12.082 C 1.500 16.074, 2.001 17.456, 4.273 19.727 C 6.557 22.011, 7.919 22.500, 12 22.500 C 16.081 22.500, 17.443 22.011, 19.727 19.727 C 22.011 17.443, 22.500 16.081, 22.500 12 C 22.500 7.999, 22 6.546, 19.903 4.448 C 18.256 2.802, 15.876 1.699, 13.403 1.438 M 12 3 C 9.848 3, 7.918 3.928, 5.923 5.923 C 3.928 7.918, 3 9.848, 3 12 C 3 14.152, 3.928 16.082, 5.923 18.077 C 7.592 19.746, 9.917 21, 11.341 21 C 12.714 21, 14.661 20.664, 15.668 20.253 C 17.044 19.692, 16.506 19.381, 13.510 19.003 C 10.534 18.628, 9.424 17.991, 9.144 16.500 C 8.938 15.400, 8.258 14.128, 7.634 13.674 C 6.803 13.069, 6.834 12.712, 7.750 12.341 C 8.438 12.062, 9 10.296, 9 8.417 C 9 6.537, 9.450 5, 10 5 C 10.550 5, 11 6.359, 11 8.019 C 11 10.740, 11.247 10.976, 13.500 10.411 C 15.021 10.029, 16 10.210, 16 10.873 C 16 11.472, 14.875 12.244, 13.500 12.589 C 12 12.966, 11 13.932, 11 15.003 C 11 16.363, 11.974 16.883, 15.080 17.179 C 18.185 17.475, 19.381 17.157, 20.080 15.850 C 20.586 14.905, 21 12.942, 21 11.489 C 21 9.901, 19.833 7.679, 18.077 5.923 C 16.082 3.928, 14.152 3, 12 3" stroke="none" fill="black" fill-rule="evenodd"/>
</svg>