<svg xmlns="http://www.w3.org/2000/svg" width="24" height="24" viewBox="0 0 24 24" version="1.1">
	<path d="M 13.403 1.438 C 11.256 1.210, 8.600 1.416, 7.500 1.894 C 6.400 2.373, 4.600 3.764, 3.500 4.987 C 2.078 6.568, 1.500 8.618, 1.500 12.082 C 1.500 16.074, 2.001 17.456, 4.273 19.727 C 6.557 22.011, 7.919 22.500, 12 22.500 C 16.081 22.500, 17.443 22.011, 19.727 19.727 C 22.011 17.443, 22.500 16.081, 22.500 12 C 22.500 7.999, 22 6.546, 19.903 4.448 C 18.256 2.802, 15.876 1.699, 13.403 1.438 M 12 3 C 9.848 3, 7.918 3.928, 5.923 5.923 C 3.928 7.918, 3 9.848, 3 12 C 3 14.152, 3.928 16.082, 5.923 18.077 C 7.918 20.072, 9.848 21, 12 21 C 14.152 21, 16.082 20.072, 18.077 18.077 C 20.072 16.082, 21 14.152, 21 12 C 21 9.848, 20.072 7.918, 18.077 5.923 C 16.082 3.928, 14.152 3, 12 3 M 6.878 6 C 6.395 6, 6 6.395, 6 6.878 C 6 7.360, 6.675 8.315, 7.500 9 C 8.325 9.685, 9 10.942, 9 11.794 C 9 12.646, 8.253 14.168, 7.339 15.177 C 6.426 16.187, 5.973 17.307, 6.333 17.667 C 6.693 18.027, 7.813 17.574, 8.823 16.661 C 9.832 15.747, 11.262 15, 12 15 C 12.738 15, 14.168 15.747, 15.177 16.661 C 16.187 17.574, 17.307 18.027, 17.667 17.667 C 18.027 17.307, 17.574 16.187, 16.661 15.177 C 15.747 14.168, 15 12.738, 15 12 C 15 11.262, 15.747 9.832, 16.661 8.823 C 17.574 7.813, 18.027 6.693, 17.667 6.333 C 17.307 5.973, 16.187 6.426, 15.177 7.339 C 14.168 8.253, 12.646 9, 11.794 9 C 10.942 9, 9.685 8.325, 9 7.500 C 8.315 6.675, 7.360 6, 6.878 6 M 12 11 C 11.450 11, 11 11.450, 11 12 C 11 12.550, 11.450 13, 12 13 C 12.550 13, 13 12.550, 13 12 C 13 11.450, 12.550 11, 12 11" stroke="none" fill="black" fill-rule="evenodd"/>
</svg>