<svg viewBox="0 0 24 24" xmlns="http://www.w3.org/2000/svg" fill="none" stroke="#000000" stroke-width="2" stroke-linecap="round" stroke-linejoin="round"><path d="M5.665 3.056 C 5.266 3.205,5.020 3.564,5.020 3.999 C 5.020 4.143,5.045 4.320,5.076 4.394 C 5.107 4.467,6.453 6.068,8.066 7.951 L 11.000 11.374 11.000 11.687 L 11.000 12.000 9.446 12.000 C 7.758 12.000,7.658 12.011,7.382 12.221 C 7.302 12.282,7.187 12.415,7.128 12.516 C 7.037 12.672,7.020 12.746,7.020 13.000 C 7.020 13.256,7.036 13.328,7.131 13.489 C 7.192 13.592,7.304 13.725,7.381 13.783 C 7.654 13.991,7.700 13.996,9.410 13.998 L 11.000 14.000 11.000 15.000 L 11.000 16.000 9.446 16.000 C 7.758 16.000,7.658 16.011,7.382 16.221 C 7.302 16.282,7.187 16.415,7.128 16.516 C 7.037 16.672,7.020 16.746,7.020 17.000 C 7.020 17.256,7.036 17.328,7.131 17.489 C 7.192 17.592,7.304 17.725,7.381 17.783 C 7.654 17.991,7.700 17.996,9.408 17.998 L 10.995 18.000 11.008 19.153 L 11.020 20.307 11.141 20.503 C 11.543 21.156,12.457 21.156,12.859 20.503 L 12.980 20.307 12.992 19.153 L 13.005 18.000 14.592 17.998 C 16.300 17.996,16.346 17.991,16.619 17.783 C 16.696 17.725,16.808 17.592,16.869 17.489 C 16.964 17.328,16.980 17.256,16.980 17.000 C 16.980 16.746,16.963 16.672,16.872 16.516 C 16.813 16.415,16.698 16.282,16.618 16.221 C 16.342 16.011,16.242 16.000,14.554 16.000 L 13.000 16.000 13.000 15.000 L 13.000 14.000 14.590 13.998 C 16.300 13.996,16.346 13.991,16.619 13.783 C 16.696 13.725,16.808 13.592,16.869 13.489 C 16.964 13.328,16.980 13.256,16.980 13.000 C 16.980 12.746,16.963 12.672,16.872 12.516 C 16.813 12.415,16.698 12.282,16.618 12.221 C 16.342 12.011,16.242 12.000,14.554 12.000 L 13.000 12.000 13.000 11.687 L 13.000 11.374 15.930 7.955 C 17.542 6.074,18.884 4.483,18.914 4.418 C 19.004 4.221,19.017 3.909,18.946 3.699 C 18.858 3.442,18.715 3.264,18.489 3.131 C 18.331 3.038,18.254 3.020,18.020 3.020 C 17.493 3.020,17.672 2.842,14.697 6.314 C 13.232 8.022,12.019 9.420,12.000 9.420 C 11.981 9.420,10.768 8.022,9.303 6.314 C 7.057 3.693,6.612 3.194,6.460 3.120 C 6.230 3.009,5.871 2.980,5.665 3.056 " stroke="none" fill-rule="evenodd" fill="black"></path></svg>