<svg xmlns="http://www.w3.org/2000/svg" width="24" height="24" viewBox="0 0 24 24" version="1.1">
	<path d="M 5 9 L 5 15 9.845 15 C 15.324 15, 18 12.974, 18 8.826 C 18 5.049, 15.070 3, 9.671 3 L 5 3 5 9 M 7 6.500 C 7 7.617, 8.180 8, 11.622 8 C 15.618 8, 16.076 7.797, 15 6.500 C 14.315 5.675, 12.235 5, 10.378 5 C 8.042 5, 7 5.463, 7 6.500 M 7 11.500 C 7 13.518, 13.325 13.518, 15 11.500 C 16.076 10.203, 15.618 10, 11.622 10 C 8.180 10, 7 10.383, 7 11.500" stroke="none" fill="#000000" fill-rule="evenodd"/>
</svg>