<svg viewBox="0 0 24 24" xmlns="http://www.w3.org/2000/svg" fill="none" stroke="#000000" stroke-width="2" stroke-linecap="round" stroke-linejoin="round"><path d="M4.695 5.057 C 4.466 5.129,4.256 5.299,4.128 5.516 L 4.020 5.700 4.020 9.360 C 4.020 12.975,4.021 13.027,4.112 13.593 C 4.298 14.765,4.602 15.726,5.120 16.780 C 5.709 17.979,6.419 18.950,7.476 20.001 C 8.634 21.153,9.932 22.097,11.236 22.736 C 11.696 22.961,11.756 22.980,12.003 22.980 C 12.257 22.980,12.304 22.964,12.846 22.692 C 14.216 22.005,15.669 20.918,16.813 19.722 C 18.302 18.166,19.315 16.301,19.756 14.300 C 19.979 13.286,19.980 13.268,19.980 9.340 L 19.980 5.700 19.872 5.516 C 19.740 5.293,19.533 5.128,19.290 5.055 C 19.027 4.976,4.947 4.978,4.695 5.057 M11.009 11.653 L 11.020 16.306 11.141 16.503 C 11.543 17.156,12.457 17.156,12.859 16.503 L 12.980 16.306 12.991 11.653 L 13.001 7.000 15.503 7.000 L 18.005 7.000 17.989 9.970 C 17.971 13.211,17.969 13.238,17.721 14.220 C 17.290 15.925,16.288 17.526,14.785 18.914 C 14.088 19.557,13.217 20.196,12.377 20.681 C 12.188 20.791,12.019 20.880,12.000 20.880 C 11.948 20.880,11.322 20.511,10.889 20.226 C 8.471 18.630,6.784 16.403,6.247 14.100 C 6.029 13.168,6.028 13.147,6.011 9.970 L 5.995 7.000 8.497 7.000 L 10.999 7.000 11.009 11.653 " stroke="none" fill-rule="evenodd" fill="black"></path></svg>