<svg viewBox="0 0 24 24" xmlns="http://www.w3.org/2000/svg"><path d="M11.120 2.039 C 9.316 2.220,7.707 2.807,6.280 3.806 C 2.738 6.286,1.178 10.759,2.422 14.865 C 2.918 16.499,3.728 17.850,4.939 19.061 C 5.928 20.050,7.038 20.788,8.272 21.278 C 11.634 22.610,15.313 22.080,18.200 19.845 C 18.637 19.507,19.507 18.637,19.845 18.200 C 21.255 16.379,22.000 14.234,22.000 12.000 C 22.000 7.432,18.842 3.387,14.430 2.303 C 13.446 2.062,12.028 1.948,11.120 2.039 M10.520 4.620 L 10.520 5.240 12.000 5.240 L 13.480 5.240 13.480 4.620 L 13.480 4.000 14.000 4.000 L 14.520 4.000 14.520 4.640 L 14.520 5.280 14.665 5.280 C 14.954 5.280,15.668 5.408,16.002 5.519 C 16.899 5.818,17.441 6.378,17.667 7.240 C 17.772 7.639,17.762 8.448,17.647 8.853 C 17.599 9.025,17.522 9.237,17.478 9.323 L 17.398 9.481 17.500 9.520 C 18.144 9.765,18.817 10.270,19.183 10.781 C 19.571 11.325,19.734 11.835,19.734 12.500 C 19.734 13.165,19.571 13.675,19.183 14.219 C 18.873 14.653,18.255 15.155,17.774 15.366 C 17.667 15.412,17.572 15.457,17.563 15.466 C 17.554 15.474,17.597 15.534,17.659 15.599 L 17.772 15.717 17.747 16.149 C 17.690 17.127,17.318 17.842,16.629 18.299 C 16.180 18.597,15.559 18.760,14.875 18.760 L 14.520 18.760 14.520 19.380 L 14.520 20.000 14.000 20.000 L 13.480 20.000 13.480 19.380 L 13.480 18.760 12.000 18.760 L 10.520 18.760 10.520 19.380 L 10.520 20.000 10.000 20.000 L 9.480 20.000 9.480 19.380 L 9.480 18.760 8.860 18.760 L 8.240 18.760 8.240 12.000 L 8.240 5.240 8.860 5.240 L 9.480 5.240 9.480 4.620 L 9.480 4.000 10.000 4.000 L 10.520 4.000 10.520 4.620 M9.760 12.000 L 9.760 17.240 12.533 17.240 C 15.617 17.240,15.584 17.243,15.879 16.977 C 15.963 16.900,16.068 16.761,16.112 16.668 C 16.278 16.314,16.325 16.385,15.200 15.260 L 14.181 14.240 15.280 14.239 C 16.517 14.239,16.706 14.213,17.187 13.975 C 17.588 13.777,17.925 13.461,18.088 13.129 C 18.208 12.887,18.220 12.828,18.220 12.500 C 18.220 12.172,18.208 12.113,18.089 11.872 C 17.876 11.439,17.423 11.078,16.840 10.878 C 16.615 10.800,16.474 10.785,15.790 10.770 L 15.000 10.752 15.000 9.996 L 15.000 9.240 15.153 9.240 C 15.568 9.240,15.954 9.005,16.121 8.649 C 16.233 8.410,16.272 7.899,16.200 7.600 C 16.123 7.280,15.867 7.033,15.500 6.925 C 15.008 6.779,14.620 6.760,12.151 6.760 L 9.760 6.760 9.760 12.000 " stroke="none" fill-rule="evenodd" fill="black"></path></svg>