<svg xmlns="http://www.w3.org/2000/svg" width="24" height="24" viewBox="0 0 24 24" version="1.1">
	<path d="M 12.950 4 C 11.149 4, 9.441 4.895, 8.179 6.500 C 7.097 7.875, 5.714 9, 5.106 9 C 4.498 9, 4 9.412, 4 9.917 C 4 10.421, 4.563 11.096, 5.250 11.417 C 6.250 11.883, 6.250 12.117, 5.250 12.583 C 4.563 12.904, 4 13.579, 4 14.083 C 4 14.588, 4.498 15, 5.106 15 C 5.714 15, 7.097 16.125, 8.179 17.500 C 9.441 19.105, 11.149 20, 12.950 20 C 14.493 20, 16.324 19.314, 17.020 18.476 C 17.716 17.638, 17.988 16.655, 17.626 16.293 C 17.263 15.930, 16.434 16.166, 15.783 16.817 C 15.132 17.467, 13.845 18, 12.922 18 C 12 18, 10.685 17.325, 10 16.500 C 8.947 15.232, 9.160 15, 11.378 15 C 12.820 15, 14 14.550, 14 14 C 14 13.450, 12.650 13, 11 13 C 9.350 13, 8 12.550, 8 12 C 8 11.450, 9.350 11, 11 11 C 12.650 11, 14 10.550, 14 10 C 14 9.450, 12.820 9, 11.378 9 C 9.160 9, 8.947 8.768, 10 7.500 C 10.685 6.675, 12 6, 12.922 6 C 13.845 6, 15.132 6.533, 15.783 7.183 C 16.434 7.834, 17.263 8.070, 17.626 7.707 C 17.988 7.345, 17.716 6.362, 17.020 5.524 C 16.324 4.686, 14.493 4, 12.950 4" stroke="none" fill="black" fill-rule="evenodd"/>
</svg>