<svg xmlns="http://www.w3.org/2000/svg" width="24" height="24" viewBox="0 0 24 24" version="1.1">
	<path d="M 7.500 1.894 C 3.457 3.652, 1.500 6.976, 1.500 12.082 C 1.500 16.074, 2.001 17.456, 4.273 19.727 C 6.557 22.011, 7.919 22.500, 12 22.500 C 19.011 22.500, 22.500 19.011, 22.500 12 C 22.500 7.999, 22 6.546, 19.903 4.448 C 17.099 1.644, 10.974 0.383, 7.500 1.894 M 5.923 5.923 C 3.928 7.918, 3 9.848, 3 12 C 3 16.302, 7.698 21, 12 21 C 14.152 21, 16.082 20.072, 18.077 18.077 C 22.007 14.147, 22.007 9.853, 18.077 5.923 C 14.147 1.993, 9.853 1.993, 5.923 5.923 M 8 11 L 8 16 11.429 16 C 15.205 16, 18 13.873, 18 11 C 18 8.127, 15.205 6, 11.429 6 L 8 6 8 11 M 10 9 C 10 9.550, 11.152 10, 12.559 10 C 14.010 10, 14.851 9.567, 14.500 9 C 14.160 8.450, 13.009 8, 11.941 8 C 10.873 8, 10 8.450, 10 9 M 10 13 C 10 13.550, 10.873 14, 11.941 14 C 13.009 14, 14.160 13.550, 14.500 13 C 14.851 12.433, 14.010 12, 12.559 12 C 11.152 12, 10 12.450, 10 13" stroke="none" fill="#000000" fill-rule="evenodd"/>
</svg>