<svg xmlns="http://www.w3.org/2000/svg" width="24" height="24" viewBox="0 0 24 24" version="1.1">
	<path d="M 13.403 1.438 C 11.256 1.210, 8.600 1.416, 7.500 1.894 C 6.400 2.373, 4.600 3.764, 3.500 4.987 C 2.078 6.568, 1.500 8.618, 1.500 12.082 C 1.500 16.074, 2.001 17.456, 4.273 19.727 C 6.557 22.011, 7.919 22.500, 12 22.500 C 16.081 22.500, 17.443 22.011, 19.727 19.727 C 22.011 17.443, 22.500 16.081, 22.500 12 C 22.500 7.999, 22 6.546, 19.903 4.448 C 18.256 2.802, 15.876 1.699, 13.403 1.438 M 8.073 4 C 7.562 4, 6.212 5.186, 5.073 6.635 C 3.933 8.084, 3 10.498, 3 12 C 3 13.502, 3.933 15.916, 5.073 17.365 C 6.212 18.814, 7.593 20, 8.141 20 C 8.688 20, 8.206 18.693, 7.068 17.096 C 5.931 15.498, 5.002 13.586, 5.004 12.846 C 5.006 12.106, 5.906 10.027, 7.004 8.226 C 8.102 6.425, 9 4.738, 9 4.476 C 9 4.214, 8.583 4, 8.073 4 M 15.927 4 C 15.417 4, 15 4.214, 15 4.476 C 15 4.738, 15.898 6.425, 16.996 8.226 C 18.094 10.027, 18.994 12.106, 18.996 12.846 C 18.998 13.586, 18.069 15.498, 16.932 17.096 C 15.794 18.693, 15.312 20, 15.859 20 C 16.407 20, 17.788 18.814, 18.927 17.365 C 20.067 15.916, 21 13.502, 21 12 C 21 10.498, 20.067 8.084, 18.927 6.635 C 17.788 5.186, 16.438 4, 15.927 4 M 12 5 C 11.687 5, 10.659 6.307, 9.716 7.904 C 8.772 9.502, 8 11.092, 8 11.439 C 8 11.786, 8.900 11.589, 10 11 C 11.421 10.240, 12.579 10.240, 14 11 C 15.100 11.589, 16 11.786, 16 11.439 C 16 11.092, 15.228 9.502, 14.284 7.904 C 13.341 6.307, 12.313 5, 12 5 M 12 12 C 11.515 12, 10.840 12.450, 10.500 13 C 10.160 13.550, 10.835 14, 12 14 C 13.165 14, 13.840 13.550, 13.500 13 C 13.160 12.450, 12.485 12, 12 12 M 9.877 15.934 C 7.763 14.803, 7.762 14.808, 9.627 17.368 C 10.657 18.781, 11.725 19.937, 12 19.937 C 12.275 19.937, 13.343 18.781, 14.373 17.368 C 16.238 14.808, 16.237 14.803, 14.123 15.934 C 12.538 16.782, 11.462 16.782, 9.877 15.934" stroke="none" fill="black" fill-rule="evenodd"/>
</svg>