<svg xmlns="http://www.w3.org/2000/svg" width="24" height="24" viewBox="0 0 24 24" version="1.1">
	<path d="M 4.204 11.149 C 4.593 16.525, 5.050 17.656, 7.840 20.149 C 9.596 21.717, 11.467 23, 12 23 C 12.533 23, 14.404 21.717, 16.160 20.149 C 18.950 17.656, 19.407 16.525, 19.796 11.149 L 20.240 5 12 5 L 3.760 5 4.204 11.149 M 6.252 11.541 C 7.506 22.666, 16.494 22.666, 17.748 11.541 C 18.240 7.174, 18.159 7, 15.630 7 C 13.141 7, 13 7.267, 13 12 C 13 14.750, 12.550 17, 12 17 C 11.450 17, 11 14.750, 11 12 C 11 7.267, 10.859 7, 8.370 7 C 5.841 7, 5.760 7.174, 6.252 11.541" stroke="none" fill="#000000" fill-rule="evenodd"/>
</svg>