<svg xmlns="http://www.w3.org/2000/svg" width="24" height="24" viewBox="0 0 24 24" version="1.1">
	<path d="M 12 1 C 11.633 1, 9.683 3.395, 7.666 6.323 C 5.650 9.251, 4.013 12.288, 4.030 13.073 C 4.046 13.858, 5.854 16.525, 8.047 19 L 12.035 23.500 16.015 19 C 18.204 16.525, 19.996 13.858, 19.997 13.073 C 19.999 12.288, 18.350 9.251, 16.334 6.323 C 14.317 3.395, 12.367 1, 12 1 M 12 5 C 11.525 5, 10.206 6.307, 9.068 7.904 C 7.931 9.502, 7 11.067, 7 11.383 C 7 11.699, 8.125 11.445, 9.500 10.818 C 11.370 9.966, 12.630 9.966, 14.500 10.818 C 15.875 11.445, 17 11.699, 17 11.383 C 17 11.067, 16.069 9.502, 14.932 7.904 C 13.794 6.307, 12.475 5, 12 5 M 12 12 C 11.515 12, 10.840 12.450, 10.500 13 C 10.160 13.550, 10.835 14, 12 14 C 13.165 14, 13.840 13.550, 13.500 13 C 13.160 12.450, 12.485 12, 12 12 M 9.929 15.962 C 7.900 14.876, 7.893 14.907, 9.568 17.464 C 10.509 18.899, 11.740 19.920, 12.304 19.732 C 12.867 19.544, 14.031 18.332, 14.890 17.039 C 16.408 14.752, 16.390 14.721, 14.225 15.879 C 12.575 16.763, 11.465 16.784, 9.929 15.962" stroke="none" fill="black" fill-rule="evenodd"/>
</svg>