<svg xmlns="http://www.w3.org/2000/svg" width="24" height="24" viewBox="0 0 24 24" version="1.1">
	<path d="M 13.403 1.438 C 11.256 1.210, 8.600 1.416, 7.500 1.894 C 6.400 2.373, 4.600 3.764, 3.500 4.987 C 2.078 6.568, 1.500 8.618, 1.500 12.082 C 1.500 16.074, 2.001 17.456, 4.273 19.727 C 6.557 22.011, 7.919 22.500, 12 22.500 C 16.081 22.500, 17.443 22.011, 19.727 19.727 C 22.011 17.443, 22.500 16.081, 22.500 12 C 22.500 7.999, 22 6.546, 19.903 4.448 C 18.256 2.802, 15.876 1.699, 13.403 1.438 M 12 3 C 9.848 3, 7.918 3.928, 5.923 5.923 C 3.928 7.918, 3 9.848, 3 12 C 3 14.152, 3.928 16.082, 5.923 18.077 C 7.918 20.072, 9.848 21, 12 21 C 14.152 21, 16.082 20.072, 18.077 18.077 C 20.072 16.082, 21 14.152, 21 12 C 21 9.848, 20.072 7.918, 18.077 5.923 C 16.082 3.928, 14.152 3, 12 3 M 11.429 6 L 8 6 8 11 L 8 16 11.429 16 C 13.314 16, 15.564 15.293, 16.429 14.429 C 17.293 13.564, 18 12.021, 18 11 C 18 9.979, 17.293 8.436, 16.429 7.571 C 15.564 6.707, 13.314 6, 11.429 6 M 11.941 8 C 10.873 8, 10 8.450, 10 9 C 10 9.550, 11.152 10, 12.559 10 C 14.010 10, 14.851 9.567, 14.500 9 C 14.160 8.450, 13.009 8, 11.941 8 M 12.559 12 C 11.152 12, 10 12.450, 10 13 C 10 13.550, 10.873 14, 11.941 14 C 13.009 14, 14.160 13.550, 14.500 13 C 14.851 12.433, 14.010 12, 12.559 12" stroke="none" fill="black" fill-rule="evenodd"/>
</svg>