<svg viewBox="0 0 24 24" xmlns="http://www.w3.org/2000/svg" fill="none" stroke="#000000" stroke-width="2" stroke-linecap="round" stroke-linejoin="round"><path d="M4.499 2.043 C 3.380 2.232,2.461 3.048,2.114 4.160 L 2.020 4.460 2.020 12.000 L 2.020 19.540 2.114 19.840 C 2.419 20.816,3.153 21.557,4.140 21.885 C 4.418 21.977,4.438 21.978,6.706 21.991 L 8.992 22.004 9.018 22.181 C 9.054 22.423,9.259 22.712,9.497 22.859 C 9.671 22.966,9.729 22.980,10.000 22.980 C 10.271 22.980,10.329 22.966,10.503 22.859 C 10.742 22.712,10.946 22.422,10.982 22.179 L 11.009 22.000 12.000 22.000 L 12.991 22.000 13.018 22.179 C 13.054 22.422,13.258 22.712,13.497 22.859 C 13.671 22.966,13.729 22.980,14.000 22.980 C 14.271 22.980,14.329 22.966,14.503 22.859 C 14.741 22.712,14.946 22.423,14.982 22.181 L 15.008 22.004 17.294 21.991 C 19.562 21.978,19.582 21.977,19.860 21.885 C 20.847 21.557,21.581 20.816,21.886 19.840 L 21.980 19.540 21.980 12.000 L 21.980 4.460 21.886 4.160 C 21.581 3.182,20.832 2.428,19.861 2.121 L 19.540 2.020 12.120 2.014 C 8.039 2.011,4.609 2.024,4.499 2.043 M9.000 4.994 L 9.000 5.987 8.786 6.035 C 8.515 6.096,8.270 6.275,8.129 6.514 L 8.020 6.700 8.009 9.344 L 7.998 11.988 7.785 12.035 C 7.515 12.096,7.270 12.275,7.129 12.514 C 7.036 12.672,7.020 12.745,7.020 13.003 C 7.020 13.271,7.034 13.329,7.141 13.503 C 7.288 13.741,7.577 13.946,7.820 13.982 L 7.998 14.009 8.009 16.654 L 8.020 19.300 8.131 19.489 C 8.256 19.701,8.448 19.863,8.670 19.944 C 8.799 19.990,8.535 19.997,6.760 19.989 L 4.700 19.980 4.516 19.872 C 4.415 19.813,4.284 19.700,4.225 19.623 C 3.986 19.309,4.000 19.795,4.000 12.022 C 4.000 4.005,3.975 4.631,4.304 4.303 C 4.604 4.003,4.575 4.006,6.930 4.003 L 9.000 4.000 9.000 4.994 M13.000 5.000 L 13.000 6.000 12.000 6.000 L 11.000 6.000 11.000 5.000 L 11.000 4.000 12.000 4.000 L 13.000 4.000 13.000 5.000 M19.310 4.061 C 19.589 4.144,19.856 4.411,19.939 4.690 C 19.993 4.870,20.000 5.755,20.000 12.001 C 20.000 17.907,19.991 19.138,19.945 19.290 C 19.872 19.533,19.707 19.740,19.484 19.872 L 19.300 19.980 17.153 19.991 L 15.007 20.003 14.993 19.351 C 14.981 18.725,14.976 18.693,14.871 18.514 C 14.479 17.848,13.521 17.848,13.129 18.514 C 13.024 18.693,13.019 18.726,13.007 19.350 L 12.993 20.000 12.000 20.000 L 11.007 20.000 10.993 19.350 C 10.981 18.726,10.976 18.693,10.871 18.514 C 10.730 18.275,10.485 18.096,10.214 18.035 L 10.000 17.987 10.000 15.996 L 10.000 14.004 12.910 13.989 C 15.699 13.975,15.834 13.971,16.163 13.890 C 16.960 13.696,17.546 13.377,18.009 12.885 C 18.457 12.411,18.740 11.840,18.905 11.080 C 19.015 10.573,19.007 9.359,18.891 8.858 C 18.705 8.057,18.385 7.462,17.885 6.991 C 17.262 6.403,16.477 6.097,15.390 6.017 L 15.000 5.989 15.000 4.995 L 15.000 4.000 17.053 4.000 C 18.774 4.000,19.139 4.010,19.310 4.061 M15.539 8.042 C 15.706 8.066,15.919 8.111,16.012 8.144 C 16.405 8.281,16.720 8.599,16.861 9.000 C 16.973 9.320,17.022 9.950,16.970 10.415 C 16.875 11.266,16.592 11.664,15.923 11.890 C 15.663 11.978,15.633 11.979,12.830 11.991 L 10.000 12.004 10.000 10.002 L 10.000 8.000 12.617 8.000 C 14.241 8.000,15.350 8.016,15.539 8.042 " stroke="none" fill-rule="evenodd" fill="black"></path></svg>