<svg xmlns="http://www.w3.org/2000/svg" width="24" height="24" viewBox="0 0 24 24" version="1.1">
	<path d="M 7.500 1.894 C 3.457 3.652, 1.500 6.976, 1.500 12.082 C 1.500 16.074, 2.001 17.456, 4.273 19.727 C 6.557 22.011, 7.919 22.500, 12 22.500 C 19.011 22.500, 22.500 19.011, 22.500 12 C 22.500 7.999, 22 6.546, 19.903 4.448 C 17.099 1.644, 10.974 0.383, 7.500 1.894 M 11 4.500 C 11 5.325, 11.450 6, 12 6 C 12.550 6, 13 5.325, 13 4.500 C 13 3.675, 12.550 3, 12 3 C 11.450 3, 11 3.675, 11 4.500 M 5.073 6.635 C 2.337 10.112, 2.449 14.248, 5.371 17.645 C 7.562 20.192, 7.865 20.277, 9.371 18.772 C 11.627 16.516, 11.431 14, 9 14 C 7.900 14, 7 13.550, 7 13 C 7 12.450, 7.900 12, 9 12 C 10.333 12, 11 11.333, 11 10 C 11 8.900, 10.550 8, 10 8 C 9.450 8, 9 7.100, 9 6 C 9 3.258, 7.544 3.493, 5.073 6.635 M 15 4.883 C 15 5.369, 15.926 6.009, 17.057 6.305 C 18.745 6.746, 18.903 6.588, 17.935 5.421 C 16.614 3.830, 15 3.535, 15 4.883 M 13 10 C 13 11.646, 13.518 12.065, 15.250 11.820 C 16.488 11.644, 17.500 10.825, 17.500 10 C 17.500 9.175, 16.488 8.356, 15.250 8.180 C 13.518 7.935, 13 8.354, 13 10 M 19.487 11.250 C 18.877 12.641, 17.450 13.621, 15.750 13.816 C 12.625 14.176, 12.147 16.290, 14.629 18.772 C 16.135 20.277, 16.438 20.192, 18.629 17.645 C 19.963 16.094, 21 13.600, 21 11.944 C 21 8.409, 20.778 8.307, 19.487 11.250" stroke="none" fill="#000000" fill-rule="evenodd"/>
</svg>