<svg xmlns="http://www.w3.org/2000/svg" width="24" height="24" viewBox="0 0 24 24" version="1.1">
	<path d="M 12 4 C 11.515 4, 10.816 4.489, 10.446 5.087 C 10.077 5.685, 10.275 6.675, 10.887 7.287 C 11.704 8.104, 12.296 8.104, 13.113 7.287 C 13.725 6.675, 13.923 5.685, 13.554 5.087 C 13.184 4.489, 12.485 4, 12 4 M 7 7 C 6.515 7, 5.816 7.489, 5.446 8.087 C 5.077 8.685, 5.275 9.675, 5.887 10.287 C 6.704 11.104, 7.296 11.104, 8.113 10.287 C 8.725 9.675, 8.923 8.685, 8.554 8.087 C 8.184 7.489, 7.485 7, 7 7 M 17 7 C 16.515 7, 15.816 7.489, 15.446 8.087 C 15.077 8.685, 15.275 9.675, 15.887 10.287 C 16.704 11.104, 17.296 11.104, 18.113 10.287 C 18.725 9.675, 18.923 8.685, 18.554 8.087 C 18.184 7.489, 17.485 7, 17 7 M 12.246 9.180 C 10.893 8.988, 9.750 9.488, 9.389 10.430 C 9.057 11.293, 9.057 12.707, 9.389 13.570 C 9.750 14.512, 10.893 15.012, 12.246 14.820 C 13.898 14.585, 14.500 13.833, 14.500 12 C 14.500 10.167, 13.898 9.415, 12.246 9.180 M 12 11 C 11.450 11, 11 11.450, 11 12 C 11 12.550, 11.450 13, 12 13 C 12.550 13, 13 12.550, 13 12 C 13 11.450, 12.550 11, 12 11 M 7 13 C 6.515 13, 5.816 13.489, 5.446 14.087 C 5.077 14.685, 5.275 15.675, 5.887 16.287 C 6.704 17.104, 7.296 17.104, 8.113 16.287 C 8.725 15.675, 8.923 14.685, 8.554 14.087 C 8.184 13.489, 7.485 13, 7 13 M 17 13 C 16.515 13, 15.816 13.489, 15.446 14.087 C 15.077 14.685, 15.275 15.675, 15.887 16.287 C 16.704 17.104, 17.296 17.104, 18.113 16.287 C 18.725 15.675, 18.923 14.685, 18.554 14.087 C 18.184 13.489, 17.485 13, 17 13 M 12 16 C 11.515 16, 10.816 16.489, 10.446 17.087 C 10.077 17.685, 10.275 18.675, 10.887 19.287 C 11.704 20.104, 12.296 20.104, 13.113 19.287 C 13.725 18.675, 13.923 17.685, 13.554 17.087 C 13.184 16.489, 12.485 16, 12 16" stroke="none" fill="black" fill-rule="evenodd"/>
</svg>