<svg xmlns="http://www.w3.org/2000/svg" width="24" height="24" viewBox="0 0 24 24" version="1.1">
	<path d="M 12.452 2.215 C 7.475 2.058, 3.087 2.246, 2.702 2.632 C 2.316 3.018, 2 7.282, 2 12.108 C 2 17.577, 2.428 21.146, 3.136 21.584 C 3.760 21.970, 7.836 22.286, 12.193 22.286 C 16.550 22.286, 20.557 21.843, 21.098 21.302 C 21.643 20.757, 21.953 16.343, 21.791 11.409 L 21.500 2.500 12.452 2.215 M 6.567 4 C 4.025 4, 4 4.077, 4 12 C 4 19.256, 4.181 20, 5.943 20 C 7.653 20, 7.877 19.305, 7.805 14.224 C 7.760 11.047, 8.041 7.447, 8.429 6.224 C 9.033 4.320, 8.766 4, 6.567 4 M 12 4 C 11.450 4, 11 4.450, 11 5 C 11 5.550, 11.450 6, 12 6 C 12.550 6, 13 5.550, 13 5 C 13 4.450, 12.550 4, 12 4 M 17.500 4 C 16.125 4, 15 4.342, 15 4.759 C 15 5.177, 15.900 6.081, 17 6.768 C 18.100 7.455, 19 8.823, 19 9.808 C 19 10.794, 18.460 12.140, 17.800 12.800 C 17.140 13.460, 15.115 14, 13.300 14 C 10.818 14, 10.004 14.434, 10.015 15.750 C 10.024 16.712, 10.474 18.175, 11.015 19 C 11.891 20.333, 12.120 20.333, 13.076 19 C 13.886 17.871, 14.278 17.809, 14.659 18.750 C 14.938 19.438, 16.254 20, 17.583 20 C 19.938 20, 20 19.793, 20 12 C 20 4.133, 19.958 4, 17.500 4 M 13.250 8.187 C 10.504 7.922, 10 8.203, 10 10 C 10 11.797, 10.504 12.078, 13.250 11.813 C 15.333 11.613, 16.500 10.961, 16.500 10 C 16.500 9.039, 15.333 8.387, 13.250 8.187" stroke="none" fill="black" fill-rule="evenodd"/>
</svg>