<svg xmlns="http://www.w3.org/2000/svg" width="24" height="24" viewBox="0 0 24 24" version="1.1">
	<path d="M 7.500 1.894 C 3.457 3.652, 1.500 6.976, 1.500 12.082 C 1.500 16.074, 2.001 17.456, 4.273 19.727 C 6.557 22.011, 7.919 22.500, 12 22.500 C 19.011 22.500, 22.500 19.011, 22.500 12 C 22.500 7.999, 22 6.546, 19.903 4.448 C 17.099 1.644, 10.974 0.383, 7.500 1.894 M 5.073 6.635 C 2.432 9.992, 2.432 14.008, 5.073 17.365 C 7.898 20.957, 9.649 20.721, 7.068 17.096 C 4.502 13.492, 4.494 12.342, 7.004 8.226 C 9.254 4.535, 9.389 4, 8.073 4 C 7.562 4, 6.212 5.186, 5.073 6.635 M 15 4.476 C 15 4.738, 15.898 6.425, 16.996 8.226 C 19.506 12.342, 19.498 13.492, 16.932 17.096 C 14.351 20.721, 16.102 20.957, 18.927 17.365 C 21.568 14.008, 21.568 9.992, 18.927 6.635 C 17.092 4.301, 15 3.151, 15 4.476 M 9.716 7.904 C 7.493 11.667, 7.552 12.310, 10 11 C 11.421 10.240, 12.579 10.240, 14 11 C 15.100 11.589, 16 11.786, 16 11.439 C 16 10.431, 12.626 5, 12 5 C 11.687 5, 10.659 6.307, 9.716 7.904 M 10.500 13 C 10.160 13.550, 10.835 14, 12 14 C 13.165 14, 13.840 13.550, 13.500 13 C 13.160 12.450, 12.485 12, 12 12 C 11.515 12, 10.840 12.450, 10.500 13 M 9.627 17.368 C 11.937 20.537, 12.063 20.537, 14.373 17.368 C 16.238 14.808, 16.237 14.803, 14.123 15.934 C 12.538 16.782, 11.462 16.782, 9.877 15.934 C 7.763 14.803, 7.762 14.808, 9.627 17.368" stroke="none" fill="#000000" fill-rule="evenodd"/>
</svg>