<svg xmlns="http://www.w3.org/2000/svg" width="24" height="24" viewBox="0 0 24 24" version="1.1">
	<path d="M 5.928 3 C 5.417 3, 5 3.273, 5 3.606 C 5 3.939, 6.388 5.964, 8.084 8.106 C 10.956 11.732, 11.025 12, 9.084 12 C 7.938 12, 7 12.450, 7 13 C 7 13.550, 7.900 14, 9 14 C 10.100 14, 11 14.450, 11 15 C 11 15.550, 10.100 16, 9 16 C 7.900 16, 7 16.450, 7 17 C 7 17.550, 7.900 18, 9 18 C 10.111 18, 11 18.667, 11 19.500 C 11 20.325, 11.450 21, 12 21 C 12.550 21, 13 20.325, 13 19.500 C 13 18.667, 13.889 18, 15 18 C 16.100 18, 17 17.550, 17 17 C 17 16.450, 16.100 16, 15 16 C 13.900 16, 13 15.550, 13 15 C 13 14.450, 13.900 14, 15 14 C 16.100 14, 17 13.550, 17 13 C 17 12.450, 16.062 12, 14.916 12 C 12.989 12, 13.073 11.696, 16.037 7.954 C 17.799 5.729, 18.918 3.591, 18.523 3.204 C 18.128 2.817, 16.485 4.074, 14.872 5.998 L 11.940 9.497 9.397 6.248 C 7.999 4.462, 6.438 3, 5.928 3" stroke="none" fill="black" fill-rule="evenodd"/>
</svg>