<svg xmlns="http://www.w3.org/2000/svg" width="24" height="24" viewBox="0 0 24 24" version="1.1">
	<path d="M 2.174 8.314 C -0.639 11.309, -0.634 16.224, 2.188 20.040 C 4.176 22.729, 4.908 23, 10.188 23 C 13.396 23, 16 22.552, 16 22 C 16 21.450, 13.710 21, 10.910 21 C 5.121 21, 2.092 18.546, 2.033 13.807 C 1.998 10.982, 5.098 8, 8.068 8 C 10.592 8, 13 11.334, 13 14.829 C 13 18.556, 14.696 19.061, 15.566 15.593 C 17.395 8.306, 7.325 2.832, 2.174 8.314 M 5 12 C 5 12.550, 6.350 13, 8 13 C 9.650 13, 11 12.550, 11 12 C 11 11.450, 9.650 11, 8 11 C 6.350 11, 5 11.450, 5 12" stroke="none" fill="black" fill-rule="evenodd"/>
</svg>