<svg viewBox="0 0 24 24" xmlns="http://www.w3.org/2000/svg" fill="none" stroke="#000000" stroke-width="2" stroke-linecap="round" stroke-linejoin="round"><path d="M11.280 1.023 C 11.203 1.032,10.951 1.059,10.720 1.083 C 8.832 1.283,6.991 2.023,5.360 3.235 C 4.751 3.688,3.684 4.755,3.226 5.367 C 0.728 8.714,0.301 13.032,2.097 16.780 C 2.643 17.918,3.276 18.801,4.238 19.762 C 5.199 20.724,6.082 21.357,7.220 21.903 C 10.967 23.699,15.288 23.270,18.637 20.770 C 19.246 20.316,20.316 19.246,20.770 18.637 C 23.744 14.652,23.744 9.348,20.770 5.363 C 20.316 4.755,19.247 3.686,18.640 3.235 C 17.045 2.049,15.365 1.360,13.423 1.096 C 13.000 1.038,11.574 0.990,11.280 1.023 M13.320 3.101 C 15.883 3.488,18.124 4.931,19.560 7.120 C 19.863 7.583,20.303 8.479,20.492 9.020 C 20.838 10.013,20.977 10.865,20.977 12.000 C 20.977 13.493,20.720 14.621,20.080 15.940 C 19.375 17.394,18.311 18.607,16.927 19.532 C 16.138 20.060,14.876 20.588,13.908 20.797 C 11.266 21.366,8.479 20.708,6.370 19.019 C 4.857 17.807,3.722 16.029,3.267 14.160 C 3.081 13.397,3.023 12.888,3.023 12.000 C 3.023 10.507,3.280 9.379,3.920 8.060 C 4.971 5.891,6.877 4.221,9.160 3.466 C 9.865 3.233,10.432 3.118,11.340 3.024 C 11.662 2.991,12.911 3.039,13.320 3.101 M6.695 6.057 C 6.466 6.129,6.256 6.299,6.128 6.516 C 6.036 6.672,6.020 6.745,6.021 7.000 C 6.021 7.213,6.043 7.341,6.095 7.440 C 6.194 7.627,8.294 9.739,8.508 9.866 C 8.968 10.138,9.587 9.968,9.867 9.492 C 9.964 9.327,9.980 9.257,9.980 9.000 C 9.980 8.747,9.963 8.672,9.873 8.520 C 9.815 8.421,9.266 7.842,8.653 7.234 C 7.610 6.198,7.526 6.125,7.323 6.064 C 7.066 5.988,6.920 5.987,6.695 6.057 M16.660 6.067 C 16.480 6.122,16.349 6.239,15.347 7.234 C 14.734 7.842,14.185 8.421,14.127 8.520 C 14.037 8.672,14.020 8.747,14.020 9.000 C 14.020 9.257,14.036 9.327,14.133 9.492 C 14.413 9.968,15.032 10.138,15.492 9.866 C 15.706 9.739,17.806 7.627,17.905 7.440 C 17.957 7.341,17.979 7.213,17.979 7.000 C 17.980 6.745,17.964 6.672,17.872 6.516 C 17.740 6.293,17.533 6.128,17.290 6.055 C 17.061 5.986,16.914 5.989,16.660 6.067 M11.499 9.040 C 10.363 9.246,9.460 10.049,9.114 11.160 C 8.979 11.594,8.979 12.406,9.114 12.840 C 9.421 13.826,10.174 14.579,11.160 14.886 C 11.594 15.021,12.406 15.021,12.840 14.886 C 13.826 14.579,14.579 13.826,14.886 12.840 C 15.021 12.406,15.021 11.594,14.886 11.160 C 14.581 10.179,13.810 9.407,12.861 9.129 C 12.500 9.023,11.832 8.980,11.499 9.040 M12.310 11.061 C 12.688 11.173,13.000 11.598,13.000 12.001 C 13.000 12.331,12.784 12.696,12.484 12.872 C 12.328 12.963,12.254 12.980,12.000 12.980 C 11.746 12.980,11.672 12.963,11.516 12.872 C 10.935 12.530,10.833 11.774,11.304 11.303 C 11.583 11.024,11.916 10.944,12.310 11.061 M8.640 14.069 C 8.492 14.121,8.265 14.325,7.347 15.236 C 6.734 15.843,6.185 16.421,6.127 16.520 C 6.037 16.672,6.020 16.747,6.020 17.000 C 6.020 17.257,6.036 17.327,6.133 17.492 C 6.413 17.968,7.032 18.138,7.492 17.866 C 7.706 17.739,9.806 15.627,9.905 15.440 C 9.957 15.341,9.979 15.213,9.979 15.000 C 9.980 14.745,9.964 14.672,9.872 14.516 C 9.617 14.083,9.120 13.902,8.640 14.069 M14.670 14.061 C 14.448 14.142,14.250 14.309,14.128 14.516 C 14.036 14.672,14.020 14.745,14.021 15.000 C 14.021 15.213,14.043 15.341,14.095 15.440 C 14.194 15.627,16.294 17.739,16.508 17.866 C 16.968 18.138,17.587 17.968,17.867 17.492 C 17.964 17.327,17.980 17.257,17.980 17.000 C 17.980 16.747,17.963 16.672,17.873 16.520 C 17.815 16.421,17.266 15.843,16.653 15.236 C 15.680 14.271,15.515 14.124,15.343 14.066 C 15.108 13.987,14.875 13.985,14.670 14.061 " stroke="none" fill-rule="evenodd" fill="black"></path></svg>