<svg xmlns="http://www.w3.org/2000/svg" width="24" height="24" viewBox="0 0 24 24" version="1.1">
	<path d="M 8 7.417 C 8 9.296, 7.438 11.062, 6.750 11.341 C 5.823 11.717, 5.797 12.061, 6.649 12.674 C 7.281 13.128, 7.956 14.625, 8.149 16 C 8.460 18.214, 9.044 18.535, 13.250 18.805 C 16.107 18.988, 18 18.689, 18 18.055 C 18 17.475, 16.200 17, 14 17 C 10.448 17, 10 16.732, 10 14.608 C 10 12.891, 10.705 12.040, 12.500 11.589 C 13.875 11.244, 15 10.472, 15 9.873 C 15 9.210, 14.021 9.029, 12.500 9.411 C 10.247 9.976, 10 9.740, 10 7.019 C 10 5.359, 9.550 4, 9 4 C 8.450 4, 8 5.537, 8 7.417" stroke="none" fill="black" fill-rule="evenodd"/>
</svg>