<svg xmlns="http://www.w3.org/2000/svg" width="24" height="24" viewBox="0 0 24 24" version="1.1">
	<path d="M 8.179 6.500 C 7.097 7.875, 5.714 9, 5.106 9 C 3.603 9, 3.704 10.695, 5.250 11.417 C 6.250 11.883, 6.250 12.117, 5.250 12.583 C 3.704 13.305, 3.603 15, 5.106 15 C 5.714 15, 7.097 16.125, 8.179 17.500 C 10.431 20.363, 15.032 20.871, 17.020 18.476 C 18.554 16.628, 17.452 15.148, 15.783 16.817 C 14.155 18.445, 11.493 18.299, 10 16.500 C 8.947 15.232, 9.160 15, 11.378 15 C 12.820 15, 14 14.550, 14 14 C 14 13.450, 12.650 13, 11 13 C 9.350 13, 8 12.550, 8 12 C 8 11.450, 9.350 11, 11 11 C 12.650 11, 14 10.550, 14 10 C 14 9.450, 12.820 9, 11.378 9 C 9.160 9, 8.947 8.768, 10 7.500 C 11.493 5.701, 14.155 5.555, 15.783 7.183 C 17.452 8.852, 18.554 7.372, 17.020 5.524 C 15.032 3.129, 10.431 3.637, 8.179 6.500" stroke="none" fill="#000000" fill-rule="evenodd"/>
</svg>