<svg viewBox="0 0 24 24" xmlns="http://www.w3.org/2000/svg"><path d="M8.238 8.263 L 4.505 14.485 8.263 18.243 L 12.020 22.000 15.751 18.270 C 18.256 15.766,19.477 14.519,19.466 14.475 C 19.443 14.380,12.033 2.040,12.000 2.040 C 11.984 2.040,10.292 4.840,8.238 8.263 M14.260 8.773 C 15.481 11.080,16.479 12.979,16.479 12.993 C 16.477 13.023,12.107 15.453,12.019 15.472 C 11.962 15.486,7.522 13.039,7.521 12.993 C 7.519 12.929,11.975 4.558,12.006 4.569 C 12.025 4.575,13.039 6.467,14.260 8.773 " fill="#000000" stroke="none" fill-rule="evenodd"></path></svg>