<svg xmlns="http://www.w3.org/2000/svg" width="24" height="24" viewBox="0 0 24 24" version="1.1">
	<path d="M 7.424 6.032 C 5.472 6.012, 3.554 6.846, 2.174 8.314 C 0.870 9.703, -0 11.919, -0 13.855 C -0 15.629, 0.985 18.413, 2.188 20.040 C 4.176 22.729, 4.908 23, 10.188 23 C 13.396 23, 16 22.552, 16 22 C 16 21.450, 13.710 21, 10.910 21 C 6.855 21, 5.439 20.543, 3.944 18.750 C 2.911 17.512, 2.052 15.288, 2.033 13.807 C 2.013 12.131, 2.839 10.525, 4.223 9.557 C 5.445 8.701, 7.175 8, 8.068 8 C 8.960 8, 10.435 8.823, 11.345 9.829 C 12.255 10.835, 13 13.085, 13 14.829 C 13 16.573, 13.441 18, 13.981 18 C 14.520 18, 15.234 16.917, 15.566 15.593 C 15.898 14.269, 15.608 12.132, 14.922 10.843 C 14.235 9.554, 12.959 7.952, 12.087 7.282 C 11.214 6.612, 9.116 6.049, 7.424 6.032 M 8 11 C 6.350 11, 5 11.450, 5 12 C 5 12.550, 6.350 13, 8 13 C 9.650 13, 11 12.550, 11 12 C 11 11.450, 9.650 11, 8 11" stroke="none" fill="black" fill-rule="evenodd"/>
</svg>