<svg viewBox="0 0 24 24" xmlns="http://www.w3.org/2000/svg" fill="none" stroke="#000000" stroke-width="2" stroke-linecap="round" stroke-linejoin="round"><path d="M11.655 1.065 C 11.564 1.097,11.425 1.181,11.346 1.252 C 11.267 1.322,9.604 3.667,7.649 6.463 C 5.009 10.237,4.081 11.594,4.042 11.734 C 3.920 12.169,4.091 12.587,4.503 12.860 L 4.745 13.020 4.548 13.119 C 4.069 13.360,3.869 13.951,4.105 14.429 C 4.148 14.516,5.800 16.434,7.775 18.691 C 11.767 23.254,11.496 22.980,12.020 22.979 C 12.243 22.979,12.335 22.959,12.473 22.880 C 12.600 22.808,13.588 21.706,16.222 18.695 C 18.189 16.447,19.836 14.544,19.882 14.466 C 20.148 14.016,19.935 13.354,19.445 13.110 L 19.250 13.013 19.464 12.884 C 19.898 12.625,20.087 12.176,19.958 11.711 C 19.907 11.528,12.860 1.437,12.655 1.252 C 12.392 1.017,11.998 0.943,11.655 1.065 M14.760 7.684 C 16.267 9.840,17.505 11.626,17.510 11.652 C 17.522 11.704,17.030 12.000,16.933 12.000 C 16.901 12.000,15.837 11.555,14.567 11.011 C 12.342 10.056,12.251 10.021,12.000 10.021 C 11.749 10.021,11.658 10.056,9.433 11.011 C 8.163 11.555,7.099 12.000,7.067 12.000 C 6.970 12.000,6.478 11.704,6.490 11.652 C 6.502 11.594,11.972 3.764,12.000 3.764 C 12.011 3.764,13.253 5.528,14.760 7.684 M13.375 12.677 C 14.115 12.994,14.720 13.264,14.720 13.277 C 14.719 13.289,14.107 13.649,13.360 14.075 L 12.000 14.850 10.640 14.075 C 9.893 13.649,9.281 13.290,9.280 13.277 C 9.280 13.251,11.966 12.085,12.005 12.094 C 12.019 12.097,12.636 12.359,13.375 12.677 M9.279 15.599 C 10.885 16.517,11.650 16.933,11.794 16.966 C 11.953 17.003,12.047 17.003,12.206 16.966 C 12.350 16.933,13.117 16.516,14.728 15.595 C 17.074 14.255,17.101 14.242,17.275 14.355 C 17.316 14.382,16.672 15.142,14.682 17.415 C 13.226 19.079,12.019 20.440,12.000 20.440 C 11.963 20.440,6.665 14.400,6.687 14.383 C 6.740 14.340,6.869 14.282,6.915 14.281 C 6.945 14.281,8.009 14.874,9.279 15.599 " stroke="none" fill-rule="evenodd" fill="black"></path></svg>