<svg xmlns="http://www.w3.org/2000/svg" width="24" height="24" viewBox="0 0 24 24" version="1.1">
	<path d="M 12 5 L 3.760 5 4.204 11.149 C 4.593 16.525, 5.050 17.656, 7.840 20.149 C 9.596 21.717, 11.467 23, 12 23 C 12.533 23, 14.404 21.717, 16.160 20.149 C 18.950 17.656, 19.407 16.525, 19.796 11.149 L 20.240 5 12 5 M 8.370 7 C 5.841 7, 5.760 7.174, 6.252 11.541 C 6.533 14.038, 7.561 16.963, 8.537 18.041 C 9.512 19.118, 11.070 20, 12 20 C 12.930 20, 14.488 19.118, 15.463 18.041 C 16.439 16.963, 17.467 14.038, 17.748 11.541 C 18.240 7.174, 18.159 7, 15.630 7 C 13.141 7, 13 7.267, 13 12 C 13 14.750, 12.550 17, 12 17 C 11.450 17, 11 14.750, 11 12 C 11 7.267, 10.859 7, 8.370 7" stroke="none" fill="black" fill-rule="evenodd"/>
</svg>