<svg xmlns="http://www.w3.org/2000/svg" width="24" height="24" viewBox="0 0 24 24" version="1.1">
	<path d="M 9.671 3 L 5 3 5 9 L 5 15 9.845 15 C 13.269 15, 15.175 14.464, 16.345 13.171 C 17.255 12.165, 18 10.210, 18 8.826 C 18 7.442, 17.177 5.565, 16.171 4.655 C 15.019 3.612, 12.615 3, 9.671 3 M 10.378 5 C 8.042 5, 7 5.463, 7 6.500 C 7 7.617, 8.180 8, 11.622 8 C 15.618 8, 16.076 7.797, 15 6.500 C 14.315 5.675, 12.235 5, 10.378 5 M 11.622 10 C 8.180 10, 7 10.383, 7 11.500 C 7 12.537, 8.042 13, 10.378 13 C 12.235 13, 14.315 12.325, 15 11.500 C 16.076 10.203, 15.618 10, 11.622 10" stroke="none" fill="black" fill-rule="evenodd"/>
</svg>