<svg viewBox="0 0 24 24" xmlns="http://www.w3.org/2000/svg" fill="none" stroke="#000000" stroke-width="2" stroke-linecap="round" stroke-linejoin="round"><path d="M11.280 1.023 C 11.203 1.032,10.951 1.059,10.720 1.083 C 8.832 1.283,6.991 2.023,5.360 3.235 C 4.751 3.688,3.684 4.755,3.226 5.367 C 0.728 8.714,0.301 13.032,2.097 16.780 C 2.643 17.918,3.276 18.801,4.238 19.762 C 5.199 20.724,6.082 21.357,7.220 21.903 C 10.967 23.699,15.288 23.270,18.637 20.770 C 19.246 20.316,20.316 19.246,20.770 18.637 C 23.744 14.652,23.744 9.348,20.770 5.363 C 20.316 4.755,19.247 3.686,18.640 3.235 C 17.045 2.049,15.365 1.360,13.423 1.096 C 13.000 1.038,11.574 0.990,11.280 1.023 M13.320 3.101 C 15.883 3.488,18.124 4.931,19.560 7.120 C 19.863 7.583,20.303 8.479,20.492 9.020 C 20.838 10.013,20.977 10.865,20.977 12.000 C 20.977 13.493,20.720 14.621,20.080 15.940 C 19.375 17.394,18.311 18.607,16.927 19.532 C 16.138 20.060,14.876 20.588,13.908 20.797 C 11.266 21.366,8.479 20.708,6.370 19.019 C 4.857 17.807,3.722 16.029,3.267 14.160 C 3.081 13.397,3.023 12.888,3.023 12.000 C 3.023 10.507,3.280 9.379,3.920 8.060 C 4.971 5.891,6.877 4.221,9.160 3.466 C 9.865 3.233,10.432 3.118,11.340 3.024 C 11.662 2.991,12.911 3.039,13.320 3.101 M9.695 5.057 C 9.466 5.129,9.256 5.299,9.128 5.516 L 9.020 5.700 9.009 8.687 L 8.998 11.675 8.769 11.740 C 7.435 12.120,7.332 12.168,7.140 12.496 C 6.832 13.022,7.092 13.740,7.660 13.934 C 7.931 14.026,8.079 14.017,8.560 13.880 C 8.791 13.814,8.983 13.760,8.987 13.760 C 8.991 13.760,9.001 14.395,9.009 15.170 C 9.024 16.509,9.029 16.594,9.116 16.860 C 9.434 17.832,10.161 18.559,11.140 18.885 L 11.420 18.979 14.269 18.991 C 16.156 18.999,17.171 18.989,17.273 18.962 C 17.498 18.901,17.738 18.711,17.867 18.492 C 17.964 18.327,17.980 18.257,17.980 18.000 C 17.980 17.746,17.963 17.672,17.872 17.516 C 17.761 17.328,17.572 17.158,17.373 17.070 C 17.287 17.032,16.582 17.015,14.480 17.000 L 11.700 16.980 11.516 16.872 C 11.415 16.813,11.284 16.700,11.225 16.623 C 11.007 16.337,11.000 16.276,11.000 14.665 L 11.001 13.180 12.890 12.643 C 15.579 11.879,15.495 11.907,15.697 11.705 C 16.091 11.311,16.094 10.692,15.704 10.302 C 15.532 10.131,15.221 10.000,14.985 10.000 C 14.916 10.000,14.009 10.243,12.970 10.540 C 11.931 10.837,11.064 11.080,11.042 11.080 C 11.016 11.080,10.998 10.130,10.991 8.390 L 10.980 5.700 10.872 5.516 C 10.628 5.101,10.150 4.915,9.695 5.057 " stroke="none" fill-rule="evenodd" fill="black"></path></svg>