<svg xmlns="http://www.w3.org/2000/svg" width="24" height="24" viewBox="0 0 24 24" version="1.1">
	<path d="M 10.446 5.087 C 9.416 6.755, 11.733 8.667, 13.113 7.287 C 14.267 6.133, 13.545 4, 12 4 C 11.515 4, 10.816 4.489, 10.446 5.087 M 5.446 8.087 C 4.416 9.755, 6.733 11.667, 8.113 10.287 C 9.267 9.133, 8.545 7, 7 7 C 6.515 7, 5.816 7.489, 5.446 8.087 M 15.446 8.087 C 14.416 9.755, 16.733 11.667, 18.113 10.287 C 19.267 9.133, 18.545 7, 17 7 C 16.515 7, 15.816 7.489, 15.446 8.087 M 9.389 10.430 C 8.393 13.025, 9.788 15.169, 12.246 14.820 C 15.450 14.365, 15.450 9.635, 12.246 9.180 C 10.893 8.988, 9.750 9.488, 9.389 10.430 M 11 12 C 11 12.550, 11.450 13, 12 13 C 12.550 13, 13 12.550, 13 12 C 13 11.450, 12.550 11, 12 11 C 11.450 11, 11 11.450, 11 12 M 5.446 14.087 C 4.416 15.755, 6.733 17.667, 8.113 16.287 C 9.267 15.133, 8.545 13, 7 13 C 6.515 13, 5.816 13.489, 5.446 14.087 M 15.446 14.087 C 14.416 15.755, 16.733 17.667, 18.113 16.287 C 19.267 15.133, 18.545 13, 17 13 C 16.515 13, 15.816 13.489, 15.446 14.087 M 10.446 17.087 C 9.416 18.755, 11.733 20.667, 13.113 19.287 C 14.267 18.133, 13.545 16, 12 16 C 11.515 16, 10.816 16.489, 10.446 17.087" stroke="none" fill="black" fill-rule="evenodd"/>
</svg>