<svg viewBox="0 0 24 24" xmlns="http://www.w3.org/2000/svg" fill="none" stroke="#000000" stroke-width="2" stroke-linecap="round" stroke-linejoin="round"><path d="M5.695 2.057 C 5.043 2.261,4.793 3.061,5.211 3.604 C 5.327 3.756,5.565 3.914,5.780 3.983 C 5.845 4.003,5.829 4.018,5.695 4.059 C 5.053 4.254,4.799 5.039,5.198 5.591 C 5.263 5.681,5.403 5.805,5.508 5.867 L 5.700 5.980 7.620 6.002 C 9.519 6.024,9.543 6.026,9.861 6.123 C 10.037 6.178,10.298 6.288,10.441 6.368 C 10.697 6.512,11.110 6.838,11.172 6.945 C 11.199 6.991,10.793 7.000,8.548 7.000 C 5.667 7.000,5.673 7.000,5.382 7.221 C 5.302 7.282,5.187 7.415,5.128 7.516 C 5.037 7.672,5.020 7.746,5.020 8.000 C 5.020 8.256,5.036 8.328,5.131 8.489 C 5.256 8.702,5.449 8.864,5.670 8.943 C 5.790 8.986,6.434 8.997,8.915 8.998 L 12.010 9.000 11.982 9.286 C 11.863 10.495,11.046 11.495,9.860 11.884 C 9.588 11.973,9.523 11.976,7.660 11.999 C 6.273 12.015,5.709 12.035,5.627 12.071 C 5.430 12.157,5.239 12.327,5.128 12.516 C 5.037 12.672,5.020 12.746,5.020 13.000 C 5.020 13.256,5.036 13.328,5.131 13.489 C 5.350 13.862,5.631 13.996,6.200 13.998 L 6.580 14.000 10.960 18.383 C 13.477 20.901,15.417 22.811,15.520 22.873 C 15.673 22.964,15.746 22.980,16.000 22.980 C 16.257 22.980,16.327 22.964,16.492 22.867 C 16.968 22.587,17.139 21.967,16.865 21.508 C 16.810 21.416,15.118 19.694,13.105 17.682 C 11.092 15.671,9.454 14.010,9.465 13.992 C 9.476 13.975,9.529 13.960,9.584 13.960 C 9.946 13.960,10.729 13.718,11.286 13.433 C 12.829 12.646,13.865 11.074,13.988 9.330 L 14.012 9.000 16.096 8.998 C 17.732 8.997,18.212 8.985,18.330 8.943 C 18.551 8.864,18.744 8.702,18.869 8.489 C 18.964 8.328,18.980 8.256,18.980 8.000 C 18.980 7.746,18.963 7.672,18.872 7.516 C 18.813 7.415,18.698 7.282,18.618 7.221 C 18.331 7.003,18.300 7.000,15.844 7.000 L 13.580 7.000 13.409 6.664 C 12.689 5.256,11.188 4.223,9.600 4.044 C 9.419 4.024,11.068 4.008,13.740 4.003 C 17.334 3.998,18.209 3.986,18.330 3.943 C 18.551 3.864,18.744 3.702,18.869 3.489 C 18.964 3.328,18.980 3.256,18.980 3.000 C 18.980 2.746,18.963 2.672,18.872 2.516 C 18.740 2.293,18.533 2.128,18.290 2.055 C 18.028 1.976,5.947 1.978,5.695 2.057 " stroke="none" fill-rule="evenodd" fill="black"></path></svg>