<svg xmlns="http://www.w3.org/2000/svg" width="24" height="24" viewBox="0 0 24 24" version="1.1">
	<path d="M 2.440 3.296 C 2.151 4.050, 2.046 8.455, 2.207 13.084 L 2.500 21.500 12 21.500 L 21.500 21.500 21.500 12 L 21.500 2.500 12.233 2.212 C 5.103 1.991, 2.845 2.241, 2.440 3.296 M 4 12 L 4 20 7.122 20 C 10.178 20, 10.209 19.952, 8.608 17.750 C 5.707 13.761, 5.616 12.721, 7.827 8.880 C 10.594 4.071, 10.582 4, 7 4 L 4 4 4 12 M 14.007 4.750 C 14.010 5.162, 14.907 6.850, 16 8.500 C 18.506 12.283, 18.496 13.495, 15.932 17.096 L 13.864 20 16.932 20 L 20 20 20 12 L 20 4 17 4 C 15.350 4, 14.003 4.338, 14.007 4.750 M 10.035 8.934 C 8.637 11.547, 8.600 11.500, 12 11.500 C 13.650 11.500, 15 11.358, 15 11.184 C 15 10.107, 12.772 7, 12 7 C 11.489 7, 10.605 7.870, 10.035 8.934 M 10.737 16.757 C 11.290 18.198, 13.176 17.972, 13.699 16.402 C 13.878 15.867, 13.170 15.429, 12.126 15.429 C 10.958 15.429, 10.423 15.940, 10.737 16.757" stroke="none" fill="black" fill-rule="evenodd"/>
</svg>