<svg xmlns="http://www.w3.org/2000/svg" width="24" height="24" viewBox="0 0 24 24" version="1.1">
	<path d="M 11.633 5 C 10.185 5, 9 5.450, 9 6 C 9 6.550, 9.450 7, 10 7 C 10.550 7, 11 7.675, 11 8.500 C 11 9.325, 11.412 10, 11.917 10 C 12.421 10, 13 9.501, 13.203 8.890 C 13.432 8.204, 14.099 8.414, 14.951 9.441 C 16.155 10.892, 16.056 11.173, 14.164 11.667 C 12.974 11.979, 12 12.583, 12 13.010 C 12 13.437, 12.675 14.045, 13.500 14.362 C 14.325 14.678, 15 15.401, 15 15.969 C 15 16.536, 13.650 17, 12 17 C 10.350 17, 9 17.450, 9 18 C 9 18.550, 9.450 19, 10 19 C 10.550 19, 11 19.900, 11 21 C 11 22.100, 11.450 23, 12 23 C 12.550 23, 13 22.510, 13 21.910 C 13 21.311, 13.853 20.073, 14.895 19.160 C 15.938 18.247, 17.058 15.651, 17.385 13.391 C 17.842 10.224, 17.553 8.790, 16.122 7.141 C 15.101 5.963, 13.081 5, 11.633 5" stroke="none" fill="black" fill-rule="evenodd"/>
</svg>