<svg xmlns="http://www.w3.org/2000/svg" width="24" height="24" viewBox="0 0 24 24" version="1.1">
	<path d="M 11.783 1.047 C 11.627 1.072, 9.363 2.206, 6.750 3.566 C 4.138 4.926, 2 6.328, 2 6.681 C 2 7.035, 4.068 10.851, 6.595 15.162 C 9.122 19.473, 11.555 23, 12 23 C 12.445 23, 14.878 19.473, 17.405 15.162 C 19.932 10.851, 22 7.034, 22 6.679 C 22 6.324, 19.765 4.901, 17.033 3.517 C 14.302 2.133, 11.939 1.021, 11.783 1.047 M 11.703 4.068 C 11.041 4.105, 9.488 4.624, 8.250 5.220 C 7.012 5.817, 6 6.632, 6 7.031 C 6 7.431, 7.350 8.317, 9 9 C 11.391 9.990, 12.609 9.990, 15 9 C 16.650 8.317, 18 7.434, 18 7.039 C 18 6.644, 16.854 5.799, 15.453 5.161 C 14.052 4.522, 12.365 4.030, 11.703 4.068 M 7.852 11 C 7.355 11, 7.725 12.462, 8.674 14.250 C 10.032 16.809, 10.481 17.118, 10.782 15.702 C 10.993 14.713, 10.623 13.251, 9.960 12.452 C 9.297 11.653, 8.349 11, 7.852 11 M 16.148 11 C 15.651 11, 14.703 11.653, 14.040 12.452 C 13.377 13.251, 13.007 14.713, 13.218 15.702 C 13.519 17.118, 13.968 16.809, 15.326 14.250 C 16.275 12.462, 16.645 11, 16.148 11" stroke="none" fill="black" fill-rule="evenodd"/>
</svg>