<svg viewBox="0 0 24 24" xmlns="http://www.w3.org/2000/svg" fill="none" stroke="#000000" stroke-width="2" stroke-linecap="round" stroke-linejoin="round"><path d="M11.773 1.036 C 11.599 1.081,11.805 0.969,6.952 3.664 C 4.561 4.993,2.589 6.080,2.569 6.080 C 2.481 6.080,2.180 6.396,2.095 6.578 C 1.991 6.802,1.972 7.134,2.053 7.340 C 2.127 7.529,11.158 22.566,11.276 22.695 C 11.634 23.090,12.369 23.090,12.723 22.695 C 12.804 22.604,21.595 7.993,21.899 7.444 C 22.020 7.225,22.029 6.861,21.919 6.606 C 21.836 6.414,21.527 6.080,21.432 6.080 C 21.412 6.080,19.431 4.988,17.030 3.654 C 14.629 2.320,12.582 1.188,12.482 1.137 C 12.275 1.033,11.962 0.989,11.773 1.036 M15.476 5.075 L 18.924 6.991 18.792 7.071 C 18.719 7.114,17.162 7.982,15.330 8.998 L 12.000 10.847 8.670 8.998 C 6.839 7.982,5.281 7.114,5.208 7.071 L 5.076 6.991 8.508 5.079 C 10.396 4.028,11.960 3.166,11.984 3.164 C 12.008 3.162,13.580 4.022,15.476 5.075 M8.580 11.251 L 10.980 12.587 10.990 15.480 C 10.996 17.072,10.993 18.366,10.984 18.357 C 10.975 18.348,9.812 16.414,8.400 14.060 C 6.988 11.706,5.823 9.765,5.812 9.747 C 5.781 9.697,6.012 9.822,8.580 11.251 M15.641 13.978 C 14.236 16.320,13.067 18.268,13.044 18.308 C 13.015 18.359,13.005 17.528,13.011 15.483 L 13.020 12.587 15.600 11.153 C 17.019 10.365,18.184 9.720,18.188 9.720 C 18.193 9.720,17.047 11.636,15.641 13.978 " stroke="none" fill-rule="evenodd" fill="black"></path></svg>