<svg xmlns="http://www.w3.org/2000/svg" width="24" height="24" viewBox="0 0 24 24" version="1.1">
	<path d="M 6.750 3.566 C 4.138 4.926, 2 6.328, 2 6.681 C 2 7.966, 11.212 23, 12 23 C 12.788 23, 22 7.966, 22 6.679 C 22 6.122, 12.561 0.919, 11.783 1.047 C 11.627 1.072, 9.363 2.206, 6.750 3.566 M 8.250 5.220 C 5.246 6.669, 5.413 7.514, 9 9 C 11.391 9.990, 12.609 9.990, 15 9 C 18.665 7.482, 18.761 6.668, 15.453 5.161 C 12.413 3.775, 11.226 3.785, 8.250 5.220 M 8.674 14.250 C 10.032 16.809, 10.481 17.118, 10.782 15.702 C 11.181 13.830, 9.418 11, 7.852 11 C 7.355 11, 7.725 12.462, 8.674 14.250 M 14.040 12.452 C 13.377 13.251, 13.007 14.713, 13.218 15.702 C 13.519 17.118, 13.968 16.809, 15.326 14.250 C 17.076 10.954, 16.246 9.794, 14.040 12.452" stroke="none" fill="#000000" fill-rule="evenodd"/>
</svg>