<svg xmlns="http://www.w3.org/2000/svg" width="24" height="24" viewBox="0 0 24 24" version="1.1">
	<path d="M 13.166 1.266 C 9.740 1.055, 6.512 1.439, 5 2.238 C 2.635 3.488, 2.500 4.014, 2.500 12.016 C 2.500 20.423, 2.518 20.482, 5.500 21.926 C 7.150 22.726, 10.189 23.318, 12.254 23.243 C 14.318 23.167, 17.243 22.515, 18.754 21.792 C 21.373 20.540, 21.513 20.104, 21.788 12.394 C 22.019 5.910, 21.754 4.041, 20.454 2.962 C 19.562 2.221, 16.282 1.458, 13.166 1.266 M 11.500 3.130 C 9.850 3.186, 7.713 3.438, 6.750 3.689 C 5.787 3.941, 5 4.543, 5 5.028 C 5 5.513, 6.575 6.205, 8.500 6.566 C 10.425 6.927, 13.575 6.927, 15.500 6.566 C 17.425 6.205, 19 5.532, 19 5.071 C 19 4.610, 17.988 3.962, 16.750 3.630 C 15.512 3.299, 13.150 3.073, 11.500 3.130 M 12 8.500 C 4.497 8.500, 3.947 8.641, 4.213 10.500 C 4.412 11.883, 5.656 12.786, 8.250 13.426 C 10.551 13.995, 13.449 13.995, 15.750 13.426 C 18.344 12.786, 19.588 11.883, 19.787 10.500 C 20.053 8.641, 19.503 8.500, 12 8.500 M 12 15.500 C 4.546 15.500, 3.948 15.651, 4.213 17.463 C 4.410 18.811, 5.596 19.649, 8 20.139 C 10.458 20.640, 11.970 20.428, 13.079 19.426 C 13.947 18.642, 15.008 18, 15.436 18 C 15.864 18, 15.964 18.652, 15.658 19.449 C 15.226 20.575, 15.592 20.718, 17.301 20.090 C 18.510 19.646, 19.629 18.431, 19.787 17.391 C 20.048 15.669, 19.353 15.500, 12 15.500" stroke="none" fill="black" fill-rule="evenodd"/>
</svg>