<svg xmlns="http://www.w3.org/2000/svg" width="24" height="24" viewBox="0 0 24 24" version="1.1">
	<path d="M 13.166 1.266 C 9.747 1.055, 6.508 1.439, 5 2.235 C 2.692 3.452, 2.478 4.172, 2.212 11.622 C 1.977 18.219, 2.233 19.948, 3.616 21.096 C 4.696 21.993, 7.724 22.500, 12 22.500 C 16.203 22.500, 19.308 21.989, 20.346 21.128 C 21.624 20.067, 22 17.994, 22 12 C 22 6.143, 21.612 3.923, 20.416 2.930 C 19.545 2.207, 16.282 1.458, 13.166 1.266 M 11.500 3.130 C 9.850 3.186, 7.713 3.438, 6.750 3.689 C 5.787 3.941, 5 4.543, 5 5.028 C 5 5.513, 6.575 6.205, 8.500 6.566 C 10.425 6.927, 13.575 6.927, 15.500 6.566 C 17.425 6.205, 19 5.532, 19 5.071 C 19 4.610, 17.988 3.962, 16.750 3.630 C 15.512 3.299, 13.150 3.073, 11.500 3.130 M 12 8.500 C 4.497 8.500, 3.947 8.641, 4.213 10.500 C 4.412 11.883, 5.656 12.786, 8.250 13.426 C 10.551 13.995, 13.449 13.995, 15.750 13.426 C 18.344 12.786, 19.588 11.883, 19.787 10.500 C 20.053 8.641, 19.503 8.500, 12 8.500 M 7.750 15.599 C 4.402 14.983, 4 15.131, 4 16.979 C 4 18.303, 4.964 19.416, 6.671 20.065 C 8.140 20.624, 10.016 20.950, 10.838 20.790 C 11.661 20.631, 12.477 20.050, 12.651 19.500 C 12.825 18.950, 12.637 18.002, 12.234 17.394 C 11.830 16.786, 9.813 15.978, 7.750 15.599 M 18.820 15.001 C 18.094 15.001, 17.434 16.148, 17.353 17.550 C 17.265 19.069, 17.669 19.946, 18.353 19.721 C 18.984 19.513, 19.644 18.366, 19.820 17.172 C 20.010 15.878, 19.605 15, 18.820 15.001" stroke="none" fill="black" fill-rule="evenodd"/>
</svg>