<svg xmlns="http://www.w3.org/2000/svg" width="24" height="24" viewBox="0 0 24 24" version="1.1">
	<path d="M 5 2.238 C 2.635 3.488, 2.500 4.014, 2.500 12.016 C 2.500 20.423, 2.518 20.482, 5.500 21.926 C 9.086 23.664, 14.965 23.604, 18.754 21.792 C 21.373 20.540, 21.513 20.104, 21.788 12.394 C 22.019 5.910, 21.754 4.041, 20.454 2.962 C 18.185 1.078, 8.088 0.605, 5 2.238 M 6.750 3.689 C 3.887 4.438, 4.754 5.863, 8.500 6.566 C 12.412 7.300, 19 6.362, 19 5.071 C 19 3.363, 11.316 2.496, 6.750 3.689 M 4.213 10.500 C 4.854 14.968, 19.146 14.968, 19.787 10.500 C 20.053 8.641, 19.503 8.500, 12 8.500 C 4.497 8.500, 3.947 8.641, 4.213 10.500 M 4.213 17.463 C 4.598 20.098, 10.812 21.474, 13.079 19.426 C 15.113 17.589, 16.368 17.600, 15.658 19.449 C 15.226 20.575, 15.592 20.718, 17.301 20.090 C 18.510 19.646, 19.629 18.431, 19.787 17.391 C 20.048 15.669, 19.353 15.500, 12 15.500 C 4.546 15.500, 3.948 15.651, 4.213 17.463" stroke="none" fill="black" fill-rule="evenodd"/>
</svg>