<svg xmlns="http://www.w3.org/2000/svg" width="24" height="24" viewBox="0 0 24 24" version="1.1">
	<path d="M 5 2.235 C 2.692 3.452, 2.478 4.172, 2.212 11.622 C 1.853 21.688, 2.583 22.500, 12 22.500 C 21.212 22.500, 22 21.673, 22 12 C 22 6.143, 21.612 3.923, 20.416 2.930 C 18.180 1.075, 8.065 0.618, 5 2.235 M 6.750 3.689 C 3.887 4.438, 4.754 5.863, 8.500 6.566 C 12.412 7.300, 19 6.362, 19 5.071 C 19 3.363, 11.316 2.496, 6.750 3.689 M 4.213 10.500 C 4.854 14.968, 19.146 14.968, 19.787 10.500 C 20.053 8.641, 19.503 8.500, 12 8.500 C 4.497 8.500, 3.947 8.641, 4.213 10.500 M 4 16.979 C 4 20.179, 11.724 22.429, 12.651 19.500 C 13.236 17.653, 11.527 16.293, 7.750 15.599 C 4.402 14.983, 4 15.131, 4 16.979 M 17.353 17.550 C 17.265 19.069, 17.669 19.946, 18.353 19.721 C 20.011 19.175, 20.424 15, 18.820 15.001 C 18.094 15.001, 17.434 16.148, 17.353 17.550" stroke="none" fill="#000000" fill-rule="evenodd"/>
</svg>