<svg xmlns="http://www.w3.org/2000/svg" width="24" height="24" viewBox="0 0 24 24" version="1.1">
	<path d="M 3.585 7.462 L -0.134 12 3.585 16.538 L 7.303 21.076 15.402 20.788 L 23.500 20.500 24.065 15.580 C 24.376 12.873, 24.369 9.048, 24.051 7.080 L 23.471 3.500 15.387 3.212 L 7.303 2.924 3.585 7.462 M 5.568 8.500 L 2.898 12 5.568 15.500 C 8.163 18.902, 8.429 19, 15.119 19 L 22 19 22 12 L 22 5 15.119 5 C 8.429 5, 8.163 5.098, 5.568 8.500 M 11 8.800 C 11 9.240, 11.521 10.121, 12.158 10.758 C 13.034 11.634, 13 12.295, 12.015 13.482 C 10.346 15.493, 11.474 16.681, 13.476 15.020 C 14.705 14, 15.295 14, 16.524 15.020 C 18.503 16.663, 19.663 15.503, 18.020 13.524 C 17 12.295, 17 11.705, 18.020 10.476 C 19.681 8.474, 18.493 7.346, 16.482 9.015 C 15.295 10, 14.634 10.034, 13.758 9.158 C 12.421 7.821, 11 7.636, 11 8.800" stroke="none" fill="#000000" fill-rule="evenodd"/>
</svg>