<svg xmlns="http://www.w3.org/2000/svg" width="24" height="24" viewBox="0 0 24 24" version="1.1">
	<path d="M 15.387 3.212 L 7.303 2.924 3.585 7.462 L -0.134 12 3.585 16.538 L 7.303 21.076 15.402 20.788 L 23.500 20.500 24.065 15.580 C 24.376 12.873, 24.369 9.048, 24.051 7.080 L 23.471 3.500 15.387 3.212 M 15.119 5 C 8.429 5, 8.163 5.098, 5.568 8.500 L 2.898 12 5.568 15.500 C 8.163 18.902, 8.429 19, 15.119 19 L 22 19 22 12 L 22 5 15.119 5 M 11.800 8 C 11.360 8, 11 8.360, 11 8.800 C 11 9.240, 11.521 10.121, 12.158 10.758 C 13.034 11.634, 13 12.295, 12.015 13.482 C 11.300 14.343, 10.993 15.327, 11.333 15.667 C 11.673 16.007, 12.638 15.716, 13.476 15.020 C 14.705 14, 15.295 14, 16.524 15.020 C 17.362 15.716, 18.327 16.007, 18.667 15.667 C 19.007 15.327, 18.716 14.362, 18.020 13.524 C 17 12.295, 17 11.705, 18.020 10.476 C 18.716 9.638, 19.007 8.673, 18.667 8.333 C 18.327 7.993, 17.343 8.300, 16.482 9.015 C 15.295 10, 14.634 10.034, 13.758 9.158 C 13.121 8.521, 12.240 8, 11.800 8" stroke="none" fill="black" fill-rule="evenodd"/>
</svg>