<svg xmlns="http://www.w3.org/2000/svg" width="24" height="24" viewBox="0 0 24 24" version="1.1">
	<path d="M 12 1 C 11.584 1, 9.334 3.475, 7 6.500 L 2.757 12 7 17.500 C 9.334 20.525, 11.584 23, 12 23 C 12.416 23, 14.666 20.525, 17 17.500 L 21.243 12 17 6.500 C 14.666 3.475, 12.416 1, 12 1 M 12 4.073 C 11.725 4.073, 10.249 5.721, 8.720 7.736 C 7.191 9.751, 6.181 12.030, 6.477 12.800 C 6.773 13.571, 8.024 15.481, 9.257 17.045 C 10.491 18.609, 11.725 19.889, 12 19.889 C 12.275 19.889, 13.509 18.609, 14.743 17.045 C 15.976 15.481, 17.227 13.571, 17.523 12.800 C 17.819 12.030, 16.809 9.751, 15.280 7.736 C 13.751 5.721, 12.275 4.073, 12 4.073" stroke="none" fill="black" fill-rule="evenodd"/>
</svg>