<svg viewBox="0 0 24 24" xmlns="http://www.w3.org/2000/svg" fill="none" stroke="#000000" stroke-width="2" stroke-linecap="round" stroke-linejoin="round"><path d="M11.700 1.053 C 11.612 1.082,11.497 1.132,11.444 1.163 C 11.344 1.223,3.252 11.307,3.105 11.556 C 2.984 11.761,2.984 12.239,3.105 12.444 C 3.152 12.524,5.026 14.882,7.268 17.684 C 10.625 21.878,11.377 22.798,11.523 22.880 C 11.668 22.962,11.754 22.980,12.000 22.980 C 12.246 22.980,12.332 22.962,12.477 22.880 C 12.623 22.798,13.375 21.878,16.732 17.684 C 18.974 14.882,20.848 12.524,20.895 12.444 C 21.016 12.239,21.016 11.761,20.895 11.556 C 20.848 11.476,18.974 9.118,16.732 6.316 C 13.430 2.190,12.622 1.202,12.484 1.126 C 12.279 1.012,11.925 0.979,11.700 1.053 M15.376 7.820 L 18.720 12.000 15.376 16.180 C 13.537 18.479,12.018 20.360,12.000 20.360 C 11.982 20.360,10.463 18.479,8.624 16.180 L 5.280 12.000 8.624 7.820 C 10.463 5.521,11.982 3.640,12.000 3.640 C 12.018 3.640,13.537 5.521,15.376 7.820 " stroke="none" fill="black" fill-rule="evenodd"></path></svg>