<svg xmlns="http://www.w3.org/2000/svg" width="24" height="24" viewBox="0 0 24 24" version="1.1">
	<path d="M 12 3 C 9.800 3, 8 3.360, 8 3.800 C 8 4.240, 8.456 5.056, 9.013 5.613 C 9.698 6.298, 9.211 7.393, 7.513 8.988 C 6.055 10.358, 5 12.461, 5 14 C 5 15.478, 6.024 17.613, 7.314 18.826 C 8.587 20.022, 10.759 21, 12.140 21 C 13.521 21, 15.630 19.958, 16.826 18.686 C 18.022 17.413, 19 15.241, 19 13.860 C 19 12.471, 17.877 10.294, 16.487 8.988 C 14.789 7.393, 14.302 6.298, 14.987 5.613 C 15.544 5.056, 16 4.240, 16 3.800 C 16 3.360, 14.200 3, 12 3 M 11.826 9 C 10.992 9, 9.565 9.823, 8.655 10.829 C 7.745 11.835, 7 13.340, 7 14.174 C 7 15.008, 7.823 16.435, 8.829 17.345 C 9.835 18.255, 11.340 19, 12.174 19 C 13.008 19, 14.435 18.177, 15.345 17.171 C 16.255 16.165, 17 14.660, 17 13.826 C 17 12.992, 16.177 11.565, 15.171 10.655 C 14.165 9.745, 12.660 9, 11.826 9" stroke="none" fill="black" fill-rule="evenodd"/>
</svg>