<svg xmlns="http://www.w3.org/2000/svg" width="24" height="24" viewBox="0 0 24 24" version="1.1">
	<path d="M 7 6.500 L 2.757 12 7 17.500 C 9.334 20.525, 11.584 23, 12 23 C 12.416 23, 14.666 20.525, 17 17.500 L 21.243 12 17 6.500 C 14.666 3.475, 12.416 1, 12 1 C 11.584 1, 9.334 3.475, 7 6.500 M 8.720 7.736 C 7.191 9.751, 6.181 12.030, 6.477 12.800 C 7.141 14.530, 11.316 19.889, 12 19.889 C 12.684 19.889, 16.859 14.530, 17.523 12.800 C 18.001 11.556, 13.265 4.073, 12 4.073 C 11.725 4.073, 10.249 5.721, 8.720 7.736" stroke="none" fill="black" fill-rule="evenodd"/>
</svg>