<svg xmlns="http://www.w3.org/2000/svg" width="24" height="24" viewBox="0 0 24 24" version="1.1">
	<path d="M 8 3.800 C 8 4.240, 8.456 5.056, 9.013 5.613 C 9.698 6.298, 9.211 7.393, 7.513 8.988 C 4.347 11.962, 4.266 15.962, 7.314 18.826 C 10.317 21.646, 14.096 21.591, 16.826 18.686 C 19.709 15.617, 19.578 11.892, 16.487 8.988 C 14.789 7.393, 14.302 6.298, 14.987 5.613 C 16.863 3.737, 16.021 3, 12 3 C 9.800 3, 8 3.360, 8 3.800 M 8.655 10.829 C 6.504 13.206, 6.560 15.291, 8.829 17.345 C 11.206 19.496, 13.291 19.440, 15.345 17.171 C 17.496 14.794, 17.440 12.709, 15.171 10.655 C 12.794 8.504, 10.709 8.560, 8.655 10.829" stroke="none" fill="black" fill-rule="evenodd"/>
</svg>