<svg xmlns="http://www.w3.org/2000/svg" width="24" height="24" viewBox="0 0 24 24" version="1.1">
	<path d="M 5 3 C 5 3.561, 7.777 4, 11.331 4 C 17.087 4, 17.785 4.231, 19.022 6.540 C 20.283 8.897, 20.152 9.310, 17.205 12.257 L 14.028 15.433 10.222 11.717 C 7.726 9.280, 5.483 8, 3.708 8 C 2.219 8, 1 8.354, 1 8.788 C 1 9.221, 3.259 11.801, 6.021 14.521 C 9.630 18.075, 11.898 19.509, 14.084 19.619 C 16.461 19.739, 16.996 19.432, 16.529 18.214 C 16.151 17.230, 17.281 15.272, 19.594 12.904 L 23.257 9.152 21.047 5.576 C 18.857 2.032, 18.775 2, 11.918 2 C 7.973 2, 5 2.430, 5 3 M 8 13.500 C 9.866 15.425, 11.617 17, 11.892 17 C 12.167 17, 10.866 15.425, 9 13.500 C 7.134 11.575, 5.383 10, 5.108 10 C 4.833 10, 6.134 11.575, 8 13.500" stroke="none" fill="#000000" fill-rule="evenodd"/>
</svg>