<svg xmlns="http://www.w3.org/2000/svg" width="24" height="24" viewBox="0 0 24 24" version="1.1">
	<path d="M 3.437 4.303 C 3.145 5.064, 3.040 9.020, 3.203 13.094 L 3.500 20.500 12 20.500 L 20.500 20.500 20.500 12 L 20.500 3.500 12.234 3.209 C 5.913 2.987, 3.843 3.244, 3.437 4.303 M 5 12 L 5 19 12 19 L 19 19 19 12 L 19 5 12 5 L 5 5 5 12 M 6.364 7.493 C 6.018 8.396, 6.214 9.614, 6.800 10.200 C 8.324 11.724, 11.210 10.331, 10.812 8.265 C 10.369 5.963, 7.165 5.407, 6.364 7.493 M 13.364 7.493 C 13.018 8.396, 13.214 9.614, 13.800 10.200 C 15.324 11.724, 18.210 10.331, 17.812 8.265 C 17.369 5.963, 14.165 5.407, 13.364 7.493 M 6.364 14.493 C 6.018 15.396, 6.214 16.614, 6.800 17.200 C 8.324 18.724, 11.210 17.331, 10.812 15.265 C 10.369 12.963, 7.165 12.407, 6.364 14.493 M 13.364 14.493 C 13.018 15.396, 13.214 16.614, 13.800 17.200 C 15.324 18.724, 18.210 17.331, 17.812 15.265 C 17.369 12.963, 14.165 12.407, 13.364 14.493" stroke="none" fill="#000000" fill-rule="evenodd"/>
</svg>