<svg xmlns="http://www.w3.org/2000/svg" width="24" height="24" viewBox="0 0 24 24" version="1.1">
	<path d="M 12.234 3.209 C 5.913 2.987, 3.843 3.244, 3.437 4.303 C 3.145 5.064, 3.040 9.020, 3.203 13.094 L 3.500 20.500 12 20.500 L 20.500 20.500 20.500 12 L 20.500 3.500 12.234 3.209 M 12 5 L 5 5 5 12 L 5 19 12 19 L 19 19 19 12 L 19 5 12 5 M 8.419 6 C 7.604 6, 6.653 6.740, 6.306 7.645 C 5.917 8.659, 6.408 9.831, 7.588 10.702 C 9.388 12.033, 9.398 12.173, 7.750 13.107 C 6.788 13.653, 6 14.766, 6 15.581 C 6 16.396, 6.740 17.347, 7.645 17.694 C 8.659 18.083, 9.831 17.592, 10.702 16.412 C 12.033 14.612, 12.173 14.602, 13.107 16.250 C 13.653 17.212, 14.766 18, 15.581 18 C 16.396 18, 17.347 17.260, 17.694 16.355 C 18.080 15.348, 17.606 14.185, 16.471 13.355 C 14.667 12.036, 14.667 11.964, 16.471 10.645 C 17.606 9.815, 18.080 8.652, 17.694 7.645 C 17.347 6.740, 16.396 6, 15.581 6 C 14.766 6, 13.627 6.787, 13.050 7.750 C 12.050 9.417, 11.950 9.417, 10.950 7.750 C 10.373 6.787, 9.234 6, 8.419 6" stroke="none" fill="black" fill-rule="evenodd"/>
</svg>