<svg viewBox="0 0 24 24" xmlns="http://www.w3.org/2000/svg" fill="none" stroke="#000000" stroke-width="2" stroke-linecap="round" stroke-linejoin="round"><path d="M5.499 3.043 C 4.380 3.233,3.461 4.048,3.114 5.160 L 3.020 5.460 3.020 12.000 L 3.020 18.540 3.114 18.840 C 3.422 19.827,4.173 20.578,5.160 20.886 L 5.460 20.980 12.000 20.980 L 18.540 20.980 18.840 20.886 C 19.827 20.578,20.578 19.827,20.886 18.840 L 20.980 18.540 20.980 12.000 L 20.980 5.460 20.886 5.160 C 20.581 4.182,19.832 3.428,18.861 3.121 L 18.540 3.020 12.120 3.014 C 8.589 3.011,5.609 3.024,5.499 3.043 M18.310 5.061 C 18.589 5.144,18.856 5.411,18.939 5.690 C 18.992 5.869,19.000 6.651,19.000 12.001 C 19.000 17.059,18.991 18.139,18.945 18.290 C 18.872 18.533,18.707 18.740,18.484 18.872 L 18.300 18.980 12.000 18.980 L 5.700 18.980 5.516 18.872 C 5.303 18.747,5.141 18.550,5.058 18.316 C 4.968 18.060,4.971 5.993,5.061 5.690 C 5.140 5.421,5.412 5.143,5.673 5.063 C 5.963 4.974,18.010 4.972,18.310 5.061 M7.960 6.062 C 7.605 6.138,7.107 6.393,6.832 6.639 C 6.532 6.907,6.239 7.352,6.118 7.722 C 6.034 7.976,6.020 8.094,6.022 8.520 C 6.024 8.959,6.038 9.056,6.133 9.320 C 6.391 10.036,6.960 10.605,7.680 10.867 C 7.949 10.965,8.034 10.976,8.500 10.976 C 8.965 10.976,9.052 10.965,9.320 10.868 C 10.037 10.608,10.605 10.040,10.867 9.320 C 10.965 9.051,10.976 8.966,10.976 8.500 C 10.976 8.035,10.965 7.948,10.868 7.680 C 10.437 6.490,9.192 5.798,7.960 6.062 M14.960 6.062 C 14.605 6.138,14.107 6.393,13.832 6.639 C 13.532 6.907,13.239 7.352,13.118 7.722 C 13.034 7.976,13.020 8.094,13.022 8.520 C 13.024 8.959,13.038 9.056,13.133 9.320 C 13.391 10.036,13.960 10.605,14.680 10.867 C 14.949 10.965,15.034 10.976,15.500 10.976 C 15.965 10.976,16.052 10.965,16.320 10.868 C 17.037 10.608,17.605 10.040,17.867 9.320 C 17.965 9.051,17.976 8.966,17.976 8.500 C 17.976 8.035,17.965 7.948,17.868 7.680 C 17.437 6.490,16.192 5.798,14.960 6.062 M8.724 8.062 C 8.977 8.193,9.068 8.508,8.922 8.748 C 8.722 9.076,8.278 9.076,8.078 8.748 C 7.935 8.513,8.009 8.226,8.252 8.078 C 8.406 7.984,8.563 7.979,8.724 8.062 M15.724 8.062 C 15.872 8.139,16.000 8.341,16.000 8.500 C 16.000 8.748,15.748 9.000,15.500 9.000 C 15.256 9.000,15.000 8.748,15.000 8.508 C 15.000 8.257,15.248 8.000,15.492 8.000 C 15.554 8.000,15.658 8.028,15.724 8.062 M7.960 13.062 C 7.605 13.138,7.107 13.393,6.832 13.639 C 6.532 13.907,6.239 14.352,6.118 14.722 C 6.034 14.976,6.020 15.094,6.022 15.520 C 6.024 15.959,6.038 16.056,6.133 16.320 C 6.391 17.036,6.960 17.605,7.680 17.867 C 7.949 17.965,8.034 17.976,8.500 17.976 C 8.965 17.976,9.052 17.965,9.320 17.868 C 10.037 17.608,10.605 17.040,10.867 16.320 C 10.965 16.051,10.976 15.966,10.976 15.500 C 10.976 15.035,10.965 14.948,10.868 14.680 C 10.437 13.490,9.192 12.798,7.960 13.062 M14.960 13.062 C 14.605 13.138,14.107 13.393,13.832 13.639 C 13.532 13.907,13.239 14.352,13.118 14.722 C 13.034 14.976,13.020 15.094,13.022 15.520 C 13.024 15.959,13.038 16.056,13.133 16.320 C 13.391 17.036,13.960 17.605,14.680 17.867 C 14.949 17.965,15.034 17.976,15.500 17.976 C 15.965 17.976,16.052 17.965,16.320 17.868 C 17.037 17.608,17.605 17.040,17.867 16.320 C 17.965 16.051,17.976 15.966,17.976 15.500 C 17.976 15.035,17.965 14.948,17.868 14.680 C 17.437 13.490,16.192 12.798,14.960 13.062 M8.724 15.062 C 8.872 15.139,9.000 15.341,9.000 15.500 C 9.000 15.748,8.748 16.000,8.500 16.000 C 8.256 16.000,8.000 15.748,8.000 15.508 C 8.000 15.257,8.248 15.000,8.492 15.000 C 8.554 15.000,8.658 15.028,8.724 15.062 M15.724 15.062 C 15.872 15.139,16.000 15.341,16.000 15.500 C 16.000 15.748,15.748 16.000,15.500 16.000 C 15.256 16.000,15.000 15.748,15.000 15.508 C 15.000 15.257,15.248 15.000,15.492 15.000 C 15.554 15.000,15.658 15.028,15.724 15.062 " stroke="none" fill="black" fill-rule="evenodd"></path></svg>