<svg xmlns="http://www.w3.org/2000/svg" width="24" height="24" viewBox="0 0 24 24" version="1.1">
	<path d="M 7.500 1.894 C 3.457 3.652, 1.500 6.976, 1.500 12.082 C 1.500 16.074, 2.001 17.456, 4.273 19.727 C 6.557 22.011, 7.919 22.500, 12 22.500 C 19.011 22.500, 22.500 19.011, 22.500 12 C 22.500 7.999, 22 6.546, 19.903 4.448 C 17.099 1.644, 10.974 0.383, 7.500 1.894 M 5.923 5.923 C 3.928 7.918, 3 9.848, 3 12 C 3 16.302, 7.698 21, 12 21 C 14.152 21, 16.082 20.072, 18.077 18.077 C 22.007 14.147, 22.007 9.853, 18.077 5.923 C 14.147 1.993, 9.853 1.993, 5.923 5.923 M 9.040 9.452 C 7.485 11.325, 8.028 13.989, 10.250 15.388 C 13.715 17.570, 17.617 12.653, 14.960 9.452 C 13.416 7.591, 10.584 7.591, 9.040 9.452 M 10.446 11.087 C 9.416 12.755, 11.733 14.667, 13.113 13.287 C 14.267 12.133, 13.545 10, 12 10 C 11.515 10, 10.816 10.489, 10.446 11.087" stroke="none" fill="#000000" fill-rule="evenodd"/>
</svg>