<svg xmlns="http://www.w3.org/2000/svg" width="24" height="24" viewBox="0 0 24 24" version="1.1">
	<path d="M 7 4.640 C 2.710 6.327, 1.543 13.543, 5 17 C 7.283 19.283, 9.071 19.529, 10.800 17.800 C 11.733 16.867, 12.267 16.867, 13.200 17.800 C 17.777 22.377, 23.703 12.079, 19.668 6.560 C 18.299 4.688, 10.055 3.439, 7 4.640 M 6.989 7.808 C 5.210 9.248, 4.892 10.230, 5.421 12.641 C 6.069 15.593, 6.231 15.667, 12 15.667 C 17.769 15.667, 17.931 15.593, 18.579 12.641 C 19.108 10.230, 18.790 9.248, 17.011 7.808 C 15.783 6.813, 13.528 6, 12 6 C 10.472 6, 8.217 6.813, 6.989 7.808 M 6.958 10.550 C 5.897 11.829, 5.954 12.383, 7.286 13.714 C 8.617 15.046, 9.171 15.103, 10.450 14.042 C 11.713 12.993, 12.287 12.993, 13.550 14.042 C 14.831 15.104, 15.390 15.039, 16.764 13.664 C 18.317 12.112, 18.317 11.888, 16.764 10.336 C 15.369 8.940, 14.843 8.885, 13.508 9.994 C 12.302 10.995, 11.634 11.034, 10.758 10.158 C 9.222 8.622, 8.497 8.697, 6.958 10.550" stroke="none" fill="#000000" fill-rule="evenodd"/>
</svg>