<svg viewBox="0 0 24 24" xmlns="http://www.w3.org/2000/svg" fill="none" stroke="#000000" stroke-width="2" stroke-linecap="round" stroke-linejoin="round"><path d="M10.960 4.023 C 10.443 4.058,9.712 4.130,9.352 4.183 C 6.470 4.603,4.609 5.822,3.674 7.900 C 3.311 8.707,3.038 10.530,3.097 11.760 C 3.209 14.102,3.914 16.132,5.082 17.472 C 5.342 17.770,5.410 17.822,5.736 17.978 C 7.028 18.594,8.653 18.800,9.691 18.480 C 10.091 18.356,10.184 18.270,10.632 17.608 L 11.044 17.000 12.000 17.000 L 12.956 17.000 13.368 17.608 C 13.816 18.270,13.909 18.356,14.309 18.480 C 15.347 18.800,16.972 18.594,18.264 17.978 C 18.591 17.822,18.658 17.770,18.917 17.472 C 20.448 15.714,21.203 12.661,20.800 9.856 C 20.721 9.305,20.553 8.504,20.452 8.200 C 20.356 7.907,19.941 7.144,19.706 6.826 C 18.753 5.537,17.348 4.717,15.413 4.319 C 14.431 4.117,13.635 4.041,12.300 4.024 C 11.684 4.015,11.081 4.015,10.960 4.023 M13.160 6.040 C 15.981 6.227,17.554 6.957,18.362 8.454 C 18.914 9.478,19.054 11.686,18.676 13.420 C 18.415 14.620,17.711 16.042,17.288 16.224 C 16.636 16.505,15.693 16.688,15.258 16.618 C 15.106 16.594,15.084 16.569,14.701 15.992 C 14.263 15.331,14.083 15.148,13.784 15.059 C 13.493 14.972,10.507 14.972,10.216 15.059 C 9.917 15.148,9.737 15.331,9.299 15.992 C 8.916 16.569,8.894 16.594,8.742 16.618 C 8.423 16.669,7.616 16.552,7.140 16.386 C 6.605 16.199,6.576 16.179,6.344 15.850 C 5.552 14.727,5.111 13.121,5.115 11.380 C 5.119 10.084,5.298 9.085,5.639 8.452 C 6.349 7.137,7.693 6.402,9.900 6.122 C 10.795 6.008,12.166 5.974,13.160 6.040 M8.380 9.574 C 7.921 9.693,7.429 9.999,7.101 10.369 C 6.891 10.608,6.632 11.115,6.559 11.433 C 6.532 11.550,6.510 11.806,6.510 12.000 C 6.510 12.446,6.568 12.695,6.766 13.112 C 6.989 13.579,7.421 14.011,7.888 14.234 C 8.305 14.432,8.554 14.490,9.000 14.490 C 9.446 14.490,9.695 14.432,10.112 14.234 C 10.579 14.011,11.011 13.579,11.234 13.112 C 11.432 12.695,11.490 12.446,11.490 12.000 C 11.490 11.554,11.432 11.305,11.235 10.890 C 10.973 10.340,10.424 9.853,9.817 9.633 C 9.522 9.526,8.697 9.492,8.380 9.574 M14.380 9.574 C 13.921 9.693,13.429 9.999,13.101 10.369 C 12.891 10.608,12.632 11.115,12.559 11.433 C 12.532 11.550,12.510 11.806,12.510 12.000 C 12.510 12.446,12.568 12.695,12.766 13.112 C 12.989 13.579,13.421 14.011,13.888 14.234 C 14.305 14.432,14.554 14.490,15.000 14.490 C 15.446 14.490,15.695 14.432,16.112 14.234 C 16.579 14.011,17.011 13.579,17.234 13.112 C 17.432 12.695,17.490 12.446,17.490 12.000 C 17.490 11.554,17.432 11.305,17.235 10.890 C 16.973 10.340,16.424 9.853,15.817 9.633 C 15.522 9.526,14.697 9.492,14.380 9.574 M9.344 11.656 C 9.463 11.775,9.480 11.818,9.480 11.993 C 9.480 12.235,9.351 12.417,9.137 12.476 C 8.949 12.528,8.749 12.465,8.623 12.316 C 8.542 12.220,8.520 12.150,8.520 11.993 C 8.520 11.818,8.537 11.775,8.656 11.656 C 8.776 11.536,8.817 11.520,9.000 11.520 C 9.183 11.520,9.224 11.536,9.344 11.656 M15.344 11.656 C 15.463 11.775,15.480 11.818,15.480 11.993 C 15.480 12.235,15.351 12.417,15.137 12.476 C 14.949 12.528,14.749 12.465,14.623 12.316 C 14.542 12.220,14.520 12.150,14.520 11.993 C 14.520 11.818,14.537 11.775,14.656 11.656 C 14.776 11.536,14.817 11.520,15.000 11.520 C 15.183 11.520,15.224 11.536,15.344 11.656 " stroke="none" fill-rule="evenodd" fill="black"></path></svg>