<svg xmlns="http://www.w3.org/2000/svg" width="24" height="24" viewBox="0 0 24 24" version="1.1">
	<path d="M 11.800 2.035 C 10.535 2.055, 8.425 2.667, 7.110 3.396 C 5.796 4.124, 4.124 5.796, 3.396 7.110 C 2.667 8.425, 2.055 10.535, 2.035 11.800 C 2.016 13.064, 2.641 15.339, 3.425 16.855 C 4.209 18.371, 6.030 20.148, 7.472 20.805 C 8.914 21.462, 10.952 22, 12 22 C 13.048 22, 15.086 21.462, 16.528 20.805 C 17.970 20.148, 19.791 18.371, 20.575 16.855 C 21.359 15.339, 22 13.198, 22 12.097 C 22 10.995, 21.462 8.914, 20.805 7.472 C 20.148 6.030, 18.371 4.209, 16.855 3.425 C 15.339 2.641, 13.064 2.016, 11.800 2.035 M 10.750 4.068 C 10.613 4.105, 9.539 4.601, 8.364 5.170 C 7.189 5.738, 5.736 7.283, 5.136 8.602 C 4.096 10.883, 4.213 11, 7.521 11 C 10.830 11, 11 10.829, 11 7.500 C 11 5.575, 10.887 4.030, 10.750 4.068 M 15.390 5.132 C 13.119 4.097, 13 4.217, 13 7.521 C 13 10.826, 13.174 11, 16.479 11 C 19.783 11, 19.903 10.881, 18.868 8.610 C 18.269 7.296, 16.704 5.731, 15.390 5.132 M 7.521 13 C 4.217 13, 4.097 13.119, 5.132 15.390 C 5.731 16.704, 7.296 18.269, 8.610 18.868 C 10.881 19.903, 11 19.783, 11 16.479 C 11 13.174, 10.826 13, 7.521 13 M 16.479 13 C 13.174 13, 13 13.174, 13 16.479 C 13 19.783, 13.119 19.903, 15.390 18.868 C 16.704 18.269, 18.269 16.704, 18.868 15.390 C 19.903 13.119, 19.783 13, 16.479 13" stroke="none" fill="black" fill-rule="evenodd"/>
</svg>