<svg xmlns="http://www.w3.org/2000/svg" width="24" height="24" viewBox="0 0 24 24" version="1.1">
	<path d="M 13.305 1.213 C 5.309 0.964, 3.990 1.159, 3.193 2.713 C 2.689 3.696, 2.008 6.566, 1.679 9.091 C 1.301 12, 1.506 14.106, 2.241 14.841 C 2.878 15.478, 4.660 16, 6.200 16 C 8.455 16, 9 16.448, 9 18.300 C 9 19.565, 9.540 21.140, 10.200 21.800 C 10.860 22.460, 11.895 23, 12.501 23 C 13.106 23, 14.569 21.009, 15.751 18.576 C 17.225 15.541, 18.622 14.050, 20.200 13.826 C 22.308 13.527, 22.500 13, 22.500 7.500 L 22.500 1.500 13.305 1.213 M 10.617 3 C 5.879 3, 5.161 3.270, 4.630 5.250 C 4.299 6.488, 4.021 8.962, 4.014 10.750 C 4.001 13.800, 4.215 14, 7.500 14 C 10.722 14, 11 14.238, 11 17 C 11 18.650, 11.367 20, 11.815 20 C 12.263 20, 13.388 18.410, 14.315 16.466 C 15.242 14.522, 16 10.697, 16 7.966 L 16 3 10.617 3 M 19.500 3 C 18.389 3, 18 4.167, 18 7.500 C 18 10.833, 18.389 12, 19.500 12 C 20.611 12, 21 10.833, 21 7.500 C 21 4.167, 20.611 3, 19.500 3" stroke="none" fill="black" fill-rule="evenodd"/>
</svg>