<svg xmlns="http://www.w3.org/2000/svg" width="24" height="24" viewBox="0 0 24 24" version="1.1">
	<path d="M 13.403 1.438 C 11.256 1.210, 8.600 1.416, 7.500 1.894 C 6.400 2.373, 4.600 3.764, 3.500 4.987 C 2.078 6.568, 1.500 8.618, 1.500 12.082 C 1.500 16.074, 2.001 17.456, 4.273 19.727 C 6.557 22.011, 7.919 22.500, 12 22.500 C 16.081 22.500, 17.443 22.011, 19.727 19.727 C 22.011 17.443, 22.500 16.081, 22.500 12 C 22.500 7.999, 22 6.546, 19.903 4.448 C 18.256 2.802, 15.876 1.699, 13.403 1.438 M 12 3 C 9.848 3, 7.918 3.928, 5.923 5.923 C 3.928 7.918, 3 9.848, 3 12 C 3 14.152, 3.928 16.082, 5.923 18.077 C 7.918 20.072, 9.848 21, 12 21 C 14.152 21, 16.082 20.072, 18.077 18.077 C 20.072 16.082, 21 14.152, 21 12 C 21 9.848, 20.072 7.918, 18.077 5.923 C 16.082 3.928, 14.152 3, 12 3 M 12 6 C 11.515 6, 10.816 6.489, 10.446 7.087 C 10.077 7.685, 10.275 8.675, 10.887 9.287 C 11.704 10.104, 12.296 10.104, 13.113 9.287 C 13.725 8.675, 13.923 7.685, 13.554 7.087 C 13.184 6.489, 12.485 6, 12 6 M 12 11 C 9.250 11, 7 11.450, 7 12 C 7 12.550, 9.250 13, 12 13 C 14.750 13, 17 12.550, 17 12 C 17 11.450, 14.750 11, 12 11 M 12 14 C 11.515 14, 10.816 14.489, 10.446 15.087 C 10.077 15.685, 10.275 16.675, 10.887 17.287 C 11.704 18.104, 12.296 18.104, 13.113 17.287 C 13.725 16.675, 13.923 15.685, 13.554 15.087 C 13.184 14.489, 12.485 14, 12 14" stroke="none" fill="black" fill-rule="evenodd"/>
</svg>