<svg xmlns="http://www.w3.org/2000/svg" width="24" height="24" viewBox="0 0 24 24" version="1.1">
	<path d="M 9.389 4.430 C 8.393 7.025, 9.788 9.169, 12.246 8.820 C 15.450 8.365, 15.450 3.635, 12.246 3.180 C 10.893 2.988, 9.750 3.488, 9.389 4.430 M 11 6 C 11 6.550, 11.450 7, 12 7 C 12.550 7, 13 6.550, 13 6 C 13 5.450, 12.550 5, 12 5 C 11.450 5, 11 5.450, 11 6 M 4 12 C 4 12.583, 7.333 13, 12 13 C 16.667 13, 20 12.583, 20 12 C 20 11.417, 16.667 11, 12 11 C 7.333 11, 4 11.417, 4 12 M 9.389 16.430 C 8.393 19.025, 9.788 21.169, 12.246 20.820 C 13.898 20.585, 14.500 19.833, 14.500 18 C 14.500 16.167, 13.898 15.415, 12.246 15.180 C 10.893 14.988, 9.750 15.488, 9.389 16.430 M 11 18 C 11 18.550, 11.450 19, 12 19 C 12.550 19, 13 18.550, 13 18 C 13 17.450, 12.550 17, 12 17 C 11.450 17, 11 17.450, 11 18" stroke="none" fill="black" fill-rule="evenodd"/>
</svg>