<svg xmlns="http://www.w3.org/2000/svg" width="24" height="24" viewBox="0 0 24 24" version="1.1">
	<path d="M 15.026 1 C 14.490 1, 13.365 2.328, 12.526 3.950 C 11.687 5.573, 11 7.373, 11 7.950 C 11 8.528, 11.367 9, 11.815 9 C 12.263 9, 13.388 7.410, 14.315 5.466 C 15.242 3.522, 16 1.722, 16 1.466 C 16 1.210, 15.562 1, 15.026 1 M 22.250 8.035 C 21.837 8.055, 20.375 8.714, 19 9.500 C 17.625 10.286, 14.348 10.945, 11.718 10.965 C 9.088 10.984, 5.375 11.652, 3.468 12.449 C 1.561 13.246, -0 14.607, -0 15.475 C -0 16.899, 0.286 16.904, 2.950 15.526 C 4.573 14.687, 6.796 14, 7.891 14 C 8.986 14, 10.152 14.437, 10.482 14.971 C 10.812 15.504, 10.355 17.346, 9.467 19.064 C 8.579 20.781, 8.148 22.481, 8.508 22.841 C 8.869 23.202, 9.830 22.598, 10.644 21.498 C 11.458 20.399, 12.377 18.262, 12.687 16.750 C 12.997 15.238, 13.843 14, 14.568 14 C 15.293 14, 17.486 13.056, 19.443 11.901 C 21.399 10.747, 23 9.397, 23 8.901 C 23 8.406, 22.663 8.016, 22.250 8.035" stroke="none" fill="black" fill-rule="evenodd"/>
</svg>