<svg xmlns="http://www.w3.org/2000/svg" width="24" height="24" viewBox="0 0 24 24" version="1.1">
	<path d="M 12.526 3.950 C 10.832 7.226, 10.582 9, 11.815 9 C 12.523 9, 16 2.741, 16 1.466 C 16 -0.103, 13.813 1.461, 12.526 3.950 M 19 9.500 C 17.625 10.286, 14.348 10.945, 11.718 10.965 C 5.962 11.007, -0 13.302, -0 15.475 C -0 16.899, 0.286 16.904, 2.950 15.526 C 6.313 13.787, 9.601 13.545, 10.482 14.971 C 10.812 15.504, 10.355 17.346, 9.467 19.064 C 8.579 20.781, 8.148 22.481, 8.508 22.841 C 9.439 23.772, 12.020 20.010, 12.687 16.750 C 12.997 15.238, 13.843 14, 14.568 14 C 16.392 14, 23 10.004, 23 8.901 C 23 7.662, 21.937 7.821, 19 9.500" stroke="none" fill="black" fill-rule="evenodd"/>
</svg>