<svg viewBox="0 0 24 24" xmlns="http://www.w3.org/2000/svg" fill="none" stroke="#000000" stroke-width="2" stroke-linecap="round" stroke-linejoin="round"><path d="M14.662 1.064 C 14.426 1.139,14.181 1.379,13.659 2.049 C 12.407 3.653,11.648 5.361,11.282 7.397 C 11.173 8.005,11.176 8.177,11.304 8.432 C 11.615 9.058,12.429 9.180,12.906 8.674 C 13.094 8.473,13.145 8.342,13.239 7.818 C 13.589 5.873,14.262 4.435,15.528 2.926 C 15.902 2.481,15.960 2.377,15.988 2.101 C 16.030 1.700,15.802 1.287,15.436 1.098 C 15.254 1.004,14.900 0.988,14.662 1.064 M21.670 8.057 C 21.522 8.110,21.412 8.191,20.860 8.654 C 20.159 9.243,18.959 9.933,18.076 10.256 C 16.517 10.827,15.154 10.999,12.192 11.001 C 9.886 11.001,8.610 11.076,7.431 11.278 C 6.356 11.462,5.144 11.845,4.318 12.261 C 4.164 12.339,3.791 12.485,3.489 12.587 C 2.206 13.019,1.204 13.580,0.230 14.411 L -0.000 14.608 -0.000 15.804 C 0.000 17.159,-0.030 17.060,0.338 16.935 C 0.485 16.884,0.644 16.760,1.033 16.391 C 1.511 15.937,1.542 15.915,1.658 15.946 C 1.872 16.002,2.289 15.981,2.430 15.907 C 2.502 15.869,2.682 15.733,2.830 15.606 C 3.224 15.268,3.913 14.763,4.284 14.542 C 4.563 14.377,4.666 14.340,5.034 14.275 C 5.617 14.172,6.842 14.135,7.680 14.196 C 8.043 14.223,8.817 14.290,9.400 14.346 C 10.691 14.469,12.320 14.513,13.068 14.443 C 14.605 14.300,16.096 13.792,17.288 13.006 C 17.561 12.826,17.753 12.668,17.818 12.571 C 17.911 12.430,17.958 12.405,18.389 12.264 C 19.815 11.797,21.192 11.008,22.429 9.947 C 22.883 9.557,22.980 9.387,22.980 8.980 C 22.980 8.746,22.962 8.669,22.869 8.511 C 22.625 8.096,22.109 7.900,21.670 8.057 M11.580 15.037 C 11.401 15.080,11.277 15.153,11.107 15.315 C 10.909 15.503,10.861 15.624,10.759 16.191 C 10.417 18.093,9.731 19.565,8.501 21.038 C 8.093 21.527,8.040 21.620,8.011 21.900 C 7.971 22.291,8.164 22.665,8.511 22.869 C 8.669 22.962,8.746 22.980,8.980 22.980 C 9.489 22.980,9.685 22.819,10.515 21.720 C 11.648 20.221,12.369 18.545,12.718 16.603 C 12.827 15.995,12.824 15.823,12.697 15.569 C 12.491 15.155,12.020 14.931,11.580 15.037 " stroke="none" fill-rule="evenodd" fill="black"></path></svg>