<svg xmlns="http://www.w3.org/2000/svg" width="24" height="24" viewBox="0 0 24 24" version="1.1">
	<path d="M 12.078 1 C 11.705 1, 10.860 1.540, 10.200 2.200 C 9.540 2.860, 9 4.858, 9 6.641 C 9 8.424, 9.489 10.184, 10.087 10.554 C 10.843 11.021, 10.856 11.544, 10.130 12.270 C 9.403 12.997, 8.651 12.956, 7.663 12.135 C 6.881 11.486, 5.980 9.651, 5.662 8.058 C 5.310 6.302, 4.248 4.896, 2.966 4.489 C 1.802 4.120, 0.573 4.094, 0.235 4.432 C -0.103 4.770, 0.606 5.736, 1.810 6.580 C 3.220 7.567, 4 9.162, 4 11.057 C 4 12.971, 4.511 14, 5.461 14 C 6.265 14, 7.840 14.985, 8.961 16.189 C 10.082 17.392, 11 19.417, 11 20.689 C 11 21.960, 11.450 23, 12 23 C 12.550 23, 13 21.965, 13 20.700 C 13 19.435, 13.559 17.841, 14.242 17.158 C 15.230 16.170, 15.208 15.747, 14.132 15.082 C 12.998 14.381, 12.999 13.646, 14.137 10.497 C 14.883 8.435, 16.057 6.532, 16.746 6.267 C 17.436 6.002, 18 5.384, 18 4.893 C 18 4.402, 17.380 4, 16.622 4 C 15.865 4, 14.685 3.325, 14 2.500 C 13.315 1.675, 12.450 1, 12.078 1 M 12 4 C 11.450 4, 11.007 5.237, 11.015 6.750 C 11.027 8.893, 11.245 9.169, 12 8 C 12.533 7.175, 12.976 5.938, 12.985 5.250 C 12.993 4.563, 12.550 4, 12 4 M 18 12 C 16.900 12, 16 12.450, 16 13 C 16 13.550, 16.900 14, 18 14 C 19.100 14, 20 13.550, 20 13 C 20 12.450, 19.100 12, 18 12" stroke="none" fill="black" fill-rule="evenodd"/>
</svg>