<svg xmlns="http://www.w3.org/2000/svg" width="24" height="24" viewBox="0 0 24 24" version="1.1">
	<path d="M 10.200 2.200 C 8.703 3.697, 8.622 9.648, 10.087 10.554 C 10.843 11.021, 10.856 11.544, 10.130 12.270 C 8.638 13.762, 6.376 11.628, 5.662 8.058 C 5.310 6.302, 4.248 4.896, 2.966 4.489 C -0.069 3.526, -0.761 4.778, 1.810 6.580 C 3.220 7.567, 4 9.162, 4 11.057 C 4 12.971, 4.511 14, 5.461 14 C 7.643 14, 11 18.053, 11 20.689 C 11 21.960, 11.450 23, 12 23 C 12.550 23, 13 21.965, 13 20.700 C 13 19.435, 13.559 17.841, 14.242 17.158 C 15.230 16.170, 15.208 15.747, 14.132 15.082 C 12.998 14.381, 12.999 13.646, 14.137 10.497 C 14.883 8.435, 16.057 6.532, 16.746 6.267 C 18.433 5.620, 18.344 4, 16.622 4 C 15.865 4, 14.685 3.325, 14 2.500 C 12.495 0.686, 11.771 0.629, 10.200 2.200 M 11.015 6.750 C 11.027 8.893, 11.245 9.169, 12 8 C 13.264 6.043, 13.264 4, 12 4 C 11.450 4, 11.007 5.237, 11.015 6.750 M 16 13 C 16 13.550, 16.900 14, 18 14 C 19.100 14, 20 13.550, 20 13 C 20 12.450, 19.100 12, 18 12 C 16.900 12, 16 12.450, 16 13" stroke="none" fill="#000000" fill-rule="evenodd"/>
</svg>