<svg xmlns="http://www.w3.org/2000/svg" width="24" height="24" viewBox="0 0 24 24" version="1.1">
	<path d="M 2.440 3.296 C 2.151 4.050, 2.046 8.455, 2.207 13.084 L 2.500 21.500 12 21.500 L 21.500 21.500 21.500 12 L 21.500 2.500 12.233 2.212 C 5.103 1.991, 2.845 2.241, 2.440 3.296 M 4 12 L 4 20 12 20 L 20 20 20 12 L 20 4 12 4 L 4 4 4 12 M 11 5.763 C 11 6.182, 9.988 6.970, 8.750 7.513 C 5.842 8.789, 5.842 12.211, 8.750 13.487 C 11.539 14.711, 11.702 17, 9 17 C 7.900 17, 7 17.450, 7 18 C 7 19.611, 15.596 19.191, 16.989 17.513 C 18.571 15.607, 17.560 12.959, 14.995 12.288 C 12.400 11.610, 12.404 9, 15 9 C 16.100 9, 17 8.550, 17 8 C 17 7.450, 16.100 7, 15 7 C 13.900 7, 13 6.550, 13 6 C 13 5.450, 12.550 5, 12 5 C 11.450 5, 11 5.343, 11 5.763 M 8.694 9.639 C 7.895 10.438, 8.798 12, 10.059 12 C 10.577 12, 11 11.325, 11 10.500 C 11 8.954, 9.820 8.513, 8.694 9.639 M 13 15.500 C 13 16.417, 13.484 17.005, 14.075 16.808 C 14.666 16.611, 15.150 16.023, 15.150 15.500 C 15.150 14.978, 14.666 14.389, 14.075 14.192 C 13.484 13.995, 13 14.583, 13 15.500" stroke="none" fill="#000000" fill-rule="evenodd"/>
</svg>