<svg viewBox="0 0 24 24" xmlns="http://www.w3.org/2000/svg" fill="none" stroke="#000000" stroke-width="2" stroke-linecap="round" stroke-linejoin="round"><path d="M11.280 1.023 C 11.203 1.032,10.951 1.059,10.720 1.083 C 8.832 1.283,6.991 2.023,5.360 3.235 C 4.751 3.688,3.684 4.755,3.226 5.367 C 0.728 8.714,0.301 13.032,2.097 16.780 C 2.643 17.918,3.276 18.801,4.238 19.762 C 5.199 20.724,6.082 21.357,7.220 21.903 C 10.967 23.699,15.288 23.270,18.637 20.770 C 19.246 20.316,20.316 19.246,20.770 18.637 C 23.744 14.652,23.744 9.348,20.770 5.363 C 20.316 4.755,19.247 3.686,18.640 3.235 C 17.045 2.049,15.365 1.360,13.423 1.096 C 13.000 1.038,11.574 0.990,11.280 1.023 M13.320 3.101 C 15.883 3.488,18.124 4.931,19.560 7.120 C 19.863 7.583,20.303 8.479,20.492 9.020 C 20.838 10.013,20.977 10.865,20.977 12.000 C 20.977 13.493,20.720 14.621,20.080 15.940 C 19.375 17.394,18.311 18.607,16.927 19.532 C 16.138 20.060,14.876 20.588,13.908 20.797 C 11.266 21.366,8.479 20.708,6.370 19.019 C 4.857 17.807,3.722 16.029,3.267 14.160 C 3.081 13.397,3.023 12.888,3.023 12.000 C 3.023 10.507,3.280 9.379,3.920 8.060 C 4.971 5.891,6.877 4.221,9.160 3.466 C 9.865 3.233,10.432 3.118,11.340 3.024 C 11.662 2.991,12.911 3.039,13.320 3.101 M11.695 5.057 C 11.466 5.129,11.256 5.299,11.128 5.516 C 11.025 5.692,11.019 5.728,11.007 6.346 L 10.993 6.992 9.967 7.010 C 9.089 7.025,8.896 7.040,8.636 7.111 C 7.405 7.447,6.507 8.321,6.133 9.548 C 6.038 9.863,6.026 9.963,6.026 10.500 C 6.026 11.037,6.038 11.137,6.133 11.452 C 6.501 12.656,7.345 13.500,8.548 13.866 C 8.883 13.968,8.952 13.974,9.950 13.991 L 11.000 14.008 11.000 15.504 L 11.000 17.000 9.446 17.000 C 7.758 17.000,7.658 17.011,7.382 17.221 C 7.302 17.282,7.187 17.415,7.128 17.516 C 7.037 17.672,7.020 17.746,7.020 18.000 C 7.020 18.256,7.036 18.328,7.131 18.489 C 7.256 18.702,7.449 18.864,7.670 18.943 C 7.791 18.986,8.497 18.997,11.300 18.998 C 13.482 18.999,14.874 18.984,15.031 18.959 C 15.786 18.836,16.404 18.516,16.960 17.960 C 17.516 17.404,17.836 16.786,17.959 16.031 C 18.200 14.545,17.397 13.026,16.018 12.357 C 15.426 12.070,15.196 12.030,14.030 12.010 L 13.000 11.992 13.000 10.496 L 13.000 9.000 14.590 8.998 C 16.300 8.996,16.346 8.991,16.619 8.783 C 16.696 8.725,16.808 8.592,16.869 8.489 C 16.964 8.328,16.980 8.256,16.980 8.000 C 16.980 7.746,16.963 7.672,16.872 7.516 C 16.813 7.415,16.698 7.282,16.618 7.221 C 16.342 7.011,16.241 7.000,14.557 7.000 L 13.007 7.000 12.993 6.350 C 12.981 5.728,12.975 5.692,12.872 5.516 C 12.628 5.101,12.150 4.915,11.695 5.057 M11.000 10.503 L 11.000 12.005 10.070 11.993 C 9.148 11.980,9.138 11.979,8.900 11.868 C 8.583 11.720,8.275 11.413,8.135 11.104 C 8.040 10.896,8.024 10.808,8.024 10.500 C 8.023 10.191,8.039 10.106,8.134 9.900 C 8.328 9.477,8.755 9.124,9.174 9.042 C 9.265 9.024,9.713 9.007,10.170 9.004 L 11.000 9.000 11.000 10.503 M15.104 14.133 C 15.414 14.276,15.722 14.585,15.866 14.900 C 15.961 15.106,15.977 15.191,15.976 15.500 C 15.976 15.808,15.960 15.896,15.865 16.104 C 15.725 16.413,15.417 16.720,15.100 16.868 C 14.862 16.979,14.852 16.980,13.930 16.993 L 13.000 17.005 13.000 15.499 L 13.000 13.993 13.930 14.007 C 14.850 14.021,14.863 14.022,15.104 14.133 " stroke="none" fill-rule="evenodd" fill="black"></path></svg>