<svg viewBox="0 0 24 24" xmlns="http://www.w3.org/2000/svg"><path d="M11.120 2.039 C 9.316 2.220,7.707 2.807,6.280 3.806 C 2.738 6.286,1.178 10.759,2.422 14.865 C 2.918 16.499,3.728 17.850,4.939 19.061 C 5.928 20.050,7.038 20.788,8.272 21.278 C 11.634 22.610,15.313 22.080,18.200 19.845 C 18.637 19.507,19.507 18.637,19.845 18.200 C 21.255 16.379,22.000 14.234,22.000 12.000 C 22.000 7.432,18.842 3.387,14.430 2.303 C 13.446 2.062,12.028 1.948,11.120 2.039 M13.000 6.500 L 13.000 7.000 14.000 7.000 L 15.000 7.000 15.000 8.000 L 15.000 9.000 14.000 9.000 L 13.000 9.000 13.000 10.496 L 13.000 11.992 14.030 12.010 C 15.196 12.030,15.426 12.070,16.018 12.357 C 17.397 13.026,18.200 14.545,17.959 16.031 C 17.836 16.786,17.516 17.404,16.960 17.960 C 16.404 18.516,15.786 18.836,15.031 18.959 C 14.875 18.984,13.502 19.000,11.390 19.000 L 8.000 19.000 8.000 18.000 L 8.000 17.000 9.500 17.000 L 11.000 17.000 11.000 15.504 L 11.000 14.008 9.950 13.991 C 8.952 13.974,8.883 13.968,8.548 13.866 C 7.345 13.500,6.501 12.656,6.133 11.452 C 6.038 11.137,6.026 11.037,6.026 10.500 C 6.026 9.963,6.038 9.863,6.133 9.548 C 6.507 8.321,7.405 7.447,8.636 7.111 C 8.896 7.040,9.089 7.025,9.970 7.010 L 11.000 6.992 11.000 6.496 L 11.000 6.000 12.000 6.000 L 13.000 6.000 13.000 6.500 M9.174 9.042 C 8.755 9.124,8.328 9.477,8.134 9.900 C 8.039 10.106,8.023 10.191,8.024 10.500 C 8.024 10.808,8.040 10.896,8.135 11.104 C 8.275 11.413,8.583 11.720,8.900 11.868 C 9.138 11.979,9.148 11.980,10.070 11.993 L 11.000 12.005 11.000 10.503 L 11.000 9.000 10.170 9.004 C 9.713 9.007,9.265 9.024,9.174 9.042 M13.000 15.499 L 13.000 17.005 13.930 16.993 C 14.852 16.980,14.862 16.979,15.100 16.868 C 15.417 16.720,15.725 16.413,15.865 16.104 C 15.960 15.896,15.976 15.808,15.976 15.500 C 15.977 15.191,15.961 15.106,15.866 14.900 C 15.722 14.585,15.414 14.276,15.104 14.133 C 14.863 14.022,14.850 14.021,13.930 14.007 L 13.000 13.993 13.000 15.499 " stroke="none" fill-rule="evenodd" fill="black"></path></svg>