<svg xmlns="http://www.w3.org/2000/svg" width="24" height="24" viewBox="0 0 24 24" version="1.1">
	<path d="M 12.233 2.212 C 5.103 1.991, 2.845 2.241, 2.440 3.296 C 2.151 4.050, 2.046 8.455, 2.207 13.084 L 2.500 21.500 12 21.500 L 21.500 21.500 21.500 12 L 21.500 2.500 12.233 2.212 M 12 4 L 4 4 4 12 L 4 20 12 20 L 20 20 20 12 L 20 4 12 4 M 12 5 C 11.450 5, 11 5.343, 11 5.763 C 11 6.182, 9.988 6.970, 8.750 7.513 C 7.496 8.063, 6.500 9.385, 6.500 10.500 C 6.500 11.615, 7.496 12.937, 8.750 13.487 C 9.988 14.030, 11 15.043, 11 15.737 C 11 16.432, 10.100 17, 9 17 C 7.900 17, 7 17.450, 7 18 C 7 18.550, 8.970 19, 11.378 19 C 14.032 19, 16.241 18.415, 16.989 17.513 C 17.668 16.695, 17.946 15.302, 17.607 14.418 C 17.268 13.534, 16.092 12.575, 14.995 12.288 C 13.898 12.001, 13 11.144, 13 10.383 C 13 9.623, 13.900 9, 15 9 C 16.100 9, 17 8.550, 17 8 C 17 7.450, 16.100 7, 15 7 C 13.900 7, 13 6.550, 13 6 C 13 5.450, 12.550 5, 12 5 M 10.167 9 C 9.708 9, 9.046 9.288, 8.694 9.639 C 8.342 9.991, 8.294 10.666, 8.586 11.139 C 8.879 11.613, 9.541 12, 10.059 12 C 10.577 12, 11 11.325, 11 10.500 C 11 9.675, 10.625 9, 10.167 9 M 14.075 14.192 C 13.484 13.995, 13 14.583, 13 15.500 C 13 16.417, 13.484 17.005, 14.075 16.808 C 14.666 16.611, 15.150 16.023, 15.150 15.500 C 15.150 14.978, 14.666 14.389, 14.075 14.192" stroke="none" fill="black" fill-rule="evenodd"/>
</svg>