<svg xmlns="http://www.w3.org/2000/svg" width="24" height="24" viewBox="0 0 24 24" version="1.1">
	<path d="M 7.250 4.096 L 4 5.057 4 12.029 C 4 17.559, 3.690 19, 2.500 19 C 1.675 19, 1 19.384, 1 19.853 C 1 20.323, 5.950 20.768, 12 20.843 C 18.686 20.927, 23 20.592, 23 19.990 C 23 19.446, 22.119 19, 21.042 19 C 19.292 19, 19.053 18.178, 18.792 11.250 L 18.500 3.500 14.500 3.317 C 12.300 3.216, 9.037 3.567, 7.250 4.096 M 14 12 C 14 17.556, 14.310 19, 15.500 19 C 16.690 19, 17 17.556, 17 12 C 17 6.444, 16.690 5, 15.500 5 C 14.310 5, 14 6.444, 14 12 M 7.250 6.662 C 5.319 7.441, 5.603 16.634, 7.582 17.393 C 11.426 18.868, 12 18.168, 12 12 C 12 5.846, 11.279 5.036, 7.250 6.662" stroke="none" fill="black" fill-rule="evenodd"/>
</svg>