<svg xmlns="http://www.w3.org/2000/svg" width="24" height="24" viewBox="0 0 24 24" version="1.1">
	<path d="M 14.500 3.317 C 12.300 3.216, 9.037 3.567, 7.250 4.096 L 4 5.057 4 12.029 C 4 17.559, 3.690 19, 2.500 19 C 1.675 19, 1 19.384, 1 19.853 C 1 20.323, 5.950 20.768, 12 20.843 C 18.686 20.927, 23 20.592, 23 19.990 C 23 19.446, 22.119 19, 21.042 19 C 19.292 19, 19.053 18.178, 18.792 11.250 L 18.500 3.500 14.500 3.317 M 15.500 5 C 14.310 5, 14 6.444, 14 12 C 14 17.556, 14.310 19, 15.500 19 C 16.690 19, 17 17.556, 17 12 C 17 6.444, 16.690 5, 15.500 5 M 10.250 6.079 C 9.287 6.122, 7.938 6.385, 7.250 6.662 C 6.493 6.968, 6 9.064, 6 11.976 C 6 15.440, 6.443 16.956, 7.582 17.393 C 8.452 17.727, 9.802 18, 10.582 18 C 11.648 18, 12 16.513, 12 12 C 12 6.922, 11.731 6.012, 10.250 6.079" stroke="none" fill="black" fill-rule="evenodd"/>
</svg>