<svg xmlns="http://www.w3.org/2000/svg" width="24" height="24" viewBox="0 0 24 24" version="1.1">
	<path d="M 7.446 4.087 C 6.416 5.755, 8.733 7.667, 10.113 6.287 C 11.267 5.133, 10.545 3, 9 3 C 8.515 3, 7.816 3.489, 7.446 4.087 M 13.446 4.087 C 12.416 5.755, 14.733 7.667, 16.113 6.287 C 17.267 5.133, 16.545 3, 15 3 C 14.515 3, 13.816 3.489, 13.446 4.087 M 7.446 11.087 C 6.416 12.755, 8.733 14.667, 10.113 13.287 C 11.267 12.133, 10.545 10, 9 10 C 8.515 10, 7.816 10.489, 7.446 11.087 M 13.446 11.087 C 12.416 12.755, 14.733 14.667, 16.113 13.287 C 17.267 12.133, 16.545 10, 15 10 C 14.515 10, 13.816 10.489, 13.446 11.087 M 7.446 18.087 C 6.416 19.755, 8.733 21.667, 10.113 20.287 C 11.267 19.133, 10.545 17, 9 17 C 8.515 17, 7.816 17.489, 7.446 18.087 M 13.446 18.087 C 12.416 19.755, 14.733 21.667, 16.113 20.287 C 17.267 19.133, 16.545 17, 15 17 C 14.515 17, 13.816 17.489, 13.446 18.087" stroke="none" fill="black" fill-rule="evenodd"/>
</svg>