<svg viewBox="0 0 24 24" xmlns="http://www.w3.org/2000/svg" fill="none" stroke="#000000" stroke-width="2" stroke-linecap="round" stroke-linejoin="round"><path d="M11.500 1.023 C 11.434 1.033,11.240 1.060,11.068 1.083 C 8.033 1.493,5.124 4.496,3.745 8.643 C 2.659 11.909,2.766 15.043,4.057 17.740 C 5.389 20.524,7.735 22.365,10.618 22.889 C 11.315 23.016,12.685 23.016,13.382 22.889 C 16.265 22.365,18.609 20.525,19.943 17.740 C 21.227 15.061,21.337 11.896,20.261 8.660 C 18.895 4.552,16.122 1.641,13.060 1.100 C 12.706 1.038,11.735 0.990,11.500 1.023 M13.007 3.135 C 14.491 3.515,15.912 4.690,17.027 6.461 C 18.841 9.342,19.454 12.866,18.619 15.620 C 17.528 19.220,14.496 21.379,11.148 20.940 C 9.013 20.660,7.168 19.311,6.025 17.194 C 5.551 16.317,5.243 15.348,5.075 14.200 C 5.001 13.702,5.014 12.252,5.097 11.644 C 5.352 9.769,5.977 8.043,6.971 6.464 C 8.196 4.519,9.785 3.296,11.420 3.042 C 11.822 2.979,12.570 3.023,13.007 3.135 M11.641 5.069 C 11.503 5.118,11.321 5.271,10.847 5.736 C 10.509 6.068,10.188 6.416,10.133 6.508 C 9.862 6.970,10.033 7.588,10.508 7.867 C 10.673 7.964,10.742 7.980,11.000 7.979 C 11.354 7.978,11.476 7.924,11.788 7.629 L 12.000 7.428 12.212 7.629 C 12.524 7.924,12.646 7.978,13.000 7.979 C 13.258 7.980,13.327 7.964,13.492 7.867 C 13.967 7.588,14.138 6.970,13.867 6.508 C 13.812 6.416,13.492 6.069,13.154 5.737 C 12.648 5.240,12.505 5.122,12.343 5.067 C 12.102 4.985,11.878 4.986,11.641 5.069 M11.640 8.069 C 11.488 8.121,11.208 8.381,9.847 9.735 C 8.960 10.618,8.186 11.421,8.127 11.520 C 8.037 11.672,8.020 11.746,8.020 12.000 C 8.020 12.257,8.036 12.327,8.133 12.492 C 8.263 12.714,8.502 12.901,8.736 12.965 C 8.939 13.019,9.267 12.989,9.445 12.899 C 9.519 12.862,10.125 12.289,10.790 11.626 L 12.000 10.422 13.210 11.626 C 13.876 12.289,14.483 12.864,14.560 12.905 C 14.659 12.957,14.787 12.979,15.000 12.979 C 15.258 12.980,15.327 12.964,15.492 12.867 C 15.968 12.587,16.138 11.968,15.866 11.508 C 15.811 11.416,15.040 10.618,14.153 9.736 C 12.714 8.305,12.519 8.124,12.343 8.066 C 12.102 7.985,11.878 7.986,11.640 8.069 M11.640 14.069 C 11.492 14.121,11.265 14.325,10.347 15.236 C 9.734 15.843,9.185 16.421,9.127 16.520 C 9.037 16.672,9.020 16.747,9.020 17.000 C 9.020 17.257,9.036 17.327,9.133 17.492 C 9.263 17.714,9.502 17.901,9.736 17.965 C 9.939 18.019,10.267 17.989,10.445 17.899 C 10.519 17.861,10.900 17.514,11.290 17.127 L 12.000 16.423 12.710 17.127 C 13.101 17.514,13.481 17.861,13.555 17.899 C 14.008 18.128,14.601 17.944,14.867 17.492 C 14.964 17.327,14.980 17.257,14.980 17.000 C 14.980 16.747,14.963 16.672,14.873 16.520 C 14.815 16.421,14.266 15.843,13.653 15.236 C 12.680 14.271,12.515 14.124,12.343 14.066 C 12.102 13.985,11.878 13.986,11.640 14.069 " stroke="none" fill-rule="evenodd" fill="black"></path></svg>