<svg xmlns="http://www.w3.org/2000/svg" width="24" height="24" viewBox="0 0 24 24" version="1.1">
	<path d="M 9 3 C 8.515 3, 7.816 3.489, 7.446 4.087 C 7.077 4.685, 7.275 5.675, 7.887 6.287 C 8.704 7.104, 9.296 7.104, 10.113 6.287 C 10.725 5.675, 10.923 4.685, 10.554 4.087 C 10.184 3.489, 9.485 3, 9 3 M 15 3 C 14.515 3, 13.816 3.489, 13.446 4.087 C 13.077 4.685, 13.275 5.675, 13.887 6.287 C 14.704 7.104, 15.296 7.104, 16.113 6.287 C 16.725 5.675, 16.923 4.685, 16.554 4.087 C 16.184 3.489, 15.485 3, 15 3 M 9 10 C 8.515 10, 7.816 10.489, 7.446 11.087 C 7.077 11.685, 7.275 12.675, 7.887 13.287 C 8.704 14.104, 9.296 14.104, 10.113 13.287 C 10.725 12.675, 10.923 11.685, 10.554 11.087 C 10.184 10.489, 9.485 10, 9 10 M 15 10 C 14.515 10, 13.816 10.489, 13.446 11.087 C 13.077 11.685, 13.275 12.675, 13.887 13.287 C 14.704 14.104, 15.296 14.104, 16.113 13.287 C 16.725 12.675, 16.923 11.685, 16.554 11.087 C 16.184 10.489, 15.485 10, 15 10 M 9 17 C 8.515 17, 7.816 17.489, 7.446 18.087 C 7.077 18.685, 7.275 19.675, 7.887 20.287 C 8.704 21.104, 9.296 21.104, 10.113 20.287 C 10.725 19.675, 10.923 18.685, 10.554 18.087 C 10.184 17.489, 9.485 17, 9 17 M 15 17 C 14.515 17, 13.816 17.489, 13.446 18.087 C 13.077 18.685, 13.275 19.675, 13.887 20.287 C 14.704 21.104, 15.296 21.104, 16.113 20.287 C 16.725 19.675, 16.923 18.685, 16.554 18.087 C 16.184 17.489, 15.485 17, 15 17" stroke="none" fill="black" fill-rule="evenodd"/>
</svg>