<svg xmlns="http://www.w3.org/2000/svg" width="24" height="24" viewBox="0 0 24 24" version="1.1">
	<path d="M 12 1 C 10.524 1, 8.440 1.998, 7.299 3.250 C 6.172 4.488, 4.744 6.483, 4.125 7.684 C 3.506 8.886, 3 11.508, 3 13.511 C 3 16.204, 3.762 17.916, 5.923 20.077 C 7.918 22.072, 9.848 23, 12 23 C 14.152 23, 16.082 22.072, 18.077 20.077 C 20.238 17.916, 21 16.204, 21 13.511 C 21 11.508, 20.494 8.886, 19.875 7.684 C 19.256 6.483, 17.828 4.487, 16.701 3.250 C 15.560 1.998, 13.476 1, 12 1 M 12 3 C 11.092 3, 9.333 4.081, 8.092 5.402 C 6.851 6.723, 5.593 9.613, 5.297 11.826 C 4.842 15.218, 5.160 16.251, 7.333 18.424 C 8.750 19.841, 10.850 21, 12 21 C 13.150 21, 15.250 19.841, 16.667 18.424 C 18.840 16.251, 19.158 15.218, 18.703 11.826 C 18.407 9.613, 17.149 6.723, 15.908 5.402 C 14.667 4.081, 12.908 3, 12 3 M 12.342 5.283 C 11.705 5.069, 10.872 5.398, 10.492 6.014 C 10.111 6.629, 10.071 7.404, 10.402 7.735 C 10.733 8.067, 10.256 9.164, 9.342 10.175 C 8.427 11.185, 7.965 12.299, 8.315 12.649 C 8.665 12.999, 9.638 12.716, 10.476 12.020 C 11.705 11, 12.295 11, 13.524 12.020 C 14.362 12.716, 15.327 13.007, 15.667 12.667 C 16.007 12.327, 15.665 11.301, 14.908 10.389 C 14.150 9.476, 13.523 8.041, 13.515 7.201 C 13.507 6.360, 12.979 5.497, 12.342 5.283 M 12 14 C 11.670 14, 10.860 14.540, 10.200 15.200 C 9.540 15.860, 9 16.685, 9 17.033 C 9 17.382, 10.350 17.667, 12 17.667 C 13.650 17.667, 15 17.382, 15 17.033 C 15 16.685, 14.460 15.860, 13.800 15.200 C 13.140 14.540, 12.330 14, 12 14" stroke="none" fill="black" fill-rule="evenodd"/>
</svg>