<svg xmlns="http://www.w3.org/2000/svg" width="24" height="24" viewBox="0 0 24 24" version="1.1">
	<path d="M 7.299 3.250 C 1.973 9.098, 1.442 15.595, 5.923 20.077 C 9.853 24.007, 14.147 24.007, 18.077 20.077 C 20.238 17.916, 21 16.204, 21 13.511 C 21 4.018, 12.439 -2.393, 7.299 3.250 M 8.092 5.402 C 6.851 6.723, 5.593 9.613, 5.297 11.826 C 4.842 15.218, 5.160 16.251, 7.333 18.424 C 10.598 21.689, 13.402 21.689, 16.667 18.424 C 18.840 16.251, 19.158 15.218, 18.703 11.826 C 18.125 7.513, 14.697 3, 12 3 C 11.092 3, 9.333 4.081, 8.092 5.402 M 10.492 6.014 C 10.111 6.629, 10.071 7.404, 10.402 7.735 C 10.733 8.067, 10.256 9.164, 9.342 10.175 C 7.369 12.355, 8.282 13.841, 10.476 12.020 C 11.705 11, 12.295 11, 13.524 12.020 C 15.575 13.722, 16.636 12.471, 14.908 10.389 C 14.150 9.476, 13.523 8.041, 13.515 7.201 C 13.496 5.308, 11.429 4.496, 10.492 6.014 M 10.200 15.200 C 8.325 17.075, 8.758 17.667, 12 17.667 C 15.242 17.667, 15.675 17.075, 13.800 15.200 C 12.296 13.696, 11.704 13.696, 10.200 15.200" stroke="none" fill="#000000" fill-rule="evenodd"/>
</svg>