<svg xmlns="http://www.w3.org/2000/svg" width="24" height="24" viewBox="0 0 24 24" version="1.1">
	<path d="M 1 1.702 C 1 2.089, 2.402 3.851, 4.115 5.619 C 7.091 8.689, 7.158 8.936, 5.615 11.139 C 3.320 14.416, 3.613 17.704, 6.455 20.545 C 8.900 22.991, 13 23.902, 13 22 C 13 21.450, 12.325 21, 11.500 21 C 9.653 21, 6 17.474, 6 15.691 C 6 14.971, 6.649 13.509, 7.442 12.441 C 8.818 10.588, 9.179 10.792, 15.414 16.944 C 19.006 20.488, 22.259 23.074, 22.643 22.690 C 23.027 22.306, 22.380 20.969, 21.206 19.719 C 19.828 18.252, 19.267 16.694, 19.625 15.325 C 20.272 12.852, 18.340 8.672, 16.947 9.533 C 16.356 9.898, 16.406 10.890, 17.078 12.146 C 19.446 16.570, 16.588 15.041, 9.697 8.196 C 2.893 1.437, 1 0.024, 1 1.702" stroke="none" fill="black" fill-rule="evenodd"/>
</svg>