<svg xmlns="http://www.w3.org/2000/svg" width="24" height="24" viewBox="0 0 24 24" version="1.1">
	<path d="M 1.726 1 C 1.327 1, 1 1.316, 1 1.702 C 1 2.089, 2.402 3.851, 4.115 5.619 C 7.091 8.689, 7.158 8.936, 5.615 11.139 C 4.727 12.407, 4 14.490, 4 15.768 C 4 17.046, 5.105 19.195, 6.455 20.545 C 7.805 21.895, 9.830 23, 10.955 23 C 12.080 23, 13 22.550, 13 22 C 13 21.450, 12.325 21, 11.500 21 C 10.675 21, 9.100 20.100, 8 19 C 6.900 17.900, 6 16.411, 6 15.691 C 6 14.971, 6.649 13.509, 7.442 12.441 C 8.818 10.588, 9.179 10.792, 15.414 16.944 C 19.006 20.488, 22.259 23.074, 22.643 22.690 C 23.027 22.306, 22.380 20.969, 21.206 19.719 C 19.828 18.252, 19.267 16.694, 19.625 15.325 C 19.930 14.159, 19.667 12.246, 19.040 11.074 C 18.413 9.903, 17.471 9.209, 16.947 9.533 C 16.356 9.898, 16.406 10.890, 17.078 12.146 C 17.674 13.260, 17.887 14.446, 17.552 14.782 C 17.216 15.117, 13.682 12.154, 9.697 8.196 C 5.713 4.238, 2.126 1, 1.726 1" stroke="none" fill="black" fill-rule="evenodd"/>
</svg>