<svg viewBox="0 0 24 24" xmlns="http://www.w3.org/2000/svg" fill="none" stroke="#000000" stroke-width="2" stroke-linecap="round" stroke-linejoin="round"><path d="M1.670 1.061 C 1.448 1.142,1.250 1.309,1.128 1.516 C 1.036 1.672,1.020 1.745,1.021 2.000 C 1.021 2.212,1.043 2.341,1.095 2.440 C 1.135 2.517,2.616 4.030,4.387 5.803 L 7.605 9.026 6.851 9.783 C 5.761 10.876,5.111 11.722,4.626 12.674 C 4.223 13.466,4.049 14.079,4.013 14.840 C 3.933 16.541,4.554 18.433,5.674 19.900 C 5.933 20.239,6.606 20.925,6.960 21.211 C 8.170 22.189,9.659 22.800,11.232 22.963 C 11.884 23.031,12.263 23.001,12.496 22.864 C 13.113 22.503,13.166 21.626,12.597 21.207 C 12.399 21.061,12.193 21.013,11.643 20.982 C 9.244 20.848,7.107 19.223,6.329 16.940 C 6.108 16.293,5.966 15.325,6.017 14.817 C 6.091 14.076,6.493 13.264,7.273 12.280 C 7.580 11.894,8.726 10.700,8.934 10.551 L 9.048 10.469 15.234 16.650 C 18.636 20.050,21.483 22.865,21.560 22.905 C 21.659 22.957,21.788 22.979,22.000 22.979 C 22.258 22.980,22.327 22.964,22.492 22.867 C 22.968 22.587,23.139 21.967,22.865 21.508 C 22.810 21.416,21.893 20.469,20.827 19.405 L 18.889 17.470 19.020 17.183 C 20.142 14.720,19.992 12.413,18.571 10.288 C 18.161 9.673,17.944 9.520,17.489 9.520 C 16.922 9.520,16.509 9.951,16.509 10.542 C 16.509 10.767,16.586 10.932,16.926 11.428 C 17.783 12.680,17.975 14.089,17.495 15.609 C 17.441 15.780,17.384 15.920,17.368 15.920 C 17.353 15.920,15.728 14.304,13.757 12.330 C 11.493 10.061,10.152 8.688,10.112 8.599 C 10.015 8.380,9.856 8.215,9.649 8.118 C 9.502 8.049,8.695 7.266,6.000 4.580 C 2.842 1.431,2.523 1.125,2.343 1.065 C 2.107 0.987,1.874 0.986,1.670 1.061 " stroke="none" fill-rule="evenodd" fill="black"></path></svg>