<svg xmlns="http://www.w3.org/2000/svg" width="24" height="24" viewBox="0 0 24 24" version="1.1">
	<path d="M 13.500 1.704 C 12.400 1.415, 10.825 1.420, 10 1.716 C 9.175 2.012, 7.488 3.176, 6.250 4.302 C 4.818 5.605, 4 7.504, 4 9.528 C 4 11.517, 4.918 13.699, 6.452 15.354 C 8.086 17.117, 9.937 18, 12 18 C 14.063 18, 15.914 17.117, 17.548 15.354 C 19.082 13.699, 20 11.517, 20 9.528 C 20 7.508, 19.180 5.598, 17.750 4.289 C 16.512 3.157, 14.600 1.993, 13.500 1.704 M 12.280 4.191 C 9.807 3.949, 8.761 4.435, 7.451 6.434 C 6.405 8.031, 6.012 9.912, 6.402 11.464 C 6.744 12.827, 7.960 14.444, 9.105 15.056 C 10.250 15.669, 12.187 15.919, 13.410 15.612 C 14.633 15.305, 16.261 13.881, 17.028 12.448 C 18.231 10.201, 18.217 9.476, 16.930 7.171 C 15.892 5.314, 14.476 4.406, 12.280 4.191" stroke="none" fill="black" fill-rule="evenodd"/>
</svg>