<svg xmlns="http://www.w3.org/2000/svg" width="24" height="24" viewBox="0 0 24 24" version="1.1">
	<path d="M 10.918 2 C 9.392 2, 7.436 2.707, 6.571 3.571 C 5.448 4.694, 5 7.100, 5 12 C 5 16.900, 5.448 19.306, 6.571 20.429 C 7.436 21.293, 9.429 22, 11 22 C 12.571 22, 14.564 21.293, 15.429 20.429 C 16.293 19.564, 17 17.577, 17 16.012 C 17 14.086, 17.889 12.485, 19.750 11.056 L 22.500 8.946 20.303 7.386 C 19.094 6.528, 17.113 4.965, 15.900 3.913 C 14.687 2.861, 12.445 2, 10.918 2 M 11.063 4 C 10.063 4, 8.716 4.637, 8.070 5.416 C 7.381 6.246, 7.020 9.199, 7.198 12.562 C 7.416 16.704, 7.985 18.598, 9.250 19.391 C 10.519 20.188, 11.481 20.189, 12.750 19.394 C 13.713 18.791, 14.644 16.841, 14.820 15.061 C 15.040 12.838, 14.581 11.414, 13.358 10.520 C 11.870 9.432, 11.790 8.958, 12.874 7.652 C 13.588 6.792, 13.882 5.618, 13.527 5.044 C 13.172 4.470, 12.064 4, 11.063 4 M 18 8 C 17.450 8, 17 8.450, 17 9 C 17 9.550, 17.450 10, 18 10 C 18.550 10, 19 9.550, 19 9 C 19 8.450, 18.550 8, 18 8" stroke="none" fill="black" fill-rule="evenodd"/>
</svg>