<svg viewBox="0 0 24 24" xmlns="http://www.w3.org/2000/svg" fill="none" stroke="#000000" stroke-width="2" stroke-linecap="round" stroke-linejoin="round"><path d="M9.400 2.044 C 7.761 2.229,6.261 3.290,5.526 4.785 C 5.333 5.177,5.187 5.599,5.093 6.040 C 5.024 6.360,5.020 6.717,5.020 12.000 C 5.020 17.283,5.024 17.640,5.093 17.960 C 5.526 19.984,7.016 21.474,9.040 21.907 C 9.337 21.971,9.585 21.980,11.000 21.980 C 12.415 21.980,12.663 21.971,12.960 21.907 C 14.207 21.640,15.295 20.946,16.034 19.948 C 16.278 19.617,16.594 19.007,16.732 18.600 C 16.974 17.885,16.973 17.901,16.989 15.350 C 17.003 13.172,17.009 13.000,17.072 13.000 C 17.308 12.999,17.551 12.836,19.600 11.300 C 22.047 9.465,21.980 9.529,21.980 9.019 C 21.980 8.798,21.958 8.696,21.879 8.539 C 21.786 8.355,21.616 8.218,19.639 6.731 C 18.112 5.582,17.444 5.103,17.306 5.056 C 17.120 4.994,16.827 4.994,16.679 5.056 C 16.634 5.075,16.580 5.004,16.465 4.771 C 16.013 3.857,15.275 3.098,14.353 2.602 C 13.760 2.282,13.226 2.116,12.552 2.043 C 12.101 1.993,9.841 1.994,9.400 2.044 M12.861 4.124 C 13.782 4.408,14.575 5.177,14.846 6.050 C 14.908 6.248,14.913 6.304,14.871 6.342 C 14.843 6.368,14.241 6.823,13.533 7.353 C 12.046 8.466,12.020 8.494,12.020 8.981 C 12.020 9.202,12.042 9.304,12.121 9.461 C 12.213 9.642,12.348 9.754,13.610 10.700 L 14.999 11.740 14.989 14.640 L 14.979 17.540 14.878 17.861 C 14.574 18.830,13.818 19.581,12.840 19.886 C 12.547 19.978,12.503 19.980,11.000 19.980 C 9.497 19.980,9.453 19.978,9.160 19.886 C 8.169 19.577,7.390 18.792,7.112 17.822 L 7.020 17.500 7.020 12.000 L 7.020 6.500 7.112 6.178 C 7.426 5.083,8.367 4.240,9.499 4.042 C 9.609 4.022,10.339 4.010,11.120 4.015 C 12.504 4.024,12.548 4.027,12.861 4.124 M18.193 8.140 C 18.811 8.602,19.317 8.989,19.317 9.000 C 19.317 9.021,17.093 10.691,17.034 10.713 C 17.015 10.721,17.000 9.950,17.000 9.000 C 17.000 8.050,17.015 7.279,17.034 7.287 C 17.053 7.294,17.575 7.678,18.193 8.140 M15.000 9.003 L 15.000 9.245 14.841 9.133 C 14.753 9.071,14.682 9.011,14.682 9.000 C 14.682 8.983,14.963 8.766,14.990 8.761 C 14.995 8.761,15.000 8.869,15.000 9.003 " stroke="none" fill-rule="evenodd" fill="black"></path></svg>