<svg xmlns="http://www.w3.org/2000/svg" width="24" height="24" viewBox="0 0 24 24" version="1.1">
	<path d="M 6.571 3.571 C 5.448 4.694, 5 7.100, 5 12 C 5 19.753, 6.348 22, 11 22 C 14.640 22, 17 19.645, 17 16.012 C 17 14.086, 17.889 12.485, 19.750 11.056 L 22.500 8.946 20.303 7.386 C 19.094 6.528, 17.113 4.965, 15.900 3.913 C 13.227 1.595, 8.714 1.429, 6.571 3.571 M 8.070 5.416 C 6.231 7.632, 7.110 18.048, 9.250 19.391 C 13.421 22.009, 17.379 13.460, 13.358 10.520 C 11.870 9.432, 11.790 8.958, 12.874 7.652 C 13.588 6.792, 13.882 5.618, 13.527 5.044 C 12.600 3.544, 9.445 3.758, 8.070 5.416 M 17 9 C 17 9.550, 17.450 10, 18 10 C 18.550 10, 19 9.550, 19 9 C 19 8.450, 18.550 8, 18 8 C 17.450 8, 17 8.450, 17 9" stroke="none" fill="black" fill-rule="evenodd"/>
</svg>