<svg viewBox="0 0 24 24" xmlns="http://www.w3.org/2000/svg" fill="none" stroke="#000000" stroke-width="2" stroke-linecap="round" stroke-linejoin="round"><path d="M2.477 5.073 C 1.806 5.249,1.238 5.823,1.060 6.508 C 1.008 6.705,1.000 7.464,1.000 12.000 C 1.000 17.733,0.990 17.466,1.225 17.930 C 1.361 18.199,1.801 18.639,2.070 18.775 C 2.479 18.982,2.632 19.000,4.000 19.000 C 5.368 19.000,5.521 18.982,5.930 18.775 C 6.196 18.640,6.638 18.200,6.771 17.937 C 6.995 17.496,7.000 17.431,7.000 15.124 L 7.000 13.000 12.000 13.000 L 17.000 13.000 17.000 15.132 C 17.000 17.443,17.004 17.494,17.225 17.930 C 17.361 18.199,17.801 18.639,18.070 18.775 C 18.479 18.982,18.632 19.000,20.000 19.000 C 21.368 19.000,21.521 18.982,21.930 18.775 C 22.196 18.640,22.638 18.200,22.771 17.937 C 23.010 17.466,23.000 17.732,22.999 12.014 C 22.999 6.337,23.006 6.525,22.781 6.083 C 22.551 5.628,22.022 5.203,21.523 5.073 C 21.134 4.972,18.866 4.972,18.477 5.073 C 17.806 5.249,17.238 5.823,17.060 6.508 C 17.010 6.697,17.000 7.108,17.000 8.868 L 17.000 11.000 12.000 11.000 L 7.000 11.000 6.999 8.890 C 6.999 6.612,6.990 6.494,6.781 6.083 C 6.551 5.628,6.022 5.203,5.523 5.073 C 5.134 4.972,2.866 4.972,2.477 5.073 M5.000 12.000 L 5.000 17.000 4.000 17.000 L 3.000 17.000 3.000 12.000 L 3.000 7.000 4.000 7.000 L 5.000 7.000 5.000 12.000 M21.000 12.000 L 21.000 17.000 20.000 17.000 L 19.000 17.000 19.000 12.000 L 19.000 7.000 20.000 7.000 L 21.000 7.000 21.000 12.000 " stroke="none" fill="black" fill-rule="evenodd"></path></svg>