<svg xmlns="http://www.w3.org/2000/svg" width="24" height="24" viewBox="0 0 24 24" version="1.1">
	<path d="M 4.246 5.180 C 2.964 4.998, 1.753 5.481, 1.439 6.299 C 1.135 7.091, 1.024 10.160, 1.193 13.119 C 1.478 18.110, 1.681 18.500, 4 18.500 C 5.984 18.500, 6.565 17.932, 6.816 15.750 C 7.113 13.170, 7.434 13, 12 13 C 16.566 13, 16.887 13.170, 17.184 15.750 C 17.435 17.932, 18.016 18.500, 20 18.500 C 22.410 18.500, 22.500 18.267, 22.500 12 C 22.500 5.733, 22.410 5.500, 20 5.500 C 18.016 5.500, 17.435 6.068, 17.184 8.250 C 16.887 10.830, 16.566 11, 12 11 C 7.434 11, 7.113 10.830, 6.816 8.250 C 6.590 6.279, 5.861 5.409, 4.246 5.180 M 4 7 C 3.450 7, 3 9.250, 3 12 C 3 14.750, 3.450 17, 4 17 C 4.550 17, 5 14.750, 5 12 C 5 9.250, 4.550 7, 4 7 M 20 7 C 19.450 7, 19 9.250, 19 12 C 19 14.750, 19.450 17, 20 17 C 20.550 17, 21 14.750, 21 12 C 21 9.250, 20.550 7, 20 7" stroke="none" fill="black" fill-rule="evenodd"/>
</svg>