<svg xmlns="http://www.w3.org/2000/svg" width="24" height="24" viewBox="0 0 24 24" version="1.1">
	<path d="M 7.184 4 C 6.701 4, 5.254 4.913, 3.967 6.028 C 1.754 7.948, 1.721 8.150, 3.350 9.778 C 4.858 11.286, 5.189 11.314, 6.009 10 C 6.776 8.772, 7.813 9.367, 11.723 13.277 C 15.633 17.187, 16.228 18.224, 15 18.991 C 13.686 19.811, 13.714 20.142, 15.222 21.650 C 16.850 23.279, 17.052 23.246, 18.972 21.033 C 20.087 19.746, 21 18.302, 21 17.822 C 21 17.343, 19.988 16.554, 18.750 16.069 C 17.512 15.585, 14.877 13.458, 12.893 11.344 C 10.909 9.230, 9.011 6.713, 8.674 5.750 C 8.338 4.787, 7.668 4, 7.184 4" stroke="none" fill="black" fill-rule="evenodd"/>
</svg>