<svg xmlns="http://www.w3.org/2000/svg" width="24" height="24" viewBox="0 0 24 24" version="1.1">
	<path d="M 5.655 3.829 C 3.514 6.195, 3.399 13, 5.500 13 C 6.333 13, 7 13.889, 7 15 C 7 16.467, 6.333 17, 4.500 17 C 3.125 17, 2 17.450, 2 18 C 2 18.550, 4.362 19.036, 7.250 19.079 C 10.138 19.122, 11.938 19.385, 11.250 19.662 C 9.290 20.453, 9.787 22, 12 22 C 13.867 22, 14 21.333, 14 12 L 14 2 10.655 2 C 8.684 2, 6.630 2.751, 5.655 3.829 M 15 9.500 L 15 17 18.500 17 L 22 17 22 9.500 L 22 2 18.500 2 L 15 2 15 9.500 M 9 7 C 9 9, 9.500 10, 10.500 10 C 11.500 10, 12 9, 12 7 C 12 5, 11.500 4, 10.500 4 C 9.500 4, 9 5, 9 7 M 17 7 C 17 9, 17.500 10, 18.500 10 C 19.500 10, 20 9, 20 7 C 20 5, 19.500 4, 18.500 4 C 17.500 4, 17 5, 17 7 M 6.195 8.500 C 6.215 10.150, 6.439 10.704, 6.693 9.731 C 6.947 8.758, 6.930 7.408, 6.656 6.731 C 6.382 6.054, 6.175 6.850, 6.195 8.500 M 9 13.500 C 9 14.325, 9.675 15, 10.500 15 C 11.325 15, 12 14.325, 12 13.500 C 12 12.675, 11.325 12, 10.500 12 C 9.675 12, 9 12.675, 9 13.500 M 17 13.500 C 17 14.325, 17.675 15, 18.500 15 C 19.325 15, 20 14.325, 20 13.500 C 20 12.675, 19.325 12, 18.500 12 C 17.675 12, 17 12.675, 17 13.500" stroke="none" fill="black" fill-rule="evenodd"/>
</svg>