<svg xmlns="http://www.w3.org/2000/svg" width="24" height="24" viewBox="0 0 24 24" version="1.1">
	<path d="M 13.314 6.214 C 10.462 9.121, 7.809 12.803, 7.419 14.395 C 6.737 17.183, 6.817 17.263, 9.605 16.581 C 13.571 15.610, 23.157 6.096, 22.786 3.500 C 22.240 -0.320, 18.741 0.682, 13.314 6.214 M 1.425 4.334 C 1.144 5.067, 1.046 9.455, 1.207 14.084 L 1.500 22.500 11 22.500 L 20.500 22.500 20.802 17.250 C 20.986 14.051, 20.693 12, 20.052 12 C 19.472 12, 19 14.018, 19 16.500 L 19 21 11 21 L 3 21 3 13 L 3 5 7.500 5 C 9.975 5, 12 4.550, 12 4 C 12 2.441, 2.031 2.755, 1.425 4.334 M 14.523 7.977 C 11.827 10.714, 9.941 13.275, 10.333 13.667 C 11.066 14.400, 21 5.200, 21 3.788 C 21 2.063, 19.204 3.224, 14.523 7.977" stroke="none" fill="#000000" fill-rule="evenodd"/>
</svg>