<svg xmlns="http://www.w3.org/2000/svg" width="24" height="24" viewBox="0 0 24 24" version="1.1">
	<path d="M 20.500 1.214 C 19.181 1.025, 16.734 2.728, 13.314 6.214 C 10.462 9.121, 7.809 12.803, 7.419 14.395 C 6.737 17.183, 6.817 17.263, 9.605 16.581 C 11.197 16.191, 14.879 13.538, 17.786 10.686 C 21.272 7.266, 22.975 4.819, 22.786 3.500 C 22.627 2.389, 21.611 1.373, 20.500 1.214 M 6.969 3 C 3.698 3, 1.758 3.467, 1.425 4.334 C 1.144 5.067, 1.046 9.455, 1.207 14.084 L 1.500 22.500 11 22.500 L 20.500 22.500 20.802 17.250 C 20.986 14.051, 20.693 12, 20.052 12 C 19.472 12, 19 14.018, 19 16.500 L 19 21 11 21 L 3 21 3 13 L 3 5 7.500 5 C 9.975 5, 12 4.550, 12 4 C 12 3.450, 9.736 3, 6.969 3 M 20.212 3 C 19.779 3, 17.219 5.240, 14.523 7.977 C 11.827 10.714, 9.941 13.275, 10.333 13.667 C 10.725 14.059, 13.286 12.173, 16.023 9.477 C 18.760 6.781, 21 4.221, 21 3.788 C 21 3.354, 20.646 3, 20.212 3" stroke="none" fill="black" fill-rule="evenodd"/>
</svg>