<svg viewBox="0 0 24 24" xmlns="http://www.w3.org/2000/svg" fill="none" stroke="#000000" stroke-width="2" stroke-linecap="round" stroke-linejoin="round"><path d="M11.600 1.023 C 10.389 1.162,9.421 1.588,8.320 2.467 C 6.260 4.112,4.225 7.473,2.999 11.259 C 1.950 14.499,1.735 16.876,2.329 18.660 C 2.604 19.486,3.017 20.135,3.665 20.759 C 5.035 22.079,7.111 22.761,10.360 22.959 C 13.770 23.167,16.627 22.693,18.730 21.569 C 19.891 20.949,20.854 20.029,21.373 19.044 C 22.148 17.575,22.192 16.064,21.535 13.434 C 20.830 10.606,19.422 7.370,17.952 5.192 C 16.365 2.843,14.616 1.427,12.894 1.098 C 12.587 1.039,11.840 0.996,11.600 1.023 M12.699 3.101 C 13.051 3.193,13.612 3.484,14.012 3.781 C 15.517 4.899,17.020 7.109,18.275 10.048 C 19.360 12.590,20.080 15.407,19.985 16.738 C 19.948 17.244,19.866 17.561,19.659 17.987 C 18.849 19.657,16.597 20.699,13.242 20.958 C 12.103 21.046,10.353 20.996,9.100 20.838 C 5.289 20.360,3.801 18.913,4.031 15.910 C 4.242 13.142,5.642 9.244,7.387 6.565 C 8.529 4.813,9.781 3.642,11.002 3.183 C 11.490 3.000,12.186 2.967,12.699 3.101 " stroke="none" fill-rule="evenodd" fill="black"></path></svg>