<svg xmlns="http://www.w3.org/2000/svg" width="24" height="24" viewBox="0 0 24 24" version="1.1">
	<path d="M 11.467 1 C 10.551 1, 8.561 2.329, 7.045 3.952 C 5.528 5.576, 3.719 8.933, 3.025 11.412 C 2.331 13.891, 2.030 16.985, 2.357 18.288 C 2.684 19.591, 4.109 21.184, 5.523 21.829 C 6.937 22.473, 10.037 23, 12.412 23 C 15.266 23, 17.623 22.297, 19.365 20.927 C 21.047 19.604, 21.996 17.887, 21.990 16.177 C 21.985 14.705, 20.897 11.173, 19.573 8.330 C 18.249 5.486, 16.258 2.673, 15.149 2.080 C 14.039 1.486, 12.382 1, 11.467 1 M 11.952 3 C 11.376 3, 9.877 4.109, 8.622 5.463 C 7.366 6.818, 5.788 9.763, 5.116 12.008 C 4.443 14.252, 4.168 16.953, 4.503 18.009 C 4.887 19.218, 6.415 20.175, 8.627 20.590 C 10.559 20.952, 13.525 20.852, 15.216 20.367 C 16.908 19.882, 18.756 18.749, 19.323 17.850 C 20.071 16.664, 19.857 14.914, 18.543 11.474 C 17.547 8.866, 15.893 5.893, 14.866 4.866 C 13.840 3.840, 12.529 3, 11.952 3" stroke="none" fill="black" fill-rule="evenodd"/>
</svg>