<svg xmlns="http://www.w3.org/2000/svg" width="24" height="24" viewBox="0 0 24 24" version="1.1">
	<path d="M 8.624 9.250 C 7.250 13.787, 5.824 18.738, 5.455 20.250 L 4.783 23 12 23 L 19.217 23 18.545 20.250 C 16.589 12.240, 12.767 1, 12 1 C 11.517 1, 9.997 4.713, 8.624 9.250 M 9.710 13 C 9.279 14.650, 9.680 15, 12 15 C 14.320 15, 14.721 14.650, 14.290 13 C 14.002 11.900, 12.972 11, 12 11 C 11.028 11, 9.998 11.900, 9.710 13 M 8.714 17.619 C 6.769 19.564, 8.196 21, 12.073 21 C 15.412 21, 16.087 20.685, 15.815 19.250 C 15.474 17.451, 10.114 16.220, 8.714 17.619" stroke="none" fill="#000000" fill-rule="evenodd"/>
</svg>