<svg xmlns="http://www.w3.org/2000/svg" width="24" height="24" viewBox="0 0 24 24" version="1.1">
	<path d="M 12 1 C 11.517 1, 9.997 4.713, 8.624 9.250 C 7.250 13.787, 5.824 18.738, 5.455 20.250 L 4.783 23 12 23 L 19.217 23 18.545 20.250 C 18.176 18.738, 16.750 13.787, 15.376 9.250 C 14.003 4.713, 12.483 1, 12 1 M 12 11 C 11.028 11, 9.998 11.900, 9.710 13 C 9.279 14.650, 9.680 15, 12 15 C 14.320 15, 14.721 14.650, 14.290 13 C 14.002 11.900, 12.972 11, 12 11 M 12.456 17.203 C 10.791 17.039, 9.107 17.227, 8.714 17.619 C 8.321 18.012, 8 18.933, 8 19.667 C 8 20.560, 9.346 21, 12.073 21 C 15.412 21, 16.087 20.685, 15.815 19.250 C 15.603 18.130, 14.394 17.393, 12.456 17.203" stroke="none" fill="black" fill-rule="evenodd"/>
</svg>