<svg viewBox="0 0 24 24" xmlns="http://www.w3.org/2000/svg" fill="none" stroke="#000000" stroke-width="2" stroke-linecap="round" stroke-linejoin="round"><path d="M11.642 1.063 C 11.441 1.150,11.260 1.299,11.163 1.456 C 11.052 1.635,5.000 21.809,5.000 22.000 C 5.000 22.242,5.119 22.521,5.299 22.701 C 5.621 23.024,5.095 23.000,12.017 22.998 C 17.061 22.997,18.207 22.987,18.330 22.943 C 18.699 22.811,18.954 22.480,18.987 22.090 C 19.004 21.875,18.804 21.187,15.967 11.735 C 14.295 6.167,12.900 1.559,12.867 1.495 C 12.659 1.097,12.055 0.884,11.642 1.063 M11.900 6.988 C 12.010 7.000,12.171 6.990,12.258 6.966 C 12.345 6.942,12.421 6.928,12.428 6.934 C 12.444 6.950,13.039 8.931,13.040 8.970 C 13.040 8.986,12.572 9.000,12.000 9.000 C 11.428 9.000,10.960 8.988,10.960 8.973 C 10.960 8.958,11.087 8.521,11.242 8.003 C 11.397 7.484,11.534 7.027,11.546 6.987 C 11.560 6.938,11.589 6.923,11.634 6.940 C 11.670 6.955,11.790 6.976,11.900 6.988 M14.234 12.921 C 14.550 13.977,14.817 14.877,14.829 14.921 C 14.849 14.999,14.821 15.000,12.000 15.000 C 9.179 15.000,9.151 14.999,9.171 14.921 C 9.183 14.877,9.450 13.977,9.766 12.921 L 10.340 11.001 12.000 11.001 L 13.660 11.001 14.234 12.921 M16.034 18.921 C 16.350 19.977,16.617 20.877,16.629 20.921 C 16.649 20.999,16.615 21.000,12.000 21.000 C 7.385 21.000,7.351 20.999,7.371 20.921 C 7.383 20.877,7.650 19.977,7.966 18.921 L 8.540 17.001 12.000 17.001 L 15.460 17.001 16.034 18.921 " stroke="none" fill-rule="evenodd" fill="black"></path></svg>