<svg xmlns="http://www.w3.org/2000/svg" width="24" height="24" viewBox="0 0 24 24" version="1.1">
	<path d="M 7.500 1.894 C 3.457 3.652, 1.500 6.976, 1.500 12.082 C 1.500 16.074, 2.001 17.456, 4.273 19.727 C 6.557 22.011, 7.919 22.500, 12 22.500 C 19.011 22.500, 22.500 19.011, 22.500 12 C 22.500 7.999, 22 6.546, 19.903 4.448 C 17.099 1.644, 10.974 0.383, 7.500 1.894 M 5.923 5.923 C 3.928 7.918, 3 9.848, 3 12 C 3 16.302, 7.698 21, 12 21 C 14.152 21, 16.082 20.072, 18.077 18.077 C 22.007 14.147, 22.007 9.853, 18.077 5.923 C 14.147 1.993, 9.853 1.993, 5.923 5.923 M 8 10 C 8 10.550, 8.450 11, 9 11 C 9.550 11, 10 10.550, 10 10 C 10 9.450, 9.550 9, 9 9 C 8.450 9, 8 9.450, 8 10 M 14 10 C 14 10.550, 14.450 11, 15 11 C 15.550 11, 16 10.550, 16 10 C 16 9.450, 15.550 9, 15 9 C 14.450 9, 14 9.450, 14 10 M 8.250 14.731 C 5.476 15.698, 7.284 16.600, 12 16.600 C 14.750 16.600, 17 16.240, 17 15.800 C 17 15.360, 16.663 14.951, 16.250 14.890 C 13.198 14.444, 9.294 14.366, 8.250 14.731" stroke="none" fill="black" fill-rule="evenodd"/>
</svg>