<svg xmlns="http://www.w3.org/2000/svg" width="24" height="24" viewBox="0 0 24 24" version="1.1">
	<path d="M 12.412 1.202 C 11.264 1.038, 9.849 1.488, 9.267 2.202 C 8.685 2.916, 7.480 5.260, 6.588 7.411 C 5.697 9.562, 5.225 12.133, 5.539 13.123 C 5.854 14.114, 5.604 15.872, 4.984 17.029 C 4.099 18.684, 4.199 19.655, 5.452 21.567 C 6.786 23.602, 7.856 24, 12 24 C 16.144 24, 17.214 23.602, 18.548 21.567 C 19.781 19.685, 19.894 18.670, 19.047 17.088 C 18.444 15.962, 18.179 14.019, 18.458 12.771 C 18.742 11.494, 17.986 8.529, 16.732 6 C 15.310 3.134, 13.742 1.392, 12.412 1.202 M 12 3 C 11.415 3, 10.686 3.788, 10.378 4.750 C 10.070 5.713, 9.365 7.453, 8.811 8.619 C 8.256 9.784, 7.966 11.584, 8.165 12.619 C 8.437 14.030, 9.395 14.500, 12 14.500 C 14.605 14.500, 15.563 14.030, 15.835 12.619 C 16.034 11.584, 15.744 9.784, 15.189 8.619 C 14.635 7.453, 13.930 5.713, 13.622 4.750 C 13.314 3.788, 12.585 3, 12 3 M 10 11 C 9.450 11, 9 11.450, 9 12 C 9 12.550, 9.450 13, 10 13 C 10.550 13, 11 12.550, 11 12 C 11 11.450, 10.550 11, 10 11 M 14 11 C 13.450 11, 13 11.450, 13 12 C 13 12.550, 13.450 13, 14 13 C 14.550 13, 15 12.550, 15 12 C 15 11.450, 14.550 11, 14 11 M 12.122 16.609 C 9.232 16.537, 7.563 16.971, 7.213 17.886 C 6.921 18.648, 7.136 19.998, 7.692 20.886 C 8.247 21.774, 9.921 22.645, 11.411 22.822 C 12.902 22.999, 14.790 22.589, 15.609 21.910 C 16.427 21.231, 16.962 19.785, 16.798 18.697 C 16.556 17.093, 15.671 16.698, 12.122 16.609" stroke="none" fill="black" fill-rule="evenodd"/>
</svg>