<svg xmlns="http://www.w3.org/2000/svg" width="24" height="24" viewBox="0 0 24 24" version="1.1">
	<path d="M 13.403 1.438 C 11.256 1.210, 8.600 1.416, 7.500 1.894 C 6.400 2.373, 4.600 3.764, 3.500 4.987 C 2.078 6.568, 1.500 8.618, 1.500 12.082 C 1.500 16.074, 2.001 17.456, 4.273 19.727 C 6.557 22.011, 7.919 22.500, 12 22.500 C 16.081 22.500, 17.443 22.011, 19.727 19.727 C 22.011 17.443, 22.500 16.081, 22.500 12 C 22.500 7.999, 22 6.546, 19.903 4.448 C 18.256 2.802, 15.876 1.699, 13.403 1.438 M 12 3 C 9.848 3, 7.918 3.928, 5.923 5.923 C 3.928 7.918, 3 9.848, 3 12 C 3 14.152, 3.928 16.082, 5.923 18.077 C 7.790 19.944, 9.868 20.994, 11.673 20.985 C 13.228 20.976, 15.152 20.557, 15.948 20.053 C 17.065 19.347, 16.722 18.992, 14.448 18.500 C 12.827 18.149, 10.488 17.452, 9.250 16.952 C 8.012 16.452, 7 15.583, 7 15.021 C 7 14.460, 7.423 14, 7.941 14 C 8.459 14, 9.160 14.450, 9.500 15 C 9.840 15.550, 10.943 16, 11.952 16 C 12.961 16, 14.045 15.325, 14.362 14.500 C 14.678 13.675, 15.640 13, 16.500 13 C 17.360 13, 18.321 13.672, 18.636 14.494 C 18.952 15.316, 19.612 15.740, 20.105 15.435 C 20.597 15.131, 21 13.524, 21 11.864 C 21 9.862, 20.016 7.862, 18.077 5.923 C 16.082 3.928, 14.152 3, 12 3 M 9 8 C 8.450 8, 8 8.450, 8 9 C 8 9.550, 8.450 10, 9 10 C 9.550 10, 10 9.550, 10 9 C 10 8.450, 9.550 8, 9 8 M 15 8 C 14.450 8, 14 8.450, 14 9 C 14 9.550, 14.450 10, 15 10 C 15.550 10, 16 9.550, 16 9 C 16 8.450, 15.550 8, 15 8" stroke="none" fill="black" fill-rule="evenodd"/>
</svg>