<svg xmlns="http://www.w3.org/2000/svg" width="24" height="24" viewBox="0 0 24 24" version="1.1">
	<path d="M 7.500 1.894 C 3.457 3.652, 1.500 6.976, 1.500 12.082 C 1.500 16.074, 2.001 17.456, 4.273 19.727 C 6.557 22.011, 7.919 22.500, 12 22.500 C 19.011 22.500, 22.500 19.011, 22.500 12 C 22.500 7.999, 22 6.546, 19.903 4.448 C 17.099 1.644, 10.974 0.383, 7.500 1.894 M 5.923 5.923 C 4.315 7.531, 3 9.219, 3 9.675 C 3 10.131, 5.025 11.578, 7.500 12.891 L 12 15.278 16.500 12.891 C 18.975 11.578, 21 10.131, 21 9.675 C 21 9.219, 19.685 7.531, 18.077 5.923 C 14.147 1.993, 9.853 1.993, 5.923 5.923 M 8 9 C 8 9.550, 8.450 10, 9 10 C 9.550 10, 10 9.550, 10 9 C 10 8.450, 9.550 8, 9 8 C 8.450 8, 8 8.450, 8 9 M 14 9 C 14 9.550, 14.450 10, 15 10 C 15.550 10, 16 9.550, 16 9 C 16 8.450, 15.550 8, 15 8 C 14.450 8, 14 8.450, 14 9 M 3 14.077 C 3 16.493, 8.859 21, 12 21 C 15.141 21, 21 16.493, 21 14.077 C 21 12.566, 20.424 12.699, 15.948 15.250 L 12 17.500 8.052 15.250 C 3.576 12.699, 3 12.566, 3 14.077" stroke="none" fill="#000000" fill-rule="evenodd"/>
</svg>