<svg xmlns="http://www.w3.org/2000/svg" width="24" height="24" viewBox="0 0 24 24" version="1.1">
	<path d="M 7.500 1.894 C 3.457 3.652, 1.500 6.976, 1.500 12.082 C 1.500 16.074, 2.001 17.456, 4.273 19.727 C 6.557 22.011, 7.919 22.500, 12 22.500 C 19.011 22.500, 22.500 19.011, 22.500 12 C 22.500 7.999, 22 6.546, 19.903 4.448 C 17.099 1.644, 10.974 0.383, 7.500 1.894 M 5.923 5.923 C 3.928 7.918, 3 9.848, 3 12 C 3 18.110, 11.078 23.134, 15.948 20.053 C 17.065 19.347, 16.722 18.992, 14.448 18.500 C 9.938 17.524, 7 16.152, 7 15.021 C 7 13.710, 8.694 13.696, 9.500 15 C 10.444 16.527, 13.713 16.191, 14.362 14.500 C 15.105 12.564, 17.894 12.560, 18.636 14.494 C 19.534 16.833, 21 15.201, 21 11.864 C 21 9.862, 20.016 7.862, 18.077 5.923 C 14.147 1.993, 9.853 1.993, 5.923 5.923 M 8 9 C 8 9.550, 8.450 10, 9 10 C 9.550 10, 10 9.550, 10 9 C 10 8.450, 9.550 8, 9 8 C 8.450 8, 8 8.450, 8 9 M 14 9 C 14 9.550, 14.450 10, 15 10 C 15.550 10, 16 9.550, 16 9 C 16 8.450, 15.550 8, 15 8 C 14.450 8, 14 8.450, 14 9" stroke="none" fill="#000000" fill-rule="evenodd"/>
</svg>