<svg xmlns="http://www.w3.org/2000/svg" width="24" height="24" viewBox="0 0 24 24" version="1.1">
	<path d="M 7.603 1.367 C 4.524 1.440, 2.003 1.811, 2.002 2.191 C 2.001 2.571, 2.414 3.138, 2.919 3.450 C 3.438 3.771, 3.170 5.356, 2.302 7.096 C 1.319 9.067, 0.977 11.473, 1.352 13.783 C 1.674 15.768, 3.087 18.542, 4.492 19.946 C 6.543 21.997, 8.021 22.500, 12 22.500 C 15.952 22.500, 17.460 21.994, 19.453 20 C 20.827 18.625, 22.244 16.038, 22.601 14.250 L 23.250 11 15.970 11 C 9 11, 8.760 10.923, 10.333 9.184 C 11.237 8.186, 12.252 5.988, 12.590 4.301 L 13.203 1.233 7.603 1.367 M 21.191 1 C 20.746 1, 19.509 1.638, 18.443 2.418 C 17.376 3.198, 16.801 4.135, 17.166 4.499 C 17.530 4.864, 18.767 4.660, 19.914 4.046 C 21.061 3.432, 22 2.495, 22 1.965 C 22 1.434, 21.636 1, 21.191 1 M 9.923 3 C 9.331 3, 7.531 4.315, 5.923 5.923 C 4.315 7.531, 3 9.331, 3 9.923 C 3 10.515, 3.485 11, 4.077 11 C 4.669 11, 6.469 9.685, 8.077 8.077 C 9.685 6.469, 11 4.669, 11 4.077 C 11 3.485, 10.515 3, 9.923 3 M 15 8 C 14.450 8, 14 8.450, 14 9 C 14 9.550, 14.450 10, 15 10 C 15.550 10, 16 9.550, 16 9 C 16 8.450, 15.550 8, 15 8 M 4.419 13 C 3.639 13, 3 13.485, 3 14.077 C 3 14.669, 4.315 16.469, 5.923 18.077 C 7.918 20.072, 9.848 21, 12 21 C 14.152 21, 16.082 20.072, 18.077 18.077 C 19.685 16.469, 21 14.669, 21 14.077 C 21 13.485, 20.361 13, 19.581 13 C 18.801 13, 16.776 13.788, 15.081 14.750 C 12.147 16.417, 11.853 16.417, 8.919 14.750 C 7.224 13.787, 5.199 13, 4.419 13 M 12 13.158 C 10.625 13.158, 10.063 13.385, 10.750 13.662 C 11.438 13.940, 12.563 13.940, 13.250 13.662 C 13.938 13.385, 13.375 13.158, 12 13.158" stroke="none" fill="black" fill-rule="evenodd"/>
</svg>