<svg xmlns="http://www.w3.org/2000/svg" width="24" height="24" viewBox="0 0 24 24" version="1.1">
	<path d="M 9.267 2.202 C 7.240 4.689, 4.971 11.335, 5.539 13.123 C 5.854 14.114, 5.604 15.872, 4.984 17.029 C 4.099 18.684, 4.199 19.655, 5.452 21.567 C 6.786 23.602, 7.856 24, 12 24 C 16.144 24, 17.214 23.602, 18.548 21.567 C 19.781 19.685, 19.894 18.670, 19.047 17.088 C 18.444 15.962, 18.179 14.019, 18.458 12.771 C 19.178 9.540, 15.015 1.574, 12.412 1.202 C 11.264 1.038, 9.849 1.488, 9.267 2.202 M 10.378 4.750 C 10.070 5.713, 9.365 7.453, 8.811 8.619 C 7.007 12.409, 8.141 14.500, 12 14.500 C 15.859 14.500, 16.993 12.409, 15.189 8.619 C 14.635 7.453, 13.930 5.713, 13.622 4.750 C 13.314 3.788, 12.585 3, 12 3 C 11.415 3, 10.686 3.788, 10.378 4.750 M 9 12 C 9 12.550, 9.450 13, 10 13 C 10.550 13, 11 12.550, 11 12 C 11 11.450, 10.550 11, 10 11 C 9.450 11, 9 11.450, 9 12 M 13 12 C 13 12.550, 13.450 13, 14 13 C 14.550 13, 15 12.550, 15 12 C 15 11.450, 14.550 11, 14 11 C 13.450 11, 13 11.450, 13 12 M 7.213 17.886 C 6.382 20.054, 8.436 22.468, 11.411 22.822 C 14.744 23.219, 17.197 21.340, 16.798 18.697 C 16.556 17.093, 15.671 16.698, 12.122 16.609 C 9.232 16.537, 7.563 16.971, 7.213 17.886" stroke="none" fill="#000000" fill-rule="evenodd"/>
</svg>