<svg xmlns="http://www.w3.org/2000/svg" width="24" height="24" viewBox="0 0 24 24" version="1.1">
	<path d="M 13.403 1.438 C 11.256 1.210, 8.600 1.416, 7.500 1.894 C 6.400 2.373, 4.600 3.764, 3.500 4.987 C 2.078 6.568, 1.500 8.618, 1.500 12.082 C 1.500 16.074, 2.001 17.456, 4.273 19.727 C 6.557 22.011, 7.919 22.500, 12 22.500 C 16.081 22.500, 17.443 22.011, 19.727 19.727 C 22.011 17.443, 22.500 16.081, 22.500 12 C 22.500 7.999, 22 6.546, 19.903 4.448 C 18.256 2.802, 15.876 1.699, 13.403 1.438 M 12 3 C 9.848 3, 7.918 3.928, 5.923 5.923 C 3.928 7.918, 3 9.848, 3 12 C 3 14.152, 3.928 16.082, 5.923 18.077 C 7.918 20.072, 9.848 21, 12 21 C 14.152 21, 16.082 20.072, 18.077 18.077 C 20.072 16.082, 21 14.152, 21 12 C 21 9.848, 20.072 7.918, 18.077 5.923 C 16.082 3.928, 14.152 3, 12 3 M 9 9 C 8.450 9, 8 9.450, 8 10 C 8 10.550, 8.450 11, 9 11 C 9.550 11, 10 10.550, 10 10 C 10 9.450, 9.550 9, 9 9 M 15 9 C 14.450 9, 14 9.450, 14 10 C 14 10.550, 14.450 11, 15 11 C 15.550 11, 16 10.550, 16 10 C 16 9.450, 15.550 9, 15 9 M 12.500 14.538 C 10.850 14.404, 8.938 14.491, 8.250 14.731 C 7.563 14.970, 7 15.489, 7 15.883 C 7 16.277, 9.250 16.600, 12 16.600 C 14.750 16.600, 17 16.240, 17 15.800 C 17 15.360, 16.663 14.951, 16.250 14.890 C 15.838 14.830, 14.150 14.671, 12.500 14.538" stroke="none" fill="black" fill-rule="evenodd"/>
</svg>