<svg viewBox="0 0 24 24" xmlns="http://www.w3.org/2000/svg" fill="none" stroke="#000000" stroke-width="2" stroke-linecap="round" stroke-linejoin="round"><path d="M11.280 1.023 C 11.203 1.032,10.951 1.059,10.720 1.083 C 8.832 1.283,6.991 2.023,5.360 3.235 C 4.751 3.688,3.684 4.755,3.226 5.367 C 0.728 8.714,0.301 13.032,2.097 16.780 C 2.643 17.918,3.276 18.801,4.238 19.762 C 5.199 20.724,6.082 21.357,7.220 21.903 C 10.967 23.699,15.288 23.270,18.637 20.770 C 19.246 20.316,20.316 19.246,20.770 18.637 C 23.744 14.652,23.744 9.348,20.770 5.363 C 20.316 4.755,19.247 3.686,18.640 3.235 C 17.045 2.049,15.365 1.360,13.423 1.096 C 13.000 1.038,11.574 0.990,11.280 1.023 M13.320 3.101 C 15.883 3.488,18.124 4.931,19.560 7.120 C 19.863 7.583,20.303 8.479,20.492 9.020 C 20.838 10.013,20.977 10.865,20.977 12.000 C 20.977 13.493,20.720 14.621,20.080 15.940 C 19.375 17.394,18.311 18.607,16.927 19.532 C 16.138 20.060,14.876 20.588,13.908 20.797 C 11.266 21.366,8.479 20.708,6.370 19.019 C 4.857 17.807,3.722 16.029,3.267 14.160 C 3.081 13.397,3.023 12.888,3.023 12.000 C 3.023 10.507,3.280 9.379,3.920 8.060 C 4.971 5.891,6.877 4.221,9.160 3.466 C 9.865 3.233,10.432 3.118,11.340 3.024 C 11.662 2.991,12.911 3.039,13.320 3.101 M8.670 8.061 C 8.448 8.142,8.250 8.309,8.128 8.516 C 8.036 8.672,8.020 8.745,8.021 9.000 C 8.022 9.354,8.076 9.476,8.371 9.788 L 8.572 10.000 8.371 10.212 C 8.076 10.524,8.022 10.646,8.021 11.000 C 8.020 11.258,8.036 11.327,8.133 11.492 C 8.338 11.842,8.705 12.029,9.105 11.988 C 9.368 11.961,9.523 11.879,9.788 11.629 L 10.000 11.428 10.212 11.629 C 10.524 11.924,10.646 11.978,11.000 11.979 C 11.258 11.980,11.327 11.964,11.492 11.867 C 11.700 11.745,11.913 11.485,11.948 11.310 C 11.960 11.250,11.983 11.200,12.000 11.200 C 12.017 11.200,12.040 11.250,12.052 11.310 C 12.087 11.485,12.300 11.745,12.508 11.867 C 12.673 11.964,12.742 11.980,13.000 11.979 C 13.354 11.978,13.476 11.924,13.788 11.629 L 14.000 11.428 14.212 11.629 C 14.477 11.879,14.632 11.961,14.895 11.988 C 15.295 12.029,15.662 11.842,15.867 11.492 C 15.964 11.327,15.980 11.258,15.979 11.000 C 15.978 10.646,15.924 10.524,15.629 10.212 L 15.428 10.000 15.629 9.788 C 15.924 9.476,15.978 9.354,15.979 9.000 C 15.980 8.745,15.964 8.672,15.872 8.516 C 15.747 8.303,15.550 8.141,15.316 8.058 C 14.946 7.928,14.605 8.019,14.244 8.346 L 14.000 8.567 13.756 8.346 C 13.299 7.933,12.816 7.890,12.377 8.225 C 12.228 8.339,12.040 8.622,12.040 8.734 C 12.040 8.770,12.022 8.800,12.000 8.800 C 11.978 8.800,11.960 8.770,11.960 8.734 C 11.960 8.622,11.772 8.339,11.623 8.225 C 11.184 7.890,10.701 7.933,10.244 8.346 L 10.000 8.567 9.756 8.346 C 9.396 8.020,9.037 7.926,8.670 8.061 M12.040 9.262 C 12.040 9.372,12.165 9.570,12.371 9.788 L 12.572 10.000 12.371 10.212 C 12.165 10.430,12.040 10.628,12.040 10.738 C 12.040 10.772,12.022 10.800,12.000 10.800 C 11.978 10.800,11.960 10.772,11.960 10.738 C 11.960 10.628,11.835 10.430,11.629 10.212 L 11.428 10.000 11.629 9.788 C 11.835 9.570,11.960 9.372,11.960 9.262 C 11.960 9.228,11.978 9.200,12.000 9.200 C 12.022 9.200,12.040 9.228,12.040 9.262 M7.695 15.057 C 7.466 15.129,7.256 15.299,7.128 15.516 C 7.037 15.672,7.020 15.746,7.020 16.000 C 7.020 16.256,7.036 16.328,7.131 16.489 C 7.256 16.702,7.449 16.864,7.670 16.943 C 7.892 17.022,16.108 17.022,16.330 16.943 C 16.551 16.864,16.744 16.702,16.869 16.489 C 16.964 16.328,16.980 16.256,16.980 16.000 C 16.980 15.746,16.963 15.672,16.872 15.516 C 16.740 15.293,16.533 15.128,16.290 15.055 C 16.029 14.976,7.946 14.979,7.695 15.057 " stroke="none" fill-rule="evenodd" fill="black"></path></svg>