<svg xmlns="http://www.w3.org/2000/svg" width="24" height="24" viewBox="0 0 24 24" version="1.1">
	<path d="M 13.403 1.438 C 11.256 1.210, 8.600 1.416, 7.500 1.894 C 6.400 2.373, 4.600 3.764, 3.500 4.987 C 2.078 6.568, 1.500 8.618, 1.500 12.082 C 1.500 16.074, 2.001 17.456, 4.273 19.727 C 6.557 22.011, 7.919 22.500, 12 22.500 C 16.081 22.500, 17.443 22.011, 19.727 19.727 C 22.011 17.443, 22.500 16.081, 22.500 12 C 22.500 7.999, 22 6.546, 19.903 4.448 C 18.256 2.802, 15.876 1.699, 13.403 1.438 M 12 3 C 9.848 3, 7.918 3.928, 5.923 5.923 C 3.928 7.918, 3 9.848, 3 12 C 3 14.152, 3.928 16.082, 5.923 18.077 C 7.918 20.072, 9.848 21, 12 21 C 14.152 21, 16.082 20.072, 18.077 18.077 C 20.072 16.082, 21 14.152, 21 12 C 21 9.848, 20.072 7.918, 18.077 5.923 C 16.082 3.928, 14.152 3, 12 3 M 7.750 7.015 C 7.338 7.007, 7 7.464, 7 8.031 C 7 8.599, 7.694 9.329, 8.543 9.655 C 9.392 9.981, 10.391 9.942, 10.764 9.569 C 11.137 9.196, 10.780 8.473, 9.971 7.961 C 9.162 7.449, 8.162 7.024, 7.750 7.015 M 16.250 7.015 C 15.838 7.024, 14.838 7.449, 14.029 7.961 C 13.220 8.473, 12.863 9.196, 13.236 9.569 C 13.609 9.942, 14.608 9.981, 15.457 9.655 C 16.306 9.329, 17 8.599, 17 8.031 C 17 7.464, 16.663 7.007, 16.250 7.015 M 11.668 14.079 C 10.476 14.122, 8.938 14.385, 8.250 14.662 C 7.563 14.940, 7 15.493, 7 15.891 C 7 16.289, 9.250 16.615, 12 16.615 C 14.750 16.615, 17 16.300, 17 15.915 C 17 15.529, 16.288 14.941, 15.418 14.607 C 14.548 14.273, 12.861 14.036, 11.668 14.079" stroke="none" fill="black" fill-rule="evenodd"/>
</svg>