<svg xmlns="http://www.w3.org/2000/svg" width="24" height="24" viewBox="0 0 24 24" version="1.1">
	<path d="M 13.403 1.438 C 11.256 1.210, 8.600 1.416, 7.500 1.894 C 6.400 2.373, 4.600 3.764, 3.500 4.987 C 2.078 6.568, 1.500 8.618, 1.500 12.082 C 1.500 16.074, 2.001 17.456, 4.273 19.727 C 6.557 22.011, 7.919 22.500, 12 22.500 C 16.081 22.500, 17.443 22.011, 19.727 19.727 C 22.011 17.443, 22.500 16.081, 22.500 12 C 22.500 7.999, 22 6.546, 19.903 4.448 C 18.256 2.802, 15.876 1.699, 13.403 1.438 M 12 3 C 9.848 3, 7.918 3.928, 5.923 5.923 C 3.928 7.918, 3 9.848, 3 12 C 3 14.152, 3.928 16.082, 5.923 18.077 C 7.918 20.072, 9.848 21, 12 21 C 14.152 21, 16.082 20.072, 18.077 18.077 C 20.072 16.082, 21 14.152, 21 12 C 21 9.848, 20.072 7.918, 18.077 5.923 C 16.082 3.928, 14.152 3, 12 3 M 7.769 7 C 6.761 7, 5.678 7.675, 5.362 8.500 C 5.045 9.325, 5.045 10.675, 5.362 11.500 C 5.678 12.325, 6.761 13, 7.769 13 C 8.776 13, 10.087 12.513, 10.682 11.918 C 11.458 11.142, 12.326 11.186, 13.750 12.076 C 14.842 12.758, 16.470 13.034, 17.368 12.689 C 18.265 12.345, 19 11.135, 19 10 C 19 8.865, 18.265 7.655, 17.368 7.311 C 16.470 6.966, 14.842 7.242, 13.750 7.924 C 12.326 8.814, 11.458 8.858, 10.682 8.082 C 10.087 7.487, 8.776 7, 7.769 7 M 8 9 C 7.450 9, 7 9.450, 7 10 C 7 10.550, 7.450 11, 8 11 C 8.550 11, 9 10.550, 9 10 C 9 9.450, 8.550 9, 8 9 M 16 9 C 15.450 9, 15 9.450, 15 10 C 15 10.550, 15.450 11, 16 11 C 16.550 11, 17 10.550, 17 10 C 17 9.450, 16.550 9, 16 9 M 7.514 14 C 7.231 14, 7 14.434, 7 14.965 C 7 15.495, 7.870 16.395, 8.934 16.965 C 9.998 17.534, 11.487 18, 12.243 18 C 12.999 18, 14.491 17.362, 15.557 16.582 C 16.624 15.802, 17.204 14.871, 16.846 14.512 C 16.488 14.154, 15.251 14.451, 14.097 15.171 C 12.417 16.221, 11.605 16.235, 10.014 15.241 C 8.921 14.558, 7.796 14, 7.514 14" stroke="none" fill="black" fill-rule="evenodd"/>
</svg>