<svg xmlns="http://www.w3.org/2000/svg" width="24" height="24" viewBox="0 0 24 24" version="1.1">
	<path d="M 13.403 1.438 C 11.256 1.210, 8.600 1.416, 7.500 1.894 C 6.400 2.373, 4.600 3.764, 3.500 4.987 C 2.078 6.568, 1.500 8.618, 1.500 12.082 C 1.500 16.074, 2.001 17.456, 4.273 19.727 C 6.557 22.011, 7.919 22.500, 12 22.500 C 16.081 22.500, 17.443 22.011, 19.727 19.727 C 22.011 17.443, 22.500 16.081, 22.500 12 C 22.500 7.999, 22 6.546, 19.903 4.448 C 18.256 2.802, 15.876 1.699, 13.403 1.438 M 12 3 C 9.848 3, 7.918 3.928, 5.923 5.923 C 4.315 7.531, 3 9.219, 3 9.675 C 3 10.131, 5.025 11.578, 7.500 12.891 L 12 15.278 16.500 12.891 C 18.975 11.578, 21 10.131, 21 9.675 C 21 9.219, 19.685 7.531, 18.077 5.923 C 16.082 3.928, 14.152 3, 12 3 M 9 8 C 8.450 8, 8 8.450, 8 9 C 8 9.550, 8.450 10, 9 10 C 9.550 10, 10 9.550, 10 9 C 10 8.450, 9.550 8, 9 8 M 15 8 C 14.450 8, 14 8.450, 14 9 C 14 9.550, 14.450 10, 15 10 C 15.550 10, 16 9.550, 16 9 C 16 8.450, 15.550 8, 15 8 M 3.552 13 C 3.248 13, 3 13.485, 3 14.077 C 3 14.669, 4.315 16.469, 5.923 18.077 C 7.918 20.072, 9.848 21, 12 21 C 14.152 21, 16.082 20.072, 18.077 18.077 C 19.685 16.469, 21 14.669, 21 14.077 C 21 13.485, 20.752 13, 20.448 13 C 20.145 13, 18.120 14.012, 15.948 15.250 L 12 17.500 8.052 15.250 C 5.880 14.012, 3.855 13, 3.552 13" stroke="none" fill="black" fill-rule="evenodd"/>
</svg>