<svg xmlns="http://www.w3.org/2000/svg" width="24" height="24" viewBox="0 0 24 24" version="1.1">
	<path d="M 4.400 4.400 C 1.613 7.187, 1 8.557, 1 12 C 1 15.443, 1.613 16.813, 4.400 19.600 C 9.223 24.423, 14.777 24.423, 19.600 19.600 C 22.387 16.813, 23 15.443, 23 12 C 23 5.986, 18.014 1, 12 1 C 8.557 1, 7.187 1.613, 4.400 4.400 M 8 4.253 C 2.770 6.984, 1.773 14.674, 6.137 18.624 C 9.054 21.264, 15.391 21.054, 18.222 18.222 C 21.155 15.290, 21.288 8.843, 18.474 6.029 C 15.873 3.429, 11.123 2.623, 8 4.253 M 8 9 C 8 9.550, 8.450 10, 9 10 C 9.550 10, 10 9.550, 10 9 C 10 8.450, 9.550 8, 9 8 C 8.450 8, 8 8.450, 8 9 M 14 9 C 14 9.550, 14.450 10, 15 10 C 15.550 10, 16 9.550, 16 9 C 16 8.450, 15.550 8, 15 8 C 14.450 8, 14 8.450, 14 9 M 9.389 14.430 C 8.393 17.025, 9.788 19.169, 12.246 18.820 C 13.898 18.585, 14.500 17.833, 14.500 16 C 14.500 14.167, 13.898 13.415, 12.246 13.180 C 10.893 12.988, 9.750 13.488, 9.389 14.430 M 11 16 C 11 16.550, 11.450 17, 12 17 C 12.550 17, 13 16.550, 13 16 C 13 15.450, 12.550 15, 12 15 C 11.450 15, 11 15.450, 11 16" stroke="none" fill="#000000" fill-rule="evenodd"/>
</svg>