<svg xmlns="http://www.w3.org/2000/svg" width="24" height="24" viewBox="0 0 24 24" version="1.1">
	<path d="M 11 2.443 C 11 3.425, 9.644 3.983, 6.750 4.193 L 2.500 4.500 2.500 12 C 2.500 19.016, 2.645 19.521, 4.750 19.820 C 5.988 19.995, 7 20.783, 7 21.570 C 7 22.356, 7.450 23, 8 23 C 8.550 23, 9 22.325, 9 21.500 C 9 20.500, 10 20, 12 20 C 14 20, 15 20.500, 15 21.500 C 15 22.325, 15.450 23, 16 23 C 16.550 23, 17 22.356, 17 21.570 C 17 20.783, 18.012 19.995, 19.250 19.820 C 21.355 19.521, 21.500 19.016, 21.500 12 L 21.500 4.500 17.250 4.193 C 14.356 3.983, 13 3.425, 13 2.443 C 13 1.649, 12.550 1, 12 1 C 11.450 1, 11 1.649, 11 2.443 M 4 12 L 4 18 12 18 L 20 18 20 12 L 20 6 12 6 L 4 6 4 12 M 7.446 11.087 C 6.416 12.755, 8.733 14.667, 10.113 13.287 C 11.267 12.133, 10.545 10, 9 10 C 8.515 10, 7.816 10.489, 7.446 11.087 M 13.446 11.087 C 12.416 12.755, 14.733 14.667, 16.113 13.287 C 17.267 12.133, 16.545 10, 15 10 C 14.515 10, 13.816 10.489, 13.446 11.087 M 8 16 C 8 16.550, 9.800 17, 12 17 C 14.200 17, 16 16.550, 16 16 C 16 15.450, 14.200 15, 12 15 C 9.800 15, 8 15.450, 8 16" stroke="none" fill="black" fill-rule="evenodd"/>
</svg>