<svg viewBox="0 0 24 24" xmlns="http://www.w3.org/2000/svg" fill="none" stroke="#000000" stroke-width="2" stroke-linecap="round" stroke-linejoin="round"><path d="M11.280 1.023 C 11.203 1.032,10.951 1.059,10.720 1.083 C 8.832 1.283,6.991 2.023,5.360 3.235 C 4.751 3.688,3.684 4.755,3.226 5.367 C 0.728 8.714,0.301 13.032,2.097 16.780 C 2.643 17.918,3.276 18.801,4.238 19.762 C 5.199 20.724,6.082 21.357,7.220 21.903 C 10.967 23.699,15.288 23.270,18.637 20.770 C 19.246 20.316,20.316 19.246,20.770 18.637 C 23.744 14.652,23.744 9.348,20.770 5.363 C 20.316 4.755,19.247 3.686,18.640 3.235 C 17.045 2.049,15.365 1.360,13.423 1.096 C 13.000 1.038,11.574 0.990,11.280 1.023 M13.320 3.101 C 15.883 3.488,18.124 4.931,19.560 7.120 C 19.863 7.583,20.303 8.479,20.492 9.020 C 20.838 10.013,20.977 10.865,20.977 12.000 C 20.977 13.493,20.720 14.621,20.080 15.940 C 19.375 17.394,18.311 18.607,16.927 19.532 C 16.138 20.060,14.876 20.588,13.908 20.797 C 11.266 21.366,8.479 20.708,6.370 19.019 C 4.857 17.807,3.722 16.029,3.267 14.160 C 3.081 13.397,3.023 12.888,3.023 12.000 C 3.023 10.507,3.280 9.379,3.920 8.060 C 4.971 5.891,6.877 4.221,9.160 3.466 C 9.865 3.233,10.432 3.118,11.340 3.024 C 11.662 2.991,12.911 3.039,13.320 3.101 M6.667 10.065 C 6.406 10.145,6.153 10.401,6.061 10.678 C 5.929 11.074,5.949 11.132,6.825 12.895 C 7.296 13.843,7.676 14.559,7.757 14.651 C 7.833 14.736,7.968 14.845,8.057 14.893 L 8.220 14.980 12.000 14.980 L 15.780 14.980 15.943 14.893 C 16.032 14.845,16.167 14.736,16.243 14.651 C 16.324 14.559,16.706 13.840,17.180 12.885 L 17.980 11.274 17.980 10.987 C 17.980 10.747,17.962 10.670,17.872 10.516 C 17.740 10.293,17.533 10.128,17.290 10.055 C 17.007 9.970,6.946 9.979,6.667 10.065 M15.360 12.021 C 15.360 12.032,15.252 12.257,15.120 12.521 L 14.879 13.000 12.000 13.000 L 9.121 13.000 8.880 12.521 C 8.748 12.257,8.640 12.032,8.640 12.021 C 8.640 12.009,10.152 12.000,12.000 12.000 C 13.848 12.000,15.360 12.009,15.360 12.021 M7.670 15.055 C 7.157 15.246,6.887 15.799,7.057 16.311 C 7.189 16.708,7.906 17.424,8.714 17.965 C 9.205 18.294,9.718 18.546,10.240 18.714 C 10.915 18.932,11.230 18.980,12.000 18.980 C 12.770 18.980,13.085 18.932,13.760 18.714 C 14.282 18.546,14.795 18.294,15.286 17.965 C 16.094 17.424,16.811 16.708,16.943 16.311 C 17.121 15.776,16.804 15.181,16.264 15.036 C 16.071 14.984,15.722 15.016,15.556 15.102 C 15.492 15.135,15.237 15.366,14.990 15.614 C 14.330 16.276,13.772 16.622,12.971 16.867 C 12.655 16.963,12.558 16.974,12.000 16.974 C 11.442 16.974,11.345 16.963,11.029 16.867 C 10.228 16.622,9.670 16.276,9.010 15.614 C 8.763 15.366,8.506 15.134,8.439 15.100 C 8.266 15.010,7.854 14.986,7.670 15.055 " stroke="none" fill-rule="evenodd" fill="black"></path></svg>