<svg xmlns="http://www.w3.org/2000/svg" width="24" height="24" viewBox="0 0 24 24" version="1.1">
	<path d="M 7.500 1.894 C 3.457 3.652, 1.500 6.976, 1.500 12.082 C 1.500 16.074, 2.001 17.456, 4.273 19.727 C 6.557 22.011, 7.919 22.500, 12 22.500 C 19.011 22.500, 22.500 19.011, 22.500 12 C 22.500 7.999, 22 6.546, 19.903 4.448 C 17.099 1.644, 10.974 0.383, 7.500 1.894 M 5.923 5.923 C 3.928 7.918, 3 9.848, 3 12 C 3 16.302, 7.698 21, 12 21 C 14.152 21, 16.082 20.072, 18.077 18.077 C 22.007 14.147, 22.007 9.853, 18.077 5.923 C 14.147 1.993, 9.853 1.993, 5.923 5.923 M 7 8.031 C 7 9.320, 9.849 10.484, 10.764 9.569 C 11.137 9.196, 10.780 8.473, 9.971 7.961 C 8.035 6.737, 7 6.761, 7 8.031 M 14.029 7.961 C 13.220 8.473, 12.863 9.196, 13.236 9.569 C 14.151 10.484, 17 9.320, 17 8.031 C 17 6.761, 15.965 6.737, 14.029 7.961 M 8.250 14.662 C 5.563 15.747, 7.231 16.615, 12 16.615 C 16.978 16.615, 18.430 15.763, 15.418 14.607 C 13.588 13.905, 10.060 13.932, 8.250 14.662" stroke="none" fill="#000000" fill-rule="evenodd"/>
</svg>