<svg viewBox="0 0 24 24" xmlns="http://www.w3.org/2000/svg" fill="none" stroke="#000000" stroke-width="2" stroke-linecap="round" stroke-linejoin="round"><path d="M11.280 1.023 C 11.203 1.032,10.951 1.059,10.720 1.083 C 8.832 1.283,6.991 2.023,5.360 3.235 C 4.751 3.688,3.684 4.755,3.226 5.367 C 0.728 8.714,0.301 13.032,2.097 16.780 C 2.643 17.918,3.276 18.801,4.238 19.762 C 5.199 20.724,6.082 21.357,7.220 21.903 C 10.967 23.699,15.288 23.270,18.637 20.770 C 19.246 20.316,20.316 19.246,20.770 18.637 C 23.744 14.652,23.744 9.348,20.770 5.363 C 20.316 4.755,19.247 3.686,18.640 3.235 C 17.045 2.049,15.365 1.360,13.423 1.096 C 13.000 1.038,11.574 0.990,11.280 1.023 M13.320 3.101 C 15.883 3.488,18.124 4.931,19.560 7.120 C 19.863 7.583,20.303 8.479,20.492 9.020 C 20.838 10.013,20.977 10.865,20.977 12.000 C 20.977 13.493,20.720 14.621,20.080 15.940 C 19.375 17.394,18.311 18.607,16.927 19.532 C 16.138 20.060,14.876 20.588,13.908 20.797 C 11.266 21.366,8.479 20.708,6.370 19.019 C 4.857 17.807,3.722 16.029,3.267 14.160 C 3.081 13.397,3.023 12.888,3.023 12.000 C 3.023 10.507,3.280 9.379,3.920 8.060 C 4.971 5.891,6.877 4.221,9.160 3.466 C 9.865 3.233,10.432 3.118,11.340 3.024 C 11.662 2.991,12.911 3.039,13.320 3.101 M7.499 7.040 C 6.363 7.246,5.460 8.049,5.114 9.160 C 4.979 9.594,4.979 10.406,5.114 10.840 C 5.421 11.826,6.174 12.579,7.160 12.886 C 7.594 13.021,8.406 13.021,8.840 12.886 C 9.645 12.635,10.318 12.069,10.688 11.330 L 10.853 11.000 12.000 11.000 L 13.147 11.000 13.312 11.330 C 13.682 12.069,14.355 12.635,15.160 12.886 C 15.594 13.021,16.406 13.021,16.840 12.886 C 17.826 12.579,18.579 11.826,18.886 10.840 C 19.021 10.406,19.021 9.594,18.886 9.160 C 18.581 8.181,17.822 7.418,16.861 7.125 C 16.588 7.042,16.458 7.027,16.000 7.027 C 15.542 7.027,15.412 7.042,15.139 7.125 C 14.358 7.363,13.679 7.938,13.312 8.670 L 13.147 9.000 12.000 9.000 L 10.853 9.000 10.688 8.670 C 10.320 7.935,9.631 7.354,8.861 7.129 C 8.500 7.023,7.832 6.980,7.499 7.040 M8.310 9.061 C 8.688 9.173,9.000 9.598,9.000 10.001 C 9.000 10.331,8.784 10.696,8.484 10.872 C 8.328 10.963,8.254 10.980,8.000 10.980 C 7.746 10.980,7.672 10.963,7.516 10.872 C 6.935 10.530,6.833 9.774,7.304 9.303 C 7.583 9.024,7.916 8.944,8.310 9.061 M16.310 9.061 C 16.688 9.173,17.000 9.598,17.000 10.001 C 17.000 10.331,16.784 10.696,16.484 10.872 C 16.328 10.963,16.254 10.980,16.000 10.980 C 15.746 10.980,15.672 10.963,15.516 10.872 C 14.932 10.528,14.831 9.775,15.307 9.299 C 15.582 9.024,15.918 8.944,16.310 9.061 M7.670 14.055 C 7.157 14.246,6.887 14.799,7.057 15.311 C 7.189 15.708,7.906 16.424,8.714 16.965 C 9.205 17.294,9.718 17.546,10.240 17.714 C 10.915 17.932,11.230 17.980,12.000 17.980 C 12.770 17.980,13.085 17.932,13.760 17.714 C 14.282 17.546,14.795 17.294,15.286 16.965 C 16.094 16.424,16.811 15.708,16.943 15.311 C 17.121 14.776,16.804 14.181,16.264 14.036 C 16.071 13.984,15.722 14.016,15.556 14.102 C 15.492 14.135,15.237 14.366,14.990 14.614 C 14.330 15.276,13.772 15.622,12.971 15.867 C 12.655 15.963,12.558 15.974,12.000 15.974 C 11.442 15.974,11.345 15.963,11.029 15.867 C 10.228 15.622,9.670 15.276,9.010 14.614 C 8.763 14.366,8.506 14.134,8.439 14.100 C 8.266 14.010,7.854 13.986,7.670 14.055 " stroke="none" fill-rule="evenodd" fill="black"></path></svg>