<svg xmlns="http://www.w3.org/2000/svg" width="24" height="24" viewBox="0 0 24 24" version="1.1">
	<path d="M 7.500 1.894 C 3.457 3.652, 1.500 6.976, 1.500 12.082 C 1.500 16.074, 2.001 17.456, 4.273 19.727 C 6.557 22.011, 7.919 22.500, 12 22.500 C 19.011 22.500, 22.500 19.011, 22.500 12 C 22.500 7.999, 22 6.546, 19.903 4.448 C 17.099 1.644, 10.974 0.383, 7.500 1.894 M 5.923 5.923 C 3.928 7.918, 3 9.848, 3 12 C 3 16.302, 7.698 21, 12 21 C 14.152 21, 16.082 20.072, 18.077 18.077 C 22.007 14.147, 22.007 9.853, 18.077 5.923 C 14.147 1.993, 9.853 1.993, 5.923 5.923 M 5.362 8.500 C 3.992 12.068, 7.974 14.626, 10.682 11.918 C 11.458 11.142, 12.326 11.186, 13.750 12.076 C 16.323 13.683, 19 12.624, 19 10 C 19 7.376, 16.323 6.317, 13.750 7.924 C 12.326 8.814, 11.458 8.858, 10.682 8.082 C 9.113 6.513, 6.031 6.755, 5.362 8.500 M 7 10 C 7 10.550, 7.450 11, 8 11 C 8.550 11, 9 10.550, 9 10 C 9 9.450, 8.550 9, 8 9 C 7.450 9, 7 9.450, 7 10 M 15 10 C 15 10.550, 15.450 11, 16 11 C 16.550 11, 17 10.550, 17 10 C 17 9.450, 16.550 9, 16 9 C 15.450 9, 15 9.450, 15 10 M 7 14.965 C 7 16.103, 10.278 18, 12.243 18 C 14.116 18, 17.653 15.320, 16.846 14.512 C 16.488 14.154, 15.251 14.451, 14.097 15.171 C 12.417 16.221, 11.605 16.235, 10.014 15.241 C 7.623 13.748, 7 13.691, 7 14.965" stroke="none" fill="black" fill-rule="evenodd"/>
</svg>