<svg xmlns="http://www.w3.org/2000/svg" width="24" height="24" viewBox="0 0 24 24" version="1.1">
	<path d="M 11.816 1.030 C 10.542 1.047, 8.712 1.519, 7.750 2.080 C 6.787 2.641, 5.325 4.405, 4.500 6 C 3.675 7.595, 3 10.528, 3 12.516 C 3 14.505, 3.524 17.114, 4.163 18.316 C 4.803 19.517, 6.041 21.048, 6.913 21.718 C 7.786 22.388, 10.075 22.936, 12 22.936 C 13.925 22.936, 16.214 22.388, 17.087 21.718 C 17.959 21.048, 19.197 19.517, 19.837 18.316 C 20.476 17.114, 21 14.505, 21 12.516 C 21 10.528, 20.320 7.586, 19.490 5.980 C 18.659 4.374, 17.114 2.596, 16.055 2.030 C 14.997 1.463, 13.089 1.014, 11.816 1.030 M 12 3 C 10.900 3, 9.125 3.875, 8.056 4.944 C 6.986 6.014, 5.810 8.496, 5.441 10.461 C 5.043 12.584, 5.274 15.248, 6.012 17.029 C 6.731 18.765, 8.252 20.276, 9.627 20.621 C 10.932 20.949, 13.068 20.949, 14.373 20.621 C 15.748 20.276, 17.269 18.765, 17.988 17.029 C 18.726 15.248, 18.957 12.584, 18.559 10.461 C 18.190 8.496, 17.014 6.014, 15.944 4.944 C 14.875 3.875, 13.100 3, 12 3 M 9 12 C 8.450 12, 8 12.450, 8 13 C 8 13.550, 8.450 14, 9 14 C 9.550 14, 10 13.550, 10 13 C 10 12.450, 9.550 12, 9 12 M 15 12 C 14.450 12, 14 12.450, 14 13 C 14 13.550, 14.450 14, 15 14 C 15.550 14, 16 13.550, 16 13 C 16 12.450, 15.550 12, 15 12 M 12 16.333 C 10.251 16.333, 9.099 16.796, 9.306 17.417 C 9.504 18.012, 10.717 18.500, 12 18.500 C 13.283 18.500, 14.496 18.012, 14.694 17.417 C 14.901 16.796, 13.749 16.333, 12 16.333" stroke="none" fill="black" fill-rule="evenodd"/>
</svg>