<svg xmlns="http://www.w3.org/2000/svg" width="24" height="24" viewBox="0 0 24 24" version="1.1">
	<path d="M 13.403 1.438 C 11.256 1.210, 8.600 1.416, 7.500 1.894 C 6.400 2.373, 4.600 3.764, 3.500 4.987 C 2.078 6.568, 1.500 8.618, 1.500 12.082 C 1.500 16.074, 2.001 17.456, 4.273 19.727 C 6.557 22.011, 7.919 22.500, 12 22.500 C 16.081 22.500, 17.443 22.011, 19.727 19.727 C 22.011 17.443, 22.500 16.081, 22.500 12 C 22.500 7.999, 22 6.546, 19.903 4.448 C 18.256 2.802, 15.876 1.699, 13.403 1.438 M 12 3 C 9.848 3, 7.918 3.928, 5.923 5.923 C 3.928 7.918, 3 9.848, 3 12 C 3 14.152, 3.928 16.082, 5.923 18.077 C 7.918 20.072, 9.848 21, 12 21 C 14.152 21, 16.082 20.072, 18.077 18.077 C 20.072 16.082, 21 14.152, 21 12 C 21 9.848, 20.072 7.918, 18.077 5.923 C 16.082 3.928, 14.152 3, 12 3 M 12 10 C 6.466 10, 5.867 10.192, 6.527 11.750 C 6.934 12.713, 7.233 14.309, 7.192 15.298 C 7.151 16.287, 8.216 17.597, 9.559 18.209 C 11.351 19.025, 12.649 19.025, 14.441 18.209 C 15.784 17.597, 16.849 16.287, 16.808 15.298 C 16.767 14.309, 17.066 12.713, 17.473 11.750 C 18.133 10.192, 17.534 10, 12 10 M 12 12.232 C 10.075 12.232, 9.287 12.438, 10.250 12.689 C 11.213 12.941, 12.787 12.941, 13.750 12.689 C 14.713 12.438, 13.925 12.232, 12 12.232 M 12 15 C 10.176 15, 9.138 15.415, 9.500 16 C 9.840 16.550, 10.965 17, 12 17 C 13.035 17, 14.160 16.550, 14.500 16 C 14.862 15.415, 13.824 15, 12 15" stroke="none" fill="black" fill-rule="evenodd"/>
</svg>