<svg xmlns="http://www.w3.org/2000/svg" width="24" height="24" viewBox="0 0 24 24" version="1.1">
	<path d="M 12 1 C 8.557 1, 7.187 1.613, 4.400 4.400 C 1.613 7.187, 1 8.557, 1 12 C 1 15.443, 1.613 16.813, 4.400 19.600 C 7.187 22.387, 8.557 23, 12 23 C 15.443 23, 16.813 22.387, 19.600 19.600 C 22.387 16.813, 23 15.443, 23 12 C 23 8.557, 22.387 7.187, 19.600 4.400 C 16.813 1.613, 15.443 1, 12 1 M 13.497 3.498 C 11.848 3.196, 9.375 3.536, 8 4.253 C 6.625 4.971, 4.905 6.799, 4.178 8.315 C 3.425 9.887, 3.127 12.301, 3.485 13.932 C 3.831 15.505, 5.024 17.617, 6.137 18.624 C 7.372 19.742, 9.684 20.455, 12.075 20.455 C 14.792 20.455, 16.673 19.772, 18.222 18.222 C 19.786 16.658, 20.455 14.795, 20.455 12 C 20.455 9.356, 19.786 7.342, 18.474 6.029 C 17.384 4.940, 15.145 3.801, 13.497 3.498 M 12 9 C 9.250 9, 7 9.450, 7 10 C 7 10.550, 9.250 11, 12 11 C 14.750 11, 17 10.550, 17 10 C 17 9.450, 14.750 9, 12 9 M 12 13 C 9.250 13, 7 13.450, 7 14 C 7 14.550, 9.250 15, 12 15 C 14.750 15, 17 14.550, 17 14 C 17 13.450, 14.750 13, 12 13" stroke="none" fill="black" fill-rule="evenodd"/>
</svg>