<svg xmlns="http://www.w3.org/2000/svg" width="24" height="24" viewBox="0 0 24 24" version="1.1">
	<path d="M 4.400 4.400 C 1.613 7.187, 1 8.557, 1 12 C 1 15.443, 1.613 16.813, 4.400 19.600 C 9.223 24.423, 14.777 24.423, 19.600 19.600 C 22.387 16.813, 23 15.443, 23 12 C 23 5.986, 18.014 1, 12 1 C 8.557 1, 7.187 1.613, 4.400 4.400 M 8 4.253 C 2.770 6.984, 1.773 14.674, 6.137 18.624 C 9.054 21.264, 15.391 21.054, 18.222 18.222 C 21.155 15.290, 21.288 8.843, 18.474 6.029 C 15.873 3.429, 11.123 2.623, 8 4.253 M 7 10 C 7 10.550, 9.250 11, 12 11 C 14.750 11, 17 10.550, 17 10 C 17 9.450, 14.750 9, 12 9 C 9.250 9, 7 9.450, 7 10 M 7 14 C 7 14.550, 9.250 15, 12 15 C 14.750 15, 17 14.550, 17 14 C 17 13.450, 14.750 13, 12 13 C 9.250 13, 7 13.450, 7 14" stroke="none" fill="black" fill-rule="evenodd"/>
</svg>