<svg viewBox="0 0 24 24" xmlns="http://www.w3.org/2000/svg" fill="none" stroke="#000000" stroke-width="2" stroke-linecap="round" stroke-linejoin="round"><path d="M17.640 1.068 C 17.483 1.121,16.806 1.783,12.347 6.235 C 9.375 9.202,7.190 11.415,7.127 11.520 C 7.036 11.673,7.020 11.745,7.021 12.000 C 7.021 12.212,7.043 12.341,7.095 12.440 C 7.195 12.632,11.295 16.739,11.520 16.873 C 11.673 16.964,11.745 16.980,12.000 16.979 C 12.212 16.979,12.341 16.957,12.440 16.905 C 12.633 16.805,22.737 6.708,22.873 6.480 C 22.964 6.327,22.980 6.254,22.980 6.000 C 22.980 5.746,22.963 5.672,22.873 5.520 C 22.813 5.419,21.834 4.412,20.653 3.235 C 18.748 1.338,18.521 1.124,18.343 1.065 C 18.102 0.986,17.878 0.986,17.640 1.068 M19.300 4.720 L 20.580 6.000 16.290 10.290 L 12.000 14.580 10.710 13.290 L 9.420 12.000 13.700 7.720 C 16.054 5.366,17.989 3.440,18.000 3.440 C 18.011 3.440,18.596 4.016,19.300 4.720 M7.640 15.068 C 7.485 15.121,7.036 15.553,4.347 18.235 C 2.570 20.008,1.188 21.417,1.127 21.520 C 1.036 21.672,1.020 21.746,1.020 22.000 C 1.020 22.254,1.037 22.328,1.128 22.484 C 1.187 22.585,1.300 22.716,1.377 22.775 C 1.689 23.013,1.297 23.000,7.998 23.000 C 13.572 23.000,14.164 22.994,14.343 22.935 C 14.522 22.875,14.817 22.593,17.653 19.765 C 19.431 17.992,20.812 16.583,20.873 16.480 C 20.964 16.328,20.980 16.254,20.980 16.000 C 20.980 15.746,20.963 15.672,20.872 15.516 C 20.618 15.084,20.138 14.906,19.657 15.065 C 19.478 15.125,19.196 15.394,16.519 18.065 L 13.578 21.000 9.000 21.000 L 4.421 21.000 6.626 18.790 C 7.839 17.575,8.865 16.517,8.905 16.440 C 8.957 16.341,8.979 16.212,8.979 16.000 C 8.980 15.745,8.964 15.672,8.872 15.516 C 8.617 15.083,8.122 14.903,7.640 15.068 " stroke="none" fill-rule="evenodd" fill="black"></path></svg>