<svg xmlns="http://www.w3.org/2000/svg" width="24" height="24" viewBox="0 0 24 24" version="1.1">
	<path d="M 18.042 1 C 17.706 1, 14.985 3.478, 11.994 6.506 L 6.557 12.012 9.284 14.739 L 12.012 17.466 17.712 11.767 L 23.411 6.067 21.031 3.533 C 19.722 2.140, 18.377 1, 18.042 1 M 18.144 4 C 17.738 4, 15.649 5.799, 13.501 7.999 C 10.431 11.143, 9.857 12.257, 10.816 13.216 C 11.775 14.175, 12.913 13.558, 16.144 10.327 C 18.412 8.059, 19.946 5.721, 19.567 5.109 C 19.190 4.499, 18.550 4, 18.144 4 M 8.196 15 C 7.754 15, 5.954 16.484, 4.196 18.298 C 2.438 20.111, 1 21.911, 1 22.298 C 1 22.684, 4.062 23, 7.804 23 C 14.261 23, 14.780 22.823, 17.985 19.515 C 19.843 17.598, 21.050 15.716, 20.667 15.333 C 20.284 14.950, 18.493 16.068, 16.687 17.818 C 14.014 20.409, 12.592 21, 9.028 21 L 4.651 21 6.826 18.686 C 8.022 17.413, 9 16.063, 9 15.686 C 9 15.308, 8.638 15, 8.196 15" stroke="none" fill="black" fill-rule="evenodd"/>
</svg>