<svg xmlns="http://www.w3.org/2000/svg" width="24" height="24" viewBox="0 0 24 24" version="1.1">
	<path d="M 12.233 2.212 C 5.103 1.991, 2.845 2.241, 2.440 3.296 C 2.151 4.050, 2.046 8.455, 2.207 13.084 L 2.500 21.500 12 21.500 L 21.500 21.500 21.500 12 L 21.500 2.500 12.233 2.212 M 6.023 4 C 4.161 4, 4 4.636, 4 12 C 4 19.487, 4.136 20, 6.122 20 C 7.948 20, 8.061 19.778, 6.926 18.411 C 6.201 17.537, 5.504 14.950, 5.378 12.661 C 5.250 10.346, 5.790 7.502, 6.597 6.250 C 7.930 4.181, 7.884 4, 6.023 4 M 17.378 4 C 15.141 4, 14.941 4.225, 16.020 5.524 C 16.716 6.362, 16.988 7.345, 16.626 7.707 C 16.263 8.070, 15.434 7.834, 14.783 7.183 C 14.133 6.532, 12.592 6, 11.359 6 C 10.126 6, 8.840 6.450, 8.500 7 C 8.132 7.595, 9.323 8, 11.441 8 C 13.398 8, 15 8.423, 15 8.940 C 15 9.456, 13.313 10.056, 11.250 10.272 L 7.500 10.664 11.750 10.832 C 14.088 10.924, 16 11.450, 16 12 C 16 12.550, 14.169 13, 11.930 13 C 8.282 13, 7.894 13.233, 8.180 15.250 C 8.388 16.715, 9.304 17.614, 10.805 17.827 C 12.073 18.006, 13.771 17.605, 14.579 16.934 C 15.387 16.264, 16.327 15.993, 16.667 16.333 C 17.007 16.673, 16.716 17.638, 16.020 18.476 C 14.941 19.775, 15.141 20, 17.378 20 C 19.989 20, 20 19.966, 20 12 C 20 4.034, 19.989 4, 17.378 4" stroke="none" fill="black" fill-rule="evenodd"/>
</svg>