<svg xmlns="http://www.w3.org/2000/svg" width="24" height="24" viewBox="0 0 24 24" version="1.1">
	<path d="M 12 1 C 8.557 1, 7.187 1.613, 4.400 4.400 C 1.613 7.187, 1 8.557, 1 12 C 1 15.443, 1.613 16.813, 4.400 19.600 C 7.187 22.387, 8.557 23, 12 23 C 15.443 23, 16.813 22.387, 19.600 19.600 C 22.387 16.813, 23 15.443, 23 12 C 23 8.557, 22.387 7.187, 19.600 4.400 C 16.813 1.613, 15.443 1, 12 1 M 15.723 4 C 15.190 4, 15.324 4.686, 16.020 5.524 C 16.716 6.362, 16.988 7.345, 16.626 7.707 C 16.263 8.070, 15.434 7.834, 14.783 7.183 C 14.133 6.532, 12.592 6, 11.359 6 C 10.126 6, 8.840 6.450, 8.500 7 C 8.132 7.595, 9.323 8, 11.441 8 C 13.398 8, 15 8.423, 15 8.940 C 15 9.456, 13.313 10.056, 11.250 10.272 L 7.500 10.664 11.750 10.832 C 14.088 10.924, 16 11.450, 16 12 C 16 12.550, 14.169 13, 11.930 13 C 8.282 13, 7.894 13.233, 8.180 15.250 C 8.388 16.715, 9.304 17.614, 10.805 17.827 C 12.073 18.006, 13.771 17.605, 14.579 16.934 C 15.387 16.264, 16.327 15.993, 16.667 16.333 C 17.007 16.673, 16.716 17.638, 16.020 18.476 C 15.324 19.314, 15.190 20, 15.723 20 C 16.255 20, 17.537 19.064, 18.572 17.920 C 19.727 16.644, 20.455 14.357, 20.455 12 C 20.455 9.643, 19.727 7.356, 18.572 6.080 C 17.537 4.936, 16.255 4, 15.723 4 M 6.658 5 C 6.431 5, 5.638 5.732, 4.895 6.626 C 4.153 7.521, 3.545 9.990, 3.545 12.113 C 3.545 14.587, 4.216 16.607, 5.414 17.737 C 6.640 18.895, 6.992 18.991, 6.437 18.016 C 5.973 17.200, 5.501 14.730, 5.388 12.528 C 5.276 10.326, 5.608 7.732, 6.127 6.762 C 6.646 5.793, 6.885 5, 6.658 5" stroke="none" fill="black" fill-rule="evenodd"/>
</svg>