<svg xmlns="http://www.w3.org/2000/svg" width="24" height="24" viewBox="0 0 24 24" version="1.1">
	<path d="M 2.440 3.296 C 2.151 4.050, 2.046 8.455, 2.207 13.084 L 2.500 21.500 12 21.500 L 21.500 21.500 21.500 12 L 21.500 2.500 12.233 2.212 C 5.103 1.991, 2.845 2.241, 2.440 3.296 M 4 12 C 4 19.487, 4.136 20, 6.122 20 C 7.948 20, 8.061 19.778, 6.926 18.411 C 5.065 16.168, 4.869 8.933, 6.597 6.250 C 7.930 4.181, 7.884 4, 6.023 4 C 4.161 4, 4 4.636, 4 12 M 16.020 5.524 C 17.554 7.372, 16.452 8.852, 14.783 7.183 C 13.341 5.741, 9.350 5.625, 8.500 7 C 8.132 7.595, 9.323 8, 11.441 8 C 16.166 8, 16.017 9.773, 11.250 10.272 L 7.500 10.664 11.750 10.832 C 17.183 11.047, 17.346 13, 11.930 13 C 8.282 13, 7.894 13.233, 8.180 15.250 C 8.551 17.857, 12.283 18.840, 14.579 16.934 C 16.517 15.326, 17.638 16.526, 16.020 18.476 C 14.941 19.775, 15.141 20, 17.378 20 C 19.989 20, 20 19.966, 20 12 C 20 4.034, 19.989 4, 17.378 4 C 15.141 4, 14.941 4.225, 16.020 5.524" stroke="none" fill="#000000" fill-rule="evenodd"/>
</svg>