<svg viewBox="0 0 24 24" xmlns="http://www.w3.org/2000/svg" fill="none" stroke="#000000" stroke-width="2" stroke-linecap="round" stroke-linejoin="round"><path d="M4.499 2.043 C 3.380 2.232,2.461 3.048,2.114 4.160 L 2.020 4.460 2.020 12.000 L 2.020 19.540 2.114 19.840 C 2.422 20.827,3.173 21.578,4.160 21.886 L 4.460 21.980 12.000 21.980 L 19.540 21.980 19.840 21.886 C 20.827 21.578,21.578 20.827,21.886 19.840 L 21.980 19.540 21.980 12.000 L 21.980 4.460 21.886 4.160 C 21.581 3.182,20.832 2.428,19.861 2.121 L 19.540 2.020 12.120 2.014 C 8.039 2.011,4.609 2.024,4.499 2.043 M8.357 4.227 C 7.325 4.850,6.541 5.695,6.024 6.740 C 5.577 7.645,5.408 8.310,5.372 9.300 C 5.341 10.186,5.461 10.914,5.773 11.730 L 5.876 12.000 5.773 12.270 C 5.264 13.601,5.226 15.070,5.665 16.420 C 6.115 17.805,7.077 19.002,8.360 19.776 L 8.737 20.003 6.718 19.991 L 4.700 19.980 4.516 19.872 C 4.415 19.813,4.284 19.700,4.225 19.623 C 3.986 19.309,4.000 19.795,4.000 12.022 C 4.000 4.005,3.975 4.631,4.304 4.303 C 4.602 4.004,4.589 4.006,6.797 4.003 L 8.734 4.000 8.357 4.227 M19.310 4.061 C 19.589 4.144,19.856 4.411,19.939 4.690 C 19.993 4.870,20.000 5.755,20.000 12.001 C 20.000 17.907,19.991 19.138,19.945 19.290 C 19.872 19.533,19.707 19.740,19.484 19.872 L 19.300 19.980 16.780 19.990 L 14.260 20.000 14.521 19.850 C 15.422 19.333,16.169 18.617,16.715 17.746 C 17.009 17.276,17.059 17.028,16.934 16.660 C 16.767 16.170,16.174 15.886,15.682 16.059 C 15.408 16.156,15.289 16.268,15.013 16.688 C 14.704 17.158,14.372 17.525,14.005 17.801 C 12.385 19.019,10.142 18.900,8.664 17.518 C 8.236 17.118,7.831 16.520,7.636 16.000 C 7.310 15.133,7.277 14.051,7.553 13.239 L 7.628 13.020 11.464 13.000 L 15.300 12.980 15.492 12.867 C 16.211 12.444,16.143 11.412,15.373 11.070 C 15.286 11.032,14.376 11.015,11.442 11.000 L 7.623 10.980 7.536 10.700 C 7.488 10.546,7.436 10.325,7.421 10.210 L 7.392 10.000 10.786 9.998 C 13.517 9.997,14.209 9.986,14.330 9.943 C 14.551 9.864,14.744 9.702,14.869 9.489 C 14.964 9.328,14.980 9.256,14.980 9.000 C 14.980 8.746,14.963 8.672,14.872 8.516 C 14.813 8.415,14.698 8.282,14.618 8.221 C 14.323 7.997,14.383 8.000,10.874 8.000 C 9.095 8.000,7.640 7.990,7.640 7.979 C 7.640 7.930,7.903 7.440,8.059 7.198 C 8.771 6.093,10.130 5.361,11.467 5.360 C 12.925 5.360,14.195 6.057,15.010 7.306 C 15.288 7.732,15.407 7.844,15.682 7.941 C 16.444 8.210,17.211 7.448,16.943 6.689 C 16.870 6.481,16.602 6.054,16.323 5.700 C 15.853 5.104,15.282 4.608,14.598 4.201 L 14.260 4.000 16.683 4.000 C 18.735 4.000,19.137 4.009,19.310 4.061 " stroke="none" fill-rule="evenodd" fill="black"></path></svg>