<svg xmlns="http://www.w3.org/2000/svg" width="24" height="24" viewBox="0 0 24 24" version="1.1">
	<path d="M 4.400 4.400 C 1.613 7.187, 1 8.557, 1 12 C 1 15.443, 1.613 16.813, 4.400 19.600 C 9.223 24.423, 14.777 24.423, 19.600 19.600 C 22.387 16.813, 23 15.443, 23 12 C 23 5.986, 18.014 1, 12 1 C 8.557 1, 7.187 1.613, 4.400 4.400 M 16.020 5.524 C 17.554 7.372, 16.452 8.852, 14.783 7.183 C 13.341 5.741, 9.350 5.625, 8.500 7 C 8.132 7.595, 9.323 8, 11.441 8 C 16.166 8, 16.017 9.773, 11.250 10.272 L 7.500 10.664 11.750 10.832 C 17.183 11.047, 17.346 13, 11.930 13 C 8.282 13, 7.894 13.233, 8.180 15.250 C 8.551 17.857, 12.283 18.840, 14.579 16.934 C 16.517 15.326, 17.638 16.526, 16.020 18.476 C 14.091 20.801, 16.425 20.292, 18.572 17.920 C 21.065 15.165, 21.065 8.835, 18.572 6.080 C 16.425 3.708, 14.091 3.199, 16.020 5.524 M 4.895 6.626 C 2.882 9.052, 3.189 15.638, 5.414 17.737 C 6.640 18.895, 6.992 18.991, 6.437 18.016 C 5.218 15.873, 5.023 8.825, 6.127 6.762 C 7.309 4.554, 6.673 4.484, 4.895 6.626" stroke="none" fill="#000000" fill-rule="evenodd"/>
</svg>