<svg xmlns="http://www.w3.org/2000/svg" width="24" height="24" viewBox="0 0 24 24" version="1.1">
	<path d="M 7 3 C 6.407 3, 6 6.667, 6 12 C 6 16.950, 6.320 21, 6.712 21 C 7.104 21, 9.354 19.106, 11.712 16.792 L 16 12.584 16 16.792 C 16 19.106, 16.450 21, 17 21 C 17.593 21, 18 17.333, 18 12 C 18 7.050, 17.680 3, 17.288 3 C 16.896 3, 14.646 4.894, 12.288 7.208 L 8 11.416 8 7.208 C 8 4.894, 7.550 3, 7 3 M 15.852 8.055 C 15.645 7.435, 13.743 8.703, 11.624 10.873 C 9.506 13.042, 7.942 15.325, 8.148 15.945 C 8.355 16.565, 10.257 15.297, 12.376 13.127 C 14.494 10.958, 16.058 8.675, 15.852 8.055" stroke="none" fill="black" fill-rule="evenodd"/>
</svg>