<svg viewBox="0 0 24 24" xmlns="http://www.w3.org/2000/svg" fill="none" stroke="#000000" stroke-width="2" stroke-linecap="round" stroke-linejoin="round"><path d="M6.695 3.057 C 6.466 3.129,6.256 3.299,6.128 3.516 L 6.020 3.700 6.010 11.914 C 6.003 17.333,6.013 20.180,6.040 20.278 C 6.182 20.809,6.779 21.117,7.325 20.940 C 7.530 20.874,7.731 20.680,11.769 16.647 L 15.998 12.423 16.009 16.365 L 16.020 20.306 16.141 20.503 C 16.543 21.156,17.457 21.156,17.859 20.503 L 17.980 20.306 17.980 12.003 L 17.980 3.700 17.871 3.514 C 17.604 3.060,17.049 2.888,16.563 3.108 C 16.472 3.148,14.873 4.717,12.211 7.375 L 8.002 11.578 7.991 7.639 L 7.980 3.700 7.872 3.516 C 7.628 3.101,7.150 2.915,6.695 3.057 M12.000 13.579 L 8.000 17.580 8.000 16.000 L 8.000 14.420 11.990 10.430 L 15.980 6.440 15.990 8.009 L 16.001 9.579 12.000 13.579 " stroke="none" fill-rule="evenodd" fill="black"></path></svg>