<svg xmlns="http://www.w3.org/2000/svg" width="24" height="24" viewBox="0 0 24 24" version="1.1">
	<path d="M 18 2 C 15.800 2, 14 2.450, 14 3 C 14 3.550, 14.984 4, 16.187 4 C 18.286 4, 18.258 4.121, 15.510 6.990 C 13.935 8.634, 12.955 10.289, 13.333 10.667 C 13.711 11.045, 15.366 10.065, 17.010 8.490 C 19.879 5.742, 20 5.714, 20 7.813 C 20 9.016, 20.450 10, 21 10 C 21.550 10, 22 8.200, 22 6 L 22 2 18 2 M 10.227 13 C 9.802 13, 8.227 14.227, 6.727 15.727 C 4.057 18.398, 4 18.408, 4 16.227 C 4 15.002, 3.550 14, 3 14 C 2.450 14, 2 15.800, 2 18 L 2 22 6 22 C 8.200 22, 10 21.550, 10 21 C 10 20.450, 9.016 20, 7.813 20 C 5.682 20, 5.695 19.928, 8.313 17.195 C 9.791 15.653, 11 14.078, 11 13.695 C 11 13.313, 10.652 13, 10.227 13" stroke="none" fill="black" fill-rule="evenodd"/>
</svg>