<svg xmlns="http://www.w3.org/2000/svg" width="24" height="24" viewBox="0 0 24 24" version="1.1">
	<path d="M 14 3 C 14 3.550, 14.996 4, 16.212 4 C 18.135 4, 17.783 4.651, 13.523 8.977 C 10.827 11.714, 8.941 14.275, 9.333 14.667 C 9.725 15.059, 12.286 13.173, 15.023 10.477 C 19.349 6.217, 20 5.865, 20 7.788 C 20 9.004, 20.450 10, 21 10 C 21.550 10, 22 8.200, 22 6 L 22 2 18 2 C 15.800 2, 14 2.450, 14 3 M 2.419 6.349 C 2.135 7.091, 2.036 10.804, 2.201 14.599 L 2.500 21.500 10.500 21.500 L 18.500 21.500 18.805 16.750 C 18.988 13.893, 18.689 12, 18.055 12 C 17.475 12, 17 13.800, 17 16 L 17 20 10.500 20 L 4 20 4 13.500 L 4 7 8 7 C 10.200 7, 12 6.550, 12 6 C 12 4.439, 3.027 4.766, 2.419 6.349" stroke="none" fill="#000000" fill-rule="evenodd"/>
</svg>