<svg xmlns="http://www.w3.org/2000/svg" width="24" height="24" viewBox="0 0 24 24" version="1.1">
	<path d="M 0.766 0 C 0.345 0, 0 0.308, 0 0.686 C 0 1.063, 0.942 2.374, 2.094 3.600 L 4.187 5.828 1.944 8.862 C -0.207 11.772, -0.229 12.001, 1.405 14.495 C 2.342 15.925, 4.547 17.999, 6.304 19.102 C 8.755 20.641, 10.532 20.979, 13.930 20.549 C 17.578 20.088, 18.768 20.373, 20.676 22.165 C 21.950 23.362, 23.309 24.024, 23.696 23.637 C 24.084 23.250, 19.255 17.773, 12.967 11.466 C 6.678 5.160, 1.188 0, 0.766 0 M 11.750 3.004 C 10.238 3.002, 9 3.392, 9 3.872 C 9 4.352, 10.714 5.018, 12.808 5.353 C 14.957 5.697, 17.624 7.035, 18.930 8.426 C 20.638 10.244, 21.077 11.559, 20.603 13.445 C 20.241 14.888, 20.390 16, 20.946 16 C 21.487 16, 22.427 15.070, 23.036 13.933 C 23.899 12.321, 23.784 11.320, 22.517 9.385 C 21.623 8.021, 19.453 6.028, 17.696 4.956 C 15.938 3.884, 13.262 3.006, 11.750 3.004 M 6.463 8.316 C 5.892 8.128, 4.879 8.521, 4.213 9.188 C 3.546 9.854, 3 11.132, 3 12.026 C 3 12.920, 4.012 14.578, 5.250 15.711 C 6.488 16.843, 8.512 18.077, 9.750 18.452 C 10.988 18.828, 12.907 18.847, 14.015 18.495 C 15.123 18.144, 15.771 17.438, 15.456 16.928 C 15.140 16.418, 13.839 16, 12.563 16 C 11.288 16, 9.783 15.438, 9.218 14.750 C 8.654 14.063, 8.036 12.410, 7.846 11.078 C 7.656 9.746, 7.033 8.503, 6.463 8.316" stroke="none" fill="black" fill-rule="evenodd"/>
</svg>