<svg xmlns="http://www.w3.org/2000/svg" width="24" height="24" viewBox="0 0 24 24" version="1.1">
	<path d="M 0 0.686 C 0 1.063, 0.942 2.374, 2.094 3.600 L 4.187 5.828 1.944 8.862 C -0.207 11.772, -0.229 12.001, 1.405 14.495 C 4.347 18.985, 8.899 21.185, 13.930 20.549 C 17.578 20.088, 18.768 20.373, 20.676 22.165 C 21.950 23.362, 23.309 24.024, 23.696 23.637 C 24.411 22.922, 2.174 0, 0.766 0 C 0.345 0, 0 0.308, 0 0.686 M 9 3.872 C 9 4.352, 10.714 5.018, 12.808 5.353 C 17.808 6.153, 21.477 9.961, 20.603 13.445 C 19.831 16.522, 21.474 16.852, 23.036 13.933 C 24.431 11.327, 22.317 7.774, 17.696 4.956 C 14.439 2.970, 9 2.292, 9 3.872 M 4.213 9.188 C 0.383 13.017, 8.121 20.366, 14.015 18.495 C 16.583 17.680, 15.606 16, 12.563 16 C 9.833 16, 8.324 14.426, 7.846 11.078 C 7.442 8.253, 5.932 7.468, 4.213 9.188" stroke="none" fill="black" fill-rule="evenodd"/>
</svg>