<svg xmlns="http://www.w3.org/2000/svg" width="24" height="24" viewBox="0 0 24 24" version="1.1">
	<path d="M 11.800 3.004 C 10.535 3.006, 8.062 3.884, 6.304 4.956 C 4.547 6.028, 2.357 8.051, 1.439 9.452 C -0.120 11.832, -0.120 12.168, 1.439 14.548 C 2.357 15.949, 4.547 17.972, 6.304 19.044 C 8.062 20.116, 10.535 20.994, 11.800 20.996 C 13.064 20.998, 15.404 20.325, 16.998 19.501 C 18.592 18.677, 21.108 16.414, 22.588 14.474 C 24.068 12.533, 24.991 10.658, 24.639 10.306 C 24.288 9.954, 24 10.027, 24 10.468 C 24 10.909, 23.060 10.075, 21.912 8.615 C 20.763 7.155, 18.535 5.294, 16.961 4.480 C 15.387 3.666, 13.064 3.002, 11.800 3.004 M 13.452 5.557 C 11.828 5.297, 9.825 5.347, 9 5.669 C 8.175 5.991, 6.488 7.176, 5.250 8.302 C 4.012 9.427, 3 11.092, 3 12 C 3 12.908, 4.150 14.732, 5.556 16.053 C 7.350 17.738, 9.272 18.455, 12 18.455 C 14.728 18.455, 16.650 17.738, 18.444 16.053 C 19.850 14.732, 21 12.908, 21 12 C 21 11.092, 19.966 9.377, 18.702 8.190 C 17.438 7.002, 15.075 5.818, 13.452 5.557 M 12 8 C 11.035 8, 9.703 8.653, 9.040 9.452 C 8.377 10.251, 7.985 11.665, 8.167 12.595 C 8.350 13.525, 9.287 14.782, 10.250 15.388 C 11.525 16.190, 12.475 16.190, 13.750 15.388 C 14.713 14.782, 15.650 13.525, 15.833 12.595 C 16.015 11.665, 15.623 10.251, 14.960 9.452 C 14.297 8.653, 12.965 8, 12 8 M 12 10 C 11.515 10, 10.816 10.489, 10.446 11.087 C 10.077 11.685, 10.275 12.675, 10.887 13.287 C 11.704 14.104, 12.296 14.104, 13.113 13.287 C 13.725 12.675, 13.923 11.685, 13.554 11.087 C 13.184 10.489, 12.485 10, 12 10" stroke="none" fill="black" fill-rule="evenodd"/>
</svg>