<svg xmlns="http://www.w3.org/2000/svg" width="24" height="24" viewBox="0 0 24 24" version="1.1">
	<path d="M 6.304 4.956 C 4.547 6.028, 2.357 8.051, 1.439 9.452 C -0.120 11.832, -0.120 12.168, 1.439 14.548 C 3.525 17.731, 8.763 20.991, 11.800 20.996 C 13.064 20.998, 15.404 20.325, 16.998 19.501 C 20.214 17.838, 25.641 11.308, 24.639 10.306 C 24.288 9.954, 24 10.027, 24 10.468 C 24 10.909, 23.060 10.075, 21.912 8.615 C 19.430 5.460, 14.994 2.999, 11.800 3.004 C 10.535 3.006, 8.062 3.884, 6.304 4.956 M 9 5.669 C 6.410 6.680, 3 10.278, 3 12 C 3 15.027, 7.779 18.455, 12 18.455 C 16.221 18.455, 21 15.027, 21 12 C 21 8.197, 13.144 4.052, 9 5.669 M 9.040 9.452 C 7.485 11.325, 8.028 13.989, 10.250 15.388 C 13.715 17.570, 17.617 12.653, 14.960 9.452 C 13.416 7.591, 10.584 7.591, 9.040 9.452 M 10.446 11.087 C 9.416 12.755, 11.733 14.667, 13.113 13.287 C 14.267 12.133, 13.545 10, 12 10 C 11.515 10, 10.816 10.489, 10.446 11.087" stroke="none" fill="#000000" fill-rule="evenodd"/>
</svg>