<svg viewBox="0 0 24 24" xmlns="http://www.w3.org/2000/svg" fill="none" stroke="#000000" stroke-width="2" stroke-linecap="round" stroke-linejoin="round"><path d="M11.280 1.023 C 11.203 1.032,10.951 1.059,10.720 1.083 C 8.832 1.283,6.991 2.023,5.360 3.235 C 4.751 3.688,3.684 4.755,3.226 5.367 C 0.728 8.714,0.301 13.032,2.097 16.780 C 2.643 17.918,3.276 18.801,4.238 19.762 C 5.199 20.724,6.082 21.357,7.220 21.903 C 10.967 23.699,15.288 23.270,18.637 20.770 C 19.246 20.316,20.316 19.246,20.770 18.637 C 23.744 14.652,23.744 9.348,20.770 5.363 C 20.316 4.755,19.247 3.686,18.640 3.235 C 17.045 2.049,15.365 1.360,13.423 1.096 C 13.000 1.038,11.574 0.990,11.280 1.023 M13.320 3.101 C 15.883 3.488,18.124 4.931,19.560 7.120 C 19.863 7.583,20.303 8.479,20.492 9.020 C 20.838 10.013,20.977 10.865,20.977 12.000 C 20.977 13.493,20.720 14.621,20.080 15.940 C 19.375 17.394,18.311 18.607,16.927 19.532 C 16.138 20.060,14.876 20.588,13.908 20.797 C 11.266 21.366,8.479 20.708,6.370 19.019 C 4.857 17.807,3.722 16.029,3.267 14.160 C 3.081 13.397,3.023 12.888,3.023 12.000 C 3.023 10.507,3.280 9.379,3.920 8.060 C 4.971 5.891,6.877 4.221,9.160 3.466 C 9.865 3.233,10.432 3.118,11.340 3.024 C 11.662 2.991,12.911 3.039,13.320 3.101 M8.600 8.584 C 8.267 8.728,8.001 9.135,8.001 9.500 C 8.001 9.745,8.136 10.049,8.325 10.228 C 8.704 10.587,9.339 10.575,9.712 10.202 C 9.898 10.015,9.968 9.859,9.991 9.572 C 10.025 9.144,9.808 8.771,9.423 8.596 C 9.222 8.504,8.798 8.498,8.600 8.584 M14.600 8.584 C 14.267 8.728,14.001 9.135,14.001 9.500 C 14.001 9.745,14.136 10.049,14.325 10.228 C 14.704 10.587,15.339 10.575,15.712 10.202 C 15.930 9.984,15.979 9.855,15.979 9.500 C 15.979 9.145,15.930 9.016,15.712 8.798 C 15.640 8.727,15.509 8.635,15.421 8.595 C 15.222 8.504,14.797 8.499,14.600 8.584 M6.477 12.073 C 5.806 12.249,5.238 12.823,5.060 13.508 C 4.963 13.879,4.977 15.254,5.083 15.773 C 5.311 16.892,5.985 17.851,6.956 18.436 C 7.285 18.635,7.810 18.832,8.243 18.921 C 8.613 18.996,8.798 19.000,12.000 19.000 C 15.202 19.000,15.387 18.996,15.757 18.921 C 17.117 18.643,18.193 17.755,18.704 16.488 C 18.934 15.917,19.000 15.488,18.999 14.574 C 18.999 13.712,18.958 13.430,18.781 13.083 C 18.646 12.816,18.297 12.449,18.017 12.281 C 17.533 11.989,17.867 12.005,12.000 12.005 C 7.157 12.005,6.719 12.010,6.477 12.073 M16.999 14.590 C 16.998 15.558,16.879 15.919,16.400 16.404 C 16.119 16.690,15.854 16.846,15.492 16.940 C 15.150 17.029,8.850 17.029,8.508 16.940 C 7.823 16.762,7.249 16.194,7.073 15.523 C 7.023 15.331,7.004 15.090,7.002 14.630 L 7.000 14.000 12.000 14.000 L 17.000 14.000 16.999 14.590 " stroke="none" fill-rule="evenodd" fill="black"></path></svg>