<svg xmlns="http://www.w3.org/2000/svg" width="24" height="24" viewBox="0 0 24 24" version="1.1">
	<path d="M 13.403 1.438 C 11.256 1.210, 8.600 1.416, 7.500 1.894 C 6.400 2.373, 4.600 3.764, 3.500 4.987 C 2.078 6.568, 1.500 8.618, 1.500 12.082 C 1.500 16.074, 2.001 17.456, 4.273 19.727 C 6.557 22.011, 7.919 22.500, 12 22.500 C 16.081 22.500, 17.443 22.011, 19.727 19.727 C 22.011 17.443, 22.500 16.081, 22.500 12 C 22.500 7.999, 22 6.546, 19.903 4.448 C 18.256 2.802, 15.876 1.699, 13.403 1.438 M 12 3 C 9.848 3, 7.918 3.928, 5.923 5.923 C 3.928 7.918, 3 9.848, 3 12 C 3 14.152, 3.928 16.082, 5.923 18.077 C 7.918 20.072, 9.848 21, 12 21 C 14.152 21, 16.082 20.072, 18.077 18.077 C 20.072 16.082, 21 14.152, 21 12 C 21 9.848, 20.072 7.918, 18.077 5.923 C 16.082 3.928, 14.152 3, 12 3 M 12 9.455 C 9.800 9.455, 8 9.802, 8 10.227 C 8 10.652, 8.459 11, 9.019 11 C 9.586 11, 9.779 12.031, 9.455 13.324 C 9.084 14.799, 9.443 16.123, 10.436 16.947 C 11.718 18.011, 12.282 18.011, 13.564 16.947 C 14.557 16.123, 14.916 14.799, 14.545 13.324 C 14.221 12.031, 14.414 11, 14.981 11 C 15.541 11, 16 10.652, 16 10.227 C 16 9.802, 14.200 9.455, 12 9.455" stroke="none" fill="black" fill-rule="evenodd"/>
</svg>