<svg xmlns="http://www.w3.org/2000/svg" width="24" height="24" viewBox="0 0 24 24" version="1.1">
	<path d="M 13.403 1.438 C 11.256 1.210, 8.600 1.416, 7.500 1.894 C 6.400 2.373, 4.600 3.764, 3.500 4.987 C 2.078 6.568, 1.500 8.618, 1.500 12.082 C 1.500 16.074, 2.001 17.456, 4.273 19.727 C 6.557 22.011, 7.919 22.500, 12 22.500 C 16.081 22.500, 17.443 22.011, 19.727 19.727 C 22.011 17.443, 22.500 16.081, 22.500 12 C 22.500 7.999, 22 6.546, 19.903 4.448 C 18.256 2.802, 15.876 1.699, 13.403 1.438 M 12 3 C 9.848 3, 7.918 3.928, 5.923 5.923 C 3.928 7.918, 3 9.848, 3 12 C 3 14.152, 3.928 16.082, 5.923 18.077 C 7.918 20.072, 9.848 21, 12 21 C 14.152 21, 16.082 20.072, 18.077 18.077 C 20.072 16.082, 21 14.152, 21 12 C 21 9.848, 20.072 7.918, 18.077 5.923 C 16.082 3.928, 14.152 3, 12 3 M 12 9 L 5.783 9 6.446 11.750 C 6.811 13.262, 7.846 15.063, 8.746 15.750 C 9.646 16.438, 11.110 17, 12 17 C 12.890 17, 14.354 16.437, 15.254 15.750 C 16.154 15.063, 17.189 13.262, 17.554 11.750 L 18.217 9 12 9 M 12 11 C 10.350 11, 9 11.450, 9 12 C 9 12.550, 10.350 13, 12 13 C 13.650 13, 15 12.550, 15 12 C 15 11.450, 13.650 11, 12 11" stroke="none" fill="black" fill-rule="evenodd"/>
</svg>