<svg xmlns="http://www.w3.org/2000/svg" width="24" height="24" viewBox="0 0 24 24" version="1.1">
	<path d="M 13.403 1.438 C 11.256 1.210, 8.600 1.416, 7.500 1.894 C 6.400 2.373, 4.600 3.764, 3.500 4.987 C 2.078 6.568, 1.500 8.618, 1.500 12.082 C 1.500 16.074, 2.001 17.456, 4.273 19.727 C 6.557 22.011, 7.919 22.500, 12 22.500 C 16.081 22.500, 17.443 22.011, 19.727 19.727 C 22.011 17.443, 22.500 16.081, 22.500 12 C 22.500 7.999, 22 6.546, 19.903 4.448 C 18.256 2.802, 15.876 1.699, 13.403 1.438 M 12 3 C 9.848 3, 7.918 3.928, 5.923 5.923 C 3.928 7.918, 3 9.848, 3 12 C 3 14.152, 3.928 16.082, 5.923 18.077 C 7.918 20.072, 9.848 21, 12 21 C 14.152 21, 16.082 20.072, 18.077 18.077 C 20.072 16.082, 21 14.152, 21 12 C 21 9.848, 20.072 7.918, 18.077 5.923 C 16.082 3.928, 14.152 3, 12 3 M 9 8 C 8.450 8, 8 8.450, 8 9 C 8 9.550, 8.450 10, 9 10 C 9.550 10, 10 9.550, 10 9 C 10 8.450, 9.550 8, 9 8 M 15.085 8.553 C 14.564 8.231, 13.875 8.394, 13.553 8.915 C 13.231 9.436, 13.394 10.125, 13.915 10.447 C 14.436 10.769, 15.125 10.606, 15.447 10.085 C 15.769 9.564, 15.606 8.875, 15.085 8.553 M 7.514 13 C 7.231 13, 7 13.434, 7 13.965 C 7 14.495, 7.870 15.395, 8.934 15.965 C 9.998 16.534, 11.487 17, 12.243 17 C 12.999 17, 14.491 16.362, 15.557 15.582 C 16.624 14.802, 17.204 13.871, 16.846 13.512 C 16.488 13.154, 15.251 13.451, 14.097 14.171 C 12.417 15.221, 11.605 15.235, 10.014 14.241 C 8.921 13.558, 7.796 13, 7.514 13" stroke="none" fill="black" fill-rule="evenodd"/>
</svg>