<svg xmlns="http://www.w3.org/2000/svg" width="24" height="24" viewBox="0 0 24 24" version="1.1">
	<path d="M 7.500 1.894 C 3.457 3.652, 1.500 6.976, 1.500 12.082 C 1.500 16.074, 2.001 17.456, 4.273 19.727 C 6.557 22.011, 7.919 22.500, 12 22.500 C 19.011 22.500, 22.500 19.011, 22.500 12 C 22.500 7.999, 22 6.546, 19.903 4.448 C 17.099 1.644, 10.974 0.383, 7.500 1.894 M 5.923 5.923 C 3.928 7.918, 3 9.848, 3 12 C 3 16.302, 7.698 21, 12 21 C 14.152 21, 16.082 20.072, 18.077 18.077 C 22.007 14.147, 22.007 9.853, 18.077 5.923 C 14.147 1.993, 9.853 1.993, 5.923 5.923 M 7.200 9.200 C 5.437 10.963, 5.733 12, 8 12 C 9.333 12, 10 11.333, 10 10 C 10 7.733, 8.963 7.437, 7.200 9.200 M 12.200 9.200 C 10.437 10.963, 10.733 12, 13 12 C 14.333 12, 15 11.333, 15 10 C 15 7.733, 13.963 7.437, 12.200 9.200 M 7 15 C 7 15.550, 8.350 16, 10 16 C 11.650 16, 13 15.550, 13 15 C 13 14.450, 11.650 14, 10 14 C 8.350 14, 7 14.450, 7 15" stroke="none" fill="black" fill-rule="evenodd"/>
</svg>