<svg viewBox="0 0 24 24" xmlns="http://www.w3.org/2000/svg" fill="none" stroke="#000000" stroke-width="2" stroke-linecap="round" stroke-linejoin="round"><path d="M11.280 1.023 C 11.203 1.032,10.951 1.059,10.720 1.083 C 8.832 1.283,6.991 2.023,5.360 3.235 C 4.751 3.688,3.684 4.755,3.226 5.367 C 0.728 8.714,0.301 13.032,2.097 16.780 C 2.643 17.918,3.276 18.801,4.238 19.762 C 5.199 20.724,6.082 21.357,7.220 21.903 C 10.967 23.699,15.288 23.270,18.637 20.770 C 19.246 20.316,20.316 19.246,20.770 18.637 C 23.744 14.652,23.744 9.348,20.770 5.363 C 20.316 4.755,19.247 3.686,18.640 3.235 C 17.045 2.049,15.365 1.360,13.423 1.096 C 13.000 1.038,11.574 0.990,11.280 1.023 M13.320 3.101 C 15.883 3.488,18.124 4.931,19.560 7.120 C 19.863 7.583,20.303 8.479,20.492 9.020 C 20.838 10.013,20.977 10.865,20.977 12.000 C 20.977 13.493,20.720 14.621,20.080 15.940 C 19.375 17.394,18.311 18.607,16.927 19.532 C 16.138 20.060,14.876 20.588,13.908 20.797 C 11.266 21.366,8.479 20.708,6.370 19.019 C 4.857 17.807,3.722 16.029,3.267 14.160 C 3.081 13.397,3.023 12.888,3.023 12.000 C 3.023 10.507,3.280 9.379,3.920 8.060 C 4.971 5.891,6.877 4.221,9.160 3.466 C 9.865 3.233,10.432 3.118,11.340 3.024 C 11.662 2.991,12.911 3.039,13.320 3.101 M8.640 8.069 C 8.492 8.121,8.265 8.325,7.347 9.236 C 6.734 9.843,6.185 10.421,6.127 10.520 C 6.037 10.672,6.020 10.747,6.020 11.000 C 6.020 11.254,6.037 11.328,6.128 11.484 C 6.253 11.697,6.450 11.859,6.684 11.942 C 6.914 12.022,9.104 12.024,9.330 11.943 C 9.551 11.864,9.744 11.702,9.869 11.489 C 9.964 11.327,9.980 11.256,9.980 10.997 C 9.980 10.730,9.966 10.671,9.860 10.500 C 9.794 10.394,9.656 10.249,9.553 10.179 L 9.367 10.051 9.566 9.855 C 9.891 9.538,9.980 9.354,9.980 9.000 C 9.980 8.746,9.963 8.672,9.872 8.516 C 9.617 8.083,9.120 7.902,8.640 8.069 M13.640 8.069 C 13.492 8.121,13.265 8.325,12.347 9.236 C 11.734 9.843,11.185 10.421,11.127 10.520 C 11.037 10.672,11.020 10.747,11.020 11.000 C 11.020 11.254,11.037 11.328,11.128 11.484 C 11.253 11.697,11.450 11.859,11.684 11.942 C 11.914 12.022,14.104 12.024,14.330 11.943 C 14.551 11.864,14.744 11.702,14.869 11.489 C 14.964 11.327,14.980 11.256,14.980 10.997 C 14.980 10.730,14.966 10.671,14.860 10.500 C 14.794 10.394,14.656 10.249,14.553 10.179 L 14.367 10.051 14.566 9.855 C 14.891 9.538,14.980 9.354,14.980 9.000 C 14.980 8.746,14.963 8.672,14.872 8.516 C 14.617 8.083,14.120 7.902,13.640 8.069 M7.695 14.057 C 7.466 14.129,7.256 14.299,7.128 14.516 C 7.037 14.672,7.020 14.746,7.020 15.000 C 7.020 15.256,7.036 15.328,7.131 15.489 C 7.256 15.702,7.449 15.864,7.670 15.943 C 7.889 16.021,12.111 16.021,12.330 15.943 C 12.551 15.864,12.744 15.702,12.869 15.489 C 12.964 15.328,12.980 15.256,12.980 15.000 C 12.980 14.746,12.963 14.672,12.872 14.516 C 12.740 14.293,12.533 14.128,12.290 14.055 C 12.033 13.978,7.943 13.979,7.695 14.057 " stroke="none" fill-rule="evenodd" fill="black"></path></svg>