<svg xmlns="http://www.w3.org/2000/svg" width="24" height="24" viewBox="0 0 24 24" version="1.1">
	<path d="M 13.403 1.438 C 11.256 1.210, 8.600 1.416, 7.500 1.894 C 6.400 2.373, 4.600 3.764, 3.500 4.987 C 2.078 6.568, 1.500 8.618, 1.500 12.082 C 1.500 16.074, 2.001 17.456, 4.273 19.727 C 6.557 22.011, 7.919 22.500, 12 22.500 C 16.081 22.500, 17.443 22.011, 19.727 19.727 C 22.011 17.443, 22.500 16.081, 22.500 12 C 22.500 7.999, 22 6.546, 19.903 4.448 C 18.256 2.802, 15.876 1.699, 13.403 1.438 M 12 3 C 9.848 3, 7.918 3.928, 5.923 5.923 C 3.928 7.918, 3 9.848, 3 12 C 3 14.152, 3.928 16.082, 5.923 18.077 C 7.918 20.072, 9.848 21, 12 21 C 14.152 21, 16.082 20.072, 18.077 18.077 C 20.072 16.082, 21 14.152, 21 12 C 21 9.848, 20.072 7.918, 18.077 5.923 C 16.082 3.928, 14.152 3, 12 3 M 9.200 8 C 8.760 8, 7.860 8.540, 7.200 9.200 C 6.540 9.860, 6 10.760, 6 11.200 C 6 11.640, 6.900 12, 8 12 C 9.333 12, 10 11.333, 10 10 C 10 8.900, 9.640 8, 9.200 8 M 14.200 8 C 13.760 8, 12.860 8.540, 12.200 9.200 C 11.540 9.860, 11 10.760, 11 11.200 C 11 11.640, 11.900 12, 13 12 C 14.333 12, 15 11.333, 15 10 C 15 8.900, 14.640 8, 14.200 8 M 10 14 C 8.350 14, 7 14.450, 7 15 C 7 15.550, 8.350 16, 10 16 C 11.650 16, 13 15.550, 13 15 C 13 14.450, 11.650 14, 10 14" stroke="none" fill="black" fill-rule="evenodd"/>
</svg>