<svg xmlns="http://www.w3.org/2000/svg" width="24" height="24" viewBox="0 0 24 24" version="1.1">
	<path d="M 13.403 1.438 C 11.256 1.210, 8.600 1.416, 7.500 1.894 C 6.400 2.373, 4.600 3.764, 3.500 4.987 C 2.078 6.568, 1.500 8.618, 1.500 12.082 C 1.500 16.074, 2.001 17.456, 4.273 19.727 C 6.557 22.011, 7.919 22.500, 12 22.500 C 16.081 22.500, 17.443 22.011, 19.727 19.727 C 22.011 17.443, 22.500 16.081, 22.500 12 C 22.500 7.999, 22 6.546, 19.903 4.448 C 18.256 2.802, 15.876 1.699, 13.403 1.438 M 12 3 C 9.848 3, 7.918 3.928, 5.923 5.923 C 4.315 7.531, 3 9.331, 3 9.923 C 3 10.515, 4.405 11, 6.122 11 C 8.807 11, 9.067 10.786, 7.980 9.476 C 7.284 8.638, 7.001 7.665, 7.351 7.315 C 7.701 6.965, 8.890 7.496, 9.994 8.494 C 11.932 10.248, 12.068 10.248, 14.006 8.494 C 15.110 7.496, 16.299 6.965, 16.649 7.315 C 16.999 7.665, 16.716 8.638, 16.020 9.476 C 14.933 10.786, 15.193 11, 17.878 11 C 19.595 11, 21 10.515, 21 9.923 C 21 9.331, 19.685 7.531, 18.077 5.923 C 16.082 3.928, 14.152 3, 12 3 M 7.186 13 C 4.863 13, 3 13.479, 3 14.077 C 3 14.669, 4.315 16.469, 5.923 18.077 C 7.918 20.072, 9.848 21, 12 21 C 14.152 21, 16.082 20.072, 18.077 18.077 C 19.685 16.469, 21 14.669, 21 14.077 C 21 13.485, 19.595 13, 17.878 13 C 15.193 13, 14.933 13.214, 16.020 14.524 C 16.716 15.362, 16.994 16.339, 16.639 16.695 C 16.283 17.050, 14.952 16.364, 13.682 15.171 C 12.070 13.657, 10.104 13, 7.186 13" stroke="none" fill="black" fill-rule="evenodd"/>
</svg>