<svg xmlns="http://www.w3.org/2000/svg" width="24" height="24" viewBox="0 0 24 24" version="1.1">
	<path d="M 7.500 1.894 C 3.457 3.652, 1.500 6.976, 1.500 12.082 C 1.500 16.074, 2.001 17.456, 4.273 19.727 C 6.557 22.011, 7.919 22.500, 12 22.500 C 19.011 22.500, 22.500 19.011, 22.500 12 C 22.500 7.999, 22 6.546, 19.903 4.448 C 17.099 1.644, 10.974 0.383, 7.500 1.894 M 5.923 5.923 C 3.928 7.918, 3 9.848, 3 12 C 3 16.302, 7.698 21, 12 21 C 14.152 21, 16.082 20.072, 18.077 18.077 C 22.007 14.147, 22.007 9.853, 18.077 5.923 C 14.147 1.993, 9.853 1.993, 5.923 5.923 M 8 9 C 8 9.550, 8.450 10, 9 10 C 9.550 10, 10 9.550, 10 9 C 10 8.450, 9.550 8, 9 8 C 8.450 8, 8 8.450, 8 9 M 13.553 8.915 C 13.231 9.436, 13.394 10.125, 13.915 10.447 C 14.436 10.769, 15.125 10.606, 15.447 10.085 C 15.769 9.564, 15.606 8.875, 15.085 8.553 C 14.564 8.231, 13.875 8.394, 13.553 8.915 M 7 13.965 C 7 15.103, 10.278 17, 12.243 17 C 14.116 17, 17.653 14.320, 16.846 13.512 C 16.488 13.154, 15.251 13.451, 14.097 14.171 C 12.417 15.221, 11.605 15.235, 10.014 14.241 C 7.623 12.748, 7 12.691, 7 13.965" stroke="none" fill="#000000" fill-rule="evenodd"/>
</svg>