<svg xmlns="http://www.w3.org/2000/svg" width="24" height="24" viewBox="0 0 24 24" version="1.1">
	<path d="M 13.403 1.438 C 11.256 1.210, 8.600 1.416, 7.500 1.894 C 6.400 2.373, 4.600 3.764, 3.500 4.987 C 2.078 6.568, 1.500 8.618, 1.500 12.082 C 1.500 16.074, 2.001 17.456, 4.273 19.727 C 6.557 22.011, 7.919 22.500, 12 22.500 C 16.081 22.500, 17.443 22.011, 19.727 19.727 C 22.011 17.443, 22.500 16.081, 22.500 12 C 22.500 7.999, 22 6.546, 19.903 4.448 C 18.256 2.802, 15.876 1.699, 13.403 1.438 M 12 3 C 9.848 3, 7.918 3.928, 5.923 5.923 C 4.006 7.840, 3 9.867, 3 11.812 C 3 13.444, 3.788 15.740, 4.750 16.916 L 6.500 19.054 9.250 16.486 L 12 13.919 14.750 16.486 L 17.500 19.054 19.250 16.916 C 20.212 15.740, 21 13.444, 21 11.812 C 21 9.867, 19.994 7.840, 18.077 5.923 C 16.082 3.928, 14.152 3, 12 3 M 9 9 C 8.450 9, 8 9.450, 8 10 C 8 10.550, 8.450 11, 9 11 C 9.550 11, 10 10.550, 10 10 C 10 9.450, 9.550 9, 9 9 M 15 9 C 14.450 9, 14 9.450, 14 10 C 14 10.550, 14.450 11, 15 11 C 15.550 11, 16 10.550, 16 10 C 16 9.450, 15.550 9, 15 9 M 11.258 19.235 C 10.766 18.539, 10.057 18.277, 9.682 18.652 C 9.307 19.027, 9 19.708, 9 20.167 C 9 20.625, 10.350 21, 12 21 C 13.650 21, 15 20.577, 15 20.059 C 15 19.541, 14.588 18.864, 14.085 18.553 C 13.582 18.242, 12.942 18.553, 12.662 19.244 C 12.254 20.250, 11.974 20.248, 11.258 19.235" stroke="none" fill="black" fill-rule="evenodd"/>
</svg>