<svg xmlns="http://www.w3.org/2000/svg" width="24" height="24" viewBox="0 0 24 24" version="1.1">
	<path d="M 7.500 1.894 C 3.457 3.652, 1.500 6.976, 1.500 12.082 C 1.500 16.074, 2.001 17.456, 4.273 19.727 C 6.557 22.011, 7.919 22.500, 12 22.500 C 19.011 22.500, 22.500 19.011, 22.500 12 C 22.500 7.999, 22 6.546, 19.903 4.448 C 17.099 1.644, 10.974 0.383, 7.500 1.894 M 7.625 4.285 C 5.968 5.497, 5.990 5.681, 8.010 7.509 C 10.139 9.436, 10.165 9.433, 12.008 6.989 C 14.379 3.846, 15.809 5.116, 13.635 8.434 C 11.419 11.816, 11.577 12.693, 14.006 10.494 C 16.651 8.101, 17.162 8.829, 15.942 13.249 C 15.327 15.476, 14.146 17.136, 12.894 17.534 C 10.715 18.225, 8.649 17.030, 10.734 16.285 C 11.530 16, 10.660 14.278, 8.285 11.436 C 4.368 6.751, 3.044 6.974, 3.015 12.327 C 2.994 16.291, 7.872 21, 12 21 C 16.302 21, 21 16.302, 21 12 C 21 5.579, 12.534 0.696, 7.625 4.285" stroke="none" fill="black" fill-rule="evenodd"/>
</svg>