<svg xmlns="http://www.w3.org/2000/svg" width="24" height="24" viewBox="0 0 24 24" version="1.1">
	<path d="M 7.500 1.894 C 3.457 3.652, 1.500 6.976, 1.500 12.082 C 1.500 16.074, 2.001 17.456, 4.273 19.727 C 6.557 22.011, 7.919 22.500, 12 22.500 C 19.011 22.500, 22.500 19.011, 22.500 12 C 22.500 7.999, 22 6.546, 19.903 4.448 C 17.099 1.644, 10.974 0.383, 7.500 1.894 M 5.923 5.923 C 2.177 9.669, 2.229 11, 6.122 11 C 8.807 11, 9.067 10.786, 7.980 9.476 C 6.083 7.191, 7.689 6.408, 9.994 8.494 C 11.932 10.248, 12.068 10.248, 14.006 8.494 C 16.311 6.408, 17.917 7.191, 16.020 9.476 C 14.933 10.786, 15.193 11, 17.878 11 C 21.771 11, 21.823 9.669, 18.077 5.923 C 14.147 1.993, 9.853 1.993, 5.923 5.923 M 3 14.077 C 3 14.669, 4.315 16.469, 5.923 18.077 C 9.853 22.007, 14.147 22.007, 18.077 18.077 C 21.823 14.331, 21.771 13, 17.878 13 C 15.193 13, 14.933 13.214, 16.020 14.524 C 18.080 17.006, 16.191 17.528, 13.682 15.171 C 11.214 12.853, 3 12.012, 3 14.077" stroke="none" fill="black" fill-rule="evenodd"/>
</svg>