<svg xmlns="http://www.w3.org/2000/svg" width="24" height="24" viewBox="0 0 24 24" version="1.1">
	<path d="M 13.403 1.438 C 11.256 1.210, 8.600 1.416, 7.500 1.894 C 6.400 2.373, 4.600 3.764, 3.500 4.987 C 2.078 6.568, 1.500 8.618, 1.500 12.082 C 1.500 16.074, 2.001 17.456, 4.273 19.727 C 6.557 22.011, 7.919 22.500, 12 22.500 C 16.081 22.500, 17.443 22.011, 19.727 19.727 C 22.011 17.443, 22.500 16.081, 22.500 12 C 22.500 7.999, 22 6.546, 19.903 4.448 C 18.256 2.802, 15.876 1.699, 13.403 1.438 M 12 3 C 9.848 3, 7.918 3.928, 5.923 5.923 C 3.928 7.918, 3 9.848, 3 12 C 3 14.152, 3.928 16.082, 5.923 18.077 C 7.918 20.072, 9.848 21, 12 21 C 14.152 21, 16.082 20.072, 18.077 18.077 C 20.072 16.082, 21 14.152, 21 12 C 21 9.848, 20.072 7.918, 18.077 5.923 C 16.082 3.928, 14.152 3, 12 3 M 12 12 C 7.309 12, 5.795 12.370, 5.309 13.636 C 4.964 14.536, 5.140 15.998, 5.700 16.886 C 6.427 18.039, 8.226 18.500, 12 18.500 C 15.774 18.500, 17.573 18.039, 18.300 16.886 C 18.860 15.998, 19.036 14.536, 18.691 13.636 C 18.205 12.370, 16.691 12, 12 12 M 12 14 C 8.311 14, 6.953 14.358, 7.250 15.250 C 7.498 15.994, 9.422 16.500, 12 16.500 C 14.578 16.500, 16.502 15.994, 16.750 15.250 C 17.047 14.358, 15.689 14, 12 14" stroke="none" fill="black" fill-rule="evenodd"/>
</svg>