<svg xmlns="http://www.w3.org/2000/svg" width="24" height="24" viewBox="0 0 24 24" version="1.1">
	<path d="M 7.500 1.894 C 3.457 3.652, 1.500 6.976, 1.500 12.082 C 1.500 16.074, 2.001 17.456, 4.273 19.727 C 6.557 22.011, 7.919 22.500, 12 22.500 C 19.011 22.500, 22.500 19.011, 22.500 12 C 22.500 7.999, 22 6.546, 19.903 4.448 C 17.099 1.644, 10.974 0.383, 7.500 1.894 M 5.923 5.923 C 2.534 9.312, 2.072 13.645, 4.750 16.916 L 6.500 19.054 9.250 16.486 L 12 13.919 14.750 16.486 L 17.500 19.054 19.250 16.916 C 21.928 13.645, 21.466 9.312, 18.077 5.923 C 14.147 1.993, 9.853 1.993, 5.923 5.923 M 8 10 C 8 10.550, 8.450 11, 9 11 C 9.550 11, 10 10.550, 10 10 C 10 9.450, 9.550 9, 9 9 C 8.450 9, 8 9.450, 8 10 M 14 10 C 14 10.550, 14.450 11, 15 11 C 15.550 11, 16 10.550, 16 10 C 16 9.450, 15.550 9, 15 9 C 14.450 9, 14 9.450, 14 10 M 9.682 18.652 C 8.233 20.100, 9.122 21, 12 21 C 13.650 21, 15 20.577, 15 20.059 C 15 18.513, 13.211 17.889, 12.662 19.244 C 12.254 20.250, 11.974 20.248, 11.258 19.235 C 10.766 18.539, 10.057 18.277, 9.682 18.652" stroke="none" fill="#000000" fill-rule="evenodd"/>
</svg>