<svg xmlns="http://www.w3.org/2000/svg" width="24" height="24" viewBox="0 0 24 24" version="1.1">
	<path d="M 13.403 1.438 C 11.256 1.210, 8.600 1.416, 7.500 1.894 C 6.400 2.373, 4.600 3.764, 3.500 4.987 C 2.078 6.568, 1.500 8.618, 1.500 12.082 C 1.500 16.074, 2.001 17.456, 4.273 19.727 C 6.557 22.011, 7.919 22.500, 12 22.500 C 16.081 22.500, 17.443 22.011, 19.727 19.727 C 22.011 17.443, 22.500 16.081, 22.500 12 C 22.500 7.999, 22 6.546, 19.903 4.448 C 18.256 2.802, 15.876 1.699, 13.403 1.438 M 12.268 3 C 10.681 3, 8.591 3.578, 7.625 4.285 C 5.968 5.497, 5.990 5.681, 8.010 7.509 C 10.139 9.436, 10.165 9.433, 12.008 6.989 C 13.028 5.637, 14.180 4.847, 14.567 5.234 C 14.954 5.621, 14.535 7.061, 13.635 8.434 C 12.736 9.806, 12 11.240, 12 11.620 C 12 11.999, 12.903 11.493, 14.006 10.494 C 15.110 9.496, 16.222 8.889, 16.479 9.146 C 16.736 9.402, 16.494 11.249, 15.942 13.249 C 15.327 15.476, 14.146 17.136, 12.894 17.534 C 11.769 17.891, 10.546 17.855, 10.175 17.454 C 9.804 17.054, 10.056 16.528, 10.734 16.285 C 11.530 16, 10.660 14.278, 8.285 11.436 C 5.715 8.362, 4.363 7.402, 3.815 8.264 C 3.384 8.944, 3.024 10.772, 3.015 12.327 C 3.006 14.132, 4.056 16.210, 5.923 18.077 C 7.918 20.072, 9.848 21, 12 21 C 14.152 21, 16.082 20.072, 18.077 18.077 C 20.072 16.082, 21 14.152, 21 12 C 21 9.848, 20.072 7.918, 18.077 5.923 C 16.197 4.043, 14.124 3, 12.268 3" stroke="none" fill="black" fill-rule="evenodd"/>
</svg>