<svg xmlns="http://www.w3.org/2000/svg" width="24" height="24" viewBox="0 0 24 24" version="1.1">
	<path d="M 10.655 2.829 C 9.745 3.835, 9 5.635, 9 6.829 C 9 8.092, 8.373 9, 7.500 9 C 6.500 9, 6 10, 6 12 C 6 14, 6.500 15, 7.500 15 C 8.583 15, 9 16.111, 9 19 C 9 22.778, 9.167 23, 12 23 C 14.833 23, 15 22.778, 15 19 C 15 16.248, 15.434 15, 16.393 15 C 17.823 15, 19 12.931, 19 10.418 C 19 9.638, 18.100 9, 17 9 C 15.900 9, 15 8.550, 15 8 C 15 7.450, 15.900 7, 17 7 C 18.556 7, 19 6.333, 19 4 C 19 1.265, 18.705 1, 15.655 1 C 13.684 1, 11.630 1.751, 10.655 2.829 M 12.200 4.200 C 11.540 4.860, 11 6.660, 11 8.200 C 11 10.022, 10.476 11, 9.500 11 C 8.675 11, 8 11.450, 8 12 C 8 12.550, 8.675 13, 9.500 13 C 10.583 13, 11 14.111, 11 17 C 11 19.200, 11.450 21, 12 21 C 12.550 21, 13 19.200, 13 17 C 13 14.111, 13.417 13, 14.500 13 C 15.325 13, 16 12.550, 16 12 C 16 11.450, 15.325 11, 14.500 11 C 12.122 11, 12.566 5.926, 15 5.290 C 16.100 5.002, 17 4.369, 17 3.883 C 17 2.583, 13.592 2.808, 12.200 4.200" stroke="none" fill="#000000" fill-rule="evenodd"/>
</svg>