<svg xmlns="http://www.w3.org/2000/svg" width="24" height="24" viewBox="0 0 24 24" version="1.1">
	<path d="M 7.500 1.894 C 3.457 3.652, 1.500 6.976, 1.500 12.082 C 1.500 16.074, 2.001 17.456, 4.273 19.727 C 6.557 22.011, 7.919 22.500, 12 22.500 C 19.011 22.500, 22.500 19.011, 22.500 12 C 22.500 7.999, 22 6.546, 19.903 4.448 C 17.099 1.644, 10.974 0.383, 7.500 1.894 M 5.923 5.923 C 3.928 7.918, 3 9.848, 3 12 C 3 16.302, 7.698 21, 12 21 C 14.152 21, 16.082 20.072, 18.077 18.077 C 22.007 14.147, 22.007 9.853, 18.077 5.923 C 14.147 1.993, 9.853 1.993, 5.923 5.923 M 8 10.227 C 8 10.652, 8.459 11, 9.019 11 C 9.586 11, 9.779 12.031, 9.455 13.324 C 8.662 16.481, 11.311 18.816, 13.564 16.947 C 14.557 16.123, 14.916 14.799, 14.545 13.324 C 14.221 12.031, 14.414 11, 14.981 11 C 15.541 11, 16 10.652, 16 10.227 C 16 9.802, 14.200 9.455, 12 9.455 C 9.800 9.455, 8 9.802, 8 10.227" stroke="none" fill="#000000" fill-rule="evenodd"/>
</svg>