<svg xmlns="http://www.w3.org/2000/svg" width="24" height="24" viewBox="0 0 24 24" version="1.1">
	<path d="M 7.500 1.894 C 3.457 3.652, 1.500 6.976, 1.500 12.082 C 1.500 16.074, 2.001 17.456, 4.273 19.727 C 6.557 22.011, 7.919 22.500, 12 22.500 C 19.011 22.500, 22.500 19.011, 22.500 12 C 22.500 7.999, 22 6.546, 19.903 4.448 C 17.099 1.644, 10.974 0.383, 7.500 1.894 M 5.923 5.923 C 3.928 7.918, 3 9.848, 3 12 C 3 16.302, 7.698 21, 12 21 C 14.152 21, 16.082 20.072, 18.077 18.077 C 22.007 14.147, 22.007 9.853, 18.077 5.923 C 14.147 1.993, 9.853 1.993, 5.923 5.923 M 5.309 13.636 C 4.086 16.824, 6.391 18.500, 12 18.500 C 17.609 18.500, 19.914 16.824, 18.691 13.636 C 18.205 12.370, 16.691 12, 12 12 C 7.309 12, 5.795 12.370, 5.309 13.636 M 7.250 15.250 C 7.498 15.994, 9.422 16.500, 12 16.500 C 14.578 16.500, 16.502 15.994, 16.750 15.250 C 17.047 14.358, 15.689 14, 12 14 C 8.311 14, 6.953 14.358, 7.250 15.250" stroke="none" fill="#000000" fill-rule="evenodd"/>
</svg>