<svg xmlns="http://www.w3.org/2000/svg" width="24" height="24" viewBox="0 0 24 24" version="1.1">
	<path d="M 12 1 C 8.557 1, 7.187 1.613, 4.400 4.400 C 1.613 7.187, 1 8.557, 1 12 C 1 15.443, 1.613 16.813, 4.400 19.600 C 7.187 22.387, 8.557 23, 12 23 C 15.443 23, 16.813 22.387, 19.600 19.600 C 22.387 16.813, 23 15.443, 23 12 C 23 8.557, 22.387 7.187, 19.600 4.400 C 16.813 1.613, 15.443 1, 12 1 M 13.497 3.498 C 11.848 3.196, 9.375 3.536, 8 4.253 C 6.625 4.971, 4.905 6.799, 4.178 8.315 C 3.425 9.887, 3.127 12.301, 3.485 13.932 C 3.831 15.505, 5.024 17.617, 6.137 18.624 C 7.372 19.742, 9.684 20.455, 12.075 20.455 C 14.792 20.455, 16.673 19.772, 18.222 18.222 C 19.786 16.658, 20.455 14.795, 20.455 12 C 20.455 9.356, 19.786 7.342, 18.474 6.029 C 17.384 4.940, 15.145 3.801, 13.497 3.498 M 9 8 C 8.450 8, 8 8.450, 8 9 C 8 9.550, 8.450 10, 9 10 C 9.550 10, 10 9.550, 10 9 C 10 8.450, 9.550 8, 9 8 M 15 8 C 14.450 8, 14 8.450, 14 9 C 14 9.550, 14.450 10, 15 10 C 15.550 10, 16 9.550, 16 9 C 16 8.450, 15.550 8, 15 8 M 12 14 C 9.250 14, 7 14.450, 7 15 C 7 15.550, 9.250 16, 12 16 C 14.750 16, 17 15.550, 17 15 C 17 14.450, 14.750 14, 12 14" stroke="none" fill="black" fill-rule="evenodd"/>
</svg>