<svg xmlns="http://www.w3.org/2000/svg" width="24" height="24" viewBox="0 0 24 24" version="1.1">
	<path d="M 3.941 7 C 3.423 7, 3 10.150, 3 14 C 3 18, 2.571 21, 2 21 C 1.450 21, 1 21.450, 1 22 C 1 22.606, 5.333 23, 12 23 C 18.667 23, 23 22.606, 23 22 C 23 21.450, 22.550 21, 22 21 C 21.429 21, 21 18, 21 14 C 21 10.150, 20.577 7, 20.059 7 C 19.541 7, 18.810 7.498, 18.434 8.107 C 17.954 8.883, 17.507 8.820, 16.936 7.897 C 16.290 6.851, 15.698 6.963, 14.061 8.445 C 12.050 10.265, 11.950 10.265, 9.939 8.445 C 8.302 6.963, 7.710 6.851, 7.064 7.897 C 6.493 8.820, 6.046 8.883, 5.566 8.107 C 5.190 7.498, 4.459 7, 3.941 7 M 6 11.500 C 5.384 11.119, 5 12.823, 5 15.941 C 5 18.723, 5.450 21, 6 21 C 6.550 21, 7 19.002, 7 16.559 C 7 14.116, 6.550 11.840, 6 11.500 M 10.500 12 C 9.200 10.921, 9 11.438, 9 15.878 C 9 20.902, 9.057 21, 12 21 C 14.943 21, 15 20.902, 15 15.878 C 15 11.438, 14.800 10.921, 13.500 12 C 12.303 12.993, 11.697 12.993, 10.500 12 M 18.667 11 C 18.483 11, 18.033 11.300, 17.667 11.667 C 17.300 12.033, 17 14.283, 17 16.667 C 17 19.050, 17.450 21, 18 21 C 18.550 21, 19 18.750, 19 16 C 19 13.250, 18.850 11, 18.667 11" stroke="none" fill="black" fill-rule="evenodd"/>
</svg>