<svg xmlns="http://www.w3.org/2000/svg" width="24" height="24" viewBox="0 0 24 24" version="1.1">
	<path d="M 1.453 2.261 C 1.160 3.025, 1.051 7.891, 1.210 13.075 L 1.500 22.500 12 22.500 L 22.500 22.500 22.792 14.750 C 22.953 10.487, 22.676 7, 22.177 7 C 21.678 7, 20.084 7.933, 18.635 9.073 L 16 11.145 16 9.073 C 16 6.468, 14.959 6.458, 11.691 9.029 L 9.112 11.057 8.806 6.279 C 8.512 1.690, 8.371 1.488, 5.243 1.186 C 3.152 0.985, 1.795 1.370, 1.453 2.261 M 3 12 L 3 21 12 21 L 21 21 21 15.427 L 21 9.855 18.365 11.927 C 15.041 14.542, 14 14.542, 14 11.927 L 14 9.855 11.365 11.927 C 9.916 13.067, 8.341 14, 7.865 14 C 7.389 14, 7 11.525, 7 8.500 C 7 3.667, 6.758 3, 5 3 C 3.148 3, 3 3.667, 3 12 M 6 18 C 6 18.550, 6.675 19, 7.500 19 C 8.325 19, 9 18.550, 9 18 C 9 17.450, 8.325 17, 7.500 17 C 6.675 17, 6 17.450, 6 18 M 11 18 C 11 18.550, 11.675 19, 12.500 19 C 13.325 19, 14 18.550, 14 18 C 14 17.450, 13.325 17, 12.500 17 C 11.675 17, 11 17.450, 11 18 M 16 18 C 16 18.550, 16.675 19, 17.500 19 C 18.325 19, 19 18.550, 19 18 C 19 17.450, 18.325 17, 17.500 17 C 16.675 17, 16 17.450, 16 18" stroke="none" fill="black" fill-rule="evenodd"/>
</svg>