<svg xmlns="http://www.w3.org/2000/svg" width="24" height="24" viewBox="0 0 24 24" version="1.1">
	<path d="M 4 2 C 3.450 2, 3 2.863, 3 3.917 C 3 4.971, 2.438 6.096, 1.750 6.417 C 0.750 6.883, 0.750 7.117, 1.750 7.583 C 2.438 7.904, 3 9.892, 3 12 C 3 14.108, 2.438 16.096, 1.750 16.417 C 0.750 16.883, 0.750 17.117, 1.750 17.583 C 2.438 17.904, 3 19.029, 3 20.083 C 3 21.137, 3.450 22, 4 22 C 4.550 22, 5 21.100, 5 20 C 5 18.900, 5.450 18, 6 18 C 6.550 18, 7 18.900, 7 20 C 7 21.100, 7.450 22, 8 22 C 8.550 22, 9 21.100, 9 20 C 9 18.900, 9.450 18, 10 18 C 10.550 18, 11 18.900, 11 20 C 11 21.100, 11.450 22, 12 22 C 12.550 22, 13 21.100, 13 20 C 13 18.900, 13.450 18, 14 18 C 14.550 18, 15 18.900, 15 20 C 15 21.100, 15.450 22, 16 22 C 16.550 22, 17 21.100, 17 20 C 17 18.900, 17.450 18, 18 18 C 18.550 18, 19 18.900, 19 20 C 19 21.100, 19.450 22, 20 22 C 20.550 22, 21 21.138, 21 20.083 C 21 19.029, 21.562 17.904, 22.250 17.583 C 23.250 17.117, 23.250 16.883, 22.250 16.417 C 21.562 16.096, 21 14.108, 21 12 C 21 9.892, 21.562 7.904, 22.250 7.583 C 23.250 7.117, 23.250 6.883, 22.250 6.417 C 21.562 6.096, 21 4.971, 21 3.917 C 21 2.862, 20.550 2, 20 2 C 19.450 2, 19 2.900, 19 4 C 19 5.100, 18.550 6, 18 6 C 17.450 6, 17 5.100, 17 4 C 17 2.900, 16.550 2, 16 2 C 15.450 2, 15 2.900, 15 4 C 15 5.100, 14.550 6, 14 6 C 13.450 6, 13 5.100, 13 4 C 13 2.900, 12.550 2, 12 2 C 11.450 2, 11 2.900, 11 4 C 11 5.100, 10.550 6, 10 6 C 9.450 6, 9 5.100, 9 4 C 9 2.900, 8.550 2, 8 2 C 7.450 2, 7 2.900, 7 4 C 7 5.100, 6.550 6, 6 6 C 5.450 6, 5 5.100, 5 4 C 5 2.900, 4.550 2, 4 2 M 6 8 C 5.450 8, 5 9.800, 5 12 C 5 14.200, 5.450 16, 6 16 C 6.550 16, 7 14.200, 7 12 C 7 9.800, 6.550 8, 6 8 M 10 8 C 9.450 8, 9 9.800, 9 12 C 9 14.200, 9.450 16, 10 16 C 10.550 16, 11 14.200, 11 12 C 11 9.800, 10.550 8, 10 8 M 14 8 C 13.450 8, 13 9.800, 13 12 C 13 14.200, 13.450 16, 14 16 C 14.550 16, 15 14.200, 15 12 C 15 9.800, 14.550 8, 14 8 M 18 8 C 17.450 8, 17 9.800, 17 12 C 17 14.200, 17.450 16, 18 16 C 18.550 16, 19 14.200, 19 12 C 19 9.800, 18.550 8, 18 8" stroke="none" fill="black" fill-rule="evenodd"/>
</svg>