<svg xmlns="http://www.w3.org/2000/svg" width="24" height="24" viewBox="0 0 24 24" version="1.1">
	<path d="M 11.922 1 C 8.583 1, 5.831 1.515, 5.240 2.250 C 4.687 2.938, 4.235 7.550, 4.235 12.500 C 4.235 17.450, 4.687 22.063, 5.240 22.750 C 5.793 23.438, 7.225 24, 8.422 24 C 9.620 24, 11.140 23.460, 11.800 22.800 C 12.460 22.140, 13 18.990, 13 15.800 C 13 10.414, 13.164 10, 15.300 10 C 16.565 10, 18.140 9.460, 18.800 8.800 C 19.460 8.140, 20 6.655, 20 5.500 C 20 4.345, 19.460 2.860, 18.800 2.200 C 18.140 1.540, 15.045 1, 11.922 1 M 8.969 3 C 7.851 3, 6.686 3.653, 6.380 4.452 C 6.074 5.251, 6.114 6.376, 6.470 6.952 C 6.827 7.528, 7.991 8, 9.059 8 C 10.463 8, 11 7.308, 11 5.500 C 11 3.654, 10.469 3, 8.969 3 M 15.250 3.180 C 13.404 2.918, 13 3.335, 13 5.500 C 13 7.665, 13.404 8.082, 15.250 7.820 C 16.727 7.610, 17.500 6.813, 17.500 5.500 C 17.500 4.187, 16.727 3.390, 15.250 3.180 M 9.154 10 C 8.654 10, 7.734 10.615, 7.110 11.367 C 6.246 12.409, 6.346 13.042, 7.530 14.025 C 8.652 14.956, 9.388 15.012, 10.175 14.225 C 10.775 13.625, 10.995 12.429, 10.664 11.567 C 10.333 10.705, 9.654 10, 9.154 10 M 8.969 17 C 7.851 17, 6.667 17.705, 6.336 18.567 C 6.005 19.429, 6.214 20.614, 6.800 21.200 C 7.386 21.786, 8.571 21.995, 9.433 21.664 C 10.295 21.333, 11 20.149, 11 19.031 C 11 17.656, 10.344 17, 8.969 17" stroke="none" fill="black" fill-rule="evenodd"/>
</svg>