<svg viewBox="0 0 24 24" xmlns="http://www.w3.org/2000/svg" fill="none" stroke="#000000" stroke-width="2" stroke-linecap="round" stroke-linejoin="round"><path d="M7.900 1.045 C 6.474 1.223,5.124 2.192,4.464 3.511 C 4.066 4.305,3.910 5.356,4.062 6.225 C 4.228 7.177,4.653 8.001,5.322 8.668 L 5.650 8.996 5.372 9.268 C 3.541 11.059,3.541 13.941,5.372 15.732 L 5.650 16.004 5.322 16.332 C 3.846 17.804,3.581 20.082,4.677 21.864 C 5.287 22.855,6.242 23.550,7.437 23.871 C 7.778 23.963,7.895 23.974,8.500 23.974 C 9.105 23.974,9.222 23.963,9.563 23.871 C 11.250 23.417,12.404 22.264,12.874 20.563 L 12.980 20.180 12.991 15.093 L 13.002 10.006 14.591 9.991 C 16.152 9.976,16.187 9.974,16.563 9.872 C 17.535 9.609,18.242 9.173,18.904 8.432 C 19.538 7.721,19.939 6.717,19.988 5.717 C 20.103 3.380,18.379 1.329,16.060 1.044 C 15.624 0.991,8.328 0.992,7.900 1.045 M11.000 5.503 L 11.000 8.005 9.490 7.992 L 7.980 7.979 7.680 7.869 C 7.066 7.644,6.561 7.195,6.277 6.620 C 5.910 5.878,5.913 5.118,6.285 4.362 C 6.515 3.897,6.896 3.515,7.362 3.285 C 7.890 3.024,8.029 3.007,9.610 3.003 L 11.000 3.000 11.000 5.503 M16.020 3.060 C 16.741 3.211,17.395 3.713,17.715 4.362 C 18.087 5.118,18.090 5.878,17.723 6.620 C 17.439 7.195,16.934 7.644,16.320 7.869 L 16.020 7.979 14.510 7.992 L 13.000 8.005 13.000 5.503 L 13.000 3.000 14.370 3.001 C 15.417 3.001,15.806 3.015,16.020 3.060 M9.020 10.060 C 9.741 10.211,10.395 10.713,10.715 11.362 C 11.087 12.118,11.090 12.878,10.723 13.620 C 10.439 14.196,9.931 14.647,9.320 14.867 C 9.058 14.962,8.959 14.976,8.540 14.977 C 8.154 14.978,8.005 14.961,7.780 14.891 C 7.005 14.647,6.352 13.994,6.110 13.220 C 6.042 13.003,6.022 12.841,6.022 12.500 C 6.022 11.798,6.237 11.263,6.715 10.773 C 7.334 10.140,8.168 9.882,9.020 10.060 M10.999 18.370 C 10.999 19.930,10.977 20.107,10.723 20.620 C 10.439 21.195,9.932 21.646,9.320 21.868 C 9.052 21.965,8.965 21.976,8.500 21.976 C 8.035 21.976,7.948 21.965,7.680 21.868 C 7.068 21.646,6.561 21.195,6.277 20.620 C 5.910 19.878,5.913 19.118,6.285 18.362 C 6.515 17.897,6.896 17.515,7.362 17.285 C 7.890 17.024,8.029 17.007,9.610 17.003 L 11.000 17.000 10.999 18.370 " stroke="none" fill-rule="evenodd" fill="black"></path></svg>