<svg xmlns="http://www.w3.org/2000/svg" width="24" height="24" viewBox="0 0 24 24" version="1.1">
	<path d="M 5.240 2.250 C 3.931 3.877, 3.931 21.123, 5.240 22.750 C 6.517 24.338, 10.234 24.366, 11.800 22.800 C 12.460 22.140, 13 18.990, 13 15.800 C 13 10.414, 13.164 10, 15.300 10 C 19.474 10, 21.681 5.081, 18.800 2.200 C 17.198 0.598, 6.537 0.637, 5.240 2.250 M 6.380 4.452 C 5.605 6.473, 6.758 8, 9.059 8 C 10.463 8, 11 7.308, 11 5.500 C 11 3.654, 10.469 3, 8.969 3 C 7.851 3, 6.686 3.653, 6.380 4.452 M 13 5.500 C 13 7.665, 13.404 8.082, 15.250 7.820 C 16.727 7.610, 17.500 6.813, 17.500 5.500 C 17.500 4.187, 16.727 3.390, 15.250 3.180 C 13.404 2.918, 13 3.335, 13 5.500 M 7.110 11.367 C 6.246 12.409, 6.346 13.042, 7.530 14.025 C 9.441 15.611, 11.574 13.939, 10.664 11.567 C 9.923 9.637, 8.608 9.563, 7.110 11.367 M 6.336 18.567 C 6.005 19.429, 6.214 20.614, 6.800 21.200 C 8.355 22.755, 11 21.390, 11 19.031 C 11 16.565, 7.247 16.192, 6.336 18.567" stroke="none" fill="black" fill-rule="evenodd"/>
</svg>