<svg viewBox="0 0 24 24" xmlns="http://www.w3.org/2000/svg" fill="none" stroke="#000000" stroke-width="2" stroke-linecap="round" stroke-linejoin="round"><path d="M5.499 1.043 C 4.380 1.232,3.461 2.048,3.114 3.160 L 3.020 3.460 3.020 12.000 L 3.020 20.540 3.114 20.840 C 3.422 21.827,4.173 22.578,5.160 22.886 L 5.460 22.980 12.000 22.980 L 18.540 22.980 18.840 22.886 C 19.827 22.578,20.578 21.827,20.886 20.840 L 20.980 20.540 20.980 13.880 C 20.980 7.483,20.977 7.214,20.906 7.080 C 20.804 6.887,15.140 1.217,14.940 1.107 L 14.780 1.020 10.240 1.014 C 7.743 1.011,5.609 1.024,5.499 1.043 M13.002 5.590 C 13.003 7.649,13.014 8.211,13.057 8.330 C 13.136 8.551,13.298 8.744,13.511 8.869 L 13.700 8.980 16.350 8.991 L 19.000 9.002 19.000 14.555 C 19.000 19.144,18.990 20.139,18.945 20.290 C 18.872 20.533,18.707 20.740,18.484 20.872 L 18.300 20.980 12.000 20.980 L 5.700 20.980 5.516 20.872 C 5.415 20.813,5.284 20.700,5.225 20.623 C 4.985 20.308,5.000 20.888,5.000 12.022 C 5.000 2.888,4.974 3.632,5.304 3.303 C 5.615 2.991,5.409 3.006,9.430 3.003 L 13.000 3.000 13.002 5.590 M16.560 5.460 L 18.100 7.000 16.550 7.000 L 15.000 7.000 15.000 5.460 C 15.000 4.613,15.005 3.920,15.010 3.920 C 15.016 3.920,15.713 4.613,16.560 5.460 M11.695 10.057 C 11.466 10.129,11.256 10.299,11.128 10.516 L 11.020 10.700 11.020 15.003 L 11.020 19.306 11.141 19.503 C 11.543 20.156,12.457 20.156,12.859 19.503 L 12.980 19.306 12.980 15.003 L 12.980 10.700 12.872 10.516 C 12.628 10.101,12.150 9.915,11.695 10.057 M7.695 12.057 C 7.466 12.129,7.256 12.299,7.128 12.516 L 7.020 12.700 7.020 15.003 L 7.020 17.306 7.141 17.503 C 7.209 17.613,7.346 17.756,7.452 17.828 C 7.923 18.144,8.554 17.999,8.859 17.503 L 8.980 17.306 8.980 15.003 L 8.980 12.700 8.872 12.516 C 8.628 12.101,8.150 11.915,7.695 12.057 M15.695 12.057 C 15.466 12.129,15.256 12.299,15.128 12.516 L 15.020 12.700 15.020 15.003 L 15.020 17.306 15.141 17.503 C 15.209 17.613,15.346 17.756,15.452 17.828 C 15.923 18.144,16.554 17.999,16.859 17.503 L 16.980 17.306 16.980 15.003 L 16.980 12.700 16.872 12.516 C 16.628 12.101,16.150 11.915,15.695 12.057 " stroke="none" fill-rule="evenodd" fill="black"></path></svg>