<svg viewBox="0 0 24 24" xmlns="http://www.w3.org/2000/svg" fill="none" stroke="#000000" stroke-width="2" stroke-linecap="round" stroke-linejoin="round"><path d="M5.499 1.043 C 4.380 1.232,3.461 2.048,3.114 3.160 L 3.020 3.460 3.020 12.000 L 3.020 20.540 3.114 20.840 C 3.422 21.827,4.173 22.578,5.160 22.886 L 5.460 22.980 12.000 22.980 L 18.540 22.980 18.840 22.886 C 19.827 22.578,20.578 21.827,20.886 20.840 L 20.980 20.540 20.980 13.880 C 20.980 7.483,20.977 7.214,20.906 7.080 C 20.804 6.887,15.140 1.217,14.940 1.107 L 14.780 1.020 10.240 1.014 C 7.743 1.011,5.609 1.024,5.499 1.043 M13.002 5.590 C 13.003 7.649,13.014 8.211,13.057 8.330 C 13.136 8.551,13.298 8.744,13.511 8.869 L 13.700 8.980 16.350 8.991 L 19.000 9.002 19.000 14.555 C 19.000 19.144,18.990 20.139,18.945 20.290 C 18.872 20.533,18.707 20.740,18.484 20.872 L 18.300 20.980 12.000 20.980 L 5.700 20.980 5.516 20.872 C 5.415 20.813,5.284 20.700,5.225 20.623 C 4.985 20.308,5.000 20.888,5.000 12.022 C 5.000 2.888,4.974 3.632,5.304 3.303 C 5.615 2.991,5.409 3.006,9.430 3.003 L 13.000 3.000 13.002 5.590 M16.560 5.460 L 18.100 7.000 16.550 7.000 L 15.000 7.000 15.000 5.460 C 15.000 4.613,15.005 3.920,15.010 3.920 C 15.016 3.920,15.713 4.613,16.560 5.460 M8.640 12.069 C 8.492 12.121,8.265 12.325,7.347 13.236 C 6.734 13.843,6.185 14.421,6.127 14.520 C 6.037 14.672,6.020 14.747,6.020 15.000 C 6.020 15.254,6.036 15.328,6.127 15.480 C 6.260 15.703,8.367 17.803,8.560 17.905 C 8.659 17.957,8.787 17.979,9.000 17.979 C 9.258 17.980,9.327 17.964,9.492 17.867 C 9.714 17.737,9.901 17.498,9.965 17.264 C 10.019 17.061,9.989 16.733,9.899 16.555 C 9.861 16.481,9.514 16.101,9.127 15.710 L 8.423 15.000 9.127 14.290 C 9.514 13.900,9.864 13.517,9.904 13.440 C 9.957 13.340,9.979 13.213,9.979 13.000 C 9.980 12.745,9.964 12.672,9.872 12.516 C 9.617 12.083,9.120 11.902,8.640 12.069 M14.670 12.061 C 14.448 12.142,14.250 12.309,14.128 12.516 C 14.036 12.672,14.020 12.745,14.021 13.000 C 14.021 13.213,14.043 13.340,14.096 13.440 C 14.136 13.517,14.486 13.900,14.873 14.290 L 15.577 15.000 14.873 15.710 C 14.486 16.101,14.139 16.481,14.101 16.555 C 13.872 17.008,14.056 17.601,14.508 17.867 C 14.673 17.964,14.742 17.980,15.000 17.979 C 15.213 17.979,15.341 17.957,15.440 17.905 C 15.633 17.803,17.740 15.703,17.873 15.480 C 17.964 15.328,17.980 15.254,17.980 15.000 C 17.980 14.747,17.963 14.672,17.873 14.520 C 17.815 14.421,17.266 13.843,16.653 13.236 C 15.680 12.271,15.515 12.124,15.343 12.066 C 15.108 11.987,14.875 11.985,14.670 12.061 " stroke="none" fill-rule="evenodd" fill="black"></path></svg>