<svg xmlns="http://www.w3.org/2000/svg" width="24" height="24" viewBox="0 0 24 24" version="1.1">
	<path d="M 9.782 1 C 5.852 1, 3.771 1.434, 3.429 2.325 C 3.149 3.054, 3.051 7.891, 3.210 13.075 L 3.500 22.500 12 22.500 L 20.500 22.500 20.795 14.601 C 21.072 7.167, 20.929 6.535, 18.358 3.851 C 15.964 1.353, 14.902 1, 9.782 1 M 9 3 L 5 3 5 12 L 5 21 12 21 L 19 21 19 15 L 19 9 16 9 C 13.333 9, 13 8.667, 13 6 C 13 3.167, 12.778 3, 9 3 M 15.441 5 C 15.198 5, 15 5.450, 15 6 C 15 6.550, 15.477 7, 16.059 7 C 16.641 7, 16.840 6.550, 16.500 6 C 16.160 5.450, 15.684 5, 15.441 5 M 12 10 C 11.450 10, 11 10.675, 11 11.500 C 11 12.325, 10.325 13, 9.500 13 C 8.675 13, 8 13.450, 8 14 C 8 14.550, 8.675 15, 9.500 15 C 10.325 15, 11 15.675, 11 16.500 C 11 17.325, 11.450 18, 12 18 C 12.550 18, 13 17.325, 13 16.500 C 13 15.675, 13.675 15, 14.500 15 C 15.325 15, 16 14.550, 16 14 C 16 13.450, 15.325 13, 14.500 13 C 13.675 13, 13 12.325, 13 11.500 C 13 10.675, 12.550 10, 12 10" stroke="none" fill="black" fill-rule="evenodd"/>
</svg>