<svg xmlns="http://www.w3.org/2000/svg" width="24" height="24" viewBox="0 0 24 24" version="1.1">
	<path d="M 9.782 1 C 5.852 1, 3.771 1.434, 3.429 2.325 C 3.149 3.054, 3.051 7.891, 3.210 13.075 L 3.500 22.500 12 22.500 L 20.500 22.500 20.795 14.601 C 21.072 7.167, 20.929 6.535, 18.358 3.851 C 15.964 1.353, 14.902 1, 9.782 1 M 9 3 L 5 3 5 12 L 5 21 12 21 L 19 21 19 15 L 19 9 16 9 C 13.333 9, 13 8.667, 13 6 C 13 3.167, 12.778 3, 9 3 M 15.441 5 C 15.198 5, 15 5.450, 15 6 C 15 6.550, 15.477 7, 16.059 7 C 16.641 7, 16.840 6.550, 16.500 6 C 16.160 5.450, 15.684 5, 15.441 5 M 9 8 C 7.900 8, 7 8.450, 7 9 C 7 9.550, 7.900 10, 9 10 C 10.100 10, 11 9.550, 11 9 C 11 8.450, 10.100 8, 9 8 M 12 12 C 9.250 12, 7 12.450, 7 13 C 7 13.550, 9.250 14, 12 14 C 14.750 14, 17 13.550, 17 13 C 17 12.450, 14.750 12, 12 12 M 12 16 C 9.250 16, 7 16.450, 7 17 C 7 17.550, 9.250 18, 12 18 C 14.750 18, 17 17.550, 17 17 C 17 16.450, 14.750 16, 12 16" stroke="none" fill="black" fill-rule="evenodd"/>
</svg>