<svg xmlns="http://www.w3.org/2000/svg" width="24" height="24" viewBox="0 0 24 24" version="1.1">
	<path d="M 9.272 1 C 5.766 1, 3.763 1.454, 3.429 2.325 C 3.149 3.054, 3.051 7.891, 3.210 13.075 L 3.500 22.500 12 22.500 L 20.500 22.500 20.797 15.096 C 21.084 7.928, 20.991 7.586, 17.851 4.346 C 14.971 1.375, 14.010 1, 9.272 1 M 9 3 L 5 3 5 12 L 5 21 12 21 L 19 21 19 15 L 19 9 16 9 C 13.333 9, 13 8.667, 13 6 C 13 3.167, 12.778 3, 9 3 M 15.378 4 C 15.170 4, 15 4.675, 15 5.500 C 15 6.325, 15.730 7, 16.622 7 C 17.951 7, 18.020 6.729, 17 5.500 C 16.315 4.675, 15.585 4, 15.378 4 M 12 12.333 C 10.103 12.333, 9.500 12.856, 9.500 14.500 C 9.500 16.144, 10.103 16.667, 12 16.667 C 13.897 16.667, 14.500 16.144, 14.500 14.500 C 14.500 12.856, 13.897 12.333, 12 12.333" stroke="none" fill="black" fill-rule="evenodd"/>
</svg>