<svg xmlns="http://www.w3.org/2000/svg" width="24" height="24" viewBox="0 0 24 24" version="1.1">
	<path d="M 3.429 2.325 C 3.149 3.054, 3.051 7.891, 3.210 13.075 L 3.500 22.500 12 22.500 L 20.500 22.500 20.795 14.601 C 21.072 7.167, 20.929 6.535, 18.358 3.851 C 15.964 1.353, 14.902 1, 9.782 1 C 5.852 1, 3.771 1.434, 3.429 2.325 M 5 12 L 5 21 12 21 L 19 21 19 15 L 19 9 16 9 C 13.333 9, 13 8.667, 13 6 C 13 3.167, 12.778 3, 9 3 L 5 3 5 12 M 15 6 C 15 6.550, 15.477 7, 16.059 7 C 16.641 7, 16.840 6.550, 16.500 6 C 16.160 5.450, 15.684 5, 15.441 5 C 15.198 5, 15 5.450, 15 6 M 11 12.969 C 11 14.308, 10.520 14.753, 9.500 14.362 C 7.356 13.539, 7.648 15.371, 10 17.500 C 11.930 19.247, 12.070 19.247, 14 17.500 C 16.352 15.371, 16.644 13.539, 14.500 14.362 C 13.480 14.753, 13 14.308, 13 12.969 C 13 11.886, 12.550 11, 12 11 C 11.450 11, 11 11.886, 11 12.969" stroke="none" fill="#000000" fill-rule="evenodd"/>
</svg>