<svg xmlns="http://www.w3.org/2000/svg" width="24" height="24" viewBox="0 0 24 24" version="1.1">
	<path d="M 3.429 2.325 C 3.149 3.054, 3.051 7.891, 3.210 13.075 L 3.500 22.500 12 22.500 L 20.500 22.500 20.795 14.601 C 21.072 7.167, 20.929 6.535, 18.358 3.851 C 15.964 1.353, 14.902 1, 9.782 1 C 5.852 1, 3.771 1.434, 3.429 2.325 M 5 12 L 5 21 12 21 C 18.181 21, 19 20.780, 19 19.122 C 19 18.090, 18.309 16.671, 17.464 15.970 C 16.179 14.903, 15.445 15.157, 12.974 17.525 C 10.076 20.302, 7.594 20.399, 9.879 17.646 C 10.805 16.530, 10.614 16.132, 8.942 15.695 C 5.964 14.916, 6.649 10.621, 9.823 10.171 C 11.499 9.933, 12.299 10.427, 12.695 11.942 C 13.128 13.596, 13.537 13.799, 14.622 12.899 C 15.662 12.036, 16.368 12.061, 17.500 13 C 18.768 14.053, 19 13.840, 19 11.622 C 19 9.375, 18.571 9, 16 9 C 13.333 9, 13 8.667, 13 6 C 13 3.167, 12.778 3, 9 3 L 5 3 5 12 M 15 6 C 15 6.550, 15.477 7, 16.059 7 C 16.641 7, 16.840 6.550, 16.500 6 C 16.160 5.450, 15.684 5, 15.441 5 C 15.198 5, 15 5.450, 15 6 M 9 13 C 9 13.550, 9.450 14, 10 14 C 10.550 14, 11 13.550, 11 13 C 11 12.450, 10.550 12, 10 12 C 9.450 12, 9 12.450, 9 13" stroke="none" fill="#000000" fill-rule="evenodd"/>
</svg>