<svg xmlns="http://www.w3.org/2000/svg" width="24" height="24" viewBox="0 0 24 24" version="1.1">
	<path d="M 9.782 1 C 5.852 1, 3.771 1.434, 3.429 2.325 C 3.149 3.054, 3.051 7.891, 3.210 13.075 L 3.500 22.500 12 22.500 L 20.500 22.500 20.795 14.601 C 21.072 7.167, 20.929 6.535, 18.358 3.851 C 15.964 1.353, 14.902 1, 9.782 1 M 9 3 L 5 3 5 12 L 5 21 12 21 L 19 21 19 15 L 19 9 16 9 C 13.333 9, 13 8.667, 13 6 C 13 3.167, 12.778 3, 9 3 M 15.441 5 C 15.198 5, 15 5.450, 15 6 C 15 6.550, 15.477 7, 16.059 7 C 16.641 7, 16.840 6.550, 16.500 6 C 16.160 5.450, 15.684 5, 15.441 5 M 12 13 C 9.800 13, 8 13.450, 8 14 C 8 14.550, 9.800 15, 12 15 C 14.200 15, 16 14.550, 16 14 C 16 13.450, 14.200 13, 12 13" stroke="none" fill="black" fill-rule="evenodd"/>
</svg>