<svg xmlns="http://www.w3.org/2000/svg" width="24" height="24" viewBox="0 0 24 24" version="1.1">
	<path d="M 9.782 1 C 5.852 1, 3.771 1.434, 3.429 2.325 C 3.149 3.054, 3.051 7.891, 3.210 13.075 L 3.500 22.500 12 22.500 L 20.500 22.500 20.795 14.601 C 21.072 7.167, 20.929 6.535, 18.358 3.851 C 15.964 1.353, 14.902 1, 9.782 1 M 9 3 L 5 3 5 12 L 5 21 12 21 L 19 21 19 15 L 19 9 16 9 C 13.333 9, 13 8.667, 13 6 C 13 3.167, 12.778 3, 9 3 M 15.441 5 C 15.198 5, 15 5.450, 15 6 C 15 6.550, 15.477 7, 16.059 7 C 16.641 7, 16.840 6.550, 16.500 6 C 16.160 5.450, 15.684 5, 15.441 5 M 10 11 C 8.865 11, 7.678 11.675, 7.362 12.500 C 7.045 13.325, 7.045 14.675, 7.362 15.500 C 7.678 16.325, 8.761 17, 9.769 17 C 10.776 17, 12.133 17.532, 12.783 18.183 C 13.434 18.834, 14.230 19.103, 14.553 18.781 C 14.875 18.458, 14.690 17.363, 14.142 16.347 C 13.594 15.331, 12.902 13.713, 12.604 12.750 C 12.306 11.787, 11.135 11, 10 11 M 10 13 C 9.450 13, 9 13.450, 9 14 C 9 14.550, 9.450 15, 10 15 C 10.550 15, 11 14.550, 11 14 C 11 13.450, 10.550 13, 10 13" stroke="none" fill="black" fill-rule="evenodd"/>
</svg>