<svg xmlns="http://www.w3.org/2000/svg" width="24" height="24" viewBox="0 0 24 24" version="1.1">
	<path d="M 12.232 1.215 C 4.296 0.994, 1.846 1.238, 1.442 2.290 C 1.155 3.038, 1.051 7.891, 1.210 13.075 L 1.500 22.500 12 22.500 L 22.500 22.500 22.500 12 L 22.500 1.500 12.232 1.215 M 4.500 3 C 3.675 3, 3 3.675, 3 4.500 C 3 5.325, 3.675 6, 4.500 6 C 5.325 6, 6 5.325, 6 4.500 C 6 3.675, 5.325 3, 4.500 3 M 12 3 L 8 3 8 7 L 8 11 12 11 L 16 11 16 7 L 16 3 12 3 M 19.500 3 C 18.675 3, 18 3.675, 18 4.500 C 18 5.325, 18.675 6, 19.500 6 C 20.325 6, 21 5.325, 21 4.500 C 21 3.675, 20.325 3, 19.500 3 M 4.500 8 C 3.675 8, 3 8.675, 3 9.500 C 3 10.325, 3.675 11, 4.500 11 C 5.325 11, 6 10.325, 6 9.500 C 6 8.675, 5.325 8, 4.500 8 M 19.500 8 C 18.675 8, 18 8.675, 18 9.500 C 18 10.325, 18.675 11, 19.500 11 C 20.325 11, 21 10.325, 21 9.500 C 21 8.675, 20.325 8, 19.500 8 M 4.500 13 C 3.675 13, 3 13.675, 3 14.500 C 3 15.325, 3.675 16, 4.500 16 C 5.325 16, 6 15.325, 6 14.500 C 6 13.675, 5.325 13, 4.500 13 M 12 13 L 8 13 8 17 L 8 21 12 21 L 16 21 16 17 L 16 13 12 13 M 19.500 13 C 18.675 13, 18 13.675, 18 14.500 C 18 15.325, 18.675 16, 19.500 16 C 20.325 16, 21 15.325, 21 14.500 C 21 13.675, 20.325 13, 19.500 13 M 4.500 18 C 3.675 18, 3 18.675, 3 19.500 C 3 20.325, 3.675 21, 4.500 21 C 5.325 21, 6 20.325, 6 19.500 C 6 18.675, 5.325 18, 4.500 18 M 19.500 18 C 18.675 18, 18 18.675, 18 19.500 C 18 20.325, 18.675 21, 19.500 21 C 20.325 21, 21 20.325, 21 19.500 C 21 18.675, 20.325 18, 19.500 18" stroke="none" fill="black" fill-rule="evenodd"/>
</svg>