<svg xmlns="http://www.w3.org/2000/svg" width="24" height="24" viewBox="0 0 24 24" version="1.1">
	<path d="M 12 5 C 6.667 5, 3 5.407, 3 6 C 3 6.593, 6.667 7, 12 7 C 17.333 7, 21 6.593, 21 6 C 21 5.407, 17.333 5, 12 5 M 9 11 C 5.667 11, 3 11.444, 3 12 C 3 12.556, 5.667 13, 9 13 C 12.333 13, 15 12.556, 15 12 C 15 11.444, 12.333 11, 9 11 M 7 17 C 4.800 17, 3 17.450, 3 18 C 3 18.550, 4.800 19, 7 19 C 9.200 19, 11 18.550, 11 18 C 11 17.450, 9.200 17, 7 17" stroke="none" fill="black" fill-rule="evenodd"/>
</svg>