<svg xmlns="http://www.w3.org/2000/svg" width="24" height="24" viewBox="0 0 24 24" version="1.1">
	<path d="M 5.141 3.636 C 1.956 6.535, -0.298 13, 1.875 13 C 2.494 13, 3.014 12.438, 3.030 11.750 C 3.047 11.063, 3.529 11.305, 4.101 12.288 C 4.674 13.272, 4.849 15.409, 4.492 17.038 C 3.656 20.843, 5.698 21.042, 6.658 17.250 C 7.737 12.984, 7.440 8.466, 6.100 8.764 C 4.214 9.185, 6.678 5.243, 9.116 3.938 C 11.529 2.647, 15.748 3.478, 18.256 5.738 C 20.810 8.040, 21.770 6.326, 19.306 3.862 C 18.066 2.622, 15.417 1.576, 12.755 1.276 C 8.863 0.837, 7.881 1.142, 5.141 3.636 M 12.895 6.661 C 8.884 7.734, 8.008 15.894, 11.405 20.539 C 12.629 22.214, 12.980 22.261, 14.545 20.962 C 15.515 20.158, 16.568 19.725, 16.887 20 C 18.061 21.014, 18.841 12.394, 17.859 9.250 C 16.873 6.091, 16.247 5.765, 12.895 6.661 M 12.135 10.917 C 11.205 11.492, 10.999 12.720, 11.473 14.875 C 12.348 18.860, 13.650 18.871, 14.522 14.901 C 15.279 11.454, 14.194 9.644, 12.135 10.917" stroke="none" fill="#000000" fill-rule="evenodd"/>
</svg>