<svg viewBox="0 0 24 24" xmlns="http://www.w3.org/2000/svg" fill="none" stroke="#000000" stroke-width="2" stroke-linecap="round" stroke-linejoin="round"><path d="M11.260 1.023 C 11.172 1.032,10.902 1.058,10.660 1.082 C 8.797 1.266,6.732 2.143,5.121 3.436 C 2.608 5.453,1.045 8.592,1.024 11.663 L 1.020 12.305 1.141 12.503 C 1.540 13.152,2.457 13.156,2.854 12.510 C 2.964 12.333,2.974 12.282,3.006 11.730 C 3.045 11.057,3.134 10.379,3.235 9.979 L 3.304 9.704 3.355 10.102 C 3.505 11.275,3.971 12.505,4.650 13.519 L 4.931 13.939 4.865 14.659 C 4.722 16.214,4.475 17.671,4.162 18.807 C 3.975 19.486,3.966 19.627,4.095 19.900 C 4.276 20.281,4.602 20.493,5.000 20.489 C 5.372 20.485,5.720 20.275,5.883 19.953 C 6.125 19.481,6.532 17.618,6.714 16.162 L 6.781 15.620 7.052 15.593 C 7.652 15.534,8.047 15.070,7.988 14.494 C 7.957 14.198,7.817 13.976,7.492 13.709 C 7.342 13.587,7.168 13.432,7.105 13.366 L 6.990 13.246 6.997 12.473 C 7.006 11.308,7.083 10.798,7.363 10.040 C 7.441 9.829,7.489 9.624,7.490 9.500 C 7.492 8.954,7.058 8.520,6.511 8.520 C 6.126 8.520,5.789 8.709,5.633 9.012 C 5.586 9.105,5.498 9.315,5.438 9.480 L 5.329 9.779 5.299 9.461 C 5.169 8.079,5.684 6.453,6.622 5.280 C 7.250 4.495,8.257 3.776,9.160 3.468 C 10.026 3.173,10.611 3.077,11.500 3.084 C 11.932 3.087,12.263 3.073,12.327 3.047 C 12.479 2.986,13.166 3.055,13.860 3.201 C 15.885 3.626,17.719 4.754,19.017 6.372 C 19.373 6.815,19.570 6.955,19.888 6.987 C 20.615 7.062,21.172 6.379,20.944 5.693 C 20.826 5.338,19.885 4.270,19.100 3.603 C 17.525 2.262,15.513 1.375,13.420 1.099 C 12.961 1.038,11.596 0.990,11.260 1.023 M15.100 5.795 C 14.716 5.970,14.511 6.283,14.508 6.700 C 14.506 6.984,14.569 7.122,14.908 7.582 C 15.036 7.757,15.175 7.954,15.217 8.020 C 15.259 8.086,15.320 8.181,15.352 8.231 C 15.386 8.284,15.257 8.207,15.046 8.049 C 14.237 7.442,13.461 7.136,12.468 7.036 C 11.732 6.961,11.380 7.087,11.129 7.514 C 11.036 7.672,11.020 7.745,11.020 8.000 C 11.020 8.256,11.036 8.328,11.131 8.489 C 11.257 8.703,11.451 8.866,11.670 8.941 L 11.820 8.993 11.660 9.019 C 11.003 9.125,10.512 9.334,10.109 9.679 C 9.616 10.100,9.300 10.568,9.120 11.140 C 8.894 11.860,9.008 13.644,9.386 15.280 C 9.812 17.132,10.526 18.881,11.564 20.620 C 12.218 21.715,12.436 21.941,12.888 21.987 C 13.368 22.036,13.634 21.864,14.053 21.232 C 14.690 20.272,15.364 18.977,15.785 17.908 C 15.869 17.692,15.945 17.534,15.952 17.557 C 15.968 17.604,15.737 18.566,15.581 19.100 C 15.463 19.507,15.471 19.663,15.624 19.968 C 15.851 20.417,16.426 20.614,16.900 20.404 C 17.260 20.245,17.379 20.066,17.579 19.385 C 18.048 17.791,18.397 15.309,18.476 13.009 C 18.529 11.432,18.418 10.543,18.013 9.300 C 17.641 8.162,17.166 7.250,16.450 6.302 C 16.115 5.857,15.891 5.719,15.505 5.721 C 15.355 5.721,15.198 5.750,15.100 5.795 M12.842 9.126 C 13.762 9.365,14.596 10.192,14.870 11.137 C 14.994 11.567,15.019 12.012,14.962 12.800 C 14.859 14.236,14.547 15.578,13.973 17.060 C 13.813 17.473,13.039 19.080,13.000 19.080 C 12.961 19.080,12.187 17.473,12.027 17.060 C 11.415 15.480,11.133 14.236,11.034 12.680 C 10.978 11.789,11.012 11.601,11.283 11.322 C 11.484 11.114,11.636 11.049,12.028 10.999 C 12.392 10.953,12.631 10.827,12.802 10.591 C 13.189 10.057,12.978 9.335,12.356 9.066 L 12.220 9.008 12.380 9.028 C 12.468 9.039,12.676 9.083,12.842 9.126 " stroke="none" fill-rule="evenodd" fill="black"></path></svg>