<svg xmlns="http://www.w3.org/2000/svg" width="24" height="24" viewBox="0 0 24 24" version="1.1">
	<path d="M 12.755 1.276 C 8.863 0.837, 7.881 1.142, 5.141 3.636 C 3.402 5.219, 1.717 7.953, 1.373 9.750 C 0.968 11.860, 1.145 13, 1.875 13 C 2.494 13, 3.014 12.438, 3.030 11.750 C 3.047 11.063, 3.529 11.305, 4.101 12.288 C 4.674 13.272, 4.849 15.409, 4.492 17.038 C 4.090 18.868, 4.247 20, 4.901 20 C 5.485 20, 6.275 18.763, 6.658 17.250 C 7.040 15.738, 7.338 13.150, 7.319 11.500 C 7.299 9.719, 6.804 8.607, 6.100 8.764 C 5.221 8.960, 5.190 8.513, 5.980 7.037 C 6.566 5.942, 7.977 4.547, 9.116 3.938 C 10.255 3.329, 12.382 3.128, 13.843 3.493 C 15.304 3.857, 17.290 4.868, 18.256 5.738 C 19.222 6.609, 20.322 7.011, 20.701 6.633 C 21.079 6.254, 20.452 5.007, 19.306 3.862 C 18.066 2.622, 15.417 1.576, 12.755 1.276 M 15.672 6.116 C 15.028 6.180, 13.778 6.425, 12.895 6.661 C 12.012 6.898, 10.717 8.160, 10.018 9.466 C 9.253 10.895, 9.002 13.196, 9.386 15.246 C 9.738 17.120, 10.646 19.501, 11.405 20.539 C 12.629 22.214, 12.980 22.261, 14.545 20.962 C 15.515 20.158, 16.568 19.725, 16.887 20 C 17.205 20.275, 17.783 18.700, 18.170 16.500 C 18.557 14.300, 18.417 11.038, 17.859 9.250 C 17.301 7.462, 16.317 6.052, 15.672 6.116 M 14.343 10.943 C 13.870 10.470, 12.876 10.458, 12.135 10.917 C 11.205 11.492, 10.999 12.720, 11.473 14.875 C 11.850 16.594, 12.537 18, 13 18 C 13.463 18, 14.147 16.606, 14.522 14.901 C 14.896 13.197, 14.816 11.416, 14.343 10.943" stroke="none" fill="black" fill-rule="evenodd"/>
</svg>