<svg xmlns="http://www.w3.org/2000/svg" width="24" height="24" viewBox="0 0 24 24" version="1.1">
	<path d="M 12.023 2 C 11.486 2, 10.329 3.095, 9.452 4.433 C 8.235 6.290, 8.112 7.340, 8.929 8.867 C 9.518 9.968, 10 11.348, 10 11.934 C 10 12.520, 9.325 13, 8.500 13 C 7.675 13, 7 12.550, 7 12 C 7 11.450, 6.325 11, 5.500 11 C 4.449 11, 4 12.061, 4 14.545 C 4 16.976, 4.772 18.862, 6.455 20.545 C 8.002 22.093, 10.052 23, 12 23 C 13.948 23, 15.998 22.093, 17.545 20.545 C 18.989 19.101, 19.996 16.940, 19.990 15.295 C 19.984 13.618, 18.584 10.744, 16.490 8.109 C 14.571 5.694, 13 3.332, 13 2.859 C 13 2.387, 12.560 2, 12.023 2 M 14.332 9.500 L 10.748 5.500 11.438 9.350 C 11.965 12.288, 11.722 13.650, 10.412 15.097 C 9.106 16.540, 8.375 16.726, 7.348 15.874 C 6.353 15.048, 6 15.049, 6 15.878 C 6 16.495, 6.900 17.900, 8 19 C 9.100 20.100, 10.900 21, 12 21 C 13.100 21, 14.900 20.100, 16 19 C 17.100 17.900, 17.981 16.212, 17.958 15.250 C 17.935 14.287, 16.304 11.700, 14.332 9.500" stroke="none" fill="black" fill-rule="evenodd"/>
</svg>