<svg xmlns="http://www.w3.org/2000/svg" width="24" height="24" viewBox="0 0 24 24" version="1.1">
	<path d="M 9.452 4.433 C 8.235 6.290, 8.112 7.340, 8.929 8.867 C 10.410 11.635, 10.268 13, 8.500 13 C 7.675 13, 7 12.550, 7 12 C 7 11.450, 6.325 11, 5.500 11 C 4.449 11, 4 12.061, 4 14.545 C 4 21.981, 12.392 25.699, 17.545 20.545 C 20.993 17.098, 20.677 13.376, 16.490 8.109 C 14.571 5.694, 13 3.332, 13 2.859 C 13 1.165, 11.017 2.045, 9.452 4.433 M 11.438 9.350 C 12.256 13.915, 9.769 17.883, 7.348 15.874 C 5.141 14.042, 5.694 16.694, 8 19 C 10.546 21.546, 13.454 21.546, 16 19 C 18.815 16.185, 18.448 14.093, 14.332 9.500 L 10.748 5.500 11.438 9.350" stroke="none" fill="black" fill-rule="evenodd"/>
</svg>