<svg viewBox="0 0 24 24" xmlns="http://www.w3.org/2000/svg" fill="none" stroke="#000000" stroke-width="2" stroke-linecap="round" stroke-linejoin="round"><path d="M9.499 1.042 C 8.385 1.234,7.478 2.033,7.116 3.140 C 7.031 3.403,7.024 3.498,7.009 4.710 L 6.993 6.000 4.443 6.000 C 1.676 6.000,1.672 6.000,1.382 6.221 C 1.302 6.282,1.187 6.415,1.128 6.516 L 1.020 6.700 1.020 13.120 L 1.020 19.540 1.114 19.840 C 1.422 20.827,2.173 21.578,3.160 21.886 L 3.460 21.980 12.000 21.980 L 20.540 21.980 20.840 21.886 C 21.827 21.578,22.578 20.827,22.886 19.840 L 22.980 19.540 22.980 13.120 L 22.980 6.700 22.872 6.516 C 22.813 6.415,22.698 6.282,22.618 6.221 C 22.328 6.000,22.324 6.000,19.557 6.000 L 17.007 6.000 16.991 4.710 C 16.976 3.498,16.969 3.403,16.884 3.140 C 16.566 2.167,15.819 1.422,14.861 1.122 L 14.540 1.022 12.120 1.015 C 10.789 1.011,9.609 1.023,9.499 1.042 M14.310 3.061 C 14.452 3.103,14.571 3.178,14.697 3.303 C 14.978 3.584,15.000 3.703,15.000 4.947 L 15.000 6.000 12.000 6.000 L 9.000 6.000 9.000 4.947 C 9.000 3.702,9.022 3.585,9.304 3.303 C 9.604 3.002,9.569 3.006,11.983 3.003 C 13.772 3.000,14.138 3.010,14.310 3.061 M21.000 13.554 C 21.000 18.144,20.990 19.139,20.945 19.290 C 20.872 19.533,20.707 19.740,20.484 19.872 L 20.300 19.980 12.000 19.980 L 3.700 19.980 3.516 19.872 C 3.415 19.813,3.284 19.700,3.225 19.623 C 2.987 19.312,3.000 19.650,3.000 13.575 L 3.000 8.000 12.000 8.000 L 21.000 8.000 21.000 13.554 M11.695 10.057 C 11.466 10.129,11.256 10.299,11.128 10.516 L 11.020 10.700 11.008 11.850 L 10.995 13.000 9.944 13.000 C 8.797 13.000,8.643 13.022,8.382 13.221 C 8.302 13.282,8.187 13.415,8.128 13.516 C 8.037 13.672,8.020 13.746,8.020 14.000 C 8.020 14.256,8.036 14.328,8.131 14.489 C 8.192 14.592,8.304 14.725,8.381 14.783 C 8.642 14.983,8.738 14.996,9.908 14.998 L 10.995 15.000 11.008 16.153 L 11.020 17.307 11.141 17.503 C 11.543 18.156,12.457 18.156,12.859 17.503 L 12.980 17.307 12.992 16.153 L 13.005 15.000 14.092 14.998 C 15.262 14.996,15.358 14.983,15.619 14.783 C 15.696 14.725,15.808 14.592,15.869 14.489 C 15.964 14.328,15.980 14.256,15.980 14.000 C 15.980 13.746,15.963 13.672,15.872 13.516 C 15.813 13.415,15.698 13.282,15.618 13.221 C 15.357 13.022,15.203 13.000,14.056 13.000 L 13.005 13.000 12.992 11.850 L 12.980 10.700 12.872 10.516 C 12.628 10.101,12.150 9.915,11.695 10.057 " stroke="none" fill-rule="evenodd" fill="black"></path></svg>