<svg xmlns="http://www.w3.org/2000/svg" width="24" height="24" viewBox="0 0 24 24" version="1.1">
	<path d="M 12.464 1.203 C 10.244 1.040, 8.106 1.227, 7.714 1.620 C 7.321 2.012, 7 3.158, 7 4.167 C 7 5.543, 6.241 6, 3.958 6 L 0.916 6 1.208 13.750 L 1.500 21.500 12 21.500 L 22.500 21.500 22.792 13.750 L 23.084 6 20.112 6 C 17.790 6, 17.069 5.507, 16.820 3.750 C 16.557 1.902, 15.779 1.447, 12.464 1.203 M 12 3 C 10 3, 9 3.500, 9 4.500 C 9 5.500, 10 6, 12 6 C 14 6, 15 5.500, 15 4.500 C 15 3.500, 14 3, 12 3 M 12 8 L 3 8 3 14 L 3 20 12 20 L 21 20 21 14 L 21 8 12 8 M 12 10 C 11.450 10, 11 10.675, 11 11.500 C 11 12.325, 10.325 13, 9.500 13 C 8.675 13, 8 13.450, 8 14 C 8 14.550, 8.675 15, 9.500 15 C 10.325 15, 11 15.675, 11 16.500 C 11 17.325, 11.450 18, 12 18 C 12.550 18, 13 17.325, 13 16.500 C 13 15.675, 13.675 15, 14.500 15 C 15.325 15, 16 14.550, 16 14 C 16 13.450, 15.325 13, 14.500 13 C 13.675 13, 13 12.325, 13 11.500 C 13 10.675, 12.550 10, 12 10" stroke="none" fill="black" fill-rule="evenodd"/>
</svg>