<svg xmlns="http://www.w3.org/2000/svg" width="24" height="24" viewBox="0 0 24 24" version="1.1">
	<path d="M 6.757 9.519 C 2.373 12.498, 0.324 15.724, 1.848 17.248 C 2.417 17.817, 5.079 18.493, 7.765 18.751 C 12.920 19.247, 19.149 16.935, 22.037 13.455 C 23.278 11.960, 23.097 11.488, 20.471 9.387 C 16.522 6.227, 11.531 6.275, 6.757 9.519 M 9.750 10.080 C 8.709 10.686, 8 12.295, 8 14.050 C 8 16.353, 8.448 17, 10.040 17 C 12.821 17, 20 13.237, 20 11.780 C 20 10.885, 19.710 10.890, 18.800 11.800 C 16.935 13.665, 13.870 13.220, 13.290 11 C 12.701 8.748, 12.242 8.629, 9.750 10.080 M 15 10 C 15 10.550, 15.477 11, 16.059 11 C 16.641 11, 16.840 10.550, 16.500 10 C 16.160 9.450, 15.684 9, 15.441 9 C 15.198 9, 15 9.450, 15 10 M 4.583 13.866 C 4.152 14.563, 4.070 15.403, 4.400 15.733 C 5.295 16.628, 6.271 15.312, 5.787 13.862 C 5.449 12.846, 5.213 12.846, 4.583 13.866" stroke="none" fill="#000000" fill-rule="evenodd"/>
</svg>