<svg xmlns="http://www.w3.org/2000/svg" width="24" height="24" viewBox="0 0 24 24" version="1.1">
	<path d="M 13.982 7.005 C 11.864 7.002, 8.989 8.002, 6.757 9.519 C 4.718 10.905, 2.547 12.978, 1.932 14.126 C 1.163 15.564, 1.137 16.537, 1.848 17.248 C 2.417 17.817, 5.079 18.493, 7.765 18.751 C 11.399 19.101, 13.668 18.700, 16.641 17.183 C 18.837 16.063, 21.265 14.385, 22.037 13.455 C 23.278 11.960, 23.097 11.488, 20.471 9.387 C 18.614 7.902, 16.180 7.008, 13.982 7.005 M 12.133 9.030 C 11.785 9.047, 10.713 9.519, 9.750 10.080 C 8.709 10.686, 8 12.295, 8 14.050 C 8 16.353, 8.448 17, 10.040 17 C 11.162 17, 13.862 16.091, 16.040 14.980 C 18.218 13.868, 20 12.428, 20 11.780 C 20 10.885, 19.710 10.890, 18.800 11.800 C 18.140 12.460, 16.748 13, 15.706 13 C 14.654 13, 13.580 12.112, 13.290 11 C 13.002 9.900, 12.482 9.014, 12.133 9.030 M 15.441 9 C 15.198 9, 15 9.450, 15 10 C 15 10.550, 15.477 11, 16.059 11 C 16.641 11, 16.840 10.550, 16.500 10 C 16.160 9.450, 15.684 9, 15.441 9 M 5.787 13.862 C 5.449 12.846, 5.213 12.846, 4.583 13.866 C 4.152 14.563, 4.070 15.403, 4.400 15.733 C 4.730 16.063, 5.272 16.061, 5.604 15.729 C 5.936 15.397, 6.019 14.557, 5.787 13.862" stroke="none" fill="black" fill-rule="evenodd"/>
</svg>