<svg xmlns="http://www.w3.org/2000/svg" width="24" height="24" viewBox="0 0 24 24" version="1.1">
	<path d="M 13.500 6.412 C 11.850 7.145, 9.558 8.815, 8.408 10.123 C 5.666 13.238, 0.822 22.155, 1.502 22.835 C 2.314 23.647, 4.088 21.527, 6.925 16.357 C 10.069 10.627, 13.661 7.802, 16.750 8.630 C 19.539 9.378, 19.700 12.004, 17 12.710 C 14.510 13.361, 14.367 15, 16.800 15 C 20.945 15, 22.468 9.639, 19.171 6.655 C 17.020 4.708, 17.305 4.720, 13.500 6.412 M 21 15.500 C 21 18.101, 19.497 18.925, 18.720 16.750 C 18.475 16.063, 17.932 15.818, 17.513 16.207 C 16.027 17.589, 17.959 20.145, 20.246 19.820 C 21.975 19.575, 22.573 18.743, 22.813 16.250 C 22.989 14.424, 22.661 13, 22.063 13 C 21.479 13, 21 14.125, 21 15.500" stroke="none" fill="#000000" fill-rule="evenodd"/>
</svg>