<svg xmlns="http://www.w3.org/2000/svg" width="24" height="24" viewBox="0 0 24 24" version="1.1">
	<path d="M 16.921 5.039 C 16.690 5.061, 15.150 5.678, 13.500 6.412 C 11.850 7.145, 9.558 8.815, 8.408 10.123 C 7.257 11.430, 5.113 14.706, 3.643 17.402 C 2.173 20.098, 1.210 22.543, 1.502 22.835 C 1.794 23.128, 2.555 22.845, 3.192 22.208 C 3.829 21.571, 5.509 18.938, 6.925 16.357 C 8.341 13.775, 10.625 10.845, 12 9.845 C 13.558 8.712, 15.348 8.254, 16.750 8.630 C 17.988 8.962, 19 9.898, 19 10.710 C 19 11.523, 18.100 12.423, 17 12.710 C 15.900 12.998, 15 13.631, 15 14.117 C 15 14.602, 15.810 15, 16.800 15 C 17.790 15, 19.140 14.460, 19.800 13.800 C 20.460 13.140, 21 11.635, 21 10.455 C 21 9.275, 20.177 7.565, 19.171 6.655 C 18.165 5.745, 17.153 5.018, 16.921 5.039 M 22.063 13 C 21.479 13, 21 14.125, 21 15.500 C 21 16.875, 20.587 18, 20.083 18 C 19.579 18, 18.966 17.438, 18.720 16.750 C 18.475 16.063, 17.932 15.818, 17.513 16.207 C 17.095 16.596, 17.032 17.640, 17.372 18.527 C 17.749 19.510, 18.872 20.015, 20.246 19.820 C 21.975 19.575, 22.573 18.743, 22.813 16.250 C 22.989 14.424, 22.661 13, 22.063 13" stroke="none" fill="black" fill-rule="evenodd"/>
</svg>