<svg viewBox="0 0 24 24" xmlns="http://www.w3.org/2000/svg"><path d="M3.580 4.047 C 2.859 4.185,2.199 4.848,2.044 5.592 C 1.982 5.891,1.982 18.109,2.044 18.408 C 2.201 19.158,2.842 19.799,3.592 19.956 C 3.892 20.018,20.108 20.018,20.408 19.956 C 21.158 19.799,21.799 19.158,21.956 18.408 C 22.018 18.109,22.018 5.891,21.956 5.592 C 21.797 4.830,21.138 4.181,20.383 4.043 C 20.075 3.987,3.875 3.991,3.580 4.047 M12.880 6.581 C 13.046 6.605,13.529 6.716,13.549 6.735 C 13.559 6.746,13.291 7.643,13.271 7.662 C 13.263 7.670,13.158 7.652,13.038 7.622 C 12.918 7.591,12.724 7.554,12.606 7.539 C 12.393 7.512,12.393 7.511,12.414 7.386 C 12.426 7.317,12.448 7.093,12.463 6.888 L 12.491 6.516 12.595 6.536 C 12.653 6.547,12.781 6.567,12.880 6.581 M9.553 7.648 L 9.795 8.077 9.647 8.165 C 9.566 8.213,9.403 8.326,9.285 8.415 L 9.069 8.578 8.889 8.379 C 8.791 8.270,8.645 8.102,8.566 8.006 L 8.423 7.830 8.541 7.733 C 8.672 7.626,9.296 7.201,9.305 7.213 C 9.308 7.217,9.419 7.413,9.553 7.648 M16.677 9.129 C 16.767 9.279,16.840 9.414,16.840 9.431 C 16.840 9.447,16.649 9.559,16.416 9.680 C 16.015 9.888,15.990 9.896,15.946 9.824 C 15.921 9.782,15.812 9.615,15.704 9.453 C 15.597 9.291,15.516 9.152,15.524 9.145 C 15.533 9.138,15.701 9.001,15.898 8.841 L 16.257 8.551 16.385 8.703 C 16.456 8.788,16.587 8.979,16.677 9.129 M7.157 10.721 C 7.409 10.787,7.620 10.846,7.627 10.853 C 7.633 10.860,7.612 11.005,7.579 11.176 C 7.547 11.347,7.520 11.541,7.520 11.608 L 7.520 11.729 7.030 11.700 C 6.760 11.684,6.534 11.665,6.526 11.658 C 6.498 11.632,6.662 10.599,6.693 10.600 C 6.697 10.600,6.906 10.655,7.157 10.721 M17.480 12.238 C 17.480 12.578,17.399 13.081,17.345 13.077 C 17.320 13.076,17.111 13.034,16.880 12.984 L 16.460 12.893 16.470 12.577 C 16.476 12.402,16.491 12.202,16.502 12.130 L 16.524 12.000 17.002 12.000 L 17.480 12.000 17.480 12.238 M8.574 14.915 C 8.610 14.945,8.640 14.992,8.640 15.018 C 8.640 15.045,8.484 15.209,8.294 15.382 L 7.948 15.697 7.791 15.518 C 7.614 15.316,7.320 14.901,7.320 14.852 C 7.320 14.834,7.504 14.709,7.728 14.575 L 8.136 14.330 8.322 14.595 C 8.425 14.741,8.538 14.885,8.574 14.915 M15.685 15.808 L 15.804 15.957 15.638 16.106 C 15.432 16.292,15.030 16.598,14.989 16.599 C 14.958 16.600,14.426 15.798,14.448 15.782 C 14.657 15.634,14.815 15.512,14.957 15.389 L 15.135 15.237 15.350 15.449 C 15.469 15.565,15.620 15.727,15.685 15.808 M11.530 16.465 L 11.840 16.491 11.840 16.992 L 11.840 17.492 11.530 17.466 C 11.360 17.451,11.115 17.419,10.987 17.394 C 10.780 17.354,10.757 17.339,10.775 17.264 C 10.786 17.218,10.836 17.003,10.885 16.787 L 10.975 16.393 11.098 16.416 C 11.165 16.429,11.360 16.451,11.530 16.465 " stroke="none" fill="black" fill-rule="evenodd"></path></svg>