<svg viewBox="0 0 24 24" xmlns="http://www.w3.org/2000/svg" fill="none" stroke="#000000" stroke-width="2" stroke-linecap="round" stroke-linejoin="round"><path d="M3.477 2.073 C 2.806 2.249,2.238 2.823,2.060 3.508 C 2.008 3.707,2.000 4.861,2.000 12.500 C 2.000 22.064,1.986 21.457,2.225 21.930 C 2.361 22.199,2.801 22.639,3.070 22.775 C 3.441 22.963,3.673 23.000,4.458 22.998 C 5.236 22.996,5.373 22.971,5.619 22.783 C 5.696 22.725,5.808 22.592,5.869 22.489 C 5.964 22.328,5.980 22.256,5.980 22.000 C 5.980 21.746,5.963 21.672,5.872 21.516 C 5.633 21.110,5.352 21.000,4.554 21.000 L 4.000 21.000 4.000 18.500 L 4.000 16.000 12.132 16.000 C 21.004 16.000,20.458 16.014,20.930 15.775 C 21.196 15.640,21.638 15.200,21.771 14.937 C 22.010 14.466,22.000 14.732,21.999 9.014 C 21.999 3.337,22.006 3.525,21.781 3.083 C 21.646 2.816,21.297 2.449,21.017 2.281 C 20.523 1.983,21.217 2.005,12.000 2.005 C 4.321 2.005,3.721 2.009,3.477 2.073 M7.000 6.000 L 7.000 8.000 5.500 8.000 L 4.000 8.000 4.000 6.000 L 4.000 4.000 5.500 4.000 L 7.000 4.000 7.000 6.000 M11.000 6.000 L 11.000 8.000 10.000 8.000 L 9.000 8.000 9.000 6.000 L 9.000 4.000 10.000 4.000 L 11.000 4.000 11.000 6.000 M15.000 6.000 L 15.000 8.000 14.000 8.000 L 13.000 8.000 13.000 6.000 L 13.000 4.000 14.000 4.000 L 15.000 4.000 15.000 6.000 M20.000 6.000 L 20.000 8.000 18.500 8.000 L 17.000 8.000 17.000 6.000 L 17.000 4.000 18.500 4.000 L 20.000 4.000 20.000 6.000 M7.000 12.000 L 7.000 14.000 5.500 14.000 L 4.000 14.000 4.000 12.000 L 4.000 10.000 5.500 10.000 L 7.000 10.000 7.000 12.000 M11.000 12.000 L 11.000 14.000 10.000 14.000 L 9.000 14.000 9.000 12.000 L 9.000 10.000 10.000 10.000 L 11.000 10.000 11.000 12.000 M15.000 12.000 L 15.000 14.000 14.000 14.000 L 13.000 14.000 13.000 12.000 L 13.000 10.000 14.000 10.000 L 15.000 10.000 15.000 12.000 M20.000 12.000 L 20.000 14.000 18.500 14.000 L 17.000 14.000 17.000 12.000 L 17.000 10.000 18.500 10.000 L 20.000 10.000 20.000 12.000 " stroke="none" fill-rule="evenodd" fill="black"></path></svg>