<svg viewBox="0 0 24 24" xmlns="http://www.w3.org/2000/svg"><path d="M2.005 4.003 C 1.686 4.401,1.566 4.579,1.594 4.613 C 1.616 4.639,3.479 6.136,5.735 7.940 L 9.835 11.220 5.918 11.230 L 2.000 11.240 2.000 12.000 L 2.000 12.760 5.918 12.770 L 9.835 12.780 5.735 16.060 C 3.479 17.864,1.616 19.362,1.594 19.388 C 1.565 19.422,1.670 19.581,1.963 19.948 C 2.188 20.230,2.395 20.485,2.423 20.516 C 2.467 20.563,3.175 20.012,6.857 17.066 L 11.240 13.560 11.240 16.780 L 11.240 20.000 12.000 20.000 L 12.760 20.000 12.760 16.780 L 12.760 13.560 17.143 17.066 C 20.825 20.012,21.533 20.563,21.577 20.516 C 21.605 20.485,21.812 20.230,22.037 19.948 C 22.330 19.581,22.435 19.422,22.406 19.388 C 22.384 19.362,20.521 17.864,18.265 16.060 L 14.165 12.780 18.082 12.770 L 22.000 12.760 22.000 12.000 L 22.000 11.240 18.082 11.230 L 14.165 11.220 18.265 7.940 C 20.521 6.136,22.384 4.638,22.406 4.612 C 22.435 4.578,22.330 4.419,22.037 4.052 C 21.812 3.770,21.605 3.515,21.577 3.484 C 21.533 3.437,20.825 3.988,17.143 6.934 L 12.760 10.440 12.760 7.220 L 12.760 4.000 12.000 4.000 L 11.240 4.000 11.240 7.220 L 11.240 10.440 6.865 6.940 C 4.459 5.015,2.482 3.440,2.473 3.440 C 2.463 3.440,2.253 3.693,2.005 4.003 M4.501 4.075 C 4.594 4.163,10.356 8.769,10.430 8.814 C 10.470 8.838,10.480 8.350,10.480 6.422 L 10.480 4.000 7.451 4.000 C 4.489 4.000,4.424 4.002,4.501 4.075 M13.520 6.422 C 13.520 8.350,13.530 8.838,13.570 8.814 C 13.644 8.769,19.406 4.163,19.499 4.075 C 19.576 4.002,19.511 4.000,16.549 4.000 L 13.520 4.000 13.520 6.422 M2.000 8.220 L 2.000 10.520 4.843 10.520 C 6.539 10.520,7.681 10.505,7.673 10.484 C 7.666 10.463,6.387 9.428,4.830 8.183 L 2.000 5.920 2.000 8.220 M19.160 8.186 C 17.609 9.430,16.334 10.463,16.327 10.484 C 16.319 10.505,17.462 10.520,19.157 10.520 L 22.000 10.520 22.000 8.220 C 22.000 6.955,21.996 5.921,21.990 5.923 C 21.984 5.925,20.711 6.943,19.160 8.186 M2.000 15.800 L 2.000 18.081 4.810 15.835 C 6.355 14.600,7.637 13.574,7.658 13.555 C 7.679 13.535,6.449 13.520,4.848 13.520 L 2.000 13.520 2.000 15.800 M16.342 13.555 C 16.363 13.574,17.645 14.600,19.190 15.835 L 22.000 18.081 22.000 15.800 L 22.000 13.520 19.152 13.520 C 17.551 13.520,16.321 13.535,16.342 13.555 M7.442 17.566 L 4.425 19.980 7.439 19.990 C 9.097 19.996,10.459 19.994,10.467 19.987 C 10.474 19.979,10.476 18.888,10.470 17.562 L 10.460 15.152 7.442 17.566 M13.520 17.578 L 13.520 20.000 16.549 20.000 C 19.511 20.000,19.576 19.998,19.499 19.925 C 19.406 19.837,13.644 15.231,13.570 15.186 C 13.530 15.162,13.520 15.650,13.520 17.578 " stroke="none" fill-rule="evenodd" fill="black"></path></svg>