<svg viewBox="0 0 24 24" xmlns="http://www.w3.org/2000/svg"><path d="M3.774 4.520 C 3.310 4.589,2.846 4.932,2.651 5.351 C 2.597 5.467,2.536 5.684,2.516 5.833 C 2.493 5.995,2.482 8.554,2.489 12.202 L 2.500 18.300 2.605 18.548 C 2.772 18.946,3.054 19.228,3.452 19.395 L 3.700 19.500 12.000 19.500 L 20.300 19.500 20.548 19.395 C 20.946 19.228,21.228 18.946,21.395 18.548 L 21.500 18.300 21.500 12.000 L 21.500 5.700 21.395 5.452 C 21.228 5.054,20.946 4.772,20.548 4.605 L 20.300 4.500 12.140 4.495 C 7.652 4.492,3.887 4.503,3.774 4.520 " stroke="none" fill="black" fill-rule="evenodd"></path></svg>