<svg xmlns="http://www.w3.org/2000/svg" width="24" height="24" viewBox="0 0 24 24" version="1.1">
	<path d="M 12.452 2.215 C 7.475 2.058, 3.087 2.246, 2.702 2.632 C 2.316 3.018, 2 7.547, 2 12.698 C 2 20.216, 2.304 22.180, 3.543 22.655 C 4.392 22.981, 5.404 22.905, 5.793 22.487 C 6.182 22.068, 5.938 21.525, 5.250 21.280 C 4.563 21.034, 4 19.763, 4 18.456 C 4 16.155, 4.284 16.068, 12.750 15.789 L 21.500 15.500 21.500 9 L 21.500 2.500 12.452 2.215 M 5.500 4 C 4.667 4, 4 4.889, 4 6 C 4 7.111, 4.667 8, 5.500 8 C 6.333 8, 7 7.111, 7 6 C 7 4.889, 6.333 4, 5.500 4 M 10 4 C 9.450 4, 9 4.900, 9 6 C 9 7.100, 9.450 8, 10 8 C 10.550 8, 11 7.100, 11 6 C 11 4.900, 10.550 4, 10 4 M 14 4 C 13.450 4, 13 4.900, 13 6 C 13 7.100, 13.450 8, 14 8 C 14.550 8, 15 7.100, 15 6 C 15 4.900, 14.550 4, 14 4 M 18.500 4 C 17.667 4, 17 4.889, 17 6 C 17 7.111, 17.667 8, 18.500 8 C 19.333 8, 20 7.111, 20 6 C 20 4.889, 19.333 4, 18.500 4 M 5.500 10 C 4.667 10, 4 10.889, 4 12 C 4 13.111, 4.667 14, 5.500 14 C 6.333 14, 7 13.111, 7 12 C 7 10.889, 6.333 10, 5.500 10 M 10 10 C 9.450 10, 9 10.900, 9 12 C 9 13.100, 9.450 14, 10 14 C 10.550 14, 11 13.100, 11 12 C 11 10.900, 10.550 10, 10 10 M 14 10 C 13.450 10, 13 10.900, 13 12 C 13 13.100, 13.450 14, 14 14 C 14.550 14, 15 13.100, 15 12 C 15 10.900, 14.550 10, 14 10 M 18.500 10 C 17.667 10, 17 10.889, 17 12 C 17 13.111, 17.667 14, 18.500 14 C 19.333 14, 20 13.111, 20 12 C 20 10.889, 19.333 10, 18.500 10" stroke="none" fill="black" fill-rule="evenodd"/>
</svg>