<svg xmlns="http://www.w3.org/2000/svg" width="24" height="24" viewBox="0 0 24 24" version="1.1">
	<path d="M 9.500 1.665 C 7.300 1.331, 4.938 1.307, 4.250 1.612 C 3.366 2.004, 3 5.213, 3 12.583 C 3 18.861, 3.397 23, 4 23 C 4.550 23, 5 21.200, 5 19 C 5 15.965, 5.394 15, 6.634 15 C 7.533 15, 9.967 15.509, 12.043 16.131 C 14.120 16.753, 16.985 16.970, 18.409 16.612 C 20.878 15.992, 21 15.643, 21 9.182 L 21 2.403 17.250 2.338 C 15.188 2.303, 11.700 2, 9.500 1.665 M 8.250 3.383 L 5 2.773 5 7.755 C 5 12.732, 5.004 12.737, 8.750 13.372 C 10.813 13.721, 13.962 14.282, 15.750 14.617 L 19 15.227 19 10.245 C 19 5.268, 18.996 5.263, 15.250 4.628 C 13.188 4.279, 10.038 3.718, 8.250 3.383" stroke="none" fill="black" fill-rule="evenodd"/>
</svg>