<svg xmlns="http://www.w3.org/2000/svg" width="24" height="24" viewBox="0 0 24 24" version="1.1">
	<path d="M 13.083 1 C 12.579 1, 11.265 2.237, 10.164 3.750 L 8.161 6.500 5.584 4.079 C 4.167 2.748, 2.709 1.958, 2.343 2.323 C 1.978 2.689, 2.496 3.890, 3.494 4.994 C 5.192 6.870, 5.197 7, 3.572 7 C 2.611 7, 2.032 7.559, 2.277 8.250 C 2.521 8.938, 3.765 9.378, 5.042 9.230 C 6.540 9.055, 8.516 10.077, 10.616 12.112 C 12.701 14.133, 14.104 16.654, 14.522 19.133 C 14.882 21.260, 15.538 23, 15.981 23 C 16.424 23, 17.064 22.274, 17.405 21.387 C 17.911 20.069, 18.300 20.004, 19.536 21.030 C 20.368 21.720, 21.345 21.988, 21.707 21.626 C 22.070 21.263, 21.834 20.434, 21.183 19.783 C 20.532 19.133, 20 17.828, 20 16.883 C 20 15.939, 20.521 14.993, 21.158 14.781 C 21.889 14.537, 22.066 13.400, 21.639 11.697 C 21.267 10.214, 20.520 9, 19.981 9 C 19.441 9, 19 9.900, 19 11 C 19 12.427, 18.333 13, 16.674 13 C 15.395 13, 13.319 11.904, 12.060 10.564 L 9.772 8.129 11.886 5.160 C 13.049 3.527, 14 1.923, 14 1.596 C 14 1.268, 13.588 1, 13.083 1" stroke="none" fill="black" fill-rule="evenodd"/>
</svg>