<svg viewBox="0 0 24 24" xmlns="http://www.w3.org/2000/svg" fill="none" stroke="#000000" stroke-width="2" stroke-linecap="round" stroke-linejoin="round"><path d="M12.699 1.053 C 12.611 1.082,12.492 1.137,12.435 1.174 C 12.378 1.211,11.343 2.428,10.136 3.879 L 7.940 6.515 5.740 4.323 C 3.754 2.344,3.521 2.124,3.343 2.065 C 2.862 1.906,2.382 2.084,2.128 2.516 C 2.036 2.672,2.020 2.745,2.021 3.000 C 2.021 3.212,2.043 3.341,2.095 3.440 C 2.135 3.517,2.936 4.349,3.874 5.290 L 5.579 7.000 4.236 7.000 C 2.775 7.000,2.653 7.015,2.382 7.221 C 2.056 7.470,1.926 7.917,2.061 8.323 C 2.123 8.509,2.214 8.621,2.736 9.153 C 3.475 9.906,3.589 9.980,4.003 9.980 C 4.271 9.980,4.329 9.966,4.503 9.859 C 4.742 9.712,4.946 9.422,4.982 9.179 L 5.009 9.000 6.295 9.000 L 7.580 9.000 10.887 12.310 L 14.195 15.620 14.598 18.860 C 14.820 20.642,15.028 22.193,15.061 22.306 C 15.172 22.693,15.588 23.000,16.000 23.000 C 16.080 23.000,16.232 22.971,16.336 22.935 C 16.694 22.813,16.771 22.699,17.540 21.160 C 17.930 20.379,18.256 19.732,18.266 19.722 C 18.275 19.712,18.763 20.183,19.351 20.768 C 19.939 21.353,20.483 21.864,20.560 21.905 C 20.659 21.957,20.787 21.979,21.000 21.979 C 21.258 21.980,21.327 21.964,21.492 21.867 C 21.714 21.737,21.901 21.498,21.965 21.264 C 22.019 21.061,21.989 20.733,21.899 20.555 C 21.862 20.481,21.244 19.831,20.527 19.111 L 19.223 17.801 19.597 17.044 C 19.871 16.489,19.976 16.233,19.990 16.088 C 20.035 15.621,19.730 15.177,19.274 15.046 C 19.178 15.018,19.429 15.006,20.160 15.002 C 20.899 14.998,21.221 14.982,21.330 14.943 C 21.688 14.815,21.949 14.485,21.986 14.112 C 22.004 13.931,21.928 13.582,21.467 11.747 C 20.890 9.446,20.872 9.396,20.576 9.191 C 20.098 8.862,19.452 8.995,19.149 9.486 C 18.940 9.823,18.950 9.929,19.338 11.480 C 19.528 12.239,19.693 12.891,19.704 12.930 C 19.724 12.996,19.592 13.000,17.309 13.000 C 15.380 13.000,14.856 13.011,14.711 13.055 L 14.529 13.109 11.942 10.522 L 9.355 7.934 11.600 5.240 C 12.835 3.758,13.873 2.493,13.906 2.428 C 14.059 2.132,14.004 1.670,13.779 1.375 C 13.550 1.074,13.070 0.932,12.699 1.053 M18.643 15.069 C 18.381 15.161,18.168 15.405,17.942 15.871 C 17.832 16.096,17.733 16.280,17.721 16.280 C 17.709 16.280,17.411 15.992,17.060 15.640 L 16.421 15.000 17.620 15.003 C 18.758 15.006,18.811 15.010,18.643 15.069 M16.681 18.389 L 16.584 18.580 16.556 18.380 C 16.540 18.270,16.525 18.126,16.524 18.061 L 16.520 17.942 16.648 18.070 L 16.777 18.198 16.681 18.389 " stroke="none" fill-rule="evenodd" fill="black"></path></svg>