<svg xmlns="http://www.w3.org/2000/svg" width="24" height="24" viewBox="0 0 24 24" version="1.1">
	<path d="M 12 1 C 9.108 1, 9 1.163, 9 5.533 C 9 8.386, 8.073 11.895, 6.500 15 C 5.125 17.713, 4 20.623, 4 21.467 C 4 22.717, 5.478 23, 12 23 C 18.522 23, 20 22.717, 20 21.467 C 20 20.623, 18.875 17.713, 17.500 15 C 15.927 11.895, 15 8.386, 15 5.533 C 15 1.163, 14.892 1, 12 1 M 12 3 C 11.450 3, 11 4.590, 11 6.533 C 11 8.477, 9.875 12.287, 8.500 15 C 7.125 17.713, 6 20.173, 6 20.467 C 6 20.760, 8.700 21, 12 21 C 15.300 21, 18 20.760, 18 20.467 C 18 20.173, 16.875 17.713, 15.500 15 C 14.125 12.287, 13 8.477, 13 6.533 C 13 4.590, 12.550 3, 12 3" stroke="none" fill="black" fill-rule="evenodd"/>
</svg>