<svg xmlns="http://www.w3.org/2000/svg" width="24" height="24" viewBox="0 0 24 24" version="1.1">
	<path d="M 13.247 1 C 12.688 1, 9.928 3.811, 7.115 7.246 C 4.302 10.681, 2 13.831, 2 14.246 C 2 14.661, 3.982 15, 6.405 15 L 10.810 15 10.273 19 C 9.952 21.395, 10.144 23, 10.753 23 C 11.312 23, 14.072 20.189, 16.885 16.754 C 19.698 13.319, 22 10.169, 22 9.754 C 22 9.339, 20.018 9, 17.595 9 L 13.190 9 13.727 5 C 14.048 2.605, 13.856 1, 13.247 1 M 10.812 8.709 C 10.515 6.637, 10.385 6.677, 8.150 9.515 L 5.800 12.500 9.400 12.810 C 12.331 13.063, 13.006 13.528, 13.032 15.310 C 13.061 17.365, 13.226 17.315, 15.708 14.500 L 18.353 11.500 14.739 11.193 C 11.906 10.953, 11.057 10.416, 10.812 8.709" stroke="none" fill="black" fill-rule="evenodd"/>
</svg>