<svg xmlns="http://www.w3.org/2000/svg" width="24" height="24" viewBox="0 0 24 24" version="1.1">
	<path d="M 10.164 3.750 L 8.161 6.500 5.584 4.079 C 2.582 1.259, 0.814 2.032, 3.494 4.994 C 5.192 6.870, 5.197 7, 3.572 7 C 2.611 7, 2.032 7.559, 2.277 8.250 C 2.521 8.938, 3.765 9.378, 5.042 9.230 C 8.448 8.833, 13.711 14.330, 14.522 19.133 C 15.209 23.196, 16.364 24.100, 17.405 21.387 C 17.911 20.069, 18.300 20.004, 19.536 21.030 C 21.376 22.557, 22.845 21.445, 21.183 19.783 C 19.669 18.269, 19.654 15.282, 21.158 14.781 C 21.889 14.537, 22.066 13.400, 21.639 11.697 C 20.851 8.560, 19 8.070, 19 11 C 19 13.863, 14.919 13.607, 12.060 10.564 L 9.772 8.129 11.886 5.160 C 14.209 1.898, 14.467 1, 13.083 1 C 12.579 1, 11.265 2.237, 10.164 3.750" stroke="none" fill="black" fill-rule="evenodd"/>
</svg>