<svg xmlns="http://www.w3.org/2000/svg" width="24" height="24" viewBox="0 0 24 24" version="1.1">
	<path d="M 8.727 5 C 9.073 7.579, 8.870 9, 8.157 9 C 7.549 9, 6.316 10.422, 5.417 12.160 C 3.921 15.053, 3.917 15.602, 5.363 18.634 C 8.148 24.476, 15.852 24.476, 18.637 18.634 C 20.083 15.602, 20.079 15.053, 18.583 12.160 C 17.684 10.422, 16.451 9, 15.843 9 C 15.130 9, 14.927 7.579, 15.273 5 L 15.810 1 12 1 L 8.190 1 8.727 5 M 11 6.278 C 11 8.318, 10.245 10.202, 9 11.268 C 5.329 14.411, 7.360 21, 12 21 C 16.640 21, 18.671 14.411, 15 11.268 C 13.755 10.202, 13 8.318, 13 6.278 C 13 4.475, 12.550 3, 12 3 C 11.450 3, 11 4.475, 11 6.278" stroke="none" fill="black" fill-rule="evenodd"/>
</svg>