<svg viewBox="0 0 24 24" xmlns="http://www.w3.org/2000/svg" fill="none" stroke="#000000" stroke-width="2" stroke-linecap="round" stroke-linejoin="round"><path d="M9.600 1.083 C 9.378 1.184,9.219 1.331,9.106 1.540 L 9.020 1.700 9.000 5.749 L 8.980 9.798 6.351 15.069 C 4.905 17.968,3.705 20.403,3.683 20.480 C 3.555 20.940,3.604 21.414,3.828 21.880 C 4.001 22.239,4.310 22.560,4.664 22.749 C 5.167 23.016,4.695 23.000,12.000 23.000 C 19.305 23.000,18.833 23.016,19.336 22.749 C 20.139 22.322,20.559 21.350,20.317 20.480 C 20.295 20.403,19.095 17.968,17.649 15.069 L 15.020 9.798 15.000 5.749 L 14.980 1.700 14.894 1.540 C 14.781 1.331,14.622 1.184,14.400 1.083 C 14.226 1.004,14.148 1.002,12.000 1.002 C 9.852 1.002,9.774 1.004,9.600 1.083 M13.009 6.510 C 13.019 9.823,13.024 10.036,13.097 10.300 C 13.148 10.488,14.021 12.276,15.767 15.771 C 17.193 18.625,18.360 20.970,18.360 20.981 C 18.360 20.991,15.498 21.000,12.000 21.000 C 8.502 21.000,5.640 20.991,5.640 20.981 C 5.640 20.970,6.807 18.625,8.233 15.771 C 9.979 12.276,10.852 10.488,10.903 10.300 C 10.976 10.036,10.981 9.823,10.991 6.510 L 11.002 3.000 12.000 3.000 L 12.998 3.000 13.009 6.510 " stroke="none" fill-rule="evenodd" fill="black"></path></svg>