<svg xmlns="http://www.w3.org/2000/svg" width="24" height="24" viewBox="0 0 24 24" version="1.1">
	<path d="M 14.152 1 C 13.685 1, 12.482 2.821, 11.479 5.047 C 10.475 7.273, 9.005 9.457, 8.213 9.901 C 7.068 10.542, 7.008 11.147, 7.922 12.853 C 8.945 14.765, 8.814 15, 6.726 15 C 5.437 15, 3.509 15.638, 2.443 16.418 C 1.376 17.198, 0.782 18.115, 1.122 18.456 C 1.463 18.796, 2.925 18.536, 4.371 17.877 C 6.358 16.971, 7.610 16.957, 9.500 17.818 C 11.370 18.670, 12.630 18.670, 14.500 17.818 C 16.390 16.957, 17.642 16.971, 19.629 17.877 C 21.075 18.536, 22.537 18.796, 22.878 18.456 C 23.218 18.115, 22.598 17.164, 21.498 16.342 C 20.205 15.375, 18.175 15.018, 15.747 15.329 C 12.970 15.685, 11.758 15.390, 11.088 14.192 C 10.460 13.070, 10.921 11.116, 12.591 7.820 C 13.916 5.206, 15 2.602, 15 2.033 C 15 1.465, 14.618 1, 14.152 1 M 12 19.263 C 7.075 19.263, 3.349 19.756, 2.263 20.550 C 1.295 21.257, 0.782 22.115, 1.122 22.456 C 1.463 22.796, 2.925 22.536, 4.371 21.877 C 6.358 20.971, 7.610 20.957, 9.500 21.818 C 11.370 22.670, 12.630 22.670, 14.500 21.818 C 16.390 20.957, 17.642 20.971, 19.629 21.877 C 21.075 22.536, 22.537 22.796, 22.878 22.456 C 23.218 22.115, 22.705 21.257, 21.737 20.550 C 20.651 19.756, 16.925 19.263, 12 19.263" stroke="none" fill="black" fill-rule="evenodd"/>
</svg>