<svg xmlns="http://www.w3.org/2000/svg" width="24" height="24" viewBox="0 0 24 24" version="1.1">
	<path d="M 10.604 4.590 C 10.268 5.465, 10.259 6.610, 10.583 7.134 C 11.485 8.594, 8.924 11.109, 7.109 10.545 C 6.224 10.271, 4.825 10.485, 4 11.023 C 2.667 11.891, 2.667 12.109, 4 12.977 C 4.825 13.515, 6.224 13.729, 7.109 13.455 C 9.046 12.853, 11.235 15.202, 10.528 17.123 C 10.249 17.880, 10.466 19.175, 11.011 20 C 11.890 21.333, 12.110 21.333, 12.989 20 C 13.534 19.175, 13.751 17.880, 13.472 17.123 C 12.765 15.202, 14.954 12.853, 16.891 13.455 C 17.776 13.729, 19.175 13.515, 20 12.977 C 21.333 12.109, 21.333 11.891, 20 11.023 C 19.175 10.485, 17.776 10.271, 16.891 10.545 C 15.076 11.109, 12.515 8.594, 13.417 7.134 C 14.127 5.985, 13.104 3, 12 3 C 11.568 3, 10.939 3.716, 10.604 4.590 M 11 12 C 11 12.550, 11.450 13, 12 13 C 12.550 13, 13 12.550, 13 12 C 13 11.450, 12.550 11, 12 11 C 11.450 11, 11 11.450, 11 12" stroke="none" fill="black" fill-rule="evenodd"/>
</svg>