<svg xmlns="http://www.w3.org/2000/svg" width="24" height="24" viewBox="0 0 24 24" version="1.1">
	<path d="M 7.455 2 C 6.275 2, 4.565 2.823, 3.655 3.829 C 2.745 4.835, 2 6.545, 2 7.629 C 2 8.713, 2.540 10.140, 3.200 10.800 C 4.133 11.733, 4.133 12.267, 3.200 13.200 C 2.540 13.860, 2 15.365, 2 16.545 C 2 17.725, 2.823 19.435, 3.829 20.345 C 4.835 21.255, 6.545 22, 7.629 22 C 8.713 22, 10.140 21.460, 10.800 20.800 C 11.733 19.867, 12.267 19.867, 13.200 20.800 C 13.860 21.460, 15.365 22, 16.545 22 C 17.725 22, 19.435 21.177, 20.345 20.171 C 21.255 19.165, 22 17.455, 22 16.371 C 22 15.287, 21.460 13.860, 20.800 13.200 C 19.867 12.267, 19.867 11.733, 20.800 10.800 C 21.460 10.140, 22 8.635, 22 7.455 C 22 6.275, 21.177 4.565, 20.171 3.655 C 19.165 2.745, 17.455 2, 16.371 2 C 15.287 2, 13.860 2.540, 13.200 3.200 C 12.267 4.133, 11.733 4.133, 10.800 3.200 C 10.140 2.540, 8.635 2, 7.455 2 M 7.422 4 C 6.775 4, 5.653 4.713, 4.930 5.584 C 4.001 6.704, 3.913 7.638, 4.629 8.774 C 5.187 9.658, 6.220 10.573, 6.926 10.809 C 7.841 11.114, 8.008 10.600, 7.506 9.020 C 6.898 7.104, 7.088 6.893, 8.901 7.469 C 10.056 7.835, 11 7.744, 11 7.267 C 11 6.790, 10.460 5.860, 9.800 5.200 C 9.140 4.540, 8.070 4, 7.422 4 M 16.578 4 C 15.930 4, 14.860 4.540, 14.200 5.200 C 13.540 5.860, 13 6.790, 13 7.267 C 13 7.744, 13.944 7.835, 15.099 7.469 C 16.912 6.893, 17.102 7.104, 16.494 9.020 C 15.992 10.600, 16.159 11.114, 17.074 10.809 C 17.780 10.573, 18.813 9.658, 19.371 8.774 C 20.087 7.638, 19.999 6.704, 19.070 5.584 C 18.347 4.713, 17.225 4, 16.578 4 M 12 10 C 11.515 10, 10.816 10.489, 10.446 11.087 C 10.077 11.685, 10.275 12.675, 10.887 13.287 C 11.704 14.104, 12.296 14.104, 13.113 13.287 C 13.725 12.675, 13.923 11.685, 13.554 11.087 C 13.184 10.489, 12.485 10, 12 10 M 7.190 13 C 6.670 13, 5.689 13.669, 5.011 14.487 C 4.332 15.305, 4.041 16.665, 4.365 17.510 C 4.690 18.354, 5.646 19.310, 6.490 19.635 C 7.335 19.959, 8.695 19.668, 9.513 18.989 C 10.331 18.311, 11 17.330, 11 16.810 C 11 16.290, 10.056 16.165, 8.901 16.531 C 7.115 17.098, 6.902 16.885, 7.469 15.099 C 7.835 13.944, 7.710 13, 7.190 13 M 17.074 13.191 C 16.159 12.886, 15.992 13.400, 16.494 14.980 C 17.111 16.924, 16.924 17.111, 14.980 16.494 C 13.400 15.992, 12.886 16.159, 13.191 17.074 C 13.427 17.780, 14.371 18.832, 15.291 19.412 C 16.558 20.211, 17.386 20.042, 18.714 18.714 C 20.042 17.386, 20.211 16.558, 19.412 15.291 C 18.832 14.371, 17.780 13.427, 17.074 13.191" stroke="none" fill="black" fill-rule="evenodd"/>
</svg>