<svg xmlns="http://www.w3.org/2000/svg" width="24" height="24" viewBox="0 0 24 24" version="1.1">
	<path d="M 12 3 C 11.568 3, 10.939 3.716, 10.604 4.590 C 10.268 5.465, 10.259 6.610, 10.583 7.134 C 10.907 7.659, 10.620 8.753, 9.945 9.566 C 9.270 10.380, 7.994 10.820, 7.109 10.545 C 6.224 10.271, 4.825 10.485, 4 11.023 C 2.667 11.891, 2.667 12.109, 4 12.977 C 4.825 13.515, 6.224 13.729, 7.109 13.455 C 7.994 13.180, 9.239 13.583, 9.876 14.351 C 10.513 15.118, 10.806 16.366, 10.528 17.123 C 10.249 17.880, 10.466 19.175, 11.011 20 C 11.890 21.333, 12.110 21.333, 12.989 20 C 13.534 19.175, 13.751 17.880, 13.472 17.123 C 13.194 16.366, 13.487 15.118, 14.124 14.351 C 14.761 13.583, 16.006 13.180, 16.891 13.455 C 17.776 13.729, 19.175 13.515, 20 12.977 C 21.333 12.109, 21.333 11.891, 20 11.023 C 19.175 10.485, 17.776 10.271, 16.891 10.545 C 16.006 10.820, 14.730 10.380, 14.055 9.566 C 13.380 8.753, 13.093 7.659, 13.417 7.134 C 13.741 6.610, 13.732 5.465, 13.396 4.590 C 13.061 3.716, 12.432 3, 12 3 M 12 11 C 11.450 11, 11 11.450, 11 12 C 11 12.550, 11.450 13, 12 13 C 12.550 13, 13 12.550, 13 12 C 13 11.450, 12.550 11, 12 11" stroke="none" fill="black" fill-rule="evenodd"/>
</svg>