<svg xmlns="http://www.w3.org/2000/svg" width="24" height="24" viewBox="0 0 24 24" version="1.1">
	<path d="M 8.571 4.571 C 6.322 6.821, 6.564 11.711, 9 13.232 C 10.100 13.919, 11 15.514, 11 16.776 C 11 18.804, 10.754 18.939, 8.880 17.936 C 7.715 17.312, 6.537 15.946, 6.264 14.901 C 5.616 12.425, 4 12.444, 4 14.927 C 4 17.504, 8.606 21, 12 21 C 15.394 21, 20 17.504, 20 14.927 C 20 12.444, 18.384 12.425, 17.736 14.901 C 17.463 15.946, 16.285 17.312, 15.120 17.936 C 13.269 18.926, 13 18.800, 13 16.943 C 13 15.773, 13.900 13.671, 15 12.273 C 16.100 10.874, 17 8.923, 17 7.937 C 17 5.606, 14.361 3, 12 3 C 10.979 3, 9.436 3.707, 8.571 4.571 M 9.425 7.443 C 8.634 10.593, 9.509 11.941, 11.932 11.308 C 15.575 10.355, 15.558 5, 11.912 5 C 10.759 5, 9.802 5.940, 9.425 7.443" stroke="none" fill="black" fill-rule="evenodd"/>
</svg>