<svg xmlns="http://www.w3.org/2000/svg" width="24" height="24" viewBox="0 0 24 24" version="1.1">
	<path d="M 12 3 C 10.979 3, 9.436 3.707, 8.571 4.571 C 7.707 5.436, 7 7.457, 7 9.063 C 7 10.900, 7.742 12.446, 9 13.232 C 10.100 13.919, 11 15.514, 11 16.776 C 11 18.804, 10.754 18.939, 8.880 17.936 C 7.715 17.312, 6.537 15.946, 6.264 14.901 C 5.990 13.855, 5.369 13, 4.883 13 C 4.398 13, 4 13.867, 4 14.927 C 4 15.988, 5.186 17.788, 6.635 18.927 C 8.084 20.067, 10.498 21, 12 21 C 13.502 21, 15.916 20.067, 17.365 18.927 C 18.814 17.788, 20 15.988, 20 14.927 C 20 13.867, 19.602 13, 19.117 13 C 18.631 13, 18.010 13.855, 17.736 14.901 C 17.463 15.946, 16.285 17.312, 15.120 17.936 C 13.269 18.926, 13 18.800, 13 16.943 C 13 15.773, 13.900 13.671, 15 12.273 C 16.100 10.874, 17 8.923, 17 7.937 C 17 6.950, 16.293 5.436, 15.429 4.571 C 14.564 3.707, 13.021 3, 12 3 M 11.912 5 C 10.759 5, 9.802 5.940, 9.425 7.443 C 9.088 8.787, 9.080 10.320, 9.407 10.849 C 9.734 11.379, 10.870 11.585, 11.932 11.308 C 12.993 11.030, 14.104 10.172, 14.399 9.401 C 14.695 8.631, 14.678 7.325, 14.362 6.500 C 14.045 5.675, 12.943 5, 11.912 5" stroke="none" fill="black" fill-rule="evenodd"/>
</svg>