<svg viewBox="0 0 24 24" xmlns="http://www.w3.org/2000/svg" fill="none" stroke="#000000" stroke-width="2" stroke-linecap="round" stroke-linejoin="round"><path d="M11.659 3.064 C 11.391 3.159,11.223 3.331,11.029 3.709 C 10.639 4.470,10.478 5.137,10.477 5.999 C 10.477 6.860,10.638 7.529,11.029 8.291 C 11.224 8.670,11.393 8.843,11.659 8.934 L 11.820 8.990 11.660 9.017 C 10.774 9.169,10.224 9.472,9.679 10.109 C 9.341 10.503,9.095 11.065,9.017 11.620 L 8.989 11.820 8.930 11.645 C 8.847 11.403,8.620 11.191,8.239 11.000 C 6.866 10.309,5.153 10.303,3.792 10.983 C 3.631 11.063,3.442 11.172,3.371 11.226 C 3.066 11.455,2.929 11.925,3.055 12.306 C 3.155 12.606,3.315 12.769,3.709 12.971 C 4.473 13.363,5.127 13.520,6.000 13.520 C 6.876 13.520,7.601 13.343,8.336 12.949 C 8.674 12.768,8.853 12.586,8.939 12.335 L 8.992 12.181 9.019 12.380 C 9.092 12.927,9.340 13.496,9.679 13.891 C 10.212 14.514,10.856 14.876,11.620 14.983 L 11.820 15.011 11.659 15.066 C 11.393 15.157,11.224 15.330,11.029 15.709 C 10.639 16.470,10.478 17.137,10.477 17.999 C 10.477 18.860,10.638 19.529,11.029 20.291 C 11.227 20.677,11.392 20.842,11.675 20.939 C 11.902 21.016,12.098 21.016,12.325 20.939 C 12.608 20.842,12.773 20.677,12.971 20.291 C 13.363 19.527,13.520 18.873,13.520 18.000 C 13.520 17.127,13.363 16.474,12.970 15.707 C 12.771 15.320,12.627 15.177,12.332 15.074 L 12.143 15.008 12.381 14.979 C 13.528 14.839,14.554 13.967,14.874 12.860 C 14.918 12.706,14.967 12.490,14.983 12.380 L 15.011 12.180 15.066 12.341 C 15.157 12.607,15.330 12.776,15.709 12.971 C 16.473 13.363,17.127 13.520,18.000 13.520 C 18.838 13.520,19.503 13.367,20.220 13.011 C 20.597 12.823,20.739 12.710,20.862 12.501 C 21.081 12.127,21.018 11.618,20.716 11.316 C 20.631 11.231,20.417 11.089,20.239 11.000 C 18.829 10.291,17.083 10.303,15.704 11.032 C 15.324 11.233,15.151 11.403,15.061 11.665 L 15.008 11.819 14.981 11.620 C 14.908 11.073,14.660 10.504,14.321 10.109 C 13.776 9.472,13.226 9.169,12.340 9.017 L 12.180 8.990 12.341 8.934 C 12.607 8.843,12.776 8.670,12.971 8.291 C 13.363 7.527,13.520 6.873,13.520 6.000 C 13.520 5.127,13.363 4.473,12.971 3.709 C 12.768 3.314,12.613 3.162,12.313 3.065 C 12.070 2.987,11.876 2.987,11.659 3.064 M12.310 11.061 C 12.688 11.173,13.000 11.598,13.000 12.001 C 13.000 12.331,12.784 12.696,12.484 12.872 C 12.328 12.963,12.254 12.980,12.000 12.980 C 11.746 12.980,11.672 12.963,11.516 12.872 C 10.935 12.530,10.833 11.774,11.304 11.303 C 11.583 11.024,11.916 10.944,12.310 11.061 " stroke="none" fill-rule="evenodd" fill="black"></path></svg>