<svg xmlns="http://www.w3.org/2000/svg" width="24" height="24" viewBox="0 0 24 24" version="1.1">
	<path d="M 3.655 3.829 C 1.711 5.977, 1.507 9.107, 3.200 10.800 C 4.133 11.733, 4.133 12.267, 3.200 13.200 C 1.433 14.967, 1.740 18.454, 3.829 20.345 C 5.977 22.289, 9.107 22.493, 10.800 20.800 C 11.733 19.867, 12.267 19.867, 13.200 20.800 C 14.967 22.567, 18.454 22.260, 20.345 20.171 C 22.289 18.023, 22.493 14.893, 20.800 13.200 C 19.867 12.267, 19.867 11.733, 20.800 10.800 C 22.567 9.033, 22.260 5.546, 20.171 3.655 C 18.023 1.711, 14.893 1.507, 13.200 3.200 C 12.267 4.133, 11.733 4.133, 10.800 3.200 C 9.033 1.433, 5.546 1.740, 3.655 3.829 M 4.930 5.584 C 3.508 7.298, 4.545 10.015, 6.926 10.809 C 7.841 11.114, 8.008 10.600, 7.506 9.020 C 6.898 7.104, 7.088 6.893, 8.901 7.469 C 11.216 8.203, 11.666 7.066, 9.800 5.200 C 8.163 3.563, 6.499 3.694, 4.930 5.584 M 14.200 5.200 C 12.334 7.066, 12.784 8.203, 15.099 7.469 C 16.912 6.893, 17.102 7.104, 16.494 9.020 C 15.992 10.600, 16.159 11.114, 17.074 10.809 C 19.455 10.015, 20.492 7.298, 19.070 5.584 C 17.501 3.694, 15.837 3.563, 14.200 5.200 M 10.446 11.087 C 9.416 12.755, 11.733 14.667, 13.113 13.287 C 14.267 12.133, 13.545 10, 12 10 C 11.515 10, 10.816 10.489, 10.446 11.087 M 5.011 14.487 C 2.540 17.464, 6.536 21.460, 9.513 18.989 C 11.684 17.187, 11.330 15.761, 8.901 16.531 C 7.115 17.098, 6.902 16.885, 7.469 15.099 C 8.239 12.670, 6.813 12.316, 5.011 14.487 M 16.494 14.980 C 17.111 16.924, 16.924 17.111, 14.980 16.494 C 12.375 15.667, 12.592 17.709, 15.291 19.412 C 17.686 20.922, 20.922 17.686, 19.412 15.291 C 17.709 12.592, 15.667 12.375, 16.494 14.980" stroke="none" fill="black" fill-rule="evenodd"/>
</svg>