<svg xmlns="http://www.w3.org/2000/svg" width="24" height="24" viewBox="0 0 24 24" version="1.1">
	<path d="M 5.667 2 C 4.383 2, 3.033 2.300, 2.667 2.667 C 2.300 3.033, 2 4.383, 2 5.667 C 2 6.950, 2.450 8, 3 8 C 3.550 8, 4 7.100, 4 6 C 4 4.667, 4.667 4, 6 4 C 7.100 4, 8 3.550, 8 3 C 8 2.450, 6.950 2, 5.667 2 M 18.750 2.184 C 17.238 2.010, 16 2.347, 16 2.934 C 16 3.520, 16.900 4, 18 4 C 19.333 4, 20 4.667, 20 6 C 20 7.100, 20.480 8, 21.066 8 C 21.653 8, 21.990 6.763, 21.816 5.250 C 21.568 3.090, 20.910 2.432, 18.750 2.184 M 12 8 C 11.035 8, 9.703 8.653, 9.040 9.452 C 8.377 10.251, 7.985 11.665, 8.167 12.595 C 8.350 13.525, 9.287 14.782, 10.250 15.388 C 11.525 16.190, 12.475 16.190, 13.750 15.388 C 14.713 14.782, 15.650 13.525, 15.833 12.595 C 16.015 11.665, 15.623 10.251, 14.960 9.452 C 14.297 8.653, 12.965 8, 12 8 M 12 10 C 11.515 10, 10.816 10.489, 10.446 11.087 C 10.077 11.685, 10.275 12.675, 10.887 13.287 C 11.704 14.104, 12.296 14.104, 13.113 13.287 C 13.725 12.675, 13.923 11.685, 13.554 11.087 C 13.184 10.489, 12.485 10, 12 10 M 2.934 16 C 2.347 16, 2.010 17.238, 2.184 18.750 C 2.432 20.910, 3.090 21.568, 5.250 21.816 C 6.763 21.990, 8 21.653, 8 21.066 C 8 20.480, 7.100 20, 6 20 C 4.667 20, 4 19.333, 4 18 C 4 16.900, 3.520 16, 2.934 16 M 21.066 16 C 20.480 16, 20 16.900, 20 18 C 20 19.333, 19.333 20, 18 20 C 16.900 20, 16 20.480, 16 21.066 C 16 21.653, 17.238 21.990, 18.750 21.816 C 20.910 21.568, 21.568 20.910, 21.816 18.750 C 21.990 17.238, 21.653 16, 21.066 16" stroke="none" fill="black" fill-rule="evenodd"/>
</svg>