<svg xmlns="http://www.w3.org/2000/svg" width="24" height="24" viewBox="0 0 24 24" version="1.1">
	<path d="M 2.667 2.667 C 1.620 3.714, 1.888 8, 3 8 C 3.550 8, 4 7.100, 4 6 C 4 4.667, 4.667 4, 6 4 C 7.100 4, 8 3.550, 8 3 C 8 1.888, 3.714 1.620, 2.667 2.667 M 16 2.934 C 16 3.520, 16.900 4, 18 4 C 19.333 4, 20 4.667, 20 6 C 20 7.100, 20.480 8, 21.066 8 C 21.653 8, 21.990 6.763, 21.816 5.250 C 21.568 3.090, 20.910 2.432, 18.750 2.184 C 17.238 2.010, 16 2.347, 16 2.934 M 9.040 9.452 C 7.485 11.325, 8.028 13.989, 10.250 15.388 C 13.715 17.570, 17.617 12.653, 14.960 9.452 C 13.416 7.591, 10.584 7.591, 9.040 9.452 M 10.446 11.087 C 9.416 12.755, 11.733 14.667, 13.113 13.287 C 14.267 12.133, 13.545 10, 12 10 C 11.515 10, 10.816 10.489, 10.446 11.087 M 2.184 18.750 C 2.432 20.910, 3.090 21.568, 5.250 21.816 C 6.763 21.990, 8 21.653, 8 21.066 C 8 20.480, 7.100 20, 6 20 C 4.667 20, 4 19.333, 4 18 C 4 16.900, 3.520 16, 2.934 16 C 2.347 16, 2.010 17.238, 2.184 18.750 M 20 18 C 20 19.333, 19.333 20, 18 20 C 16.900 20, 16 20.480, 16 21.066 C 16 21.653, 17.238 21.990, 18.750 21.816 C 20.910 21.568, 21.568 20.910, 21.816 18.750 C 21.990 17.238, 21.653 16, 21.066 16 C 20.480 16, 20 16.900, 20 18" stroke="none" fill="#000000" fill-rule="evenodd"/>
</svg>