<svg xmlns="http://www.w3.org/2000/svg" width="24" height="24" viewBox="0 0 24 24" version="1.1">
	<path d="M 1.424 3.338 C 1.141 4.075, 1.043 8.237, 1.205 12.588 L 1.500 20.500 12 20.500 L 22.500 20.500 22.500 13 L 22.500 5.500 17.006 5.189 C 13.531 4.993, 11.216 4.350, 10.706 3.439 C 9.661 1.571, 2.133 1.489, 1.424 3.338 M 3 11.500 L 3 19 12 19 L 21 19 21 13 L 21 7 15.469 7 C 11.474 7, 9.777 6.583, 9.362 5.500 C 9.034 4.645, 7.542 4, 5.893 4 L 3 4 3 11.500 M 11 10.500 C 11 11.325, 10.325 12, 9.500 12 C 8.675 12, 8 12.450, 8 13 C 8 13.550, 8.675 14, 9.500 14 C 10.325 14, 11 14.675, 11 15.500 C 11 16.325, 11.450 17, 12 17 C 12.550 17, 13 16.325, 13 15.500 C 13 14.675, 13.675 14, 14.500 14 C 15.325 14, 16 13.550, 16 13 C 16 12.450, 15.325 12, 14.500 12 C 13.675 12, 13 11.325, 13 10.500 C 13 9.675, 12.550 9, 12 9 C 11.450 9, 11 9.675, 11 10.500" stroke="none" fill="#000000" fill-rule="evenodd"/>
</svg>