<svg xmlns="http://www.w3.org/2000/svg" width="24" height="24" viewBox="0 0 24 24" version="1.1">
	<path d="M 5.919 2 C 3.516 2, 1.734 2.531, 1.424 3.338 C 1.141 4.075, 1.043 8.237, 1.205 12.588 L 1.500 20.500 12 20.500 L 22.500 20.500 22.500 13 L 22.500 5.500 17.006 5.189 C 13.531 4.993, 11.216 4.350, 10.706 3.439 C 10.216 2.563, 8.344 2, 5.919 2 M 5.893 4 L 3 4 3 11.500 L 3 19 12 19 L 21 19 21 13 L 21 7 15.469 7 C 11.474 7, 9.777 6.583, 9.362 5.500 C 9.034 4.645, 7.542 4, 5.893 4 M 12 9 C 11.450 9, 11 9.886, 11 10.969 C 11 12.308, 10.520 12.753, 9.500 12.362 C 8.675 12.045, 8 12.214, 8 12.738 C 8 13.262, 8.900 14.505, 10 15.500 C 11.930 17.247, 12.070 17.247, 14 15.500 C 15.100 14.505, 16 13.262, 16 12.738 C 16 12.214, 15.325 12.045, 14.500 12.362 C 13.480 12.753, 13 12.308, 13 10.969 C 13 9.886, 12.550 9, 12 9" stroke="none" fill="black" fill-rule="evenodd"/>
</svg>