<svg viewBox="0 0 24 24" xmlns="http://www.w3.org/2000/svg" fill="none" stroke="#000000" stroke-width="2" stroke-linecap="round" stroke-linejoin="round"><path d="M3.499 2.042 C 2.376 2.236,1.461 3.048,1.114 4.160 L 1.020 4.460 1.020 11.480 C 1.020 18.278,1.022 18.509,1.097 18.787 L 1.174 19.073 1.081 19.515 C 0.974 20.024,0.987 20.243,1.141 20.505 C 1.419 20.980,2.054 21.138,2.520 20.848 L 2.708 20.731 3.064 20.856 L 3.420 20.980 12.000 20.980 L 20.580 20.980 20.936 20.856 L 21.292 20.731 21.480 20.848 C 21.946 21.138,22.581 20.980,22.859 20.505 C 23.013 20.243,23.026 20.024,22.919 19.515 L 22.826 19.073 22.903 18.787 C 22.977 18.510,22.980 18.299,22.980 12.980 L 22.980 7.460 22.886 7.160 C 22.581 6.182,21.831 5.427,20.861 5.122 L 20.540 5.021 16.160 5.000 L 11.780 4.980 11.591 4.869 C 11.401 4.757,11.267 4.586,10.607 3.617 C 10.122 2.903,9.817 2.614,9.260 2.338 C 8.601 2.013,8.717 2.024,6.060 2.015 C 4.762 2.011,3.609 2.023,3.499 2.042 M8.228 4.060 C 8.508 4.143,8.660 4.306,9.200 5.101 C 9.900 6.132,10.287 6.501,10.943 6.764 C 11.547 7.006,11.398 6.999,15.943 6.999 C 20.647 7.000,20.376 6.983,20.697 7.303 C 20.992 7.598,21.001 7.659,20.997 9.357 C 20.994 10.733,20.990 10.810,20.931 10.643 C 20.897 10.546,20.794 10.392,20.702 10.300 C 20.376 9.973,21.145 10.000,12.000 10.000 C 2.855 10.000,3.624 9.973,3.298 10.300 C 3.206 10.392,3.103 10.546,3.069 10.643 C 3.011 10.806,3.006 10.592,3.003 7.857 C 3.000 4.490,2.989 4.618,3.304 4.303 C 3.604 4.002,3.573 4.006,5.943 4.003 C 7.686 4.000,8.058 4.010,8.228 4.060 M19.214 12.090 C 19.279 12.355,20.680 18.686,20.680 18.718 C 20.680 18.739,20.595 18.807,20.490 18.868 L 20.300 18.980 12.081 18.990 C 3.187 19.002,3.662 19.012,3.406 18.799 L 3.311 18.720 3.979 15.710 C 4.347 14.055,4.683 12.543,4.727 12.350 L 4.807 12.000 11.999 12.000 L 19.191 12.000 19.214 12.090 " stroke="none" fill-rule="evenodd" fill="black"></path></svg>