<svg viewBox="0 0 24 24" xmlns="http://www.w3.org/2000/svg" fill="none" stroke="#000000" stroke-width="2" stroke-linecap="round" stroke-linejoin="round"><path d="M3.499 2.042 C 2.376 2.236,1.461 3.048,1.114 4.160 L 1.020 4.460 1.020 11.520 L 1.020 18.580 1.125 18.887 C 1.296 19.387,1.496 19.704,1.896 20.104 C 2.296 20.504,2.613 20.704,3.113 20.875 L 3.420 20.980 11.980 20.980 L 20.540 20.980 20.840 20.886 C 21.827 20.578,22.578 19.827,22.886 18.840 L 22.980 18.540 22.980 13.000 L 22.980 7.460 22.886 7.160 C 22.581 6.182,21.831 5.427,20.861 5.122 L 20.540 5.021 16.160 5.000 L 11.780 4.980 11.591 4.869 C 11.401 4.757,11.267 4.586,10.607 3.617 C 10.122 2.903,9.817 2.614,9.260 2.338 C 8.601 2.013,8.717 2.024,6.060 2.015 C 4.762 2.011,3.609 2.023,3.499 2.042 M8.228 4.060 C 8.508 4.143,8.660 4.306,9.200 5.101 C 9.900 6.132,10.287 6.501,10.943 6.764 C 11.547 7.006,11.398 6.999,15.943 6.999 C 20.647 7.000,20.376 6.983,20.697 7.303 C 21.020 7.627,21.000 7.243,21.000 13.001 C 21.000 17.212,20.990 18.139,20.945 18.290 C 20.872 18.533,20.707 18.740,20.484 18.872 L 20.300 18.980 12.081 18.990 C 2.928 19.002,3.637 19.023,3.331 18.726 C 3.246 18.644,3.142 18.505,3.098 18.418 C 3.022 18.263,3.020 18.126,3.010 11.582 C 2.998 4.059,2.975 4.632,3.303 4.303 C 3.604 4.002,3.573 4.006,5.943 4.003 C 7.686 4.000,8.058 4.010,8.228 4.060 M11.695 9.057 C 11.466 9.129,11.256 9.299,11.128 9.516 L 11.020 9.700 11.009 11.635 L 10.997 13.571 10.269 12.852 C 9.655 12.247,9.509 12.123,9.343 12.067 C 8.865 11.905,8.383 12.083,8.128 12.516 C 8.036 12.672,8.020 12.745,8.021 13.000 C 8.021 13.212,8.043 13.341,8.095 13.440 C 8.135 13.517,8.891 14.306,9.774 15.194 C 11.528 16.957,11.580 16.999,12.000 16.999 C 12.420 16.999,12.472 16.957,14.226 15.194 C 15.109 14.306,15.865 13.517,15.905 13.440 C 15.957 13.341,15.979 13.212,15.979 13.000 C 15.980 12.745,15.964 12.672,15.872 12.516 C 15.617 12.083,15.135 11.905,14.657 12.067 C 14.491 12.123,14.345 12.247,13.731 12.852 L 13.003 13.571 12.991 11.635 L 12.980 9.700 12.872 9.516 C 12.628 9.101,12.150 8.915,11.695 9.057 " stroke="none" fill-rule="evenodd" fill="black"></path></svg>