<svg xmlns="http://www.w3.org/2000/svg" width="24" height="24" viewBox="0 0 24 24" version="1.1">
	<path d="M 6.117 2 C 4.036 2, 2.033 2.300, 1.667 2.667 C 1.300 3.033, 1 7.308, 1 12.167 L 1 21 12.042 21 L 23.084 21 22.792 13.250 L 22.500 5.500 17.006 5.189 C 13.531 4.993, 11.216 4.350, 10.706 3.439 C 10.227 2.582, 8.370 2, 6.117 2 M 5.893 4 C 3.345 4, 3 4.358, 3 7 L 3 10 12 10 C 19.333 10, 21 9.722, 21 8.500 C 21 7.347, 19.719 7, 15.469 7 C 11.474 7, 9.777 6.583, 9.362 5.500 C 9.034 4.645, 7.542 4, 5.893 4 M 12 12 C 6.735 12, 5.078 12.354, 4.607 13.582 C 4.273 14.452, 4 16.027, 4 17.082 C 4 18.813, 4.780 19, 12 19 C 19.220 19, 20 18.813, 20 17.082 C 20 16.027, 19.727 14.452, 19.393 13.582 C 18.922 12.354, 17.265 12, 12 12" stroke="none" fill="black" fill-rule="evenodd"/>
</svg>