<svg xmlns="http://www.w3.org/2000/svg" width="24" height="24" viewBox="0 0 24 24" version="1.1">
	<path d="M 7.500 1.894 C 3.457 3.652, 1.500 6.976, 1.500 12.082 C 1.500 16.074, 2.001 17.456, 4.273 19.727 C 6.557 22.011, 7.919 22.500, 12 22.500 C 19.011 22.500, 22.500 19.011, 22.500 12 C 22.500 7.999, 22 6.546, 19.903 4.448 C 17.099 1.644, 10.974 0.383, 7.500 1.894 M 6.861 4.929 C 4.940 6.499, 4.738 7.100, 5.778 8.157 C 7.455 9.862, 10.378 8.118, 10.820 5.148 C 11.215 2.487, 9.936 2.416, 6.861 4.929 M 13.180 5.148 C 13.622 8.118, 16.545 9.862, 18.222 8.157 C 19.262 7.100, 19.060 6.499, 17.139 4.929 C 14.064 2.416, 12.785 2.487, 13.180 5.148 M 3 11.840 C 3 13.368, 3.626 15.474, 4.392 16.521 C 5.564 18.124, 6.033 18.217, 7.365 17.112 C 8.763 15.952, 8.780 15.476, 7.511 13.021 C 5.416 8.970, 3 8.338, 3 11.840 M 10.139 10.332 C 9.318 11.322, 9.415 12.157, 10.517 13.582 C 11.979 15.473, 12.021 15.473, 13.483 13.582 C 14.585 12.157, 14.682 11.322, 13.861 10.332 C 13.253 9.599, 12.415 9, 12 9 C 11.585 9, 10.747 9.599, 10.139 10.332 M 16.552 12.899 C 15.208 15.499, 15.216 15.935, 16.635 17.112 C 17.967 18.217, 18.436 18.124, 19.608 16.521 C 21.461 13.988, 21.410 10, 19.526 10 C 18.715 10, 17.377 11.305, 16.552 12.899 M 9.131 18.342 C 8.519 19.080, 8.313 19.980, 8.675 20.342 C 9.529 21.195, 14.471 21.195, 15.325 20.342 C 16.322 19.344, 13.990 17, 12 17 C 11.035 17, 9.744 17.604, 9.131 18.342" stroke="none" fill="black" fill-rule="evenodd"/>
</svg>