<svg xmlns="http://www.w3.org/2000/svg" width="24" height="24" viewBox="0 0 24 24" version="1.1">
	<path d="M 13.403 1.438 C 11.256 1.210, 8.600 1.416, 7.500 1.894 C 6.400 2.373, 4.600 3.764, 3.500 4.987 C 2.078 6.568, 1.500 8.618, 1.500 12.082 C 1.500 16.074, 2.001 17.456, 4.273 19.727 C 6.557 22.011, 7.919 22.500, 12 22.500 C 16.081 22.500, 17.443 22.011, 19.727 19.727 C 22.011 17.443, 22.500 16.081, 22.500 12 C 22.500 7.999, 22 6.546, 19.903 4.448 C 18.256 2.802, 15.876 1.699, 13.403 1.438 M 10.180 3 C 9.653 3, 8.159 3.868, 6.861 4.929 C 4.940 6.499, 4.738 7.100, 5.778 8.157 C 6.723 9.117, 7.503 9.174, 8.778 8.375 C 9.725 7.782, 10.644 6.329, 10.820 5.148 C 10.995 3.967, 10.708 3, 10.180 3 M 13.820 3 C 13.292 3, 13.005 3.967, 13.180 5.148 C 13.356 6.329, 14.275 7.782, 15.222 8.375 C 16.497 9.174, 17.277 9.117, 18.222 8.157 C 19.262 7.100, 19.060 6.499, 17.139 4.929 C 15.841 3.868, 14.347 3, 13.820 3 M 4.537 9.653 C 3.382 9.209, 3 9.753, 3 11.840 C 3 13.368, 3.626 15.474, 4.392 16.521 C 5.564 18.124, 6.033 18.217, 7.365 17.112 C 8.763 15.952, 8.780 15.476, 7.511 13.021 C 6.720 11.493, 5.382 9.977, 4.537 9.653 M 12 9 C 11.585 9, 10.747 9.599, 10.139 10.332 C 9.318 11.322, 9.415 12.157, 10.517 13.582 C 11.979 15.473, 12.021 15.473, 13.483 13.582 C 14.585 12.157, 14.682 11.322, 13.861 10.332 C 13.253 9.599, 12.415 9, 12 9 M 19.526 10 C 18.715 10, 17.377 11.305, 16.552 12.899 C 15.208 15.499, 15.216 15.935, 16.635 17.112 C 17.967 18.217, 18.436 18.124, 19.608 16.521 C 20.374 15.474, 21 13.579, 21 12.309 C 21 10.941, 20.399 10, 19.526 10 M 12 17 C 11.035 17, 9.744 17.604, 9.131 18.342 C 8.519 19.080, 8.313 19.980, 8.675 20.342 C 9.037 20.704, 10.533 21, 12 21 C 13.467 21, 14.963 20.704, 15.325 20.342 C 15.687 19.980, 15.481 19.080, 14.869 18.342 C 14.256 17.604, 12.965 17, 12 17" stroke="none" fill="black" fill-rule="evenodd"/>
</svg>