<svg xmlns="http://www.w3.org/2000/svg" width="24" height="24" viewBox="0 0 24 24" version="1.1">
	<path d="M 8 7.378 C 8 11.827, 8.454 14.132, 9.500 15 C 10.325 15.685, 11 17.765, 11 19.622 C 11 21.480, 11.450 23, 12 23 C 12.550 23, 13 21.480, 13 19.622 C 13 17.765, 13.675 15.685, 14.500 15 C 15.546 14.132, 16 11.827, 16 7.378 C 16 -0.846, 14.188 -0.951, 13.798 7.250 C 13.571 12.007, 13.142 13.500, 12 13.500 C 10.858 13.500, 10.429 12.007, 10.202 7.250 C 9.812 -0.951, 8 -0.846, 8 7.378" stroke="none" fill="#000000" fill-rule="evenodd"/>
</svg>