<svg viewBox="0 0 24 24" xmlns="http://www.w3.org/2000/svg" fill="none" stroke="#000000" stroke-width="2" stroke-linecap="round" stroke-linejoin="round"><path d="M8.580 1.095 C 8.340 1.209,8.193 1.358,8.083 1.600 C 8.003 1.778,8.002 1.834,8.001 7.074 C 8.000 12.263,8.002 12.375,8.082 12.772 C 8.359 14.128,9.281 15.231,10.540 15.711 C 10.716 15.778,10.891 15.843,10.929 15.855 C 10.994 15.875,10.999 16.087,11.009 19.092 L 11.020 22.306 11.141 22.503 C 11.543 23.156,12.457 23.156,12.859 22.503 L 12.980 22.306 12.991 19.092 C 13.001 16.087,13.006 15.875,13.071 15.855 C 13.666 15.666,14.162 15.400,14.584 15.046 C 15.266 14.471,15.735 13.669,15.921 12.757 C 15.997 12.380,16.000 12.199,16.000 7.074 L 15.999 1.780 15.905 1.580 C 15.732 1.215,15.399 1.002,15.000 1.002 C 14.601 1.002,14.268 1.215,14.095 1.580 L 14.001 1.780 14.000 6.980 C 13.999 12.646,14.004 12.496,13.772 12.931 C 13.625 13.208,13.191 13.643,12.930 13.775 C 12.346 14.071,11.658 14.073,11.083 13.781 C 10.816 13.646,10.449 13.297,10.281 13.017 C 9.990 12.533,10.005 12.863,10.002 7.020 L 9.999 1.780 9.905 1.580 C 9.664 1.072,9.081 0.858,8.580 1.095 " stroke="none" fill-rule="evenodd" fill="black"></path></svg>