<svg xmlns="http://www.w3.org/2000/svg" width="24" height="24" viewBox="0 0 24 24" version="1.1">
	<path d="M 8.952 1 C 8.429 1, 8 3.870, 8 7.378 C 8 11.827, 8.454 14.132, 9.500 15 C 10.325 15.685, 11 17.765, 11 19.622 C 11 21.480, 11.450 23, 12 23 C 12.550 23, 13 21.480, 13 19.622 C 13 17.765, 13.675 15.685, 14.500 15 C 15.546 14.132, 16 11.827, 16 7.378 C 16 3.870, 15.571 1, 15.048 1 C 14.524 1, 13.961 3.813, 13.798 7.250 C 13.571 12.007, 13.142 13.500, 12 13.500 C 10.858 13.500, 10.429 12.007, 10.202 7.250 C 10.039 3.813, 9.476 1, 8.952 1" stroke="none" fill="black" fill-rule="evenodd"/>
</svg>