<svg xmlns="http://www.w3.org/2000/svg" width="24" height="24" viewBox="0 0 24 24" version="1.1">
	<path d="M 4.446 2.281 C 4.157 3.034, 4.051 7.891, 4.210 13.075 L 4.500 22.500 12 22.500 L 19.500 22.500 19.500 12 L 19.500 1.500 12.236 1.206 C 6.800 0.986, 4.839 1.257, 4.446 2.281 M 6 6 L 6 9 12 9 L 18 9 18 6 C 18 4.350, 17.550 3, 17 3 C 16.450 3, 16 4.125, 16 5.500 C 16 6.875, 15.550 8, 15 8 C 14.450 8, 14 6.875, 14 5.500 C 14 3.250, 13.600 3, 10 3 C 6.222 3, 6 3.167, 6 6 M 6 16 L 6 21 12 21 L 18 21 18 16 L 18 11 12 11 L 6 11 6 16 M 14 16 C 14 17.650, 14.450 19, 15 19 C 15.550 19, 16 17.650, 16 16 C 16 14.350, 15.550 13, 15 13 C 14.450 13, 14 14.350, 14 16" stroke="none" fill="#000000" fill-rule="evenodd"/>
</svg>