<svg viewBox="0 0 24 24" xmlns="http://www.w3.org/2000/svg" fill="none" stroke="#000000" stroke-width="2" stroke-linecap="round" stroke-linejoin="round"><path d="M4.695 1.057 C 4.466 1.129,4.256 1.299,4.128 1.516 L 4.020 1.700 4.010 11.915 C 4.003 18.663,4.013 22.180,4.040 22.278 C 4.099 22.498,4.291 22.739,4.508 22.867 L 4.700 22.980 12.000 22.980 L 19.300 22.980 19.492 22.867 C 19.709 22.739,19.901 22.498,19.960 22.278 C 19.987 22.180,19.997 18.663,19.990 11.915 L 19.980 1.700 19.872 1.516 C 19.740 1.293,19.533 1.128,19.290 1.055 C 19.027 0.976,4.947 0.978,4.695 1.057 M14.695 3.057 C 14.466 3.129,14.256 3.299,14.128 3.516 L 14.020 3.700 14.020 5.503 L 14.020 7.306 14.141 7.503 C 14.543 8.156,15.457 8.156,15.859 7.503 L 15.980 7.306 15.980 5.503 L 15.980 3.700 15.872 3.516 C 15.744 3.299,15.534 3.129,15.305 3.057 C 15.163 3.013,15.339 3.005,16.570 3.003 L 18.000 3.000 18.000 6.000 L 18.000 9.000 12.000 9.000 L 6.000 9.000 6.000 6.000 L 6.000 3.000 10.430 3.003 C 14.114 3.005,14.832 3.014,14.695 3.057 M18.000 16.000 L 18.000 21.000 12.000 21.000 L 6.000 21.000 6.000 16.000 L 6.000 11.000 12.000 11.000 L 18.000 11.000 18.000 16.000 M14.695 13.057 C 14.466 13.129,14.256 13.299,14.128 13.516 L 14.020 13.700 14.020 15.503 L 14.020 17.306 14.141 17.503 C 14.543 18.156,15.457 18.156,15.859 17.503 L 15.980 17.306 15.980 15.503 L 15.980 13.700 15.872 13.516 C 15.628 13.101,15.150 12.915,14.695 13.057 " stroke="none" fill-rule="evenodd" fill="black"></path></svg>