<svg xmlns="http://www.w3.org/2000/svg" width="24" height="24" viewBox="0 0 24 24" version="1.1">
	<path d="M 4 12 L 4 23 12 23 L 20 23 20 12 L 20 1 12 1 L 4 1 4 12 M 6 6 L 6 9 12 9 L 18 9 18 6 C 18 4.350, 17.550 3, 17 3 C 16.450 3, 16 4.125, 16 5.500 C 16 6.875, 15.550 8, 15 8 C 14.450 8, 14 6.875, 14 5.500 C 14 3.250, 13.600 3, 10 3 C 6.222 3, 6 3.167, 6 6 M 6 16 L 6 21 12 21 L 18 21 18 16 L 18 11 12 11 L 6 11 6 16 M 14 15.500 C 14 16.875, 14.450 18, 15 18 C 15.550 18, 16 16.875, 16 15.500 C 16 14.125, 15.550 13, 15 13 C 14.450 13, 14 14.125, 14 15.500" stroke="none" fill="#000000" fill-rule="evenodd"/>
</svg>