<svg xmlns="http://www.w3.org/2000/svg" width="24" height="24" viewBox="0 0 24 24" version="1.1">
	<path d="M 17 3 C 17 3.550, 17.450 4, 18 4 C 18.550 4, 19 3.550, 19 3 C 19 2.450, 18.550 2, 18 2 C 17.450 2, 17 2.450, 17 3 M 2.714 3.619 C 1.588 4.745, 1.858 23, 3 23 C 3.550 23, 4 20.750, 4 18 L 4 13 8.094 13 L 12.188 13 11.500 18 C 10.923 22.196, 11.069 23, 12.406 23 C 13.314 23, 14 22.169, 14 21.070 C 14 19.829, 14.804 19.025, 16.250 18.820 C 18.094 18.558, 18.500 17.868, 18.500 15 C 18.500 11.605, 18.374 11.491, 14.307 11.195 C 10.259 10.901, 10.104 10.763, 9.807 7.195 C 9.533 3.892, 9.178 3.468, 6.464 3.203 C 4.794 3.039, 3.107 3.227, 2.714 3.619 M 4 8 C 4 10.333, 4.444 11, 6 11 C 7.556 11, 8 10.333, 8 8 C 8 5.667, 7.556 5, 6 5 C 4.444 5, 4 5.667, 4 8 M 14 15 C 14 16.111, 14.667 17, 15.500 17 C 16.333 17, 17 16.111, 17 15 C 17 13.889, 16.333 13, 15.500 13 C 14.667 13, 14 13.889, 14 15" stroke="none" fill="#000000" fill-rule="evenodd"/>
</svg>