<svg viewBox="0 0 24 24" xmlns="http://www.w3.org/2000/svg" fill="none" stroke="#000000" stroke-width="2" stroke-linecap="round" stroke-linejoin="round"><path d="M17.695 2.055 C 17.464 2.130,17.255 2.300,17.128 2.516 C 17.037 2.672,17.020 2.746,17.020 3.000 C 17.020 3.257,17.036 3.327,17.133 3.492 C 17.651 4.374,18.998 4.018,18.998 3.000 C 18.998 2.623,18.792 2.281,18.463 2.112 C 18.265 2.010,17.911 1.984,17.695 2.055 M4.499 3.042 C 3.372 3.239,2.461 4.048,2.114 5.160 L 2.020 5.460 2.020 8.884 L 2.020 12.307 2.144 12.507 L 2.269 12.708 2.144 13.064 L 2.020 13.420 2.020 17.863 L 2.020 22.306 2.141 22.503 C 2.543 23.156,3.457 23.156,3.859 22.503 L 3.980 22.306 4.000 18.023 C 4.022 13.224,3.997 13.598,4.321 13.283 C 4.622 12.991,4.508 13.000,8.000 13.000 C 11.525 13.000,11.382 12.988,11.697 13.303 C 12.000 13.606,12.000 13.608,12.000 15.830 L 12.000 17.766 11.873 17.893 C 11.509 18.257,11.275 18.649,11.114 19.161 C 11.023 19.451,11.020 19.502,11.020 20.883 L 11.020 22.306 11.141 22.503 C 11.375 22.883,11.801 23.065,12.219 22.963 C 12.330 22.936,12.456 22.915,12.500 22.915 C 12.544 22.915,12.670 22.936,12.781 22.963 C 13.199 23.065,13.625 22.883,13.859 22.503 L 13.980 22.306 13.992 20.657 L 14.003 19.007 15.292 18.991 C 16.502 18.976,16.597 18.969,16.860 18.884 C 17.841 18.563,18.581 17.817,18.886 16.840 C 18.978 16.547,18.980 16.503,18.980 15.000 C 18.980 13.497,18.978 13.453,18.886 13.160 C 18.581 12.181,17.827 11.423,16.861 11.123 C 16.543 11.024,16.526 11.023,14.742 11.009 C 12.834 10.994,12.700 11.004,12.440 11.180 L 12.300 11.274 12.020 11.180 C 11.611 11.041,11.293 11.001,10.612 11.000 L 10.004 11.000 9.991 8.210 L 9.979 5.420 9.885 5.140 C 9.558 4.159,8.815 3.418,7.861 3.124 C 7.548 3.027,7.504 3.024,6.120 3.015 C 5.339 3.010,4.609 3.022,4.499 3.042 M7.310 5.061 C 7.452 5.103,7.571 5.178,7.697 5.303 C 8.007 5.614,8.000 5.539,8.000 8.445 L 8.000 10.995 6.230 11.010 C 4.726 11.024,4.427 11.036,4.240 11.093 C 4.119 11.129,4.016 11.159,4.010 11.160 C 4.005 11.160,4.000 9.975,4.000 8.527 C 4.000 5.529,3.992 5.614,4.304 5.303 C 4.584 5.022,4.675 5.006,5.983 5.003 C 6.878 5.001,7.147 5.012,7.310 5.061 M16.310 13.061 C 16.589 13.144,16.856 13.411,16.939 13.690 C 17.023 13.972,17.028 16.015,16.945 16.290 C 16.872 16.533,16.707 16.740,16.484 16.872 L 16.300 16.980 15.153 16.992 L 14.005 17.004 13.991 15.212 C 13.978 13.660,13.967 13.393,13.909 13.220 C 13.871 13.110,13.841 13.015,13.840 13.010 C 13.840 13.005,14.350 13.000,14.973 13.000 C 15.870 13.000,16.148 13.013,16.310 13.061 " stroke="none" fill-rule="evenodd" fill="black"></path></svg>