<svg xmlns="http://www.w3.org/2000/svg" width="24" height="24" viewBox="0 0 24 24" version="1.1">
	<path d="M 1.425 6.334 C 1.129 7.106, 1.024 10.160, 1.193 13.119 L 1.500 18.500 12 18.500 L 22.500 18.500 22.500 12 L 22.500 5.500 12.232 5.215 C 4.143 4.990, 1.850 5.228, 1.425 6.334 M 3 12 L 3 17 12 17 L 21 17 21 12 L 21 7 12 7 L 3 7 3 12 M 6.195 10.555 C 5.115 11.778, 5.158 12.301, 6.445 13.588 C 7.852 14.994, 8.150 14.993, 9.571 13.571 C 10.968 12.175, 10.976 11.833, 9.643 10.500 C 7.838 8.696, 7.836 8.696, 6.195 10.555 M 14 10.571 C 14 11.634, 17.091 14.243, 17.667 13.667 C 17.981 13.352, 17.542 12.399, 16.690 11.548 C 15.103 9.960, 14 9.560, 14 10.571" stroke="none" fill="black" fill-rule="evenodd"/>
</svg>