<svg xmlns="http://www.w3.org/2000/svg" width="24" height="24" viewBox="0 0 24 24" version="1.1">
	<path d="M 13.403 1.438 C 11.256 1.210, 8.600 1.416, 7.500 1.894 C 6.400 2.373, 4.600 3.764, 3.500 4.987 C 2.078 6.568, 1.500 8.618, 1.500 12.082 C 1.500 16.074, 2.001 17.456, 4.273 19.727 C 6.557 22.011, 7.919 22.500, 12 22.500 C 16.081 22.500, 17.443 22.011, 19.727 19.727 C 22.011 17.443, 22.500 16.081, 22.500 12 C 22.500 7.999, 22 6.546, 19.903 4.448 C 18.256 2.802, 15.876 1.699, 13.403 1.438 M 12 3 C 9.848 3, 7.918 3.928, 5.923 5.923 C 3.928 7.918, 3 9.848, 3 12 C 3 14.152, 3.928 16.082, 5.923 18.077 C 7.918 20.072, 9.848 21, 12 21 C 14.152 21, 16.082 20.072, 18.077 18.077 C 20.072 16.082, 21 14.152, 21 12 C 21 9.848, 20.072 7.918, 18.077 5.923 C 16.082 3.928, 14.152 3, 12 3 M 7.821 9.038 C 7.645 9.059, 6.913 9.741, 6.195 10.555 C 5.115 11.778, 5.158 12.301, 6.445 13.588 C 7.852 14.994, 8.150 14.993, 9.571 13.571 C 10.968 12.175, 10.976 11.833, 9.643 10.500 C 8.818 9.675, 7.998 9.017, 7.821 9.038 M 17.250 10.038 C 16.837 10.059, 15.892 10.764, 15.149 11.604 C 14.406 12.444, 14.047 13.381, 14.352 13.685 C 14.656 13.989, 15.601 13.542, 16.452 12.690 C 17.304 11.839, 18 10.886, 18 10.571 C 18 10.257, 17.663 10.017, 17.250 10.038" stroke="none" fill="black" fill-rule="evenodd"/>
</svg>