<svg viewBox="0 0 24 24" xmlns="http://www.w3.org/2000/svg" fill="none" stroke="#000000" stroke-width="2" stroke-linecap="round" stroke-linejoin="round"><path d="M11.280 1.023 C 11.203 1.032,10.951 1.059,10.720 1.083 C 8.832 1.283,6.991 2.023,5.360 3.235 C 4.751 3.688,3.684 4.755,3.226 5.367 C 1.689 7.428,0.928 9.829,1.013 12.360 C 1.105 15.119,2.182 17.659,4.096 19.631 C 5.903 21.492,8.111 22.590,10.720 22.925 C 10.958 22.956,11.513 22.979,12.000 22.979 C 12.487 22.979,13.042 22.956,13.280 22.925 C 15.876 22.592,18.091 21.494,19.881 19.655 C 20.814 18.696,21.473 17.732,22.019 16.529 C 23.681 12.868,23.206 8.627,20.770 5.363 C 20.316 4.755,19.247 3.686,18.640 3.235 C 17.045 2.049,15.365 1.360,13.423 1.096 C 13.000 1.038,11.574 0.990,11.280 1.023 M13.320 3.101 C 15.883 3.488,18.124 4.931,19.560 7.120 C 19.863 7.583,20.303 8.479,20.492 9.020 C 20.834 10.001,20.975 10.861,20.978 11.980 C 20.980 12.790,20.941 13.202,20.800 13.860 C 20.174 16.799,18.138 19.226,15.366 20.338 C 13.175 21.217,10.825 21.217,8.634 20.338 C 5.862 19.226,3.826 16.800,3.200 13.860 C 3.059 13.202,3.020 12.790,3.022 11.980 C 3.026 10.500,3.285 9.369,3.920 8.060 C 4.971 5.891,6.877 4.221,9.160 3.466 C 9.865 3.233,10.432 3.118,11.340 3.024 C 11.662 2.991,12.911 3.039,13.320 3.101 M7.695 9.057 C 7.466 9.129,7.256 9.299,7.128 9.516 C 7.025 9.692,7.019 9.728,7.007 10.350 L 6.993 11.000 6.443 11.000 C 5.648 11.000,5.366 11.111,5.128 11.516 C 5.037 11.672,5.020 11.746,5.020 12.000 C 5.020 12.256,5.036 12.328,5.131 12.489 C 5.256 12.702,5.449 12.864,5.670 12.943 C 5.768 12.978,6.022 12.997,6.407 12.998 L 6.993 13.000 7.007 13.653 C 7.020 14.300,7.021 14.308,7.141 14.503 C 7.209 14.613,7.346 14.756,7.452 14.828 C 7.923 15.144,8.554 14.999,8.859 14.503 C 8.979 14.308,8.980 14.300,8.993 13.653 L 9.007 13.000 9.593 12.998 C 9.978 12.997,10.232 12.978,10.330 12.943 C 10.551 12.864,10.744 12.702,10.869 12.489 C 10.964 12.328,10.980 12.256,10.980 12.000 C 10.980 11.746,10.963 11.672,10.872 11.516 C 10.634 11.111,10.352 11.000,9.557 11.000 L 9.007 11.000 8.993 10.350 C 8.981 9.728,8.975 9.692,8.872 9.516 C 8.628 9.101,8.150 8.915,7.695 9.057 M16.695 10.055 C 16.464 10.130,16.255 10.300,16.128 10.516 C 16.037 10.672,16.020 10.746,16.020 11.000 C 16.020 11.257,16.036 11.327,16.133 11.492 C 16.651 12.374,17.998 12.018,17.998 11.000 C 17.998 10.623,17.792 10.281,17.463 10.112 C 17.265 10.010,16.911 9.984,16.695 10.055 M14.695 12.055 C 14.464 12.130,14.255 12.300,14.128 12.516 C 14.037 12.672,14.020 12.746,14.020 13.000 C 14.020 13.257,14.036 13.327,14.133 13.492 C 14.651 14.374,15.998 14.018,15.998 13.000 C 15.998 12.623,15.792 12.281,15.463 12.112 C 15.265 12.010,14.911 11.984,14.695 12.055 " stroke="none" fill-rule="evenodd" fill="black"></path></svg>