<svg xmlns="http://www.w3.org/2000/svg" width="24" height="24" viewBox="0 0 24 24" version="1.1">
	<path d="M 7.500 1.894 C 3.457 3.652, 1.500 6.976, 1.500 12.082 C 1.500 16.074, 2.001 17.456, 4.273 19.727 C 6.557 22.011, 7.919 22.500, 12 22.500 C 19.011 22.500, 22.500 19.011, 22.500 12 C 22.500 7.999, 22 6.546, 19.903 4.448 C 17.099 1.644, 10.974 0.383, 7.500 1.894 M 5.923 5.923 C 3.928 7.918, 3 9.848, 3 12 C 3 16.302, 7.698 21, 12 21 C 14.152 21, 16.082 20.072, 18.077 18.077 C 22.007 14.147, 22.007 9.853, 18.077 5.923 C 14.147 1.993, 9.853 1.993, 5.923 5.923 M 6.195 10.555 C 5.115 11.778, 5.158 12.301, 6.445 13.588 C 7.852 14.994, 8.150 14.993, 9.571 13.571 C 10.968 12.175, 10.976 11.833, 9.643 10.500 C 7.838 8.696, 7.836 8.696, 6.195 10.555 M 15.149 11.604 C 13.327 13.665, 14.500 14.643, 16.452 12.690 C 17.304 11.839, 18 10.886, 18 10.571 C 18 9.521, 16.515 10.059, 15.149 11.604" stroke="none" fill="black" fill-rule="evenodd"/>
</svg>