<svg viewBox="0 0 24 24" xmlns="http://www.w3.org/2000/svg" fill="none" stroke="#000000" stroke-width="2" stroke-linecap="round" stroke-linejoin="round"><path d="M3.499 5.043 C 2.380 5.232,1.461 6.048,1.114 7.160 L 1.020 7.460 1.020 12.000 L 1.020 16.540 1.114 16.840 C 1.422 17.827,2.173 18.578,3.160 18.886 L 3.460 18.980 12.000 18.980 L 20.540 18.980 20.840 18.886 C 21.827 18.578,22.578 17.827,22.886 16.840 L 22.980 16.540 22.980 12.000 L 22.980 7.460 22.886 7.160 C 22.581 6.182,21.832 5.428,20.861 5.121 L 20.540 5.020 12.120 5.014 C 7.489 5.011,3.609 5.024,3.499 5.043 M20.310 7.061 C 20.589 7.144,20.856 7.411,20.939 7.690 C 20.992 7.867,21.000 8.441,21.000 12.001 C 21.000 16.458,21.007 16.319,20.779 16.618 C 20.718 16.698,20.585 16.813,20.484 16.872 L 20.300 16.980 12.000 16.980 L 3.700 16.980 3.516 16.872 C 3.303 16.747,3.141 16.550,3.058 16.316 C 2.969 16.062,2.971 7.992,3.061 7.690 C 3.140 7.421,3.412 7.143,3.673 7.063 C 3.833 7.014,5.030 7.005,11.983 7.003 C 19.144 7.000,20.130 7.007,20.310 7.061 M7.695 9.057 C 7.466 9.129,7.256 9.299,7.128 9.516 C 7.025 9.692,7.019 9.728,7.007 10.350 L 6.993 11.000 6.443 11.000 C 5.648 11.000,5.366 11.111,5.128 11.516 C 5.037 11.672,5.020 11.746,5.020 12.000 C 5.020 12.256,5.036 12.328,5.131 12.489 C 5.256 12.702,5.449 12.864,5.670 12.943 C 5.768 12.978,6.022 12.997,6.407 12.998 L 6.993 13.000 7.007 13.653 C 7.020 14.300,7.021 14.308,7.141 14.503 C 7.209 14.613,7.346 14.756,7.452 14.828 C 7.923 15.144,8.554 14.999,8.859 14.503 C 8.979 14.308,8.980 14.300,8.993 13.653 L 9.007 13.000 9.593 12.998 C 9.978 12.997,10.232 12.978,10.330 12.943 C 10.551 12.864,10.744 12.702,10.869 12.489 C 10.964 12.328,10.980 12.256,10.980 12.000 C 10.980 11.746,10.963 11.672,10.872 11.516 C 10.634 11.111,10.352 11.000,9.557 11.000 L 9.007 11.000 8.993 10.350 C 8.981 9.728,8.975 9.692,8.872 9.516 C 8.628 9.101,8.150 8.915,7.695 9.057 M14.695 10.057 C 14.466 10.129,14.256 10.299,14.128 10.516 C 14.036 10.672,14.020 10.746,14.020 11.003 C 14.020 11.271,14.034 11.329,14.141 11.503 C 14.543 12.156,15.457 12.156,15.859 11.503 C 15.966 11.329,15.980 11.271,15.980 11.003 C 15.980 10.746,15.964 10.672,15.872 10.516 C 15.628 10.101,15.150 9.915,14.695 10.057 M16.695 12.057 C 16.466 12.129,16.256 12.299,16.128 12.516 C 16.036 12.672,16.020 12.746,16.020 13.003 C 16.020 13.271,16.034 13.329,16.141 13.503 C 16.543 14.156,17.457 14.156,17.859 13.503 C 17.966 13.329,17.980 13.271,17.980 13.003 C 17.980 12.746,17.964 12.672,17.872 12.516 C 17.628 12.101,17.150 11.915,16.695 12.057 " stroke="none" fill-rule="evenodd" fill="black"></path></svg>