<svg xmlns="http://www.w3.org/2000/svg" width="24" height="24" viewBox="0 0 24 24" version="1.1">
	<path d="M 1.197 8.768 C 0.539 8.987, 0 10.304, -0 11.694 L -0 14.222 1.885 11.893 C 4.803 8.290, 7 10.750, 7 17.622 C 7 20.580, 7.450 23, 8 23 C 8.550 23, 9 20.552, 9 17.559 C 9 14.566, 9.450 11.840, 10 11.500 C 10.625 11.114, 11 13.156, 11 16.941 C 11 20.314, 11.443 23, 12 23 C 12.557 23, 13 20.314, 13 16.941 C 13 13.156, 13.375 11.114, 14 11.500 C 14.550 11.840, 15 14.566, 15 17.559 C 15 20.552, 15.450 23, 16 23 C 16.550 23, 17 20.580, 17 17.622 C 17 10.878, 19.196 8.289, 21.990 11.740 C 23.943 14.151, 25 13.744, 25 10.581 C 25 8.593, 24.468 8.492, 13.697 8.432 C 7.480 8.397, 1.855 8.548, 1.197 8.768 M 0.195 11.500 C 0.215 13.150, 0.439 13.704, 0.693 12.731 C 0.947 11.758, 0.930 10.408, 0.656 9.731 C 0.382 9.054, 0.175 9.850, 0.195 11.500" stroke="none" fill="black" fill-rule="evenodd"/>
</svg>