<svg viewBox="0 0 24 24" xmlns="http://www.w3.org/2000/svg" fill="none" stroke="#000000" stroke-width="2" stroke-linecap="round" stroke-linejoin="round"><path d="M3.400 8.044 C 2.260 8.173,1.179 8.723,0.356 9.593 L 0.000 9.969 0.000 11.985 L 0.000 14.000 0.090 13.998 C 0.362 13.993,0.702 13.773,0.863 13.499 C 0.948 13.353,0.974 13.240,1.005 12.879 C 1.026 12.637,1.084 12.299,1.133 12.129 C 1.402 11.199,2.187 10.415,3.139 10.125 C 3.412 10.042,3.542 10.027,4.000 10.027 C 4.458 10.027,4.588 10.042,4.861 10.125 C 5.813 10.415,6.575 11.176,6.878 12.139 L 6.979 12.460 7.000 17.383 L 7.020 22.306 7.141 22.503 C 7.543 23.156,8.457 23.156,8.859 22.503 L 8.980 22.306 9.000 17.383 L 9.021 12.460 9.122 12.139 C 9.369 11.355,9.927 10.693,10.660 10.317 L 10.980 10.153 11.000 16.230 L 11.020 22.306 11.141 22.503 C 11.543 23.156,12.457 23.156,12.859 22.503 L 12.980 22.306 13.000 16.230 L 13.020 10.153 13.340 10.317 C 14.073 10.693,14.631 11.355,14.878 12.139 L 14.979 12.460 15.000 17.383 L 15.020 22.306 15.141 22.503 C 15.543 23.156,16.457 23.156,16.859 22.503 L 16.980 22.306 17.000 17.383 L 17.021 12.460 17.122 12.139 C 17.425 11.176,18.187 10.415,19.139 10.125 C 19.412 10.042,19.542 10.027,20.000 10.027 C 20.458 10.027,20.588 10.042,20.861 10.125 C 21.813 10.415,22.598 11.199,22.867 12.129 C 22.916 12.299,22.974 12.637,22.995 12.879 C 23.026 13.240,23.052 13.353,23.137 13.499 C 23.298 13.773,23.638 13.993,23.910 13.998 L 24.000 14.000 24.000 11.985 L 24.000 9.969 23.645 9.595 C 22.560 8.448,21.062 7.881,19.530 8.036 C 18.272 8.163,17.221 8.679,16.356 9.593 L 16.000 9.969 15.645 9.595 C 14.560 8.448,13.062 7.881,11.530 8.036 C 10.272 8.163,9.221 8.679,8.356 9.593 L 8.000 9.969 7.645 9.595 C 6.529 8.416,5.013 7.862,3.400 8.044 " stroke="none" fill-rule="evenodd" fill="black"></path></svg>