<svg viewBox="0 0 24 24" xmlns="http://www.w3.org/2000/svg" fill="none" stroke="#000000" stroke-width="2" stroke-linecap="round" stroke-linejoin="round"><path d="M5.499 3.043 C 4.383 3.230,3.461 4.048,3.114 5.160 L 3.020 5.460 3.020 12.000 L 3.020 18.540 3.114 18.840 C 3.422 19.827,4.173 20.578,5.160 20.886 L 5.460 20.980 9.000 20.980 L 12.540 20.980 12.840 20.886 C 13.818 20.581,14.570 19.834,14.882 18.860 C 14.958 18.621,14.974 18.464,14.990 17.793 L 15.009 17.005 16.795 16.991 C 18.533 16.977,18.587 16.974,18.860 16.884 C 19.845 16.560,20.581 15.817,20.886 14.840 L 20.980 14.540 20.980 10.000 L 20.980 5.460 20.886 5.160 C 20.581 4.181,19.829 3.425,18.861 3.122 L 18.540 3.022 16.240 3.009 C 13.807 2.995,13.703 3.001,13.440 3.180 L 13.300 3.274 13.020 3.180 C 12.866 3.128,12.623 3.066,12.480 3.043 C 12.166 2.992,5.803 2.992,5.499 3.043 M12.310 5.061 C 12.589 5.144,12.856 5.411,12.939 5.690 C 12.992 5.869,13.000 6.651,13.000 12.001 C 13.000 17.059,12.991 18.139,12.945 18.290 C 12.872 18.533,12.707 18.740,12.484 18.872 L 12.300 18.980 9.000 18.980 L 5.700 18.980 5.516 18.872 C 5.303 18.747,5.141 18.550,5.058 18.316 C 4.968 18.060,4.971 5.993,5.061 5.690 C 5.140 5.421,5.412 5.143,5.673 5.063 C 5.961 4.975,12.013 4.972,12.310 5.061 M17.002 7.590 C 17.003 9.649,17.014 10.211,17.057 10.330 C 17.136 10.551,17.298 10.744,17.511 10.869 C 17.672 10.964,17.744 10.980,18.000 10.980 C 18.256 10.980,18.328 10.964,18.489 10.869 C 18.702 10.744,18.864 10.551,18.943 10.330 C 19.024 10.104,19.026 14.022,18.945 14.290 C 18.872 14.533,18.707 14.740,18.484 14.872 L 18.300 14.980 16.651 14.992 L 15.002 15.003 14.991 10.212 C 14.980 5.786,14.974 5.405,14.910 5.220 C 14.872 5.110,14.841 5.016,14.840 5.010 C 14.840 5.005,15.326 5.000,15.920 5.000 L 17.000 5.000 17.002 7.590 M7.695 9.055 C 7.464 9.130,7.255 9.300,7.128 9.516 C 7.037 9.672,7.020 9.746,7.020 10.000 C 7.020 10.257,7.036 10.327,7.133 10.492 C 7.651 11.374,8.998 11.018,8.998 10.000 C 8.998 9.623,8.792 9.281,8.463 9.112 C 8.265 9.010,7.911 8.984,7.695 9.055 " stroke="none" fill-rule="evenodd" fill="black"></path></svg>