<svg xmlns="http://www.w3.org/2000/svg" width="24" height="24" viewBox="0 0 24 24" version="1.1">
	<path d="M 3.437 4.303 C 3.145 5.064, 3.040 9.020, 3.203 13.094 L 3.500 20.500 8.829 20.805 C 13.455 21.070, 14.227 20.846, 14.681 19.112 C 15.006 17.869, 16.205 16.997, 17.852 16.807 C 20.413 16.510, 20.500 16.286, 20.500 10 L 20.500 3.500 12.234 3.209 C 5.913 2.987, 3.843 3.244, 3.437 4.303 M 5 12 L 5 19 9 19 L 13 19 13 12 L 13 5 9 5 L 5 5 5 12 M 15 10 C 15 14.333, 15.267 15, 17 15 C 18.333 15, 19 14.333, 19 13 C 19 11.900, 18.550 11, 18 11 C 17.450 11, 17 9.650, 17 8 C 17 6.350, 16.550 5, 16 5 C 15.450 5, 15 7.250, 15 10 M 7 10 C 7 10.550, 7.450 11, 8 11 C 8.550 11, 9 10.550, 9 10 C 9 9.450, 8.550 9, 8 9 C 7.450 9, 7 9.450, 7 10" stroke="none" fill="black" fill-rule="evenodd"/>
</svg>