<svg xmlns="http://www.w3.org/2000/svg" width="24" height="24" viewBox="0 0 24 24" version="1.1">
	<path d="M 14.196 1 C 13.754 1, 11.954 2.484, 10.196 4.298 C 8.438 6.111, 7 7.911, 7 8.298 C 7 8.684, 7.769 9, 8.708 9 C 9.925 9, 9.177 10.263, 6.113 13.385 C 3.437 16.111, 1.944 18.471, 2.166 19.624 C 2.362 20.643, 3.357 21.638, 4.376 21.834 C 5.529 22.056, 7.889 20.563, 10.615 17.887 C 13.737 14.823, 15 14.075, 15 15.292 C 15 16.231, 15.362 17, 15.804 17 C 16.246 17, 18.046 15.516, 19.804 13.702 C 21.562 11.889, 23 10.089, 23 9.702 C 23 9.316, 22.409 9, 21.687 9 C 20.965 9, 19.165 7.738, 17.687 6.195 C 16.209 4.653, 15 2.853, 15 2.195 C 15 1.538, 14.638 1, 14.196 1 M 12.872 5 C 12.457 5, 11.810 5.498, 11.434 6.106 C 11.058 6.715, 12.150 8.611, 13.860 10.322 C 16.291 12.752, 17.233 13.167, 18.178 12.222 C 19.123 11.277, 18.758 10.357, 16.506 8.007 C 14.922 6.353, 13.287 5, 12.872 5 M 12.271 11.668 C 11.751 11.346, 9.594 12.856, 7.477 15.023 C 5.361 17.190, 3.954 19.287, 4.349 19.683 C 4.745 20.078, 6.902 18.568, 9.143 16.327 C 11.384 14.086, 12.792 11.989, 12.271 11.668" stroke="none" fill="black" fill-rule="evenodd"/>
</svg>