<svg xmlns="http://www.w3.org/2000/svg" width="24" height="24" viewBox="0 0 24 24" version="1.1">
	<path d="M 10.196 4.298 C 6.571 8.038, 6.266 9, 8.708 9 C 9.925 9, 9.177 10.263, 6.113 13.385 C -1.491 21.133, 2.867 25.491, 10.615 17.887 C 13.737 14.823, 15 14.075, 15 15.292 C 15 17.802, 16.222 17.398, 19.804 13.702 C 23.272 10.124, 23.722 9, 21.687 9 C 20.073 9, 15 3.838, 15 2.195 C 15 0.201, 13.553 0.834, 10.196 4.298 M 11.434 6.106 C 11.058 6.715, 12.150 8.611, 13.860 10.322 C 16.291 12.752, 17.233 13.167, 18.178 12.222 C 19.123 11.277, 18.758 10.357, 16.506 8.007 C 13.381 4.745, 12.484 4.408, 11.434 6.106 M 7.477 15.023 C 5.361 17.190, 3.954 19.287, 4.349 19.683 C 4.745 20.078, 6.902 18.568, 9.143 16.327 C 11.384 14.086, 12.792 11.989, 12.271 11.668 C 11.751 11.346, 9.594 12.856, 7.477 15.023" stroke="none" fill="#000000" fill-rule="evenodd"/>
</svg>