<svg xmlns="http://www.w3.org/2000/svg" width="24" height="24" viewBox="0 0 24 24" version="1.1">
	<path d="M 11.768 -0 C 10.760 -0, 9.613 0.788, 9.218 1.750 C 8.804 2.759, 7.441 3.500, 6 3.500 C 4 3.500, 3.500 4, 3.500 6 C 3.500 7.441, 2.759 8.804, 1.750 9.218 C 0.788 9.613, 0 10.865, 0 12 C 0 13.135, 0.788 14.387, 1.750 14.782 C 2.759 15.196, 3.500 16.559, 3.500 18 C 3.500 20, 4 20.500, 6 20.500 C 7.441 20.500, 8.804 21.241, 9.218 22.250 C 9.613 23.212, 10.865 24, 12 24 C 13.135 24, 14.387 23.212, 14.782 22.250 C 15.196 21.241, 16.559 20.500, 18 20.500 C 20 20.500, 20.500 20, 20.500 18 C 20.500 16.508, 21.307 15.087, 22.500 14.475 C 23.600 13.911, 24.645 12.438, 24.823 11.201 C 25 9.964, 24.775 9.016, 24.323 9.094 C 23.870 9.173, 22.458 9.184, 21.184 9.118 C 19.059 9.010, 18.901 8.628, 19.270 4.500 C 19.552 1.347, 19.297 0, 18.419 -0 C 17.730 -0, 16.960 0.562, 16.708 1.250 C 16.342 2.250, 15.985 2.250, 14.925 1.250 C 14.196 0.563, 12.775 -0, 11.768 -0 M 12.033 2 C 11.593 2, 10.983 2.956, 10.678 4.124 C 10.229 5.839, 9.625 6.123, 7.536 5.598 C 5.153 5, 5 5.153, 5.598 7.536 C 6.123 9.625, 5.839 10.229, 4.124 10.678 C 2.956 10.983, 2 11.578, 2 12 C 2 12.422, 2.956 13.017, 4.124 13.322 C 5.863 13.777, 6.126 14.364, 5.573 16.565 C 5.028 18.737, 5.196 19.139, 6.449 18.658 C 7.302 18.331, 8.675 18.322, 9.500 18.638 C 10.325 18.955, 11 19.841, 11 20.607 C 11 21.373, 11.398 22, 11.883 22 C 12.369 22, 13.017 21.044, 13.322 19.876 C 13.777 18.137, 14.364 17.874, 16.565 18.427 C 18.737 18.972, 19.139 18.804, 18.658 17.551 C 18.331 16.698, 18.322 15.325, 18.638 14.500 C 18.955 13.675, 19.841 13, 20.607 13 C 21.373 13, 22 12.581, 22 12.070 C 22 11.558, 20.988 10.995, 19.750 10.820 C 18.131 10.590, 17.360 9.658, 17 7.500 C 16.725 5.850, 15.825 4.354, 15 4.175 C 14.175 3.996, 13.350 3.434, 13.167 2.925 C 12.983 2.416, 12.473 2, 12.033 2 M 12 8 C 11.035 8, 9.703 8.653, 9.040 9.452 C 8.377 10.251, 7.985 11.665, 8.167 12.595 C 8.350 13.525, 9.287 14.782, 10.250 15.388 C 11.525 16.190, 12.475 16.190, 13.750 15.388 C 14.713 14.782, 15.650 13.525, 15.833 12.595 C 16.015 11.665, 15.623 10.251, 14.960 9.452 C 14.297 8.653, 12.965 8, 12 8 M 0.662 10.750 C 0.385 10.063, 0.158 10.625, 0.158 12 C 0.158 13.375, 0.385 13.938, 0.662 13.250 C 0.940 12.563, 0.940 11.438, 0.662 10.750 M 12 10 C 11.515 10, 10.816 10.489, 10.446 11.087 C 10.077 11.685, 10.275 12.675, 10.887 13.287 C 11.704 14.104, 12.296 14.104, 13.113 13.287 C 13.725 12.675, 13.923 11.685, 13.554 11.087 C 13.184 10.489, 12.485 10, 12 10" stroke="none" fill="black" fill-rule="evenodd"/>
</svg>