<svg xmlns="http://www.w3.org/2000/svg" viewBox="0 0 24 24">
  <g fill="none" stroke="#000" stroke-width="2" stroke-linecap="round" stroke-linejoin="round">
    <path fill="currentColor" stroke="none" d="M12 8a4 4 0 1 0 0 8 4 4 0 0 0 0-8Zm9.4 5.5a1.7 1.7 0 0 0 .3-1.8l-.1-.1a2 2 0 0 1 0-2.8l.1-.1a1.7 1.7 0 0 0-.3-1.8 1.7 1.7 0 0 0-1.8-.3 1.7 1.7 0 0 1-1.5-1 1.7 1.7 0 0 0-1.8-.3l-.1.1a2 2 0 0 1-2.8 0l-.1-.1a1.7 1.7 0 0 0-1.8.3 1.7 1.7 0 0 1-1.5 1 1.7 1.7 0 0 0-1.8.3 1.7 1.7 0 0 0-.3 1.8l.1.1a2 2 0 0 1 0 2.8l-.1.1a1.7 1.7 0 0 0 .3 1.8 1.7 1.7 0 0 0 1.8.3 1.7 1.7 0 0 1 1.5 1 1.7 1.7 0 0 0 1.8.3l.1-.1a2 2 0 0 1 2.8 0l.1.1a1.7 1.7 0 0 0 1.8-.3 1.7 1.7 0 0 1 1.5-1 1.7 1.7 0 0 0 1.8-.3Z"/>
  </g>
</svg>