<svg viewBox="0 0 24 24" xmlns="http://www.w3.org/2000/svg" fill="none" stroke="#000000" stroke-width="2" stroke-linecap="round" stroke-linejoin="round"><path d="M6.358 3.061 C 5.230 3.237,4.143 3.974,3.569 4.953 C 2.320 7.083,3.233 9.785,5.512 10.704 C 5.838 10.835,6.506 10.997,6.746 11.003 C 6.847 11.005,6.841 11.011,6.695 11.057 C 6.466 11.129,6.256 11.299,6.128 11.516 L 6.020 11.700 6.020 13.003 L 6.020 14.306 6.141 14.503 C 6.543 15.156,7.457 15.156,7.859 14.503 L 7.980 14.306 7.980 13.003 L 7.980 11.700 7.871 11.514 C 7.741 11.294,7.483 11.092,7.283 11.054 C 7.159 11.031,7.197 11.017,7.564 10.956 C 8.497 10.798,9.191 10.449,9.820 9.820 C 10.444 9.196,10.789 8.514,10.955 7.580 C 11.010 7.266,11.031 7.206,11.050 7.300 C 11.087 7.484,11.296 7.742,11.508 7.867 L 11.700 7.980 12.908 7.992 C 13.666 8.000,14.174 7.989,14.272 7.962 C 14.498 7.901,14.738 7.712,14.867 7.492 C 14.964 7.327,14.980 7.257,14.980 7.000 C 14.980 6.746,14.963 6.672,14.872 6.516 C 14.740 6.293,14.533 6.128,14.290 6.055 C 14.030 5.977,11.970 5.977,11.710 6.055 C 11.394 6.150,11.131 6.407,11.040 6.711 C 11.009 6.813,11.007 6.814,11.003 6.726 C 10.995 6.496,10.829 5.823,10.705 5.516 C 10.172 4.197,9.001 3.269,7.605 3.058 C 7.144 2.989,6.816 2.990,6.358 3.061 M7.523 5.073 C 8.262 5.266,8.850 5.924,8.967 6.690 C 9.067 7.343,8.873 7.933,8.403 8.404 C 8.002 8.807,7.547 9.000,7.000 9.000 C 6.485 9.000,6.038 8.822,5.653 8.465 C 4.323 7.229,5.189 5.005,7.000 5.005 C 7.143 5.005,7.378 5.036,7.523 5.073 M16.695 11.057 C 16.466 11.129,16.256 11.299,16.128 11.516 C 16.024 11.693,16.019 11.728,16.000 12.413 L 15.980 13.127 15.720 13.218 C 14.467 13.656,13.529 14.644,13.143 15.930 C 13.125 15.993,13.059 16.000,12.508 16.000 C 11.642 16.000,11.372 16.101,11.128 16.516 C 11.037 16.672,11.020 16.746,11.020 17.000 C 11.020 17.256,11.036 17.328,11.131 17.489 C 11.192 17.592,11.304 17.725,11.381 17.783 C 11.622 17.967,11.769 17.996,12.471 17.998 C 13.056 18.000,13.125 18.007,13.143 18.070 C 13.510 19.292,14.362 20.240,15.512 20.704 C 17.560 21.529,19.874 20.540,20.705 18.484 C 21.560 16.367,20.462 13.981,18.280 13.218 L 18.020 13.127 18.000 12.413 C 17.981 11.728,17.976 11.693,17.872 11.516 C 17.628 11.101,17.150 10.915,16.695 11.057 M17.523 15.073 C 18.262 15.266,18.850 15.924,18.967 16.690 C 19.067 17.343,18.873 17.933,18.403 18.404 C 18.002 18.807,17.547 19.000,17.000 19.000 C 16.485 19.000,16.038 18.822,15.653 18.465 C 14.323 17.229,15.189 15.005,17.000 15.005 C 17.143 15.005,17.378 15.036,17.523 15.073 " stroke="none" fill-rule="evenodd" fill="black"></path></svg>