<svg xmlns="http://www.w3.org/2000/svg" width="24" height="24" viewBox="0 0 24 24" version="1.1">
	<path d="M 4.200 4.200 C 2.556 5.844, 2.694 8.501, 4.500 10 C 5.325 10.685, 6 12.090, 6 13.122 C 6 14.155, 6.450 15, 7 15 C 7.550 15, 8 14.170, 8 13.155 C 8 10.925, 11.023 8, 13.329 8 C 14.248 8, 15 7.550, 15 7 C 15 6.450, 14.155 6, 13.122 6 C 12.090 6, 10.685 5.325, 10 4.500 C 8.501 2.694, 5.844 2.556, 4.200 4.200 M 5.446 6.087 C 4.416 7.755, 6.733 9.667, 8.113 8.287 C 9.267 7.133, 8.545 5, 7 5 C 6.515 5, 5.816 5.489, 5.446 6.087 M 13.735 14.196 L 10.970 17.155 13.235 19.044 C 18.712 23.613, 23.624 18.725, 19.056 13.250 C 18.024 12.012, 17.027 11.053, 16.840 11.119 C 16.653 11.184, 15.256 12.569, 13.735 14.196 M 15.446 16.087 C 14.416 17.755, 16.733 19.667, 18.113 18.287 C 19.267 17.133, 18.545 15, 17 15 C 16.515 15, 15.816 15.489, 15.446 16.087" stroke="none" fill="black" fill-rule="evenodd"/>
</svg>