<svg xmlns="http://www.w3.org/2000/svg" width="24" height="24" viewBox="0 0 24 24" version="1.1">
	<path d="M 7.078 3 C 6.155 3, 4.860 3.540, 4.200 4.200 C 3.540 4.860, 3 6.155, 3 7.078 C 3 8, 3.675 9.315, 4.500 10 C 5.325 10.685, 6 12.090, 6 13.122 C 6 14.155, 6.450 15, 7 15 C 7.550 15, 8 14.170, 8 13.155 C 8 12.140, 8.823 10.565, 9.829 9.655 C 10.835 8.745, 12.410 8, 13.329 8 C 14.248 8, 15 7.550, 15 7 C 15 6.450, 14.155 6, 13.122 6 C 12.090 6, 10.685 5.325, 10 4.500 C 9.315 3.675, 8 3, 7.078 3 M 7 5 C 6.515 5, 5.816 5.489, 5.446 6.087 C 5.077 6.685, 5.275 7.675, 5.887 8.287 C 6.704 9.104, 7.296 9.104, 8.113 8.287 C 8.725 7.675, 8.923 6.685, 8.554 6.087 C 8.184 5.489, 7.485 5, 7 5 M 16.840 11.119 C 16.653 11.184, 15.256 12.569, 13.735 14.196 L 10.970 17.155 13.235 19.044 C 14.481 20.083, 16.198 20.948, 17.050 20.967 C 17.903 20.985, 19.140 20.460, 19.800 19.800 C 20.460 19.140, 20.985 17.902, 20.967 17.050 C 20.948 16.197, 20.089 14.488, 19.056 13.250 C 18.024 12.012, 17.027 11.053, 16.840 11.119 M 17 15 C 16.515 15, 15.816 15.489, 15.446 16.087 C 15.077 16.685, 15.275 17.675, 15.887 18.287 C 16.704 19.104, 17.296 19.104, 18.113 18.287 C 18.725 17.675, 18.923 16.685, 18.554 16.087 C 18.184 15.489, 17.485 15, 17 15" stroke="none" fill="black" fill-rule="evenodd"/>
</svg>