<svg viewBox="0 0 24 24" xmlns="http://www.w3.org/2000/svg"><path d="M12.300 5.199 C 11.906 5.284,11.567 5.493,11.423 5.739 C 11.183 6.148,10.829 6.420,10.378 6.542 C 10.124 6.611,10.103 6.611,9.836 6.542 C 9.636 6.490,9.466 6.475,9.219 6.488 C 8.921 6.503,8.841 6.525,8.571 6.663 C 8.337 6.782,8.226 6.868,8.111 7.020 C 7.824 7.399,7.704 7.917,7.798 8.371 C 7.835 8.549,7.893 8.660,8.047 8.851 C 8.287 9.149,8.420 9.400,8.499 9.704 L 8.558 9.929 8.399 10.263 C 8.241 10.594,8.040 11.250,8.040 11.438 C 8.040 11.492,7.994 11.603,7.937 11.684 C 7.629 12.129,7.748 12.971,8.192 13.485 C 8.276 13.581,8.421 13.797,8.516 13.964 C 9.036 14.885,9.951 15.590,10.989 15.869 C 11.332 15.962,11.456 15.975,12.000 15.975 C 12.542 15.975,12.669 15.962,13.005 15.871 C 13.743 15.672,14.455 15.246,14.936 14.714 C 15.140 14.488,15.166 14.472,15.288 14.495 C 15.518 14.538,15.913 14.750,16.113 14.937 C 16.355 15.164,16.681 15.261,17.082 15.228 C 17.599 15.185,17.989 14.969,18.216 14.602 C 18.454 14.215,18.788 13.973,19.241 13.856 C 19.484 13.794,19.516 13.794,19.770 13.860 C 19.964 13.910,20.137 13.925,20.381 13.912 C 20.679 13.897,20.759 13.875,21.029 13.737 C 21.557 13.468,21.812 13.029,21.817 12.380 C 21.821 11.941,21.767 11.775,21.536 11.515 C 20.873 10.769,20.876 9.594,21.542 8.882 C 21.953 8.443,21.929 7.601,21.489 7.020 C 21.374 6.868,21.263 6.782,21.029 6.663 C 20.759 6.525,20.679 6.503,20.381 6.488 C 20.134 6.475,19.964 6.490,19.764 6.542 C 19.497 6.611,19.476 6.611,19.222 6.542 C 18.771 6.420,18.417 6.148,18.177 5.739 C 17.982 5.406,17.527 5.192,17.000 5.186 C 16.561 5.181,16.365 5.242,16.118 5.462 C 15.367 6.129,14.234 6.129,13.482 5.462 C 13.372 5.364,13.214 5.265,13.131 5.241 C 12.918 5.179,12.489 5.157,12.300 5.199 " fill="#000000" stroke="none" fill-rule="evenodd"></path></svg>