<svg xmlns="http://www.w3.org/2000/svg" width="24" height="24" viewBox="0 0 24 24" version="1.1">
	<path d="M 7.110 1.396 C 3.298 3.508, 2.074 6.851, 2.035 15.250 C 2 22.906, 2.496 24.104, 4.758 21.842 C 5.634 20.966, 6.289 20.995, 7.458 21.965 C 8.690 22.988, 9.301 22.995, 10.500 22 C 11.697 21.007, 12.303 21.007, 13.500 22 C 14.699 22.995, 15.310 22.988, 16.542 21.965 C 17.711 20.995, 18.366 20.966, 19.242 21.842 C 19.879 22.479, 20.760 23, 21.200 23 C 22.461 23, 22.132 8.384, 20.805 5.472 C 18.616 0.666, 11.986 -1.307, 7.110 1.396 M 8.364 3.170 C 7.189 3.738, 5.727 5.304, 5.114 6.649 C 3.672 9.814, 3.615 19.356, 5.044 18.473 C 5.618 18.118, 6.743 18.372, 7.544 19.036 C 8.684 19.983, 9.325 19.975, 10.500 19 C 11.697 18.007, 12.303 18.007, 13.500 19 C 14.675 19.975, 15.316 19.983, 16.456 19.036 C 17.257 18.372, 18.382 18.118, 18.956 18.473 C 20.383 19.354, 20.329 9.816, 18.890 6.657 C 17.808 4.284, 14.125 1.931, 11.703 2.068 C 11.041 2.105, 9.539 2.601, 8.364 3.170 M 7 10 C 7 10.550, 7.450 11, 8 11 C 8.550 11, 9 10.550, 9 10 C 9 9.450, 8.550 9, 8 9 C 7.450 9, 7 9.450, 7 10 M 15 10 C 15 10.550, 15.450 11, 16 11 C 16.550 11, 17 10.550, 17 10 C 17 9.450, 16.550 9, 16 9 C 15.450 9, 15 9.450, 15 10 M 9.306 14.417 C 9.775 15.826, 14.225 15.826, 14.694 14.417 C 14.901 13.796, 13.749 13.333, 12 13.333 C 10.251 13.333, 9.099 13.796, 9.306 14.417" stroke="none" fill="black" fill-rule="evenodd"/>
</svg>