<svg xmlns="http://www.w3.org/2000/svg" width="24" height="24" viewBox="0 0 24 24" version="1.1">
	<path d="M 11.884 1 C 8.573 1, 7.157 1.643, 4.400 4.400 C 1.220 7.580, 1 8.227, 1 14.400 C 1 18.030, 1.360 21, 1.800 21 C 2.240 21, 3.092 20.508, 3.693 19.907 C 4.483 19.117, 5.386 19.136, 6.957 19.977 C 8.615 20.864, 9.467 20.857, 10.564 19.947 C 11.675 19.024, 12.325 19.024, 13.436 19.947 C 14.533 20.857, 15.385 20.864, 17.043 19.977 C 18.614 19.136, 19.517 19.117, 20.307 19.907 C 20.908 20.508, 21.811 21, 22.313 21 C 22.815 21, 23.045 17.802, 22.824 13.883 C 22.455 7.359, 22.152 6.525, 19.195 3.883 C 16.755 1.703, 14.973 1, 11.884 1 M 13.497 3.498 C 11.848 3.196, 9.384 3.531, 8.020 4.244 C 6.656 4.956, 4.975 6.656, 4.284 8.020 C 3.594 9.384, 3.023 11.989, 3.015 13.809 C 3.006 15.717, 3.415 16.862, 3.979 16.513 C 4.518 16.180, 5.897 16.410, 7.043 17.023 C 8.600 17.856, 9.492 17.837, 10.564 16.947 C 11.675 16.024, 12.325 16.024, 13.436 16.947 C 14.508 17.837, 15.400 17.856, 16.957 17.023 C 18.103 16.410, 19.548 16.221, 20.168 16.604 C 20.969 17.099, 21.139 15.925, 20.757 12.538 C 20.452 9.828, 19.417 6.973, 18.357 5.912 C 17.332 4.887, 15.145 3.801, 13.497 3.498 M 8.246 7.180 C 6.893 6.988, 5.750 7.488, 5.389 8.430 C 5.057 9.293, 5.057 10.707, 5.389 11.570 C 5.750 12.512, 6.893 13.012, 8.246 12.820 C 9.898 12.585, 10.500 11.833, 10.500 10 C 10.500 8.167, 9.898 7.415, 8.246 7.180 M 16.246 7.180 C 14.893 6.988, 13.750 7.488, 13.389 8.430 C 13.057 9.293, 13.057 10.707, 13.389 11.570 C 13.750 12.512, 14.893 13.012, 16.246 12.820 C 17.898 12.585, 18.500 11.833, 18.500 10 C 18.500 8.167, 17.898 7.415, 16.246 7.180 M 8 9 C 7.450 9, 7 9.450, 7 10 C 7 10.550, 7.450 11, 8 11 C 8.550 11, 9 10.550, 9 10 C 9 9.450, 8.550 9, 8 9 M 16 9 C 15.450 9, 15 9.450, 15 10 C 15 10.550, 15.450 11, 16 11 C 16.550 11, 17 10.550, 17 10 C 17 9.450, 16.550 9, 16 9" stroke="none" fill="black" fill-rule="evenodd"/>
</svg>