<svg viewBox="0 0 24 24" xmlns="http://www.w3.org/2000/svg" fill="none" stroke="#000000" stroke-width="2" stroke-linecap="round" stroke-linejoin="round"><path d="M11.280 1.023 C 11.203 1.032,10.951 1.059,10.720 1.083 C 8.832 1.283,6.991 2.023,5.360 3.235 C 4.751 3.688,3.684 4.755,3.226 5.367 C 1.976 7.042,1.220 9.001,1.043 11.020 C 1.017 11.318,1.001 13.138,1.000 15.823 C 1.000 20.686,0.981 20.383,1.300 20.702 C 1.592 20.994,2.089 21.081,2.438 20.901 C 2.508 20.865,3.185 20.277,3.943 19.595 C 4.700 18.913,5.335 18.364,5.353 18.376 C 5.371 18.387,5.978 18.929,6.703 19.580 C 7.427 20.232,8.096 20.810,8.188 20.865 C 8.413 20.999,8.728 21.030,8.989 20.944 C 9.158 20.888,9.408 20.680,10.585 19.620 C 11.352 18.928,11.989 18.362,12.000 18.362 C 12.011 18.362,12.648 18.928,13.415 19.620 C 14.592 20.680,14.842 20.888,15.011 20.944 C 15.272 21.030,15.587 20.999,15.812 20.865 C 15.904 20.810,16.572 20.232,17.295 19.582 C 18.018 18.931,18.626 18.389,18.645 18.377 C 18.664 18.365,19.309 18.922,20.079 19.614 C 21.277 20.692,21.507 20.883,21.684 20.941 C 22.202 21.113,22.760 20.842,22.943 20.330 C 22.986 20.208,22.997 19.361,22.998 15.840 C 22.999 13.188,22.984 11.321,22.959 11.040 C 22.776 8.992,22.025 7.045,20.770 5.363 C 20.316 4.755,19.247 3.686,18.640 3.235 C 17.045 2.049,15.365 1.360,13.423 1.096 C 13.000 1.038,11.574 0.990,11.280 1.023 M13.320 3.101 C 15.883 3.488,18.124 4.931,19.560 7.120 C 20.052 7.870,20.516 8.945,20.733 9.840 C 20.971 10.819,20.973 10.846,20.989 14.100 C 20.998 15.750,20.999 17.243,20.992 17.418 L 20.980 17.736 20.129 16.969 C 19.661 16.546,19.202 16.161,19.109 16.112 C 18.853 15.976,18.441 15.984,18.200 16.128 C 18.101 16.187,17.419 16.776,16.684 17.438 C 15.949 18.099,15.341 18.640,15.332 18.640 C 15.323 18.640,14.721 18.104,13.994 17.450 C 13.267 16.796,12.601 16.211,12.513 16.152 C 12.223 15.955,11.777 15.955,11.487 16.152 C 11.399 16.211,10.733 16.796,10.006 17.450 C 9.279 18.105,8.677 18.640,8.668 18.640 C 8.659 18.640,8.051 18.099,7.316 17.438 C 6.581 16.776,5.899 16.187,5.800 16.128 C 5.559 15.984,5.147 15.976,4.891 16.112 C 4.798 16.161,4.339 16.546,3.871 16.969 L 3.020 17.736 3.008 17.418 C 3.001 17.243,3.002 15.750,3.011 14.100 C 3.024 11.489,3.035 11.046,3.095 10.680 C 3.259 9.687,3.497 8.931,3.920 8.060 C 4.971 5.891,6.877 4.221,9.160 3.466 C 9.865 3.233,10.432 3.118,11.340 3.024 C 11.662 2.991,12.911 3.039,13.320 3.101 M7.499 7.040 C 6.363 7.246,5.460 8.049,5.114 9.160 C 4.979 9.594,4.979 10.406,5.114 10.840 C 5.421 11.826,6.174 12.579,7.160 12.886 C 7.594 13.021,8.406 13.021,8.840 12.886 C 9.826 12.579,10.579 11.826,10.886 10.840 C 11.021 10.406,11.021 9.594,10.886 9.160 C 10.581 8.179,9.810 7.407,8.861 7.129 C 8.500 7.023,7.832 6.980,7.499 7.040 M15.499 7.040 C 14.363 7.246,13.460 8.049,13.114 9.160 C 12.979 9.594,12.979 10.406,13.114 10.840 C 13.421 11.826,14.174 12.579,15.160 12.886 C 15.594 13.021,16.406 13.021,16.840 12.886 C 17.826 12.579,18.579 11.826,18.886 10.840 C 19.021 10.406,19.021 9.594,18.886 9.160 C 18.581 8.179,17.810 7.407,16.861 7.129 C 16.500 7.023,15.832 6.980,15.499 7.040 M8.310 9.061 C 8.688 9.173,9.000 9.598,9.000 10.001 C 9.000 10.331,8.784 10.696,8.484 10.872 C 8.328 10.963,8.254 10.980,8.000 10.980 C 7.746 10.980,7.672 10.963,7.516 10.872 C 6.935 10.530,6.833 9.774,7.304 9.303 C 7.583 9.024,7.916 8.944,8.310 9.061 M16.310 9.061 C 16.688 9.173,17.000 9.598,17.000 10.001 C 17.000 10.331,16.784 10.696,16.484 10.872 C 16.328 10.963,16.254 10.980,16.000 10.980 C 15.746 10.980,15.672 10.963,15.516 10.872 C 14.932 10.528,14.831 9.775,15.307 9.299 C 15.582 9.024,15.918 8.944,16.310 9.061 " stroke="none" fill-rule="evenodd" fill="black"></path></svg>