<svg xmlns="http://www.w3.org/2000/svg" width="24" height="24" viewBox="0 0 24 24" version="1.1">
	<path d="M 11.800 0.035 C 10.535 0.055, 8.425 0.667, 7.110 1.396 C 5.796 2.124, 4.124 3.796, 3.396 5.110 C 2.627 6.497, 2.056 10.753, 2.035 15.250 C 2.016 19.513, 2.360 23, 2.800 23 C 3.240 23, 4.121 22.479, 4.758 21.842 C 5.634 20.966, 6.289 20.995, 7.458 21.965 C 8.690 22.988, 9.301 22.995, 10.500 22 C 11.697 21.007, 12.303 21.007, 13.500 22 C 14.699 22.995, 15.310 22.988, 16.542 21.965 C 17.711 20.995, 18.366 20.966, 19.242 21.842 C 19.879 22.479, 20.760 23, 21.200 23 C 21.640 23, 22 19.646, 22 15.547 C 22 11.448, 21.462 6.914, 20.805 5.472 C 20.148 4.030, 18.371 2.209, 16.855 1.425 C 15.339 0.641, 13.064 0.016, 11.800 0.035 M 11.703 2.068 C 11.041 2.105, 9.539 2.601, 8.364 3.170 C 7.189 3.738, 5.727 5.304, 5.114 6.649 C 4.501 7.994, 4 11.349, 4 14.106 C 4 17.333, 4.372 18.888, 5.044 18.473 C 5.618 18.118, 6.743 18.372, 7.544 19.036 C 8.684 19.983, 9.325 19.975, 10.500 19 C 11.697 18.007, 12.303 18.007, 13.500 19 C 14.675 19.975, 15.316 19.983, 16.456 19.036 C 17.257 18.372, 18.382 18.118, 18.956 18.473 C 19.628 18.888, 20 17.333, 20 14.106 C 20 11.349, 19.500 7.998, 18.890 6.657 C 18.279 5.317, 16.683 3.721, 15.343 3.110 C 14.002 2.500, 12.365 2.030, 11.703 2.068 M 8 9 C 7.450 9, 7 9.450, 7 10 C 7 10.550, 7.450 11, 8 11 C 8.550 11, 9 10.550, 9 10 C 9 9.450, 8.550 9, 8 9 M 16 9 C 15.450 9, 15 9.450, 15 10 C 15 10.550, 15.450 11, 16 11 C 16.550 11, 17 10.550, 17 10 C 17 9.450, 16.550 9, 16 9 M 12 13.333 C 10.251 13.333, 9.099 13.796, 9.306 14.417 C 9.504 15.012, 10.717 15.500, 12 15.500 C 13.283 15.500, 14.496 15.012, 14.694 14.417 C 14.901 13.796, 13.749 13.333, 12 13.333" stroke="none" fill="black" fill-rule="evenodd"/>
</svg>