<svg xmlns="http://www.w3.org/2000/svg" width="24" height="24" viewBox="0 0 24 24" version="1.1">
	<path d="M 7.110 1.396 C 3.298 3.508, 2.074 6.851, 2.035 15.250 C 2 22.906, 2.496 24.104, 4.758 21.842 C 5.634 20.966, 6.289 20.995, 7.458 21.965 C 8.690 22.988, 9.301 22.995, 10.500 22 C 11.697 21.007, 12.303 21.007, 13.500 22 C 14.699 22.995, 15.310 22.988, 16.542 21.965 C 17.711 20.995, 18.366 20.966, 19.242 21.842 C 19.879 22.479, 20.760 23, 21.200 23 C 22.461 23, 22.132 8.384, 20.805 5.472 C 18.616 0.666, 11.986 -1.307, 7.110 1.396 M 8.364 3.170 C 7.189 3.738, 5.727 5.304, 5.114 6.649 C 3.672 9.814, 3.615 19.356, 5.044 18.473 C 5.618 18.118, 6.743 18.372, 7.544 19.036 C 8.684 19.983, 9.325 19.975, 10.500 19 C 11.697 18.007, 12.303 18.007, 13.500 19 C 14.675 19.975, 15.316 19.983, 16.456 19.036 C 17.257 18.372, 18.382 18.118, 18.956 18.473 C 20.383 19.354, 20.329 9.816, 18.890 6.657 C 17.808 4.284, 14.125 1.931, 11.703 2.068 C 11.041 2.105, 9.539 2.601, 8.364 3.170 M 8.428 9.116 C 7.413 10.759, 8.958 11.768, 12.237 11.603 C 16.691 11.379, 16.691 8.621, 12.237 8.397 C 10.443 8.307, 8.728 8.630, 8.428 9.116" stroke="none" fill="black" fill-rule="evenodd"/>
</svg>