<svg xmlns="http://www.w3.org/2000/svg" width="24" height="24" viewBox="0 0 24 24" version="1.1">
	<path d="M 11.800 0.035 C 10.535 0.055, 8.425 0.667, 7.110 1.396 C 5.796 2.124, 4.124 3.796, 3.396 5.110 C 2.627 6.497, 2.056 10.753, 2.035 15.250 C 2.016 19.513, 2.360 23, 2.800 23 C 3.240 23, 4.121 22.479, 4.758 21.842 C 5.634 20.966, 6.289 20.995, 7.458 21.965 C 8.690 22.988, 9.301 22.995, 10.500 22 C 11.697 21.007, 12.303 21.007, 13.500 22 C 14.699 22.995, 15.310 22.988, 16.542 21.965 C 17.711 20.995, 18.366 20.966, 19.242 21.842 C 19.879 22.479, 20.760 23, 21.200 23 C 21.640 23, 22 19.646, 22 15.547 C 22 11.448, 21.462 6.914, 20.805 5.472 C 20.148 4.030, 18.371 2.209, 16.855 1.425 C 15.339 0.641, 13.064 0.016, 11.800 0.035 M 11.703 2.068 C 11.041 2.105, 9.539 2.601, 8.364 3.170 C 7.189 3.738, 5.727 5.304, 5.114 6.649 C 4.501 7.994, 4 11.349, 4 14.106 C 4 17.333, 4.372 18.888, 5.044 18.473 C 5.618 18.118, 6.743 18.372, 7.544 19.036 C 8.684 19.983, 9.325 19.975, 10.500 19 C 11.697 18.007, 12.303 18.007, 13.500 19 C 14.675 19.975, 15.316 19.983, 16.456 19.036 C 17.257 18.372, 18.382 18.118, 18.956 18.473 C 19.628 18.888, 20 17.333, 20 14.106 C 20 11.349, 19.500 7.998, 18.890 6.657 C 18.279 5.317, 16.683 3.721, 15.343 3.110 C 14.002 2.500, 12.365 2.030, 11.703 2.068 M 12.237 8.397 C 10.443 8.307, 8.728 8.630, 8.428 9.116 C 8.128 9.602, 8.128 10.398, 8.428 10.884 C 8.728 11.370, 10.443 11.693, 12.237 11.603 C 14.333 11.498, 15.500 10.925, 15.500 10 C 15.500 9.075, 14.333 8.502, 12.237 8.397" stroke="none" fill="black" fill-rule="evenodd"/>
</svg>