<svg xmlns="http://www.w3.org/2000/svg" width="24" height="24" viewBox="0 0 24 24" version="1.1">
	<path d="M 4.400 4.400 C 1.220 7.580, 1 8.227, 1 14.400 C 1 20.915, 1.553 22.047, 3.693 19.907 C 4.483 19.117, 5.386 19.136, 6.957 19.977 C 8.615 20.864, 9.467 20.857, 10.564 19.947 C 11.675 19.024, 12.325 19.024, 13.436 19.947 C 14.533 20.857, 15.385 20.864, 17.043 19.977 C 18.614 19.136, 19.517 19.117, 20.307 19.907 C 22.608 22.208, 23.212 20.762, 22.824 13.883 C 22.455 7.359, 22.152 6.525, 19.195 3.883 C 14.454 -0.354, 8.962 -0.162, 4.400 4.400 M 8.020 4.244 C 6.656 4.956, 4.975 6.656, 4.284 8.020 C 2.791 10.971, 2.561 17.390, 3.979 16.513 C 4.518 16.180, 5.897 16.410, 7.043 17.023 C 8.600 17.856, 9.492 17.837, 10.564 16.947 C 11.675 16.024, 12.325 16.024, 13.436 16.947 C 14.508 17.837, 15.400 17.856, 16.957 17.023 C 18.103 16.410, 19.548 16.221, 20.168 16.604 C 22.104 17.800, 20.444 8, 18.357 5.912 C 15.867 3.423, 11.073 2.649, 8.020 4.244 M 5.389 8.430 C 4.393 11.025, 5.788 13.169, 8.246 12.820 C 11.450 12.365, 11.450 7.635, 8.246 7.180 C 6.893 6.988, 5.750 7.488, 5.389 8.430 M 13.389 8.430 C 12.393 11.025, 13.788 13.169, 16.246 12.820 C 19.450 12.365, 19.450 7.635, 16.246 7.180 C 14.893 6.988, 13.750 7.488, 13.389 8.430 M 7 10 C 7 10.550, 7.450 11, 8 11 C 8.550 11, 9 10.550, 9 10 C 9 9.450, 8.550 9, 8 9 C 7.450 9, 7 9.450, 7 10 M 15 10 C 15 10.550, 15.450 11, 16 11 C 16.550 11, 17 10.550, 17 10 C 17 9.450, 16.550 9, 16 9 C 15.450 9, 15 9.450, 15 10" stroke="none" fill="black" fill-rule="evenodd"/>
</svg>