<svg xmlns="http://www.w3.org/2000/svg" width="24" height="24" viewBox="0 0 24 24" version="1.1">
	<path d="M 7.922 2 C 7 2, 5.834 2.563, 5.331 3.250 C 4.828 3.938, 3.797 5.737, 3.040 7.250 C 1.975 9.375, 1.921 10.511, 2.800 12.250 C 3.427 13.488, 4.065 16.075, 4.219 18 L 4.500 21.500 12 21.500 L 19.500 21.500 19.781 18 C 19.935 16.075, 20.560 13.512, 21.170 12.305 C 22.039 10.585, 21.908 9.325, 20.564 6.494 C 19.621 4.506, 18.148 2.610, 17.292 2.282 C 16.436 1.953, 14.842 2.242, 13.750 2.924 C 12.326 3.814, 11.458 3.858, 10.682 3.082 C 10.087 2.487, 8.845 2, 7.922 2 M 8 4 C 7.515 4, 6.838 4.453, 6.496 5.007 C 6.153 5.561, 6.596 6.292, 7.480 6.631 C 8.363 6.970, 9.337 6.996, 9.643 6.690 C 9.950 6.384, 9.904 5.653, 9.541 5.067 C 9.179 4.480, 8.485 4, 8 4 M 16 4 C 15.515 4, 14.821 4.480, 14.459 5.067 C 14.096 5.653, 14.050 6.384, 14.357 6.690 C 14.663 6.996, 15.637 6.970, 16.520 6.631 C 17.404 6.292, 17.847 5.561, 17.504 5.007 C 17.162 4.453, 16.485 4, 16 4 M 7.500 9 C 5.575 9, 4 9.450, 4 10 C 4 10.550, 5.575 11, 7.500 11 C 9.425 11, 11 10.550, 11 10 C 11 9.450, 9.425 9, 7.500 9 M 16.500 9 C 14.575 9, 13 9.450, 13 10 C 13 10.550, 14.575 11, 16.500 11 C 18.425 11, 20 10.550, 20 10 C 20 9.450, 18.425 9, 16.500 9 M 8.500 13 C 6.310 13, 6 13.433, 6 16.500 C 6 19.567, 6.310 20, 8.500 20 C 10.690 20, 11 19.567, 11 16.500 C 11 13.433, 10.690 13, 8.500 13 M 15.500 13 C 13.310 13, 13 13.433, 13 16.500 C 13 19.567, 13.310 20, 15.500 20 C 17.690 20, 18 19.567, 18 16.500 C 18 13.433, 17.690 13, 15.500 13" stroke="none" fill="black" fill-rule="evenodd"/>
</svg>