<svg xmlns="http://www.w3.org/2000/svg" width="24" height="24" viewBox="0 0 24 24" version="1.1">
	<path d="M 6 2 C 5.120 2, 3.860 2.540, 3.200 3.200 C 2.540 3.860, 2 5.155, 2 6.078 C 2 7, 2.675 8.315, 3.500 9 C 4.522 9.848, 5 12.118, 5 16.122 C 5 19.374, 5.447 22, 6 22 C 6.550 22, 7 20.641, 7 18.980 L 7 15.959 10.750 17.990 C 12.813 19.107, 15.288 20.576, 16.250 21.255 C 17.547 22.170, 18.453 22.204, 19.750 21.388 C 20.713 20.782, 21.650 19.525, 21.833 18.595 C 22.015 17.665, 21.623 16.251, 20.960 15.452 C 20.297 14.653, 18.965 14, 18 14 C 17.035 14, 15.706 14.650, 15.047 15.444 C 14.126 16.553, 13.312 16.644, 11.534 15.834 C 10.262 15.254, 8.746 13.738, 8.166 12.466 C 7.356 10.688, 7.447 9.874, 8.556 8.953 C 9.350 8.294, 10 7, 10 6.078 C 10 5.155, 9.460 3.860, 8.800 3.200 C 8.140 2.540, 6.880 2, 6 2 M 6 4 C 5.515 4, 4.816 4.489, 4.446 5.087 C 4.077 5.685, 4.275 6.675, 4.887 7.287 C 5.704 8.104, 6.296 8.104, 7.113 7.287 C 7.725 6.675, 7.923 5.685, 7.554 5.087 C 7.184 4.489, 6.485 4, 6 4 M 18 16 C 17.515 16, 16.816 16.489, 16.446 17.087 C 16.077 17.685, 16.275 18.675, 16.887 19.287 C 17.704 20.104, 18.296 20.104, 19.113 19.287 C 19.725 18.675, 19.923 17.685, 19.554 17.087 C 19.184 16.489, 18.485 16, 18 16" stroke="none" fill="black" fill-rule="evenodd"/>
</svg>