<svg xmlns="http://www.w3.org/2000/svg" width="24" height="24" viewBox="0 0 24 24" version="1.1">
	<path d="M 8.650 5 C 8.173 7.383, 7.531 8, 5.525 8 C 4.136 8, 3 8.450, 3 9 C 3 9.550, 4.125 10, 5.500 10 C 7.333 10, 8 10.533, 8 12 C 8 13.467, 7.333 14, 5.500 14 C 4.125 14, 3 14.450, 3 15 C 3 15.550, 3.900 16, 5 16 C 6.556 16, 7 16.667, 7 19 C 7 20.650, 7.394 22, 7.875 22 C 8.356 22, 9.020 20.650, 9.350 19 C 10.161 14.945, 13 14.945, 13 19 C 13 22.880, 14.574 22.880, 15.350 19 C 15.827 16.617, 16.469 16, 18.475 16 C 19.864 16, 21 15.550, 21 15 C 21 14.450, 19.875 14, 18.500 14 C 16.667 14, 16 13.467, 16 12 C 16 10.533, 16.667 10, 18.500 10 C 19.875 10, 21 9.550, 21 9 C 21 8.450, 20.100 8, 19 8 C 17.444 8, 17 7.333, 17 5 C 17 3.350, 16.606 2, 16.125 2 C 15.644 2, 14.980 3.350, 14.650 5 C 13.839 9.055, 11 9.055, 11 5 C 11 3.350, 10.606 2, 10.125 2 C 9.644 2, 8.980 3.350, 8.650 5 M 10 12 C 10 13.333, 10.667 14, 12 14 C 13.333 14, 14 13.333, 14 12 C 14 10.667, 13.333 10, 12 10 C 10.667 10, 10 10.667, 10 12" stroke="none" fill="black" fill-rule="evenodd"/>
</svg>