<svg xmlns="http://www.w3.org/2000/svg" width="24" height="24" viewBox="0 0 24 24" version="1.1">
	<path d="M 6 2 C 5.120 2, 3.860 2.540, 3.200 3.200 C 2.540 3.860, 2 5.155, 2 6.078 C 2 7, 2.675 8.315, 3.500 9 C 4.522 9.848, 5 12.118, 5 16.122 C 5 19.374, 5.447 22, 6 22 C 6.553 22, 7 19.374, 7 16.122 C 7 12.118, 7.478 9.848, 8.500 9 C 9.325 8.315, 10 7, 10 6.078 C 10 5.155, 9.460 3.860, 8.800 3.200 C 8.140 2.540, 6.880 2, 6 2 M 6 4 C 5.515 4, 4.816 4.489, 4.446 5.087 C 4.077 5.685, 4.275 6.675, 4.887 7.287 C 5.704 8.104, 6.296 8.104, 7.113 7.287 C 7.725 6.675, 7.923 5.685, 7.554 5.087 C 7.184 4.489, 6.485 4, 6 4 M 15.250 5.187 C 13.424 5.011, 12 5.339, 12 5.937 C 12 6.521, 13.125 7, 14.500 7 C 16.673 7, 17 7.441, 17 10.378 C 17 12.235, 16.303 14.333, 15.452 15.040 C 14.600 15.747, 14.038 17.218, 14.202 18.310 C 14.366 19.402, 15.287 20.789, 16.250 21.393 C 17.521 22.189, 18.479 22.188, 19.750 21.388 C 20.712 20.782, 21.652 19.513, 21.838 18.568 C 22.023 17.624, 21.494 16.097, 20.661 15.176 C 19.829 14.254, 19.002 11.700, 18.824 9.500 C 18.524 5.797, 18.258 5.477, 15.250 5.187 M 18 16 C 17.515 16, 16.816 16.489, 16.446 17.087 C 16.077 17.685, 16.275 18.675, 16.887 19.287 C 17.704 20.104, 18.296 20.104, 19.113 19.287 C 19.725 18.675, 19.923 17.685, 19.554 17.087 C 19.184 16.489, 18.485 16, 18 16" stroke="none" fill="black" fill-rule="evenodd"/>
</svg>