<svg xmlns="http://www.w3.org/2000/svg" width="24" height="24" viewBox="0 0 24 24" version="1.1">
	<path d="M 3.200 3.200 C 1.556 4.844, 1.694 7.501, 3.500 9 C 4.522 9.848, 5 12.118, 5 16.122 C 5 19.374, 5.447 22, 6 22 C 6.553 22, 7 19.374, 7 16.122 C 7 12.118, 7.478 9.848, 8.500 9 C 9.325 8.315, 10 7, 10 6.078 C 10 2.549, 5.679 0.721, 3.200 3.200 M 4.446 5.087 C 3.416 6.755, 5.733 8.667, 7.113 7.287 C 8.267 6.133, 7.545 4, 6 4 C 5.515 4, 4.816 4.489, 4.446 5.087 M 12 5.937 C 12 6.521, 13.125 7, 14.500 7 C 16.673 7, 17 7.441, 17 10.378 C 17 12.235, 16.303 14.333, 15.452 15.040 C 12.087 17.833, 16.065 23.708, 19.750 21.388 C 22.110 19.902, 22.504 17.215, 20.661 15.176 C 19.829 14.254, 19.002 11.700, 18.824 9.500 C 18.524 5.797, 18.258 5.477, 15.250 5.187 C 13.424 5.011, 12 5.339, 12 5.937 M 16.446 17.087 C 15.416 18.755, 17.733 20.667, 19.113 19.287 C 20.267 18.133, 19.545 16, 18 16 C 17.515 16, 16.816 16.489, 16.446 17.087" stroke="none" fill="#000000" fill-rule="evenodd"/>
</svg>