<svg xmlns="http://www.w3.org/2000/svg" width="24" height="24" viewBox="0 0 24 24" version="1.1">
	<path d="M 3.200 3.200 C 1.556 4.844, 1.694 7.501, 3.500 9 C 4.522 9.848, 5 12.118, 5 16.122 C 5 19.374, 5.447 22, 6 22 C 6.550 22, 7 20.641, 7 18.980 L 7 15.959 10.750 17.990 C 12.813 19.107, 15.288 20.576, 16.250 21.255 C 19.644 23.649, 23.658 18.703, 20.960 15.452 C 19.418 13.594, 16.585 13.590, 15.047 15.444 C 13.468 17.346, 9.634 15.687, 8.166 12.466 C 7.356 10.688, 7.447 9.874, 8.556 8.953 C 9.350 8.294, 10 7, 10 6.078 C 10 2.549, 5.679 0.721, 3.200 3.200 M 4.446 5.087 C 3.416 6.755, 5.733 8.667, 7.113 7.287 C 8.267 6.133, 7.545 4, 6 4 C 5.515 4, 4.816 4.489, 4.446 5.087 M 16.446 17.087 C 15.416 18.755, 17.733 20.667, 19.113 19.287 C 20.267 18.133, 19.545 16, 18 16 C 17.515 16, 16.816 16.489, 16.446 17.087" stroke="none" fill="#000000" fill-rule="evenodd"/>
</svg>