<svg xmlns="http://www.w3.org/2000/svg" width="24" height="24" viewBox="0 0 24 24" version="1.1">
	<path d="M 5 7.878 C 5 11.964, 4.528 14.147, 3.452 15.040 C 0.039 17.873, 4.139 23.802, 7.750 21.255 C 8.712 20.576, 11.083 19.160, 13.018 18.108 C 14.953 17.057, 17.313 14.689, 18.262 12.848 C 19.211 11.007, 20.551 8.712, 21.239 7.750 C 23.658 4.365, 18.709 0.337, 15.452 3.040 C 13.594 4.582, 13.590 7.415, 15.444 8.953 C 17.342 10.528, 15.690 14.365, 12.486 15.825 C 8.919 17.450, 7 14.598, 7 7.671 C 7 4.552, 6.550 2, 6 2 C 5.447 2, 5 4.626, 5 7.878 M 16.446 5.087 C 15.416 6.755, 17.733 8.667, 19.113 7.287 C 20.267 6.133, 19.545 4, 18 4 C 17.515 4, 16.816 4.489, 16.446 5.087 M 4.446 17.087 C 3.416 18.755, 5.733 20.667, 7.113 19.287 C 8.267 18.133, 7.545 16, 6 16 C 5.515 16, 4.816 16.489, 4.446 17.087" stroke="none" fill="#000000" fill-rule="evenodd"/>
</svg>