<svg xmlns="http://www.w3.org/2000/svg" width="24" height="24" viewBox="0 0 24 24" version="1.1">
	<path d="M 6 2 C 5.447 2, 5 4.626, 5 7.878 C 5 11.964, 4.528 14.147, 3.452 15.040 C 2.600 15.747, 2.038 17.218, 2.202 18.310 C 2.366 19.402, 3.287 20.789, 4.250 21.393 C 5.543 22.203, 6.457 22.168, 7.750 21.255 C 8.712 20.576, 11.083 19.160, 13.018 18.108 C 14.953 17.057, 17.313 14.689, 18.262 12.848 C 19.211 11.007, 20.551 8.712, 21.239 7.750 C 22.168 6.450, 22.206 5.550, 21.388 4.250 C 20.782 3.287, 19.525 2.350, 18.595 2.167 C 17.665 1.985, 16.251 2.377, 15.452 3.040 C 14.653 3.703, 14 5.035, 14 6 C 14 6.965, 14.650 8.294, 15.444 8.953 C 16.553 9.874, 16.644 10.688, 15.834 12.466 C 15.254 13.738, 13.747 15.250, 12.486 15.825 C 10.661 16.656, 9.866 16.509, 8.596 15.106 C 7.530 13.928, 7 11.461, 7 7.671 C 7 4.552, 6.550 2, 6 2 M 18 4 C 17.515 4, 16.816 4.489, 16.446 5.087 C 16.077 5.685, 16.275 6.675, 16.887 7.287 C 17.704 8.104, 18.296 8.104, 19.113 7.287 C 19.725 6.675, 19.923 5.685, 19.554 5.087 C 19.184 4.489, 18.485 4, 18 4 M 6 16 C 5.515 16, 4.816 16.489, 4.446 17.087 C 4.077 17.685, 4.275 18.675, 4.887 19.287 C 5.704 20.104, 6.296 20.104, 7.113 19.287 C 7.725 18.675, 7.923 17.685, 7.554 17.087 C 7.184 16.489, 6.485 16, 6 16" stroke="none" fill="black" fill-rule="evenodd"/>
</svg>