<svg xmlns="http://www.w3.org/2000/svg" width="24" height="24" viewBox="0 0 24 24" version="1.1">
	<path d="M 11.951 7 C 10.867 7, 9.210 7.900, 8.268 9 C 7.202 10.245, 5.318 11, 3.278 11 C 1.475 11, 0 11.450, 0 12 C 0 12.550, 1.475 13, 3.278 13 C 5.318 13, 7.202 13.755, 8.268 15 C 9.210 16.100, 10.867 17, 11.951 17 C 13.035 17, 14.727 16.137, 15.711 15.081 C 16.695 14.026, 19.040 13.014, 20.923 12.831 C 22.806 12.649, 24.501 12.027, 24.690 11.449 C 24.904 10.796, 23.675 10.556, 21.451 10.816 C 18.733 11.133, 17.390 10.723, 15.895 9.117 C 14.810 7.953, 13.035 7, 11.951 7 M 12 9 C 11.585 9, 10.666 9.698, 9.958 10.550 C 8.896 11.831, 8.961 12.390, 10.336 13.764 C 11.888 15.317, 12.112 15.317, 13.664 13.764 C 15.039 12.390, 15.104 11.831, 14.042 10.550 C 13.334 9.698, 12.415 9, 12 9" stroke="none" fill="black" fill-rule="evenodd"/>
</svg>