<svg xmlns="http://www.w3.org/2000/svg" width="24" height="24" viewBox="0 0 24 24" version="1.1">
	<path d="M 6 2 C 5.120 2, 3.860 2.540, 3.200 3.200 C 2.540 3.860, 2 5.155, 2 6.078 C 2 7, 2.675 8.315, 3.500 9 C 4.522 9.848, 5 12.118, 5 16.122 C 5 19.374, 5.447 22, 6 22 C 6.553 22, 7 19.374, 7 16.122 C 7 12.118, 7.478 9.848, 8.500 9 C 9.325 8.315, 10 7, 10 6.078 C 10 5.155, 9.460 3.860, 8.800 3.200 C 8.140 2.540, 6.880 2, 6 2 M 6 4 C 5.515 4, 4.816 4.489, 4.446 5.087 C 4.077 5.685, 4.275 6.675, 4.887 7.287 C 5.704 8.104, 6.296 8.104, 7.113 7.287 C 7.725 6.675, 7.923 5.685, 7.554 5.087 C 7.184 4.489, 6.485 4, 6 4 M 15.250 5.187 C 13.424 5.011, 12 5.339, 12 5.937 C 12 6.521, 13.125 7, 14.500 7 C 16.611 7, 17 7.467, 17 10 C 17 11.650, 17.477 13, 18.060 13 C 18.674 13, 18.990 11.421, 18.810 9.250 C 18.527 5.826, 18.217 5.473, 15.250 5.187 M 14.800 14 C 14.360 14, 14 14.360, 14 14.800 C 14 15.240, 14.521 16.121, 15.158 16.758 C 16.034 17.634, 16 18.295, 15.015 19.482 C 14.300 20.343, 13.993 21.327, 14.333 21.667 C 14.673 22.007, 15.638 21.716, 16.476 21.020 C 17.705 20, 18.295 20, 19.524 21.020 C 20.362 21.716, 21.327 22.007, 21.667 21.667 C 22.007 21.327, 21.716 20.362, 21.020 19.524 C 20 18.295, 20 17.705, 21.020 16.476 C 21.716 15.638, 22.007 14.673, 21.667 14.333 C 21.327 13.993, 20.343 14.300, 19.482 15.015 C 18.295 16, 17.634 16.034, 16.758 15.158 C 16.121 14.521, 15.240 14, 14.800 14" stroke="none" fill="black" fill-rule="evenodd"/>
</svg>