<svg xmlns="http://www.w3.org/2000/svg" width="24" height="24" viewBox="0 0 24 24" version="1.1">
	<path d="M 12.500 0.500 L 4.154 0.500 3.502 3.500 C 3.143 5.150, 2.823 7.821, 2.791 9.436 C 2.751 11.416, 3.589 13.110, 5.366 14.638 C 6.815 15.884, 8 17.151, 8 17.452 C 8 17.753, 7.473 18, 6.829 18 C 6.185 18, 4.832 17.253, 3.823 16.339 C 2.813 15.426, 1.693 14.973, 1.333 15.333 C 0.973 15.693, 1.496 16.890, 2.494 17.994 C 3.493 19.097, 5.140 20, 6.155 20 C 7.170 20, 8 20.675, 8 21.500 C 8 22.325, 8.450 23, 9 23 C 9.550 23, 10 21.912, 10 20.582 C 10 19.252, 10.271 17.458, 10.602 16.596 C 11.010 15.533, 10.397 14.721, 8.699 14.076 C 7.321 13.552, 5.879 12.614, 5.494 11.991 C 5.109 11.368, 5.094 8.856, 5.461 6.410 C 5.879 3.624, 6.529 2.209, 7.200 2.624 C 7.789 2.988, 10.174 3.286, 12.500 3.286 C 14.826 3.286, 17.211 2.988, 17.800 2.624 C 18.471 2.209, 19.121 3.624, 19.539 6.410 C 19.906 8.856, 19.891 11.368, 19.506 11.991 C 19.121 12.614, 17.679 13.552, 16.301 14.076 C 14.603 14.721, 13.990 15.533, 14.398 16.596 C 14.729 17.458, 15 19.252, 15 20.582 C 15 21.912, 15.450 23, 16 23 C 16.550 23, 17 21.628, 17 19.952 C 17 17.900, 17.860 16.164, 19.634 14.638 C 21.411 13.110, 22.249 11.416, 22.209 9.436 C 22.177 7.821, 21.857 5.150, 21.498 3.500 L 20.846 0.500 12.500 0.500" stroke="none" fill="black" fill-rule="evenodd"/>
</svg>