<svg xmlns="http://www.w3.org/2000/svg" width="24" height="24" viewBox="0 0 24 24" version="1.1">
	<path d="M 3.502 3.500 C 2.186 9.556, 2.645 12.298, 5.366 14.638 C 6.815 15.884, 8 17.151, 8 17.452 C 8 18.582, 5.592 17.941, 3.823 16.339 C 2.813 15.426, 1.693 14.973, 1.333 15.333 C 0.317 16.350, 4.089 20, 6.155 20 C 7.170 20, 8 20.675, 8 21.500 C 8 22.325, 8.450 23, 9 23 C 9.550 23, 10 21.912, 10 20.582 C 10 19.252, 10.271 17.458, 10.602 16.596 C 11.010 15.533, 10.397 14.721, 8.699 14.076 C 7.321 13.552, 5.879 12.614, 5.494 11.991 C 4.413 10.241, 5.941 1.846, 7.200 2.624 C 8.589 3.482, 16.411 3.482, 17.800 2.624 C 19.059 1.846, 20.587 10.241, 19.506 11.991 C 19.121 12.614, 17.679 13.552, 16.301 14.076 C 14.603 14.721, 13.990 15.533, 14.398 16.596 C 14.729 17.458, 15 19.252, 15 20.582 C 15 21.912, 15.450 23, 16 23 C 16.550 23, 17 21.628, 17 19.952 C 17 17.900, 17.860 16.164, 19.634 14.638 C 22.355 12.298, 22.814 9.556, 21.498 3.500 L 20.846 0.500 12.500 0.500 L 4.154 0.500 3.502 3.500" stroke="none" fill="#000000" fill-rule="evenodd"/>
</svg>