<svg xmlns="http://www.w3.org/2000/svg" width="24" height="24" viewBox="0 0 24 24" version="1.1">
	<path d="M 7.622 4 C 6.865 4, 5.796 4.563, 5.247 5.250 C 4.699 5.938, 3.519 7.940, 2.625 9.700 C 1.731 11.461, 1 13.791, 1 14.879 C 1 15.967, 1.707 17.564, 2.571 18.429 C 3.436 19.293, 4.993 20, 6.032 20 C 7.072 20, 8.840 19.015, 9.961 17.811 L 12 15.623 14.039 17.811 C 15.160 19.015, 16.928 20, 17.968 20 C 19.007 20, 20.564 19.293, 21.429 18.429 C 22.293 17.564, 23 15.971, 23 14.889 C 23 13.806, 22.080 11.116, 20.955 8.911 C 19.830 6.707, 18.236 4.644, 17.412 4.328 C 16.588 4.012, 15.671 3.996, 15.374 4.293 C 15.076 4.590, 15.846 5.846, 17.083 7.083 L 19.333 9.333 17.007 10.193 C 15.728 10.666, 14.078 11.829, 13.341 12.777 C 12.072 14.408, 11.928 14.408, 10.659 12.777 C 9.922 11.829, 8.272 10.666, 6.993 10.193 L 4.667 9.333 6.834 7.166 C 8.025 5.975, 9 4.775, 9 4.500 C 9 4.225, 8.380 4, 7.622 4 M 6 12 C 5.585 12, 4.666 12.698, 3.958 13.550 C 2.896 14.831, 2.961 15.390, 4.336 16.764 C 5.888 18.317, 6.112 18.317, 7.664 16.764 C 9.039 15.390, 9.104 14.831, 8.042 13.550 C 7.334 12.698, 6.415 12, 6 12 M 18 12 C 17.585 12, 16.666 12.698, 15.958 13.550 C 14.896 14.831, 14.961 15.390, 16.336 16.764 C 17.888 18.317, 18.112 18.317, 19.664 16.764 C 21.039 15.390, 21.104 14.831, 20.042 13.550 C 19.334 12.698, 18.415 12, 18 12" stroke="none" fill="black" fill-rule="evenodd"/>
</svg>