<svg xmlns="http://www.w3.org/2000/svg" width="24" height="24" viewBox="0 0 24 24" version="1.1">
	<path d="M 5.247 5.250 C 3.318 7.668, 1 12.922, 1 14.879 C 1 17.384, 3.571 20, 6.032 20 C 7.072 20, 8.840 19.015, 9.961 17.811 L 12 15.623 14.039 17.811 C 15.160 19.015, 16.928 20, 17.968 20 C 20.425 20, 23 17.385, 23 14.889 C 23 12.155, 19.227 5.024, 17.412 4.328 C 14.879 3.356, 14.717 4.717, 17.083 7.083 L 19.333 9.333 17.007 10.193 C 15.728 10.666, 14.078 11.829, 13.341 12.777 C 12.072 14.408, 11.928 14.408, 10.659 12.777 C 9.922 11.829, 8.272 10.666, 6.993 10.193 L 4.667 9.333 6.834 7.166 C 8.025 5.975, 9 4.775, 9 4.500 C 9 3.484, 6.212 4.041, 5.247 5.250 M 3.958 13.550 C 2.896 14.831, 2.961 15.390, 4.336 16.764 C 5.888 18.317, 6.112 18.317, 7.664 16.764 C 9.039 15.390, 9.104 14.831, 8.042 13.550 C 6.423 11.600, 5.577 11.600, 3.958 13.550 M 15.958 13.550 C 14.896 14.831, 14.961 15.390, 16.336 16.764 C 17.888 18.317, 18.112 18.317, 19.664 16.764 C 21.039 15.390, 21.104 14.831, 20.042 13.550 C 18.423 11.600, 17.577 11.600, 15.958 13.550" stroke="none" fill="#000000" fill-rule="evenodd"/>
</svg>