<svg xmlns="http://www.w3.org/2000/svg" width="24" height="24" viewBox="0 0 24 24" version="1.1">
	<path d="M 5.247 5.250 C 3.318 7.668, 1 12.922, 1 14.879 C 1 17.384, 3.571 20, 6.032 20 C 7.072 20, 8.840 19.015, 9.961 17.811 L 12 15.623 14.039 17.811 C 15.160 19.015, 16.928 20, 17.968 20 C 20.425 20, 23 17.385, 23 14.889 C 23 12.155, 19.227 5.024, 17.412 4.328 C 14.879 3.356, 14.717 4.717, 17.083 7.083 L 19.333 9.333 17.007 10.193 C 15.728 10.666, 14.078 11.829, 13.341 12.777 C 12.072 14.408, 11.928 14.408, 10.659 12.777 C 9.922 11.829, 8.272 10.666, 6.993 10.193 L 4.667 9.333 6.834 7.166 C 8.025 5.975, 9 4.775, 9 4.500 C 9 3.484, 6.212 4.041, 5.247 5.250 M 4.500 13 C 4.160 13.550, 4.835 14, 6 14 C 7.165 14, 7.840 13.550, 7.500 13 C 7.160 12.450, 6.485 12, 6 12 C 5.515 12, 4.840 12.450, 4.500 13 M 16.500 13 C 16.160 13.550, 16.835 14, 18 14 C 19.165 14, 19.840 13.550, 19.500 13 C 19.160 12.450, 18.485 12, 18 12 C 17.515 12, 16.840 12.450, 16.500 13 M 4.800 17.200 C 5.733 18.133, 6.267 18.133, 7.200 17.200 C 8.133 16.267, 7.867 16, 6 16 C 4.133 16, 3.867 16.267, 4.800 17.200 M 16.800 17.200 C 17.733 18.133, 18.267 18.133, 19.200 17.200 C 20.133 16.267, 19.867 16, 18 16 C 16.133 16, 15.867 16.267, 16.800 17.200" stroke="none" fill="black" fill-rule="evenodd"/>
</svg>