<svg xmlns="http://www.w3.org/2000/svg" width="24" height="24" viewBox="0 0 24 24" version="1.1">
	<path d="M 5.865 3 C 5.315 3, 5.151 3.900, 5.500 5 C 5.950 6.419, 5.680 7, 4.567 7 C 3.705 7, 3 7.450, 3 8 C 3 8.550, 4.800 9, 7 9 C 9.200 9, 11 9.450, 11 10 C 11 10.550, 8.750 11, 6 11 C 3.250 11, 1 11.450, 1 12 C 1 12.550, 3.250 13, 6 13 C 8.750 13, 11 13.450, 11 14 C 11 14.550, 10.550 15, 10 15 C 9.450 15, 9 15.450, 9 16 C 9 16.550, 10.545 17, 12.433 17 C 14.987 17, 16.028 17.512, 16.500 19 C 16.849 20.100, 17.585 21, 18.135 21 C 18.685 21, 18.849 20.100, 18.500 19 C 18.050 17.581, 18.320 17, 19.433 17 C 20.295 17, 21 16.550, 21 16 C 21 15.450, 19.200 15, 17 15 C 14.800 15, 13 14.550, 13 14 C 13 13.450, 15.250 13, 18 13 C 20.750 13, 23 12.550, 23 12 C 23 11.450, 20.750 11, 18 11 C 15.250 11, 13 10.550, 13 10 C 13 9.450, 13.450 9, 14 9 C 14.550 9, 15 8.550, 15 8 C 15 7.450, 13.455 7, 11.567 7 C 9.013 7, 7.972 6.488, 7.500 5 C 7.151 3.900, 6.415 3, 5.865 3" stroke="none" fill="black" fill-rule="evenodd"/>
</svg>