<svg xmlns="http://www.w3.org/2000/svg" width="24" height="24" viewBox="0 0 24 24" version="1.1">
	<path d="M 11.601 1.063 C 10.445 1.098, 8.600 1.495, 7.500 1.945 C 6.400 2.396, 4.600 3.764, 3.500 4.987 C 2.078 6.568, 1.500 8.618, 1.500 12.082 C 1.500 16.074, 2.001 17.456, 4.273 19.727 C 6.557 22.011, 7.919 22.500, 12 22.500 C 15.979 22.500, 17.457 21.997, 19.508 19.946 C 20.913 18.542, 22.322 15.788, 22.640 13.828 C 23.019 11.497, 22.634 9.031, 21.529 6.701 C 20.435 4.397, 18.755 2.762, 16.770 2.070 C 15.082 1.481, 12.756 1.029, 11.601 1.063 M 7.979 4 C 7.520 4, 6.212 5.186, 5.073 6.635 C 3.933 8.084, 3 9.659, 3 10.135 C 3 10.611, 3.824 11, 4.832 11 C 6.055 11, 7.022 9.836, 7.739 7.500 C 8.329 5.575, 8.438 4, 7.979 4 M 12.098 4 C 11.602 4, 10.702 5.417, 10.098 7.149 C 9.494 8.881, 9 10.456, 9 10.649 C 9 10.842, 10.350 11, 12 11 C 13.650 11, 15 10.577, 15 10.059 C 15 9.541, 14.550 8.840, 14 8.500 C 13.450 8.160, 13 7.009, 13 5.941 C 13 4.873, 12.594 4, 12.098 4 M 18.131 6 C 17.693 6, 17.082 6.251, 16.775 6.558 C 16.469 6.865, 16.446 7.990, 16.725 9.058 C 17.005 10.126, 18.081 11, 19.117 11 C 20.152 11, 21 10.745, 21 10.434 C 21 10.123, 20.534 8.998, 19.965 7.934 C 19.395 6.870, 18.570 6, 18.131 6 M 4.832 13 C 3.824 13, 3 13.389, 3 13.865 C 3 14.341, 3.933 15.916, 5.073 17.365 C 6.212 18.814, 7.520 20, 7.979 20 C 8.438 20, 8.329 18.425, 7.739 16.500 C 7.022 14.164, 6.055 13, 4.832 13 M 12 13 C 10.350 13, 9 13.158, 9 13.351 C 9 13.544, 9.494 15.119, 10.098 16.851 C 10.702 18.583, 11.558 20, 12 20 C 12.442 20, 13.298 18.583, 13.902 16.851 C 14.506 15.119, 15 13.544, 15 13.351 C 15 13.158, 13.650 13, 12 13 M 19.168 13 C 17.945 13, 16.978 14.164, 16.261 16.500 C 15.671 18.425, 15.562 20, 16.021 20 C 16.480 20, 17.788 18.814, 18.927 17.365 C 20.067 15.916, 21 14.341, 21 13.865 C 21 13.389, 20.176 13, 19.168 13" stroke="none" fill="black" fill-rule="evenodd"/>
</svg>