<svg xmlns="http://www.w3.org/2000/svg" width="24" height="24" viewBox="0 0 24 24" version="1.1">
	<path d="M 6.455 4.455 C 4.907 6.002, 4 8.052, 4 10 C 4 13.044, 7.689 18, 9.955 18 C 10.530 18, 11 18.450, 11 19 C 11 19.550, 10.100 20, 9 20 C 7.900 20, 7 20.450, 7 21 C 7 21.550, 9.250 22, 12 22 C 14.750 22, 17 21.550, 17 21 C 17 20.450, 16.100 20, 15 20 C 13.900 20, 13 19.550, 13 19 C 13 18.450, 13.470 18, 14.045 18 C 16.311 18, 20 13.044, 20 10 C 20 5.889, 16.111 2, 12 2 C 10.052 2, 8.002 2.907, 6.455 4.455 M 12.308 5.767 C 11.969 6.720, 11.509 7.838, 11.287 8.250 C 11.064 8.662, 12.499 9, 14.476 9 C 17.686 9, 17.963 8.798, 17.063 7.118 C 15.613 4.409, 13.050 3.681, 12.308 5.767 M 7 7 C 6.146 8.596, 6.240 9, 7.465 9 C 8.309 9, 9 8.812, 9 8.582 C 9 8.352, 9.273 7.452, 9.607 6.582 C 10.489 4.283, 8.263 4.640, 7 7 M 7 13 C 8.263 15.360, 10.489 15.717, 9.607 13.418 C 9.273 12.548, 9 11.648, 9 11.418 C 9 11.188, 8.309 11, 7.465 11 C 6.240 11, 6.146 11.404, 7 13 M 11.832 13.074 C 12.254 14.215, 12.914 15.115, 13.300 15.074 C 13.685 15.033, 14.434 15, 14.965 15 C 15.495 15, 16.411 14.100, 17 13 C 17.976 11.177, 17.760 11, 14.567 11 C 11.443 11, 11.147 11.224, 11.832 13.074" stroke="none" fill="black" fill-rule="evenodd"/>
</svg>