<svg xmlns="http://www.w3.org/2000/svg" width="24" height="24" viewBox="0 0 24 24" version="1.1">
	<path d="M 7.500 1.945 C 3.498 3.583, 1.500 6.960, 1.500 12.082 C 1.500 16.074, 2.001 17.456, 4.273 19.727 C 6.557 22.011, 7.919 22.500, 12 22.500 C 17.962 22.500, 21.732 19.427, 22.640 13.828 C 24.063 5.060, 15.778 -1.443, 7.500 1.945 M 5.073 6.635 C 2.518 9.882, 2.457 11, 4.832 11 C 6.055 11, 7.022 9.836, 7.739 7.500 C 9.015 3.341, 7.939 2.991, 5.073 6.635 M 10.098 7.149 C 9.494 8.881, 9 10.456, 9 10.649 C 9 10.842, 10.350 11, 12 11 C 14.946 11, 15.971 9.718, 14 8.500 C 13.450 8.160, 13 7.009, 13 5.941 C 13 2.944, 11.320 3.644, 10.098 7.149 M 16.775 6.558 C 15.600 7.733, 17.322 11, 19.117 11 C 21.282 11, 21.392 10.602, 19.965 7.934 C 18.927 5.995, 17.817 5.516, 16.775 6.558 M 3 13.865 C 3 15.096, 6.980 20, 7.979 20 C 8.438 20, 8.329 18.425, 7.739 16.500 C 7.022 14.164, 6.055 13, 4.832 13 C 3.824 13, 3 13.389, 3 13.865 M 9 13.351 C 9 14.778, 11.356 20, 12 20 C 12.644 20, 15 14.778, 15 13.351 C 15 13.158, 13.650 13, 12 13 C 10.350 13, 9 13.158, 9 13.351 M 16.261 16.500 C 14.985 20.659, 16.061 21.009, 18.927 17.365 C 21.482 14.118, 21.543 13, 19.168 13 C 17.945 13, 16.978 14.164, 16.261 16.500" stroke="none" fill="black" fill-rule="evenodd"/>
</svg>