<svg xmlns="http://www.w3.org/2000/svg" width="24" height="24" viewBox="0 0 24 24" version="1.1">
	<path d="M 7.500 1.894 C 3.457 3.652, 1.500 6.976, 1.500 12.082 C 1.500 16.074, 2.001 17.456, 4.273 19.727 C 6.557 22.011, 7.919 22.500, 12 22.500 C 19.011 22.500, 22.500 19.011, 22.500 12 C 22.500 7.999, 22 6.546, 19.903 4.448 C 17.099 1.644, 10.974 0.383, 7.500 1.894 M 5.073 6.635 C 2.518 9.882, 2.457 11, 4.832 11 C 6.055 11, 7.022 9.836, 7.739 7.500 C 9.015 3.341, 7.939 2.991, 5.073 6.635 M 10.098 7.149 C 9.494 8.881, 9 10.456, 9 10.649 C 9 10.842, 10.350 11, 12 11 C 13.650 11, 15 10.842, 15 10.649 C 15 9.222, 12.644 4, 12 4 C 11.558 4, 10.702 5.417, 10.098 7.149 M 16.261 7.500 C 16.978 9.836, 17.945 11, 19.168 11 C 21.543 11, 21.482 9.882, 18.927 6.635 C 16.061 2.991, 14.985 3.341, 16.261 7.500 M 3 13.865 C 3 15.096, 6.980 20, 7.979 20 C 8.438 20, 8.329 18.425, 7.739 16.500 C 7.022 14.164, 6.055 13, 4.832 13 C 3.824 13, 3 13.389, 3 13.865 M 9 13.351 C 9 14.778, 11.356 20, 12 20 C 12.644 20, 15 14.778, 15 13.351 C 15 13.158, 13.650 13, 12 13 C 10.350 13, 9 13.158, 9 13.351 M 16.261 16.500 C 14.985 20.659, 16.061 21.009, 18.927 17.365 C 21.482 14.118, 21.543 13, 19.168 13 C 17.945 13, 16.978 14.164, 16.261 16.500" stroke="none" fill="#000000" fill-rule="evenodd"/>
</svg>