<svg xmlns="http://www.w3.org/2000/svg" width="24" height="24" viewBox="0 0 24 24" version="1.1">
	<path d="M 13.403 1.438 C 11.256 1.210, 8.600 1.416, 7.500 1.894 C 6.400 2.373, 4.600 3.764, 3.500 4.987 C 2.078 6.568, 1.500 8.618, 1.500 12.082 C 1.500 16.074, 2.001 17.456, 4.273 19.727 C 6.557 22.011, 7.919 22.500, 12 22.500 C 16.081 22.500, 17.443 22.011, 19.727 19.727 C 22.011 17.443, 22.500 16.081, 22.500 12 C 22.500 7.999, 22 6.546, 19.903 4.448 C 18.256 2.802, 15.876 1.699, 13.403 1.438 M 7.979 4 C 7.520 4, 6.212 5.186, 5.073 6.635 C 3.933 8.084, 3 9.659, 3 10.135 C 3 10.611, 3.824 11, 4.832 11 C 6.055 11, 7.022 9.836, 7.739 7.500 C 8.329 5.575, 8.438 4, 7.979 4 M 12 4 C 11.558 4, 10.702 5.417, 10.098 7.149 C 9.494 8.881, 9 10.456, 9 10.649 C 9 10.842, 10.350 11, 12 11 C 13.650 11, 15 10.842, 15 10.649 C 15 10.456, 14.506 8.881, 13.902 7.149 C 13.298 5.417, 12.442 4, 12 4 M 16.021 4 C 15.562 4, 15.671 5.575, 16.261 7.500 C 16.978 9.836, 17.945 11, 19.168 11 C 20.176 11, 21 10.611, 21 10.135 C 21 9.659, 20.067 8.084, 18.927 6.635 C 17.788 5.186, 16.480 4, 16.021 4 M 4.832 13 C 3.824 13, 3 13.389, 3 13.865 C 3 14.341, 3.933 15.916, 5.073 17.365 C 6.212 18.814, 7.520 20, 7.979 20 C 8.438 20, 8.329 18.425, 7.739 16.500 C 7.022 14.164, 6.055 13, 4.832 13 M 12 13 C 10.350 13, 9 13.158, 9 13.351 C 9 13.544, 9.494 15.119, 10.098 16.851 C 10.702 18.583, 11.558 20, 12 20 C 12.442 20, 13.298 18.583, 13.902 16.851 C 14.506 15.119, 15 13.544, 15 13.351 C 15 13.158, 13.650 13, 12 13 M 19.168 13 C 17.945 13, 16.978 14.164, 16.261 16.500 C 15.671 18.425, 15.562 20, 16.021 20 C 16.480 20, 17.788 18.814, 18.927 17.365 C 20.067 15.916, 21 14.341, 21 13.865 C 21 13.389, 20.176 13, 19.168 13" stroke="none" fill="black" fill-rule="evenodd"/>
</svg>