<svg viewBox="0 0 24 24" xmlns="http://www.w3.org/2000/svg" fill="none" stroke="#000000" stroke-width="2" stroke-linecap="round" stroke-linejoin="round"><path d="M11.207 2.043 C 9.656 2.193,8.096 2.846,6.900 3.847 C 5.985 4.612,5.307 5.477,4.800 6.529 C 3.453 9.317,3.837 12.625,5.789 15.040 C 6.075 15.394,6.761 16.067,7.100 16.326 C 7.804 16.863,8.680 17.327,9.500 17.595 C 9.979 17.751,10.703 17.920,10.898 17.920 L 11.000 17.920 11.000 18.960 L 11.000 20.000 9.446 20.000 C 7.758 20.000,7.658 20.011,7.382 20.221 C 7.302 20.282,7.187 20.415,7.128 20.516 C 7.037 20.672,7.020 20.746,7.020 21.000 C 7.020 21.256,7.036 21.328,7.131 21.489 C 7.256 21.702,7.449 21.864,7.670 21.943 C 7.892 22.022,16.108 22.022,16.330 21.943 C 16.551 21.864,16.744 21.702,16.869 21.489 C 16.964 21.328,16.980 21.256,16.980 21.000 C 16.980 20.746,16.963 20.672,16.872 20.516 C 16.813 20.415,16.698 20.282,16.618 20.221 C 16.342 20.011,16.242 20.000,14.554 20.000 L 13.000 20.000 13.000 18.960 L 13.000 17.920 13.102 17.920 C 13.297 17.920,14.021 17.751,14.500 17.595 C 15.320 17.327,16.196 16.863,16.900 16.326 C 17.239 16.067,17.925 15.394,18.211 15.040 C 20.163 12.625,20.547 9.317,19.200 6.529 C 18.693 5.477,18.015 4.612,17.100 3.847 C 15.483 2.494,13.337 1.837,11.207 2.043 M13.280 4.146 C 15.210 4.533,16.939 6.043,17.633 7.949 C 17.728 8.208,17.831 8.591,17.899 8.930 C 17.912 8.996,17.734 9.000,14.611 9.000 L 11.310 9.000 11.337 8.670 C 11.451 7.321,11.817 5.871,12.377 4.546 C 12.478 4.307,12.571 4.094,12.585 4.072 C 12.611 4.029,12.794 4.048,13.280 4.146 M10.298 4.330 C 10.282 4.380,10.209 4.591,10.134 4.800 C 9.754 5.866,9.412 7.464,9.337 8.526 C 9.322 8.738,9.297 8.932,9.282 8.957 C 9.263 8.988,8.800 8.998,7.674 8.990 L 6.093 8.980 6.149 8.700 C 6.180 8.546,6.261 8.258,6.329 8.060 C 6.905 6.374,8.216 5.028,9.920 4.376 C 10.333 4.218,10.332 4.218,10.298 4.330 M9.294 11.070 C 9.305 11.108,9.325 11.302,9.340 11.500 C 9.417 12.579,9.729 14.021,10.143 15.216 C 10.241 15.499,10.316 15.738,10.308 15.745 C 10.300 15.753,10.143 15.704,9.958 15.637 C 8.904 15.252,7.913 14.523,7.243 13.640 C 6.649 12.857,6.300 12.073,6.101 11.070 C 6.088 11.004,6.185 11.000,7.681 11.000 C 9.165 11.000,9.276 11.005,9.294 11.070 M17.899 11.070 C 17.743 11.854,17.519 12.445,17.128 13.100 C 16.436 14.260,15.232 15.231,13.937 15.673 C 13.535 15.811,12.720 15.984,12.633 15.951 C 12.570 15.926,12.233 15.143,12.026 14.540 C 11.667 13.492,11.425 12.364,11.337 11.330 L 11.310 11.000 14.611 11.000 C 17.734 11.000,17.912 11.004,17.899 11.070 " stroke="none" fill-rule="evenodd" fill="black"></path></svg>