<svg xmlns="http://www.w3.org/2000/svg" width="24" height="24" viewBox="0 0 24 24" version="1.1">
	<path d="M 11.728 4.061 C 11.603 4.094, 9.138 5.312, 6.250 6.768 C 3.362 8.223, 1 9.740, 1 10.139 C 1 10.539, 1.900 11.151, 3 11.500 C 4.394 11.942, 5 13.013, 5 15.032 C 5 16.873, 5.705 18.307, 6.934 18.965 C 7.998 19.534, 10.278 20, 12 20 C 13.722 20, 16.002 19.534, 17.066 18.965 C 18.310 18.299, 19 16.873, 19 14.965 C 19 13.334, 19.450 12, 20 12 C 20.550 12, 21 13.125, 21 14.500 C 21 15.875, 21.450 17, 22 17 C 22.550 17, 23 15.294, 23 13.208 C 23 9.604, 22.727 9.283, 17.478 6.708 C 14.441 5.219, 11.853 4.027, 11.728 4.061 M 11.716 6.064 C 11.597 6.099, 10.038 6.856, 8.250 7.745 C 6.462 8.635, 5 9.648, 5 9.996 C 5 10.345, 6.575 11.381, 8.500 12.299 C 11.769 13.857, 12.231 13.857, 15.500 12.299 C 17.425 11.381, 19 10.346, 19 10 C 19 9.654, 17.410 8.612, 15.466 7.685 C 13.522 6.758, 11.835 6.029, 11.716 6.064 M 8.750 14.538 C 7.503 14.002, 7 14.242, 7 15.374 C 7 16.247, 8.125 17.244, 9.500 17.589 C 10.875 17.934, 13.125 17.934, 14.500 17.589 C 15.875 17.244, 17 16.247, 17 15.374 C 17 14.242, 16.497 14.002, 15.250 14.538 C 14.287 14.951, 12.825 15.289, 12 15.289 C 11.175 15.289, 9.713 14.951, 8.750 14.538" stroke="none" fill="black" fill-rule="evenodd"/>
</svg>