<svg xmlns="http://www.w3.org/2000/svg" width="24" height="24" viewBox="0 0 24 24" version="1.1">
	<path d="M 6.250 6.768 C 0.543 9.644, -0.064 10.528, 3 11.500 C 4.394 11.942, 5 13.013, 5 15.032 C 5 18.376, 7.289 20, 12 20 C 16.748 20, 19 18.380, 19 14.965 C 19 13.334, 19.450 12, 20 12 C 20.550 12, 21 13.125, 21 14.500 C 21 15.875, 21.450 17, 22 17 C 22.550 17, 23 15.294, 23 13.208 C 23 9.604, 22.727 9.283, 17.478 6.708 C 14.441 5.219, 11.853 4.027, 11.728 4.061 C 11.603 4.094, 9.138 5.312, 6.250 6.768 M 8.250 7.745 C 6.462 8.635, 5 9.648, 5 9.996 C 5 10.345, 6.575 11.381, 8.500 12.299 C 11.769 13.857, 12.231 13.857, 15.500 12.299 C 17.425 11.381, 19 10.346, 19 10 C 19 9.467, 12.353 5.875, 11.716 6.064 C 11.597 6.099, 10.038 6.856, 8.250 7.745 M 7 15.374 C 7 16.247, 8.125 17.244, 9.500 17.589 C 12.979 18.462, 17 17.275, 17 15.374 C 17 14.242, 16.497 14.002, 15.250 14.538 C 13.029 15.491, 10.971 15.491, 8.750 14.538 C 7.503 14.002, 7 14.242, 7 15.374" stroke="none" fill="black" fill-rule="evenodd"/>
</svg>