<svg xmlns="http://www.w3.org/2000/svg" width="24" height="24" viewBox="0 0 24 24" version="1.1">
	<path d="M 3.446 4.087 C 2.416 5.755, 4.733 7.667, 6.113 6.287 C 7.267 5.133, 6.545 3, 5 3 C 4.515 3, 3.816 3.489, 3.446 4.087 M 10.446 4.087 C 9.416 5.755, 11.733 7.667, 13.113 6.287 C 14.267 5.133, 13.545 3, 12 3 C 11.515 3, 10.816 3.489, 10.446 4.087 M 17.446 4.087 C 16.416 5.755, 18.733 7.667, 20.113 6.287 C 21.267 5.133, 20.545 3, 19 3 C 18.515 3, 17.816 3.489, 17.446 4.087 M 3.446 11.087 C 2.416 12.755, 4.733 14.667, 6.113 13.287 C 7.267 12.133, 6.545 10, 5 10 C 4.515 10, 3.816 10.489, 3.446 11.087 M 10.446 11.087 C 9.416 12.755, 11.733 14.667, 13.113 13.287 C 14.267 12.133, 13.545 10, 12 10 C 11.515 10, 10.816 10.489, 10.446 11.087 M 17.446 11.087 C 16.416 12.755, 18.733 14.667, 20.113 13.287 C 21.267 12.133, 20.545 10, 19 10 C 18.515 10, 17.816 10.489, 17.446 11.087 M 3.446 18.087 C 2.416 19.755, 4.733 21.667, 6.113 20.287 C 7.267 19.133, 6.545 17, 5 17 C 4.515 17, 3.816 17.489, 3.446 18.087 M 10.446 18.087 C 9.416 19.755, 11.733 21.667, 13.113 20.287 C 14.267 19.133, 13.545 17, 12 17 C 11.515 17, 10.816 17.489, 10.446 18.087 M 17.446 18.087 C 16.416 19.755, 18.733 21.667, 20.113 20.287 C 21.267 19.133, 20.545 17, 19 17 C 18.515 17, 17.816 17.489, 17.446 18.087" stroke="none" fill="#000000" fill-rule="evenodd"/>
</svg>