<svg viewBox="0 0 24 24" xmlns="http://www.w3.org/2000/svg" fill="none" stroke="#000000" stroke-width="2" stroke-linecap="round" stroke-linejoin="round"><path d="M8.943 1.684 C 8.656 1.726,8.248 1.911,8.007 2.108 C 7.775 2.299,7.508 2.665,7.393 2.951 L 7.301 3.180 7.279 5.900 C 7.257 8.522,7.253 8.629,7.173 8.869 C 7.028 9.299,6.890 9.479,6.038 10.340 C 5.272 11.115,5.203 11.197,5.144 11.397 C 5.065 11.667,5.064 11.733,5.142 11.995 C 5.265 12.407,5.643 12.688,6.076 12.688 C 6.494 12.688,6.609 12.609,7.522 11.688 C 8.392 10.812,8.675 10.448,8.912 9.900 C 9.259 9.094,9.279 8.881,9.280 6.030 L 9.280 3.640 13.500 3.640 L 17.720 3.640 17.720 6.030 C 17.720 8.630,17.738 8.907,17.943 9.511 C 18.076 9.903,18.344 10.413,18.572 10.710 C 18.670 10.836,18.917 11.117,19.121 11.333 L 19.493 11.725 18.151 13.073 C 17.413 13.814,16.776 14.483,16.735 14.560 C 16.683 14.659,16.661 14.787,16.661 15.000 C 16.660 15.258,16.676 15.327,16.773 15.492 C 17.053 15.968,17.673 16.139,18.132 15.865 C 18.348 15.737,22.808 11.266,22.905 11.080 C 22.957 10.981,22.979 10.852,22.979 10.640 C 22.980 10.385,22.964 10.312,22.872 10.156 C 22.740 9.933,22.533 9.768,22.290 9.695 C 21.887 9.574,21.595 9.663,21.202 10.026 L 20.914 10.293 20.575 9.956 C 20.170 9.555,19.984 9.286,19.844 8.904 L 19.741 8.620 19.720 5.900 L 19.699 3.180 19.607 2.951 C 19.497 2.676,19.230 2.304,19.016 2.126 C 18.767 1.919,18.333 1.725,18.020 1.681 C 17.672 1.632,9.281 1.635,8.943 1.684 M11.640 8.068 C 11.483 8.121,10.893 8.695,7.107 12.475 C 4.713 14.865,2.668 16.928,2.562 17.060 C 2.297 17.390,2.101 17.761,1.993 18.140 C 1.861 18.599,1.861 19.401,1.993 19.860 C 2.281 20.864,3.136 21.719,4.140 22.007 C 4.599 22.139,5.401 22.139,5.860 22.007 C 6.239 21.898,6.610 21.703,6.940 21.438 C 7.314 21.138,15.823 12.598,15.905 12.440 C 15.957 12.341,15.979 12.212,15.979 12.000 C 15.980 11.745,15.964 11.672,15.872 11.516 C 15.740 11.293,15.533 11.128,15.290 11.055 C 15.055 10.984,14.943 10.986,14.677 11.063 C 14.465 11.125,14.349 11.238,10.020 15.558 C 5.950 19.621,5.564 19.995,5.383 20.055 C 4.833 20.236,4.259 20.004,4.000 19.495 C 3.871 19.244,3.860 18.787,3.977 18.540 C 4.028 18.431,5.438 16.991,8.442 13.980 C 10.856 11.560,12.865 9.517,12.905 9.440 C 12.957 9.341,12.979 9.212,12.979 9.000 C 12.980 8.745,12.964 8.672,12.872 8.516 C 12.617 8.083,12.122 7.903,11.640 8.068 " stroke="none" fill-rule="evenodd" fill="black"></path></svg>