<svg xmlns="http://www.w3.org/2000/svg" width="24" height="24" viewBox="0 0 24 24" version="1.1">
	<path d="M 13.960 2.206 C 10.913 2.045, 8.101 2.232, 7.710 2.623 C 7.320 3.014, 7 4.807, 7 6.608 C 7 8.409, 6.543 10.165, 5.984 10.510 C 5.425 10.856, 5.247 11.590, 5.588 12.143 C 5.930 12.696, 5.222 14.200, 4.014 15.485 C 2.807 16.770, 1.977 18.649, 2.170 19.661 C 2.363 20.672, 3.416 21.629, 4.511 21.787 C 5.809 21.974, 8.223 20.327, 11.441 17.060 C 14.157 14.302, 16.059 11.725, 15.667 11.333 C 15.275 10.941, 12.725 12.816, 10 15.500 C 7.275 18.184, 4.725 20.059, 4.333 19.667 C 3.941 19.275, 5.816 16.725, 8.500 14 C 11.184 11.275, 13.080 8.747, 12.714 8.381 C 12.348 8.014, 11.362 8.284, 10.524 8.980 C 9.214 10.067, 9 9.807, 9 7.122 C 9 4.099, 9.140 4, 13.395 4 L 17.790 4 18.238 8.250 C 18.485 10.588, 18.243 13.073, 17.701 13.774 C 17.159 14.475, 17.006 15.339, 17.361 15.695 C 17.717 16.050, 19.131 15.286, 20.504 13.996 C 21.877 12.707, 23 11.280, 23 10.826 C 23 10.372, 22.352 10, 21.560 10 C 20.619 10, 20.013 8.703, 19.810 6.250 L 19.500 2.500 13.960 2.206" stroke="none" fill="black" fill-rule="evenodd"/>
</svg>