<svg viewBox="0 0 24 24" xmlns="http://www.w3.org/2000/svg" fill="none" stroke="#000000" stroke-width="2" stroke-linecap="round" stroke-linejoin="round"><path d="M7.499 1.040 C 6.373 1.244,5.482 2.030,5.115 3.140 C 5.025 3.414,5.023 3.463,5.009 5.284 L 4.995 7.148 4.668 7.314 C 3.922 7.693,3.365 8.355,3.114 9.160 L 3.020 9.460 3.020 14.883 L 3.020 20.306 3.141 20.503 C 3.543 21.156,4.457 21.156,4.859 20.503 L 4.980 20.306 5.000 15.243 C 5.011 12.458,5.032 10.234,5.047 10.300 C 5.089 10.487,5.298 10.744,5.508 10.867 C 5.673 10.964,5.743 10.980,6.000 10.980 C 6.256 10.980,6.328 10.964,6.489 10.869 C 6.702 10.744,6.864 10.551,6.943 10.330 C 6.978 10.232,6.997 9.977,6.998 9.590 L 7.000 9.000 7.553 9.000 C 8.249 9.000,8.446 9.052,8.697 9.303 C 8.893 9.499,8.999 9.763,9.001 10.057 C 9.004 10.555,9.475 10.999,10.000 10.999 C 10.400 10.999,10.749 10.771,10.917 10.400 L 10.998 10.220 10.999 10.683 L 11.000 11.145 10.670 11.313 C 9.922 11.693,9.365 12.355,9.114 13.160 C 8.979 13.594,8.979 14.406,9.114 14.840 C 9.363 15.640,9.928 16.314,10.660 16.684 L 10.980 16.845 11.000 18.576 L 11.020 20.306 11.141 20.503 C 11.209 20.613,11.346 20.756,11.452 20.828 C 11.923 21.144,12.554 20.999,12.859 20.503 L 12.980 20.306 13.000 18.576 L 13.020 16.845 13.340 16.684 C 14.072 16.314,14.637 15.640,14.886 14.840 C 15.021 14.406,15.021 13.594,14.886 13.160 C 14.635 12.355,14.078 11.693,13.330 11.313 L 13.000 11.145 13.002 10.663 C 13.003 10.210,13.007 10.189,13.057 10.330 C 13.136 10.551,13.298 10.744,13.511 10.869 C 13.672 10.964,13.744 10.980,14.000 10.980 C 14.256 10.980,14.328 10.964,14.489 10.869 C 14.702 10.744,14.864 10.551,14.943 10.330 C 14.978 10.232,14.997 9.977,14.998 9.590 L 15.000 9.000 15.553 9.000 C 16.249 9.000,16.446 9.052,16.697 9.303 C 16.893 9.500,17.000 9.764,17.000 10.057 C 17.001 10.256,17.149 10.582,17.305 10.728 C 17.823 11.213,18.684 11.016,18.937 10.354 C 18.997 10.196,19.002 9.872,18.991 6.800 L 18.979 3.420 18.886 3.140 C 18.557 2.157,17.811 1.415,16.861 1.125 C 16.588 1.042,16.458 1.027,16.000 1.027 C 15.542 1.027,15.412 1.042,15.139 1.125 C 14.189 1.415,13.439 2.161,13.115 3.140 C 13.025 3.414,13.023 3.463,13.009 5.284 L 12.995 7.148 12.668 7.314 C 12.124 7.590,11.613 8.087,11.344 8.600 C 11.197 8.881,11.045 9.333,11.031 9.534 C 11.026 9.603,11.012 8.256,11.000 6.540 L 10.979 3.420 10.886 3.140 C 10.557 2.156,9.800 1.403,8.861 1.129 C 8.500 1.023,7.832 0.980,7.499 1.040 M8.310 3.061 C 8.452 3.103,8.571 3.178,8.697 3.303 C 8.994 3.601,9.000 3.641,9.000 5.527 C 9.000 6.425,8.995 7.160,8.990 7.160 C 8.985 7.159,8.881 7.130,8.760 7.095 C 8.608 7.052,8.301 7.025,7.770 7.011 L 7.000 6.991 7.000 5.443 C 7.000 3.650,7.007 3.599,7.304 3.303 C 7.583 3.024,7.916 2.944,8.310 3.061 M16.310 3.061 C 16.452 3.103,16.571 3.178,16.697 3.303 C 16.994 3.601,17.000 3.641,17.000 5.527 C 17.000 6.425,16.995 7.160,16.990 7.160 C 16.985 7.159,16.881 7.130,16.760 7.095 C 16.608 7.052,16.301 7.025,15.770 7.011 L 15.000 6.991 15.000 5.443 C 15.000 3.650,15.007 3.599,15.304 3.303 C 15.583 3.024,15.916 2.944,16.310 3.061 " stroke="none" fill-rule="evenodd" fill="black"></path></svg>