<svg xmlns="http://www.w3.org/2000/svg" width="24" height="24" viewBox="0 0 24 24" version="1.1">
	<path d="M 13.534 2.180 C 13.283 2.906, 12.947 5.075, 12.789 7 C 12.371 12.064, 9.651 11.705, 9 6.500 C 8.567 3.033, 8.167 2.500, 6 2.500 C 3.524 2.500, 3.497 2.593, 3.214 12.250 C 3.030 18.495, 3.300 22, 3.964 22 C 4.541 22, 5 19.783, 5 17 C 5 14.250, 5.450 12, 6 12 C 6.550 12, 7 13.350, 7 15 C 7 16.650, 7.450 18, 8 18 C 8.550 18, 9 18.900, 9 20 C 9 21.333, 9.667 22, 11 22 C 12.704 22, 13 21.333, 13 17.500 C 13 15.025, 13.450 13, 14 13 C 14.550 13, 15 14.125, 15 15.500 C 15 16.875, 15.450 18, 16 18 C 16.550 18, 17 16.740, 17 15.200 C 17 13.660, 17.479 11.921, 18.064 11.336 C 18.649 10.751, 18.987 8.298, 18.814 5.886 C 18.551 2.211, 18.134 1.448, 16.246 1.180 C 15.006 1.004, 13.785 1.454, 13.534 2.180 M 15 6.500 C 15 8.425, 15.450 10, 16 10 C 16.550 10, 17 8.425, 17 6.500 C 17 4.575, 16.550 3, 16 3 C 15.450 3, 15 4.575, 15 6.500 M 5 7 C 5 8.650, 5.450 10, 6 10 C 6.550 10, 7 8.650, 7 7 C 7 5.350, 6.550 4, 6 4 C 5.450 4, 5 5.350, 5 7" stroke="none" fill="black" fill-rule="evenodd"/>
</svg>