<svg xmlns="http://www.w3.org/2000/svg" width="24" height="24" viewBox="0 0 24 24" version="1.1">
	<path d="M 7.714 10.620 C 7.321 11.012, 7 12.833, 7 14.667 C 7 17.333, 6.600 18, 5 18 C 3.667 18, 3 17.333, 3 16 C 3 14.889, 3.667 14, 4.500 14 C 5.325 14, 6 13.519, 6 12.930 C 6 12.342, 4.988 12.005, 3.750 12.180 C 1.906 12.442, 1.500 13.132, 1.500 16 C 1.500 19.111, 1.819 19.536, 4.372 19.828 C 5.951 20.009, 7.729 19.671, 8.322 19.078 C 9.713 17.687, 14.287 17.687, 15.678 19.078 C 16.271 19.671, 18.049 20.009, 19.628 19.828 C 22.181 19.536, 22.500 19.111, 22.500 16 C 22.500 13.132, 22.094 12.442, 20.250 12.180 C 19.012 12.005, 18 12.342, 18 12.930 C 18 13.519, 18.675 14, 19.500 14 C 20.333 14, 21 14.889, 21 16 C 21 17.313, 20.333 18, 19.060 18 C 17.541 18, 17.054 17.188, 16.810 14.250 C 16.512 10.645, 16.344 10.489, 12.464 10.203 C 10.244 10.040, 8.106 10.227, 7.714 10.620 M 9 14 C 9 15.556, 9.667 16, 12 16 C 14.333 16, 15 15.556, 15 14 C 15 12.444, 14.333 12, 12 12 C 9.667 12, 9 12.444, 9 14" stroke="none" fill="black" fill-rule="evenodd"/>
</svg>