<svg viewBox="0 0 24 24" xmlns="http://www.w3.org/2000/svg" fill="none" stroke="#000000" stroke-width="2" stroke-linecap="round" stroke-linejoin="round"><path d="M6.842 2.041 C 4.203 2.318,1.996 4.160,1.261 6.700 C 1.069 7.362,1.022 7.722,1.024 8.520 C 1.025 9.131,1.041 9.333,1.115 9.680 C 1.398 11.005,1.944 12.059,3.021 13.361 C 3.460 13.891,11.297 21.740,11.520 21.873 C 11.672 21.964,11.746 21.980,12.000 21.980 C 12.254 21.980,12.328 21.964,12.480 21.873 C 12.694 21.746,20.392 14.042,20.866 13.480 C 22.026 12.108,22.592 11.040,22.886 9.671 C 23.002 9.134,23.014 7.977,22.910 7.420 C 22.456 4.984,20.820 3.094,18.500 2.325 C 17.498 1.993,16.303 1.921,15.124 2.123 C 14.107 2.297,13.167 2.729,12.250 3.446 L 12.000 3.641 11.750 3.446 C 10.827 2.724,9.895 2.297,8.856 2.119 C 8.309 2.026,7.343 1.988,6.842 2.041 M8.126 4.042 C 8.812 4.112,9.366 4.282,9.871 4.578 C 10.120 4.724,10.760 5.185,10.760 5.219 C 10.760 5.229,10.371 6.018,9.895 6.972 C 8.944 8.876,8.928 8.922,9.059 9.318 C 9.186 9.699,9.272 9.757,11.030 10.635 C 11.915 11.078,12.640 11.449,12.640 11.459 C 12.640 11.469,12.278 12.204,11.835 13.092 C 10.948 14.869,10.929 14.925,11.061 15.322 C 11.189 15.707,11.594 16.000,12.000 16.000 C 12.080 16.000,12.233 15.970,12.340 15.934 C 12.715 15.806,12.767 15.723,13.915 13.416 C 15.071 11.092,15.074 11.084,14.941 10.682 C 14.815 10.303,14.727 10.244,12.970 9.365 C 12.085 8.922,11.360 8.550,11.360 8.539 C 11.360 8.528,11.692 7.856,12.098 7.045 L 12.835 5.569 13.132 5.311 C 14.104 4.463,14.825 4.140,15.982 4.034 C 17.662 3.879,19.137 4.528,20.128 5.857 C 20.859 6.836,21.151 8.165,20.900 9.362 C 20.722 10.208,20.296 11.015,19.528 11.960 C 19.330 12.203,17.676 13.894,15.594 15.980 L 12.001 19.580 8.479 16.060 C 6.542 14.124,4.804 12.360,4.617 12.140 C 3.885 11.278,3.394 10.445,3.180 9.700 C 2.587 7.638,3.593 5.400,5.537 4.459 C 6.338 4.071,7.140 3.942,8.126 4.042 " stroke="none" fill-rule="evenodd" fill="black"></path></svg>