<svg xmlns="http://www.w3.org/2000/svg" width="24" height="24" viewBox="0 0 24 24" version="1.1">
	<path d="M 2.914 4.086 C -0.416 7.416, 0.495 10.656, 6.500 16.838 L 12 22.500 17.500 16.838 C 23.257 10.912, 24.209 8.036, 21.599 4.467 C 19.508 1.606, 5.675 1.325, 2.914 4.086 M 4.621 5.521 C 2.118 8.025, 2.635 9.731, 7.438 14.808 L 11.877 19.500 15.521 16 C 17.525 14.075, 19.602 11.696, 20.137 10.712 C 22.344 6.660, 18.191 2.757, 14.038 4.980 C 11.614 6.277, 11.387 8.557, 13.559 9.773 C 14.867 10.505, 14.921 11.078, 13.899 13.323 C 12.382 16.652, 10.750 16.844, 11.565 13.597 C 11.958 12.033, 11.660 10.898, 10.714 10.347 C 9.914 9.881, 9.313 8.389, 9.380 7.031 C 9.526 4.028, 6.936 3.207, 4.621 5.521" stroke="none" fill="#000000" fill-rule="evenodd"/>
</svg>