<svg xmlns="http://www.w3.org/2000/svg" width="24" height="24" viewBox="0 0 24 24" version="1.1">
	<path d="M 6.688 1.646 C 6.309 2.024, 6 3.802, 6 5.597 C 6 8.220, 5.558 8.924, 3.750 9.180 C 1.728 9.468, 1.500 10.058, 1.500 15 L 1.500 20.500 11 20.500 L 20.500 20.500 20.814 15.533 C 21.036 12.010, 20.696 10.251, 19.642 9.480 C 18.825 8.882, 18.008 6.843, 17.828 4.947 C 17.362 0.045, 14.601 0.275, 14.190 5.250 C 13.950 8.143, 13.450 9, 12 9 C 10.558 9, 10.048 8.145, 9.810 5.327 C 9.513 1.806, 8.143 0.191, 6.688 1.646 M 3 15 L 3 19 11 19 L 19 19 19 15 L 19 11 11 11 L 3 11 3 15" stroke="none" fill="#000000" fill-rule="evenodd"/>
</svg>