<svg xmlns="http://www.w3.org/2000/svg" width="24" height="24" viewBox="0 0 24 24" version="1.1">
	<path d="M 7.110 3.396 C -1.559 8.201, 2.068 22, 12 22 C 17.067 22, 22 17.115, 22 12.097 C 22 4.589, 13.703 -0.259, 7.110 3.396 M 8.321 5.189 C 2.798 7.859, 3.282 16.632, 9.086 19.036 C 17.991 22.724, 24.152 9.124, 15.385 5.130 C 12.428 3.782, 11.210 3.792, 8.321 5.189 M 8.223 6.557 C 5.032 8.791, 5.483 9.958, 9.296 9.339 C 11.593 8.967, 12.992 9.285, 13.909 10.390 C 15.018 11.727, 14.951 12.082, 13.480 12.646 C 12.520 13.014, 10.851 12.763, 9.770 12.089 C 7.149 10.451, 5.972 11.775, 8.443 13.582 C 12.403 16.478, 16.909 14.517, 16.780 9.954 C 16.647 5.291, 12.424 3.614, 8.223 6.557" stroke="none" fill="#000000" fill-rule="evenodd"/>
</svg>