<svg viewBox="0 0 24 24" xmlns="http://www.w3.org/2000/svg" fill="none" stroke="#000000" stroke-width="2" stroke-linecap="round" stroke-linejoin="round"><path d="M11.444 4.225 C 11.050 4.422,10.840 4.861,10.928 5.305 C 10.968 5.509,11.002 5.561,11.451 6.108 C 11.724 6.441,11.989 6.977,12.104 7.432 C 12.304 8.217,12.210 9.143,11.860 9.843 C 11.661 10.239,11.645 10.257,11.562 10.182 C 11.466 10.095,11.173 10.000,11.000 10.000 C 10.665 10.000,10.309 10.209,10.134 10.506 C 10.003 10.731,9.969 11.073,10.054 11.317 C 10.088 11.415,10.107 11.509,10.096 11.526 C 10.058 11.588,9.438 11.758,9.092 11.801 C 8.113 11.924,7.074 11.581,6.299 10.880 C 6.002 10.611,5.805 10.522,5.498 10.521 C 4.868 10.519,4.415 11.063,4.528 11.686 C 4.576 11.947,4.701 12.134,5.011 12.407 C 5.407 12.754,5.693 12.949,6.172 13.199 C 6.987 13.624,7.761 13.811,8.700 13.811 C 9.621 13.811,10.410 13.624,11.186 13.222 L 11.593 13.011 11.966 13.388 C 12.406 13.833,12.599 13.957,12.888 13.987 C 13.445 14.044,13.931 13.657,13.987 13.112 C 14.016 12.834,13.950 12.606,13.778 12.380 L 13.638 12.197 13.889 12.080 C 14.223 11.925,14.547 11.842,14.960 11.808 C 15.654 11.751,16.221 11.848,16.797 12.122 C 17.778 12.590,18.441 13.394,18.705 14.437 C 18.842 14.976,18.842 15.626,18.704 16.168 C 18.589 16.623,18.324 17.159,18.051 17.492 C 17.602 18.039,17.569 18.090,17.528 18.296 C 17.387 18.996,17.980 19.593,18.693 19.470 C 18.942 19.427,19.136 19.297,19.407 18.989 C 19.754 18.593,19.949 18.307,20.199 17.828 C 20.624 17.013,20.811 16.239,20.811 15.300 C 20.811 14.360,20.624 13.587,20.199 12.771 C 19.901 12.201,19.605 11.800,19.151 11.355 C 18.351 10.571,17.337 10.056,16.201 9.858 C 15.752 9.779,14.840 9.780,14.384 9.860 C 14.189 9.894,14.022 9.916,14.014 9.907 C 14.005 9.899,14.034 9.741,14.078 9.556 C 14.315 8.555,14.253 7.465,13.903 6.444 C 13.606 5.582,12.818 4.456,12.347 4.221 C 12.064 4.080,11.733 4.081,11.444 4.225 M6.695 6.057 C 6.466 6.129,6.256 6.299,6.128 6.516 C 6.037 6.672,6.020 6.746,6.020 7.000 C 6.020 7.253,6.037 7.328,6.127 7.480 C 6.257 7.700,7.366 8.801,7.560 8.904 C 7.660 8.957,7.786 8.979,8.000 8.979 C 8.258 8.980,8.327 8.964,8.492 8.867 C 8.967 8.588,9.138 7.970,8.867 7.508 C 8.812 7.416,8.490 7.067,8.150 6.733 C 7.600 6.194,7.508 6.120,7.319 6.063 C 7.066 5.988,6.919 5.987,6.695 6.057 " stroke="none" fill-rule="evenodd" fill="black"></path></svg>