<svg viewBox="0 0 24 24" xmlns="http://www.w3.org/2000/svg" fill="none" stroke="#000000" stroke-width="2" stroke-linecap="round" stroke-linejoin="round"><path d="M7.499 1.040 C 6.374 1.244,5.488 2.024,5.114 3.140 L 5.020 3.420 5.009 9.773 C 5.002 14.110,5.012 16.175,5.040 16.281 C 5.122 16.583,5.422 16.868,5.780 16.983 C 5.845 17.003,5.829 17.018,5.695 17.059 C 5.467 17.128,5.256 17.298,5.128 17.516 C 5.037 17.672,5.020 17.746,5.020 18.000 C 5.020 18.257,5.036 18.327,5.133 18.492 C 5.261 18.710,5.502 18.901,5.724 18.961 C 5.824 18.988,8.009 18.998,12.227 18.991 L 18.580 18.980 18.860 18.886 C 19.840 18.557,20.559 17.838,20.886 16.860 L 20.979 16.580 20.999 13.380 C 21.011 11.620,21.032 10.234,21.047 10.300 C 21.089 10.487,21.298 10.744,21.508 10.867 C 21.673 10.964,21.743 10.980,22.000 10.980 C 22.257 10.980,22.327 10.964,22.492 10.867 C 22.711 10.739,22.901 10.498,22.962 10.274 C 22.989 10.172,22.999 8.990,22.991 6.770 L 22.979 3.420 22.886 3.140 C 22.557 2.157,21.811 1.415,20.861 1.125 C 20.588 1.042,20.458 1.027,20.000 1.027 C 19.542 1.027,19.412 1.042,19.139 1.125 C 18.187 1.415,17.428 2.172,17.118 3.140 C 17.042 3.379,17.026 3.536,17.010 4.210 L 16.991 5.000 14.000 5.000 L 11.009 5.000 10.990 4.210 C 10.974 3.536,10.958 3.379,10.882 3.140 C 10.571 2.170,9.801 1.404,8.861 1.129 C 8.500 1.023,7.832 0.980,7.499 1.040 M8.310 3.061 C 8.452 3.103,8.571 3.178,8.697 3.303 C 8.948 3.554,9.000 3.751,9.000 4.443 L 9.000 4.991 8.230 5.011 C 7.699 5.025,7.392 5.052,7.240 5.095 C 7.119 5.130,7.015 5.159,7.010 5.160 C 7.005 5.160,7.000 4.875,7.000 4.527 C 7.000 3.743,7.045 3.561,7.304 3.303 C 7.583 3.024,7.916 2.944,8.310 3.061 M20.310 3.061 C 20.452 3.103,20.571 3.178,20.697 3.303 C 21.000 3.606,21.001 3.613,20.995 5.777 C 20.993 6.863,20.977 7.580,20.959 7.471 C 20.808 6.578,20.179 5.745,19.330 5.313 L 19.000 5.145 19.000 4.520 C 19.000 3.744,19.046 3.561,19.304 3.303 C 19.583 3.024,19.916 2.944,20.310 3.061 M9.000 8.570 C 9.000 9.528,9.017 10.198,9.042 10.289 C 9.124 10.586,9.426 10.869,9.780 10.983 C 9.845 11.003,9.829 11.018,9.695 11.059 C 9.467 11.128,9.256 11.298,9.128 11.516 C 9.037 11.672,9.020 11.746,9.020 12.000 C 9.020 12.254,9.036 12.328,9.127 12.480 C 9.260 12.703,11.367 14.803,11.560 14.905 C 11.659 14.957,11.787 14.979,12.000 14.979 C 12.255 14.980,12.327 14.964,12.480 14.873 C 12.703 14.740,14.803 12.633,14.905 12.440 C 14.957 12.341,14.979 12.213,14.979 12.000 C 14.980 11.745,14.964 11.672,14.872 11.516 C 14.740 11.293,14.533 11.128,14.290 11.055 C 14.054 10.984,13.943 10.986,13.680 11.064 C 13.485 11.122,13.397 11.195,12.733 11.851 L 12.000 12.574 11.267 11.850 C 10.627 11.218,10.509 11.119,10.337 11.067 C 10.183 11.021,10.157 11.003,10.220 10.983 C 10.575 10.869,10.876 10.586,10.958 10.289 C 10.983 10.198,11.000 9.528,11.000 8.570 L 11.000 7.000 14.000 7.000 L 17.000 7.000 17.002 8.590 C 17.004 10.300,17.009 10.346,17.217 10.619 C 17.275 10.696,17.408 10.808,17.511 10.869 C 17.672 10.964,17.744 10.980,18.000 10.980 C 18.256 10.980,18.328 10.964,18.489 10.869 C 18.702 10.744,18.864 10.551,18.943 10.330 C 19.024 10.104,19.026 16.021,18.945 16.290 C 18.872 16.533,18.707 16.740,18.484 16.872 L 18.300 16.980 12.240 16.989 C 7.122 16.996,6.203 16.989,6.330 16.943 C 6.552 16.864,6.744 16.702,6.869 16.489 L 6.980 16.300 7.000 12.020 C 7.022 7.223,6.997 7.598,7.322 7.283 C 7.558 7.054,7.746 7.006,8.430 7.003 L 9.000 7.000 9.000 8.570 " stroke="none" fill-rule="evenodd" fill="black"></path></svg>