<svg xmlns="http://www.w3.org/2000/svg" width="24" height="24" viewBox="0 0 24 24" version="1.1">
	<path d="M 5.709 1.624 C 5.319 2.014, 5 3.785, 5 5.560 C 5 7.554, 4.407 9.014, 3.447 9.382 C 2.258 9.838, 1.966 11.210, 2.197 15.239 L 2.500 20.500 10.766 20.791 C 20.681 21.139, 20.622 21.215, 19.381 9.687 C 18.538 1.856, 18.391 1.500, 16 1.500 C 13.833 1.500, 13.459 1.999, 13.190 5.250 C 13.019 7.313, 12.484 9, 12 9 C 11.516 9, 10.981 7.313, 10.810 5.250 C 10.571 2.363, 10.030 1.433, 8.459 1.208 C 7.336 1.047, 6.099 1.235, 5.709 1.624 M 7 6 C 7 7.650, 7.450 9, 8 9 C 8.550 9, 9 7.650, 9 6 C 9 4.350, 8.550 3, 8 3 C 7.450 3, 7 4.350, 7 6 M 15 6 C 15 7.650, 15.450 9, 16 9 C 16.550 9, 17 7.650, 17 6 C 17 4.350, 16.550 3, 16 3 C 15.450 3, 15 4.350, 15 6 M 4 15 L 4 19 11 19 L 18 19 18 15 L 18 11 11 11 L 4 11 4 15" stroke="none" fill="#000000" fill-rule="evenodd"/>
</svg>