<svg xmlns="http://www.w3.org/2000/svg" width="24" height="24" viewBox="0 0 24 24" version="1.1">
	<path d="M 12.459 1.208 C 11.336 1.047, 10.099 1.235, 9.709 1.624 C 9.319 2.014, 9 3.353, 9 4.600 C 9 6.330, 8.348 6.942, 6.250 7.184 C 3.587 7.490, 3.491 7.714, 3.204 14.250 C 3.020 18.468, 3.301 21, 3.954 21 C 4.566 21, 5 18.508, 5 15 C 5 10.212, 5.317 9, 6.571 9 C 7.436 9, 8.786 9.643, 9.571 10.429 C 10.393 11.250, 11 13.800, 11 16.429 C 11 18.943, 11.450 21, 12 21 C 12.550 21, 13 18.943, 13 16.429 C 13 13.492, 13.597 11.260, 14.670 10.188 C 15.884 8.973, 16.452 8.856, 16.753 9.759 C 16.981 10.442, 17.579 11, 18.083 11 C 18.587 11, 19 9.200, 19 7 C 19 4.800, 19.450 3, 20 3 C 20.550 3, 21 4.800, 21 7 C 21 9.200, 21.475 11, 22.055 11 C 22.689 11, 22.988 9.107, 22.805 6.250 C 22.528 1.931, 22.273 1.500, 20 1.500 C 18.016 1.500, 17.435 2.068, 17.184 4.250 C 17.010 5.763, 16.477 7, 16 7 C 15.523 7, 14.990 5.763, 14.816 4.250 C 14.601 2.376, 13.849 1.407, 12.459 1.208 M 12 3 C 11.450 3, 11 4.152, 11 5.559 C 11 7.010, 11.433 7.851, 12 7.500 C 12.550 7.160, 13 6.009, 13 4.941 C 13 3.873, 12.550 3, 12 3" stroke="none" fill="black" fill-rule="evenodd"/>
</svg>