<svg xmlns="http://www.w3.org/2000/svg" width="24" height="24" viewBox="0 0 24 24" version="1.1">
	<path d="M 8.459 1.208 C 7.336 1.047, 6.099 1.235, 5.709 1.624 C 5.319 2.014, 5 3.357, 5 4.608 C 5 5.859, 4.550 7.160, 4 7.500 C 3.450 7.840, 3 11.016, 3 14.559 C 3 18.186, 3.437 21, 4 21 C 4.550 21, 5 18.943, 5 16.429 C 5 13.583, 5.600 11.257, 6.591 10.266 C 7.801 9.057, 8.363 8.969, 8.940 9.902 C 9.357 10.577, 9.499 12.172, 9.255 13.447 C 9.011 14.722, 9.304 16.070, 9.906 16.442 C 10.508 16.814, 11 17.991, 11 19.059 C 11 20.127, 11.450 21, 12 21 C 12.550 21, 13 20.127, 13 19.059 C 13 17.991, 13.492 16.814, 14.094 16.442 C 14.696 16.070, 14.989 14.722, 14.745 13.447 C 14.501 12.172, 14.718 10.538, 15.227 9.815 C 15.954 8.781, 16.261 8.768, 16.659 9.750 C 16.938 10.437, 17.604 11, 18.138 11 C 18.673 11, 18.973 8.866, 18.805 6.250 C 18.528 1.939, 18.270 1.500, 16.014 1.500 C 14.301 1.500, 13.427 2.123, 13.205 3.500 C 13.028 4.600, 12.607 6.175, 12.270 7 C 11.886 7.941, 11.442 7.195, 11.079 5 C 10.662 2.478, 9.929 1.418, 8.459 1.208 M 8 3 C 7.450 3, 7 3.900, 7 5 C 7 6.100, 7.450 7, 8 7 C 8.550 7, 9 6.100, 9 5 C 9 3.900, 8.550 3, 8 3 M 16 3 C 15.450 3, 15 3.900, 15 5 C 15 6.100, 15.450 7, 16 7 C 16.550 7, 17 6.100, 17 5 C 17 3.900, 16.550 3, 16 3" stroke="none" fill="black" fill-rule="evenodd"/>
</svg>