<svg xmlns="http://www.w3.org/2000/svg" width="24" height="24" viewBox="0 0 24 24" version="1.1">
	<path d="M 5.667 1.667 C 5.300 2.033, 5 6.102, 5 10.709 L 5 19.084 12.750 18.792 L 20.500 18.500 20.810 14.750 C 20.981 12.688, 21.568 11, 22.115 11 C 22.678 11, 22.977 8.937, 22.805 6.250 C 22.542 2.149, 22.183 1.455, 20.177 1.171 C 18.507 0.934, 17.701 1.426, 17.310 2.921 C 16.563 5.781, 11.453 5.842, 10.710 3 C 10.208 1.080, 7.080 0.253, 5.667 1.667 M 7 4 C 7 4.550, 7.450 5, 8 5 C 8.550 5, 9 4.550, 9 4 C 9 3.450, 8.550 3, 8 3 C 7.450 3, 7 3.450, 7 4 M 19 3.941 C 19 4.459, 19.450 5.160, 20 5.500 C 20.550 5.840, 21 5.416, 21 4.559 C 21 3.702, 20.550 3, 20 3 C 19.450 3, 19 3.423, 19 3.941 M 7 12 L 7 17 13 17 L 19 17 19 14 C 19 12.350, 18.550 11, 18 11 C 17.450 11, 17 10.100, 17 9 C 17 7.444, 16.333 7, 14 7 C 11.446 7, 11 7.381, 11 9.567 C 11 11.680, 11.355 12.022, 13 11.500 C 15.352 10.754, 15.645 12.220, 13.500 14 C 11.373 15.765, 9 13.592, 9 9.878 C 9 8.295, 8.550 7, 8 7 C 7.450 7, 7 9.250, 7 12" stroke="none" fill="black" fill-rule="evenodd"/>
</svg>