<svg xmlns="http://www.w3.org/2000/svg" width="24" height="24" viewBox="0 0 24 24" version="1.1">
	<path d="M 13 6 C 11.127 6, 9.697 6.698, 9.035 7.934 C 8.466 8.998, 8 12.283, 8 15.234 C 8 18.185, 8.540 21.140, 9.200 21.800 C 9.860 22.460, 11.570 23, 13 23 C 14.430 23, 16.140 22.460, 16.800 21.800 C 17.460 21.140, 18 18.185, 18 15.234 C 18 12.283, 17.534 8.998, 16.965 7.934 C 16.303 6.698, 14.873 6, 13 6 M 13 8 C 11.776 8, 10.817 8.882, 10.449 10.345 C 10.126 11.635, 10.005 14.448, 10.180 16.595 C 10.460 20.008, 10.815 20.500, 13 20.500 C 15.185 20.500, 15.540 20.008, 15.820 16.595 C 15.995 14.448, 15.874 11.635, 15.551 10.345 C 15.183 8.882, 14.224 8, 13 8" stroke="none" fill="black" fill-rule="evenodd"/>
</svg>