<svg xmlns="http://www.w3.org/2000/svg" width="24" height="24" viewBox="0 0 24 24" version="1.1">
	<path d="M 16.493 3.754 C 15.148 3.497, 13.811 3.522, 13.524 3.810 C 13.236 4.098, 13 5.833, 13 7.667 C 13 10.704, 13.267 11, 16 11 C 17.650 11, 19 11.450, 19 12 C 19 12.595, 15.655 12.957, 10.750 12.893 C 3.099 12.794, 2.809 12.717, 6.750 11.834 C 9.088 11.311, 11 10.409, 11 9.830 C 11 9.162, 9.629 9.020, 7.250 9.442 C 5.188 9.808, 2.713 10.338, 1.750 10.621 C 0.788 10.903, 0 11.974, 0 13 C 0 14.026, 0.955 15.168, 2.122 15.539 C 3.289 15.909, 7.564 15.901, 11.622 15.521 C 16.685 15.046, 19 15.170, 19 15.915 C 19 16.516, 17.201 17, 14.969 17 C 12.293 17, 10.742 17.509, 10.357 18.513 C 10.037 19.345, 10.332 20.695, 11.011 21.513 C 11.689 22.331, 13.551 23, 15.147 23 C 17.292 23, 18.288 22.372, 18.963 20.597 C 19.466 19.276, 20.323 17.918, 20.869 17.581 C 21.422 17.239, 21.652 14.677, 21.390 11.788 C 21.131 8.939, 20.474 6.071, 19.929 5.414 C 19.384 4.758, 17.838 4.011, 16.493 3.754 M 17 7.158 C 15.625 7.158, 15.063 7.385, 15.750 7.662 C 16.438 7.940, 17.563 7.940, 18.250 7.662 C 18.938 7.385, 18.375 7.158, 17 7.158 M 15 19 C 13.900 19, 13 19.450, 13 20 C 13 20.550, 13.900 21, 15 21 C 16.100 21, 17 20.550, 17 20 C 17 19.450, 16.100 19, 15 19" stroke="none" fill="black" fill-rule="evenodd"/>
</svg>