<svg viewBox="0 0 24 24" xmlns="http://www.w3.org/2000/svg" fill="none" stroke="#000000" stroke-width="2" stroke-linecap="round" stroke-linejoin="round"><path d="M13.581 3.603 C 13.354 3.716,13.178 3.900,13.080 4.128 C 12.997 4.321,12.996 4.361,13.010 6.192 C 13.027 8.231,13.029 8.251,13.277 8.771 L 13.387 9.002 13.283 9.027 C 12.827 9.136,12.512 9.534,12.512 10.000 C 12.512 10.385,12.707 10.703,13.060 10.894 C 13.219 10.979,13.245 10.980,16.000 11.000 C 18.766 11.020,18.781 11.020,18.944 11.108 C 19.134 11.210,19.347 11.438,19.425 11.626 C 19.496 11.795,19.496 12.205,19.425 12.374 C 19.347 12.562,19.134 12.790,18.944 12.892 C 18.781 12.980,18.766 12.980,15.980 13.000 C 12.884 13.022,13.092 13.003,12.807 13.284 C 12.595 13.493,12.508 13.701,12.508 14.000 C 12.508 14.299,12.595 14.507,12.807 14.716 C 13.092 14.997,12.884 14.978,15.980 15.000 C 18.766 15.020,18.781 15.020,18.944 15.108 C 19.134 15.210,19.347 15.438,19.425 15.626 C 19.496 15.795,19.496 16.205,19.425 16.374 C 19.338 16.581,19.118 16.804,18.900 16.906 L 18.700 16.999 16.000 17.001 C 13.881 17.003,13.268 17.015,13.153 17.056 C 12.883 17.152,12.644 17.405,12.542 17.700 L 12.493 17.843 12.444 17.679 C 12.384 17.478,12.160 17.223,11.943 17.108 C 11.715 16.988,11.285 16.988,11.057 17.108 C 10.849 17.218,10.625 17.466,10.555 17.665 C 10.468 17.912,10.481 20.326,10.571 20.689 C 10.803 21.616,11.501 22.434,12.359 22.783 C 12.864 22.988,13.094 23.007,14.906 22.991 C 16.526 22.977,16.589 22.974,16.860 22.884 C 17.844 22.560,18.581 21.817,18.886 20.840 C 18.967 20.582,18.979 20.462,18.976 19.980 C 18.973 19.583,18.954 19.363,18.908 19.223 C 18.873 19.115,18.851 19.014,18.861 18.999 C 18.870 18.984,18.959 18.960,19.057 18.947 C 19.933 18.827,20.838 18.112,21.242 17.223 C 21.415 16.840,21.487 16.482,21.487 16.000 C 21.487 15.320,21.321 14.792,20.939 14.256 L 20.756 14.000 20.939 13.744 C 21.321 13.208,21.487 12.680,21.487 12.000 C 21.487 11.105,21.160 10.367,20.497 9.769 L 20.233 9.530 20.416 9.281 C 20.782 8.784,20.949 8.308,20.987 7.658 C 21.025 7.015,20.874 6.419,20.542 5.901 C 20.235 5.421,19.742 4.994,19.223 4.759 C 18.770 4.553,18.510 4.520,17.340 4.520 L 16.285 4.520 15.277 4.020 C 14.289 3.530,14.264 3.520,14.004 3.522 C 13.823 3.523,13.690 3.548,13.581 3.603 M17.059 6.520 C 18.470 6.542,18.454 6.539,18.706 6.807 C 18.915 7.029,18.978 7.189,18.978 7.500 C 18.978 7.831,18.890 8.029,18.648 8.248 C 18.381 8.489,18.311 8.500,17.000 8.500 C 15.689 8.500,15.619 8.489,15.352 8.248 C 15.043 7.969,15.022 7.887,15.007 6.950 L 14.994 6.121 15.386 6.310 L 15.779 6.500 17.059 6.520 M6.080 9.757 C 4.023 10.169,2.205 10.528,2.040 10.554 C 1.851 10.584,1.616 10.661,1.404 10.762 C 0.951 10.978,0.481 11.440,0.266 11.880 C -0.084 12.594,-0.084 13.404,0.265 14.120 C 0.458 14.516,0.978 15.041,1.361 15.229 C 1.948 15.515,1.589 15.497,6.740 15.511 C 9.995 15.520,11.456 15.511,11.636 15.480 C 11.951 15.425,12.199 15.264,12.340 15.023 C 12.625 14.537,12.478 13.927,12.009 13.651 L 11.820 13.540 7.080 13.520 C 2.592 13.501,2.334 13.496,2.233 13.428 C 2.116 13.348,2.000 13.136,2.000 13.000 C 2.000 12.842,2.127 12.635,2.256 12.581 C 2.324 12.553,4.135 12.183,6.280 11.759 C 8.425 11.334,10.251 10.962,10.337 10.933 C 10.848 10.757,11.114 10.203,10.940 9.679 C 10.810 9.288,10.393 8.994,9.983 9.004 C 9.893 9.006,8.137 9.345,6.080 9.757 M12.807 18.716 C 13.081 18.986,13.025 18.978,14.720 19.000 C 16.449 19.022,16.423 19.018,16.717 19.321 C 16.880 19.490,17.000 19.777,17.000 20.001 C 17.000 20.331,16.784 20.696,16.484 20.872 L 16.300 20.980 14.821 20.992 C 13.163 21.005,13.135 21.001,12.828 20.724 C 12.537 20.462,12.522 20.391,12.523 19.280 L 12.524 18.300 12.599 18.442 C 12.640 18.521,12.734 18.644,12.807 18.716 " stroke="none" fill-rule="evenodd" fill="black"></path></svg>