<svg viewBox="0 0 24 24" xmlns="http://www.w3.org/2000/svg" fill="none" stroke="#000000" stroke-width="2" stroke-linecap="round" stroke-linejoin="round"><path d="M11.499 1.040 C 10.373 1.244,9.482 2.030,9.115 3.140 C 9.025 3.414,9.023 3.462,9.009 5.292 C 8.996 7.026,8.990 7.162,8.927 7.144 C 8.541 7.029,8.403 7.020,6.980 7.020 C 5.555 7.020,5.488 7.023,5.178 7.112 C 4.208 7.390,3.423 8.169,3.114 9.160 L 3.020 9.460 3.020 14.883 L 3.020 20.306 3.141 20.503 C 3.543 21.156,4.457 21.156,4.859 20.503 L 4.980 20.306 5.000 15.023 C 5.022 9.102,4.995 9.600,5.321 9.283 C 5.591 9.022,5.720 9.000,7.000 9.000 C 8.303 9.000,8.414 9.020,8.697 9.303 C 8.893 9.499,8.999 9.763,9.001 10.057 C 9.004 10.555,9.475 10.999,10.000 10.999 C 10.400 10.999,10.749 10.771,10.916 10.400 L 10.998 10.220 11.009 15.263 L 11.020 20.306 11.141 20.503 C 11.543 21.156,12.457 21.156,12.859 20.503 L 12.980 20.306 13.000 15.243 C 13.011 12.458,13.032 10.234,13.047 10.300 C 13.089 10.487,13.298 10.744,13.508 10.867 C 13.673 10.964,13.743 10.980,14.000 10.980 C 14.256 10.980,14.328 10.964,14.489 10.869 C 14.702 10.744,14.864 10.551,14.943 10.330 C 14.978 10.232,14.997 9.977,14.998 9.590 L 15.000 9.000 15.553 9.000 C 16.249 9.000,16.446 9.052,16.697 9.303 C 16.893 9.499,16.999 9.763,17.001 10.057 C 17.004 10.555,17.475 10.999,18.000 10.999 C 18.400 10.999,18.749 10.771,18.917 10.400 C 18.997 10.224,18.998 10.153,18.999 7.057 C 19.000 3.469,18.988 3.618,19.303 3.303 C 19.486 3.120,19.763 3.000,20.000 3.000 C 20.223 3.000,20.510 3.120,20.679 3.283 C 20.999 3.594,20.978 3.344,21.000 7.023 L 21.020 10.306 21.141 10.503 C 21.543 11.156,22.457 11.156,22.859 10.503 L 22.980 10.306 22.980 6.883 L 22.980 3.460 22.886 3.160 C 22.580 2.180,21.822 1.418,20.861 1.125 C 20.588 1.042,20.458 1.027,20.000 1.027 C 19.542 1.027,19.412 1.042,19.139 1.125 C 18.189 1.415,17.439 2.161,17.115 3.140 C 17.025 3.414,17.023 3.462,17.009 5.290 C 17.001 6.319,16.992 7.160,16.988 7.160 C 16.983 7.159,16.881 7.130,16.760 7.095 C 16.609 7.052,16.301 7.025,15.773 7.011 L 15.005 6.991 14.991 5.205 C 14.977 3.467,14.974 3.413,14.884 3.140 C 14.561 2.160,13.800 1.404,12.861 1.129 C 12.500 1.023,11.832 0.980,11.499 1.040 M12.310 3.061 C 12.452 3.103,12.571 3.178,12.697 3.303 C 12.994 3.601,13.000 3.642,13.000 5.520 L 13.000 7.145 12.670 7.313 C 11.821 7.745,11.192 8.578,11.041 9.471 C 11.024 9.575,11.007 8.363,11.005 6.777 C 10.999 3.499,10.989 3.617,11.304 3.303 C 11.583 3.024,11.916 2.944,12.310 3.061 " stroke="none" fill-rule="evenodd" fill="black"></path></svg>