<svg xmlns="http://www.w3.org/2000/svg" width="24" height="24" viewBox="0 0 24 24" version="1.1">
	<path d="M 11.557 6.373 C 12.432 9.856, 9.867 12.534, 7.084 11.045 C 5.861 10.390, 4.900 10.353, 4.533 10.947 C 3.030 13.379, 12.557 14.948, 14.222 12.542 C 14.717 11.827, 15.501 11.857, 16.722 12.638 C 18.391 13.707, 18.734 15.160, 17.869 17.500 C 17.666 18.050, 17.939 18.725, 18.476 19 C 19.013 19.275, 19.882 18.276, 20.408 16.780 C 21.166 14.625, 20.983 13.639, 19.527 12.030 C 18.517 10.914, 16.890 10, 15.911 10 C 14.729 10, 14.027 9.104, 13.816 7.327 C 13.642 5.857, 12.918 4.463, 12.206 4.229 C 11.272 3.922, 11.092 4.517, 11.557 6.373 M 6.188 7.063 C 6.428 7.784, 7.216 8.572, 7.938 8.813 C 8.688 9.063, 9.063 8.688, 8.813 7.938 C 8.572 7.216, 7.784 6.428, 7.063 6.188 C 6.313 5.938, 5.938 6.313, 6.188 7.063" stroke="none" fill="#000000" fill-rule="evenodd"/>
</svg>