<svg xmlns="http://www.w3.org/2000/svg" width="24" height="24" viewBox="0 0 24 24" version="1.1">
	<path d="M 9.035 7.934 C 7.613 10.591, 7.729 20.329, 9.200 21.800 C 9.860 22.460, 11.570 23, 13 23 C 14.430 23, 16.140 22.460, 16.800 21.800 C 18.271 20.329, 18.387 10.591, 16.965 7.934 C 15.568 5.325, 10.432 5.325, 9.035 7.934 M 10.449 10.345 C 10.126 11.635, 10.005 14.448, 10.180 16.595 C 10.460 20.008, 10.815 20.500, 13 20.500 C 15.185 20.500, 15.540 20.008, 15.820 16.595 C 15.995 14.448, 15.874 11.635, 15.551 10.345 C 14.760 7.197, 11.240 7.197, 10.449 10.345" stroke="none" fill="black" fill-rule="evenodd"/>
</svg>