<svg xmlns="http://www.w3.org/2000/svg" width="24" height="24" viewBox="0 0 24 24" version="1.1">
	<path d="M 10.621 1.750 C 10.338 2.712, 9.808 5.188, 9.442 7.250 C 8.504 12.545, 10.636 12.099, 11.834 6.750 C 12.717 2.809, 12.794 3.099, 12.893 10.750 C 12.957 15.655, 12.595 19, 12 19 C 11.450 19, 11 17.623, 11 15.940 C 11 13.015, 10.834 12.893, 7.250 13.190 C 3.893 13.467, 3.535 13.762, 3.832 16 C 4.014 17.375, 4.689 19.044, 5.332 19.708 C 6.822 21.248, 16.764 22.190, 17.581 20.869 C 17.918 20.323, 19.276 19.466, 20.597 18.963 C 23.403 17.896, 23.962 13.043, 21.513 11.011 C 18.934 8.871, 17 10.567, 17 14.969 C 17 17.201, 16.516 19, 15.915 19 C 15.170 19, 15.046 16.685, 15.521 11.622 C 15.901 7.564, 15.909 3.289, 15.539 2.122 C 14.726 -0.439, 11.339 -0.695, 10.621 1.750 M 19 15 C 19 16.100, 19.450 17, 20 17 C 20.550 17, 21 16.100, 21 15 C 21 13.900, 20.550 13, 20 13 C 19.450 13, 19 13.900, 19 15 M 7.158 17 C 7.158 18.375, 7.385 18.938, 7.662 18.250 C 7.940 17.563, 7.940 16.438, 7.662 15.750 C 7.385 15.063, 7.158 15.625, 7.158 17" stroke="none" fill="#000000" fill-rule="evenodd"/>
</svg>