<svg xmlns="http://www.w3.org/2000/svg" width="24" height="24" viewBox="0 0 24 24" version="1.1">
	<path d="M 9.200 2.200 C 7.729 3.671, 7.613 13.409, 9.035 16.066 C 9.697 17.302, 11.127 18, 13 18 C 14.873 18, 16.303 17.302, 16.965 16.066 C 18.387 13.409, 18.271 3.671, 16.800 2.200 C 15.253 0.653, 10.747 0.653, 9.200 2.200 M 10.709 3.624 C 9.843 4.491, 9.769 12.236, 10.607 14.418 C 10.941 15.288, 12.057 16, 13.088 16 C 15.308 16, 16.274 12.960, 15.820 7.405 C 15.571 4.366, 15.047 3.435, 13.459 3.208 C 12.336 3.047, 11.099 3.235, 10.709 3.624" stroke="none" fill="black" fill-rule="evenodd"/>
</svg>