<svg xmlns="http://www.w3.org/2000/svg" width="24" height="24" viewBox="0 0 24 24" version="1.1">
	<path d="M 13.524 3.810 C 13.236 4.098, 13 5.833, 13 7.667 C 13 10.704, 13.267 11, 16 11 C 17.650 11, 19 11.450, 19 12 C 19 12.595, 15.655 12.957, 10.750 12.893 C 3.099 12.794, 2.809 12.717, 6.750 11.834 C 12.099 10.636, 12.545 8.504, 7.250 9.442 C 1.037 10.543, 0 11.052, 0 13 C 0 15.638, 3.128 16.317, 11.622 15.521 C 16.685 15.046, 19 15.170, 19 15.915 C 19 16.516, 17.201 17, 14.969 17 C 10.567 17, 8.871 18.934, 11.011 21.513 C 13.043 23.962, 17.896 23.403, 18.963 20.597 C 19.466 19.276, 20.323 17.918, 20.869 17.581 C 22.073 16.837, 21.321 7.091, 19.929 5.414 C 18.840 4.103, 14.354 2.979, 13.524 3.810 M 15.750 7.662 C 16.438 7.940, 17.563 7.940, 18.250 7.662 C 18.938 7.385, 18.375 7.158, 17 7.158 C 15.625 7.158, 15.063 7.385, 15.750 7.662 M 13 20 C 13 20.550, 13.900 21, 15 21 C 16.100 21, 17 20.550, 17 20 C 17 19.450, 16.100 19, 15 19 C 13.900 19, 13 19.450, 13 20" stroke="none" fill="black" fill-rule="evenodd"/>
</svg>