<svg xmlns="http://www.w3.org/2000/svg" width="24" height="24" viewBox="0 0 24 24" version="1.1">
	<path d="M 12.513 2.362 C 6.116 2.204, 4.507 2.493, 2.914 4.086 C 1.861 5.139, 1 7.165, 1 8.588 C 1 10.372, 2.709 12.935, 6.500 16.838 L 12 22.500 17.500 16.838 C 21.062 13.171, 23 10.331, 23 8.779 C 23 7.461, 22.370 5.520, 21.599 4.467 C 20.454 2.901, 18.794 2.516, 12.513 2.362 M 7.871 4.231 C 6.976 4.049, 5.513 4.630, 4.621 5.521 C 3.730 6.413, 3 7.812, 3 8.630 C 3 9.447, 4.997 12.228, 7.438 14.808 L 11.877 19.500 15.521 16 C 17.525 14.075, 19.602 11.696, 20.137 10.712 C 20.673 9.729, 20.838 8.064, 20.504 7.013 C 20.171 5.962, 19.038 4.829, 17.987 4.496 C 16.936 4.162, 15.159 4.380, 14.038 4.980 C 12.917 5.580, 12 6.707, 12 7.485 C 12 8.264, 12.702 9.293, 13.559 9.773 C 14.867 10.505, 14.921 11.078, 13.899 13.323 C 13.228 14.795, 12.293 16, 11.820 16 C 11.348 16, 11.233 14.919, 11.565 13.597 C 11.958 12.033, 11.660 10.898, 10.714 10.347 C 9.914 9.881, 9.313 8.389, 9.380 7.031 C 9.455 5.486, 8.891 4.439, 7.871 4.231" stroke="none" fill="black" fill-rule="evenodd"/>
</svg>