<svg xmlns="http://www.w3.org/2000/svg" width="24" height="24" viewBox="0 0 24 24" version="1.1">
	<path d="M 2.402 4.395 C 2.108 5.162, 2.009 7.522, 2.183 9.640 C 2.460 13.006, 2.864 13.555, 5.393 13.996 C 8.213 14.487, 9.262 15.598, 10.423 19.320 C 10.799 20.523, 11.756 21.032, 13.246 20.820 C 14.964 20.576, 15.573 19.742, 15.809 17.312 C 16.041 14.912, 16.659 14.047, 18.309 13.812 C 20.131 13.553, 20.482 12.884, 20.395 9.848 C 20.203 3.213, 19.911 3, 11 3 C 5.026 3, 2.799 3.361, 2.402 4.395 M 4 8.500 C 4 10.425, 4.450 12, 5 12 C 5.550 12, 6 10.425, 6 8.500 C 6 6.575, 5.550 5, 5 5 C 4.450 5, 4 6.575, 4 8.500 M 8.667 5.667 C 7.278 7.055, 8.080 11.624, 10 13.268 C 11.100 14.210, 12 15.885, 12 16.990 C 12 18.096, 12.450 19, 13 19 C 13.550 19, 14 17.425, 14 15.500 C 14 12.392, 14.293 12, 16.617 12 C 18.842 12, 19.143 11.664, 18.630 9.750 C 18.299 8.512, 18.021 6.938, 18.014 6.250 C 17.999 4.929, 9.909 4.424, 8.667 5.667" stroke="none" fill="#000000" fill-rule="evenodd"/>
</svg>