<svg xmlns="http://www.w3.org/2000/svg" width="24" height="24" viewBox="0 0 24 24" version="1.1">
	<path d="M 5.709 1.624 C 5.319 2.014, 5 3.357, 5 4.608 C 5 5.859, 4.550 7.160, 4 7.500 C 2.690 8.310, 2.690 21, 4 21 C 4.550 21, 5 18.943, 5 16.429 C 5 11.567, 7.455 7.500, 8.940 9.902 C 9.357 10.577, 9.499 12.172, 9.255 13.447 C 9.011 14.722, 9.304 16.070, 9.906 16.442 C 10.508 16.814, 11 17.991, 11 19.059 C 11 20.127, 11.450 21, 12 21 C 12.550 21, 13 20.127, 13 19.059 C 13 17.991, 13.492 16.814, 14.094 16.442 C 14.696 16.070, 14.989 14.722, 14.745 13.447 C 14.231 10.756, 15.821 7.684, 16.659 9.750 C 17.844 12.670, 19.087 10.643, 18.805 6.250 C 18.528 1.939, 18.270 1.500, 16.014 1.500 C 14.301 1.500, 13.427 2.123, 13.205 3.500 C 12.504 7.854, 11.651 8.456, 11.079 5 C 10.662 2.478, 9.929 1.418, 8.459 1.208 C 7.336 1.047, 6.099 1.235, 5.709 1.624 M 7 5 C 7 6.100, 7.450 7, 8 7 C 8.550 7, 9 6.100, 9 5 C 9 3.900, 8.550 3, 8 3 C 7.450 3, 7 3.900, 7 5 M 15 5 C 15 6.100, 15.450 7, 16 7 C 16.550 7, 17 6.100, 17 5 C 17 3.900, 16.550 3, 16 3 C 15.450 3, 15 3.900, 15 5" stroke="none" fill="#000000" fill-rule="evenodd"/>
</svg>