<svg xmlns="http://www.w3.org/2000/svg" width="24" height="24" viewBox="0 0 24 24" version="1.1">
	<path d="M 11.800 2.035 C 10.535 2.055, 8.425 2.667, 7.110 3.396 C 5.796 4.124, 4.124 5.796, 3.396 7.110 C 2.667 8.425, 2.055 10.535, 2.035 11.800 C 2.016 13.064, 2.641 15.339, 3.425 16.855 C 4.209 18.371, 6.030 20.148, 7.472 20.805 C 8.914 21.462, 10.952 22, 12 22 C 13.048 22, 15.086 21.462, 16.528 20.805 C 17.970 20.148, 19.791 18.371, 20.575 16.855 C 21.359 15.339, 22 13.198, 22 12.097 C 22 10.995, 21.462 8.914, 20.805 7.472 C 20.148 6.030, 18.371 4.209, 16.855 3.425 C 15.339 2.641, 13.064 2.016, 11.800 2.035 M 11.703 4.068 C 11.041 4.105, 9.520 4.609, 8.321 5.189 C 7.123 5.768, 5.606 7.538, 4.950 9.121 C 4.024 11.356, 4.027 12.652, 4.964 14.914 C 5.631 16.524, 7.476 18.369, 9.086 19.036 C 11.362 19.978, 12.638 19.978, 14.914 19.036 C 16.524 18.369, 18.369 16.524, 19.036 14.914 C 19.971 12.655, 19.975 11.354, 19.054 9.130 C 18.400 7.551, 16.749 5.751, 15.385 5.130 C 14.022 4.508, 12.365 4.030, 11.703 4.068 M 11.788 5 C 11.049 5, 9.445 5.701, 8.223 6.557 C 7 7.413, 6 8.510, 6 8.994 C 6 9.478, 7.483 9.634, 9.296 9.339 C 11.593 8.967, 12.992 9.285, 13.909 10.390 C 15.018 11.727, 14.951 12.082, 13.480 12.646 C 12.520 13.014, 10.851 12.763, 9.770 12.089 C 8.689 11.414, 7.512 11.154, 7.154 11.512 C 6.796 11.871, 7.376 12.802, 8.443 13.582 C 9.509 14.362, 11.001 15, 11.757 15 C 12.513 15, 13.972 14.550, 14.999 14.001 C 16.233 13.340, 16.837 11.968, 16.780 9.954 C 16.728 8.121, 15.983 6.526, 14.912 5.953 C 13.933 5.429, 12.527 5, 11.788 5" stroke="none" fill="black" fill-rule="evenodd"/>
</svg>