<svg xmlns="http://www.w3.org/2000/svg" width="24" height="24" viewBox="0 0 24 24" version="1.1">
	<path d="M 14.500 1.348 C 13.400 1.265, 11.600 1.416, 10.500 1.683 C 9.400 1.950, 8.050 2.721, 7.500 3.396 C 6.950 4.072, 5.713 4.919, 4.750 5.281 C 3.318 5.818, 3 7.179, 3 12.769 C 3 16.749, 3.501 20.101, 4.200 20.800 C 4.891 21.491, 8.200 22, 12 22 C 15.800 22, 19.109 21.491, 19.800 20.800 C 20.460 20.140, 21 17.173, 21 14.206 C 21 9.705, 20.678 8.729, 19.056 8.304 C 17.747 7.962, 17.012 6.767, 16.806 4.648 C 16.581 2.333, 15.971 1.460, 14.500 1.348 M 14 3 C 13.450 3, 13 5.025, 13 7.500 C 13 9.975, 12.550 12, 12 12 C 11.450 12, 11 10.200, 11 8 C 11 5.800, 10.550 4, 10 4 C 9.450 4, 9 6.250, 9 9 C 9 11.750, 8.550 14, 8 14 C 7.450 14, 7 12.425, 7 10.500 C 7 8.575, 6.529 7, 5.952 7 C 5.302 7, 5.017 9.371, 5.202 13.250 L 5.500 19.500 12 19.500 L 18.500 19.500 18.805 14.750 C 18.988 11.893, 18.689 10, 18.055 10 C 17.475 10, 17 10.900, 17 12 C 17 13.100, 16.550 14, 16 14 C 15.450 14, 15 11.525, 15 8.500 C 15 5.475, 14.550 3, 14 3" stroke="none" fill="black" fill-rule="evenodd"/>
</svg>