<svg xmlns="http://www.w3.org/2000/svg" width="24" height="24" viewBox="0 0 24 24" version="1.1">
	<path d="M 13 1 C 11.570 1, 9.860 1.540, 9.200 2.200 C 8.540 2.860, 8 5.815, 8 8.766 C 8 11.717, 8.466 15.002, 9.035 16.066 C 9.697 17.302, 11.127 18, 13 18 C 14.873 18, 16.303 17.302, 16.965 16.066 C 17.534 15.002, 18 11.717, 18 8.766 C 18 5.815, 17.460 2.860, 16.800 2.200 C 16.140 1.540, 14.430 1, 13 1 M 13.459 3.208 C 12.336 3.047, 11.099 3.235, 10.709 3.624 C 10.319 4.014, 10 6.247, 10 8.585 C 10 10.923, 10.273 13.548, 10.607 14.418 C 10.941 15.288, 12.057 16, 13.088 16 C 14.220 16, 15.195 15.071, 15.551 13.655 C 15.874 12.365, 15.995 9.552, 15.820 7.405 C 15.571 4.366, 15.047 3.435, 13.459 3.208" stroke="none" fill="black" fill-rule="evenodd"/>
</svg>