<svg viewBox="0 0 24 24" xmlns="http://www.w3.org/2000/svg" fill="none" stroke="#000000" stroke-width="2" stroke-linecap="round" stroke-linejoin="round"><path d="M13.499 1.040 C 12.764 1.174,12.178 1.519,11.670 2.120 C 11.559 2.252,11.461 2.360,11.452 2.360 C 11.444 2.360,11.367 2.324,11.281 2.281 C 11.196 2.237,10.985 2.161,10.813 2.112 C 10.358 1.981,9.593 1.988,9.139 2.125 C 7.945 2.488,7.093 3.555,7.012 4.791 C 6.992 5.105,6.978 5.159,6.924 5.143 C 6.889 5.133,6.779 5.102,6.680 5.074 C 6.574 5.044,6.287 5.024,5.980 5.025 C 5.548 5.027,5.406 5.044,5.139 5.125 C 4.190 5.413,3.444 6.156,3.114 7.140 L 3.020 7.420 3.009 12.889 C 2.998 18.300,2.999 18.362,3.082 18.768 C 3.357 20.119,4.247 21.194,5.512 21.704 C 5.700 21.779,6.028 21.877,6.243 21.921 C 6.620 21.997,6.802 22.000,12.000 22.000 C 17.198 22.000,17.380 21.997,17.757 21.921 C 19.387 21.588,20.589 20.384,20.922 18.751 C 21.000 18.367,21.002 18.234,20.991 14.387 L 20.980 10.420 20.886 10.140 C 20.556 9.156,19.810 8.413,18.861 8.125 C 18.594 8.044,18.452 8.027,18.020 8.025 C 17.713 8.024,17.426 8.044,17.320 8.074 C 17.221 8.102,17.109 8.134,17.072 8.144 C 17.009 8.163,17.003 8.001,16.991 5.792 C 16.978 3.433,16.978 3.418,16.885 3.140 C 16.559 2.157,15.800 1.403,14.861 1.129 C 14.500 1.023,13.832 0.980,13.499 1.040 M14.310 3.061 C 14.592 3.144,14.858 3.412,14.939 3.693 C 14.991 3.871,15.001 4.569,15.010 8.603 L 15.020 13.306 15.141 13.503 C 15.543 14.156,16.457 14.156,16.859 13.503 L 16.980 13.307 17.000 12.023 C 17.023 10.581,17.025 10.571,17.321 10.283 C 17.490 10.120,17.777 10.000,18.000 10.000 C 18.402 10.000,18.827 10.312,18.939 10.690 C 19.028 10.987,19.029 18.035,18.941 18.451 C 18.863 18.821,18.710 19.091,18.400 19.404 C 18.119 19.690,17.854 19.846,17.492 19.940 C 17.148 20.030,6.852 20.030,6.508 19.940 C 5.823 19.762,5.249 19.194,5.073 18.523 C 5.010 18.281,5.004 17.843,5.002 13.077 C 5.000 8.549,5.008 7.869,5.061 7.690 C 5.173 7.312,5.598 7.000,6.000 7.000 C 6.223 7.000,6.510 7.120,6.679 7.283 C 6.996 7.591,6.978 7.404,7.000 10.523 L 7.020 13.306 7.141 13.503 C 7.543 14.156,8.457 14.156,8.859 13.503 L 8.980 13.306 9.000 9.023 C 9.022 4.224,8.997 4.598,9.321 4.283 C 9.490 4.120,9.777 4.000,10.000 4.000 C 10.223 4.000,10.510 4.120,10.679 4.283 C 10.999 4.594,10.978 4.344,11.000 8.023 L 11.020 11.306 11.141 11.503 C 11.543 12.156,12.457 12.156,12.859 11.503 L 12.980 11.306 13.000 7.523 C 13.022 3.283,12.999 3.596,13.322 3.283 C 13.589 3.024,13.928 2.947,14.310 3.061 " stroke="none" fill-rule="evenodd" fill="black"></path></svg>