<svg xmlns="http://www.w3.org/2000/svg" width="24" height="24" viewBox="0 0 24 24" version="1.1">
	<path d="M 10.423 4.680 C 9.263 8.401, 8.214 9.513, 5.393 10.010 C 2.657 10.492, 2.500 10.790, 2.500 15.510 L 2.500 20.500 10.766 20.791 C 19.950 21.114, 20.199 20.942, 20.395 14.152 C 20.482 11.116, 20.131 10.447, 18.309 10.188 C 16.659 9.953, 16.041 9.088, 15.809 6.688 C 15.573 4.258, 14.964 3.424, 13.246 3.180 C 11.756 2.968, 10.799 3.477, 10.423 4.680 M 12 6.961 C 12 8.040, 11.066 9.793, 9.924 10.857 C 8.535 12.150, 7.955 13.737, 8.174 15.646 C 8.476 18.287, 8.854 18.523, 13.250 18.805 C 16.640 19.022, 18.004 18.736, 18.014 17.805 C 18.021 17.087, 18.299 15.488, 18.630 14.250 C 19.143 12.336, 18.842 12, 16.617 12 C 14.293 12, 14 11.608, 14 8.500 C 14 6.575, 13.550 5, 13 5 C 12.450 5, 12 5.882, 12 6.961 M 4 15.500 C 4 17.425, 4.450 19, 5 19 C 5.550 19, 6 17.425, 6 15.500 C 6 13.575, 5.550 12, 5 12 C 4.450 12, 4 13.575, 4 15.500" stroke="none" fill="#000000" fill-rule="evenodd"/>
</svg>