<svg xmlns="http://www.w3.org/2000/svg" width="24" height="24" viewBox="0 0 24 24" version="1.1">
	<path d="M 6.728 6.073 C 4.678 7.763, 3 10.019, 3 11.086 C 3 12.154, 2.479 13.861, 1.842 14.881 C 1.205 15.901, 0.972 17.486, 1.324 18.403 C 1.875 19.837, 3.403 20.030, 12.232 19.785 C 22.442 19.502, 22.500 19.486, 22.500 17 C 22.500 15.016, 21.932 14.435, 19.750 14.184 C 17.800 13.959, 17 13.301, 17 11.920 C 17 10.849, 16.583 9.191, 16.073 8.236 C 15.563 7.281, 14.902 5.713, 14.604 4.750 C 13.797 2.140, 10.910 2.625, 6.728 6.073 M 6.750 8.712 C 3.455 12.375, 4.454 14, 10 14 C 13.778 14, 15 13.633, 15 12.500 C 15 11.675, 14.602 11, 14.117 11 C 13.631 11, 12.899 9.988, 12.490 8.750 L 11.746 6.500 11.303 8.750 C 10.744 11.592, 9.241 11.673, 8.820 8.883 C 8.504 6.791, 8.479 6.789, 6.750 8.712 M 3 17 C 3 17.593, 6.667 18, 12 18 C 17.333 18, 21 17.593, 21 17 C 21 16.407, 17.333 16, 12 16 C 6.667 16, 3 16.407, 3 17" stroke="none" fill="#000000" fill-rule="evenodd"/>
</svg>