<svg xmlns="http://www.w3.org/2000/svg" width="24" height="24" viewBox="0 0 24 24" version="1.1">
	<path d="M 12 3 L 5.368 3 3.129 6.985 C 1.484 9.910, 0.970 12.236, 1.195 15.735 L 1.500 20.500 12 20.500 L 22.500 20.500 22.805 15.735 C 23.030 12.236, 22.516 9.910, 20.871 6.985 L 18.632 3 12 3 M 12 5 C 7.513 5, 6.907 5.280, 5.500 8 L 3.949 11 12 11 L 20.051 11 18.500 8 C 17.093 5.280, 16.487 5, 12 5 M 12 13 L 3 13 3 16 L 3 19 12 19 L 21 19 21 16 L 21 13 12 13 M 6 15 C 5.450 15, 5 15.450, 5 16 C 5 16.550, 5.450 17, 6 17 C 6.550 17, 7 16.550, 7 16 C 7 15.450, 6.550 15, 6 15 M 10 15 C 9.450 15, 9 15.450, 9 16 C 9 16.550, 9.450 17, 10 17 C 10.550 17, 11 16.550, 11 16 C 11 15.450, 10.550 15, 10 15" stroke="none" fill="black" fill-rule="evenodd"/>
</svg>