<svg xmlns="http://www.w3.org/2000/svg" width="24" height="24" viewBox="0 0 24 24" version="1.1">
	<path d="M 7.174 3.314 C 5.390 5.214, 5 6.827, 5 12.314 C 5 17.590, 4.684 19, 3.500 19 C 2.675 19, 2 19.450, 2 20 C 2 20.600, 6 21, 12 21 C 18 21, 22 20.600, 22 20 C 22 19.450, 21.325 19, 20.500 19 C 19.313 19, 19 17.575, 19 12.174 C 19 6.332, 18.666 5.035, 16.686 3.174 C 13.683 0.354, 9.904 0.409, 7.174 3.314 M 8.655 4.829 C 7.491 6.115, 7 8.490, 7 12.829 L 7 19 12 19 L 17 19 17 12.655 C 17 7.778, 16.577 5.927, 15.171 4.655 C 12.794 2.504, 10.709 2.560, 8.655 4.829" stroke="none" fill="black" fill-rule="evenodd"/>
</svg>