<svg xmlns="http://www.w3.org/2000/svg" width="24" height="24" viewBox="0 0 24 24" version="1.1">
	<path d="M 3 12 C 3 16, 3.429 19, 4 19 C 4.550 19, 5 17.650, 5 16 C 5 13.333, 5.333 13, 8 13 C 10.667 13, 11 13.333, 11 16 C 11 17.650, 11.450 19, 12 19 C 12.571 19, 13 16, 13 12 C 13 8, 12.571 5, 12 5 C 11.450 5, 11 6.350, 11 8 C 11 10.667, 10.667 11, 8 11 C 5.333 11, 5 10.667, 5 8 C 5 6.350, 4.550 5, 4 5 C 3.429 5, 3 8, 3 12 M 16.667 9.667 C 15.443 10.890, 15.981 12.221, 17.468 11.651 C 19.785 10.762, 20.094 12.475, 17.949 14.312 C 14.986 16.849, 15.468 19, 19 19 C 20.650 19, 22 18.550, 22 18 C 22 17.450, 21.255 17, 20.345 17 C 18.805 17, 18.805 16.873, 20.345 15.171 C 22.436 12.861, 22.468 10.394, 20.418 9.607 C 18.385 8.827, 17.492 8.841, 16.667 9.667" stroke="none" fill="#000000" fill-rule="evenodd"/>
</svg>