<svg xmlns="http://www.w3.org/2000/svg" width="24" height="24" viewBox="0 0 24 24" version="1.1">
	<path d="M 3 12 C 3 16, 3.429 19, 4 19 C 4.550 19, 5 17.650, 5 16 C 5 13.333, 5.333 13, 8 13 C 10.667 13, 11 13.333, 11 16 C 11 17.650, 11.450 19, 12 19 C 12.571 19, 13 16, 13 12 C 13 8, 12.571 5, 12 5 C 11.450 5, 11 6.350, 11 8 C 11 10.667, 10.667 11, 8 11 C 5.333 11, 5 10.667, 5 8 C 5 6.350, 4.550 5, 4 5 C 3.429 5, 3 8, 3 12 M 17.750 10.080 C 15.615 11.323, 15.408 13.441, 17.500 12.638 C 18.656 12.195, 19 12.859, 19 15.531 C 19 17.439, 19.450 19, 20 19 C 20.550 19, 21 16.750, 21 14 C 21 8.797, 20.659 8.386, 17.750 10.080" stroke="none" fill="#000000" fill-rule="evenodd"/>
</svg>