<svg xmlns="http://www.w3.org/2000/svg" width="24" height="24" viewBox="0 0 24 24" version="1.1">
	<path d="M 2.914 4.086 C -0.416 7.416, 0.495 10.656, 6.500 16.838 L 12 22.500 17.500 16.838 C 23.257 10.912, 24.209 8.036, 21.599 4.467 C 19.508 1.606, 5.675 1.325, 2.914 4.086 M 4.649 5.494 C 2.108 8.035, 2.626 9.726, 7.500 14.808 L 12 19.500 16.500 14.808 C 18.975 12.228, 21 9.447, 21 8.630 C 21 6.119, 17.921 3.774, 15.601 4.519 C 12.945 5.372, 11.055 5.372, 8.399 4.519 C 7.044 4.084, 5.713 4.430, 4.649 5.494 M 11.993 8.013 C 11.331 9.250, 10.246 9.924, 9.423 9.609 C 7.568 8.897, 7.574 11.401, 9.430 12.942 C 10.576 13.893, 11.088 13.703, 12.007 11.987 C 12.669 10.750, 13.754 10.076, 14.577 10.391 C 16.432 11.103, 16.426 8.599, 14.570 7.058 C 13.424 6.107, 12.912 6.297, 11.993 8.013" stroke="none" fill="#000000" fill-rule="evenodd"/>
</svg>