<svg xmlns="http://www.w3.org/2000/svg" width="24" height="24" viewBox="0 0 24 24" version="1.1">
	<path d="M 12.513 2.362 C 6.116 2.204, 4.507 2.493, 2.914 4.086 C 1.861 5.139, 1 7.165, 1 8.588 C 1 10.372, 2.709 12.935, 6.500 16.838 L 12 22.500 17.500 16.838 C 21.062 13.171, 23 10.331, 23 8.779 C 23 7.461, 22.370 5.520, 21.599 4.467 C 20.454 2.901, 18.794 2.516, 12.513 2.362 M 8.399 4.519 C 7.044 4.084, 5.713 4.430, 4.649 5.494 C 3.742 6.401, 3 7.812, 3 8.630 C 3 9.447, 5.025 12.228, 7.500 14.808 L 12 19.500 16.500 14.808 C 18.975 12.228, 21 9.447, 21 8.630 C 21 7.812, 20.258 6.401, 19.351 5.494 C 18.287 4.430, 16.956 4.084, 15.601 4.519 C 14.445 4.890, 12.825 5.194, 12 5.194 C 11.175 5.194, 9.555 4.890, 8.399 4.519 M 14.570 7.058 C 13.424 6.107, 12.912 6.297, 11.993 8.013 C 11.331 9.250, 10.246 9.924, 9.423 9.609 C 8.627 9.303, 8 9.655, 8 10.409 C 8 11.149, 8.644 12.289, 9.430 12.942 C 10.576 13.893, 11.088 13.703, 12.007 11.987 C 12.669 10.750, 13.754 10.076, 14.577 10.391 C 15.373 10.697, 16 10.345, 16 9.591 C 16 8.851, 15.356 7.711, 14.570 7.058" stroke="none" fill="black" fill-rule="evenodd"/>
</svg>