<svg xmlns="http://www.w3.org/2000/svg" width="24" height="24" viewBox="0 0 24 24" version="1.1">
	<path d="M 12.513 2.362 C 6.116 2.204, 4.507 2.493, 2.914 4.086 C 1.861 5.139, 1 7.165, 1 8.588 C 1 10.360, 2.711 12.956, 6.429 16.825 C 9.415 19.933, 12.185 22.148, 12.585 21.749 C 12.984 21.349, 10.991 18.569, 8.156 15.571 C 5.320 12.573, 3 9.450, 3 8.631 C 3 7.813, 3.707 6.436, 4.571 5.571 C 5.436 4.707, 6.731 4, 7.449 4 C 8.167 4, 9.297 4.653, 9.960 5.452 C 10.623 6.251, 10.893 7.762, 10.560 8.811 C 10.227 9.860, 10.238 11.457, 10.584 12.359 C 10.931 13.262, 11.668 14, 12.224 14 C 12.779 14, 12.998 13.100, 12.711 12.001 C 12.423 10.902, 12.614 9.739, 13.135 9.417 C 13.655 9.095, 13.825 8.023, 13.511 7.034 C 13.150 5.896, 13.554 5.002, 14.611 4.596 C 15.530 4.243, 17.095 4.213, 18.090 4.528 C 19.084 4.844, 20.183 6.001, 20.532 7.100 C 20.900 8.261, 20.469 10.161, 19.503 11.636 C 18.588 13.032, 18.140 14.472, 18.506 14.837 C 18.872 15.202, 20.033 14.438, 21.086 13.139 C 22.139 11.841, 23 9.789, 23 8.580 C 23 7.371, 22.370 5.520, 21.599 4.467 C 20.454 2.901, 18.794 2.516, 12.513 2.362" stroke="none" fill="black" fill-rule="evenodd"/>
</svg>