<svg xmlns="http://www.w3.org/2000/svg" width="24" height="24" viewBox="0 0 24 24" version="1.1">
	<path d="M 2.914 4.086 C -0.416 7.416, 0.495 10.656, 6.500 16.838 L 12 22.500 17.500 16.838 C 23.257 10.912, 24.209 8.036, 21.599 4.467 C 19.508 1.606, 5.675 1.325, 2.914 4.086 M 4.649 5.494 C 2.108 8.035, 2.626 9.726, 7.500 14.808 L 12 19.500 16.500 14.808 C 18.975 12.228, 21 9.447, 21 8.630 C 21 6.119, 17.921 3.774, 15.601 4.519 C 12.945 5.372, 11.055 5.372, 8.399 4.519 C 7.044 4.084, 5.713 4.430, 4.649 5.494" stroke="none" fill="black" fill-rule="evenodd"/>
</svg>