<svg xmlns="http://www.w3.org/2000/svg" width="24" height="24" viewBox="0 0 24 24" version="1.1">
	<path d="M 2.914 4.086 C -0.399 7.399, 0.499 10.655, 6.429 16.825 C 9.415 19.933, 12.185 22.148, 12.585 21.749 C 12.984 21.349, 10.991 18.569, 8.156 15.571 C 5.320 12.573, 3 9.450, 3 8.631 C 3 6.794, 5.684 4, 7.449 4 C 9.482 4, 11.229 6.702, 10.560 8.811 C 9.846 11.061, 10.788 14, 12.224 14 C 12.779 14, 12.998 13.100, 12.711 12.001 C 12.423 10.902, 12.614 9.739, 13.135 9.417 C 13.655 9.095, 13.825 8.023, 13.511 7.034 C 12.855 4.967, 15.283 3.638, 18.090 4.528 C 20.761 5.376, 21.423 8.705, 19.503 11.636 C 17.325 14.960, 18.616 16.187, 21.086 13.139 C 23.349 10.348, 23.540 7.121, 21.599 4.467 C 19.508 1.606, 5.675 1.325, 2.914 4.086" stroke="none" fill="black" fill-rule="evenodd"/>
</svg>