<svg xmlns="http://www.w3.org/2000/svg" width="24" height="24" viewBox="0 0 24 24" version="1.1">
	<path d="M 13.403 1.438 C 11.256 1.210, 8.600 1.416, 7.500 1.894 C 6.400 2.373, 4.600 3.764, 3.500 4.987 C 2.078 6.568, 1.500 8.618, 1.500 12.082 C 1.500 16.074, 2.001 17.456, 4.273 19.727 C 6.557 22.011, 7.919 22.500, 12 22.500 C 16.081 22.500, 17.443 22.011, 19.727 19.727 C 22.011 17.443, 22.500 16.081, 22.500 12 C 22.500 7.999, 22 6.546, 19.903 4.448 C 18.256 2.802, 15.876 1.699, 13.403 1.438 M 12 3 C 9.848 3, 7.918 3.928, 5.923 5.923 C 3.928 7.918, 3 9.848, 3 12 C 3 14.152, 3.928 16.082, 5.923 18.077 C 7.918 20.072, 9.848 21, 12 21 C 14.152 21, 16.082 20.072, 18.077 18.077 C 20.072 16.082, 21 14.152, 21 12 C 21 9.848, 20.072 7.918, 18.077 5.923 C 16.082 3.928, 14.152 3, 12 3 M 11.922 6 C 11 6, 9.676 6.686, 8.980 7.524 C 8.284 8.362, 7.993 9.327, 8.333 9.667 C 8.673 10.007, 9.657 9.700, 10.518 8.985 C 11.754 7.959, 12.340 7.943, 13.292 8.910 C 14.238 9.869, 14.082 10.443, 12.573 11.557 C 11.513 12.339, 10.912 13.245, 11.237 13.571 C 11.563 13.896, 12.767 13.660, 13.914 13.046 C 15.061 12.432, 16 11.135, 16 10.165 C 16 9.194, 15.460 7.860, 14.800 7.200 C 14.140 6.540, 12.845 6, 11.922 6 M 12 16 C 11.450 16, 11 16.450, 11 17 C 11 17.550, 11.450 18, 12 18 C 12.550 18, 13 17.550, 13 17 C 13 16.450, 12.550 16, 12 16" stroke="none" fill="black" fill-rule="evenodd"/>
</svg>