<svg xmlns="http://www.w3.org/2000/svg" width="24" height="24" viewBox="0 0 24 24" version="1.1">
	<path d="M 7.500 1.894 C 3.457 3.652, 1.500 6.976, 1.500 12.082 C 1.500 16.074, 2.001 17.456, 4.273 19.727 C 6.557 22.011, 7.919 22.500, 12 22.500 C 19.011 22.500, 22.500 19.011, 22.500 12 C 22.500 7.999, 22 6.546, 19.903 4.448 C 17.099 1.644, 10.974 0.383, 7.500 1.894 M 5.923 5.923 C 3.928 7.918, 3 9.848, 3 12 C 3 16.302, 7.698 21, 12 21 C 14.152 21, 16.082 20.072, 18.077 18.077 C 22.007 14.147, 22.007 9.853, 18.077 5.923 C 14.147 1.993, 9.853 1.993, 5.923 5.923 M 8.980 7.524 C 7.319 9.526, 8.507 10.654, 10.518 8.985 C 11.754 7.959, 12.340 7.943, 13.292 8.910 C 14.238 9.869, 14.082 10.443, 12.573 11.557 C 10.116 13.370, 11.155 14.523, 13.914 13.046 C 16.227 11.808, 16.645 9.045, 14.800 7.200 C 13.149 5.549, 10.497 5.696, 8.980 7.524 M 11 17 C 11 17.550, 11.450 18, 12 18 C 12.550 18, 13 17.550, 13 17 C 13 16.450, 12.550 16, 12 16 C 11.450 16, 11 16.450, 11 17" stroke="none" fill="black" fill-rule="evenodd"/>
</svg>