<svg xmlns="http://www.w3.org/2000/svg" width="24" height="24" viewBox="0 0 24 24" version="1.1">
	<path d="M 20.458 2.068 C 20.095 2.656, 19.084 2.863, 18.213 2.528 C 15.978 1.671, 2 15.635, 2 18.725 C 2 22.236, 5.984 21.644, 9.960 17.541 C 12.836 14.574, 13.125 13.855, 11.989 12.486 C 10.866 11.134, 10.991 10.565, 12.808 8.748 L 14.951 6.605 17.471 8.973 C 20.807 12.107, 22.019 10.736, 18.921 7.335 C 17.589 5.873, 17.091 5.019, 17.813 5.437 C 19.123 6.194, 23 3.509, 23 1.845 C 23 0.643, 21.243 0.797, 20.458 2.068 M 6.004 15.496 C 4.714 16.869, 3.962 18.296, 4.333 18.667 C 5.064 19.397, 10 15.180, 10 13.826 C 10 12.299, 8.365 12.982, 6.004 15.496" stroke="none" fill="black" fill-rule="evenodd"/>
</svg>