<svg xmlns="http://www.w3.org/2000/svg" width="24" height="24" viewBox="0 0 24 24" version="1.1">
	<path d="M 22.059 1 C 21.541 1, 20.821 1.481, 20.458 2.068 C 20.095 2.656, 19.084 2.863, 18.213 2.528 C 17.129 2.112, 14.314 4.218, 9.314 9.185 C 4.501 13.966, 2 17.228, 2 18.725 C 2 20.433, 2.574 21, 4.304 21 C 5.619 21, 8.047 19.515, 9.960 17.541 C 12.836 14.574, 13.125 13.855, 11.989 12.486 C 10.866 11.134, 10.991 10.565, 12.808 8.748 L 14.951 6.605 17.471 8.973 C 18.858 10.276, 20.296 11.038, 20.667 10.667 C 21.038 10.296, 20.252 8.796, 18.921 7.335 C 17.589 5.873, 17.091 5.019, 17.813 5.437 C 18.579 5.880, 19.933 5.466, 21.063 4.443 C 22.128 3.479, 23 2.310, 23 1.845 C 23 1.380, 22.577 1, 22.059 1 M 9.174 13 C 8.720 13, 7.293 14.123, 6.004 15.496 C 4.714 16.869, 3.962 18.296, 4.333 18.667 C 4.704 19.038, 6.131 18.286, 7.504 16.996 C 8.877 15.707, 10 14.280, 10 13.826 C 10 13.372, 9.628 13, 9.174 13" stroke="none" fill="black" fill-rule="evenodd"/>
</svg>