<svg xmlns="http://www.w3.org/2000/svg" width="24" height="24" viewBox="0 0 24 24" version="1.1">
	<path d="M 11.866 1.022 C 11.665 1.034, 9.345 2.721, 6.711 4.771 L 1.922 8.499 2.211 15.499 L 2.500 22.500 12 22.500 L 21.500 22.500 21.791 15.366 L 22.083 8.231 17.157 4.616 C 14.448 2.627, 12.067 1.010, 11.866 1.022 M 12.292 4 C 11.843 4, 9.794 5.197, 7.738 6.660 C 4.151 9.212, 4 9.555, 4 15.160 L 4 21 12 21 L 20 21 20 15.250 C 20 9.894, 19.764 9.311, 16.553 6.750 C 14.658 5.237, 12.740 4, 12.292 4 M 12.243 11.186 C 10.059 10.976, 8.798 11.363, 8.414 12.363 C 8.099 13.184, 7.990 14.900, 8.171 16.177 C 8.444 18.102, 9.099 18.500, 12 18.500 C 15.333 18.500, 15.500 18.333, 15.500 15 C 15.500 11.781, 15.239 11.475, 12.243 11.186 M 12 13 C 10.667 13, 10 13.667, 10 15 C 10 16.333, 10.667 17, 12 17 C 13.333 17, 14 16.333, 14 15 C 14 13.667, 13.333 13, 12 13" stroke="none" fill="black" fill-rule="evenodd"/>
</svg>