<svg viewBox="0 0 24 24" xmlns="http://www.w3.org/2000/svg" fill="none" stroke="#000000" stroke-width="2" stroke-linecap="round" stroke-linejoin="round"><path d="M12.118 1.403 C 11.706 1.447,11.218 1.633,10.827 1.897 C 10.647 2.019,8.637 3.518,6.361 5.229 C 2.475 8.149,2.215 8.352,2.121 8.539 L 2.020 8.738 2.020 14.139 L 2.020 19.540 2.114 19.840 C 2.419 20.816,3.153 21.557,4.140 21.885 C 4.418 21.978,4.435 21.978,6.768 21.991 C 8.321 22.000,9.169 21.990,9.272 21.962 C 9.498 21.901,9.738 21.711,9.867 21.492 C 9.964 21.327,9.980 21.257,9.980 21.000 C 9.980 20.746,9.963 20.672,9.872 20.516 C 9.761 20.328,9.572 20.158,9.373 20.070 C 9.289 20.033,8.681 20.015,6.980 20.000 L 4.700 19.980 4.516 19.872 C 4.415 19.813,4.284 19.700,4.225 19.623 C 3.989 19.313,4.000 19.580,4.000 14.325 L 4.000 9.500 8.010 6.496 C 10.216 4.844,12.080 3.469,12.154 3.440 C 12.369 3.355,12.737 3.376,12.939 3.486 C 13.036 3.538,14.663 4.903,16.557 6.520 L 19.999 9.460 20.000 14.284 C 20.000 18.256,19.990 19.139,19.945 19.290 C 19.872 19.533,19.707 19.740,19.484 19.872 L 19.300 19.980 17.020 20.000 C 15.319 20.015,14.711 20.033,14.627 20.070 C 14.428 20.158,14.239 20.328,14.128 20.516 C 14.037 20.672,14.020 20.746,14.020 21.000 C 14.020 21.257,14.036 21.327,14.133 21.492 C 14.262 21.711,14.502 21.901,14.728 21.962 C 14.831 21.990,15.679 22.000,17.232 21.991 C 19.565 21.978,19.582 21.978,19.860 21.885 C 20.847 21.557,21.581 20.816,21.886 19.840 L 21.980 19.540 21.980 14.140 L 21.980 8.740 21.887 8.552 C 21.808 8.390,21.275 7.921,18.054 5.172 C 15.997 3.416,14.211 1.915,14.087 1.836 C 13.515 1.473,12.845 1.325,12.118 1.403 M11.695 11.057 C 11.466 11.129,11.256 11.299,11.128 11.516 L 11.020 11.700 11.008 12.850 L 10.995 14.000 9.944 14.000 C 8.797 14.000,8.643 14.022,8.382 14.221 C 8.302 14.282,8.187 14.415,8.128 14.516 C 8.037 14.672,8.020 14.746,8.020 15.000 C 8.020 15.256,8.036 15.328,8.131 15.489 C 8.192 15.592,8.304 15.725,8.381 15.783 C 8.642 15.983,8.738 15.996,9.908 15.998 L 10.995 16.000 11.008 17.153 L 11.020 18.307 11.141 18.503 C 11.543 19.156,12.457 19.156,12.859 18.503 L 12.980 18.307 12.992 17.153 L 13.005 16.000 14.092 15.998 C 15.262 15.996,15.358 15.983,15.619 15.783 C 15.696 15.725,15.808 15.592,15.869 15.489 C 15.964 15.328,15.980 15.256,15.980 15.000 C 15.980 14.746,15.963 14.672,15.872 14.516 C 15.813 14.415,15.698 14.282,15.618 14.221 C 15.357 14.022,15.203 14.000,14.056 14.000 L 13.005 14.000 12.992 12.850 L 12.980 11.700 12.872 11.516 C 12.628 11.101,12.150 10.915,11.695 11.057 " stroke="none" fill-rule="evenodd" fill="black"></path></svg>