<svg xmlns="http://www.w3.org/2000/svg" width="24" height="24" viewBox="0 0 24 24" version="1.1">
	<path d="M 11.866 1.022 C 11.665 1.034, 9.363 2.708, 6.750 4.741 C 2.072 8.383, 2 8.525, 2 14.138 C 2 17.272, 1.727 20.548, 1.393 21.418 C 0.862 22.803, 2.185 23, 12 23 C 21.815 23, 23.138 22.803, 22.607 21.418 C 22.273 20.548, 22 17.212, 22 14.003 C 22 8.178, 21.993 8.165, 17.116 4.585 C 14.430 2.613, 12.067 1.010, 11.866 1.022 M 12.292 4 C 11.843 4, 9.794 5.197, 7.738 6.660 C 4.151 9.212, 4 9.555, 4 15.160 C 4 18.387, 4.447 21, 5 21 C 5.550 21, 6 19.200, 6 17 L 6 13 12 13 L 18 13 18 17 C 18 19.200, 18.450 21, 19 21 C 19.551 21, 20 18.417, 20 15.250 C 20 9.894, 19.764 9.311, 16.553 6.750 C 14.658 5.237, 12.740 4, 12.292 4 M 12 15 C 8.222 15, 8 15.167, 8 18 C 8 20.833, 8.222 21, 12 21 C 15.778 21, 16 20.833, 16 18 C 16 15.167, 15.778 15, 12 15" stroke="none" fill="black" fill-rule="evenodd"/>
</svg>