<svg xmlns="http://www.w3.org/2000/svg" width="24" height="24" viewBox="0 0 24 24" version="1.1">
	<path d="M 6.709 4.657 L 1.917 8.253 2.209 15.376 L 2.500 22.500 12 22.500 L 21.500 22.500 21.791 15.366 L 22.083 8.231 17.157 4.616 C 14.448 2.627, 12.067 1.014, 11.866 1.030 C 11.665 1.047, 9.344 2.679, 6.709 4.657 M 7.738 6.660 C 4.151 9.212, 4 9.555, 4 15.160 C 4 20.723, 4.119 21, 6.500 21 C 8.611 21, 9 20.533, 9 18 C 9 15.333, 9.333 15, 12 15 C 14.667 15, 15 15.333, 15 18 C 15 20.533, 15.389 21, 17.500 21 C 19.882 21, 20 20.724, 20 15.136 C 20 9.474, 19.869 9.181, 16.196 6.636 C 14.104 5.186, 12.186 4, 11.934 4 C 11.682 4, 9.794 5.197, 7.738 6.660 M 11 19 C 11 20.100, 11.450 21, 12 21 C 12.550 21, 13 20.100, 13 19 C 13 17.900, 12.550 17, 12 17 C 11.450 17, 11 17.900, 11 19" stroke="none" fill="#000000" fill-rule="evenodd"/>
</svg>