<svg xmlns="http://www.w3.org/2000/svg" width="24" height="24" viewBox="0 0 24 24" version="1.1">
	<path d="M 11.866 1.030 C 11.665 1.047, 9.344 2.679, 6.709 4.657 L 1.917 8.253 2.209 15.376 L 2.500 22.500 12 22.500 L 21.500 22.500 21.791 15.366 L 22.083 8.231 17.157 4.616 C 14.448 2.627, 12.067 1.014, 11.866 1.030 M 11.934 4 C 11.682 4, 9.794 5.197, 7.738 6.660 C 4.151 9.212, 4 9.555, 4 15.160 C 4 20.333, 4.228 21, 6 21 C 7.733 21, 8 20.333, 8 16 L 8 11 12 11 L 16 11 16 16 C 16 20.333, 16.267 21, 18 21 C 19.773 21, 20 20.333, 20 15.136 C 20 9.474, 19.869 9.181, 16.196 6.636 C 14.104 5.186, 12.186 4, 11.934 4 M 12 13 C 10.333 13, 10 13.667, 10 17 C 10 20.333, 10.333 21, 12 21 C 13.667 21, 14 20.333, 14 17 C 14 13.667, 13.667 13, 12 13" stroke="none" fill="black" fill-rule="evenodd"/>
</svg>