<svg viewBox="0 0 24 24" xmlns="http://www.w3.org/2000/svg" fill="none" stroke="#000000" stroke-width="2" stroke-linecap="round" stroke-linejoin="round"><path d="M11.660 2.064 C 11.563 2.099,9.666 3.549,6.862 5.731 C 2.586 9.058,2.216 9.356,2.122 9.539 L 2.020 9.738 2.020 15.639 L 2.020 21.540 2.114 21.840 C 2.422 22.827,3.173 23.578,4.160 23.886 L 4.460 23.980 12.000 23.980 L 19.540 23.980 19.840 23.886 C 20.827 23.578,21.578 22.827,21.886 21.840 L 21.980 21.540 21.980 15.639 L 21.980 9.738 21.878 9.539 C 21.784 9.356,21.414 9.058,17.138 5.731 C 13.902 3.213,12.446 2.104,12.323 2.061 C 12.106 1.986,11.872 1.987,11.660 2.064 M16.020 7.395 L 20.000 10.491 20.000 15.799 C 20.000 20.181,19.990 21.139,19.945 21.290 C 19.872 21.533,19.707 21.740,19.484 21.872 L 19.300 21.980 17.240 21.989 C 15.465 21.997,15.201 21.990,15.330 21.944 C 15.552 21.863,15.744 21.701,15.869 21.489 L 15.980 21.300 15.991 17.971 C 16.001 14.770,15.999 14.626,15.921 14.247 C 15.721 13.264,15.198 12.416,14.438 11.843 C 13.866 11.412,13.276 11.160,12.605 11.058 C 12.121 10.986,11.879 10.986,11.395 11.058 C 9.733 11.309,8.421 12.565,8.082 14.232 C 8.000 14.630,7.999 14.730,8.009 17.971 L 8.020 21.300 8.131 21.489 C 8.256 21.701,8.448 21.863,8.670 21.944 C 8.799 21.990,8.535 21.997,6.760 21.989 L 4.700 21.980 4.516 21.872 C 4.415 21.813,4.284 21.700,4.225 21.623 C 3.988 21.312,4.000 21.627,4.000 15.821 L 4.000 10.491 7.990 7.386 C 10.184 5.679,11.993 4.286,12.010 4.291 C 12.026 4.296,13.831 5.693,16.020 7.395 M12.472 13.061 C 12.726 13.119,13.160 13.327,13.160 13.391 C 13.160 13.408,12.899 13.682,12.580 14.000 L 12.000 14.579 11.420 14.000 C 11.101 13.682,10.840 13.408,10.840 13.392 C 10.840 13.333,11.230 13.138,11.480 13.073 C 11.808 12.987,12.130 12.983,12.472 13.061 M10.290 16.290 L 10.000 16.579 10.000 16.000 L 10.000 15.421 10.290 15.710 L 10.579 16.000 10.290 16.290 M14.000 16.010 L 14.000 16.579 13.711 16.290 L 13.421 16.001 13.700 15.720 C 13.853 15.566,13.983 15.440,13.989 15.440 C 13.995 15.440,14.000 15.696,14.000 16.010 M12.680 18.103 C 13.376 18.801,13.555 18.939,13.828 18.983 L 13.996 19.010 14.008 20.155 L 14.020 21.300 14.131 21.489 C 14.256 21.702,14.449 21.864,14.670 21.943 C 14.798 21.989,14.404 21.996,12.000 21.996 C 9.596 21.996,9.202 21.989,9.330 21.943 C 9.551 21.864,9.744 21.702,9.869 21.489 L 9.980 21.300 9.992 20.155 L 10.004 19.010 10.172 18.983 C 10.445 18.939,10.624 18.801,11.320 18.103 C 11.682 17.738,11.988 17.440,12.000 17.440 C 12.012 17.440,12.318 17.738,12.680 18.103 " stroke="none" fill-rule="evenodd" fill="black"></path></svg>