<svg xmlns="http://www.w3.org/2000/svg" width="24" height="24" viewBox="0 0 24 24" version="1.1">
	<path d="M 6.707 4.658 L 1.914 8.255 2.207 14.878 L 2.500 21.500 6.250 21.810 C 8.421 21.990, 10 21.674, 10 21.060 C 10 20.477, 8.650 20, 7 20 C 4.045 20, 4 19.921, 4.021 14.750 C 4.041 9.798, 4.263 9.344, 7.931 6.750 C 10.070 5.237, 12.115 4, 12.476 4 C 12.838 4, 14.678 5.178, 16.567 6.619 C 19.728 9.030, 20 9.664, 20 14.619 C 20 19.931, 19.962 20, 17 20 C 15.350 20, 14 20.477, 14 21.060 C 14 21.674, 15.579 21.990, 17.750 21.810 L 21.500 21.500 21.792 14.905 L 22.084 8.310 17.624 4.655 C 15.171 2.645, 12.789 1.014, 12.332 1.030 C 11.874 1.047, 9.343 2.679, 6.707 4.658 M 8.174 10.059 L 5.848 10.992 7.966 13.684 C 10.768 17.246, 13.410 17.290, 15.976 13.818 L 18.075 10.979 15.473 9.990 C 12.377 8.813, 11.257 8.823, 8.174 10.059" stroke="none" fill="#000000" fill-rule="evenodd"/>
</svg>