<svg xmlns="http://www.w3.org/2000/svg" width="24" height="24" viewBox="0 0 24 24" version="1.1">
	<path d="M 6.707 4.658 L 1.914 8.255 2.207 14.878 L 2.500 21.500 6.250 21.810 L 10 22.121 10 18.060 C 10 14.667, 10.328 14, 12 14 C 13.100 14, 14 13.520, 14 12.934 C 14 12.347, 12.762 12.010, 11.250 12.184 C 8.862 12.458, 8.459 12.994, 8.190 16.250 C 7.946 19.188, 7.459 20, 5.940 20 C 4.264 20, 4.003 19.286, 4.021 14.750 C 4.041 9.798, 4.263 9.344, 7.931 6.750 C 10.070 5.237, 12.115 4, 12.476 4 C 12.838 4, 14.678 5.178, 16.567 6.619 C 19.728 9.030, 20 9.664, 20 14.619 C 20 19.931, 19.962 20, 17 20 C 15.350 20, 14 20.477, 14 21.060 C 14 21.674, 15.579 21.990, 17.750 21.810 L 21.500 21.500 21.792 14.905 L 22.084 8.310 17.624 4.655 C 15.171 2.645, 12.789 1.014, 12.332 1.030 C 11.874 1.047, 9.343 2.679, 6.707 4.658" stroke="none" fill="#000000" fill-rule="evenodd"/>
</svg>