<svg xmlns="http://www.w3.org/2000/svg" width="24" height="24" viewBox="0 0 24 24" version="1.1">
	<path d="M 11.866 2.022 C 11.665 2.034, 9.345 3.721, 6.711 5.771 L 1.922 9.499 2.211 16.499 L 2.500 23.500 12 23.500 L 21.500 23.500 21.791 16.366 L 22.083 9.231 17.157 5.616 C 14.448 3.627, 12.067 2.010, 11.866 2.022 M 12.292 5 C 11.843 5, 9.794 6.197, 7.738 7.660 C 4.151 10.212, 4 10.555, 4 16.160 C 4 21.278, 4.240 22, 5.945 22 C 7.549 22, 7.944 21.185, 8.195 17.352 C 8.398 14.254, 9.083 12.339, 10.250 11.608 C 11.520 10.811, 12.480 10.811, 13.750 11.608 C 14.917 12.339, 15.602 14.254, 15.805 17.352 C 16.056 21.185, 16.451 22, 18.055 22 C 19.756 22, 20 21.279, 20 16.250 C 20 10.894, 19.764 10.311, 16.553 7.750 C 14.658 6.237, 12.740 5, 12.292 5 M 12.438 18.312 C 11.853 18.117, 11.066 18.268, 10.688 18.646 C 10.309 19.024, 10 19.933, 10 20.667 C 10 21.400, 10.933 22, 12.073 22 C 13.471 22, 14.041 21.457, 13.823 20.333 C 13.645 19.416, 13.022 18.507, 12.438 18.312" stroke="none" fill="black" fill-rule="evenodd"/>
</svg>