<svg viewBox="0 0 24 24" xmlns="http://www.w3.org/2000/svg" fill="none" stroke="#000000" stroke-width="2" stroke-linecap="round" stroke-linejoin="round"><path d="M12.118 1.403 C 11.706 1.447,11.218 1.633,10.827 1.897 C 10.647 2.019,8.637 3.518,6.361 5.229 C 2.475 8.149,2.215 8.352,2.121 8.539 L 2.020 8.738 2.020 14.139 L 2.020 19.540 2.114 19.840 C 2.419 20.816,3.153 21.557,4.140 21.885 C 4.418 21.978,4.435 21.978,6.768 21.991 C 8.321 22.000,9.169 21.990,9.272 21.962 C 9.498 21.901,9.738 21.711,9.867 21.492 C 9.964 21.327,9.980 21.257,9.980 21.000 C 9.980 20.746,9.963 20.672,9.872 20.516 C 9.761 20.328,9.572 20.158,9.373 20.070 C 9.289 20.033,8.681 20.015,6.980 20.000 L 4.700 19.980 4.516 19.872 C 4.415 19.813,4.284 19.700,4.225 19.623 C 3.989 19.313,4.000 19.580,4.000 14.325 L 4.000 9.500 8.010 6.496 C 10.216 4.844,12.080 3.469,12.154 3.440 C 12.369 3.355,12.737 3.376,12.939 3.486 C 13.036 3.538,14.663 4.903,16.557 6.520 L 19.999 9.460 20.000 14.284 C 20.000 18.256,19.990 19.139,19.945 19.290 C 19.872 19.533,19.707 19.740,19.484 19.872 L 19.300 19.980 17.020 20.000 C 15.319 20.015,14.711 20.033,14.627 20.070 C 14.428 20.158,14.239 20.328,14.128 20.516 C 14.037 20.672,14.020 20.746,14.020 21.000 C 14.020 21.257,14.036 21.327,14.133 21.492 C 14.262 21.711,14.502 21.901,14.728 21.962 C 14.831 21.990,15.679 22.000,17.232 21.991 C 19.565 21.978,19.582 21.978,19.860 21.885 C 20.847 21.557,21.581 20.816,21.886 19.840 L 21.980 19.540 21.980 14.140 L 21.980 8.740 21.887 8.552 C 21.808 8.390,21.275 7.921,18.054 5.172 C 15.997 3.416,14.211 1.915,14.087 1.836 C 13.515 1.473,12.845 1.325,12.118 1.403 M11.695 11.055 C 11.323 11.176,11.052 11.508,11.013 11.888 C 10.970 12.304,11.159 12.666,11.529 12.878 L 11.740 12.999 11.480 13.000 C 10.865 13.003,10.314 13.244,9.839 13.719 C 8.938 14.621,8.843 15.999,9.615 16.991 C 9.874 17.324,12.395 19.818,12.560 19.905 C 12.754 20.007,13.246 20.007,13.440 19.905 C 13.605 19.818,16.126 17.324,16.385 16.991 C 16.984 16.221,17.069 15.187,16.607 14.300 C 16.411 13.923,15.956 13.468,15.576 13.270 C 15.206 13.077,14.872 13.001,14.386 13.001 C 13.916 13.000,13.595 13.074,13.249 13.263 L 12.998 13.400 12.773 13.272 C 12.649 13.202,12.438 13.115,12.304 13.078 L 12.060 13.011 12.200 12.981 C 13.119 12.780,13.294 11.539,12.463 11.112 C 12.265 11.010,11.911 10.984,11.695 11.055 M12.115 15.295 C 12.528 15.689,12.627 15.738,13.000 15.738 C 13.373 15.738,13.472 15.689,13.885 15.295 C 14.188 15.006,14.199 15.000,14.401 15.000 C 14.583 15.000,14.624 15.016,14.744 15.136 C 14.864 15.256,14.880 15.296,14.880 15.484 L 14.880 15.697 13.940 16.638 L 13.000 17.580 12.060 16.638 L 11.120 15.697 11.120 15.484 C 11.120 15.296,11.136 15.256,11.256 15.136 C 11.376 15.016,11.417 15.000,11.599 15.000 C 11.801 15.000,11.812 15.006,12.115 15.295 " stroke="none" fill-rule="evenodd" fill="black"></path></svg>