<svg viewBox="0 0 24 24" xmlns="http://www.w3.org/2000/svg" fill="none" stroke="#000000" stroke-width="2" stroke-linecap="round" stroke-linejoin="round"><path d="M11.660 1.064 C 11.563 1.099,9.666 2.549,6.862 4.731 C 2.586 8.058,2.216 8.356,2.122 8.539 L 2.020 8.738 2.020 14.639 L 2.020 20.540 2.114 20.840 C 2.422 21.827,3.173 22.578,4.160 22.886 L 4.460 22.980 12.000 22.980 L 19.540 22.980 19.840 22.886 C 20.827 22.578,21.578 21.827,21.886 20.840 L 21.980 20.540 21.980 14.639 L 21.980 8.738 21.878 8.539 C 21.784 8.356,21.414 8.058,17.138 4.731 C 13.902 2.213,12.446 1.104,12.323 1.061 C 12.106 0.986,11.872 0.987,11.660 1.064 M16.020 6.395 L 20.000 9.491 20.000 14.799 C 20.000 19.181,19.990 20.139,19.945 20.290 C 19.872 20.533,19.707 20.740,19.484 20.872 L 19.300 20.980 12.000 20.980 L 4.700 20.980 4.516 20.872 C 4.415 20.813,4.284 20.700,4.225 20.623 C 3.988 20.312,4.000 20.627,4.000 14.821 L 4.000 9.491 7.990 6.386 C 10.184 4.679,11.993 3.286,12.010 3.291 C 12.026 3.296,13.831 4.693,16.020 6.395 M8.695 14.057 C 8.466 14.129,8.256 14.299,8.128 14.516 C 8.037 14.672,8.020 14.746,8.020 15.000 C 8.020 15.256,8.036 15.328,8.131 15.489 C 8.256 15.702,8.449 15.864,8.670 15.943 C 8.891 16.022,15.109 16.022,15.330 15.943 C 15.551 15.864,15.744 15.702,15.869 15.489 C 15.964 15.328,15.980 15.256,15.980 15.000 C 15.980 14.746,15.963 14.672,15.872 14.516 C 15.740 14.293,15.533 14.128,15.290 14.055 C 15.030 13.977,8.945 13.979,8.695 14.057 " stroke="none" fill-rule="evenodd" fill="black"></path></svg>