<svg viewBox="0 0 24 24" xmlns="http://www.w3.org/2000/svg" fill="none" stroke="#000000" stroke-width="2" stroke-linecap="round" stroke-linejoin="round"><path d="M11.660 1.064 C 11.563 1.099,9.666 2.549,6.862 4.731 C 2.586 8.058,2.216 8.356,2.122 8.539 L 2.020 8.738 2.020 14.619 C 2.020 20.465,2.023 20.621,2.144 20.935 C 2.164 20.987,2.142 21.000,2.031 21.000 C 1.669 21.000,1.311 21.205,1.128 21.516 C 1.037 21.672,1.020 21.746,1.020 22.000 C 1.020 22.256,1.036 22.328,1.131 22.489 C 1.256 22.702,1.449 22.864,1.670 22.943 C 1.893 23.023,22.107 23.023,22.330 22.943 C 22.551 22.864,22.744 22.702,22.869 22.489 C 22.964 22.328,22.980 22.256,22.980 22.000 C 22.980 21.746,22.963 21.672,22.872 21.516 C 22.689 21.205,22.331 21.000,21.969 21.000 C 21.858 21.000,21.836 20.987,21.856 20.935 C 21.977 20.621,21.980 20.465,21.980 14.619 L 21.980 8.738 21.878 8.539 C 21.784 8.356,21.414 8.058,17.138 4.731 C 13.902 2.213,12.446 1.104,12.323 1.061 C 12.106 0.986,11.872 0.987,11.660 1.064 M16.020 6.395 L 20.000 9.491 20.000 14.799 C 20.000 19.181,19.990 20.139,19.945 20.290 C 19.872 20.533,19.707 20.740,19.484 20.872 C 19.308 20.975,19.272 20.981,18.651 20.993 L 18.002 21.007 17.991 17.353 L 17.980 13.700 17.872 13.516 C 17.740 13.293,17.533 13.128,17.290 13.055 C 17.019 12.973,6.981 12.973,6.710 13.055 C 6.467 13.128,6.260 13.293,6.128 13.516 L 6.020 13.700 6.009 17.353 L 5.998 21.007 5.349 20.993 C 4.728 20.981,4.692 20.975,4.516 20.872 C 4.415 20.813,4.284 20.700,4.225 20.623 C 3.988 20.312,4.000 20.627,4.000 14.821 L 4.000 9.491 7.990 6.386 C 10.184 4.679,11.993 3.286,12.010 3.291 C 12.026 3.296,13.831 4.693,16.020 6.395 M16.000 18.000 L 16.000 21.000 12.000 21.000 L 8.000 21.000 8.000 18.000 L 8.000 15.000 12.000 15.000 L 16.000 15.000 16.000 18.000 " stroke="none" fill-rule="evenodd" fill="black"></path></svg>