<svg xmlns="http://www.w3.org/2000/svg" width="24" height="24" viewBox="0 0 24 24" version="1.1">
	<path d="M 6.710 4.809 L 1.920 8.492 2.210 14.996 L 2.500 21.500 6.250 21.810 C 8.421 21.990, 10 21.674, 10 21.060 C 10 20.477, 8.650 20, 7 20 C 4.039 20, 4 19.930, 4 14.633 C 4 9.484, 4.162 9.159, 7.979 6.633 C 10.167 5.185, 12.222 4, 12.545 4 C 12.869 4, 14.678 5.178, 16.567 6.619 C 19.728 9.030, 20 9.664, 20 14.619 C 20 19.931, 19.962 20, 17 20 C 15.350 20, 14 20.477, 14 21.060 C 14 21.674, 15.579 21.990, 17.750 21.810 L 21.500 21.500 21.792 14.905 L 22.084 8.310 17.624 4.655 C 15.171 2.645, 12.789 1.029, 12.332 1.064 C 11.874 1.098, 9.344 2.784, 6.710 4.809 M 9.981 13.535 C 8.765 15.808, 8.847 16.291, 10.777 18.222 C 12.873 20.318, 12.982 20.326, 14.965 18.532 C 17.553 16.189, 17.568 13.961, 15 13.290 C 13.900 13.002, 13 12.369, 13 11.883 C 13 10.129, 11.309 11.054, 9.981 13.535 M 12.014 16.414 C 12.662 17.062, 13.338 17.062, 13.986 16.414 C 14.633 15.767, 14.295 15.429, 13 15.429 C 11.705 15.429, 11.367 15.767, 12.014 16.414" stroke="none" fill="black" fill-rule="evenodd"/>
</svg>