<svg viewBox="0 0 24 24" xmlns="http://www.w3.org/2000/svg" fill="none" stroke="#000000" stroke-width="2" stroke-linecap="round" stroke-linejoin="round"><path d="M11.695 1.057 C 11.466 1.129,11.256 1.299,11.128 1.516 L 11.020 1.700 11.008 3.349 L 10.997 4.997 7.228 5.009 L 3.460 5.021 3.139 5.122 C 2.169 5.427,1.419 6.182,1.114 7.160 L 1.020 7.460 1.020 14.000 L 1.020 20.540 1.114 20.840 C 1.422 21.827,2.173 22.578,3.160 22.886 L 3.460 22.980 12.000 22.980 L 20.540 22.980 20.840 22.886 C 21.827 22.578,22.578 21.827,22.886 20.840 L 22.980 20.540 22.980 14.000 L 22.980 7.460 22.886 7.160 C 22.581 6.182,21.831 5.427,20.861 5.122 L 20.540 5.021 16.772 5.009 L 13.003 4.997 12.992 3.349 L 12.980 1.700 12.872 1.516 C 12.628 1.101,12.150 0.915,11.695 1.057 M11.000 8.000 L 11.000 9.000 10.446 9.000 C 9.648 9.000,9.367 9.110,9.128 9.516 C 9.037 9.672,9.020 9.746,9.020 10.000 C 9.020 10.256,9.036 10.328,9.131 10.489 C 9.256 10.702,9.449 10.864,9.670 10.943 C 9.889 11.021,14.111 11.021,14.330 10.943 C 14.551 10.864,14.744 10.702,14.869 10.489 C 14.964 10.328,14.980 10.256,14.980 10.000 C 14.980 9.746,14.963 9.672,14.872 9.516 C 14.633 9.110,14.352 9.000,13.554 9.000 L 13.000 9.000 13.000 8.000 L 13.000 7.000 16.553 7.000 C 20.577 7.000,20.379 6.986,20.697 7.303 C 21.023 7.629,21.000 7.126,21.000 14.001 C 21.000 19.059,20.991 20.139,20.945 20.290 C 20.872 20.533,20.707 20.740,20.484 20.872 L 20.300 20.980 12.000 20.980 L 3.700 20.980 3.516 20.872 C 3.415 20.813,3.284 20.700,3.225 20.623 C 2.987 20.311,3.000 20.701,3.000 14.022 C 3.000 7.123,2.977 7.629,3.304 7.303 C 3.615 6.991,3.409 7.006,7.430 7.003 L 11.000 7.000 11.000 8.000 M9.695 13.057 C 9.466 13.129,9.256 13.299,9.128 13.516 C 9.037 13.672,9.020 13.746,9.020 14.000 C 9.020 14.256,9.036 14.328,9.131 14.489 C 9.256 14.702,9.449 14.864,9.670 14.943 C 9.768 14.978,10.022 14.997,10.408 14.998 L 10.997 15.000 11.008 16.653 L 11.020 18.306 11.141 18.503 C 11.543 19.156,12.457 19.156,12.859 18.503 L 12.980 18.306 12.992 16.653 L 13.003 15.000 13.592 14.998 C 13.978 14.997,14.232 14.978,14.330 14.943 C 14.551 14.864,14.744 14.702,14.869 14.489 C 14.964 14.328,14.980 14.256,14.980 14.000 C 14.980 13.746,14.963 13.672,14.872 13.516 C 14.740 13.293,14.533 13.128,14.290 13.055 C 14.033 12.978,9.943 12.979,9.695 13.057 " stroke="none" fill-rule="evenodd" fill="black"></path></svg>