<svg viewBox="0 0 24 24" xmlns="http://www.w3.org/2000/svg" fill="none" stroke="#000000" stroke-width="2" stroke-linecap="round" stroke-linejoin="round"><path d="M11.700 4.054 C 11.612 4.084,9.263 5.247,6.480 6.638 C 2.387 8.686,1.392 9.198,1.275 9.321 C 1.116 9.488,1.000 9.774,1.000 10.000 C 1.000 10.406,1.293 10.811,1.678 10.939 C 2.105 11.081,1.893 11.173,6.630 8.805 C 9.012 7.614,10.970 6.640,10.980 6.640 C 10.991 6.640,11.000 7.171,11.000 7.820 L 11.000 9.000 10.446 9.000 C 9.648 9.000,9.367 9.110,9.128 9.516 C 9.037 9.672,9.020 9.746,9.020 10.000 C 9.020 10.256,9.036 10.328,9.131 10.489 C 9.256 10.702,9.449 10.864,9.670 10.943 C 9.889 11.021,14.111 11.021,14.330 10.943 C 14.551 10.864,14.744 10.702,14.869 10.489 C 14.964 10.328,14.980 10.256,14.980 10.000 C 14.980 9.746,14.963 9.672,14.872 9.516 C 14.633 9.110,14.352 9.000,13.554 9.000 L 13.000 9.000 13.000 7.820 C 13.000 7.171,13.009 6.640,13.020 6.640 C 13.030 6.640,14.988 7.614,17.370 8.805 C 22.107 11.173,21.895 11.081,22.322 10.939 C 22.707 10.811,23.000 10.406,23.000 10.000 C 23.000 9.773,22.884 9.488,22.725 9.321 C 22.608 9.198,21.601 8.681,17.440 6.602 C 11.848 3.808,12.101 3.920,11.700 4.054 M4.695 13.057 C 4.466 13.129,4.256 13.299,4.128 13.516 L 4.020 13.700 4.009 16.850 L 3.998 20.000 3.445 20.000 C 2.648 20.000,2.367 20.110,2.128 20.516 C 2.037 20.672,2.020 20.746,2.020 21.000 C 2.020 21.256,2.036 21.328,2.131 21.489 C 2.256 21.702,2.449 21.864,2.670 21.943 C 2.893 22.023,21.107 22.023,21.330 21.943 C 21.551 21.864,21.744 21.702,21.869 21.489 C 21.964 21.328,21.980 21.256,21.980 21.000 C 21.980 20.746,21.963 20.672,21.872 20.516 C 21.633 20.110,21.352 20.000,20.555 20.000 L 20.002 20.000 19.991 16.850 L 19.980 13.700 19.871 13.514 C 19.479 12.848,18.521 12.848,18.129 13.514 L 18.020 13.700 18.009 16.850 L 17.998 20.000 12.000 20.000 L 6.002 20.000 5.991 16.850 L 5.980 13.700 5.872 13.516 C 5.628 13.101,5.150 12.915,4.695 13.057 M9.695 13.057 C 9.466 13.129,9.256 13.299,9.128 13.516 C 9.037 13.672,9.020 13.746,9.020 14.000 C 9.020 14.256,9.036 14.328,9.131 14.489 C 9.256 14.702,9.449 14.864,9.670 14.943 C 9.768 14.978,10.022 14.997,10.408 14.998 L 10.997 15.000 11.008 16.653 L 11.020 18.306 11.141 18.503 C 11.543 19.156,12.457 19.156,12.859 18.503 L 12.980 18.306 12.992 16.653 L 13.003 15.000 13.592 14.998 C 13.978 14.997,14.232 14.978,14.330 14.943 C 14.551 14.864,14.744 14.702,14.869 14.489 C 14.964 14.328,14.980 14.256,14.980 14.000 C 14.980 13.746,14.963 13.672,14.872 13.516 C 14.740 13.293,14.533 13.128,14.290 13.055 C 14.033 12.978,9.943 12.979,9.695 13.057 " stroke="none" fill-rule="evenodd" fill="black"></path></svg>