<svg xmlns="http://www.w3.org/2000/svg" width="24" height="24" viewBox="0 0 24 24" version="1.1">
	<path d="M 11 2.945 C 11 4.556, 10.184 4.943, 6.250 5.195 L 1.500 5.500 1.500 14 L 1.500 22.500 12 22.500 L 22.500 22.500 22.500 14 L 22.500 5.500 17.750 5.195 C 13.816 4.943, 13 4.556, 13 2.945 C 13 1.875, 12.550 1, 12 1 C 11.450 1, 11 1.875, 11 2.945 M 3 14 L 3 21 12 21 L 21 21 21 14 L 21 7 17 7 C 14.800 7, 13 7.450, 13 8 C 13 8.550, 13.450 9, 14 9 C 14.550 9, 15 9.450, 15 10 C 15 10.550, 13.650 11, 12 11 C 10.350 11, 9 10.550, 9 10 C 9 9.450, 9.450 9, 10 9 C 10.550 9, 11 8.550, 11 8 C 11 7.450, 9.200 7, 7 7 L 3 7 3 14 M 9 14 C 9 14.550, 9.450 15, 10 15 C 10.550 15, 11 15.900, 11 17 C 11 18.100, 11.450 19, 12 19 C 12.550 19, 13 18.100, 13 17 C 13 15.900, 13.450 15, 14 15 C 14.550 15, 15 14.550, 15 14 C 15 13.450, 13.650 13, 12 13 C 10.350 13, 9 13.450, 9 14" stroke="none" fill="#000000" fill-rule="evenodd"/>
</svg>