<svg xmlns="http://www.w3.org/2000/svg" width="24" height="24" viewBox="0 0 24 24" version="1.1">
	<path d="M 6.500 6.668 C 0.685 9.664, 0.481 9.815, 1.236 10.570 C 1.550 10.883, 3.693 10.177, 6 9 C 8.307 7.823, 10.488 7.178, 10.847 7.567 C 11.206 7.956, 10.938 8.475, 10.250 8.720 C 7.895 9.561, 8.999 11, 12 11 C 15.001 11, 16.105 9.561, 13.750 8.720 C 13.063 8.475, 12.794 7.956, 13.153 7.567 C 13.512 7.178, 15.632 7.792, 17.863 8.930 C 22.335 11.211, 23 11.377, 23 10.208 C 23 9.575, 12.572 3.874, 11.728 4.047 C 11.603 4.072, 9.250 5.252, 6.500 6.668 M 4 16.500 C 4 18.425, 3.550 20, 3 20 C 2.450 20, 2 20.450, 2 21 C 2 21.600, 6 22, 12 22 C 18 22, 22 21.600, 22 21 C 22 20.450, 21.550 20, 21 20 C 20.450 20, 20 18.425, 20 16.500 C 20 14.575, 19.550 13, 19 13 C 18.450 13, 18 14.575, 18 16.500 L 18 20 12 20 L 6 20 6 16.500 C 6 14.575, 5.550 13, 5 13 C 4.450 13, 4 14.575, 4 16.500 M 9 14 C 9 14.550, 9.450 15, 10 15 C 10.550 15, 11 15.900, 11 17 C 11 18.100, 11.450 19, 12 19 C 12.550 19, 13 18.100, 13 17 C 13 15.900, 13.450 15, 14 15 C 14.550 15, 15 14.550, 15 14 C 15 13.450, 13.650 13, 12 13 C 10.350 13, 9 13.450, 9 14" stroke="none" fill="#000000" fill-rule="evenodd"/>
</svg>