<svg viewBox="0 0 24 24" xmlns="http://www.w3.org/2000/svg" fill="none" stroke="#000000" stroke-width="2" stroke-linecap="round" stroke-linejoin="round"><path d="M5.499 1.043 C 4.390 1.231,3.488 2.024,3.114 3.140 L 3.020 3.420 3.009 12.210 L 2.999 21.000 2.446 21.000 C 1.648 21.000,1.367 21.110,1.128 21.516 C 1.037 21.672,1.020 21.746,1.020 22.000 C 1.020 22.256,1.036 22.328,1.131 22.489 C 1.256 22.702,1.449 22.864,1.670 22.943 C 1.893 23.023,22.107 23.023,22.330 22.943 C 22.551 22.864,22.744 22.702,22.869 22.489 C 22.964 22.328,22.980 22.256,22.980 22.000 C 22.980 21.746,22.963 21.672,22.872 21.516 C 22.633 21.110,22.352 21.000,21.554 21.000 L 21.001 21.000 20.991 12.210 L 20.980 3.420 20.886 3.140 C 20.556 2.158,19.821 1.425,18.861 1.121 L 18.540 1.020 12.120 1.014 C 8.589 1.011,5.609 1.024,5.499 1.043 M11.007 3.653 C 11.020 4.300,11.021 4.308,11.141 4.503 C 11.543 5.156,12.457 5.156,12.859 4.503 C 12.979 4.308,12.980 4.300,12.993 3.653 L 13.007 3.000 15.556 3.000 C 18.461 3.000,18.386 2.993,18.697 3.303 C 19.011 3.618,19.000 3.481,19.000 6.947 L 19.000 10.000 12.000 10.000 L 5.000 10.000 5.000 6.947 C 5.000 3.480,4.989 3.618,5.304 3.303 C 5.609 2.997,5.520 3.006,8.427 3.003 L 10.993 3.000 11.007 3.653 M19.000 16.500 L 19.000 21.000 17.001 21.000 L 15.002 21.000 14.991 18.070 C 14.980 15.155,14.980 15.139,14.894 14.980 C 14.712 14.644,14.377 14.442,14.000 14.442 C 13.623 14.442,13.288 14.644,13.106 14.980 C 13.020 15.139,13.020 15.155,13.009 18.070 L 12.998 21.000 12.000 21.000 L 11.002 21.000 10.991 18.070 C 10.980 15.155,10.980 15.139,10.894 14.980 C 10.712 14.644,10.377 14.442,10.000 14.442 C 9.623 14.442,9.288 14.644,9.106 14.980 C 9.020 15.139,9.020 15.155,9.009 18.070 L 8.998 21.000 6.999 21.000 L 5.000 21.000 5.000 16.500 L 5.000 12.000 12.000 12.000 L 19.000 12.000 19.000 16.500 " stroke="none" fill-rule="evenodd" fill="black"></path></svg>