<svg xmlns="http://www.w3.org/2000/svg" width="24" height="24" viewBox="0 0 24 24" version="1.1">
	<path d="M 3.704 1.630 C 3.317 2.017, 3 6.533, 3 11.667 C 3 17.222, 2.595 21, 2 21 C 1.450 21, 1 21.450, 1 22 C 1 22.606, 5.333 23, 12 23 C 18.667 23, 23 22.606, 23 22 C 23 21.450, 22.566 21, 22.036 21 C 21.503 21, 20.944 16.641, 20.786 11.250 L 20.500 1.500 12.454 1.213 C 8.028 1.055, 4.091 1.242, 3.704 1.630 M 5 6.500 L 5 10 12 10 L 19 10 19 6.500 C 19 3.300, 18.750 3, 16.083 3 C 14.479 3, 12.904 3.563, 12.583 4.250 C 12.117 5.250, 11.883 5.250, 11.417 4.250 C 11.096 3.563, 9.521 3, 7.917 3 C 5.250 3, 5 3.300, 5 6.500 M 5 16.500 C 5 20.333, 5.296 21, 7 21 C 8.556 21, 9 20.333, 9 18 C 9 16.350, 9.450 15, 10 15 C 10.550 15, 11 16.350, 11 18 C 11 19.650, 11.450 21, 12 21 C 12.550 21, 13 19.650, 13 18 C 13 16.350, 13.450 15, 14 15 C 14.550 15, 15 16.350, 15 18 C 15 20.333, 15.444 21, 17 21 C 18.704 21, 19 20.333, 19 16.500 L 19 12 12 12 L 5 12 5 16.500" stroke="none" fill="#000000" fill-rule="evenodd"/>
</svg>