<svg xmlns="http://www.w3.org/2000/svg" width="24" height="24" viewBox="0 0 24 24" version="1.1">
	<path d="M 4 0.826 C 4 1.280, 5.125 2.708, 6.500 4 C 9.744 7.048, 9.652 8.494, 5.943 12.717 C 3.841 15.111, 2.982 17.027, 3.193 18.850 C 3.498 21.485, 3.548 21.500, 12 21.500 C 20.452 21.500, 20.502 21.485, 20.807 18.850 C 21.018 17.027, 20.159 15.111, 18.057 12.717 C 14.315 8.456, 14.269 7.372, 17.677 3.815 C 21.279 0.055, 19.770 -1.112, 15.990 2.510 C 12.184 6.156, 12.187 9.310, 16 13.653 C 20.739 19.050, 20.141 20, 12 20 C 3.859 20, 3.261 19.050, 8 13.653 C 11.752 9.380, 11.809 6.150, 8.195 2.687 C 5.333 -0.056, 4 -0.647, 4 0.826" stroke="none" fill="black" fill-rule="evenodd"/>
</svg>