<svg xmlns="http://www.w3.org/2000/svg" width="24" height="24" viewBox="0 0 24 24" version="1.1">
	<path d="M 4.695 0 C 4.313 0, 4 0.372, 4 0.826 C 4 1.280, 5.125 2.708, 6.500 4 C 7.875 5.292, 9 6.998, 9 7.792 C 9 8.586, 7.624 10.803, 5.943 12.717 C 3.841 15.111, 2.982 17.027, 3.193 18.850 C 3.498 21.485, 3.548 21.500, 12 21.500 C 20.452 21.500, 20.502 21.485, 20.807 18.850 C 21.018 17.027, 20.159 15.111, 18.057 12.717 C 16.376 10.803, 15 8.645, 15 7.923 C 15 7.200, 16.205 5.352, 17.677 3.815 C 19.150 2.278, 20.045 0.711, 19.667 0.333 C 19.289 -0.045, 17.634 0.935, 15.990 2.510 C 14.276 4.152, 13 6.411, 13 7.805 C 13 9.142, 14.350 11.774, 16 13.653 C 17.650 15.532, 19 17.729, 19 18.535 C 19 19.682, 17.482 20, 12 20 C 6.518 20, 5 19.682, 5 18.535 C 5 17.729, 6.350 15.532, 8 13.653 C 9.650 11.774, 11 9.142, 11 7.805 C 11 6.447, 9.762 4.188, 8.195 2.687 C 6.653 1.209, 5.078 0, 4.695 0" stroke="none" fill="black" fill-rule="evenodd"/>
</svg>