<svg xmlns="http://www.w3.org/2000/svg" width="24" height="24" viewBox="0 0 24 24" version="1.1">
	<path d="M 11 2 C 11 2.550, 10.052 3, 8.893 3 C 7.273 3, 6.956 3.404, 7.522 4.750 C 8.951 8.150, 9.175 10.774, 8.094 11.442 C 7.492 11.814, 7 14.566, 7 17.559 L 7 23 12.500 23 L 18 23 18 17.559 C 18 14.566, 17.508 11.814, 16.906 11.442 C 15.825 10.774, 16.049 8.150, 17.478 4.750 C 18.070 3.343, 17.703 3, 15.607 3 C 14.173 3, 13 2.550, 13 2 C 13 1.450, 12.550 1, 12 1 C 11.450 1, 11 1.450, 11 2 M 11.474 7.950 C 13.211 11.308, 13.486 15, 12 15 C 11.450 15, 10.993 13.988, 10.985 12.750 C 10.972 10.931, 10.784 10.787, 10 12 C 9.467 12.825, 9.024 15.188, 9.015 17.250 C 9.001 20.872, 9.119 21, 12.500 21 C 15.882 21, 16 20.873, 16 17.223 C 16 15.145, 15.305 12.453, 14.455 11.240 C 13.274 9.553, 13.165 8.560, 13.991 7.017 C 14.943 5.238, 14.768 5, 12.510 5 C 9.996 5, 9.977 5.054, 11.474 7.950" stroke="none" fill="#000000" fill-rule="evenodd"/>
</svg>