<svg viewBox="0 0 24 24" xmlns="http://www.w3.org/2000/svg" fill="none" stroke="#000000" stroke-width="2" stroke-linecap="round" stroke-linejoin="round"><path d="M11.296 2.058 C 10.194 2.229,9.153 2.852,8.392 3.795 C 7.238 5.226,6.466 7.396,6.077 10.309 C 6.031 10.656,6.001 11.021,6.012 11.120 C 6.035 11.338,11.062 22.421,11.237 22.640 C 11.477 22.941,11.936 23.068,12.322 22.939 C 12.764 22.792,12.595 23.123,15.430 16.879 C 17.498 12.324,18.000 11.187,18.000 11.054 C 18.000 10.580,17.727 8.943,17.480 7.940 C 17.207 6.831,16.910 6.014,16.454 5.120 C 15.808 3.853,15.021 3.008,14.000 2.483 C 13.545 2.250,13.191 2.136,12.680 2.058 C 12.227 1.989,11.739 1.989,11.296 2.058 M12.721 4.117 C 13.937 4.496,14.901 5.936,15.503 8.273 C 15.629 8.762,15.840 9.807,15.840 9.943 C 15.840 9.992,15.307 10.000,12.000 10.000 C 8.693 10.000,8.160 9.992,8.160 9.943 C 8.160 9.801,8.375 8.731,8.499 8.260 C 9.170 5.697,10.226 4.260,11.600 4.040 C 11.899 3.992,12.439 4.029,12.721 4.117 M15.429 12.030 C 15.420 12.047,14.652 13.739,13.720 15.790 C 12.789 17.841,12.015 19.520,12.000 19.520 C 11.985 19.520,11.211 17.841,10.280 15.790 C 9.348 13.739,8.580 12.047,8.571 12.030 C 8.562 12.013,10.105 12.000,12.000 12.000 C 13.895 12.000,15.438 12.013,15.429 12.030 " stroke="none" fill-rule="evenodd" fill="black"></path></svg>