<svg xmlns="http://www.w3.org/2000/svg" width="24" height="24" viewBox="0 0 24 24" version="1.1">
	<path d="M 12 2 C 11.070 2, 9.600 2.788, 8.733 3.750 C 7.866 4.713, 6.835 6.784, 6.444 8.354 C 5.915 10.471, 6.458 12.727, 8.549 17.104 C 10.100 20.347, 11.652 23, 12 23 C 12.348 23, 13.900 20.347, 15.451 17.104 C 17.542 12.727, 18.085 10.471, 17.556 8.354 C 17.165 6.784, 16.134 4.713, 15.267 3.750 C 14.400 2.788, 12.930 2, 12 2 M 12 4 C 11.585 4, 10.810 4.563, 10.278 5.250 C 9.746 5.938, 9.030 7.287, 8.687 8.250 C 8.160 9.726, 8.679 10, 12 10 C 15.321 10, 15.840 9.726, 15.313 8.250 C 14.970 7.287, 14.254 5.938, 13.722 5.250 C 13.190 4.563, 12.415 4, 12 4 M 12 12 C 10.350 12, 9 12.204, 9 12.453 C 9 12.702, 9.522 14.052, 10.161 15.453 C 10.799 16.854, 11.627 18, 12 18 C 12.373 18, 13.201 16.854, 13.839 15.453 C 14.478 14.052, 15 12.702, 15 12.453 C 15 12.204, 13.650 12, 12 12" stroke="none" fill="black" fill-rule="evenodd"/>
</svg>