<svg xmlns="http://www.w3.org/2000/svg" width="24" height="24" viewBox="0 0 24 24" version="1.1">
	<path d="M 8.733 3.750 C 5.595 7.232, 5.546 10.820, 8.549 17.104 C 10.100 20.347, 11.652 23, 12 23 C 12.348 23, 13.900 20.347, 15.451 17.104 C 17.542 12.727, 18.085 10.471, 17.556 8.354 C 16.102 2.526, 11.840 0.302, 8.733 3.750 M 10.278 5.250 C 9.746 5.938, 9.030 7.287, 8.687 8.250 C 8.160 9.726, 8.679 10, 12 10 C 15.321 10, 15.840 9.726, 15.313 8.250 C 14.506 5.986, 12.958 4, 12 4 C 11.585 4, 10.810 4.563, 10.278 5.250 M 9 12.453 C 9 13.578, 11.391 18, 12 18 C 12.609 18, 15 13.578, 15 12.453 C 15 12.204, 13.650 12, 12 12 C 10.350 12, 9 12.204, 9 12.453" stroke="none" fill="black" fill-rule="evenodd"/>
</svg>