<svg xmlns="http://www.w3.org/2000/svg" width="24" height="24" viewBox="0 0 24 24" version="1.1">
	<path d="M 7.500 2.945 C 4.915 4.003, 1.484 7.817, 2.343 8.677 C 2.709 9.042, 4.040 8.371, 5.302 7.186 C 8.014 4.638, 12.887 3.526, 15 4.973 C 16.295 5.860, 16.304 6.126, 15.064 6.924 C 12.991 8.258, 15.606 11.260, 18.141 10.455 C 19.413 10.051, 20 10.360, 20 11.433 C 20 12.295, 20.450 13, 21 13 C 22.462 13, 22.222 10.330, 20.452 6.907 C 18.214 2.579, 12.595 0.860, 7.500 2.945 M 2.004 12.750 C 2.006 13.713, 2.873 15.920, 3.931 17.655 C 7.150 22.933, 15.450 23.344, 20.045 18.452 C 22.954 15.356, 21.775 13.923, 18.698 16.814 C 15.986 19.362, 11.113 20.474, 9 19.027 C 7.705 18.140, 7.696 17.874, 8.936 17.076 C 11.009 15.742, 8.394 12.740, 5.859 13.545 C 4.587 13.949, 4 13.640, 4 12.567 C 4 11.705, 3.550 11, 3 11 C 2.450 11, 2.002 11.787, 2.004 12.750" stroke="none" fill="black" fill-rule="evenodd"/>
</svg>