<svg xmlns="http://www.w3.org/2000/svg" width="24" height="24" viewBox="0 0 24 24" version="1.1">
	<path d="M 16.738 2 C 16.214 2, 16.045 2.675, 16.362 3.500 C 16.832 4.727, 15.885 5, 11.169 5 C 7.996 5, 4.860 5.540, 4.200 6.200 C 3.540 6.860, 3 8.660, 3 10.200 C 3 11.740, 3.420 13, 3.934 13 C 4.447 13, 5.010 11.762, 5.184 10.250 C 5.483 7.647, 5.808 7.484, 11.238 7.200 C 16.081 6.948, 16.883 7.142, 16.381 8.450 C 16.054 9.303, 16.214 10, 16.738 10 C 17.262 10, 18.505 9.100, 19.500 8 C 21.247 6.070, 21.247 5.930, 19.500 4 C 18.505 2.900, 17.262 2, 16.738 2 M 20.066 11 C 19.553 11, 18.990 12.238, 18.816 13.750 C 18.517 16.353, 18.192 16.516, 12.762 16.800 C 7.919 17.052, 7.117 16.858, 7.619 15.550 C 7.946 14.697, 7.786 14, 7.262 14 C 6.738 14, 5.495 14.900, 4.500 16 C 2.753 17.930, 2.753 18.070, 4.500 20 C 5.495 21.100, 6.738 22, 7.262 22 C 7.786 22, 7.955 21.325, 7.638 20.500 C 7.168 19.273, 8.115 19, 12.831 19 C 16.004 19, 19.140 18.460, 19.800 17.800 C 20.460 17.140, 21 15.340, 21 13.800 C 21 12.260, 20.580 11, 20.066 11" stroke="none" fill="black" fill-rule="evenodd"/>
</svg>