<svg xmlns="http://www.w3.org/2000/svg" width="24" height="24" viewBox="0 0 24 24" version="1.1">
	<path d="M 16.362 3.500 C 16.832 4.727, 15.885 5, 11.169 5 C 4.723 5, 3 6.097, 3 10.200 C 3 13.813, 4.769 13.853, 5.184 10.250 C 5.483 7.647, 5.808 7.484, 11.238 7.200 C 16.081 6.948, 16.883 7.142, 16.381 8.450 C 15.542 10.637, 17.350 10.376, 19.500 8 C 21.247 6.070, 21.247 5.930, 19.500 4 C 17.371 1.648, 15.539 1.356, 16.362 3.500 M 18.816 13.750 C 18.517 16.353, 18.192 16.516, 12.762 16.800 C 7.919 17.052, 7.117 16.858, 7.619 15.550 C 8.458 13.363, 6.650 13.624, 4.500 16 C 2.753 17.930, 2.753 18.070, 4.500 20 C 6.629 22.352, 8.461 22.644, 7.638 20.500 C 7.168 19.273, 8.115 19, 12.831 19 C 19.277 19, 21 17.903, 21 13.800 C 21 10.187, 19.231 10.147, 18.816 13.750" stroke="none" fill="#000000" fill-rule="evenodd"/>
</svg>