<svg xmlns="http://www.w3.org/2000/svg" width="24" height="24" viewBox="0 0 24 24" version="1.1">
	<path d="M 11.685 2.063 C 10.483 2.098, 8.600 2.495, 7.500 2.945 C 6.400 3.396, 4.640 4.720, 3.589 5.888 C 2.539 7.056, 1.978 8.311, 2.343 8.677 C 2.709 9.042, 4.040 8.371, 5.302 7.186 C 6.564 6.001, 8.925 4.787, 10.548 4.488 C 12.172 4.190, 14.175 4.408, 15 4.973 C 16.295 5.860, 16.304 6.126, 15.064 6.924 C 13.865 7.695, 13.847 8.111, 14.955 9.446 C 15.736 10.387, 17.047 10.802, 18.141 10.455 C 19.413 10.051, 20 10.360, 20 11.433 C 20 12.295, 20.450 13, 21 13 C 21.550 13, 22 12.303, 22 11.450 C 22 10.598, 21.303 8.554, 20.452 6.907 C 19.601 5.261, 17.771 3.483, 16.387 2.957 C 15.003 2.431, 12.887 2.029, 11.685 2.063 M 3 11 C 2.450 11, 2.002 11.787, 2.004 12.750 C 2.006 13.713, 2.873 15.920, 3.931 17.655 C 5.148 19.650, 6.984 21.057, 8.927 21.484 C 10.617 21.855, 13.293 21.875, 14.874 21.528 C 16.455 21.180, 18.782 19.796, 20.045 18.452 C 21.308 17.108, 22.038 15.704, 21.667 15.333 C 21.296 14.962, 19.960 15.629, 18.698 16.814 C 17.436 17.999, 15.075 19.213, 13.452 19.512 C 11.828 19.810, 9.825 19.592, 9 19.027 C 7.705 18.140, 7.696 17.874, 8.936 17.076 C 10.135 16.305, 10.153 15.889, 9.045 14.554 C 8.264 13.613, 6.953 13.198, 5.859 13.545 C 4.587 13.949, 4 13.640, 4 12.567 C 4 11.705, 3.550 11, 3 11" stroke="none" fill="black" fill-rule="evenodd"/>
</svg>