<svg xmlns="http://www.w3.org/2000/svg" width="24" height="24" viewBox="0 0 24 24" version="1.1">
	<path d="M 3.129 6.985 C 1.484 9.910, 0.970 12.236, 1.195 15.735 L 1.500 20.500 12 20.500 L 22.500 20.500 22.805 15.735 C 23.030 12.236, 22.516 9.910, 20.871 6.985 L 18.632 3 12 3 L 5.368 3 3.129 6.985 M 5.500 8 C 3.972 10.956, 3.986 11, 6.506 11 C 7.912 11, 9.322 11.675, 9.638 12.500 C 10.383 14.441, 13.617 14.441, 14.362 12.500 C 14.678 11.675, 16.088 11, 17.494 11 C 20.014 11, 20.028 10.956, 18.500 8 C 17.093 5.280, 16.487 5, 12 5 C 7.513 5, 6.907 5.280, 5.500 8 M 3 16 L 3 19 12 19 L 21 19 21 16 C 21 13.502, 20.599 13, 18.607 13 C 17.291 13, 15.955 13.675, 15.638 14.500 C 15.300 15.382, 13.800 16, 12 16 C 10.200 16, 8.700 15.382, 8.362 14.500 C 8.045 13.675, 6.709 13, 5.393 13 C 3.401 13, 3 13.502, 3 16" stroke="none" fill="black" fill-rule="evenodd"/>
</svg>