<svg xmlns="http://www.w3.org/2000/svg" width="24" height="24" viewBox="0 0 24 24" version="1.1">
	<path d="M 6 6 C 6 6.583, 9.333 7, 14 7 C 18.667 7, 22 6.583, 22 6 C 22 5.417, 18.667 5, 14 5 C 9.333 5, 6 5.417, 6 6 M 2 7.671 C 2 8.040, 2.745 9.165, 3.655 10.171 C 5.198 11.876, 5.187 12.136, 3.494 14.006 C 0.951 16.817, 2.508 17.811, 5.318 15.171 C 7.247 13.359, 8.817 13, 14.814 13 C 18.938 13, 22 12.574, 22 12 C 22 11.424, 18.885 11, 14.655 11 C 8.580 11, 6.997 10.654, 5.500 9 C 3.709 7.021, 2 6.372, 2 7.671 M 6 18 C 6 18.583, 9.333 19, 14 19 C 18.667 19, 22 18.583, 22 18 C 22 17.417, 18.667 17, 14 17 C 9.333 17, 6 17.417, 6 18" stroke="none" fill="black" fill-rule="evenodd"/>
</svg>