<svg viewBox="0 0 24 24" xmlns="http://www.w3.org/2000/svg" fill="none" stroke="#000000" stroke-width="2" stroke-linecap="round" stroke-linejoin="round"><path d="M6.695 5.057 C 6.466 5.129,6.256 5.299,6.128 5.516 C 6.037 5.672,6.020 5.746,6.020 6.000 C 6.020 6.256,6.036 6.328,6.131 6.489 C 6.256 6.702,6.449 6.864,6.670 6.943 C 6.893 7.022,21.107 7.022,21.330 6.943 C 21.551 6.864,21.744 6.702,21.869 6.489 C 21.964 6.328,21.980 6.256,21.980 6.000 C 21.980 5.746,21.963 5.672,21.872 5.516 C 21.740 5.293,21.533 5.128,21.290 5.055 C 21.027 4.976,6.947 4.978,6.695 5.057 M2.670 7.061 C 2.448 7.142,2.250 7.309,2.128 7.516 C 2.036 7.672,2.020 7.745,2.021 8.000 C 2.021 8.212,2.043 8.341,2.095 8.440 C 2.135 8.517,2.936 9.350,3.874 10.290 L 5.579 12.000 3.874 13.710 C 2.936 14.650,2.138 15.481,2.101 15.555 C 1.872 16.010,2.056 16.601,2.508 16.867 C 2.673 16.964,2.743 16.980,3.000 16.980 C 3.254 16.980,3.327 16.964,3.480 16.873 C 3.579 16.813,4.506 15.918,5.540 14.883 L 7.420 13.000 14.300 12.998 C 19.943 12.997,21.207 12.987,21.330 12.943 C 21.551 12.864,21.744 12.702,21.869 12.489 C 21.964 12.328,21.980 12.256,21.980 12.000 C 21.980 11.746,21.963 11.672,21.872 11.516 C 21.740 11.293,21.533 11.128,21.290 11.055 C 21.138 11.009,19.947 11.000,14.265 11.000 L 7.423 11.000 5.481 9.065 C 3.736 7.326,3.520 7.124,3.343 7.065 C 3.107 6.987,2.875 6.986,2.670 7.061 M6.695 17.057 C 6.466 17.129,6.256 17.299,6.128 17.516 C 6.037 17.672,6.020 17.746,6.020 18.000 C 6.020 18.256,6.036 18.328,6.131 18.489 C 6.256 18.702,6.449 18.864,6.670 18.943 C 6.893 19.022,21.107 19.022,21.330 18.943 C 21.551 18.864,21.744 18.702,21.869 18.489 C 21.964 18.328,21.980 18.256,21.980 18.000 C 21.980 17.746,21.963 17.672,21.872 17.516 C 21.740 17.293,21.533 17.128,21.290 17.055 C 21.027 16.976,6.947 16.978,6.695 17.057 " stroke="none" fill="black" fill-rule="evenodd"></path></svg>