<svg xmlns="http://www.w3.org/2000/svg" width="24" height="24" viewBox="0 0 24 24" version="1.1">
	<path d="M 5.826 7 C 4.442 7, 2.565 7.823, 1.655 8.829 C 0.745 9.835, -0 11.340, -0 12.174 C 0 13.008, 0.823 14.435, 1.829 15.345 C 2.835 16.255, 4.534 17, 5.606 17 C 6.678 17, 8.583 16.280, 9.839 15.400 C 11.932 13.934, 12.270 13.934, 13.890 15.400 C 14.862 16.280, 16.781 17, 18.154 17 C 19.528 17, 21.630 15.958, 22.826 14.686 C 24.022 13.413, 25 11.586, 25 10.627 C 25 9.667, 24.601 9.129, 24.113 9.430 C 23.626 9.731, 22.671 9.308, 21.991 8.489 C 21.311 7.670, 19.785 7, 18.600 7 C 17.415 7, 15.417 7.720, 14.161 8.600 C 12.068 10.066, 11.730 10.066, 10.110 8.600 C 9.138 7.720, 7.210 7, 5.826 7 M 6 9 C 5.035 9, 3.685 9.675, 3 10.500 C 2.007 11.697, 2.007 12.303, 3 13.500 C 3.685 14.325, 4.779 15, 5.431 15 C 6.084 15, 7.474 14.374, 8.521 13.608 C 10.138 12.426, 10.224 11.975, 9.090 10.608 C 8.356 9.724, 6.965 9, 6 9 M 18.569 9 C 17.916 9, 16.526 9.626, 15.479 10.392 C 13.862 11.574, 13.776 12.025, 14.910 13.392 C 15.644 14.276, 17.035 15, 18 15 C 18.965 15, 20.315 14.325, 21 13.500 C 21.993 12.303, 21.993 11.697, 21 10.500 C 20.315 9.675, 19.221 9, 18.569 9 M 0.662 10.750 C 0.385 10.063, 0.158 10.625, 0.158 12 C 0.158 13.375, 0.385 13.938, 0.662 13.250 C 0.940 12.563, 0.940 11.438, 0.662 10.750" stroke="none" fill="black" fill-rule="evenodd"/>
</svg>