<svg xmlns="http://www.w3.org/2000/svg" width="24" height="24" viewBox="0 0 24 24" version="1.1">
	<path d="M 12.233 2.212 C 5.103 1.991, 2.845 2.241, 2.440 3.296 C 2.151 4.050, 2.046 8.455, 2.207 13.084 L 2.500 21.500 12 21.500 L 21.500 21.500 21.500 12 L 21.500 2.500 12.233 2.212 M 12 4 L 4 4 4 12 L 4 20 12 20 L 20 20 20 12 L 20 4 12 4 M 12 9.267 C 7.583 9.267, 7.333 9.413, 7.333 12 C 7.333 14.587, 7.583 14.733, 12 14.733 C 16.417 14.733, 16.667 14.587, 16.667 12 C 16.667 9.413, 16.417 9.267, 12 9.267 M 12 11 C 11.450 11, 11 11.450, 11 12 C 11 12.550, 11.450 13, 12 13 C 12.550 13, 13 12.550, 13 12 C 13 11.450, 12.550 11, 12 11" stroke="none" fill="black" fill-rule="evenodd"/>
</svg>