<svg xmlns="http://www.w3.org/2000/svg" width="24" height="24" viewBox="0 0 24 24" version="1.1">
	<path d="M 1.655 8.829 C -0.496 11.206, -0.440 13.291, 1.829 15.345 C 4.135 17.432, 6.910 17.452, 9.839 15.400 C 11.932 13.934, 12.270 13.934, 13.890 15.400 C 16.416 17.686, 20.299 17.376, 22.826 14.686 C 24.917 12.459, 25.935 8.304, 24.113 9.430 C 23.626 9.731, 22.671 9.308, 21.991 8.489 C 20.379 6.547, 17.024 6.594, 14.161 8.600 C 12.068 10.066, 11.730 10.066, 10.110 8.600 C 7.750 6.463, 3.696 6.573, 1.655 8.829 M 3 10.500 C 2.007 11.697, 2.007 12.303, 3 13.500 C 4.550 15.368, 6.073 15.398, 8.521 13.608 C 10.138 12.426, 10.224 11.975, 9.090 10.608 C 7.414 8.589, 4.627 8.540, 3 10.500 M 15.479 10.392 C 13.862 11.574, 13.776 12.025, 14.910 13.392 C 16.586 15.411, 19.373 15.460, 21 13.500 C 21.993 12.303, 21.993 11.697, 21 10.500 C 19.450 8.632, 17.927 8.602, 15.479 10.392 M 0.158 12 C 0.158 13.375, 0.385 13.938, 0.662 13.250 C 0.940 12.563, 0.940 11.438, 0.662 10.750 C 0.385 10.063, 0.158 10.625, 0.158 12" stroke="none" fill="black" fill-rule="evenodd"/>
</svg>