<svg xmlns="http://www.w3.org/2000/svg" width="24" height="24" viewBox="0 0 24 24" version="1.1">
	<path d="M 11.826 1 C 5.815 1, 3.979 1.366, 2.655 2.829 C 1.424 4.189, 1 6.583, 1 12.174 C 1 18.185, 1.366 20.021, 2.829 21.345 C 4.189 22.576, 6.583 23, 12.174 23 C 18.185 23, 20.021 22.634, 21.345 21.171 C 22.576 19.811, 23 17.417, 23 11.826 C 23 5.815, 22.634 3.979, 21.171 2.655 C 19.811 1.424, 17.417 1, 11.826 1 M 12 3 C 8.200 3, 4.891 3.509, 4.200 4.200 C 3.509 4.891, 3 8.200, 3 12 C 3 15.800, 3.509 19.109, 4.200 19.800 C 4.891 20.491, 8.200 21, 12 21 C 15.800 21, 19.109 20.491, 19.800 19.800 C 20.491 19.109, 21 15.800, 21 12 C 21 8.200, 20.491 4.891, 19.800 4.200 C 19.109 3.509, 15.800 3, 12 3 M 18.085 5.553 C 17.564 5.231, 16.875 5.394, 16.553 5.915 C 16.231 6.436, 16.394 7.125, 16.915 7.447 C 17.436 7.769, 18.125 7.606, 18.447 7.085 C 18.769 6.564, 18.606 5.875, 18.085 5.553 M 12 7 C 10.979 7, 9.436 7.707, 8.571 8.571 C 7.707 9.436, 7 10.979, 7 12 C 7 13.021, 7.707 14.564, 8.571 15.429 C 9.436 16.293, 10.979 17, 12 17 C 13.021 17, 14.564 16.293, 15.429 15.429 C 16.293 14.564, 17 13.021, 17 12 C 17 10.979, 16.293 9.436, 15.429 8.571 C 14.564 7.707, 13.021 7, 12 7 M 12 9 C 11.585 9, 10.666 9.698, 9.958 10.550 C 8.896 11.831, 8.961 12.390, 10.336 13.764 C 11.888 15.317, 12.112 15.317, 13.664 13.764 C 15.039 12.390, 15.104 11.831, 14.042 10.550 C 13.334 9.698, 12.415 9, 12 9" stroke="none" fill="black" fill-rule="evenodd"/>
</svg>