<svg xmlns="http://www.w3.org/2000/svg" width="24" height="24" viewBox="0 0 24 24" version="1.1">
	<path d="M 2.655 2.829 C 0.177 5.567, 0.303 19.060, 2.829 21.345 C 5.567 23.823, 19.060 23.697, 21.345 21.171 C 23.823 18.433, 23.697 4.940, 21.171 2.655 C 18.433 0.177, 4.940 0.303, 2.655 2.829 M 4.200 4.200 C 2.619 5.781, 2.619 18.219, 4.200 19.800 C 4.891 20.491, 8.200 21, 12 21 C 15.800 21, 19.109 20.491, 19.800 19.800 C 21.381 18.219, 21.381 5.781, 19.800 4.200 C 18.219 2.619, 5.781 2.619, 4.200 4.200 M 16.553 5.915 C 16.231 6.436, 16.394 7.125, 16.915 7.447 C 17.436 7.769, 18.125 7.606, 18.447 7.085 C 18.769 6.564, 18.606 5.875, 18.085 5.553 C 17.564 5.231, 16.875 5.394, 16.553 5.915 M 8.571 8.571 C 5.539 11.604, 7.734 17, 12 17 C 14.386 17, 17 14.386, 17 12 C 17 9.614, 14.386 7, 12 7 C 10.979 7, 9.436 7.707, 8.571 8.571 M 9.958 10.550 C 8.896 11.831, 8.961 12.390, 10.336 13.764 C 11.888 15.317, 12.112 15.317, 13.664 13.764 C 15.039 12.390, 15.104 11.831, 14.042 10.550 C 12.423 8.600, 11.577 8.600, 9.958 10.550" stroke="none" fill="black" fill-rule="evenodd"/>
</svg>