<svg viewBox="0 0 24 24" xmlns="http://www.w3.org/2000/svg" fill="none" stroke="#000000" stroke-width="2" stroke-linecap="round" stroke-linejoin="round"><path d="M11.280 1.023 C 11.203 1.032,10.951 1.059,10.720 1.083 C 8.832 1.283,6.991 2.023,5.360 3.235 C 4.751 3.688,3.684 4.755,3.226 5.367 C 0.728 8.714,0.301 13.032,2.097 16.780 C 2.643 17.918,3.276 18.801,4.238 19.762 C 5.199 20.724,6.082 21.357,7.220 21.903 C 10.967 23.699,15.288 23.270,18.637 20.770 C 19.246 20.316,20.316 19.246,20.770 18.637 C 23.744 14.652,23.744 9.348,20.770 5.363 C 20.316 4.755,19.247 3.686,18.640 3.235 C 17.045 2.049,15.365 1.360,13.423 1.096 C 13.000 1.038,11.574 0.990,11.280 1.023 M11.000 3.704 L 11.000 4.329 10.870 4.306 C 10.295 4.206,9.303 4.248,8.541 4.406 C 7.680 4.584,6.575 5.025,6.296 5.302 C 6.119 5.479,6.000 5.759,6.000 6.000 C 6.000 6.562,6.525 7.046,7.074 6.991 C 7.176 6.981,7.449 6.890,7.680 6.790 C 8.634 6.376,9.198 6.263,10.180 6.290 C 10.554 6.301,10.892 6.322,10.930 6.339 C 10.996 6.367,11.000 6.517,11.000 8.684 L 11.000 11.000 7.034 11.000 L 3.069 11.000 3.094 10.761 C 3.208 9.665,3.773 8.137,4.440 7.120 C 5.140 6.053,6.053 5.140,7.120 4.440 C 7.944 3.900,9.191 3.386,10.120 3.205 C 10.351 3.160,10.576 3.115,10.620 3.106 C 10.664 3.097,10.768 3.087,10.850 3.085 L 11.000 3.080 11.000 3.704 M13.889 3.203 C 16.149 3.667,18.243 5.114,19.560 7.120 C 20.227 8.137,20.792 9.665,20.906 10.761 L 20.931 11.000 16.966 11.000 L 13.000 11.000 13.000 8.994 L 13.000 6.988 13.660 7.015 C 14.469 7.048,14.856 7.118,15.397 7.329 C 15.691 7.443,15.874 7.491,16.018 7.491 C 16.575 7.491,17.046 6.974,16.989 6.425 C 16.944 5.990,16.708 5.714,16.187 5.491 C 15.513 5.201,14.812 5.063,13.800 5.019 C 13.481 5.005,13.171 4.975,13.110 4.952 L 13.000 4.910 13.000 3.989 L 13.000 3.069 13.239 3.094 C 13.370 3.107,13.662 3.156,13.889 3.203 M11.000 15.000 L 11.000 17.000 10.570 16.999 C 9.717 16.998,9.101 16.890,8.510 16.639 C 8.191 16.503,7.862 16.481,7.624 16.581 C 7.236 16.743,6.975 17.162,7.011 17.561 C 7.063 18.137,7.442 18.444,8.467 18.741 C 8.966 18.886,9.448 18.955,10.139 18.983 C 10.469 18.996,10.798 19.025,10.870 19.047 L 11.000 19.086 11.000 20.016 L 11.000 20.947 10.750 20.914 C 9.232 20.714,7.609 20.011,6.370 19.019 C 5.670 18.458,4.957 17.668,4.440 16.880 C 3.773 15.863,3.208 14.335,3.094 13.239 L 3.069 13.000 7.034 13.000 L 11.000 13.000 11.000 15.000 M20.906 13.239 C 20.792 14.335,20.227 15.863,19.560 16.880 C 19.038 17.676,18.297 18.493,17.600 19.043 C 16.351 20.028,14.751 20.716,13.250 20.914 L 13.000 20.947 13.000 20.313 L 13.000 19.679 13.170 19.710 C 13.496 19.768,14.715 19.739,15.140 19.663 C 15.990 19.511,17.243 19.065,17.612 18.784 C 18.227 18.315,18.057 17.305,17.321 17.060 C 17.036 16.966,16.803 16.998,16.369 17.193 C 15.396 17.631,14.392 17.817,13.527 17.721 C 13.300 17.696,13.089 17.665,13.057 17.653 C 13.008 17.635,13.000 17.288,13.000 15.316 L 13.000 13.000 16.966 13.000 L 20.931 13.000 20.906 13.239 " stroke="none" fill-rule="evenodd" fill="black"></path></svg>