<svg xmlns="http://www.w3.org/2000/svg" width="24" height="24" viewBox="0 0 24 24" version="1.1">
	<path d="M 7.500 1.894 C 3.457 3.652, 1.500 6.976, 1.500 12.082 C 1.500 16.074, 2.001 17.456, 4.273 19.727 C 6.557 22.011, 7.919 22.500, 12 22.500 C 19.011 22.500, 22.500 19.011, 22.500 12 C 22.500 7.999, 22 6.546, 19.903 4.448 C 17.099 1.644, 10.974 0.383, 7.500 1.894 M 13 3.883 C 13 4.369, 14.012 5.101, 15.250 5.510 L 17.500 6.254 15.250 6.697 C 13.847 6.973, 13 7.865, 13 9.070 C 13 10.655, 13.715 11, 17 11 C 21.760 11, 22.004 9.850, 18.077 5.923 C 15.194 3.040, 13 2.159, 13 3.883 M 3.905 8.184 C 2.502 10.796, 2.727 11, 7 11 C 10.535 11, 11 10.726, 11 8.644 C 11 6.653, 10.520 6.304, 7.905 6.394 C 6.113 6.455, 4.428 7.209, 3.905 8.184 M 3 14.077 C 3 14.669, 4.315 16.469, 5.923 18.077 C 8.806 20.960, 11 21.841, 11 20.117 C 11 19.631, 9.988 18.899, 8.750 18.490 L 6.500 17.746 8.750 17.303 C 10.153 17.027, 11 16.135, 11 14.930 C 11 13.345, 10.285 13, 7 13 C 4.800 13, 3 13.485, 3 14.077 M 13 15.384 C 13 17.436, 13.432 17.733, 16.105 17.523 C 18.915 17.302, 20.944 15.733, 20.985 13.750 C 20.993 13.338, 19.200 13, 17 13 C 13.452 13, 13 13.269, 13 15.384" stroke="none" fill="#000000" fill-rule="evenodd"/>
</svg>