<svg xmlns="http://www.w3.org/2000/svg" width="24" height="24" viewBox="0 0 24 24" version="1.1">
	<path d="M 13.403 1.438 C 11.256 1.210, 8.600 1.416, 7.500 1.894 C 6.400 2.373, 4.600 3.764, 3.500 4.987 C 2.078 6.568, 1.500 8.618, 1.500 12.082 C 1.500 16.074, 2.001 17.456, 4.273 19.727 C 6.557 22.011, 7.919 22.500, 12 22.500 C 16.081 22.500, 17.443 22.011, 19.727 19.727 C 22.011 17.443, 22.500 16.081, 22.500 12 C 22.500 7.999, 22 6.546, 19.903 4.448 C 18.256 2.802, 15.876 1.699, 13.403 1.438 M 14.077 3 C 13.485 3, 13 3.398, 13 3.883 C 13 4.369, 14.012 5.101, 15.250 5.510 L 17.500 6.254 15.250 6.697 C 13.847 6.973, 13 7.865, 13 9.070 C 13 10.655, 13.715 11, 17 11 C 19.200 11, 21 10.515, 21 9.923 C 21 9.331, 19.685 7.531, 18.077 5.923 C 16.469 4.315, 14.669 3, 14.077 3 M 7.905 6.394 C 6.113 6.455, 4.428 7.209, 3.905 8.184 C 3.407 9.111, 3 10.123, 3 10.434 C 3 10.745, 4.800 11, 7 11 C 10.535 11, 11 10.726, 11 8.644 C 11 6.653, 10.520 6.304, 7.905 6.394 M 7 13 C 4.800 13, 3 13.485, 3 14.077 C 3 14.669, 4.315 16.469, 5.923 18.077 C 7.531 19.685, 9.331 21, 9.923 21 C 10.515 21, 11 20.602, 11 20.117 C 11 19.631, 9.988 18.899, 8.750 18.490 L 6.500 17.746 8.750 17.303 C 10.153 17.027, 11 16.135, 11 14.930 C 11 13.345, 10.285 13, 7 13 M 17 13 C 13.452 13, 13 13.269, 13 15.384 C 13 17.436, 13.432 17.733, 16.105 17.523 C 17.812 17.389, 19.606 16.654, 20.089 15.889 C 20.573 15.125, 20.976 14.162, 20.985 13.750 C 20.993 13.338, 19.200 13, 17 13" stroke="none" fill="black" fill-rule="evenodd"/>
</svg>