<svg xmlns="http://www.w3.org/2000/svg" width="24" height="24" viewBox="0 0 24 24" version="1.1">
	<path d="M 9 4 C 9 4.550, 9.930 5, 11.067 5 C 13.346 5, 13.285 5.510, 9.992 14 C 8.789 17.103, 7.588 18.599, 6.124 18.820 C 1.807 19.469, 4.178 21, 9.500 21 C 12.525 21, 15 20.550, 15 20 C 15 19.450, 14.070 19, 12.933 19 C 10.654 19, 10.715 18.490, 14.008 10 C 15.211 6.897, 16.412 5.401, 17.876 5.180 C 22.193 4.531, 19.822 3, 14.500 3 C 11.475 3, 9 3.450, 9 4" stroke="none" fill="black" fill-rule="evenodd"/>
</svg>