<svg xmlns="http://www.w3.org/2000/svg" width="24" height="24" viewBox="0 0 24 24" version="1.1">
	<path d="M 14.500 3 C 11.475 3, 9 3.450, 9 4 C 9 4.550, 9.930 5, 11.067 5 C 12.752 5, 13.005 5.417, 12.436 7.250 C 12.052 8.488, 10.952 11.525, 9.992 14 C 8.789 17.103, 7.588 18.599, 6.124 18.820 C 4.956 18.995, 4 19.558, 4 20.070 C 4 20.581, 6.475 21, 9.500 21 C 12.525 21, 15 20.550, 15 20 C 15 19.450, 14.070 19, 12.933 19 C 11.248 19, 10.995 18.583, 11.564 16.750 C 11.948 15.512, 13.048 12.475, 14.008 10 C 15.211 6.897, 16.412 5.401, 17.876 5.180 C 19.044 5.005, 20 4.442, 20 3.930 C 20 3.419, 17.525 3, 14.500 3" stroke="none" fill="black" fill-rule="evenodd"/>
</svg>