<svg xmlns="http://www.w3.org/2000/svg" width="24" height="24" viewBox="0 0 24 24" version="1.1">
	<path d="M 12 -0 C 10.865 -0, 9.655 0.735, 9.311 1.632 C 8.966 2.530, 9.205 4.099, 9.842 5.119 C 10.479 6.139, 11 8.528, 11 10.429 C 11 13.780, 10.871 13.894, 6.750 14.193 C 2.618 14.491, 2.500 14.597, 2.500 18 L 2.500 21.500 12 21.500 L 21.500 21.500 21.500 18 C 21.500 14.597, 21.382 14.491, 17.250 14.193 C 13.129 13.894, 13 13.780, 13 10.429 C 13 8.528, 13.521 6.139, 14.158 5.119 C 14.795 4.099, 15.034 2.530, 14.689 1.632 C 14.345 0.735, 13.135 -0, 12 -0 M 12 16 C 4.667 16, 4 16.167, 4 18 C 4 19.833, 4.667 20, 12 20 C 19.333 20, 20 19.833, 20 18 C 20 16.167, 19.333 16, 12 16" stroke="none" fill="black" fill-rule="evenodd"/>
</svg>