<svg xmlns="http://www.w3.org/2000/svg" width="24" height="24" viewBox="0 0 24 24" version="1.1">
	<path d="M 8.571 2.571 C 6.423 4.720, 6.599 7.677, 9 9.732 C 12.297 12.555, 11.567 14.832, 7.250 15.190 C 3.994 15.459, 3.458 15.862, 3.184 18.250 L 2.867 21 12 21 L 21.133 21 20.816 18.250 C 20.542 15.862, 20.006 15.459, 16.750 15.190 C 12.433 14.832, 11.703 12.555, 15 9.732 C 17.401 7.677, 17.577 4.720, 15.429 2.571 C 13.422 0.564, 10.578 0.564, 8.571 2.571 M 9.958 4.550 C 8.896 5.831, 8.961 6.390, 10.336 7.764 C 11.888 9.317, 12.112 9.317, 13.664 7.764 C 15.039 6.390, 15.104 5.831, 14.042 4.550 C 13.334 3.698, 12.415 3, 12 3 C 11.585 3, 10.666 3.698, 9.958 4.550 M 5 18 C 5 18.571, 8 19, 12 19 C 16 19, 19 18.571, 19 18 C 19 17.429, 16 17, 12 17 C 8 17, 5 17.429, 5 18" stroke="none" fill="black" fill-rule="evenodd"/>
</svg>