<svg xmlns="http://www.w3.org/2000/svg" width="24" height="24" viewBox="0 0 24 24" version="1.1">
	<path d="M 12 1 C 10.979 1, 9.436 1.707, 8.571 2.571 C 7.707 3.436, 7 5.015, 7 6.081 C 7 7.147, 7.900 8.790, 9 9.732 C 10.100 10.674, 11 12.217, 11 13.162 C 11 14.425, 10.007 14.961, 7.250 15.190 C 3.994 15.459, 3.458 15.862, 3.184 18.250 L 2.867 21 12 21 L 21.133 21 20.816 18.250 C 20.542 15.862, 20.006 15.459, 16.750 15.190 C 13.993 14.961, 13 14.425, 13 13.162 C 13 12.217, 13.900 10.674, 15 9.732 C 16.100 8.790, 17 7.147, 17 6.081 C 17 5.015, 16.293 3.436, 15.429 2.571 C 14.564 1.707, 13.021 1, 12 1 M 12 3 C 11.585 3, 10.666 3.698, 9.958 4.550 C 8.896 5.831, 8.961 6.390, 10.336 7.764 C 11.888 9.317, 12.112 9.317, 13.664 7.764 C 15.039 6.390, 15.104 5.831, 14.042 4.550 C 13.334 3.698, 12.415 3, 12 3 M 12 17 C 8 17, 5 17.429, 5 18 C 5 18.571, 8 19, 12 19 C 16 19, 19 18.571, 19 18 C 19 17.429, 16 17, 12 17" stroke="none" fill="black" fill-rule="evenodd"/>
</svg>