<svg xmlns="http://www.w3.org/2000/svg" width="24" height="24" viewBox="0 0 24 24" version="1.1">
	<path d="M 19.203 3 C 18.765 3, 16.714 4.733, 14.646 6.850 C 11.903 9.659, 10.268 10.583, 8.601 10.264 C 7.297 10.015, 5.604 10.539, 4.658 11.485 C 3.746 12.397, 3 13.979, 3 15 C 3 16.021, 3.707 17.564, 4.571 18.429 C 5.436 19.293, 6.979 20, 8 20 C 9.021 20, 10.603 19.254, 11.515 18.342 C 12.478 17.379, 12.986 15.706, 12.726 14.349 C 12.481 13.064, 12.835 11.552, 13.513 10.989 C 14.191 10.426, 15.530 10.266, 16.489 10.634 C 17.931 11.188, 18.108 10.915, 17.517 9.053 C 16.886 7.065, 17.065 6.886, 19.053 7.517 C 20.898 8.102, 21.185 7.925, 20.651 6.534 C 20.293 5.600, 20 4.423, 20 3.918 C 20 3.413, 19.641 3, 19.203 3 M 8 12 C 7.585 12, 6.666 12.698, 5.958 13.550 C 4.896 14.831, 4.961 15.390, 6.336 16.764 C 7.888 18.317, 8.112 18.317, 9.664 16.764 C 11.039 15.390, 11.104 14.831, 10.042 13.550 C 9.334 12.698, 8.415 12, 8 12" stroke="none" fill="black" fill-rule="evenodd"/>
</svg>