<svg xmlns="http://www.w3.org/2000/svg" width="24" height="24" viewBox="0 0 24 24" version="1.1">
	<path d="M 14.646 6.850 C 11.903 9.659, 10.268 10.583, 8.601 10.264 C 4.112 9.406, 1.283 15.140, 4.571 18.429 C 7.885 21.742, 13.594 18.885, 12.726 14.349 C 12.193 11.558, 14.069 9.705, 16.489 10.634 C 17.931 11.188, 18.108 10.915, 17.517 9.053 C 16.886 7.065, 17.065 6.886, 19.053 7.517 C 20.898 8.102, 21.185 7.925, 20.651 6.534 C 20.293 5.600, 20 4.423, 20 3.918 C 20 2.144, 18.370 3.037, 14.646 6.850 M 5.958 13.550 C 4.896 14.831, 4.961 15.390, 6.336 16.764 C 7.888 18.317, 8.112 18.317, 9.664 16.764 C 11.039 15.390, 11.104 14.831, 10.042 13.550 C 8.423 11.600, 7.577 11.600, 5.958 13.550" stroke="none" fill="#000000" fill-rule="evenodd"/>
</svg>