<svg xmlns="http://www.w3.org/2000/svg" width="24" height="24" viewBox="0 0 24 24" version="1.1">
	<path d="M 21.315 1 C 20.821 1, 18.466 2.987, 16.082 5.417 C 12.290 9.280, 11.339 9.767, 8.486 9.304 C 6.027 8.905, 4.706 9.294, 3.113 10.887 C 1.951 12.049, 1 14.125, 1 15.500 C 1 16.875, 1.900 18.900, 3 20 C 4.100 21.100, 6.125 22, 7.500 22 C 8.875 22, 10.951 21.049, 12.113 19.887 C 13.708 18.292, 14.095 16.974, 13.695 14.505 C 13.403 12.707, 13.661 10.739, 14.268 10.132 C 15.074 9.326, 15.816 9.429, 17.013 10.512 C 18.480 11.839, 18.901 11.734, 20.974 9.528 C 22.798 7.586, 23.045 6.759, 22.130 5.656 C 21.489 4.885, 21.246 3.521, 21.590 2.627 C 21.933 1.732, 21.810 1, 21.315 1 M 19.059 6 C 18.541 6, 17.859 6.419, 17.543 6.931 C 17.226 7.443, 17.362 8.106, 17.844 8.404 C 18.326 8.702, 19.009 8.658, 19.361 8.306 C 19.712 7.954, 20 7.292, 20 6.833 C 20 6.375, 19.577 6, 19.059 6 M 7.500 11 C 6.754 11, 5.436 11.707, 4.571 12.571 C 3.707 13.436, 3 14.754, 3 15.500 C 3 16.246, 3.707 17.564, 4.571 18.429 C 5.436 19.293, 6.754 20, 7.500 20 C 8.246 20, 9.564 19.293, 10.429 18.429 C 11.293 17.564, 12 16.246, 12 15.500 C 12 14.754, 11.293 13.436, 10.429 12.571 C 9.564 11.707, 8.246 11, 7.500 11" stroke="none" fill="black" fill-rule="evenodd"/>
</svg>