<svg xmlns="http://www.w3.org/2000/svg" width="24" height="24" viewBox="0 0 24 24" version="1.1">
	<path d="M 16.082 5.417 C 12.290 9.280, 11.339 9.767, 8.486 9.304 C 2.289 8.298, -1.437 15.563, 3 20 C 7.441 24.441, 14.702 20.711, 13.695 14.505 C 13.029 10.404, 14.688 8.408, 17.013 10.512 C 18.480 11.839, 18.901 11.734, 20.974 9.528 C 22.798 7.586, 23.045 6.759, 22.130 5.656 C 21.489 4.885, 21.246 3.521, 21.590 2.627 C 22.681 -0.217, 20.552 0.862, 16.082 5.417 M 17.543 6.931 C 16.860 8.036, 18.437 9.230, 19.361 8.306 C 20.311 7.355, 20.134 6, 19.059 6 C 18.541 6, 17.859 6.419, 17.543 6.931 M 4.571 12.571 C 2.577 14.566, 2.577 16.434, 4.571 18.429 C 5.436 19.293, 6.754 20, 7.500 20 C 9.251 20, 12 17.251, 12 15.500 C 12 13.749, 9.251 11, 7.500 11 C 6.754 11, 5.436 11.707, 4.571 12.571" stroke="none" fill="black" fill-rule="evenodd"/>
</svg>