<svg xmlns="http://www.w3.org/2000/svg" width="24" height="24" viewBox="0 0 24 24" version="1.1">
	<path d="M 1.435 4.308 C 1.144 5.067, 1.040 9.020, 1.203 13.094 L 1.500 20.500 12 20.500 L 22.500 20.500 22.500 12 L 22.500 3.500 12.232 3.215 C 4.230 2.993, 1.847 3.234, 1.435 4.308 M 3 12 L 3 19 12 19 L 21 19 21 12 L 21 5 12 5 L 3 5 3 12 M 5 8 C 5 8.550, 5.450 9, 6 9 C 6.550 9, 7 8.550, 7 8 C 7 7.450, 6.550 7, 6 7 C 5.450 7, 5 7.450, 5 8 M 9 8 C 9 8.550, 9.450 9, 10 9 C 10.550 9, 11 8.550, 11 8 C 11 7.450, 10.550 7, 10 7 C 9.450 7, 9 7.450, 9 8 M 13 8 C 13 8.550, 13.450 9, 14 9 C 14.550 9, 15 8.550, 15 8 C 15 7.450, 14.550 7, 14 7 C 13.450 7, 13 7.450, 13 8 M 17 8 C 17 8.550, 17.450 9, 18 9 C 18.550 9, 19 8.550, 19 8 C 19 7.450, 18.550 7, 18 7 C 17.450 7, 17 7.450, 17 8 M 5 12 C 5 12.550, 5.450 13, 6 13 C 6.550 13, 7 12.550, 7 12 C 7 11.450, 6.550 11, 6 11 C 5.450 11, 5 11.450, 5 12 M 9 12 C 9 12.550, 9.450 13, 10 13 C 10.550 13, 11 12.550, 11 12 C 11 11.450, 10.550 11, 10 11 C 9.450 11, 9 11.450, 9 12 M 13 12 C 13 12.550, 13.450 13, 14 13 C 14.550 13, 15 12.550, 15 12 C 15 11.450, 14.550 11, 14 11 C 13.450 11, 13 11.450, 13 12 M 17 12 C 17 12.550, 17.450 13, 18 13 C 18.550 13, 19 12.550, 19 12 C 19 11.450, 18.550 11, 18 11 C 17.450 11, 17 11.450, 17 12 M 7 16 C 7 16.550, 9.250 17, 12 17 C 14.750 17, 17 16.550, 17 16 C 17 15.450, 14.750 15, 12 15 C 9.250 15, 7 15.450, 7 16" stroke="none" fill="#000000" fill-rule="evenodd"/>
</svg>