<svg xmlns="http://www.w3.org/2000/svg" width="24" height="24" viewBox="0 0 24 24" version="1.1">
	<path d="M 1.422 4.341 C 1.121 5.128, 1.015 7.735, 1.187 10.136 L 1.500 14.500 9 14.500 C 15.309 14.500, 16.618 14.788, 17.243 16.317 C 17.761 17.585, 18.818 18.038, 20.743 17.817 C 23.343 17.518, 23.500 17.214, 23.500 12.500 C 23.500 7.611, 23.433 7.500, 20.500 7.500 C 18.347 7.500, 17.347 6.935, 16.958 5.500 C 16.490 3.772, 15.433 3.460, 9.194 3.206 C 3.653 2.980, 1.843 3.245, 1.422 4.341 M 3 9 L 3 13 9 13 L 15 13 15 9 L 15 5 9 5 L 3 5 3 9 M 4 7 C 4 7.550, 4.450 8, 5 8 C 5.550 8, 6 7.550, 6 7 C 6 6.450, 5.550 6, 5 6 C 4.450 6, 4 6.450, 4 7 M 7 7 C 7 7.550, 7.450 8, 8 8 C 8.550 8, 9 7.550, 9 7 C 9 6.450, 8.550 6, 8 6 C 7.450 6, 7 6.450, 7 7 M 10 7 C 10 7.550, 10.450 8, 11 8 C 11.550 8, 12 7.550, 12 7 C 12 6.450, 11.550 6, 11 6 C 10.450 6, 10 6.450, 10 7 M 19 13.667 C 19 15.074, 19.595 16, 20.500 16 C 21.405 16, 22 15.074, 22 13.667 C 22 12.259, 21.405 11.333, 20.500 11.333 C 19.595 11.333, 19 12.259, 19 13.667" stroke="none" fill="black" fill-rule="evenodd"/>
</svg>