<svg xmlns="http://www.w3.org/2000/svg" width="24" height="24" viewBox="0 0 24 24" version="1.1">
	<path d="M 3 1 C 2.450 1, 2 3.292, 2 6.094 C 2 10.346, 2.330 11.274, 4 11.710 C 5.688 12.152, 6 13.074, 6 17.617 C 6 20.577, 6.450 23, 7 23 C 7.550 23, 8 20.577, 8 17.617 C 8 13.074, 8.312 12.152, 10 11.710 C 11.670 11.274, 12 10.346, 12 6.094 C 12 3.292, 11.550 1, 11 1 C 10.450 1, 10 3.025, 10 5.500 C 10 7.975, 9.550 10, 9 10 C 8.450 10, 8 7.975, 8 5.500 C 8 3.025, 7.550 1, 7 1 C 6.450 1, 6 3.025, 6 5.500 C 6 7.975, 5.550 10, 5 10 C 4.450 10, 4 7.975, 4 5.500 C 4 3.025, 3.550 1, 3 1" stroke="none" fill="black" fill-rule="evenodd"/>
</svg>