<svg xmlns="http://www.w3.org/2000/svg" width="24" height="24" viewBox="0 0 24 24" version="1.1">
	<path d="M 12 1 C 9.250 1, 7 1.450, 7 2 C 7 2.550, 7.900 3, 9 3 C 10.758 3, 11 3.667, 11 8.500 C 11 12.378, 10.612 14, 9.685 14 C 8.962 14, 7.612 15.590, 6.685 17.534 C 5.758 19.478, 5 21.503, 5 22.034 C 5 22.565, 8.150 23, 12 23 C 15.850 23, 19 22.565, 19 22.034 C 19 21.503, 18.242 19.478, 17.315 17.534 C 16.388 15.590, 15.038 14, 14.315 14 C 13.388 14, 13 12.378, 13 8.500 C 13 3.667, 13.242 3, 15 3 C 16.100 3, 17 2.550, 17 2 C 17 1.450, 14.750 1, 12 1 M 12 16 C 10.939 16, 9.605 16.870, 9.035 17.934 C 8.466 18.998, 8 20.123, 8 20.434 C 8 20.745, 9.800 21, 12 21 C 14.200 21, 16 20.745, 16 20.434 C 16 20.123, 15.534 18.998, 14.965 17.934 C 14.395 16.870, 13.061 16, 12 16" stroke="none" fill="black" fill-rule="evenodd"/>
</svg>