<svg xmlns="http://www.w3.org/2000/svg" width="24" height="24" viewBox="0 0 24 24" version="1.1">
	<path d="M 6.685 4.534 C 4.382 9.363, 4.536 10, 8 10 C 10.970 10, 11 10.056, 11 15.500 C 11 20.333, 10.758 21, 9 21 C 7.900 21, 7 21.450, 7 22 C 7 22.550, 9.250 23, 12 23 C 14.750 23, 17 22.550, 17 22 C 17 21.450, 16.100 21, 15 21 C 13.242 21, 13 20.333, 13 15.500 C 13 10.056, 13.030 10, 16 10 C 19.464 10, 19.618 9.363, 17.315 4.534 C 15.843 1.447, 15.170 1, 12 1 C 8.830 1, 8.157 1.447, 6.685 4.534 M 9.035 4.934 C 7.489 7.824, 7.659 8, 12 8 C 16.341 8, 16.511 7.824, 14.965 4.934 C 13.633 2.446, 10.367 2.446, 9.035 4.934" stroke="none" fill="black" fill-rule="evenodd"/>
</svg>