<svg xmlns="http://www.w3.org/2000/svg" width="24" height="24" viewBox="0 0 24 24" version="1.1">
	<path d="M 5.133 6.133 C 3.960 8.957, 3 11.657, 3 12.133 C 3 12.610, 4.800 13, 7 13 C 10.251 13, 11 13.353, 11 14.883 C 11 15.926, 10.107 17, 9 17.290 C 7.649 17.643, 7 18.654, 7 20.406 C 7 22.852, 7.285 23, 12 23 C 16.715 23, 17 22.852, 17 20.406 C 17 18.654, 16.351 17.643, 15 17.290 C 13.893 17, 13 15.926, 13 14.883 C 13 13.353, 13.749 13, 17 13 C 19.200 13, 21 12.610, 21 12.133 C 21 11.657, 20.040 8.957, 18.867 6.133 L 16.733 1 12 1 L 7.267 1 5.133 6.133 M 7.449 6.468 C 6.652 8.375, 6 10.175, 6 10.468 C 6 10.761, 8.700 11, 12 11 C 15.300 11, 18 10.761, 18 10.468 C 18 10.175, 17.348 8.375, 16.551 6.468 C 15.339 3.567, 14.595 3, 12 3 C 9.405 3, 8.661 3.567, 7.449 6.468 M 9 20 C 9 20.550, 10.350 21, 12 21 C 13.650 21, 15 20.550, 15 20 C 15 19.450, 13.650 19, 12 19 C 10.350 19, 9 19.450, 9 20" stroke="none" fill="black" fill-rule="evenodd"/>
</svg>