<svg viewBox="0 0 24 24" xmlns="http://www.w3.org/2000/svg" fill="none" stroke="#000000" stroke-width="2" stroke-linecap="round" stroke-linejoin="round"><path d="M8.643 1.069 C 8.238 1.212,8.291 1.107,6.580 5.100 C 5.022 8.736,5.020 8.740,5.020 9.020 C 5.020 9.254,5.038 9.331,5.131 9.489 C 5.256 9.702,5.449 9.864,5.670 9.943 C 5.789 9.986,6.351 9.997,8.410 9.998 L 11.000 10.000 11.000 15.500 L 11.000 21.000 9.446 21.000 C 7.758 21.000,7.658 21.011,7.382 21.221 C 7.302 21.282,7.187 21.415,7.128 21.516 C 7.037 21.672,7.020 21.746,7.020 22.000 C 7.020 22.256,7.036 22.328,7.131 22.489 C 7.256 22.702,7.449 22.864,7.670 22.943 C 7.892 23.022,16.108 23.022,16.330 22.943 C 16.551 22.864,16.744 22.702,16.869 22.489 C 16.964 22.328,16.980 22.256,16.980 22.000 C 16.980 21.746,16.963 21.672,16.872 21.516 C 16.813 21.415,16.698 21.282,16.618 21.221 C 16.342 21.011,16.242 21.000,14.554 21.000 L 13.000 21.000 13.000 15.500 L 13.000 10.000 15.573 10.000 C 18.478 10.000,18.394 10.008,18.702 9.700 C 18.906 9.496,19.017 9.196,18.991 8.922 C 18.978 8.788,18.512 7.656,17.416 5.096 C 16.021 1.837,15.843 1.443,15.697 1.296 C 15.391 0.987,15.544 1.000,11.983 1.003 C 9.226 1.006,8.797 1.014,8.643 1.069 M15.407 5.490 L 16.474 7.980 14.237 7.990 C 13.007 7.996,10.993 7.996,9.763 7.990 L 7.526 7.980 8.593 5.490 L 9.659 3.000 12.000 3.000 L 14.341 3.000 15.407 5.490 " stroke="none" fill-rule="evenodd" fill="black"></path></svg>