<svg viewBox="0 0 24 24" xmlns="http://www.w3.org/2000/svg" fill="none" stroke="#000000" stroke-width="2" stroke-linecap="round" stroke-linejoin="round"><path d="M7.695 1.057 C 7.466 1.129,7.256 1.299,7.128 1.516 C 7.037 1.672,7.020 1.746,7.020 2.000 C 7.020 2.256,7.036 2.328,7.131 2.489 C 7.192 2.592,7.304 2.725,7.381 2.783 C 7.654 2.991,7.700 2.996,9.410 2.998 L 11.000 3.000 11.000 8.500 L 11.000 14.000 9.927 14.000 C 8.694 14.000,8.576 14.022,8.303 14.296 C 8.157 14.443,7.979 14.837,6.584 18.096 C 5.488 20.656,5.022 21.788,5.009 21.922 C 4.983 22.196,5.094 22.496,5.298 22.700 C 5.622 23.024,5.093 23.000,12.017 22.998 C 17.061 22.997,18.207 22.987,18.330 22.943 C 18.551 22.864,18.744 22.702,18.869 22.489 C 18.962 22.331,18.980 22.254,18.980 22.020 C 18.980 21.740,18.978 21.736,17.420 18.100 C 16.023 14.840,15.843 14.443,15.697 14.296 C 15.424 14.022,15.306 14.000,14.073 14.000 L 13.000 14.000 13.000 8.500 L 13.000 3.000 14.590 2.998 C 16.300 2.996,16.346 2.991,16.619 2.783 C 16.696 2.725,16.808 2.592,16.869 2.489 C 16.964 2.328,16.980 2.256,16.980 2.000 C 16.980 1.746,16.963 1.672,16.872 1.516 C 16.740 1.293,16.533 1.128,16.290 1.055 C 16.029 0.976,7.946 0.979,7.695 1.057 M15.407 18.490 L 16.474 20.980 14.237 20.990 C 13.007 20.996,10.993 20.996,9.763 20.990 L 7.526 20.980 8.593 18.490 L 9.659 16.000 12.000 16.000 L 14.341 16.000 15.407 18.490 " stroke="none" fill-rule="evenodd" fill="black"></path></svg>