<svg xmlns="http://www.w3.org/2000/svg" width="24" height="24" viewBox="0 0 24 24" version="1.1">
	<path d="M 1.431 3.320 C 1.137 4.085, 1.033 7.588, 1.199 11.105 L 1.500 17.500 12 17.500 L 22.500 17.500 22.500 10 L 22.500 2.500 12.232 2.215 C 4.190 1.991, 1.849 2.231, 1.431 3.320 M 3 10 L 3 16 12 16 L 21 16 21 10 L 21 4 12 4 L 3 4 3 10 M 1 20 C 1 20.606, 5.333 21, 12 21 C 18.667 21, 23 20.606, 23 20 C 23 19.394, 18.667 19, 12 19 C 5.333 19, 1 19.394, 1 20" stroke="none" fill="#000000" fill-rule="evenodd"/>
</svg>