<svg xmlns="http://www.w3.org/2000/svg" width="24" height="24" viewBox="0 0 24 24" version="1.1">
	<path d="M 1 4.800 C 1 7.143, 3.967 8, 12.078 8 C 18.632 8, 21.065 7.627, 22.020 6.476 C 23.554 4.628, 22.452 3.148, 20.783 4.817 C 19.330 6.270, 4.383 6.428, 3.500 5 C 2.762 3.807, 1 3.666, 1 4.800 M 1 9.800 C 1 12.143, 3.967 13, 12.078 13 C 18.632 13, 21.065 12.627, 22.020 11.476 C 23.554 9.628, 22.452 8.148, 20.783 9.817 C 19.330 11.270, 4.383 11.428, 3.500 10 C 2.762 8.807, 1 8.666, 1 9.800 M 1 14.800 C 1 17.143, 3.967 18, 12.078 18 C 18.632 18, 21.065 17.627, 22.020 16.476 C 23.554 14.628, 22.452 13.148, 20.783 14.817 C 19.330 16.270, 4.383 16.428, 3.500 15 C 2.762 13.807, 1 13.666, 1 14.800" stroke="none" fill="#000000" fill-rule="evenodd"/>
</svg>