<svg xmlns="http://www.w3.org/2000/svg" width="24" height="24" viewBox="0 0 24 24" version="1.1">
	<path d="M 11.728 1.061 C 11.603 1.094, 9.138 2.312, 6.250 3.768 C 3.362 5.223, 1 6.677, 1 6.999 C 1 7.320, 3.475 8.797, 6.500 10.281 L 12 12.978 17.500 10.281 C 20.525 8.797, 23 7.321, 23 7 C 23 6.679, 20.515 5.198, 17.478 3.708 C 14.441 2.219, 11.853 1.027, 11.728 1.061 M 11.716 3.064 C 11.597 3.099, 10.038 3.856, 8.250 4.745 C 6.462 5.635, 5 6.648, 5 6.996 C 5 7.345, 6.575 8.381, 8.500 9.299 C 11.769 10.857, 12.231 10.857, 15.500 9.299 C 17.425 8.381, 19 7.346, 19 7 C 19 6.654, 17.410 5.612, 15.466 4.685 C 13.522 3.758, 11.835 3.029, 11.716 3.064 M 1.533 11 C 1.240 11, 1 11.356, 1 11.792 C 1 12.227, 3.475 13.797, 6.500 15.281 L 12 17.978 17.500 15.281 C 20.525 13.797, 23 12.227, 23 11.792 C 23 11.356, 22.760 11, 22.467 11 C 22.173 11, 19.698 12.133, 16.967 13.517 L 12 16.034 7.033 13.517 C 4.302 12.133, 1.827 11, 1.533 11 M 1.533 16 C 1.240 16, 1 16.356, 1 16.792 C 1 17.227, 3.475 18.797, 6.500 20.281 L 12 22.978 17.500 20.281 C 20.525 18.797, 23 17.227, 23 16.792 C 23 16.356, 22.760 16, 22.467 16 C 22.173 16, 19.698 17.133, 16.967 18.517 L 12 21.034 7.033 18.517 C 4.302 17.133, 1.827 16, 1.533 16" stroke="none" fill="black" fill-rule="evenodd"/>
</svg>