<svg xmlns="http://www.w3.org/2000/svg" width="24" height="24" viewBox="0 0 24 24" version="1.1">
	<path d="M 1.941 4 C 1.423 4, 1 4.360, 1 4.800 C 1 5.240, 1.540 6.140, 2.200 6.800 C 2.949 7.549, 6.662 8, 12.078 8 C 18.632 8, 21.065 7.627, 22.020 6.476 C 22.716 5.638, 22.988 4.655, 22.626 4.293 C 22.263 3.930, 21.434 4.166, 20.783 4.817 C 20.076 5.524, 16.486 6, 11.859 6 C 7.601 6, 3.840 5.550, 3.500 5 C 3.160 4.450, 2.459 4, 1.941 4 M 1.941 9 C 1.423 9, 1 9.360, 1 9.800 C 1 10.240, 1.540 11.140, 2.200 11.800 C 2.949 12.549, 6.662 13, 12.078 13 C 18.632 13, 21.065 12.627, 22.020 11.476 C 22.716 10.638, 22.988 9.655, 22.626 9.293 C 22.263 8.930, 21.434 9.166, 20.783 9.817 C 20.076 10.524, 16.486 11, 11.859 11 C 7.601 11, 3.840 10.550, 3.500 10 C 3.160 9.450, 2.459 9, 1.941 9 M 1.941 14 C 1.423 14, 1 14.360, 1 14.800 C 1 15.240, 1.540 16.140, 2.200 16.800 C 2.949 17.549, 6.662 18, 12.078 18 C 18.632 18, 21.065 17.627, 22.020 16.476 C 22.716 15.638, 22.988 14.655, 22.626 14.293 C 22.263 13.930, 21.434 14.166, 20.783 14.817 C 20.076 15.524, 16.486 16, 11.859 16 C 7.601 16, 3.840 15.550, 3.500 15 C 3.160 14.450, 2.459 14, 1.941 14" stroke="none" fill="black" fill-rule="evenodd"/>
</svg>