<svg xmlns="http://www.w3.org/2000/svg" width="24" height="24" viewBox="0 0 24 24" version="1.1">
	<path d="M 6.250 3.768 C 3.362 5.223, 1 6.677, 1 6.999 C 1 7.320, 3.475 8.797, 6.500 10.281 L 12 12.978 17.500 10.281 C 20.525 8.797, 23 7.321, 23 7 C 23 6.499, 12.359 0.892, 11.728 1.061 C 11.603 1.094, 9.138 2.312, 6.250 3.768 M 8.250 4.745 C 6.462 5.635, 5 6.648, 5 6.996 C 5 7.345, 6.575 8.381, 8.500 9.299 C 11.769 10.857, 12.231 10.857, 15.500 9.299 C 17.425 8.381, 19 7.346, 19 7 C 19 6.467, 12.353 2.875, 11.716 3.064 C 11.597 3.099, 10.038 3.856, 8.250 4.745 M 1 11.792 C 1 12.227, 3.475 13.797, 6.500 15.281 L 12 17.978 17.500 15.281 C 20.525 13.797, 23 12.227, 23 11.792 C 23 10.599, 22.367 10.780, 16.967 13.517 L 12 16.034 7.033 13.517 C 1.633 10.780, 1 10.599, 1 11.792 M 1 16.792 C 1 17.227, 3.475 18.797, 6.500 20.281 L 12 22.978 17.500 20.281 C 20.525 18.797, 23 17.227, 23 16.792 C 23 15.599, 22.367 15.780, 16.967 18.517 L 12 21.034 7.033 18.517 C 1.633 15.780, 1 15.599, 1 16.792" stroke="none" fill="#000000" fill-rule="evenodd"/>
</svg>