<svg xmlns="http://www.w3.org/2000/svg" width="24" height="24" viewBox="0 0 24 24" version="1.1">
	<path d="M 12.233 2.212 C 5.103 1.991, 2.845 2.241, 2.440 3.296 C 2.151 4.050, 2.046 8.455, 2.207 13.084 L 2.500 21.500 12 21.500 L 21.500 21.500 21.500 12 L 21.500 2.500 12.233 2.212 M 6 4 C 4.167 4, 4 4.667, 4 12 C 4 19.333, 4.167 20, 6 20 C 7.833 20, 8 19.333, 8 12 C 8 4.667, 7.833 4, 6 4 M 15 4 L 10 4 10 12 L 10 20 15 20 L 20 20 20 12 L 20 4 15 4" stroke="none" fill="black" fill-rule="evenodd"/>
</svg>