<svg viewBox="0 0 24 24" xmlns="http://www.w3.org/2000/svg" fill="none" stroke="#000000" stroke-width="2" stroke-linecap="round" stroke-linejoin="round"><path d="M2.695 2.057 C 2.466 2.129,2.256 2.299,2.128 2.516 L 2.020 2.700 2.020 6.500 L 2.020 10.300 2.131 10.489 C 2.256 10.702,2.449 10.864,2.670 10.943 C 2.891 11.022,10.109 11.022,10.330 10.943 C 10.551 10.864,10.744 10.702,10.869 10.489 L 10.980 10.300 10.980 6.500 L 10.980 2.700 10.872 2.516 C 10.740 2.293,10.533 2.128,10.290 2.055 C 10.030 1.977,2.945 1.979,2.695 2.057 M13.695 3.057 C 13.466 3.129,13.256 3.299,13.128 3.516 C 13.037 3.672,13.020 3.746,13.020 4.000 C 13.020 4.256,13.036 4.328,13.131 4.489 C 13.256 4.702,13.449 4.864,13.670 4.943 C 13.891 5.022,21.109 5.022,21.330 4.943 C 21.551 4.864,21.744 4.702,21.869 4.489 C 21.964 4.328,21.980 4.256,21.980 4.000 C 21.980 3.746,21.963 3.672,21.872 3.516 C 21.740 3.293,21.533 3.128,21.290 3.055 C 21.030 2.977,13.945 2.979,13.695 3.057 M9.000 6.500 L 9.000 9.000 6.500 9.000 L 4.000 9.000 4.000 6.500 L 4.000 4.000 6.500 4.000 L 9.000 4.000 9.000 6.500 M13.695 8.057 C 13.466 8.129,13.256 8.299,13.128 8.516 C 13.037 8.672,13.020 8.746,13.020 9.000 C 13.020 9.256,13.036 9.328,13.131 9.489 C 13.256 9.702,13.449 9.864,13.670 9.943 C 13.891 10.022,21.109 10.022,21.330 9.943 C 21.551 9.864,21.744 9.702,21.869 9.489 C 21.964 9.328,21.980 9.256,21.980 9.000 C 21.980 8.746,21.963 8.672,21.872 8.516 C 21.740 8.293,21.533 8.128,21.290 8.055 C 21.030 7.977,13.945 7.979,13.695 8.057 M2.695 13.057 C 2.466 13.129,2.256 13.299,2.128 13.516 L 2.020 13.700 2.020 17.500 L 2.020 21.300 2.131 21.489 C 2.256 21.702,2.449 21.864,2.670 21.943 C 2.891 22.022,10.109 22.022,10.330 21.943 C 10.551 21.864,10.744 21.702,10.869 21.489 L 10.980 21.300 10.980 17.500 L 10.980 13.700 10.872 13.516 C 10.740 13.293,10.533 13.128,10.290 13.055 C 10.030 12.977,2.945 12.979,2.695 13.057 M13.695 14.057 C 13.466 14.129,13.256 14.299,13.128 14.516 C 13.037 14.672,13.020 14.746,13.020 15.000 C 13.020 15.256,13.036 15.328,13.131 15.489 C 13.256 15.702,13.449 15.864,13.670 15.943 C 13.891 16.022,21.109 16.022,21.330 15.943 C 21.551 15.864,21.744 15.702,21.869 15.489 C 21.964 15.328,21.980 15.256,21.980 15.000 C 21.980 14.746,21.963 14.672,21.872 14.516 C 21.740 14.293,21.533 14.128,21.290 14.055 C 21.030 13.977,13.945 13.979,13.695 14.057 M9.000 17.500 L 9.000 20.000 6.500 20.000 L 4.000 20.000 4.000 17.500 L 4.000 15.000 6.500 15.000 L 9.000 15.000 9.000 17.500 M13.695 19.057 C 13.466 19.129,13.256 19.299,13.128 19.516 C 13.037 19.672,13.020 19.746,13.020 20.000 C 13.020 20.256,13.036 20.328,13.131 20.489 C 13.256 20.702,13.449 20.864,13.670 20.943 C 13.891 21.022,21.109 21.022,21.330 20.943 C 21.551 20.864,21.744 20.702,21.869 20.489 C 21.964 20.328,21.980 20.256,21.980 20.000 C 21.980 19.746,21.963 19.672,21.872 19.516 C 21.740 19.293,21.533 19.128,21.290 19.055 C 21.030 18.977,13.945 18.979,13.695 19.057 " stroke="none" fill="black" fill-rule="evenodd"></path></svg>