<svg xmlns="http://www.w3.org/2000/svg" width="24" height="24" viewBox="0 0 24 24" version="1.1">
	<path d="M 2.440 3.296 C 2.151 4.050, 2.046 8.455, 2.207 13.084 L 2.500 21.500 12 21.500 L 21.500 21.500 21.500 12 L 21.500 2.500 12.233 2.212 C 5.103 1.991, 2.845 2.241, 2.440 3.296 M 4 6 C 4 7.833, 4.667 8, 12 8 C 19.333 8, 20 7.833, 20 6 C 20 4.167, 19.333 4, 12 4 C 4.667 4, 4 4.167, 4 6 M 4 15 L 4 20 12 20 L 20 20 20 15 L 20 10 12 10 L 4 10 4 15" stroke="none" fill="#000000" fill-rule="evenodd"/>
</svg>