<svg xmlns="http://www.w3.org/2000/svg" width="24" height="24" viewBox="0 0 24 24" version="1.1">
	<path d="M 2.440 3.296 C 2.151 4.050, 2.046 8.455, 2.207 13.084 L 2.500 21.500 12 21.500 L 21.500 21.500 21.500 12 L 21.500 2.500 12.233 2.212 C 5.103 1.991, 2.845 2.241, 2.440 3.296 M 4 9 L 4 14 12 14 L 20 14 20 9 L 20 4 12 4 L 4 4 4 9 M 4 18 C 4 19.833, 4.667 20, 12 20 C 19.333 20, 20 19.833, 20 18 C 20 16.167, 19.333 16, 12 16 C 4.667 16, 4 16.167, 4 18" stroke="none" fill="#000000" fill-rule="evenodd"/>
</svg>