<svg xmlns="http://www.w3.org/2000/svg" width="24" height="24" viewBox="0 0 24 24" version="1.1">
	<path d="M 2 6.500 L 2 11 6.500 11 L 11 11 11 6.500 L 11 2 6.500 2 L 2 2 2 6.500 M 13 4 C 13 4.550, 15.025 5, 17.500 5 C 19.975 5, 22 4.550, 22 4 C 22 3.450, 19.975 3, 17.500 3 C 15.025 3, 13 3.450, 13 4 M 4 6.500 C 4 8.500, 4.500 9, 6.500 9 C 8.500 9, 9 8.500, 9 6.500 C 9 4.500, 8.500 4, 6.500 4 C 4.500 4, 4 4.500, 4 6.500 M 13 9 C 13 9.550, 15.025 10, 17.500 10 C 19.975 10, 22 9.550, 22 9 C 22 8.450, 19.975 8, 17.500 8 C 15.025 8, 13 8.450, 13 9 M 2 17.500 L 2 22 6.500 22 L 11 22 11 17.500 L 11 13 6.500 13 L 2 13 2 17.500 M 13 15 C 13 15.550, 15.025 16, 17.500 16 C 19.975 16, 22 15.550, 22 15 C 22 14.450, 19.975 14, 17.500 14 C 15.025 14, 13 14.450, 13 15 M 4 17.500 C 4 19.500, 4.500 20, 6.500 20 C 8.500 20, 9 19.500, 9 17.500 C 9 15.500, 8.500 15, 6.500 15 C 4.500 15, 4 15.500, 4 17.500 M 13 20 C 13 20.550, 15.025 21, 17.500 21 C 19.975 21, 22 20.550, 22 20 C 22 19.450, 19.975 19, 17.500 19 C 15.025 19, 13 19.450, 13 20" stroke="none" fill="black" fill-rule="evenodd"/>
</svg>