<svg xmlns="http://www.w3.org/2000/svg" width="24" height="24" viewBox="0 0 24 24" version="1.1">
	<path d="M 18.899 1 C 18.469 1, 17.844 1.444, 17.508 1.987 C 17.173 2.530, 14.484 3.676, 11.533 4.533 C 8.582 5.391, 5.618 6.755, 4.946 7.565 C 4.274 8.374, 3.357 10.716, 2.907 12.768 C 2.457 14.821, 1.792 17.738, 1.428 19.250 C 1.042 20.857, 1.182 22, 1.767 22 C 2.317 22, 3.003 21.097, 3.291 19.994 C 3.798 18.058, 3.921 18.048, 6.796 19.698 C 9.168 21.059, 10.556 21.213, 13.604 20.454 C 16.243 19.796, 18.142 18.444, 19.716 16.102 C 20.972 14.233, 22 11.217, 22 9.399 C 22 7.581, 21.478 4.948, 20.839 3.547 C 20.201 2.146, 19.328 1, 18.899 1 M 19.363 5.834 C 18.640 4.669, 17.543 4.772, 12.599 6.472 C 8.631 7.835, 6.369 9.240, 5.692 10.760 C 5.139 12.002, 4.987 13.320, 5.355 13.689 C 5.724 14.057, 7.610 13.603, 9.546 12.679 C 11.483 11.756, 13.278 11, 13.534 11 C 13.790 11, 14 11.472, 14 12.049 C 14 12.626, 12.143 13.929, 9.873 14.946 C 5.909 16.720, 5.832 16.840, 7.931 17.963 C 9.134 18.607, 11.394 18.853, 12.955 18.510 C 14.516 18.167, 16.534 17.068, 17.439 16.067 C 18.345 15.067, 19.342 12.668, 19.655 10.736 C 19.969 8.805, 19.837 6.599, 19.363 5.834" stroke="none" fill="black" fill-rule="evenodd"/>
</svg>