<svg xmlns="http://www.w3.org/2000/svg" width="24" height="24" viewBox="0 0 24 24" version="1.1">
	<path d="M 11 2.500 C 11 3.325, 11.450 4, 12 4 C 12.550 4, 13 3.325, 13 2.500 C 13 1.675, 12.550 1, 12 1 C 11.450 1, 11 1.675, 11 2.500 M 6.655 9.254 C 5.415 10.494, 3.636 11.361, 2.700 11.181 C 1.765 11.001, 1 11.336, 1 11.927 C 1 12.517, 1.675 13, 2.500 13 C 3.325 13, 4 13.675, 4 14.500 C 4 15.708, 5.556 16, 12 16 C 18.444 16, 20 15.708, 20 14.500 C 20 13.675, 20.675 13, 21.500 13 C 22.325 13, 23 12.517, 23 11.927 C 23 11.336, 22.235 11.001, 21.300 11.181 C 20.364 11.361, 18.585 10.494, 17.345 9.254 C 14.387 6.296, 9.613 6.296, 6.655 9.254 M 7.750 11.250 L 5.500 13.500 8.750 13.813 C 10.537 13.986, 13.462 13.986, 15.250 13.813 L 18.500 13.500 16.250 11.250 C 15.012 10.012, 13.100 9, 12 9 C 10.900 9, 8.988 10.012, 7.750 11.250 M 11 21.500 C 11 22.325, 11.450 23, 12 23 C 12.550 23, 13 22.325, 13 21.500 C 13 20.675, 12.550 20, 12 20 C 11.450 20, 11 20.675, 11 21.500" stroke="none" fill="#000000" fill-rule="evenodd"/>
</svg>