<svg xmlns="http://www.w3.org/2000/svg" width="24" height="24" viewBox="0 0 24 24" version="1.1">
	<path d="M 17.508 1.987 C 17.173 2.530, 14.484 3.676, 11.533 4.533 C 5.367 6.326, 4.041 7.591, 2.907 12.768 C 2.457 14.821, 1.792 17.738, 1.428 19.250 C 0.670 22.402, 2.473 23.121, 3.291 19.994 C 3.798 18.058, 3.921 18.048, 6.796 19.698 C 15.531 24.711, 25.342 13.428, 20.839 3.547 C 19.616 0.862, 18.520 0.349, 17.508 1.987 M 12.599 6.472 C 8.631 7.835, 6.369 9.240, 5.692 10.760 C 4.254 13.990, 5.498 14.610, 9.546 12.679 C 13.680 10.708, 14 10.663, 14 12.049 C 14 12.626, 12.143 13.929, 9.873 14.946 C 5.909 16.720, 5.832 16.840, 7.931 17.963 C 10.635 19.410, 15.246 18.491, 17.439 16.067 C 19.417 13.882, 20.565 7.773, 19.363 5.834 C 18.640 4.669, 17.543 4.772, 12.599 6.472" stroke="none" fill="black" fill-rule="evenodd"/>
</svg>