<svg xmlns="http://www.w3.org/2000/svg" width="24" height="24" viewBox="0 0 24 24" version="1.1">
	<path d="M 16 3 C 14.350 3, 13 3.450, 13 4 C 13 4.550, 13.450 5, 14 5 C 14.553 5, 15 7.626, 15 10.878 C 15 14.882, 14.522 17.152, 13.500 18 C 12.303 18.993, 11.697 18.993, 10.500 18 C 9.675 17.315, 9 15.910, 9 14.878 C 9 13.845, 8.550 13, 8 13 C 7.450 13, 7 14.093, 7 15.429 C 7 16.764, 7.707 18.564, 8.571 19.429 C 9.436 20.293, 10.979 21, 12 21 C 13.021 21, 14.564 20.293, 15.429 19.429 C 16.531 18.326, 17 15.939, 17 11.429 C 17 7.810, 17.437 5, 18 5 C 18.550 5, 19 4.550, 19 4 C 19 3.450, 17.650 3, 16 3" stroke="none" fill="black" fill-rule="evenodd"/>
</svg>