<svg viewBox="0 0 24 24" xmlns="http://www.w3.org/2000/svg" fill="none" stroke="#000000" stroke-width="2" stroke-linecap="round" stroke-linejoin="round"><path d="M3.695 5.057 C 3.051 5.258,2.799 6.040,3.198 6.591 C 3.263 6.681,3.403 6.805,3.508 6.867 L 3.700 6.980 10.337 7.000 L 16.973 7.020 10.110 12.168 C 2.602 17.799,3.060 17.429,3.012 17.893 C 2.981 18.195,3.084 18.486,3.298 18.700 C 3.625 19.027,2.851 19.000,12.017 18.998 C 18.732 18.997,20.207 18.987,20.330 18.943 C 20.551 18.864,20.744 18.702,20.869 18.489 C 20.964 18.328,20.980 18.256,20.980 18.000 C 20.980 17.746,20.963 17.672,20.872 17.516 C 20.761 17.328,20.572 17.158,20.373 17.070 C 20.285 17.031,18.818 17.016,13.643 17.000 L 7.027 16.980 13.903 11.820 C 20.410 6.937,20.784 6.649,20.879 6.461 C 21.026 6.172,21.022 5.772,20.872 5.516 C 20.740 5.293,20.533 5.128,20.290 5.055 C 20.027 4.976,3.947 4.978,3.695 5.057 " stroke="none" fill-rule="evenodd" fill="black"></path></svg>