<svg xmlns="http://www.w3.org/2000/svg" width="24" height="24" viewBox="0 0 24 24" version="1.1">
	<path d="M 5 12 C 5 17.333, 5.407 21, 6 21 C 6.550 21, 7 19.413, 7 17.473 L 7 13.947 12.237 17.473 C 17.644 21.115, 19 21.642, 19 20.104 C 19 19.612, 16.750 17.765, 14 16 C 11.250 14.235, 9 12.435, 9 12 C 9 11.565, 11.250 9.765, 14 8 C 16.750 6.235, 19 4.388, 19 3.896 C 19 2.358, 17.644 2.885, 12.237 6.527 L 7 10.053 7 6.527 C 7 4.587, 6.550 3, 6 3 C 5.407 3, 5 6.667, 5 12" stroke="none" fill="black" fill-rule="evenodd"/>
</svg>