<svg xmlns="http://www.w3.org/2000/svg" width="24" height="24" viewBox="0 0 24 24" version="1.1">
	<path d="M 7 4 C 7 4.550, 7.900 5, 9 5 C 10.810 5, 11 5.667, 11 12 C 11 18.333, 10.810 19, 9 19 C 7.900 19, 7 19.450, 7 20 C 7 20.550, 9.250 21, 12 21 C 14.750 21, 17 20.550, 17 20 C 17 19.450, 16.100 19, 15 19 C 13.190 19, 13 18.333, 13 12 C 13 5.667, 13.190 5, 15 5 C 16.100 5, 17 4.550, 17 4 C 17 3.450, 14.750 3, 12 3 C 9.250 3, 7 3.450, 7 4" stroke="none" fill="black" fill-rule="evenodd"/>
</svg>