<svg viewBox="0 0 24 24" xmlns="http://www.w3.org/2000/svg" fill="none" stroke="#000000" stroke-width="2" stroke-linecap="round" stroke-linejoin="round"><path d="M3.689 3.059 C 3.457 3.131,3.263 3.287,3.138 3.499 C 2.917 3.877,2.791 3.294,5.033 12.256 C 7.276 21.220,7.103 20.615,7.486 20.851 C 7.872 21.090,8.382 21.025,8.703 20.695 C 8.860 20.533,8.974 20.266,10.424 16.641 C 11.277 14.506,11.987 12.760,12.000 12.760 C 12.013 12.760,12.724 14.510,13.579 16.648 C 15.032 20.281,15.145 20.548,15.300 20.702 C 15.479 20.881,15.759 21.000,16.002 21.000 C 16.344 21.000,16.734 20.763,16.875 20.469 C 16.920 20.376,17.868 16.655,18.982 12.200 C 21.219 3.252,21.087 3.867,20.851 3.486 C 20.627 3.123,20.163 2.929,19.770 3.034 C 19.527 3.098,19.296 3.258,19.170 3.448 C 19.094 3.563,18.702 5.076,17.433 10.148 C 16.532 13.750,15.789 16.704,15.782 16.711 C 15.775 16.718,15.118 15.094,14.321 13.103 C 12.750 9.176,12.804 9.290,12.418 9.098 C 12.054 8.918,11.498 9.040,11.236 9.358 C 11.160 9.450,10.640 10.701,9.676 13.110 C 8.881 15.098,8.225 16.718,8.217 16.711 C 8.210 16.704,7.474 13.773,6.580 10.199 C 5.687 6.625,4.920 3.624,4.875 3.531 C 4.734 3.236,4.338 2.997,4.005 3.003 C 3.925 3.004,3.783 3.029,3.689 3.059 " stroke="none" fill-rule="evenodd" fill="black"></path></svg>