<svg xmlns="http://www.w3.org/2000/svg" width="24" height="24" viewBox="0 0 24 24" version="1.1">
	<path d="M 5.923 5.923 C 3.928 7.918, 3 9.848, 3 12 C 3 16.302, 7.698 21, 12 21 C 14.152 21, 16.082 20.072, 18.077 18.077 C 22.007 14.147, 22.007 9.853, 18.077 5.923 C 14.147 1.993, 9.853 1.993, 5.923 5.923 M 7.455 7.455 C 6.105 8.805, 5 10.850, 5 12 C 5 14.698, 9.302 19, 12 19 C 14.698 19, 19 14.698, 19 12 C 19 9.302, 14.698 5, 12 5 C 10.850 5, 8.805 6.105, 7.455 7.455" stroke="none" fill="black" fill-rule="evenodd"/>
</svg>