<svg xmlns="http://www.w3.org/2000/svg" width="24" height="24" viewBox="0 0 24 24" version="1.1">
	<path d="M 5 12 C 5 17.333, 5.407 21, 6 21 C 6.550 21, 7 19.650, 7 18 C 7 15.407, 7.366 15, 9.702 15 C 11.385 15, 13.644 16.201, 15.687 18.182 C 19.466 21.844, 21.519 21.246, 18.006 17.507 C 15.815 15.174, 15.774 14.908, 17.336 13.182 C 18.251 12.170, 19 10.210, 19 8.826 C 19 4.920, 16.090 3, 10.171 3 L 5 3 5 12 M 7 9 L 7 13.115 11.148 12.807 C 19.100 12.218, 19.100 5.782, 11.148 5.193 L 7 4.885 7 9" stroke="none" fill="#000000" fill-rule="evenodd"/>
</svg>