<svg viewBox="0 0 24 24" xmlns="http://www.w3.org/2000/svg" fill="none" stroke="#000000" stroke-width="2" stroke-linecap="round" stroke-linejoin="round"><path d="M11.340 3.024 C 10.026 3.160,9.091 3.415,8.060 3.918 C 6.244 4.804,4.840 6.202,3.939 8.020 C 2.688 10.542,2.688 13.458,3.939 15.980 C 4.404 16.918,4.897 17.609,5.621 18.337 C 8.349 21.077,12.484 21.777,15.940 20.083 C 16.468 19.825,17.037 19.479,17.438 19.173 L 17.615 19.037 18.518 19.934 C 19.014 20.427,19.481 20.861,19.555 20.899 C 20.009 21.128,20.601 20.944,20.867 20.492 C 20.964 20.327,20.980 20.258,20.979 20.000 C 20.979 19.787,20.957 19.659,20.905 19.560 C 20.864 19.483,20.427 19.014,19.934 18.518 L 19.037 17.615 19.173 17.438 C 19.479 17.037,19.825 16.468,20.083 15.940 C 21.302 13.453,21.302 10.548,20.084 8.060 C 18.773 5.384,16.266 3.546,13.320 3.101 C 12.911 3.039,11.662 2.991,11.340 3.024 M13.102 5.098 C 15.581 5.473,17.715 7.237,18.573 9.620 C 18.866 10.433,18.975 11.080,18.975 12.000 C 18.975 12.920,18.866 13.567,18.573 14.380 C 18.367 14.954,17.966 15.720,17.684 16.079 L 17.606 16.178 17.071 15.656 C 16.641 15.236,16.498 15.120,16.341 15.067 C 15.866 14.905,15.382 15.084,15.128 15.516 C 15.036 15.672,15.020 15.745,15.021 16.000 C 15.021 16.214,15.043 16.340,15.096 16.440 C 15.137 16.517,15.397 16.810,15.675 17.092 L 16.180 17.604 16.080 17.683 C 15.749 17.943,15.012 18.337,14.469 18.544 C 13.662 18.852,12.950 18.977,12.000 18.977 C 11.264 18.977,10.908 18.936,10.275 18.777 C 7.798 18.158,5.810 16.151,5.205 13.660 C 4.959 12.646,4.959 11.354,5.205 10.340 C 5.753 8.084,7.433 6.214,9.620 5.427 C 10.250 5.200,10.715 5.102,11.540 5.023 C 11.813 4.997,12.726 5.041,13.102 5.098 " stroke="none" fill-rule="evenodd" fill="black"></path></svg>