<svg viewBox="0 0 24 24" xmlns="http://www.w3.org/2000/svg" fill="none" stroke="#000000" stroke-width="2" stroke-linecap="round" stroke-linejoin="round"><path d="M8.400 9.044 C 6.761 9.229,5.261 10.290,4.526 11.785 C 4.221 12.404,4.050 13.050,4.012 13.720 C 3.987 14.161,4.029 14.358,4.198 14.591 C 4.443 14.929,4.927 15.082,5.319 14.946 L 5.498 14.883 5.316 15.039 C 4.727 15.543,4.257 16.379,4.078 17.242 C 3.934 17.941,4.005 18.828,4.268 19.600 C 4.844 21.289,6.253 22.525,8.040 22.907 C 8.349 22.973,8.618 22.980,11.000 22.980 C 13.382 22.980,13.651 22.973,13.960 22.907 C 15.488 22.580,16.748 21.630,17.433 20.288 C 17.808 19.553,17.977 18.893,17.979 18.160 C 17.980 17.730,17.973 17.688,17.871 17.514 C 17.482 16.853,16.520 16.847,16.136 17.504 C 16.052 17.647,16.026 17.762,15.995 18.121 C 15.912 19.081,15.590 19.723,14.892 20.321 C 14.609 20.563,14.240 20.761,13.840 20.886 L 13.540 20.980 11.000 20.980 L 8.460 20.980 8.160 20.886 C 7.178 20.580,6.404 19.808,6.130 18.863 C 5.815 17.774,6.105 16.860,6.938 16.314 C 7.225 16.125,7.492 16.043,7.951 16.001 L 8.296 15.970 10.417 14.915 C 12.723 13.767,12.806 13.715,12.934 13.340 C 13.115 12.809,12.878 11.697,12.421 10.932 C 12.194 10.552,11.802 10.118,11.438 9.843 C 10.543 9.169,9.567 8.912,8.400 9.044 M9.523 11.073 C 10.051 11.211,10.551 11.628,10.803 12.140 C 10.874 12.284,10.925 12.408,10.916 12.416 C 10.907 12.425,10.191 12.785,9.325 13.218 C 7.798 13.981,7.738 14.007,7.378 14.061 C 6.927 14.129,6.540 14.260,6.095 14.497 L 5.759 14.676 5.863 14.498 C 5.948 14.353,5.974 14.239,6.005 13.879 C 6.087 12.929,6.410 12.277,7.088 11.696 C 7.753 11.125,8.748 10.871,9.523 11.073 " stroke="none" fill-rule="evenodd" fill="black"></path></svg>