<svg xmlns="http://www.w3.org/2000/svg" width="24" height="24" viewBox="0 0 24 24" version="1.1">
	<path d="M 4.009 3 C 3.454 3, 3 3.460, 3 4.022 C 3 4.584, 4.805 8.634, 7.011 13.022 C 9.217 17.410, 11.462 21, 12 21 C 12.538 21, 14.783 17.410, 16.989 13.022 C 19.195 8.634, 21 4.584, 21 4.022 C 21 3.460, 20.546 3, 19.991 3 C 19.436 3, 17.539 5.925, 15.776 9.500 C 14.013 13.075, 12.314 16, 12 16 C 11.686 16, 9.987 13.075, 8.224 9.500 C 6.461 5.925, 4.564 3, 4.009 3" stroke="none" fill="black" fill-rule="evenodd"/>
</svg>