<svg xmlns="http://www.w3.org/2000/svg" width="24" height="24" viewBox="0 0 24 24" version="1.1">
	<path d="M 12 3 C 11.569 3, 10.497 4.800, 9.617 7 C 8.736 9.200, 7.338 11, 6.508 11 C 5.679 11, 5 11.450, 5 12 C 5 12.550, 5.498 13, 6.107 13 C 6.716 13, 6.939 13.717, 6.603 14.593 C 6.267 15.469, 5.720 17.269, 5.387 18.593 C 5.051 19.934, 5.226 21, 5.783 21 C 6.333 21, 7.610 19.087, 8.622 16.750 L 10.461 12.500 10.788 16.750 C 10.968 19.087, 11.513 21, 12 21 C 12.487 21, 13.032 19.087, 13.212 16.750 L 13.539 12.500 15.378 16.750 C 16.390 19.087, 17.667 21, 18.217 21 C 18.774 21, 18.949 19.934, 18.613 18.593 C 18.280 17.269, 17.733 15.469, 17.397 14.593 C 17.061 13.717, 17.284 13, 17.893 13 C 18.502 13, 19 12.550, 19 12 C 19 11.450, 18.321 11, 17.492 11 C 16.662 11, 15.264 9.200, 14.383 7 C 13.503 4.800, 12.431 3, 12 3 M 12 9 C 11.450 9, 11 9.450, 11 10 C 11 10.550, 11.450 11, 12 11 C 12.550 11, 13 10.550, 13 10 C 13 9.450, 12.550 9, 12 9" stroke="none" fill="black" fill-rule="evenodd"/>
</svg>