<svg viewBox="0 0 24 24" xmlns="http://www.w3.org/2000/svg" fill="none" stroke="#000000" stroke-width="2" stroke-linecap="round" stroke-linejoin="round"><path d="M5.695 3.057 C 5.466 3.129,5.256 3.299,5.128 3.516 L 5.020 3.700 5.020 12.003 L 5.020 20.306 5.141 20.503 C 5.543 21.156,6.457 21.156,6.859 20.503 L 6.980 20.306 7.000 17.093 L 7.020 13.880 12.300 17.400 C 15.204 19.337,17.643 20.939,17.720 20.960 C 18.489 21.176,19.204 20.428,18.941 19.682 C 18.908 19.590,18.843 19.461,18.796 19.394 C 18.744 19.321,16.610 17.874,13.275 15.650 C 10.286 13.657,7.840 12.014,7.840 12.000 C 7.840 11.985,10.281 10.346,13.265 8.357 C 16.401 6.266,18.730 4.688,18.785 4.617 C 18.836 4.550,18.906 4.417,18.939 4.322 C 19.209 3.557,18.451 2.788,17.691 3.056 C 17.603 3.087,15.166 4.689,12.276 6.616 L 7.020 10.120 7.000 6.910 L 6.980 3.700 6.872 3.516 C 6.628 3.101,6.150 2.915,5.695 3.057 " stroke="none" fill-rule="evenodd" fill="black"></path></svg>