<svg viewBox="0 0 24 24" xmlns="http://www.w3.org/2000/svg" fill="none" stroke="#000000" stroke-width="2" stroke-linecap="round" stroke-linejoin="round"><path d="M3.670 3.055 C 3.446 3.138,3.255 3.300,3.131 3.511 C 3.036 3.672,3.020 3.744,3.020 4.000 C 3.020 4.234,3.039 4.332,3.105 4.444 C 3.152 4.523,4.947 6.784,7.094 9.468 L 10.998 14.348 11.009 18.327 L 11.020 22.306 11.141 22.503 C 11.543 23.156,12.457 23.156,12.859 22.503 L 12.980 22.306 12.991 18.327 L 13.002 14.348 16.910 9.464 C 19.060 6.778,20.855 4.508,20.899 4.420 C 20.957 4.305,20.980 4.182,20.980 3.980 C 20.980 3.745,20.962 3.669,20.867 3.508 C 20.591 3.037,20.038 2.879,19.531 3.124 C 19.372 3.201,18.925 3.743,15.691 7.786 C 13.679 10.302,12.018 12.360,12.000 12.360 C 11.982 12.360,10.321 10.302,8.309 7.786 C 5.030 3.688,4.630 3.202,4.464 3.122 C 4.232 3.010,3.872 2.979,3.670 3.055 " stroke="none" fill-rule="evenodd" fill="black"></path></svg>