<svg xmlns="http://www.w3.org/2000/svg" width="24" height="24" viewBox="0 0 24 24" version="1.1">
	<path d="M 10.171 3 L 5 3 5 12 C 5 17.333, 5.407 21, 6 21 C 6.550 21, 7 19.650, 7 18 C 7 15.407, 7.366 15, 9.702 15 C 11.385 15, 13.644 16.201, 15.687 18.182 C 17.493 19.932, 19.279 21.055, 19.656 20.678 C 20.033 20.301, 19.290 18.874, 18.006 17.507 C 15.815 15.174, 15.774 14.908, 17.336 13.182 C 18.251 12.170, 19 10.210, 19 8.826 C 19 7.442, 18.177 5.565, 17.171 4.655 C 15.966 3.564, 13.580 3, 10.171 3 M 11.148 5.193 L 7 4.885 7 9 L 7 13.115 11.148 12.807 C 13.762 12.614, 15.702 11.853, 16.393 10.750 C 17.189 9.480, 17.189 8.520, 16.393 7.250 C 15.702 6.147, 13.762 5.386, 11.148 5.193" stroke="none" fill="black" fill-rule="evenodd"/>
</svg>