<svg xmlns="http://www.w3.org/2000/svg" width="24" height="24" viewBox="0 0 24 24" version="1.1">
	<path d="M 5.690 10.453 C 3.752 12.390, 3.716 19.573, 5.634 21.491 C 8.934 24.791, 18 22.546, 18 18.429 C 18 16.393, 16.692 16.663, 15.232 19 C 13.749 21.374, 8.827 21.701, 7.036 19.544 C 5.491 17.682, 6.213 16.569, 9.979 15.009 C 13.186 13.680, 13.761 12.161, 11.800 10.200 C 10.176 8.576, 7.455 8.688, 5.690 10.453 M 6.904 12.615 C 5.744 14.013, 5.818 14.181, 7.449 13.865 C 8.486 13.664, 9.522 12.938, 9.750 12.250 C 10.344 10.466, 8.490 10.704, 6.904 12.615" stroke="none" fill="#000000" fill-rule="evenodd"/>
</svg>