<svg xmlns="http://www.w3.org/2000/svg" width="24" height="24" viewBox="0 0 24 24" version="1.1">
	<path d="M 5.695 5 C 5.313 5, 5 5.313, 5 5.695 C 5 6.078, 6.209 7.653, 7.687 9.195 L 10.374 12 7.510 14.990 C 5.935 16.634, 4.955 18.289, 5.333 18.667 C 5.711 19.045, 7.366 18.065, 9.010 16.490 L 12 13.626 14.990 16.490 C 16.634 18.065, 18.289 19.045, 18.667 18.667 C 19.045 18.289, 18.065 16.634, 16.490 14.990 L 13.626 12 16.490 9.010 C 18.065 7.366, 19.045 5.711, 18.667 5.333 C 18.289 4.955, 16.634 5.935, 14.990 7.510 L 12 10.374 9.195 7.687 C 7.653 6.209, 6.078 5, 5.695 5" stroke="none" fill="black" fill-rule="evenodd"/>
</svg>