<svg viewBox="0 0 24 24" xmlns="http://www.w3.org/2000/svg" fill="none" stroke="#000000" stroke-width="2" stroke-linecap="round" stroke-linejoin="round"><path d="M13.540 3.945 C 12.566 4.001,11.638 4.196,10.781 4.524 C 10.203 4.746,9.480 5.129,9.298 5.309 C 8.977 5.629,9.000 5.104,9.000 12.000 C 9.000 18.845,8.980 18.366,9.276 18.671 C 9.530 18.933,10.360 19.346,11.177 19.616 C 12.031 19.899,13.129 20.079,14.000 20.079 C 14.873 20.079,15.969 19.899,16.828 19.615 C 17.641 19.345,18.527 18.902,18.748 18.654 C 19.240 18.104,18.957 17.212,18.236 17.039 C 17.952 16.971,17.758 17.014,17.310 17.242 C 16.579 17.615,15.975 17.823,15.200 17.969 C 14.598 18.083,13.457 18.092,12.880 17.987 C 12.374 17.896,11.820 17.738,11.380 17.560 L 11.020 17.414 11.010 12.009 L 11.000 6.604 11.190 6.519 C 12.191 6.075,13.411 5.871,14.530 5.961 C 15.525 6.041,16.257 6.246,17.191 6.708 C 17.769 6.993,17.971 7.041,18.262 6.959 C 18.998 6.753,19.243 5.828,18.700 5.303 C 18.426 5.038,17.370 4.543,16.572 4.304 C 15.686 4.039,14.456 3.893,13.540 3.945 " stroke="none" fill-rule="evenodd" fill="black"></path></svg>