<svg xmlns="http://www.w3.org/2000/svg" width="24" height="24" viewBox="0 0 24 24" version="1.1">
	<path d="M 3.881 3 C 3.397 3, 3.005 3.337, 3.011 3.750 C 3.016 4.162, 4.812 6.750, 7 9.500 C 10.222 13.549, 10.981 15.309, 10.989 18.750 C 10.995 21.087, 11.450 23, 12 23 C 12.550 23, 13 21.129, 13 18.842 C 13 15.499, 13.811 13.634, 17.141 9.317 C 19.419 6.365, 20.955 3.623, 20.555 3.225 C 20.155 2.826, 18.913 3.625, 17.795 5 C 16.678 6.375, 14.889 8.608, 13.821 9.961 C 12.664 11.428, 11.601 12.010, 11.190 11.402 C 10.810 10.840, 9.209 8.720, 7.631 6.690 C 6.054 4.661, 4.366 3, 3.881 3" stroke="none" fill="black" fill-rule="evenodd"/>
</svg>