<svg xmlns="http://www.w3.org/2000/svg" width="24" height="24" viewBox="0 0 24 24" version="1.1">
	<path d="M 5 12 L 5 21 10.429 21 C 16.936 21, 19.538 19.095, 18.501 15.092 C 18.132 13.666, 17.865 11.067, 17.909 9.316 C 18.022 4.772, 15.783 3, 9.929 3 L 5 3 5 12 M 7 12 L 7 19 10.878 19 C 15.489 19, 17.945 16.843, 16 14.500 C 15.315 13.675, 13.910 13, 12.878 13 C 11.845 13, 11 12.550, 11 12 C 11 11.450, 11.620 11, 12.378 11 C 13.135 11, 14.315 10.325, 15 9.500 C 16.853 7.267, 14.524 5, 10.378 5 L 7 5 7 12" stroke="none" fill="black" fill-rule="evenodd"/>
</svg>