<svg xmlns="http://www.w3.org/2000/svg" width="24" height="24" viewBox="0 0 24 24" version="1.1">
	<path d="M 12 3 C 9.848 3, 7.918 3.928, 5.923 5.923 C 3.928 7.918, 3 9.848, 3 12 C 3 14.152, 3.928 16.082, 5.923 18.077 C 7.918 20.072, 9.848 21, 12 21 C 14.152 21, 16.082 20.072, 18.077 18.077 C 20.072 16.082, 21 14.152, 21 12 C 21 9.848, 20.072 7.918, 18.077 5.923 C 16.082 3.928, 14.152 3, 12 3 M 12 5 C 10.850 5, 8.805 6.105, 7.455 7.455 C 6.105 8.805, 5 10.850, 5 12 C 5 13.150, 6.105 15.195, 7.455 16.545 C 8.805 17.895, 10.850 19, 12 19 C 13.150 19, 15.195 17.895, 16.545 16.545 C 17.895 15.195, 19 13.150, 19 12 C 19 10.850, 17.895 8.805, 16.545 7.455 C 15.195 6.105, 13.150 5, 12 5" stroke="none" fill="black" fill-rule="evenodd"/>
</svg>