<svg xmlns="http://www.w3.org/2000/svg" width="24" height="24" viewBox="0 0 24 24" version="1.1">
	<path d="M 13 4 C 13 4.550, 13.450 5, 14 5 C 15.666 5, 15.221 16.571, 13.500 18 C 11.623 19.558, 9 17.737, 9 14.878 C 9 13.845, 8.550 13, 8 13 C 6.419 13, 6.837 17.694, 8.571 19.429 C 9.436 20.293, 10.979 21, 12 21 C 15.563 21, 17 18.250, 17 11.429 C 17 7.810, 17.437 5, 18 5 C 18.550 5, 19 4.550, 19 4 C 19 3.450, 17.650 3, 16 3 C 14.350 3, 13 3.450, 13 4" stroke="none" fill="#000000" fill-rule="evenodd"/>
</svg>