<svg xmlns="http://www.w3.org/2000/svg" width="24" height="24" viewBox="0 0 24 24" version="1.1">
	<path d="M 9.929 3 L 5 3 5 12 L 5 21 10.429 21 C 14.150 21, 16.378 20.479, 17.515 19.342 C 18.656 18.201, 18.963 16.876, 18.501 15.092 C 18.132 13.666, 17.865 11.067, 17.909 9.316 C 17.953 7.564, 17.284 5.427, 16.423 4.566 C 15.425 3.568, 13.068 3, 9.929 3 M 10.378 5 L 7 5 7 12 L 7 19 10.878 19 C 13.104 19, 15.285 18.361, 16 17.500 C 16.993 16.303, 16.993 15.697, 16 14.500 C 15.315 13.675, 13.910 13, 12.878 13 C 11.845 13, 11 12.550, 11 12 C 11 11.450, 11.620 11, 12.378 11 C 13.135 11, 14.315 10.325, 15 9.500 C 15.993 8.303, 15.993 7.697, 15 6.500 C 14.315 5.675, 12.235 5, 10.378 5" stroke="none" fill="black" fill-rule="evenodd"/>
</svg>