<svg xmlns="http://www.w3.org/2000/svg" width="24" height="24" viewBox="0 0 24 24" version="1.1">
	<path d="M 8.871 9 C 7.921 9, 6.489 9.654, 5.690 10.453 C 4.891 11.252, 4.212 13.723, 4.181 15.944 C 4.149 18.278, 4.763 20.620, 5.634 21.491 C 6.464 22.321, 8.879 23, 11 23 C 13.173 23, 15.543 22.314, 16.429 21.429 C 17.293 20.564, 18 19.214, 18 18.429 C 18 17.643, 17.658 17, 17.241 17 C 16.823 17, 15.919 17.900, 15.232 19 C 14.455 20.245, 12.900 21, 11.114 21 C 9.536 21, 7.701 20.345, 7.036 19.544 C 6.372 18.743, 6.082 17.676, 6.392 17.174 C 6.703 16.672, 8.317 15.697, 9.979 15.009 C 11.640 14.321, 13 13.227, 13 12.579 C 13 11.930, 12.460 10.860, 11.800 10.200 C 11.140 9.540, 9.822 9, 8.871 9 M 9.206 11 C 8.677 11, 7.642 11.727, 6.904 12.615 C 5.744 14.013, 5.818 14.181, 7.449 13.865 C 8.486 13.664, 9.522 12.938, 9.750 12.250 C 9.979 11.563, 9.734 11, 9.206 11" stroke="none" fill="black" fill-rule="evenodd"/>
</svg>