<svg xmlns="http://www.w3.org/2000/svg" width="24" height="24" viewBox="0 0 24 24" version="1.1">
	<path d="M 12 3 C 9.848 3, 7.918 3.928, 5.923 5.923 C 3.928 7.918, 3 9.848, 3 12 C 3 14.152, 3.928 16.082, 5.923 18.077 C 7.790 19.944, 9.868 20.994, 11.673 20.985 C 13.228 20.976, 15.160 20.552, 15.966 20.042 C 16.900 19.452, 17.908 19.509, 18.741 20.200 C 19.460 20.797, 20.327 21.007, 20.667 20.667 C 21.007 20.327, 20.797 19.460, 20.200 18.741 C 19.509 17.908, 19.452 16.900, 20.042 15.966 C 20.552 15.160, 20.976 13.228, 20.985 11.673 C 20.994 9.868, 19.944 7.790, 18.077 5.923 C 16.082 3.928, 14.152 3, 12 3 M 12 5 C 10.850 5, 8.805 6.105, 7.455 7.455 C 6.105 8.805, 5 10.850, 5 12 C 5 13.150, 6.105 15.195, 7.455 16.545 C 8.805 17.895, 10.568 19, 11.373 19 C 12.178 19, 13.520 18.738, 14.355 18.417 C 15.254 18.072, 15.625 17.186, 15.263 16.244 C 14.819 15.086, 15.086 14.819, 16.244 15.263 C 17.186 15.625, 18.072 15.254, 18.417 14.355 C 18.738 13.520, 19 12.178, 19 11.373 C 19 10.568, 17.895 8.805, 16.545 7.455 C 15.195 6.105, 13.150 5, 12 5" stroke="none" fill="black" fill-rule="evenodd"/>
</svg>