<svg xmlns="http://www.w3.org/2000/svg" width="24" height="24" viewBox="0 0 24 24" version="1.1">
	<path d="M 9.617 7 C 8.736 9.200, 7.338 11, 6.508 11 C 5.679 11, 5 11.450, 5 12 C 5 12.550, 5.498 13, 6.107 13 C 6.716 13, 6.939 13.717, 6.603 14.593 C 3.906 21.620, 5.690 23.526, 8.622 16.750 L 10.461 12.500 10.788 16.750 C 11.211 22.243, 12.789 22.243, 13.212 16.750 L 13.539 12.500 15.378 16.750 C 18.310 23.526, 20.094 21.620, 17.397 14.593 C 17.061 13.717, 17.284 13, 17.893 13 C 18.502 13, 19 12.550, 19 12 C 19 11.450, 18.321 11, 17.492 11 C 16.662 11, 15.264 9.200, 14.383 7 C 13.503 4.800, 12.431 3, 12 3 C 11.569 3, 10.497 4.800, 9.617 7 M 11 10 C 11 10.550, 11.450 11, 12 11 C 12.550 11, 13 10.550, 13 10 C 13 9.450, 12.550 9, 12 9 C 11.450 9, 11 9.450, 11 10" stroke="none" fill="#000000" fill-rule="evenodd"/>
</svg>