<svg xmlns="http://www.w3.org/2000/svg" width="24" height="24" viewBox="0 0 24 24" version="1.1">
	<path d="M 6 3 C 5.431 3, 5 5.942, 5 9.826 C 5 15.668, 5.334 16.965, 7.314 18.826 C 8.587 20.022, 10.759 21, 12.140 21 C 13.521 21, 15.630 19.958, 16.826 18.686 C 18.610 16.786, 19 15.173, 19 9.686 C 19 5.895, 18.567 3, 18 3 C 17.438 3, 17 5.782, 17 9.345 C 17 14.222, 16.577 16.073, 15.171 17.345 C 14.165 18.255, 12.660 19, 11.826 19 C 10.992 19, 9.565 18.177, 8.655 17.171 C 7.491 15.885, 7 13.510, 7 9.171 C 7 5.724, 6.559 3, 6 3" stroke="none" fill="black" fill-rule="evenodd"/>
</svg>