<svg xmlns="http://www.w3.org/2000/svg" width="24" height="24" viewBox="0 0 24 24" version="1.1">
	<path d="M 3.961 3 C 3.433 3, 3.003 3.563, 3.006 4.250 C 3.009 4.938, 3.430 7.075, 3.942 9 C 4.453 10.925, 5.368 14.412, 5.975 16.750 C 6.581 19.087, 7.481 21, 7.974 21 C 8.467 21, 9.440 19.425, 10.136 17.500 C 10.832 15.575, 11.671 14, 12 14 C 12.329 14, 13.168 15.575, 13.864 17.500 C 14.560 19.425, 15.533 21, 16.026 21 C 16.519 21, 17.366 19.312, 17.908 17.250 C 18.450 15.188, 19.425 11.345, 20.075 8.712 C 20.725 6.078, 20.949 3.616, 20.574 3.241 C 20.198 2.865, 19.529 3.144, 19.087 3.860 C 18.644 4.576, 17.714 7.701, 17.019 10.804 L 15.756 16.447 14.271 12.724 C 13.454 10.676, 12.432 9, 12 9 C 11.568 9, 10.557 10.646, 9.755 12.658 L 8.296 16.316 7.593 13.408 C 7.206 11.809, 6.447 8.813, 5.906 6.750 C 5.365 4.688, 4.490 3, 3.961 3" stroke="none" fill="black" fill-rule="evenodd"/>
</svg>