<svg xmlns="http://www.w3.org/2000/svg" width="24" height="24" viewBox="0 0 24 24" version="1.1">
	<path d="M 10.250 4.662 C 9.420 4.997, 9 7.482, 9 12.064 C 9 18.588, 9.136 18.996, 11.500 19.589 C 12.875 19.934, 15.125 19.934, 16.500 19.589 C 18.467 19.096, 19 18.327, 19 15.981 C 19 13.335, 18.662 13, 16 13 C 14.350 13, 13 13.450, 13 14 C 13 14.550, 13.938 15, 15.083 15 C 16.306 15, 16.994 15.517, 16.750 16.250 C 16.521 16.938, 15.246 17.500, 13.917 17.500 C 11.654 17.500, 11.500 17.149, 11.500 12 L 11.500 6.500 15.250 6.720 C 19.052 6.943, 20.311 5.717, 17.418 4.607 C 15.588 3.905, 12.060 3.932, 10.250 4.662" stroke="none" fill="black" fill-rule="evenodd"/>
</svg>