<svg viewBox="0 0 24 24" xmlns="http://www.w3.org/2000/svg" fill="none" stroke="#000000" stroke-width="2" stroke-linecap="round" stroke-linejoin="round"><path d="M11.726 3.046 C 11.523 3.104,11.295 3.262,11.190 3.416 C 11.139 3.492,10.469 5.229,9.701 7.277 L 8.306 11.000 7.099 11.000 C 5.786 11.000,5.649 11.018,5.382 11.221 C 5.083 11.449,4.935 11.893,5.035 12.264 C 5.099 12.498,5.286 12.737,5.508 12.867 L 5.700 12.980 6.624 13.000 L 7.547 13.020 6.287 16.380 C 5.547 18.353,5.020 19.817,5.009 19.926 C 4.951 20.514,5.489 21.048,6.083 20.991 C 6.344 20.966,6.633 20.811,6.780 20.617 C 6.864 20.506,7.320 19.339,8.297 16.729 L 9.694 13.000 10.777 13.003 C 11.724 13.005,11.839 13.012,11.695 13.057 C 11.466 13.129,11.256 13.299,11.128 13.516 L 11.020 13.700 11.020 17.003 L 11.020 20.306 11.141 20.503 C 11.543 21.156,12.457 21.156,12.859 20.503 L 12.980 20.306 12.980 17.003 L 12.980 13.700 12.872 13.516 C 12.744 13.299,12.534 13.129,12.305 13.057 C 12.161 13.012,12.276 13.005,13.223 13.003 L 14.306 13.000 15.703 16.729 C 16.680 19.339,17.136 20.506,17.220 20.617 C 17.367 20.811,17.656 20.966,17.917 20.991 C 18.511 21.048,19.049 20.514,18.991 19.926 C 18.980 19.817,18.453 18.353,17.713 16.380 L 16.453 13.020 17.376 13.000 L 18.300 12.980 18.492 12.867 C 19.248 12.423,19.123 11.306,18.290 11.055 C 18.153 11.014,17.808 11.000,16.901 11.000 L 15.694 11.000 14.299 7.276 C 13.408 4.901,12.862 3.496,12.789 3.398 C 12.566 3.094,12.097 2.939,11.726 3.046 M12.786 8.950 L 13.547 10.980 12.774 10.991 C 12.348 10.997,11.652 10.997,11.226 10.991 L 10.453 10.980 11.214 8.950 C 11.632 7.833,11.986 6.920,12.000 6.920 C 12.014 6.920,12.368 7.833,12.786 8.950 " stroke="none" fill-rule="evenodd" fill="black"></path></svg>