<svg xmlns="http://www.w3.org/2000/svg" width="24" height="24" viewBox="0 0 24 24" version="1.1">
	<path d="M 5 12 C 5 17.333, 5.407 21, 6 21 C 6.567 21, 7.002 18.080, 7.005 14.250 L 7.010 7.500 9.505 10.500 L 12 13.500 14.495 10.500 L 16.990 7.500 16.995 14.250 C 16.998 18.080, 17.433 21, 18 21 C 18.593 21, 19 17.333, 19 12 C 19 7.050, 18.663 2.996, 18.250 2.991 C 17.837 2.986, 16.262 4.449, 14.750 6.241 L 12 9.500 9.250 6.241 C 7.737 4.449, 6.162 2.986, 5.750 2.991 C 5.338 2.996, 5 7.050, 5 12" stroke="none" fill="black" fill-rule="evenodd"/>
</svg>