<svg xmlns="http://www.w3.org/2000/svg" width="24" height="24" viewBox="0 0 24 24" version="1.1">
	<path d="M 3.006 4.250 C 3.009 4.938, 3.430 7.075, 3.942 9 C 4.453 10.925, 5.368 14.412, 5.975 16.750 C 7.315 21.916, 8.464 22.123, 10.136 17.500 C 10.832 15.575, 11.671 14, 12 14 C 12.329 14, 13.168 15.575, 13.864 17.500 C 16.046 23.534, 16.617 22.725, 20.075 8.712 C 21.234 4.017, 20.677 1.286, 19.087 3.860 C 18.644 4.576, 17.714 7.701, 17.019 10.804 L 15.756 16.447 14.271 12.724 C 13.454 10.676, 12.432 9, 12 9 C 11.568 9, 10.557 10.646, 9.755 12.658 L 8.296 16.316 7.593 13.408 C 5.608 5.205, 4.839 3, 3.961 3 C 3.433 3, 3.003 3.563, 3.006 4.250" stroke="none" fill="black" fill-rule="evenodd"/>
</svg>