<svg viewBox="0 0 24 24" xmlns="http://www.w3.org/2000/svg" fill="none" stroke="#000000" stroke-width="2" stroke-linecap="round" stroke-linejoin="round"><path d="M13.695 3.057 C 13.466 3.129,13.256 3.299,13.128 3.516 C 13.037 3.672,13.020 3.746,13.020 4.000 C 13.020 4.256,13.036 4.328,13.131 4.489 C 13.256 4.702,13.449 4.864,13.670 4.943 C 13.768 4.978,14.023 4.997,14.411 4.998 L 15.002 5.000 14.991 10.770 L 14.980 16.540 14.879 16.861 C 14.572 17.832,13.817 18.582,12.840 18.886 C 12.406 19.021,11.594 19.021,11.160 18.886 C 10.181 18.581,9.419 17.823,9.124 16.861 C 9.031 16.554,9.025 16.478,9.003 15.120 L 8.980 13.700 8.871 13.514 C 8.479 12.848,7.521 12.848,7.129 13.514 L 7.020 13.700 7.020 15.160 C 7.020 16.421,7.030 16.666,7.093 16.960 C 7.526 18.984,9.016 20.474,11.040 20.907 C 11.511 21.008,12.489 21.008,12.960 20.907 C 14.207 20.640,15.295 19.946,16.034 18.948 C 16.410 18.438,16.736 17.710,16.905 17.000 C 16.972 16.720,16.978 16.305,16.989 10.850 L 17.002 5.000 17.591 4.998 C 17.977 4.997,18.232 4.978,18.330 4.943 C 18.551 4.864,18.744 4.702,18.869 4.489 C 18.964 4.328,18.980 4.256,18.980 4.000 C 18.980 3.746,18.963 3.672,18.872 3.516 C 18.740 3.293,18.533 3.128,18.290 3.055 C 18.033 2.978,13.943 2.979,13.695 3.057 " stroke="none" fill-rule="evenodd" fill="black"></path></svg>