<svg xmlns="http://www.w3.org/2000/svg" width="24" height="24" viewBox="0 0 24 24" version="1.1">
	<path d="M 10.577 3 L 5 3 5 12 L 5 21 10.577 21 C 15.408 21, 16.545 20.609, 19.077 18.077 C 21.072 16.082, 22 14.152, 22 12 C 22 9.848, 21.072 7.918, 19.077 5.923 C 16.545 3.391, 15.408 3, 10.577 3 M 11.045 5 L 7 5 7 12 L 7 19 11.045 19 C 14.007 19, 15.748 18.343, 17.545 16.545 C 18.895 15.195, 20 13.150, 20 12 C 20 10.850, 18.895 8.805, 17.545 7.455 C 15.748 5.657, 14.007 5, 11.045 5" stroke="none" fill="black" fill-rule="evenodd"/>
</svg>