<svg xmlns="http://www.w3.org/2000/svg" width="24" height="24" viewBox="0 0 24 24" version="1.1">
	<path d="M 5.923 5.923 C 3.928 7.918, 3 9.848, 3 12 C 3 18.122, 11.079 23.133, 15.966 20.042 C 16.900 19.452, 17.908 19.509, 18.741 20.200 C 20.440 21.610, 21.610 20.440, 20.200 18.741 C 19.509 17.908, 19.452 16.900, 20.042 15.966 C 21.879 13.062, 21.067 8.913, 18.077 5.923 C 14.147 1.993, 9.853 1.993, 5.923 5.923 M 7.455 7.455 C 6.105 8.805, 5 10.850, 5 12 C 5 14.396, 9.192 19, 11.373 19 C 14.243 19, 15.877 17.842, 15.263 16.244 C 14.819 15.086, 15.086 14.819, 16.244 15.263 C 17.842 15.877, 19 14.243, 19 11.373 C 19 9.192, 14.396 5, 12 5 C 10.850 5, 8.805 6.105, 7.455 7.455" stroke="none" fill="#000000" fill-rule="evenodd"/>
</svg>