<svg viewBox="0 0 24 24" xmlns="http://www.w3.org/2000/svg" fill="none" stroke="#000000" stroke-width="2" stroke-linecap="round" stroke-linejoin="round"><path d="M3.667 3.065 C 3.260 3.190,2.968 3.649,3.010 4.094 C 3.027 4.267,3.674 5.588,7.085 12.418 C 10.408 19.070,11.169 20.566,11.303 20.702 C 11.686 21.092,12.314 21.092,12.697 20.702 C 12.831 20.566,13.592 19.070,16.915 12.418 C 21.327 3.585,21.083 4.112,20.944 3.693 C 20.711 2.992,19.815 2.776,19.304 3.297 C 19.169 3.434,18.500 4.745,15.580 10.592 C 13.622 14.512,12.011 17.720,12.000 17.720 C 11.989 17.720,10.378 14.512,8.420 10.592 C 5.510 4.765,4.830 3.434,4.697 3.298 C 4.427 3.023,4.068 2.942,3.667 3.065 " stroke="none" fill-rule="evenodd" fill="black"></path></svg>