<svg xmlns="http://www.w3.org/2000/svg" width="24" height="24" viewBox="0 0 24 24" version="1.1">
	<path d="M 2.923 2.923 C -0.742 6.588, -0.924 10.814, 2.415 14.694 C 5.447 18.217, 6.982 17.064, 4.114 13.418 C 1.351 9.906, 1.444 7.465, 4.455 4.455 C 7.715 1.194, 10.598 1.358, 14 5 C 15.541 6.650, 17.432 8, 18.201 8 C 21.981 8, 23.272 13.189, 20 15.232 C 17.700 16.669, 17.385 18, 19.345 18 C 21.826 18, 23.986 14.395, 24.481 9.427 C 24.774 6.484, 24.669 5.460, 24.219 6.883 C 23.536 9.041, 23.338 9.112, 22.110 7.633 C 21.365 6.735, 20.170 6, 19.454 6 C 18.739 6, 16.804 4.650, 15.154 3 C 11.144 -1.009, 6.882 -1.036, 2.923 2.923 M 0.232 9 C 0.232 10.925, 0.438 11.713, 0.689 10.750 C 0.941 9.787, 0.941 8.213, 0.689 7.250 C 0.438 6.287, 0.232 7.075, 0.232 9 M 10.082 13.368 C 7.428 17.661, 7.463 18, 10.557 18 C 12.999 18, 13.044 18.099, 11.557 20.223 C 9.790 22.744, 9.578 24, 10.918 24 C 11.805 24, 16 17.918, 16 16.632 C 16 16.284, 14.849 16, 13.443 16 C 11.001 16, 10.956 15.901, 12.443 13.777 C 14.210 11.256, 14.422 10, 13.082 10 C 12.576 10, 11.226 11.516, 10.082 13.368" stroke="none" fill="black" fill-rule="evenodd"/>
</svg>