<svg xmlns="http://www.w3.org/2000/svg" width="24" height="24" viewBox="0 0 24 24" version="1.1">
	<path d="M 11.499 1 C 10.894 1, 9.431 2.991, 8.249 5.424 C 6.775 8.459, 5.378 9.950, 3.800 10.174 C 1.692 10.473, 1.500 11, 1.500 16.500 L 1.500 22.500 10.695 22.787 C 18.691 23.036, 20.010 22.841, 20.807 21.287 C 21.311 20.304, 21.992 17.434, 22.321 14.909 C 22.699 12, 22.494 9.894, 21.759 9.159 C 21.122 8.522, 19.340 8, 17.800 8 C 15.545 8, 15 7.552, 15 5.700 C 15 4.435, 14.460 2.860, 13.800 2.200 C 13.140 1.540, 12.105 1, 11.499 1 M 12.185 4 C 11.737 4, 10.612 5.590, 9.685 7.534 C 8.758 9.478, 8 13.303, 8 16.034 L 8 21 13.383 21 C 18.121 21, 18.839 20.730, 19.370 18.750 C 19.701 17.512, 19.979 15.038, 19.986 13.250 C 19.999 10.200, 19.785 10, 16.500 10 C 13.278 10, 13 9.762, 13 7 C 13 5.350, 12.633 4, 12.185 4 M 4.500 12 C 3.389 12, 3 13.167, 3 16.500 C 3 19.833, 3.389 21, 4.500 21 C 5.611 21, 6 19.833, 6 16.500 C 6 13.167, 5.611 12, 4.500 12" stroke="none" fill="black" fill-rule="evenodd"/>
</svg>