<svg xmlns="http://www.w3.org/2000/svg" width="24" height="24" viewBox="0 0 24 24" version="1.1">
	<path d="M 8.249 5.424 C 6.775 8.459, 5.378 9.950, 3.800 10.174 C 1.692 10.473, 1.500 11, 1.500 16.500 L 1.500 22.500 10.695 22.787 C 21.120 23.112, 21.266 23.013, 22.321 14.909 C 23.009 9.622, 21.948 8, 17.800 8 C 15.545 8, 15 7.552, 15 5.700 C 15 3.255, 13.320 1, 11.499 1 C 10.894 1, 9.431 2.991, 8.249 5.424 M 9.685 7.534 C 8.758 9.478, 8 13.303, 8 16.034 L 8 21 13.383 21 C 19.295 21, 19.957 20.223, 19.986 13.250 C 19.999 10.200, 19.785 10, 16.500 10 C 13.278 10, 13 9.762, 13 7 C 13 3.008, 11.747 3.210, 9.685 7.534 M 3 16.500 C 3 19.833, 3.389 21, 4.500 21 C 5.611 21, 6 19.833, 6 16.500 C 6 13.167, 5.611 12, 4.500 12 C 3.389 12, 3 13.167, 3 16.500" stroke="none" fill="#000000" fill-rule="evenodd"/>
</svg>