<svg xmlns="http://www.w3.org/2000/svg" width="24" height="24" viewBox="0 0 24 24" version="1.1">
	<path d="M 1.389 2.430 C 0.393 5.025, 1.788 7.169, 4.246 6.820 C 7.450 6.365, 7.450 1.635, 4.246 1.180 C 2.893 0.988, 1.750 1.488, 1.389 2.430 M 3 4 C 3 4.550, 3.450 5, 4 5 C 4.550 5, 5 4.550, 5 4 C 5 3.450, 4.550 3, 4 3 C 3.450 3, 3 3.450, 3 4 M 11.174 9.314 C 9.519 11.076, 9 12.867, 9 16.814 C 9 21.910, 9.052 22, 12 22 C 14.889 22, 15 21.833, 15 17.500 C 15 15.025, 15.450 13, 16 13 C 16.550 13, 17 15.025, 17 17.500 C 17 21.833, 17.111 22, 20 22 C 22.958 22, 23 21.925, 23 16.674 C 23 12.400, 22.543 10.919, 20.686 9.174 C 17.683 6.354, 13.904 6.409, 11.174 9.314 M 1 15 L 1 22 4 22 L 7 22 7 15 L 7 8 4 8 L 1 8 1 15 M 12.655 10.829 C 10.904 12.764, 10.342 20, 11.943 20 C 12.461 20, 13.023 18.087, 13.193 15.750 C 13.466 11.965, 13.774 11.500, 16 11.500 C 18.226 11.500, 18.534 11.965, 18.807 15.750 C 19.191 21.049, 21 21.384, 21 16.155 C 21 10.008, 16.181 6.932, 12.655 10.829 M 3 15 C 3 17.750, 3.450 20, 4 20 C 4.550 20, 5 17.750, 5 15 C 5 12.250, 4.550 10, 4 10 C 3.450 10, 3 12.250, 3 15" stroke="none" fill="black" fill-rule="evenodd"/>
</svg>