<svg xmlns="http://www.w3.org/2000/svg" width="24" height="24" viewBox="0 0 24 24" version="1.1">
	<path d="M 12 2 C 11.627 2, 10.799 3.146, 10.161 4.547 C 9.522 5.948, 9 10.448, 9 14.547 L 9 22 12 22 L 15 22 15 14.547 C 15 10.448, 14.478 5.948, 13.839 4.547 C 13.201 3.146, 12.373 2, 12 2 M 12 8 C 11.450 8, 11 9.125, 11 10.500 C 11 11.875, 11.450 13, 12 13 C 12.550 13, 13 11.875, 13 10.500 C 13 9.125, 12.550 8, 12 8 M 12 15 C 11.450 15, 11 16.125, 11 17.500 C 11 18.875, 11.450 20, 12 20 C 12.550 20, 13 18.875, 13 17.500 C 13 16.125, 12.550 15, 12 15" stroke="none" fill="black" fill-rule="evenodd"/>
</svg>