<svg viewBox="0 0 24 24" xmlns="http://www.w3.org/2000/svg" fill="none" stroke="#000000" stroke-width="2" stroke-linecap="round" stroke-linejoin="round"><path d="M11.667 2.065 C 11.292 2.180,11.239 2.264,10.080 4.594 L 9.020 6.724 9.027 6.992 C 9.031 7.139,9.032 7.350,9.029 7.460 C 9.022 7.755,9.020 13.313,9.027 13.500 C 9.031 13.588,9.026 15.340,9.016 17.393 C 9.004 19.853,9.012 21.177,9.039 21.277 C 9.099 21.498,9.290 21.739,9.508 21.867 L 9.700 21.980 12.000 21.980 L 14.300 21.980 14.492 21.867 C 14.710 21.739,14.901 21.498,14.961 21.277 C 14.988 21.177,14.995 19.855,14.983 17.393 C 14.973 15.340,14.968 13.588,14.971 13.500 C 14.977 13.327,14.976 7.857,14.971 7.460 C 14.969 7.328,14.970 7.108,14.973 6.972 L 14.980 6.724 13.920 4.594 C 12.767 2.276,12.716 2.194,12.340 2.066 C 12.106 1.986,11.924 1.986,11.667 2.065 M12.191 5.621 C 12.284 5.808,12.360 5.970,12.360 5.981 C 12.360 5.991,12.198 6.000,12.000 6.000 C 11.802 6.000,11.640 5.991,11.640 5.981 C 11.640 5.940,11.979 5.280,12.000 5.280 C 12.012 5.280,12.098 5.433,12.191 5.621 M13.000 10.500 L 13.000 13.000 12.000 13.000 L 11.000 13.000 11.000 10.500 L 11.000 8.000 12.000 8.000 L 13.000 8.000 13.000 10.500 M13.000 17.500 L 13.000 20.000 12.000 20.000 L 11.000 20.000 11.000 17.500 L 11.000 15.000 12.000 15.000 L 13.000 15.000 13.000 17.500 " stroke="none" fill-rule="evenodd" fill="black"></path></svg>