<svg xmlns="http://www.w3.org/2000/svg" width="24" height="24" viewBox="0 0 24 24" version="1.1">
	<path d="M 13.403 1.438 C 11.256 1.210, 8.600 1.416, 7.500 1.894 C 6.400 2.373, 4.600 3.764, 3.500 4.987 C 2.078 6.568, 1.500 8.618, 1.500 12.082 C 1.500 16.074, 2.001 17.456, 4.273 19.727 C 6.557 22.011, 7.919 22.500, 12 22.500 C 16.081 22.500, 17.443 22.011, 19.727 19.727 C 22.011 17.443, 22.500 16.081, 22.500 12 C 22.500 7.999, 22 6.546, 19.903 4.448 C 18.256 2.802, 15.876 1.699, 13.403 1.438 M 11.673 3.027 C 9.857 3.010, 7.800 4.046, 5.923 5.923 C 3.928 7.918, 3 9.848, 3 12 C 3 14.152, 3.928 16.082, 5.923 18.077 C 7.918 20.072, 9.848 21, 12 21 C 14.152 21, 16.082 20.072, 18.077 18.077 C 20.018 16.136, 21 14.139, 21 12.133 C 21 10.361, 19.989 7.951, 18.557 6.306 L 16.114 3.500 13.330 6.250 C 11.105 8.447, 10.893 9, 12.273 9 C 13.223 9, 14 9.450, 14 10 C 14 10.550, 13.325 11, 12.500 11 C 11.675 11, 11 11.450, 11 12 C 11 12.550, 11.675 13, 12.500 13 C 13.325 13, 14 13.450, 14 14 C 14 14.550, 13.325 15, 12.500 15 C 11.675 15, 11 15.675, 11 16.500 C 11 17.333, 11.889 18, 13 18 C 14.100 18, 15 18.480, 15 19.066 C 15 19.653, 13.762 19.990, 12.250 19.816 C 10.281 19.590, 9.409 18.861, 9.180 17.250 C 9.005 16.012, 8.217 15, 7.430 15 C 6.644 15, 6 14.550, 6 14 C 6 13.450, 6.675 13, 7.500 13 C 8.325 13, 9 12.550, 9 12 C 9 11.450, 8.325 11, 7.500 11 C 6.675 11, 6 10.550, 6 10 C 6 9.450, 6.675 9, 7.500 9 C 8.325 9, 9 8.429, 9 7.732 C 9 7.034, 10.238 5.696, 11.750 4.758 L 14.500 3.053 11.673 3.027" stroke="none" fill="black" fill-rule="evenodd"/>
</svg>