<svg viewBox="0 0 24 24" xmlns="http://www.w3.org/2000/svg" fill="none" stroke="#000000" stroke-width="2" stroke-linecap="round" stroke-linejoin="round"><path d="M11.280 1.023 C 11.203 1.032,10.951 1.059,10.720 1.083 C 8.832 1.283,6.991 2.023,5.360 3.235 C 4.751 3.688,3.684 4.755,3.226 5.367 C 0.728 8.714,0.301 13.032,2.097 16.780 C 2.643 17.918,3.276 18.801,4.238 19.762 C 5.199 20.724,6.082 21.357,7.220 21.903 C 10.967 23.699,15.288 23.270,18.637 20.770 C 19.246 20.316,20.316 19.246,20.770 18.637 C 23.744 14.652,23.744 9.348,20.770 5.363 C 20.316 4.755,19.247 3.686,18.640 3.235 C 17.045 2.049,15.365 1.360,13.423 1.096 C 13.000 1.038,11.574 0.990,11.280 1.023 M13.320 3.101 C 15.883 3.488,18.124 4.931,19.560 7.120 C 19.863 7.583,20.303 8.479,20.492 9.020 C 20.838 10.013,20.977 10.865,20.977 12.000 C 20.977 13.493,20.720 14.621,20.080 15.940 C 19.375 17.394,18.311 18.607,16.927 19.532 C 16.138 20.060,14.876 20.588,13.908 20.797 C 11.266 21.366,8.479 20.708,6.370 19.019 C 4.857 17.807,3.722 16.029,3.267 14.160 C 3.081 13.397,3.023 12.888,3.023 12.000 C 3.023 10.507,3.280 9.379,3.920 8.060 C 4.971 5.891,6.877 4.221,9.160 3.466 C 9.865 3.233,10.432 3.118,11.340 3.024 C 11.662 2.991,12.911 3.039,13.320 3.101 M13.608 3.580 C 13.536 3.612,13.329 3.779,13.148 3.951 C 12.737 4.344,12.313 4.681,11.811 5.014 C 11.148 5.453,10.640 5.700,9.666 6.058 C 9.407 6.153,9.208 6.335,9.094 6.580 C 9.003 6.774,9.001 6.812,9.000 7.890 L 9.000 9.000 7.946 9.000 C 6.797 9.000,6.644 9.022,6.382 9.221 C 6.302 9.282,6.187 9.415,6.128 9.516 C 6.037 9.672,6.020 9.746,6.020 10.000 C 6.020 10.256,6.036 10.328,6.131 10.489 C 6.192 10.592,6.304 10.725,6.381 10.783 C 6.643 10.983,6.738 10.996,7.910 10.998 L 9.000 11.000 9.000 12.000 L 9.000 13.000 7.946 13.000 C 6.797 13.000,6.644 13.022,6.382 13.221 C 6.302 13.282,6.187 13.415,6.128 13.516 C 6.037 13.672,6.020 13.746,6.020 14.000 C 6.020 14.256,6.036 14.328,6.131 14.489 C 6.192 14.592,6.304 14.725,6.381 14.783 C 6.642 14.983,6.738 14.996,7.907 14.998 L 8.993 15.000 9.009 16.290 C 9.024 17.502,9.031 17.597,9.116 17.860 C 9.434 18.832,10.168 19.566,11.140 19.884 C 11.404 19.970,11.495 19.976,12.764 19.991 C 13.647 20.001,14.163 19.992,14.268 19.963 C 14.498 19.901,14.737 19.713,14.867 19.492 C 14.964 19.327,14.980 19.257,14.980 19.000 C 14.980 18.746,14.963 18.672,14.872 18.516 C 14.761 18.327,14.569 18.156,14.373 18.071 C 14.296 18.038,13.854 18.016,12.980 18.001 L 11.700 17.980 11.516 17.872 C 11.415 17.813,11.284 17.700,11.225 17.623 C 11.016 17.349,11.000 17.241,11.000 16.075 L 11.000 15.000 12.090 14.998 C 13.262 14.996,13.357 14.983,13.619 14.783 C 13.696 14.725,13.808 14.592,13.869 14.489 C 13.964 14.328,13.980 14.256,13.980 14.000 C 13.980 13.746,13.963 13.672,13.872 13.516 C 13.813 13.415,13.698 13.282,13.618 13.221 C 13.356 13.022,13.203 13.000,12.054 13.000 L 11.000 13.000 11.000 12.000 L 11.000 11.000 12.090 10.998 C 13.262 10.996,13.357 10.983,13.619 10.783 C 13.696 10.725,13.808 10.592,13.869 10.489 C 13.964 10.328,13.980 10.256,13.980 10.000 C 13.980 9.746,13.963 9.672,13.872 9.516 C 13.813 9.415,13.698 9.282,13.618 9.221 C 13.356 9.022,13.203 9.000,12.054 9.000 L 11.000 9.000 11.001 8.350 L 11.001 7.700 11.363 7.544 C 11.785 7.361,12.446 6.999,12.900 6.702 C 13.699 6.179,14.714 5.285,14.881 4.958 C 15.135 4.460,14.929 3.846,14.427 3.603 C 14.222 3.504,13.811 3.492,13.608 3.580 " stroke="none" fill-rule="evenodd" fill="black"></path></svg>