<svg xmlns="http://www.w3.org/2000/svg" width="24" height="24" viewBox="0 0 24 24" version="1.1">
	<path d="M 11.752 3.841 C 10.240 4.754, 9.003 6.287, 9.002 7.250 C 9.001 8.333, 8.237 9, 7 9 C 5.900 9, 5 9.450, 5 10 C 5 10.550, 5.900 11, 7 11 C 8.100 11, 9 11.450, 9 12 C 9 12.550, 8.100 13, 7 13 C 5.900 13, 5 13.450, 5 14 C 5 14.550, 5.870 15, 6.934 15 C 8.300 15, 8.960 15.807, 9.184 17.750 C 9.447 20.041, 10.042 20.552, 12.750 20.813 C 14.576 20.989, 16 20.661, 16 20.063 C 16 19.479, 14.875 19, 13.500 19 C 11.667 19, 11 18.467, 11 17 C 11 15.667, 11.667 15, 13 15 C 14.100 15, 15 14.550, 15 14 C 15 13.450, 14.100 13, 13 13 C 11.900 13, 11 12.550, 11 12 C 11 11.450, 11.900 11, 13 11 C 14.100 11, 15 10.550, 15 10 C 15 9.450, 14.100 9, 13 9 C 10.264 9, 10.489 7.381, 13.500 5.408 C 14.875 4.507, 16 3.372, 16 2.885 C 16 1.667, 14.970 1.899, 11.752 3.841" stroke="none" fill="#000000" fill-rule="evenodd"/>
</svg>