<svg viewBox="0 0 24 24" xmlns="http://www.w3.org/2000/svg" fill="none" stroke="#000000" stroke-width="2" stroke-linecap="round" stroke-linejoin="round"><path d="M14.657 2.064 C 14.568 2.096,14.352 2.250,14.177 2.406 C 12.883 3.567,11.435 4.419,9.666 5.059 C 9.408 5.153,9.208 5.335,9.094 5.580 C 9.001 5.779,9.001 5.788,9.000 7.390 L 9.000 9.000 7.446 9.000 C 5.758 9.000,5.658 9.011,5.382 9.221 C 5.302 9.282,5.187 9.415,5.128 9.516 C 5.037 9.672,5.020 9.746,5.020 10.000 C 5.020 10.256,5.036 10.328,5.131 10.489 C 5.192 10.592,5.304 10.725,5.381 10.783 C 5.654 10.991,5.700 10.996,7.410 10.998 L 9.000 11.000 9.000 12.000 L 9.000 13.000 7.446 13.000 C 5.758 13.000,5.658 13.011,5.382 13.221 C 5.302 13.282,5.187 13.415,5.128 13.516 C 5.037 13.672,5.020 13.746,5.020 14.000 C 5.020 14.256,5.036 14.328,5.131 14.489 C 5.192 14.592,5.304 14.725,5.381 14.783 C 5.654 14.991,5.700 14.996,7.407 14.998 L 8.995 15.000 9.009 16.790 C 9.023 18.533,9.026 18.587,9.116 18.860 C 9.437 19.835,10.165 20.563,11.140 20.885 C 11.413 20.975,11.464 20.977,13.266 20.991 C 14.485 21.000,15.166 20.991,15.270 20.963 C 15.498 20.901,15.738 20.712,15.867 20.492 C 15.964 20.327,15.980 20.257,15.980 20.000 C 15.980 19.746,15.963 19.672,15.872 19.516 C 15.761 19.327,15.571 19.158,15.373 19.071 C 15.291 19.035,14.768 19.015,13.480 19.001 L 11.700 18.980 11.516 18.872 C 11.415 18.813,11.284 18.700,11.225 18.623 C 11.006 18.336,11.000 18.283,11.000 16.575 L 11.000 15.000 12.590 14.998 C 14.300 14.996,14.346 14.991,14.619 14.783 C 14.696 14.725,14.808 14.592,14.869 14.489 C 14.964 14.328,14.980 14.256,14.980 14.000 C 14.980 13.746,14.963 13.672,14.872 13.516 C 14.813 13.415,14.698 13.282,14.618 13.221 C 14.342 13.011,14.242 13.000,12.554 13.000 L 11.000 13.000 11.000 12.000 L 11.000 11.000 12.590 10.998 C 14.300 10.996,14.346 10.991,14.619 10.783 C 14.696 10.725,14.808 10.592,14.869 10.489 C 14.964 10.328,14.980 10.256,14.980 10.000 C 14.980 9.746,14.963 9.672,14.872 9.516 C 14.813 9.415,14.698 9.282,14.618 9.221 C 14.342 9.011,14.242 9.000,12.554 9.000 L 11.000 9.000 11.000 7.845 L 11.000 6.691 11.190 6.620 C 11.526 6.494,12.407 6.063,12.860 5.802 C 14.096 5.091,15.612 3.927,15.868 3.491 C 15.964 3.328,15.980 3.257,15.980 3.000 C 15.980 2.746,15.963 2.672,15.872 2.516 C 15.621 2.089,15.116 1.901,14.657 2.064 " stroke="none" fill-rule="evenodd" fill="black"></path></svg>