<svg xmlns="http://www.w3.org/2000/svg" width="24" height="24" viewBox="0 0 24 24" version="1.1">
	<path d="M 3 5 C 2.450 5, 2 5.450, 2 6 C 2 6.550, 2.450 7, 3 7 C 3.550 7, 4 6.550, 4 6 C 4 5.450, 3.550 5, 3 5 M 14.500 5 C 10.167 5, 7 5.422, 7 6 C 7 6.578, 10.167 7, 14.500 7 C 18.833 7, 22 6.578, 22 6 C 22 5.422, 18.833 5, 14.500 5 M 3 11 C 2.450 11, 2 11.450, 2 12 C 2 12.550, 2.450 13, 3 13 C 3.550 13, 4 12.550, 4 12 C 4 11.450, 3.550 11, 3 11 M 14.500 11 C 10.167 11, 7 11.422, 7 12 C 7 12.578, 10.167 13, 14.500 13 C 18.833 13, 22 12.578, 22 12 C 22 11.422, 18.833 11, 14.500 11 M 3 17 C 2.450 17, 2 17.450, 2 18 C 2 18.550, 2.450 19, 3 19 C 3.550 19, 4 18.550, 4 18 C 4 17.450, 3.550 17, 3 17 M 14.500 17 C 10.167 17, 7 17.422, 7 18 C 7 18.578, 10.167 19, 14.500 19 C 18.833 19, 22 18.578, 22 18 C 22 17.422, 18.833 17, 14.500 17" stroke="none" fill="black" fill-rule="evenodd"/>
</svg>