<svg xmlns="http://www.w3.org/2000/svg" width="24" height="24" viewBox="0 0 24 24" version="1.1">
	<path d="M 3.333 8 C 3.333 10.303, 3.784 11, 5.274 11 C 6.632 11, 7.032 10.526, 6.607 9.418 C 6.273 8.548, 6 7.198, 6 6.418 C 6 5.638, 5.400 5, 4.667 5 C 3.852 5, 3.333 6.167, 3.333 8 M 9 6 C 9 6.564, 11.833 7, 15.500 7 C 19.167 7, 22 6.564, 22 6 C 22 5.436, 19.167 5, 15.500 5 C 11.833 5, 9 5.436, 9 6 M 9 12 C 9 12.564, 11.833 13, 15.500 13 C 19.167 13, 22 12.564, 22 12 C 22 11.436, 19.167 11, 15.500 11 C 11.833 11, 9 11.436, 9 12 M 3.333 15.959 C 3.333 18.204, 3.798 19, 5.107 19 C 6.424 19, 6.826 18.296, 6.670 16.260 C 6.363 12.270, 3.333 11.996, 3.333 15.959 M 9 18 C 9 18.564, 11.833 19, 15.500 19 C 19.167 19, 22 18.564, 22 18 C 22 17.436, 19.167 17, 15.500 17 C 11.833 17, 9 17.436, 9 18" stroke="none" fill="#000000" fill-rule="evenodd"/>
</svg>