<svg viewBox="0 0 24 24" xmlns="http://www.w3.org/2000/svg" fill="none" stroke="#000000" stroke-width="2" stroke-linecap="round" stroke-linejoin="round"><path d="M11.080 2.042 C 9.166 2.226,7.360 2.948,5.800 4.154 C 5.303 4.538,4.429 5.432,4.033 5.960 C 2.625 7.841,1.935 10.012,2.013 12.320 C 2.084 14.439,2.752 16.328,4.033 18.040 C 4.430 18.570,5.305 19.464,5.800 19.847 C 7.242 20.961,8.787 21.624,10.600 21.907 C 11.247 22.008,12.753 22.008,13.400 21.907 C 15.214 21.624,16.762 20.959,18.200 19.847 C 18.637 19.509,19.509 18.637,19.847 18.200 C 21.206 16.443,21.966 14.343,21.977 12.320 C 21.980 11.714,21.978 11.696,21.871 11.514 C 21.481 10.851,20.520 10.847,20.134 11.507 C 20.039 11.668,20.025 11.748,19.993 12.273 C 19.876 14.196,19.284 15.748,18.145 17.110 C 17.389 18.015,16.519 18.695,15.471 19.200 C 13.267 20.265,10.733 20.265,8.529 19.200 C 7.477 18.693,6.612 18.015,5.847 17.100 C 5.021 16.113,4.401 14.818,4.163 13.586 C 4.117 13.349,4.080 13.121,4.080 13.078 C 4.080 13.001,4.142 13.000,8.150 13.000 L 12.220 12.999 12.420 12.904 C 12.579 12.828,13.149 12.277,15.226 10.194 C 16.659 8.756,17.865 7.517,17.905 7.440 C 17.957 7.341,17.979 7.212,17.979 7.000 C 17.980 6.745,17.964 6.672,17.872 6.516 C 17.740 6.293,17.533 6.128,17.290 6.055 C 17.054 5.984,16.943 5.986,16.677 6.064 C 16.470 6.125,16.384 6.203,14.730 7.852 L 13.000 9.577 13.000 6.832 L 13.000 4.088 13.270 4.148 C 13.418 4.181,13.738 4.273,13.980 4.351 C 14.467 4.509,14.730 4.527,14.984 4.421 C 15.474 4.217,15.727 3.609,15.520 3.129 C 15.377 2.796,15.167 2.635,14.657 2.467 C 13.722 2.159,13.084 2.048,12.108 2.022 C 11.752 2.013,11.289 2.022,11.080 2.042 M11.000 7.540 L 11.000 11.000 7.540 11.000 C 4.137 11.000,4.080 10.999,4.080 10.922 C 4.080 10.731,4.260 9.942,4.403 9.502 C 4.591 8.929,4.980 8.119,5.309 7.620 C 6.465 5.866,8.313 4.600,10.340 4.177 C 10.582 4.127,10.830 4.084,10.890 4.083 L 11.000 4.080 11.000 7.540 " stroke="none" fill-rule="evenodd" fill="black"></path></svg>