<svg xmlns="http://www.w3.org/2000/svg" width="24" height="24" viewBox="0 0 24 24" version="1.1">
	<path d="M 6.145 3.590 C 5.603 3.255, 4.224 4.171, 3.080 5.625 C 1.936 7.080, 1 9.559, 1 11.135 C 1 12.711, 1.394 14, 1.875 14 C 2.356 14, 3.037 12.567, 3.387 10.816 C 3.737 9.064, 4.723 6.859, 5.577 5.915 C 6.512 4.882, 6.738 3.956, 6.145 3.590 M 22.129 8.580 C 21.650 8.284, 21.012 9.876, 20.711 12.119 C 20.410 14.362, 19.149 17.277, 17.908 18.598 C 16.094 20.529, 15.966 21, 17.253 21 C 18.134 21, 19.788 19.814, 20.927 18.365 C 22.075 16.906, 23 14.255, 23 12.424 C 23 10.606, 22.608 8.876, 22.129 8.580" stroke="none" fill="black" fill-rule="evenodd"/>
</svg>