<svg xmlns="http://www.w3.org/2000/svg" width="24" height="24" viewBox="0 0 24 24" version="1.1">
	<path d="M 3.922 8 C 3 8, 1.703 8.653, 1.040 9.452 C 0.377 10.251, -0.015 11.665, 0.167 12.595 C 0.350 13.525, 1.286 14.781, 2.247 15.386 C 3.540 16.200, 4.513 16.161, 5.997 15.234 C 7.599 14.234, 8.400 14.233, 10 15.232 C 11.610 16.238, 12.413 16.223, 14.118 15.158 C 15.637 14.210, 16.542 14.142, 17.318 14.918 C 17.913 15.513, 19.140 16, 20.045 16 C 20.950 16, 22.435 15.177, 23.345 14.171 C 24.255 13.165, 25 11.590, 25 10.671 C 25 9.752, 24.663 9.071, 24.250 9.159 C 23.838 9.246, 22.653 8.950, 21.618 8.501 C 20.490 8.012, 18.986 8.152, 17.868 8.851 C 16.432 9.747, 15.538 9.728, 14 8.768 C 12.390 7.762, 11.587 7.777, 9.882 8.842 C 8.363 9.790, 7.458 9.858, 6.682 9.082 C 6.087 8.487, 4.845 8, 3.922 8 M 0.662 10.750 C 0.385 10.063, 0.158 10.625, 0.158 12 C 0.158 13.375, 0.385 13.938, 0.662 13.250 C 0.940 12.563, 0.940 11.438, 0.662 10.750 M 4 10 C 3.515 10, 2.816 10.489, 2.446 11.087 C 2.077 11.685, 2.275 12.675, 2.887 13.287 C 3.704 14.104, 4.296 14.104, 5.113 13.287 C 5.725 12.675, 5.923 11.685, 5.554 11.087 C 5.184 10.489, 4.485 10, 4 10 M 12 10 C 11.515 10, 10.816 10.489, 10.446 11.087 C 10.077 11.685, 10.275 12.675, 10.887 13.287 C 11.704 14.104, 12.296 14.104, 13.113 13.287 C 13.725 12.675, 13.923 11.685, 13.554 11.087 C 13.184 10.489, 12.485 10, 12 10 M 20 10 C 19.515 10, 18.816 10.489, 18.446 11.087 C 18.077 11.685, 18.275 12.675, 18.887 13.287 C 19.704 14.104, 20.296 14.104, 21.113 13.287 C 21.725 12.675, 21.923 11.685, 21.554 11.087 C 21.184 10.489, 20.485 10, 20 10" stroke="none" fill="black" fill-rule="evenodd"/>
</svg>