<svg viewBox="0 0 24 24" xmlns="http://www.w3.org/2000/svg" fill="none" stroke="#000000" stroke-width="2" stroke-linecap="round" stroke-linejoin="round"><path d="M3.600 8.043 C 1.733 8.227,0.218 9.753,0.046 11.624 C -0.155 13.811,1.451 15.755,3.624 15.954 C 5.797 16.154,7.747 14.554,7.956 12.400 C 7.974 12.213,7.992 12.129,7.995 12.214 C 8.004 12.491,8.163 13.172,8.289 13.479 C 8.714 14.516,9.490 15.292,10.512 15.704 C 12.558 16.528,14.877 15.538,15.704 13.488 C 15.842 13.144,15.995 12.497,16.005 12.214 C 16.008 12.129,16.026 12.213,16.044 12.400 C 16.225 14.265,17.753 15.782,19.624 15.954 C 21.811 16.155,23.755 14.549,23.954 12.376 C 24.183 9.890,22.110 7.817,19.624 8.046 C 17.753 8.218,16.225 9.735,16.044 11.600 C 16.026 11.787,16.008 11.871,16.005 11.786 C 15.995 11.503,15.842 10.856,15.705 10.516 C 15.172 9.197,14.001 8.269,12.605 8.058 C 12.121 7.986,11.879 7.986,11.395 8.058 C 10.002 8.269,8.833 9.195,8.289 10.521 C 8.163 10.828,8.004 11.509,7.995 11.786 C 7.992 11.871,7.974 11.787,7.956 11.600 C 7.853 10.536,7.265 9.486,6.408 8.837 C 5.881 8.437,5.097 8.116,4.514 8.061 C 3.998 8.012,3.933 8.011,3.600 8.043 M4.606 10.079 C 5.457 10.342,6.000 11.090,6.000 12.000 C 6.000 13.150,5.150 14.000,4.000 14.000 C 2.850 14.000,2.000 13.150,2.000 12.000 C 2.000 11.091,2.536 10.351,3.392 10.077 C 3.712 9.975,4.273 9.976,4.606 10.079 M12.523 10.073 C 13.262 10.266,13.850 10.924,13.967 11.690 C 14.067 12.343,13.873 12.933,13.403 13.404 C 13.002 13.807,12.547 14.000,12.000 14.000 C 11.485 14.000,11.038 13.822,10.653 13.465 C 9.323 12.229,10.189 10.005,12.000 10.005 C 12.143 10.005,12.378 10.036,12.523 10.073 M20.606 10.079 C 21.457 10.342,22.000 11.090,22.000 12.000 C 22.000 13.150,21.150 14.000,20.000 14.000 C 18.850 14.000,18.000 13.150,18.000 12.000 C 18.000 11.091,18.536 10.351,19.392 10.077 C 19.712 9.975,20.273 9.976,20.606 10.079 " stroke="none" fill="black" fill-rule="evenodd"></path></svg>