<svg xmlns="http://www.w3.org/2000/svg" width="24" height="24" viewBox="0 0 24 24" version="1.1">
	<path d="M 1.040 9.452 C -1.745 12.807, 2.310 17.537, 5.997 15.234 C 7.599 14.234, 8.400 14.233, 10 15.232 C 11.610 16.238, 12.413 16.223, 14.118 15.158 C 15.637 14.210, 16.542 14.142, 17.318 14.918 C 18.940 16.540, 21.486 16.225, 23.345 14.171 C 25.014 12.327, 25.639 8.865, 24.250 9.159 C 23.838 9.246, 22.653 8.950, 21.618 8.501 C 20.490 8.012, 18.986 8.152, 17.868 8.851 C 16.432 9.747, 15.538 9.728, 14 8.768 C 12.390 7.762, 11.587 7.777, 9.882 8.842 C 8.363 9.790, 7.458 9.858, 6.682 9.082 C 5.160 7.560, 2.463 7.737, 1.040 9.452 M 0.158 12 C 0.158 13.375, 0.385 13.938, 0.662 13.250 C 0.940 12.563, 0.940 11.438, 0.662 10.750 C 0.385 10.063, 0.158 10.625, 0.158 12 M 2.446 11.087 C 1.416 12.755, 3.733 14.667, 5.113 13.287 C 6.267 12.133, 5.545 10, 4 10 C 3.515 10, 2.816 10.489, 2.446 11.087 M 10.446 11.087 C 9.416 12.755, 11.733 14.667, 13.113 13.287 C 14.267 12.133, 13.545 10, 12 10 C 11.515 10, 10.816 10.489, 10.446 11.087 M 18.446 11.087 C 17.416 12.755, 19.733 14.667, 21.113 13.287 C 22.267 12.133, 21.545 10, 20 10 C 19.515 10, 18.816 10.489, 18.446 11.087" stroke="none" fill="#000000" fill-rule="evenodd"/>
</svg>