<svg xmlns="http://www.w3.org/2000/svg" width="24" height="24" viewBox="0 0 24 24" version="1.1">
	<path d="M 1.375 10.465 C 1.051 11.309, 1.051 12.691, 1.375 13.535 C 1.862 14.804, 3.744 15.021, 12.232 14.785 C 22.442 14.502, 22.500 14.486, 22.500 12 C 22.500 9.514, 22.442 9.498, 12.232 9.215 C 3.744 8.979, 1.862 9.196, 1.375 10.465 M 13 12 C 13 12.550, 14.800 13, 17 13 C 19.200 13, 21 12.550, 21 12 C 21 11.450, 19.200 11, 17 11 C 14.800 11, 13 11.450, 13 12" stroke="none" fill="#000000" fill-rule="evenodd"/>
</svg>