<svg xmlns="http://www.w3.org/2000/svg" width="24" height="24" viewBox="0 0 24 24" version="1.1">
	<path d="M 12.500 2.260 C 10.850 2.129, 8.425 2.628, 7.110 3.371 C 5.796 4.113, 4.124 5.796, 3.396 7.110 C 2.667 8.425, 2.055 10.535, 2.035 11.800 C 2.016 13.064, 2.641 15.339, 3.425 16.855 C 4.209 18.371, 6.030 20.148, 7.472 20.805 C 8.914 21.462, 10.952 22, 12 22 C 13.048 22, 15.086 21.462, 16.528 20.805 C 17.970 20.148, 19.791 18.371, 20.575 16.855 C 21.359 15.339, 22 13.402, 22 12.550 C 22 11.697, 21.640 11, 21.201 11 C 20.761 11, 19.850 12.525, 19.176 14.389 C 18.383 16.582, 16.901 18.212, 14.975 19.010 C 12.659 19.970, 11.364 19.979, 9.130 19.054 C 7.551 18.400, 5.761 16.770, 5.151 15.432 C 4.071 13.062, 4.151 13, 8.334 13 C 11.794 13, 13.181 12.420, 15.490 10.010 C 17.065 8.366, 18.052 6.719, 17.683 6.350 C 17.314 5.981, 16.110 6.496, 15.006 7.494 C 13.046 9.269, 13 9.249, 13 6.655 C 13 5.195, 13.405 4.113, 13.900 4.250 C 14.395 4.388, 14.958 4.050, 15.150 3.500 C 15.342 2.950, 14.150 2.392, 12.500 2.260 M 10.750 4.068 C 10.613 4.105, 9.539 4.601, 8.364 5.170 C 7.189 5.738, 5.736 7.283, 5.136 8.602 C 4.096 10.883, 4.213 11, 7.521 11 C 10.830 11, 11 10.829, 11 7.500 C 11 5.575, 10.887 4.030, 10.750 4.068" stroke="none" fill="black" fill-rule="evenodd"/>
</svg>