<svg xmlns="http://www.w3.org/2000/svg" width="24" height="24" viewBox="0 0 24 24" version="1.1">
	<path d="M 12.191 2.035 C 10.711 2.055, 8.425 2.667, 7.110 3.396 C 5.796 4.124, 4.124 5.796, 3.396 7.110 C 2.667 8.425, 2.055 10.535, 2.035 11.800 C 2.016 13.064, 2.641 15.339, 3.425 16.855 C 4.209 18.371, 6.030 20.148, 7.472 20.805 C 8.914 21.462, 10.952 22, 12 22 C 13.048 22, 15.086 21.462, 16.528 20.805 C 17.970 20.148, 19.791 18.371, 20.575 16.855 C 21.359 15.339, 22 13.402, 22 12.550 C 22 11.697, 21.640 11, 21.201 11 C 20.761 11, 19.850 12.525, 19.176 14.389 C 18.383 16.582, 16.901 18.212, 14.975 19.010 C 12.642 19.977, 11.372 19.982, 9.086 19.036 C 7.476 18.369, 5.631 16.524, 4.964 14.914 C 4.029 12.655, 4.025 11.354, 4.946 9.130 C 5.600 7.551, 7.251 5.751, 8.615 5.130 C 9.978 4.508, 12.224 4, 13.606 4 C 15.026 4, 15.849 3.565, 15.500 3 C 15.160 2.450, 13.671 2.016, 12.191 2.035" stroke="none" fill="black" fill-rule="evenodd"/>
</svg>