<svg xmlns="http://www.w3.org/2000/svg" width="24" height="24" viewBox="0 0 24 24" version="1.1">
	<path d="M 12 1 C 11.450 1, 11 2.350, 11 4 C 11 5.650, 11.450 7, 12 7 C 12.550 7, 13 5.650, 13 4 C 13 2.350, 12.550 1, 12 1 M 4.845 4 C 4.380 4, 4 4.380, 4 4.845 C 4 5.310, 4.824 6.436, 5.831 7.347 C 6.838 8.259, 7.964 8.702, 8.333 8.333 C 8.702 7.964, 8.259 6.838, 7.347 5.831 C 6.436 4.824, 5.310 4, 4.845 4 M 19.155 4 C 18.690 4, 17.564 4.824, 16.653 5.831 C 15.741 6.838, 15.298 7.964, 15.667 8.333 C 16.036 8.702, 17.162 8.259, 18.169 7.347 C 19.176 6.436, 20 5.310, 20 4.845 C 20 4.380, 19.620 4, 19.155 4 M 4 11 C 2.350 11, 1 11.450, 1 12 C 1 12.550, 2.350 13, 4 13 C 5.650 13, 7 12.550, 7 12 C 7 11.450, 5.650 11, 4 11 M 20 11 C 18.350 11, 17 11.450, 17 12 C 17 12.550, 18.350 13, 20 13 C 21.650 13, 23 12.550, 23 12 C 23 11.450, 21.650 11, 20 11 M 8.235 15.645 C 7.703 15.316, 6.460 15.939, 5.473 17.030 C 4.486 18.120, 3.989 19.322, 4.367 19.701 C 4.746 20.079, 5.988 19.456, 7.129 18.316 C 8.284 17.161, 8.774 15.978, 8.235 15.645 M 18.316 16.871 C 17.161 15.716, 15.978 15.226, 15.645 15.765 C 15.316 16.297, 15.939 17.540, 17.030 18.527 C 18.120 19.514, 19.322 20.011, 19.701 19.633 C 20.079 19.254, 19.456 18.012, 18.316 16.871 M 12 17 C 11.450 17, 11 18.350, 11 20 C 11 21.650, 11.450 23, 12 23 C 12.550 23, 13 21.650, 13 20 C 13 18.350, 12.550 17, 12 17" stroke="none" fill="black" fill-rule="evenodd"/>
</svg>