<svg viewBox="0 0 24 24" xmlns="http://www.w3.org/2000/svg" fill="none" stroke="#000000" stroke-width="2" stroke-linecap="round" stroke-linejoin="round"><path d="M5.040 3.527 C 4.780 3.652,3.657 4.791,3.230 5.363 C 2.082 6.900,1.374 8.605,1.098 10.500 C 0.934 11.628,0.999 13.421,1.220 13.855 C 1.600 14.601,2.662 14.572,3.009 13.806 C 3.100 13.605,3.103 13.462,3.037 12.669 C 2.906 11.082,3.200 9.544,3.919 8.060 C 4.401 7.065,4.934 6.336,5.803 5.480 C 6.297 4.993,6.358 4.918,6.416 4.723 C 6.495 4.455,6.495 4.386,6.421 4.137 C 6.252 3.569,5.574 3.270,5.040 3.527 M21.182 8.322 C 20.980 8.423,20.856 8.540,20.736 8.743 C 20.581 9.007,20.577 9.194,20.714 9.780 C 20.877 10.481,20.910 10.685,20.964 11.340 C 21.226 14.515,19.697 17.664,17.017 19.470 C 16.559 19.778,16.370 20.098,16.411 20.495 C 16.468 21.045,16.889 21.417,17.446 21.408 C 17.691 21.404,17.830 21.341,18.257 21.043 C 19.319 20.299,20.265 19.361,20.987 18.335 C 22.732 15.858,23.378 12.802,22.782 9.840 C 22.575 8.810,22.420 8.496,22.030 8.319 C 21.799 8.214,21.395 8.216,21.182 8.322 " stroke="none" fill="black" fill-rule="evenodd"></path></svg>