<svg xmlns="http://www.w3.org/2000/svg" width="24" height="24" viewBox="0 0 24 24" version="1.1">
	<path d="M 3.080 5.625 C 1.019 8.246, 0.191 14, 1.875 14 C 2.356 14, 3.037 12.567, 3.387 10.816 C 3.737 9.064, 4.723 6.859, 5.577 5.915 C 6.512 4.882, 6.738 3.956, 6.145 3.590 C 5.603 3.255, 4.224 4.171, 3.080 5.625 M 20.711 12.119 C 20.410 14.362, 19.149 17.277, 17.908 18.598 C 16.094 20.529, 15.966 21, 17.253 21 C 19.724 21, 23 16.111, 23 12.424 C 23 7.586, 21.348 7.366, 20.711 12.119" stroke="none" fill="black" fill-rule="evenodd"/>
</svg>