<svg xmlns="http://www.w3.org/2000/svg" width="24" height="24" viewBox="0 0 24 24" version="1.1">
	<path d="M 7.110 3.371 C -1.546 8.259, 2.061 22, 12 22 C 16.850 22, 22 17.133, 22 12.550 C 22 9.858, 20.449 10.868, 19.176 14.389 C 16.848 20.829, 7.913 21.494, 5.151 15.432 C 4.071 13.062, 4.151 13, 8.334 13 C 11.794 13, 13.181 12.420, 15.490 10.010 C 18.636 6.726, 18.224 4.582, 15.006 7.494 C 13.046 9.269, 13 9.249, 13 6.655 C 13 5.195, 13.405 4.113, 13.900 4.250 C 14.395 4.388, 14.958 4.050, 15.150 3.500 C 15.691 1.953, 9.788 1.858, 7.110 3.371 M 8.364 5.170 C 7.189 5.738, 5.736 7.283, 5.136 8.602 C 4.096 10.883, 4.213 11, 7.521 11 C 10.830 11, 11 10.829, 11 7.500 C 11 5.575, 10.887 4.030, 10.750 4.068 C 10.613 4.105, 9.539 4.601, 8.364 5.170" stroke="none" fill="#000000" fill-rule="evenodd"/>
</svg>