<svg xmlns="http://www.w3.org/2000/svg" width="24" height="24" viewBox="0 0 24 24" version="1.1">
	<path d="M 7.655 2.829 C 6.745 3.835, 6 5.807, 6 7.212 C 6 8.947, 5.342 9.939, 3.948 10.303 C 2.127 10.780, 1.930 11.498, 2.198 16.670 L 2.500 22.500 12 22.500 L 21.500 22.500 21.802 16.670 C 22.070 11.498, 21.873 10.780, 20.052 10.303 C 18.615 9.928, 18 8.949, 18 7.038 C 18 1.728, 11.167 -1.052, 7.655 2.829 M 9.200 4.200 C 8.540 4.860, 8 6.435, 8 7.700 C 8 9.717, 8.493 10, 12 10 C 15.507 10, 16 9.717, 16 7.700 C 16 5.022, 14.279 3, 12 3 C 11.120 3, 9.860 3.540, 9.200 4.200 M 4 16.500 L 4 21 12 21 L 20 21 20 16.500 L 20 12 12 12 L 4 12 4 16.500" stroke="none" fill="black" fill-rule="evenodd"/>
</svg>