<svg xmlns="http://www.w3.org/2000/svg" width="24" height="24" viewBox="0 0 24 24" version="1.1">
	<path d="M 14 2.940 C 14 3.523, 15.350 4, 17 4 L 20 4 20 12 L 20 20 17 20 C 15.350 20, 14 20.477, 14 21.060 C 14 21.674, 15.579 21.990, 17.750 21.810 L 21.500 21.500 21.500 12 L 21.500 2.500 17.750 2.190 C 15.579 2.010, 14 2.326, 14 2.940 M 9 6.671 C 9 7.040, 9.745 8.165, 10.655 9.171 C 12.238 10.920, 12.086 11, 7.155 11 C 4.320 11, 2 11.450, 2 12 C 2 12.550, 4.320 13, 7.155 13 C 12.252 13, 12.290 13.023, 10.494 15.006 C 7.419 18.404, 9.866 18.596, 13.241 15.221 L 16.417 12.045 13.521 9.022 C 10.757 6.137, 9 5.223, 9 6.671" stroke="none" fill="black" fill-rule="evenodd"/>
</svg>