<svg xmlns="http://www.w3.org/2000/svg" width="24" height="24" viewBox="0 0 24 24" version="1.1">
	<path d="M 2.425 3.334 C 2.144 4.067, 2.046 8.455, 2.207 13.084 L 2.500 21.500 6.250 21.810 C 8.421 21.990, 10 21.674, 10 21.060 C 10 20.477, 8.650 20, 7 20 L 4 20 4 12 L 4 4 7 4 C 8.650 4, 10 3.550, 10 3 C 10 1.481, 3.018 1.789, 2.425 3.334 M 15 6.671 C 15 7.040, 15.745 8.165, 16.655 9.171 C 18.238 10.920, 18.086 11, 13.155 11 C 10.320 11, 8 11.450, 8 12 C 8 12.550, 10.320 13, 13.155 13 C 18.252 13, 18.290 13.023, 16.494 15.006 C 13.419 18.404, 15.866 18.596, 19.241 15.221 L 22.417 12.045 19.521 9.022 C 16.757 6.137, 15 5.223, 15 6.671" stroke="none" fill="black" fill-rule="evenodd"/>
</svg>