<svg xmlns="http://www.w3.org/2000/svg" width="24" height="24" viewBox="0 0 24 24" version="1.1">
	<path d="M 6.469 2 C 4.448 2, 2.718 2.571, 2.425 3.334 C 2.144 4.067, 2.046 8.455, 2.207 13.084 L 2.500 21.500 6.250 21.810 C 8.421 21.990, 10 21.674, 10 21.060 C 10 20.477, 8.650 20, 7 20 L 4 20 4 12 L 4 4 7 4 C 8.650 4, 10 3.550, 10 3 C 10 2.450, 8.411 2, 6.469 2 M 15.813 6 C 15.366 6, 15 6.302, 15 6.671 C 15 7.040, 15.745 8.165, 16.655 9.171 C 18.238 10.920, 18.086 11, 13.155 11 C 10.320 11, 8 11.450, 8 12 C 8 12.550, 10.320 13, 13.155 13 C 18.252 13, 18.290 13.023, 16.494 15.006 C 15.496 16.110, 14.991 17.324, 15.372 17.705 C 15.752 18.086, 17.493 16.968, 19.241 15.221 L 22.417 12.045 19.521 9.022 C 17.929 7.360, 16.260 6, 15.813 6" stroke="none" fill="black" fill-rule="evenodd"/>
</svg>