<svg xmlns="http://www.w3.org/2000/svg" width="24" height="24" viewBox="0 0 24 24" version="1.1">
	<path d="M 6.206 3.667 L 1.911 6.256 2.206 12.199 L 2.500 18.143 7.250 20.821 L 12 23.500 16.750 20.821 L 21.500 18.143 21.795 12.193 L 22.089 6.242 17.617 3.621 C 12.153 0.419, 11.589 0.421, 6.206 3.667 M 8.750 4.758 C 5.269 6.916, 5.302 7.468, 9 9 C 11.391 9.990, 12.609 9.990, 15 9 C 18.730 7.455, 18.744 6.870, 15.096 4.716 C 11.623 2.664, 12.133 2.661, 8.750 4.758 M 4 12.756 C 4 16.712, 4.069 16.790, 10.250 19.801 C 10.662 20.002, 11 18.401, 11 16.244 C 11 12.288, 10.931 12.210, 4.750 9.199 C 4.338 8.998, 4 10.599, 4 12.756 M 16.250 10.745 C 13.415 12.156, 13 12.861, 13 16.265 C 13 18.411, 13.338 20.002, 13.750 19.801 C 19.911 16.800, 20 16.700, 20 12.839 C 20 10.728, 19.887 9.029, 19.750 9.064 C 19.613 9.099, 18.038 9.856, 16.250 10.745" stroke="none" fill="#000000" fill-rule="evenodd"/>
</svg>