<svg xmlns="http://www.w3.org/2000/svg" width="24" height="24" viewBox="0 0 24 24" version="1.1">
	<path d="M 11.822 1.039 C 11.095 1.060, 8.568 2.243, 6.206 3.667 L 1.911 6.256 2.206 12.199 L 2.500 18.143 7.250 20.821 L 12 23.500 16.750 20.821 L 21.500 18.143 21.795 12.193 L 22.089 6.242 17.617 3.621 C 15.157 2.180, 12.549 1.018, 11.822 1.039 M 11.846 3.027 C 11.656 3.041, 10.262 3.820, 8.750 4.758 C 7.238 5.696, 6 6.754, 6 7.110 C 6 7.466, 7.350 8.317, 9 9 C 11.391 9.990, 12.609 9.990, 15 9 C 16.650 8.317, 18 7.459, 18 7.094 C 18 6.730, 16.693 5.659, 15.096 4.716 C 13.498 3.772, 12.036 3.012, 11.846 3.027 M 4.750 9.199 C 4.338 8.998, 4 10.599, 4 12.756 C 4 16.035, 4.452 16.905, 6.750 18.057 C 8.262 18.816, 9.838 19.600, 10.250 19.801 C 10.662 20.002, 11 18.401, 11 16.244 C 11 12.965, 10.548 12.095, 8.250 10.943 C 6.737 10.184, 5.162 9.400, 4.750 9.199 M 19.750 9.064 C 19.613 9.099, 18.038 9.856, 16.250 10.745 C 13.415 12.156, 13 12.861, 13 16.265 C 13 18.411, 13.338 20.002, 13.750 19.801 C 14.162 19.600, 15.738 18.816, 17.250 18.057 C 19.533 16.913, 20 16.027, 20 12.839 C 20 10.728, 19.887 9.029, 19.750 9.064" stroke="none" fill="black" fill-rule="evenodd"/>
</svg>