<svg xmlns="http://www.w3.org/2000/svg" width="24" height="24" viewBox="0 0 24 24" version="1.1">
	<path d="M 12.032 2 C 11.159 2, 8.063 4.706, 5.152 8.013 C 2.102 11.478, -0.001 14.763, 0.191 15.763 C 0.478 17.263, 2.001 17.539, 11.367 17.785 C 18.505 17.972, 22.688 17.674, 23.605 16.912 C 24.372 16.276, 25 14.884, 25 13.819 C 25 12.753, 24.582 12.140, 24.071 12.456 C 23.560 12.772, 20.999 10.549, 18.380 7.515 C 15.761 4.482, 12.904 2, 12.032 2 M 12 4.025 C 11.725 4.025, 9.363 6.463, 6.750 9.442 C 4.138 12.421, 2 15.115, 2 15.429 C 2 15.743, 6.500 16, 12 16 C 17.500 16, 22 15.743, 22 15.429 C 22 15.115, 19.863 12.421, 17.250 9.442 C 14.637 6.463, 12.275 4.025, 12 4.025 M 12 11 C 11.450 11, 11 11.450, 11 12 C 11 12.550, 11.450 13, 12 13 C 12.550 13, 13 12.550, 13 12 C 13 11.450, 12.550 11, 12 11 M 0.662 13.750 C 0.385 13.063, 0.158 13.625, 0.158 15 C 0.158 16.375, 0.385 16.938, 0.662 16.250 C 0.940 15.563, 0.940 14.438, 0.662 13.750" stroke="none" fill="black" fill-rule="evenodd"/>
</svg>