<svg viewBox="0 0 24 24" xmlns="http://www.w3.org/2000/svg" fill="none" stroke="#000000" stroke-width="2" stroke-linecap="round" stroke-linejoin="round"><path d="M11.580 1.096 C 11.294 1.233,1.204 11.329,1.082 11.600 C 0.977 11.836,0.977 12.164,1.082 12.400 C 1.204 12.671,11.294 22.767,11.580 22.904 C 11.849 23.032,12.151 23.032,12.420 22.904 C 12.706 22.767,22.796 12.671,22.918 12.400 C 23.023 12.164,23.023 11.836,22.918 11.600 C 22.796 11.329,12.706 1.233,12.420 1.096 C 12.151 0.968,11.849 0.968,11.580 1.096 M11.000 7.720 L 11.000 11.000 7.710 11.000 L 4.420 11.000 7.700 7.720 C 9.504 5.916,10.984 4.440,10.990 4.440 C 10.995 4.440,11.000 5.916,11.000 7.720 M16.300 7.720 L 19.580 11.000 16.290 11.000 L 13.000 11.000 13.000 7.720 C 13.000 5.916,13.005 4.440,13.010 4.440 C 13.016 4.440,14.496 5.916,16.300 7.720 M11.000 16.280 C 11.000 18.084,10.995 19.560,10.990 19.560 C 10.984 19.560,9.504 18.084,7.700 16.280 L 4.420 13.000 7.710 13.000 L 11.000 13.000 11.000 16.280 M19.560 13.010 C 19.560 13.016,18.084 14.496,16.280 16.300 L 13.000 19.580 13.000 16.290 L 13.000 13.000 16.280 13.000 C 18.084 13.000,19.560 13.005,19.560 13.010 " stroke="none" fill="black" fill-rule="evenodd"></path></svg>