<svg xmlns="http://www.w3.org/2000/svg" width="24" height="24" viewBox="0 0 24 24" version="1.1">
	<path d="M 5.988 6.512 L 0.545 12.023 6.273 17.751 L 12 23.478 17.727 17.751 L 23.455 12.023 18.012 6.512 C 15.018 3.480, 12.313 1, 12 1 C 11.687 1, 8.982 3.480, 5.988 6.512 M 7.500 8 L 4.626 11 7.813 11 C 10.687 11, 11 10.706, 11 8 C 11 6.350, 10.859 5, 10.687 5 C 10.515 5, 9.081 6.350, 7.500 8 M 13 8 C 13 10.706, 13.313 11, 16.187 11 L 19.374 11 16.500 8 C 14.919 6.350, 13.485 5, 13.313 5 C 13.141 5, 13 6.350, 13 8 M 5 13.313 C 5 13.485, 6.350 14.919, 8 16.500 L 11 19.374 11 16.187 C 11 13.313, 10.706 13, 8 13 C 6.350 13, 5 13.141, 5 13.313 M 13 16.187 L 13 19.374 16 16.500 C 17.650 14.919, 19 13.485, 19 13.313 C 19 13.141, 17.650 13, 16 13 C 13.294 13, 13 13.313, 13 16.187" stroke="none" fill="#000000" fill-rule="evenodd"/>
</svg>