<svg viewBox="0 0 24 24" xmlns="http://www.w3.org/2000/svg" fill="none" stroke="#000000" stroke-width="2" stroke-linecap="round" stroke-linejoin="round"><path d="M11.553 2.042 C 10.945 2.126,10.310 2.456,9.870 2.919 C 9.710 3.087,9.508 3.316,9.420 3.428 C 9.332 3.540,7.280 5.830,4.860 8.516 C 0.800 13.024,0.448 13.425,0.311 13.711 C 0.086 14.178,0.021 14.467,0.021 15.000 C 0.021 15.552,0.087 15.831,0.337 16.340 C 0.635 16.944,1.056 17.365,1.660 17.663 C 2.369 18.012,1.340 17.980,12.000 17.980 C 22.660 17.980,21.631 18.012,22.340 17.663 C 22.944 17.365,23.365 16.944,23.663 16.340 C 23.913 15.831,23.979 15.552,23.979 15.000 C 23.979 14.467,23.914 14.178,23.689 13.711 C 23.552 13.425,23.200 13.024,19.140 8.516 C 16.720 5.830,14.668 3.540,14.580 3.428 C 13.841 2.488,13.144 2.082,12.174 2.026 C 11.980 2.015,11.700 2.022,11.553 2.042 M12.323 4.072 C 12.550 4.156,12.665 4.247,12.849 4.489 C 12.928 4.592,15.000 6.907,17.453 9.632 C 22.068 14.760,21.999 14.678,22.000 15.003 C 22.000 15.235,21.879 15.515,21.700 15.694 C 21.365 16.029,22.273 16.000,12.000 16.000 C 1.727 16.000,2.635 16.029,2.300 15.694 C 2.121 15.515,2.000 15.235,2.000 15.003 C 2.001 14.678,1.931 14.760,6.554 9.626 C 9.010 6.897,11.074 4.589,11.140 4.497 C 11.302 4.272,11.465 4.142,11.680 4.067 C 11.913 3.985,12.096 3.987,12.323 4.072 M11.695 11.055 C 11.464 11.130,11.255 11.300,11.128 11.516 C 11.037 11.672,11.020 11.746,11.020 12.000 C 11.020 12.257,11.036 12.327,11.133 12.492 C 11.651 13.374,12.998 13.018,12.998 12.000 C 12.998 11.623,12.792 11.281,12.463 11.112 C 12.265 11.010,11.911 10.984,11.695 11.055 " stroke="none" fill-rule="evenodd" fill="black"></path></svg>