<svg viewBox="0 0 24 24" xmlns="http://www.w3.org/2000/svg" fill="none" stroke="#000000" stroke-width="2" stroke-linecap="round" stroke-linejoin="round"><path d="M10.499 1.042 C 9.381 1.237,8.470 2.041,8.118 3.140 C 8.042 3.379,8.026 3.536,8.010 4.205 L 7.991 4.991 7.710 5.018 C 6.496 5.138,5.485 5.972,5.114 7.160 L 5.020 7.460 5.020 13.000 L 5.020 18.540 5.114 18.840 C 5.365 19.646,5.932 20.318,6.670 20.688 L 7.000 20.853 7.000 21.058 C 7.000 21.317,7.089 21.661,7.225 21.930 C 7.361 22.199,7.801 22.639,8.070 22.775 C 8.659 23.073,9.341 23.073,9.930 22.775 C 10.196 22.640,10.638 22.200,10.771 21.937 C 10.888 21.707,11.000 21.309,11.000 21.124 L 11.000 21.000 12.000 21.000 L 13.000 21.000 13.000 21.132 C 13.000 21.543,13.233 22.042,13.596 22.404 C 13.997 22.805,14.454 23.000,14.993 23.000 C 15.540 23.000,16.004 22.804,16.404 22.404 C 16.788 22.020,17.000 21.539,17.000 21.051 L 17.000 20.853 17.330 20.688 C 18.068 20.318,18.635 19.646,18.886 18.840 L 18.980 18.540 18.980 13.000 L 18.980 7.460 18.886 7.160 C 18.705 6.578,18.391 6.107,17.911 5.695 C 17.475 5.321,16.893 5.078,16.290 5.018 L 16.009 4.991 15.990 4.205 C 15.974 3.536,15.958 3.379,15.882 3.140 C 15.572 2.173,14.816 1.419,13.861 1.124 C 13.548 1.027,13.504 1.024,12.120 1.015 C 11.339 1.010,10.609 1.022,10.499 1.042 M13.310 3.061 C 13.452 3.103,13.571 3.178,13.697 3.303 C 13.948 3.554,14.000 3.751,14.000 4.447 L 14.000 5.000 12.000 5.000 L 10.000 5.000 10.000 4.447 C 10.000 3.750,10.052 3.554,10.304 3.303 C 10.584 3.022,10.675 3.006,11.983 3.003 C 12.878 3.001,13.147 3.012,13.310 3.061 M16.310 7.061 C 16.452 7.103,16.571 7.178,16.697 7.303 C 17.002 7.608,17.000 7.595,17.000 9.947 L 17.000 12.000 12.000 12.000 L 7.000 12.000 7.000 9.947 C 7.000 7.594,6.998 7.608,7.304 7.303 C 7.618 6.989,7.346 7.006,11.983 7.003 C 15.563 7.000,16.132 7.008,16.310 7.061 M17.000 16.054 C 17.000 18.283,16.996 18.334,16.779 18.618 C 16.718 18.698,16.585 18.813,16.484 18.872 L 16.300 18.980 12.000 18.980 L 7.700 18.980 7.516 18.872 C 7.415 18.813,7.284 18.700,7.225 18.623 C 7.000 18.328,7.000 18.328,7.000 16.075 L 7.000 14.000 12.000 14.000 L 17.000 14.000 17.000 16.054 " stroke="none" fill-rule="evenodd" fill="black"></path></svg>