<svg xmlns="http://www.w3.org/2000/svg" width="24" height="24" viewBox="0 0 24 24" version="1.1">
	<path d="M 8.294 2.750 C 7.940 3.712, 7.054 4.860, 6.325 5.300 C 5.433 5.838, 5 8.321, 5 12.895 C 5 18.399, 5.377 20.031, 6.981 21.483 C 8.603 22.950, 9.238 23.047, 10.481 22.016 C 11.703 21.002, 12.297 21.002, 13.519 22.016 C 14.762 23.047, 15.397 22.950, 17.019 21.483 C 18.623 20.031, 19 18.399, 19 12.895 C 19 8.321, 18.567 5.838, 17.675 5.300 C 16.946 4.860, 16.060 3.712, 15.706 2.750 C 14.827 0.358, 9.173 0.358, 8.294 2.750 M 10 4 C 10 4.550, 10.900 5, 12 5 C 13.100 5, 14 4.550, 14 4 C 14 3.450, 13.100 3, 12 3 C 10.900 3, 10 3.450, 10 4 M 7 9.500 C 7 11.833, 7.333 12, 12 12 C 16.667 12, 17 11.833, 17 9.500 C 17 7.167, 16.667 7, 12 7 C 7.333 7, 7 7.167, 7 9.500 M 7 16.500 C 7 18.833, 7.333 19, 12 19 C 16.667 19, 17 18.833, 17 16.500 C 17 14.167, 16.667 14, 12 14 C 7.333 14, 7 14.167, 7 16.500" stroke="none" fill="#000000" fill-rule="evenodd"/>
</svg>