<svg xmlns="http://www.w3.org/2000/svg" width="24" height="24" viewBox="0 0 24 24" version="1.1">
	<path d="M 11 2.500 C 11 3.390, 10.083 4, 8.744 4 C 3.881 4, 2.164 16.475, 6.750 18.487 C 7.988 19.030, 9 19.818, 9 20.237 C 9 20.657, 9.450 21, 10 21 C 12.060 21, 10.903 17.914, 8.500 17 C 5.271 15.772, 4.984 10.315, 8.011 7.722 C 10.586 5.518, 11 5.556, 11 8 C 11 9.100, 11.450 10, 12 10 C 12.550 10, 13 9.100, 13 8 C 13 5.556, 13.414 5.518, 15.989 7.722 C 19.016 10.315, 18.729 15.772, 15.500 17 C 13.097 17.914, 11.940 21, 14 21 C 14.550 21, 15 20.657, 15 20.237 C 15 19.818, 16.012 19.030, 17.250 18.487 C 21.836 16.475, 20.119 4, 15.256 4 C 13.917 4, 13 3.390, 13 2.500 C 13 1.675, 12.550 1, 12 1 C 11.450 1, 11 1.675, 11 2.500" stroke="none" fill="black" fill-rule="evenodd"/>
</svg>