<svg xmlns="http://www.w3.org/2000/svg" width="24" height="24" viewBox="0 0 24 24" version="1.1">
	<path d="M 12 1 C 11.450 1, 11 1.675, 11 2.500 C 11 3.390, 10.083 4, 8.744 4 C 7.207 4, 6.072 4.941, 5.181 6.953 C 4.462 8.578, 4.015 11.615, 4.187 13.703 C 4.418 16.507, 5.088 17.758, 6.750 18.487 C 7.988 19.030, 9 19.818, 9 20.237 C 9 20.657, 9.450 21, 10 21 C 10.550 21, 11 20.314, 11 19.475 C 11 18.637, 9.875 17.523, 8.500 17 C 6.530 16.251, 6 15.350, 6 12.747 C 6 10.676, 6.750 8.802, 8.011 7.722 C 9.118 6.775, 10.243 6, 10.511 6 C 10.780 6, 11 6.900, 11 8 C 11 9.100, 11.450 10, 12 10 C 12.550 10, 13 9.100, 13 8 C 13 6.900, 13.220 6, 13.489 6 C 13.757 6, 14.882 6.775, 15.989 7.722 C 17.250 8.802, 18 10.676, 18 12.747 C 18 15.350, 17.470 16.251, 15.500 17 C 14.125 17.523, 13 18.637, 13 19.475 C 13 20.314, 13.450 21, 14 21 C 14.550 21, 15 20.657, 15 20.237 C 15 19.818, 16.012 19.030, 17.250 18.487 C 18.912 17.758, 19.582 16.507, 19.813 13.703 C 19.985 11.615, 19.538 8.578, 18.819 6.953 C 17.928 4.941, 16.793 4, 15.256 4 C 13.917 4, 13 3.390, 13 2.500 C 13 1.675, 12.550 1, 12 1" stroke="none" fill="black" fill-rule="evenodd"/>
</svg>