<svg xmlns="http://www.w3.org/2000/svg" width="24" height="24" viewBox="0 0 24 24" version="1.1">
	<path d="M 13.078 0 C 12.705 0, 11.881 0.519, 11.247 1.153 C 10.453 1.947, 10.402 2.883, 11.082 4.153 C 11.626 5.169, 12.744 6, 13.567 6 C 14.389 6, 15.324 5.319, 15.643 4.487 C 15.963 3.655, 15.668 2.305, 14.989 1.487 C 14.311 0.669, 13.450 0, 13.078 0 M 20.279 3.672 C 19.777 3.362, 17.287 5.187, 14.745 7.728 C 10.769 11.705, 9.904 12.165, 8.538 11.032 C 7.666 10.308, 6.641 10.026, 6.261 10.405 C 5.881 10.785, 6.073 11.862, 6.686 12.798 C 7.600 14.194, 7.156 15.172, 4.216 18.232 C 2.243 20.284, 0.946 22.280, 1.333 22.667 C 1.720 23.054, 3.735 21.712, 5.811 19.685 C 7.886 17.658, 10.128 16, 10.792 16 C 11.456 16, 12 15.453, 12 14.784 C 12 14.116, 14.068 11.469, 16.596 8.903 C 19.124 6.336, 20.781 3.983, 20.279 3.672" stroke="none" fill="black" fill-rule="evenodd"/>
</svg>