<svg xmlns="http://www.w3.org/2000/svg" width="24" height="24" viewBox="0 0 24 24" version="1.1">
	<path d="M 11.247 1.153 C 9.793 2.607, 11.417 6, 13.567 6 C 15.631 6, 16.485 3.290, 14.989 1.487 C 13.505 -0.302, 12.768 -0.368, 11.247 1.153 M 14.745 7.728 C 10.769 11.705, 9.904 12.165, 8.538 11.032 C 6.508 9.346, 5.225 10.569, 6.686 12.798 C 7.600 14.194, 7.156 15.172, 4.216 18.232 C -0.501 23.141, 0.933 24.448, 5.811 19.685 C 7.886 17.658, 10.128 16, 10.792 16 C 11.456 16, 12 15.453, 12 14.784 C 12 14.116, 14.068 11.469, 16.596 8.903 C 19.124 6.336, 20.781 3.983, 20.279 3.672 C 19.777 3.362, 17.287 5.187, 14.745 7.728" stroke="none" fill="#000000" fill-rule="evenodd"/>
</svg>