<svg xmlns="http://www.w3.org/2000/svg" width="24" height="24" viewBox="0 0 24 24" version="1.1">
	<path d="M 12.232 3.215 C 4.230 2.993, 1.847 3.234, 1.435 4.308 C 1.144 5.067, 1.040 9.020, 1.203 13.094 L 1.500 20.500 12 20.500 L 22.500 20.500 22.500 12 L 22.500 3.500 12.232 3.215 M 12 5.068 L 3.500 5.054 7 8 C 8.925 9.620, 11.192 10.958, 12.038 10.973 C 12.884 10.988, 15.134 9.668, 17.038 8.041 L 20.500 5.081 12 5.068 M 7.516 11.119 L 3 7.876 3 13.438 L 3 19 12 19 L 21 19 21 13.521 L 21 8.041 16.516 11.202 L 12.032 14.362 7.516 11.119" stroke="none" fill="black" fill-rule="evenodd"/>
</svg>