<svg xmlns="http://www.w3.org/2000/svg" width="24" height="24" viewBox="0 0 24 24" version="1.1">
	<path d="M 6.888 1.500 C 3.511 3.335, 1.591 8.008, 2.414 12.392 C 3.039 15.727, 9.872 24, 12 24 C 14.128 24, 20.961 15.727, 21.586 12.392 C 23.246 3.547, 14.731 -2.763, 6.888 1.500 M 8.321 3.189 C 5.562 4.523, 3.696 8.941, 4.515 12.203 C 5.225 15.033, 10.302 21, 12 21 C 13.698 21, 18.775 15.033, 19.485 12.203 C 20.340 8.797, 18.399 4.503, 15.385 3.130 C 12.428 1.782, 11.210 1.792, 8.321 3.189 M 8 10 C 8 10.550, 9.800 11, 12 11 C 14.200 11, 16 10.550, 16 10 C 16 9.450, 14.200 9, 12 9 C 9.800 9, 8 9.450, 8 10" stroke="none" fill="#000000" fill-rule="evenodd"/>
</svg>