<svg xmlns="http://www.w3.org/2000/svg" width="24" height="24" viewBox="0 0 24 24" version="1.1">
	<path d="M 7.500 1.894 C 3.457 3.652, 1.500 6.976, 1.500 12.082 C 1.500 16.074, 2.001 17.456, 4.273 19.727 C 6.557 22.011, 7.919 22.500, 12 22.500 C 19.011 22.500, 22.500 19.011, 22.500 12 C 22.500 7.999, 22 6.546, 19.903 4.448 C 17.099 1.644, 10.974 0.383, 7.500 1.894 M 7.230 4.551 C 3.950 6.849, 2.456 10.036, 4.147 11.127 C 5.276 11.855, 5.264 12.152, 4.079 12.915 C 2.868 13.695, 2.904 14.205, 4.329 16.379 C 6.655 19.929, 9.982 21.629, 11.127 19.853 C 11.861 18.716, 12.139 18.716, 12.873 19.853 C 14.018 21.629, 17.345 19.929, 19.671 16.379 C 21.096 14.205, 21.132 13.695, 19.921 12.915 C 18.693 12.124, 18.693 11.876, 19.921 11.085 C 21.132 10.305, 21.096 9.795, 19.671 7.621 C 17.330 4.048, 14.034 2.382, 12.797 4.147 C 12.058 5.200, 11.735 5.223, 11.341 4.250 C 10.678 2.617, 9.911 2.673, 7.230 4.551 M 9.040 9.452 C 7.485 11.325, 8.028 13.989, 10.250 15.388 C 13.715 17.570, 17.617 12.653, 14.960 9.452 C 13.416 7.591, 10.584 7.591, 9.040 9.452 M 10.446 11.087 C 9.416 12.755, 11.733 14.667, 13.113 13.287 C 14.267 12.133, 13.545 10, 12 10 C 11.515 10, 10.816 10.489, 10.446 11.087" stroke="none" fill="black" fill-rule="evenodd"/>
</svg>