<svg xmlns="http://www.w3.org/2000/svg" width="24" height="24" viewBox="0 0 24 24" version="1.1">
	<path d="M 15.040 2.452 C 14.215 3.446, 12.080 4, 9.078 4 C 3.941 4, 2 5.256, 2 8.578 C 2 11.962, 3.994 12.880, 12.045 13.202 C 18.734 13.469, 19.500 13.705, 19.500 15.500 C 19.500 17.146, 18.729 17.555, 15.148 17.812 C 12.157 18.027, 10.225 17.609, 8.972 16.475 C 6.800 14.509, 4.134 14.833, 2.612 17.250 C 0.292 20.935, 6.167 24.913, 8.960 21.548 C 9.785 20.554, 11.920 20, 14.922 20 C 20.059 20, 22 18.744, 22 15.422 C 22 12.038, 20.006 11.120, 11.955 10.798 C 5.266 10.531, 4.500 10.295, 4.500 8.500 C 4.500 6.854, 5.271 6.445, 8.852 6.188 C 11.843 5.973, 13.775 6.391, 15.028 7.525 C 17.200 9.491, 19.866 9.167, 21.388 6.750 C 23.708 3.065, 17.833 -0.913, 15.040 2.452 M 16.446 4.087 C 15.416 5.755, 17.733 7.667, 19.113 6.287 C 20.267 5.133, 19.545 3, 18 3 C 17.515 3, 16.816 3.489, 16.446 4.087 M 4.446 18.087 C 3.416 19.755, 5.733 21.667, 7.113 20.287 C 8.267 19.133, 7.545 17, 6 17 C 5.515 17, 4.816 17.489, 4.446 18.087" stroke="none" fill="black" fill-rule="evenodd"/>
</svg>