<svg xmlns="http://www.w3.org/2000/svg" width="24" height="24" viewBox="0 0 24 24" version="1.1">
	<path d="M 1.768 1 C 1.346 1, 1 1.423, 1 1.941 C 1 2.459, 1.417 3.140, 1.926 3.454 C 2.436 3.769, 2.598 6.493, 2.287 9.506 C 1.726 14.944, 1.755 15.019, 6.229 19.492 C 8.708 21.972, 11.234 24, 11.843 24 C 12.451 24, 13.672 22.601, 14.556 20.891 L 16.164 17.783 19.071 20.568 C 20.671 22.101, 22.299 23.035, 22.689 22.644 C 23.079 22.254, 18.705 17.224, 12.967 11.467 C 7.230 5.710, 2.190 1, 1.768 1 M 16.927 3 C 16.417 3, 16 3.243, 16 3.540 C 16 3.838, 16.962 5.383, 18.138 6.973 C 19.731 9.128, 20.116 10.669, 19.647 13.013 C 19.193 15.283, 19.364 16.047, 20.259 15.753 C 20.942 15.529, 21.634 13.781, 21.799 11.869 C 22.002 9.500, 21.422 7.535, 19.976 5.697 C 18.809 4.214, 17.438 3, 16.927 3 M 5.179 7.226 C 4.419 6.973, 4 8.114, 4 10.431 C 4 13.169, 4.839 14.922, 7.510 17.765 L 11.020 21.500 13.050 19.090 C 14.166 17.764, 14.724 16.346, 14.290 15.937 C 13.855 15.528, 12.648 15.038, 11.607 14.847 C 10.566 14.656, 9.329 13.713, 8.857 12.750 C 8.386 11.787, 7.630 10.239, 7.179 9.310 C 6.727 8.380, 5.827 7.442, 5.179 7.226" stroke="none" fill="black" fill-rule="evenodd"/>
</svg>