<svg viewBox="0 0 24 24" xmlns="http://www.w3.org/2000/svg" fill="none" stroke="#000000" stroke-width="2" stroke-linecap="round" stroke-linejoin="round"><path d="M11.280 1.023 C 11.203 1.032,10.951 1.059,10.720 1.083 C 8.832 1.283,6.991 2.023,5.360 3.235 C 4.751 3.688,3.684 4.755,3.226 5.367 C 0.728 8.714,0.301 13.032,2.097 16.780 C 2.643 17.918,3.276 18.801,4.238 19.762 C 5.199 20.724,6.082 21.357,7.220 21.903 C 10.967 23.699,15.288 23.270,18.637 20.770 C 19.246 20.316,20.316 19.246,20.770 18.637 C 23.744 14.652,23.744 9.348,20.770 5.363 C 20.316 4.755,19.247 3.686,18.640 3.235 C 17.045 2.049,15.365 1.360,13.423 1.096 C 13.000 1.038,11.574 0.990,11.280 1.023 M11.006 3.693 C 11.020 4.295,11.022 4.310,11.141 4.503 C 11.543 5.156,12.457 5.156,12.859 4.503 C 12.978 4.310,12.980 4.296,12.994 3.688 L 13.007 3.069 13.242 3.094 C 14.335 3.208,15.865 3.774,16.880 4.440 C 17.947 5.140,18.860 6.053,19.560 7.120 C 20.227 8.137,20.792 9.665,20.906 10.761 L 20.931 11.000 20.412 11.000 C 19.651 11.000,19.364 11.116,19.128 11.516 C 19.037 11.672,19.020 11.746,19.020 12.000 C 19.020 12.256,19.036 12.328,19.131 12.489 C 19.370 12.895,19.617 12.996,20.376 12.998 L 20.931 13.000 20.906 13.239 C 20.792 14.335,20.227 15.863,19.560 16.880 C 19.038 17.676,18.297 18.493,17.600 19.043 C 16.352 20.027,14.751 20.716,13.253 20.913 L 13.007 20.946 12.993 20.323 C 12.981 19.728,12.975 19.692,12.871 19.514 C 12.648 19.134,12.208 18.941,11.786 19.035 C 11.515 19.096,11.270 19.275,11.129 19.514 C 11.025 19.692,11.019 19.728,11.007 20.323 L 10.993 20.946 10.747 20.913 C 9.232 20.714,7.608 20.011,6.370 19.019 C 5.670 18.458,4.957 17.668,4.440 16.880 C 3.773 15.863,3.208 14.335,3.094 13.239 L 3.069 13.000 3.624 12.998 C 4.383 12.996,4.630 12.895,4.869 12.489 C 4.964 12.328,4.980 12.256,4.980 12.000 C 4.980 11.746,4.963 11.672,4.872 11.516 C 4.636 11.116,4.349 11.000,3.588 11.000 L 3.069 11.000 3.094 10.761 C 3.208 9.665,3.773 8.137,4.440 7.120 C 5.140 6.053,6.053 5.140,7.120 4.440 C 7.944 3.900,9.191 3.386,10.120 3.205 C 10.351 3.160,10.576 3.115,10.620 3.106 C 10.664 3.097,10.766 3.087,10.846 3.085 L 10.993 3.080 11.006 3.693 M11.358 8.061 C 10.230 8.237,9.143 8.974,8.569 9.953 C 7.320 12.083,8.233 14.785,10.512 15.704 C 12.558 16.528,14.877 15.538,15.704 13.488 C 16.090 12.530,16.090 11.469,15.705 10.516 C 15.172 9.197,14.001 8.269,12.605 8.058 C 12.144 7.989,11.816 7.990,11.358 8.061 M12.523 10.073 C 13.262 10.266,13.850 10.924,13.967 11.690 C 14.067 12.343,13.873 12.933,13.403 13.404 C 13.002 13.807,12.547 14.000,12.000 14.000 C 11.485 14.000,11.038 13.822,10.653 13.465 C 9.323 12.229,10.189 10.005,12.000 10.005 C 12.143 10.005,12.378 10.036,12.523 10.073 " stroke="none" fill="black" fill-rule="evenodd"></path></svg>