<svg xmlns="http://www.w3.org/2000/svg" width="24" height="24" viewBox="0 0 24 24" version="1.1">
	<path d="M 11.800 0.040 C 10.535 0.062, 8.325 0.719, 6.888 1.500 C 5.451 2.280, 3.712 4.280, 3.024 5.943 C 2.299 7.692, 2.042 10.411, 2.414 12.392 C 2.797 14.434, 4.659 17.469, 7.027 19.908 C 9.211 22.159, 11.449 24, 12 24 C 12.551 24, 14.789 22.159, 16.973 19.908 C 19.341 17.469, 21.203 14.434, 21.586 12.392 C 21.958 10.409, 21.700 7.691, 20.974 5.936 C 20.283 4.269, 18.454 2.252, 16.909 1.453 C 15.364 0.654, 13.064 0.018, 11.800 0.040 M 11.703 2.068 C 11.041 2.105, 9.520 2.609, 8.321 3.189 C 7.123 3.768, 5.634 5.468, 5.014 6.967 C 4.393 8.466, 4.168 10.822, 4.515 12.203 C 4.861 13.583, 6.437 16.127, 8.016 17.856 C 9.595 19.585, 11.388 21, 12 21 C 12.612 21, 14.405 19.585, 15.984 17.856 C 17.563 16.127, 19.139 13.583, 19.485 12.203 C 19.832 10.822, 19.609 8.470, 18.990 6.976 C 18.371 5.482, 16.749 3.751, 15.385 3.130 C 14.022 2.508, 12.365 2.030, 11.703 2.068 M 12 9 C 9.800 9, 8 9.450, 8 10 C 8 10.550, 9.800 11, 12 11 C 14.200 11, 16 10.550, 16 10 C 16 9.450, 14.200 9, 12 9" stroke="none" fill="black" fill-rule="evenodd"/>
</svg>