<svg viewBox="0 0 24 24" xmlns="http://www.w3.org/2000/svg" fill="none" stroke="#000000" stroke-width="2" stroke-linecap="round" stroke-linejoin="round"><path d="M1.670 1.061 C 1.448 1.142,1.250 1.309,1.128 1.516 C 1.037 1.672,1.020 1.746,1.020 2.000 C 1.020 2.254,1.036 2.328,1.127 2.480 C 1.186 2.579,1.749 3.173,2.377 3.800 C 3.006 4.427,3.520 4.954,3.520 4.972 C 3.520 4.989,3.432 5.133,3.325 5.292 C 2.211 6.943,1.625 9.022,1.692 11.079 C 1.753 12.929,2.258 14.527,3.310 16.200 C 4.464 18.033,6.010 19.673,8.440 21.638 C 9.625 22.596,11.356 23.829,11.680 23.946 C 11.974 24.052,12.356 23.984,12.625 23.779 C 12.757 23.678,13.184 23.020,15.309 19.642 C 15.910 18.686,16.412 17.895,16.423 17.884 C 16.434 17.873,17.563 18.982,18.931 20.348 C 20.300 21.714,21.483 22.865,21.560 22.905 C 21.659 22.957,21.788 22.979,22.000 22.979 C 22.258 22.980,22.327 22.964,22.492 22.867 C 22.968 22.587,23.139 21.967,22.865 21.508 C 22.810 21.416,18.215 16.793,12.653 11.235 C 3.300 1.889,2.525 1.125,2.343 1.065 C 2.107 0.987,1.874 0.986,1.670 1.061 M16.177 2.897 C 15.579 3.157,15.374 3.955,15.783 4.433 C 15.858 4.521,16.077 4.696,16.270 4.822 C 16.749 5.137,17.039 5.363,17.445 5.740 C 18.551 6.765,19.374 8.160,19.734 9.620 C 19.919 10.369,19.940 10.574,19.939 11.600 C 19.938 12.458,19.927 12.637,19.847 13.040 C 19.729 13.630,19.600 14.057,19.350 14.678 C 19.171 15.125,19.152 15.199,19.171 15.401 C 19.234 16.100,19.940 16.531,20.560 16.251 C 20.930 16.084,21.136 15.732,21.482 14.681 C 22.097 12.809,22.154 10.998,21.658 9.054 C 21.340 7.806,20.744 6.574,19.947 5.520 C 19.362 4.745,18.404 3.842,17.580 3.289 C 16.997 2.897,16.868 2.840,16.564 2.842 C 16.419 2.842,16.245 2.867,16.177 2.897 M8.155 9.895 C 7.840 10.933,8.035 12.204,8.659 13.177 C 9.044 13.776,9.834 14.429,10.476 14.676 C 11.371 15.021,12.132 15.077,12.978 14.860 L 13.340 14.767 14.150 15.573 C 14.595 16.017,14.960 16.392,14.960 16.408 C 14.960 16.432,13.945 18.052,12.029 21.088 L 11.708 21.596 11.524 21.470 C 10.852 21.012,9.395 19.863,8.535 19.112 C 7.898 18.556,6.640 17.302,6.235 16.820 C 5.019 15.370,4.245 13.977,3.904 12.620 C 3.698 11.804,3.634 10.768,3.736 9.896 C 3.869 8.751,4.169 7.826,4.732 6.828 L 4.976 6.396 6.603 8.023 L 8.230 9.649 8.155 9.895 M10.800 12.221 C 11.451 12.873,11.488 12.918,11.330 12.863 C 10.874 12.703,10.448 12.319,10.223 11.863 C 10.092 11.599,10.062 11.520,10.090 11.520 C 10.096 11.520,10.416 11.836,10.800 12.221 " stroke="none" fill-rule="evenodd" fill="black"></path></svg>