<svg xmlns="http://www.w3.org/2000/svg" width="24" height="24" viewBox="0 0 24 24" version="1.1">
	<path d="M 18.310 1.202 C 17.218 1.038, 15.747 1.600, 15.040 2.452 C 14.215 3.446, 12.080 4, 9.078 4 C 6.505 4, 3.860 4.540, 3.200 5.200 C 2.540 5.860, 2 7.380, 2 8.578 C 2 9.775, 2.583 11.239, 3.295 11.830 C 4.007 12.421, 7.944 13.038, 12.045 13.202 C 18.734 13.469, 19.500 13.705, 19.500 15.500 C 19.500 17.146, 18.729 17.555, 15.148 17.812 C 12.157 18.027, 10.225 17.609, 8.972 16.475 C 7.969 15.567, 6.376 14.977, 5.432 15.162 C 4.487 15.348, 3.218 16.287, 2.612 17.250 C 1.812 18.521, 1.811 19.479, 2.607 20.750 C 3.211 21.712, 4.598 22.634, 5.690 22.798 C 6.782 22.962, 8.253 22.400, 8.960 21.548 C 9.785 20.554, 11.920 20, 14.922 20 C 17.495 20, 20.140 19.460, 20.800 18.800 C 21.460 18.140, 22 16.620, 22 15.422 C 22 14.225, 21.417 12.761, 20.705 12.170 C 19.993 11.579, 16.056 10.962, 11.955 10.798 C 5.266 10.531, 4.500 10.295, 4.500 8.500 C 4.500 6.854, 5.271 6.445, 8.852 6.188 C 11.843 5.973, 13.775 6.391, 15.028 7.525 C 16.031 8.433, 17.624 9.023, 18.568 8.838 C 19.513 8.652, 20.782 7.712, 21.388 6.750 C 22.188 5.479, 22.189 4.521, 21.393 3.250 C 20.789 2.287, 19.402 1.366, 18.310 1.202 M 18 3 C 17.515 3, 16.816 3.489, 16.446 4.087 C 16.077 4.685, 16.275 5.675, 16.887 6.287 C 17.704 7.104, 18.296 7.104, 19.113 6.287 C 19.725 5.675, 19.923 4.685, 19.554 4.087 C 19.184 3.489, 18.485 3, 18 3 M 6 17 C 5.515 17, 4.816 17.489, 4.446 18.087 C 4.077 18.685, 4.275 19.675, 4.887 20.287 C 5.704 21.104, 6.296 21.104, 7.113 20.287 C 7.725 19.675, 7.923 18.685, 7.554 18.087 C 7.184 17.489, 6.485 17, 6 17" stroke="none" fill="black" fill-rule="evenodd"/>
</svg>