<svg xmlns="http://www.w3.org/2000/svg" width="24" height="24" viewBox="0 0 24 24" version="1.1">
	<path d="M 1 1.941 C 1 2.459, 1.417 3.140, 1.926 3.454 C 2.436 3.769, 2.598 6.493, 2.287 9.506 C 1.726 14.944, 1.755 15.019, 6.229 19.492 C 8.708 21.972, 11.234 24, 11.843 24 C 12.451 24, 13.672 22.601, 14.556 20.891 L 16.164 17.783 19.071 20.568 C 20.671 22.101, 22.299 23.035, 22.689 22.644 C 23.408 21.925, 3.183 1, 1.768 1 C 1.346 1, 1 1.423, 1 1.941 M 16 3.540 C 16 3.838, 16.962 5.383, 18.138 6.973 C 19.731 9.128, 20.116 10.669, 19.647 13.013 C 19.193 15.283, 19.364 16.047, 20.259 15.753 C 22.475 15.025, 22.295 8.645, 19.976 5.697 C 18.061 3.263, 16 2.145, 16 3.540 M 4 10.431 C 4 13.169, 4.839 14.922, 7.510 17.765 L 11.020 21.500 13.050 19.090 C 15.172 16.570, 14.785 15.430, 11.607 14.847 C 10.566 14.656, 9.329 13.713, 8.857 12.750 C 8.386 11.787, 7.630 10.239, 7.179 9.310 C 5.621 6.105, 4 6.677, 4 10.431" stroke="none" fill="black" fill-rule="evenodd"/>
</svg>