<svg xmlns="http://www.w3.org/2000/svg" width="24" height="24" viewBox="0 0 24 24" version="1.1">
	<path d="M 6.888 1.500 C 3.511 3.335, 1.591 8.008, 2.414 12.392 C 3.039 15.727, 9.872 24, 12 24 C 14.128 24, 20.961 15.727, 21.586 12.392 C 23.246 3.547, 14.731 -2.763, 6.888 1.500 M 8.321 3.189 C 5.562 4.523, 3.696 8.941, 4.515 12.203 C 5.225 15.033, 10.302 21, 12 21 C 13.698 21, 18.775 15.033, 19.485 12.203 C 20.340 8.797, 18.399 4.503, 15.385 3.130 C 12.428 1.782, 11.210 1.792, 8.321 3.189 M 9.040 7.452 C 7.485 9.325, 8.028 11.989, 10.250 13.388 C 13.715 15.570, 17.617 10.653, 14.960 7.452 C 13.416 5.591, 10.584 5.591, 9.040 7.452 M 10.446 9.087 C 9.416 10.755, 11.733 12.667, 13.113 11.287 C 14.267 10.133, 13.545 8, 12 8 C 11.515 8, 10.816 8.489, 10.446 9.087" stroke="none" fill="black" fill-rule="evenodd"/>
</svg>