<svg viewBox="0 0 24 24" xmlns="http://www.w3.org/2000/svg" fill="none" stroke="#000000" stroke-width="2" stroke-linecap="round" stroke-linejoin="round"><path d="M7.720 1.028 C 7.687 1.040,6.031 1.979,4.041 3.115 C 1.592 4.513,0.374 5.229,0.274 5.331 C -0.022 5.636,-0.000 4.930,0.002 14.017 C 0.004 22.842,-0.009 22.323,0.217 22.619 C 0.452 22.927,0.925 23.074,1.286 22.951 C 1.382 22.918,2.918 22.058,4.700 21.040 C 6.482 20.021,7.969 19.180,8.004 19.171 C 8.039 19.162,9.802 20.021,11.922 21.081 L 15.778 23.008 16.043 22.993 L 16.308 22.978 19.940 20.903 C 22.475 19.454,23.618 18.780,23.724 18.671 C 24.024 18.362,24.002 19.077,23.990 9.919 L 23.980 1.700 23.871 1.514 C 23.651 1.141,23.204 0.939,22.800 1.032 C 22.666 1.063,21.571 1.668,19.372 2.926 C 17.594 3.942,16.095 4.790,16.040 4.812 C 15.952 4.845,15.460 4.610,12.089 2.925 C 8.314 1.038,8.234 1.000,8.009 1.003 C 7.883 1.005,7.753 1.016,7.720 1.028 M12.020 5.130 L 15.000 6.620 15.000 13.490 C 15.000 17.268,14.991 20.360,14.980 20.360 C 14.969 20.360,13.619 19.690,11.980 18.870 L 9.000 17.380 9.000 10.510 C 9.000 6.732,9.009 3.640,9.020 3.640 C 9.031 3.640,10.381 4.310,12.020 5.130 M7.000 10.572 L 7.000 17.423 4.590 18.799 C 3.264 19.555,2.139 20.200,2.090 20.232 L 2.000 20.289 2.000 13.435 L 2.001 6.580 4.490 5.154 C 5.860 4.369,6.985 3.726,6.990 3.724 C 6.995 3.722,7.000 6.803,7.000 10.572 M22.000 10.572 L 22.000 17.423 19.590 18.799 C 18.265 19.555,17.140 20.200,17.090 20.232 L 17.000 20.289 17.000 13.435 L 17.001 6.580 19.490 5.154 C 20.860 4.369,21.984 3.726,21.990 3.724 C 21.996 3.722,22.000 6.803,22.000 10.572 " stroke="none" fill="black" fill-rule="evenodd"></path></svg>