<svg xmlns="http://www.w3.org/2000/svg" width="24" height="24" viewBox="0 0 24 24" version="1.1">
	<path d="M 3.486 2.015 C 2.367 3.252, 1.488 6.133, 1.211 9.472 C 0.795 14.486, 0.998 15.152, 3.803 17.957 C 6.407 20.560, 7.591 21, 12 21 C 16.409 21, 17.593 20.560, 20.197 17.957 C 23.002 15.152, 23.205 14.486, 22.789 9.472 C 22.310 3.697, 20.020 -0, 16.922 -0 C 15.495 -0, 15.717 0.563, 18.077 2.923 C 21.967 6.813, 22.177 12.914, 18.545 16.545 C 15.134 19.956, 8.866 19.956, 5.455 16.545 C 1.823 12.914, 2.033 6.813, 5.923 2.923 C 8.283 0.563, 8.505 0, 7.078 0 C 6.106 0, 4.489 0.907, 3.486 2.015 M 6.446 10.087 C 5.416 11.755, 7.733 13.667, 9.113 12.287 C 10.267 11.133, 9.545 9, 8 9 C 7.515 9, 6.816 9.489, 6.446 10.087 M 14.446 10.087 C 13.416 11.755, 15.733 13.667, 17.113 12.287 C 18.267 11.133, 17.545 9, 16 9 C 15.515 9, 14.816 9.489, 14.446 10.087 M 11 16 C 11 16.550, 11.450 17, 12 17 C 12.550 17, 13 16.550, 13 16 C 13 15.450, 12.550 15, 12 15 C 11.450 15, 11 15.450, 11 16" stroke="none" fill="#000000" fill-rule="evenodd"/>
</svg>