<svg xmlns="http://www.w3.org/2000/svg" width="24" height="24" viewBox="0 0 24 24" version="1.1">
	<path d="M 8 8 C 8 8.550, 8.450 9, 9 9 C 9.550 9, 10 8.550, 10 8 C 10 7.450, 9.550 7, 9 7 C 8.450 7, 8 7.450, 8 8 M 14 8 C 14 8.550, 14.450 9, 15 9 C 15.550 9, 16 8.550, 16 8 C 16 7.450, 15.550 7, 15 7 C 14.450 7, 14 7.450, 14 8 M 1 13.600 C 1 15.224, 2.277 17.477, 4.400 19.600 C 7.187 22.387, 8.557 23, 12 23 C 15.443 23, 16.813 22.387, 19.600 19.600 C 21.723 17.477, 23 15.224, 23 13.600 L 23 11 12 11 L 1 11 1 13.600 M 3.693 14.935 C 5.613 22.275, 18.387 22.275, 20.307 14.935 C 20.935 12.532, 17.616 12.241, 15.357 14.500 C 14.532 15.325, 13.021 16, 12 16 C 10.979 16, 9.468 15.325, 8.643 14.500 C 6.384 12.241, 3.065 12.532, 3.693 14.935" stroke="none" fill="black" fill-rule="evenodd"/>
</svg>