<svg xmlns="http://www.w3.org/2000/svg" width="24" height="24" viewBox="0 0 24 24" version="1.1">
	<path d="M 9 7 C 8.450 7, 8 7.450, 8 8 C 8 8.550, 8.450 9, 9 9 C 9.550 9, 10 8.550, 10 8 C 10 7.450, 9.550 7, 9 7 M 15 7 C 14.450 7, 14 7.450, 14 8 C 14 8.550, 14.450 9, 15 9 C 15.550 9, 16 8.550, 16 8 C 16 7.450, 15.550 7, 15 7 M 12 11 L 1 11 1 13.600 C 1 15.224, 2.277 17.477, 4.400 19.600 C 7.187 22.387, 8.557 23, 12 23 C 15.443 23, 16.813 22.387, 19.600 19.600 C 21.723 17.477, 23 15.224, 23 13.600 L 23 11 12 11 M 5.165 13 C 3.702 13, 3.319 13.503, 3.693 14.935 C 3.972 16, 5.090 17.677, 6.180 18.663 C 7.360 19.730, 9.712 20.455, 12 20.455 C 14.288 20.455, 16.640 19.730, 17.820 18.663 C 18.910 17.677, 20.028 16, 20.307 14.935 C 20.681 13.503, 20.298 13, 18.835 13 C 17.747 13, 16.182 13.675, 15.357 14.500 C 14.532 15.325, 13.021 16, 12 16 C 10.979 16, 9.468 15.325, 8.643 14.500 C 7.818 13.675, 6.253 13, 5.165 13" stroke="none" fill="black" fill-rule="evenodd"/>
</svg>