<svg xmlns="http://www.w3.org/2000/svg" width="24" height="24" viewBox="0 0 24 24" version="1.1">
	<path d="M 7.078 0 C 6.106 0, 4.489 0.907, 3.486 2.015 C 2.367 3.252, 1.488 6.133, 1.211 9.472 C 0.795 14.486, 0.998 15.152, 3.803 17.957 C 6.407 20.560, 7.591 21, 12 21 C 16.409 21, 17.593 20.560, 20.197 17.957 C 23.002 15.152, 23.205 14.486, 22.789 9.472 C 22.512 6.133, 21.633 3.252, 20.514 2.015 C 19.511 0.907, 17.894 -0, 16.922 -0 C 15.495 -0, 15.717 0.563, 18.077 2.923 C 20.362 5.208, 21 6.746, 21 9.969 C 21 13.012, 20.358 14.733, 18.545 16.545 C 16.739 18.352, 15.010 19, 12 19 C 8.990 19, 7.261 18.352, 5.455 16.545 C 3.642 14.733, 3 13.012, 3 9.969 C 3 6.746, 3.638 5.208, 5.923 2.923 C 8.283 0.563, 8.505 0, 7.078 0 M 8 9 C 7.515 9, 6.816 9.489, 6.446 10.087 C 6.077 10.685, 6.275 11.675, 6.887 12.287 C 7.704 13.104, 8.296 13.104, 9.113 12.287 C 9.725 11.675, 9.923 10.685, 9.554 10.087 C 9.184 9.489, 8.485 9, 8 9 M 16 9 C 15.515 9, 14.816 9.489, 14.446 10.087 C 14.077 10.685, 14.275 11.675, 14.887 12.287 C 15.704 13.104, 16.296 13.104, 17.113 12.287 C 17.725 11.675, 17.923 10.685, 17.554 10.087 C 17.184 9.489, 16.485 9, 16 9 M 12 15 C 11.450 15, 11 15.450, 11 16 C 11 16.550, 11.450 17, 12 17 C 12.550 17, 13 16.550, 13 16 C 13 15.450, 12.550 15, 12 15" stroke="none" fill="black" fill-rule="evenodd"/>
</svg>