<svg viewBox="0 0 24 24" xmlns="http://www.w3.org/2000/svg" fill="none" stroke="#000000" stroke-width="2" stroke-linecap="round" stroke-linejoin="round"><path d="M8.695 7.055 C 8.464 7.130,8.255 7.300,8.128 7.516 C 8.037 7.672,8.020 7.746,8.020 8.000 C 8.020 8.257,8.036 8.327,8.133 8.492 C 8.651 9.374,9.998 9.018,9.998 8.000 C 9.998 7.623,9.792 7.281,9.463 7.112 C 9.265 7.010,8.911 6.984,8.695 7.055 M14.695 7.055 C 14.464 7.130,14.255 7.300,14.128 7.516 C 14.037 7.672,14.020 7.746,14.020 8.000 C 14.020 8.257,14.036 8.327,14.133 8.492 C 14.651 9.374,15.998 9.018,15.998 8.000 C 15.998 7.623,15.792 7.281,15.463 7.112 C 15.265 7.010,14.911 6.984,14.695 7.055 M1.695 11.057 C 1.467 11.128,1.256 11.299,1.131 11.513 C 0.997 11.740,0.972 12.115,1.037 12.897 C 1.210 14.977,1.956 16.930,3.226 18.633 C 3.701 19.269,4.753 20.316,5.400 20.797 C 9.364 23.745,14.666 23.734,18.637 20.770 C 19.246 20.316,20.316 19.246,20.770 18.637 C 22.045 16.929,22.785 14.989,22.962 12.891 C 23.028 12.109,23.003 11.741,22.869 11.512 C 22.740 11.292,22.531 11.128,22.290 11.055 C 22.027 10.976,1.948 10.978,1.695 11.057 M8.015 13.255 C 8.047 13.567,8.194 14.009,8.366 14.312 C 8.529 14.598,9.108 15.177,9.408 15.353 C 10.069 15.742,10.809 15.946,11.700 15.986 C 13.241 16.055,14.491 15.632,15.276 14.775 C 15.680 14.334,15.929 13.800,15.985 13.255 L 16.011 13.000 18.471 13.000 L 20.931 13.000 20.906 13.239 C 20.792 14.335,20.227 15.863,19.560 16.880 C 18.645 18.273,17.459 19.328,15.980 20.061 C 13.447 21.317,10.485 21.310,7.980 20.042 C 6.773 19.432,5.805 18.652,4.990 17.635 C 3.980 16.374,3.243 14.665,3.094 13.239 L 3.069 13.000 5.529 13.000 L 7.989 13.000 8.015 13.255 " stroke="none" fill-rule="evenodd" fill="black"></path></svg>