<svg viewBox="0 0 24 24" xmlns="http://www.w3.org/2000/svg" fill="none" stroke="#000000" stroke-width="2" stroke-linecap="round" stroke-linejoin="round"><path d="M5.695 3.057 C 5.190 3.215,4.899 3.756,5.042 4.269 C 5.085 4.421,5.674 5.231,7.908 8.210 C 9.455 10.273,10.720 11.978,10.720 12.000 C 10.720 12.022,9.455 13.727,7.908 15.790 C 5.674 18.769,5.085 19.579,5.042 19.731 C 4.937 20.107,5.078 20.553,5.374 20.778 C 5.682 21.013,5.293 21.000,12.015 20.998 C 17.061 20.997,18.207 20.987,18.330 20.943 C 18.551 20.864,18.744 20.702,18.869 20.489 C 18.964 20.328,18.980 20.256,18.980 20.000 C 18.980 19.746,18.963 19.672,18.872 19.516 C 18.740 19.293,18.533 19.128,18.290 19.055 C 18.139 19.010,17.220 19.000,13.054 19.000 L 8.000 19.000 10.457 15.723 C 12.096 13.538,12.929 12.396,12.957 12.293 C 13.011 12.098,13.011 11.902,12.957 11.707 C 12.929 11.604,12.096 10.462,10.457 8.277 L 8.000 5.000 13.090 4.998 C 17.238 4.997,18.208 4.987,18.330 4.943 C 18.551 4.864,18.744 4.702,18.869 4.489 C 18.964 4.328,18.980 4.256,18.980 4.000 C 18.980 3.746,18.963 3.672,18.872 3.516 C 18.740 3.293,18.533 3.128,18.290 3.055 C 18.028 2.976,5.947 2.978,5.695 3.057 " stroke="none" fill-rule="evenodd" fill="black"></path></svg>