<svg xmlns="http://www.w3.org/2000/svg" width="24" height="24" viewBox="0 0 24 24" version="1.1">
	<path d="M 12.845 5 C 12.380 5, 12 5.395, 12 5.878 C 12 6.360, 12.662 7.304, 13.470 7.975 C 14.754 9.041, 14.690 9.688, 12.967 13.065 C 11.621 15.704, 10.517 16.752, 9.496 16.360 C 8.673 16.044, 8 16.229, 8 16.771 C 8 17.312, 8.686 18.324, 9.524 19.020 C 10.362 19.716, 11.208 20.108, 11.404 19.893 C 11.599 19.677, 12.968 17.093, 14.446 14.152 C 17.001 9.068, 17.048 8.711, 15.411 6.902 C 14.465 5.856, 13.310 5, 12.845 5 M 6 11 C 4.350 11, 3 11.450, 3 12 C 3 12.550, 4.350 13, 6 13 C 7.650 13, 9 12.550, 9 12 C 9 11.450, 7.650 11, 6 11" stroke="none" fill="black" fill-rule="evenodd"/>
</svg>