<svg xmlns="http://www.w3.org/2000/svg" width="24" height="24" viewBox="0 0 24 24" version="1.1">
	<path d="M 12 3 C 8.150 3, 5 3.295, 5 3.656 C 5 4.016, 6.125 5.786, 7.500 7.589 C 8.875 9.392, 10 11.377, 10 12 C 10 12.623, 8.875 14.608, 7.500 16.411 C 6.125 18.214, 5 19.984, 5 20.344 C 5 20.705, 8.150 21, 12 21 C 16 21, 19 20.571, 19 20 C 19 19.450, 16.502 19, 13.449 19 L 7.898 19 10.568 15.500 L 13.237 12 10.568 8.500 L 7.898 5 13.449 5 C 16.502 5, 19 4.550, 19 4 C 19 3.429, 16 3, 12 3" stroke="none" fill="black" fill-rule="evenodd"/>
</svg>