<svg xmlns="http://www.w3.org/2000/svg" width="24" height="24" viewBox="0 0 24 24" version="1.1">
	<path d="M 4 3.094 C 4 3.695, 4.900 4.423, 6 4.710 C 7.787 5.177, 8 6.074, 8 13.117 C 8 17.706, 8.418 21, 9 21 C 9.583 21, 10 17.667, 10 13 C 10 5.667, 10.167 5, 12 5 C 13.833 5, 14 5.667, 14 13 C 14 17.667, 14.417 21, 15 21 C 15.582 21, 16 17.706, 16 13.117 C 16 6.074, 16.213 5.177, 18 4.710 C 19.100 4.423, 20 3.695, 20 3.094 C 20 2.393, 17.123 2, 12 2 C 6.877 2, 4 2.393, 4 3.094" stroke="none" fill="#000000" fill-rule="evenodd"/>
</svg>