<svg viewBox="0 0 24 24" xmlns="http://www.w3.org/2000/svg" fill="none" stroke="#000000" stroke-width="2" stroke-linecap="round" stroke-linejoin="round"><path d="M12.670 5.061 C 12.448 5.142,12.250 5.309,12.128 5.516 C 12.036 5.672,12.020 5.745,12.021 6.000 C 12.021 6.213,12.043 6.341,12.095 6.440 C 12.136 6.517,12.756 7.170,13.474 7.890 L 14.779 9.201 12.760 13.240 C 11.649 15.462,10.733 17.280,10.724 17.280 C 10.715 17.280,10.444 17.022,10.123 16.707 C 9.645 16.238,9.503 16.122,9.342 16.067 C 8.866 15.905,8.383 16.083,8.128 16.516 C 8.036 16.672,8.020 16.745,8.021 17.000 C 8.021 17.213,8.043 17.341,8.095 17.440 C 8.197 17.633,10.297 19.740,10.520 19.873 C 10.672 19.964,10.746 19.980,11.000 19.980 C 11.256 19.980,11.328 19.964,11.489 19.869 C 11.592 19.808,11.721 19.700,11.775 19.629 C 11.828 19.558,13.021 17.200,14.426 14.389 L 16.980 9.278 16.980 8.989 C 16.980 8.747,16.962 8.670,16.873 8.520 C 16.814 8.421,16.040 7.618,15.153 6.736 C 13.714 5.305,13.519 5.124,13.343 5.066 C 13.108 4.987,12.875 4.986,12.670 5.061 M3.695 11.057 C 3.466 11.129,3.256 11.299,3.128 11.516 C 3.037 11.672,3.020 11.746,3.020 12.000 C 3.020 12.256,3.036 12.328,3.131 12.489 C 3.256 12.702,3.449 12.864,3.670 12.943 C 3.889 13.021,8.111 13.021,8.330 12.943 C 8.551 12.864,8.744 12.702,8.869 12.489 C 8.964 12.328,8.980 12.256,8.980 12.000 C 8.980 11.746,8.963 11.672,8.872 11.516 C 8.740 11.293,8.533 11.128,8.290 11.055 C 8.033 10.978,3.943 10.979,3.695 11.057 " stroke="none" fill-rule="evenodd" fill="black"></path></svg>