<svg xmlns="http://www.w3.org/2000/svg" width="24" height="24" viewBox="0 0 24 24" version="1.1">
	<path d="M 12 5.878 C 12 6.360, 12.662 7.304, 13.470 7.975 C 14.754 9.041, 14.690 9.688, 12.967 13.065 C 11.621 15.704, 10.517 16.752, 9.496 16.360 C 7.548 15.612, 7.566 17.395, 9.524 19.020 C 11.356 20.540, 11.119 20.775, 14.446 14.152 C 17.001 9.068, 17.048 8.711, 15.411 6.902 C 13.591 4.891, 12 4.413, 12 5.878 M 3 12 C 3 12.550, 4.350 13, 6 13 C 7.650 13, 9 12.550, 9 12 C 9 11.450, 7.650 11, 6 11 C 4.350 11, 3 11.450, 3 12" stroke="none" fill="#000000" fill-rule="evenodd"/>
</svg>