<svg viewBox="0 0 24 24" xmlns="http://www.w3.org/2000/svg" fill="none" stroke="#000000" stroke-width="2" stroke-linecap="round" stroke-linejoin="round"><path d="M4.695 2.057 C 4.006 2.272,3.800 3.092,4.225 3.929 C 4.361 4.199,4.800 4.638,5.070 4.775 C 5.472 4.979,5.642 5.000,6.868 5.000 L 7.999 5.000 8.010 12.653 L 8.020 20.306 8.141 20.503 C 8.209 20.613,8.346 20.756,8.452 20.828 C 8.923 21.144,9.554 20.999,9.859 20.503 L 9.980 20.306 9.990 12.653 L 10.001 5.000 12.000 5.000 L 13.999 5.000 14.010 12.653 L 14.020 20.306 14.141 20.503 C 14.543 21.156,15.457 21.156,15.859 20.503 L 15.980 20.306 15.990 12.655 L 16.001 5.005 17.154 4.992 L 18.307 4.980 18.503 4.859 C 18.740 4.713,18.946 4.423,18.982 4.183 C 19.007 4.012,19.012 4.007,19.183 3.982 C 19.423 3.946,19.713 3.740,19.859 3.503 C 19.966 3.329,19.980 3.271,19.980 3.003 C 19.980 2.746,19.964 2.672,19.872 2.516 C 19.740 2.293,19.533 2.128,19.290 2.055 C 19.027 1.976,4.947 1.978,4.695 2.057 " stroke="none" fill-rule="evenodd" fill="black"></path></svg>