<svg xmlns="http://www.w3.org/2000/svg" width="24" height="24" viewBox="0 0 24 24" version="1.1">
	<path d="M 2.667 2.667 C 1.613 3.720, 1.891 9, 3 9 C 3.550 9, 4 7.875, 4 6.500 C 4 4.500, 4.500 4, 6.500 4 C 7.875 4, 9 3.550, 9 3 C 9 1.891, 3.720 1.613, 2.667 2.667 M 15 2.937 C 15 3.521, 16.125 4, 17.500 4 C 19.500 4, 20 4.500, 20 6.500 C 20 7.875, 20.479 9, 21.063 9 C 21.661 9, 21.989 7.576, 21.813 5.750 C 21.538 2.892, 21.108 2.462, 18.250 2.187 C 16.424 2.011, 15 2.339, 15 2.937 M 2.187 18.250 C 2.462 21.108, 2.892 21.538, 5.750 21.813 C 7.576 21.989, 9 21.661, 9 21.063 C 9 20.479, 7.875 20, 6.500 20 C 4.500 20, 4 19.500, 4 17.500 C 4 16.125, 3.521 15, 2.937 15 C 2.339 15, 2.011 16.424, 2.187 18.250 M 20 17.500 C 20 19.500, 19.500 20, 17.500 20 C 16.125 20, 15 20.479, 15 21.063 C 15 21.661, 16.424 21.989, 18.250 21.813 C 21.108 21.538, 21.538 21.108, 21.813 18.250 C 21.989 16.424, 21.661 15, 21.063 15 C 20.479 15, 20 16.125, 20 17.500" stroke="none" fill="#000000" fill-rule="evenodd"/>
</svg>