<svg xmlns="http://www.w3.org/2000/svg" width="24" height="24" viewBox="0 0 24 24" version="1.1">
	<path d="M 5.500 2 C 2.167 2, 2 2.167, 2 5.500 C 2 7.425, 2.450 9, 3 9 C 3.550 9, 4 7.875, 4 6.500 C 4 4.500, 4.500 4, 6.500 4 C 7.875 4, 9 3.550, 9 3 C 9 2.450, 7.425 2, 5.500 2 M 18.500 2 C 16.575 2, 15 2.450, 15 3 C 15 3.550, 16.125 4, 17.500 4 C 19.500 4, 20 4.500, 20 6.500 C 20 7.875, 20.450 9, 21 9 C 21.550 9, 22 7.425, 22 5.500 C 22 2.167, 21.833 2, 18.500 2 M 3 15 C 2.450 15, 2 16.575, 2 18.500 C 2 21.833, 2.167 22, 5.500 22 C 7.425 22, 9 21.550, 9 21 C 9 20.450, 7.875 20, 6.500 20 C 4.500 20, 4 19.500, 4 17.500 C 4 16.125, 3.550 15, 3 15 M 21 15 C 20.450 15, 20 16.125, 20 17.500 C 20 19.500, 19.500 20, 17.500 20 C 16.125 20, 15 20.450, 15 21 C 15 21.550, 16.575 22, 18.500 22 C 21.833 22, 22 21.833, 22 18.500 C 22 16.575, 21.550 15, 21 15" stroke="none" fill="black" fill-rule="evenodd"/>
</svg>