<svg xmlns="http://www.w3.org/2000/svg" width="24" height="24" viewBox="0 0 24 24" version="1.1">
	<path d="M 6 4.257 C 6 4.948, 6.446 7.067, 6.990 8.966 C 7.644 11.246, 7.644 12.756, 6.990 13.410 C 5.379 15.021, 5.859 19.562, 7.829 21.345 C 10.244 23.531, 14.284 23.448, 16.345 21.171 C 18.181 19.142, 18.541 14.941, 17.010 13.410 C 16.356 12.756, 16.356 11.246, 17.010 8.966 C 18.672 3.171, 18.528 3, 12 3 C 7.850 3, 6 3.387, 6 4.257 M 8.758 7.515 C 9.467 11.223, 11 11.596, 11 8.059 C 11 6.145, 10.490 5, 9.639 5 C 8.724 5, 8.435 5.825, 8.758 7.515 M 13 8.059 C 13 11.596, 14.533 11.223, 15.242 7.515 C 15.565 5.825, 15.276 5, 14.361 5 C 13.510 5, 13 6.145, 13 8.059 M 9.031 14.369 C 6.537 16.863, 9.104 21.519, 12.595 20.833 C 15.164 20.327, 16.705 17.342, 15.435 15.328 C 14.222 13.405, 10.546 12.854, 9.031 14.369" stroke="none" fill="#000000" fill-rule="evenodd"/>
</svg>