<svg viewBox="0 0 24 24" xmlns="http://www.w3.org/2000/svg" fill="none" stroke="#000000" stroke-width="2" stroke-linecap="round" stroke-linejoin="round"><path d="M6.664 3.063 C 6.440 3.145,6.257 3.296,6.139 3.497 C 5.931 3.853,5.901 3.676,6.940 8.350 L 7.890 12.627 7.680 12.844 C 6.920 13.628,6.359 14.701,6.115 15.840 C 5.984 16.450,5.984 17.558,6.114 18.160 C 6.639 20.588,8.417 22.365,10.840 22.885 C 11.190 22.960,11.383 22.975,12.000 22.975 C 12.822 22.975,13.248 22.909,13.940 22.672 C 15.954 21.982,17.426 20.298,17.885 18.160 C 18.015 17.554,18.015 16.446,17.885 15.840 C 17.637 14.682,17.123 13.692,16.353 12.886 L 16.109 12.631 17.060 8.352 C 18.097 3.683,18.069 3.853,17.863 3.502 C 17.740 3.292,17.528 3.127,17.290 3.055 C 17.012 2.971,6.892 2.979,6.664 3.063 M10.990 8.047 L 10.980 11.093 10.700 11.149 C 10.546 11.180,10.261 11.260,10.068 11.327 C 9.874 11.394,9.706 11.439,9.694 11.427 C 9.682 11.415,9.360 9.996,8.977 8.273 C 8.595 6.550,8.274 5.109,8.265 5.070 C 8.249 5.004,8.333 5.000,9.624 5.000 L 11.000 5.000 10.990 8.047 M15.735 5.070 C 15.726 5.109,15.405 6.550,15.023 8.273 C 14.640 9.996,14.318 11.415,14.306 11.427 C 14.294 11.439,14.126 11.394,13.932 11.327 C 13.739 11.260,13.454 11.180,13.300 11.149 L 13.020 11.093 13.010 8.047 L 13.000 5.000 14.376 5.000 C 15.667 5.000,15.751 5.004,15.735 5.070 M11.136 13.480 C 11.245 13.694,11.499 13.900,11.732 13.963 C 12.246 14.102,12.826 13.779,12.961 13.277 C 12.999 13.136,13.009 13.128,13.111 13.159 C 14.372 13.543,15.374 14.511,15.797 15.755 C 15.897 16.050,16.000 16.680,16.000 17.000 C 16.000 17.322,15.897 17.951,15.796 18.245 C 15.321 19.632,14.195 20.628,12.773 20.917 C 10.563 21.368,8.396 19.845,8.058 17.605 C 7.986 17.121,7.986 16.879,8.058 16.395 C 8.278 14.938,9.298 13.717,10.712 13.219 L 10.980 13.125 11.013 13.213 C 11.031 13.261,11.086 13.381,11.136 13.480 " stroke="none" fill-rule="evenodd" fill="black"></path></svg>