<svg xmlns="http://www.w3.org/2000/svg" width="24" height="24" viewBox="0 0 24 24" version="1.1">
	<path d="M 12 3 C 7.850 3, 6 3.387, 6 4.257 C 6 4.948, 6.446 7.067, 6.990 8.966 C 7.644 11.246, 7.644 12.756, 6.990 13.410 C 6.446 13.954, 6 15.590, 6 17.045 C 6 18.500, 6.823 20.435, 7.829 21.345 C 8.835 22.255, 10.790 23, 12.174 23 C 13.558 23, 15.435 22.177, 16.345 21.171 C 17.255 20.165, 18 18.230, 18 16.871 C 18 15.512, 17.554 13.954, 17.010 13.410 C 16.356 12.756, 16.356 11.246, 17.010 8.966 C 17.554 7.067, 18 4.948, 18 4.257 C 18 3.387, 16.150 3, 12 3 M 9.639 5 C 8.724 5, 8.435 5.825, 8.758 7.515 C 9.022 8.898, 9.635 10.274, 10.119 10.574 C 10.604 10.873, 11 9.741, 11 8.059 C 11 6.145, 10.490 5, 9.639 5 M 14.361 5 C 13.510 5, 13 6.145, 13 8.059 C 13 9.741, 13.396 10.873, 13.881 10.574 C 14.365 10.274, 14.978 8.898, 15.242 7.515 C 15.565 5.825, 15.276 5, 14.361 5 M 12.221 13.498 C 11.033 13.410, 9.597 13.803, 9.031 14.369 C 8.464 14.936, 8 16.155, 8 17.078 C 8 18, 8.653 19.297, 9.452 19.960 C 10.251 20.623, 11.665 21.015, 12.595 20.833 C 13.525 20.650, 14.782 19.712, 15.388 18.750 C 16.166 17.514, 16.180 16.509, 15.435 15.328 C 14.856 14.409, 13.409 13.585, 12.221 13.498" stroke="none" fill="black" fill-rule="evenodd"/>
</svg>