<svg xmlns="http://www.w3.org/2000/svg" width="24" height="24" viewBox="0 0 24 24" version="1.1">
	<path d="M 3 6 C 3 6.593, 6.667 7, 12 7 C 17.333 7, 21 6.593, 21 6 C 21 5.407, 17.333 5, 12 5 C 6.667 5, 3 5.407, 3 6 M 3 12 C 3 12.593, 6.667 13, 12 13 C 17.333 13, 21 12.593, 21 12 C 21 11.407, 17.333 11, 12 11 C 6.667 11, 3 11.407, 3 12 M 3 18 C 3 18.550, 5.025 19, 7.500 19 C 9.975 19, 12 18.550, 12 18 C 12 17.450, 9.975 17, 7.500 17 C 5.025 17, 3 17.450, 3 18" stroke="none" fill="#000000" fill-rule="evenodd"/>
</svg>