<svg xmlns="http://www.w3.org/2000/svg" width="24" height="24" viewBox="0 0 24 24" version="1.1">
	<path d="M 2 6.500 L 2 11 6.500 11 L 11 11 11 6.500 L 11 2 6.500 2 L 2 2 2 6.500 M 13 6.500 L 13 11 17.500 11 L 22 11 22 6.500 L 22 2 17.500 2 L 13 2 13 6.500 M 4 6.500 C 4 8.500, 4.500 9, 6.500 9 C 8.500 9, 9 8.500, 9 6.500 C 9 4.500, 8.500 4, 6.500 4 C 4.500 4, 4 4.500, 4 6.500 M 15 6.500 C 15 8.500, 15.500 9, 17.500 9 C 19.500 9, 20 8.500, 20 6.500 C 20 4.500, 19.500 4, 17.500 4 C 15.500 4, 15 4.500, 15 6.500 M 2 17.500 L 2 22 6.500 22 L 11 22 11 17.500 L 11 13 6.500 13 L 2 13 2 17.500 M 13 17.500 L 13 22 17.500 22 L 22 22 22 17.500 L 22 13 17.500 13 L 13 13 13 17.500 M 4 17.500 C 4 19.500, 4.500 20, 6.500 20 C 8.500 20, 9 19.500, 9 17.500 C 9 15.500, 8.500 15, 6.500 15 C 4.500 15, 4 15.500, 4 17.500 M 15 17.500 C 15 19.500, 15.500 20, 17.500 20 C 19.500 20, 20 19.500, 20 17.500 C 20 15.500, 19.500 15, 17.500 15 C 15.500 15, 15 15.500, 15 17.500" stroke="none" fill="black" fill-rule="evenodd"/>
</svg>