<svg xmlns="http://www.w3.org/2000/svg" width="24" height="24" viewBox="0 0 24 24" version="1.1">
	<path d="M 3 6 C 3 6.550, 5.250 7, 8 7 C 10.750 7, 13 6.550, 13 6 C 13 5.450, 10.750 5, 8 5 C 5.250 5, 3 5.450, 3 6 M 3 12 C 3 12.593, 6.667 13, 12 13 C 17.333 13, 21 12.593, 21 12 C 21 11.407, 17.333 11, 12 11 C 6.667 11, 3 11.407, 3 12 M 11 18 C 11 18.550, 13.250 19, 16 19 C 18.750 19, 21 18.550, 21 18 C 21 17.450, 18.750 17, 16 17 C 13.250 17, 11 17.450, 11 18" stroke="none" fill="#000000" fill-rule="evenodd"/>
</svg>