<svg xmlns="http://www.w3.org/2000/svg" width="24" height="24" viewBox="0 0 24 24" version="1.1">
	<path d="M 5 10 C 4.515 10, 3.816 10.489, 3.446 11.087 C 3.077 11.685, 3.275 12.675, 3.887 13.287 C 4.704 14.104, 5.296 14.104, 6.113 13.287 C 6.725 12.675, 6.923 11.685, 6.554 11.087 C 6.184 10.489, 5.485 10, 5 10 M 12 10 C 11.515 10, 10.816 10.489, 10.446 11.087 C 10.077 11.685, 10.275 12.675, 10.887 13.287 C 11.704 14.104, 12.296 14.104, 13.113 13.287 C 13.725 12.675, 13.923 11.685, 13.554 11.087 C 13.184 10.489, 12.485 10, 12 10 M 19 10 C 18.515 10, 17.816 10.489, 17.446 11.087 C 17.077 11.685, 17.275 12.675, 17.887 13.287 C 18.704 14.104, 19.296 14.104, 20.113 13.287 C 20.725 12.675, 20.923 11.685, 20.554 11.087 C 20.184 10.489, 19.485 10, 19 10" stroke="none" fill="black" fill-rule="evenodd"/>
</svg>