<svg xmlns="http://www.w3.org/2000/svg" width="24" height="24" viewBox="0 0 24 24" version="1.1">
	<path d="M 12 3 C 11.515 3, 10.816 3.489, 10.446 4.087 C 10.077 4.685, 10.275 5.675, 10.887 6.287 C 11.704 7.104, 12.296 7.104, 13.113 6.287 C 13.725 5.675, 13.923 4.685, 13.554 4.087 C 13.184 3.489, 12.485 3, 12 3 M 12 10 C 11.515 10, 10.816 10.489, 10.446 11.087 C 10.077 11.685, 10.275 12.675, 10.887 13.287 C 11.704 14.104, 12.296 14.104, 13.113 13.287 C 13.725 12.675, 13.923 11.685, 13.554 11.087 C 13.184 10.489, 12.485 10, 12 10 M 12 17 C 11.515 17, 10.816 17.489, 10.446 18.087 C 10.077 18.685, 10.275 19.675, 10.887 20.287 C 11.704 21.104, 12.296 21.104, 13.113 20.287 C 13.725 19.675, 13.923 18.685, 13.554 18.087 C 13.184 17.489, 12.485 17, 12 17" stroke="none" fill="black" fill-rule="evenodd"/>
</svg>