<svg xmlns="http://www.w3.org/2000/svg" width="24" height="24" viewBox="0 0 24 24" version="1.1">
	<path d="M 12.452 2.215 C 7.475 2.058, 3.087 2.246, 2.702 2.632 C 2.316 3.018, 2 7.533, 2 12.667 C 2 17.800, 2.380 22, 2.845 22 C 3.310 22, 4.488 21.119, 5.462 20.041 C 6.846 18.513, 8.800 18.019, 14.367 17.791 L 21.500 17.500 21.500 10 L 21.500 2.500 12.452 2.215 M 12 4 L 4 4 4 11.200 C 4 16.800, 4.267 18.133, 5.200 17.200 C 5.898 16.502, 9.244 16, 13.200 16 L 20 16 20 10 L 20 4 12 4" stroke="none" fill="black" fill-rule="evenodd"/>
</svg>