<svg xmlns="http://www.w3.org/2000/svg" width="24" height="24" viewBox="0 0 24 24" version="1.1">
	<path d="M 2.702 2.632 C 1.696 3.638, 1.832 22, 2.845 22 C 3.310 22, 4.488 21.119, 5.462 20.041 C 6.846 18.513, 8.800 18.019, 14.367 17.791 L 21.500 17.500 21.500 10 L 21.500 2.500 12.452 2.215 C 7.475 2.058, 3.087 2.246, 2.702 2.632 M 4 11.200 C 4 16.800, 4.267 18.133, 5.200 17.200 C 5.898 16.502, 9.244 16, 13.200 16 L 20 16 20 10 L 20 4 12 4 L 4 4 4 11.200 M 7 10 C 7 10.550, 7.450 11, 8 11 C 8.550 11, 9 10.550, 9 10 C 9 9.450, 8.550 9, 8 9 C 7.450 9, 7 9.450, 7 10 M 11 10 C 11 10.550, 11.450 11, 12 11 C 12.550 11, 13 10.550, 13 10 C 13 9.450, 12.550 9, 12 9 C 11.450 9, 11 9.450, 11 10 M 15 10 C 15 10.550, 15.450 11, 16 11 C 16.550 11, 17 10.550, 17 10 C 17 9.450, 16.550 9, 16 9 C 15.450 9, 15 9.450, 15 10" stroke="none" fill="#000000" fill-rule="evenodd"/>
</svg>