<svg xmlns="http://www.w3.org/2000/svg" width="24" height="24" viewBox="0 0 24 24" version="1.1">
	<path d="M 12.500 2 C 9.782 2, 8.086 2.760, 5.875 4.971 C 3.417 7.429, 2.935 8.679, 3.082 12.221 C 3.179 14.574, 2.910 17.803, 2.484 19.395 C 1.734 22.202, 1.798 22.266, 4.605 21.516 C 6.197 21.090, 9.426 20.821, 11.779 20.918 C 15.321 21.065, 16.571 20.583, 19.029 18.125 C 21.240 15.914, 22 14.218, 22 11.500 C 22 8.795, 21.241 7.087, 19.077 4.923 C 16.913 2.759, 15.205 2, 12.500 2 M 12.500 4 C 11.075 4, 8.821 5.089, 7.490 6.419 C 5.515 8.394, 5.110 9.724, 5.283 13.671 L 5.495 18.505 10.329 18.717 C 14.276 18.890, 15.606 18.485, 17.581 16.510 C 18.911 15.179, 20 12.925, 20 11.500 C 20 10.075, 18.895 7.805, 17.545 6.455 C 16.195 5.105, 13.925 4, 12.500 4" stroke="none" fill="black" fill-rule="evenodd"/>
</svg>