<svg xmlns="http://www.w3.org/2000/svg" width="24" height="24" viewBox="0 0 24 24" version="1.1">
	<path d="M 12 1 C 11.035 1, 9.715 1.638, 9.067 2.419 C 8.393 3.231, 8.020 6.072, 8.195 9.066 C 8.408 12.723, 9.026 14.624, 10.250 15.392 C 11.521 16.189, 12.479 16.189, 13.750 15.392 C 14.974 14.624, 15.592 12.723, 15.805 9.066 C 15.980 6.072, 15.607 3.231, 14.933 2.419 C 14.285 1.638, 12.965 1, 12 1 M 12.251 3.250 C 11.563 3.021, 10.746 3.499, 10.434 4.312 C 10.122 5.125, 10.009 7.524, 10.183 9.645 C 10.399 12.264, 10.981 13.500, 12 13.500 C 13.130 13.500, 13.500 12.287, 13.500 8.583 C 13.500 5.540, 13.024 3.508, 12.251 3.250 M 5 9 C 4.450 9, 4 10.155, 4 11.566 C 4 12.977, 4.461 14.993, 5.025 16.047 C 5.589 17.100, 7.276 18.628, 8.775 19.441 C 11.354 20.841, 11.380 20.922, 9.250 20.960 C 8.012 20.982, 7 21.450, 7 22 C 7 22.550, 9.250 23, 12 23 C 14.750 23, 17 22.550, 17 22 C 17 21.450, 15.988 20.982, 14.750 20.960 C 12.620 20.922, 12.646 20.841, 15.225 19.441 C 16.724 18.628, 18.411 17.100, 18.975 16.047 C 19.539 14.993, 20 12.977, 20 11.566 C 20 10.155, 19.550 9, 19 9 C 18.450 9, 18 10.125, 18 11.500 C 18 12.875, 17.100 14.900, 16 16 C 14.900 17.100, 13.100 18, 12 18 C 10.900 18, 9.100 17.100, 8 16 C 6.900 14.900, 6 12.875, 6 11.500 C 6 10.125, 5.550 9, 5 9" stroke="none" fill="black" fill-rule="evenodd"/>
</svg>