<svg xmlns="http://www.w3.org/2000/svg" width="24" height="24" viewBox="0 0 24 24" version="1.1">
	<path d="M 9.067 2.419 C 7.257 4.601, 8.119 14.055, 10.250 15.392 C 11.521 16.189, 12.479 16.189, 13.750 15.392 C 15.881 14.055, 16.743 4.601, 14.933 2.419 C 13.423 0.599, 10.577 0.599, 9.067 2.419 M 10.434 4.312 C 9.339 7.165, 10.419 13.500, 12 13.500 C 13.130 13.500, 13.500 12.287, 13.500 8.583 C 13.500 3.741, 11.645 1.156, 10.434 4.312 M 4 11.566 C 4 15.117, 5.566 17.700, 8.775 19.441 C 11.354 20.841, 11.380 20.922, 9.250 20.960 C 4.584 21.043, 7.222 23, 12 23 C 16.778 23, 19.416 21.043, 14.750 20.960 C 12.620 20.922, 12.646 20.841, 15.225 19.441 C 16.724 18.628, 18.411 17.100, 18.975 16.047 C 20.288 13.594, 20.304 9, 19 9 C 18.450 9, 18 10.125, 18 11.500 C 18 14.503, 14.772 18, 12 18 C 9.228 18, 6 14.503, 6 11.500 C 6 10.125, 5.550 9, 5 9 C 4.450 9, 4 10.155, 4 11.566" stroke="none" fill="#000000" fill-rule="evenodd"/>
</svg>