<svg xmlns="http://www.w3.org/2000/svg" width="24" height="24" viewBox="0 0 24 24" version="1.1">
	<path d="M 0.766 0 C 0.345 0, 0 0.359, 0 0.797 C 0 1.235, 1.800 3.352, 4 5.500 C 6.200 7.648, 8 10.350, 8 11.503 C 8 12.656, 8.540 14.140, 9.200 14.800 C 9.860 15.460, 11.462 16, 12.759 16 C 14.077 16, 14.845 16.441, 14.500 17 C 14.160 17.550, 13.009 18, 11.941 18 C 10.873 18, 9.100 17.100, 8 16 C 6.900 14.900, 6 12.875, 6 11.500 C 6 10.125, 5.550 9, 5 9 C 4.450 9, 4 10.370, 4 12.045 C 4 13.946, 4.923 16.014, 6.455 17.545 C 7.805 18.895, 9.380 20, 9.955 20 C 10.530 20, 11 20.450, 11 21 C 11 21.550, 10.100 22, 9 22 C 7.900 22, 7 22.450, 7 23 C 7 23.550, 9.250 24, 12 24 C 14.750 24, 17 23.550, 17 23 C 17 22.450, 16.100 22, 15 22 C 13.900 22, 13 21.580, 13 21.067 C 13 20.554, 13.942 19.836, 15.094 19.470 C 16.604 18.991, 17.995 19.579, 20.083 21.580 C 21.676 23.106, 23.299 24.034, 23.690 23.644 C 24.081 23.253, 19.255 17.773, 12.967 11.466 C 6.678 5.160, 1.188 0, 0.766 0 M 11.922 -0 C 11 -0, 9.676 0.686, 8.980 1.524 C 8.284 2.362, 7.993 3.327, 8.333 3.667 C 8.673 4.007, 9.618 3.732, 10.432 3.056 C 11.246 2.381, 12.382 2.118, 12.956 2.473 C 13.530 2.828, 14 4.666, 14 6.559 C 14 8.452, 14.450 10, 15 10 C 15.550 10, 16 8.290, 16 6.200 C 16 4.110, 15.460 1.860, 14.800 1.200 C 14.140 0.540, 12.845 -0, 11.922 -0 M 19 9 C 18.450 9, 18 10.125, 18 11.500 C 18 12.875, 18.450 14, 19 14 C 19.550 14, 20 12.875, 20 11.500 C 20 10.125, 19.550 9, 19 9" stroke="none" fill="black" fill-rule="evenodd"/>
</svg>