<svg xmlns="http://www.w3.org/2000/svg" width="24" height="24" viewBox="0 0 24 24" version="1.1">
	<path d="M 0 0.797 C 0 1.235, 1.800 3.352, 4 5.500 C 6.200 7.648, 8 10.350, 8 11.503 C 8 14.262, 9.840 16, 12.759 16 C 14.077 16, 14.845 16.441, 14.500 17 C 12.550 20.155, 6 15.917, 6 11.500 C 6 10.125, 5.550 9, 5 9 C 4.450 9, 4 10.370, 4 12.045 C 4 15.045, 7.710 20, 9.955 20 C 10.530 20, 11 20.450, 11 21 C 11 21.550, 10.100 22, 9 22 C 7.900 22, 7 22.450, 7 23 C 7 23.550, 9.250 24, 12 24 C 14.750 24, 17 23.550, 17 23 C 17 22.450, 16.100 22, 15 22 C 12.369 22, 12.431 20.315, 15.094 19.470 C 16.604 18.991, 17.995 19.579, 20.083 21.580 C 21.676 23.106, 23.299 24.034, 23.690 23.644 C 24.409 22.925, 2.182 0, 0.766 0 C 0.345 0, 0 0.359, 0 0.797 M 8.980 1.524 C 7.357 3.480, 8.486 4.671, 10.432 3.056 C 12.596 1.260, 14 2.638, 14 6.559 C 14 8.452, 14.450 10, 15 10 C 16.414 10, 16.247 2.647, 14.800 1.200 C 13.149 -0.451, 10.497 -0.304, 8.980 1.524 M 18 11.500 C 18 12.875, 18.450 14, 19 14 C 19.550 14, 20 12.875, 20 11.500 C 20 10.125, 19.550 9, 19 9 C 18.450 9, 18 10.125, 18 11.500" stroke="none" fill="black" fill-rule="evenodd"/>
</svg>