<svg xmlns="http://www.w3.org/2000/svg" width="24" height="24" viewBox="0 0 24 24" version="1.1">
	<path d="M 9.070 1.416 C 7.231 3.632, 8.110 14.048, 10.250 15.391 C 13.478 17.417, 15.464 14.974, 15.802 8.562 C 16.122 2.515, 15.005 0, 12 0 C 11.035 0, 9.716 0.637, 9.070 1.416 M 10.437 3.302 C 9.312 6.236, 10.425 13.500, 12 13.500 C 13.946 13.500, 14.182 2.894, 12.251 2.250 C 11.563 2.021, 10.747 2.495, 10.437 3.302 M 4 12.045 C 4 15.045, 7.710 20, 9.955 20 C 10.530 20, 11 20.450, 11 21 C 11 21.550, 10.100 22, 9 22 C 7.900 22, 7 22.450, 7 23 C 7 23.550, 9.250 24, 12 24 C 14.750 24, 17 23.550, 17 23 C 17 22.450, 16.100 22, 15 22 C 13.900 22, 13 21.550, 13 21 C 13 20.450, 13.470 20, 14.045 20 C 16.290 20, 20 15.045, 20 12.045 C 20 10.370, 19.550 9, 19 9 C 18.450 9, 18 10.125, 18 11.500 C 18 14.503, 14.772 18, 12 18 C 9.228 18, 6 14.503, 6 11.500 C 6 10.125, 5.550 9, 5 9 C 4.450 9, 4 10.370, 4 12.045" stroke="none" fill="#000000" fill-rule="evenodd"/>
</svg>