<svg xmlns="http://www.w3.org/2000/svg" width="24" height="24" viewBox="0 0 24 24" version="1.1">
	<path d="M 12 0 C 11.035 0, 9.716 0.637, 9.070 1.416 C 8.381 2.246, 8.020 5.199, 8.198 8.562 C 8.416 12.704, 8.985 14.598, 10.250 15.391 C 11.521 16.189, 12.479 16.189, 13.750 15.391 C 15.015 14.598, 15.584 12.704, 15.802 8.562 C 15.980 5.199, 15.619 2.246, 14.930 1.416 C 14.284 0.637, 12.965 0, 12 0 M 12.251 2.250 C 11.563 2.021, 10.747 2.495, 10.437 3.302 C 10.127 4.110, 10.015 6.735, 10.187 9.136 C 10.407 12.209, 10.944 13.500, 12 13.500 C 13.149 13.500, 13.500 12.231, 13.500 8.083 C 13.500 4.640, 13.045 2.515, 12.251 2.250 M 5 9 C 4.450 9, 4 10.370, 4 12.045 C 4 13.946, 4.923 16.014, 6.455 17.545 C 7.805 18.895, 9.380 20, 9.955 20 C 10.530 20, 11 20.450, 11 21 C 11 21.550, 10.100 22, 9 22 C 7.900 22, 7 22.450, 7 23 C 7 23.550, 9.250 24, 12 24 C 14.750 24, 17 23.550, 17 23 C 17 22.450, 16.100 22, 15 22 C 13.900 22, 13 21.550, 13 21 C 13 20.450, 13.470 20, 14.045 20 C 14.620 20, 16.195 18.895, 17.545 17.545 C 19.077 16.014, 20 13.946, 20 12.045 C 20 10.370, 19.550 9, 19 9 C 18.450 9, 18 10.125, 18 11.500 C 18 12.875, 17.100 14.900, 16 16 C 14.900 17.100, 13.100 18, 12 18 C 10.900 18, 9.100 17.100, 8 16 C 6.900 14.900, 6 12.875, 6 11.500 C 6 10.125, 5.550 9, 5 9" stroke="none" fill="black" fill-rule="evenodd"/>
</svg>