<svg xmlns="http://www.w3.org/2000/svg" width="24" height="24" viewBox="0 0 24 24" version="1.1">
	<path d="M 1.435 4.308 C 1.144 5.067, 1.040 9.020, 1.203 13.094 L 1.500 20.500 12 20.500 L 22.500 20.500 22.500 12 L 22.500 3.500 12.232 3.215 C 4.230 2.993, 1.847 3.234, 1.435 4.308 M 3 12 L 3 19 12 19 L 21 19 21 12 L 21 5 12 5 L 3 5 3 12 M 17 10 C 17 11.650, 17.450 13, 18 13 C 18.550 13, 19 11.650, 19 10 C 19 8.350, 18.550 7, 18 7 C 17.450 7, 17 8.350, 17 10 M 5 12 C 5 12.550, 7.250 13, 10 13 C 12.750 13, 15 12.550, 15 12 C 15 11.450, 12.750 11, 10 11 C 7.250 11, 5 11.450, 5 12 M 17 15 C 17 15.550, 17.450 16, 18 16 C 18.550 16, 19 15.550, 19 15 C 19 14.450, 18.550 14, 18 14 C 17.450 14, 17 14.450, 17 15" stroke="none" fill="#000000" fill-rule="evenodd"/>
</svg>