<svg xmlns="http://www.w3.org/2000/svg" width="24" height="24" viewBox="0 0 24 24" version="1.1">
	<path d="M 10.714 3.619 C 10.321 4.012, 10 5.357, 10 6.608 C 10 7.859, 9.550 9.160, 9 9.500 C 8.450 9.840, 8 11.216, 8 12.559 C 8 14.333, 8.546 15, 10 15 C 11.100 15, 12 14.550, 12 14 C 12 13.450, 13.800 13, 16 13 C 19.333 13, 20 13.333, 20 15 C 20 19.129, 16.570 21, 9 21 C 5 21, 2 21.429, 2 22 C 2 22.600, 6 23, 12 23 C 18 23, 22 22.600, 22 22 C 22 21.450, 21.534 21, 20.965 21 C 20.251 21, 20.251 20.399, 20.965 19.066 C 22.538 16.126, 22.208 12.534, 20.121 9.880 C 19.087 8.566, 18.071 6.593, 17.862 5.496 C 17.600 4.114, 16.553 3.409, 14.456 3.203 C 12.791 3.039, 11.107 3.227, 10.714 3.619 M 12 6 C 12 6.550, 12.900 7, 14 7 C 15.100 7, 16 6.550, 16 6 C 16 5.450, 15.100 5, 14 5 C 12.900 5, 12 5.450, 12 6 M 12 10 C 12 10.550, 12.900 11, 14 11 C 15.100 11, 16 10.550, 16 10 C 16 9.450, 15.100 9, 14 9 C 12.900 9, 12 9.450, 12 10 M 5 18 C 5 18.550, 7.250 19, 10 19 C 12.750 19, 15 18.550, 15 18 C 15 17.450, 12.750 17, 10 17 C 7.250 17, 5 17.450, 5 18" stroke="none" fill="black" fill-rule="evenodd"/>
</svg>