<svg viewBox="0 0 24 24" xmlns="http://www.w3.org/2000/svg" fill="none" stroke="#000000" stroke-width="2" stroke-linecap="round" stroke-linejoin="round"><path d="M3.499 3.043 C 2.380 3.232,1.461 4.048,1.114 5.160 L 1.020 5.460 1.020 12.000 L 1.020 18.540 1.114 18.840 C 1.422 19.827,2.173 20.578,3.160 20.886 L 3.460 20.980 12.000 20.980 L 20.540 20.980 20.840 20.886 C 21.827 20.578,22.578 19.827,22.886 18.840 L 22.980 18.540 22.980 12.000 L 22.980 5.460 22.886 5.160 C 22.581 4.182,21.832 3.428,20.861 3.121 L 20.540 3.020 12.120 3.014 C 7.489 3.011,3.609 3.024,3.499 3.043 M20.310 5.061 C 20.589 5.144,20.856 5.411,20.939 5.690 C 20.992 5.869,21.000 6.651,21.000 12.001 C 21.000 17.059,20.991 18.139,20.945 18.290 C 20.872 18.533,20.707 18.740,20.484 18.872 L 20.300 18.980 12.000 18.980 L 3.700 18.980 3.516 18.872 C 3.303 18.747,3.141 18.550,3.058 18.316 C 2.968 18.060,2.971 5.993,3.061 5.690 C 3.140 5.421,3.412 5.143,3.673 5.063 C 3.833 5.014,5.030 5.005,11.983 5.003 C 19.144 5.000,20.130 5.007,20.310 5.061 M17.695 7.057 C 17.466 7.129,17.256 7.299,17.128 7.516 L 17.020 7.700 17.020 10.003 L 17.020 12.306 17.141 12.503 C 17.209 12.613,17.346 12.756,17.452 12.828 C 17.923 13.144,18.554 12.999,18.859 12.503 L 18.980 12.306 18.980 10.003 L 18.980 7.700 18.872 7.516 C 18.628 7.101,18.150 6.915,17.695 7.057 M5.695 11.057 C 5.466 11.129,5.256 11.299,5.128 11.516 C 5.037 11.672,5.020 11.746,5.020 12.000 C 5.020 12.256,5.036 12.328,5.131 12.489 C 5.256 12.702,5.449 12.864,5.670 12.943 C 5.892 13.022,14.108 13.022,14.330 12.943 C 14.551 12.864,14.744 12.702,14.869 12.489 C 14.964 12.328,14.980 12.256,14.980 12.000 C 14.980 11.746,14.963 11.672,14.872 11.516 C 14.740 11.293,14.533 11.128,14.290 11.055 C 14.029 10.976,5.946 10.979,5.695 11.057 M17.695 14.055 C 17.464 14.130,17.255 14.300,17.128 14.516 C 17.037 14.672,17.020 14.746,17.020 15.000 C 17.020 15.257,17.036 15.327,17.133 15.492 C 17.651 16.374,18.998 16.018,18.998 15.000 C 18.998 14.623,18.792 14.281,18.463 14.112 C 18.265 14.010,17.911 13.984,17.695 14.055 " stroke="none" fill-rule="evenodd" fill="black"></path></svg>