<svg viewBox="0 0 24 24" xmlns="http://www.w3.org/2000/svg" fill="none" stroke="#000000" stroke-width="2" stroke-linecap="round" stroke-linejoin="round"><path d="M11.477 0.073 C 11.130 0.164,10.802 0.366,10.535 0.653 C 10.179 1.036,10.000 1.485,10.000 1.993 C 10.000 2.221,9.993 2.245,9.930 2.218 C 9.032 1.828,8.151 1.988,7.534 2.653 C 7.142 3.077,6.976 3.542,7.011 4.120 C 7.033 4.485,7.134 4.812,7.304 5.062 C 7.404 5.209,7.404 5.210,7.323 5.267 C 7.278 5.298,7.191 5.408,7.131 5.512 C 7.036 5.673,7.020 5.744,7.021 6.000 C 7.021 6.213,7.043 6.341,7.095 6.440 C 7.197 6.633,9.297 8.740,9.520 8.873 C 9.672 8.964,9.746 8.980,10.000 8.980 C 10.256 8.980,10.328 8.964,10.489 8.869 C 10.702 8.744,10.864 8.551,10.943 8.330 C 10.989 8.202,10.997 8.536,10.998 10.646 L 11.000 13.111 10.850 13.139 C 10.596 13.185,10.117 13.362,9.760 13.541 C 8.594 14.126,7.691 15.162,7.268 16.400 C 7.078 16.956,7.020 17.330,7.020 18.000 C 7.020 18.670,7.078 19.044,7.268 19.600 C 7.846 21.291,9.253 22.525,11.040 22.907 C 11.511 23.008,12.489 23.008,12.960 22.907 C 14.488 22.580,15.748 21.630,16.433 20.288 C 16.662 19.839,16.805 19.439,16.907 18.960 C 17.008 18.489,17.008 17.511,16.907 17.040 C 16.572 15.476,15.597 14.214,14.180 13.510 C 13.874 13.358,13.386 13.182,13.150 13.139 L 13.000 13.111 13.002 10.646 C 13.003 8.536,13.011 8.202,13.057 8.330 C 13.136 8.551,13.298 8.744,13.511 8.869 C 13.672 8.964,13.744 8.980,14.000 8.980 C 14.254 8.980,14.328 8.964,14.480 8.873 C 14.703 8.740,16.803 6.633,16.905 6.440 C 16.957 6.341,16.979 6.213,16.979 6.000 C 16.980 5.744,16.964 5.673,16.869 5.512 C 16.809 5.408,16.720 5.296,16.672 5.263 C 16.593 5.207,16.591 5.196,16.648 5.131 C 16.834 4.919,17.000 4.391,16.999 4.014 C 16.998 3.493,16.818 3.033,16.466 2.653 C 15.849 1.988,14.968 1.828,14.070 2.218 C 14.008 2.245,14.000 2.222,13.999 2.014 C 13.998 1.492,13.818 1.033,13.465 0.653 C 13.074 0.232,12.560 0.005,12.000 0.005 C 11.857 0.005,11.622 0.036,11.477 0.073 M11.340 3.894 C 11.503 3.962,11.625 3.977,12.000 3.977 C 12.464 3.977,12.463 3.977,12.930 3.781 C 12.992 3.755,13.000 3.779,13.000 4.007 C 13.000 4.546,13.195 5.003,13.596 5.404 C 13.863 5.671,14.116 5.828,14.432 5.922 L 14.604 5.974 13.886 6.697 C 13.213 7.376,13.040 7.589,13.040 7.738 C 13.040 7.772,13.022 7.800,13.000 7.800 C 12.978 7.800,12.960 7.768,12.960 7.728 C 12.960 7.688,12.909 7.576,12.847 7.478 C 12.542 6.997,11.893 6.867,11.423 7.192 C 11.255 7.307,11.040 7.609,11.040 7.728 C 11.040 7.768,11.022 7.800,11.000 7.800 C 10.978 7.800,10.960 7.772,10.960 7.738 C 10.960 7.589,10.787 7.376,10.114 6.697 L 9.396 5.974 9.568 5.922 C 9.884 5.828,10.137 5.671,10.404 5.404 C 10.802 5.006,11.000 4.540,11.000 4.000 C 11.000 3.779,11.008 3.755,11.070 3.781 C 11.108 3.797,11.230 3.848,11.340 3.894 M12.861 15.129 C 13.804 15.405,14.584 16.183,14.875 17.139 C 14.958 17.412,14.973 17.542,14.973 18.000 C 14.973 18.458,14.958 18.588,14.875 18.861 C 14.582 19.822,13.819 20.581,12.840 20.886 C 12.588 20.964,12.453 20.979,12.000 20.979 C 11.547 20.979,11.412 20.964,11.160 20.886 C 10.181 20.581,9.418 19.822,9.125 18.861 C 9.042 18.588,9.027 18.458,9.027 18.000 C 9.027 17.542,9.042 17.412,9.125 17.139 C 9.456 16.054,10.371 15.245,11.499 15.040 C 11.832 14.980,12.500 15.023,12.861 15.129 " stroke="none" fill-rule="evenodd" fill="black"></path></svg>