<svg xmlns="http://www.w3.org/2000/svg" width="24" height="24" viewBox="0 0 24 24" version="1.1">
	<path d="M 11.785 0.052 C 11.628 0.081, 10.488 0.811, 9.250 1.674 C 8.012 2.538, 7 4.085, 7 5.113 C 7 6.142, 7.900 7.545, 9 8.232 C 10.100 8.919, 11 10.173, 11 11.018 C 11 11.864, 10.100 13.326, 9 14.268 C 7.900 15.210, 7 16.853, 7 17.919 C 7 18.985, 7.707 20.564, 8.571 21.429 C 9.436 22.293, 10.979 23, 12 23 C 13.021 23, 14.564 22.293, 15.429 21.429 C 16.293 20.564, 17 18.985, 17 17.919 C 17 16.853, 16.100 15.210, 15 14.268 C 13.900 13.326, 13 11.864, 13 11.018 C 13 10.173, 13.900 8.919, 15 8.232 C 16.100 7.545, 17 6.139, 17 5.107 C 17 4.074, 15.891 2.503, 14.535 1.615 C 13.180 0.727, 11.942 0.024, 11.785 0.052 M 12.375 4.292 C 11.825 4.108, 11.066 4.268, 10.688 4.646 C 10.309 5.024, 10 5.708, 10 6.167 C 10 6.625, 10.938 7, 12.083 7 C 13.247 7, 13.992 6.476, 13.771 5.813 C 13.553 5.159, 12.925 4.475, 12.375 4.292 M 12 15 C 11.585 15, 10.666 15.698, 9.958 16.550 C 8.896 17.831, 8.961 18.390, 10.336 19.764 C 11.888 21.317, 12.112 21.317, 13.664 19.764 C 15.039 18.390, 15.104 17.831, 14.042 16.550 C 13.334 15.698, 12.415 15, 12 15" stroke="none" fill="black" fill-rule="evenodd"/>
</svg>