<svg xmlns="http://www.w3.org/2000/svg" width="24" height="24" viewBox="0 0 24 24" version="1.1">
	<path d="M 9.250 1.674 C 6.463 3.618, 6.350 6.577, 9 8.232 C 10.100 8.919, 11 10.173, 11 11.018 C 11 11.864, 10.100 13.326, 9 14.268 C 5.483 17.279, 7.448 23, 12 23 C 16.552 23, 18.517 17.279, 15 14.268 C 13.900 13.326, 13 11.864, 13 11.018 C 13 10.173, 13.900 8.919, 15 8.232 C 17.723 6.531, 17.515 3.567, 14.535 1.615 C 11.634 -0.286, 12.067 -0.291, 9.250 1.674 M 10.688 4.646 C 9.383 5.950, 10.006 7, 12.083 7 C 13.247 7, 13.992 6.476, 13.771 5.813 C 13.284 4.351, 11.614 3.719, 10.688 4.646 M 9.958 16.550 C 8.896 17.831, 8.961 18.390, 10.336 19.764 C 11.888 21.317, 12.112 21.317, 13.664 19.764 C 15.039 18.390, 15.104 17.831, 14.042 16.550 C 12.423 14.600, 11.577 14.600, 9.958 16.550" stroke="none" fill="black" fill-rule="evenodd"/>
</svg>