<svg xmlns="http://www.w3.org/2000/svg" width="24" height="24" viewBox="0 0 24 24" version="1.1">
	<path d="M 8.063 2 C 7.479 2, 7 3.125, 7 4.500 C 7 6.500, 6.500 7, 4.500 7 C 3.125 7, 2 7.479, 2 8.063 C 2 8.661, 3.424 8.989, 5.250 8.813 C 8.108 8.538, 8.538 8.108, 8.813 5.250 C 8.989 3.424, 8.661 2, 8.063 2 M 15.937 2 C 15.339 2, 15.011 3.424, 15.187 5.250 C 15.462 8.108, 15.892 8.538, 18.750 8.813 C 20.576 8.989, 22 8.661, 22 8.063 C 22 7.479, 20.875 7, 19.500 7 C 17.500 7, 17 6.500, 17 4.500 C 17 3.125, 16.521 2, 15.937 2 M 5.250 15.187 C 3.424 15.011, 2 15.339, 2 15.937 C 2 16.521, 3.125 17, 4.500 17 C 6.500 17, 7 17.500, 7 19.500 C 7 20.875, 7.479 22, 8.063 22 C 8.661 22, 8.989 20.576, 8.813 18.750 C 8.538 15.892, 8.108 15.462, 5.250 15.187 M 19.167 15 C 17.608 15, 16.033 15.300, 15.667 15.667 C 15.300 16.033, 15 17.608, 15 19.167 C 15 20.725, 15.450 22, 16 22 C 16.550 22, 17 20.875, 17 19.500 C 17 17.500, 17.500 17, 19.500 17 C 20.875 17, 22 16.550, 22 16 C 22 15.450, 20.725 15, 19.167 15" stroke="none" fill="black" fill-rule="evenodd"/>
</svg>