<svg xmlns="http://www.w3.org/2000/svg" width="24" height="24" viewBox="0 0 24 24" version="1.1">
	<path d="M 12 2 C 10.052 2, 8.002 2.907, 6.455 4.455 C 4.907 6.002, 4 8.052, 4 10 C 4 11.948, 4.907 13.998, 6.455 15.545 C 7.805 16.895, 9.380 18, 9.955 18 C 10.530 18, 11 18.675, 11 19.500 C 11 20.325, 10.325 21, 9.500 21 C 8.675 21, 8 21.450, 8 22 C 8 22.550, 9.800 23, 12 23 C 14.200 23, 16 22.550, 16 22 C 16 21.450, 15.325 21, 14.500 21 C 13.675 21, 13 20.325, 13 19.500 C 13 18.675, 13.470 18, 14.045 18 C 14.620 18, 16.195 16.895, 17.545 15.545 C 19.093 13.998, 20 11.948, 20 10 C 20 8.052, 19.093 6.002, 17.545 4.455 C 15.998 2.907, 13.948 2, 12 2 M 12 4 C 10.900 4, 9.100 4.900, 8 6 C 6.900 7.100, 6 8.900, 6 10 C 6 11.100, 6.900 12.900, 8 14 C 9.100 15.100, 10.900 16, 12 16 C 13.100 16, 14.900 15.100, 16 14 C 17.100 12.900, 18 11.100, 18 10 C 18 8.900, 17.100 7.100, 16 6 C 14.900 4.900, 13.100 4, 12 4" stroke="none" fill="black" fill-rule="evenodd"/>
</svg>