<svg xmlns="http://www.w3.org/2000/svg" width="24" height="24" viewBox="0 0 24 24" version="1.1">
	<path d="M 6.455 4.455 C 4.907 6.002, 4 8.052, 4 10 C 4 13.044, 7.689 18, 9.955 18 C 10.530 18, 11 18.675, 11 19.500 C 11 20.325, 10.325 21, 9.500 21 C 8.675 21, 8 21.450, 8 22 C 8 22.550, 9.800 23, 12 23 C 14.200 23, 16 22.550, 16 22 C 16 21.450, 15.325 21, 14.500 21 C 13.675 21, 13 20.325, 13 19.500 C 13 18.675, 13.470 18, 14.045 18 C 16.311 18, 20 13.044, 20 10 C 20 5.889, 16.111 2, 12 2 C 10.052 2, 8.002 2.907, 6.455 4.455 M 8 6 C 5.454 8.546, 5.454 11.454, 8 14 C 10.546 16.546, 13.454 16.546, 16 14 C 18.546 11.454, 18.546 8.546, 16 6 C 13.454 3.454, 10.546 3.454, 8 6" stroke="none" fill="#000000" fill-rule="evenodd"/>
</svg>