<svg xmlns="http://www.w3.org/2000/svg" width="24" height="24" viewBox="0 0 24 24" version="1.1">
	<path d="M 5.455 4.455 C 2.186 7.723, 1.902 16.902, 4.975 19.975 C 8.815 23.815, 15.185 23.815, 19.025 19.975 C 22.098 16.902, 21.814 7.723, 18.545 4.455 C 15.134 1.044, 8.866 1.044, 5.455 4.455 M 7.223 5.557 C 5.443 6.803, 5 8.084, 5 11.985 C 5 19.027, 9.781 22.768, 15.157 19.935 C 18.463 18.193, 18.967 17.123, 18.985 11.807 C 18.997 8.080, 18.542 6.793, 16.777 5.557 C 13.940 3.569, 10.060 3.569, 7.223 5.557 M 8.610 7.494 C 6.827 8.844, 6.815 9.068, 8.383 11.462 C 9.298 12.858, 10.925 14, 12 14 C 13.075 14, 14.702 12.858, 15.617 11.462 C 17.185 9.068, 17.173 8.844, 15.390 7.494 C 12.996 5.682, 11.004 5.682, 8.610 7.494 M 10.800 11.200 C 11.733 12.133, 12.267 12.133, 13.200 11.200 C 14.133 10.267, 13.867 10, 12 10 C 10.133 10, 9.867 10.267, 10.800 11.200" stroke="none" fill="#000000" fill-rule="evenodd"/>
</svg>