<svg xmlns="http://www.w3.org/2000/svg" width="24" height="24" viewBox="0 0 24 24" version="1.1">
	<path d="M 12 2 C 8.990 2, 7.261 2.648, 5.455 4.455 C 3.439 6.470, 3 7.900, 3 12.455 C 3 16.643, 3.483 18.483, 4.975 19.975 C 6.061 21.061, 8.086 22.234, 9.475 22.583 C 10.864 22.932, 13.136 22.932, 14.525 22.583 C 15.914 22.234, 17.939 21.061, 19.025 19.975 C 20.517 18.483, 21 16.643, 21 12.455 C 21 7.900, 20.561 6.470, 18.545 4.455 C 16.739 2.648, 15.010 2, 12 2 M 12 4 C 10.595 4, 8.445 4.701, 7.223 5.557 C 5.443 6.803, 5 8.084, 5 11.985 C 5 15.079, 5.573 17.430, 6.570 18.427 C 7.433 19.291, 9.191 20.261, 10.477 20.584 C 11.762 20.906, 13.868 20.614, 15.157 19.935 C 16.446 19.256, 17.831 18.205, 18.235 17.600 C 18.639 16.995, 18.976 14.388, 18.985 11.807 C 18.997 8.080, 18.542 6.793, 16.777 5.557 C 15.555 4.701, 13.405 4, 12 4 M 12 6.064 C 11.175 6.064, 9.650 6.707, 8.610 7.494 C 6.827 8.844, 6.815 9.068, 8.383 11.462 C 9.298 12.858, 10.925 14, 12 14 C 13.075 14, 14.702 12.858, 15.617 11.462 C 17.185 9.068, 17.173 8.844, 15.390 7.494 C 14.350 6.707, 12.825 6.064, 12 6.064 M 12 10 C 10.133 10, 9.867 10.267, 10.800 11.200 C 11.733 12.133, 12.267 12.133, 13.200 11.200 C 14.133 10.267, 13.867 10, 12 10" stroke="none" fill="black" fill-rule="evenodd"/>
</svg>