<svg xmlns="http://www.w3.org/2000/svg" width="24" height="24" viewBox="0 0 24 24" version="1.1">
	<path d="M 12.232 2.215 C 4.190 1.991, 1.849 2.231, 1.431 3.320 C 1.137 4.085, 1.033 7.588, 1.199 11.105 L 1.500 17.500 6.250 17.805 C 8.863 17.972, 11 18.535, 11 19.055 C 11 19.575, 10.100 20, 9 20 C 7.900 20, 7 20.450, 7 21 C 7 21.550, 9.250 22, 12 22 C 14.750 22, 17 21.550, 17 21 C 17 20.450, 16.100 20, 15 20 C 13.900 20, 13 19.575, 13 19.055 C 13 18.535, 15.137 17.972, 17.750 17.805 L 22.500 17.500 22.500 10 L 22.500 2.500 12.232 2.215 M 12 4 L 3 4 3 10 L 3 16 12 16 L 21 16 21 10 L 21 4 12 4" stroke="none" fill="black" fill-rule="evenodd"/>
</svg>