<svg xmlns="http://www.w3.org/2000/svg" width="24" height="24" viewBox="0 0 24 24" version="1.1">
	<path d="M 10.795 2.035 C 10.083 2.055, 8.425 2.667, 7.110 3.396 C 5.796 4.124, 4.124 5.796, 3.396 7.110 C 2.667 8.425, 2.055 10.535, 2.035 11.800 C 2.016 13.064, 2.641 15.339, 3.425 16.855 C 4.209 18.371, 6.030 20.148, 7.472 20.805 C 8.914 21.462, 10.952 22, 12 22 C 13.048 22, 15.086 21.462, 16.528 20.805 C 17.970 20.148, 19.791 18.371, 20.575 16.855 C 21.359 15.339, 22 13.622, 22 13.038 C 22 12.371, 20.602 12.200, 18.236 12.578 C 15.226 13.060, 14.102 12.770, 12.618 11.130 C 11.202 9.565, 10.920 8.242, 11.427 5.540 C 11.911 2.960, 11.740 2.010, 10.795 2.035 M 8.830 7.561 C 8.520 4.800, 8.397 4.724, 6.816 6.316 C 5.889 7.249, 4.836 8.942, 4.475 10.080 C 4.114 11.217, 4.348 13.426, 4.995 14.988 C 5.642 16.550, 7.483 18.372, 9.086 19.036 C 11.364 19.979, 12.639 19.978, 14.928 19.030 C 16.539 18.363, 18.100 17.183, 18.397 16.408 C 18.782 15.404, 18.135 15, 16.143 15 C 14.532 15, 12.461 14.047, 11.254 12.750 C 10.103 11.512, 9.012 9.177, 8.830 7.561" stroke="none" fill="black" fill-rule="evenodd"/>
</svg>