<svg xmlns="http://www.w3.org/2000/svg" width="24" height="24" viewBox="0 0 24 24" version="1.1">
	<path d="M 7.110 3.396 C 2.378 6.018, 0.801 11.780, 3.425 16.855 C 6.867 23.510, 17.133 23.510, 20.575 16.855 C 22.786 12.580, 22.419 11.909, 18.236 12.578 C 13.111 13.398, 10.465 10.663, 11.427 5.540 C 12.165 1.601, 11.207 1.125, 7.110 3.396 M 16.446 5.087 C 15.416 6.755, 17.733 8.667, 19.113 7.287 C 20.267 6.133, 19.545 4, 18 4 C 17.515 4, 16.816 4.489, 16.446 5.087 M 5.333 8.428 C 3.967 11.292, 3.901 12.348, 4.935 14.843 C 6.590 18.838, 10.965 20.671, 14.928 19.030 C 18.864 17.400, 19.754 15, 16.423 15 C 13.174 15, 9 10.809, 9 7.545 C 9 3.964, 7.262 4.382, 5.333 8.428" stroke="none" fill="#000000" fill-rule="evenodd"/>
</svg>