<svg xmlns="http://www.w3.org/2000/svg" width="24" height="24" viewBox="0 0 24 24" version="1.1">
	<path d="M 7.110 3.396 C 2.378 6.018, 0.801 11.780, 3.425 16.855 C 6.867 23.510, 17.133 23.510, 20.575 16.855 C 22.786 12.580, 22.419 11.909, 18.236 12.578 C 13.111 13.398, 10.465 10.663, 11.427 5.540 C 12.165 1.601, 11.207 1.125, 7.110 3.396 M 6.816 6.316 C 0.742 12.429, 7.040 22.297, 14.928 19.030 C 19.032 17.330, 19.734 15, 16.143 15 C 12.690 15, 9.275 11.526, 8.830 7.561 C 8.520 4.800, 8.397 4.724, 6.816 6.316" stroke="none" fill="#000000" fill-rule="evenodd"/>
</svg>