<svg xmlns="http://www.w3.org/2000/svg" width="24" height="24" viewBox="0 0 24 24" version="1.1">
	<path d="M 10.795 2.035 C 10.083 2.055, 8.425 2.667, 7.110 3.396 C 5.796 4.124, 4.124 5.796, 3.396 7.110 C 2.667 8.425, 2.055 10.535, 2.035 11.800 C 2.016 13.064, 2.641 15.339, 3.425 16.855 C 4.209 18.371, 6.030 20.148, 7.472 20.805 C 8.914 21.462, 10.952 22, 12 22 C 13.048 22, 15.086 21.462, 16.528 20.805 C 17.970 20.148, 19.791 18.371, 20.575 16.855 C 21.359 15.339, 22 13.622, 22 13.038 C 22 12.371, 20.602 12.200, 18.236 12.578 C 15.226 13.060, 14.102 12.770, 12.618 11.130 C 11.202 9.565, 10.920 8.242, 11.427 5.540 C 11.911 2.960, 11.740 2.010, 10.795 2.035 M 18 4 C 17.515 4, 16.816 4.489, 16.446 5.087 C 16.077 5.685, 16.275 6.675, 16.887 7.287 C 17.704 8.104, 18.296 8.104, 19.113 7.287 C 19.725 6.675, 19.923 5.685, 19.554 5.087 C 19.184 4.489, 18.485 4, 18 4 M 7.984 5 C 7.425 5, 6.232 6.543, 5.333 8.428 C 3.967 11.292, 3.901 12.348, 4.935 14.843 C 5.629 16.520, 7.449 18.358, 9.086 19.036 C 11.364 19.979, 12.639 19.978, 14.928 19.030 C 16.539 18.363, 18.100 17.183, 18.397 16.408 C 18.773 15.427, 18.174 15, 16.423 15 C 15.040 15, 12.805 13.895, 11.455 12.545 C 10.105 11.195, 9 8.945, 9 7.545 C 9 6.145, 8.543 5, 7.984 5" stroke="none" fill="black" fill-rule="evenodd"/>
</svg>