<svg xmlns="http://www.w3.org/2000/svg" width="24" height="24" viewBox="0 0 24 24" version="1.1">
	<path d="M 8.118 2 C 7.577 2, 6.849 2.900, 6.500 4 C 6.151 5.100, 5.397 6, 4.826 6 C 4.254 6, 4.040 6.661, 4.350 7.469 C 4.660 8.277, 4.033 11.498, 2.957 14.626 C 1.881 17.754, 1 20.693, 1 21.157 C 1 21.620, 5.950 22, 12 22 C 18.050 22, 23 21.629, 23 21.175 C 23 20.721, 21.877 17.048, 20.504 13.013 C 19.132 8.977, 17.780 5.447, 17.500 5.167 C 17.221 4.888, 15.897 5.688, 14.558 6.946 L 12.124 9.232 10.613 5.616 C 9.782 3.627, 8.659 2, 8.118 2 M 18.164 12.731 L 16.482 7.962 14.254 10.190 C 12.102 12.343, 11.980 12.355, 10.665 10.556 C 9.870 9.469, 8.799 9.006, 8.090 9.444 C 7.423 9.857, 6.458 11.295, 5.946 12.641 C 5.435 13.987, 4.739 16.193, 4.400 17.544 L 3.783 20 11.892 20 C 17.753 20, 19.979 19.654, 19.922 18.750 C 19.880 18.063, 19.088 15.354, 18.164 12.731" stroke="none" fill="black" fill-rule="evenodd"/>
</svg>