<svg viewBox="0 0 24 24" xmlns="http://www.w3.org/2000/svg" fill="none" stroke="#000000" stroke-width="2" stroke-linecap="round" stroke-linejoin="round"><path d="M7.600 2.083 C 7.381 2.182,7.217 2.333,7.122 2.520 C 7.083 2.597,6.776 3.488,6.440 4.500 C 6.104 5.512,5.824 6.346,5.817 6.354 C 5.811 6.362,5.722 6.304,5.620 6.226 C 5.129 5.852,4.441 5.985,4.129 6.514 C 4.036 6.673,4.020 6.744,4.021 7.000 C 4.022 7.397,4.068 7.476,4.635 8.051 L 5.099 8.523 3.044 14.687 C 1.060 20.641,0.991 20.860,1.011 21.086 C 1.047 21.482,1.300 21.811,1.670 21.943 C 1.794 21.987,3.597 21.997,11.983 21.998 C 21.340 22.000,22.161 21.995,22.340 21.934 C 22.716 21.806,23.000 21.396,23.000 20.984 C 23.000 20.816,18.086 5.986,17.893 5.572 C 17.784 5.337,17.573 5.149,17.319 5.060 C 17.100 4.982,16.902 4.984,16.657 5.065 C 16.479 5.124,16.254 5.336,14.371 7.213 C 13.222 8.358,12.275 9.287,12.265 9.278 C 12.256 9.268,11.483 7.729,10.548 5.857 C 9.613 3.986,8.800 2.399,8.743 2.331 C 8.486 2.025,7.973 1.914,7.600 2.083 M8.440 6.119 C 8.572 6.383,8.680 6.617,8.680 6.639 C 8.680 6.661,8.434 6.843,8.134 7.044 C 7.834 7.245,7.597 7.385,7.608 7.355 C 7.619 7.325,7.752 6.926,7.904 6.470 C 8.055 6.014,8.183 5.640,8.189 5.640 C 8.195 5.640,8.308 5.856,8.440 6.119 M18.581 13.920 C 19.676 17.209,20.580 19.922,20.590 19.950 C 20.605 19.990,18.870 20.000,12.000 20.000 C 5.130 20.000,3.395 19.990,3.410 19.950 C 3.420 19.922,4.172 17.666,5.082 14.937 L 6.735 9.973 6.923 9.991 C 7.026 10.001,7.180 9.987,7.265 9.961 C 7.350 9.934,7.911 9.587,8.510 9.190 C 9.110 8.792,9.607 8.475,9.616 8.484 C 9.624 8.493,9.977 9.193,10.400 10.040 C 11.241 11.723,11.303 11.815,11.682 11.941 C 11.934 12.024,12.201 12.006,12.444 11.887 C 12.568 11.827,13.200 11.222,14.579 9.842 C 15.656 8.764,16.550 7.895,16.564 7.911 C 16.578 7.927,17.486 10.631,18.581 13.920 " stroke="none" fill-rule="evenodd" fill="black"></path></svg>