<svg xmlns="http://www.w3.org/2000/svg" width="24" height="24" viewBox="0 0 24 24" version="1.1">
	<path d="M 4.082 11.252 C 2.387 16.341, 1 20.841, 1 21.252 C 1 21.664, 5.950 22, 12 22 C 18.050 22, 23 21.629, 23 21.175 C 23 20.004, 18.113 5.780, 17.500 5.167 C 17.221 4.888, 15.890 5.694, 14.542 6.960 L 12.092 9.262 10.361 5.631 C 9.409 3.634, 8.300 2, 7.897 2 C 7.494 2, 5.778 6.164, 4.082 11.252 M 6.143 12.043 C 4.964 15.533, 4 18.751, 4 19.194 C 4 19.637, 7.600 20, 12 20 C 16.400 20, 20 19.702, 20 19.338 C 20 18.974, 19.243 16.273, 18.317 13.336 L 16.633 7.996 14.321 10.168 C 11.743 12.590, 11.840 12.623, 9.775 8.599 L 8.286 5.698 6.143 12.043" stroke="none" fill="black" fill-rule="evenodd"/>
</svg>