<svg xmlns="http://www.w3.org/2000/svg" width="24" height="24" viewBox="0 0 24 24" version="1.1">
	<path d="M 6.500 4 C 6.151 5.100, 5.397 6, 4.826 6 C 4.254 6, 4.040 6.661, 4.350 7.469 C 4.660 8.277, 4.033 11.498, 2.957 14.626 C 1.881 17.754, 1 20.693, 1 21.157 C 1 21.620, 5.950 22, 12 22 C 18.050 22, 23 21.629, 23 21.175 C 23 20.004, 18.113 5.780, 17.500 5.167 C 17.221 4.888, 15.897 5.688, 14.558 6.946 L 12.124 9.232 10.613 5.616 C 8.926 1.578, 7.453 0.999, 6.500 4 M 14.254 10.190 C 12.102 12.343, 11.980 12.355, 10.665 10.556 C 8.474 7.561, 6.295 9.991, 4.400 17.544 L 3.783 20 11.892 20 C 20.942 20, 20.789 20.177, 18.164 12.731 L 16.482 7.962 14.254 10.190" stroke="none" fill="black" fill-rule="evenodd"/>
</svg>