<svg xmlns="http://www.w3.org/2000/svg" width="24" height="24" viewBox="0 0 24 24" version="1.1">
	<path d="M 7.174 4.314 C 3.984 7.710, 4.066 16.774, 7.314 19.826 C 10.317 22.646, 14.096 22.591, 16.826 19.686 C 20.016 16.290, 19.934 7.226, 16.686 4.174 C 13.683 1.354, 9.904 1.409, 7.174 4.314 M 8.655 5.829 C 6.326 8.403, 6.434 16.177, 8.829 18.345 C 12.950 22.074, 17 18.843, 17 11.826 C 17 5.019, 12.388 1.704, 8.655 5.829 M 11 9 C 11 10.650, 11.450 12, 12 12 C 12.550 12, 13 10.650, 13 9 C 13 7.350, 12.550 6, 12 6 C 11.450 6, 11 7.350, 11 9" stroke="none" fill="black" fill-rule="evenodd"/>
</svg>