<svg xmlns="http://www.w3.org/2000/svg" width="24" height="24" viewBox="0 0 24 24" version="1.1">
	<path d="M 2 2.712 C 2 4.310, 9.342 21, 10.045 21 C 10.462 21, 11.303 19.570, 11.912 17.822 L 13.020 14.645 15.999 17.499 C 17.638 19.070, 19.289 20.045, 19.667 19.667 C 20.045 19.289, 19.070 17.638, 17.499 15.999 L 14.645 13.020 17.822 11.912 C 19.570 11.303, 21 10.462, 21 10.045 C 21 9.342, 4.310 2, 2.712 2 C 2.321 2, 2 2.321, 2 2.712 M 5.951 7.290 C 6.430 8.505, 7.502 11.075, 8.334 13 L 9.845 16.500 10.846 13.887 C 11.396 12.449, 12.894 10.975, 14.173 10.611 C 16.390 9.980, 16.335 9.875, 13 8.385 C 5.166 4.887, 4.993 4.860, 5.951 7.290" stroke="none" fill="black" fill-rule="evenodd"/>
</svg>