<svg xmlns="http://www.w3.org/2000/svg" width="24" height="24" viewBox="0 0 24 24" version="1.1">
	<path d="M 11.860 2 C 10.479 2, 8.370 3.042, 7.174 4.314 C 5.485 6.113, 5 7.858, 5 12.140 C 5 16.608, 5.438 18.063, 7.314 19.826 C 8.587 21.022, 10.759 22, 12.140 22 C 13.521 22, 15.630 20.958, 16.826 19.686 C 18.515 17.887, 19 16.142, 19 11.860 C 19 7.392, 18.562 5.937, 16.686 4.174 C 15.413 2.978, 13.241 2, 11.860 2 M 11.826 4 C 10.992 4, 9.565 4.823, 8.655 5.829 C 7.629 6.962, 7 9.375, 7 12.174 C 7 15.279, 7.571 17.207, 8.829 18.345 C 9.835 19.255, 11.340 20, 12.174 20 C 13.008 20, 14.435 19.177, 15.345 18.171 C 16.371 17.038, 17 14.625, 17 11.826 C 17 8.721, 16.429 6.793, 15.171 5.655 C 14.165 4.745, 12.660 4, 11.826 4 M 12 6 C 11.450 6, 11 7.350, 11 9 C 11 10.650, 11.450 12, 12 12 C 12.550 12, 13 10.650, 13 9 C 13 7.350, 12.550 6, 12 6" stroke="none" fill="black" fill-rule="evenodd"/>
</svg>