<svg xmlns="http://www.w3.org/2000/svg" width="24" height="24" viewBox="0 0 24 24" version="1.1">
	<path d="M 11.826 1 C 11.542 1, 10.565 1.823, 9.655 2.829 C 8.745 3.835, 8 5.008, 8 5.436 C 8 5.864, 8.675 5.955, 9.500 5.638 C 10.626 5.206, 11 5.803, 11 8.031 C 11 10.656, 10.656 11, 8.031 11 C 5.803 11, 5.206 10.626, 5.638 9.500 C 5.955 8.675, 5.786 8, 5.262 8 C 4.738 8, 3.495 8.900, 2.500 10 C 0.753 11.930, 0.753 12.070, 2.500 14 C 3.495 15.100, 4.738 16, 5.262 16 C 5.786 16, 5.955 15.325, 5.638 14.500 C 5.206 13.374, 5.803 13, 8.031 13 C 10.656 13, 11 13.344, 11 15.969 C 11 18.197, 10.626 18.794, 9.500 18.362 C 8.675 18.045, 8 18.214, 8 18.738 C 8 19.262, 8.900 20.505, 10 21.500 C 11.930 23.247, 12.070 23.247, 14 21.500 C 15.100 20.505, 16 19.262, 16 18.738 C 16 18.214, 15.325 18.045, 14.500 18.362 C 13.374 18.794, 13 18.197, 13 15.969 C 13 13.344, 13.344 13, 15.969 13 C 18.197 13, 18.794 13.374, 18.362 14.500 C 18.045 15.325, 18.214 16, 18.738 16 C 19.262 16, 20.505 15.100, 21.500 14 C 23.247 12.070, 23.247 11.930, 21.500 10 C 20.505 8.900, 19.262 8, 18.738 8 C 18.214 8, 18.045 8.675, 18.362 9.500 C 18.794 10.626, 18.197 11, 15.969 11 C 13.344 11, 13 10.656, 13 8.031 C 13 5.803, 13.374 5.206, 14.500 5.638 C 15.325 5.955, 16 5.786, 16 5.262 C 16 4.738, 15.177 3.565, 14.171 2.655 C 13.165 1.745, 12.110 1, 11.826 1" stroke="none" fill="black" fill-rule="evenodd"/>
</svg>