<svg xmlns="http://www.w3.org/2000/svg" width="24" height="24" viewBox="0 0 24 24" version="1.1">
	<path d="M 2.750 4.470 C 0.605 7.420, 0.528 8.395, 2.500 7.638 C 3.520 7.247, 4 7.692, 4 9.031 C 4 10.115, 3.325 11, 2.500 11 C 1.675 11, 1 11.450, 1 12 C 1 12.550, 1.675 13, 2.500 13 C 3.325 13, 4 13.885, 4 14.969 C 4 16.308, 3.520 16.753, 2.500 16.362 C 0.450 15.575, 0.671 17.025, 3.033 19.861 L 5 22.222 6.967 19.861 C 9.329 17.025, 9.550 15.575, 7.500 16.362 C 6.480 16.753, 6 16.308, 6 14.969 C 6 13.229, 6.699 13, 12 13 C 17.301 13, 18 13.229, 18 14.969 C 18 16.308, 17.520 16.753, 16.500 16.362 C 14.450 15.575, 14.671 17.025, 17.033 19.861 L 19 22.222 20.967 19.861 C 23.329 17.025, 23.550 15.575, 21.500 16.362 C 20.480 16.753, 20 16.308, 20 14.969 C 20 13.885, 20.675 13, 21.500 13 C 22.325 13, 23 12.550, 23 12 C 23 11.450, 22.325 11, 21.500 11 C 20.675 11, 20 10.115, 20 9.031 C 20 7.692, 20.480 7.247, 21.500 7.638 C 23.550 8.425, 23.329 6.975, 20.967 4.139 L 19 1.778 17.033 4.139 C 14.671 6.975, 14.450 8.425, 16.500 7.638 C 17.520 7.247, 18 7.692, 18 9.031 C 18 10.771, 17.301 11, 12 11 C 6.699 11, 6 10.771, 6 9.031 C 6 7.692, 6.480 7.247, 7.500 7.638 C 9.524 8.415, 9.337 6.984, 7.056 4.250 C 4.774 1.514, 4.904 1.508, 2.750 4.470" stroke="none" fill="#000000" fill-rule="evenodd"/>
</svg>