<svg xmlns="http://www.w3.org/2000/svg" width="24" height="24" viewBox="0 0 24 24" version="1.1">
	<path d="M 9.655 2.829 C 7.594 5.106, 7.523 6.397, 9.500 5.638 C 10.626 5.206, 11 5.803, 11 8.031 C 11 10.656, 10.656 11, 8.031 11 C 5.803 11, 5.206 10.626, 5.638 9.500 C 6.461 7.356, 4.629 7.648, 2.500 10 C 0.753 11.930, 0.753 12.070, 2.500 14 C 4.629 16.352, 6.461 16.644, 5.638 14.500 C 5.206 13.374, 5.803 13, 8.031 13 C 10.656 13, 11 13.344, 11 15.969 C 11 18.197, 10.626 18.794, 9.500 18.362 C 7.356 17.539, 7.648 19.371, 10 21.500 C 11.930 23.247, 12.070 23.247, 14 21.500 C 16.352 19.371, 16.644 17.539, 14.500 18.362 C 13.374 18.794, 13 18.197, 13 15.969 C 13 13.344, 13.344 13, 15.969 13 C 18.197 13, 18.794 13.374, 18.362 14.500 C 17.539 16.644, 19.371 16.352, 21.500 14 C 23.247 12.070, 23.247 11.930, 21.500 10 C 19.371 7.648, 17.539 7.356, 18.362 9.500 C 18.794 10.626, 18.197 11, 15.969 11 C 13.344 11, 13 10.656, 13 8.031 C 13 5.803, 13.374 5.206, 14.500 5.638 C 16.577 6.435, 16.380 4.654, 14.171 2.655 C 11.884 0.585, 11.679 0.592, 9.655 2.829" stroke="none" fill="#000000" fill-rule="evenodd"/>
</svg>