<svg viewBox="0 0 24 24" xmlns="http://www.w3.org/2000/svg" fill="none" stroke="#000000" stroke-width="2" stroke-linecap="round" stroke-linejoin="round"><path d="M4.695 2.057 C 4.466 2.129,4.256 2.299,4.128 2.516 C 4.032 2.680,4.019 2.748,4.007 3.140 L 3.993 3.580 2.581 5.000 C 1.804 5.781,1.138 6.481,1.101 6.555 C 0.872 7.009,1.056 7.601,1.508 7.867 C 1.673 7.964,1.742 7.980,2.000 7.979 C 2.213 7.979,2.340 7.957,2.440 7.904 C 2.517 7.864,2.899 7.514,3.290 7.127 L 4.000 6.423 4.000 8.711 L 4.000 11.000 2.946 11.000 C 1.797 11.000,1.644 11.022,1.382 11.221 C 1.302 11.282,1.187 11.415,1.128 11.516 C 1.037 11.672,1.020 11.746,1.020 12.000 C 1.020 12.256,1.036 12.328,1.131 12.489 C 1.192 12.592,1.304 12.725,1.381 12.783 C 1.643 12.983,1.738 12.996,2.910 12.998 L 4.000 13.000 4.000 15.287 L 4.000 17.574 3.270 16.854 C 2.655 16.247,2.509 16.123,2.343 16.067 C 1.865 15.905,1.383 16.083,1.128 16.516 C 1.036 16.672,1.020 16.745,1.021 17.000 C 1.021 17.212,1.043 17.341,1.095 17.440 C 1.136 17.517,1.804 18.219,2.581 19.000 L 3.993 20.420 4.007 20.864 C 4.020 21.275,4.030 21.322,4.142 21.504 C 4.543 22.156,5.457 22.156,5.858 21.504 C 5.970 21.322,5.980 21.275,5.993 20.864 L 6.007 20.420 7.419 19.000 C 8.196 18.219,8.864 17.517,8.905 17.440 C 8.957 17.341,8.979 17.212,8.979 17.000 C 8.980 16.745,8.964 16.672,8.872 16.516 C 8.617 16.083,8.135 15.905,7.657 16.067 C 7.491 16.123,7.345 16.247,6.730 16.854 L 6.000 17.574 6.000 15.287 L 6.000 13.000 12.000 13.000 L 18.000 13.000 18.000 15.287 L 18.000 17.574 17.270 16.854 C 16.655 16.247,16.509 16.123,16.343 16.067 C 15.865 15.905,15.383 16.083,15.128 16.516 C 15.036 16.672,15.020 16.745,15.021 17.000 C 15.021 17.212,15.043 17.341,15.095 17.440 C 15.136 17.517,15.804 18.219,16.581 19.000 L 17.993 20.420 18.007 20.864 C 18.020 21.275,18.030 21.322,18.142 21.504 C 18.543 22.156,19.457 22.156,19.858 21.504 C 19.970 21.322,19.980 21.275,19.993 20.864 L 20.007 20.420 21.419 19.000 C 22.196 18.219,22.864 17.517,22.905 17.440 C 22.957 17.341,22.979 17.212,22.979 17.000 C 22.980 16.745,22.964 16.672,22.872 16.516 C 22.617 16.083,22.135 15.905,21.657 16.067 C 21.491 16.123,21.345 16.247,20.730 16.854 L 20.000 17.574 20.000 15.287 L 20.000 13.000 21.090 12.998 C 22.262 12.996,22.357 12.983,22.619 12.783 C 22.696 12.725,22.808 12.592,22.869 12.489 C 22.964 12.328,22.980 12.256,22.980 12.000 C 22.980 11.746,22.963 11.672,22.872 11.516 C 22.813 11.415,22.698 11.282,22.618 11.221 C 22.356 11.022,22.203 11.000,21.054 11.000 L 20.000 11.000 20.000 8.711 L 20.000 6.423 20.710 7.127 C 21.101 7.514,21.483 7.864,21.560 7.904 C 21.660 7.957,21.787 7.979,22.000 7.979 C 22.258 7.980,22.327 7.964,22.492 7.867 C 22.714 7.737,22.901 7.498,22.965 7.264 C 23.019 7.061,22.989 6.733,22.899 6.555 C 22.862 6.481,22.196 5.781,21.419 5.000 L 20.007 3.580 19.993 3.140 C 19.981 2.747,19.968 2.680,19.870 2.514 C 19.480 1.848,18.520 1.848,18.130 2.514 C 18.032 2.680,18.019 2.747,18.007 3.140 L 17.993 3.580 16.581 5.000 C 15.804 5.781,15.136 6.483,15.095 6.560 C 15.043 6.659,15.021 6.788,15.021 7.000 C 15.020 7.258,15.036 7.327,15.133 7.492 C 15.263 7.714,15.502 7.901,15.736 7.965 C 15.939 8.019,16.267 7.989,16.445 7.899 C 16.519 7.861,16.899 7.514,17.290 7.127 L 18.000 6.423 18.000 8.711 L 18.000 11.000 12.000 11.000 L 6.000 11.000 6.000 8.711 L 6.000 6.423 6.710 7.127 C 7.100 7.514,7.483 7.864,7.560 7.904 C 7.660 7.957,7.787 7.979,8.000 7.979 C 8.258 7.980,8.327 7.964,8.492 7.867 C 8.714 7.737,8.901 7.498,8.965 7.264 C 9.019 7.061,8.989 6.733,8.899 6.555 C 8.862 6.481,8.196 5.781,7.419 5.000 L 6.007 3.580 5.993 3.140 C 5.981 2.748,5.968 2.680,5.872 2.516 C 5.628 2.101,5.150 1.915,4.695 2.057 " stroke="none" fill-rule="evenodd" fill="black"></path></svg>