<svg xmlns="http://www.w3.org/2000/svg" width="24" height="24" viewBox="0 0 24 24" version="1.1">
	<path d="M 4.840 2.031 C 4.653 2.049, 3.713 3.146, 2.750 4.470 C 1.788 5.793, 1 7.177, 1 7.545 C 1 7.913, 1.675 7.955, 2.500 7.638 C 3.520 7.247, 4 7.692, 4 9.031 C 4 10.115, 3.325 11, 2.500 11 C 1.675 11, 1 11.450, 1 12 C 1 12.550, 1.675 13, 2.500 13 C 3.325 13, 4 13.885, 4 14.969 C 4 16.308, 3.520 16.753, 2.500 16.362 C 1.675 16.045, 1.015 16.172, 1.033 16.643 C 1.052 17.114, 1.952 18.562, 3.033 19.861 L 5 22.222 6.967 19.861 C 8.048 18.562, 8.948 17.114, 8.967 16.643 C 8.985 16.172, 8.325 16.045, 7.500 16.362 C 6.480 16.753, 6 16.308, 6 14.969 C 6 13.229, 6.699 13, 12 13 C 17.301 13, 18 13.229, 18 14.969 C 18 16.308, 17.520 16.753, 16.500 16.362 C 15.675 16.045, 15.015 16.172, 15.033 16.643 C 15.052 17.114, 15.952 18.562, 17.033 19.861 L 19 22.222 20.967 19.861 C 22.048 18.562, 22.948 17.114, 22.967 16.643 C 22.985 16.172, 22.325 16.045, 21.500 16.362 C 20.480 16.753, 20 16.308, 20 14.969 C 20 13.885, 20.675 13, 21.500 13 C 22.325 13, 23 12.550, 23 12 C 23 11.450, 22.325 11, 21.500 11 C 20.675 11, 20 10.115, 20 9.031 C 20 7.692, 20.480 7.247, 21.500 7.638 C 22.325 7.955, 22.985 7.828, 22.967 7.357 C 22.948 6.886, 22.048 5.438, 20.967 4.139 L 19 1.778 17.033 4.139 C 15.952 5.438, 15.052 6.886, 15.033 7.357 C 15.015 7.828, 15.675 7.955, 16.500 7.638 C 17.520 7.247, 18 7.692, 18 9.031 C 18 10.771, 17.301 11, 12 11 C 6.699 11, 6 10.771, 6 9.031 C 6 7.692, 6.480 7.247, 7.500 7.638 C 8.325 7.955, 8.985 7.828, 8.967 7.357 C 8.948 6.886, 8.089 5.488, 7.056 4.250 C 6.024 3.012, 5.027 2.014, 4.840 2.031" stroke="none" fill="black" fill-rule="evenodd"/>
</svg>