<svg viewBox="0 0 24 24" xmlns="http://www.w3.org/2000/svg" fill="none" stroke="#000000" stroke-width="2" stroke-linecap="round" stroke-linejoin="round"><path d="M11.660 1.061 C 11.560 1.098,9.557 2.675,6.360 5.233 C 2.127 8.620,1.202 9.377,1.120 9.523 C 1.038 9.668,1.020 9.754,1.020 10.000 C 1.020 10.256,1.036 10.328,1.131 10.489 C 1.192 10.592,1.301 10.723,1.374 10.778 C 1.675 11.008,1.538 11.000,5.425 11.000 L 9.000 11.000 9.000 16.000 L 9.000 21.000 6.446 21.000 C 3.675 21.000,3.672 21.000,3.382 21.221 C 3.302 21.282,3.187 21.415,3.128 21.516 C 3.037 21.672,3.020 21.746,3.020 22.000 C 3.020 22.256,3.036 22.328,3.131 22.489 C 3.256 22.702,3.449 22.864,3.670 22.943 C 3.893 23.022,20.107 23.022,20.330 22.943 C 20.551 22.864,20.744 22.702,20.869 22.489 C 20.964 22.328,20.980 22.256,20.980 22.000 C 20.980 21.746,20.963 21.672,20.872 21.516 C 20.813 21.415,20.698 21.282,20.618 21.221 C 20.328 21.000,20.325 21.000,17.554 21.000 L 15.000 21.000 15.000 16.000 L 15.000 11.000 18.590 10.998 C 21.484 10.997,22.209 10.986,22.330 10.943 C 22.551 10.864,22.744 10.702,22.869 10.489 C 22.962 10.331,22.980 10.254,22.980 10.020 C 22.980 9.462,23.412 9.850,17.684 5.266 C 14.877 3.020,12.509 1.146,12.422 1.103 C 12.223 1.003,11.869 0.984,11.660 1.061 M15.577 6.140 L 19.125 8.980 15.563 8.990 C 13.603 8.996,10.397 8.996,8.437 8.990 L 4.875 8.980 8.427 6.133 C 10.381 4.567,11.991 3.289,12.004 3.293 C 12.017 3.297,13.625 4.578,15.577 6.140 M13.000 16.000 L 13.000 21.000 12.000 21.000 L 11.000 21.000 11.000 16.000 L 11.000 11.000 12.000 11.000 L 13.000 11.000 13.000 16.000 " stroke="none" fill-rule="evenodd" fill="black"></path></svg>