<svg xmlns="http://www.w3.org/2000/svg" width="24" height="24" viewBox="0 0 24 24" version="1.1">
	<path d="M 11.908 1.017 C 11.683 1.026, 9.138 2.887, 6.250 5.152 C 3.362 7.417, 1 9.660, 1 10.135 C 1 10.611, 2.800 11, 5 11 L 9 11 9 16 C 9 20.889, 8.933 21, 6 21 C 4.350 21, 3 21.450, 3 22 C 3 22.593, 6.667 23, 12 23 C 17.333 23, 21 22.593, 21 22 C 21 21.450, 19.650 21, 18 21 C 15.067 21, 15 20.889, 15 16 L 15 11 19 11 C 21.200 11, 23 10.605, 23 10.122 C 23 9.638, 20.596 7.388, 17.658 5.122 C 14.719 2.855, 12.132 1.008, 11.908 1.017 M 12 4 C 11.511 4, 9.849 5.111, 8.306 6.468 L 5.500 8.937 12 8.937 L 18.500 8.937 15.694 6.468 C 14.151 5.111, 12.489 4, 12 4 M 12 11 C 11.450 11, 11 13.250, 11 16 C 11 18.750, 11.450 21, 12 21 C 12.550 21, 13 18.750, 13 16 C 13 13.250, 12.550 11, 12 11" stroke="none" fill="black" fill-rule="evenodd"/>
</svg>