<svg xmlns="http://www.w3.org/2000/svg" width="24" height="24" viewBox="0 0 24 24" version="1.1">
	<path d="M 16.500 2.497 C 15.950 2.684, 13.813 3.118, 11.750 3.463 C 8.014 4.088, 8 4.109, 8 8.976 C 8 13.207, 7.713 13.904, 5.852 14.180 C 1.239 14.867, 0.884 20.943, 5.405 21.833 C 8.763 22.493, 10 20.082, 10 12.878 C 10 9.095, 10.338 5.980, 10.750 5.956 C 11.162 5.932, 13.412 5.543, 15.750 5.091 L 20 4.269 20 8.065 C 20 11.182, 19.616 11.918, 17.852 12.180 C 13.239 12.867, 12.884 18.943, 17.405 19.833 C 20.891 20.518, 22 18.116, 22 9.878 C 22 2.352, 21.900 2.004, 19.750 2.079 C 18.512 2.122, 17.050 2.311, 16.500 2.497 M 16.446 15.087 C 15.416 16.755, 17.733 18.667, 19.113 17.287 C 20.267 16.133, 19.545 14, 18 14 C 17.515 14, 16.816 14.489, 16.446 15.087 M 4.446 17.087 C 3.416 18.755, 5.733 20.667, 7.113 19.287 C 8.267 18.133, 7.545 16, 6 16 C 5.515 16, 4.816 16.489, 4.446 17.087" stroke="none" fill="#000000" fill-rule="evenodd"/>
</svg>