<svg viewBox="0 0 24 24" xmlns="http://www.w3.org/2000/svg" fill="none" stroke="#000000" stroke-width="2" stroke-linecap="round" stroke-linejoin="round"><path d="M14.764 3.022 C 9.762 3.859,8.676 4.052,8.524 4.130 C 8.314 4.238,8.102 4.493,8.042 4.711 C 8.014 4.810,8.000 6.486,8.000 9.690 C 8.000 12.347,7.990 14.520,7.979 14.520 C 7.967 14.520,7.855 14.469,7.729 14.406 C 7.245 14.164,6.548 14.000,6.000 14.000 C 4.635 14.000,3.253 14.787,2.569 15.953 C 1.320 18.083,2.233 20.785,4.512 21.704 C 6.558 22.528,8.877 21.538,9.704 19.488 C 9.779 19.300,9.877 18.972,9.921 18.757 C 9.998 18.378,10.000 18.196,10.000 12.104 C 10.000 8.659,10.009 5.840,10.021 5.840 C 10.032 5.840,12.255 5.471,14.960 5.020 C 17.665 4.569,19.906 4.200,19.939 4.200 C 19.993 4.200,20.000 4.670,20.000 8.360 C 20.000 10.648,19.990 12.520,19.979 12.520 C 19.967 12.520,19.855 12.469,19.729 12.406 C 19.245 12.164,18.548 12.000,18.000 12.000 C 16.635 12.000,15.253 12.787,14.569 13.953 C 13.320 16.083,14.233 18.785,16.512 19.704 C 17.231 19.994,18.023 20.070,18.757 19.921 C 20.385 19.589,21.589 18.384,21.921 16.755 C 21.999 16.371,22.001 16.225,21.990 9.532 L 21.980 2.700 21.872 2.516 C 21.686 2.201,21.331 1.995,20.985 2.004 C 20.894 2.006,18.095 2.464,14.764 3.022 M1.695 5.057 C 1.466 5.129,1.256 5.299,1.128 5.516 C 1.037 5.672,1.020 5.746,1.020 6.000 C 1.020 6.256,1.036 6.328,1.131 6.489 C 1.256 6.702,1.449 6.864,1.670 6.943 C 1.889 7.021,6.111 7.021,6.330 6.943 C 6.551 6.864,6.744 6.702,6.869 6.489 C 6.964 6.328,6.980 6.256,6.980 6.000 C 6.980 5.746,6.963 5.672,6.872 5.516 C 6.740 5.293,6.533 5.128,6.290 5.055 C 6.033 4.978,1.943 4.979,1.695 5.057 M1.695 9.057 C 1.466 9.129,1.256 9.299,1.128 9.516 C 1.037 9.672,1.020 9.746,1.020 10.000 C 1.020 10.256,1.036 10.328,1.131 10.489 C 1.256 10.702,1.449 10.864,1.670 10.943 C 1.889 11.021,6.111 11.021,6.330 10.943 C 6.551 10.864,6.744 10.702,6.869 10.489 C 6.964 10.328,6.980 10.256,6.980 10.000 C 6.980 9.746,6.963 9.672,6.872 9.516 C 6.740 9.293,6.533 9.128,6.290 9.055 C 6.033 8.978,1.943 8.979,1.695 9.057 M18.523 14.073 C 19.262 14.266,19.850 14.924,19.967 15.690 C 20.067 16.343,19.873 16.933,19.403 17.404 C 19.002 17.807,18.547 18.000,18.000 18.000 C 17.485 18.000,17.038 17.822,16.653 17.465 C 15.323 16.229,16.189 14.005,18.000 14.005 C 18.143 14.005,18.378 14.036,18.523 14.073 M6.523 16.073 C 7.262 16.266,7.850 16.924,7.967 17.690 C 8.067 18.343,7.873 18.933,7.403 19.404 C 7.002 19.807,6.547 20.000,6.000 20.000 C 5.485 20.000,5.038 19.822,4.653 19.465 C 3.323 18.229,4.189 16.005,6.000 16.005 C 6.143 16.005,6.378 16.036,6.523 16.073 " stroke="none" fill-rule="evenodd" fill="black"></path></svg>