<svg xmlns="http://www.w3.org/2000/svg" width="24" height="24" viewBox="0 0 24 24" version="1.1">
	<path d="M 19.750 2.079 C 18.512 2.122, 17.050 2.311, 16.500 2.497 C 15.950 2.684, 13.813 3.118, 11.750 3.463 C 8.014 4.088, 8 4.109, 8 8.976 C 8 13.207, 7.713 13.904, 5.852 14.180 C 4.671 14.356, 3.211 15.287, 2.607 16.250 C 1.811 17.521, 1.812 18.479, 2.612 19.750 C 3.218 20.712, 4.475 21.650, 5.405 21.833 C 6.335 22.015, 7.749 21.623, 8.548 20.960 C 9.560 20.120, 10 17.670, 10 12.878 C 10 9.095, 10.338 5.980, 10.750 5.956 C 11.162 5.932, 13.412 5.543, 15.750 5.091 L 20 4.269 20 8.065 C 20 11.182, 19.616 11.918, 17.852 12.180 C 16.671 12.356, 15.211 13.288, 14.607 14.250 C 13.811 15.521, 13.812 16.479, 14.612 17.750 C 15.218 18.713, 16.475 19.650, 17.405 19.833 C 18.335 20.015, 19.749 19.623, 20.548 18.960 C 21.592 18.093, 22 15.544, 22 9.878 C 22 2.352, 21.900 2.004, 19.750 2.079 M 4 5 C 2.350 5, 1 5.450, 1 6 C 1 6.550, 2.350 7, 4 7 C 5.650 7, 7 6.550, 7 6 C 7 5.450, 5.650 5, 4 5 M 4 9 C 2.350 9, 1 9.450, 1 10 C 1 10.550, 2.350 11, 4 11 C 5.650 11, 7 10.550, 7 10 C 7 9.450, 5.650 9, 4 9 M 18 14 C 17.515 14, 16.816 14.489, 16.446 15.087 C 16.077 15.685, 16.275 16.675, 16.887 17.287 C 17.704 18.104, 18.296 18.104, 19.113 17.287 C 19.725 16.675, 19.923 15.685, 19.554 15.087 C 19.184 14.489, 18.485 14, 18 14 M 6 16 C 5.515 16, 4.816 16.489, 4.446 17.087 C 4.077 17.685, 4.275 18.675, 4.887 19.287 C 5.704 20.104, 6.296 20.104, 7.113 19.287 C 7.725 18.675, 7.923 17.685, 7.554 17.087 C 7.184 16.489, 6.485 16, 6 16" stroke="none" fill="black" fill-rule="evenodd"/>
</svg>