<svg xmlns="http://www.w3.org/2000/svg" width="24" height="24" viewBox="0 0 24 24" version="1.1">
	<path d="M 7.489 11.030 C 5.420 16.546, 3.957 21.291, 4.239 21.573 C 4.522 21.855, 6.383 21.308, 8.376 20.358 C 11.810 18.720, 12.190 18.720, 15.624 20.358 C 17.617 21.308, 19.478 21.855, 19.761 21.573 C 20.451 20.882, 12.951 1, 12 1 C 11.588 1, 9.558 5.513, 7.489 11.030 M 9.230 12.573 C 7.414 17.501, 7.369 18.063, 8.838 17.429 C 10.949 16.517, 13.051 16.517, 15.162 17.429 C 16.631 18.063, 16.586 17.501, 14.770 12.573 C 13.641 9.508, 12.395 7, 12 7 C 11.605 7, 10.359 9.508, 9.230 12.573" stroke="none" fill="#000000" fill-rule="evenodd"/>
</svg>