<svg xmlns="http://www.w3.org/2000/svg" width="24" height="24" viewBox="0 0 24 24" version="1.1">
	<path d="M 11.250 5.784 C 6.162 8.350, 2 10.782, 2 11.187 C 2 11.592, 3.786 12.404, 5.970 12.992 C 9.438 13.926, 10.074 14.562, 11.008 18.030 C 11.596 20.214, 12.408 22, 12.813 22 C 13.621 22, 23 3.575, 23 1.987 C 23 0.266, 20.740 0.996, 11.250 5.784 M 12.085 7.897 C 6.906 10.579, 6.786 10.729, 9.320 11.366 C 11.073 11.805, 12.195 12.927, 12.634 14.680 C 13.271 17.214, 13.421 17.094, 16.103 11.915 C 17.644 8.937, 18.927 6.162, 18.953 5.750 C 19.028 4.548, 17.834 4.921, 12.085 7.897" stroke="none" fill="#000000" fill-rule="evenodd"/>
</svg>