<svg xmlns="http://www.w3.org/2000/svg" width="24" height="24" viewBox="0 0 24 24" version="1.1">
	<path d="M 21.750 1.059 C 21.063 1.091, 16.337 3.217, 11.250 5.784 C 6.162 8.350, 2 10.782, 2 11.187 C 2 11.592, 3.786 12.404, 5.970 12.992 C 9.438 13.926, 10.074 14.562, 11.008 18.030 C 11.596 20.214, 12.408 22, 12.813 22 C 13.218 22, 15.675 17.719, 18.274 12.487 C 20.873 7.255, 23 2.530, 23 1.987 C 23 1.444, 22.438 1.026, 21.750 1.059 M 18.250 5.047 C 17.837 5.073, 15.063 6.356, 12.085 7.897 C 6.906 10.579, 6.786 10.729, 9.320 11.366 C 11.073 11.805, 12.195 12.927, 12.634 14.680 C 13.271 17.214, 13.421 17.094, 16.103 11.915 C 17.644 8.937, 18.927 6.162, 18.953 5.750 C 18.979 5.338, 18.663 5.021, 18.250 5.047" stroke="none" fill="black" fill-rule="evenodd"/>
</svg>