<svg xmlns="http://www.w3.org/2000/svg" width="24" height="24" viewBox="0 0 24 24" version="1.1">
	<path d="M 13.571 3 C 11.686 3, 9.436 3.707, 8.571 4.571 C 7.686 5.457, 7 7.827, 7 10 C 7 12.173, 7.686 14.543, 8.571 15.429 C 9.436 16.293, 10.979 17, 12 17 C 13.021 17, 14.564 16.293, 15.429 15.429 C 16.293 14.564, 17 13.021, 17 12 C 17 10.979, 16.254 9.397, 15.342 8.485 C 14.374 7.517, 12.707 7.014, 11.333 7.277 C 9.439 7.639, 9.202 7.461, 10.114 6.363 C 10.736 5.613, 12.540 5, 14.122 5 C 15.705 5, 17 4.550, 17 4 C 17 3.450, 15.457 3, 13.571 3 M 12 9 C 11.585 9, 10.666 9.698, 9.958 10.550 C 8.896 11.831, 8.961 12.390, 10.336 13.764 C 11.888 15.317, 12.112 15.317, 13.664 13.764 C 15.039 12.390, 15.104 11.831, 14.042 10.550 C 13.334 9.698, 12.415 9, 12 9" stroke="none" fill="black" fill-rule="evenodd"/>
</svg>