<svg xmlns="http://www.w3.org/2000/svg" width="24" height="24" viewBox="0 0 24 24" version="1.1">
	<path d="M 10.429 3 C 8.543 3, 7 3.450, 7 4 C 7 4.550, 8.295 5, 9.878 5 C 11.460 5, 13.315 5.675, 14 6.500 C 14.993 7.697, 14.993 8.303, 14 9.500 C 13.315 10.325, 11.460 11, 9.878 11 C 8.295 11, 7 11.450, 7 12 C 7 12.550, 8.295 13, 9.878 13 C 11.460 13, 13.315 13.675, 14 14.500 C 14.993 15.697, 14.993 16.303, 14 17.500 C 13.315 18.325, 11.460 19, 9.878 19 C 8.295 19, 7 19.450, 7 20 C 7 20.550, 8.462 20.993, 10.250 20.985 C 12.038 20.976, 14.153 20.556, 14.951 20.052 C 15.943 19.424, 16.463 17.044, 16.595 12.532 C 16.732 7.858, 16.361 5.503, 15.323 4.466 C 14.517 3.660, 12.314 3, 10.429 3" stroke="none" fill="black" fill-rule="evenodd"/>
</svg>