<svg xmlns="http://www.w3.org/2000/svg" width="24" height="24" viewBox="0 0 24 24" version="1.1">
	<path d="M 7 4 C 7 4.550, 8.295 5, 9.878 5 C 11.460 5, 13.315 5.675, 14 6.500 C 15.765 8.627, 13.592 11, 9.878 11 C 8.295 11, 7 11.450, 7 12 C 7 12.550, 8.295 13, 9.878 13 C 11.460 13, 13.315 13.675, 14 14.500 C 15.765 16.627, 13.592 19, 9.878 19 C 8.295 19, 7 19.450, 7 20 C 7 21.251, 12.994 21.289, 14.951 20.052 C 17.025 18.739, 17.318 6.461, 15.323 4.466 C 13.679 2.822, 7 2.448, 7 4" stroke="none" fill="black" fill-rule="evenodd"/>
</svg>