<svg xmlns="http://www.w3.org/2000/svg" width="24" height="24" viewBox="0 0 24 24" version="1.1">
	<path d="M 8.571 8.571 C 5.251 11.892, 8.115 17.593, 12.667 16.723 C 14.561 16.361, 14.798 16.539, 13.886 17.637 C 13.264 18.387, 11.460 19, 9.878 19 C 8.295 19, 7 19.450, 7 20 C 7 21.605, 13.707 21.151, 15.429 19.429 C 17.471 17.387, 17.471 10.613, 15.429 8.571 C 14.564 7.707, 13.021 7, 12 7 C 10.979 7, 9.436 7.707, 8.571 8.571 M 9.958 10.550 C 8.896 11.831, 8.961 12.390, 10.336 13.764 C 11.888 15.317, 12.112 15.317, 13.664 13.764 C 15.039 12.390, 15.104 11.831, 14.042 10.550 C 12.423 8.600, 11.577 8.600, 9.958 10.550" stroke="none" fill="black" fill-rule="evenodd"/>
</svg>