<svg xmlns="http://www.w3.org/2000/svg" width="24" height="24" viewBox="0 0 24 24" version="1.1">
	<path d="M 11.117 9.320 C 8.853 12.796, 7 15.946, 7 16.320 C 7 16.694, 8.800 17, 11 17 C 14.333 17, 15 17.333, 15 19 C 15 20.100, 15.450 21, 16 21 C 16.550 21, 17 18.750, 17 16 C 17 13.250, 16.550 11, 16 11 C 15.450 11, 15 11.900, 15 13 C 15 14.472, 14.333 15, 12.473 15 L 9.947 15 13.473 9.763 C 17.107 4.368, 17.642 3, 16.117 3 C 15.632 3, 13.382 5.844, 11.117 9.320" stroke="none" fill="black" fill-rule="evenodd"/>
</svg>