<svg xmlns="http://www.w3.org/2000/svg" width="24" height="24" viewBox="0 0 24 24" version="1.1">
	<path d="M 12.179 3.015 C 11.255 3.024, 9.847 3.444, 9.049 3.948 C 8.057 4.576, 7.537 6.956, 7.405 11.468 C 7.268 16.142, 7.639 18.497, 8.677 19.534 C 9.483 20.340, 10.898 20.993, 11.821 20.985 C 12.745 20.976, 14.153 20.556, 14.951 20.052 C 15.943 19.424, 16.463 17.044, 16.595 12.532 C 16.732 7.858, 16.361 5.503, 15.323 4.466 C 14.517 3.660, 13.102 3.007, 12.179 3.015 M 12 5 C 11.585 5, 10.666 5.698, 9.958 6.550 C 8.896 7.831, 8.961 8.390, 10.336 9.764 C 11.888 11.317, 12.112 11.317, 13.664 9.764 C 15.039 8.390, 15.104 7.831, 14.042 6.550 C 13.334 5.698, 12.415 5, 12 5 M 12 13 C 11.585 13, 10.666 13.698, 9.958 14.550 C 8.896 15.831, 8.961 16.390, 10.336 17.764 C 11.888 19.317, 12.112 19.317, 13.664 17.764 C 15.039 16.390, 15.104 15.831, 14.042 14.550 C 13.334 13.698, 12.415 13, 12 13" stroke="none" fill="black" fill-rule="evenodd"/>
</svg>