<svg xmlns="http://www.w3.org/2000/svg" width="24" height="24" viewBox="0 0 24 24" version="1.1">
	<path d="M 12 3 C 10.979 3, 9.436 3.707, 8.571 4.571 C 7.501 5.642, 7 8.009, 7 12 C 7 15.991, 7.501 18.358, 8.571 19.429 C 9.436 20.293, 10.979 21, 12 21 C 13.021 21, 14.564 20.293, 15.429 19.429 C 16.499 18.358, 17 15.991, 17 12 C 17 8.009, 16.499 5.642, 15.429 4.571 C 14.564 3.707, 13.021 3, 12 3 M 12 5 C 11.670 5, 10.860 5.540, 10.200 6.200 C 9.540 6.860, 9 9.505, 9 12.078 C 9 15.015, 9.558 17.218, 10.500 18 C 11.697 18.993, 12.303 18.993, 13.500 18 C 14.442 17.218, 15 15.015, 15 12.078 C 15 9.505, 14.460 6.860, 13.800 6.200 C 13.140 5.540, 12.330 5, 12 5" stroke="none" fill="black" fill-rule="evenodd"/>
</svg>