<svg viewBox="0 0 24 24" xmlns="http://www.w3.org/2000/svg" fill="none" stroke="#000000" stroke-width="2" stroke-linecap="round" stroke-linejoin="round"><path d="M11.640 5.069 C 11.492 5.121,11.265 5.325,10.347 6.236 C 9.734 6.843,9.185 7.421,9.127 7.520 C 9.037 7.672,9.020 7.747,9.020 8.000 C 9.020 8.257,9.036 8.327,9.133 8.492 C 9.340 8.844,9.705 9.029,10.112 8.987 C 10.360 8.962,10.595 8.834,10.820 8.601 L 10.980 8.436 11.000 14.371 L 11.020 20.306 11.141 20.503 C 11.543 21.156,12.457 21.156,12.859 20.503 L 12.980 20.306 12.990 13.085 C 13.002 4.969,13.027 5.633,12.698 5.304 C 12.412 5.018,12.030 4.933,11.640 5.069 " stroke="none" fill-rule="evenodd" fill="black"></path></svg>