<svg xmlns="http://www.w3.org/2000/svg" width="24" height="24" viewBox="0 0 24 24" version="1.1">
	<path d="M 9.049 3.948 C 6.975 5.261, 6.682 17.539, 8.677 19.534 C 10.340 21.198, 12.817 21.402, 14.951 20.052 C 17.025 18.739, 17.318 6.461, 15.323 4.466 C 13.660 2.802, 11.183 2.598, 9.049 3.948 M 9.958 6.550 C 8.896 7.831, 8.961 8.390, 10.336 9.764 C 11.888 11.317, 12.112 11.317, 13.664 9.764 C 15.039 8.390, 15.104 7.831, 14.042 6.550 C 13.334 5.698, 12.415 5, 12 5 C 11.585 5, 10.666 5.698, 9.958 6.550 M 9.958 14.550 C 8.896 15.831, 8.961 16.390, 10.336 17.764 C 11.888 19.317, 12.112 19.317, 13.664 17.764 C 15.039 16.390, 15.104 15.831, 14.042 14.550 C 13.334 13.698, 12.415 13, 12 13 C 11.585 13, 10.666 13.698, 9.958 14.550" stroke="none" fill="black" fill-rule="evenodd"/>
</svg>