<svg xmlns="http://www.w3.org/2000/svg" width="24" height="24" viewBox="0 0 24 24" version="1.1">
	<path d="M 8.571 4.571 C 7.044 6.098, 6.401 9, 7.590 9 C 7.914 9, 9.010 7.988, 10.025 6.750 C 11.706 4.701, 12.014 4.641, 13.472 6.072 C 15.597 8.159, 14.577 10.480, 10.401 13.061 C 8.530 14.217, 7 15.576, 7 16.082 C 7 16.587, 9.250 17, 12 17 C 14.750 17, 17 16.550, 17 16 C 17 15.450, 15.895 15, 14.545 15 L 12.091 15 14.545 12.545 C 15.895 11.195, 17 9.203, 17 8.117 C 17 5.629, 14.431 3, 12 3 C 10.979 3, 9.436 3.707, 8.571 4.571" stroke="none" fill="black" fill-rule="evenodd"/>
</svg>