<svg viewBox="0 0 24 24" xmlns="http://www.w3.org/2000/svg" fill="none" stroke="#000000" stroke-width="2" stroke-linecap="round" stroke-linejoin="round"><path d="M11.400 3.044 C 9.761 3.229,8.261 4.290,7.526 5.785 C 7.186 6.475,7.023 7.142,7.021 7.843 C 7.020 8.289,7.024 8.313,7.141 8.503 C 7.539 9.151,8.457 9.156,8.852 8.514 C 8.950 8.354,8.972 8.264,9.005 7.883 C 9.026 7.638,9.084 7.299,9.133 7.129 C 9.402 6.199,10.187 5.415,11.139 5.125 C 11.412 5.042,11.542 5.027,12.000 5.027 C 12.458 5.027,12.588 5.042,12.861 5.125 C 14.293 5.561,15.221 7.040,14.943 8.442 C 14.770 9.315,13.993 10.442,12.814 11.526 C 11.576 12.666,9.620 14.017,7.893 14.925 C 7.633 15.062,7.355 15.241,7.275 15.323 C 6.908 15.702,6.919 16.321,7.299 16.701 C 7.616 17.018,7.334 17.000,12.017 16.998 C 15.390 16.997,16.208 16.986,16.330 16.943 C 16.551 16.864,16.744 16.702,16.869 16.489 C 16.964 16.328,16.980 16.256,16.980 16.000 C 16.980 15.746,16.963 15.672,16.872 15.516 C 16.813 15.415,16.698 15.282,16.618 15.221 C 16.332 15.003,16.298 15.000,13.869 15.000 L 11.631 15.000 12.121 14.650 C 14.188 13.173,15.728 11.578,16.424 10.192 C 16.662 9.718,16.744 9.502,16.870 9.023 C 16.961 8.674,16.976 8.537,16.978 8.000 C 16.979 7.544,16.961 7.290,16.907 7.040 C 16.576 5.491,15.600 4.219,14.213 3.525 C 13.352 3.095,12.397 2.932,11.400 3.044 " stroke="none" fill-rule="evenodd" fill="black"></path></svg>