<svg xmlns="http://www.w3.org/2000/svg" width="24" height="24" viewBox="0 0 24 24" version="1.1">
	<path d="M 12 3 L 7 3 7 8 C 7 12.842, 7.091 13, 9.878 13 C 11.460 13, 13.315 13.675, 14 14.500 C 14.993 15.697, 14.993 16.303, 14 17.500 C 13.315 18.325, 11.460 19, 9.878 19 C 8.295 19, 7 19.450, 7 20 C 7 20.550, 8.543 21, 10.429 21 C 12.314 21, 14.564 20.293, 15.429 19.429 C 16.293 18.564, 17 17.021, 17 16 C 17 14.979, 16.293 13.436, 15.429 12.571 C 14.564 11.707, 12.764 11, 11.429 11 C 9.397 11, 9 10.510, 9 8 C 9 5.167, 9.222 5, 13 5 C 15.200 5, 17 4.550, 17 4 C 17 3.450, 14.750 3, 12 3" stroke="none" fill="black" fill-rule="evenodd"/>
</svg>