<svg viewBox="0 0 24 24" xmlns="http://www.w3.org/2000/svg" fill="none" stroke="#000000" stroke-width="2" stroke-linecap="round" stroke-linejoin="round"><path d="M11.400 7.044 C 9.761 7.229,8.261 8.290,7.526 9.785 C 7.158 10.533,7.020 11.136,7.020 12.000 C 7.020 12.670,7.078 13.044,7.268 13.600 C 7.846 15.291,9.253 16.525,11.040 16.907 C 11.511 17.008,12.489 17.008,12.960 16.907 C 13.612 16.768,14.271 16.493,14.776 16.151 L 15.011 15.992 14.983 16.282 C 14.863 17.495,14.050 18.491,12.860 18.885 C 12.583 18.976,12.552 18.977,10.160 18.999 C 8.359 19.015,7.711 19.033,7.627 19.070 C 7.429 19.158,7.239 19.327,7.128 19.516 C 7.037 19.672,7.020 19.746,7.020 20.000 C 7.020 20.257,7.036 20.327,7.133 20.492 C 7.262 20.711,7.502 20.901,7.728 20.962 C 7.831 20.990,8.693 20.999,10.292 20.989 C 12.415 20.976,12.736 20.966,13.000 20.904 C 14.536 20.544,15.756 19.614,16.433 18.288 C 16.662 17.839,16.805 17.439,16.907 16.960 C 16.973 16.651,16.980 16.382,16.980 14.000 C 16.980 11.618,16.973 11.349,16.907 11.040 C 16.576 9.491,15.600 8.219,14.213 7.525 C 13.352 7.095,12.397 6.932,11.400 7.044 M12.861 9.129 C 13.804 9.405,14.584 10.183,14.875 11.139 C 14.958 11.412,14.973 11.542,14.973 12.000 C 14.973 12.458,14.958 12.588,14.875 12.861 C 14.582 13.822,13.819 14.581,12.840 14.886 C 12.406 15.021,11.594 15.021,11.160 14.886 C 10.181 14.581,9.418 13.822,9.125 12.861 C 9.042 12.588,9.027 12.458,9.027 12.000 C 9.027 11.542,9.042 11.412,9.125 11.139 C 9.456 10.054,10.371 9.245,11.499 9.040 C 11.832 8.980,12.500 9.023,12.861 9.129 " stroke="none" fill-rule="evenodd" fill="black"></path></svg>