<svg xmlns="http://www.w3.org/2000/svg" width="24" height="24" viewBox="0 0 24 24" version="1.1">
	<path d="M 8.571 4.571 C 7.686 5.457, 7 7.827, 7 10 C 7 14.177, 9.016 17, 12 17 C 14.386 17, 17 14.386, 17 12 C 17 9.224, 14.042 6.759, 11.333 7.277 C 9.439 7.639, 9.202 7.461, 10.114 6.363 C 10.736 5.613, 12.540 5, 14.122 5 C 15.705 5, 17 4.550, 17 4 C 17 2.395, 10.293 2.849, 8.571 4.571 M 9.958 10.550 C 8.896 11.831, 8.961 12.390, 10.336 13.764 C 11.888 15.317, 12.112 15.317, 13.664 13.764 C 15.039 12.390, 15.104 11.831, 14.042 10.550 C 12.423 8.600, 11.577 8.600, 9.958 10.550" stroke="none" fill="black" fill-rule="evenodd"/>
</svg>