<svg xmlns="http://www.w3.org/2000/svg" width="24" height="24" viewBox="0 0 24 24" version="1.1">
	<path d="M 7.500 1.894 C 3.457 3.652, 1.500 6.976, 1.500 12.082 C 1.500 16.074, 2.001 17.456, 4.273 19.727 C 6.557 22.011, 7.919 22.500, 12 22.500 C 19.011 22.500, 22.500 19.011, 22.500 12 C 22.500 7.999, 22 6.546, 19.903 4.448 C 17.099 1.644, 10.974 0.383, 7.500 1.894 M 7.455 7.455 C 6.105 8.805, 5 10.850, 5 12 C 5 14.698, 9.302 19, 12 19 C 14.698 19, 19 14.698, 19 12 C 19 9.302, 14.698 5, 12 5 C 10.850 5, 8.805 6.105, 7.455 7.455" stroke="none" fill="black" fill-rule="evenodd"/>
</svg>