<svg xmlns="http://www.w3.org/2000/svg" width="24" height="24" viewBox="0 0 24 24" version="1.1">
	<path d="M 13.403 1.438 C 11.256 1.210, 8.600 1.416, 7.500 1.894 C 6.400 2.373, 4.600 3.764, 3.500 4.987 C 2.078 6.568, 1.500 8.618, 1.500 12.082 C 1.500 16.074, 2.001 17.456, 4.273 19.727 C 6.557 22.011, 7.919 22.500, 12 22.500 C 16.081 22.500, 17.443 22.011, 19.727 19.727 C 22.011 17.443, 22.500 16.081, 22.500 12 C 22.500 7.999, 22 6.546, 19.903 4.448 C 18.256 2.802, 15.876 1.699, 13.403 1.438 M 12 5 C 10.850 5, 8.805 6.105, 7.455 7.455 C 6.105 8.805, 5 10.850, 5 12 C 5 13.150, 6.105 15.195, 7.455 16.545 C 8.805 17.895, 10.850 19, 12 19 C 13.150 19, 15.195 17.895, 16.545 16.545 C 17.895 15.195, 19 13.150, 19 12 C 19 10.850, 17.895 8.805, 16.545 7.455 C 15.195 6.105, 13.150 5, 12 5" stroke="none" fill="black" fill-rule="evenodd"/>
</svg>