<svg viewBox="0 0 24 24" xmlns="http://www.w3.org/2000/svg" fill="none" stroke="#000000" stroke-width="2" stroke-linecap="round" stroke-linejoin="round"><path d="M11.280 1.023 C 11.203 1.032,10.951 1.059,10.720 1.083 C 9.527 1.210,8.337 1.558,7.180 2.120 C 6.045 2.671,5.193 3.285,4.238 4.239 C 3.277 5.198,2.643 6.080,2.097 7.220 C 0.301 10.968,0.728 15.286,3.226 18.633 C 3.701 19.269,4.753 20.316,5.400 20.797 C 9.364 23.745,14.666 23.734,18.637 20.770 C 19.246 20.316,20.316 19.246,20.770 18.637 C 23.744 14.652,23.744 9.348,20.770 5.363 C 20.316 4.755,19.247 3.686,18.640 3.235 C 17.045 2.049,15.365 1.360,13.423 1.096 C 13.000 1.038,11.574 0.990,11.280 1.023 M13.102 5.098 C 16.099 5.551,18.491 7.985,18.924 11.020 C 18.990 11.483,18.990 12.517,18.924 12.980 C 18.487 16.047,16.126 18.424,13.020 18.926 C 12.607 18.992,11.393 18.992,10.980 18.926 C 7.873 18.424,5.513 16.047,5.076 12.980 C 4.967 12.217,5.022 11.093,5.205 10.340 C 5.753 8.084,7.433 6.214,9.620 5.427 C 10.250 5.200,10.715 5.102,11.540 5.023 C 11.813 4.997,12.726 5.041,13.102 5.098 " stroke="none" fill-rule="evenodd" fill="black"></path></svg>