<svg xmlns="http://www.w3.org/2000/svg" width="24" height="24" viewBox="0 0 24 24" version="1.1">
	<path d="M 10 6 C 10 6.556, 12.667 7, 16 7 C 19.333 7, 22 6.556, 22 6 C 22 5.444, 19.333 5, 16 5 C 12.667 5, 10 5.444, 10 6 M 3.974 9.527 L 1.600 12.055 4.270 14.724 C 7.290 17.745, 9.304 17.098, 6.506 14.006 C 4.813 12.136, 4.802 11.876, 6.345 10.171 C 9.795 6.359, 7.529 5.743, 3.974 9.527 M 10 12 C 10 12.556, 12.667 13, 16 13 C 19.333 13, 22 12.556, 22 12 C 22 11.444, 19.333 11, 16 11 C 12.667 11, 10 11.444, 10 12 M 10 18 C 10 18.556, 12.667 19, 16 19 C 19.333 19, 22 18.556, 22 18 C 22 17.444, 19.333 17, 16 17 C 12.667 17, 10 17.444, 10 18" stroke="none" fill="black" fill-rule="evenodd"/>
</svg>