<svg xmlns="http://www.w3.org/2000/svg" width="24" height="24" viewBox="0 0 24 24" version="1.1">
	<path d="M 16 5 C 12.667 5, 10 5.444, 10 6 C 10 6.556, 12.667 7, 16 7 C 19.333 7, 22 6.556, 22 6 C 22 5.444, 19.333 5, 16 5 M 7.174 7 C 6.720 7, 5.280 8.137, 3.974 9.527 L 1.600 12.055 4.270 14.724 C 5.738 16.193, 7.250 17.083, 7.630 16.703 C 8.010 16.323, 7.504 15.110, 6.506 14.006 C 4.813 12.136, 4.802 11.876, 6.345 10.171 C 7.255 9.165, 8 8.040, 8 7.671 C 8 7.302, 7.628 7, 7.174 7 M 16 11 C 12.667 11, 10 11.444, 10 12 C 10 12.556, 12.667 13, 16 13 C 19.333 13, 22 12.556, 22 12 C 22 11.444, 19.333 11, 16 11 M 16 17 C 12.667 17, 10 17.444, 10 18 C 10 18.556, 12.667 19, 16 19 C 19.333 19, 22 18.556, 22 18 C 22 17.444, 19.333 17, 16 17" stroke="none" fill="black" fill-rule="evenodd"/>
</svg>