<svg viewBox="0 0 24 24" xmlns="http://www.w3.org/2000/svg" fill="none" stroke="#000000" stroke-width="2" stroke-linecap="round" stroke-linejoin="round"><path d="M9.695 1.057 C 9.466 1.129,9.256 1.299,9.128 1.516 C 9.037 1.672,9.020 1.746,9.020 2.000 C 9.020 2.256,9.036 2.328,9.131 2.489 C 9.256 2.702,9.449 2.864,9.670 2.943 C 9.768 2.978,10.023 2.997,10.410 2.998 L 11.000 3.000 11.000 3.538 L 11.000 4.076 10.850 4.100 C 10.250 4.197,9.434 4.461,8.889 4.735 C 6.830 5.773,5.446 7.675,5.074 9.980 C 5.008 10.393,5.008 11.607,5.074 12.020 C 5.370 13.851,6.326 15.471,7.749 16.552 C 8.034 16.768,8.083 16.824,8.119 16.971 C 8.142 17.064,8.217 17.284,8.286 17.460 C 8.690 18.492,9.480 19.288,10.512 19.704 C 12.567 20.532,14.916 19.518,15.713 17.460 C 15.781 17.284,15.856 17.064,15.880 16.971 C 15.917 16.825,15.968 16.767,16.251 16.552 C 17.292 15.761,18.126 14.621,18.573 13.380 C 18.876 12.538,18.977 11.944,18.977 11.000 C 18.977 10.056,18.876 9.462,18.573 8.620 C 17.724 6.261,15.603 4.493,13.150 4.100 L 13.000 4.076 13.000 3.538 L 13.000 3.000 13.590 2.998 C 13.977 2.997,14.232 2.978,14.330 2.943 C 14.551 2.864,14.744 2.702,14.869 2.489 C 14.964 2.328,14.980 2.256,14.980 2.000 C 14.980 1.746,14.963 1.672,14.872 1.516 C 14.740 1.293,14.533 1.128,14.290 1.055 C 14.033 0.978,9.943 0.979,9.695 1.057 M12.552 6.043 C 14.413 6.246,16.001 7.479,16.680 9.248 C 17.085 10.302,17.085 11.699,16.680 12.753 C 16.499 13.223,16.186 13.762,15.842 14.194 L 15.672 14.408 15.563 14.194 C 15.094 13.268,14.259 12.551,13.245 12.204 C 12.951 12.103,12.322 12.000,12.000 12.000 C 11.678 12.000,11.049 12.103,10.755 12.204 C 9.741 12.551,8.906 13.268,8.437 14.194 L 8.328 14.408 8.159 14.194 C 7.474 13.328,7.143 12.525,7.036 11.470 C 6.962 10.742,7.070 9.898,7.320 9.248 C 8.146 7.096,10.274 5.793,12.552 6.043 M12.523 14.073 C 12.868 14.163,13.198 14.366,13.461 14.649 C 13.683 14.888,13.909 15.297,13.929 15.496 C 13.940 15.608,13.928 15.616,13.620 15.723 C 13.051 15.921,12.679 15.980,12.000 15.980 C 11.321 15.980,10.949 15.921,10.380 15.723 C 10.072 15.616,10.060 15.608,10.071 15.496 C 10.091 15.297,10.317 14.888,10.539 14.649 C 10.926 14.232,11.442 14.005,12.000 14.005 C 12.143 14.005,12.378 14.036,12.523 14.073 " stroke="none" fill-rule="evenodd" fill="black"></path></svg>