<svg xmlns="http://www.w3.org/2000/svg" width="24" height="24" viewBox="0 0 24 24" version="1.1">
	<path d="M 12 1 C 10.350 1, 9 1.450, 9 2 C 9 2.550, 9.485 3, 10.077 3 C 10.669 3, 9.769 4.165, 8.077 5.589 C 6.165 7.197, 5 9.116, 5 10.656 C 5 12.018, 6.178 14.678, 7.619 16.567 C 9.059 18.455, 11.031 20, 12 20 C 12.969 20, 14.941 18.455, 16.381 16.567 C 17.822 14.678, 19 12.018, 19 10.656 C 19 9.116, 17.835 7.197, 15.923 5.589 C 14.231 4.165, 13.331 3, 13.923 3 C 14.515 3, 15 2.550, 15 2 C 15 1.450, 13.650 1, 12 1 M 11.826 6 C 10.992 6, 9.565 6.823, 8.655 7.829 C 7.745 8.835, 7 10.335, 7 11.162 C 7 11.990, 7.274 12.940, 7.608 13.274 C 7.942 13.609, 9.067 13.351, 10.108 12.701 C 11.563 11.792, 12.437 11.792, 13.892 12.701 C 14.933 13.351, 16.058 13.609, 16.392 13.274 C 16.726 12.940, 17 11.911, 17 10.988 C 17 10.065, 16.177 8.565, 15.171 7.655 C 14.165 6.745, 12.660 6, 11.826 6 M 12 14 C 11.515 14, 10.840 14.450, 10.500 15 C 10.160 15.550, 10.835 16, 12 16 C 13.165 16, 13.840 15.550, 13.500 15 C 13.160 14.450, 12.485 14, 12 14" stroke="none" fill="black" fill-rule="evenodd"/>
</svg>