<svg xmlns="http://www.w3.org/2000/svg" width="24" height="24" viewBox="0 0 24 24" version="1.1">
	<path d="M 9 2 C 9 2.550, 9.485 3, 10.077 3 C 10.669 3, 9.769 4.165, 8.077 5.589 C 6.165 7.197, 5 9.116, 5 10.656 C 5 13.779, 9.660 20, 12 20 C 14.340 20, 19 13.779, 19 10.656 C 19 9.116, 17.835 7.197, 15.923 5.589 C 14.231 4.165, 13.331 3, 13.923 3 C 14.515 3, 15 2.550, 15 2 C 15 1.450, 13.650 1, 12 1 C 10.350 1, 9 1.450, 9 2 M 8.655 7.829 C 5.703 11.091, 6.799 14.767, 10.108 12.701 C 11.563 11.792, 12.437 11.792, 13.892 12.701 C 17.295 14.826, 18.377 10.556, 15.171 7.655 C 12.794 5.504, 10.709 5.560, 8.655 7.829 M 10.500 15 C 10.160 15.550, 10.835 16, 12 16 C 13.165 16, 13.840 15.550, 13.500 15 C 13.160 14.450, 12.485 14, 12 14 C 11.515 14, 10.840 14.450, 10.500 15" stroke="none" fill="black" fill-rule="evenodd"/>
</svg>