<svg xmlns="http://www.w3.org/2000/svg" width="24" height="24" viewBox="0 0 24 24" version="1.1">
	<path d="M 11.822 1.009 C 11.095 1.015, 8.567 2.177, 6.204 3.593 L 1.909 6.168 2.204 12.155 L 2.500 18.143 7.250 20.821 L 12 23.500 16.750 20.821 L 21.500 18.143 21.795 12.193 L 22.089 6.242 17.617 3.621 C 15.157 2.180, 12.549 1.004, 11.822 1.009 M 11.762 3 C 11.526 3, 11.035 3.298, 10.670 3.663 C 10.306 4.028, 11.366 5.153, 13.028 6.163 C 14.689 7.173, 16.487 8, 17.024 8 C 17.561 8, 18 7.647, 18 7.216 C 18 6.784, 16.693 5.659, 15.096 4.716 C 13.498 3.772, 11.998 3, 11.762 3 M 7.050 6 C 6.472 6, 6 6.395, 6 6.879 C 6 7.362, 7.327 8.307, 8.949 8.979 C 10.571 9.651, 12.484 10.003, 13.199 9.761 C 13.961 9.504, 13.174 8.634, 11.300 7.661 C 9.539 6.748, 7.627 6, 7.050 6 M 4.750 9.199 C 4.338 8.998, 4 10.599, 4 12.756 C 4 16.035, 4.452 16.905, 6.750 18.057 C 8.262 18.816, 9.838 19.600, 10.250 19.801 C 10.662 20.002, 11 18.401, 11 16.244 C 11 12.965, 10.548 12.095, 8.250 10.943 C 6.737 10.184, 5.162 9.400, 4.750 9.199 M 19.750 9.064 C 19.613 9.099, 18.038 9.856, 16.250 10.745 C 13.415 12.156, 13 12.861, 13 16.265 C 13 18.411, 13.338 20.002, 13.750 19.801 C 14.162 19.600, 15.738 18.816, 17.250 18.057 C 19.533 16.913, 20 16.027, 20 12.839 C 20 10.728, 19.887 9.029, 19.750 9.064" stroke="none" fill="black" fill-rule="evenodd"/>
</svg>