<svg xmlns="http://www.w3.org/2000/svg" width="24" height="24" viewBox="0 0 24 24" version="1.1">
	<path d="M 6.204 3.593 L 1.909 6.168 2.204 12.155 L 2.500 18.143 7.250 20.821 L 12 23.500 16.750 20.821 L 21.500 18.143 21.795 12.193 L 22.089 6.242 17.617 3.621 C 12.109 0.394, 11.545 0.392, 6.204 3.593 M 10.670 3.663 C 9.979 4.354, 15.320 8, 17.024 8 C 18.904 8, 17.974 6.416, 15.096 4.716 C 11.834 2.789, 11.600 2.733, 10.670 3.663 M 6 6.879 C 6 8.073, 11.581 10.308, 13.199 9.761 C 13.961 9.504, 13.174 8.634, 11.300 7.661 C 7.740 5.814, 6 5.557, 6 6.879 M 4 12.756 C 4 16.712, 4.069 16.790, 10.250 19.801 C 10.662 20.002, 11 18.401, 11 16.244 C 11 12.288, 10.931 12.210, 4.750 9.199 C 4.338 8.998, 4 10.599, 4 12.756 M 16.250 10.745 C 13.415 12.156, 13 12.861, 13 16.265 C 13 18.411, 13.338 20.002, 13.750 19.801 C 19.911 16.800, 20 16.700, 20 12.839 C 20 10.728, 19.887 9.029, 19.750 9.064 C 19.613 9.099, 18.038 9.856, 16.250 10.745" stroke="none" fill="black" fill-rule="evenodd"/>
</svg>