<svg xmlns="http://www.w3.org/2000/svg" width="24" height="24" viewBox="0 0 24 24" version="1.1">
	<path d="M 13.403 1.438 C 11.256 1.210, 8.600 1.416, 7.500 1.894 C 6.400 2.373, 4.600 3.764, 3.500 4.987 C 2.078 6.568, 1.500 8.618, 1.500 12.082 C 1.500 16.074, 2.001 17.456, 4.273 19.727 C 6.557 22.011, 7.919 22.500, 12 22.500 C 16.081 22.500, 17.443 22.011, 19.727 19.727 C 22.011 17.443, 22.500 16.081, 22.500 12 C 22.500 7.999, 22 6.546, 19.903 4.448 C 18.256 2.802, 15.876 1.699, 13.403 1.438 M 12 3 C 9.848 3, 7.918 3.928, 5.923 5.923 C 3.928 7.918, 3 9.848, 3 12 C 3 14.152, 3.928 16.082, 5.923 18.077 C 7.790 19.944, 9.868 20.994, 11.673 20.985 C 13.228 20.976, 15.163 20.550, 15.974 20.037 C 17.217 19.251, 17.072 18.706, 15.053 16.557 C 13.736 15.155, 12.962 13.704, 13.333 13.333 C 13.704 12.962, 15.155 13.736, 16.557 15.053 C 18.706 17.072, 19.251 17.217, 20.037 15.974 C 20.550 15.163, 20.976 13.228, 20.985 11.673 C 20.994 9.868, 19.944 7.790, 18.077 5.923 C 16.082 3.928, 14.152 3, 12 3 M 8 6 C 7.515 6, 6.816 6.489, 6.446 7.087 C 6.077 7.685, 6.275 8.675, 6.887 9.287 C 7.704 10.104, 8.296 10.104, 9.113 9.287 C 9.725 8.675, 9.923 7.685, 9.554 7.087 C 9.184 6.489, 8.485 6, 8 6 M 16 6 C 15.515 6, 14.816 6.489, 14.446 7.087 C 14.077 7.685, 14.275 8.675, 14.887 9.287 C 15.704 10.104, 16.296 10.104, 17.113 9.287 C 17.725 8.675, 17.923 7.685, 17.554 7.087 C 17.184 6.489, 16.485 6, 16 6 M 8 14 C 7.515 14, 6.816 14.489, 6.446 15.087 C 6.077 15.685, 6.275 16.675, 6.887 17.287 C 7.704 18.104, 8.296 18.104, 9.113 17.287 C 9.725 16.675, 9.923 15.685, 9.554 15.087 C 9.184 14.489, 8.485 14, 8 14" stroke="none" fill="black" fill-rule="evenodd"/>
</svg>