<svg xmlns="http://www.w3.org/2000/svg" width="24" height="24" viewBox="0 0 24 24" version="1.1">
	<path d="M 7.500 1.894 C 3.457 3.652, 1.500 6.976, 1.500 12.082 C 1.500 16.074, 2.001 17.456, 4.273 19.727 C 6.557 22.011, 7.919 22.500, 12 22.500 C 19.011 22.500, 22.500 19.011, 22.500 12 C 22.500 7.999, 22 6.546, 19.903 4.448 C 17.099 1.644, 10.974 0.383, 7.500 1.894 M 5.923 5.923 C 3.928 7.918, 3 9.848, 3 12 C 3 18.127, 11.079 23.133, 15.974 20.037 C 17.217 19.251, 17.072 18.706, 15.053 16.557 C 11.934 13.237, 13.237 11.934, 16.557 15.053 C 18.706 17.072, 19.251 17.217, 20.037 15.974 C 21.879 13.062, 21.070 8.916, 18.077 5.923 C 14.147 1.993, 9.853 1.993, 5.923 5.923 M 6.446 7.087 C 5.416 8.755, 7.733 10.667, 9.113 9.287 C 10.267 8.133, 9.545 6, 8 6 C 7.515 6, 6.816 6.489, 6.446 7.087 M 14.446 7.087 C 13.416 8.755, 15.733 10.667, 17.113 9.287 C 18.267 8.133, 17.545 6, 16 6 C 15.515 6, 14.816 6.489, 14.446 7.087 M 6.446 15.087 C 5.416 16.755, 7.733 18.667, 9.113 17.287 C 10.267 16.133, 9.545 14, 8 14 C 7.515 14, 6.816 14.489, 6.446 15.087" stroke="none" fill="black" fill-rule="evenodd"/>
</svg>