<svg xmlns="http://www.w3.org/2000/svg" width="24" height="24" viewBox="0 0 24 24" version="1.1">
	<path d="M 4.400 4.400 C 1.613 7.187, 1 8.557, 1 12 C 1 15.443, 1.613 16.813, 4.400 19.600 C 6.752 21.952, 8.723 23, 10.793 23 C 13.658 23, 15.652 20.863, 14.510 19.016 C 14.237 18.575, 15.248 17.905, 16.757 17.529 C 23.806 15.770, 25.081 9.881, 19.600 4.400 C 16.813 1.613, 15.443 1, 12 1 C 8.557 1, 7.187 1.613, 4.400 4.400 M 8 4.294 C 1.031 7.819, 2.104 18.121, 9.679 20.427 C 11.517 20.986, 11.909 20.652, 12.179 18.295 C 12.448 15.954, 13.028 15.449, 15.749 15.187 C 21.585 14.624, 22.437 9.062, 17.306 5.026 C 14.354 2.704, 11.576 2.485, 8 4.294 M 12 6.500 C 12 7.325, 12.675 8, 13.500 8 C 14.325 8, 15 7.325, 15 6.500 C 15 5.675, 14.325 5, 13.500 5 C 12.675 5, 12 5.675, 12 6.500 M 7 7.500 C 7 8.325, 7.675 9, 8.500 9 C 9.325 9, 10 8.325, 10 7.500 C 10 6.675, 9.325 6, 8.500 6 C 7.675 6, 7 6.675, 7 7.500 M 16 10.500 C 16 11.325, 16.675 12, 17.500 12 C 18.325 12, 19 11.325, 19 10.500 C 19 9.675, 18.325 9, 17.500 9 C 16.675 9, 16 9.675, 16 10.500 M 5 12.500 C 5 13.325, 5.675 14, 6.500 14 C 7.325 14, 8 13.325, 8 12.500 C 8 11.675, 7.325 11, 6.500 11 C 5.675 11, 5 11.675, 5 12.500" stroke="none" fill="black" fill-rule="evenodd"/>
</svg>