<svg xmlns="http://www.w3.org/2000/svg" width="24" height="24" viewBox="0 0 24 24" version="1.1">
	<path d="M 16.250 0.004 C 15.838 0.006, 14.132 0.842, 12.461 1.861 C 10.789 2.880, 7.527 5.867, 5.211 8.498 C 2.496 11.582, 1 14.236, 1 15.966 C 1 17.480, 2.010 19.600, 3.314 20.826 C 4.587 22.022, 6.801 23, 8.234 23 C 9.971 23, 12.699 21.300, 16.419 17.900 C 19.489 15.094, 22 12.169, 22 11.400 C 22 10.630, 21.647 10, 21.216 10 C 20.785 10, 17.987 12.475, 15 15.500 C 12.013 18.525, 8.835 21, 7.939 21 C 7.043 21, 5.565 20.177, 4.655 19.171 C 3.745 18.165, 3 16.689, 3 15.890 C 3 15.091, 5.601 11.864, 8.779 8.719 C 11.957 5.573, 15.284 3, 16.172 3 C 17.060 3, 18.060 3.714, 18.395 4.586 C 18.800 5.643, 17.191 8.058, 13.573 11.824 C 10.586 14.932, 7.799 17.133, 7.381 16.715 C 6.963 16.296, 8.816 13.725, 11.500 11 C 14.184 8.275, 16.059 5.725, 15.667 5.333 C 15.275 4.941, 12.698 6.843, 9.940 9.559 C 6.660 12.789, 5.025 15.190, 5.213 16.499 C 5.375 17.631, 6.392 18.628, 7.556 18.794 C 8.977 18.997, 11.368 17.247, 15.306 13.118 C 18.438 9.835, 21 6.440, 21 5.574 C 21 4.708, 20.100 3.100, 19 2 C 17.900 0.900, 16.663 0.002, 16.250 0.004" stroke="none" fill="black" fill-rule="evenodd"/>
</svg>