<svg xmlns="http://www.w3.org/2000/svg" width="24" height="24" viewBox="0 0 24 24" version="1.1">
	<path d="M 12.461 1.861 C 7.561 4.849, 1 12.924, 1 15.966 C 1 19.330, 4.774 23, 8.234 23 C 11.118 23, 22 13.830, 22 11.400 C 22 9.003, 20.614 9.815, 15 15.500 C 9.191 21.382, 7.272 22.063, 4.655 19.171 C 2.040 16.282, 2.619 14.815, 8.779 8.719 C 14.670 2.889, 17.308 1.755, 18.395 4.586 C 19.098 6.420, 8.623 17.956, 7.381 16.715 C 6.963 16.296, 8.816 13.725, 11.500 11 C 14.184 8.275, 16.059 5.725, 15.667 5.333 C 15.275 4.941, 12.698 6.843, 9.940 9.559 C 4.638 14.782, 3.743 18.249, 7.556 18.794 C 9.905 19.130, 21 8.220, 21 5.574 C 21 3.970, 17.612 -0.003, 16.250 0.004 C 15.838 0.006, 14.132 0.842, 12.461 1.861" stroke="none" fill="black" fill-rule="evenodd"/>
</svg>