<svg xmlns="http://www.w3.org/2000/svg" width="24" height="24" viewBox="0 0 24 24" version="1.1">
	<path d="M 4.400 4.400 C 1.613 7.187, 1 8.557, 1 12 C 1 15.443, 1.613 16.813, 4.400 19.600 C 9.223 24.423, 14.777 24.423, 19.600 19.600 C 22.387 16.813, 23 15.443, 23 12 C 23 5.986, 18.014 1, 12 1 C 8.557 1, 7.187 1.613, 4.400 4.400 M 8 4.253 C 2.770 6.984, 1.773 14.674, 6.137 18.624 C 9.054 21.264, 15.391 21.054, 18.222 18.222 C 21.155 15.290, 21.288 8.843, 18.474 6.029 C 15.873 3.429, 11.123 2.623, 8 4.253 M 8 12.940 C 8 15.723, 8.450 18, 9 18 C 9.550 18, 10 17.130, 10 16.066 C 10 14.700, 10.807 14.040, 12.750 13.816 C 14.932 13.565, 15.500 12.984, 15.500 11 C 15.500 8.833, 15.001 8.459, 11.750 8.190 L 8 7.879 8 12.940 M 10 11 C 10 11.550, 10.900 12, 12 12 C 13.100 12, 14 11.550, 14 11 C 14 10.450, 13.100 10, 12 10 C 10.900 10, 10 10.450, 10 11" stroke="none" fill="black" fill-rule="evenodd"/>
</svg>