<svg viewBox="0 0 24 24" xmlns="http://www.w3.org/2000/svg" fill="none" stroke="#000000" stroke-width="2" stroke-linecap="round" stroke-linejoin="round"><path d="M10.675 1.053 C 10.596 1.082,10.479 1.145,10.415 1.191 C 10.352 1.237,8.237 3.341,5.715 5.867 C 1.506 10.083,1.124 10.476,1.065 10.657 C 0.987 10.892,0.983 11.073,1.049 11.295 C 1.082 11.406,1.624 12.163,2.706 13.607 C 4.544 16.059,4.468 15.980,5.000 15.980 C 5.254 15.980,5.327 15.964,5.480 15.873 C 5.582 15.811,7.177 14.247,9.180 12.243 L 12.700 8.720 16.560 12.576 C 18.683 14.697,20.481 16.462,20.555 16.499 C 21.010 16.728,21.601 16.544,21.867 16.092 C 21.964 15.927,21.980 15.857,21.980 15.600 C 21.980 15.346,21.964 15.273,21.873 15.120 C 21.811 15.017,20.127 13.303,17.944 11.122 L 14.124 7.304 14.495 6.921 C 14.979 6.423,15.082 6.147,14.951 5.705 C 14.918 5.594,14.376 4.837,13.294 3.393 C 11.506 1.008,11.550 1.055,11.075 1.018 C 10.912 1.006,10.768 1.018,10.675 1.053 M16.643 1.066 C 16.281 1.199,16.000 1.615,16.000 2.017 C 16.000 2.226,17.041 5.358,17.180 5.568 C 17.308 5.761,17.529 5.907,17.784 5.968 C 17.982 6.015,17.985 6.018,18.032 6.216 C 18.093 6.471,18.239 6.692,18.432 6.820 C 18.642 6.959,21.774 8.000,21.983 8.000 C 22.741 8.001,23.222 7.208,22.874 6.531 C 22.697 6.187,22.601 6.141,20.812 5.545 C 19.913 5.245,19.137 5.000,19.088 5.000 C 19.024 5.000,19.000 4.976,19.000 4.912 C 19.000 4.863,18.755 4.087,18.455 3.188 C 17.860 1.402,17.816 1.310,17.471 1.131 C 17.229 1.005,16.884 0.978,16.643 1.066 M21.640 1.069 C 21.492 1.121,21.265 1.325,20.347 2.236 C 19.734 2.843,19.185 3.421,19.127 3.520 C 19.037 3.672,19.020 3.747,19.020 4.000 C 19.020 4.257,19.036 4.327,19.133 4.492 C 19.413 4.968,20.032 5.138,20.492 4.866 C 20.706 4.739,22.806 2.627,22.905 2.440 C 22.957 2.341,22.979 2.213,22.979 2.000 C 22.980 1.745,22.964 1.672,22.872 1.516 C 22.617 1.083,22.120 0.902,21.640 1.069 M8.891 9.687 L 5.106 13.474 4.214 12.287 L 3.323 11.100 7.109 7.313 L 10.894 3.526 11.786 4.713 L 12.677 5.900 8.891 9.687 M11.640 16.069 C 11.492 16.121,11.267 16.323,10.366 17.216 C 9.765 17.812,9.157 18.443,9.017 18.617 C 8.692 19.022,8.426 19.551,8.293 20.060 C 8.143 20.634,8.143 21.369,8.294 21.937 C 8.479 22.638,8.794 23.188,9.304 23.706 L 9.595 24.000 12.003 24.000 L 14.412 24.000 15.589 22.830 C 16.237 22.187,16.815 21.579,16.873 21.480 C 16.963 21.328,16.980 21.253,16.980 21.000 C 16.980 20.746,16.963 20.672,16.872 20.516 C 16.618 20.084,16.137 19.905,15.657 20.066 C 15.484 20.124,15.314 20.277,14.280 21.300 C 13.631 21.942,13.046 22.503,12.980 22.548 C 12.565 22.827,11.855 22.904,11.380 22.721 C 10.363 22.329,9.900 21.191,10.358 20.212 C 10.470 19.972,10.609 19.817,11.657 18.762 C 12.302 18.112,12.864 17.517,12.904 17.440 C 12.957 17.340,12.979 17.214,12.979 17.000 C 12.980 16.745,12.964 16.672,12.872 16.516 C 12.617 16.083,12.119 15.902,11.640 16.069 " stroke="none" fill-rule="evenodd" fill="black"></path></svg>