<svg xmlns="http://www.w3.org/2000/svg" width="24" height="24" viewBox="0 0 24 24" version="1.1">
	<path d="M 9.874 0 C 9.049 0, 7.125 1.304, 5.597 2.898 C 2.956 5.656, 2.898 5.915, 4.414 8.228 C 5.290 9.565, 5.701 10.966, 5.326 11.340 C 4.952 11.715, 5.938 13.369, 7.516 15.017 C 9.731 17.329, 10.116 18.284, 9.200 19.200 C 8.284 20.116, 7.329 19.731, 5.017 17.516 C 3.369 15.938, 1.701 14.965, 1.310 15.356 C 0.920 15.747, 2.264 17.730, 4.297 19.764 L 7.994 23.461 10.697 20.758 L 13.400 18.055 11.146 15.656 L 8.893 13.257 11.446 13.745 C 13.230 14.086, 14 13.798, 14 12.791 C 14 11.998, 15.025 10.386, 16.277 9.210 C 17.800 7.779, 19.290 7.263, 20.777 7.652 C 22.015 7.976, 23 7.775, 23 7.200 C 23 6.632, 22.438 5.977, 21.750 5.746 C 20.779 5.419, 20.811 4.948, 21.893 3.638 C 22.658 2.711, 23.007 1.673, 22.667 1.333 C 22.327 0.993, 21.289 1.342, 20.362 2.107 C 19.052 3.189, 18.581 3.221, 18.254 2.250 C 18.023 1.563, 17.372 1, 16.808 1 C 16.232 1, 16.041 2.027, 16.372 3.344 C 16.789 5.009, 16.313 6.271, 14.730 7.695 C 13.504 8.799, 11.755 9.964, 10.844 10.284 C 9.908 10.612, 8.495 10.099, 7.594 9.104 C 6.717 8.135, 6 6.953, 6 6.476 C 6 5.999, 7.209 4.347, 8.687 2.805 C 10.570 0.839, 10.925 0, 9.874 0" stroke="none" fill="black" fill-rule="evenodd"/>
</svg>