<svg xmlns="http://www.w3.org/2000/svg" width="24" height="24" viewBox="0 0 24 24" version="1.1">
	<path d="M 5.597 2.898 C 2.956 5.656, 2.898 5.915, 4.414 8.228 C 5.290 9.565, 5.701 10.966, 5.326 11.340 C 4.952 11.715, 5.938 13.369, 7.516 15.017 C 9.731 17.329, 10.116 18.284, 9.200 19.200 C 8.284 20.116, 7.329 19.731, 5.017 17.516 C 0.623 13.306, -0.053 15.414, 4.297 19.764 L 7.994 23.461 10.697 20.758 L 13.400 18.055 11.146 15.656 L 8.893 13.257 11.446 13.745 C 13.230 14.086, 14 13.798, 14 12.791 C 14 10.289, 18.324 7.010, 20.777 7.652 C 23.080 8.254, 23.977 6.496, 21.750 5.746 C 20.779 5.419, 20.811 4.948, 21.893 3.638 C 23.699 1.450, 22.550 0.301, 20.362 2.107 C 19.052 3.189, 18.581 3.221, 18.254 2.250 C 17.482 -0.045, 15.771 0.950, 16.372 3.344 C 17.440 7.601, 10.409 12.214, 7.594 9.104 C 5.445 6.730, 5.560 6.069, 8.687 2.805 C 10.570 0.839, 10.925 0, 9.874 0 C 9.049 0, 7.125 1.304, 5.597 2.898" stroke="none" fill="black" fill-rule="evenodd"/>
</svg>