<svg xmlns="http://www.w3.org/2000/svg" width="24" height="24" viewBox="0 0 24 24" version="1.1">
	<path d="M 5.614 5.885 C 0.821 10.750, 0.809 10.779, 2.516 13.385 C 3.459 14.823, 4.540 16, 4.919 16 C 5.298 16, 7.137 14.422, 9.006 12.494 L 12.404 8.988 15.994 12.494 C 21.194 17.571, 23.226 16.825, 18.186 11.689 C 15.859 9.318, 14.226 7.107, 14.557 6.776 C 15.225 6.109, 12.165 1, 11.097 1 C 10.727 1, 8.260 3.198, 5.614 5.885 M 16 2.500 C 16 4.438, 19.562 8, 21.500 8 C 23.314 8, 23.499 6.335, 21.750 5.746 C 20.779 5.419, 20.811 4.948, 21.893 3.638 C 23.699 1.450, 22.550 0.301, 20.362 2.107 C 19.052 3.189, 18.581 3.221, 18.254 2.250 C 17.665 0.501, 16 0.686, 16 2.500 M 7.196 7.298 C 4.148 10.442, 3.075 13, 4.804 13 C 6.050 13, 12 6.553, 12 5.202 C 12 3.201, 10.556 3.831, 7.196 7.298 M 9.567 17.926 C 8.609 18.985, 7.980 20.672, 8.171 21.676 C 8.629 24.096, 14.174 24.701, 15.978 22.527 C 17.917 20.191, 16.333 19.388, 13.983 21.516 C 12.450 22.903, 11.670 23.070, 10.800 22.200 C 9.930 21.330, 10.058 20.593, 11.324 19.195 C 12.246 18.176, 13 17.040, 13 16.671 C 13 15.390, 11.300 16.011, 9.567 17.926" stroke="none" fill="#000000" fill-rule="evenodd"/>
</svg>