<svg xmlns="http://www.w3.org/2000/svg" width="24" height="24" viewBox="0 0 24 24" version="1.1">
	<path d="M 11.097 1 C 10.727 1, 8.260 3.198, 5.614 5.885 C 0.821 10.750, 0.809 10.779, 2.516 13.385 C 3.459 14.823, 4.540 16, 4.919 16 C 5.298 16, 7.137 14.422, 9.006 12.494 L 12.404 8.988 15.994 12.494 C 17.969 14.422, 20.222 16, 21 16 C 21.786 16, 20.534 14.082, 18.186 11.689 C 15.859 9.318, 14.226 7.107, 14.557 6.776 C 14.889 6.445, 14.397 5.009, 13.465 3.587 C 12.533 2.164, 11.467 1, 11.097 1 M 16.917 1 C 16.413 1, 16 1.675, 16 2.500 C 16 3.325, 16.900 4.900, 18 6 C 19.100 7.100, 20.675 8, 21.500 8 C 22.325 8, 23 7.588, 23 7.083 C 23 6.579, 22.438 5.977, 21.750 5.746 C 20.779 5.419, 20.811 4.948, 21.893 3.638 C 22.658 2.711, 23.007 1.673, 22.667 1.333 C 22.327 0.993, 21.289 1.342, 20.362 2.107 C 19.052 3.189, 18.581 3.221, 18.254 2.250 C 18.023 1.563, 17.421 1, 16.917 1 M 11.196 4 C 10.754 4, 8.954 5.484, 7.196 7.298 C 5.438 9.111, 4 11.136, 4 11.798 C 4 12.459, 4.362 13, 4.804 13 C 5.246 13, 7.046 11.516, 8.804 9.702 C 10.562 7.889, 12 5.864, 12 5.202 C 12 4.541, 11.638 4, 11.196 4 M 12.155 16 C 11.690 16, 10.526 16.867, 9.567 17.926 C 8.609 18.985, 7.980 20.672, 8.171 21.676 C 8.399 22.883, 9.556 23.602, 11.593 23.801 C 13.481 23.986, 15.176 23.493, 15.978 22.527 C 16.697 21.661, 16.999 20.665, 16.649 20.315 C 16.299 19.965, 15.099 20.506, 13.983 21.516 C 12.450 22.903, 11.670 23.070, 10.800 22.200 C 9.930 21.330, 10.058 20.593, 11.324 19.195 C 12.246 18.176, 13 17.040, 13 16.671 C 13 16.302, 12.620 16, 12.155 16" stroke="none" fill="black" fill-rule="evenodd"/>
</svg>