<svg viewBox="0 0 24 24" xmlns="http://www.w3.org/2000/svg" fill="none" stroke="#000000" stroke-width="2" stroke-linecap="round" stroke-linejoin="round"><path d="M5.854 2.730 C 3.377 5.212,3.124 5.478,3.065 5.657 C 2.987 5.893,2.984 6.126,3.057 6.330 C 3.087 6.413,3.825 7.433,4.698 8.598 L 6.286 10.714 8.402 12.302 C 9.567 13.175,10.587 13.913,10.670 13.943 C 11.040 14.075,11.413 13.975,11.764 13.650 L 12.002 13.430 12.213 13.630 C 12.477 13.879,12.632 13.961,12.895 13.988 C 13.295 14.029,13.662 13.842,13.867 13.492 C 13.964 13.327,13.980 13.258,13.979 13.000 C 13.978 12.646,13.924 12.524,13.627 12.210 L 13.424 11.996 15.973 9.447 L 18.522 6.898 20.171 7.449 C 21.213 7.797,21.880 8.000,21.983 8.000 C 22.741 8.000,23.222 7.208,22.874 6.531 C 22.705 6.204,22.567 6.132,21.281 5.701 L 20.112 5.310 21.472 3.945 C 22.220 3.194,22.864 2.517,22.905 2.440 C 22.957 2.341,22.979 2.213,22.979 2.000 C 22.980 1.745,22.964 1.672,22.872 1.516 C 22.618 1.084,22.137 0.906,21.657 1.066 C 21.482 1.124,21.302 1.289,20.075 2.509 L 18.690 3.886 18.299 2.718 C 17.870 1.439,17.799 1.301,17.476 1.133 C 16.793 0.779,16.000 1.254,16.000 2.017 C 16.000 2.120,16.203 2.787,16.551 3.829 L 17.102 5.478 14.555 8.025 L 12.007 10.573 11.759 10.349 C 11.395 10.019,11.056 9.927,10.684 10.058 C 10.335 10.182,10.072 10.485,10.017 10.827 L 9.991 10.994 8.852 10.139 L 7.714 9.285 6.518 7.692 L 5.323 6.100 8.371 3.050 L 11.420 0.000 9.999 0.000 L 8.579 0.000 5.854 2.730 M5.695 11.057 C 5.466 11.129,5.256 11.299,5.128 11.516 C 5.036 11.672,5.020 11.745,5.021 12.000 C 5.021 12.212,5.043 12.341,5.095 12.440 C 5.135 12.517,6.386 13.800,7.874 15.290 L 10.580 18.000 9.290 19.290 L 8.001 20.579 5.270 17.855 C 2.790 15.380,2.522 15.125,2.343 15.065 C 1.862 14.906,1.382 15.084,1.128 15.516 C 1.036 15.672,1.020 15.745,1.021 16.000 C 1.021 16.212,1.043 16.341,1.095 16.440 C 1.195 16.632,7.294 22.738,7.520 22.873 C 7.672 22.964,7.746 22.980,8.000 22.980 C 8.254 22.980,8.328 22.964,8.480 22.873 C 8.705 22.739,12.805 18.632,12.905 18.440 C 12.957 18.341,12.979 18.212,12.979 18.000 C 12.980 17.745,12.964 17.673,12.873 17.520 C 12.812 17.417,11.428 16.005,9.653 14.233 C 6.633 11.220,6.534 11.125,6.323 11.063 C 6.066 10.988,5.919 10.987,5.695 11.057 " stroke="none" fill-rule="evenodd" fill="black"></path></svg>