<svg xmlns="http://www.w3.org/2000/svg" width="24" height="24" viewBox="0 0 24 24" version="1.1">
	<path d="M 9.219 1.005 C 5.753 1.002, 3.762 1.456, 3.429 2.325 C 3.149 3.054, 3.051 7.891, 3.210 13.075 L 3.500 22.500 12 22.500 L 20.500 22.500 20.790 14.839 C 21.076 7.313, 21.023 7.122, 17.790 4.093 C 14.975 1.455, 13.737 1.009, 9.219 1.005 M 8.934 3 L 5 3 5 12 L 5 21 12 21 L 19 21 19 15.066 C 19 9.337, 18.905 9.122, 16.250 8.816 C 14.090 8.568, 13.432 7.910, 13.184 5.750 C 12.898 3.270, 12.481 3, 8.934 3 M 15.441 5 C 15.198 5, 15 5.450, 15 6 C 15 6.550, 15.477 7, 16.059 7 C 16.641 7, 16.840 6.550, 16.500 6 C 16.160 5.450, 15.684 5, 15.441 5 M 11 10 C 10.035 10, 8.703 10.653, 8.040 11.452 C 7.377 12.251, 6.985 13.665, 7.167 14.595 C 7.350 15.525, 8.287 16.782, 9.250 17.388 C 10.525 18.190, 11.475 18.190, 12.750 17.388 C 13.713 16.782, 14.650 15.525, 14.833 14.595 C 15.015 13.665, 14.623 12.251, 13.960 11.452 C 13.297 10.653, 11.965 10, 11 10" stroke="none" fill="black" fill-rule="evenodd"/>
</svg>