<svg viewBox="0 0 24 24" xmlns="http://www.w3.org/2000/svg" fill="none" stroke="#000000" stroke-width="2" stroke-linecap="round" stroke-linejoin="round"><path d="M5.499 1.043 C 4.380 1.232,3.461 2.048,3.114 3.160 L 3.020 3.460 3.020 12.000 L 3.020 20.540 3.114 20.840 C 3.422 21.827,4.173 22.578,5.160 22.886 L 5.460 22.980 12.000 22.980 L 18.540 22.980 18.840 22.886 C 19.816 22.582,20.554 21.851,20.886 20.860 L 20.980 20.580 20.991 14.212 L 21.002 7.844 20.877 7.472 C 20.683 6.893,20.493 6.610,19.902 6.014 C 18.493 4.592,15.431 1.642,15.222 1.503 C 15.092 1.417,14.822 1.273,14.623 1.183 L 14.260 1.020 9.980 1.014 C 7.626 1.011,5.609 1.024,5.499 1.043 M13.009 4.790 C 13.023 6.533,13.026 6.587,13.116 6.860 C 13.437 7.835,14.165 8.563,15.140 8.884 C 15.413 8.974,15.467 8.977,17.210 8.991 L 19.000 9.005 19.000 14.556 C 19.000 19.144,18.990 20.139,18.945 20.290 C 18.872 20.533,18.707 20.740,18.484 20.872 L 18.300 20.980 12.000 20.980 L 5.700 20.980 5.516 20.872 C 5.415 20.813,5.284 20.700,5.225 20.623 C 4.985 20.308,5.000 20.888,5.000 12.022 C 5.000 2.888,4.974 3.632,5.304 3.303 C 5.615 2.991,5.409 3.006,9.427 3.003 L 12.995 3.000 13.009 4.790 M16.780 5.751 L 18.060 7.004 16.880 6.992 L 15.700 6.980 15.516 6.872 C 15.415 6.813,15.284 6.700,15.225 6.623 C 15.016 6.349,15.000 6.239,15.000 5.089 L 15.000 4.028 15.250 4.263 C 15.388 4.393,16.076 5.063,16.780 5.751 M10.358 10.061 C 9.230 10.237,8.143 10.974,7.569 11.953 C 6.320 14.083,7.233 16.785,9.512 17.704 C 11.558 18.528,13.877 17.538,14.704 15.488 C 15.090 14.530,15.090 13.469,14.705 12.516 C 14.172 11.197,13.001 10.269,11.605 10.058 C 11.144 9.989,10.816 9.990,10.358 10.061 M10.000 12.640 L 10.000 13.000 9.639 13.000 C 9.284 13.000,9.278 12.998,9.322 12.916 C 9.416 12.741,9.897 12.280,9.986 12.280 C 9.994 12.280,10.000 12.442,10.000 12.640 M12.437 12.621 C 12.542 12.732,12.649 12.862,12.675 12.911 C 12.723 13.000,12.723 13.000,12.361 13.000 L 12.000 13.000 12.000 12.638 L 12.000 12.275 12.123 12.348 C 12.191 12.387,12.332 12.510,12.437 12.621 M10.000 15.360 C 10.000 15.558,9.985 15.720,9.966 15.720 C 9.906 15.720,9.423 15.255,9.348 15.125 L 9.275 15.000 9.638 15.000 L 10.000 15.000 10.000 15.360 M12.652 15.125 C 12.577 15.255,12.094 15.720,12.034 15.720 C 12.015 15.720,12.000 15.558,12.000 15.360 L 12.000 15.000 12.362 15.000 L 12.725 15.000 12.652 15.125 " stroke="none" fill-rule="evenodd" fill="black"></path></svg>