<svg xmlns="http://www.w3.org/2000/svg" width="24" height="24" viewBox="0 0 24 24" version="1.1">
	<path d="M 3.429 2.325 C 3.149 3.054, 3.051 7.891, 3.210 13.075 L 3.500 22.500 12 22.500 L 20.500 22.500 20.790 14.839 C 21.076 7.313, 21.023 7.122, 17.790 4.093 C 14.975 1.455, 13.737 1.009, 9.219 1.005 C 5.753 1.002, 3.762 1.456, 3.429 2.325 M 5 12 L 5 21 12 21 L 19 21 19 15.066 C 19 9.337, 18.905 9.122, 16.250 8.816 C 14.090 8.568, 13.432 7.910, 13.184 5.750 C 12.898 3.270, 12.481 3, 8.934 3 L 5 3 5 12 M 15 6 C 15 6.550, 15.477 7, 16.059 7 C 16.641 7, 16.840 6.550, 16.500 6 C 16.160 5.450, 15.684 5, 15.441 5 C 15.198 5, 15 5.450, 15 6 M 8.040 11.452 C 6.485 13.325, 7.028 15.989, 9.250 17.388 C 12.715 19.570, 16.617 14.653, 13.960 11.452 C 12.416 9.591, 9.584 9.591, 8.040 11.452" stroke="none" fill="#000000" fill-rule="evenodd"/>
</svg>