<svg viewBox="0 0 24 24" xmlns="http://www.w3.org/2000/svg" fill="none" stroke="#000000" stroke-width="2" stroke-linecap="round" stroke-linejoin="round"><path d="M3.499 1.040 C 2.363 1.246,1.460 2.049,1.114 3.160 C 0.979 3.594,0.979 4.406,1.114 4.840 C 1.421 5.826,2.174 6.579,3.160 6.886 C 3.594 7.021,4.406 7.021,4.840 6.886 C 5.826 6.579,6.579 5.826,6.886 4.840 C 7.021 4.406,7.021 3.594,6.886 3.160 C 6.581 2.179,5.810 1.407,4.861 1.129 C 4.500 1.023,3.832 0.980,3.499 1.040 M11.499 1.040 C 10.363 1.246,9.460 2.049,9.114 3.160 C 8.979 3.594,8.979 4.406,9.114 4.840 C 9.421 5.826,10.174 6.579,11.160 6.886 C 11.594 7.021,12.406 7.021,12.840 6.886 C 13.826 6.579,14.579 5.826,14.886 4.840 C 15.021 4.406,15.021 3.594,14.886 3.160 C 14.581 2.179,13.810 1.407,12.861 1.129 C 12.500 1.023,11.832 0.980,11.499 1.040 M19.499 1.040 C 18.363 1.246,17.460 2.049,17.114 3.160 C 16.979 3.594,16.979 4.406,17.114 4.840 C 17.421 5.826,18.173 6.578,19.160 6.886 C 19.418 6.967,19.539 6.980,20.020 6.977 C 20.508 6.974,20.620 6.961,20.887 6.872 C 21.852 6.552,22.585 5.807,22.886 4.840 C 23.021 4.406,23.021 3.594,22.886 3.160 C 22.581 2.179,21.810 1.407,20.861 1.129 C 20.500 1.023,19.832 0.980,19.499 1.040 M4.310 3.061 C 4.688 3.173,5.000 3.598,5.000 4.001 C 5.000 4.331,4.784 4.696,4.484 4.872 C 4.328 4.963,4.254 4.980,4.000 4.980 C 3.746 4.980,3.672 4.963,3.516 4.872 C 2.935 4.530,2.833 3.774,3.304 3.303 C 3.583 3.024,3.916 2.944,4.310 3.061 M12.310 3.061 C 12.688 3.173,13.000 3.598,13.000 4.001 C 13.000 4.331,12.784 4.696,12.484 4.872 C 12.328 4.963,12.254 4.980,12.000 4.980 C 11.746 4.980,11.672 4.963,11.516 4.872 C 10.935 4.530,10.833 3.774,11.304 3.303 C 11.583 3.024,11.916 2.944,12.310 3.061 M20.310 3.061 C 20.688 3.173,21.000 3.598,21.000 4.001 C 21.000 4.331,20.784 4.696,20.484 4.872 C 20.328 4.963,20.254 4.980,20.000 4.980 C 19.746 4.980,19.672 4.963,19.516 4.872 C 18.935 4.530,18.833 3.774,19.304 3.303 C 19.583 3.024,19.916 2.944,20.310 3.061 M3.499 9.040 C 2.363 9.246,1.460 10.049,1.114 11.160 C 0.979 11.594,0.979 12.406,1.114 12.840 C 1.421 13.826,2.174 14.579,3.160 14.886 C 3.594 15.021,4.406 15.021,4.840 14.886 C 5.826 14.579,6.579 13.826,6.886 12.840 C 7.021 12.406,7.021 11.594,6.886 11.160 C 6.581 10.179,5.810 9.407,4.861 9.129 C 4.500 9.023,3.832 8.980,3.499 9.040 M11.499 9.040 C 10.363 9.246,9.460 10.049,9.114 11.160 C 8.979 11.594,8.979 12.406,9.114 12.840 C 9.421 13.826,10.174 14.579,11.160 14.886 C 11.594 15.021,12.406 15.021,12.840 14.886 C 13.826 14.579,14.579 13.826,14.886 12.840 C 15.021 12.406,15.021 11.594,14.886 11.160 C 14.581 10.179,13.810 9.407,12.861 9.129 C 12.500 9.023,11.832 8.980,11.499 9.040 M19.499 9.040 C 18.363 9.246,17.460 10.049,17.114 11.160 C 16.979 11.594,16.979 12.406,17.114 12.840 C 17.421 13.826,18.174 14.579,19.160 14.886 C 19.594 15.021,20.406 15.021,20.840 14.886 C 21.826 14.579,22.579 13.826,22.886 12.840 C 23.021 12.406,23.021 11.594,22.886 11.160 C 22.581 10.179,21.810 9.407,20.861 9.129 C 20.500 9.023,19.832 8.980,19.499 9.040 M4.310 11.061 C 4.688 11.173,5.000 11.598,5.000 12.001 C 5.000 12.331,4.784 12.696,4.484 12.872 C 4.328 12.963,4.254 12.980,4.000 12.980 C 3.746 12.980,3.672 12.963,3.516 12.872 C 2.935 12.530,2.833 11.774,3.304 11.303 C 3.583 11.024,3.916 10.944,4.310 11.061 M12.310 11.061 C 12.688 11.173,13.000 11.598,13.000 12.001 C 13.000 12.331,12.784 12.696,12.484 12.872 C 12.328 12.963,12.254 12.980,12.000 12.980 C 11.746 12.980,11.672 12.963,11.516 12.872 C 10.935 12.530,10.833 11.774,11.304 11.303 C 11.583 11.024,11.916 10.944,12.310 11.061 M20.310 11.061 C 20.688 11.173,21.000 11.598,21.000 12.001 C 21.000 12.331,20.784 12.696,20.484 12.872 C 20.328 12.963,20.254 12.980,20.000 12.980 C 19.746 12.980,19.672 12.963,19.516 12.872 C 18.935 12.530,18.833 11.774,19.304 11.303 C 19.583 11.024,19.916 10.944,20.310 11.061 M3.499 17.040 C 2.363 17.246,1.460 18.049,1.114 19.160 C 0.979 19.594,0.979 20.406,1.114 20.840 C 1.421 21.826,2.174 22.579,3.160 22.886 C 3.412 22.964,3.547 22.979,4.000 22.979 C 4.453 22.979,4.588 22.964,4.840 22.886 C 5.826 22.579,6.579 21.826,6.886 20.840 C 7.021 20.406,7.021 19.594,6.886 19.160 C 6.581 18.179,5.810 17.407,4.861 17.129 C 4.500 17.023,3.832 16.980,3.499 17.040 M11.499 17.040 C 10.363 17.246,9.460 18.049,9.114 19.160 C 8.979 19.594,8.979 20.406,9.114 20.840 C 9.421 21.826,10.174 22.579,11.160 22.886 C 11.412 22.964,11.547 22.979,12.000 22.979 C 12.453 22.979,12.588 22.964,12.840 22.886 C 13.826 22.579,14.579 21.826,14.886 20.840 C 15.021 20.406,15.021 19.594,14.886 19.160 C 14.581 18.179,13.810 17.407,12.861 17.129 C 12.500 17.023,11.832 16.980,11.499 17.040 M19.499 17.040 C 18.363 17.246,17.460 18.049,17.114 19.160 C 16.979 19.594,16.979 20.406,17.114 20.840 C 17.421 21.826,18.174 22.579,19.160 22.886 C 19.412 22.964,19.547 22.979,20.000 22.979 C 20.453 22.979,20.588 22.964,20.840 22.886 C 21.826 22.579,22.579 21.826,22.886 20.840 C 23.021 20.406,23.021 19.594,22.886 19.160 C 22.581 18.179,21.810 17.407,20.861 17.129 C 20.500 17.023,19.832 16.980,19.499 17.040 M4.310 19.061 C 4.688 19.173,5.000 19.598,5.000 20.001 C 5.000 20.331,4.784 20.696,4.484 20.872 C 4.328 20.963,4.254 20.980,4.000 20.980 C 3.746 20.980,3.672 20.963,3.516 20.872 C 2.935 20.530,2.833 19.774,3.304 19.303 C 3.583 19.024,3.916 18.944,4.310 19.061 M12.310 19.061 C 12.688 19.173,13.000 19.598,13.000 20.001 C 13.000 20.331,12.784 20.696,12.484 20.872 C 12.328 20.963,12.254 20.980,12.000 20.980 C 11.746 20.980,11.672 20.963,11.516 20.872 C 10.935 20.530,10.833 19.774,11.304 19.303 C 11.583 19.024,11.916 18.944,12.310 19.061 M20.310 19.061 C 20.688 19.173,21.000 19.598,21.000 20.001 C 21.000 20.331,20.784 20.696,20.484 20.872 C 20.328 20.963,20.254 20.980,20.000 20.980 C 19.746 20.980,19.672 20.963,19.516 20.872 C 18.935 20.530,18.833 19.774,19.304 19.303 C 19.583 19.024,19.916 18.944,20.310 19.061 " stroke="none" fill="black" fill-rule="evenodd"></path></svg>