<svg xmlns="http://www.w3.org/2000/svg" width="24" height="24" viewBox="0 0 24 24" version="1.1">
	<path d="M 1.389 2.430 C 0.393 5.025, 1.788 7.169, 4.246 6.820 C 7.450 6.365, 7.450 1.635, 4.246 1.180 C 2.893 0.988, 1.750 1.488, 1.389 2.430 M 9.389 2.430 C 8.393 5.025, 9.788 7.169, 12.246 6.820 C 15.450 6.365, 15.450 1.635, 12.246 1.180 C 10.893 0.988, 9.750 1.488, 9.389 2.430 M 17.389 2.430 C 16.393 5.025, 17.788 7.169, 20.246 6.820 C 23.450 6.365, 23.450 1.635, 20.246 1.180 C 18.893 0.988, 17.750 1.488, 17.389 2.430 M 3 4 C 3 4.550, 3.450 5, 4 5 C 4.550 5, 5 4.550, 5 4 C 5 3.450, 4.550 3, 4 3 C 3.450 3, 3 3.450, 3 4 M 11 4 C 11 4.550, 11.450 5, 12 5 C 12.550 5, 13 4.550, 13 4 C 13 3.450, 12.550 3, 12 3 C 11.450 3, 11 3.450, 11 4 M 19 4 C 19 4.550, 19.450 5, 20 5 C 20.550 5, 21 4.550, 21 4 C 21 3.450, 20.550 3, 20 3 C 19.450 3, 19 3.450, 19 4 M 1.389 10.430 C 0.393 13.025, 1.788 15.169, 4.246 14.820 C 7.450 14.365, 7.450 9.635, 4.246 9.180 C 2.893 8.988, 1.750 9.488, 1.389 10.430 M 9.389 10.430 C 8.393 13.025, 9.788 15.169, 12.246 14.820 C 15.450 14.365, 15.450 9.635, 12.246 9.180 C 10.893 8.988, 9.750 9.488, 9.389 10.430 M 17.389 10.430 C 16.393 13.025, 17.788 15.169, 20.246 14.820 C 23.450 14.365, 23.450 9.635, 20.246 9.180 C 18.893 8.988, 17.750 9.488, 17.389 10.430 M 3 12 C 3 12.550, 3.450 13, 4 13 C 4.550 13, 5 12.550, 5 12 C 5 11.450, 4.550 11, 4 11 C 3.450 11, 3 11.450, 3 12 M 11 12 C 11 12.550, 11.450 13, 12 13 C 12.550 13, 13 12.550, 13 12 C 13 11.450, 12.550 11, 12 11 C 11.450 11, 11 11.450, 11 12 M 19 12 C 19 12.550, 19.450 13, 20 13 C 20.550 13, 21 12.550, 21 12 C 21 11.450, 20.550 11, 20 11 C 19.450 11, 19 11.450, 19 12 M 1.389 18.430 C 0.393 21.025, 1.788 23.169, 4.246 22.820 C 7.450 22.365, 7.450 17.635, 4.246 17.180 C 2.893 16.988, 1.750 17.488, 1.389 18.430 M 9.389 18.430 C 8.393 21.025, 9.788 23.169, 12.246 22.820 C 13.898 22.585, 14.500 21.833, 14.500 20 C 14.500 18.167, 13.898 17.415, 12.246 17.180 C 10.893 16.988, 9.750 17.488, 9.389 18.430 M 17.389 18.430 C 16.393 21.025, 17.788 23.169, 20.246 22.820 C 21.898 22.585, 22.500 21.833, 22.500 20 C 22.500 18.167, 21.898 17.415, 20.246 17.180 C 18.893 16.988, 17.750 17.488, 17.389 18.430 M 3 20 C 3 20.550, 3.450 21, 4 21 C 4.550 21, 5 20.550, 5 20 C 5 19.450, 4.550 19, 4 19 C 3.450 19, 3 19.450, 3 20 M 11 20 C 11 20.550, 11.450 21, 12 21 C 12.550 21, 13 20.550, 13 20 C 13 19.450, 12.550 19, 12 19 C 11.450 19, 11 19.450, 11 20 M 19 20 C 19 20.550, 19.450 21, 20 21 C 20.550 21, 21 20.550, 21 20 C 21 19.450, 20.550 19, 20 19 C 19.450 19, 19 19.450, 19 20" stroke="none" fill="#000000" fill-rule="evenodd"/>
</svg>