<svg xmlns="http://www.w3.org/2000/svg" width="24" height="24" viewBox="0 0 24 24" version="1.1">
	<path d="M 12 3 C 5.333 3, 1 3.394, 1 4 C 1 4.606, 5.333 5, 12 5 C 18.667 5, 23 4.606, 23 4 C 23 3.394, 18.667 3, 12 3 M 12 11 C 5.333 11, 1 11.394, 1 12 C 1 12.606, 5.333 13, 12 13 C 18.667 13, 23 12.606, 23 12 C 23 11.394, 18.667 11, 12 11 M 12 19 C 5.333 19, 1 19.394, 1 20 C 1 20.606, 5.333 21, 12 21 C 18.667 21, 23 20.606, 23 20 C 23 19.394, 18.667 19, 12 19" stroke="none" fill="black" fill-rule="evenodd"/>
</svg>