<svg xmlns="http://www.w3.org/2000/svg" width="24" height="24" viewBox="0 0 24 24" version="1.1">
	<path d="M 1 6 L 1 11 6 11 L 11 11 11 6 L 11 1 6 1 L 1 1 1 6 M 13 6 L 13 11 18 11 L 23 11 23 6 L 23 1 18 1 L 13 1 13 6 M 3 6 C 3 8.667, 3.333 9, 6 9 C 8.667 9, 9 8.667, 9 6 C 9 3.333, 8.667 3, 6 3 C 3.333 3, 3 3.333, 3 6 M 15 6 C 15 8.667, 15.333 9, 18 9 C 20.667 9, 21 8.667, 21 6 C 21 3.333, 20.667 3, 18 3 C 15.333 3, 15 3.333, 15 6 M 1 18 L 1 23 6 23 L 11 23 11 18 L 11 13 6 13 L 1 13 1 18 M 13 18 L 13 23 18 23 L 23 23 23 18 L 23 13 18 13 L 13 13 13 18 M 3 18 C 3 20.667, 3.333 21, 6 21 C 8.667 21, 9 20.667, 9 18 C 9 15.333, 8.667 15, 6 15 C 3.333 15, 3 15.333, 3 18 M 15 18 C 15 20.667, 15.333 21, 18 21 C 20.667 21, 21 20.667, 21 18 C 21 15.333, 20.667 15, 18 15 C 15.333 15, 15 15.333, 15 18" stroke="none" fill="black" fill-rule="evenodd"/>
</svg>