<svg xmlns="http://www.w3.org/2000/svg" width="24" height="24" viewBox="0 0 24 24" version="1.1">
	<path d="M 1.980 4.524 C 0.241 6.620, 1.363 7.415, 3.860 5.855 C 5.634 4.747, 6.238 4.875, 8.272 6.786 C 9.568 8.004, 11.471 9, 12.500 9 C 13.529 9, 15.432 8.004, 16.728 6.786 C 18.762 4.875, 19.366 4.747, 21.140 5.855 C 23.637 7.415, 24.759 6.620, 23.020 4.524 C 21.254 2.396, 17.650 2.624, 15.500 5 C 13.217 7.523, 11.783 7.523, 9.500 5 C 7.350 2.624, 3.746 2.396, 1.980 4.524 M 1.980 10.524 C 0.241 12.620, 1.363 13.415, 3.860 11.855 C 5.634 10.747, 6.238 10.875, 8.272 12.786 C 11.258 15.591, 13.742 15.591, 16.728 12.786 C 18.762 10.875, 19.366 10.747, 21.140 11.855 C 23.637 13.415, 24.759 12.620, 23.020 10.524 C 21.254 8.396, 17.650 8.624, 15.500 11 C 13.217 13.523, 11.783 13.523, 9.500 11 C 7.350 8.624, 3.746 8.396, 1.980 10.524 M 1.980 16.524 C 0.241 18.620, 1.363 19.415, 3.860 17.855 C 5.634 16.747, 6.238 16.875, 8.272 18.786 C 11.258 21.591, 13.742 21.591, 16.728 18.786 C 18.762 16.875, 19.366 16.747, 21.140 17.855 C 23.637 19.415, 24.759 18.620, 23.020 16.524 C 21.254 14.396, 17.650 14.624, 15.500 17 C 14.505 18.100, 13.155 19, 12.500 19 C 11.845 19, 10.495 18.100, 9.500 17 C 7.350 14.624, 3.746 14.396, 1.980 16.524" stroke="none" fill="#000000" fill-rule="evenodd"/>
</svg>