<svg viewBox="0 0 24 24" xmlns="http://www.w3.org/2000/svg" fill="none" stroke="#000000" stroke-width="2" stroke-linecap="round" stroke-linejoin="round"><path d="M1.695 3.057 C 1.466 3.129,1.256 3.299,1.128 3.516 C 1.037 3.672,1.020 3.746,1.020 4.000 C 1.020 4.256,1.036 4.328,1.131 4.489 C 1.256 4.702,1.449 4.864,1.670 4.943 C 1.893 5.023,22.107 5.023,22.330 4.943 C 22.551 4.864,22.744 4.702,22.869 4.489 C 22.964 4.328,22.980 4.256,22.980 4.000 C 22.980 3.746,22.963 3.672,22.872 3.516 C 22.740 3.293,22.533 3.128,22.290 3.055 C 22.027 2.976,1.948 2.978,1.695 3.057 M1.695 11.057 C 1.466 11.129,1.256 11.299,1.128 11.516 C 1.037 11.672,1.020 11.746,1.020 12.000 C 1.020 12.256,1.036 12.328,1.131 12.489 C 1.256 12.702,1.449 12.864,1.670 12.943 C 1.893 13.023,22.107 13.023,22.330 12.943 C 22.551 12.864,22.744 12.702,22.869 12.489 C 22.964 12.328,22.980 12.256,22.980 12.000 C 22.980 11.746,22.963 11.672,22.872 11.516 C 22.740 11.293,22.533 11.128,22.290 11.055 C 22.027 10.976,1.948 10.978,1.695 11.057 M1.695 19.057 C 1.466 19.129,1.256 19.299,1.128 19.516 C 1.037 19.672,1.020 19.746,1.020 20.000 C 1.020 20.256,1.036 20.328,1.131 20.489 C 1.256 20.702,1.449 20.864,1.670 20.943 C 1.893 21.023,22.107 21.023,22.330 20.943 C 22.551 20.864,22.744 20.702,22.869 20.489 C 22.964 20.328,22.980 20.256,22.980 20.000 C 22.980 19.746,22.963 19.672,22.872 19.516 C 22.740 19.293,22.533 19.128,22.290 19.055 C 22.027 18.976,1.948 18.978,1.695 19.057 " stroke="none" fill="black" fill-rule="evenodd"></path></svg>