<svg xmlns="http://www.w3.org/2000/svg" width="24" height="24" viewBox="0 0 24 24" version="1.1">
	<path d="M 4.246 1.180 C 2.893 0.988, 1.750 1.488, 1.389 2.430 C 1.057 3.293, 1.057 4.707, 1.389 5.570 C 1.750 6.512, 2.893 7.012, 4.246 6.820 C 5.898 6.585, 6.500 5.833, 6.500 4 C 6.500 2.167, 5.898 1.415, 4.246 1.180 M 12.246 1.180 C 10.893 0.988, 9.750 1.488, 9.389 2.430 C 9.057 3.293, 9.057 4.707, 9.389 5.570 C 9.750 6.512, 10.893 7.012, 12.246 6.820 C 13.898 6.585, 14.500 5.833, 14.500 4 C 14.500 2.167, 13.898 1.415, 12.246 1.180 M 20.246 1.180 C 18.893 0.988, 17.750 1.488, 17.389 2.430 C 17.057 3.293, 17.057 4.707, 17.389 5.570 C 17.750 6.512, 18.893 7.012, 20.246 6.820 C 21.898 6.585, 22.500 5.833, 22.500 4 C 22.500 2.167, 21.898 1.415, 20.246 1.180 M 4 3 C 3.450 3, 3 3.450, 3 4 C 3 4.550, 3.450 5, 4 5 C 4.550 5, 5 4.550, 5 4 C 5 3.450, 4.550 3, 4 3 M 12 3 C 11.450 3, 11 3.450, 11 4 C 11 4.550, 11.450 5, 12 5 C 12.550 5, 13 4.550, 13 4 C 13 3.450, 12.550 3, 12 3 M 20 3 C 19.450 3, 19 3.450, 19 4 C 19 4.550, 19.450 5, 20 5 C 20.550 5, 21 4.550, 21 4 C 21 3.450, 20.550 3, 20 3 M 4.246 9.180 C 2.893 8.988, 1.750 9.488, 1.389 10.430 C 1.057 11.293, 1.057 12.707, 1.389 13.570 C 1.750 14.512, 2.893 15.012, 4.246 14.820 C 5.898 14.585, 6.500 13.833, 6.500 12 C 6.500 10.167, 5.898 9.415, 4.246 9.180 M 12.246 9.180 C 10.893 8.988, 9.750 9.488, 9.389 10.430 C 9.057 11.293, 9.057 12.707, 9.389 13.570 C 9.750 14.512, 10.893 15.012, 12.246 14.820 C 13.898 14.585, 14.500 13.833, 14.500 12 C 14.500 10.167, 13.898 9.415, 12.246 9.180 M 20.246 9.180 C 18.893 8.988, 17.750 9.488, 17.389 10.430 C 17.057 11.293, 17.057 12.707, 17.389 13.570 C 17.750 14.512, 18.893 15.012, 20.246 14.820 C 21.898 14.585, 22.500 13.833, 22.500 12 C 22.500 10.167, 21.898 9.415, 20.246 9.180 M 4 11 C 3.450 11, 3 11.450, 3 12 C 3 12.550, 3.450 13, 4 13 C 4.550 13, 5 12.550, 5 12 C 5 11.450, 4.550 11, 4 11 M 12 11 C 11.450 11, 11 11.450, 11 12 C 11 12.550, 11.450 13, 12 13 C 12.550 13, 13 12.550, 13 12 C 13 11.450, 12.550 11, 12 11 M 20 11 C 19.450 11, 19 11.450, 19 12 C 19 12.550, 19.450 13, 20 13 C 20.550 13, 21 12.550, 21 12 C 21 11.450, 20.550 11, 20 11 M 4.246 17.180 C 2.893 16.988, 1.750 17.488, 1.389 18.430 C 1.057 19.293, 1.057 20.707, 1.389 21.570 C 1.750 22.512, 2.893 23.012, 4.246 22.820 C 5.898 22.585, 6.500 21.833, 6.500 20 C 6.500 18.167, 5.898 17.415, 4.246 17.180 M 12.246 17.180 C 10.893 16.988, 9.750 17.488, 9.389 18.430 C 9.057 19.293, 9.057 20.707, 9.389 21.570 C 9.750 22.512, 10.893 23.012, 12.246 22.820 C 13.898 22.585, 14.500 21.833, 14.500 20 C 14.500 18.167, 13.898 17.415, 12.246 17.180 M 20.246 17.180 C 18.893 16.988, 17.750 17.488, 17.389 18.430 C 17.057 19.293, 17.057 20.707, 17.389 21.570 C 17.750 22.512, 18.893 23.012, 20.246 22.820 C 21.898 22.585, 22.500 21.833, 22.500 20 C 22.500 18.167, 21.898 17.415, 20.246 17.180 M 4 19 C 3.450 19, 3 19.450, 3 20 C 3 20.550, 3.450 21, 4 21 C 4.550 21, 5 20.550, 5 20 C 5 19.450, 4.550 19, 4 19 M 12 19 C 11.450 19, 11 19.450, 11 20 C 11 20.550, 11.450 21, 12 21 C 12.550 21, 13 20.550, 13 20 C 13 19.450, 12.550 19, 12 19 M 20 19 C 19.450 19, 19 19.450, 19 20 C 19 20.550, 19.450 21, 20 21 C 20.550 21, 21 20.550, 21 20 C 21 19.450, 20.550 19, 20 19" stroke="none" fill="black" fill-rule="evenodd"/>
</svg>