<svg xmlns="http://www.w3.org/2000/svg" width="24" height="24" viewBox="0 0 24 24" version="1.1">
	<path d="M 5.467 3 C 4.245 3, 2.676 3.686, 1.980 4.524 C 1.284 5.362, 0.960 6.294, 1.260 6.593 C 1.560 6.893, 2.730 6.561, 3.860 5.855 C 5.634 4.747, 6.238 4.875, 8.272 6.786 C 9.568 8.004, 11.471 9, 12.500 9 C 13.529 9, 15.432 8.004, 16.728 6.786 C 18.762 4.875, 19.366 4.747, 21.140 5.855 C 22.270 6.561, 23.440 6.893, 23.740 6.593 C 24.040 6.294, 23.716 5.362, 23.020 4.524 C 22.324 3.686, 20.755 3, 19.533 3 C 18.310 3, 16.495 3.900, 15.500 5 C 14.505 6.100, 13.155 7, 12.500 7 C 11.845 7, 10.495 6.100, 9.500 5 C 8.505 3.900, 6.690 3, 5.467 3 M 5.467 9 C 4.245 9, 2.676 9.686, 1.980 10.524 C 1.284 11.362, 0.960 12.294, 1.260 12.593 C 1.560 12.893, 2.730 12.561, 3.860 11.855 C 5.634 10.747, 6.238 10.875, 8.272 12.786 C 9.568 14.004, 11.471 15, 12.500 15 C 13.529 15, 15.432 14.004, 16.728 12.786 C 18.762 10.875, 19.366 10.747, 21.140 11.855 C 22.270 12.561, 23.440 12.893, 23.740 12.593 C 24.040 12.294, 23.716 11.362, 23.020 10.524 C 22.324 9.686, 20.755 9, 19.533 9 C 18.310 9, 16.495 9.900, 15.500 11 C 14.505 12.100, 13.155 13, 12.500 13 C 11.845 13, 10.495 12.100, 9.500 11 C 8.505 9.900, 6.690 9, 5.467 9 M 5.467 15 C 4.245 15, 2.676 15.686, 1.980 16.524 C 1.284 17.362, 0.960 18.294, 1.260 18.593 C 1.560 18.893, 2.730 18.561, 3.860 17.855 C 5.634 16.747, 6.238 16.875, 8.272 18.786 C 9.568 20.004, 11.471 21, 12.500 21 C 13.529 21, 15.432 20.004, 16.728 18.786 C 18.762 16.875, 19.366 16.747, 21.140 17.855 C 22.270 18.561, 23.440 18.893, 23.740 18.593 C 24.040 18.294, 23.716 17.362, 23.020 16.524 C 22.324 15.686, 20.755 15, 19.533 15 C 18.310 15, 16.495 15.900, 15.500 17 C 14.505 18.100, 13.155 19, 12.500 19 C 11.845 19, 10.495 18.100, 9.500 17 C 8.505 15.900, 6.690 15, 5.467 15" stroke="none" fill="black" fill-rule="evenodd"/>
</svg>