<svg viewBox="0 0 24 24" xmlns="http://www.w3.org/2000/svg" fill="none" stroke="#000000" stroke-width="2" stroke-linecap="round" stroke-linejoin="round"><path d="M11.358 1.061 C 9.731 1.315,8.417 2.584,8.083 4.227 C 7.911 5.072,8.013 5.824,8.409 6.620 C 9.240 8.291,11.075 9.278,12.687 8.921 C 14.540 8.512,16.000 6.772,16.000 4.974 C 16.000 4.328,15.770 3.515,15.421 2.932 C 14.834 1.949,13.756 1.232,12.605 1.058 C 12.144 0.989,11.816 0.990,11.358 1.061 M12.523 3.073 C 13.698 3.380,14.335 4.743,13.787 5.780 C 13.590 6.153,13.090 6.634,12.702 6.824 C 12.400 6.972,12.365 6.980,12.000 6.980 C 11.635 6.980,11.600 6.972,11.298 6.824 C 10.740 6.551,10.199 5.925,10.056 5.386 C 9.898 4.792,10.106 4.085,10.583 3.598 C 11.081 3.090,11.820 2.890,12.523 3.073 M4.358 5.061 C 2.461 5.357,0.996 7.069,1.001 8.986 C 1.004 10.138,1.632 11.336,2.656 12.144 L 2.813 12.267 2.493 12.292 C 1.685 12.354,0.953 12.592,0.230 13.027 L -0.000 13.166 0.003 14.753 C 0.005 15.928,0.017 16.314,0.049 16.240 C 0.073 16.185,0.146 16.032,0.212 15.900 C 0.780 14.765,2.072 14.113,3.348 14.319 C 3.895 14.407,5.127 14.881,6.200 15.417 C 6.932 15.782,7.315 16.001,8.031 16.464 C 8.668 16.876,8.871 16.949,9.185 16.879 C 9.447 16.820,9.569 16.747,9.750 16.542 C 10.111 16.132,10.069 15.532,9.653 15.156 C 9.176 14.726,7.203 13.623,6.002 13.117 C 5.757 13.013,5.616 12.935,5.662 12.928 C 5.883 12.893,6.336 12.735,6.620 12.592 C 8.034 11.883,8.996 10.426,8.999 8.986 C 9.001 8.330,8.773 7.522,8.421 6.932 C 7.834 5.949,6.756 5.232,5.605 5.058 C 5.144 4.989,4.816 4.990,4.358 5.061 M18.358 5.061 C 17.230 5.237,16.143 5.974,15.569 6.953 C 15.215 7.557,15.000 8.320,15.000 8.974 C 15.000 10.105,15.614 11.309,16.585 12.081 L 16.870 12.308 16.305 12.289 C 15.668 12.269,15.210 12.329,14.641 12.508 C 14.236 12.636,14.014 12.817,13.880 13.129 C 13.564 13.864,14.274 14.672,15.047 14.458 C 15.564 14.315,15.899 14.270,16.300 14.291 C 17.639 14.362,18.763 15.315,19.056 16.628 C 19.125 16.939,19.142 17.585,19.085 17.782 C 19.044 17.927,16.634 21.216,16.366 21.493 C 15.488 22.403,14.118 22.656,12.971 22.120 C 12.422 21.863,11.942 21.439,11.683 20.980 C 11.621 20.870,11.303 20.042,10.976 19.140 C 10.333 17.367,10.297 17.295,9.943 17.108 C 9.715 16.988,9.285 16.988,9.057 17.108 C 8.703 17.295,8.667 17.367,8.024 19.140 C 7.697 20.042,7.379 20.870,7.317 20.980 C 7.058 21.439,6.578 21.863,6.029 22.120 C 4.882 22.656,3.512 22.403,2.634 21.493 C 2.531 21.387,1.912 20.571,1.259 19.680 C 0.605 18.789,0.054 18.043,0.035 18.022 C 0.015 18.000,0.000 18.706,0.000 19.667 L -0.000 21.350 0.450 21.965 C 1.166 22.944,1.731 23.463,2.509 23.854 L 2.798 24.000 4.780 24.000 L 6.762 24.000 7.011 23.876 C 7.699 23.532,8.412 22.924,8.836 22.320 C 9.096 21.951,9.206 21.737,9.365 21.299 C 9.432 21.113,9.493 20.960,9.500 20.960 C 9.507 20.960,9.568 21.113,9.635 21.299 C 9.794 21.737,9.904 21.951,10.164 22.320 C 10.588 22.924,11.301 23.532,11.989 23.876 L 12.238 24.000 14.220 24.000 L 16.202 24.000 16.491 23.854 C 17.453 23.370,17.752 23.055,19.465 20.720 C 20.215 19.697,20.860 18.800,20.897 18.726 C 21.105 18.320,21.191 17.116,21.062 16.426 C 20.816 15.112,20.076 13.933,19.041 13.206 L 18.747 13.000 19.044 12.999 C 19.991 12.996,21.131 12.460,21.857 11.676 C 22.980 10.463,23.287 8.957,22.705 7.516 C 22.172 6.197,21.001 5.269,19.605 5.058 C 19.144 4.989,18.816 4.990,18.358 5.061 M5.523 7.073 C 6.698 7.380,7.335 8.743,6.787 9.780 C 6.590 10.153,6.090 10.634,5.702 10.824 C 5.400 10.972,5.365 10.980,5.000 10.980 C 4.635 10.980,4.600 10.972,4.298 10.824 C 4.052 10.704,3.907 10.595,3.660 10.344 C 3.069 9.746,2.901 9.232,3.062 8.522 C 3.259 7.657,4.092 7.005,5.000 7.005 C 5.143 7.005,5.378 7.036,5.523 7.073 M19.523 7.073 C 20.698 7.380,21.335 8.743,20.787 9.780 C 20.590 10.153,20.090 10.634,19.702 10.824 C 19.400 10.972,19.365 10.980,19.000 10.980 C 18.635 10.980,18.600 10.972,18.298 10.824 C 18.052 10.704,17.907 10.595,17.660 10.344 C 17.069 9.746,16.901 9.232,17.062 8.522 C 17.259 7.657,18.092 7.005,19.000 7.005 C 19.143 7.005,19.378 7.036,19.523 7.073 " stroke="none" fill-rule="evenodd" fill="black"></path></svg>