<svg xmlns="http://www.w3.org/2000/svg" width="24" height="24" viewBox="0 0 24 24" version="1.1">
	<path d="M 9.238 2.162 C 8.557 2.843, 8 3.923, 8 4.561 C 8 5.235, 7.031 5.537, 5.689 5.281 C 2.873 4.743, 0.562 7.217, 1.288 9.994 C 1.576 11.096, 1.404 12.250, 0.906 12.558 C 0.408 12.866, 0 13.822, 0 14.681 C 0 15.923, 0.294 16.001, 1.428 15.060 C 2.542 14.135, 3.526 14.221, 5.901 15.449 C 8.666 16.879, 8.842 17.253, 7.813 19.512 C 6.497 22.399, 4.418 22.688, 1.829 20.345 C 0.320 18.980, 0 18.945, 0 20.145 C 0 20.945, 0.540 22.140, 1.200 22.800 C 2.697 24.297, 7.651 24.373, 8.554 22.913 C 9.038 22.130, 9.530 22.130, 10.313 22.913 C 10.911 23.511, 12.627 24, 14.127 24 C 18.579 24, 23.163 16.455, 19.927 14.455 C 19.255 14.040, 19.630 13.247, 20.927 12.339 C 24.596 9.768, 22.601 4.340, 18.298 5.190 C 17.246 5.398, 16.075 4.706, 15.475 3.522 C 14.262 1.130, 10.985 0.415, 9.238 2.162 M 10.446 4.087 C 9.416 5.755, 11.733 7.667, 13.113 6.287 C 14.267 5.133, 13.545 3, 12 3 C 11.515 3, 10.816 3.489, 10.446 4.087 M 3.446 8.087 C 2.416 9.755, 4.733 11.667, 6.113 10.287 C 7.267 9.133, 6.545 7, 5 7 C 4.515 7, 3.816 7.489, 3.446 8.087 M 17.446 8.087 C 16.416 9.755, 18.733 11.667, 20.113 10.287 C 21.267 9.133, 20.545 7, 19 7 C 18.515 7, 17.816 7.489, 17.446 8.087 M 8.189 10.879 C 7.292 12.780, 7.331 13.549, 8.367 14.405 C 9.095 15.007, 10.265 16.962, 10.967 18.750 C 12.429 22.475, 14.830 22.950, 17.466 20.037 C 19.554 17.731, 18.855 15.036, 15.974 14.283 C 14.643 13.935, 14.263 13.372, 14.855 12.628 C 16.316 10.792, 14.697 8.502, 11.918 8.474 C 10.150 8.456, 8.975 9.213, 8.189 10.879" stroke="none" fill="#000000" fill-rule="evenodd"/>
</svg>