<svg viewBox="0 0 24 24" xmlns="http://www.w3.org/2000/svg" fill="none" stroke="currentColor" stroke-width="2" stroke-linecap="round" stroke-linejoin="round"><path d="M12 2a3 3 0 0 1 3 3c0 1.5-1.5 3-3 3s-3-1.5-3-3a3 3 0 0 1 3-3z"/><path d="M19 6a3 3 0 0 1 3 3c0 1.5-1.5 3-3 3s-3-1.5-3-3a3 3 0 0 1 3-3z"/><path d="M5 6a3 3 0 0 1 3 3c0 1.5-1.5 3-3 3s-3-1.5-3-3a3 3 0 0 1 3-3z"/><path d="M14.8 13.5a4 4 0 0 1 5.2 4.8l-2.5 3.4a4 4 0 0 1-6.8-.4L9.5 18l-1.2 3.3a4 4 0 0 1-6.8.4l-2.5-3.4a4 4 0 0 1 5.2-4.8c1.8.6 3.5 1.5 4.8 2.4"/></svg>