<svg xmlns="http://www.w3.org/2000/svg" width="24" height="24" viewBox="0 0 24 24" version="1.1">
	<path d="M 12.463 1.212 C 11.371 1.053, 9.919 1.481, 9.238 2.162 C 8.557 2.843, 8 3.923, 8 4.561 C 8 5.235, 7.031 5.537, 5.689 5.281 C 4.344 5.024, 2.832 5.497, 2.071 6.414 C 1.352 7.281, 1 8.891, 1.288 9.994 C 1.576 11.096, 1.404 12.250, 0.906 12.558 C 0.408 12.866, 0 13.822, 0 14.681 C 0 15.923, 0.294 16.001, 1.428 15.060 C 2.542 14.135, 3.526 14.221, 5.901 15.449 C 8.666 16.879, 8.842 17.253, 7.813 19.512 C 7.189 20.880, 5.999 22, 5.168 22 C 4.337 22, 2.835 21.255, 1.829 20.345 C 0.320 18.980, 0 18.945, 0 20.145 C 0 20.945, 0.540 22.140, 1.200 22.800 C 1.860 23.460, 3.633 24, 5.141 24 C 6.649 24, 8.184 23.511, 8.554 22.913 C 9.038 22.130, 9.530 22.130, 10.313 22.913 C 10.911 23.511, 12.627 24, 14.127 24 C 15.883 24, 17.593 23.061, 18.927 21.365 C 20.067 19.916, 21 17.918, 21 16.924 C 21 15.931, 20.517 14.819, 19.927 14.455 C 19.255 14.040, 19.630 13.247, 20.927 12.339 C 22.067 11.540, 23 10.067, 23 9.066 C 23 8.064, 22.347 6.703, 21.548 6.040 C 20.749 5.377, 19.287 4.995, 18.298 5.190 C 17.246 5.398, 16.075 4.706, 15.475 3.522 C 14.911 2.410, 13.556 1.370, 12.463 1.212 M 12 3 C 11.515 3, 10.816 3.489, 10.446 4.087 C 10.077 4.685, 10.275 5.675, 10.887 6.287 C 11.704 7.104, 12.296 7.104, 13.113 6.287 C 13.725 5.675, 13.923 4.685, 13.554 4.087 C 13.184 3.489, 12.485 3, 12 3 M 5 7 C 4.515 7, 3.816 7.489, 3.446 8.087 C 3.077 8.685, 3.275 9.675, 3.887 10.287 C 4.704 11.104, 5.296 11.104, 6.113 10.287 C 6.725 9.675, 6.923 8.685, 6.554 8.087 C 6.184 7.489, 5.485 7, 5 7 M 19 7 C 18.515 7, 17.816 7.489, 17.446 8.087 C 17.077 8.685, 17.275 9.675, 17.887 10.287 C 18.704 11.104, 19.296 11.104, 20.113 10.287 C 20.725 9.675, 20.923 8.685, 20.554 8.087 C 20.184 7.489, 19.485 7, 19 7 M 11.918 8.474 C 10.150 8.456, 8.975 9.213, 8.189 10.879 C 7.292 12.780, 7.331 13.549, 8.367 14.405 C 9.095 15.007, 10.265 16.962, 10.967 18.750 C 11.719 20.666, 12.950 22, 13.966 22 C 14.914 22, 16.489 21.117, 17.466 20.037 C 18.474 18.924, 18.971 17.368, 18.616 16.442 C 18.272 15.545, 17.083 14.573, 15.974 14.283 C 14.643 13.935, 14.263 13.372, 14.855 12.628 C 15.349 12.008, 15.471 10.825, 15.126 10 C 14.782 9.175, 13.338 8.488, 11.918 8.474" stroke="none" fill="black" fill-rule="evenodd"/>
</svg>