<svg xmlns="http://www.w3.org/2000/svg" width="24" height="24" viewBox="0 0 24 24" version="1.1">
	<path d="M 7.500 1.894 C 3.457 3.652, 1.500 6.976, 1.500 12.082 C 1.500 16.074, 2.001 17.456, 4.273 19.727 C 6.557 22.011, 7.919 22.500, 12 22.500 C 19.011 22.500, 22.500 19.011, 22.500 12 C 22.500 7.999, 22 6.546, 19.903 4.448 C 17.099 1.644, 10.974 0.383, 7.500 1.894 M 5.923 5.923 C 2.927 8.919, 2.122 13.062, 3.968 15.982 C 4.751 17.220, 5.408 16.983, 7.953 14.545 C 10.427 12.175, 11 10.815, 11 7.313 C 11 2.232, 9.912 1.934, 5.923 5.923 M 13 7.313 C 13 10.815, 13.573 12.175, 16.047 14.545 C 18.592 16.983, 19.249 17.220, 20.032 15.982 C 21.878 13.062, 21.073 8.919, 18.077 5.923 C 14.088 1.934, 13 2.232, 13 7.313 M 8.445 17.061 C 6.848 18.825, 6.790 19.255, 8.040 20.046 C 10.428 21.556, 11 21.161, 11 18 C 11 14.439, 10.863 14.389, 8.445 17.061 M 13 17.778 C 13 21.169, 13.545 21.575, 16 20.018 C 17.284 19.203, 17.176 18.741, 15.250 16.811 L 13 14.556 13 17.778" stroke="none" fill="#000000" fill-rule="evenodd"/>
</svg>