<svg xmlns="http://www.w3.org/2000/svg" width="24" height="24" viewBox="0 0 24 24" version="1.1">
	<path d="M 13.403 1.438 C 11.256 1.210, 8.600 1.416, 7.500 1.894 C 6.400 2.373, 4.600 3.764, 3.500 4.987 C 2.078 6.568, 1.500 8.618, 1.500 12.082 C 1.500 16.074, 2.001 17.456, 4.273 19.727 C 6.557 22.011, 7.919 22.500, 12 22.500 C 16.081 22.500, 17.443 22.011, 19.727 19.727 C 22.011 17.443, 22.500 16.081, 22.500 12 C 22.500 7.999, 22 6.546, 19.903 4.448 C 18.256 2.802, 15.876 1.699, 13.403 1.438 M 9.923 3 C 9.331 3, 7.531 4.315, 5.923 5.923 C 4.056 7.790, 3.006 9.868, 3.015 11.673 C 3.024 13.228, 3.452 15.167, 3.968 15.982 C 4.751 17.220, 5.408 16.983, 7.953 14.545 C 10.427 12.175, 11 10.815, 11 7.313 C 11 4.899, 10.526 3, 9.923 3 M 14.077 3 C 13.474 3, 13 4.899, 13 7.313 C 13 10.815, 13.573 12.175, 16.047 14.545 C 18.592 16.983, 19.249 17.220, 20.032 15.982 C 20.548 15.167, 20.976 13.228, 20.985 11.673 C 20.994 9.868, 19.944 7.790, 18.077 5.923 C 16.469 4.315, 14.669 3, 14.077 3 M 10.655 15 C 10.465 15, 9.471 15.927, 8.445 17.061 C 6.848 18.825, 6.790 19.255, 8.040 20.046 C 8.843 20.554, 9.838 20.976, 10.250 20.985 C 10.662 20.993, 11 19.650, 11 18 C 11 16.350, 10.845 15, 10.655 15 M 15.250 16.811 L 13 14.556 13 17.778 C 13 19.550, 13.338 20.993, 13.750 20.985 C 14.162 20.976, 15.175 20.541, 16 20.018 C 17.284 19.203, 17.176 18.741, 15.250 16.811" stroke="none" fill="black" fill-rule="evenodd"/>
</svg>