<svg viewBox="0 0 24 24" xmlns="http://www.w3.org/2000/svg" fill="none" stroke="#000000" stroke-width="2" stroke-linecap="round" stroke-linejoin="round"><path d="M1.650 1.064 C 1.296 1.194,1.000 1.615,1.000 1.988 C 1.000 2.171,4.507 16.694,4.605 16.919 C 4.703 17.142,4.775 17.222,4.994 17.350 C 5.137 17.434,5.695 17.558,8.093 18.038 L 11.018 18.624 11.020 18.962 C 11.021 19.210,11.041 19.337,11.095 19.440 C 11.196 19.632,14.296 22.740,14.520 22.873 C 14.672 22.964,14.746 22.980,15.000 22.980 C 15.254 22.980,15.328 22.964,15.480 22.873 C 15.707 22.737,22.805 15.632,22.905 15.440 C 22.957 15.341,22.979 15.212,22.979 15.000 C 22.980 14.746,22.964 14.673,22.873 14.520 C 22.814 14.421,22.040 13.617,21.153 12.734 C 19.615 11.203,19.530 11.125,19.323 11.064 C 19.074 10.991,18.953 10.985,18.770 11.037 C 18.654 11.070,18.638 11.065,18.619 10.987 C 18.608 10.939,18.340 9.608,18.024 8.029 C 17.386 4.838,17.404 4.897,17.038 4.671 C 16.889 4.579,15.607 4.257,9.559 2.797 C 5.545 1.827,2.161 1.026,2.040 1.017 C 1.902 1.007,1.756 1.025,1.650 1.064 M9.574 4.858 C 12.892 5.659,15.618 6.324,15.630 6.336 C 15.642 6.348,15.936 7.776,16.283 9.509 L 16.915 12.660 14.787 14.787 L 12.660 16.915 9.509 16.283 C 7.776 15.936,6.348 15.642,6.336 15.630 C 6.324 15.618,5.659 12.892,4.858 9.574 C 4.058 6.255,3.392 3.499,3.380 3.449 C 3.361 3.370,3.370 3.361,3.449 3.380 C 3.499 3.392,6.255 4.058,9.574 4.858 M19.800 14.220 L 20.580 15.000 17.790 17.790 L 15.000 20.580 14.210 19.790 L 13.420 19.000 16.200 16.220 C 17.729 14.691,18.989 13.440,19.000 13.440 C 19.012 13.440,19.372 13.791,19.800 14.220 " stroke="none" fill-rule="evenodd" fill="black"></path></svg>