<svg xmlns="http://www.w3.org/2000/svg" width="24" height="24" viewBox="0 0 24 24" version="1.1">
	<path d="M 1.023 2.250 C 1.035 2.938, 1.850 6.650, 2.832 10.500 C 4.379 16.561, 4.946 17.545, 7.059 17.835 C 8.402 18.019, 10.749 19.352, 12.275 20.796 L 15.049 23.421 19.235 19.235 L 23.421 15.049 20.796 12.275 C 19.352 10.749, 18.019 8.402, 17.835 7.059 C 17.545 4.946, 16.561 4.379, 10.500 2.832 C 2.109 0.691, 0.993 0.622, 1.023 2.250 M 4.428 7.470 C 5.639 13.921, 6.701 15.708, 9.676 16.302 C 15.833 17.529, 19.273 8.195, 13.476 5.991 C 12.232 5.518, 9.529 4.815, 7.470 4.428 L 3.726 3.726 4.428 7.470 M 16.004 16.496 C 14.714 17.869, 13.962 19.296, 14.333 19.667 C 15.064 20.397, 20 16.180, 20 14.826 C 20 13.299, 18.365 13.982, 16.004 16.496" stroke="none" fill="#000000" fill-rule="evenodd"/>
</svg>