<svg xmlns="http://www.w3.org/2000/svg" width="24" height="24" viewBox="0 0 24 24" version="1.1">
	<path d="M 2.250 1.023 C 1.563 1.010, 1.010 1.563, 1.023 2.250 C 1.035 2.938, 1.850 6.650, 2.832 10.500 C 4.379 16.561, 4.946 17.545, 7.059 17.835 C 8.402 18.019, 10.749 19.352, 12.275 20.796 L 15.049 23.421 19.235 19.235 L 23.421 15.049 20.796 12.275 C 19.352 10.749, 18.019 8.402, 17.835 7.059 C 17.545 4.946, 16.561 4.379, 10.500 2.832 C 6.650 1.850, 2.938 1.035, 2.250 1.023 M 7.470 4.428 L 3.726 3.726 4.428 7.470 C 4.815 9.529, 5.518 12.232, 5.991 13.476 C 6.506 14.830, 7.985 15.965, 9.676 16.302 C 11.754 16.716, 13.076 16.288, 14.682 14.682 C 16.288 13.076, 16.716 11.754, 16.302 9.676 C 15.965 7.985, 14.830 6.506, 13.476 5.991 C 12.232 5.518, 9.529 4.815, 7.470 4.428 M 19.174 14 C 18.720 14, 17.293 15.123, 16.004 16.496 C 14.714 17.869, 13.962 19.296, 14.333 19.667 C 14.704 20.038, 16.131 19.286, 17.504 17.996 C 18.877 16.707, 20 15.280, 20 14.826 C 20 14.372, 19.628 14, 19.174 14" stroke="none" fill="black" fill-rule="evenodd"/>
</svg>