<svg xmlns="http://www.w3.org/2000/svg" width="24" height="24" viewBox="0 0 24 24" version="1.1">
	<path d="M 2.250 1.023 C 1.563 1.010, 1.010 1.563, 1.023 2.250 C 1.035 2.938, 1.850 6.650, 2.832 10.500 C 4.379 16.561, 4.946 17.545, 7.059 17.835 C 8.402 18.019, 10.749 19.352, 12.275 20.796 L 15.049 23.421 19.235 19.235 L 23.421 15.049 20.796 12.275 C 19.352 10.749, 18.019 8.402, 17.835 7.059 C 17.545 4.946, 16.561 4.379, 10.500 2.832 C 6.650 1.850, 2.938 1.035, 2.250 1.023 M 8.527 4.571 C 5.597 3.860, 5.581 3.879, 7.382 5.869 C 8.387 6.980, 10.174 8.026, 11.354 8.194 C 12.895 8.414, 13.500 9.205, 13.500 11 C 13.500 13, 13 13.500, 11 13.500 C 9.205 13.500, 8.414 12.895, 8.194 11.354 C 8.026 10.174, 6.980 8.387, 5.869 7.382 C 3.879 5.581, 3.860 5.597, 4.571 8.527 C 4.968 10.162, 5.643 12.454, 6.072 13.619 C 6.522 14.844, 8.043 15.976, 9.676 16.302 C 11.754 16.716, 13.076 16.288, 14.682 14.682 C 16.288 13.076, 16.716 11.754, 16.302 9.676 C 15.976 8.043, 14.844 6.522, 13.619 6.072 C 12.454 5.643, 10.162 4.968, 8.527 4.571 M 11 10 C 10.450 10, 10 10.450, 10 11 C 10 11.550, 10.450 12, 11 12 C 11.550 12, 12 11.550, 12 11 C 12 10.450, 11.550 10, 11 10 M 19.174 14 C 18.720 14, 17.293 15.123, 16.004 16.496 C 14.714 17.869, 13.962 19.296, 14.333 19.667 C 14.704 20.038, 16.131 19.286, 17.504 17.996 C 18.877 16.707, 20 15.280, 20 14.826 C 20 14.372, 19.628 14, 19.174 14" stroke="none" fill="black" fill-rule="evenodd"/>
</svg>