<svg xmlns="http://www.w3.org/2000/svg" width="24" height="24" viewBox="0 0 24 24" version="1.1">
	<path d="M 1.023 2.250 C 1.035 2.938, 1.850 6.650, 2.832 10.500 C 4.379 16.561, 4.946 17.545, 7.059 17.835 C 8.402 18.019, 10.749 19.352, 12.275 20.796 L 15.049 23.421 19.235 19.235 L 23.421 15.049 20.796 12.275 C 19.352 10.749, 18.019 8.402, 17.835 7.059 C 17.545 4.946, 16.561 4.379, 10.500 2.832 C 2.109 0.691, 0.993 0.622, 1.023 2.250 M 7.382 5.869 C 8.387 6.980, 10.174 8.026, 11.354 8.194 C 12.895 8.414, 13.500 9.205, 13.500 11 C 13.500 13, 13 13.500, 11 13.500 C 9.205 13.500, 8.414 12.895, 8.194 11.354 C 8.026 10.174, 6.980 8.387, 5.869 7.382 C 3.879 5.581, 3.860 5.597, 4.571 8.527 C 6.005 14.434, 6.863 15.741, 9.676 16.302 C 13.615 17.087, 17.087 13.615, 16.302 9.676 C 15.741 6.863, 14.434 6.005, 8.527 4.571 C 5.597 3.860, 5.581 3.879, 7.382 5.869 M 10 11 C 10 11.550, 10.450 12, 11 12 C 11.550 12, 12 11.550, 12 11 C 12 10.450, 11.550 10, 11 10 C 10.450 10, 10 10.450, 10 11 M 16.004 16.496 C 14.714 17.869, 13.962 19.296, 14.333 19.667 C 15.064 20.397, 20 16.180, 20 14.826 C 20 13.299, 18.365 13.982, 16.004 16.496" stroke="none" fill="#000000" fill-rule="evenodd"/>
</svg>