<svg xmlns="http://www.w3.org/2000/svg" width="24" height="24" viewBox="0 0 24 24" version="1.1">
	<path d="M 7.500 1.894 C 3.457 3.652, 1.500 6.976, 1.500 12.082 C 1.500 16.074, 2.001 17.456, 4.273 19.727 C 6.557 22.011, 7.919 22.500, 12 22.500 C 19.011 22.500, 22.500 19.011, 22.500 12 C 22.500 7.999, 22 6.546, 19.903 4.448 C 17.099 1.644, 10.974 0.383, 7.500 1.894 M 5.923 5.923 C 3.928 7.918, 3 9.848, 3 12 C 3 16.302, 7.698 21, 12 21 C 14.152 21, 16.082 20.072, 18.077 18.077 C 22.007 14.147, 22.007 9.853, 18.077 5.923 C 14.147 1.993, 9.853 1.993, 5.923 5.923 M 7.446 8.087 C 6.416 9.755, 8.733 11.667, 10.113 10.287 C 11.267 9.133, 10.545 7, 9 7 C 8.515 7, 7.816 7.489, 7.446 8.087 M 11.021 11.479 C 8.603 13.943, 6.944 16.277, 7.333 16.667 C 8.066 17.399, 17 9.197, 17 7.792 C 17 6.095, 15.240 7.180, 11.021 11.479 M 13.446 14.087 C 12.416 15.755, 14.733 17.667, 16.113 16.287 C 17.267 15.133, 16.545 13, 15 13 C 14.515 13, 13.816 13.489, 13.446 14.087" stroke="none" fill="black" fill-rule="evenodd"/>
</svg>