<svg xmlns="http://www.w3.org/2000/svg" width="24" height="24" viewBox="0 0 24 24" version="1.1">
	<path d="M 4.046 4.444 C 1.345 7.699, 5.815 11.614, 8.811 8.618 C 10.084 7.344, 10.215 6.563, 9.376 5.231 C 7.916 2.913, 5.601 2.571, 4.046 4.444 M 11.029 11.471 C 6.948 15.580, 3.934 19.268, 4.333 19.667 C 5.067 20.400, 20 6.206, 20 4.775 C 20 2.954, 18.023 4.430, 11.029 11.471 M 5.553 5.915 C 5.231 6.436, 5.394 7.125, 5.915 7.447 C 6.436 7.769, 7.125 7.606, 7.447 7.085 C 7.769 6.564, 7.606 5.875, 7.085 5.553 C 6.564 5.231, 5.875 5.394, 5.553 5.915 M 15.046 15.444 C 12.345 18.699, 16.815 22.614, 19.811 19.618 C 21.084 18.344, 21.215 17.563, 20.376 16.231 C 18.916 13.913, 16.601 13.571, 15.046 15.444 M 16.553 16.915 C 16.231 17.436, 16.394 18.125, 16.915 18.447 C 17.436 18.769, 18.125 18.606, 18.447 18.085 C 18.769 17.564, 18.606 16.875, 18.085 16.553 C 17.564 16.231, 16.875 16.394, 16.553 16.915" stroke="none" fill="#000000" fill-rule="evenodd"/>
</svg>