<svg xmlns="http://www.w3.org/2000/svg" width="24" height="24" viewBox="0 0 24 24" version="1.1">
	<path d="M 6.801 3.207 C 5.984 3.046, 4.745 3.603, 4.046 4.444 C 3.348 5.286, 3.041 6.665, 3.365 7.510 C 3.690 8.354, 4.675 9.322, 5.555 9.659 C 6.438 9.998, 7.897 9.532, 8.811 8.618 C 10.084 7.344, 10.215 6.563, 9.376 5.231 C 8.776 4.279, 7.617 3.368, 6.801 3.207 M 19.225 4 C 18.799 4, 15.111 7.362, 11.029 11.471 C 6.948 15.580, 3.934 19.268, 4.333 19.667 C 4.732 20.066, 8.420 17.052, 12.529 12.971 C 16.638 8.889, 20 5.201, 20 4.775 C 20 4.349, 19.651 4, 19.225 4 M 7.085 5.553 C 6.564 5.231, 5.875 5.394, 5.553 5.915 C 5.231 6.436, 5.394 7.125, 5.915 7.447 C 6.436 7.769, 7.125 7.606, 7.447 7.085 C 7.769 6.564, 7.606 5.875, 7.085 5.553 M 17.801 14.207 C 16.984 14.046, 15.745 14.603, 15.046 15.444 C 14.348 16.286, 14.041 17.665, 14.365 18.510 C 14.690 19.354, 15.675 20.322, 16.555 20.659 C 17.438 20.998, 18.897 20.532, 19.811 19.618 C 21.084 18.344, 21.215 17.563, 20.376 16.231 C 19.776 15.279, 18.617 14.368, 17.801 14.207 M 18.085 16.553 C 17.564 16.231, 16.875 16.394, 16.553 16.915 C 16.231 17.436, 16.394 18.125, 16.915 18.447 C 17.436 18.769, 18.125 18.606, 18.447 18.085 C 18.769 17.564, 18.606 16.875, 18.085 16.553" stroke="none" fill="black" fill-rule="evenodd"/>
</svg>