<svg viewBox="0 0 24 24" xmlns="http://www.w3.org/2000/svg" fill="none" stroke="#000000" stroke-width="2" stroke-linecap="round" stroke-linejoin="round"><path d="M11.280 1.023 C 11.203 1.032,10.951 1.059,10.720 1.083 C 8.832 1.283,6.991 2.023,5.360 3.235 C 4.751 3.688,3.684 4.755,3.226 5.367 C 0.728 8.714,0.301 13.032,2.097 16.780 C 2.643 17.918,3.276 18.801,4.238 19.762 C 5.199 20.724,6.082 21.357,7.220 21.903 C 10.967 23.699,15.288 23.270,18.637 20.770 C 19.246 20.316,20.316 19.246,20.770 18.637 C 23.744 14.652,23.744 9.348,20.770 5.363 C 20.316 4.755,19.247 3.686,18.640 3.235 C 17.045 2.049,15.365 1.360,13.423 1.096 C 13.000 1.038,11.574 0.990,11.280 1.023 M13.320 3.101 C 15.883 3.488,18.124 4.931,19.560 7.120 C 19.863 7.583,20.303 8.479,20.492 9.020 C 20.838 10.013,20.977 10.865,20.977 12.000 C 20.977 13.493,20.720 14.621,20.080 15.940 C 19.375 17.394,18.311 18.607,16.927 19.532 C 16.138 20.060,14.876 20.588,13.908 20.797 C 11.266 21.366,8.479 20.708,6.370 19.019 C 4.857 17.807,3.722 16.029,3.267 14.160 C 3.081 13.397,3.023 12.888,3.023 12.000 C 3.023 10.507,3.280 9.379,3.920 8.060 C 4.971 5.891,6.877 4.221,9.160 3.466 C 9.865 3.233,10.432 3.118,11.340 3.024 C 11.662 2.991,12.911 3.039,13.320 3.101 M8.477 7.073 C 7.806 7.249,7.238 7.823,7.060 8.508 C 6.941 8.962,7.003 9.492,7.225 9.930 C 7.361 10.199,7.801 10.639,8.070 10.775 C 8.659 11.073,9.341 11.073,9.930 10.775 C 10.196 10.640,10.638 10.200,10.771 9.937 C 10.994 9.498,11.052 9.007,10.940 8.529 C 10.858 8.182,10.720 7.927,10.465 7.653 C 10.074 7.232,9.560 7.005,9.000 7.005 C 8.857 7.005,8.622 7.036,8.477 7.073 M15.640 7.068 C 15.484 7.121,14.921 7.668,11.347 11.235 C 8.973 13.605,7.189 15.416,7.127 15.520 C 7.036 15.672,7.020 15.746,7.020 16.000 C 7.020 16.257,7.036 16.327,7.133 16.492 C 7.263 16.714,7.502 16.901,7.736 16.965 C 7.938 17.019,8.266 16.989,8.445 16.899 C 8.630 16.807,16.737 8.708,16.873 8.480 C 16.964 8.328,16.980 8.254,16.980 8.000 C 16.980 7.746,16.963 7.672,16.872 7.516 C 16.617 7.083,16.122 6.903,15.640 7.068 M14.477 13.073 C 13.806 13.249,13.238 13.823,13.060 14.508 C 12.941 14.962,13.003 15.492,13.225 15.930 C 13.361 16.199,13.801 16.639,14.070 16.775 C 14.657 17.073,15.345 17.071,15.937 16.771 C 16.197 16.639,16.639 16.197,16.771 15.937 C 16.994 15.498,17.052 15.007,16.940 14.529 C 16.858 14.182,16.720 13.927,16.465 13.653 C 16.074 13.232,15.560 13.005,15.000 13.005 C 14.857 13.005,14.622 13.036,14.477 13.073 " stroke="none" fill-rule="evenodd" fill="black"></path></svg>