<svg xmlns="http://www.w3.org/2000/svg" width="24" height="24" viewBox="0 0 24 24" version="1.1">
	<path d="M 13.403 1.438 C 11.256 1.210, 8.600 1.416, 7.500 1.894 C 6.400 2.373, 4.600 3.764, 3.500 4.987 C 2.078 6.568, 1.500 8.618, 1.500 12.082 C 1.500 16.074, 2.001 17.456, 4.273 19.727 C 6.557 22.011, 7.919 22.500, 12 22.500 C 16.081 22.500, 17.443 22.011, 19.727 19.727 C 22.011 17.443, 22.500 16.081, 22.500 12 C 22.500 7.999, 22 6.546, 19.903 4.448 C 18.256 2.802, 15.876 1.699, 13.403 1.438 M 12 3 C 9.848 3, 7.918 3.928, 5.923 5.923 C 3.928 7.918, 3 9.848, 3 12 C 3 14.152, 3.928 16.082, 5.923 18.077 C 7.918 20.072, 9.848 21, 12 21 C 14.152 21, 16.082 20.072, 18.077 18.077 C 20.072 16.082, 21 14.152, 21 12 C 21 9.848, 20.072 7.918, 18.077 5.923 C 16.082 3.928, 14.152 3, 12 3 M 9 7 C 8.515 7, 7.816 7.489, 7.446 8.087 C 7.077 8.685, 7.275 9.675, 7.887 10.287 C 8.704 11.104, 9.296 11.104, 10.113 10.287 C 10.725 9.675, 10.923 8.685, 10.554 8.087 C 10.184 7.489, 9.485 7, 9 7 M 16.208 7 C 15.773 7, 13.438 9.016, 11.021 11.479 C 8.603 13.943, 6.944 16.277, 7.333 16.667 C 7.723 17.056, 10.057 15.397, 12.521 12.979 C 14.984 10.562, 17 8.227, 17 7.792 C 17 7.356, 16.644 7, 16.208 7 M 15 13 C 14.515 13, 13.816 13.489, 13.446 14.087 C 13.077 14.685, 13.275 15.675, 13.887 16.287 C 14.704 17.104, 15.296 17.104, 16.113 16.287 C 16.725 15.675, 16.923 14.685, 16.554 14.087 C 16.184 13.489, 15.485 13, 15 13" stroke="none" fill="black" fill-rule="evenodd"/>
</svg>