<svg xmlns="http://www.w3.org/2000/svg" width="24" height="24" viewBox="0 0 24 24" version="1.1">
	<path d="M 12 2 C 10.350 2, 9 2.450, 9 3 C 9 3.550, 9.450 4, 10 4 C 10.550 4, 11 4.450, 11 5 C 11 5.550, 10.132 6, 9.071 6 C 8.011 6, 6.436 6.707, 5.571 7.571 C 4.574 8.569, 4 10.918, 4 14 C 4 17.082, 4.574 19.431, 5.571 20.429 C 6.569 21.426, 8.918 22, 12 22 C 15.082 22, 17.431 21.426, 18.429 20.429 C 19.426 19.431, 20 17.082, 20 14 C 20 10.918, 19.426 8.569, 18.429 7.571 C 17.564 6.707, 15.989 6, 14.929 6 C 13.868 6, 13 5.550, 13 5 C 13 4.450, 13.450 4, 14 4 C 14.550 4, 15 3.550, 15 3 C 15 2.450, 13.650 2, 12 2 M 12 8 C 10.020 8, 7.860 8.540, 7.200 9.200 C 6.540 9.860, 6 12.020, 6 14 C 6 15.980, 6.540 18.140, 7.200 18.800 C 7.860 19.460, 10.020 20, 12 20 C 13.980 20, 16.140 19.460, 16.800 18.800 C 17.460 18.140, 18 15.980, 18 14 C 18 12.020, 17.460 9.860, 16.800 9.200 C 16.140 8.540, 13.980 8, 12 8 M 12 10 C 11.035 10, 9.703 10.653, 9.040 11.452 C 8.377 12.251, 7.985 13.665, 8.167 14.595 C 8.350 15.525, 9.287 16.782, 10.250 17.388 C 11.525 18.190, 12.475 18.190, 13.750 17.388 C 14.713 16.782, 15.650 15.525, 15.833 14.595 C 16.015 13.665, 15.623 12.251, 14.960 11.452 C 14.297 10.653, 12.965 10, 12 10 M 12 12 C 11.515 12, 10.816 12.489, 10.446 13.087 C 10.077 13.685, 10.275 14.675, 10.887 15.287 C 11.704 16.104, 12.296 16.104, 13.113 15.287 C 13.725 14.675, 13.923 13.685, 13.554 13.087 C 13.184 12.489, 12.485 12, 12 12" stroke="none" fill="black" fill-rule="evenodd"/>
</svg>