<svg viewBox="0 0 24 24" xmlns="http://www.w3.org/2000/svg" fill="none" stroke="#000000" stroke-width="2" stroke-linecap="round" stroke-linejoin="round"><path d="M9.695 2.057 C 9.466 2.129,9.256 2.299,9.128 2.516 C 9.037 2.672,9.020 2.746,9.020 3.000 C 9.020 3.256,9.036 3.328,9.131 3.489 C 9.256 3.702,9.449 3.864,9.670 3.943 C 9.768 3.978,10.023 3.997,10.410 3.998 L 11.000 4.000 11.000 5.000 L 11.000 6.000 9.918 6.000 C 8.763 6.000,8.240 6.039,7.760 6.162 C 6.370 6.517,5.158 7.500,4.526 8.785 C 4.333 9.177,4.187 9.599,4.093 10.040 C 4.025 10.355,4.020 10.651,4.020 14.000 C 4.020 17.349,4.025 17.645,4.093 17.960 C 4.526 19.984,6.016 21.474,8.040 21.907 C 8.355 21.975,8.651 21.980,12.000 21.980 C 15.349 21.980,15.645 21.975,15.960 21.907 C 17.488 21.580,18.748 20.630,19.433 19.288 C 19.662 18.839,19.805 18.439,19.907 17.960 C 19.975 17.645,19.980 17.349,19.980 14.000 C 19.980 10.651,19.975 10.355,19.907 10.040 C 19.576 8.491,18.600 7.219,17.213 6.525 C 16.358 6.098,15.774 6.000,14.082 6.000 L 13.000 6.000 13.000 5.000 L 13.000 4.000 13.590 3.998 C 13.977 3.997,14.232 3.978,14.330 3.943 C 14.551 3.864,14.744 3.702,14.869 3.489 C 14.964 3.328,14.980 3.256,14.980 3.000 C 14.980 2.746,14.963 2.672,14.872 2.516 C 14.740 2.293,14.533 2.128,14.290 2.055 C 14.033 1.978,9.943 1.979,9.695 2.057 M15.861 8.122 C 16.835 8.428,17.612 9.217,17.888 10.178 L 17.980 10.500 17.980 14.000 L 17.980 17.500 17.888 17.822 C 17.610 18.792,16.831 19.577,15.840 19.886 L 15.540 19.980 12.000 19.980 L 8.460 19.980 8.160 19.886 C 7.169 19.577,6.390 18.792,6.112 17.822 L 6.020 17.500 6.020 14.000 L 6.020 10.500 6.112 10.178 C 6.426 9.083,7.373 8.235,8.499 8.042 C 8.609 8.023,10.239 8.011,12.120 8.014 L 15.540 8.021 15.861 8.122 M11.358 10.061 C 10.230 10.237,9.143 10.974,8.569 11.953 C 7.320 14.083,8.233 16.785,10.512 17.704 C 12.558 18.528,14.877 17.538,15.704 15.488 C 16.090 14.530,16.090 13.469,15.705 12.516 C 15.172 11.197,14.001 10.269,12.605 10.058 C 12.144 9.989,11.816 9.990,11.358 10.061 M12.523 12.073 C 13.262 12.266,13.850 12.924,13.967 13.690 C 14.067 14.343,13.873 14.933,13.403 15.404 C 13.002 15.807,12.547 16.000,12.000 16.000 C 11.485 16.000,11.038 15.822,10.653 15.465 C 9.323 14.229,10.189 12.005,12.000 12.005 C 12.143 12.005,12.378 12.036,12.523 12.073 " stroke="none" fill-rule="evenodd" fill="black"></path></svg>