<svg xmlns="http://www.w3.org/2000/svg" width="24" height="24" viewBox="0 0 24 24" version="1.1">
	<path d="M 9 3 C 9 3.550, 9.450 4, 10 4 C 10.550 4, 11 4.450, 11 5 C 11 5.550, 10.132 6, 9.071 6 C 5.753 6, 4 8.765, 4 14 C 4 20.311, 5.689 22, 12 22 C 18.311 22, 20 20.311, 20 14 C 20 8.765, 18.247 6, 14.929 6 C 13.868 6, 13 5.550, 13 5 C 13 4.450, 13.450 4, 14 4 C 14.550 4, 15 3.550, 15 3 C 15 2.450, 13.650 2, 12 2 C 10.350 2, 9 2.450, 9 3 M 7.200 9.200 C 5.648 10.752, 5.648 17.248, 7.200 18.800 C 8.752 20.352, 15.248 20.352, 16.800 18.800 C 18.352 17.248, 18.352 10.752, 16.800 9.200 C 15.248 7.648, 8.752 7.648, 7.200 9.200 M 9.040 11.452 C 7.485 13.325, 8.028 15.989, 10.250 17.388 C 13.715 19.570, 17.617 14.653, 14.960 11.452 C 13.416 9.591, 10.584 9.591, 9.040 11.452 M 10.446 13.087 C 9.416 14.755, 11.733 16.667, 13.113 15.287 C 14.267 14.133, 13.545 12, 12 12 C 11.515 12, 10.816 12.489, 10.446 13.087" stroke="none" fill="black" fill-rule="evenodd"/>
</svg>