<svg xmlns="http://www.w3.org/2000/svg" width="24" height="24" viewBox="0 0 24 24" version="1.1">
	<path d="M 16 1 C 16 1.550, 16.984 2, 18.187 2 C 20.286 2, 20.258 2.121, 17.510 4.990 C 13.776 8.887, 15.113 10.224, 19.010 6.490 C 21.879 3.742, 22 3.714, 22 5.813 C 22 7.016, 22.450 8, 23 8 C 23.550 8, 24 6.200, 24 4 L 24 0 20 0 C 17.800 0, 16 0.450, 16 1 M 1.333 2.575 C -0.731 7.953, 7.938 19.703, 15.680 22.022 C 21.306 23.708, 23 22.894, 23 18.507 C 23 15.560, 22.536 14.774, 20.289 13.920 C 18.798 13.353, 16.581 13.139, 15.361 13.445 C 12.444 14.178, 9.822 11.556, 10.555 8.639 C 10.861 7.419, 10.647 5.202, 10.080 3.711 C 9.226 1.464, 8.440 1, 5.493 1 C 3.180 1, 1.726 1.550, 1.333 2.575 M 3 4.032 C 3 6.091, 6.147 12.529, 8.298 14.868 C 10.497 17.261, 17.387 20.937, 19.750 20.978 C 20.438 20.990, 21 19.927, 21 18.617 C 21 15.932, 17.459 14.374, 15.345 16.129 C 12.887 18.168, 5.832 11.113, 7.871 8.655 C 9.626 6.541, 8.068 3, 5.383 3 C 4.073 3, 3 3.464, 3 4.032" stroke="none" fill="black" fill-rule="evenodd"/>
</svg>