<svg xmlns="http://www.w3.org/2000/svg" width="24" height="24" viewBox="0 0 24 24" version="1.1">
	<path d="M 11.033 11.466 C 4.745 17.773, -0.079 23.255, 0.315 23.648 C 0.708 24.041, 2.497 22.941, 4.290 21.204 L 7.550 18.044 12.525 20.564 C 15.261 21.949, 18.625 22.952, 20 22.792 C 22.104 22.546, 22.549 21.905, 22.810 18.748 C 23.084 15.441, 22.793 14.872, 20.350 13.943 C 18.825 13.363, 16.548 13.148, 15.289 13.464 C 11.794 14.341, 12.494 12.931, 18.500 7 C 23.715 1.850, 24.966 0, 23.234 -0 C 22.812 -0, 17.322 5.160, 11.033 11.466 M 1.356 2.514 C 0.715 4.185, 2.233 10.321, 3.942 12.971 C 5.763 15.794, 6.238 13.051, 4.625 9.021 C 2.480 3.659, 2.563 3, 5.383 3 C 8.107 3, 9.617 6.552, 7.816 8.722 C 6.156 10.722, 7.804 11.624, 9.684 9.745 C 10.981 8.448, 11.125 7.423, 10.378 4.804 C 9.555 1.917, 8.967 1.461, 5.710 1.189 C 2.984 0.962, 1.815 1.318, 1.356 2.514 M 10 16.049 C 10 17.131, 17.532 20.939, 19.750 20.978 C 20.438 20.990, 21 19.927, 21 18.617 C 21 15.883, 17.445 14.386, 15.260 16.199 C 14.268 17.023, 13.612 17.012, 12.758 16.158 C 11.316 14.716, 10 14.664, 10 16.049" stroke="none" fill="black" fill-rule="evenodd"/>
</svg>