<svg xmlns="http://www.w3.org/2000/svg" width="24" height="24" viewBox="0 0 24 24" version="1.1">
	<path d="M 23.234 -0 C 22.812 -0, 17.322 5.160, 11.033 11.466 C 4.745 17.773, -0.079 23.255, 0.315 23.648 C 0.708 24.041, 2.497 22.941, 4.290 21.204 L 7.550 18.044 12.525 20.564 C 15.261 21.949, 18.625 22.952, 20 22.792 C 22.104 22.546, 22.549 21.905, 22.810 18.748 C 23.084 15.441, 22.793 14.872, 20.350 13.943 C 18.825 13.363, 16.548 13.148, 15.289 13.464 C 14.030 13.780, 13 13.677, 13 13.235 C 13 12.793, 15.475 9.987, 18.500 7 C 21.525 4.013, 24 1.215, 24 0.784 C 24 0.353, 23.655 -0, 23.234 -0 M 5.710 1.189 C 2.984 0.962, 1.815 1.318, 1.356 2.514 C 1.011 3.414, 1.238 5.804, 1.861 7.825 C 2.484 9.846, 3.420 12.162, 3.942 12.971 C 4.464 13.780, 5.197 14.136, 5.571 13.763 C 5.945 13.389, 5.519 11.255, 4.625 9.021 C 3.731 6.787, 3 4.519, 3 3.980 C 3 3.441, 4.073 3, 5.383 3 C 6.997 3, 7.952 3.710, 8.342 5.198 C 8.658 6.407, 8.421 7.993, 7.816 8.722 C 7.210 9.452, 7.015 10.348, 7.381 10.715 C 7.748 11.081, 8.784 10.645, 9.684 9.745 C 10.981 8.448, 11.125 7.423, 10.378 4.804 C 9.555 1.917, 8.967 1.461, 5.710 1.189 M 10.800 15 C 10.360 15, 10 15.472, 10 16.049 C 10 16.626, 11.912 17.966, 14.250 19.027 C 16.587 20.088, 19.063 20.966, 19.750 20.978 C 20.438 20.990, 21 19.927, 21 18.617 C 21 17.003, 20.290 16.048, 18.802 15.658 C 17.593 15.342, 15.999 15.586, 15.260 16.199 C 14.268 17.023, 13.612 17.012, 12.758 16.158 C 12.121 15.521, 11.240 15, 10.800 15" stroke="none" fill="black" fill-rule="evenodd"/>
</svg>