<svg xmlns="http://www.w3.org/2000/svg" width="24" height="24" viewBox="0 0 24 24" version="1.1">
	<path d="M 23.227 0 C 22.802 0, 21.227 1.227, 19.727 2.727 C 17.057 5.398, 17 5.408, 17 3.227 C 17 2.002, 16.550 1, 16 1 C 15.450 1, 15 2.800, 15 5 L 15 9 19 9 C 21.200 9, 23 8.550, 23 8 C 23 7.450, 22.016 7, 20.813 7 C 18.682 7, 18.695 6.928, 21.313 4.195 C 22.791 2.653, 24 1.078, 24 0.695 C 24 0.313, 23.652 0, 23.227 0 M 5.493 1 C 3.180 1, 1.726 1.550, 1.333 2.575 C 1 3.441, 1.291 6.027, 1.978 8.320 C 2.700 10.731, 4.974 14.237, 7.368 16.632 C 9.763 19.026, 13.269 21.300, 15.680 22.022 C 17.973 22.709, 20.559 23, 21.425 22.667 C 22.450 22.274, 23 20.820, 23 18.507 C 23 15.560, 22.536 14.774, 20.289 13.920 C 18.798 13.353, 16.581 13.139, 15.361 13.445 C 14.034 13.779, 12.513 13.371, 11.571 12.429 C 10.629 11.487, 10.221 9.966, 10.555 8.639 C 10.861 7.419, 10.647 5.202, 10.080 3.711 C 9.226 1.464, 8.440 1, 5.493 1 M 5.383 3 C 4.073 3, 3 3.464, 3 4.032 C 3 4.600, 3.696 6.731, 4.548 8.768 C 5.399 10.806, 7.086 13.551, 8.298 14.868 C 9.509 16.186, 12.300 18.095, 14.500 19.110 C 16.700 20.125, 19.063 20.966, 19.750 20.978 C 20.438 20.990, 21 19.927, 21 18.617 C 21 17.003, 20.290 16.048, 18.802 15.658 C 17.593 15.342, 16.037 15.554, 15.345 16.129 C 14.451 16.871, 13.468 16.740, 11.951 15.678 C 10.777 14.856, 9.144 13.223, 8.322 12.049 C 7.260 10.532, 7.129 9.549, 7.871 8.655 C 8.446 7.963, 8.658 6.407, 8.342 5.198 C 7.952 3.710, 6.997 3, 5.383 3" stroke="none" fill="black" fill-rule="evenodd"/>
</svg>