<svg xmlns="http://www.w3.org/2000/svg" width="24" height="24" viewBox="0 0 24 24" version="1.1">
	<path d="M 5.655 4.829 C 2.372 8.456, 4.895 14, 9.829 14 C 11.644 14, 12 14.575, 12 17.500 C 12 19.425, 12.450 21, 13 21 C 13.583 21, 14 17.667, 14 13 C 14 8.333, 14.417 5, 15 5 C 15.583 5, 16 8.333, 16 13 C 16 17.667, 16.417 21, 17 21 C 17.583 21, 18 17.667, 18 13 C 18 8.333, 18.417 5, 19 5 C 19.550 5, 20 4.550, 20 4 C 20 3.438, 17.218 3, 13.655 3 C 8.778 3, 6.927 3.423, 5.655 4.829 M 6.930 6.584 C 5.259 8.597, 6.805 11.366, 9.852 11.820 C 11.708 12.096, 12 11.654, 12 8.570 C 12 5.744, 11.609 5, 10.122 5 C 9.090 5, 7.653 5.713, 6.930 6.584" stroke="none" fill="#000000" fill-rule="evenodd"/>
</svg>