<svg xmlns="http://www.w3.org/2000/svg" width="24" height="24" viewBox="0 0 24 24" version="1.1">
	<path d="M 7.828 7.828 C 0.522 15.133, -0.387 17.613, 3 21 C 6.387 24.387, 8.867 23.478, 16.172 16.172 C 23.478 8.867, 24.387 6.387, 21 3 C 17.613 -0.387, 15.133 0.522, 7.828 7.828 M 12.683 5.809 L 9.992 8.618 12.805 11.313 L 15.618 14.008 18.309 11.199 C 21.231 8.149, 21.673 6.073, 19.800 4.200 C 17.875 2.275, 15.569 2.797, 12.683 5.809 M 5.691 12.801 C 2.769 15.851, 2.327 17.927, 4.200 19.800 C 6.125 21.725, 8.431 21.203, 11.317 18.191 L 14.008 15.382 11.195 12.687 L 8.382 9.992 5.691 12.801" stroke="none" fill="#000000" fill-rule="evenodd"/>
</svg>