<svg xmlns="http://www.w3.org/2000/svg" width="24" height="24" viewBox="0 0 24 24" version="1.1">
	<path d="M 16.828 1 C 15.476 1, 12.074 3.581, 7.828 7.828 C 3.581 12.074, 1 15.476, 1 16.828 C 1 18.022, 1.900 19.900, 3 21 C 4.100 22.100, 5.978 23, 7.172 23 C 8.524 23, 11.926 20.419, 16.172 16.172 C 20.419 11.926, 23 8.524, 23 7.172 C 23 5.978, 22.100 4.100, 21 3 C 19.900 1.900, 18.022 1, 16.828 1 M 16.987 3 C 16.100 3, 14.163 4.264, 12.683 5.809 L 9.992 8.618 12.805 11.313 L 15.618 14.008 18.309 11.199 C 19.789 9.655, 21 7.718, 21 6.895 C 21 6.073, 20.460 4.860, 19.800 4.200 C 19.140 3.540, 17.874 3, 16.987 3 M 11.195 12.687 L 8.382 9.992 5.691 12.801 C 4.211 14.345, 3 16.282, 3 17.105 C 3 17.927, 3.540 19.140, 4.200 19.800 C 4.860 20.460, 6.126 21, 7.013 21 C 7.900 21, 9.837 19.736, 11.317 18.191 L 14.008 15.382 11.195 12.687" stroke="none" fill="black" fill-rule="evenodd"/>
</svg>