<svg viewBox="0 0 24 24" xmlns="http://www.w3.org/2000/svg" fill="none" stroke="#000000" stroke-width="2" stroke-linecap="round" stroke-linejoin="round"><path d="M13.051 1.621 C 12.936 1.679,12.791 1.792,12.728 1.873 C 12.666 1.954,11.951 3.147,11.140 4.525 L 9.664 7.031 9.459 7.077 C 9.016 7.176,8.443 7.641,8.219 8.083 C 8.008 8.499,7.943 9.042,8.053 9.468 L 8.106 9.673 4.578 15.656 C 2.638 18.948,1.039 21.696,1.025 21.765 C 0.921 22.287,1.207 22.790,1.697 22.944 L 1.923 23.016 12.050 22.003 C 18.000 21.408,22.243 20.967,22.336 20.934 C 22.879 20.743,23.134 20.160,22.912 19.618 C 22.769 19.267,14.399 2.050,14.301 1.906 C 14.256 1.838,14.131 1.728,14.023 1.662 C 13.863 1.563,13.776 1.539,13.544 1.528 C 13.301 1.517,13.230 1.530,13.051 1.621 M16.954 11.902 C 18.887 15.883,20.458 19.144,20.445 19.149 C 20.412 19.161,16.429 19.560,16.340 19.560 C 16.292 19.560,16.333 19.493,16.478 19.334 C 16.933 18.837,17.097 18.195,16.940 17.529 C 16.858 17.182,16.720 16.927,16.465 16.653 C 15.659 15.786,14.341 15.786,13.535 16.653 C 12.822 17.421,12.815 18.561,13.519 19.332 C 13.631 19.454,13.806 19.610,13.908 19.677 C 14.010 19.745,14.072 19.800,14.045 19.800 C 14.018 19.800,11.743 20.026,8.989 20.301 C 6.235 20.577,3.959 20.797,3.931 20.791 C 3.902 20.785,5.072 18.762,6.759 15.900 L 9.638 11.020 10.049 10.995 C 10.683 10.956,11.077 10.773,11.481 10.332 C 11.718 10.072,11.849 9.830,11.937 9.491 C 12.079 8.942,11.958 8.295,11.624 7.820 C 11.572 7.747,11.608 7.671,12.054 6.920 C 12.321 6.469,12.735 5.769,12.973 5.366 C 13.211 4.963,13.413 4.640,13.422 4.649 C 13.431 4.657,15.020 7.921,16.954 11.902 M11.477 12.073 C 10.806 12.249,10.238 12.823,10.060 13.508 C 9.941 13.962,10.003 14.492,10.225 14.930 C 10.361 15.199,10.801 15.639,11.070 15.775 C 11.659 16.073,12.341 16.073,12.930 15.775 C 13.196 15.640,13.638 15.200,13.771 14.937 C 13.994 14.498,14.052 14.007,13.940 13.529 C 13.858 13.182,13.720 12.927,13.465 12.653 C 13.074 12.232,12.560 12.005,12.000 12.005 C 11.857 12.005,11.622 12.036,11.477 12.073 " stroke="none" fill-rule="evenodd" fill="black"></path></svg>