<svg xmlns="http://www.w3.org/2000/svg" width="24" height="24" viewBox="0 0 24 24" version="1.1">
	<path d="M 13.676 1 C 13.450 1, 12.081 2.790, 10.633 4.979 C 9.185 7.167, 8 9.160, 8 9.407 C 8 9.654, 6.364 12.603, 4.365 15.960 C 2.365 19.316, 0.985 22.318, 1.297 22.631 C 1.610 22.943, 6.478 22.697, 12.115 22.084 C 17.752 21.471, 22.573 20.760, 22.828 20.505 C 23.083 20.250, 21.221 15.757, 18.689 10.521 C 16.157 5.284, 13.902 1, 13.676 1 M 16.664 11.204 C 14.883 7.741, 13.104 5.229, 12.712 5.621 C 12.321 6.013, 12 7.136, 12 8.117 C 12 9.098, 11.397 10.260, 10.660 10.700 C 9.923 11.140, 8.032 13.721, 6.457 16.435 C 4.124 20.455, 3.924 21.243, 5.378 20.685 C 6.360 20.308, 8.688 20, 10.550 20 C 13.041 20, 13.795 19.630, 13.400 18.601 C 13.105 17.832, 13.413 16.863, 14.084 16.448 C 14.786 16.014, 15.816 16.396, 16.512 17.347 C 17.177 18.256, 18.233 19, 18.860 19 C 19.487 19, 19.978 18.663, 19.951 18.250 C 19.925 17.837, 18.445 14.667, 16.664 11.204 M 12 12 C 11.515 12, 10.816 12.489, 10.446 13.087 C 10.077 13.685, 10.275 14.675, 10.887 15.287 C 11.704 16.104, 12.296 16.104, 13.113 15.287 C 13.725 14.675, 13.923 13.685, 13.554 13.087 C 13.184 12.489, 12.485 12, 12 12" stroke="none" fill="black" fill-rule="evenodd"/>
</svg>