<svg xmlns="http://www.w3.org/2000/svg" width="24" height="24" viewBox="0 0 24 24" version="1.1">
	<path d="M 10.633 4.979 C 9.185 7.167, 8 9.160, 8 9.407 C 8 9.654, 6.364 12.603, 4.365 15.960 C 2.365 19.316, 0.985 22.318, 1.297 22.631 C 1.917 23.250, 22.073 21.260, 22.828 20.505 C 23.314 20.020, 14.389 1, 13.676 1 C 13.450 1, 12.081 2.790, 10.633 4.979 M 12.712 5.621 C 12.321 6.013, 12 7.136, 12 8.117 C 12 9.098, 11.397 10.260, 10.660 10.700 C 9.923 11.140, 8.032 13.721, 6.457 16.435 C 4.124 20.455, 3.924 21.243, 5.378 20.685 C 6.360 20.308, 8.688 20, 10.550 20 C 13.041 20, 13.795 19.630, 13.400 18.601 C 12.582 16.468, 15.121 15.445, 16.512 17.347 C 17.736 19.022, 20.041 19.626, 19.951 18.250 C 19.826 16.310, 13.340 4.994, 12.712 5.621 M 10.446 13.087 C 9.416 14.755, 11.733 16.667, 13.113 15.287 C 14.267 14.133, 13.545 12, 12 12 C 11.515 12, 10.816 12.489, 10.446 13.087" stroke="none" fill="black" fill-rule="evenodd"/>
</svg>