<svg xmlns="http://www.w3.org/2000/svg" width="24" height="24" viewBox="0 0 24 24" version="1.1">
	<path d="M 8.880 7 C 7.088 10.187, 6.060 11, 3.816 11 C 1.667 11, 1 11.474, 1 13 C 1 14.526, 1.667 15, 3.816 15 C 6.060 15, 7.088 15.813, 8.880 19 C 10.728 22.289, 11.665 23, 14.152 23 C 17.126 23, 17.165 22.934, 16.500 19 C 15.901 15.452, 16.048 15, 17.805 15 C 18.895 15, 20.045 15.675, 20.362 16.500 C 20.678 17.325, 21.574 18, 22.353 18 C 23.386 18, 23.769 16.646, 23.769 13 C 23.769 9.354, 23.386 8, 22.353 8 C 21.574 8, 20.678 8.675, 20.362 9.500 C 20.045 10.325, 18.895 11, 17.805 11 C 16.048 11, 15.901 10.548, 16.500 7 C 17.165 3.066, 17.126 3, 14.152 3 C 11.665 3, 10.728 3.711, 8.880 7 M 10.120 9 L 7.872 13 10.120 17 C 11.357 19.200, 12.629 21, 12.947 21 C 13.266 21, 13.526 17.400, 13.526 13 C 13.526 8.600, 13.266 5, 12.947 5 C 12.629 5, 11.357 6.800, 10.120 9" stroke="none" fill="#000000" fill-rule="evenodd"/>
</svg>