<svg xmlns="http://www.w3.org/2000/svg" width="24" height="24" viewBox="0 0 24 24" version="1.1">
	<path d="M 7.500 1.894 C 3.457 3.652, 1.500 6.976, 1.500 12.082 C 1.500 16.074, 2.001 17.456, 4.273 19.727 C 6.557 22.011, 7.919 22.500, 12 22.500 C 19.011 22.500, 22.500 19.011, 22.500 12 C 22.500 7.999, 22 6.546, 19.903 4.448 C 17.099 1.644, 10.974 0.383, 7.500 1.894 M 7 5.059 C 7 5.641, 7.450 5.840, 8 5.500 C 8.550 5.160, 9 4.684, 9 4.441 C 9 4.198, 8.550 4, 8 4 C 7.450 4, 7 4.477, 7 5.059 M 10.485 6.048 C 9.768 8.308, 11.473 11, 13.622 11 C 15.279 11, 15.273 11.082, 13.902 7.149 C 12.635 3.515, 11.414 3.122, 10.485 6.048 M 16.261 7.500 C 16.978 9.836, 17.945 11, 19.168 11 C 21.543 11, 21.482 9.882, 18.927 6.635 C 16.061 2.991, 14.985 3.341, 16.261 7.500 M 3.623 8.540 C 2.722 10.888, 2.788 11, 5.073 11 C 6.471 11, 7.041 10.457, 6.823 9.333 C 6.381 7.050, 4.385 6.555, 3.623 8.540 M 3 13.865 C 3 15.096, 6.980 20, 7.979 20 C 8.438 20, 8.329 18.425, 7.739 16.500 C 7.022 14.164, 6.055 13, 4.832 13 C 3.824 13, 3 13.389, 3 13.865 M 9 13.351 C 9 14.812, 11.364 20, 12.030 20 C 13.520 20, 14.199 15.945, 12.960 14.452 C 11.910 13.186, 9 12.377, 9 13.351 M 17 14.441 C 17 16.529, 19.075 17.492, 20.096 15.878 C 21.452 13.738, 21.171 13, 19 13 C 17.900 13, 17 13.648, 17 14.441 M 15.500 19 C 15.160 19.550, 15.359 20, 15.941 20 C 16.523 20, 17 19.550, 17 19 C 17 18.450, 16.802 18, 16.559 18 C 16.316 18, 15.840 18.450, 15.500 19" stroke="none" fill="black" fill-rule="evenodd"/>
</svg>