<svg xmlns="http://www.w3.org/2000/svg" width="24" height="24" viewBox="0 0 24 24" version="1.1">
	<path d="M 13.403 1.438 C 11.256 1.210, 8.600 1.416, 7.500 1.894 C 6.400 2.373, 4.600 3.764, 3.500 4.987 C 2.078 6.568, 1.500 8.618, 1.500 12.082 C 1.500 16.074, 2.001 17.456, 4.273 19.727 C 6.557 22.011, 7.919 22.500, 12 22.500 C 16.081 22.500, 17.443 22.011, 19.727 19.727 C 22.011 17.443, 22.500 16.081, 22.500 12 C 22.500 7.999, 22 6.546, 19.903 4.448 C 18.256 2.802, 15.876 1.699, 13.403 1.438 M 8 4 C 7.450 4, 7 4.477, 7 5.059 C 7 5.641, 7.450 5.840, 8 5.500 C 8.550 5.160, 9 4.684, 9 4.441 C 9 4.198, 8.550 4, 8 4 M 11.970 4 C 11.510 4, 10.842 4.922, 10.485 6.048 C 10.127 7.174, 10.377 8.749, 11.040 9.548 C 11.703 10.347, 12.865 11, 13.622 11 C 14.380 11, 15 10.842, 15 10.649 C 15 10.456, 14.506 8.881, 13.902 7.149 C 13.298 5.417, 12.429 4, 11.970 4 M 16.021 4 C 15.562 4, 15.671 5.575, 16.261 7.500 C 16.978 9.836, 17.945 11, 19.168 11 C 20.176 11, 21 10.611, 21 10.135 C 21 9.659, 20.067 8.084, 18.927 6.635 C 17.788 5.186, 16.480 4, 16.021 4 M 5.373 7.291 C 4.753 7.084, 3.966 7.646, 3.623 8.540 C 3.280 9.433, 3 10.352, 3 10.582 C 3 10.812, 3.933 11, 5.073 11 C 6.471 11, 7.041 10.457, 6.823 9.333 C 6.645 8.416, 5.993 7.497, 5.373 7.291 M 4.832 13 C 3.824 13, 3 13.389, 3 13.865 C 3 14.341, 3.933 15.916, 5.073 17.365 C 6.212 18.814, 7.520 20, 7.979 20 C 8.438 20, 8.329 18.425, 7.739 16.500 C 7.022 14.164, 6.055 13, 4.832 13 M 10.378 13 C 9.620 13, 9 13.158, 9 13.351 C 9 13.544, 9.494 15.119, 10.098 16.851 C 10.702 18.583, 11.571 20, 12.030 20 C 12.490 20, 13.158 19.078, 13.515 17.952 C 13.873 16.826, 13.623 15.251, 12.960 14.452 C 12.297 13.653, 11.135 13, 10.378 13 M 19 13 C 17.900 13, 17 13.648, 17 14.441 C 17 15.234, 17.500 16.191, 18.112 16.569 C 18.723 16.947, 19.616 16.636, 20.096 15.878 C 20.577 15.120, 20.976 14.162, 20.985 13.750 C 20.993 13.338, 20.100 13, 19 13 M 16.559 18 C 16.316 18, 15.840 18.450, 15.500 19 C 15.160 19.550, 15.359 20, 15.941 20 C 16.523 20, 17 19.550, 17 19 C 17 18.450, 16.802 18, 16.559 18" stroke="none" fill="black" fill-rule="evenodd"/>
</svg>