<svg xmlns="http://www.w3.org/2000/svg" width="24" height="24" viewBox="0 0 24 24" version="1.1">
	<path d="M 9 1 C 8.450 1, 8 2.350, 8 4 C 8 6.333, 7.556 7, 6 7 C 4.230 7, 4.002 7.662, 4.015 12.750 C 4.024 15.912, 4.393 19.071, 4.836 19.768 C 5.278 20.466, 7.071 21.447, 8.820 21.948 C 10.735 22.498, 13.265 22.498, 15.180 21.948 C 16.929 21.447, 18.722 20.466, 19.164 19.768 C 19.607 19.071, 19.976 15.912, 19.985 12.750 C 19.998 7.662, 19.770 7, 18 7 C 16.444 7, 16 6.333, 16 4 C 16 2.350, 15.550 1, 15 1 C 14.450 1, 14 2.350, 14 4 C 14 6.333, 13.556 7, 12 7 C 10.444 7, 10 6.333, 10 4 C 10 2.350, 9.550 1, 9 1 M 12 9 L 6 9 6 13.300 C 6 15.665, 6.540 18.140, 7.200 18.800 C 7.860 19.460, 8.985 20, 9.700 20 C 10.415 20, 11 19.100, 11 18 C 11 16.900, 11.450 16, 12 16 C 12.550 16, 13 16.900, 13 18 C 13 19.100, 13.585 20, 14.300 20 C 15.015 20, 16.140 19.460, 16.800 18.800 C 17.460 18.140, 18 15.665, 18 13.300 L 18 9 12 9" stroke="none" fill="black" fill-rule="evenodd"/>
</svg>