<svg xmlns="http://www.w3.org/2000/svg" width="24" height="24" viewBox="0 0 24 24" version="1.1">
	<path d="M 9 1 C 8.450 1, 8 2.350, 8 4 C 8 6, 7.500 7, 6.500 7 C 5.421 7, 5 8.103, 5 10.929 C 5 13.167, 5.676 15.533, 6.571 16.429 C 7.436 17.293, 8.786 18, 9.571 18 C 10.429 18, 11 19, 11 20.500 C 11 21.875, 11.450 23, 12 23 C 12.550 23, 13 21.875, 13 20.500 C 13 19, 13.571 18, 14.429 18 C 15.214 18, 16.564 17.293, 17.429 16.429 C 18.324 15.533, 19 13.167, 19 10.929 C 19 8.103, 18.579 7, 17.500 7 C 16.500 7, 16 6, 16 4 C 16 2.350, 15.550 1, 15 1 C 14.450 1, 14 2.350, 14 4 C 14 6.333, 13.556 7, 12 7 C 10.444 7, 10 6.333, 10 4 C 10 2.350, 9.550 1, 9 1 M 12 9 C 7.449 9, 7 9.207, 7 11.300 C 7 12.565, 7.540 14.140, 8.200 14.800 C 8.860 15.460, 10.570 16, 12 16 C 13.430 16, 15.140 15.460, 15.800 14.800 C 16.460 14.140, 17 12.565, 17 11.300 C 17 9.207, 16.551 9, 12 9" stroke="none" fill="black" fill-rule="evenodd"/>
</svg>