<svg viewBox="0 0 24 24" xmlns="http://www.w3.org/2000/svg" fill="none" stroke="#000000" stroke-width="2" stroke-linecap="round" stroke-linejoin="round"><path d="M8.695 1.057 C 8.466 1.129,8.256 1.299,8.128 1.516 L 8.020 1.700 8.009 4.350 L 7.998 7.000 6.445 7.000 C 4.758 7.000,4.658 7.011,4.382 7.221 C 4.302 7.282,4.187 7.415,4.128 7.516 L 4.020 7.700 4.020 12.660 C 4.020 17.305,4.025 17.642,4.093 17.960 C 4.523 19.968,5.981 21.439,8.000 21.903 C 8.242 21.958,8.562 21.975,9.646 21.989 L 10.992 22.006 11.018 22.182 C 11.054 22.423,11.259 22.713,11.497 22.859 C 11.671 22.966,11.729 22.980,12.000 22.980 C 12.271 22.980,12.329 22.966,12.503 22.859 C 12.741 22.713,12.946 22.423,12.982 22.182 L 13.008 22.006 14.354 21.989 C 15.438 21.975,15.758 21.958,16.000 21.903 C 17.524 21.553,18.756 20.614,19.433 19.288 C 19.662 18.839,19.805 18.439,19.907 17.960 C 19.975 17.642,19.980 17.305,19.980 12.660 L 19.980 7.700 19.872 7.516 C 19.813 7.415,19.698 7.282,19.618 7.221 C 19.342 7.011,19.242 7.000,17.555 7.000 L 16.002 7.000 15.991 4.350 L 15.980 1.700 15.871 1.514 C 15.479 0.848,14.521 0.848,14.129 1.514 L 14.020 1.700 14.009 4.350 L 13.998 7.000 12.000 7.000 L 10.002 7.000 9.991 4.350 L 9.980 1.700 9.872 1.516 C 9.628 1.101,9.150 0.915,8.695 1.057 M17.991 13.270 L 17.980 17.540 17.879 17.861 C 17.575 18.822,16.833 19.566,15.860 19.884 C 15.597 19.969,15.502 19.976,14.292 19.991 L 13.003 20.007 12.992 18.353 L 12.980 16.700 12.871 16.514 C 12.479 15.848,11.521 15.848,11.129 16.514 L 11.020 16.700 11.008 18.353 L 10.997 20.007 9.708 19.991 C 8.498 19.976,8.403 19.969,8.140 19.884 C 7.167 19.566,6.425 18.822,6.121 17.861 L 6.020 17.540 6.009 13.270 L 5.998 9.000 12.000 9.000 L 18.002 9.000 17.991 13.270 " stroke="none" fill-rule="evenodd" fill="black"></path></svg>