<svg xmlns="http://www.w3.org/2000/svg" width="24" height="24" viewBox="0 0 24 24" version="1.1">
	<path d="M 12 4 C 11.450 4, 11 5.575, 11 7.500 C 11 10.833, 10.833 11, 7.500 11 C 5.575 11, 4 11.450, 4 12 C 4 12.550, 5.575 13, 7.500 13 C 10.833 13, 11 13.167, 11 16.500 C 11 18.425, 11.450 20, 12 20 C 12.550 20, 13 18.425, 13 16.500 C 13 13.167, 13.167 13, 16.500 13 C 18.425 13, 20 12.550, 20 12 C 20 11.450, 18.425 11, 16.500 11 C 13.167 11, 13 10.833, 13 7.500 C 13 5.575, 12.550 4, 12 4" stroke="none" fill="black" fill-rule="evenodd"/>
</svg>