<svg xmlns="http://www.w3.org/2000/svg" width="24" height="24" viewBox="0 0 24 24" version="1.1">
	<path d="M 18.750 3.190 C 15.073 2.885, 15 2.947, 15 6.372 C 15 8.952, 14.492 10.026, 13.058 10.482 C 11.989 10.821, 9.073 10.992, 6.577 10.863 C 4.081 10.734, 1.730 10.937, 1.353 11.314 C 0.975 11.691, 0.892 12.225, 1.168 12.501 C 1.443 12.776, 4.167 13.059, 7.221 13.130 C 10.275 13.200, 13.275 12.948, 13.887 12.570 C 14.499 12.192, 15 12.328, 15 12.874 C 15 13.419, 14.126 14.143, 13.058 14.482 C 11.989 14.821, 9.073 14.992, 6.577 14.863 C 4.081 14.734, 1.730 14.937, 1.353 15.314 C 0.975 15.691, 0.892 16.225, 1.168 16.501 C 1.443 16.776, 4.167 17.059, 7.221 17.130 C 10.275 17.200, 13.275 16.948, 13.887 16.570 C 14.523 16.177, 15 16.551, 15 17.441 C 15 18.705, 13.673 19, 8 19 C 4 19, 1 19.429, 1 20 C 1 20.606, 5.346 21, 12.039 21 L 23.078 21 22.789 12.250 L 22.500 3.500 18.750 3.190 M 19 5 C 17.533 5, 17 5.667, 17 7.500 C 17 9.333, 17.533 10, 19 10 C 20.467 10, 21 9.333, 21 7.500 C 21 5.667, 20.467 5, 19 5 M 18.441 12 C 17.648 12, 17 12.450, 17 13 C 17 13.550, 17.927 14, 19.059 14 C 20.191 14, 20.840 13.550, 20.500 13 C 20.160 12.450, 19.234 12, 18.441 12 M 18.667 16.177 C 17.680 15.985, 17 16.495, 17 17.427 C 17 18.354, 17.855 19, 19.083 19 C 20.305 19, 20.995 18.483, 20.750 17.750 C 20.522 17.063, 19.584 16.355, 18.667 16.177" stroke="none" fill="black" fill-rule="evenodd"/>
</svg>