<svg viewBox="0 0 24 24" xmlns="http://www.w3.org/2000/svg" fill="none" stroke="#000000" stroke-width="2" stroke-linecap="round" stroke-linejoin="round"><path d="M15.580 3.094 C 15.339 3.209,15.192 3.359,15.083 3.600 C 15.003 3.776,15.002 3.847,15.001 6.945 L 15.000 10.110 14.750 10.158 C 14.151 10.274,13.061 10.581,12.060 10.916 C 10.727 11.362,10.446 11.417,9.520 11.414 C 8.719 11.411,8.340 11.355,6.660 10.986 C 4.972 10.615,4.157 10.518,3.404 10.597 C 2.513 10.690,1.604 10.994,1.296 11.302 C 1.119 11.479,1.000 11.760,1.000 12.000 C 1.000 12.531,1.473 13.000,2.007 13.000 C 2.091 13.000,2.345 12.929,2.571 12.843 C 3.107 12.640,3.394 12.588,3.980 12.588 C 4.535 12.589,4.988 12.661,6.451 12.984 C 8.035 13.334,8.604 13.414,9.500 13.416 C 10.670 13.418,11.215 13.315,12.680 12.819 C 13.485 12.546,14.813 12.160,14.948 12.160 C 14.989 12.160,15.000 12.365,15.000 13.135 L 15.000 14.110 14.750 14.158 C 14.151 14.274,13.061 14.581,12.060 14.916 C 10.727 15.362,10.446 15.417,9.520 15.414 C 8.719 15.411,8.340 15.355,6.660 14.986 C 4.972 14.615,4.157 14.518,3.404 14.597 C 2.513 14.690,1.604 14.994,1.296 15.302 C 1.119 15.479,1.000 15.760,1.000 16.000 C 1.000 16.531,1.473 17.000,2.007 17.000 C 2.091 17.000,2.345 16.929,2.571 16.843 C 3.107 16.640,3.394 16.588,3.980 16.588 C 4.535 16.589,4.988 16.661,6.451 16.984 C 8.035 17.334,8.604 17.414,9.500 17.416 C 10.670 17.418,11.215 17.315,12.680 16.819 C 13.485 16.546,14.813 16.160,14.948 16.160 C 14.990 16.160,15.000 16.447,15.000 17.580 L 15.000 19.000 8.446 19.000 C 3.009 19.000,1.862 19.009,1.710 19.055 C 1.467 19.128,1.260 19.293,1.128 19.516 C 1.037 19.672,1.020 19.746,1.020 20.000 C 1.020 20.256,1.036 20.328,1.131 20.489 C 1.256 20.702,1.449 20.864,1.670 20.943 C 1.794 20.987,3.603 20.997,12.020 20.998 L 22.220 20.999 22.420 20.906 C 22.657 20.796,22.845 20.595,22.936 20.354 C 22.997 20.194,23.001 19.580,22.991 12.800 L 22.980 5.420 22.886 5.140 C 22.556 4.157,21.818 3.422,20.861 3.122 L 20.540 3.022 18.160 3.010 L 15.780 2.999 15.580 3.094 M20.310 5.061 C 20.452 5.103,20.571 5.178,20.697 5.303 C 21.005 5.611,21.000 5.568,21.000 8.187 C 21.000 9.448,20.991 10.480,20.980 10.480 C 20.968 10.480,20.757 10.419,20.510 10.344 C 19.585 10.064,18.369 9.880,17.441 9.880 L 17.000 9.880 17.000 7.440 L 17.000 5.000 18.553 5.000 C 19.826 5.000,20.142 5.011,20.310 5.061 M18.700 11.980 C 19.379 12.084,20.253 12.327,20.850 12.578 L 21.000 12.641 21.000 13.561 C 21.000 14.066,20.991 14.480,20.980 14.480 C 20.968 14.480,20.757 14.419,20.510 14.344 C 19.585 14.064,18.369 13.880,17.441 13.880 L 17.000 13.880 17.000 12.874 L 17.000 11.868 17.650 11.893 C 18.008 11.907,18.480 11.946,18.700 11.980 M18.700 15.980 C 19.379 16.084,20.253 16.327,20.850 16.578 L 21.000 16.641 21.000 17.821 L 21.000 19.000 19.000 19.000 L 17.000 19.000 17.000 17.434 L 17.000 15.868 17.650 15.893 C 18.008 15.907,18.480 15.946,18.700 15.980 " stroke="none" fill-rule="evenodd" fill="black"></path></svg>