<svg xmlns="http://www.w3.org/2000/svg" width="24" height="24" viewBox="0 0 24 24" version="1.1">
	<path d="M 9.267 2.202 C 7.240 4.689, 4.971 11.335, 5.539 13.123 C 5.854 14.114, 5.604 15.872, 4.984 17.029 C 4.099 18.684, 4.199 19.655, 5.452 21.567 C 6.786 23.602, 7.856 24, 12 24 C 16.144 24, 17.214 23.602, 18.548 21.567 C 19.781 19.685, 19.894 18.670, 19.047 17.088 C 18.444 15.962, 18.179 14.019, 18.458 12.771 C 19.178 9.540, 15.015 1.574, 12.412 1.202 C 11.264 1.038, 9.849 1.488, 9.267 2.202 M 10.396 4.750 C 10.098 5.713, 9.395 7.348, 8.835 8.384 C 8.088 9.765, 8.174 10.499, 9.158 11.134 C 10.275 11.855, 10.268 12.150, 9.115 12.893 C 6.719 14.436, 11.461 16.359, 14.135 14.928 C 15.845 14.012, 15.995 13.607, 14.885 12.893 C 13.732 12.150, 13.725 11.855, 14.842 11.134 C 15.826 10.499, 15.912 9.765, 15.165 8.384 C 14.605 7.348, 13.902 5.713, 13.604 4.750 C 13.306 3.788, 12.585 3, 12 3 C 11.415 3, 10.694 3.788, 10.396 4.750 M 7.318 17.613 C 6.290 20.293, 8.404 22.500, 12 22.500 C 15.596 22.500, 17.710 20.293, 16.682 17.613 C 16.145 16.214, 15.729 16.152, 14.023 17.218 C 12.393 18.235, 11.607 18.235, 9.977 17.218 C 8.271 16.152, 7.855 16.214, 7.318 17.613" stroke="none" fill="#000000" fill-rule="evenodd"/>
</svg>