<svg xmlns="http://www.w3.org/2000/svg" width="24" height="24" viewBox="0 0 24 24" version="1.1">
	<path d="M 12.412 1.202 C 11.264 1.038, 9.849 1.488, 9.267 2.202 C 8.685 2.916, 7.480 5.260, 6.588 7.411 C 5.697 9.562, 5.225 12.133, 5.539 13.123 C 5.854 14.114, 5.604 15.872, 4.984 17.029 C 4.099 18.684, 4.199 19.655, 5.452 21.567 C 6.786 23.602, 7.856 24, 12 24 C 16.144 24, 17.214 23.602, 18.548 21.567 C 19.781 19.685, 19.894 18.670, 19.047 17.088 C 18.444 15.962, 18.179 14.019, 18.458 12.771 C 18.742 11.494, 17.986 8.529, 16.732 6 C 15.310 3.134, 13.742 1.392, 12.412 1.202 M 12 3 C 11.415 3, 10.694 3.788, 10.396 4.750 C 10.098 5.713, 9.395 7.348, 8.835 8.384 C 8.088 9.765, 8.174 10.499, 9.158 11.134 C 10.275 11.855, 10.268 12.150, 9.115 12.893 C 8.005 13.607, 8.155 14.012, 9.865 14.928 C 11.466 15.785, 12.534 15.785, 14.135 14.928 C 15.845 14.012, 15.995 13.607, 14.885 12.893 C 13.732 12.150, 13.725 11.855, 14.842 11.134 C 15.826 10.499, 15.912 9.765, 15.165 8.384 C 14.605 7.348, 13.902 5.713, 13.604 4.750 C 13.306 3.788, 12.585 3, 12 3 M 9.977 17.218 C 8.271 16.152, 7.855 16.214, 7.318 17.613 C 6.968 18.525, 7.140 19.998, 7.700 20.886 C 8.300 21.837, 10.067 22.500, 12 22.500 C 13.933 22.500, 15.700 21.837, 16.300 20.886 C 16.860 19.998, 17.032 18.525, 16.682 17.613 C 16.145 16.214, 15.729 16.152, 14.023 17.218 C 12.393 18.235, 11.607 18.235, 9.977 17.218" stroke="none" fill="black" fill-rule="evenodd"/>
</svg>