<svg xmlns="http://www.w3.org/2000/svg" width="24" height="24" viewBox="0 0 24 24" version="1.1">
	<path d="M 12.412 1.202 C 11.264 1.038, 9.828 1.502, 9.220 2.235 C 8.613 2.967, 7.570 4.901, 6.904 6.533 C 6.238 8.165, 5.583 11.075, 5.450 13 C 5.316 14.925, 4.900 17.445, 4.526 18.601 C 4.085 19.962, 4.426 21.283, 5.494 22.351 C 6.573 23.430, 8.821 24, 12 24 C 15.179 24, 17.427 23.430, 18.506 22.351 C 19.574 21.283, 19.915 19.962, 19.474 18.601 C 19.100 17.445, 18.712 14.925, 18.612 13 C 18.512 11.075, 17.547 7.700, 16.466 5.500 C 15.254 3.035, 13.699 1.386, 12.412 1.202 M 12 3 C 11.415 3, 10.686 3.788, 10.378 4.750 C 10.070 5.713, 9.352 7.478, 8.782 8.673 C 8.211 9.868, 8.029 11.978, 8.376 13.362 C 8.723 14.745, 8.556 16.157, 8.004 16.498 C 7.452 16.839, 7 18.001, 7 19.080 C 7 20.203, 8.070 21.530, 9.500 22.182 C 11.370 23.034, 12.630 23.034, 14.500 22.182 C 15.930 21.530, 17 20.203, 17 19.080 C 17 18.001, 16.548 16.839, 15.996 16.498 C 15.444 16.157, 15.277 14.745, 15.624 13.362 C 15.971 11.978, 15.789 9.868, 15.218 8.673 C 14.648 7.478, 13.930 5.713, 13.622 4.750 C 13.314 3.788, 12.585 3, 12 3" stroke="none" fill="black" fill-rule="evenodd"/>
</svg>