<svg xmlns="http://www.w3.org/2000/svg" width="24" height="24" viewBox="0 0 24 24" version="1.1">
	<path d="M 9.220 2.235 C 7.407 4.420, 5.709 9.268, 5.450 13 C 5.316 14.925, 4.900 17.445, 4.526 18.601 C 3.452 21.915, 6.338 24, 12 24 C 17.662 24, 20.548 21.915, 19.474 18.601 C 19.100 17.445, 18.712 14.925, 18.612 13 C 18.206 5.150, 12.361 -1.550, 9.220 2.235 M 10.378 4.750 C 10.070 5.713, 9.352 7.478, 8.782 8.673 C 8.211 9.868, 8.029 11.978, 8.376 13.362 C 8.723 14.745, 8.556 16.157, 8.004 16.498 C 6.097 17.676, 6.980 21.034, 9.500 22.182 C 11.370 23.034, 12.630 23.034, 14.500 22.182 C 17.020 21.034, 17.903 17.676, 15.996 16.498 C 15.444 16.157, 15.277 14.745, 15.624 13.362 C 15.971 11.978, 15.789 9.868, 15.218 8.673 C 14.648 7.478, 13.930 5.713, 13.622 4.750 C 13.314 3.788, 12.585 3, 12 3 C 11.415 3, 10.686 3.788, 10.378 4.750" stroke="none" fill="#000000" fill-rule="evenodd"/>
</svg>