<svg xmlns="http://www.w3.org/2000/svg" width="24" height="24" viewBox="0 0 24 24" version="1.1">
	<path d="M 12 3 C 10.979 3, 9.436 3.707, 8.571 4.571 C 7.574 5.569, 7 7.918, 7 11 C 7 14.082, 7.574 16.431, 8.571 17.429 C 9.436 18.293, 10.979 19, 12 19 C 13.021 19, 14.564 18.293, 15.429 17.429 C 16.426 16.431, 17 14.082, 17 11 C 17 7.918, 16.426 5.569, 15.429 4.571 C 14.564 3.707, 13.021 3, 12 3 M 12 5 C 11.585 5, 10.695 5.662, 10.023 6.472 C 9.046 7.649, 9.122 8.265, 10.401 9.544 C 11.866 11.009, 12.134 11.009, 13.599 9.544 C 14.878 8.265, 14.954 7.649, 13.977 6.472 C 13.305 5.662, 12.415 5, 12 5 M 9.917 11 C 9.412 11, 9 11.845, 9 12.878 C 9 13.910, 9.675 15.315, 10.500 16 C 11.697 16.993, 12.303 16.993, 13.500 16 C 14.325 15.315, 15 13.910, 15 12.878 C 15 11.845, 14.588 11, 14.083 11 C 13.579 11, 12.904 11.563, 12.583 12.250 C 12.117 13.250, 11.883 13.250, 11.417 12.250 C 11.096 11.563, 10.421 11, 9.917 11" stroke="none" fill="black" fill-rule="evenodd"/>
</svg>