<svg xmlns="http://www.w3.org/2000/svg" width="24" height="24" viewBox="0 0 24 24" version="1.1">
	<path d="M 8.571 4.571 C 6.454 6.689, 6.454 15.311, 8.571 17.429 C 12.587 21.445, 17 18.079, 17 11 C 17 5.802, 15.249 3, 12 3 C 10.979 3, 9.436 3.707, 8.571 4.571 M 10.023 6.472 C 9.046 7.649, 9.122 8.265, 10.401 9.544 C 11.866 11.009, 12.134 11.009, 13.599 9.544 C 14.878 8.265, 14.954 7.649, 13.977 6.472 C 13.305 5.662, 12.415 5, 12 5 C 11.585 5, 10.695 5.662, 10.023 6.472 M 9 12.878 C 9 15.737, 11.623 17.558, 13.500 16 C 15.136 14.643, 15.561 11, 14.083 11 C 13.579 11, 12.904 11.563, 12.583 12.250 C 12.117 13.250, 11.883 13.250, 11.417 12.250 C 10.533 10.356, 9 10.754, 9 12.878" stroke="none" fill="#000000" fill-rule="evenodd"/>
</svg>