<svg viewBox="0 0 24 24" xmlns="http://www.w3.org/2000/svg" fill="none" stroke="#000000" stroke-width="2" stroke-linecap="round" stroke-linejoin="round"><path d="M9.695 2.057 C 9.466 2.129,9.256 2.299,9.128 2.516 C 9.037 2.672,9.020 2.746,9.020 3.000 C 9.020 3.256,9.036 3.328,9.131 3.489 C 9.256 3.702,9.449 3.864,9.670 3.943 C 9.768 3.978,10.023 3.997,10.410 3.998 L 11.000 4.000 11.000 4.999 L 11.000 5.997 8.870 6.009 C 6.874 6.019,6.730 6.025,6.580 6.096 C 6.474 6.146,5.698 6.893,4.275 8.316 C 2.295 10.294,2.124 10.476,2.064 10.664 C 2.004 10.849,1.999 11.268,2.009 15.224 L 2.020 19.580 2.114 19.860 C 2.446 20.851,3.184 21.582,4.160 21.886 L 4.460 21.980 12.000 21.980 L 19.540 21.980 19.840 21.886 C 20.816 21.582,21.554 20.851,21.886 19.860 L 21.980 19.580 21.991 15.224 C 22.001 11.268,21.996 10.849,21.936 10.664 C 21.876 10.476,21.705 10.294,19.725 8.316 C 18.302 6.893,17.526 6.146,17.420 6.096 C 17.270 6.025,17.126 6.019,15.130 6.009 L 13.000 5.997 13.000 4.999 L 13.000 4.000 13.590 3.998 C 13.977 3.997,14.232 3.978,14.330 3.943 C 14.551 3.864,14.744 3.702,14.869 3.489 C 14.964 3.328,14.980 3.256,14.980 3.000 C 14.980 2.746,14.963 2.672,14.872 2.516 C 14.740 2.293,14.533 2.128,14.290 2.055 C 14.033 1.978,9.943 1.979,9.695 2.057 M18.290 9.710 L 20.000 11.420 20.000 15.263 C 20.000 19.435,20.006 19.320,19.779 19.618 C 19.718 19.698,19.585 19.813,19.484 19.872 L 19.300 19.980 12.000 19.980 L 4.700 19.980 4.516 19.872 C 4.415 19.813,4.284 19.700,4.225 19.623 C 3.991 19.316,4.000 19.491,4.000 15.285 L 4.000 11.420 5.710 9.710 L 7.420 8.000 12.000 8.000 L 16.580 8.000 18.290 9.710 M11.499 13.040 C 10.363 13.246,9.460 14.049,9.114 15.160 C 8.979 15.594,8.979 16.406,9.114 16.840 C 9.421 17.826,10.174 18.579,11.160 18.886 C 11.594 19.021,12.406 19.021,12.840 18.886 C 13.826 18.579,14.579 17.826,14.886 16.840 C 15.021 16.406,15.021 15.594,14.886 15.160 C 14.581 14.179,13.810 13.407,12.861 13.129 C 12.500 13.023,11.832 12.980,11.499 13.040 M12.334 15.064 C 12.698 15.188,13.000 15.613,13.000 16.001 C 13.000 16.331,12.784 16.696,12.484 16.872 C 12.328 16.963,12.254 16.980,12.000 16.980 C 11.746 16.980,11.672 16.963,11.516 16.872 C 10.935 16.530,10.833 15.774,11.304 15.303 C 11.584 15.022,11.957 14.936,12.334 15.064 " stroke="none" fill-rule="evenodd" fill="black"></path></svg>