<svg xmlns="http://www.w3.org/2000/svg" width="24" height="24" viewBox="0 0 24 24" version="1.1">
	<path d="M 12 2 C 10.350 2, 9 2.450, 9 3 C 9 3.550, 9.450 4, 10 4 C 10.550 4, 11 4.450, 11 5 C 11 5.550, 9.953 6, 8.674 6 C 7.395 6, 5.345 7.069, 4.118 8.375 C 2.274 10.337, 1.940 11.683, 2.193 16.125 L 2.500 21.500 12 21.500 L 21.500 21.500 21.807 16.125 C 22.060 11.683, 21.726 10.337, 19.882 8.375 C 18.655 7.069, 16.605 6, 15.326 6 C 14.047 6, 13 5.550, 13 5 C 13 4.450, 13.450 4, 14 4 C 14.550 4, 15 3.550, 15 3 C 15 2.450, 13.650 2, 12 2 M 11.826 8 C 8.721 8, 6.793 8.571, 5.655 9.829 C 4.672 10.915, 4 13.351, 4 15.829 L 4 20 12 20 L 20 20 20 15.655 C 20 12.716, 19.408 10.775, 18.171 9.655 C 17.038 8.629, 14.625 8, 11.826 8 M 12.246 13.180 C 10.893 12.988, 9.750 13.488, 9.389 14.430 C 9.057 15.293, 9.057 16.707, 9.389 17.570 C 9.750 18.512, 10.893 19.012, 12.246 18.820 C 13.898 18.585, 14.500 17.833, 14.500 16 C 14.500 14.167, 13.898 13.415, 12.246 13.180 M 12 15 C 11.450 15, 11 15.450, 11 16 C 11 16.550, 11.450 17, 12 17 C 12.550 17, 13 16.550, 13 16 C 13 15.450, 12.550 15, 12 15" stroke="none" fill="black" fill-rule="evenodd"/>
</svg>