<svg viewBox="0 0 24 24" xmlns="http://www.w3.org/2000/svg" fill="none" stroke="#000000" stroke-width="2" stroke-linecap="round" stroke-linejoin="round"><path d="M9.560 0.044 C 6.529 0.433,3.940 2.564,2.980 5.459 C 2.882 5.753,2.749 6.040,2.574 6.330 C 1.015 8.918,0.588 12.111,1.417 14.990 C 1.960 16.876,2.839 18.364,4.238 19.762 C 5.199 20.724,6.082 21.357,7.220 21.903 C 10.967 23.699,15.288 23.270,18.637 20.770 C 19.246 20.316,20.316 19.246,20.770 18.637 C 23.744 14.652,23.744 9.348,20.770 5.363 C 20.315 4.752,19.246 3.685,18.640 3.236 C 17.642 2.496,16.712 1.995,15.649 1.625 C 15.411 1.542,15.128 1.405,14.937 1.280 C 14.010 0.672,12.773 0.216,11.620 0.057 C 11.184 -0.002,9.981 -0.011,9.560 0.044 M13.300 3.099 C 13.885 3.188,14.242 3.275,14.385 3.363 C 14.455 3.406,14.681 3.618,14.889 3.835 C 15.969 4.960,16.560 6.421,16.560 7.965 C 16.560 8.717,16.434 9.390,16.140 10.212 C 15.985 10.646,15.970 10.817,16.063 11.091 C 16.196 11.482,16.685 11.792,17.091 11.746 C 17.353 11.715,17.664 11.538,17.799 11.342 C 18.007 11.038,18.321 10.082,18.465 9.312 C 18.550 8.856,18.583 7.587,18.522 7.092 C 18.471 6.673,18.305 5.881,18.217 5.632 C 18.188 5.548,18.178 5.480,18.196 5.480 C 18.238 5.480,18.794 6.092,19.087 6.460 C 19.828 7.389,20.445 8.658,20.733 9.840 C 20.919 10.603,20.977 11.112,20.977 12.000 C 20.977 13.493,20.720 14.621,20.080 15.940 C 19.205 17.746,17.798 19.160,15.980 20.061 C 13.447 21.317,10.485 21.310,7.980 20.042 C 7.044 19.569,6.380 19.093,5.665 18.382 C 4.933 17.655,4.367 16.863,3.920 15.940 C 3.486 15.047,3.245 14.269,3.094 13.280 C 3.018 12.781,2.993 11.385,3.054 11.023 L 3.087 10.826 3.217 11.123 C 3.777 12.402,4.640 13.517,5.687 14.312 C 6.034 14.575,6.039 14.582,6.123 14.859 C 6.408 15.805,7.157 16.557,8.140 16.886 L 8.420 16.979 11.770 16.991 C 13.990 16.999,15.172 16.989,15.274 16.962 C 15.498 16.901,15.739 16.711,15.867 16.492 C 15.964 16.327,15.980 16.257,15.980 16.000 C 15.980 15.746,15.963 15.672,15.872 15.516 C 15.761 15.328,15.572 15.158,15.373 15.070 C 15.287 15.032,14.482 15.015,11.977 15.000 L 8.694 14.980 8.502 14.860 C 8.241 14.697,8.090 14.475,8.037 14.180 C 7.912 13.468,7.858 13.382,7.305 13.004 C 6.316 12.327,5.745 11.689,5.233 10.687 C 4.730 9.701,4.504 8.564,4.602 7.507 C 4.663 6.840,4.689 6.748,4.884 6.494 C 5.715 5.417,6.812 4.527,8.060 3.918 C 9.091 3.415,10.026 3.160,11.340 3.024 C 11.657 2.991,12.909 3.039,13.300 3.099 M8.695 10.057 C 8.466 10.129,8.256 10.299,8.128 10.516 C 8.037 10.672,8.020 10.746,8.020 11.000 C 8.020 11.256,8.036 11.328,8.131 11.489 C 8.256 11.702,8.449 11.864,8.670 11.943 C 8.890 12.021,14.110 12.021,14.330 11.943 C 14.551 11.864,14.744 11.702,14.869 11.489 C 14.964 11.328,14.980 11.256,14.980 11.000 C 14.980 10.746,14.963 10.672,14.872 10.516 C 14.740 10.293,14.533 10.128,14.290 10.055 C 14.031 9.977,8.944 9.979,8.695 10.057 " stroke="none" fill-rule="evenodd" fill="black"></path></svg>