<svg xmlns="http://www.w3.org/2000/svg" width="24" height="24" viewBox="0 0 24 24" version="1.1">
	<path d="M 5.707 2.016 C 0.340 6.238, -0.233 15.553, 4.596 20.090 C 8.340 23.607, 15.943 23.512, 19.552 19.903 C 22.628 16.826, 23.693 10.664, 21.775 7.030 C 20.021 3.707, 14.332 -0, 10.987 -0 C 9.492 -0, 7.117 0.907, 5.707 2.016 M 8 4.290 C 2.460 7.083, 5.576 14.913, 12.250 14.969 C 14.313 14.986, 16 15.450, 16 16 C 16 16.550, 14.104 17, 11.788 17 C 8.425 17, 7.103 16.445, 5.238 14.250 L 2.901 11.500 3.569 14 C 6.569 25.232, 22.969 21.061, 20.422 9.714 L 19.700 6.500 18.767 9.250 C 17.491 13.008, 16 12.711, 16 8.700 C 16 3.319, 13.099 1.719, 8 4.290 M 8 11 C 8 11.550, 9.575 12, 11.500 12 C 13.425 12, 15 11.550, 15 11 C 15 10.450, 13.425 10, 11.500 10 C 9.575 10, 8 10.450, 8 11" stroke="none" fill="black" fill-rule="evenodd"/>
</svg>