<svg xmlns="http://www.w3.org/2000/svg" width="24" height="24" viewBox="0 0 24 24" version="1.1">
	<path d="M 10.987 -0 C 9.492 -0, 7.117 0.907, 5.707 2.016 C 4.298 3.124, 2.618 5.629, 1.973 7.581 C 1.329 9.533, 1.078 12.604, 1.416 14.405 C 1.754 16.206, 3.185 18.765, 4.596 20.090 C 6.586 21.959, 8.260 22.500, 12.058 22.500 C 15.997 22.500, 17.463 21.992, 19.552 19.903 C 21.161 18.293, 22.326 15.820, 22.614 13.403 C 22.875 11.208, 22.508 8.419, 21.775 7.030 C 21.058 5.672, 18.948 3.534, 17.088 2.280 C 15.227 1.026, 12.481 -0, 10.987 -0 M 12.050 3.015 C 11.197 3.023, 9.375 3.597, 8 4.290 C 6.625 4.983, 5.358 6.540, 5.184 7.749 C 5.010 8.959, 5.685 11.071, 6.684 12.443 C 8.052 14.321, 9.426 14.945, 12.250 14.969 C 14.313 14.986, 16 15.450, 16 16 C 16 16.550, 14.104 17, 11.788 17 C 8.425 17, 7.103 16.445, 5.238 14.250 L 2.901 11.500 3.569 14 C 3.936 15.375, 4.905 17.262, 5.722 18.193 C 6.539 19.125, 8.495 20.169, 10.068 20.515 C 11.704 20.874, 14.117 20.574, 15.705 19.813 C 17.232 19.081, 19.081 17.232, 19.813 15.705 C 20.655 13.948, 20.878 11.749, 20.422 9.714 L 19.700 6.500 18.767 9.250 C 18.253 10.762, 17.421 12, 16.917 12 C 16.413 12, 16 10.515, 16 8.700 C 16 6.885, 15.460 4.860, 14.800 4.200 C 14.140 3.540, 12.903 3.007, 12.050 3.015 M 11.500 10 C 9.575 10, 8 10.450, 8 11 C 8 11.550, 9.575 12, 11.500 12 C 13.425 12, 15 11.550, 15 11 C 15 10.450, 13.425 10, 11.500 10" stroke="none" fill="black" fill-rule="evenodd"/>
</svg>