<svg xmlns="http://www.w3.org/2000/svg" width="24" height="24" viewBox="0 0 24 24" version="1.1">
	<path d="M 11 7 C 11 10.333, 11.444 13, 12 13 C 12.556 13, 13 10.333, 13 7 C 13 3.667, 12.556 1, 12 1 C 11.444 1, 11 3.667, 11 7 M 3.161 8.547 C 0.047 15.382, 4.757 23, 12.097 23 C 17.115 23, 22 18.067, 22 13 C 22 10.125, 19.852 6, 18.356 6 C 17.319 6, 17.386 6.741, 18.667 9.428 C 20.033 12.292, 20.099 13.348, 19.065 15.843 C 16.444 22.170, 7.556 22.170, 4.935 15.843 C 3.901 13.348, 3.967 12.292, 5.333 9.428 C 6.614 6.741, 6.681 6, 5.644 6 C 4.917 6, 3.799 7.146, 3.161 8.547" stroke="none" fill="black" fill-rule="evenodd"/>
</svg>