<svg viewBox="0 0 24 24" xmlns="http://www.w3.org/2000/svg" fill="none" stroke="#000000" stroke-width="2" stroke-linecap="round" stroke-linejoin="round"><path d="M7.477 2.073 C 6.806 2.249,6.238 2.823,6.060 3.508 C 6.012 3.693,6.000 4.051,6.000 5.364 L 6.000 6.991 5.230 7.010 C 4.567 7.027,4.416 7.043,4.139 7.126 C 3.181 7.415,2.420 8.179,2.114 9.160 L 2.020 9.460 2.020 13.000 L 2.020 16.540 2.114 16.840 C 2.419 17.816,3.153 18.557,4.140 18.885 C 4.418 18.977,4.438 18.978,6.710 18.991 L 9.000 19.004 9.000 20.134 C 9.000 21.357,9.021 21.528,9.225 21.930 C 9.361 22.199,9.801 22.639,10.070 22.775 C 10.479 22.982,10.632 23.000,12.000 23.000 C 13.368 23.000,13.521 22.982,13.930 22.775 C 14.196 22.640,14.638 22.200,14.771 21.937 C 14.976 21.534,15.000 21.342,15.000 20.126 L 15.000 19.004 17.290 18.991 C 19.562 18.978,19.582 18.977,19.860 18.885 C 20.847 18.557,21.581 17.816,21.886 16.840 L 21.980 16.540 21.980 13.000 L 21.980 9.460 21.886 9.160 C 21.580 8.179,20.819 7.415,19.861 7.126 C 19.584 7.043,19.433 7.027,18.770 7.010 L 18.000 6.991 17.999 5.385 C 17.999 3.653,17.982 3.479,17.781 3.083 C 17.646 2.816,17.297 2.449,17.017 2.281 C 16.539 1.993,16.751 2.005,12.000 2.005 C 8.102 2.005,7.718 2.010,7.477 2.073 M16.000 5.500 L 16.000 7.000 12.000 7.000 L 8.000 7.000 8.000 5.500 L 8.000 4.000 12.000 4.000 L 16.000 4.000 16.000 5.500 M19.310 9.061 C 19.452 9.103,19.571 9.178,19.697 9.303 C 20.001 9.607,20.001 9.604,19.997 11.857 C 19.995 12.954,19.979 13.772,19.960 13.711 C 19.869 13.407,19.606 13.150,19.290 13.055 C 19.018 12.973,4.982 12.973,4.710 13.055 C 4.394 13.150,4.131 13.407,4.040 13.711 C 4.021 13.772,4.005 12.954,4.003 11.857 C 3.999 9.603,3.999 9.607,4.304 9.303 C 4.421 9.185,4.552 9.100,4.673 9.063 C 4.964 8.974,19.009 8.971,19.310 9.061 M4.217 14.619 C 4.275 14.696,4.408 14.808,4.511 14.869 L 4.700 14.980 12.000 14.980 L 19.300 14.980 19.489 14.869 C 19.702 14.744,19.864 14.551,19.943 14.330 C 19.990 14.197,19.997 14.289,19.998 15.144 C 20.000 16.197,19.976 16.359,19.779 16.618 C 19.718 16.698,19.585 16.813,19.484 16.872 L 19.300 16.980 12.000 16.980 L 4.700 16.980 4.516 16.872 C 4.415 16.813,4.284 16.700,4.225 16.623 C 4.018 16.351,4.000 16.234,4.002 15.165 C 4.003 14.293,4.010 14.197,4.057 14.330 C 4.087 14.413,4.158 14.543,4.217 14.619 M13.000 20.000 L 13.000 21.000 12.000 21.000 L 11.000 21.000 11.000 20.000 L 11.000 19.000 12.000 19.000 L 13.000 19.000 13.000 20.000 " stroke="none" fill-rule="evenodd" fill="black"></path></svg>