<svg xmlns="http://www.w3.org/2000/svg" width="24" height="24" viewBox="0 0 24 24" version="1.1">
	<path d="M 5 4.383 C 5 6.926, 4.503 7.897, 3 8.290 C 1.359 8.719, 1 9.654, 1 13.500 C 1 17.346, 1.359 18.281, 3 18.710 C 4.107 19, 5 20.074, 5 21.117 C 5 22.782, 5.811 23, 12 23 C 18.189 23, 19 22.782, 19 21.117 C 19 20.074, 19.893 19, 21 18.710 C 22.641 18.281, 23 17.346, 23 13.500 C 23 9.654, 22.641 8.719, 21 8.290 C 19.497 7.897, 19 6.926, 19 4.383 L 19 1 12 1 L 5 1 5 4.383 M 7 5.500 C 7 7.833, 7.333 8, 12 8 C 16.667 8, 17 7.833, 17 5.500 C 17 3.167, 16.667 3, 12 3 C 7.333 3, 7 3.167, 7 5.500 M 3 13.500 C 3 15.425, 3.450 17, 4 17 C 4.550 17, 5 16.100, 5 15 C 5 13.190, 5.667 13, 12 13 C 18.333 13, 19 13.190, 19 15 C 19 16.100, 19.450 17, 20 17 C 20.550 17, 21 15.425, 21 13.500 L 21 10 12 10 L 3 10 3 13.500 M 7 18 C 7 20.933, 7.111 21, 12 21 C 16.889 21, 17 20.933, 17 18 C 17 15.067, 16.889 15, 12 15 C 7.111 15, 7 15.067, 7 18" stroke="none" fill="black" fill-rule="evenodd"/>
</svg>