<svg xmlns="http://www.w3.org/2000/svg" width="24" height="24" viewBox="0 0 24 24" version="1.1">
	<path d="M 12.462 2.205 C 9.690 2.043, 7.103 2.230, 6.712 2.622 C 6.320 3.013, 6 4.106, 6 5.050 C 6 5.994, 5.075 7.009, 3.945 7.304 C 2.144 7.775, 1.928 8.500, 2.195 13.171 C 2.491 18.341, 2.594 18.509, 5.648 18.806 C 7.767 19.012, 8.962 19.747, 9.304 21.056 C 9.612 22.234, 10.675 23, 12 23 C 13.325 23, 14.388 22.234, 14.696 21.056 C 15.038 19.747, 16.233 19.012, 18.352 18.806 C 21.406 18.509, 21.509 18.341, 21.805 13.171 C 22.070 8.545, 21.846 7.773, 20.111 7.319 C 19.012 7.031, 17.975 5.829, 17.806 4.648 C 17.546 2.823, 16.742 2.456, 12.462 2.205 M 12 4 C 9.111 4, 8 4.417, 8 5.500 C 8 6.583, 9.111 7, 12 7 C 14.889 7, 16 6.583, 16 5.500 C 16 4.417, 14.889 4, 12 4 M 12 9 C 4.667 9, 4 9.167, 4 11 C 4 12.833, 4.667 13, 12 13 C 19.333 13, 20 12.833, 20 11 C 20 9.167, 19.333 9, 12 9 M 12 15 C 7.333 15, 4 15.417, 4 16 C 4 16.583, 7.333 17, 12 17 C 16.667 17, 20 16.583, 20 16 C 20 15.417, 16.667 15, 12 15 M 12 19 C 11.450 19, 11 19.450, 11 20 C 11 20.550, 11.450 21, 12 21 C 12.550 21, 13 20.550, 13 20 C 13 19.450, 12.550 19, 12 19" stroke="none" fill="black" fill-rule="evenodd"/>
</svg>