<svg xmlns="http://www.w3.org/2000/svg" width="24" height="24" viewBox="0 0 24 24" version="1.1">
	<path d="M 12 1 C 11.450 1, 11 1.401, 11 1.892 C 11 2.382, 9.861 3.069, 8.469 3.418 C 7.077 3.768, 5.054 5.504, 3.973 7.277 C 2.892 9.050, 2.006 11.535, 2.004 12.800 C 2.002 14.064, 2.641 16.339, 3.425 17.855 C 4.209 19.371, 6.030 21.148, 7.472 21.805 C 8.914 22.462, 10.952 23, 12 23 C 13.048 23, 15.086 22.462, 16.528 21.805 C 17.970 21.148, 19.791 19.371, 20.575 17.855 C 21.359 16.339, 21.998 14.064, 21.996 12.800 C 21.994 11.535, 21.108 9.050, 20.027 7.277 C 18.946 5.504, 16.923 3.768, 15.531 3.418 C 14.139 3.069, 13 2.382, 13 1.892 C 13 1.401, 12.550 1, 12 1 M 11.703 5.068 C 11.041 5.105, 9.520 5.609, 8.321 6.189 C 7.123 6.768, 5.606 8.538, 4.950 10.121 C 4.024 12.356, 4.027 13.652, 4.964 15.914 C 5.631 17.524, 7.476 19.369, 9.086 20.036 C 11.362 20.978, 12.638 20.978, 14.914 20.036 C 16.524 19.369, 18.369 17.524, 19.036 15.914 C 19.971 13.655, 19.975 12.354, 19.054 10.130 C 18.400 8.551, 16.749 6.751, 15.385 6.130 C 14.022 5.508, 12.365 5.030, 11.703 5.068 M 12 13.455 C 9.708 13.455, 8.131 13.894, 8.326 14.477 C 8.513 15.040, 10.167 15.500, 12 15.500 C 13.833 15.500, 15.487 15.040, 15.674 14.477 C 15.869 13.894, 14.292 13.455, 12 13.455" stroke="none" fill="black" fill-rule="evenodd"/>
</svg>