<svg viewBox="0 0 24 24" xmlns="http://www.w3.org/2000/svg" fill="none" stroke="#000000" stroke-width="2" stroke-linecap="round" stroke-linejoin="round"><path d="M11.695 1.057 C 11.466 1.129,11.256 1.299,11.128 1.516 C 11.024 1.693,11.019 1.726,11.007 2.368 L 10.993 3.036 10.807 3.060 C 7.464 3.488,4.559 5.535,3.061 8.518 C 2.024 10.583,1.734 13.029,2.260 15.260 C 2.697 17.112,3.581 18.701,4.919 20.042 C 5.217 20.340,5.613 20.703,5.800 20.847 C 7.242 21.961,8.787 22.624,10.600 22.907 C 11.247 23.008,12.753 23.008,13.400 22.907 C 15.638 22.557,17.504 21.620,19.062 20.062 C 20.620 18.504,21.557 16.638,21.907 14.400 C 21.961 14.054,21.978 13.707,21.978 13.000 C 21.978 11.999,21.931 11.547,21.741 10.740 C 20.908 7.209,18.302 4.450,14.805 3.398 C 14.448 3.290,13.593 3.111,13.193 3.060 L 13.007 3.036 12.993 2.368 C 12.981 1.726,12.976 1.693,12.872 1.516 C 12.628 1.101,12.150 0.915,11.695 1.057 M13.187 5.102 C 15.101 5.389,16.910 6.409,18.154 7.900 C 20.154 10.297,20.559 13.685,19.183 16.499 C 18.749 17.387,18.223 18.105,17.496 18.801 C 16.876 19.394,16.262 19.819,15.471 20.200 C 12.741 21.519,9.526 21.183,7.100 19.325 C 6.747 19.055,6.190 18.510,5.847 18.100 C 3.848 15.711,3.440 12.302,4.816 9.500 C 5.397 8.317,6.150 7.412,7.226 6.605 C 8.470 5.670,9.843 5.165,11.520 5.024 C 11.827 4.998,12.798 5.044,13.187 5.102 M8.673 13.056 C 8.262 13.203,8.020 13.560,8.020 14.020 C 8.020 14.380,8.122 14.562,8.549 14.961 C 9.295 15.658,10.188 16.111,11.160 16.284 C 11.546 16.353,12.454 16.353,12.840 16.284 C 13.525 16.162,14.312 15.837,14.860 15.449 C 15.243 15.179,15.742 14.706,15.864 14.497 C 16.217 13.895,15.818 13.095,15.125 13.013 C 14.764 12.970,14.534 13.075,14.102 13.476 C 13.446 14.085,12.829 14.338,12.000 14.338 C 11.171 14.338,10.554 14.085,9.899 13.477 C 9.595 13.195,9.475 13.110,9.311 13.061 C 9.063 12.987,8.870 12.986,8.673 13.056 " stroke="none" fill-rule="evenodd" fill="black"></path></svg>