<svg xmlns="http://www.w3.org/2000/svg" width="24" height="24" viewBox="0 0 24 24" version="1.1">
	<path d="M 11 1.892 C 11 2.382, 9.861 3.069, 8.469 3.418 C 5.601 4.138, 2.009 9.350, 2.004 12.800 C 1.995 18.099, 6.798 23, 12 23 C 17.202 23, 22.005 18.099, 21.996 12.800 C 21.991 9.350, 18.399 4.138, 15.531 3.418 C 14.139 3.069, 13 2.382, 13 1.892 C 13 1.401, 12.550 1, 12 1 C 11.450 1, 11 1.401, 11 1.892 M 8.321 6.189 C 2.798 8.859, 3.282 17.632, 9.086 20.036 C 17.991 23.724, 24.152 10.124, 15.385 6.130 C 12.428 4.782, 11.210 4.792, 8.321 6.189 M 8.326 14.477 C 8.770 15.810, 15.230 15.810, 15.674 14.477 C 15.869 13.894, 14.292 13.455, 12 13.455 C 9.708 13.455, 8.131 13.894, 8.326 14.477" stroke="none" fill="#000000" fill-rule="evenodd"/>
</svg>