<svg xmlns="http://www.w3.org/2000/svg" width="24" height="24" viewBox="0 0 24 24" version="1.1">
	<path d="M 6.807 5.250 C 6.570 8.531, 5.987 9.725, 4.250 10.487 C 3.012 11.030, 2 12.268, 2 13.237 C 2 14.660, 2.868 15, 6.500 15 L 11 15 11 19 C 11 21.200, 11.450 23, 12 23 C 12.550 23, 13 21.200, 13 19 L 13 15 17.500 15 C 21.132 15, 22 14.660, 22 13.237 C 22 12.268, 20.988 11.030, 19.750 10.487 C 18.013 9.725, 17.430 8.531, 17.193 5.250 C 17.023 2.912, 16.461 1, 15.943 1 C 14.308 1, 14.884 9.214, 16.655 11.171 C 18.242 12.925, 18.050 13, 12 13 C 5.950 13, 5.758 12.925, 7.345 11.171 C 9.116 9.214, 9.692 1, 8.057 1 C 7.539 1, 6.977 2.912, 6.807 5.250" stroke="none" fill="#000000" fill-rule="evenodd"/>
</svg>