<svg xmlns="http://www.w3.org/2000/svg" width="24" height="24" viewBox="0 0 24 24" version="1.1">
	<path d="M 10.529 3.614 C 9.688 4.455, 9 5.954, 9 6.946 C 9 8.133, 8.017 8.947, 6.126 9.325 C 4.546 9.641, 2.990 10.584, 2.669 11.421 C 1.954 13.284, 4.491 16, 6.946 16 C 8.133 16, 8.947 16.983, 9.325 18.874 C 9.641 20.454, 10.584 22.010, 11.421 22.331 C 13.325 23.062, 16 20.490, 16 17.929 C 16 16.690, 16.690 16, 17.929 16 C 20.490 16, 23.062 13.325, 22.331 11.421 C 22.010 10.584, 20.501 9.650, 18.978 9.346 C 16.952 8.940, 16.060 8.048, 15.654 6.022 C 14.982 2.658, 12.603 1.540, 10.529 3.614 M 11.713 7.713 C 11.195 10.282, 10.407 11.098, 7.782 11.782 L 4.500 12.639 7.713 13.287 C 10.282 13.805, 11.098 14.593, 11.782 17.218 L 12.639 20.500 13.287 17.287 C 13.805 14.718, 14.593 13.902, 17.218 13.218 L 20.500 12.361 17.287 11.713 C 14.718 11.195, 13.902 10.407, 13.218 7.782 L 12.361 4.500 11.713 7.713" stroke="none" fill="#000000" fill-rule="evenodd"/>
</svg>