<svg xmlns="http://www.w3.org/2000/svg" width="24" height="24" viewBox="0 0 24 24" version="1.1">
	<path d="M 12.459 1.208 C 11.336 1.047, 10.099 1.235, 9.709 1.624 C 9.319 2.014, 9 3.806, 9 5.606 C 9 8.667, 8.756 8.899, 5.250 9.190 C 1.518 9.498, 1.500 9.522, 1.500 14 C 1.500 18.478, 1.518 18.502, 5.250 18.810 C 8.474 19.077, 9 19.463, 9 21.560 C 9 22.902, 9.479 24, 10.063 24 C 10.661 24, 10.989 22.576, 10.813 20.750 C 10.527 17.783, 10.174 17.473, 6.750 17.190 C 3.357 16.909, 3 16.605, 3 14 C 3 11.395, 3.357 11.091, 6.750 10.810 C 10.296 10.517, 10.517 10.296, 10.810 6.750 C 10.981 4.688, 11.516 3, 12 3 C 12.484 3, 13.019 4.688, 13.190 6.750 C 13.483 10.296, 13.704 10.517, 17.250 10.810 C 20.643 11.091, 21 11.395, 21 14 C 21 16.605, 20.643 16.909, 17.250 17.190 C 13.826 17.473, 13.473 17.783, 13.187 20.750 C 13.011 22.576, 13.339 24, 13.937 24 C 14.521 24, 15 22.902, 15 21.560 C 15 19.463, 15.526 19.077, 18.750 18.810 C 22.482 18.502, 22.500 18.478, 22.500 14 C 22.500 9.534, 22.472 9.498, 18.807 9.193 C 15.337 8.905, 15.095 8.663, 14.807 5.193 C 14.572 2.362, 14.023 1.432, 12.459 1.208" stroke="none" fill="black" fill-rule="evenodd"/>
</svg>