<svg viewBox="0 0 24 24" xmlns="http://www.w3.org/2000/svg" fill="none" stroke="#000000" stroke-width="2" stroke-linecap="round" stroke-linejoin="round"><path d="M11.499 1.040 C 10.373 1.244,9.482 2.030,9.115 3.140 C 9.024 3.417,9.023 3.448,9.001 5.840 C 8.985 7.641,8.967 8.289,8.930 8.373 C 8.842 8.571,8.673 8.761,8.484 8.872 L 8.300 8.980 5.880 9.002 L 3.460 9.023 3.139 9.123 C 2.173 9.423,1.419 10.181,1.114 11.160 L 1.020 11.460 1.020 14.000 L 1.020 16.540 1.114 16.840 C 1.419 17.817,2.155 18.559,3.140 18.885 C 3.417 18.976,3.447 18.977,5.840 18.999 C 8.552 19.023,8.411 19.007,8.717 19.321 C 8.999 19.612,9.000 19.622,9.000 21.947 L 9.000 24.000 10.002 24.000 L 11.004 24.000 10.991 21.710 C 10.978 19.438,10.977 19.418,10.885 19.140 C 10.560 18.161,9.817 17.420,8.861 17.123 L 8.540 17.023 6.120 17.002 L 3.700 16.980 3.516 16.872 C 3.415 16.813,3.284 16.700,3.225 16.623 C 3.000 16.327,3.000 16.332,3.000 14.022 C 3.000 11.614,3.000 11.613,3.283 11.321 C 3.589 11.007,3.448 11.023,6.160 10.999 C 8.553 10.977,8.583 10.976,8.860 10.885 C 9.835 10.563,10.563 9.835,10.885 8.860 C 10.976 8.583,10.977 8.553,10.999 6.160 C 11.023 3.448,11.007 3.589,11.321 3.283 C 11.490 3.120,11.777 3.000,12.000 3.000 C 12.223 3.000,12.510 3.120,12.679 3.283 C 12.993 3.589,12.977 3.448,13.001 6.160 C 13.023 8.553,13.024 8.583,13.115 8.860 C 13.437 9.835,14.165 10.563,15.140 10.885 C 15.417 10.976,15.447 10.977,17.840 10.999 C 20.552 11.023,20.411 11.007,20.717 11.321 C 21.000 11.613,21.000 11.616,21.000 14.001 C 21.000 16.287,20.996 16.333,20.779 16.618 C 20.718 16.698,20.585 16.813,20.484 16.872 L 20.300 16.980 17.880 17.002 L 15.460 17.023 15.139 17.123 C 14.183 17.420,13.440 18.161,13.115 19.140 C 13.023 19.418,13.022 19.438,13.009 21.710 L 12.996 24.000 13.998 24.000 L 15.000 24.000 15.000 21.927 C 15.000 19.597,14.998 19.615,15.287 19.318 C 15.588 19.007,15.451 19.023,18.160 18.999 C 20.553 18.977,20.583 18.976,20.860 18.885 C 21.845 18.559,22.581 17.817,22.886 16.840 L 22.980 16.540 22.980 14.000 L 22.980 11.460 22.886 11.160 C 22.581 10.181,21.827 9.423,20.861 9.123 L 20.540 9.023 18.120 9.002 L 15.700 8.980 15.516 8.872 C 15.328 8.761,15.158 8.572,15.070 8.373 C 15.033 8.288,15.015 7.651,14.999 5.840 C 14.978 3.446,14.976 3.417,14.885 3.140 C 14.560 2.159,13.800 1.404,12.861 1.129 C 12.500 1.023,11.832 0.980,11.499 1.040 " stroke="none" fill-rule="evenodd" fill="black"></path></svg>