<svg xmlns="http://www.w3.org/2000/svg" width="24" height="24" viewBox="0 0 24 24" version="1.1">
	<path d="M 6.228 11.512 C 3.353 17.294, 1 22.244, 1 22.512 C 1 22.780, 5.950 23, 12 23 C 18.050 23, 23 22.780, 23 22.512 C 23 21.497, 12.519 1, 12 1 C 11.701 1, 9.103 5.730, 6.228 11.512 M 7.215 13.519 C 5.447 17.104, 4 20.254, 4 20.519 C 4 20.784, 5.575 21, 7.500 21 L 11 21 11 14 C 11 10.150, 10.872 7, 10.715 7 C 10.558 7, 8.983 9.934, 7.215 13.519 M 13.049 13.750 L 13 21 16.500 21 C 18.425 21, 19.978 20.663, 19.951 20.250 C 19.925 19.837, 18.372 16.575, 16.500 13 L 13.097 6.500 13.049 13.750" stroke="none" fill="black" fill-rule="evenodd"/>
</svg>