<svg viewBox="0 0 24 24" xmlns="http://www.w3.org/2000/svg" fill="none" stroke="#000000" stroke-width="2" stroke-linecap="round" stroke-linejoin="round"><path d="M3.695 3.057 C 3.466 3.129,3.256 3.299,3.128 3.516 L 3.020 3.700 3.020 5.503 L 3.020 7.306 3.141 7.503 C 3.543 8.156,4.457 8.156,4.859 7.503 L 4.980 7.307 4.992 6.153 L 5.005 5.000 6.092 4.998 C 7.262 4.996,7.358 4.983,7.619 4.783 C 7.696 4.725,7.808 4.592,7.869 4.489 C 7.964 4.328,7.980 4.256,7.980 4.000 C 7.980 3.746,7.963 3.672,7.872 3.516 C 7.740 3.293,7.533 3.128,7.290 3.055 C 7.035 2.978,3.941 2.980,3.695 3.057 M16.695 3.057 C 16.466 3.129,16.256 3.299,16.128 3.516 C 16.037 3.672,16.020 3.746,16.020 4.000 C 16.020 4.256,16.036 4.328,16.131 4.489 C 16.192 4.592,16.304 4.725,16.381 4.783 C 16.642 4.983,16.738 4.996,17.908 4.998 L 18.995 5.000 19.008 6.153 L 19.020 7.307 19.141 7.503 C 19.543 8.156,20.457 8.156,20.859 7.503 L 20.980 7.306 20.980 5.503 L 20.980 3.700 20.872 3.516 C 20.740 3.293,20.533 3.128,20.290 3.055 C 20.035 2.978,16.941 2.980,16.695 3.057 M9.477 8.073 C 8.806 8.249,8.238 8.823,8.060 9.508 C 8.010 9.698,8.000 10.123,8.000 12.000 C 8.000 14.455,8.003 14.491,8.225 14.930 C 8.361 15.199,8.801 15.639,9.070 15.775 C 9.509 15.997,9.545 16.000,12.000 16.000 C 14.455 16.000,14.491 15.997,14.930 15.775 C 15.196 15.640,15.638 15.200,15.771 14.937 C 15.996 14.494,16.000 14.442,15.999 12.014 C 15.999 9.601,15.991 9.496,15.781 9.083 C 15.646 8.816,15.297 8.449,15.017 8.281 C 14.564 8.008,14.524 8.005,12.000 8.005 C 9.992 8.005,9.711 8.012,9.477 8.073 M14.000 12.000 L 14.000 14.000 12.000 14.000 L 10.000 14.000 10.000 12.000 L 10.000 10.000 12.000 10.000 L 14.000 10.000 14.000 12.000 M3.695 16.057 C 3.466 16.129,3.256 16.299,3.128 16.516 L 3.020 16.700 3.020 18.500 L 3.020 20.300 3.131 20.489 C 3.256 20.702,3.449 20.864,3.670 20.943 C 3.888 21.021,7.112 21.021,7.330 20.943 C 7.551 20.864,7.744 20.702,7.869 20.489 C 7.964 20.328,7.980 20.256,7.980 20.000 C 7.980 19.746,7.963 19.672,7.872 19.516 C 7.813 19.415,7.698 19.282,7.618 19.221 C 7.357 19.022,7.203 19.000,6.056 19.000 L 5.005 19.000 4.992 17.850 L 4.980 16.700 4.872 16.516 C 4.628 16.101,4.150 15.915,3.695 16.057 M19.695 16.057 C 19.466 16.129,19.256 16.299,19.128 16.516 L 19.020 16.700 19.008 17.850 L 18.995 19.000 17.944 19.000 C 16.797 19.000,16.643 19.022,16.382 19.221 C 16.302 19.282,16.187 19.415,16.128 19.516 C 16.037 19.672,16.020 19.746,16.020 20.000 C 16.020 20.256,16.036 20.328,16.131 20.489 C 16.256 20.702,16.449 20.864,16.670 20.943 C 16.888 21.021,20.112 21.021,20.330 20.943 C 20.551 20.864,20.744 20.702,20.869 20.489 L 20.980 20.300 20.980 18.500 L 20.980 16.700 20.872 16.516 C 20.628 16.101,20.150 15.915,19.695 16.057 " stroke="none" fill-rule="evenodd" fill="black"></path></svg>