<svg xmlns="http://www.w3.org/2000/svg" width="24" height="24" viewBox="0 0 24 24" version="1.1">
	<path d="M 3 5.500 C 3 6.875, 3.450 8, 4 8 C 4.550 8, 5 7.325, 5 6.500 C 5 5.675, 5.675 5, 6.500 5 C 7.325 5, 8 4.550, 8 4 C 8 3.450, 6.875 3, 5.500 3 C 3.500 3, 3 3.500, 3 5.500 M 16 4 C 16 4.550, 16.675 5, 17.500 5 C 18.325 5, 19 5.675, 19 6.500 C 19 7.325, 19.450 8, 20 8 C 20.550 8, 21 6.875, 21 5.500 C 21 3.500, 20.500 3, 18.500 3 C 17.125 3, 16 3.450, 16 4 M 8.414 9.363 C 8.099 10.184, 7.990 11.900, 8.171 13.177 C 8.444 15.102, 9.099 15.500, 12 15.500 C 15.333 15.500, 15.500 15.333, 15.500 12 C 15.500 8.781, 15.239 8.475, 12.243 8.186 C 10.059 7.976, 8.798 8.363, 8.414 9.363 M 10 12 C 10 13.333, 10.667 14, 12 14 C 13.333 14, 14 13.333, 14 12 C 14 10.667, 13.333 10, 12 10 C 10.667 10, 10 10.667, 10 12 M 3 18.500 C 3 20.500, 3.500 21, 5.500 21 C 6.875 21, 8 20.550, 8 20 C 8 19.450, 7.325 19, 6.500 19 C 5.675 19, 5 18.325, 5 17.500 C 5 16.675, 4.550 16, 4 16 C 3.450 16, 3 17.125, 3 18.500 M 19 17.500 C 19 18.325, 18.325 19, 17.500 19 C 16.675 19, 16 19.450, 16 20 C 16 20.550, 17.125 21, 18.500 21 C 20.500 21, 21 20.500, 21 18.500 C 21 17.125, 20.550 16, 20 16 C 19.450 16, 19 16.675, 19 17.500" stroke="none" fill="#000000" fill-rule="evenodd"/>
</svg>