<svg xmlns="http://www.w3.org/2000/svg" width="24" height="24" viewBox="0 0 24 24" version="1.1">
	<path d="M 6.464 2.203 C 4.244 2.040, 2.106 2.227, 1.714 2.620 C 1.321 3.012, 1 5.522, 1 8.198 C 1 11.600, 1.451 13.236, 2.500 13.638 C 3.325 13.955, 4 14.616, 4 15.107 C 4 15.598, 3.325 16, 2.500 16 C 1.500 16, 1 17, 1 19 C 1 21.548, 1.384 22, 3.545 22 C 4.945 22, 7.215 20.876, 8.589 19.502 C 10.864 17.227, 11.061 16.355, 10.794 9.752 L 10.500 2.500 6.464 2.203 M 18.464 2.203 C 16.244 2.040, 14.106 2.227, 13.714 2.620 C 13.321 3.012, 13 5.522, 13 8.198 C 13 11.600, 13.451 13.236, 14.500 13.638 C 15.325 13.955, 16 14.616, 16 15.107 C 16 15.598, 15.325 16, 14.500 16 C 13.500 16, 13 17, 13 19 C 13 21.548, 13.384 22, 15.545 22 C 16.945 22, 19.215 20.876, 20.589 19.502 C 22.864 17.227, 23.061 16.355, 22.794 9.752 L 22.500 2.500 18.464 2.203 M 6 4 C 3.167 4, 3 4.222, 3 8 C 3 10.889, 3.417 12, 4.500 12 C 5.438 12, 6 12.948, 6 14.531 C 6 15.924, 5.325 17.322, 4.500 17.638 C 3.675 17.955, 3 18.616, 3 19.107 C 3 19.598, 3.649 20, 4.443 20 C 5.237 20, 6.587 19, 7.443 17.777 C 8.416 16.389, 9 13.388, 9 9.777 C 9 4.025, 8.987 4, 6 4 M 18 4 C 15.167 4, 15 4.222, 15 8 C 15 10.889, 15.417 12, 16.500 12 C 17.438 12, 18 12.948, 18 14.531 C 18 15.924, 17.325 17.322, 16.500 17.638 C 15.675 17.955, 15 18.616, 15 19.107 C 15 19.598, 15.649 20, 16.443 20 C 17.237 20, 18.587 19, 19.443 17.777 C 20.416 16.389, 21 13.388, 21 9.777 C 21 4.025, 20.987 4, 18 4" stroke="none" fill="black" fill-rule="evenodd"/>
</svg>