<svg xmlns="http://www.w3.org/2000/svg" width="24" height="24" viewBox="0 0 24 24" version="1.1">
	<path d="M 1.714 2.620 C 0.287 4.046, 0.928 13.035, 2.500 13.638 C 4.441 14.383, 4.441 16, 2.500 16 C 1.500 16, 1 17, 1 19 C 1 21.548, 1.384 22, 3.545 22 C 4.945 22, 7.215 20.876, 8.589 19.502 C 10.864 17.227, 11.061 16.355, 10.794 9.752 L 10.500 2.500 6.464 2.203 C 4.244 2.040, 2.106 2.227, 1.714 2.620 M 13.714 2.620 C 12.287 4.046, 12.928 13.035, 14.500 13.638 C 16.441 14.383, 16.441 16, 14.500 16 C 13.500 16, 13 17, 13 19 C 13 21.548, 13.384 22, 15.545 22 C 16.945 22, 19.215 20.876, 20.589 19.502 C 22.864 17.227, 23.061 16.355, 22.794 9.752 L 22.500 2.500 18.464 2.203 C 16.244 2.040, 14.106 2.227, 13.714 2.620 M 3 8 C 3 10.889, 3.417 12, 4.500 12 C 6.492 12, 6.492 16.874, 4.500 17.638 C 2.586 18.373, 2.547 20, 4.443 20 C 7.125 20, 9 15.794, 9 9.777 C 9 4.025, 8.987 4, 6 4 C 3.167 4, 3 4.222, 3 8 M 15 8 C 15 10.889, 15.417 12, 16.500 12 C 18.492 12, 18.492 16.874, 16.500 17.638 C 14.586 18.373, 14.547 20, 16.443 20 C 19.125 20, 21 15.794, 21 9.777 C 21 4.025, 20.987 4, 18 4 C 15.167 4, 15 4.222, 15 8" stroke="none" fill="black" fill-rule="evenodd"/>
</svg>