<svg xmlns="http://www.w3.org/2000/svg" width="24" height="24" viewBox="0 0 24 24" version="1.1">
	<path d="M 2.557 6.223 C 0.406 9.293, 0.585 15.267, 2.914 18.139 C 5.416 21.225, 6.455 20.102, 4.524 16.399 C 2.631 12.770, 2.628 11.236, 4.506 7.636 C 6.262 4.270, 6.302 4, 5.057 4 C 4.538 4, 3.413 5, 2.557 6.223 M 18 4.386 C 18 4.598, 18.672 6.060, 19.494 7.636 C 21.372 11.236, 21.369 12.770, 19.476 16.399 C 17.726 19.755, 18.342 21.086, 20.601 18.828 C 23.007 16.421, 23.571 9.521, 21.606 6.521 C 20.210 4.392, 18 3.082, 18 4.386 M 6.200 8.200 C 4.514 9.886, 4.706 14.511, 6.524 16.020 C 8.635 17.772, 9.410 16.630, 7.829 14.097 C 6.779 12.417, 6.765 11.605, 7.759 10.014 C 8.442 8.921, 9 7.796, 9 7.514 C 9 6.589, 7.425 6.975, 6.200 8.200 M 15 7.514 C 15 7.796, 15.558 8.921, 16.241 10.014 C 17.235 11.605, 17.221 12.417, 16.171 14.097 C 14.590 16.630, 15.365 17.772, 17.476 16.020 C 19.294 14.511, 19.486 9.886, 17.800 8.200 C 16.575 6.975, 15 6.589, 15 7.514 M 9.389 10.430 C 8.393 13.025, 9.788 15.169, 12.246 14.820 C 15.450 14.365, 15.450 9.635, 12.246 9.180 C 10.893 8.988, 9.750 9.488, 9.389 10.430 M 11 12 C 11 12.550, 11.450 13, 12 13 C 12.550 13, 13 12.550, 13 12 C 13 11.450, 12.550 11, 12 11 C 11.450 11, 11 11.450, 11 12" stroke="none" fill="#000000" fill-rule="evenodd"/>
</svg>