<svg xmlns="http://www.w3.org/2000/svg" width="24" height="24" viewBox="0 0 24 24" version="1.1">
	<path d="M 6.032 3.250 C 6.049 3.938, 6.724 5.374, 7.532 6.441 C 8.339 7.509, 9 10.010, 9 12 C 9 13.990, 8.339 16.491, 7.532 17.559 C 6.724 18.626, 6.049 20.063, 6.032 20.750 C 5.974 23.041, 7.664 22.039, 9.450 18.723 C 11.410 15.083, 14.959 13, 19.199 13 C 21.062 13, 22 12.481, 22 11.450 C 22 9.278, 19.148 4, 17.974 4 C 16.658 4, 16.740 4.596, 18.526 8.050 C 19.946 10.797, 19.926 11, 18.225 11 C 14.914 11, 11.242 8.605, 9.450 5.277 C 7.664 1.961, 5.974 0.959, 6.032 3.250 M 2 12.809 C 2 14.903, 4.565 18.768, 5.401 17.932 C 6.138 17.195, 3.797 11, 2.781 11 C 2.351 11, 2 11.814, 2 12.809" stroke="none" fill="#000000" fill-rule="evenodd"/>
</svg>