<svg xmlns="http://www.w3.org/2000/svg" width="24" height="24" viewBox="0 0 24 24" version="1.1">
	<path d="M 6 1 C 5.450 1, 5 1.848, 5 2.883 C 5 3.941, 4.101 5.002, 2.950 5.303 C 1.113 5.783, 0.932 6.497, 1.200 12.169 L 1.500 18.500 12 18.500 L 22.500 18.500 22.500 12 L 22.500 5.500 14.750 5.208 C 7.822 4.947, 7 4.708, 7 2.958 C 7 1.881, 6.550 1, 6 1 M 12 7 L 3 7 3 12 L 3 17 12 17 L 21 17 21 12 L 21 7 12 7 M 8.246 9.180 C 6.893 8.988, 5.750 9.488, 5.389 10.430 C 5.057 11.293, 5.057 12.707, 5.389 13.570 C 5.750 14.512, 6.893 15.012, 8.246 14.820 C 9.898 14.585, 10.500 13.833, 10.500 12 C 10.500 10.167, 9.898 9.415, 8.246 9.180 M 8 11 C 7.450 11, 7 11.450, 7 12 C 7 12.550, 7.450 13, 8 13 C 8.550 13, 9 12.550, 9 12 C 9 11.450, 8.550 11, 8 11 M 16 11 C 14.350 11, 13 11.450, 13 12 C 13 12.550, 14.350 13, 16 13 C 17.650 13, 19 12.550, 19 12 C 19 11.450, 17.650 11, 16 11" stroke="none" fill="black" fill-rule="evenodd"/>
</svg>