<svg xmlns="http://www.w3.org/2000/svg" width="24" height="24" viewBox="0 0 24 24" version="1.1">
	<path d="M 6.843 2 C 6.379 2, 6.014 2.563, 6.032 3.250 C 6.049 3.938, 6.724 5.374, 7.532 6.441 C 8.339 7.509, 9 10.010, 9 12 C 9 13.990, 8.339 16.491, 7.532 17.559 C 6.724 18.626, 6.049 20.063, 6.032 20.750 C 6.014 21.438, 6.379 22, 6.843 22 C 7.306 22, 8.479 20.526, 9.450 18.723 C 10.420 16.921, 12.381 14.896, 13.806 14.223 C 15.232 13.551, 17.659 13, 19.199 13 C 21.062 13, 22 12.481, 22 11.450 C 22 10.598, 21.313 8.573, 20.474 6.950 C 19.635 5.328, 18.510 4, 17.974 4 C 17.438 4, 17 4.247, 17 4.550 C 17 4.852, 17.687 6.427, 18.526 8.050 C 19.946 10.797, 19.926 11, 18.225 11 C 17.221 11, 15.232 10.449, 13.806 9.777 C 12.381 9.104, 10.420 7.079, 9.450 5.277 C 8.479 3.474, 7.306 2, 6.843 2 M 2.781 11 C 2.351 11, 2 11.814, 2 12.809 C 2 13.804, 2.638 15.491, 3.418 16.557 C 4.198 17.624, 5.090 18.243, 5.401 17.932 C 5.711 17.622, 5.424 15.935, 4.763 14.184 C 4.102 12.433, 3.210 11, 2.781 11" stroke="none" fill="black" fill-rule="evenodd"/>
</svg>