<svg xmlns="http://www.w3.org/2000/svg" width="24" height="24" viewBox="0 0 24 24" version="1.1">
	<path d="M 5.057 4 C 4.538 4, 3.413 5, 2.557 6.223 C 1.701 7.445, 1 10.095, 1 12.112 C 1 14.234, 1.806 16.772, 2.914 18.139 C 3.967 19.438, 5.100 20.229, 5.432 19.899 C 5.764 19.568, 5.355 17.993, 4.524 16.399 C 3.693 14.804, 3.012 12.825, 3.012 12 C 3.012 11.175, 3.685 9.211, 4.506 7.636 C 5.328 6.060, 6 4.598, 6 4.386 C 6 4.174, 5.576 4, 5.057 4 M 18.977 4 C 18.440 4, 18 4.174, 18 4.386 C 18 4.598, 18.672 6.060, 19.494 7.636 C 20.315 9.211, 20.988 11.175, 20.988 12 C 20.988 12.825, 20.307 14.804, 19.476 16.399 C 18.645 17.993, 18.208 19.541, 18.506 19.839 C 18.804 20.137, 19.746 19.682, 20.601 18.828 C 21.455 17.974, 22.402 15.423, 22.706 13.159 C 23.094 10.262, 22.768 8.295, 21.606 6.521 C 20.697 5.134, 19.514 4, 18.977 4 M 8.200 7 C 7.760 7, 6.860 7.540, 6.200 8.200 C 5.540 8.860, 5 10.605, 5 12.078 C 5 13.550, 5.686 15.324, 6.524 16.020 C 7.362 16.716, 8.294 17.040, 8.593 16.740 C 8.893 16.440, 8.549 15.251, 7.829 14.097 C 6.779 12.417, 6.765 11.605, 7.759 10.014 C 8.442 8.921, 9 7.796, 9 7.514 C 9 7.231, 8.640 7, 8.200 7 M 15.800 7 C 15.360 7, 15 7.231, 15 7.514 C 15 7.796, 15.558 8.921, 16.241 10.014 C 17.235 11.605, 17.221 12.417, 16.171 14.097 C 15.451 15.251, 15.107 16.440, 15.407 16.740 C 15.706 17.040, 16.638 16.716, 17.476 16.020 C 18.314 15.324, 19 13.550, 19 12.078 C 19 10.605, 18.460 8.860, 17.800 8.200 C 17.140 7.540, 16.240 7, 15.800 7 M 12.246 9.180 C 10.893 8.988, 9.750 9.488, 9.389 10.430 C 9.057 11.293, 9.057 12.707, 9.389 13.570 C 9.750 14.512, 10.893 15.012, 12.246 14.820 C 13.898 14.585, 14.500 13.833, 14.500 12 C 14.500 10.167, 13.898 9.415, 12.246 9.180 M 12 11 C 11.450 11, 11 11.450, 11 12 C 11 12.550, 11.450 13, 12 13 C 12.550 13, 13 12.550, 13 12 C 13 11.450, 12.550 11, 12 11" stroke="none" fill="black" fill-rule="evenodd"/>
</svg>