<svg xmlns="http://www.w3.org/2000/svg" width="24" height="24" viewBox="0 0 24 24" version="1.1">
	<path d="M 9 -0 C 6.848 -0, 4.918 0.928, 2.923 2.923 C 1.006 4.840, 0 6.867, 0 8.812 C 0 10.444, 0.861 12.841, 1.914 14.139 C 2.967 15.438, 4.137 16.192, 4.516 15.815 C 4.894 15.438, 4.483 14.100, 3.602 12.842 C 2.721 11.584, 2 9.735, 2 8.732 C 2 7.729, 3.105 5.805, 4.455 4.455 C 5.805 3.105, 7.874 2, 9.053 2 C 10.233 2, 12.459 3.350, 14 5 C 15.541 6.650, 17.432 8, 18.201 8 C 18.971 8, 20.140 8.540, 20.800 9.200 C 21.460 9.860, 22 11.062, 22 11.871 C 22 12.680, 21.296 14.121, 20.435 15.072 C 19.448 16.162, 19.247 17.035, 19.891 17.433 C 20.453 17.780, 21.647 16.942, 22.546 15.570 C 23.445 14.198, 24.310 11.372, 24.469 9.288 C 24.628 7.205, 24.561 6.251, 24.320 7.170 C 23.911 8.729, 23.681 8.729, 20.836 7.170 C 19.160 6.251, 16.522 4.263, 14.972 2.750 C 13.104 0.927, 11.091 -0, 9 -0 M 0.689 7.250 C 0.438 6.287, 0.232 7.075, 0.232 9 C 0.232 10.925, 0.438 11.713, 0.689 10.750 C 0.941 9.787, 0.941 8.213, 0.689 7.250 M 8 12 C 7.450 12, 7 14.250, 7 17 C 7 19.750, 7.450 22, 8 22 C 8.550 22, 9 19.750, 9 17 C 9 14.250, 8.550 12, 8 12 M 16 12 C 15.450 12, 15 14.250, 15 17 C 15 19.750, 15.450 22, 16 22 C 16.550 22, 17 19.750, 17 17 C 17 14.250, 16.550 12, 16 12 M 12 14 C 11.450 14, 11 16.250, 11 19 C 11 21.750, 11.450 24, 12 24 C 12.550 24, 13 21.750, 13 19 C 13 16.250, 12.550 14, 12 14" stroke="none" fill="black" fill-rule="evenodd"/>
</svg>