<svg xmlns="http://www.w3.org/2000/svg" width="24" height="24" viewBox="0 0 24 24" version="1.1">
	<path d="M 2.500 3 C 2.151 4.100, 1.446 5, 0.933 5 C 0.420 5, 0 7.250, 0 10 C 0 15.064, 0.646 15.954, 2.776 13.824 C 3.678 12.922, 4.425 13.075, 5.976 14.479 C 7.930 16.246, 8.070 16.247, 10 14.500 C 11.930 12.753, 12.070 12.753, 14 14.500 C 15.923 16.241, 16.076 16.241, 17.981 14.517 C 19.574 13.075, 20.252 12.964, 21.437 13.948 C 23.803 15.912, 25 14.240, 25 8.972 C 25 5.159, 24.685 4.184, 23.590 4.604 C 22.743 4.929, 21.918 4.318, 21.523 3.072 C 20.690 0.446, 19.321 0.414, 18.500 3 C 17.679 5.587, 14.321 5.587, 13.500 3 C 12.687 0.439, 11.313 0.439, 10.500 3 C 9.679 5.587, 6.321 5.587, 5.500 3 C 5.151 1.900, 4.476 1, 4 1 C 3.524 1, 2.849 1.900, 2.500 3 M 0.300 10 C 0.300 13.025, 0.487 14.263, 0.716 12.750 C 0.945 11.238, 0.945 8.763, 0.716 7.250 C 0.487 5.738, 0.300 6.975, 0.300 10 M 2.688 7.646 C 1.272 9.061, 2.073 11, 4.073 11 C 5.471 11, 6.041 10.457, 5.823 9.333 C 5.466 7.492, 3.759 6.574, 2.688 7.646 M 10.688 7.646 C 9.272 9.061, 10.073 11, 12.073 11 C 13.471 11, 14.041 10.457, 13.823 9.333 C 13.466 7.492, 11.759 6.574, 10.688 7.646 M 18.688 7.646 C 17.272 9.061, 18.073 11, 20.073 11 C 21.471 11, 22.041 10.457, 21.823 9.333 C 21.466 7.492, 19.759 6.574, 18.688 7.646" stroke="none" fill="#000000" fill-rule="evenodd"/>
</svg>