<svg xmlns="http://www.w3.org/2000/svg" width="24" height="24" viewBox="0 0 24 24" version="1.1">
	<path d="M 4 1 C 3.524 1, 2.849 1.900, 2.500 3 C 2.151 4.100, 1.446 5, 0.933 5 C 0.420 5, 0 7.250, 0 10 C 0 12.750, 0.360 15, 0.800 15 C 1.240 15, 2.129 14.471, 2.776 13.824 C 3.678 12.922, 4.425 13.075, 5.976 14.479 C 7.930 16.246, 8.070 16.247, 10 14.500 C 11.930 12.753, 12.070 12.753, 14 14.500 C 15.923 16.241, 16.076 16.241, 17.981 14.517 C 19.574 13.075, 20.252 12.964, 21.437 13.948 C 22.249 14.621, 23.382 14.882, 23.956 14.527 C 24.530 14.172, 25 11.673, 25 8.972 C 25 5.159, 24.685 4.184, 23.590 4.604 C 22.743 4.929, 21.918 4.318, 21.523 3.072 C 21.161 1.933, 20.476 1, 20 1 C 19.524 1, 18.849 1.900, 18.500 3 C 18.151 4.100, 17.026 5, 16 5 C 14.974 5, 13.849 4.100, 13.500 3 C 13.151 1.900, 12.476 1, 12 1 C 11.524 1, 10.849 1.900, 10.500 3 C 10.151 4.100, 9.026 5, 8 5 C 6.974 5, 5.849 4.100, 5.500 3 C 5.151 1.900, 4.476 1, 4 1 M 0.716 7.250 C 0.487 5.738, 0.300 6.975, 0.300 10 C 0.300 13.025, 0.487 14.263, 0.716 12.750 C 0.945 11.238, 0.945 8.763, 0.716 7.250 M 4.438 7.312 C 3.853 7.117, 3.066 7.268, 2.688 7.646 C 2.309 8.024, 2 8.933, 2 9.667 C 2 10.400, 2.933 11, 4.073 11 C 5.471 11, 6.041 10.457, 5.823 9.333 C 5.645 8.416, 5.022 7.507, 4.438 7.312 M 12.438 7.312 C 11.853 7.117, 11.066 7.268, 10.688 7.646 C 10.309 8.024, 10 8.933, 10 9.667 C 10 10.400, 10.933 11, 12.073 11 C 13.471 11, 14.041 10.457, 13.823 9.333 C 13.645 8.416, 13.022 7.507, 12.438 7.312 M 20.438 7.312 C 19.853 7.117, 19.066 7.268, 18.688 7.646 C 18.309 8.024, 18 8.933, 18 9.667 C 18 10.400, 18.933 11, 20.073 11 C 21.471 11, 22.041 10.457, 21.823 9.333 C 21.645 8.416, 21.022 7.507, 20.438 7.312" stroke="none" fill="black" fill-rule="evenodd"/>
</svg>