<svg xmlns="http://www.w3.org/2000/svg" width="24" height="24" viewBox="0 0 24 24" version="1.1">
	<path d="M 12 1.444 L 3 1.444 3 12 L 3 22.556 12 22.556 L 21 22.556 21 12 L 21 1.444 12 1.444 M 12.481 3.557 C 9.720 3.441, 6.907 3.531, 6.231 3.756 C 5.397 4.034, 5 6.683, 5 11.976 C 5 17.330, 5.393 19.920, 6.250 20.213 C 6.938 20.448, 9.750 20.554, 12.500 20.450 C 15.250 20.345, 17.837 20.201, 18.250 20.130 C 18.663 20.058, 19 16.400, 19 12 C 19 7.600, 18.663 3.948, 18.250 3.884 C 17.837 3.820, 15.241 3.673, 12.481 3.557 M 12 7 C 9.250 7, 7 7.450, 7 8 C 7 8.550, 9.250 9, 12 9 C 14.750 9, 17 8.550, 17 8 C 17 7.450, 14.750 7, 12 7 M 12 11 C 9.250 11, 7 11.450, 7 12 C 7 12.550, 9.250 13, 12 13 C 14.750 13, 17 12.550, 17 12 C 17 11.450, 14.750 11, 12 11 M 9 15 C 7.900 15, 7 15.450, 7 16 C 7 16.550, 7.900 17, 9 17 C 10.100 17, 11 16.550, 11 16 C 11 15.450, 10.100 15, 9 15" stroke="none" fill="black" fill-rule="evenodd"/>
</svg>