<svg xmlns="http://www.w3.org/2000/svg" width="24" height="24" viewBox="0 0 24 24" version="1.1">
	<path d="M 4.706 2.627 C 4.318 3.015, 4 7.426, 4 12.428 L 4 21.522 12.033 21.522 L 20.067 21.522 19.783 12.011 L 19.500 2.500 12.456 2.210 C 8.582 2.051, 5.095 2.239, 4.706 2.627 M 6 11.263 L 6 18.526 12 18.526 L 18 18.526 18 11.263 L 18 4 12 4 L 6 4 6 11.263 M 8 8.500 C 8 9.325, 8.675 10, 9.500 10 C 10.325 10, 11 9.325, 11 8.500 C 11 7.675, 10.325 7, 9.500 7 C 8.675 7, 8 7.675, 8 8.500 M 11.015 10.485 C 9.157 12.402, 7.950 14.284, 8.333 14.667 C 9.065 15.399, 16 9.191, 16 7.804 C 16 6.177, 14.308 7.087, 11.015 10.485 M 13 14.500 C 13 15.325, 13.675 16, 14.500 16 C 15.325 16, 16 15.325, 16 14.500 C 16 13.675, 15.325 13, 14.500 13 C 13.675 13, 13 13.675, 13 14.500" stroke="none" fill="black" fill-rule="evenodd"/>
</svg>