<svg xmlns="http://www.w3.org/2000/svg" width="24" height="24" viewBox="0 0 24 24" version="1.1">
	<path d="M 10.406 4.725 C 6.860 5.050, 6.022 5.616, 4.145 8.956 C 2.520 11.847, 2.202 13.398, 2.874 15.156 C 4.484 19.366, 7.022 20.675, 12.706 20.225 C 17.433 19.851, 18.107 19.485, 20.014 16.252 C 21.817 13.196, 21.945 12.282, 20.920 9.806 C 19.820 7.151, 16.274 3.762, 15.027 4.175 C 14.737 4.271, 12.658 4.518, 10.406 4.725 M 6.557 9.223 C 5.701 10.445, 5 12.500, 5 13.790 C 5 15.735, 5.367 16.018, 7.151 15.452 C 8.862 14.909, 9.176 15.100, 8.683 16.385 C 8.170 17.720, 8.820 18, 12.424 18 C 15.337 18, 16.973 17.512, 17.349 16.532 C 17.659 15.725, 17.482 14.798, 16.956 14.473 C 15.406 13.515, 15.864 11.734, 17.500 12.362 C 18.511 12.749, 19 12.314, 19 11.028 C 19 8.802, 17.423 7.507, 16.510 8.984 C 15.525 10.578, 13.720 10.172, 14.362 8.500 C 15.360 5.899, 8.436 6.540, 6.557 9.223" stroke="none" fill="#000000" fill-rule="evenodd"/>
</svg>