<svg viewBox="0 0 24 24" xmlns="http://www.w3.org/2000/svg" fill="none" stroke="#000000" stroke-width="2" stroke-linecap="round" stroke-linejoin="round"><path d="M14.670 4.061 C 14.284 4.202,14.043 4.524,14.010 4.942 L 13.989 5.200 10.385 5.200 L 6.780 5.201 6.580 5.295 C 6.470 5.347,6.333 5.442,6.276 5.505 C 6.199 5.590,3.265 10.625,2.448 12.072 C 2.288 12.356,2.269 12.520,2.341 13.016 C 2.492 14.053,2.732 14.885,3.150 15.820 C 3.743 17.149,4.754 18.477,5.836 19.350 C 6.047 19.521,6.490 19.923,6.820 20.245 C 7.150 20.566,7.483 20.863,7.560 20.904 C 7.661 20.957,7.785 20.979,8.003 20.979 C 8.271 20.980,8.329 20.966,8.503 20.859 C 8.742 20.712,8.946 20.422,8.982 20.179 L 9.009 20.000 13.115 20.000 L 17.220 19.999 17.420 19.905 C 17.530 19.853,17.661 19.766,17.710 19.712 C 17.760 19.658,18.414 18.553,19.163 17.257 L 20.526 14.900 21.178 14.240 C 21.537 13.877,21.859 13.523,21.894 13.454 C 22.060 13.126,22.025 12.747,21.798 12.406 C 21.711 12.276,21.640 12.129,21.640 12.080 C 21.640 11.869,21.419 10.938,21.242 10.400 C 20.615 8.501,19.517 6.922,17.951 5.668 C 17.453 5.270,17.304 5.202,16.924 5.201 L 16.628 5.200 16.083 4.667 C 15.642 4.236,15.500 4.121,15.342 4.067 C 15.109 3.987,14.876 3.985,14.670 4.061 M14.773 7.810 C 14.441 8.146,14.136 8.483,14.096 8.560 C 14.043 8.660,14.021 8.786,14.021 9.000 C 14.020 9.258,14.036 9.327,14.133 9.492 C 14.263 9.714,14.502 9.901,14.736 9.965 C 14.939 10.019,15.267 9.989,15.445 9.899 C 15.519 9.861,16.009 9.405,16.533 8.885 L 17.486 7.940 17.690 8.160 C 18.179 8.687,18.724 9.527,19.050 10.260 C 19.334 10.895,19.576 11.708,19.624 12.188 L 19.648 12.420 19.318 12.991 L 18.988 13.561 18.264 12.848 C 17.654 12.247,17.509 12.123,17.343 12.067 C 16.865 11.905,16.383 12.083,16.128 12.516 C 16.037 12.672,16.020 12.746,16.020 13.000 C 16.020 13.254,16.036 13.328,16.127 13.480 C 16.186 13.579,16.614 14.038,17.077 14.500 C 17.541 14.961,17.920 15.354,17.920 15.372 C 17.920 15.390,17.583 15.989,17.171 16.703 L 16.422 18.000 11.922 18.000 L 7.423 18.000 8.127 17.290 C 8.514 16.899,8.864 16.517,8.904 16.440 C 8.957 16.340,8.979 16.213,8.979 16.000 C 8.980 15.745,8.964 15.672,8.872 15.516 C 8.617 15.083,8.135 14.905,7.657 15.067 C 7.491 15.123,7.344 15.248,6.709 15.874 C 6.270 16.308,5.945 16.599,5.925 16.577 C 5.817 16.457,5.544 16.049,5.351 15.720 C 4.877 14.912,4.540 13.998,4.383 13.096 L 4.334 12.812 5.956 10.006 L 7.579 7.200 11.478 7.200 L 15.377 7.200 14.773 7.810 " stroke="none" fill-rule="evenodd" fill="black"></path></svg>