<svg xmlns="http://www.w3.org/2000/svg" width="24" height="24" viewBox="0 0 24 24" version="1.1">
	<path d="M 15.027 4.175 C 14.737 4.271, 12.658 4.518, 10.406 4.725 C 6.860 5.050, 6.022 5.616, 4.145 8.956 C 2.520 11.847, 2.202 13.398, 2.874 15.156 C 3.367 16.445, 4.610 18.206, 5.635 19.068 C 6.977 20.197, 8.961 20.521, 12.706 20.225 C 17.433 19.851, 18.107 19.485, 20.014 16.252 C 21.817 13.196, 21.945 12.282, 20.920 9.806 C 20.262 8.219, 18.786 6.263, 17.640 5.460 C 16.493 4.657, 15.318 4.079, 15.027 4.175 M 11.525 7 C 9.133 7, 7.648 7.664, 6.557 9.223 C 5.701 10.445, 5 12.500, 5 13.790 C 5 15.735, 5.367 16.018, 7.151 15.452 C 8.862 14.909, 9.176 15.100, 8.683 16.385 C 8.170 17.720, 8.820 18, 12.424 18 C 15.337 18, 16.973 17.512, 17.349 16.532 C 17.659 15.725, 17.482 14.798, 16.956 14.473 C 16.430 14.148, 16 13.410, 16 12.834 C 16 12.258, 16.675 12.045, 17.500 12.362 C 18.511 12.749, 19 12.314, 19 11.028 C 19 9.977, 18.581 8.859, 18.069 8.543 C 17.557 8.226, 16.856 8.425, 16.510 8.984 C 16.165 9.543, 15.410 10, 14.834 10 C 14.258 10, 14.045 9.325, 14.362 8.500 C 14.804 7.347, 14.147 7, 11.525 7" stroke="none" fill="black" fill-rule="evenodd"/>
</svg>