<svg xmlns="http://www.w3.org/2000/svg" width="24" height="24" viewBox="0 0 24 24" version="1.1">
	<path d="M 11.689 2 C 10.364 2, 7.641 3.111, 5.640 4.470 C 2.188 6.812, 2 6.838, 2 4.970 C 2 3.886, 1.550 3, 1 3 C 0.450 3, 0 4.800, 0 7 L 0 11 4 11 C 6.200 11, 8 10.550, 8 10 C 8 9.450, 7.045 9, 5.878 9 C 4.177 9, 3.985 8.723, 4.911 7.608 C 5.546 6.842, 7.401 5.662, 9.033 4.986 C 11.359 4.023, 12.630 4.018, 14.914 4.964 C 16.524 5.631, 18.369 7.476, 19.036 9.086 C 19.978 11.362, 19.978 12.638, 19.036 14.914 C 18.372 16.517, 16.550 18.358, 14.988 19.005 C 13.426 19.652, 11.200 19.881, 10.043 19.513 C 8.885 19.146, 6.827 17.647, 5.469 16.183 C 4.111 14.719, 3 14.042, 3 14.678 C 3 15.315, 3.280 16.565, 3.621 17.455 C 3.963 18.346, 5.515 19.732, 7.072 20.537 C 8.628 21.342, 10.802 22, 11.903 22 C 13.005 22, 15.086 21.462, 16.528 20.805 C 17.970 20.148, 19.791 18.371, 20.575 16.855 C 21.359 15.339, 22 13.198, 22 12.097 C 22 10.995, 21.462 8.914, 20.805 7.472 C 20.148 6.030, 18.371 4.209, 16.855 3.425 C 15.339 2.641, 13.015 2, 11.689 2" stroke="none" fill="black" fill-rule="evenodd"/>
</svg>