<svg xmlns="http://www.w3.org/2000/svg" width="24" height="24" viewBox="0 0 24 24" version="1.1">
	<path d="M 3 2 C 2.450 2, 2 3.575, 2 5.500 C 2 8.833, 2.167 9, 5.500 9 C 7.425 9, 9 8.550, 9 8 C 9 7.450, 8.298 7, 7.441 7 C 6.584 7, 6.129 6.600, 6.432 6.111 C 6.734 5.622, 8.180 4.921, 9.644 4.553 C 11.109 4.186, 13.577 4.411, 15.129 5.054 C 16.901 5.787, 18.407 7.484, 19.176 9.611 C 19.850 11.475, 20.761 13, 21.201 13 C 21.640 13, 22 12.346, 22 11.547 C 22 10.748, 21.462 8.914, 20.805 7.472 C 20.148 6.030, 18.371 4.209, 16.855 3.425 C 15.339 2.641, 13.064 2.003, 11.800 2.006 C 10.535 2.010, 8.262 2.658, 6.750 3.447 C 4.359 4.694, 4 4.693, 4 3.441 C 4 2.648, 3.550 2, 3 2 M 2.799 11 C 2.360 11, 2 11.654, 2 12.453 C 2 13.252, 2.538 15.086, 3.195 16.528 C 3.852 17.970, 5.629 19.791, 7.145 20.575 C 8.661 21.359, 12.623 22, 15.950 22 L 22 22 22 18.500 C 22 16.575, 21.620 15, 21.155 15 C 20.690 15, 19.532 15.860, 18.581 16.910 C 17.631 17.961, 15.692 19.112, 14.273 19.468 C 12.854 19.824, 10.423 19.589, 8.871 18.946 C 7.099 18.213, 5.593 16.516, 4.824 14.389 C 4.150 12.525, 3.239 11, 2.799 11" stroke="none" fill="black" fill-rule="evenodd"/>
</svg>