<svg xmlns="http://www.w3.org/2000/svg" width="24" height="24" viewBox="0 0 24 24" version="1.1">
	<path d="M 2 5.500 C 2 8.833, 2.167 9, 5.500 9 C 7.425 9, 9 8.550, 9 8 C 9 7.450, 8.298 7, 7.441 7 C 5.093 7, 6.611 5.314, 9.644 4.553 C 13.689 3.538, 17.762 5.699, 19.176 9.611 C 20.430 13.077, 22 14.154, 22 11.547 C 22 8.676, 19.559 4.823, 16.855 3.425 C 13.363 1.619, 10.241 1.626, 6.750 3.447 C 4.359 4.694, 4 4.693, 4 3.441 C 4 2.648, 3.550 2, 3 2 C 2.450 2, 2 3.575, 2 5.500 M 2 12.453 C 2 15.324, 4.441 19.177, 7.145 20.575 C 8.661 21.359, 12.623 22, 15.950 22 L 22 22 22 18.500 C 22 14.550, 21.097 14.130, 18.581 16.910 C 14.409 21.520, 6.905 20.145, 4.824 14.389 C 3.570 10.923, 2 9.846, 2 12.453" stroke="none" fill="black" fill-rule="evenodd"/>
</svg>