<svg xmlns="http://www.w3.org/2000/svg" width="24" height="24" viewBox="0 0 24 24" version="1.1">
	<path d="M 20.459 1.208 C 19.336 1.047, 18.080 1.254, 17.666 1.667 C 17.253 2.080, 15.165 2.292, 13.025 2.138 C 10.886 1.983, 8.210 2.352, 7.078 2.958 C 5.947 3.564, 4.341 5.374, 3.510 6.980 C 2.680 8.586, 2 10.845, 2 12 C 2 13.155, 2.641 15.339, 3.425 16.855 C 4.209 18.371, 6.030 20.148, 7.472 20.805 C 8.914 21.462, 10.952 22, 12 22 C 13.048 22, 15.086 21.462, 16.528 20.805 C 17.970 20.148, 19.791 18.371, 20.575 16.855 C 21.359 15.339, 22 13.402, 22 12.550 C 22 11.697, 21.640 11, 21.201 11 C 20.761 11, 19.850 12.525, 19.176 14.389 C 18.383 16.582, 16.901 18.212, 14.975 19.010 C 12.642 19.977, 11.372 19.982, 9.086 19.036 C 7.483 18.372, 5.657 16.586, 5.028 15.068 C 4.399 13.550, 4.187 11.103, 4.557 9.630 C 4.926 8.158, 6.177 6.289, 7.337 5.477 C 8.496 4.665, 10.513 4, 11.818 4 C 13.123 4, 15.448 4.742, 16.984 5.650 C 18.520 6.557, 20.534 7.009, 21.459 6.654 C 22.506 6.252, 23.019 5.158, 22.820 3.754 C 22.626 2.385, 21.699 1.385, 20.459 1.208 M 20 3 C 19.450 3, 19 3.450, 19 4 C 19 4.550, 19.450 5, 20 5 C 20.550 5, 21 4.550, 21 4 C 21 3.450, 20.550 3, 20 3" stroke="none" fill="black" fill-rule="evenodd"/>
</svg>