<svg xmlns="http://www.w3.org/2000/svg" width="24" height="24" viewBox="0 0 24 24" version="1.1">
	<path d="M 13 2.524 C 11.075 2.219, 8.600 2.483, 7.500 3.110 C 6.400 3.736, 4.938 4.954, 4.250 5.815 C 3.563 6.677, 3 8.079, 3 8.931 C 3 10.018, 3.754 9.667, 5.530 7.751 C 6.921 6.251, 9.123 4.756, 10.422 4.430 C 11.761 4.094, 14.131 4.533, 15.892 5.444 C 17.602 6.328, 19 7.490, 19 8.026 C 19 8.562, 17.650 9, 16 9 C 14.350 9, 13 8.550, 13 8 C 13 7.450, 12.550 7, 12 7 C 11.450 7, 11 8.350, 11 10 C 11 11.650, 11.412 13, 11.917 13 C 12.421 13, 12.983 12.561, 13.167 12.025 C 13.350 11.488, 15.862 10.967, 18.750 10.866 C 21.638 10.765, 24 10.359, 24 9.964 C 24 9.568, 23.325 8.685, 22.500 8 C 21.675 7.315, 21 5.958, 21 4.983 C 21 3.833, 20.211 3.188, 18.750 3.144 C 17.512 3.107, 14.925 2.828, 13 2.524 M 0.845 13 C 0.380 13, 0 13.403, 0 13.896 C 0 14.389, 1.583 16.183, 3.518 17.882 C 5.453 19.581, 8.153 21.251, 9.518 21.594 C 10.883 21.937, 13.136 21.932, 14.525 21.583 C 15.914 21.234, 17.939 20.061, 19.025 18.975 C 20.111 17.889, 21 16.217, 21 15.260 C 21 13.868, 20.495 14.065, 18.470 16.249 C 17.079 17.749, 14.877 19.244, 13.578 19.570 C 12.279 19.896, 9.928 19.497, 8.355 18.684 C 6.782 17.870, 4.639 16.259, 3.593 15.102 C 2.546 13.946, 1.310 13, 0.845 13 M 12 15 C 11.450 15, 11 15.450, 11 16 C 11 16.550, 11.450 17, 12 17 C 12.550 17, 13 16.550, 13 16 C 13 15.450, 12.550 15, 12 15" stroke="none" fill="black" fill-rule="evenodd"/>
</svg>