<svg xmlns="http://www.w3.org/2000/svg" width="24" height="24" viewBox="0 0 24 24" version="1.1">
	<path d="M 12.110 2.030 C 10.675 2.047, 8.600 2.553, 7.500 3.155 C 6.400 3.756, 4.938 4.954, 4.250 5.815 C 3.563 6.677, 3 8.079, 3 8.931 C 3 10.018, 3.754 9.667, 5.530 7.751 C 6.921 6.251, 9.123 4.756, 10.422 4.430 C 11.751 4.097, 14.117 4.526, 15.829 5.412 C 17.503 6.277, 19.153 7.439, 19.496 7.993 C 19.838 8.547, 19.191 9, 18.059 9 C 16.927 9, 16 9.450, 16 10 C 16 10.550, 17.800 11, 20 11 L 24 11 24 7 C 24 4.800, 23.550 3, 23 3 C 22.450 3, 22 3.886, 22 4.970 C 22 6.838, 21.812 6.812, 18.360 4.470 C 16.359 3.111, 13.546 2.014, 12.110 2.030 M 4 13 L 0 13 0 17 C 0 19.200, 0.450 21, 1 21 C 1.550 21, 2 20.114, 2 19.030 C 2 17.162, 2.188 17.188, 5.640 19.530 C 7.641 20.889, 10.364 22, 11.689 22 C 13.015 22, 15.372 21.342, 16.928 20.537 C 18.485 19.732, 20.037 18.346, 20.379 17.455 C 20.720 16.565, 21 15.315, 21 14.678 C 21 14.042, 19.862 14.748, 18.470 16.249 C 17.079 17.749, 14.877 19.244, 13.578 19.570 C 12.249 19.903, 9.883 19.474, 8.171 18.588 C 6.497 17.723, 4.847 16.561, 4.504 16.007 C 4.162 15.453, 4.809 15, 5.941 15 C 7.073 15, 8 14.550, 8 14 C 8 13.450, 6.200 13, 4 13" stroke="none" fill="black" fill-rule="evenodd"/>
</svg>