<svg viewBox="0 0 24 24" xmlns="http://www.w3.org/2000/svg" fill="none" stroke="#000000" stroke-width="2" stroke-linecap="round" stroke-linejoin="round"><path d="M19.499 1.040 C 18.399 1.240,17.459 2.052,17.140 3.081 L 17.071 3.302 16.566 3.044 C 15.462 2.482,14.493 2.179,13.280 2.016 C 12.614 1.926,11.392 1.927,10.720 2.017 C 7.451 2.454,4.640 4.418,3.125 7.324 C 2.025 9.434,1.718 11.976,2.285 14.279 C 2.617 15.627,3.202 16.860,4.045 17.988 C 4.426 18.497,5.431 19.503,5.942 19.884 C 9.636 22.647,14.593 22.600,18.200 19.767 C 18.635 19.426,19.421 18.647,19.795 18.187 C 21.124 16.553,21.965 14.278,21.977 12.280 C 21.980 11.719,21.976 11.694,21.872 11.516 C 21.533 10.940,20.781 10.835,20.305 11.297 C 20.083 11.513,20.012 11.730,19.979 12.300 C 19.874 14.082,19.300 15.598,18.221 16.940 C 16.199 19.456,12.843 20.511,9.760 19.600 C 8.501 19.228,7.430 18.608,6.492 17.705 C 5.746 16.988,5.260 16.328,4.838 15.460 C 4.258 14.265,4.029 13.283,4.024 11.960 C 4.020 10.651,4.257 9.581,4.803 8.460 C 5.852 6.303,7.727 4.779,10.086 4.165 C 11.224 3.870,12.702 3.869,13.900 4.165 C 15.278 4.504,16.417 5.130,17.549 6.170 C 17.881 6.475,18.119 6.600,18.368 6.600 C 18.431 6.600,18.568 6.643,18.672 6.696 C 19.104 6.915,19.418 6.980,20.020 6.977 C 20.508 6.974,20.620 6.961,20.887 6.872 C 21.852 6.552,22.585 5.807,22.886 4.840 C 23.021 4.406,23.021 3.594,22.886 3.160 C 22.581 2.179,21.810 1.407,20.861 1.129 C 20.500 1.023,19.832 0.980,19.499 1.040 M20.310 3.061 C 20.688 3.173,21.000 3.598,21.000 4.001 C 21.000 4.331,20.784 4.696,20.484 4.872 C 20.328 4.963,20.254 4.980,20.000 4.980 C 19.746 4.980,19.672 4.963,19.516 4.872 C 18.935 4.530,18.833 3.774,19.304 3.303 C 19.583 3.024,19.916 2.944,20.310 3.061 " stroke="none" fill-rule="evenodd" fill="black"></path></svg>