<svg xmlns="http://www.w3.org/2000/svg" width="24" height="24" viewBox="0 0 24 24" version="1.1">
	<path d="M 17.666 1.667 C 17.253 2.080, 15.165 2.292, 13.025 2.138 C 10.886 1.983, 8.210 2.352, 7.078 2.958 C 4.669 4.248, 2 9, 2 12 C 2 17.111, 6.889 22, 12 22 C 16.850 22, 22 17.133, 22 12.550 C 22 9.858, 20.449 10.868, 19.176 14.389 C 16.777 21.023, 7.676 21.460, 5.028 15.068 C 1.809 7.297, 9.508 1.233, 16.984 5.650 C 20.479 7.714, 23.254 6.813, 22.820 3.754 C 22.500 1.498, 19.180 0.154, 17.666 1.667 M 19 4 C 19 4.550, 19.450 5, 20 5 C 20.550 5, 21 4.550, 21 4 C 21 3.450, 20.550 3, 20 3 C 19.450 3, 19 3.450, 19 4" stroke="none" fill="#000000" fill-rule="evenodd"/>
</svg>