<svg xmlns="http://www.w3.org/2000/svg" width="24" height="24" viewBox="0 0 24 24" version="1.1">
	<path d="M 12.110 2.035 C 10.675 2.055, 8.425 2.667, 7.110 3.396 C 5.796 4.124, 4.124 5.796, 3.396 7.110 C 2.667 8.425, 2.055 10.535, 2.035 11.800 C 2.016 13.064, 2.641 15.339, 3.425 16.855 C 4.209 18.371, 6.030 20.148, 7.472 20.805 C 8.914 21.462, 10.995 22, 12.097 22 C 13.198 22, 15.372 21.342, 16.928 20.537 C 18.485 19.732, 20.037 18.346, 20.379 17.455 C 20.720 16.565, 21 15.315, 21 14.678 C 21 14.042, 19.889 14.719, 18.531 16.183 C 17.173 17.647, 15.115 19.146, 13.957 19.513 C 12.800 19.881, 10.574 19.652, 9.012 19.005 C 7.450 18.358, 5.628 16.517, 4.964 14.914 C 4.022 12.638, 4.022 11.362, 4.964 9.086 C 5.631 7.476, 7.476 5.631, 9.086 4.964 C 11.370 4.018, 12.641 4.023, 14.967 4.986 C 16.599 5.662, 18.454 6.842, 19.089 7.608 C 20.015 8.723, 19.823 9, 18.122 9 C 16.955 9, 16 9.450, 16 10 C 16 10.550, 17.800 11, 20 11 L 24 11 24 7 C 24 4.800, 23.550 3, 23 3 C 22.450 3, 22 3.886, 22 4.970 C 22 6.838, 21.812 6.812, 18.360 4.470 C 16.359 3.111, 13.546 2.016, 12.110 2.035" stroke="none" fill="black" fill-rule="evenodd"/>
</svg>