<svg xmlns="http://www.w3.org/2000/svg" width="24" height="24" viewBox="0 0 24 24" version="1.1">
	<path d="M 7.500 3.155 C 4.879 4.588, 3 7, 3 8.931 C 3 10.018, 3.754 9.667, 5.530 7.751 C 8.833 4.189, 12.051 3.458, 15.829 5.412 C 19.716 7.422, 20.697 9, 18.059 9 C 16.927 9, 16 9.450, 16 10 C 16 10.550, 17.800 11, 20 11 L 24 11 24 7 C 24 4.800, 23.550 3, 23 3 C 22.450 3, 22 3.886, 22 4.970 C 22 6.838, 21.812 6.812, 18.360 4.470 C 14.475 1.833, 10.742 1.381, 7.500 3.155 M 0 17 C 0 19.200, 0.450 21, 1 21 C 1.550 21, 2 20.114, 2 19.030 C 2 17.162, 2.188 17.188, 5.640 19.530 C 7.641 20.889, 10.364 22, 11.689 22 C 14.831 22, 19.590 19.511, 20.379 17.455 C 21.669 14.092, 20.913 13.614, 18.470 16.249 C 15.167 19.811, 11.949 20.542, 8.171 18.588 C 4.284 16.578, 3.303 15, 5.941 15 C 7.073 15, 8 14.550, 8 14 C 8 13.450, 6.200 13, 4 13 L 0 13 0 17" stroke="none" fill="#000000" fill-rule="evenodd"/>
</svg>