<svg xmlns="http://www.w3.org/2000/svg" width="24" height="24" viewBox="0 0 24 24" version="1.1">
	<path d="M 7.500 3.110 C 4.857 4.615, 3 7.017, 3 8.931 C 3 10.018, 3.754 9.667, 5.530 7.751 C 8.851 4.170, 12.050 3.457, 15.892 5.444 C 19.826 7.479, 19.872 9, 16 9 C 14.350 9, 13 8.550, 13 8 C 13 7.450, 12.550 7, 12 7 C 11.450 7, 11 8.350, 11 10 C 11 12.822, 12.436 14.164, 13.167 12.025 C 13.350 11.488, 15.862 10.967, 18.750 10.866 C 24.232 10.675, 25.008 10.082, 22.500 8 C 21.675 7.315, 21 5.958, 21 4.983 C 21 3.833, 20.211 3.188, 18.750 3.144 C 17.512 3.107, 14.925 2.828, 13 2.524 C 11.075 2.219, 8.600 2.483, 7.500 3.110 M 0 13.896 C 0 15.380, 6.858 20.926, 9.518 21.594 C 14.490 22.842, 21 19.250, 21 15.260 C 21 13.868, 20.495 14.065, 18.470 16.249 C 17.079 17.749, 14.877 19.244, 13.578 19.570 C 10.909 20.240, 6.428 18.235, 3.593 15.102 C 1.604 12.905, 0 12.367, 0 13.896 M 11 16 C 11 16.550, 11.450 17, 12 17 C 12.550 17, 13 16.550, 13 16 C 13 15.450, 12.550 15, 12 15 C 11.450 15, 11 15.450, 11 16" stroke="none" fill="#000000" fill-rule="evenodd"/>
</svg>