<svg xmlns="http://www.w3.org/2000/svg" width="24" height="24" viewBox="0 0 24 24" version="1.1">
	<path d="M 16.826 0 C 16.372 0, 16 0.360, 16 0.800 C 16 1.240, 16.540 2.140, 17.200 2.800 C 18.133 3.733, 16.927 4, 11.771 4 C 7.079 4, 4.684 4.459, 3.571 5.571 C 2.707 6.436, 2 8.236, 2 9.571 C 2 10.907, 2.450 12, 3 12 C 3.550 12, 4 11.190, 4 10.200 C 4 9.210, 4.540 7.860, 5.200 7.200 C 5.863 6.537, 9.049 6, 12.322 6 C 17.515 6, 18.089 6.188, 16.980 7.524 C 16.284 8.362, 16.018 9.351, 16.388 9.721 C 16.758 10.091, 18.262 9.193, 19.730 7.724 L 22.400 5.055 20.026 2.527 C 18.720 1.137, 17.280 0, 16.826 0 M 21 12 C 20.450 12, 20 12.810, 20 13.800 C 20 14.790, 19.460 16.140, 18.800 16.800 C 18.137 17.463, 14.951 18, 11.678 18 C 6.485 18, 5.911 17.812, 7.020 16.476 C 7.716 15.638, 7.982 14.649, 7.612 14.279 C 7.242 13.909, 5.726 14.820, 4.242 16.303 L 1.545 19 4.242 21.697 C 5.726 23.180, 7.242 24.091, 7.612 23.721 C 7.982 23.351, 7.716 22.362, 7.020 21.524 C 5.909 20.185, 6.550 20, 12.306 20 C 16.928 20, 19.320 19.537, 20.429 18.429 C 21.293 17.564, 22 15.764, 22 14.429 C 22 13.093, 21.550 12, 21 12" stroke="none" fill="black" fill-rule="evenodd"/>
</svg>