<svg xmlns="http://www.w3.org/2000/svg" width="24" height="24" viewBox="0 0 24 24" version="1.1">
	<path d="M 16 0.800 C 16 1.240, 16.540 2.140, 17.200 2.800 C 18.133 3.733, 16.927 4, 11.771 4 C 7.079 4, 4.684 4.459, 3.571 5.571 C 1.837 7.306, 1.419 12, 3 12 C 3.550 12, 4 11.190, 4 10.200 C 4 7.104, 6.188 6, 12.322 6 C 17.515 6, 18.089 6.188, 16.980 7.524 C 14.690 10.284, 17.002 10.452, 19.730 7.724 L 22.400 5.055 20.026 2.527 C 17.652 0.001, 16 -0.708, 16 0.800 M 20 13.800 C 20 16.896, 17.812 18, 11.678 18 C 6.485 18, 5.911 17.812, 7.020 16.476 C 9.323 13.701, 6.990 13.555, 4.242 16.303 L 1.545 19 4.242 21.697 C 6.990 24.445, 9.323 24.299, 7.020 21.524 C 5.909 20.185, 6.550 20, 12.306 20 C 16.928 20, 19.320 19.537, 20.429 18.429 C 22.163 16.694, 22.581 12, 21 12 C 20.450 12, 20 12.810, 20 13.800" stroke="none" fill="black" fill-rule="evenodd"/>
</svg>