<svg xmlns="http://www.w3.org/2000/svg" width="24" height="24" viewBox="0 0 24 24" version="1.1">
	<path d="M 11 1.940 C 11 2.456, 9.313 3.019, 7.250 3.190 L 3.500 3.500 3.500 13 L 3.500 22.500 12 22.500 L 20.500 22.500 20.500 13 L 20.500 3.500 16.750 3.190 C 14.688 3.019, 13 2.456, 13 1.940 C 13 1.423, 12.550 1, 12 1 C 11.450 1, 11 1.423, 11 1.940 M 5 10 L 5 15 12 15 L 19 15 19 10 L 19 5 12 5 L 5 5 5 10 M 7.065 8.422 C 5.042 10.859, 7.820 14, 12 14 C 16.467 14, 19.118 10.690, 16.638 8.209 C 15.353 6.925, 14.838 6.889, 13.508 7.994 C 12.302 8.995, 11.634 9.034, 10.758 8.158 C 9.244 6.644, 8.496 6.697, 7.065 8.422 M 5 19 C 5 20.810, 5.667 21, 12 21 C 18.333 21, 19 20.810, 19 19 C 19 17.190, 18.333 17, 12 17 C 5.667 17, 5 17.190, 5 19" stroke="none" fill="#000000" fill-rule="evenodd"/>
</svg>