<svg xmlns="http://www.w3.org/2000/svg" width="24" height="24" viewBox="0 0 24 24" version="1.1">
	<path d="M 16.500 1.945 C 15.400 2.396, 13.637 3.723, 12.582 4.896 C 11.404 6.206, 9.977 6.810, 8.883 6.463 C 6.871 5.824, 3 9.139, 3 11.500 C 3 12.459, 3.963 13, 5.671 13 C 7.140 13, 9.133 13.716, 10.100 14.590 C 11.100 15.496, 12.667 15.923, 13.739 15.583 C 17.133 14.505, 22.045 8.500, 22.667 4.665 C 23.214 1.293, 23.071 1.005, 20.881 1.063 C 19.571 1.098, 17.600 1.495, 16.500 1.945 M 17.418 3.969 C 16.274 4.432, 14.123 6.254, 12.639 8.017 C 10.548 10.502, 10.196 11.532, 11.075 12.591 C 12.955 14.856, 18.967 10.150, 20.452 5.250 C 21.182 2.845, 20.700 2.641, 17.418 3.969 M 6 10 C 6 10.550, 6.423 11, 6.941 11 C 7.459 11, 8.160 10.550, 8.500 10 C 8.840 9.450, 8.416 9, 7.559 9 C 6.702 9, 6 9.450, 6 10 M 2.571 18.168 C 0.762 22.471, 1.378 23.259, 5.299 21.660 C 9.291 20.031, 9.914 15.701, 6.232 15.178 C 4.471 14.928, 3.652 15.597, 2.571 18.168 M 4.459 18.067 C 4.096 18.653, 4.040 19.373, 4.333 19.667 C 5.050 20.383, 7 19.121, 7 17.941 C 7 16.663, 5.274 16.748, 4.459 18.067" stroke="none" fill="black" fill-rule="evenodd"/>
</svg>