<svg xmlns="http://www.w3.org/2000/svg" width="24" height="24" viewBox="0 0 24 24" version="1.1">
	<path d="M 20.881 1.063 C 19.571 1.098, 17.600 1.495, 16.500 1.945 C 15.400 2.396, 13.637 3.723, 12.582 4.896 C 11.404 6.206, 9.977 6.810, 8.883 6.463 C 7.821 6.126, 6.275 6.725, 5.051 7.949 C 3.923 9.077, 3 10.675, 3 11.500 C 3 12.459, 3.963 13, 5.671 13 C 7.140 13, 9.133 13.716, 10.100 14.590 C 11.100 15.496, 12.667 15.923, 13.739 15.583 C 14.775 15.254, 17.073 13.488, 18.847 11.658 C 20.785 9.658, 22.310 6.868, 22.667 4.665 C 23.214 1.293, 23.071 1.005, 20.881 1.063 M 20.317 3.063 C 19.868 3.098, 18.563 3.506, 17.418 3.969 C 16.274 4.432, 14.123 6.254, 12.639 8.017 C 10.548 10.502, 10.196 11.532, 11.075 12.591 C 11.831 13.501, 12.760 13.662, 13.855 13.071 C 14.760 12.583, 16.461 11.130, 17.635 9.842 C 18.809 8.554, 20.077 6.488, 20.452 5.250 C 20.828 4.012, 20.767 3.029, 20.317 3.063 M 7.559 9 C 6.702 9, 6 9.450, 6 10 C 6 10.550, 6.423 11, 6.941 11 C 7.459 11, 8.160 10.550, 8.500 10 C 8.840 9.450, 8.416 9, 7.559 9 M 6.232 15.178 C 4.471 14.928, 3.652 15.597, 2.571 18.168 C 1.805 19.990, 1.385 21.815, 1.638 22.223 C 1.890 22.632, 3.538 22.378, 5.299 21.660 C 7.662 20.695, 8.500 19.718, 8.500 17.927 C 8.500 16.166, 7.878 15.412, 6.232 15.178 M 6.059 17 C 5.541 17, 4.821 17.480, 4.459 18.067 C 4.096 18.653, 4.040 19.373, 4.333 19.667 C 4.627 19.960, 5.347 19.904, 5.933 19.541 C 6.520 19.179, 7 18.459, 7 17.941 C 7 17.423, 6.577 17, 6.059 17" stroke="none" fill="black" fill-rule="evenodd"/>
</svg>