<svg xmlns="http://www.w3.org/2000/svg" width="24" height="24" viewBox="0 0 24 24" version="1.1">
	<path d="M 12.750 9.214 L 3 8.928 3 12.964 C 3 15.184, 3.450 17, 4 17 C 4.550 17, 5 15.650, 5 14 C 5 11.067, 5.111 11, 10 11 C 14.889 11, 15 11.067, 15 14 C 15 15.650, 15.450 17, 16 17 C 16.550 17, 17 15.650, 17 14 C 17 11.667, 17.444 11, 19 11 C 20.667 11, 21 11.667, 21 15 C 21 18.778, 20.833 19, 18 19 C 16.350 19, 15 19.477, 15 20.060 C 15 20.674, 16.579 20.990, 18.750 20.810 L 22.500 20.500 22.500 15 L 22.500 9.500 12.750 9.214 M 8 15 C 7.450 15, 7 16.350, 7 18 C 7 19.650, 6.550 21, 6 21 C 5.450 21, 5 21.450, 5 22 C 5 22.550, 6.350 23, 8 23 C 9.650 23, 11 22.550, 11 22 C 11 21.450, 10.550 21, 10 21 C 9.450 21, 9 19.650, 9 18 C 9 16.350, 8.550 15, 8 15" stroke="none" fill="black" fill-rule="evenodd"/>
</svg>