<svg viewBox="0 0 24 24" xmlns="http://www.w3.org/2000/svg" fill="none" stroke="#000000" stroke-width="2" stroke-linecap="round" stroke-linejoin="round"><path d="M3.695 9.057 C 3.466 9.129,3.256 9.299,3.128 9.516 L 3.020 9.700 3.020 13.003 L 3.020 16.306 3.141 16.503 C 3.543 17.156,4.457 17.156,4.859 16.503 L 4.980 16.306 4.991 13.653 L 5.002 11.000 10.000 11.000 L 14.998 11.000 15.009 13.653 L 15.020 16.306 15.141 16.503 C 15.543 17.156,16.457 17.156,16.859 16.503 L 16.980 16.306 16.991 13.653 L 17.002 11.000 18.554 11.000 C 20.350 11.000,20.401 11.007,20.697 11.303 C 21.012 11.618,21.000 11.475,21.000 15.001 C 21.000 18.372,21.003 18.324,20.779 18.618 C 20.718 18.698,20.585 18.813,20.484 18.872 L 20.300 18.980 18.020 19.000 C 16.319 19.015,15.711 19.033,15.627 19.070 C 15.428 19.158,15.239 19.328,15.128 19.516 C 15.037 19.672,15.020 19.746,15.020 20.000 C 15.020 20.257,15.036 20.327,15.133 20.492 C 15.262 20.711,15.502 20.901,15.728 20.962 C 15.831 20.990,16.679 21.000,18.232 20.991 C 20.565 20.978,20.582 20.978,20.860 20.885 C 21.847 20.557,22.581 19.816,22.886 18.840 L 22.980 18.540 22.980 15.000 L 22.980 11.460 22.886 11.160 C 22.581 10.182,21.832 9.428,20.861 9.121 L 20.540 9.020 12.200 9.012 C 5.447 9.006,3.829 9.015,3.695 9.057 M7.695 15.057 C 7.466 15.129,7.256 15.299,7.128 15.516 L 7.020 15.700 7.009 18.350 L 6.998 21.000 6.445 21.000 C 5.648 21.000,5.367 21.110,5.128 21.516 C 5.037 21.672,5.020 21.746,5.020 22.000 C 5.020 22.256,5.036 22.328,5.131 22.489 C 5.256 22.702,5.449 22.864,5.670 22.943 C 5.889 23.021,10.111 23.021,10.330 22.943 C 10.551 22.864,10.744 22.702,10.869 22.489 C 10.964 22.328,10.980 22.256,10.980 22.000 C 10.980 21.746,10.963 21.672,10.872 21.516 C 10.633 21.110,10.352 21.000,9.555 21.000 L 9.002 21.000 8.991 18.350 L 8.980 15.700 8.872 15.516 C 8.628 15.101,8.150 14.915,7.695 15.057 " stroke="none" fill-rule="evenodd" fill="black"></path></svg>