<svg xmlns="http://www.w3.org/2000/svg" width="24" height="24" viewBox="0 0 24 24" version="1.1">
	<path d="M 5.640 4.470 C 2.188 6.812, 2 6.838, 2 4.970 C 2 3.886, 1.550 3, 1 3 C 0.450 3, 0 4.800, 0 7 L 0 11 4 11 C 6.200 11, 8 10.550, 8 10 C 8 9.450, 7.045 9, 5.878 9 C 4.177 9, 3.985 8.723, 4.911 7.608 C 7.196 4.854, 11.746 3.652, 14.914 4.964 C 21.089 7.522, 21.136 16.458, 14.988 19.005 C 11.467 20.463, 8.669 19.634, 5.469 16.183 C 3.080 13.606, 2.340 14.116, 3.621 17.455 C 4.366 19.396, 9.112 22, 11.903 22 C 21.938 22, 25.674 7.985, 16.855 3.425 C 12.883 1.371, 9.780 1.660, 5.640 4.470" stroke="none" fill="#000000" fill-rule="evenodd"/>
</svg>