<svg xmlns="http://www.w3.org/2000/svg" width="24" height="24" viewBox="0 0 24 24" version="1.1">
	<path d="M 7.110 3.396 C -1.614 8.231, 2.076 22, 12.097 22 C 14.888 22, 19.634 19.396, 20.379 17.455 C 21.660 14.116, 20.920 13.606, 18.531 16.183 C 15.331 19.634, 12.533 20.463, 9.012 19.005 C 2.864 16.458, 2.911 7.522, 9.086 4.964 C 12.254 3.652, 16.804 4.854, 19.089 7.608 C 20.015 8.723, 19.823 9, 18.122 9 C 16.955 9, 16 9.450, 16 10 C 16 10.550, 17.800 11, 20 11 L 24 11 24 7 C 24 4.800, 23.550 3, 23 3 C 22.450 3, 22 3.886, 22 4.970 C 22 6.838, 21.812 6.812, 18.360 4.470 C 14.330 1.735, 10.727 1.391, 7.110 3.396" stroke="none" fill="#000000" fill-rule="evenodd"/>
</svg>