<svg xmlns="http://www.w3.org/2000/svg" width="24" height="24" viewBox="0 0 24 24" version="1.1">
	<path d="M 6 5 C 5.450 5, 5 6.710, 5 8.800 C 5 10.890, 4.515 13.085, 3.922 13.678 C 3.329 14.271, 2.991 16.049, 3.172 17.628 L 3.500 20.500 12 20.500 L 20.500 20.500 20.828 17.628 C 21.009 16.049, 20.671 14.271, 20.078 13.678 C 19.485 13.085, 19 11.340, 19 9.800 C 19 8.260, 18.550 7, 18 7 C 17.450 7, 17 8.350, 17 10 C 17 11.650, 16.550 13, 16 13 C 15.450 13, 15 11.200, 15 9 C 15 6.800, 14.550 5, 14 5 C 13.450 5, 13 6.800, 13 9 C 13 11.200, 12.550 13, 12 13 C 11.450 13, 11 11.650, 11 10 C 11 8.350, 10.550 7, 10 7 C 9.450 7, 9 8.350, 9 10 C 9 11.650, 8.550 13, 8 13 C 7.450 13, 7 11.200, 7 9 C 7 6.800, 6.550 5, 6 5 M 12 15 C 5.667 15, 5 15.190, 5 17 C 5 18.810, 5.667 19, 12 19 C 18.333 19, 19 18.810, 19 17 C 19 15.190, 18.333 15, 12 15" stroke="none" fill="black" fill-rule="evenodd"/>
</svg>