<svg xmlns="http://www.w3.org/2000/svg" width="24" height="24" viewBox="0 0 24 24" version="1.1">
	<path d="M 4.445 4.355 C 1.192 7.608, 1.097 7.932, 1.295 15.105 L 1.500 22.500 12 22.500 L 22.500 22.500 22.705 15.105 C 22.903 7.932, 22.808 7.608, 19.555 4.355 C 16.813 1.613, 15.432 1, 12 1 C 8.568 1, 7.187 1.613, 4.445 4.355 M 8.465 3.914 C 5.775 5.054, 4.311 6.914, 3.472 10.256 C 3.031 12.012, 3.182 13, 3.892 13 C 4.501 13, 5 12.318, 5 11.484 C 5 9.791, 11.577 6.244, 12.677 7.344 C 13.063 7.730, 12.394 8.736, 11.190 9.580 C 8.029 11.793, 8.492 13, 12.500 13 C 14.881 13, 16 12.539, 16 11.559 C 16 9.163, 18.095 8.648, 18.684 10.899 C 18.986 12.055, 19.680 13, 20.225 13 C 21.659 13, 20.198 7.831, 18.183 5.774 C 16.128 3.676, 11.235 2.740, 8.465 3.914 M 3 18 L 3 21 12 21 L 21 21 21 18 L 21 15 12 15 L 3 15 3 18" stroke="none" fill="black" fill-rule="evenodd"/>
</svg>