<svg xmlns="http://www.w3.org/2000/svg" width="24" height="24" viewBox="0 0 24 24" version="1.1">
	<path d="M 12 1 C 8.568 1, 7.187 1.613, 4.445 4.355 C 1.192 7.608, 1.097 7.932, 1.295 15.105 L 1.500 22.500 12 22.500 L 22.500 22.500 22.705 15.105 C 22.903 7.932, 22.808 7.608, 19.555 4.355 C 16.813 1.613, 15.432 1, 12 1 M 13.497 3.550 C 11.848 3.276, 9.584 3.439, 8.465 3.914 C 7.346 4.388, 5.920 5.392, 5.296 6.144 C 4.671 6.896, 3.851 8.746, 3.472 10.256 C 3.031 12.012, 3.182 13, 3.892 13 C 4.501 13, 5 12.318, 5 11.484 C 5 10.650, 6.569 9.219, 8.487 8.305 C 10.406 7.390, 12.291 6.958, 12.677 7.344 C 13.063 7.730, 12.394 8.736, 11.190 9.580 C 9.985 10.423, 9 11.538, 9 12.057 C 9 12.576, 10.575 13, 12.500 13 C 14.881 13, 16 12.539, 16 11.559 C 16 10.766, 16.480 9.821, 17.067 9.458 C 17.655 9.095, 18.381 9.743, 18.684 10.899 C 18.986 12.055, 19.680 13, 20.225 13 C 20.803 13, 20.937 11.853, 20.545 10.250 C 20.176 8.738, 19.113 6.723, 18.183 5.774 C 17.254 4.825, 15.145 3.824, 13.497 3.550 M 12 15 L 3 15 3 18 L 3 21 12 21 L 21 21 21 18 L 21 15 12 15" stroke="none" fill="black" fill-rule="evenodd"/>
</svg>