<svg xmlns="http://www.w3.org/2000/svg" width="24" height="24" viewBox="0 0 24 24" version="1.1">
	<path d="M 4.445 4.355 C 1.192 7.608, 1.097 7.932, 1.295 15.105 L 1.500 22.500 12 22.500 L 22.500 22.500 22.811 18.172 C 23.071 14.563, 22.796 13.759, 21.154 13.330 C 20.071 13.047, 18.949 11.911, 18.660 10.807 C 18.089 8.625, 16 9.216, 16 11.559 C 16 12.539, 14.881 13, 12.500 13 C 8.492 13, 8.029 11.793, 11.190 9.580 C 12.394 8.736, 13.063 7.730, 12.677 7.344 C 11.577 6.244, 5 9.791, 5 11.484 C 5 12.318, 4.501 13, 3.892 13 C 2.428 13, 3.659 8.051, 5.682 5.807 C 6.521 4.875, 8.511 3.827, 10.104 3.477 C 13.706 2.686, 13.907 1, 10.400 1 C 8.783 1, 6.531 2.269, 4.445 4.355 M 3 18 L 3 21 12 21 L 21 21 21 18 L 21 15 12 15 L 3 15 3 18" stroke="none" fill="black" fill-rule="evenodd"/>
</svg>