<svg xmlns="http://www.w3.org/2000/svg" width="24" height="24" viewBox="0 0 24 24" version="1.1">
	<path d="M 12 1 C 11.450 1, 11 1.873, 11 2.941 C 11 4.009, 10.550 5.160, 10 5.500 C 9.450 5.840, 9 8.765, 9 12 C 9 15.235, 9.450 18.160, 10 18.500 C 10.550 18.840, 11 19.991, 11 21.059 C 11 22.127, 11.450 23, 12 23 C 12.550 23, 13 22.127, 13 21.059 C 13 19.991, 13.450 18.840, 14 18.500 C 14.550 18.160, 15 15.235, 15 12 C 15 8.765, 14.550 5.840, 14 5.500 C 13.450 5.160, 13 4.009, 13 2.941 C 13 1.873, 12.550 1, 12 1 M 12 7 C 11.450 7, 11 9.250, 11 12 C 11 14.750, 11.450 17, 12 17 C 12.550 17, 13 14.750, 13 12 C 13 9.250, 12.550 7, 12 7" stroke="none" fill="black" fill-rule="evenodd"/>
</svg>