<svg viewBox="0 0 24 24" xmlns="http://www.w3.org/2000/svg" fill="none" stroke="#000000" stroke-width="2" stroke-linecap="round" stroke-linejoin="round"><path d="M11.695 1.057 C 11.466 1.129,11.256 1.299,11.128 1.516 L 11.020 1.700 11.000 3.427 L 10.980 5.153 10.660 5.317 C 9.919 5.698,9.364 6.359,9.114 7.160 L 9.020 7.460 9.020 12.000 L 9.020 16.540 9.114 16.840 C 9.364 17.641,9.929 18.314,10.660 18.684 L 10.980 18.845 11.000 20.576 L 11.020 22.306 11.141 22.503 C 11.543 23.156,12.457 23.156,12.859 22.503 L 12.980 22.306 13.000 20.576 L 13.020 18.845 13.340 18.684 C 14.071 18.314,14.636 17.641,14.886 16.840 L 14.980 16.540 14.980 12.000 L 14.980 7.460 14.886 7.160 C 14.636 6.359,14.081 5.698,13.340 5.317 L 13.020 5.153 13.000 3.427 L 12.980 1.700 12.872 1.516 C 12.628 1.101,12.150 0.915,11.695 1.057 M12.310 7.061 C 12.589 7.144,12.856 7.411,12.939 7.690 C 12.992 7.867,13.000 8.441,13.000 12.001 C 13.000 16.458,13.007 16.319,12.779 16.618 C 12.718 16.698,12.585 16.813,12.484 16.872 C 12.328 16.963,12.254 16.980,12.000 16.980 C 11.746 16.980,11.672 16.963,11.516 16.872 C 11.415 16.813,11.284 16.700,11.225 16.623 C 10.990 16.315,11.000 16.515,11.000 12.022 C 11.000 7.356,10.983 7.624,11.304 7.303 C 11.583 7.024,11.916 6.944,12.310 7.061 " stroke="none" fill-rule="evenodd" fill="black"></path></svg>