<svg viewBox="0 0 24 24" xmlns="http://www.w3.org/2000/svg" fill="none" stroke="#000000" stroke-width="2" stroke-linecap="round" stroke-linejoin="round"><path d="M6.466 1.039 C 5.969 1.130,5.514 1.311,5.080 1.593 C 4.837 1.751,2.067 4.478,1.761 4.860 C 0.812 6.047,0.747 7.605,1.592 8.920 C 1.757 9.177,14.412 21.874,14.875 22.247 C 16.125 23.253,17.873 23.253,19.125 22.247 C 19.498 21.946,22.178 19.248,22.368 18.980 C 23.253 17.735,23.204 16.063,22.246 14.875 C 22.115 14.713,20.693 13.267,19.085 11.661 L 16.162 8.742 16.259 8.641 C 16.399 8.495,16.486 8.257,16.489 8.020 C 16.492 7.600,16.500 7.610,14.985 6.086 C 14.057 5.151,13.526 4.646,13.420 4.597 C 13.094 4.444,12.548 4.525,12.343 4.755 L 12.266 4.842 10.703 3.289 C 8.907 1.504,8.741 1.375,7.932 1.138 C 7.543 1.023,6.821 0.975,6.466 1.039 M7.618 3.157 C 7.832 3.263,8.601 4.019,14.324 9.748 C 21.578 17.011,20.978 16.357,20.979 17.000 C 20.981 17.593,20.977 17.598,19.348 19.233 C 18.574 20.010,17.864 20.700,17.770 20.765 C 17.324 21.077,16.676 21.077,16.230 20.765 C 16.136 20.699,13.169 17.751,9.636 14.213 C 2.424 6.991,3.025 7.646,3.023 7.000 C 3.021 6.404,3.021 6.403,4.672 4.747 C 5.457 3.959,6.180 3.267,6.277 3.209 C 6.689 2.965,7.191 2.945,7.618 3.157 M10.240 7.035 C 9.784 7.184,9.512 7.546,9.512 8.003 C 9.512 8.412,9.551 8.461,11.086 9.985 C 12.610 11.500,12.600 11.492,13.020 11.489 C 13.712 11.482,14.197 10.743,13.917 10.120 C 13.858 9.986,13.484 9.586,12.468 8.567 C 11.691 7.788,11.032 7.159,10.943 7.113 C 10.772 7.024,10.399 6.983,10.240 7.035 M7.600 9.584 C 7.120 9.791,6.872 10.411,7.083 10.880 C 7.202 11.147,9.820 13.770,10.100 13.904 C 10.363 14.029,10.636 14.030,10.900 13.905 C 11.273 13.728,11.485 13.410,11.489 13.020 C 11.492 12.600,11.500 12.610,9.985 11.086 C 9.057 10.151,8.526 9.646,8.420 9.597 C 8.222 9.504,7.799 9.498,7.600 9.584 " stroke="none" fill-rule="evenodd" fill="black"></path></svg>