<svg viewBox="0 0 24 24" xmlns="http://www.w3.org/2000/svg" fill="none" stroke="#000000" stroke-width="2" stroke-linecap="round" stroke-linejoin="round"><path d="M14.695 1.057 C 14.466 1.129,14.256 1.299,14.128 1.516 L 14.020 1.700 14.008 3.350 L 13.997 5.000 12.945 5.000 C 11.797 5.000,11.643 5.022,11.382 5.221 C 11.302 5.282,11.187 5.415,11.128 5.516 C 11.037 5.672,11.020 5.746,11.020 6.000 C 11.020 6.256,11.036 6.328,11.131 6.489 C 11.192 6.592,11.304 6.725,11.381 6.783 C 11.643 6.983,11.738 6.996,12.910 6.998 L 14.000 7.000 14.000 8.000 L 14.000 9.000 11.946 9.000 C 10.322 9.000,9.855 9.011,9.710 9.055 C 9.045 9.255,8.788 10.054,9.211 10.604 C 9.327 10.756,9.565 10.914,9.780 10.983 C 9.845 11.003,9.829 11.018,9.695 11.059 C 9.467 11.128,9.256 11.298,9.128 11.516 L 9.020 11.700 9.020 13.503 L 9.020 15.306 9.141 15.503 C 9.543 16.156,10.457 16.156,10.859 15.503 C 10.975 15.314,10.981 15.284,11.000 14.743 C 11.012 14.410,11.031 14.229,11.047 14.300 C 11.089 14.487,11.298 14.744,11.508 14.867 L 11.700 14.980 12.850 14.992 L 14.000 15.005 14.000 16.002 L 14.000 17.000 11.946 17.000 C 9.717 17.000,9.666 17.004,9.382 17.221 C 9.302 17.282,9.187 17.415,9.128 17.516 C 9.037 17.672,9.020 17.746,9.020 18.000 C 9.020 18.256,9.036 18.328,9.131 18.489 C 9.256 18.702,9.449 18.864,9.670 18.943 C 9.788 18.985,10.269 18.997,11.910 18.998 L 14.000 19.000 14.000 19.500 L 14.000 20.000 7.946 20.000 C 2.933 20.000,1.861 20.009,1.710 20.055 C 1.467 20.128,1.260 20.293,1.128 20.516 C 1.037 20.672,1.020 20.746,1.020 21.000 C 1.020 21.257,1.036 21.327,1.133 21.492 C 1.261 21.709,1.502 21.901,1.722 21.961 C 1.821 21.987,4.165 21.997,8.586 21.990 L 15.300 21.980 15.492 21.867 C 15.709 21.739,15.901 21.498,15.960 21.278 C 15.987 21.180,15.997 17.831,15.990 11.415 L 15.980 1.700 15.872 1.516 C 15.628 1.101,15.150 0.915,14.695 1.057 M5.695 9.057 C 5.466 9.129,5.256 9.299,5.128 9.516 L 5.020 9.700 5.020 12.503 L 5.020 15.306 5.141 15.503 C 5.543 16.156,6.457 16.156,6.859 15.503 L 6.980 15.306 6.980 12.503 L 6.980 9.700 6.872 9.516 C 6.628 9.101,6.150 8.915,5.695 9.057 M1.695 11.057 C 1.466 11.129,1.256 11.299,1.128 11.516 L 1.020 11.700 1.020 13.503 L 1.020 15.306 1.141 15.503 C 1.543 16.156,2.457 16.156,2.859 15.503 L 2.980 15.306 2.980 13.503 L 2.980 11.700 2.872 11.516 C 2.628 11.101,2.150 10.915,1.695 11.057 M14.000 12.000 L 14.000 13.000 12.946 13.000 C 11.797 13.000,11.644 13.022,11.382 13.221 C 11.230 13.337,11.046 13.612,11.032 13.744 C 11.027 13.786,11.014 13.343,11.002 12.760 L 10.980 11.700 10.872 11.516 C 10.744 11.299,10.534 11.129,10.305 11.057 C 10.165 11.013,10.430 11.005,12.070 11.003 L 14.000 11.000 14.000 12.000 " stroke="none" fill-rule="evenodd" fill="black"></path></svg>