<svg xmlns="http://www.w3.org/2000/svg" width="24" height="24" viewBox="0 0 24 24" version="1.1">
	<path d="M 7.099 1 C 6.137 1, 4.370 2.042, 3.174 3.314 C 1.978 4.587, 1 6.264, 1 7.041 C 1 7.818, 4.251 11.726, 8.225 15.726 C 12.199 19.727, 16.170 23, 17.051 23 C 17.931 23, 19.630 21.958, 20.826 20.686 C 22.022 19.413, 23 17.704, 23 16.888 C 23 16.072, 19.816 12.163, 15.925 8.202 C 12.034 4.241, 8.062 1, 7.099 1 M 7 3 C 6.620 3, 5.495 3.900, 4.500 5 C 2.761 6.922, 2.760 7.077, 4.479 8.976 C 5.462 10.063, 6.677 10.700, 7.177 10.390 C 7.678 10.081, 8.763 10.389, 9.589 11.074 C 10.415 11.760, 10.881 12.869, 10.623 13.539 C 10.366 14.210, 11.701 16.257, 13.591 18.088 L 17.026 21.418 19.222 19.222 L 21.418 17.026 18.088 13.591 C 16.257 11.701, 14.210 10.366, 13.539 10.623 C 12.869 10.881, 11.734 10.385, 11.018 9.521 C 10.301 8.658, 10.005 7.662, 10.360 7.307 C 10.714 6.952, 10.259 5.838, 9.347 4.831 C 8.436 3.824, 7.380 3, 7 3" stroke="none" fill="black" fill-rule="evenodd"/>
</svg>