<svg xmlns="http://www.w3.org/2000/svg" width="24" height="24" viewBox="0 0 24 24" version="1.1">
	<path d="M 3.174 3.314 C 1.978 4.587, 1 6.264, 1 7.041 C 1 8.998, 15.082 23, 17.051 23 C 19.020 23, 23 18.911, 23 16.888 C 23 14.782, 9.207 1, 7.099 1 C 6.137 1, 4.370 2.042, 3.174 3.314 M 4.500 5 C 2.761 6.922, 2.760 7.077, 4.479 8.976 C 5.462 10.063, 6.677 10.700, 7.177 10.390 C 8.467 9.593, 11.185 12.076, 10.623 13.539 C 10.366 14.210, 11.701 16.257, 13.591 18.088 L 17.026 21.418 19.222 19.222 L 21.418 17.026 18.088 13.591 C 16.257 11.701, 14.210 10.366, 13.539 10.623 C 12.143 11.159, 9.385 8.282, 10.360 7.307 C 11.034 6.633, 8.199 3, 7 3 C 6.620 3, 5.495 3.900, 4.500 5" stroke="none" fill="#000000" fill-rule="evenodd"/>
</svg>