<svg xmlns="http://www.w3.org/2000/svg" width="24" height="24" viewBox="0 0 24 24" version="1.1">
	<path d="M 14 3 C 14 4.111, 13.333 5, 12.500 5 C 11.675 5, 11 5.450, 11 6 C 11 6.550, 11.675 7, 12.500 7 C 13.325 7, 14 7.450, 14 8 C 14 8.550, 12.875 9, 11.500 9 C 9.307 9, 9 9.432, 9 12.519 C 9 15.773, 9.188 15.991, 11.500 15.411 C 13.040 15.024, 14 15.209, 14 15.892 C 14 16.501, 12.875 17, 11.500 17 C 8.121 17, 8.314 18.763, 11.750 19.284 C 13.262 19.513, 11.463 19.768, 7.750 19.850 C -1.585 20.057, -0.907 22, 8.500 22 L 16 22 16 11.500 C 16 5.167, 15.603 1, 15 1 C 14.450 1, 14 1.900, 14 3 M 5 12.500 C 5 14.425, 5.450 16, 6 16 C 6.550 16, 7 14.425, 7 12.500 C 7 10.575, 6.550 9, 6 9 C 5.450 9, 5 10.575, 5 12.500 M 1 13.500 C 1 14.875, 1.450 16, 2 16 C 2.550 16, 3 14.875, 3 13.500 C 3 12.125, 2.550 11, 2 11 C 1.450 11, 1 12.125, 1 13.500 M 11 12 C 11 12.550, 11.675 13, 12.500 13 C 13.325 13, 14 12.550, 14 12 C 14 11.450, 13.325 11, 12.500 11 C 11.675 11, 11 11.450, 11 12" stroke="none" fill="#000000" fill-rule="evenodd"/>
</svg>