<svg viewBox="0 0 24 24" xmlns="http://www.w3.org/2000/svg" fill="none" stroke="#000000" stroke-width="2" stroke-linecap="round" stroke-linejoin="round"><path d="M11.499 2.040 C 10.363 2.246,9.460 3.049,9.114 4.160 C 8.979 4.594,8.979 5.406,9.114 5.840 C 9.421 6.826,10.174 7.579,11.160 7.886 C 11.594 8.021,12.406 8.021,12.840 7.886 C 13.826 7.579,14.579 6.826,14.886 5.840 C 15.021 5.406,15.021 4.594,14.886 4.160 C 14.581 3.179,13.810 2.407,12.861 2.129 C 12.500 2.023,11.832 1.980,11.499 2.040 M12.310 4.061 C 12.688 4.173,13.000 4.598,13.000 5.001 C 13.000 5.331,12.784 5.696,12.484 5.872 C 12.328 5.963,12.254 5.980,12.000 5.980 C 11.746 5.980,11.672 5.963,11.516 5.872 C 10.935 5.530,10.833 4.774,11.304 4.303 C 11.583 4.024,11.916 3.944,12.310 4.061 M13.760 8.025 C 13.727 8.037,12.529 8.514,11.097 9.084 L 8.495 10.122 8.322 10.061 C 8.100 9.982,7.903 9.984,7.657 10.065 C 7.479 10.124,7.252 10.338,5.347 12.235 C 4.185 13.393,3.189 14.416,3.134 14.508 C 2.862 14.968,3.032 15.587,3.508 15.867 C 3.673 15.964,3.742 15.980,4.000 15.979 C 4.212 15.979,4.341 15.957,4.440 15.905 C 4.517 15.865,5.286 15.128,6.149 14.268 C 7.011 13.408,7.725 12.712,7.734 12.722 C 7.744 12.732,8.070 13.379,8.460 14.160 C 9.229 15.699,9.306 15.813,9.664 15.935 C 9.897 16.014,10.100 16.018,10.305 15.945 C 10.390 15.915,10.804 15.683,11.225 15.429 L 11.991 14.968 12.016 15.157 C 12.045 15.374,12.218 15.670,12.385 15.789 C 12.448 15.834,13.446 16.343,14.602 16.921 C 16.910 18.073,16.914 18.075,17.322 17.939 C 17.557 17.861,17.861 17.591,17.903 17.422 C 17.917 17.366,17.940 17.320,17.955 17.320 C 17.969 17.320,18.058 17.419,18.152 17.539 C 18.364 17.810,18.607 17.958,18.888 17.987 C 19.447 18.044,19.931 17.657,19.988 17.107 C 20.031 16.684,20.056 16.720,17.764 13.856 C 15.374 10.869,15.524 11.020,14.970 11.020 C 14.810 11.020,14.680 11.014,14.680 11.007 C 14.680 11.000,14.752 10.565,14.840 10.040 C 15.020 8.964,15.023 8.923,14.939 8.675 C 14.809 8.293,14.457 8.034,14.040 8.013 C 13.919 8.007,13.793 8.012,13.760 8.025 M12.696 10.750 C 12.683 10.832,12.615 11.233,12.546 11.640 L 12.420 12.380 11.441 12.970 C 10.902 13.295,10.447 13.560,10.431 13.560 C 10.384 13.560,9.546 11.865,9.586 11.850 C 9.604 11.842,10.304 11.560,11.140 11.222 C 11.976 10.884,12.674 10.606,12.690 10.604 C 12.707 10.602,12.710 10.668,12.696 10.750 M15.702 14.480 C 16.203 15.107,16.631 15.644,16.655 15.674 C 16.678 15.704,16.115 15.438,15.404 15.082 L 14.111 14.435 14.137 14.268 C 14.244 13.577,14.221 13.629,14.493 13.468 C 14.629 13.387,14.752 13.325,14.766 13.331 C 14.781 13.336,15.202 13.853,15.702 14.480 " stroke="none" fill-rule="evenodd" fill="black"></path></svg>