<svg xmlns="http://www.w3.org/2000/svg" width="24" height="24" viewBox="0 0 24 24" version="1.1">
	<path d="M 9.709 2.624 C 8.403 3.930, 8.982 6.891, 10.736 7.872 C 12.260 8.725, 12.149 8.925, 9.831 9.506 C 6.905 10.241, 2.279 14.613, 3.323 15.657 C 3.689 16.022, 4.881 15.513, 5.973 14.524 C 7.731 12.933, 8.027 12.907, 8.560 14.296 C 8.891 15.158, 9.913 15.846, 10.831 15.825 C 11.749 15.804, 13.945 16.377, 15.712 17.098 C 20.157 18.913, 20.769 17.696, 17.538 13.461 C 15.827 11.217, 14.742 8.485, 14.649 6.184 C 14.532 3.298, 14.058 2.437, 12.459 2.208 C 11.336 2.047, 10.099 2.235, 9.709 2.624 M 11 5 C 11 5.550, 11.450 6, 12 6 C 12.550 6, 13 5.550, 13 5 C 13 4.450, 12.550 4, 12 4 C 11.450 4, 11 4.450, 11 5 M 10.500 12 C 10.160 12.550, 10.359 13, 10.941 13 C 11.523 13, 12 12.550, 12 12 C 12 11.450, 11.802 11, 11.559 11 C 11.316 11, 10.840 11.450, 10.500 12" stroke="none" fill="#000000" fill-rule="evenodd"/>
</svg>