<svg xmlns="http://www.w3.org/2000/svg" width="24" height="24" viewBox="0 0 24 24" version="1.1">
	<path d="M 5.500 2 C 2.167 2, 2 2.167, 2 5.500 C 2 7.425, 2.450 9, 3 9 C 3.550 9, 4 7.875, 4 6.500 C 4 4.500, 4.500 4, 6.500 4 C 7.875 4, 9 3.550, 9 3 C 9 2.450, 7.425 2, 5.500 2 M 12 2 C 11.444 2, 11 4.667, 11 8 C 11 11.333, 11.444 14, 12 14 C 12.556 14, 13 11.333, 13 8 C 13 4.667, 12.556 2, 12 2 M 18.500 2 C 16.575 2, 15 2.450, 15 3 C 15 3.550, 16.125 4, 17.500 4 C 19.500 4, 20 4.500, 20 6.500 C 20 7.875, 20.450 9, 21 9 C 21.550 9, 22 7.425, 22 5.500 C 22 2.167, 21.833 2, 18.500 2 M 6 7 C 5.585 7, 4.239 9.342, 3.007 12.205 C 1.424 15.886, 1.054 17.862, 1.743 18.955 C 2.299 19.837, 4.127 20.500, 6 20.500 C 7.873 20.500, 9.701 19.837, 10.257 18.955 C 10.946 17.862, 10.576 15.886, 8.993 12.205 C 7.761 9.342, 6.415 7, 6 7 M 18 7 C 17.585 7, 16.239 9.342, 15.007 12.205 C 13.424 15.886, 13.054 17.862, 13.743 18.955 C 14.299 19.837, 16.127 20.500, 18 20.500 C 19.873 20.500, 21.701 19.837, 22.257 18.955 C 22.946 17.862, 22.576 15.886, 20.993 12.205 C 19.761 9.342, 18.415 7, 18 7 M 6 12 C 5.558 12, 4.725 13.350, 4.150 15 C 3.145 17.883, 3.217 18, 6 18 C 8.783 18, 8.855 17.883, 7.850 15 C 7.275 13.350, 6.442 12, 6 12 M 18 12 C 17.558 12, 16.725 13.350, 16.150 15 C 15.145 17.883, 15.217 18, 18 18 C 20.783 18, 20.855 17.883, 19.850 15 C 19.275 13.350, 18.442 12, 18 12" stroke="none" fill="black" fill-rule="evenodd"/>
</svg>