<svg viewBox="0 0 24 24" xmlns="http://www.w3.org/2000/svg" fill="none" stroke="#000000" stroke-width="2" stroke-linecap="round" stroke-linejoin="round"><path d="M2.695 2.057 C 2.466 2.129,2.256 2.299,2.128 2.516 L 2.020 2.700 2.020 5.503 L 2.020 8.306 2.141 8.503 C 2.543 9.156,3.457 9.156,3.859 8.503 L 3.980 8.306 3.991 6.153 L 4.003 4.000 6.091 3.998 C 7.731 3.997,8.212 3.985,8.330 3.943 C 8.551 3.864,8.744 3.702,8.869 3.489 C 8.964 3.328,8.980 3.256,8.980 3.000 C 8.980 2.746,8.963 2.672,8.872 2.516 C 8.740 2.293,8.533 2.128,8.290 2.055 C 8.031 1.977,2.944 1.979,2.695 2.057 M11.695 2.057 C 11.466 2.129,11.256 2.299,11.128 2.516 L 11.020 2.700 11.020 8.003 L 11.020 13.306 11.141 13.503 C 11.543 14.156,12.457 14.156,12.859 13.503 L 12.980 13.306 12.980 8.003 L 12.980 2.700 12.872 2.516 C 12.628 2.101,12.150 1.915,11.695 2.057 M15.695 2.057 C 15.466 2.129,15.256 2.299,15.128 2.516 C 15.037 2.672,15.020 2.746,15.020 3.000 C 15.020 3.256,15.036 3.328,15.131 3.489 C 15.256 3.702,15.449 3.864,15.670 3.943 C 15.788 3.985,16.269 3.997,17.909 3.998 L 19.997 4.000 20.009 6.153 L 20.020 8.306 20.141 8.503 C 20.543 9.156,21.457 9.156,21.859 8.503 L 21.980 8.306 21.980 5.503 L 21.980 2.700 21.872 2.516 C 21.740 2.293,21.533 2.128,21.290 2.055 C 21.031 1.977,15.944 1.979,15.695 2.057 M5.643 7.067 C 5.546 7.102,5.393 7.205,5.303 7.296 C 5.154 7.446,4.959 7.890,3.083 12.340 C 1.195 16.819,1.025 17.242,1.009 17.487 C 0.989 17.795,1.081 18.305,1.217 18.641 C 1.566 19.498,2.375 20.190,3.311 20.431 C 3.552 20.493,3.836 20.500,6.000 20.500 C 8.164 20.500,8.448 20.493,8.689 20.431 C 9.625 20.190,10.434 19.498,10.783 18.641 C 10.919 18.305,11.011 17.795,10.991 17.487 C 10.975 17.242,10.806 16.821,8.925 12.360 C 7.748 9.568,6.830 7.443,6.768 7.365 C 6.525 7.063,6.020 6.929,5.643 7.067 M17.643 7.067 C 17.546 7.102,17.393 7.205,17.303 7.296 C 17.154 7.446,16.959 7.890,15.083 12.340 C 13.195 16.819,13.025 17.242,13.009 17.487 C 12.989 17.795,13.081 18.305,13.217 18.641 C 13.566 19.498,14.375 20.190,15.311 20.431 C 15.552 20.493,15.836 20.500,18.000 20.500 C 20.164 20.500,20.448 20.493,20.689 20.431 C 21.625 20.190,22.434 19.498,22.783 18.641 C 22.919 18.305,23.011 17.795,22.991 17.487 C 22.975 17.242,22.806 16.821,20.925 12.360 C 19.748 9.568,18.830 7.443,18.768 7.365 C 18.525 7.063,18.020 6.929,17.643 7.067 M7.494 14.130 C 8.301 16.050,8.961 17.661,8.961 17.712 C 8.959 17.955,8.629 18.342,8.335 18.445 C 8.211 18.489,7.744 18.500,6.000 18.500 C 4.256 18.500,3.789 18.489,3.665 18.445 C 3.371 18.342,3.041 17.955,3.039 17.712 C 3.038 17.612,5.958 10.640,6.000 10.640 C 6.014 10.640,6.686 12.210,7.494 14.130 M19.494 14.130 C 20.301 16.050,20.961 17.661,20.961 17.712 C 20.959 17.955,20.629 18.342,20.335 18.445 C 20.211 18.489,19.744 18.500,18.000 18.500 C 16.256 18.500,15.789 18.489,15.665 18.445 C 15.371 18.342,15.041 17.955,15.039 17.712 C 15.038 17.612,17.958 10.640,18.000 10.640 C 18.014 10.640,18.686 12.210,19.494 14.130 " stroke="none" fill-rule="evenodd" fill="black"></path></svg>