<svg xmlns="http://www.w3.org/2000/svg" width="24" height="24" viewBox="0 0 24 24" version="1.1">
	<path d="M 5.667 2 C 4.383 2, 3.033 2.300, 2.667 2.667 C 2.300 3.033, 2 4.383, 2 5.667 C 2 6.950, 2.450 8, 3 8 C 3.550 8, 4 7.100, 4 6 C 4 4.667, 4.667 4, 6 4 C 7.100 4, 8 3.550, 8 3 C 8 2.450, 6.950 2, 5.667 2 M 18.750 2.184 C 17.238 2.010, 16 2.347, 16 2.934 C 16 3.520, 16.900 4, 18 4 C 19.333 4, 20 4.667, 20 6 C 20 7.100, 20.480 8, 21.066 8 C 21.653 8, 21.990 6.763, 21.816 5.250 C 21.568 3.090, 20.910 2.432, 18.750 2.184 M 2.934 16 C 2.347 16, 2.010 17.238, 2.184 18.750 C 2.432 20.910, 3.090 21.568, 5.250 21.816 C 6.763 21.990, 8 21.653, 8 21.066 C 8 20.480, 7.100 20, 6 20 C 4.667 20, 4 19.333, 4 18 C 4 16.900, 3.520 16, 2.934 16 M 21.066 16 C 20.480 16, 20 16.900, 20 18 C 20 19.333, 19.333 20, 18 20 C 16.900 20, 16 20.480, 16 21.066 C 16 21.653, 17.238 21.990, 18.750 21.816 C 20.910 21.568, 21.568 20.910, 21.816 18.750 C 21.990 17.238, 21.653 16, 21.066 16" stroke="none" fill="black" fill-rule="evenodd"/>
</svg>