<svg xmlns="http://www.w3.org/2000/svg" width="24" height="24" viewBox="0 0 24 24" version="1.1">
	<path d="M 11.908 1.017 C 11.683 1.026, 9.138 2.887, 6.250 5.152 C 3.362 7.417, 1 9.660, 1 10.135 C 1 10.611, 1.360 11, 1.800 11 C 2.240 11, 3.140 10.460, 3.800 9.800 C 4.733 8.867, 5 9.978, 5 14.800 C 5 20.333, 4.785 21, 3 21 C 1.900 21, 1 21.450, 1 22 C 1 22.606, 5.333 23, 12 23 C 18.667 23, 23 22.606, 23 22 C 23 21.450, 22.100 21, 21 21 C 19.215 21, 19 20.333, 19 14.800 C 19 9.978, 19.267 8.867, 20.200 9.800 C 20.860 10.460, 21.760 11, 22.200 11 C 22.640 11, 23 10.605, 23 10.122 C 23 9.638, 20.596 7.388, 17.658 5.122 C 14.719 2.855, 12.132 1.008, 11.908 1.017 M 12 4 C 11.598 4, 10.197 4.843, 8.885 5.873 C 6.726 7.569, 6.532 8.373, 6.835 14.373 C 7.020 18.018, 7.552 21, 8.019 21 C 8.485 21, 9.010 19.762, 9.184 18.250 C 9.435 16.068, 10.016 15.500, 12 15.500 C 13.984 15.500, 14.565 16.068, 14.816 18.250 C 14.990 19.762, 15.515 21, 15.981 21 C 16.448 21, 16.980 18.018, 17.165 14.373 C 17.468 8.373, 17.274 7.569, 15.115 5.873 C 13.803 4.843, 12.402 4, 12 4 M 12 17 C 11.450 17, 11 17.900, 11 19 C 11 20.100, 11.450 21, 12 21 C 12.550 21, 13 20.100, 13 19 C 13 17.900, 12.550 17, 12 17" stroke="none" fill="black" fill-rule="evenodd"/>
</svg>