<svg viewBox="0 0 24 24" xmlns="http://www.w3.org/2000/svg" fill="none" stroke="#000000" stroke-width="2" stroke-linecap="round" stroke-linejoin="round"><path d="M11.597 1.091 C 11.500 1.140,9.125 3.018,6.320 5.264 C 2.220 8.545,1.202 9.379,1.127 9.514 C 0.866 9.985,1.036 10.590,1.508 10.867 C 1.673 10.964,1.743 10.980,2.000 10.980 C 2.234 10.980,2.332 10.961,2.444 10.895 C 2.524 10.848,4.706 9.115,7.294 7.044 L 12.000 3.280 16.706 7.044 C 19.294 9.115,21.476 10.848,21.556 10.895 C 21.668 10.961,21.766 10.980,22.000 10.980 C 22.256 10.980,22.328 10.964,22.489 10.869 C 22.962 10.591,23.134 9.984,22.873 9.514 C 22.798 9.379,21.780 8.545,17.680 5.264 C 14.875 3.018,12.500 1.140,12.403 1.091 C 12.164 0.968,11.836 0.968,11.597 1.091 M5.695 9.057 C 5.466 9.129,5.256 9.299,5.128 9.516 L 5.020 9.700 5.009 15.350 L 4.999 21.000 3.446 21.000 C 1.758 21.000,1.658 21.011,1.382 21.221 C 1.302 21.282,1.187 21.415,1.128 21.516 C 1.037 21.672,1.020 21.746,1.020 22.000 C 1.020 22.256,1.036 22.328,1.131 22.489 C 1.256 22.702,1.449 22.864,1.670 22.943 C 1.893 23.023,22.107 23.023,22.330 22.943 C 22.551 22.864,22.744 22.702,22.869 22.489 C 22.964 22.328,22.980 22.256,22.980 22.000 C 22.980 21.746,22.963 21.672,22.872 21.516 C 22.813 21.415,22.698 21.282,22.618 21.221 C 22.342 21.011,22.242 21.000,20.554 21.000 L 19.001 21.000 18.991 15.350 L 18.980 9.700 18.871 9.514 C 18.479 8.848,17.521 8.848,17.129 9.514 L 17.020 9.700 17.009 15.350 L 16.999 21.000 16.002 21.000 L 15.005 21.000 14.991 19.210 C 14.977 17.467,14.974 17.413,14.884 17.140 C 14.562 16.162,13.811 15.415,12.861 15.125 C 12.588 15.042,12.458 15.027,12.000 15.027 C 11.542 15.027,11.412 15.042,11.139 15.125 C 10.189 15.415,9.438 16.162,9.116 17.140 C 9.026 17.413,9.023 17.467,9.009 19.210 L 8.995 21.000 7.998 21.000 L 7.001 21.000 6.991 15.350 L 6.980 9.700 6.872 9.516 C 6.628 9.101,6.150 8.915,5.695 9.057 M12.310 17.061 C 12.452 17.103,12.571 17.178,12.697 17.303 C 12.993 17.599,13.000 17.650,13.000 19.447 L 13.000 21.000 12.000 21.000 L 11.000 21.000 11.000 19.447 C 11.000 17.649,11.007 17.599,11.304 17.303 C 11.583 17.024,11.916 16.944,12.310 17.061 " stroke="none" fill-rule="evenodd" fill="black"></path></svg>