<svg xmlns="http://www.w3.org/2000/svg" width="24" height="24" viewBox="0 0 24 24" version="1.1">
	<path d="M 6 2 C 5.120 2, 3.860 2.540, 3.200 3.200 C 2.540 3.860, 2 5.155, 2 6.078 C 2 7, 2.563 8.217, 3.250 8.782 C 3.938 9.346, 5.625 9.964, 7 10.154 C 8.394 10.347, 9.500 11.160, 9.500 11.990 C 9.500 12.850, 8.275 13.696, 6.607 13.990 C 5.016 14.271, 3.218 15.287, 2.612 16.250 C 1.810 17.525, 1.810 18.475, 2.612 19.750 C 3.218 20.712, 4.475 21.650, 5.405 21.833 C 6.335 22.015, 7.749 21.623, 8.548 20.960 C 9.347 20.297, 10 18.811, 10 17.657 C 10 16.445, 12.405 13.128, 15.693 9.805 C 18.824 6.641, 21.066 3.732, 20.674 3.341 C 20.283 2.950, 18.212 4.340, 16.072 6.430 C 13.932 8.520, 11.690 9.926, 11.090 9.556 C 10.491 9.185, 10 7.874, 10 6.641 C 10 5.408, 9.460 3.860, 8.800 3.200 C 8.140 2.540, 6.880 2, 6 2 M 6 4 C 5.515 4, 4.816 4.489, 4.446 5.087 C 4.077 5.685, 4.275 6.675, 4.887 7.287 C 5.704 8.104, 6.296 8.104, 7.113 7.287 C 7.725 6.675, 7.923 5.685, 7.554 5.087 C 7.184 4.489, 6.485 4, 6 4 M 20 11 C 18.350 11, 17 11.450, 17 12 C 17 12.550, 18.350 13, 20 13 C 21.650 13, 23 12.550, 23 12 C 23 11.450, 21.650 11, 20 11 M 17.826 16.359 C 15.860 14.393, 13.987 13.212, 13.665 13.734 C 13.342 14.256, 14.629 16.186, 16.524 18.023 C 18.419 19.860, 20.292 21.042, 20.685 20.648 C 21.078 20.255, 19.792 18.325, 17.826 16.359 M 6 16 C 5.515 16, 4.816 16.489, 4.446 17.087 C 4.077 17.685, 4.275 18.675, 4.887 19.287 C 5.704 20.104, 6.296 20.104, 7.113 19.287 C 7.725 18.675, 7.923 17.685, 7.554 17.087 C 7.184 16.489, 6.485 16, 6 16" stroke="none" fill="black" fill-rule="evenodd"/>
</svg>