<svg xmlns="http://www.w3.org/2000/svg" width="24" height="24" viewBox="0 0 24 24" version="1.1">
	<path d="M 3.200 3.200 C 0.441 5.959, 2.384 9.516, 7 10.154 C 10.466 10.634, 10.187 13.359, 6.607 13.990 C 2.934 14.637, 1.078 17.314, 2.612 19.750 C 4.899 23.380, 10 21.935, 10 17.657 C 10 16.445, 12.405 13.128, 15.693 9.805 C 18.824 6.641, 21.066 3.732, 20.674 3.341 C 20.283 2.950, 18.212 4.340, 16.072 6.430 C 12.019 10.388, 10 10.458, 10 6.641 C 10 2.602, 5.882 0.518, 3.200 3.200 M 4.446 5.087 C 3.416 6.755, 5.733 8.667, 7.113 7.287 C 8.267 6.133, 7.545 4, 6 4 C 5.515 4, 4.816 4.489, 4.446 5.087 M 13.665 13.734 C 12.925 14.930, 19.715 21.618, 20.685 20.648 C 21.078 20.255, 19.792 18.325, 17.826 16.359 C 15.860 14.393, 13.987 13.212, 13.665 13.734 M 4.446 17.087 C 3.416 18.755, 5.733 20.667, 7.113 19.287 C 8.267 18.133, 7.545 16, 6 16 C 5.515 16, 4.816 16.489, 4.446 17.087" stroke="none" fill="#000000" fill-rule="evenodd"/>
</svg>