<svg xmlns="http://www.w3.org/2000/svg" width="24" height="24" viewBox="0 0 24 24" version="1.1">
	<path d="M 15.144 3 C 14.536 3, 13.759 4.237, 13.419 5.750 C 13.078 7.263, 12.377 10.188, 11.861 12.250 C 11.345 14.313, 10.484 16, 9.948 16 C 9.412 16, 8.139 15.479, 7.119 14.842 C 6.099 14.205, 4.530 13.966, 3.632 14.311 C 2.735 14.655, 2 15.865, 2 17 C 2 18.135, 2.735 19.345, 3.632 19.689 C 4.530 20.034, 6.099 19.795, 7.119 19.158 C 8.139 18.521, 9.885 18, 11 18 C 12.115 18, 13.861 18.521, 14.881 19.158 C 15.901 19.795, 17.501 20.022, 18.438 19.662 C 19.505 19.253, 20.021 18.167, 19.820 16.754 C 19.572 15.007, 18.863 14.510, 16.666 14.546 C 14.083 14.588, 13.883 14.344, 14.416 11.796 C 14.737 10.258, 15.281 7.650, 15.625 6 C 16.021 4.098, 15.845 3, 15.144 3 M 19.250 7.187 C 17.424 7.011, 16 7.339, 16 7.937 C 16 8.521, 17.125 9, 18.500 9 C 20.796 9, 21 9.367, 21 13.500 C 21 15.982, 21.472 18, 22.052 18 C 22.693 18, 22.986 15.949, 22.802 12.750 C 22.508 7.630, 22.419 7.492, 19.250 7.187" stroke="none" fill="black" fill-rule="evenodd"/>
</svg>