<svg xmlns="http://www.w3.org/2000/svg" width="24" height="24" viewBox="0 0 24 24" version="1.1">
	<path d="M 13.419 5.750 C 10.953 16.700, 10.693 17.075, 7.119 14.842 C 4.661 13.307, 2 14.429, 2 17 C 2 19.571, 4.661 20.693, 7.119 19.158 C 9.483 17.681, 12.517 17.681, 14.881 19.158 C 17.524 20.808, 20.210 19.501, 19.820 16.754 C 19.572 15.007, 18.863 14.510, 16.666 14.546 C 14.083 14.588, 13.883 14.344, 14.416 11.796 C 14.737 10.258, 15.281 7.650, 15.625 6 C 16.021 4.098, 15.845 3, 15.144 3 C 14.536 3, 13.759 4.237, 13.419 5.750 M 16 7.937 C 16 8.521, 17.125 9, 18.500 9 C 20.796 9, 21 9.367, 21 13.500 C 21 15.982, 21.472 18, 22.052 18 C 22.693 18, 22.986 15.949, 22.802 12.750 C 22.508 7.630, 22.419 7.492, 19.250 7.187 C 17.424 7.011, 16 7.339, 16 7.937" stroke="none" fill="#000000" fill-rule="evenodd"/>
</svg>