<svg xmlns="http://www.w3.org/2000/svg" width="24" height="24" viewBox="0 0 24 24" version="1.1">
	<path d="M 11.912 1.009 C 11.135 1.015, 8.567 2.177, 6.204 3.593 L 1.909 6.168 2.204 12.228 L 2.500 18.289 7.250 20.895 L 12 23.500 16.750 20.895 L 21.500 18.289 21.796 12.214 L 22.092 6.138 17.708 3.569 C 15.297 2.156, 12.689 1.004, 11.912 1.009 M 12 3 C 11.515 3, 10.840 3.450, 10.500 4 C 10.160 4.550, 10.835 5, 12 5 C 13.165 5, 13.840 4.550, 13.500 4 C 13.160 3.450, 12.485 3, 12 3 M 8.250 6.480 C 6.946 6.067, 6 6.185, 6 6.762 C 6 7.309, 7.350 8.317, 9 9 C 11.391 9.990, 12.609 9.990, 15 9 C 16.650 8.317, 18 7.309, 18 6.762 C 18 6.185, 17.054 6.067, 15.750 6.480 C 14.512 6.873, 12.825 7.194, 12 7.194 C 11.175 7.194, 9.488 6.873, 8.250 6.480 M 4.750 9.199 C 4.338 8.998, 4 9.474, 4 10.256 C 4 11.039, 5.125 12.192, 6.500 12.818 C 8.364 13.667, 9 14.726, 9 16.979 C 9 18.640, 9.450 20, 10 20 C 10.550 20, 11 18.272, 11 16.161 C 11 12.973, 10.533 12.087, 8.250 10.943 C 6.737 10.184, 5.162 9.400, 4.750 9.199 M 19.750 9.064 C 19.613 9.099, 18.038 9.856, 16.250 10.745 C 13.433 12.147, 13 12.872, 13 16.181 C 13 18.282, 13.450 20, 14 20 C 14.550 20, 15 18.640, 15 16.979 C 15 14.726, 15.636 13.667, 17.500 12.818 C 18.875 12.192, 20 11.076, 20 10.339 C 20 9.603, 19.887 9.029, 19.750 9.064 M 5 14.500 C 4.450 14.160, 4 14.584, 4 15.441 C 4 16.298, 4.450 17, 5 17 C 5.550 17, 6 16.577, 6 16.059 C 6 15.541, 5.550 14.840, 5 14.500 M 19.787 14.862 C 19.449 13.846, 19.213 13.846, 18.583 14.866 C 18.152 15.563, 18.070 16.403, 18.400 16.733 C 18.730 17.063, 19.272 17.061, 19.604 16.729 C 19.936 16.397, 20.019 15.557, 19.787 14.862" stroke="none" fill="black" fill-rule="evenodd"/>
</svg>