<svg viewBox="0 0 24 24" xmlns="http://www.w3.org/2000/svg" fill="none" stroke="#000000" stroke-width="2" stroke-linecap="round" stroke-linejoin="round"><path d="M4.499 3.043 C 3.380 3.232,2.461 4.048,2.114 5.160 L 2.020 5.460 2.020 12.000 L 2.020 18.540 2.114 18.840 C 2.422 19.827,3.173 20.578,4.160 20.886 L 4.460 20.980 12.000 20.980 L 19.540 20.980 19.840 20.886 C 20.827 20.578,21.578 19.827,21.886 18.840 L 21.980 18.540 21.980 12.000 L 21.980 5.460 21.886 5.160 C 21.581 4.182,20.832 3.428,19.861 3.121 L 19.540 3.020 12.120 3.014 C 8.039 3.011,4.609 3.024,4.499 3.043 M4.217 6.619 C 4.275 6.696,4.408 6.808,4.511 6.869 L 4.700 6.980 12.000 6.980 L 19.300 6.980 19.489 6.869 C 19.702 6.744,19.864 6.551,19.943 6.330 C 20.024 6.103,20.026 18.020,19.945 18.290 C 19.872 18.533,19.707 18.740,19.484 18.872 L 19.300 18.980 12.000 18.980 L 4.700 18.980 4.516 18.872 C 4.415 18.813,4.284 18.700,4.225 18.623 C 3.987 18.311,4.000 18.689,4.002 12.165 C 4.003 7.115,4.012 6.203,4.057 6.330 C 4.087 6.413,4.158 6.543,4.217 6.619 M7.695 9.057 C 7.466 9.129,7.256 9.299,7.128 9.516 C 7.037 9.672,7.020 9.746,7.020 10.000 C 7.020 10.256,7.036 10.328,7.131 10.489 C 7.256 10.702,7.449 10.864,7.670 10.943 C 7.892 11.022,16.108 11.022,16.330 10.943 C 16.551 10.864,16.744 10.702,16.869 10.489 C 16.964 10.328,16.980 10.256,16.980 10.000 C 16.980 9.746,16.963 9.672,16.872 9.516 C 16.740 9.293,16.533 9.128,16.290 9.055 C 16.029 8.976,7.946 8.979,7.695 9.057 M7.695 13.057 C 7.466 13.129,7.256 13.299,7.128 13.516 C 7.037 13.672,7.020 13.746,7.020 14.000 C 7.020 14.256,7.036 14.328,7.131 14.489 C 7.256 14.702,7.449 14.864,7.670 14.943 C 7.890 15.021,13.110 15.021,13.330 14.943 C 13.551 14.864,13.744 14.702,13.869 14.489 C 13.964 14.328,13.980 14.256,13.980 14.000 C 13.980 13.746,13.963 13.672,13.872 13.516 C 13.740 13.293,13.533 13.128,13.290 13.055 C 13.031 12.977,7.944 12.979,7.695 13.057 " stroke="none" fill-rule="evenodd" fill="black"></path></svg>