<svg viewBox="0 0 24 24" xmlns="http://www.w3.org/2000/svg" fill="none" stroke="#000000" stroke-width="2" stroke-linecap="round" stroke-linejoin="round"><path d="M5.499 1.043 C 4.383 1.230,3.461 2.048,3.114 3.160 L 3.020 3.460 3.020 12.000 L 3.020 20.540 3.114 20.840 C 3.422 21.827,4.173 22.578,5.160 22.886 L 5.460 22.980 12.000 22.980 L 18.540 22.980 18.840 22.886 C 19.816 22.582,20.554 21.851,20.886 20.860 L 20.980 20.580 20.991 14.200 C 21.001 8.355,20.997 7.805,20.936 7.640 C 20.881 7.488,20.389 6.977,17.745 4.326 C 15.241 1.815,14.580 1.173,14.420 1.096 L 14.220 1.001 9.960 1.005 C 7.617 1.007,5.609 1.025,5.499 1.043 M13.002 5.590 C 13.003 7.649,13.014 8.211,13.057 8.330 C 13.136 8.551,13.298 8.744,13.511 8.869 L 13.700 8.980 16.350 8.991 L 19.000 9.002 19.000 14.555 C 19.000 19.144,18.990 20.139,18.945 20.290 C 18.872 20.533,18.707 20.740,18.484 20.872 L 18.300 20.980 12.000 20.980 L 5.700 20.980 5.516 20.872 C 5.415 20.813,5.284 20.700,5.225 20.623 C 4.985 20.308,5.000 20.888,5.000 12.022 C 5.000 2.888,4.974 3.632,5.304 3.303 C 5.615 2.991,5.409 3.006,9.430 3.003 L 13.000 3.000 13.002 5.590 M16.300 5.720 L 17.580 7.000 16.290 7.000 L 15.000 7.000 15.000 5.720 C 15.000 5.016,15.005 4.440,15.010 4.440 C 15.016 4.440,15.596 5.016,16.300 5.720 M9.499 11.040 C 8.363 11.246,7.460 12.049,7.114 13.160 C 6.979 13.594,6.979 14.406,7.114 14.840 C 7.421 15.826,8.173 16.578,9.160 16.886 C 9.417 16.966,9.541 16.980,10.020 16.978 C 10.540 16.976,10.606 16.967,10.940 16.851 L 11.300 16.727 11.860 17.278 C 12.168 17.582,12.483 17.863,12.560 17.904 C 12.660 17.957,12.786 17.979,13.000 17.979 C 13.258 17.980,13.327 17.964,13.492 17.867 C 13.714 17.737,13.901 17.498,13.965 17.264 C 14.019 17.061,13.989 16.733,13.898 16.555 C 13.861 16.481,13.582 16.168,13.278 15.860 L 12.727 15.300 12.851 14.940 C 12.967 14.606,12.976 14.540,12.978 14.020 C 12.980 13.541,12.966 13.417,12.886 13.160 C 12.580 12.178,11.810 11.407,10.861 11.129 C 10.500 11.023,9.832 10.980,9.499 11.040 M10.310 13.061 C 10.688 13.173,11.000 13.598,11.000 14.001 C 11.000 14.331,10.784 14.696,10.484 14.872 C 10.328 14.963,10.254 14.980,10.000 14.980 C 9.746 14.980,9.672 14.963,9.516 14.872 C 9.415 14.813,9.282 14.698,9.221 14.618 C 8.908 14.208,8.943 13.664,9.304 13.303 C 9.583 13.024,9.916 12.944,10.310 13.061 " stroke="none" fill-rule="evenodd" fill="black"></path></svg>