<svg xmlns="http://www.w3.org/2000/svg" width="24" height="24" viewBox="0 0 24 24" version="1.1">
	<path d="M 11 2 C 8.848 2, 6.918 2.928, 4.923 4.923 C 2.928 6.918, 2 8.848, 2 11 C 2 13.152, 2.928 15.082, 4.923 17.077 C 6.790 18.944, 8.868 19.994, 10.673 19.985 C 12.228 19.976, 14.168 19.547, 14.985 19.031 C 16.039 18.364, 17.124 18.708, 18.731 20.217 C 19.974 21.385, 21.296 22.038, 21.667 21.667 C 22.038 21.296, 21.385 19.974, 20.217 18.731 C 18.708 17.124, 18.364 16.039, 19.031 14.985 C 19.547 14.168, 19.976 12.228, 19.985 10.673 C 19.994 8.868, 18.944 6.790, 17.077 4.923 C 15.082 2.928, 13.152 2, 11 2 M 11 4 C 9.850 4, 7.805 5.105, 6.455 6.455 C 5.105 7.805, 4 9.850, 4 11 C 4 12.150, 5.105 14.195, 6.455 15.545 C 7.805 16.895, 9.850 18, 11 18 C 12.150 18, 14.195 16.895, 15.545 15.545 C 16.895 14.195, 18 12.150, 18 11 C 18 9.850, 16.895 7.805, 15.545 6.455 C 14.195 5.105, 12.150 4, 11 4 M 11 8 C 8.800 8, 7 8.450, 7 9 C 7 9.550, 8.800 10, 11 10 C 13.200 10, 15 9.550, 15 9 C 15 8.450, 13.200 8, 11 8 M 10 12 C 8.350 12, 7 12.450, 7 13 C 7 13.550, 8.350 14, 10 14 C 11.650 14, 13 13.550, 13 13 C 13 12.450, 11.650 12, 10 12" stroke="none" fill="black" fill-rule="evenodd"/>
</svg>