<svg xmlns="http://www.w3.org/2000/svg" width="24" height="24" viewBox="0 0 24 24" version="1.1">
	<path d="M 4.923 4.923 C 2.928 6.918, 2 8.848, 2 11 C 2 17.135, 10.080 22.132, 14.985 19.031 C 16.039 18.364, 17.124 18.708, 18.731 20.217 C 21.678 22.985, 22.985 21.678, 20.217 18.731 C 18.708 17.124, 18.364 16.039, 19.031 14.985 C 20.878 12.062, 20.074 7.920, 17.077 4.923 C 13.147 0.993, 8.853 0.993, 4.923 4.923 M 6.455 6.455 C 5.105 7.805, 4 9.850, 4 11 C 4 13.698, 8.302 18, 11 18 C 13.698 18, 18 13.698, 18 11 C 18 8.302, 13.698 4, 11 4 C 9.850 4, 7.805 5.105, 6.455 6.455 M 10 8.500 C 10 9.325, 9.325 10, 8.500 10 C 7.675 10, 7 10.450, 7 11 C 7 11.550, 7.675 12, 8.500 12 C 9.325 12, 10 12.675, 10 13.500 C 10 14.325, 10.450 15, 11 15 C 11.550 15, 12 14.325, 12 13.500 C 12 12.675, 12.675 12, 13.500 12 C 14.325 12, 15 11.550, 15 11 C 15 10.450, 14.325 10, 13.500 10 C 12.675 10, 12 9.325, 12 8.500 C 12 7.675, 11.550 7, 11 7 C 10.450 7, 10 7.675, 10 8.500" stroke="none" fill="#000000" fill-rule="evenodd"/>
</svg>