<svg xmlns="http://www.w3.org/2000/svg" width="24" height="24" viewBox="0 0 24 24" version="1.1">
	<path d="M 4.455 4.455 C 1.156 7.753, 1.206 12.297, 4.576 15.667 C 6.777 17.868, 7.759 18.161, 11.326 17.680 C 14.890 17.199, 15.900 17.499, 18.240 19.736 C 21.811 23.150, 23.150 21.811, 19.736 18.240 C 17.499 15.900, 17.199 14.890, 17.680 11.326 C 18.161 7.759, 17.868 6.777, 15.667 4.576 C 12.297 1.206, 7.753 1.156, 4.455 4.455 M 6 6 C 3.454 8.546, 3.454 11.454, 6 14 C 8.546 16.546, 11.454 16.546, 14 14 C 16.546 11.454, 16.546 8.546, 14 6 C 11.454 3.454, 8.546 3.454, 6 6" stroke="none" fill="black" fill-rule="evenodd"/>
</svg>