<svg xmlns="http://www.w3.org/2000/svg" width="24" height="24" viewBox="0 0 24 24" version="1.1">
	<path d="M 9.272 1 C 5.766 1, 3.763 1.454, 3.429 2.325 C 3.149 3.054, 3.051 7.891, 3.210 13.075 L 3.500 22.500 12 22.500 L 20.500 22.500 20.797 15.096 C 21.084 7.928, 20.991 7.586, 17.851 4.346 C 14.971 1.375, 14.010 1, 9.272 1 M 9 3 L 5 3 5 12 L 5 21 12 21 L 19 21 19 15 L 19 9 16 9 C 13.333 9, 13 8.667, 13 6 C 13 3.167, 12.778 3, 9 3 M 15.441 5 C 15.198 5, 15 5.450, 15 6 C 15 6.550, 15.477 7, 16.059 7 C 16.641 7, 16.840 6.550, 16.500 6 C 16.160 5.450, 15.684 5, 15.441 5 M 10.178 11.180 C 8.886 10.991, 7.745 11.502, 7.389 12.430 C 7.057 13.293, 7.022 14.615, 7.311 15.368 C 7.600 16.120, 9.110 16.980, 10.668 17.279 C 12.226 17.579, 13.598 17.728, 13.717 17.611 C 13.836 17.495, 13.581 16.072, 13.150 14.450 C 12.630 12.496, 11.627 11.392, 10.178 11.180 M 10 13 C 9.450 13, 9 13.450, 9 14 C 9 14.550, 9.450 15, 10 15 C 10.550 15, 11 14.550, 11 14 C 11 13.450, 10.550 13, 10 13" stroke="none" fill="black" fill-rule="evenodd"/>
</svg>