<svg xmlns="http://www.w3.org/2000/svg" width="24" height="24" viewBox="0 0 24 24" version="1.1">
	<path d="M 10 2 C 8.052 2, 6.002 2.907, 4.455 4.455 C 2.907 6.002, 2 8.052, 2 10 C 2 11.988, 2.919 14.010, 4.576 15.667 C 6.777 17.868, 7.759 18.161, 11.326 17.680 C 14.890 17.199, 15.900 17.499, 18.240 19.736 C 19.746 21.176, 21.289 22.045, 21.667 21.667 C 22.045 21.289, 21.176 19.746, 19.736 18.240 C 17.499 15.900, 17.199 14.890, 17.680 11.326 C 18.161 7.759, 17.868 6.777, 15.667 4.576 C 14.010 2.919, 11.988 2, 10 2 M 10 4 C 8.900 4, 7.100 4.900, 6 6 C 4.900 7.100, 4 8.900, 4 10 C 4 11.100, 4.900 12.900, 6 14 C 7.100 15.100, 8.900 16, 10 16 C 11.100 16, 12.900 15.100, 14 14 C 15.100 12.900, 16 11.100, 16 10 C 16 8.900, 15.100 7.100, 14 6 C 12.900 4.900, 11.100 4, 10 4" stroke="none" fill="black" fill-rule="evenodd"/>
</svg>