<svg xmlns="http://www.w3.org/2000/svg" width="24" height="24" viewBox="0 0 24 24" version="1.1">
	<path d="M 1.412 2.370 C 1.108 3.162, 1.003 5.315, 1.180 7.155 L 1.500 10.500 12 10.500 L 22.500 10.500 22.500 6 L 22.500 1.500 12.232 1.215 C 4.027 0.987, 1.853 1.219, 1.412 2.370 M 3 6 L 3 9 12 9 L 21 9 21 6 L 21 3 12 3 L 3 3 3 6 M 5 6 C 5 6.550, 5.450 7, 6 7 C 6.550 7, 7 6.550, 7 6 C 7 5.450, 6.550 5, 6 5 C 5.450 5, 5 5.450, 5 6 M 1.412 14.370 C 1.108 15.162, 1.003 17.315, 1.180 19.155 L 1.500 22.500 12 22.500 L 22.500 22.500 22.500 18 L 22.500 13.500 12.232 13.215 C 4.027 12.987, 1.853 13.219, 1.412 14.370 M 3 18 L 3 21 12 21 L 21 21 21 18 L 21 15 12 15 L 3 15 3 18 M 5 18 C 5 18.550, 5.450 19, 6 19 C 6.550 19, 7 18.550, 7 18 C 7 17.450, 6.550 17, 6 17 C 5.450 17, 5 17.450, 5 18" stroke="none" fill="#000000" fill-rule="evenodd"/>
</svg>