<svg viewBox="0 0 24 24" xmlns="http://www.w3.org/2000/svg" fill="none" stroke="#000000" stroke-width="2" stroke-linecap="round" stroke-linejoin="round"><path d="M3.499 1.043 C 2.380 1.232,1.461 2.048,1.114 3.160 L 1.020 3.460 1.020 6.000 L 1.020 8.540 1.114 8.840 C 1.418 9.816,2.151 10.555,3.140 10.886 L 3.420 10.979 6.494 10.991 L 9.569 11.003 9.369 11.214 C 9.121 11.477,9.039 11.632,9.012 11.895 C 8.970 12.303,9.162 12.668,9.528 12.877 L 9.737 12.997 6.599 13.009 L 3.460 13.021 3.139 13.122 C 2.170 13.426,1.419 14.182,1.114 15.160 L 1.020 15.460 1.020 18.000 L 1.020 20.540 1.114 20.840 C 1.422 21.827,2.173 22.578,3.160 22.886 L 3.460 22.980 12.000 22.980 L 20.540 22.980 20.840 22.886 C 21.827 22.578,22.578 21.827,22.886 20.840 L 22.980 20.540 22.980 18.000 L 22.980 15.460 22.886 15.160 C 22.581 14.181,21.830 13.426,20.861 13.122 L 20.540 13.022 17.360 13.001 L 14.180 12.980 12.960 12.366 C 12.289 12.028,11.732 11.744,11.722 11.734 C 11.712 11.725,11.864 11.557,12.060 11.360 L 12.416 11.003 16.498 10.991 L 20.580 10.980 20.860 10.886 C 21.851 10.554,22.582 9.816,22.886 8.840 L 22.980 8.540 22.980 6.000 L 22.980 3.460 22.886 3.160 C 22.581 2.182,21.832 1.428,20.861 1.121 L 20.540 1.020 12.120 1.014 C 7.489 1.011,3.609 1.024,3.499 1.043 M20.310 3.061 C 20.589 3.144,20.856 3.411,20.939 3.690 C 21.025 3.978,21.030 8.007,20.945 8.290 C 20.872 8.533,20.707 8.740,20.484 8.872 L 20.300 8.980 12.000 8.980 L 3.700 8.980 3.516 8.872 C 3.303 8.747,3.141 8.550,3.058 8.316 C 2.970 8.065,2.972 3.988,3.061 3.690 C 3.140 3.421,3.412 3.143,3.673 3.063 C 3.833 3.014,5.030 3.005,11.983 3.003 C 19.144 3.000,20.130 3.007,20.310 3.061 M5.695 5.055 C 5.464 5.130,5.255 5.300,5.128 5.516 C 5.037 5.672,5.020 5.746,5.020 6.000 C 5.020 6.257,5.036 6.327,5.133 6.492 C 5.651 7.374,6.998 7.018,6.998 6.000 C 6.998 5.623,6.792 5.281,6.463 5.112 C 6.265 5.010,5.911 4.984,5.695 5.055 M11.371 15.212 C 11.076 15.524,11.022 15.646,11.021 16.000 C 11.020 16.258,11.036 16.327,11.133 16.492 C 11.413 16.968,12.033 17.139,12.492 16.865 C 12.584 16.810,13.056 16.368,13.540 15.883 L 14.419 15.000 17.262 15.000 C 20.495 15.000,20.384 14.990,20.697 15.303 C 21.002 15.609,21.000 15.589,21.000 18.001 C 21.000 20.287,20.996 20.333,20.779 20.618 C 20.718 20.698,20.585 20.813,20.484 20.872 L 20.300 20.980 12.000 20.980 L 3.700 20.980 3.516 20.872 C 3.415 20.813,3.284 20.700,3.225 20.623 C 3.000 20.327,3.000 20.332,3.000 18.022 C 3.000 15.589,2.998 15.608,3.301 15.306 C 3.618 14.988,3.348 15.007,7.696 15.003 L 11.572 15.000 11.371 15.212 M5.695 17.055 C 5.464 17.130,5.255 17.300,5.128 17.516 C 5.037 17.672,5.020 17.746,5.020 18.000 C 5.020 18.257,5.036 18.327,5.133 18.492 C 5.651 19.374,6.998 19.018,6.998 18.000 C 6.998 17.623,6.792 17.281,6.463 17.112 C 6.265 17.010,5.911 16.984,5.695 17.055 " stroke="none" fill-rule="evenodd" fill="black"></path></svg>