<svg xmlns="http://www.w3.org/2000/svg" width="24" height="24" viewBox="0 0 24 24" version="1.1">
	<path d="M 12.232 1.215 C 4.027 0.987, 1.853 1.219, 1.412 2.370 C 1.108 3.162, 1.003 5.315, 1.180 7.155 C 1.474 10.231, 1.802 10.525, 5.250 10.810 C 7.313 10.981, 9 11.516, 9 12 C 9 12.484, 7.313 13.019, 5.250 13.190 C 1.518 13.498, 1.500 13.522, 1.500 18 L 1.500 22.500 12 22.500 L 22.500 22.500 22.500 18 L 22.500 13.500 18.500 13.215 C 16.300 13.058, 13.825 12.629, 13 12.261 C 12.159 11.885, 13.916 11.352, 17 11.046 L 22.500 10.500 22.500 6 L 22.500 1.500 12.232 1.215 M 12 3 L 3 3 3 6 L 3 9 12 9 L 21 9 21 6 L 21 3 12 3 M 6 5 C 5.450 5, 5 5.450, 5 6 C 5 6.550, 5.450 7, 6 7 C 6.550 7, 7 6.550, 7 6 C 7 5.450, 6.550 5, 6 5 M 6.917 15 C 3.231 15, 3 15.177, 3 18 L 3 21 12 21 L 21 21 21 18 C 21 15.273, 20.700 15, 17.700 15 C 15.885 15, 13.804 15.563, 13.075 16.250 C 12.015 17.250, 11.658 17.250, 11.292 16.250 C 11.032 15.541, 9.139 15, 6.917 15 M 6 17 C 5.450 17, 5 17.450, 5 18 C 5 18.550, 5.450 19, 6 19 C 6.550 19, 7 18.550, 7 18 C 7 17.450, 6.550 17, 6 17" stroke="none" fill="black" fill-rule="evenodd"/>
</svg>