<svg xmlns="http://www.w3.org/2000/svg" width="24" height="24" viewBox="0 0 24 24" version="1.1">
	<path d="M 12.500 6 C 12.160 6.550, 9.884 7, 7.441 7 C 4.998 7, 3 7.450, 3 8 C 3 8.550, 4.806 9, 7.014 9 C 9.221 9, 11.855 9.517, 12.867 10.149 C 14.281 11.032, 15.434 10.976, 17.853 9.905 C 21.681 8.210, 21.725 7.844, 18.293 6.250 C 15.041 4.740, 13.325 4.666, 12.500 6 M 14 8 C 14 8.550, 14.450 9, 15 9 C 15.550 9, 16 8.550, 16 8 C 16 7.450, 15.550 7, 15 7 C 14.450 7, 14 7.450, 14 8 M 5.250 14.360 C 2.294 15.824, 2.401 16.247, 6.147 17.905 C 8.566 18.976, 9.719 19.032, 11.133 18.149 C 12.145 17.517, 14.779 17, 16.986 17 C 19.194 17, 21 16.550, 21 16 C 21 15.450, 19.002 15, 16.559 15 C 14.116 15, 11.840 14.550, 11.500 14 C 10.730 12.755, 8.197 12.901, 5.250 14.360 M 8 16 C 8 16.550, 8.450 17, 9 17 C 9.550 17, 10 16.550, 10 16 C 10 15.450, 9.550 15, 9 15 C 8.450 15, 8 15.450, 8 16" stroke="none" fill="black" fill-rule="evenodd"/>
</svg>