<svg xmlns="http://www.w3.org/2000/svg" width="24" height="24" viewBox="0 0 24 24" version="1.1">
	<path d="M 9.218 1.750 C 8.804 2.759, 7.441 3.500, 6 3.500 C 4 3.500, 3.500 4, 3.500 6 C 3.500 7.441, 2.759 8.804, 1.750 9.218 C -0.513 10.146, -0.513 13.854, 1.750 14.782 C 2.759 15.196, 3.500 16.559, 3.500 18 C 3.500 20, 4 20.500, 6 20.500 C 7.441 20.500, 8.804 21.241, 9.218 22.250 C 10.146 24.513, 13.854 24.513, 14.782 22.250 C 15.196 21.241, 16.559 20.500, 18 20.500 C 20 20.500, 20.500 20, 20.500 18 C 20.500 16.508, 21.307 15.087, 22.500 14.475 C 24.423 13.490, 26.011 8.801, 24.323 9.094 C 23.870 9.173, 22.458 9.184, 21.184 9.118 C 19.059 9.010, 18.901 8.628, 19.270 4.500 C 19.686 -0.157, 19.251 -0.851, 17.200 1.200 C 16.267 2.133, 15.733 2.133, 14.800 1.200 C 13.041 -0.559, 10.044 -0.263, 9.218 1.750 M 10.678 4.124 C 10.229 5.839, 9.625 6.123, 7.536 5.598 C 5.153 5, 5 5.153, 5.598 7.536 C 6.123 9.625, 5.839 10.229, 4.124 10.678 C 1.450 11.377, 1.391 12.608, 3.999 13.289 C 5.416 13.660, 6.600 12.967, 8.067 10.906 C 9.205 9.308, 10.975 8, 12 8 C 14.581 8, 18.533 13.653, 17.132 15.341 C 16.028 16.671, 9.311 16.929, 7.349 15.716 C 6.722 15.328, 5.937 15.721, 5.605 16.588 C 4.703 18.937, 4.849 19.272, 6.500 18.638 C 8.557 17.849, 11 18.918, 11 20.607 C 11 22.779, 12.703 22.243, 13.322 19.876 C 13.777 18.137, 14.364 17.874, 16.565 18.427 C 18.737 18.972, 19.139 18.804, 18.658 17.551 C 17.852 15.450, 18.901 13, 20.607 13 C 22.901 13, 22.179 11.165, 19.750 10.820 C 18.131 10.590, 17.360 9.658, 17 7.500 C 16.725 5.850, 15.825 4.354, 15 4.175 C 14.175 3.996, 13.350 3.434, 13.167 2.925 C 12.579 1.294, 11.250 1.934, 10.678 4.124 M 0.158 12 C 0.158 13.375, 0.385 13.938, 0.662 13.250 C 0.940 12.563, 0.940 11.438, 0.662 10.750 C 0.385 10.063, 0.158 10.625, 0.158 12 M 10.446 11.087 C 9.416 12.755, 11.733 14.667, 13.113 13.287 C 14.267 12.133, 13.545 10, 12 10 C 11.515 10, 10.816 10.489, 10.446 11.087" stroke="none" fill="black" fill-rule="evenodd"/>
</svg>