<svg xmlns="http://www.w3.org/2000/svg" width="24" height="24" viewBox="0 0 24 24" version="1.1">
	<path d="M 9.218 1.750 C 8.804 2.759, 7.441 3.500, 6 3.500 C 4 3.500, 3.500 4, 3.500 6 C 3.500 7.441, 2.759 8.804, 1.750 9.218 C -0.513 10.146, -0.513 13.854, 1.750 14.782 C 2.759 15.196, 3.500 16.559, 3.500 18 C 3.500 20, 4 20.500, 6 20.500 C 7.441 20.500, 8.804 21.241, 9.218 22.250 C 10.146 24.513, 13.854 24.513, 14.782 22.250 C 15.196 21.241, 16.559 20.500, 18 20.500 C 20 20.500, 20.500 20, 20.500 18 C 20.500 16.508, 21.307 15.087, 22.500 14.475 C 24.423 13.490, 26.011 8.801, 24.323 9.094 C 21.503 9.583, 20.424 8.789, 20.461 6.250 C 20.493 3.973, 20.070 3.500, 18 3.500 C 16.559 3.500, 15.196 2.759, 14.782 1.750 C 13.854 -0.513, 10.146 -0.513, 9.218 1.750 M 10.678 4.124 C 10.229 5.839, 9.625 6.123, 7.536 5.598 C 5.153 5, 5 5.153, 5.598 7.536 C 6.123 9.625, 5.839 10.229, 4.124 10.678 C 1.404 11.389, 1.404 12.611, 4.124 13.322 C 5.863 13.777, 6.126 14.364, 5.573 16.565 C 5.028 18.737, 5.196 19.139, 6.449 18.658 C 8.550 17.852, 11 18.901, 11 20.607 C 11 22.779, 12.703 22.243, 13.322 19.876 C 13.777 18.137, 14.364 17.874, 16.565 18.427 C 18.737 18.972, 19.139 18.804, 18.658 17.551 C 17.852 15.450, 18.901 13, 20.607 13 C 22.779 13, 22.243 11.297, 19.876 10.678 C 18.137 10.223, 17.874 9.636, 18.427 7.435 C 18.972 5.263, 18.804 4.861, 17.551 5.342 C 15.450 6.148, 13 5.099, 13 3.393 C 13 1.221, 11.297 1.757, 10.678 4.124 M 9.040 9.452 C 7.485 11.325, 8.028 13.989, 10.250 15.388 C 13.715 17.570, 17.617 12.653, 14.960 9.452 C 13.416 7.591, 10.584 7.591, 9.040 9.452 M 0.158 12 C 0.158 13.375, 0.385 13.938, 0.662 13.250 C 0.940 12.563, 0.940 11.438, 0.662 10.750 C 0.385 10.063, 0.158 10.625, 0.158 12 M 10.446 11.087 C 9.416 12.755, 11.733 14.667, 13.113 13.287 C 14.267 12.133, 13.545 10, 12 10 C 11.515 10, 10.816 10.489, 10.446 11.087" stroke="none" fill="#000000" fill-rule="evenodd"/>
</svg>