<svg viewBox="0 0 24 24" xmlns="http://www.w3.org/2000/svg" fill="none" stroke="#000000" stroke-width="2" stroke-linecap="round" stroke-linejoin="round"><path d="M14.499 5.040 C 13.549 5.212,12.740 5.816,12.312 6.670 L 12.147 7.000 8.020 7.000 C 3.540 7.000,3.681 6.993,3.382 7.221 C 3.302 7.282,3.187 7.415,3.128 7.516 C 3.037 7.672,3.020 7.746,3.020 8.000 C 3.020 8.256,3.036 8.328,3.131 8.489 C 3.256 8.702,3.449 8.864,3.670 8.943 C 3.792 8.986,4.610 8.997,7.983 8.998 L 12.147 9.000 12.312 9.330 C 12.682 10.069,13.355 10.635,14.160 10.886 C 14.594 11.021,15.406 11.021,15.840 10.886 C 16.645 10.635,17.318 10.069,17.688 9.330 L 17.853 9.000 19.017 8.998 C 20.268 8.996,20.355 8.985,20.619 8.783 C 20.696 8.725,20.808 8.592,20.869 8.489 C 20.964 8.328,20.980 8.256,20.980 8.000 C 20.980 7.746,20.963 7.672,20.872 7.516 C 20.813 7.415,20.698 7.282,20.618 7.221 C 20.354 7.020,20.208 7.000,18.980 7.000 L 17.853 7.000 17.688 6.670 C 17.320 5.935,16.631 5.354,15.861 5.129 C 15.500 5.023,14.832 4.980,14.499 5.040 M15.310 7.061 C 15.688 7.173,16.000 7.598,16.000 8.001 C 16.000 8.331,15.784 8.696,15.484 8.872 C 15.328 8.963,15.254 8.980,15.000 8.980 C 14.746 8.980,14.672 8.963,14.516 8.872 C 13.935 8.530,13.833 7.774,14.304 7.303 C 14.583 7.024,14.916 6.944,15.310 7.061 M8.499 13.040 C 7.549 13.212,6.740 13.816,6.312 14.670 L 6.147 15.000 5.020 15.000 C 3.792 15.000,3.646 15.020,3.382 15.221 C 3.302 15.282,3.187 15.415,3.128 15.516 C 3.037 15.672,3.020 15.746,3.020 16.000 C 3.020 16.256,3.036 16.328,3.131 16.489 C 3.192 16.592,3.304 16.725,3.381 16.783 C 3.645 16.985,3.732 16.996,4.983 16.998 L 6.147 17.000 6.312 17.330 C 6.682 18.069,7.355 18.635,8.160 18.886 C 8.594 19.021,9.406 19.021,9.840 18.886 C 10.645 18.635,11.318 18.069,11.688 17.330 L 11.853 17.000 16.017 16.998 C 19.390 16.997,20.208 16.986,20.330 16.943 C 20.551 16.864,20.744 16.702,20.869 16.489 C 20.964 16.328,20.980 16.256,20.980 16.000 C 20.980 15.746,20.963 15.672,20.872 15.516 C 20.813 15.415,20.698 15.282,20.618 15.221 C 20.319 14.993,20.460 15.000,15.980 15.000 L 11.853 15.000 11.688 14.670 C 11.320 13.935,10.631 13.354,9.861 13.129 C 9.500 13.023,8.832 12.980,8.499 13.040 M9.334 15.064 C 9.698 15.188,10.000 15.613,10.000 16.001 C 10.000 16.331,9.784 16.696,9.484 16.872 C 9.328 16.963,9.254 16.980,9.000 16.980 C 8.746 16.980,8.672 16.963,8.516 16.872 C 7.937 16.531,7.833 15.774,8.301 15.306 C 8.587 15.019,8.952 14.934,9.334 15.064 " stroke="none" fill-rule="evenodd" fill="black"></path></svg>