<svg xmlns="http://www.w3.org/2000/svg" width="24" height="24" viewBox="0 0 24 24" version="1.1">
	<path d="M 3 6.500 C 3 8.975, 3.450 11, 4 11 C 4.550 11, 5 8.975, 5 6.500 C 5 4.025, 4.550 2, 4 2 C 3.450 2, 3 4.025, 3 6.500 M 11 4.500 C 11 6.056, 10.433 7, 9.500 7 C 8.675 7, 8 7.450, 8 8 C 8 8.550, 9.800 9, 12 9 C 14.200 9, 16 8.550, 16 8 C 16 7.450, 15.325 7, 14.500 7 C 13.567 7, 13 6.056, 13 4.500 C 13 3.125, 12.550 2, 12 2 C 11.450 2, 11 3.125, 11 4.500 M 19 7.500 C 19 10.525, 19.450 13, 20 13 C 20.550 13, 21 10.525, 21 7.500 C 21 4.475, 20.550 2, 20 2 C 19.450 2, 19 4.475, 19 7.500 M 11 16.500 C 11 19.525, 11.450 22, 12 22 C 12.550 22, 13 19.525, 13 16.500 C 13 13.475, 12.550 11, 12 11 C 11.450 11, 11 13.475, 11 16.500 M 0 14 C 0 14.550, 0.675 15, 1.500 15 C 2.548 15, 3 16.056, 3 18.500 C 3 20.425, 3.450 22, 4 22 C 4.550 22, 5 20.425, 5 18.500 C 5 16.056, 5.452 15, 6.500 15 C 7.325 15, 8 14.550, 8 14 C 8 13.450, 6.200 13, 4 13 C 1.800 13, 0 13.450, 0 14 M 16 16 C 16 16.550, 16.675 17, 17.500 17 C 18.433 17, 19 17.944, 19 19.500 C 19 20.875, 19.450 22, 20 22 C 20.550 22, 21 20.875, 21 19.500 C 21 17.944, 21.567 17, 22.500 17 C 23.325 17, 24 16.550, 24 16 C 24 15.450, 22.200 15, 20 15 C 17.800 15, 16 15.450, 16 16" stroke="none" fill="#000000" fill-rule="evenodd"/>
</svg>