<svg viewBox="0 0 24 24" xmlns="http://www.w3.org/2000/svg" fill="none" stroke="#000000" stroke-width="2" stroke-linecap="round" stroke-linejoin="round"><path d="M11.499 0.040 C 10.963 0.137,10.475 0.364,10.089 0.695 C 9.420 1.269,9.061 1.974,9.016 2.800 C 8.978 3.498,8.883 3.668,8.472 3.775 C 8.155 3.858,8.024 3.811,7.629 3.477 C 7.239 3.147,6.697 2.863,6.300 2.780 C 5.938 2.704,5.323 2.704,4.953 2.780 C 4.783 2.814,4.500 2.919,4.280 3.028 C 3.958 3.188,3.842 3.275,3.518 3.598 C 2.896 4.220,2.638 4.831,2.637 5.686 C 2.636 6.520,2.848 7.075,3.422 7.740 C 3.686 8.046,3.720 8.114,3.720 8.339 C 3.720 8.558,3.611 8.790,3.441 8.933 C 3.309 9.044,3.231 9.063,2.748 9.100 C 1.526 9.193,0.489 10.036,0.114 11.240 C -0.021 11.674,-0.021 12.486,0.114 12.920 C 0.238 13.319,0.437 13.689,0.679 13.971 C 1.275 14.667,1.964 15.020,2.820 15.066 C 3.040 15.077,3.283 15.106,3.360 15.129 C 3.634 15.210,3.800 15.440,3.800 15.741 C 3.800 15.966,3.766 16.034,3.502 16.340 C 2.928 17.005,2.716 17.560,2.717 18.394 C 2.718 19.249,2.976 19.860,3.598 20.482 C 4.220 21.104,4.831 21.362,5.686 21.363 C 6.520 21.364,7.075 21.152,7.740 20.578 C 8.046 20.314,8.114 20.280,8.339 20.280 C 8.558 20.280,8.790 20.389,8.933 20.558 C 9.037 20.683,9.056 20.766,9.101 21.315 C 9.198 22.482,10.061 23.519,11.240 23.886 C 11.674 24.021,12.486 24.021,12.920 23.886 C 13.319 23.762,13.689 23.563,13.971 23.321 C 14.667 22.725,15.020 22.036,15.066 21.180 C 15.077 20.960,15.106 20.717,15.129 20.640 C 15.210 20.366,15.440 20.200,15.741 20.200 C 15.966 20.200,16.034 20.234,16.340 20.498 C 17.005 21.072,17.560 21.284,18.394 21.283 C 19.249 21.282,19.860 21.024,20.482 20.402 C 21.104 19.780,21.362 19.169,21.363 18.314 C 21.364 17.480,21.152 16.925,20.578 16.260 C 20.314 15.954,20.280 15.886,20.280 15.661 C 20.280 15.360,20.446 15.130,20.720 15.049 C 20.797 15.026,21.023 14.997,21.223 14.985 C 22.451 14.908,23.507 14.057,23.886 12.840 C 23.964 12.588,23.979 12.453,23.979 12.000 C 23.979 11.547,23.964 11.412,23.886 11.160 C 23.581 10.181,22.820 9.416,21.861 9.125 C 21.574 9.039,21.449 9.027,20.680 9.013 C 19.660 8.995,19.598 8.987,19.441 8.855 L 19.320 8.753 19.321 6.506 L 19.321 4.260 19.423 4.163 C 19.607 3.989,19.697 3.765,19.697 3.480 C 19.697 3.202,19.642 3.059,19.435 2.794 C 19.343 2.678,19.320 2.608,19.320 2.449 C 19.320 2.340,19.293 2.174,19.260 2.080 C 19.146 1.758,19.174 1.649,19.460 1.298 C 19.741 0.952,19.789 0.537,19.588 0.180 L 19.498 0.020 18.659 0.009 L 17.820 -0.001 17.652 0.249 C 17.388 0.641,17.214 1.139,17.140 1.704 L 17.114 1.909 16.861 1.933 C 16.538 1.963,16.168 2.087,15.846 2.273 C 15.407 2.527,15.384 2.536,15.186 2.538 L 14.992 2.540 14.894 2.202 C 14.604 1.202,13.829 0.412,12.861 0.129 C 12.500 0.023,11.832 -0.020,11.499 0.040 M12.331 2.063 C 12.549 2.137,12.822 2.387,12.906 2.589 C 12.939 2.668,12.981 2.881,13.000 3.062 C 13.040 3.450,13.130 3.647,13.361 3.856 C 13.956 4.394,14.840 4.658,15.605 4.527 C 15.745 4.503,15.945 4.473,16.049 4.459 C 16.230 4.436,16.277 4.410,16.764 4.060 C 16.844 4.003,17.000 3.942,17.114 3.924 L 17.320 3.892 17.321 6.536 L 17.322 9.180 17.417 9.411 C 17.692 10.079,18.275 10.607,19.020 10.864 C 19.323 10.969,19.390 10.976,20.300 10.999 C 21.382 11.027,21.444 11.041,21.717 11.321 C 21.880 11.490,22.000 11.777,22.000 12.001 C 22.000 12.176,21.897 12.462,21.779 12.618 C 21.584 12.873,21.379 12.962,20.890 13.004 C 20.138 13.069,19.697 13.234,19.218 13.629 C 18.055 14.588,17.943 16.295,18.967 17.459 C 19.274 17.809,19.358 17.989,19.358 18.300 C 19.358 18.863,18.943 19.278,18.380 19.278 C 18.073 19.278,17.890 19.195,17.560 18.904 C 17.221 18.605,16.821 18.385,16.422 18.278 C 15.974 18.157,15.314 18.179,14.887 18.331 C 13.808 18.712,13.170 19.582,13.083 20.789 C 13.064 21.048,13.029 21.311,13.004 21.373 C 12.930 21.563,12.757 21.759,12.564 21.872 C 12.408 21.963,12.334 21.980,12.080 21.980 C 11.826 21.980,11.752 21.963,11.596 21.872 C 11.266 21.678,11.080 21.339,11.080 20.933 C 11.080 20.814,11.051 20.578,11.017 20.408 C 10.856 19.626,10.316 18.932,9.600 18.586 C 9.125 18.357,8.806 18.281,8.315 18.281 C 7.644 18.280,7.062 18.508,6.520 18.984 C 6.190 19.275,6.007 19.358,5.700 19.358 C 5.137 19.358,4.722 18.943,4.722 18.380 C 4.722 18.073,4.805 17.890,5.096 17.560 C 6.135 16.379,6.031 14.673,4.862 13.709 C 4.372 13.305,3.926 13.142,3.148 13.084 C 2.759 13.055,2.654 13.032,2.508 12.947 C 1.932 12.609,1.835 11.851,2.306 11.380 C 2.506 11.180,2.767 11.080,3.089 11.080 C 3.196 11.080,3.422 11.051,3.592 11.017 C 4.812 10.766,5.733 9.615,5.733 8.340 C 5.733 7.679,5.494 7.065,5.033 6.541 C 4.726 6.191,4.642 6.011,4.642 5.700 C 4.642 5.137,5.057 4.722,5.620 4.722 C 5.927 4.722,6.110 4.805,6.440 5.096 C 7.185 5.751,8.069 5.962,9.009 5.707 C 9.446 5.589,9.645 5.498,9.943 5.278 C 10.575 4.811,10.933 4.107,10.997 3.207 C 11.035 2.667,11.090 2.507,11.319 2.286 C 11.595 2.018,11.962 1.937,12.331 2.063 M11.358 8.061 C 9.751 8.312,8.406 9.597,8.095 11.180 L 8.025 11.540 7.097 12.480 C 6.587 12.997,6.136 13.483,6.095 13.560 C 5.993 13.754,5.993 14.246,6.095 14.440 C 6.197 14.633,8.297 16.740,8.520 16.873 C 8.672 16.964,8.746 16.980,9.000 16.980 C 9.257 16.980,9.327 16.964,9.492 16.867 C 9.975 16.583,10.138 15.971,9.858 15.493 C 9.799 15.392,9.775 15.324,9.805 15.342 C 9.835 15.360,9.928 15.417,10.012 15.469 C 10.486 15.764,11.369 16.000,12.000 16.000 C 12.631 16.000,13.514 15.764,13.988 15.469 C 14.072 15.417,14.165 15.360,14.195 15.342 C 14.225 15.324,14.201 15.392,14.142 15.493 C 13.862 15.971,14.025 16.583,14.508 16.867 C 14.673 16.964,14.743 16.980,15.000 16.980 C 15.254 16.980,15.328 16.964,15.480 16.873 C 15.703 16.740,17.803 14.633,17.905 14.440 C 18.007 14.246,18.007 13.754,17.905 13.560 C 17.864 13.483,17.416 13.002,16.908 12.491 L 15.985 11.563 15.914 11.213 C 15.582 9.570,14.257 8.308,12.605 8.058 C 12.144 7.989,11.816 7.990,11.358 8.061 M12.523 10.073 C 13.262 10.266,13.850 10.924,13.967 11.690 C 14.067 12.343,13.873 12.933,13.403 13.404 C 13.002 13.807,12.547 14.000,12.000 14.000 C 11.485 14.000,11.038 13.822,10.653 13.465 C 9.323 12.229,10.189 10.005,12.000 10.005 C 12.143 10.005,12.378 10.036,12.523 10.073 M8.599 14.100 L 8.692 14.260 8.561 14.134 C 8.484 14.061,8.442 13.989,8.459 13.962 C 8.475 13.936,8.492 13.920,8.497 13.927 C 8.502 13.934,8.548 14.012,8.599 14.100 M15.444 14.131 L 15.311 14.260 15.405 14.092 C 15.466 13.983,15.513 13.937,15.538 13.962 C 15.563 13.987,15.530 14.047,15.444 14.131 " stroke="none" fill-rule="evenodd" fill="black"></path></svg>