<svg xmlns="http://www.w3.org/2000/svg" width="24" height="24" viewBox="0 0 24 24" version="1.1">
	<path d="M 6.206 3.667 L 1.911 6.256 2.206 12.199 L 2.500 18.143 7.250 20.821 L 12 23.500 16.750 20.821 L 21.500 18.143 21.795 12.193 L 22.089 6.242 17.617 3.621 C 12.153 0.419, 11.589 0.421, 6.206 3.667 M 7.760 5.294 C 4.321 7.322, 4.019 7.863, 4.017 12 C 4.016 16.202, 4.280 16.651, 8.008 18.780 L 12 21.060 15.992 18.780 C 19.719 16.651, 19.985 16.201, 19.985 12 C 19.985 7.809, 19.714 7.346, 16.044 5.250 C 13.877 4.012, 11.968 3.020, 11.802 3.044 C 11.636 3.069, 9.817 4.081, 7.760 5.294" stroke="none" fill="#000000" fill-rule="evenodd"/>
</svg>