<svg xmlns="http://www.w3.org/2000/svg" width="24" height="24" viewBox="0 0 24 24" version="1.1">
	<path d="M 15.238 2.162 C 14.557 2.843, 14 3.930, 14 4.578 C 14 6.639, 10.891 8.430, 7.250 8.466 C 0.112 8.535, 0.205 15.468, 7.345 15.533 C 11.204 15.567, 12.541 16.446, 14.395 20.166 C 15.792 22.967, 19.778 23.300, 21.386 20.750 C 23.150 17.953, 20.952 15.506, 16.641 15.468 C 14.577 15.449, 12.265 14.694, 11.289 13.718 C 9.666 12.094, 9.666 11.906, 11.289 10.282 C 12.265 9.306, 14.577 8.551, 16.641 8.532 C 20.947 8.494, 23.147 6.048, 21.393 3.250 C 20.029 1.074, 16.883 0.517, 15.238 2.162 M 16.446 4.087 C 15.416 5.755, 17.733 7.667, 19.113 6.287 C 20.267 5.133, 19.545 3, 18 3 C 17.515 3, 16.816 3.489, 16.446 4.087 M 4.446 11.087 C 3.416 12.755, 5.733 14.667, 7.113 13.287 C 8.267 12.133, 7.545 10, 6 10 C 5.515 10, 4.816 10.489, 4.446 11.087 M 16.446 18.087 C 15.416 19.755, 17.733 21.667, 19.113 20.287 C 20.267 19.133, 19.545 17, 18 17 C 17.515 17, 16.816 17.489, 16.446 18.087" stroke="none" fill="black" fill-rule="evenodd"/>
</svg>