<svg xmlns="http://www.w3.org/2000/svg" width="24" height="24" viewBox="0 0 24 24" version="1.1">
	<path d="M 18.386 1.212 C 17.336 1.053, 15.919 1.481, 15.238 2.162 C 14.557 2.843, 14 3.930, 14 4.578 C 14 5.225, 13.275 6.357, 12.388 7.093 C 11.501 7.829, 9.189 8.447, 7.250 8.466 C 5.009 8.487, 3.321 9.138, 2.617 10.250 C 1.808 11.529, 1.808 12.471, 2.617 13.750 C 3.330 14.878, 5.011 15.512, 7.345 15.533 C 9.336 15.550, 11.475 16.075, 12.098 16.698 C 12.722 17.322, 13.755 18.882, 14.395 20.166 C 15.122 21.624, 16.445 22.500, 17.921 22.500 C 19.219 22.500, 20.779 21.712, 21.386 20.750 C 22.191 19.473, 22.191 18.527, 21.383 17.250 C 20.668 16.120, 18.988 15.489, 16.641 15.468 C 14.577 15.449, 12.265 14.694, 11.289 13.718 C 9.666 12.094, 9.666 11.906, 11.289 10.282 C 12.265 9.306, 14.577 8.551, 16.641 8.532 C 18.988 8.511, 20.668 7.880, 21.383 6.750 C 22.187 5.478, 22.190 4.522, 21.393 3.250 C 20.789 2.287, 19.436 1.370, 18.386 1.212 M 18 3 C 17.515 3, 16.816 3.489, 16.446 4.087 C 16.077 4.685, 16.275 5.675, 16.887 6.287 C 17.704 7.104, 18.296 7.104, 19.113 6.287 C 19.725 5.675, 19.923 4.685, 19.554 4.087 C 19.184 3.489, 18.485 3, 18 3 M 6 10 C 5.515 10, 4.816 10.489, 4.446 11.087 C 4.077 11.685, 4.275 12.675, 4.887 13.287 C 5.704 14.104, 6.296 14.104, 7.113 13.287 C 7.725 12.675, 7.923 11.685, 7.554 11.087 C 7.184 10.489, 6.485 10, 6 10 M 18 17 C 17.515 17, 16.816 17.489, 16.446 18.087 C 16.077 18.685, 16.275 19.675, 16.887 20.287 C 17.704 21.104, 18.296 21.104, 19.113 20.287 C 19.725 19.675, 19.923 18.685, 19.554 18.087 C 19.184 17.489, 18.485 17, 18 17" stroke="none" fill="black" fill-rule="evenodd"/>
</svg>