<svg xmlns="http://www.w3.org/2000/svg" width="24" height="24" viewBox="0 0 24 24" version="1.1">
	<path d="M 6.750 2.733 C 3.060 4.247, 3 4.359, 3 9.753 C 3 14.788, 3.317 15.552, 6.882 19.118 C 9.018 21.253, 11.321 23, 12 23 C 12.679 23, 14.982 21.253, 17.118 19.118 C 20.683 15.552, 21 14.788, 21 9.754 L 21 4.272 16.717 2.636 C 11.712 0.725, 11.643 0.725, 6.750 2.733 M 8.250 4.491 C 5.366 5.744, 5 6.351, 5 9.875 C 5 14.361, 8.898 20, 12 20 C 15.103 20, 19 14.361, 19 9.872 C 19 6.282, 18.665 5.758, 15.532 4.449 C 11.458 2.747, 12.274 2.742, 8.250 4.491 M 12.981 10.523 C 12.252 11.402, 10.932 11.796, 9.859 11.455 C 7.611 10.742, 7.415 12.270, 9.529 14.024 C 10.798 15.077, 11.480 14.898, 13.529 12.972 C 14.888 11.696, 16 10.280, 16 9.826 C 16 8.494, 14.348 8.876, 12.981 10.523" stroke="none" fill="#000000" fill-rule="evenodd"/>
</svg>