<svg xmlns="http://www.w3.org/2000/svg" width="24" height="24" viewBox="0 0 24 24" version="1.1">
	<path d="M 6.750 2.733 C 3.060 4.247, 3 4.359, 3 9.753 C 3 14.788, 3.317 15.552, 6.882 19.118 C 9.018 21.253, 11.321 23, 12 23 C 12.679 23, 14.982 21.253, 17.118 19.118 C 20.683 15.552, 21 14.788, 21 9.754 L 21 4.272 16.717 2.636 C 11.712 0.725, 11.643 0.725, 6.750 2.733 M 8.250 4.491 C 5.366 5.744, 5 6.351, 5 9.875 C 5 14.361, 8.898 20, 12 20 C 15.103 20, 19 14.361, 19 9.872 C 19 6.282, 18.665 5.758, 15.532 4.449 C 11.458 2.747, 12.274 2.742, 8.250 4.491" stroke="none" fill="black" fill-rule="evenodd"/>
</svg>