<svg xmlns="http://www.w3.org/2000/svg" width="24" height="24" viewBox="0 0 24 24" version="1.1">
	<path d="M 11.467 1.097 C 10.935 1.151, 8.813 1.887, 6.750 2.733 C 3.060 4.247, 3 4.359, 3 9.753 C 3 14.788, 3.317 15.552, 6.882 19.118 C 9.018 21.253, 11.321 23, 12 23 C 12.679 23, 14.982 21.253, 17.118 19.118 C 20.683 15.552, 21 14.788, 21 9.754 L 21 4.272 16.717 2.636 C 14.361 1.736, 11.998 1.044, 11.467 1.097 M 11.782 3.039 C 11.627 3.061, 10.038 3.714, 8.250 4.491 C 5.366 5.744, 5 6.351, 5 9.875 C 5 12.689, 5.755 14.744, 7.589 16.923 C 9.013 18.615, 10.998 20, 12 20 C 13.002 20, 14.987 18.615, 16.411 16.923 C 18.246 14.743, 19 12.689, 19 9.872 C 19 6.282, 18.665 5.758, 15.532 4.449 C 13.625 3.652, 11.937 3.018, 11.782 3.039 M 12.246 9.180 C 10.893 8.988, 9.750 9.488, 9.389 10.430 C 9.057 11.293, 9.057 12.707, 9.389 13.570 C 9.750 14.512, 10.893 15.012, 12.246 14.820 C 13.898 14.585, 14.500 13.833, 14.500 12 C 14.500 10.167, 13.898 9.415, 12.246 9.180 M 12 11 C 11.450 11, 11 11.450, 11 12 C 11 12.550, 11.450 13, 12 13 C 12.550 13, 13 12.550, 13 12 C 13 11.450, 12.550 11, 12 11" stroke="none" fill="black" fill-rule="evenodd"/>
</svg>