<svg viewBox="0 0 24 24" xmlns="http://www.w3.org/2000/svg" fill="none" stroke="#000000" stroke-width="2" stroke-linecap="round" stroke-linejoin="round"><path d="M11.580 2.096 C 11.423 2.171,10.971 2.601,9.480 4.096 L 7.580 6.000 7.160 6.002 C 6.654 6.005,6.303 6.088,5.983 6.281 C 5.703 6.449,5.354 6.816,5.219 7.083 C 4.998 7.519,5.000 7.479,5.000 10.868 L 5.000 14.000 3.870 14.002 C 2.936 14.004,2.694 14.017,2.477 14.073 C 1.788 14.253,1.184 14.886,1.040 15.580 C 1.012 15.715,1.001 16.558,1.009 18.043 L 1.020 20.300 1.131 20.489 C 1.256 20.702,1.449 20.864,1.670 20.943 C 1.893 21.023,22.107 21.023,22.330 20.943 C 22.551 20.864,22.744 20.702,22.869 20.489 L 22.980 20.300 22.991 18.052 C 23.004 15.611,22.996 15.506,22.782 15.083 C 22.646 14.816,22.297 14.449,22.017 14.281 C 21.609 14.035,21.405 14.005,20.130 14.002 L 19.000 14.000 18.999 10.890 C 18.999 7.526,18.998 7.510,18.781 7.083 C 18.646 6.816,18.297 6.449,18.017 6.281 C 17.697 6.088,17.346 6.005,16.840 6.002 L 16.420 6.000 14.520 4.096 C 12.450 2.021,12.425 2.001,12.000 2.001 C 11.851 2.001,11.716 2.031,11.580 2.096 M11.000 5.720 L 11.000 6.000 10.711 6.000 L 10.422 6.000 10.700 5.720 C 10.853 5.566,10.983 5.440,10.989 5.440 C 10.995 5.440,11.000 5.566,11.000 5.720 M13.300 5.720 L 13.578 6.000 13.289 6.000 L 13.000 6.000 13.000 5.720 C 13.000 5.566,13.005 5.440,13.011 5.440 C 13.017 5.440,13.147 5.566,13.300 5.720 M11.009 10.153 L 11.020 12.306 11.141 12.503 C 11.543 13.156,12.457 13.156,12.859 12.503 L 12.980 12.306 12.991 10.153 L 13.003 8.000 15.001 8.000 L 17.000 8.000 17.002 11.590 C 17.003 14.484,17.014 15.209,17.057 15.330 C 17.136 15.551,17.298 15.744,17.511 15.869 L 17.700 15.980 19.350 15.992 L 21.000 16.003 21.000 17.502 L 21.000 19.000 12.000 19.000 L 3.000 19.000 3.000 17.502 L 3.000 16.003 4.650 15.992 L 6.300 15.980 6.489 15.869 C 6.702 15.744,6.864 15.551,6.943 15.330 C 6.986 15.209,6.997 14.484,6.998 11.590 L 7.000 8.000 8.999 8.000 L 10.997 8.000 11.009 10.153 " stroke="none" fill-rule="evenodd" fill="black"></path></svg>