<svg xmlns="http://www.w3.org/2000/svg" width="24" height="24" viewBox="0 0 24 24" version="1.1">
	<path d="M 8.250 4.863 C 5.897 6.878, 5 8.491, 5 10.706 C 5 12.926, 4.450 13.910, 3 14.290 C 1.544 14.671, 1 15.654, 1 17.906 L 1 21 12 21 L 23 21 23 17.906 C 23 15.654, 22.456 14.671, 21 14.290 C 19.537 13.907, 19 12.926, 19 10.633 C 19 8.260, 18.164 6.833, 15.553 4.750 C 13.658 3.237, 11.970 2.018, 11.803 2.041 C 11.637 2.063, 10.038 3.333, 8.250 4.863 M 7 12 C 7 15.333, 6.667 16, 5 16 C 3.889 16, 3 16.667, 3 17.500 C 3 18.722, 4.667 19, 12 19 C 19.333 19, 21 18.722, 21 17.500 C 21 16.667, 20.111 16, 19 16 C 17.333 16, 17 15.333, 17 12 C 17 8.667, 16.667 8, 15 8 C 13.533 8, 13 8.667, 13 10.500 C 13 11.875, 12.550 13, 12 13 C 11.450 13, 11 11.875, 11 10.500 C 11 8.667, 10.467 8, 9 8 C 7.333 8, 7 8.667, 7 12" stroke="none" fill="black" fill-rule="evenodd"/>
</svg>