<svg viewBox="0 0 24 24" xmlns="http://www.w3.org/2000/svg" fill="none" stroke="#000000" stroke-width="2" stroke-linecap="round" stroke-linejoin="round"><path d="M11.499 1.040 C 10.374 1.244,9.486 2.026,9.115 3.140 L 9.021 3.420 9.009 6.210 L 8.996 9.000 5.388 9.000 L 1.780 9.001 1.580 9.094 C 1.203 9.269,0.978 9.645,1.009 10.046 C 1.018 10.164,1.595 12.420,2.292 15.060 C 3.649 20.203,3.625 20.128,4.017 20.635 C 4.544 21.319,5.248 21.754,6.133 21.942 C 6.540 22.029,17.460 22.029,17.867 21.942 C 18.630 21.780,19.250 21.439,19.746 20.908 C 20.003 20.633,20.314 20.165,20.415 19.900 C 20.537 19.578,22.976 10.253,22.991 10.046 C 23.022 9.645,22.797 9.269,22.420 9.094 L 22.220 9.001 18.612 9.000 L 15.004 9.000 14.991 6.210 L 14.979 3.420 14.885 3.140 C 14.557 2.156,13.800 1.403,12.861 1.129 C 12.500 1.023,11.832 0.980,11.499 1.040 M12.310 3.061 C 12.452 3.103,12.571 3.178,12.697 3.303 C 12.948 3.554,13.000 3.751,13.000 4.447 L 13.000 5.000 12.000 5.000 L 11.000 5.000 11.000 4.447 C 11.000 3.750,11.052 3.554,11.304 3.303 C 11.583 3.024,11.916 2.944,12.310 3.061 M13.000 8.000 L 13.000 9.000 12.000 9.000 L 11.000 9.000 11.000 8.000 L 11.000 7.000 12.000 7.000 L 13.000 7.000 13.000 8.000 M20.680 11.042 C 20.680 11.158,18.586 19.046,18.511 19.212 C 18.402 19.454,18.104 19.734,17.809 19.873 L 17.580 19.980 12.000 19.980 L 6.420 19.980 6.191 19.873 C 5.896 19.734,5.598 19.454,5.489 19.212 C 5.414 19.046,3.320 11.158,3.320 11.042 C 3.320 11.013,5.900 11.000,12.000 11.000 C 18.100 11.000,20.680 11.013,20.680 11.042 " stroke="none" fill-rule="evenodd" fill="black"></path></svg>