<svg xmlns="http://www.w3.org/2000/svg" width="24" height="24" viewBox="0 0 24 24" version="1.1">
	<path d="M 12.459 1.208 C 11.336 1.047, 10.099 1.235, 9.709 1.624 C 9.319 2.014, 9 3.833, 9 5.667 C 9 8.889, 8.867 9, 5 9 C 2.800 9, 1 9.251, 1 9.557 C 1 9.864, 1.515 12.226, 2.144 14.807 C 2.774 17.388, 3.729 20.063, 4.267 20.750 C 4.877 21.530, 7.784 22, 12 22 C 16.216 22, 19.123 21.530, 19.733 20.750 C 20.271 20.063, 21.226 17.388, 21.856 14.807 C 22.485 12.226, 23 9.864, 23 9.557 C 23 9.251, 21.227 9, 19.060 9 C 15.230 9, 15.112 8.896, 14.810 5.250 C 14.571 2.363, 14.030 1.433, 12.459 1.208 M 12 3 C 11.450 3, 11 3.450, 11 4 C 11 4.550, 11.450 5, 12 5 C 12.550 5, 13 4.550, 13 4 C 13 3.450, 12.550 3, 12 3 M 12 7 C 11.450 7, 11 7.450, 11 8 C 11 8.550, 11.450 9, 12 9 C 12.550 9, 13 8.550, 13 8 C 13 7.450, 12.550 7, 12 7 M 12 11 L 3.777 11 4.479 14.742 C 4.866 16.801, 5.392 18.826, 5.650 19.242 C 5.907 19.659, 8.765 20, 12 20 C 15.235 20, 18.093 19.659, 18.350 19.242 C 18.608 18.826, 19.134 16.801, 19.521 14.742 L 20.223 11 12 11" stroke="none" fill="black" fill-rule="evenodd"/>
</svg>