<svg xmlns="http://www.w3.org/2000/svg" width="24" height="24" viewBox="0 0 24 24" version="1.1">
	<path d="M 4 2.290 C 0.809 3.898, 0.308 7.308, 2.884 9.884 C 4.278 11.278, 4.985 13.514, 5.196 17.196 L 5.500 22.500 12 22.500 L 18.500 22.500 18.804 17.196 C 19.012 13.576, 19.726 11.274, 21.054 9.946 C 24.491 6.509, 23.348 3.118, 18.222 1.546 C 16.522 1.025, 15.444 1.437, 13.972 3.174 L 12 5.500 10.090 3.250 C 7.888 0.656, 7.394 0.579, 4 2.290 M 3.775 4.558 C 2.773 5.560, 4.199 9, 5.617 9 C 6.641 9, 7 10.558, 7 15 L 7 21 12 21 L 17 21 17 15 C 17 10.558, 17.359 9, 18.383 9 C 19.801 9, 21.227 5.560, 20.225 4.558 C 19.200 3.533, 16.873 3.984, 15.357 5.500 C 13.440 7.417, 10.560 7.417, 8.643 5.500 C 7.127 3.984, 4.800 3.533, 3.775 4.558" stroke="none" fill="#000000" fill-rule="evenodd"/>
</svg>