<svg xmlns="http://www.w3.org/2000/svg" width="24" height="24" viewBox="0 0 24 24" version="1.1">
	<path d="M 7.340 1.015 C 6.878 1.023, 5.375 1.597, 4 2.290 C 2.625 2.983, 1.360 4.524, 1.189 5.714 C 1.017 6.903, 1.780 8.780, 2.884 9.884 C 4.278 11.278, 4.985 13.514, 5.196 17.196 L 5.500 22.500 12 22.500 L 18.500 22.500 18.804 17.196 C 19.012 13.576, 19.726 11.274, 21.054 9.946 C 22.124 8.876, 23 7.155, 23 6.122 C 23 5.090, 22.438 3.795, 21.750 3.245 C 21.063 2.695, 19.475 1.930, 18.222 1.546 C 16.522 1.025, 15.444 1.437, 13.972 3.174 L 12 5.500 10.090 3.250 C 9.039 2.012, 7.802 1.007, 7.340 1.015 M 5.738 4 C 4.965 4, 4.082 4.251, 3.775 4.558 C 3.469 4.865, 3.446 5.990, 3.725 7.058 C 4.005 8.126, 4.856 9, 5.617 9 C 6.641 9, 7 10.558, 7 15 L 7 21 12 21 L 17 21 17 15 C 17 10.558, 17.359 9, 18.383 9 C 19.144 9, 19.995 8.126, 20.275 7.058 C 20.554 5.990, 20.531 4.865, 20.225 4.558 C 19.918 4.251, 19.035 4, 18.262 4 C 17.489 4, 16.182 4.675, 15.357 5.500 C 14.532 6.325, 13.021 7, 12 7 C 10.979 7, 9.468 6.325, 8.643 5.500 C 7.818 4.675, 6.511 4, 5.738 4" stroke="none" fill="black" fill-rule="evenodd"/>
</svg>