<svg xmlns="http://www.w3.org/2000/svg" width="24" height="24" viewBox="0 0 24 24" version="1.1">
	<path d="M 6.709 4.657 L 1.917 8.253 2.209 15.376 L 2.500 22.500 12 22.500 L 21.500 22.500 21.791 15.366 L 22.083 8.231 17.157 4.616 C 14.448 2.627, 12.067 1.014, 11.866 1.030 C 11.665 1.047, 9.344 2.679, 6.709 4.657 M 8.861 5.967 L 6.500 7.933 12 7.933 L 17.500 7.933 15.139 5.967 C 13.841 4.885, 12.428 4, 12 4 C 11.572 4, 10.159 4.885, 8.861 5.967 M 4 15.500 C 4 20.333, 4.242 21, 6 21 C 7.667 21, 8 20.333, 8 17 L 8 13 12 13 L 16 13 16 17 C 16 20.333, 16.333 21, 18 21 C 19.758 21, 20 20.333, 20 15.500 L 20 10 12 10 L 4 10 4 15.500 M 10 18 C 10 20.333, 10.444 21, 12 21 C 13.556 21, 14 20.333, 14 18 C 14 15.667, 13.556 15, 12 15 C 10.444 15, 10 15.667, 10 18" stroke="none" fill="#000000" fill-rule="evenodd"/>
</svg>