<svg viewBox="0 0 24 24" xmlns="http://www.w3.org/2000/svg" fill="none" stroke="#000000" stroke-width="2" stroke-linecap="round" stroke-linejoin="round"><path d="M11.660 1.062 C 11.567 1.097,9.603 2.596,7.000 4.620 C 4.525 6.544,2.430 8.176,2.345 8.246 C 2.258 8.317,2.147 8.465,2.094 8.582 L 1.998 8.791 2.009 14.686 L 2.020 20.580 2.114 20.860 C 2.446 21.851,3.184 22.582,4.160 22.886 L 4.460 22.980 12.000 22.980 L 19.540 22.980 19.840 22.886 C 20.816 22.582,21.554 21.851,21.886 20.860 L 21.980 20.580 21.991 14.686 L 22.002 8.791 21.906 8.582 C 21.853 8.465,21.742 8.317,21.655 8.246 C 20.942 7.661,12.544 1.165,12.422 1.103 C 12.223 1.003,11.869 0.984,11.660 1.062 M15.049 5.640 L 18.058 7.980 15.029 7.990 C 13.363 7.996,10.637 7.996,8.971 7.990 L 5.943 7.980 8.961 5.631 C 10.622 4.339,11.993 3.286,12.010 3.291 C 12.026 3.296,13.394 4.353,15.049 5.640 M20.000 15.054 C 20.000 19.220,19.990 20.139,19.945 20.290 C 19.872 20.533,19.707 20.740,19.484 20.872 L 19.300 20.980 17.651 20.992 L 16.002 21.003 15.991 17.352 L 15.980 13.700 15.872 13.516 C 15.740 13.293,15.533 13.128,15.290 13.055 C 15.021 12.974,8.979 12.974,8.710 13.055 C 8.467 13.128,8.260 13.293,8.128 13.516 L 8.020 13.700 8.009 17.352 L 7.998 21.003 6.349 20.992 L 4.700 20.980 4.516 20.872 C 4.415 20.813,4.284 20.700,4.225 20.623 C 3.988 20.313,4.000 20.603,4.000 15.075 L 4.000 10.000 12.000 10.000 L 20.000 10.000 20.000 15.054 M14.000 18.000 L 14.000 21.000 12.000 21.000 L 10.000 21.000 10.000 18.000 L 10.000 15.000 12.000 15.000 L 14.000 15.000 14.000 18.000 " stroke="none" fill-rule="evenodd" fill="black"></path></svg>