<svg viewBox="0 0 24 24" xmlns="http://www.w3.org/2000/svg" fill="none" stroke="#000000" stroke-width="2" stroke-linecap="round" stroke-linejoin="round"><path d="M18.671 2.064 C 18.563 2.097,18.415 2.186,18.327 2.271 C 18.230 2.364,17.624 3.337,16.702 4.880 L 15.230 7.340 8.199 14.380 C 4.332 18.252,1.138 21.481,1.101 21.555 C 0.873 22.011,1.056 22.601,1.508 22.867 C 1.673 22.964,1.742 22.980,2.000 22.979 C 2.212 22.979,2.341 22.957,2.440 22.905 C 2.517 22.865,4.148 21.266,6.065 19.351 L 9.550 15.871 9.672 16.048 C 9.984 16.502,10.619 16.627,11.055 16.321 C 11.146 16.258,12.660 14.763,14.420 13.001 L 17.620 9.795 20.152 8.274 C 22.868 6.643,22.861 6.648,22.965 6.264 C 23.027 6.034,22.984 5.708,22.866 5.508 C 22.811 5.416,22.040 4.618,21.153 3.735 C 19.712 2.302,19.519 2.124,19.343 2.065 C 19.105 1.987,18.923 1.986,18.671 2.064 M19.799 5.219 C 20.116 5.537,20.368 5.805,20.358 5.815 C 20.337 5.835,17.630 7.461,17.513 7.524 C 17.439 7.563,17.438 7.559,17.487 7.468 C 17.634 7.197,19.182 4.640,19.200 4.640 C 19.212 4.640,19.481 4.900,19.799 5.219 " stroke="none" fill-rule="evenodd" fill="black"></path></svg>