<svg xmlns="http://www.w3.org/2000/svg" width="24" height="24" viewBox="0 0 24 24" version="1.1">
	<path d="M 9.548 1 C 9.247 1, 9 1.450, 9 2 C 9 2.550, 7.650 3, 6 3 C 4.350 3, 3 3.450, 3 4 C 3 4.550, 4.710 5, 6.800 5 C 8.890 5, 11.140 5.540, 11.800 6.200 C 12.460 6.860, 13 9.615, 13 12.322 C 13 16.619, 12.806 17.084, 11.476 15.980 C 10.638 15.284, 9.625 15.043, 9.226 15.444 C 8.827 15.844, 9.562 17.033, 10.861 18.086 C 12.159 19.139, 13.622 20, 14.111 20 C 14.600 20, 15 19.363, 15 18.583 C 15 17.804, 15.562 16.960, 16.250 16.708 C 17.250 16.342, 17.250 15.985, 16.250 14.925 C 15.563 14.196, 14.986 12.003, 14.968 10.050 C 14.948 7.752, 14.083 5.530, 12.516 3.750 C 11.185 2.237, 9.849 1, 9.548 1 M 9 21 C 5.667 21, 3 21.444, 3 22 C 3 22.556, 5.667 23, 9 23 C 12.333 23, 15 22.556, 15 22 C 15 21.444, 12.333 21, 9 21" stroke="none" fill="black" fill-rule="evenodd"/>
</svg>