<svg viewBox="0 0 24 24" xmlns="http://www.w3.org/2000/svg" fill="none" stroke="#000000" stroke-width="2" stroke-linecap="round" stroke-linejoin="round"><path d="M7.499 2.043 C 6.388 2.232,5.470 3.041,5.118 4.140 C 5.042 4.379,5.026 4.536,5.010 5.205 L 4.991 5.991 4.225 6.010 C 3.567 6.027,3.415 6.043,3.139 6.126 C 2.181 6.415,1.420 7.179,1.114 8.160 L 1.020 8.460 1.020 12.500 L 1.020 16.540 1.114 16.840 C 1.419 17.816,2.153 18.557,3.140 18.885 C 3.418 18.977,3.438 18.978,5.708 18.991 L 7.996 19.004 8.008 20.155 L 8.020 21.307 8.141 21.503 C 8.543 22.156,9.457 22.156,9.859 21.503 L 9.980 21.307 9.992 20.153 L 10.005 19.000 10.500 19.000 L 10.995 19.000 11.008 20.153 L 11.020 21.307 11.141 21.503 C 11.209 21.613,11.346 21.756,11.452 21.828 C 11.923 22.144,12.554 21.999,12.859 21.503 L 12.980 21.307 12.992 20.153 L 13.005 19.000 13.500 19.000 L 13.995 19.000 14.008 20.153 L 14.020 21.307 14.141 21.503 C 14.543 22.156,15.457 22.156,15.859 21.503 L 15.980 21.307 15.992 20.155 L 16.004 19.004 18.292 18.991 C 20.562 18.978,20.582 18.977,20.860 18.885 C 21.847 18.557,22.581 17.816,22.886 16.840 L 22.980 16.540 22.980 12.500 L 22.980 8.460 22.886 8.160 C 22.580 7.179,21.819 6.415,20.861 6.126 C 20.585 6.043,20.433 6.027,19.775 6.010 L 19.009 5.991 18.990 5.205 C 18.974 4.536,18.958 4.379,18.882 4.140 C 18.573 3.174,17.823 2.425,16.861 2.121 L 16.540 2.020 12.120 2.014 C 9.689 2.011,7.609 2.024,7.499 2.043 M16.310 4.061 C 16.452 4.103,16.571 4.178,16.697 4.303 C 16.948 4.554,17.000 4.751,17.000 5.447 L 17.000 6.000 12.000 6.000 L 7.000 6.000 7.000 5.447 C 7.000 4.750,7.052 4.554,7.304 4.303 C 7.618 3.989,7.346 4.006,11.983 4.003 C 15.563 4.000,16.132 4.008,16.310 4.061 M20.310 8.061 C 20.589 8.144,20.856 8.411,20.939 8.690 C 20.992 8.866,21.000 9.389,21.000 12.501 C 21.000 16.415,21.005 16.321,20.779 16.618 C 20.718 16.698,20.585 16.813,20.484 16.872 L 20.300 16.980 12.000 16.980 L 3.700 16.980 3.516 16.872 C 3.303 16.747,3.141 16.550,3.058 16.316 C 2.969 16.062,2.971 8.991,3.061 8.690 C 3.140 8.421,3.412 8.143,3.673 8.063 C 3.833 8.014,5.030 8.005,11.983 8.003 C 19.144 8.000,20.130 8.007,20.310 8.061 " stroke="none" fill-rule="evenodd" fill="black"></path></svg>