<svg xmlns="http://www.w3.org/2000/svg" width="24" height="24" viewBox="0 0 24 24" version="1.1">
	<path d="M 5.314 3.908 C 5.040 4.957, 3.933 6.046, 2.855 6.328 C 1.145 6.775, 0.934 7.582, 1.198 12.670 C 1.497 18.444, 1.531 18.503, 4.750 18.813 C 6.763 19.007, 8 19.673, 8 20.563 C 8 22.592, 9.761 22.353, 10.311 20.250 C 10.746 18.583, 10.774 18.583, 10.884 20.250 C 10.948 21.212, 11.417 22, 11.927 22 C 12.436 22, 13.059 21.212, 13.311 20.250 C 13.746 18.583, 13.774 18.583, 13.884 20.250 C 14.022 22.339, 16 22.632, 16 20.563 C 16 19.673, 17.237 19.007, 19.250 18.813 C 22.469 18.503, 22.503 18.444, 22.802 12.670 C 23.066 7.582, 22.855 6.775, 21.145 6.328 C 20.067 6.046, 18.960 4.957, 18.686 3.908 C 18.263 2.290, 17.246 2, 12 2 C 6.754 2, 5.737 2.290, 5.314 3.908 M 7 5 C 7 5.550, 9.250 6, 12 6 C 14.750 6, 17 5.550, 17 5 C 17 4.450, 14.750 4, 12 4 C 9.250 4, 7 4.450, 7 5 M 3 12.500 L 3 17 12 17 L 21 17 21 12.500 L 21 8 12 8 L 3 8 3 12.500" stroke="none" fill="#000000" fill-rule="evenodd"/>
</svg>