<svg xmlns="http://www.w3.org/2000/svg" width="24" height="24" viewBox="0 0 24 24" version="1.1">
	<path d="M 17.727 4.727 C 15.057 7.398, 15 7.408, 15 5.227 C 15 4.002, 14.550 3, 14 3 C 13.450 3, 13 4.800, 13 7 L 13 11 17 11 C 19.200 11, 21 10.550, 21 10 C 21 9.450, 20.016 9, 18.813 9 C 16.682 9, 16.695 8.928, 19.313 6.195 C 23.816 1.495, 22.333 0.122, 17.727 4.727 M 3 14 C 3 14.550, 3.984 15, 5.187 15 C 7.286 15, 7.258 15.121, 4.510 17.990 C 0.776 21.887, 2.113 23.224, 6.010 19.490 C 8.879 16.742, 9 16.714, 9 18.813 C 9 20.016, 9.450 21, 10 21 C 10.550 21, 11 19.200, 11 17 L 11 13 7 13 C 4.800 13, 3 13.450, 3 14" stroke="none" fill="#000000" fill-rule="evenodd"/>
</svg>