<svg xmlns="http://www.w3.org/2000/svg" width="24" height="24" viewBox="0 0 24 24" version="1.1">
	<path d="M 9.238 6.162 C 8.557 6.843, 8 7.947, 8 8.617 C 8 9.286, 7.438 10.023, 6.750 10.254 C 5.785 10.579, 5.825 11.068, 6.925 12.400 C 8.221 13.970, 8.123 14.069, 5.850 13.499 C 4.178 13.079, 2.915 13.397, 2.033 14.460 C 0.526 16.276, 1.480 17.920, 3.101 16.299 C 4.288 15.112, 8 15.732, 8 17.117 C 8 17.602, 8.450 18, 9 18 C 9.550 18, 10 16.875, 10 15.500 C 10 13.667, 10.533 13, 12 13 C 13.467 13, 14 13.667, 14 15.500 C 14 16.875, 14.450 18, 15 18 C 15.550 18, 16 17.602, 16 17.117 C 16 15.732, 19.712 15.112, 20.899 16.299 C 22.520 17.920, 23.474 16.276, 21.967 14.460 C 21.085 13.397, 19.822 13.079, 18.150 13.499 C 15.923 14.058, 15.799 13.947, 17.011 12.487 C 17.812 11.522, 17.986 10.570, 17.436 10.174 C 16.921 9.803, 16.004 8.600, 15.398 7.500 C 14.083 5.114, 10.963 4.437, 9.238 6.162 M 10.446 8.087 C 9.416 9.755, 11.733 11.667, 13.113 10.287 C 14.267 9.133, 13.545 7, 12 7 C 11.515 7, 10.816 7.489, 10.446 8.087" stroke="none" fill="#000000" fill-rule="evenodd"/>
</svg>