<svg viewBox="0 0 24 24" xmlns="http://www.w3.org/2000/svg" fill="none" stroke="#000000" stroke-width="2" stroke-linecap="round" stroke-linejoin="round"><path d="M11.358 5.061 C 9.150 5.405,7.636 7.582,8.082 9.772 C 8.166 10.182,8.365 10.722,8.533 10.991 C 8.584 11.073,8.641 11.167,8.660 11.200 C 8.678 11.233,8.433 11.007,8.116 10.697 C 7.646 10.239,7.501 10.121,7.342 10.067 C 6.866 9.905,6.382 10.084,6.128 10.516 C 6.037 10.672,6.020 10.746,6.020 11.000 C 6.020 11.254,6.036 11.328,6.127 11.480 C 6.186 11.579,6.632 12.056,7.117 12.540 L 8.000 13.419 7.997 14.120 C 7.995 14.775,7.991 14.810,7.937 14.664 C 7.861 14.456,7.713 14.267,7.545 14.163 C 7.469 14.116,6.682 13.836,5.796 13.539 C 4.570 13.129,4.135 13.000,3.982 13.000 C 3.598 13.001,3.477 13.093,2.274 14.306 C 1.666 14.919,1.136 15.483,1.095 15.560 C 1.043 15.659,1.021 15.787,1.021 16.000 C 1.020 16.258,1.036 16.327,1.133 16.492 C 1.263 16.714,1.502 16.901,1.736 16.965 C 1.939 17.019,2.267 16.989,2.445 16.899 C 2.519 16.861,2.960 16.453,3.425 15.991 L 4.271 15.151 5.549 15.576 C 6.315 15.830,6.891 16.000,6.986 16.000 C 7.390 16.000,7.821 15.704,7.927 15.354 C 7.975 15.197,7.982 15.284,8.000 16.243 L 8.020 17.307 8.141 17.503 C 8.543 18.156,9.457 18.156,9.859 17.503 L 9.980 17.306 9.992 15.103 C 10.004 12.796,9.996 12.668,9.830 12.456 C 9.786 12.401,9.758 12.349,9.766 12.340 C 9.775 12.332,9.869 12.379,9.975 12.445 C 10.489 12.765,11.346 13.000,12.000 13.000 C 12.654 13.000,13.511 12.765,14.025 12.445 C 14.131 12.379,14.225 12.332,14.234 12.340 C 14.242 12.349,14.214 12.401,14.170 12.456 C 14.004 12.668,13.996 12.796,14.008 15.103 L 14.020 17.306 14.141 17.503 C 14.543 18.156,15.457 18.156,15.859 17.503 L 15.980 17.307 16.000 16.243 C 16.018 15.284,16.025 15.197,16.073 15.354 C 16.179 15.704,16.610 16.000,17.014 16.000 C 17.109 16.000,17.685 15.830,18.451 15.576 L 19.729 15.151 20.575 15.991 C 21.040 16.453,21.483 16.864,21.560 16.905 C 21.659 16.957,21.787 16.979,22.000 16.979 C 22.258 16.980,22.327 16.964,22.492 16.867 C 22.714 16.737,22.901 16.498,22.965 16.264 C 23.019 16.061,22.989 15.733,22.899 15.555 C 22.862 15.481,22.334 14.919,21.726 14.306 C 20.523 13.093,20.402 13.001,20.018 13.000 C 19.865 13.000,19.430 13.129,18.204 13.539 C 17.318 13.836,16.531 14.116,16.455 14.163 C 16.287 14.267,16.139 14.456,16.063 14.664 C 16.009 14.810,16.005 14.775,16.003 14.120 L 16.000 13.419 16.883 12.540 C 17.368 12.056,17.814 11.579,17.873 11.480 C 17.964 11.328,17.980 11.254,17.980 11.000 C 17.980 10.746,17.963 10.672,17.872 10.516 C 17.618 10.084,17.134 9.905,16.658 10.067 C 16.499 10.121,16.354 10.239,15.884 10.697 C 15.567 11.007,15.322 11.233,15.340 11.200 C 15.359 11.167,15.417 11.072,15.469 10.988 C 15.631 10.728,15.838 10.164,15.921 9.757 C 16.070 9.024,15.994 8.230,15.705 7.516 C 15.172 6.197,14.001 5.269,12.605 5.058 C 12.144 4.989,11.816 4.990,11.358 5.061 M12.523 7.073 C 13.262 7.266,13.850 7.924,13.967 8.690 C 14.067 9.343,13.873 9.933,13.403 10.404 C 13.002 10.807,12.547 11.000,12.000 11.000 C 11.485 11.000,11.038 10.822,10.653 10.465 C 9.323 9.229,10.189 7.005,12.000 7.005 C 12.143 7.005,12.378 7.036,12.523 7.073 " stroke="none" fill-rule="evenodd" fill="black"></path></svg>