<svg xmlns="http://www.w3.org/2000/svg" width="24" height="24" viewBox="0 0 24 24" version="1.1">
	<path d="M 17.826 1 C 17.372 1, 17 1.360, 17 1.800 C 17 2.240, 17.540 3.140, 18.200 3.800 C 19.133 4.733, 18.816 5, 16.773 5 C 15.125 5, 13.372 5.983, 12.073 7.635 L 10 10.270 7.927 7.635 C 6.705 6.081, 4.859 5, 3.427 5 C 2.092 5, 1 5.450, 1 6 C 1 6.550, 1.890 7, 2.977 7 C 4.064 7, 5.691 8.125, 6.592 9.500 C 8.109 11.816, 8.109 12.184, 6.592 14.500 C 5.691 15.875, 4.064 17, 2.977 17 C 1.890 17, 1 17.450, 1 18 C 1 18.550, 2.092 19, 3.427 19 C 4.859 19, 6.705 17.919, 7.927 16.365 L 10 13.730 12.073 16.365 C 13.343 17.981, 15.131 19, 16.695 19 C 18.866 19, 19.057 19.226, 17.980 20.524 C 17.284 21.362, 17.018 22.351, 17.388 22.721 C 17.758 23.091, 19.274 22.180, 20.758 20.697 L 23.455 18 20.758 15.303 C 19.274 13.820, 17.758 12.909, 17.388 13.279 C 17.018 13.649, 17.284 14.638, 17.980 15.476 C 19.045 16.759, 18.913 17, 17.145 17 C 15.991 17, 14.309 15.875, 13.408 14.500 C 11.891 12.184, 11.891 11.816, 13.408 9.500 C 14.309 8.125, 15.991 7, 17.145 7 C 18.913 7, 19.045 7.241, 17.980 8.524 C 17.284 9.362, 17.018 10.351, 17.388 10.721 C 17.758 11.091, 19.262 10.193, 20.730 8.724 L 23.400 6.055 21.026 3.527 C 19.720 2.137, 18.280 1, 17.826 1" stroke="none" fill="black" fill-rule="evenodd"/>
</svg>