<svg xmlns="http://www.w3.org/2000/svg" width="24" height="24" viewBox="0 0 24 24" version="1.1">
	<path d="M 15 3 C 15 3.550, 15.777 4, 16.727 4 C 17.844 4, 15.656 6.813, 10.530 11.970 C 6.172 16.353, 2.934 20.267, 3.333 20.667 C 3.733 21.066, 7.647 17.828, 12.030 13.470 C 17.187 8.344, 20 6.156, 20 7.273 C 20 8.223, 20.450 9, 21 9 C 21.550 9, 22 7.425, 22 5.500 C 22 2.167, 21.833 2, 18.500 2 C 16.575 2, 15 2.450, 15 3 M 3 3.813 C 3 5.187, 8.935 10.398, 9.667 9.667 C 10.045 9.289, 9.065 7.634, 7.490 5.990 C 4.661 3.036, 3 2.231, 3 3.813 M 14 14.686 C 14 15.063, 14.978 16.413, 16.174 17.686 C 18.021 19.651, 18.096 20, 16.674 20 C 15.753 20, 15 20.450, 15 21 C 15 21.550, 16.575 22, 18.500 22 C 21.833 22, 22 21.833, 22 18.500 C 22 16.575, 21.550 15, 21 15 C 20.450 15, 20 15.753, 20 16.674 C 20 18.096, 19.651 18.021, 17.686 16.174 C 15.345 13.975, 14 13.432, 14 14.686" stroke="none" fill="#000000" fill-rule="evenodd"/>
</svg>