<svg xmlns="http://www.w3.org/2000/svg" width="24" height="24" viewBox="0 0 24 24" version="1.1">
	<path d="M 4.400 4.400 C 1.613 7.187, 1 8.557, 1 12 C 1 15.443, 1.613 16.813, 4.400 19.600 C 9.223 24.423, 14.777 24.423, 19.600 19.600 C 22.387 16.813, 23 15.443, 23 12 C 23 5.986, 18.014 1, 12 1 C 8.557 1, 7.187 1.613, 4.400 4.400 M 8 4.253 C 2.770 6.984, 1.773 14.674, 6.137 18.624 C 9.054 21.264, 15.391 21.054, 18.222 18.222 C 21.155 15.290, 21.288 8.843, 18.474 6.029 C 15.873 3.429, 11.123 2.623, 8 4.253 M 5 12 C 5 12.571, 8 13, 12 13 C 16 13, 19 12.571, 19 12 C 19 11.429, 16 11, 12 11 C 8 11, 5 11.429, 5 12" stroke="none" fill="black" fill-rule="evenodd"/>
</svg>