<svg xmlns="http://www.w3.org/2000/svg" width="24" height="24" viewBox="0 0 24 24" version="1.1">
	<path d="M 7.500 1.894 C 3.457 3.652, 1.500 6.976, 1.500 12.082 C 1.500 16.074, 2.001 17.456, 4.273 19.727 C 6.557 22.011, 7.919 22.500, 12 22.500 C 19.011 22.500, 22.500 19.011, 22.500 12 C 22.500 7.999, 22 6.546, 19.903 4.448 C 17.099 1.644, 10.974 0.383, 7.500 1.894 M 5.923 5.923 C 3.928 7.918, 3 9.848, 3 12 C 3 16.302, 7.698 21, 12 21 C 14.152 21, 16.082 20.072, 18.077 18.077 C 22.007 14.147, 22.007 9.853, 18.077 5.923 C 14.147 1.993, 9.853 1.993, 5.923 5.923 M 8 11.940 C 8 15.313, 8.443 18, 9 18 C 9.550 18, 10 17.130, 10 16.066 C 10 14.721, 10.806 14.037, 12.649 13.816 C 18.944 13.064, 18.115 6.740, 11.649 6.190 L 8 5.879 8 11.940 M 10 10 C 10 11.646, 10.518 12.065, 12.250 11.820 C 13.488 11.644, 14.500 10.825, 14.500 10 C 14.500 9.175, 13.488 8.356, 12.250 8.180 C 10.518 7.935, 10 8.354, 10 10" stroke="none" fill="black" fill-rule="evenodd"/>
</svg>