<svg xmlns="http://www.w3.org/2000/svg" width="24" height="24" viewBox="0 0 24 24" version="1.1">
	<path d="M 12 2 C 11.450 2, 11 2.675, 11 3.500 C 11 4.583, 9.889 5, 7 5 C 4.800 5, 3 5.360, 3 5.800 C 3 6.240, 3.540 7.140, 4.200 7.800 C 5.133 8.733, 5.133 9.267, 4.200 10.200 C 3.540 10.860, 3 11.760, 3 12.200 C 3 12.640, 3.730 13, 4.622 13 C 5.960 13, 6.024 13.267, 4.984 14.519 C 3.953 15.762, 4.050 16.397, 5.517 18.019 C 6.503 19.108, 8.140 20, 9.155 20 C 10.170 20, 11 20.675, 11 21.500 C 11 22.325, 11.450 23, 12 23 C 12.550 23, 13 22.325, 13 21.500 C 13 20.417, 14.111 20, 17 20 C 19.200 20, 21 19.640, 21 19.200 C 21 18.760, 20.460 17.860, 19.800 17.200 C 18.867 16.267, 18.867 15.733, 19.800 14.800 C 20.460 14.140, 21 13.240, 21 12.800 C 21 12.360, 20.270 12, 19.378 12 C 18.040 12, 17.976 11.733, 19.016 10.481 C 20.047 9.238, 19.950 8.603, 18.483 6.981 C 17.497 5.892, 15.860 5, 14.845 5 C 13.830 5, 13 4.325, 13 3.500 C 13 2.675, 12.550 2, 12 2 M 9.214 7 C 8.095 7, 7.429 7.747, 7.429 9 C 7.429 10.253, 8.095 11, 9.214 11 C 10.333 11, 11 10.253, 11 9 C 11 7.747, 10.333 7, 9.214 7 M 14.750 7.190 C 13.522 6.954, 13 7.494, 13 9 C 13 10.506, 13.522 11.046, 14.750 10.810 C 15.713 10.624, 16.500 9.810, 16.500 9 C 16.500 8.190, 15.713 7.376, 14.750 7.190 M 9.559 14 C 8.766 14, 7.840 14.450, 7.500 15 C 7.160 15.550, 7.160 16.450, 7.500 17 C 7.840 17.550, 8.766 18, 9.559 18 C 10.352 18, 11 17.100, 11 16 C 11 14.900, 10.352 14, 9.559 14 M 14.786 14 C 13.667 14, 13 14.747, 13 16 C 13 17.253, 13.667 18, 14.786 18 C 15.905 18, 16.571 17.253, 16.571 16 C 16.571 14.747, 15.905 14, 14.786 14" stroke="none" fill="black" fill-rule="evenodd"/>
</svg>