<svg xmlns="http://www.w3.org/2000/svg" width="24" height="24" viewBox="0 0 24 24" version="1.1">
	<path d="M 8.714 1.619 C 8.321 2.012, 8 3.246, 8 4.362 C 8 5.478, 6.791 7.653, 5.313 9.195 L 2.626 12 5.228 14.750 C 6.659 16.262, 7.981 18.625, 8.165 20 C 8.450 22.127, 9.023 22.500, 12 22.500 C 14.977 22.500, 15.550 22.127, 15.835 20 C 16.019 18.625, 17.341 16.262, 18.772 14.750 L 21.374 12 18.772 9.250 C 17.341 7.738, 16.019 5.375, 15.835 4 C 15.572 2.039, 14.845 1.436, 12.464 1.203 C 10.794 1.039, 9.107 1.227, 8.714 1.619 M 10.360 12 C 10.360 19.675, 10.601 21, 12 21 C 13.399 21, 13.640 19.675, 13.640 12 C 13.640 4.325, 13.399 3, 12 3 C 10.601 3, 10.360 4.325, 10.360 12" stroke="none" fill="black" fill-rule="evenodd"/>
</svg>