<svg xmlns="http://www.w3.org/2000/svg" width="24" height="24" viewBox="0 0 24 24" version="1.1">
	<path d="M 6.068 10.374 C 3.281 15.529, 1 20.029, 1 20.374 C 1 20.718, 5.950 21, 12 21 C 18.050 21, 23 20.718, 23 20.374 C 23 18.968, 12.798 1, 12 1 C 11.525 1, 8.856 5.218, 6.068 10.374 M 7.691 12.007 L 3.883 19 12 19 L 20.117 19 16.309 12.007 C 14.214 8.160, 12.275 5.013, 12 5.013 C 11.725 5.013, 9.786 8.160, 7.691 12.007 M 11 10.500 C 11 12.425, 11.450 14, 12 14 C 12.550 14, 13 12.425, 13 10.500 C 13 8.575, 12.550 7, 12 7 C 11.450 7, 11 8.575, 11 10.500 M 11 17 C 11 17.550, 11.450 18, 12 18 C 12.550 18, 13 17.550, 13 17 C 13 16.450, 12.550 16, 12 16 C 11.450 16, 11 16.450, 11 17" stroke="none" fill="black" fill-rule="evenodd"/>
</svg>