<svg xmlns="http://www.w3.org/2000/svg" width="24" height="24" viewBox="0 0 24 24" version="1.1">
	<path d="M 13.403 1.438 C 11.256 1.210, 8.600 1.416, 7.500 1.894 C 6.400 2.373, 4.600 3.764, 3.500 4.987 C 2.078 6.568, 1.500 8.618, 1.500 12.082 C 1.500 16.074, 2.001 17.456, 4.273 19.727 C 6.557 22.011, 7.919 22.500, 12 22.500 C 16.081 22.500, 17.443 22.011, 19.727 19.727 C 22.011 17.443, 22.500 16.081, 22.500 12 C 22.500 7.999, 22 6.546, 19.903 4.448 C 18.256 2.802, 15.876 1.699, 13.403 1.438 M 12 3 C 9.848 3, 7.918 3.928, 5.923 5.923 C 3.928 7.918, 3 9.848, 3 12 C 3 14.152, 3.928 16.082, 5.923 18.077 C 7.918 20.072, 9.848 21, 12 21 C 14.152 21, 16.082 20.072, 18.077 18.077 C 20.072 16.082, 21 14.152, 21 12 C 21 9.848, 20.072 7.918, 18.077 5.923 C 16.082 3.928, 14.152 3, 12 3 M 11.649 6.190 L 8 5.879 8 11.940 C 8 15.313, 8.443 18, 9 18 C 9.550 18, 10 17.130, 10 16.066 C 10 14.721, 10.806 14.037, 12.649 13.816 C 14.106 13.642, 15.791 12.713, 16.394 11.750 C 17.188 10.481, 17.188 9.519, 16.394 8.250 C 15.755 7.230, 13.775 6.371, 11.649 6.190 M 12.250 8.180 C 10.518 7.935, 10 8.354, 10 10 C 10 11.646, 10.518 12.065, 12.250 11.820 C 13.488 11.644, 14.500 10.825, 14.500 10 C 14.500 9.175, 13.488 8.356, 12.250 8.180" stroke="none" fill="black" fill-rule="evenodd"/>
</svg>