<svg viewBox="0 0 24 24" xmlns="http://www.w3.org/2000/svg" fill="none" stroke="#000000" stroke-width="2" stroke-linecap="round" stroke-linejoin="round"><path d="M5.499 1.043 C 4.380 1.232,3.461 2.048,3.114 3.160 L 3.020 3.460 3.020 12.000 L 3.020 20.540 3.114 20.840 C 3.422 21.827,4.173 22.578,5.160 22.886 L 5.460 22.980 12.000 22.980 L 18.540 22.980 18.840 22.886 C 19.816 22.582,20.554 21.851,20.886 20.860 L 20.980 20.580 20.991 14.223 C 21.001 8.429,20.996 7.848,20.936 7.663 C 20.876 7.474,20.647 7.236,17.725 4.316 C 15.602 2.193,14.528 1.147,14.420 1.096 C 14.266 1.023,14.093 1.020,9.980 1.014 C 7.626 1.011,5.609 1.024,5.499 1.043 M16.290 5.710 L 19.000 8.420 19.000 14.264 C 19.000 19.099,18.991 20.139,18.945 20.290 C 18.872 20.533,18.707 20.740,18.484 20.872 L 18.300 20.980 12.000 20.980 L 5.700 20.980 5.516 20.872 C 5.415 20.813,5.284 20.700,5.225 20.623 C 4.985 20.308,5.000 20.888,5.000 12.022 C 5.000 2.888,4.974 3.632,5.304 3.303 C 5.617 2.990,5.376 3.006,9.720 3.003 L 13.580 3.000 16.290 5.710 M9.695 6.057 C 9.466 6.129,9.256 6.299,9.128 6.516 L 9.020 6.700 9.009 8.940 C 8.998 10.948,9.004 11.198,9.063 11.354 C 9.155 11.595,9.343 11.796,9.580 11.906 L 9.780 11.999 12.000 11.999 L 14.220 11.999 14.420 11.906 C 14.657 11.796,14.845 11.595,14.937 11.354 C 14.996 11.198,15.002 10.948,14.991 8.940 L 14.980 6.700 14.871 6.514 C 14.479 5.848,13.521 5.848,13.129 6.514 L 13.020 6.700 13.008 8.350 L 12.997 10.000 12.000 10.000 L 11.003 10.000 10.992 8.350 L 10.980 6.700 10.872 6.516 C 10.628 6.101,10.150 5.915,9.695 6.057 M9.580 14.094 C 9.343 14.204,9.155 14.405,9.063 14.646 C 9.004 14.802,8.998 15.053,9.009 17.063 L 9.020 19.306 9.141 19.503 C 9.543 20.156,10.457 20.156,10.859 19.503 L 10.980 19.306 10.992 17.653 L 11.003 16.000 12.000 16.000 L 12.997 16.000 13.008 17.653 L 13.020 19.306 13.141 19.503 C 13.543 20.156,14.457 20.156,14.859 19.503 L 14.980 19.306 14.991 17.063 C 15.002 15.053,14.996 14.802,14.937 14.646 C 14.845 14.405,14.657 14.204,14.420 14.094 L 14.220 14.001 12.000 14.001 L 9.780 14.001 9.580 14.094 " stroke="none" fill-rule="evenodd" fill="black"></path></svg>