<svg xmlns="http://www.w3.org/2000/svg" width="24" height="24" viewBox="0 0 24 24" version="1.1">
	<path d="M 3.429 2.325 C 3.149 3.054, 3.051 7.891, 3.210 13.075 L 3.500 22.500 12 22.500 L 20.500 22.500 20.797 15.096 C 21.084 7.928, 20.991 7.586, 17.851 4.346 C 14.971 1.375, 14.010 1, 9.272 1 C 5.766 1, 3.763 1.454, 3.429 2.325 M 5 12 L 5 21 12 21 L 19 21 19 14.805 C 19 9.444, 18.638 8.232, 16.313 5.805 C 14.182 3.581, 12.733 3, 9.313 3 L 5 3 5 12 M 9 9 C 9 11.667, 9.333 12, 12 12 C 14.667 12, 15 11.667, 15 9 C 15 7.350, 14.550 6, 14 6 C 13.450 6, 13 6.900, 13 8 C 13 9.100, 12.550 10, 12 10 C 11.450 10, 11 9.100, 11 8 C 11 6.900, 10.550 6, 10 6 C 9.450 6, 9 7.350, 9 9 M 9 17 C 9 18.650, 9.450 20, 10 20 C 10.550 20, 11 19.100, 11 18 C 11 16.900, 11.450 16, 12 16 C 12.550 16, 13 16.900, 13 18 C 13 19.100, 13.450 20, 14 20 C 14.550 20, 15 18.650, 15 17 C 15 14.333, 14.667 14, 12 14 C 9.333 14, 9 14.333, 9 17" stroke="none" fill="black" fill-rule="evenodd"/>
</svg>