<svg xmlns="http://www.w3.org/2000/svg" width="24" height="24" viewBox="0 0 24 24" version="1.1">
	<path d="M 12 1 C 10.052 1, 8.002 1.907, 6.455 3.455 C 4.995 4.914, 4 7.066, 4 8.763 C 4 10.333, 4.661 12.491, 5.468 13.559 C 6.276 14.626, 6.951 16.512, 6.968 17.750 C 6.990 19.290, 7.605 20, 8.917 20 C 9.971 20, 11.096 19.437, 11.417 18.750 C 11.883 17.750, 12.117 17.750, 12.583 18.750 C 12.904 19.437, 14.029 20, 15.083 20 C 16.395 20, 17.010 19.290, 17.032 17.750 C 17.049 16.512, 17.724 14.626, 18.532 13.559 C 19.339 12.491, 20 10.333, 20 8.763 C 20 7.066, 19.005 4.914, 17.545 3.455 C 15.998 1.907, 13.948 1, 12 1 M 11.816 3.030 C 11.092 3.047, 9.606 3.579, 8.514 4.212 C 6.623 5.308, 6.659 5.399, 9.264 6.095 C 10.769 6.498, 13.238 6.494, 14.750 6.087 C 17.478 5.354, 17.483 5.339, 15.316 4.174 C 14.114 3.528, 12.539 3.014, 11.816 3.030 M 9 8 C 8.450 8, 8 8.450, 8 9 C 8 9.550, 8.450 10, 9 10 C 9.550 10, 10 9.550, 10 9 C 10 8.450, 9.550 8, 9 8 M 15 8 C 14.450 8, 14 8.450, 14 9 C 14 9.550, 14.450 10, 15 10 C 15.550 10, 16 9.550, 16 9 C 16 8.450, 15.550 8, 15 8 M 12.832 11.640 C 12.099 11.443, 10.481 11.475, 9.235 11.712 C 7.990 11.949, 7.229 12.561, 7.544 13.071 C 7.860 13.582, 9.865 14, 12 14 C 14.135 14, 16.160 13.550, 16.500 13 C 16.840 12.450, 16.453 12, 15.641 12 C 14.828 12, 13.564 11.838, 12.832 11.640" stroke="none" fill="black" fill-rule="evenodd"/>
</svg>