<svg viewBox="0 0 24 24" xmlns="http://www.w3.org/2000/svg" fill="none" stroke="#000000" stroke-width="2" stroke-linecap="round" stroke-linejoin="round"><path d="M11.540 3.023 C 10.478 3.125,9.692 3.335,8.910 3.726 C 6.838 4.762,5.448 6.666,5.074 8.980 C 5.008 9.393,5.008 10.607,5.074 11.020 C 5.318 12.528,5.971 13.835,7.013 14.897 L 7.340 15.230 7.211 15.397 C 6.860 15.851,6.969 16.503,7.452 16.828 C 7.557 16.898,7.722 16.967,7.820 16.982 L 7.997 17.009 8.009 19.158 L 8.020 21.306 8.141 21.503 C 8.543 22.156,9.457 22.156,9.859 21.503 L 9.980 21.306 9.991 19.153 L 10.003 17.000 10.497 17.000 L 10.991 17.000 11.018 17.179 C 11.054 17.422,11.258 17.712,11.497 17.859 C 11.671 17.966,11.729 17.980,12.000 17.980 C 12.271 17.980,12.329 17.966,12.503 17.859 C 12.742 17.712,12.946 17.422,12.982 17.179 L 13.009 17.000 13.503 17.000 L 13.997 17.000 14.009 19.153 L 14.020 21.306 14.141 21.503 C 14.543 22.156,15.457 22.156,15.859 21.503 L 15.980 21.306 15.991 19.158 L 16.003 17.009 16.180 16.982 C 16.278 16.967,16.443 16.898,16.548 16.828 C 17.031 16.503,17.140 15.851,16.789 15.397 L 16.660 15.230 16.987 14.897 C 18.026 13.838,18.683 12.523,18.926 11.020 C 18.954 10.844,18.977 10.385,18.977 10.000 C 18.977 9.056,18.876 8.462,18.573 7.620 C 17.715 5.237,15.581 3.473,13.102 3.098 C 12.726 3.041,11.813 2.997,11.540 3.023 M12.552 5.043 C 13.430 5.139,14.183 5.429,14.920 5.955 C 16.007 6.731,16.819 8.077,16.937 9.300 L 16.961 9.540 16.907 9.380 C 16.812 9.098,16.687 8.892,16.465 8.653 C 15.659 7.786,14.341 7.786,13.535 8.653 C 12.954 9.279,12.834 10.159,13.225 10.930 C 13.361 11.199,13.801 11.639,14.070 11.775 C 14.657 12.073,15.345 12.071,15.937 11.771 C 16.332 11.571,16.757 11.067,16.907 10.620 L 16.961 10.460 16.937 10.700 C 16.816 11.954,15.931 13.382,14.810 14.131 C 14.321 14.458,13.587 14.781,13.152 14.861 C 13.013 14.887,13.002 14.881,12.977 14.774 C 12.857 14.260,12.307 13.918,11.786 14.035 C 11.420 14.117,11.105 14.423,11.023 14.774 C 10.998 14.881,10.987 14.887,10.848 14.861 C 10.608 14.817,10.123 14.641,9.785 14.474 C 8.335 13.761,7.237 12.247,7.062 10.720 L 7.036 10.500 7.135 10.733 C 7.267 11.044,7.410 11.244,7.673 11.485 C 8.288 12.047,9.170 12.160,9.930 11.775 C 10.196 11.640,10.638 11.200,10.771 10.937 C 10.994 10.498,11.052 10.007,10.940 9.529 C 10.858 9.182,10.720 8.927,10.465 8.653 C 9.457 7.569,7.718 7.889,7.135 9.267 L 7.036 9.500 7.062 9.280 C 7.205 8.030,8.005 6.719,9.100 5.939 C 10.122 5.212,11.300 4.905,12.552 5.043 " stroke="none" fill-rule="evenodd" fill="black"></path></svg>