<svg xmlns="http://www.w3.org/2000/svg" width="24" height="24" viewBox="0 0 24 24" version="1.1">
	<path d="M 12 3 C 10.076 3, 8.354 3.979, 6.589 6.077 C 5.165 7.769, 4 9.508, 4 9.942 C 4 10.375, 4.990 11.989, 6.200 13.527 L 8.399 16.323 6.200 17.783 C 4.990 18.587, 4 19.669, 4 20.189 C 4 20.709, 4.900 20.849, 6 20.500 C 7.147 20.136, 8 20.320, 8 20.933 C 8 21.520, 8.450 22, 9 22 C 9.550 22, 10 20.971, 10 19.714 C 10 18.095, 10.583 17.429, 12 17.429 C 13.417 17.429, 14 18.095, 14 19.714 C 14 20.971, 14.450 22, 15 22 C 15.550 22, 16 21.520, 16 20.933 C 16 20.320, 16.853 20.136, 18 20.500 C 19.100 20.849, 20 20.709, 20 20.189 C 20 19.669, 19.010 18.587, 17.800 17.783 L 15.601 16.323 17.800 13.527 C 19.010 11.989, 20 10.375, 20 9.942 C 20 9.508, 18.835 7.769, 17.411 6.077 C 15.646 3.979, 13.924 3, 12 3 M 12 5 C 11.070 5, 9.495 5.900, 8.500 7 C 6.753 8.930, 6.753 9.070, 8.500 11 C 9.495 12.100, 11.070 13, 12 13 C 12.930 13, 14.505 12.100, 15.500 11 C 17.247 9.070, 17.247 8.930, 15.500 7 C 14.505 5.900, 12.930 5, 12 5" stroke="none" fill="black" fill-rule="evenodd"/>
</svg>