<svg xmlns="http://www.w3.org/2000/svg" width="24" height="24" viewBox="0 0 24 24" version="1.1">
	<path d="M 11.860 3 C 10.479 3, 8.370 4.042, 7.174 5.314 C 5.978 6.587, 5 8.561, 5 9.700 C 5 10.839, 5.672 13.060, 6.494 14.636 C 7.315 16.211, 7.990 18.512, 7.994 19.750 C 7.997 20.988, 8.450 22, 9 22 C 9.550 22, 10 20.971, 10 19.714 C 10 18.095, 10.583 17.429, 12 17.429 C 13.417 17.429, 14 18.095, 14 19.714 C 14 20.971, 14.450 22, 15 22 C 15.550 22, 16.003 20.988, 16.006 19.750 C 16.010 18.512, 16.685 16.211, 17.506 14.636 C 18.328 13.060, 19 10.776, 19 9.560 C 19 8.344, 17.958 6.370, 16.686 5.174 C 15.413 3.978, 13.241 3, 11.860 3 M 12 5 C 11.120 5, 9.876 5.524, 9.235 6.165 C 8.348 7.052, 8.479 7.649, 9.785 8.665 C 11.403 9.924, 11.400 10.078, 9.739 11.368 C 8.373 12.430, 8.261 12.938, 9.239 13.634 C 9.933 14.128, 11.175 14.513, 12 14.489 C 12.825 14.466, 14.089 14.078, 14.810 13.628 C 15.840 12.983, 15.734 12.509, 14.310 11.404 C 12.605 10.082, 12.600 9.922, 14.215 8.665 C 15.521 7.649, 15.652 7.052, 14.765 6.165 C 14.124 5.524, 12.880 5, 12 5" stroke="none" fill="black" fill-rule="evenodd"/>
</svg>