<svg viewBox="0 0 24 24" xmlns="http://www.w3.org/2000/svg" fill="none" stroke="#000000" stroke-width="2" stroke-linecap="round" stroke-linejoin="round"><path d="M11.540 3.023 C 10.715 3.102,10.250 3.200,9.620 3.427 C 7.709 4.115,6.187 5.615,5.456 7.531 C 5.321 7.884,5.153 8.498,5.100 8.830 C 5.076 8.982,5.061 9.000,4.964 9.000 C 4.756 9.000,4.468 9.130,4.298 9.300 C 3.980 9.618,3.915 10.119,4.141 10.506 C 4.214 10.630,4.356 10.765,4.590 10.934 C 5.136 11.326,5.113 11.298,5.222 11.726 C 5.598 13.210,6.536 14.638,7.720 15.529 L 8.020 15.754 8.000 16.200 L 7.980 16.645 6.120 17.975 C 4.069 19.442,4.058 19.451,4.013 19.890 C 3.940 20.590,4.591 21.146,5.269 20.963 C 5.380 20.933,5.864 20.613,6.697 20.019 C 7.390 19.524,7.965 19.120,7.976 19.120 C 7.987 19.120,8.001 19.612,8.008 20.213 L 8.020 21.307 8.141 21.503 C 8.543 22.156,9.457 22.156,9.859 21.503 L 9.980 21.306 10.000 19.476 L 10.020 17.645 10.499 17.303 L 10.978 16.961 11.022 17.181 C 11.078 17.461,11.249 17.705,11.498 17.859 C 11.671 17.966,11.729 17.980,12.000 17.980 C 12.271 17.980,12.329 17.966,12.502 17.859 C 12.751 17.705,12.922 17.461,12.978 17.181 L 13.022 16.961 13.501 17.303 L 13.980 17.645 14.000 19.476 L 14.020 21.306 14.141 21.503 C 14.543 22.156,15.457 22.156,15.859 21.503 L 15.980 21.307 15.992 20.213 C 15.999 19.612,16.013 19.120,16.024 19.120 C 16.035 19.120,16.610 19.524,17.303 20.019 C 18.136 20.613,18.620 20.933,18.731 20.963 C 19.409 21.146,20.060 20.590,19.987 19.890 C 19.942 19.451,19.931 19.442,17.880 17.975 L 16.020 16.645 16.000 16.200 L 15.980 15.754 16.280 15.529 C 17.472 14.632,18.399 13.214,18.785 11.700 C 18.886 11.301,18.868 11.324,19.410 10.934 C 19.644 10.765,19.786 10.630,19.859 10.506 C 20.085 10.119,20.020 9.618,19.702 9.300 C 19.532 9.130,19.244 9.000,19.036 9.000 C 18.939 9.000,18.924 8.982,18.900 8.830 C 18.849 8.508,18.717 8.019,18.573 7.620 C 17.715 5.237,15.581 3.473,13.102 3.098 C 12.726 3.041,11.813 2.997,11.540 3.023 M12.552 5.043 C 14.616 5.269,16.318 6.750,16.846 8.780 C 16.926 9.086,17.029 10.068,16.991 10.165 C 16.961 10.243,12.080 13.735,12.000 13.735 C 11.920 13.735,7.039 10.243,7.009 10.165 C 6.971 10.068,7.074 9.086,7.154 8.780 C 7.787 6.347,10.065 4.770,12.552 5.043 " stroke="none" fill-rule="evenodd" fill="black"></path></svg>