<svg xmlns="http://www.w3.org/2000/svg" width="24" height="24" viewBox="0 0 24 24" version="1.1">
	<path d="M 11.808 5 C 10.398 5, 8.660 5.705, 7.945 6.566 C 7.230 7.427, 5.375 8.789, 3.823 9.592 C 2.270 10.394, 1 11.520, 1 12.093 C 1 12.666, 1.802 12.880, 2.782 12.569 C 4.078 12.158, 4.851 12.766, 5.620 14.804 C 6.385 16.830, 7.993 18.107, 11.431 19.421 C 15.165 20.846, 16.703 21.001, 18.593 20.140 C 19.917 19.536, 21 18.535, 21 17.914 C 21 17.239, 20.298 17.068, 19.250 17.489 C 18.288 17.876, 16.859 18.452, 16.076 18.770 C 15.293 19.087, 15.631 18.369, 16.826 17.174 C 18.032 15.968, 19 13.742, 19 12.174 C 19 10.514, 18.046 8.452, 16.686 7.174 C 15.413 5.978, 13.218 5, 11.808 5 M 11.967 7 C 11.020 7, 9.728 7.622, 9.097 8.383 C 8.208 9.454, 8.312 9.906, 9.556 10.383 C 10.440 10.722, 12.547 11, 14.237 11 C 17.247 11, 17.273 10.959, 15.500 9 C 14.505 7.900, 12.915 7, 11.967 7 M 8.570 12.389 C 7.396 11.938, 7.143 12.208, 7.606 13.416 C 7.952 14.318, 9.082 15.509, 10.118 16.063 C 11.399 16.749, 12.639 16.729, 14 16 C 15.100 15.411, 16 14.495, 16 13.965 C 16 13.434, 14.687 13, 13.082 13 C 11.477 13, 9.447 12.725, 8.570 12.389" stroke="none" fill="black" fill-rule="evenodd"/>
</svg>