<svg xmlns="http://www.w3.org/2000/svg" width="24" height="24" viewBox="0 0 24 24" version="1.1">
	<path d="M 7.945 6.566 C 7.230 7.427, 5.375 8.789, 3.823 9.592 C 0.728 11.192, -0.071 13.475, 2.782 12.569 C 4.078 12.158, 4.851 12.766, 5.620 14.804 C 7.026 18.530, 14.962 21.794, 18.593 20.140 C 21.355 18.881, 21.971 16.396, 19.250 17.489 C 18.288 17.876, 16.859 18.452, 16.076 18.770 C 15.293 19.087, 15.631 18.369, 16.826 17.174 C 18.032 15.968, 19 13.742, 19 12.174 C 19 6.669, 11.161 2.692, 7.945 6.566 M 9.097 8.383 C 7.706 10.060, 9.553 11, 14.237 11 C 17.247 11, 17.273 10.959, 15.500 9 C 13.393 6.672, 10.730 6.415, 9.097 8.383 M 7.606 13.416 C 8.596 15.996, 11.679 17.242, 14 16 C 16.897 14.449, 16.454 13, 13.082 13 C 11.477 13, 9.447 12.725, 8.570 12.389 C 7.396 11.938, 7.143 12.208, 7.606 13.416" stroke="none" fill="black" fill-rule="evenodd"/>
</svg>