<svg xmlns="http://www.w3.org/2000/svg" width="24" height="24" viewBox="0 0 24 24" version="1.1">
	<path d="M 11 5.196 L 11 9.392 7.515 6.015 C 2.970 1.609, 1.609 2.970, 6.015 7.515 L 9.392 11 5.196 11 C 2.888 11, 1 11.450, 1 12 C 1 12.550, 2.888 13, 5.196 13 L 9.392 13 6.015 16.485 C 1.609 21.030, 2.970 22.391, 7.515 17.985 L 11 14.608 11 18.804 C 11 21.112, 11.450 23, 12 23 C 12.550 23, 13 21.112, 13 18.804 L 13 14.608 16.485 17.985 C 21.030 22.391, 22.391 21.030, 17.985 16.485 L 14.608 13 18.804 13 C 21.112 13, 23 12.550, 23 12 C 23 11.450, 21.112 11, 18.804 11 L 14.608 11 17.985 7.515 C 22.391 2.970, 21.030 1.609, 16.485 6.015 L 13 9.392 13 5.196 C 13 2.888, 12.550 1, 12 1 C 11.450 1, 11 2.888, 11 5.196" stroke="none" fill="black" fill-rule="evenodd"/>
</svg>