<svg viewBox="0 0 24 24" xmlns="http://www.w3.org/2000/svg" fill="none" stroke="#000000" stroke-width="2" stroke-linecap="round" stroke-linejoin="round"><path d="M11.695 1.057 C 11.466 1.129,11.256 1.299,11.128 1.516 L 11.020 1.700 11.000 5.630 L 10.980 9.560 7.800 6.376 C 5.256 3.829,4.580 3.173,4.420 3.096 C 4.058 2.923,3.601 2.995,3.305 3.272 C 3.018 3.540,2.920 4.038,3.082 4.400 C 3.145 4.539,3.889 5.306,6.372 7.790 L 9.580 11.000 5.736 11.000 C 1.565 11.000,1.680 10.994,1.382 11.221 C 1.302 11.282,1.187 11.415,1.128 11.516 C 1.037 11.672,1.020 11.746,1.020 12.000 C 1.020 12.256,1.036 12.328,1.131 12.489 C 1.256 12.702,1.449 12.864,1.670 12.943 C 1.791 12.986,2.563 12.997,5.700 12.998 L 9.579 13.000 6.374 16.210 C 4.611 17.976,3.135 19.483,3.095 19.560 C 3.043 19.659,3.021 19.788,3.021 20.000 C 3.020 20.258,3.036 20.327,3.133 20.492 C 3.263 20.714,3.502 20.901,3.736 20.965 C 3.938 21.019,4.266 20.989,4.445 20.899 C 4.519 20.862,6.024 19.390,7.789 17.627 L 10.998 14.422 11.009 18.364 L 11.020 22.306 11.141 22.503 C 11.543 23.156,12.457 23.156,12.859 22.503 L 12.980 22.306 13.000 18.373 L 13.020 14.440 16.200 17.624 C 18.744 20.171,19.420 20.827,19.580 20.904 C 19.942 21.077,20.399 21.005,20.695 20.728 C 20.982 20.460,21.080 19.962,20.918 19.600 C 20.855 19.461,20.111 18.694,17.628 16.210 L 14.420 13.000 18.300 12.998 C 21.437 12.997,22.209 12.986,22.330 12.943 C 22.551 12.864,22.744 12.702,22.869 12.489 C 22.964 12.328,22.980 12.256,22.980 12.000 C 22.980 11.746,22.963 11.672,22.872 11.516 C 22.813 11.415,22.698 11.282,22.618 11.221 C 22.320 10.994,22.435 11.000,18.264 11.000 L 14.421 11.000 17.626 7.790 C 19.389 6.024,20.865 4.517,20.905 4.440 C 20.957 4.341,20.979 4.212,20.979 4.000 C 20.980 3.745,20.964 3.672,20.872 3.516 C 20.618 3.084,20.138 2.906,19.657 3.065 C 19.477 3.125,19.176 3.414,16.231 6.354 L 13.002 9.577 12.991 5.638 L 12.980 1.700 12.872 1.516 C 12.628 1.101,12.150 0.915,11.695 1.057 " stroke="none" fill-rule="evenodd" fill="black"></path></svg>