<svg viewBox="0 0 24 24" xmlns="http://www.w3.org/2000/svg" fill="none" stroke="#000000" stroke-width="2" stroke-linecap="round" stroke-linejoin="round"><path d="M8.340 0.028 C 6.851 0.126,5.297 0.660,4.025 1.510 C 3.436 1.904,3.108 2.173,2.601 2.682 C 1.497 3.788,0.666 5.251,0.276 6.775 C -0.044 8.023,-0.085 9.472,0.164 10.727 C 0.541 12.628,1.544 14.404,2.957 15.668 C 3.452 16.112,3.684 16.239,4.000 16.239 C 4.676 16.239,5.137 15.611,4.945 14.952 C 4.886 14.748,4.839 14.691,4.345 14.226 C 4.051 13.948,3.710 13.599,3.589 13.450 C 2.606 12.245,2.070 10.820,2.012 9.256 C 1.967 8.041,2.165 7.094,2.698 5.980 C 3.108 5.122,3.505 4.570,4.162 3.945 C 6.269 1.940,9.377 1.437,11.986 2.679 C 13.767 3.527,15.044 4.993,15.660 6.897 C 15.871 7.550,15.983 7.726,16.297 7.892 C 16.448 7.972,16.540 7.980,17.520 8.003 C 18.860 8.036,19.109 8.085,19.831 8.458 C 22.144 9.652,22.702 12.689,20.974 14.668 C 20.675 15.010,20.325 15.278,19.837 15.539 C 19.349 15.801,19.223 15.910,19.095 16.180 C 18.918 16.555,19.011 17.010,19.325 17.308 C 19.649 17.615,20.061 17.654,20.548 17.423 C 21.238 17.095,21.785 16.695,22.345 16.109 C 23.724 14.667,24.287 12.617,23.837 10.680 C 23.566 9.514,23.073 8.627,22.223 7.777 C 21.029 6.584,19.587 6.000,17.835 6.000 C 17.531 6.000,17.474 5.990,17.453 5.930 C 17.439 5.891,17.332 5.636,17.214 5.363 C 16.562 3.841,15.369 2.431,13.940 1.492 C 12.283 0.404,10.337 -0.105,8.340 0.028 M9.640 12.069 C 9.492 12.121,9.265 12.325,8.347 13.236 C 7.734 13.843,7.185 14.421,7.127 14.520 C 7.037 14.672,7.020 14.747,7.020 15.000 C 7.020 15.257,7.036 15.327,7.133 15.492 C 7.413 15.968,8.032 16.138,8.492 15.866 C 8.706 15.739,10.806 13.627,10.905 13.440 C 10.957 13.341,10.979 13.213,10.979 13.000 C 10.980 12.745,10.964 12.672,10.872 12.516 C 10.617 12.083,10.120 11.902,9.640 12.069 M13.670 12.061 C 13.448 12.142,13.250 12.309,13.128 12.516 C 13.036 12.672,13.020 12.745,13.021 13.000 C 13.021 13.213,13.043 13.341,13.095 13.440 C 13.194 13.627,15.294 15.739,15.508 15.866 C 15.968 16.138,16.587 15.968,16.867 15.492 C 16.964 15.327,16.980 15.257,16.980 15.000 C 16.980 14.747,16.963 14.672,16.873 14.520 C 16.815 14.421,16.266 13.843,15.653 13.236 C 14.680 12.271,14.515 12.124,14.343 12.066 C 14.108 11.987,13.875 11.985,13.670 12.061 M11.695 14.057 C 11.466 14.129,11.256 14.299,11.128 14.516 L 11.020 14.700 11.020 16.503 L 11.020 18.306 11.141 18.503 C 11.543 19.156,12.457 19.156,12.859 18.503 L 12.980 18.306 12.980 16.503 L 12.980 14.700 12.872 14.516 C 12.628 14.101,12.150 13.915,11.695 14.057 " stroke="none" fill-rule="evenodd" fill="black"></path></svg>