<svg xmlns="http://www.w3.org/2000/svg" width="24" height="24" viewBox="0 0 24 24" version="1.1">
	<path d="M 15.212 6 C 11.966 6, 10.928 6.608, 7.957 10.250 C 6.050 12.588, 3.861 15.304, 3.092 16.286 C 1.855 17.867, 2.021 18.412, 4.535 21.036 C 6.265 22.843, 8.396 24, 9.991 24 C 11.638 24, 13.792 22.778, 15.804 20.702 C 18.640 17.777, 19 16.762, 19 11.702 L 19 6 15.212 6 M 14.475 8 C 12.731 8, 11.669 8.741, 11.038 10.399 C 10.537 11.719, 9.283 13.406, 8.252 14.149 C 7.221 14.892, 6.024 16.091, 5.591 16.813 C 5.120 17.599, 5.508 18.904, 6.557 20.063 C 7.521 21.128, 9.003 22, 9.850 22 C 10.697 22, 12.653 20.791, 14.195 19.313 C 16.419 17.182, 17 15.733, 17 12.313 C 17 8.368, 16.785 8, 14.475 8" stroke="none" fill="black" fill-rule="evenodd"/>
</svg>