<svg xmlns="http://www.w3.org/2000/svg" width="24" height="24" viewBox="0 0 24 24" version="1.1">
	<path d="M 7.957 10.250 C 1.089 18.668, 1.382 17.746, 4.535 21.036 C 8.334 25.002, 11.734 24.901, 15.804 20.702 C 18.640 17.777, 19 16.762, 19 11.702 L 19 6 15.212 6 C 11.966 6, 10.928 6.608, 7.957 10.250 M 11.038 10.399 C 10.537 11.719, 9.283 13.406, 8.252 14.149 C 5.132 16.398, 4.677 17.986, 6.557 20.063 C 8.934 22.689, 10.869 22.499, 14.195 19.313 C 16.419 17.182, 17 15.733, 17 12.313 C 17 8.368, 16.785 8, 14.475 8 C 12.731 8, 11.669 8.741, 11.038 10.399" stroke="none" fill="black" fill-rule="evenodd"/>
</svg>