<svg viewBox="0 0 24 24" xmlns="http://www.w3.org/2000/svg" fill="none" stroke="#000000" stroke-width="2" stroke-linecap="round" stroke-linejoin="round"><path d="M5.499 3.043 C 4.389 3.231,3.479 4.033,3.116 5.140 C 3.030 5.405,3.024 5.493,3.009 6.784 L 2.994 8.148 2.667 8.315 C 1.923 8.693,1.365 9.356,1.114 10.160 L 1.020 10.460 1.020 13.500 L 1.020 16.540 1.114 16.840 C 1.422 17.827,2.173 18.578,3.160 18.886 L 3.460 18.980 12.000 18.980 L 20.540 18.980 20.840 18.886 C 21.827 18.578,22.578 17.827,22.886 16.840 L 22.980 16.540 22.980 13.500 L 22.980 10.460 22.886 10.160 C 22.635 9.356,22.077 8.693,21.333 8.315 L 21.006 8.148 20.991 6.784 C 20.976 5.493,20.970 5.405,20.884 5.140 C 20.565 4.167,19.822 3.425,18.861 3.121 L 18.540 3.020 12.120 3.014 C 8.589 3.011,5.609 3.024,5.499 3.043 M18.310 5.061 C 18.452 5.103,18.571 5.178,18.697 5.303 C 18.981 5.587,19.000 5.695,19.000 7.020 L 19.000 8.145 18.670 8.313 C 17.931 8.689,17.372 9.347,17.118 10.140 C 17.042 10.379,17.026 10.536,17.010 11.210 L 16.991 12.000 12.000 12.000 L 7.009 12.000 6.990 11.210 C 6.974 10.536,6.958 10.379,6.882 10.140 C 6.628 9.347,6.069 8.689,5.330 8.313 L 5.000 8.145 5.000 7.020 C 5.000 5.695,5.019 5.587,5.304 5.303 C 5.623 4.983,5.120 5.006,11.983 5.003 C 17.353 5.000,18.131 5.007,18.310 5.061 M4.308 10.060 C 4.438 10.099,4.571 10.179,4.679 10.283 C 4.966 10.562,4.976 10.606,4.999 11.800 C 5.020 12.858,5.020 12.860,5.133 13.104 C 5.276 13.413,5.585 13.721,5.900 13.868 L 6.140 13.980 12.000 13.980 L 17.860 13.980 18.100 13.868 C 18.415 13.721,18.724 13.413,18.867 13.104 C 18.980 12.860,18.980 12.858,19.001 11.800 C 19.024 10.606,19.034 10.562,19.321 10.283 C 19.490 10.120,19.777 10.000,20.000 10.000 C 20.402 10.000,20.827 10.312,20.939 10.690 C 21.025 10.979,21.031 16.006,20.945 16.290 C 20.872 16.533,20.707 16.740,20.484 16.872 L 20.300 16.980 12.000 16.980 L 3.700 16.980 3.516 16.872 C 3.415 16.813,3.284 16.700,3.225 16.623 C 2.996 16.323,3.000 16.378,3.000 13.522 C 3.000 10.529,2.992 10.614,3.304 10.303 C 3.582 10.024,3.916 9.944,4.308 10.060 " stroke="none" fill-rule="evenodd" fill="black"></path></svg>