<svg xmlns="http://www.w3.org/2000/svg" width="24" height="24" viewBox="0 0 24 24" version="1.1">
	<path d="M 3.378 4.750 C 3.070 5.713, 2.377 7.430, 1.838 8.567 C 1.299 9.704, 1.002 12.404, 1.179 14.567 L 1.500 18.500 12 18.500 L 22.500 18.500 22.821 14.567 C 22.998 12.404, 22.701 9.704, 22.162 8.567 C 21.623 7.430, 20.930 5.713, 20.622 4.750 C 20.150 3.274, 18.799 3, 12 3 C 5.201 3, 3.850 3.274, 3.378 4.750 M 5 5.801 C 5 6.241, 5.563 7.812, 6.250 9.293 C 8.107 13.291, 15.893 13.291, 17.750 9.293 C 18.438 7.812, 19 6.241, 19 5.801 C 19 5.360, 15.850 5, 12 5 C 8.150 5, 5 5.360, 5 5.801 M 3 13.500 L 3 17 12 17 L 21 17 21 13.500 C 21 11.575, 20.550 10, 20 10 C 19.450 10, 19 10.900, 19 12 C 19 13.810, 18.333 14, 12 14 C 5.667 14, 5 13.810, 5 12 C 5 10.900, 4.550 10, 4 10 C 3.450 10, 3 11.575, 3 13.500" stroke="none" fill="black" fill-rule="evenodd"/>
</svg>