<svg xmlns="http://www.w3.org/2000/svg" width="24" height="24" viewBox="0 0 24 24" version="1.1">
	<path d="M 12 1 C 11.450 1, 11 1.875, 11 2.945 C 11 4.556, 10.184 4.943, 6.250 5.195 L 1.500 5.500 1.500 12 L 1.500 18.500 6.250 18.805 C 10.184 19.057, 11 19.444, 11 21.055 C 11 22.125, 11.450 23, 12 23 C 12.550 23, 13 22.125, 13 21.055 C 13 19.444, 13.816 19.057, 17.750 18.805 L 22.500 18.500 22.500 12 L 22.500 5.500 17.750 5.195 C 13.816 4.943, 13 4.556, 13 2.945 C 13 1.875, 12.550 1, 12 1 M 5 7 C 3.667 7, 3 7.667, 3 9 C 3 10.333, 3.667 11, 5 11 C 6.333 11, 7 10.333, 7 9 C 7 7.667, 6.333 7, 5 7 M 12 7 C 9.667 7, 9 7.444, 9 9 C 9 10.556, 9.667 11, 12 11 C 14.333 11, 15 10.556, 15 9 C 15 7.444, 14.333 7, 12 7 M 19 7 C 17.667 7, 17 7.667, 17 9 C 17 10.333, 17.667 11, 19 11 C 20.333 11, 21 10.333, 21 9 C 21 7.667, 20.333 7, 19 7 M 5 13 C 3.667 13, 3 13.667, 3 15 C 3 16.333, 3.667 17, 5 17 C 6.333 17, 7 16.333, 7 15 C 7 13.667, 6.333 13, 5 13 M 12 13 C 9.667 13, 9 13.444, 9 15 C 9 16.556, 9.667 17, 12 17 C 14.333 17, 15 16.556, 15 15 C 15 13.444, 14.333 13, 12 13 M 19 13 C 17.667 13, 17 13.667, 17 15 C 17 16.333, 17.667 17, 19 17 C 20.333 17, 21 16.333, 21 15 C 21 13.667, 20.333 13, 19 13" stroke="none" fill="black" fill-rule="evenodd"/>
</svg>