<svg xmlns="http://www.w3.org/2000/svg" width="24" height="24" viewBox="0 0 24 24" version="1.1">
	<path d="M 8 6 C 6.625 7.076, 4.488 7.966, 3.250 7.978 C 1.295 7.997, 1 8.525, 1 12 C 1 15.475, 1.295 16.003, 3.250 16.022 C 4.488 16.034, 6.625 16.924, 8 18 C 9.375 19.076, 10.838 19.966, 11.250 19.978 C 11.662 19.990, 12 16.400, 12 12 C 12 7.600, 11.662 4.010, 11.250 4.022 C 10.838 4.034, 9.375 4.924, 8 6 M 7.500 9 C 7.160 9.550, 6.009 10, 4.941 10 C 3.667 10, 3 10.687, 3 12 C 3 13.313, 3.667 14, 4.941 14 C 6.009 14, 7.160 14.450, 7.500 15 C 8.847 17.180, 10 15.797, 10 12 C 10 8.203, 8.847 6.820, 7.500 9 M 16 8.800 C 16 9.240, 16.521 10.121, 17.158 10.758 C 18.034 11.634, 18 12.295, 17.015 13.482 C 15.346 15.493, 16.474 16.681, 18.476 15.020 C 19.705 14, 20.295 14, 21.524 15.020 C 23.503 16.663, 24.663 15.503, 23.020 13.524 C 22 12.295, 22 11.705, 23.020 10.476 C 24.681 8.474, 23.493 7.346, 21.482 9.015 C 20.295 10, 19.634 10.034, 18.758 9.158 C 17.421 7.821, 16 7.636, 16 8.800" stroke="none" fill="#000000" fill-rule="evenodd"/>
</svg>