<svg xmlns="http://www.w3.org/2000/svg" width="24" height="24" viewBox="0 0 24 24" version="1.1">
	<path d="M 7.206 4 C 6.582 4, 5.589 4.900, 5 6 C 4.309 7.292, 4.264 8.620, 4.873 9.750 C 5.392 10.713, 6.983 12.591, 8.408 13.924 C 9.834 15.258, 11 17.395, 11 18.674 C 11 19.953, 10.550 21, 10 21 C 9.450 21, 9 21.450, 9 22 C 9 22.550, 10.350 23, 12 23 C 13.650 23, 15 22.550, 15 22 C 15 21.450, 14.550 21, 14 21 C 13.450 21, 13 19.963, 13 18.696 C 13 17.371, 14.504 14.935, 16.539 12.962 C 18.646 10.920, 19.961 8.758, 19.789 7.618 C 19.630 6.566, 18.739 5.227, 17.809 4.644 C 16.516 3.834, 15.632 4.023, 14.059 5.447 C 12.139 7.184, 11.877 7.199, 10.171 5.655 C 9.165 4.745, 7.831 4, 7.206 4 M 9.500 8 C 7.116 5.761, 7 5.744, 7 7.651 C 7 8.751, 8.138 10.721, 9.529 12.027 L 12.058 14.403 15.154 11.308 C 16.964 9.497, 17.946 7.722, 17.519 7.031 C 17.002 6.194, 16.090 6.506, 14.395 8.099 L 12 10.349 9.500 8" stroke="none" fill="black" fill-rule="evenodd"/>
</svg>