<svg viewBox="0 0 24 24" xmlns="http://www.w3.org/2000/svg" fill="none" stroke="#000000" stroke-width="2" stroke-linecap="round" stroke-linejoin="round"><path d="M6.883 4.259 C 5.718 4.525,4.744 5.655,4.416 7.121 C 4.318 7.560,4.325 8.358,4.431 8.824 C 4.538 9.295,4.740 9.829,4.961 10.225 C 5.122 10.514,5.379 10.784,8.068 13.481 L 11.000 16.421 11.000 18.711 L 11.000 21.000 10.446 21.000 C 9.648 21.000,9.367 21.110,9.128 21.516 C 9.037 21.672,9.020 21.746,9.020 22.000 C 9.020 22.256,9.036 22.328,9.131 22.489 C 9.256 22.702,9.449 22.864,9.670 22.943 C 9.889 23.021,14.111 23.021,14.330 22.943 C 14.551 22.864,14.744 22.702,14.869 22.489 C 14.964 22.328,14.980 22.256,14.980 22.000 C 14.980 21.746,14.963 21.672,14.872 21.516 C 14.633 21.110,14.352 21.000,13.554 21.000 L 13.000 21.000 13.000 18.710 L 13.000 16.420 15.730 13.692 C 17.748 11.676,18.491 10.957,18.580 10.937 C 18.867 10.870,19.212 10.675,19.456 10.441 C 19.894 10.020,20.077 9.582,20.108 8.880 C 20.124 8.508,20.112 8.341,20.042 8.003 C 19.802 6.844,18.943 5.347,18.189 4.777 C 17.468 4.231,16.622 4.075,15.720 4.321 C 15.306 4.434,14.613 4.785,14.163 5.109 C 13.691 5.449,12.862 6.244,12.391 6.809 C 12.193 7.046,12.017 7.240,11.999 7.240 C 11.982 7.240,11.846 7.091,11.698 6.910 C 11.284 6.401,10.261 5.411,9.839 5.109 C 9.385 4.784,8.693 4.434,8.280 4.321 C 7.880 4.211,7.223 4.182,6.883 4.259 M7.868 6.286 C 8.762 6.619,9.758 7.567,10.900 9.174 C 11.405 9.884,11.632 10.037,12.111 9.987 C 12.481 9.949,12.643 9.816,13.099 9.174 C 14.244 7.565,15.237 6.619,16.132 6.286 C 16.414 6.181,16.609 6.178,16.820 6.276 C 17.010 6.364,17.126 6.485,17.379 6.857 C 17.816 7.502,18.094 8.206,18.098 8.676 L 18.100 8.972 17.850 9.024 C 17.712 9.052,17.541 9.115,17.470 9.163 C 17.398 9.212,16.139 10.450,14.670 11.916 L 12.000 14.580 9.375 11.960 C 6.872 9.461,6.745 9.327,6.616 9.053 C 6.425 8.649,6.357 8.355,6.357 7.938 C 6.357 7.509,6.448 7.174,6.661 6.820 C 6.849 6.508,6.983 6.367,7.180 6.276 C 7.391 6.178,7.586 6.181,7.868 6.286 " stroke="none" fill-rule="evenodd" fill="black"></path></svg>