<svg xmlns="http://www.w3.org/2000/svg" width="24" height="24" viewBox="0 0 24 24" version="1.1">
	<path d="M 5 6 C 3.746 8.342, 4.626 10.386, 8.408 13.924 C 10.936 16.289, 11.996 21, 10 21 C 9.450 21, 9 21.450, 9 22 C 9 22.550, 10.350 23, 12 23 C 13.650 23, 15 22.550, 15 22 C 15 21.450, 14.550 21, 14 21 C 11.694 21, 13.215 16.184, 16.539 12.962 C 20.286 9.331, 20.722 6.470, 17.809 4.644 C 16.516 3.834, 15.632 4.023, 14.059 5.447 C 12.139 7.184, 11.877 7.199, 10.171 5.655 C 7.756 3.469, 6.302 3.566, 5 6 M 7 7.651 C 7 8.751, 8.138 10.721, 9.529 12.027 L 12.058 14.403 15.154 11.308 C 18.885 7.577, 18.169 4.553, 14.395 8.099 L 12 10.349 9.500 8 C 7.116 5.761, 7 5.744, 7 7.651" stroke="none" fill="#000000" fill-rule="evenodd"/>
</svg>