<svg xmlns="http://www.w3.org/2000/svg" width="24" height="24" viewBox="0 0 24 24" version="1.1">
	<path d="M 11.951 1 C 11.459 1, 10.681 2.462, 10.221 4.250 C 9.490 7.090, 8.919 7.539, 5.692 7.810 C 3.661 7.981, 2 8.511, 2 8.988 C 2 9.465, 3.153 10.762, 4.563 11.871 C 6.864 13.681, 7.027 14.242, 6.162 17.376 C 5.632 19.295, 5.441 21.107, 5.736 21.403 C 6.032 21.699, 7.600 20.997, 9.220 19.844 L 12.165 17.746 15.161 19.961 C 16.809 21.179, 18.422 21.911, 18.746 21.587 C 19.070 21.263, 18.847 19.409, 18.251 17.467 C 17.238 14.166, 17.355 13.797, 20.045 11.809 C 21.627 10.639, 22.688 9.304, 22.402 8.841 C 22.116 8.378, 20.368 8, 18.519 8 C 15.561 8, 15.016 7.577, 14 4.500 C 13.365 2.575, 12.443 1, 11.951 1 M 12.728 8.250 C 12.329 6.583, 12.273 6.583, 11.548 8.250 C 11.129 9.213, 9.879 10, 8.771 10 C 7.009 10, 6.928 10.208, 8.127 11.654 C 8.882 12.563, 9.353 14.172, 9.174 15.229 C 8.896 16.870, 9.143 16.994, 10.864 16.073 C 12.196 15.360, 13.089 15.334, 13.498 15.997 C 13.839 16.549, 14.499 17, 14.965 17 C 15.431 17, 15.572 16.079, 15.278 14.954 C 14.937 13.652, 15.426 12.392, 16.621 11.486 C 18.397 10.142, 18.353 10.062, 15.823 10.032 C 14.118 10.012, 12.995 9.365, 12.728 8.250" stroke="none" fill="black" fill-rule="evenodd"/>
</svg>