<svg xmlns="http://www.w3.org/2000/svg" width="24" height="24" viewBox="0 0 24 24" version="1.1">
	<path d="M 10.221 4.250 C 9.490 7.090, 8.919 7.539, 5.692 7.810 C 1.339 8.176, 1.074 9.127, 4.563 11.871 C 6.864 13.681, 7.027 14.242, 6.162 17.376 C 4.918 21.879, 5.595 22.425, 9.220 19.844 L 12.165 17.746 15.161 19.961 C 18.855 22.692, 19.656 22.045, 18.251 17.467 C 17.238 14.166, 17.355 13.797, 20.045 11.809 C 23.522 9.238, 23.025 8, 18.519 8 C 15.561 8, 15.016 7.577, 14 4.500 C 12.558 0.130, 11.303 0.047, 10.221 4.250 M 11.548 8.250 C 11.129 9.213, 9.879 10, 8.771 10 C 7.009 10, 6.928 10.208, 8.127 11.654 C 8.882 12.563, 9.353 14.172, 9.174 15.229 C 8.896 16.870, 9.143 16.994, 10.864 16.073 C 12.196 15.360, 13.089 15.334, 13.498 15.997 C 14.600 17.780, 15.829 17.060, 15.278 14.954 C 14.937 13.652, 15.426 12.392, 16.621 11.486 C 18.397 10.142, 18.353 10.062, 15.823 10.032 C 14.118 10.012, 12.995 9.365, 12.728 8.250 C 12.329 6.583, 12.273 6.583, 11.548 8.250" stroke="none" fill="black" fill-rule="evenodd"/>
</svg>