<svg xmlns="http://www.w3.org/2000/svg" width="24" height="24" viewBox="0 0 24 24" version="1.1">
	<path d="M 3.444 2.284 C 3.156 3.035, 3.051 7.891, 3.210 13.075 L 3.500 22.500 12 22.500 L 20.500 22.500 20.500 12 L 20.500 1.500 12.234 1.209 C 5.965 0.989, 3.842 1.248, 3.444 2.284 M 5 12 L 5 21 12 21 L 19 21 19 12 L 19 3 12 3 L 5 3 5 12 M 11 6 C 11 6.550, 11.450 7, 12 7 C 12.550 7, 13 6.550, 13 6 C 13 5.450, 12.550 5, 12 5 C 11.450 5, 11 5.450, 11 6 M 8.571 10.571 C 5.539 13.604, 7.734 19, 12 19 C 14.386 19, 17 16.386, 17 14 C 17 11.614, 14.386 9, 12 9 C 10.979 9, 9.436 9.707, 8.571 10.571 M 9.958 12.550 C 8.896 13.831, 8.961 14.390, 10.336 15.764 C 11.888 17.317, 12.112 17.317, 13.664 15.764 C 15.039 14.390, 15.104 13.831, 14.042 12.550 C 12.423 10.600, 11.577 10.600, 9.958 12.550" stroke="none" fill="black" fill-rule="evenodd"/>
</svg>