<svg xmlns="http://www.w3.org/2000/svg" width="24" height="24" viewBox="0 0 24 24" version="1.1">
	<path d="M 12 1 C 11.450 1, 11 1.420, 11 1.933 C 11 2.446, 9.988 3.209, 8.750 3.629 C 7.512 4.049, 5.912 4.278, 5.193 4.139 C 4.474 4, 3.965 4.474, 4.062 5.193 C 4.158 5.912, 4.184 7.030, 4.118 7.679 C 4.053 8.327, 3.293 9.564, 2.429 10.429 C 1 11.857, 1 12.143, 2.429 13.571 C 3.293 14.436, 4.053 15.673, 4.118 16.321 C 4.184 16.970, 4.158 18.088, 4.062 18.807 C 3.965 19.526, 4.474 20.035, 5.193 19.938 C 5.912 19.842, 7.030 19.816, 7.679 19.882 C 8.327 19.947, 9.564 20.707, 10.429 21.571 C 11.857 23, 12.143 23, 13.571 21.571 C 14.436 20.707, 15.673 19.947, 16.321 19.882 C 16.970 19.816, 18.088 19.842, 18.807 19.938 C 19.526 20.035, 20.035 19.526, 19.938 18.807 C 19.842 18.088, 19.816 16.970, 19.882 16.321 C 19.947 15.673, 20.707 14.436, 21.571 13.571 C 23 12.143, 23 11.857, 21.571 10.429 C 20.707 9.564, 19.947 8.327, 19.882 7.679 C 19.816 7.030, 19.842 5.912, 19.938 5.193 C 20.035 4.474, 19.526 4, 18.807 4.139 C 18.088 4.278, 16.488 4.049, 15.250 3.629 C 14.012 3.209, 13 2.446, 13 1.933 C 13 1.420, 12.550 1, 12 1 M 10.821 5.488 C 10.613 5.279, 9.845 5.478, 9.114 5.929 C 8.255 6.461, 8.152 6.976, 8.824 7.391 C 9.395 7.744, 10.163 7.545, 10.531 6.950 C 10.899 6.354, 11.030 5.696, 10.821 5.488 M 14.494 5.636 C 13.672 5.321, 13 5.472, 13 5.972 C 13 6.473, 13.419 7.141, 13.931 7.457 C 14.443 7.774, 15.115 7.622, 15.425 7.121 C 15.735 6.620, 15.316 5.952, 14.494 5.636 M 7.121 8.575 C 6.620 8.265, 5.952 8.684, 5.636 9.506 C 5.321 10.328, 5.472 11, 5.972 11 C 6.473 11, 7.141 10.581, 7.457 10.069 C 7.774 9.557, 7.622 8.885, 7.121 8.575 M 18.071 9.114 C 17.539 8.255, 17.024 8.152, 16.609 8.824 C 16.256 9.395, 16.455 10.163, 17.050 10.531 C 17.646 10.899, 18.304 11.030, 18.512 10.821 C 18.721 10.613, 18.522 9.845, 18.071 9.114 M 5.972 13 C 5.472 13, 5.321 13.672, 5.636 14.494 C 5.952 15.316, 6.620 15.735, 7.121 15.425 C 7.622 15.115, 7.774 14.443, 7.457 13.931 C 7.141 13.419, 6.473 13, 5.972 13 M 18.028 13 C 17.527 13, 16.859 13.419, 16.543 13.931 C 16.226 14.443, 16.378 15.115, 16.879 15.425 C 17.380 15.735, 18.048 15.316, 18.364 14.494 C 18.679 13.672, 18.528 13, 18.028 13 M 10.069 16.543 C 9.557 16.226, 8.885 16.378, 8.575 16.879 C 8.265 17.380, 8.684 18.048, 9.506 18.364 C 10.328 18.679, 11 18.528, 11 18.028 C 11 17.527, 10.581 16.859, 10.069 16.543 M 15.176 16.609 C 14.605 16.256, 13.837 16.455, 13.469 17.050 C 13.101 17.646, 12.970 18.304, 13.179 18.512 C 13.387 18.721, 14.155 18.522, 14.886 18.071 C 15.745 17.539, 15.848 17.024, 15.176 16.609" stroke="none" fill="black" fill-rule="evenodd"/>
</svg>