<svg xmlns="http://www.w3.org/2000/svg" width="24" height="24" viewBox="0 0 24 24" version="1.1">
	<path d="M 11 1.933 C 11 3.022, 7.093 4.507, 5.193 4.139 C 4.474 4, 3.965 4.474, 4.062 5.193 C 4.388 7.625, 4.005 8.852, 2.429 10.429 C 1 11.857, 1 12.143, 2.429 13.571 C 4.005 15.148, 4.388 16.375, 4.062 18.807 C 3.965 19.526, 4.474 20.035, 5.193 19.938 C 7.625 19.612, 8.852 19.995, 10.429 21.571 C 11.857 23, 12.143 23, 13.571 21.571 C 15.148 19.995, 16.375 19.612, 18.807 19.938 C 19.526 20.035, 20.035 19.526, 19.938 18.807 C 19.612 16.375, 19.995 15.148, 21.571 13.571 C 23 12.143, 23 11.857, 21.571 10.429 C 19.995 8.852, 19.612 7.625, 19.938 5.193 C 20.035 4.474, 19.526 4, 18.807 4.139 C 16.907 4.507, 13 3.022, 13 1.933 C 13 1.420, 12.550 1, 12 1 C 11.450 1, 11 1.420, 11 1.933 M 9.114 5.929 C 8.255 6.461, 8.152 6.976, 8.824 7.391 C 9.395 7.744, 10.163 7.545, 10.531 6.950 C 11.449 5.464, 10.719 4.938, 9.114 5.929 M 13 5.972 C 13 7.328, 14.777 8.170, 15.425 7.121 C 15.735 6.620, 15.316 5.952, 14.494 5.636 C 13.672 5.321, 13 5.472, 13 5.972 M 5.636 9.506 C 5.321 10.328, 5.472 11, 5.972 11 C 7.328 11, 8.170 9.223, 7.121 8.575 C 6.620 8.265, 5.952 8.684, 5.636 9.506 M 16.609 8.824 C 16.256 9.395, 16.455 10.163, 17.050 10.531 C 18.536 11.449, 19.062 10.719, 18.071 9.114 C 17.539 8.255, 17.024 8.152, 16.609 8.824 M 5.636 14.494 C 5.952 15.316, 6.620 15.735, 7.121 15.425 C 8.170 14.777, 7.328 13, 5.972 13 C 5.472 13, 5.321 13.672, 5.636 14.494 M 16.543 13.931 C 16.226 14.443, 16.378 15.115, 16.879 15.425 C 17.380 15.735, 18.048 15.316, 18.364 14.494 C 18.986 12.874, 17.483 12.409, 16.543 13.931 M 8.575 16.879 C 8.265 17.380, 8.684 18.048, 9.506 18.364 C 10.328 18.679, 11 18.528, 11 18.028 C 11 16.672, 9.223 15.830, 8.575 16.879 M 13.469 17.050 C 12.551 18.536, 13.281 19.062, 14.886 18.071 C 15.745 17.539, 15.848 17.024, 15.176 16.609 C 14.605 16.256, 13.837 16.455, 13.469 17.050" stroke="none" fill="#000000" fill-rule="evenodd"/>
</svg>