<svg viewBox="0 0 24 24" xmlns="http://www.w3.org/2000/svg" fill="none" stroke="#000000" stroke-width="2" stroke-linecap="round" stroke-linejoin="round"><path d="M11.695 1.057 C 11.466 1.129,11.256 1.299,11.128 1.516 C 11.024 1.693,11.020 1.724,11.007 2.385 L 10.994 3.069 10.758 3.094 C 9.444 3.231,7.591 3.998,6.568 4.829 L 6.396 4.969 5.948 4.533 C 5.437 4.035,5.291 3.950,4.943 3.949 C 4.504 3.947,4.150 4.187,4.000 4.590 C 3.904 4.847,3.901 4.960,3.982 5.236 C 4.036 5.416,4.112 5.515,4.501 5.916 L 4.958 6.386 4.726 6.703 C 3.903 7.826,3.299 9.289,3.108 10.620 L 3.056 10.980 2.398 11.002 C 2.033 11.015,1.690 11.046,1.627 11.072 C 1.026 11.326,0.817 12.065,1.198 12.591 C 1.263 12.681,1.403 12.805,1.508 12.867 C 1.693 12.976,1.724 12.981,2.378 13.000 L 3.056 13.020 3.108 13.380 C 3.299 14.711,3.903 16.174,4.726 17.297 L 4.958 17.614 4.501 18.084 C 4.112 18.485,4.036 18.584,3.982 18.764 C 3.900 19.041,3.904 19.153,4.001 19.415 C 4.107 19.698,4.357 19.932,4.643 20.017 C 4.906 20.095,4.973 20.095,5.236 20.018 C 5.416 19.964,5.515 19.888,5.917 19.498 L 6.389 19.040 6.564 19.174 C 7.691 20.035,9.252 20.696,10.620 20.892 L 10.980 20.944 11.000 21.625 C 11.020 22.298,11.022 22.309,11.141 22.503 C 11.543 23.156,12.457 23.156,12.859 22.503 C 12.978 22.309,12.980 22.298,13.000 21.625 L 13.020 20.944 13.380 20.892 C 14.748 20.696,16.309 20.035,17.436 19.174 L 17.611 19.040 18.083 19.498 C 18.485 19.888,18.584 19.964,18.764 20.018 C 19.027 20.096,19.093 20.096,19.363 20.016 C 19.661 19.927,19.927 19.661,20.016 19.363 C 20.096 19.093,20.096 19.027,20.018 18.764 C 19.964 18.584,19.888 18.485,19.498 18.083 L 19.040 17.611 19.174 17.436 C 20.035 16.309,20.696 14.748,20.892 13.380 L 20.944 13.020 21.622 13.000 C 22.276 12.981,22.307 12.976,22.492 12.867 C 23.210 12.445,23.141 11.397,22.373 11.072 C 22.310 11.046,21.967 11.015,21.602 11.002 L 20.944 10.980 20.892 10.620 C 20.696 9.252,20.035 7.691,19.174 6.564 L 19.040 6.389 19.498 5.917 C 19.888 5.515,19.964 5.416,20.018 5.236 C 20.095 4.974,20.095 4.906,20.018 4.645 C 19.892 4.220,19.511 3.945,19.057 3.948 C 18.709 3.951,18.562 4.036,18.052 4.533 L 17.604 4.969 17.432 4.829 C 16.411 4.000,14.554 3.231,13.242 3.094 L 13.006 3.069 12.993 2.385 C 12.980 1.724,12.976 1.693,12.872 1.516 C 12.628 1.101,12.150 0.915,11.695 1.057 M11.000 6.096 L 11.000 7.111 10.850 7.139 C 10.565 7.191,10.098 7.370,9.668 7.592 L 9.235 7.815 8.538 7.118 C 8.154 6.734,7.840 6.409,7.840 6.394 C 7.840 6.349,8.373 6.008,8.773 5.797 C 9.408 5.463,10.370 5.149,10.950 5.085 C 10.989 5.081,11.000 5.307,11.000 6.096 M13.720 5.224 C 14.226 5.350,14.771 5.558,15.227 5.798 C 15.627 6.008,16.160 6.349,16.160 6.394 C 16.160 6.409,15.845 6.735,15.461 7.119 L 14.762 7.818 14.331 7.593 C 13.904 7.370,13.439 7.192,13.150 7.139 L 13.000 7.111 13.000 6.095 L 13.000 5.079 13.170 5.104 C 13.263 5.117,13.511 5.171,13.720 5.224 M7.120 8.541 L 7.820 9.241 7.744 9.371 C 7.480 9.824,7.203 10.500,7.139 10.850 L 7.111 11.000 6.095 11.000 L 5.079 11.000 5.104 10.830 C 5.190 10.236,5.481 9.374,5.798 8.773 C 6.008 8.373,6.349 7.840,6.394 7.840 C 6.409 7.840,6.736 8.155,7.120 8.541 M17.820 8.120 C 18.343 8.906,18.774 9.992,18.896 10.830 L 18.921 11.000 17.905 11.000 L 16.889 11.000 16.861 10.850 C 16.809 10.565,16.630 10.098,16.408 9.668 L 16.185 9.235 16.882 8.538 C 17.266 8.154,17.591 7.840,17.606 7.840 C 17.622 7.840,17.718 7.966,17.820 8.120 M10.993 9.463 L 10.980 9.566 10.843 9.424 L 10.706 9.282 10.843 9.224 C 10.976 9.168,10.980 9.169,10.993 9.263 C 11.000 9.316,11.000 9.406,10.993 9.463 M13.259 9.278 C 13.269 9.294,13.215 9.368,13.138 9.442 L 13.000 9.576 13.000 9.370 L 13.000 9.164 13.120 9.206 C 13.186 9.229,13.248 9.261,13.259 9.278 M9.463 10.993 C 9.406 11.000,9.316 11.000,9.263 10.993 C 9.169 10.980,9.168 10.976,9.224 10.843 L 9.282 10.706 9.424 10.843 L 9.566 10.980 9.463 10.993 M14.794 10.880 L 14.836 11.000 14.630 11.000 L 14.424 11.000 14.558 10.862 C 14.709 10.706,14.734 10.708,14.794 10.880 M7.139 13.150 C 7.203 13.500,7.480 14.176,7.744 14.629 L 7.820 14.759 7.120 15.459 C 6.736 15.845,6.409 16.160,6.394 16.160 C 6.349 16.160,6.008 15.627,5.798 15.227 C 5.481 14.626,5.190 13.764,5.104 13.170 L 5.079 13.000 6.095 13.000 L 7.111 13.000 7.139 13.150 M9.442 13.138 C 9.291 13.294,9.266 13.292,9.206 13.120 L 9.164 13.000 9.370 13.000 L 9.576 13.000 9.442 13.138 M14.794 13.120 C 14.734 13.292,14.709 13.294,14.558 13.138 L 14.424 13.000 14.630 13.000 L 14.836 13.000 14.794 13.120 M18.896 13.170 C 18.810 13.764,18.519 14.626,18.202 15.227 C 17.992 15.627,17.651 16.160,17.606 16.160 C 17.591 16.160,17.266 15.846,16.882 15.462 L 16.185 14.765 16.408 14.332 C 16.630 13.902,16.809 13.435,16.861 13.150 L 16.889 13.000 17.905 13.000 L 18.921 13.000 18.896 13.170 M10.993 14.737 C 10.980 14.831,10.976 14.832,10.843 14.776 L 10.706 14.718 10.843 14.576 L 10.980 14.434 10.993 14.537 C 11.000 14.594,11.000 14.684,10.993 14.737 M13.259 14.722 C 13.248 14.739,13.186 14.771,13.120 14.794 L 13.000 14.836 13.000 14.630 L 13.000 14.424 13.138 14.558 C 13.215 14.632,13.269 14.706,13.259 14.722 M9.644 16.397 C 10.073 16.622,10.444 16.768,10.773 16.842 L 11.000 16.893 11.000 17.910 L 11.000 18.927 10.830 18.900 C 10.266 18.810,9.445 18.544,8.916 18.279 C 8.624 18.133,8.069 17.800,7.920 17.682 L 7.820 17.603 8.520 16.901 C 8.904 16.516,9.230 16.200,9.244 16.200 C 9.257 16.200,9.438 16.289,9.644 16.397 M15.480 16.901 L 16.180 17.603 16.080 17.682 C 15.931 17.800,15.376 18.133,15.084 18.279 C 14.555 18.544,13.734 18.810,13.170 18.900 L 13.000 18.927 13.000 17.910 L 13.000 16.893 13.230 16.841 C 13.554 16.769,14.005 16.589,14.380 16.383 C 14.556 16.286,14.718 16.205,14.740 16.203 C 14.763 16.202,15.096 16.516,15.480 16.901 " stroke="none" fill-rule="evenodd" fill="black"></path></svg>