<svg xmlns="http://www.w3.org/2000/svg" width="24" height="24" viewBox="0 0 24 24" version="1.1">
	<path d="M 11.600 10 C 10.830 10, 8.580 11.620, 6.600 13.600 C 4.122 16.078, 3 18.104, 3 20.100 C 3 22.913, 3.149 23, 8 23 L 13 23 13 16.500 C 13 11.595, 12.656 10, 11.600 10 M 8 16 C 7.670 16, 6.860 16.540, 6.200 17.200 C 5.540 17.860, 5 18.985, 5 19.700 C 5 20.478, 6.205 21, 8 21 C 9.795 21, 11 20.478, 11 19.700 C 11 18.985, 10.460 17.860, 9.800 17.200 C 9.140 16.540, 8.330 16, 8 16" stroke="none" fill="black" fill-rule="evenodd"/>
</svg>