<svg xmlns="http://www.w3.org/2000/svg" width="24" height="24" viewBox="0 0 24 24" version="1.1">
	<path d="M 18 3 C 16.900 3, 15.100 3.900, 14 5 C 12.900 6.100, 12 7.701, 12 8.557 C 12 9.966, 11.789 9.966, 9.777 8.557 C 8.555 7.701, 6.782 7, 5.837 7 C 4.891 7, 3.828 7.470, 3.473 8.044 C 3.118 8.618, 3.552 10.193, 4.437 11.544 C 5.411 13.031, 7 14, 8.464 14 C 9.794 14, 11.172 14.470, 11.527 15.044 C 11.882 15.618, 11.628 16.743, 10.964 17.544 C 10.299 18.345, 8.910 19, 7.878 19 C 6.845 19, 6 19.450, 6 20 C 6 20.556, 8.667 21, 12 21 C 15.333 21, 18 20.556, 18 20 C 18 19.450, 16.976 19, 15.724 19 C 13.671 19, 13.485 18.607, 13.829 15 C 14.038 12.800, 14.613 11, 15.105 11 C 15.597 11, 16.900 10.100, 18 9 C 19.100 7.900, 20 6.100, 20 5 C 20 3.667, 19.333 3, 18 3 M 16.107 6 C 15.616 6, 14.964 6.652, 14.658 7.449 C 14.286 8.418, 14.582 8.714, 15.551 8.342 C 16.348 8.036, 17 7.384, 17 6.893 C 17 6.402, 16.598 6, 16.107 6 M 7.382 10 C 6.557 10, 6.160 10.450, 6.500 11 C 6.840 11.550, 7.793 12, 8.618 12 C 9.443 12, 9.840 11.550, 9.500 11 C 9.160 10.450, 8.207 10, 7.382 10" stroke="none" fill="black" fill-rule="evenodd"/>
</svg>