<svg xmlns="http://www.w3.org/2000/svg" width="24" height="24" viewBox="0 0 24 24" version="1.1">
	<path d="M 14 5 C 12.900 6.100, 12 7.701, 12 8.557 C 12 9.966, 11.789 9.966, 9.777 8.557 C 7.215 6.762, 4.406 6.534, 3.473 8.044 C 2.365 9.836, 5.855 14, 8.464 14 C 9.794 14, 11.172 14.470, 11.527 15.044 C 12.431 16.506, 10.130 19, 7.878 19 C 6.845 19, 6 19.450, 6 20 C 6 20.556, 8.667 21, 12 21 C 15.333 21, 18 20.556, 18 20 C 18 19.450, 16.976 19, 15.724 19 C 13.671 19, 13.485 18.607, 13.829 15 C 14.038 12.800, 14.613 11, 15.105 11 C 16.755 11, 20 7.022, 20 5 C 20 2.355, 16.645 2.355, 14 5 M 14.658 7.449 C 14.286 8.418, 14.582 8.714, 15.551 8.342 C 16.348 8.036, 17 7.384, 17 6.893 C 17 5.455, 15.265 5.867, 14.658 7.449 M 6.500 11 C 6.840 11.550, 7.793 12, 8.618 12 C 9.443 12, 9.840 11.550, 9.500 11 C 9.160 10.450, 8.207 10, 7.382 10 C 6.557 10, 6.160 10.450, 6.500 11" stroke="none" fill="#000000" fill-rule="evenodd"/>
</svg>