<svg xmlns="http://www.w3.org/2000/svg" width="24" height="24" viewBox="0 0 24 24" version="1.1">
	<path d="M 2.425 3.334 C 2.144 4.067, 2.046 8.455, 2.207 13.084 L 2.500 21.500 12 21.500 L 21.500 21.500 22 12.500 C 22.302 7.056, 22.105 3.210, 21.500 2.765 C 20.950 2.361, 16.548 2.024, 11.719 2.015 C 5.311 2.004, 2.799 2.361, 2.425 3.334 M 4 12 L 4 20 12 20 L 20 20 20 13.797 L 20 7.594 15.990 11.510 L 11.980 15.425 9.796 13.240 C 7.382 10.826, 8.016 8.938, 10.538 11.031 C 11.900 12.162, 12.712 11.759, 16.297 8.174 L 20.471 4 12.235 4 L 4 4 4 12" stroke="none" fill="black" fill-rule="evenodd"/>
</svg>