<svg xmlns="http://www.w3.org/2000/svg" width="24" height="24" viewBox="0 0 24 24" version="1.1">
	<path d="M 12.233 2.212 C 5.103 1.991, 2.845 2.241, 2.440 3.296 C 2.151 4.050, 2.046 8.455, 2.207 13.084 L 2.500 21.500 12 21.500 L 21.500 21.500 21.500 12 L 21.500 2.500 12.233 2.212 M 12 4 L 4 4 4 12 L 4 20 12 20 L 20 20 20 12 L 20 4 12 4 M 8.800 8 C 8.360 8, 8 8.360, 8 8.800 C 8 9.240, 8.521 10.121, 9.158 10.758 C 10.034 11.634, 10 12.295, 9.015 13.482 C 8.300 14.343, 7.993 15.327, 8.333 15.667 C 8.673 16.007, 9.638 15.716, 10.476 15.020 C 11.705 14, 12.295 14, 13.524 15.020 C 14.362 15.716, 15.327 16.007, 15.667 15.667 C 16.007 15.327, 15.716 14.362, 15.020 13.524 C 14 12.295, 14 11.705, 15.020 10.476 C 15.716 9.638, 16.007 8.673, 15.667 8.333 C 15.327 7.993, 14.343 8.300, 13.482 9.015 C 12.295 10, 11.634 10.034, 10.758 9.158 C 10.121 8.521, 9.240 8, 8.800 8" stroke="none" fill="black" fill-rule="evenodd"/>
</svg>