<svg xmlns="http://www.w3.org/2000/svg" width="24" height="24" viewBox="0 0 24 24" version="1.1">
	<path d="M 6.667 2 C 4.833 2, 3.033 2.300, 2.667 2.667 C 2.300 3.033, 2 4.158, 2 5.167 C 2 6.175, 2.450 7, 3 7 C 3.550 7, 4 6.325, 4 5.500 C 4 4.500, 5 4, 7 4 C 8.650 4, 10 3.550, 10 3 C 10 2.450, 8.500 2, 6.667 2 M 15 2 C 13.350 2, 12 2.450, 12 3 C 12 3.550, 13.350 4, 15 4 C 16.650 4, 18 3.550, 18 3 C 18 2.450, 16.650 2, 15 2 M 21 3 C 20.450 3, 20 4.350, 20 6 C 20 7.650, 20.450 9, 21 9 C 21.550 9, 22 7.650, 22 6 C 22 4.350, 21.550 3, 21 3 M 3 9 C 2.450 9, 2 10.350, 2 12 C 2 13.650, 2.450 15, 3 15 C 3.550 15, 4 13.650, 4 12 C 4 10.350, 3.550 9, 3 9 M 21 11 C 20.450 11, 20 12.350, 20 14 C 20 15.650, 20.450 17, 21 17 C 21.550 17, 22 15.650, 22 14 C 22 12.350, 21.550 11, 21 11 M 3 17 C 2.450 17, 2 17.914, 2 19.031 C 2 20.149, 2.694 21.329, 3.543 21.655 C 4.392 21.981, 5.404 21.905, 5.793 21.487 C 6.182 21.068, 5.938 20.525, 5.250 20.280 C 4.563 20.034, 4 19.196, 4 18.417 C 4 17.637, 3.550 17, 3 17 M 21.333 19.136 C 20.875 19.211, 19.488 19.467, 18.250 19.706 C 17.012 19.944, 16 20.588, 16 21.136 C 16 21.684, 17.203 21.990, 18.673 21.816 C 20.143 21.642, 21.530 20.938, 21.756 20.250 C 21.982 19.563, 21.792 19.061, 21.333 19.136 M 11 20 C 9.350 20, 8 20.450, 8 21 C 8 21.550, 9.350 22, 11 22 C 12.650 22, 14 21.550, 14 21 C 14 20.450, 12.650 20, 11 20" stroke="none" fill="black" fill-rule="evenodd"/>
</svg>