<svg xmlns="http://www.w3.org/2000/svg" width="24" height="24" viewBox="0 0 24 24" version="1.1">
	<path d="M 11.601 5.039 C 9.895 5.061, 7.105 5.686, 5.400 6.428 C 3.694 7.170, 2.007 8.539, 1.650 9.471 C 1.292 10.402, 1 12.623, 1 14.407 C 1 16.602, 1.835 18.436, 3.581 20.076 C 5.703 22.070, 7.197 22.500, 12 22.500 C 16.803 22.500, 18.297 22.070, 20.419 20.076 C 22.210 18.394, 23 16.613, 23 14.260 C 23 12.395, 22.559 10.045, 22.021 9.039 C 21.483 8.033, 19.616 6.713, 17.872 6.105 C 16.128 5.497, 13.306 5.018, 11.601 5.039 M 11.601 7.079 C 10.445 7.122, 8.301 7.597, 6.836 8.134 C 5.371 8.670, 3.922 9.760, 3.617 10.555 C 3.312 11.350, 3.320 12.671, 3.635 13.491 C 3.950 14.311, 5.960 15.507, 8.103 16.149 C 11.074 17.039, 12.926 17.039, 15.897 16.149 C 18.040 15.507, 20.050 14.311, 20.365 13.491 C 20.680 12.671, 20.690 11.356, 20.388 10.570 C 20.087 9.783, 18.459 8.658, 16.771 8.070 C 15.083 7.481, 12.756 7.036, 11.601 7.079 M 7.897 18.318 C 4.096 17.304, 3.915 17.343, 5.433 18.861 C 6.508 19.936, 8.767 20.500, 12 20.500 C 15.233 20.500, 17.492 19.936, 18.567 18.861 C 20.085 17.343, 19.904 17.304, 16.103 18.318 C 13.130 19.112, 10.870 19.112, 7.897 18.318" stroke="none" fill="black" fill-rule="evenodd"/>
</svg>