<svg xmlns="http://www.w3.org/2000/svg" width="24" height="24" viewBox="0 0 24 24" version="1.1">
	<path d="M 5.400 6.428 C 1.940 7.934, 1 9.639, 1 14.407 C 1 19.675, 4.841 22.500, 12 22.500 C 16.803 22.500, 18.297 22.070, 20.419 20.076 C 23.164 17.498, 23.885 12.523, 22.021 9.039 C 20.021 5.303, 11.176 3.913, 5.400 6.428 M 6.836 8.134 C 1.537 10.075, 2.219 14.386, 8.103 16.149 C 17.579 18.988, 25.884 11.247, 16.771 8.070 C 13.117 6.796, 10.440 6.813, 6.836 8.134 M 5.433 18.861 C 7.662 21.090, 16.338 21.090, 18.567 18.861 C 20.085 17.343, 19.904 17.304, 16.103 18.318 C 13.130 19.112, 10.870 19.112, 7.897 18.318 C 4.096 17.304, 3.915 17.343, 5.433 18.861" stroke="none" fill="black" fill-rule="evenodd"/>
</svg>