<svg xmlns="http://www.w3.org/2000/svg" width="24" height="24" viewBox="0 0 24 24" version="1.1">
	<path d="M 12 1 C 11.583 1, 10.682 2.354, 9.997 4.008 C 9.003 6.407, 7.966 7.142, 4.875 7.636 C 2.744 7.977, 1 8.570, 1 8.953 C 1 9.337, 2.078 10.664, 3.395 11.901 C 5.374 13.761, 5.698 14.831, 5.263 18.075 C 4.974 20.234, 5.043 22, 5.418 22 C 5.793 22, 7.427 21.313, 9.050 20.474 C 11.694 19.107, 12.306 19.107, 14.950 20.474 C 16.573 21.313, 18.207 22, 18.582 22 C 18.957 22, 19.026 20.234, 18.737 18.075 C 18.302 14.831, 18.626 13.761, 20.605 11.901 C 21.922 10.664, 23 9.337, 23 8.953 C 23 8.570, 21.256 7.977, 19.125 7.636 C 16.034 7.142, 14.997 6.407, 14.003 4.008 C 13.318 2.354, 12.417 1, 12 1 M 11.607 6 C 11.391 6, 10.960 6.662, 10.650 7.470 C 10.340 8.279, 8.921 9.233, 7.496 9.590 C 5.050 10.204, 4.999 10.342, 6.577 12.085 C 7.566 13.178, 8.056 14.926, 7.780 16.372 C 7.351 18.616, 7.504 18.728, 9.656 17.747 C 11.318 16.990, 12.682 16.990, 14.344 17.747 C 16.496 18.728, 16.649 18.616, 16.220 16.372 C 15.936 14.886, 16.449 13.161, 17.532 11.965 C 19.141 10.186, 19.153 10, 17.655 10 C 16.745 10, 15.100 9.100, 14 8 C 12.900 6.900, 11.823 6, 11.607 6" stroke="none" fill="black" fill-rule="evenodd"/>
</svg>