<svg xmlns="http://www.w3.org/2000/svg" width="24" height="24" viewBox="0 0 24 24" version="1.1">
	<path d="M 12 1 C 11.450 1, 11 1.461, 11 2.025 C 11 2.588, 9.875 3.477, 8.500 4 C 7.125 4.523, 6 5.385, 6 5.916 C 6 6.447, 6.450 7.160, 7 7.500 C 7.550 7.840, 8 8.930, 8 9.923 C 8 11.361, 8.811 11.727, 12 11.727 C 15.189 11.727, 16 11.361, 16 9.923 C 16 8.930, 16.450 7.840, 17 7.500 C 17.550 7.160, 18 6.447, 18 5.916 C 18 5.385, 16.875 4.523, 15.500 4 C 14.125 3.477, 13 2.588, 13 2.025 C 13 1.461, 12.550 1, 12 1 M 12 5 C 11.515 5, 10.816 5.489, 10.446 6.087 C 10.077 6.685, 10.275 7.675, 10.887 8.287 C 11.704 9.104, 12.296 9.104, 13.113 8.287 C 13.725 7.675, 13.923 6.685, 13.554 6.087 C 13.184 5.489, 12.485 5, 12 5 M 4.250 13.083 C 3.837 13.129, 2.712 14.029, 1.750 15.083 C 0.788 16.137, 0 18.514, 0 20.364 C 0 23.621, 0.126 23.727, 4 23.727 C 7.189 23.727, 8 23.361, 8 21.923 C 8 20.930, 8.450 19.840, 9 19.500 C 9.550 19.160, 10 18.447, 10 17.916 C 10 17.385, 8.875 16.523, 7.500 16 C 6.125 15.477, 5 14.588, 5 14.025 C 5 13.461, 4.662 13.037, 4.250 13.083 M 19.500 13 C 19.225 13, 19 13.461, 19 14.025 C 19 14.588, 17.875 15.477, 16.500 16 C 15.125 16.523, 14 17.385, 14 17.916 C 14 18.447, 14.450 19.160, 15 19.500 C 15.550 19.840, 16 20.930, 16 21.923 C 16 23.361, 16.811 23.727, 20 23.727 C 23.874 23.727, 24 23.621, 24 20.364 C 24 18.333, 23.207 16.207, 22 15 C 20.900 13.900, 19.775 13, 19.500 13 M 4 17 C 3.515 17, 2.816 17.489, 2.446 18.087 C 2.077 18.685, 2.275 19.675, 2.887 20.287 C 3.704 21.104, 4.296 21.104, 5.113 20.287 C 5.725 19.675, 5.923 18.685, 5.554 18.087 C 5.184 17.489, 4.485 17, 4 17 M 20 17 C 19.515 17, 18.816 17.489, 18.446 18.087 C 18.077 18.685, 18.275 19.675, 18.887 20.287 C 19.704 21.104, 20.296 21.104, 21.113 20.287 C 21.725 19.675, 21.923 18.685, 21.554 18.087 C 21.184 17.489, 20.485 17, 20 17" stroke="none" fill="black" fill-rule="evenodd"/>
</svg>