<svg xmlns="http://www.w3.org/2000/svg" width="24" height="24" viewBox="0 0 24 24" version="1.1">
	<path d="M 12.067 1 C 11.554 1, 10.850 1.897, 10.502 2.994 C 10.154 4.091, 9.191 5.666, 8.363 6.494 C 7.535 7.322, 5.539 8, 3.929 8 C 2.318 8, 1 8.372, 1 8.826 C 1 9.280, 2.078 10.664, 3.395 11.901 C 5.374 13.761, 5.698 14.831, 5.263 18.075 C 4.974 20.234, 5.006 22, 5.334 22 C 5.663 22, 7.522 21.242, 9.466 20.315 L 13 18.630 13 9.815 C 13 4.967, 12.580 1, 12.067 1 M 10.750 8.081 C 10.613 8.126, 9.234 8.722, 7.687 9.407 C 5.138 10.535, 5.029 10.779, 6.523 12.019 C 7.560 12.879, 8.021 14.403, 7.768 16.131 C 7.417 18.522, 7.599 18.750, 9.182 17.902 C 10.523 17.185, 11 15.757, 11 12.465 C 11 10.009, 10.887 8.037, 10.750 8.081" stroke="none" fill="black" fill-rule="evenodd"/>
</svg>