<svg xmlns="http://www.w3.org/2000/svg" width="24" height="24" viewBox="0 0 24 24" version="1.1">
	<path d="M 12 1 C 11.654 1, 10.619 2.575, 9.701 4.500 C 8.261 7.520, 7.550 8, 4.516 8 C 2.582 8, 1 8.380, 1 8.845 C 1 9.310, 1.883 10.489, 2.963 11.466 C 4.761 13.093, 4.803 13.481, 3.463 16.072 C 2.658 17.628, 2 19.325, 2 19.843 C 2 20.362, 2.716 21.061, 3.591 21.397 C 4.466 21.732, 6.716 21.279, 8.591 20.390 C 11.731 18.900, 12.269 18.900, 15.409 20.390 C 17.284 21.279, 19.534 21.732, 20.409 21.397 C 21.284 21.061, 22 20.362, 22 19.843 C 22 19.325, 21.342 17.628, 20.537 16.072 C 19.197 13.481, 19.239 13.093, 21.037 11.466 C 22.117 10.489, 23 9.310, 23 8.845 C 23 8.380, 21.418 8, 19.484 8 C 16.450 8, 15.739 7.520, 14.299 4.500 C 13.381 2.575, 12.346 1, 12 1 M 12 6 C 11.524 6, 10.849 6.900, 10.500 8 C 10.081 9.321, 8.987 10, 7.278 10 C 4.785 10, 4.754 10.071, 6.435 11.928 C 7.609 13.226, 7.949 14.584, 7.475 16.080 C 6.873 17.974, 7.045 18.185, 8.635 17.507 C 9.661 17.069, 11.175 16.711, 12 16.711 C 12.825 16.711, 14.339 17.069, 15.365 17.507 C 16.955 18.185, 17.127 17.974, 16.525 16.080 C 16.051 14.584, 16.391 13.226, 17.565 11.928 C 19.246 10.071, 19.215 10, 16.722 10 C 15.013 10, 13.919 9.321, 13.500 8 C 13.151 6.900, 12.476 6, 12 6" stroke="none" fill="black" fill-rule="evenodd"/>
</svg>