<svg xmlns="http://www.w3.org/2000/svg" width="24" height="24" viewBox="0 0 24 24" version="1.1">
	<path d="M 10.502 2.994 C 9.494 6.168, 7.089 8, 3.929 8 C 0.374 8, 0.245 8.942, 3.395 11.901 C 5.374 13.761, 5.698 14.831, 5.263 18.075 C 4.661 22.561, 4.706 22.585, 9.466 20.315 L 13 18.630 13 9.815 C 13 1.501, 11.916 -1.460, 10.502 2.994 M 7.687 9.407 C 5.138 10.535, 5.029 10.779, 6.523 12.019 C 7.560 12.879, 8.021 14.403, 7.768 16.131 C 7.417 18.522, 7.599 18.750, 9.182 17.902 C 10.523 17.185, 11 15.757, 11 12.465 C 11 10.009, 10.887 8.037, 10.750 8.081 C 10.613 8.126, 9.234 8.722, 7.687 9.407" stroke="none" fill="#000000" fill-rule="evenodd"/>
</svg>