<svg xmlns="http://www.w3.org/2000/svg" width="24" height="24" viewBox="0 0 24 24" version="1.1">
	<path d="M 1.702 1 C 1.316 1, 1 1.313, 1 1.695 C 1 2.078, 2.209 3.653, 3.687 5.195 L 6.374 8 3.687 8 C 2.209 8, 1 8.372, 1 8.826 C 1 9.280, 2.119 10.702, 3.486 11.987 C 5.586 13.960, 5.877 14.919, 5.358 18.161 C 5.021 20.273, 5.049 22, 5.422 22 C 5.794 22, 7.427 21.313, 9.050 20.474 C 11.709 19.099, 12.305 19.107, 15.093 20.548 C 16.794 21.428, 18.440 21.893, 18.751 21.582 C 19.062 21.272, 19.931 21.528, 20.682 22.151 C 21.434 22.775, 22.318 23.015, 22.649 22.685 C 22.979 22.355, 22.068 20.681, 20.624 18.966 C 19.181 17.250, 18 15.510, 18 15.098 C 18 14.686, 19.125 13.292, 20.500 12 C 21.875 10.708, 23 9.280, 23 8.826 C 23 8.372, 21.682 8, 20.071 8 C 18.461 8, 16.465 7.322, 15.637 6.494 C 14.809 5.666, 13.846 4.091, 13.498 2.994 C 13.150 1.897, 12.500 1, 12.054 1 C 11.608 1, 10.673 2.375, 9.977 4.056 L 8.711 7.112 5.558 4.056 C 3.824 2.375, 2.089 1, 1.702 1 M 12.040 5 C 11.586 5, 10.927 5.748, 10.576 6.663 C 10.167 7.727, 10.914 9.344, 12.649 11.155 C 15.231 13.851, 15.449 13.904, 17.256 12.268 C 19.106 10.594, 19.091 10.530, 16.623 9.708 C 15.230 9.243, 13.816 7.994, 13.478 6.932 C 13.141 5.869, 12.494 5, 12.040 5 M 6.637 10 C 4.765 10, 4.758 10.076, 6.468 11.965 C 7.551 13.161, 8.064 14.886, 7.780 16.372 C 7.351 18.616, 7.504 18.728, 9.656 17.747 C 11.371 16.965, 12.738 17.010, 14.750 17.913 C 17.109 18.972, 16.866 18.497, 13.042 14.574 C 10.590 12.058, 7.708 10, 6.637 10" stroke="none" fill="black" fill-rule="evenodd"/>
</svg>