<svg viewBox="0 0 24 24" xmlns="http://www.w3.org/2000/svg"><path d="M10.464 5.110 C 9.632 6.799,8.931 8.201,8.906 8.226 C 8.881 8.252,7.339 8.493,5.480 8.763 C 3.621 9.033,2.086 9.266,2.068 9.280 C 2.051 9.295,3.154 10.395,4.520 11.724 C 6.473 13.624,6.999 14.157,6.985 14.220 C 6.914 14.536,5.831 20.964,5.846 20.979 C 5.857 20.990,7.232 20.279,8.903 19.400 C 10.573 18.521,11.967 17.802,12.000 17.802 C 12.033 17.802,13.427 18.521,15.097 19.400 C 16.768 20.279,18.143 20.990,18.154 20.980 C 18.169 20.965,17.084 14.527,17.015 14.220 C 17.001 14.157,17.526 13.625,19.480 11.724 C 20.846 10.395,21.949 9.295,21.932 9.280 C 21.914 9.265,20.379 9.033,18.520 8.763 C 16.661 8.493,15.119 8.252,15.094 8.226 C 15.068 8.201,14.367 6.799,13.536 5.110 C 12.705 3.421,12.014 2.040,12.000 2.040 C 11.987 2.040,11.295 3.421,10.464 5.110 " stroke="none" fill="black" fill-rule="evenodd"></path></svg>