<svg viewBox="0 0 24 24" xmlns="http://www.w3.org/2000/svg" fill="none" stroke="#000000" stroke-width="2" stroke-linecap="round" stroke-linejoin="round"><path d="M11.643 1.069 C 11.298 1.191,11.195 1.346,10.486 2.825 L 9.831 4.188 8.346 4.399 C 7.529 4.515,6.783 4.634,6.688 4.662 C 6.454 4.732,6.263 4.886,6.131 5.111 C 6.036 5.272,6.020 5.344,6.020 5.600 C 6.020 5.854,6.036 5.928,6.127 6.080 C 6.186 6.179,6.722 6.746,7.317 7.340 C 7.980 8.000,8.400 8.449,8.400 8.496 C 8.400 8.538,8.290 9.186,8.156 9.936 C 8.022 10.686,7.912 11.391,7.911 11.501 C 7.908 11.723,8.028 12.039,8.172 12.193 C 8.376 12.412,8.790 12.541,9.080 12.476 C 9.179 12.454,9.863 12.126,10.599 11.748 C 11.336 11.369,11.957 11.055,11.979 11.050 C 12.002 11.044,12.614 11.346,13.340 11.721 C 14.066 12.096,14.764 12.431,14.891 12.464 C 15.098 12.519,15.144 12.519,15.334 12.464 C 15.792 12.330,16.093 11.949,16.088 11.509 C 16.086 11.394,15.976 10.686,15.843 9.936 C 15.709 9.186,15.600 8.539,15.600 8.498 C 15.600 8.453,16.062 7.958,16.734 7.282 C 17.730 6.279,17.877 6.116,17.934 5.943 C 18.092 5.469,17.919 4.984,17.506 4.742 C 17.358 4.654,17.129 4.612,15.752 4.414 L 14.168 4.186 13.514 2.824 C 12.782 1.299,12.698 1.176,12.316 1.063 C 12.057 0.986,11.874 0.987,11.643 1.069 M12.373 5.062 C 12.856 6.023,12.876 6.036,14.100 6.200 C 14.452 6.247,14.766 6.294,14.797 6.304 C 14.834 6.316,14.650 6.529,14.268 6.913 C 13.619 7.568,13.510 7.739,13.514 8.100 C 13.516 8.272,13.638 9.052,13.745 9.574 C 13.768 9.686,13.757 9.682,13.018 9.304 C 12.291 8.932,12.260 8.920,12.000 8.920 C 11.740 8.920,11.709 8.932,10.982 9.304 C 10.243 9.682,10.232 9.686,10.255 9.574 C 10.362 9.052,10.484 8.272,10.486 8.100 C 10.490 7.739,10.381 7.568,9.732 6.913 C 9.350 6.529,9.166 6.316,9.203 6.304 C 9.234 6.294,9.548 6.247,9.900 6.200 C 11.124 6.036,11.144 6.023,11.627 5.062 C 11.821 4.676,11.989 4.360,12.000 4.360 C 12.011 4.360,12.179 4.676,12.373 5.062 M3.643 13.069 C 3.298 13.191,3.195 13.346,2.485 14.825 L 1.831 16.188 1.205 16.276 C 0.861 16.325,0.450 16.384,0.290 16.407 L 0.000 16.450 0.000 18.236 L -0.000 20.023 0.200 20.220 C 0.310 20.328,0.400 20.452,0.400 20.495 C 0.400 20.538,0.310 21.083,0.199 21.706 C 0.011 22.768,-0.001 22.876,0.009 23.410 L 0.020 23.980 1.068 23.991 L 2.116 24.001 3.045 23.521 C 3.556 23.256,3.985 23.040,3.997 23.040 C 4.010 23.040,4.439 23.256,4.950 23.520 L 5.880 24.000 6.918 24.000 C 7.955 24.000,7.957 24.000,8.006 23.910 C 8.133 23.673,8.122 23.537,7.858 22.036 C 7.716 21.230,7.600 20.538,7.600 20.497 C 7.600 20.454,8.066 19.954,8.734 19.282 C 9.730 18.279,9.877 18.116,9.934 17.943 C 10.093 17.465,9.923 16.986,9.506 16.742 C 9.358 16.654,9.129 16.612,7.752 16.414 L 6.168 16.186 5.514 14.824 C 4.782 13.299,4.698 13.176,4.316 13.063 C 4.057 12.986,3.874 12.987,3.643 13.069 M19.643 13.069 C 19.298 13.191,19.195 13.346,18.486 14.825 L 17.831 16.188 16.346 16.399 C 15.529 16.515,14.783 16.634,14.688 16.662 C 14.454 16.732,14.263 16.886,14.131 17.111 C 14.036 17.272,14.020 17.344,14.020 17.600 C 14.020 17.854,14.036 17.928,14.127 18.080 C 14.186 18.179,14.722 18.746,15.317 19.340 C 15.976 19.996,16.400 20.449,16.400 20.495 C 16.400 20.537,16.282 21.238,16.138 22.053 L 15.875 23.535 15.948 23.757 L 16.020 23.980 17.068 23.991 L 18.116 24.001 19.045 23.521 C 19.556 23.256,19.985 23.040,19.997 23.040 C 20.010 23.040,20.439 23.256,20.951 23.521 L 21.882 24.001 22.931 23.991 L 23.980 23.980 23.991 23.410 C 24.001 22.876,23.989 22.768,23.801 21.706 C 23.690 21.083,23.600 20.538,23.600 20.495 C 23.600 20.452,23.690 20.328,23.800 20.220 L 24.000 20.023 24.000 18.236 L 24.000 16.450 23.710 16.407 C 23.551 16.384,23.139 16.325,22.795 16.276 L 22.169 16.188 21.515 14.825 C 20.782 13.299,20.698 13.176,20.316 13.063 C 20.057 12.986,19.874 12.987,19.643 13.069 M4.373 17.062 C 4.856 18.023,4.876 18.036,6.100 18.200 C 6.452 18.247,6.766 18.294,6.797 18.304 C 6.834 18.316,6.651 18.528,6.272 18.911 C 5.952 19.235,5.654 19.572,5.610 19.660 C 5.475 19.934,5.476 20.076,5.622 20.891 C 5.698 21.314,5.760 21.665,5.760 21.672 C 5.760 21.678,5.424 21.512,5.014 21.302 C 4.291 20.932,4.260 20.920,4.000 20.920 C 3.740 20.920,3.709 20.932,2.986 21.302 C 2.576 21.512,2.240 21.678,2.240 21.672 C 2.240 21.665,2.303 21.311,2.379 20.885 C 2.578 19.771,2.579 19.772,1.728 18.911 C 1.349 18.528,1.166 18.316,1.203 18.304 C 1.234 18.294,1.548 18.247,1.900 18.200 C 3.124 18.036,3.144 18.023,3.627 17.062 C 3.821 16.676,3.989 16.360,4.000 16.360 C 4.011 16.360,4.179 16.676,4.373 17.062 M20.373 17.062 C 20.856 18.023,20.876 18.036,22.100 18.200 C 22.452 18.247,22.766 18.294,22.797 18.304 C 22.834 18.316,22.651 18.528,22.272 18.911 C 21.952 19.235,21.654 19.572,21.610 19.660 C 21.475 19.934,21.476 20.076,21.622 20.891 C 21.698 21.314,21.760 21.665,21.760 21.672 C 21.760 21.678,21.424 21.512,21.014 21.302 C 20.291 20.932,20.260 20.920,20.000 20.920 C 19.740 20.920,19.709 20.932,18.986 21.302 C 18.576 21.512,18.240 21.678,18.240 21.672 C 18.240 21.665,18.303 21.311,18.379 20.885 C 18.578 19.771,18.579 19.772,17.728 18.911 C 17.349 18.528,17.166 18.316,17.203 18.304 C 17.234 18.294,17.548 18.247,17.900 18.200 C 19.124 18.036,19.144 18.023,19.627 17.062 C 19.821 16.676,19.989 16.360,20.000 16.360 C 20.011 16.360,20.179 16.676,20.373 17.062 " stroke="none" fill-rule="evenodd" fill="black"></path></svg>