<svg xmlns="http://www.w3.org/2000/svg" width="24" height="24" viewBox="0 0 24 24" version="1.1">
	<path d="M 1 1.695 C 1 2.078, 2.209 3.653, 3.687 5.195 L 6.374 8 3.687 8 C 0.347 8, 0.297 8.991, 3.486 11.987 C 5.586 13.960, 5.877 14.919, 5.358 18.161 C 4.669 22.473, 4.902 22.619, 9.050 20.474 C 11.709 19.099, 12.305 19.107, 15.093 20.548 C 16.794 21.428, 18.440 21.893, 18.751 21.582 C 19.062 21.272, 19.931 21.528, 20.682 22.151 C 23.280 24.307, 23.239 22.073, 20.624 18.966 C 17.402 15.135, 17.398 14.915, 20.500 12 C 23.756 8.942, 23.655 8, 20.071 8 C 16.911 8, 14.506 6.168, 13.498 2.994 C 12.601 0.169, 11.442 0.518, 9.977 4.056 L 8.711 7.112 5.558 4.056 C 2.472 1.065, 1 0.303, 1 1.695 M 10.576 6.663 C 10.167 7.727, 10.914 9.344, 12.649 11.155 C 15.231 13.851, 15.449 13.904, 17.256 12.268 C 19.106 10.594, 19.091 10.530, 16.623 9.708 C 15.230 9.243, 13.816 7.994, 13.478 6.932 C 12.726 4.560, 11.429 4.440, 10.576 6.663 M 6.468 11.965 C 7.551 13.161, 8.064 14.886, 7.780 16.372 C 7.351 18.616, 7.504 18.728, 9.656 17.747 C 11.371 16.965, 12.738 17.010, 14.750 17.913 C 17.109 18.972, 16.866 18.497, 13.042 14.574 C 10.590 12.058, 7.708 10, 6.637 10 C 4.765 10, 4.758 10.076, 6.468 11.965" stroke="none" fill="#000000" fill-rule="evenodd"/>
</svg>