<svg xmlns="http://www.w3.org/2000/svg" width="24" height="24" viewBox="0 0 24 24" version="1.1">
	<path d="M 11 2.025 C 11 2.588, 9.875 3.477, 8.500 4 C 5.900 4.988, 5.280 6.437, 7 7.500 C 7.550 7.840, 8 8.930, 8 9.923 C 8 11.361, 8.811 11.727, 12 11.727 C 15.189 11.727, 16 11.361, 16 9.923 C 16 8.930, 16.450 7.840, 17 7.500 C 18.720 6.437, 18.100 4.988, 15.500 4 C 14.125 3.477, 13 2.588, 13 2.025 C 13 1.461, 12.550 1, 12 1 C 11.450 1, 11 1.461, 11 2.025 M 10.446 6.087 C 9.416 7.755, 11.733 9.667, 13.113 8.287 C 14.267 7.133, 13.545 5, 12 5 C 11.515 5, 10.816 5.489, 10.446 6.087 M 1.750 15.083 C 0.788 16.137, 0 18.514, 0 20.364 C 0 23.621, 0.126 23.727, 4 23.727 C 7.189 23.727, 8 23.361, 8 21.923 C 8 20.930, 8.450 19.840, 9 19.500 C 10.720 18.437, 10.100 16.988, 7.500 16 C 6.125 15.477, 5 14.588, 5 14.025 C 5 12.505, 3.725 12.920, 1.750 15.083 M 19 14.025 C 19 14.588, 17.875 15.477, 16.500 16 C 13.900 16.988, 13.280 18.437, 15 19.500 C 15.550 19.840, 16 20.930, 16 21.923 C 16 23.361, 16.811 23.727, 20 23.727 C 23.874 23.727, 24 23.621, 24 20.364 C 24 18.333, 23.207 16.207, 22 15 C 19.762 12.762, 19 12.515, 19 14.025 M 2.446 18.087 C 1.416 19.755, 3.733 21.667, 5.113 20.287 C 6.267 19.133, 5.545 17, 4 17 C 3.515 17, 2.816 17.489, 2.446 18.087 M 18.446 18.087 C 17.416 19.755, 19.733 21.667, 21.113 20.287 C 22.267 19.133, 21.545 17, 20 17 C 19.515 17, 18.816 17.489, 18.446 18.087" stroke="none" fill="#000000" fill-rule="evenodd"/>
</svg>