<svg xmlns="http://www.w3.org/2000/svg" width="24" height="24" viewBox="0 0 24 24" version="1.1">
	<path d="M 10.354 4.978 C 9.667 8.414, 8.575 9.467, 4.750 10.381 C 3.237 10.742, 2 11.471, 2 12 C 2 12.529, 3.237 13.258, 4.750 13.619 C 8.575 14.533, 9.667 15.586, 10.354 19.022 C 10.682 20.660, 11.422 22, 12 22 C 12.577 22, 13.318 20.660, 13.646 19.022 C 14.333 15.586, 15.425 14.533, 19.250 13.619 C 20.762 13.258, 22 12.529, 22 12 C 22 11.471, 20.762 10.742, 19.250 10.381 C 15.425 9.467, 14.333 8.414, 13.646 4.978 C 13.318 3.340, 12.578 2, 12 2 C 11.422 2, 10.682 3.340, 10.354 4.978 M 10.195 10.555 C 9.115 11.778, 9.158 12.301, 10.445 13.588 C 11.852 14.994, 12.150 14.993, 13.571 13.571 C 14.968 12.175, 14.976 11.833, 13.643 10.500 C 11.838 8.696, 11.836 8.696, 10.195 10.555" stroke="none" fill="black" fill-rule="evenodd"/>
</svg>