<svg viewBox="0 0 24 24" xmlns="http://www.w3.org/2000/svg" fill="none" stroke="#000000" stroke-width="2" stroke-linecap="round" stroke-linejoin="round"><path d="M8.643 1.069 C 8.298 1.191,8.195 1.346,7.486 2.825 L 6.831 4.188 5.346 4.399 C 4.529 4.515,3.783 4.634,3.688 4.662 C 3.454 4.732,3.263 4.886,3.131 5.111 C 3.036 5.272,3.020 5.344,3.020 5.600 C 3.020 5.854,3.036 5.928,3.127 6.080 C 3.186 6.179,3.722 6.746,4.317 7.340 C 4.980 8.000,5.400 8.449,5.400 8.496 C 5.400 8.538,5.290 9.186,5.156 9.936 C 5.022 10.686,4.912 11.391,4.911 11.501 C 4.908 11.723,5.028 12.039,5.172 12.193 C 5.376 12.412,5.790 12.541,6.080 12.476 C 6.179 12.454,6.863 12.126,7.599 11.748 C 8.336 11.369,8.957 11.055,8.979 11.050 C 9.002 11.044,9.614 11.346,10.340 11.721 C 11.066 12.096,11.764 12.431,11.891 12.464 C 12.098 12.519,12.144 12.519,12.334 12.464 C 12.792 12.330,13.093 11.949,13.088 11.509 C 13.086 11.394,12.976 10.686,12.843 9.936 C 12.709 9.186,12.600 8.539,12.600 8.498 C 12.600 8.453,13.062 7.958,13.734 7.282 C 14.730 6.279,14.877 6.116,14.934 5.943 C 15.092 5.469,14.919 4.984,14.506 4.742 C 14.358 4.654,14.129 4.612,12.752 4.414 L 11.168 4.186 10.514 2.824 C 9.782 1.299,9.698 1.176,9.316 1.063 C 9.057 0.986,8.874 0.987,8.643 1.069 M9.373 5.062 C 9.856 6.023,9.876 6.036,11.100 6.200 C 11.452 6.247,11.766 6.294,11.797 6.304 C 11.834 6.316,11.650 6.529,11.268 6.913 C 10.619 7.568,10.510 7.739,10.514 8.100 C 10.516 8.272,10.638 9.052,10.745 9.574 C 10.768 9.686,10.757 9.682,10.018 9.304 C 9.291 8.932,9.260 8.920,9.000 8.920 C 8.740 8.920,8.709 8.932,7.982 9.304 C 7.243 9.682,7.232 9.686,7.255 9.574 C 7.362 9.052,7.484 8.272,7.486 8.100 C 7.490 7.739,7.381 7.568,6.732 6.913 C 6.350 6.529,6.166 6.316,6.203 6.304 C 6.234 6.294,6.548 6.247,6.900 6.200 C 8.124 6.036,8.144 6.023,8.627 5.062 C 8.821 4.676,8.989 4.360,9.000 4.360 C 9.011 4.360,9.179 4.676,9.373 5.062 M18.643 11.069 C 18.298 11.191,18.195 11.346,17.486 12.825 L 16.831 14.188 15.346 14.399 C 14.529 14.515,13.783 14.634,13.688 14.662 C 13.454 14.732,13.263 14.886,13.131 15.111 C 13.036 15.272,13.020 15.344,13.020 15.600 C 13.020 15.854,13.036 15.928,13.127 16.080 C 13.186 16.179,13.722 16.746,14.317 17.340 C 14.976 17.996,15.400 18.449,15.400 18.495 C 15.400 18.537,15.282 19.235,15.139 20.047 C 14.857 21.641,14.857 21.642,15.040 22.000 C 15.219 22.348,15.689 22.563,16.080 22.476 C 16.179 22.454,16.863 22.126,17.599 21.748 C 18.336 21.369,18.957 21.055,18.979 21.050 C 19.002 21.044,19.614 21.346,20.340 21.721 C 21.066 22.096,21.764 22.431,21.891 22.464 C 22.098 22.519,22.143 22.519,22.331 22.464 C 22.617 22.380,22.817 22.234,22.945 22.016 C 23.142 21.679,23.140 21.638,22.858 20.036 C 22.716 19.230,22.600 18.537,22.600 18.495 C 22.600 18.450,22.883 18.136,23.300 17.720 L 24.000 17.021 24.000 15.813 C 24.000 14.697,23.995 14.604,23.930 14.586 C 23.892 14.575,23.254 14.481,22.514 14.377 L 21.169 14.188 20.514 12.825 C 19.782 11.299,19.698 11.176,19.316 11.063 C 19.057 10.986,18.874 10.987,18.643 11.069 M19.373 15.062 C 19.856 16.023,19.876 16.036,21.100 16.200 C 21.452 16.247,21.766 16.294,21.797 16.304 C 21.834 16.316,21.651 16.528,21.272 16.911 C 20.952 17.235,20.654 17.572,20.610 17.660 C 20.475 17.934,20.476 18.076,20.622 18.891 C 20.698 19.314,20.760 19.665,20.760 19.672 C 20.760 19.678,20.424 19.512,20.014 19.302 C 19.291 18.932,19.260 18.920,19.000 18.920 C 18.740 18.920,18.709 18.932,17.986 19.302 C 17.576 19.512,17.240 19.678,17.240 19.672 C 17.240 19.665,17.303 19.311,17.379 18.885 C 17.578 17.771,17.579 17.772,16.728 16.911 C 16.349 16.528,16.166 16.316,16.203 16.304 C 16.234 16.294,16.548 16.247,16.900 16.200 C 18.124 16.036,18.144 16.023,18.627 15.062 C 18.821 14.676,18.989 14.360,19.000 14.360 C 19.011 14.360,19.179 14.676,19.373 15.062 " stroke="none" fill-rule="evenodd" fill="black"></path></svg>