<svg viewBox="0 0 24 24" xmlns="http://www.w3.org/2000/svg" fill="none" stroke="#000000" stroke-width="2" stroke-linecap="round" stroke-linejoin="round"><path d="M11.671 1.064 C 11.563 1.097,11.415 1.186,11.327 1.271 C 11.231 1.364,10.654 2.286,9.801 3.710 L 8.428 6.000 5.672 6.000 C 3.851 6.000,2.859 6.014,2.748 6.043 C 2.506 6.104,2.280 6.274,2.141 6.498 C 2.034 6.671,2.020 6.729,2.020 6.997 C 2.020 7.513,1.924 7.417,4.523 9.498 L 6.826 11.341 5.933 14.021 C 5.441 15.494,5.028 16.792,5.015 16.905 C 4.931 17.603,5.661 18.185,6.320 17.946 C 6.397 17.918,7.707 17.064,9.230 16.047 L 12.000 14.200 14.770 16.047 C 16.293 17.064,17.603 17.918,17.680 17.946 C 18.303 18.171,19.001 17.662,19.000 16.983 C 19.000 16.878,18.676 15.850,18.087 14.080 L 17.174 11.341 19.481 9.495 C 22.086 7.411,21.980 7.517,21.980 6.980 C 21.980 6.748,21.962 6.669,21.872 6.516 C 21.813 6.415,21.698 6.282,21.618 6.221 C 21.327 5.999,21.343 6.000,18.336 6.000 L 15.564 6.000 14.160 3.661 C 13.183 2.033,12.717 1.291,12.626 1.222 C 12.347 1.009,12.023 0.955,11.671 1.064 M13.118 5.812 C 13.695 6.776,14.231 7.628,14.309 7.707 C 14.584 7.982,14.556 7.978,16.433 8.000 L 18.125 8.020 16.668 9.186 C 15.379 10.217,15.200 10.374,15.118 10.545 C 14.925 10.943,14.935 10.997,15.555 12.850 C 15.862 13.769,16.105 14.520,16.096 14.520 C 16.087 14.520,15.267 13.978,14.275 13.316 C 13.282 12.655,12.398 12.088,12.310 12.056 C 12.222 12.025,12.082 12.000,12.000 12.000 C 11.918 12.000,11.778 12.025,11.690 12.056 C 11.602 12.088,10.718 12.655,9.725 13.316 C 8.733 13.978,7.913 14.520,7.904 14.520 C 7.895 14.520,8.138 13.768,8.445 12.850 C 9.065 10.997,9.075 10.943,8.882 10.545 C 8.800 10.374,8.621 10.217,7.332 9.186 L 5.875 8.020 7.567 8.000 C 9.439 7.978,9.417 7.981,9.684 7.713 C 9.759 7.638,10.306 6.764,10.900 5.771 C 11.707 4.422,11.991 3.978,12.025 4.013 C 12.049 4.039,12.541 4.848,13.118 5.812 " stroke="none" fill-rule="evenodd" fill="black"></path></svg>