<svg xmlns="http://www.w3.org/2000/svg" width="24" height="24" viewBox="0 0 24 24" version="1.1">
	<path d="M 12 2 C 11.422 2, 10.682 3.340, 10.354 4.978 C 10.027 6.615, 9.251 8.353, 8.629 8.840 C 8.008 9.326, 6.263 10.020, 4.750 10.381 C 3.237 10.742, 2 11.471, 2 12 C 2 12.529, 3.237 13.258, 4.750 13.619 C 6.263 13.980, 8.008 14.674, 8.629 15.160 C 9.251 15.647, 10.027 17.385, 10.354 19.022 C 10.682 20.660, 11.422 22, 12 22 C 12.577 22, 13.318 20.660, 13.646 19.022 C 13.973 17.385, 14.749 15.647, 15.371 15.160 C 15.992 14.674, 17.738 13.980, 19.250 13.619 C 20.762 13.258, 22 12.529, 22 12 C 22 11.471, 20.762 10.742, 19.250 10.381 C 17.738 10.020, 15.992 9.326, 15.371 8.840 C 14.749 8.353, 13.973 6.615, 13.646 4.978 C 13.318 3.340, 12.578 2, 12 2 M 11.821 9.038 C 11.645 9.059, 10.913 9.741, 10.195 10.555 C 9.115 11.778, 9.158 12.301, 10.445 13.588 C 11.852 14.994, 12.150 14.993, 13.571 13.571 C 14.968 12.175, 14.976 11.833, 13.643 10.500 C 12.818 9.675, 11.998 9.017, 11.821 9.038" stroke="none" fill="black" fill-rule="evenodd"/>
</svg>