<svg xmlns="http://www.w3.org/2000/svg" width="24" height="24" viewBox="0 0 24 24" version="1.1">
	<path d="M 8 2.025 C 8 2.588, 6.875 3.477, 5.500 4 C 2.900 4.988, 2.280 6.437, 4 7.500 C 4.550 7.840, 5 8.930, 5 9.923 C 5 11.361, 5.811 11.727, 9 11.727 C 12.189 11.727, 13 11.361, 13 9.923 C 13 8.930, 13.450 7.840, 14 7.500 C 15.720 6.437, 15.100 4.988, 12.500 4 C 11.125 3.477, 10 2.588, 10 2.025 C 10 1.461, 9.550 1, 9 1 C 8.450 1, 8 1.461, 8 2.025 M 7.250 7.250 C 7.479 7.938, 8.267 8.500, 9 8.500 C 9.733 8.500, 10.521 7.938, 10.750 7.250 C 10.998 6.506, 10.289 6, 9 6 C 7.711 6, 7.002 6.506, 7.250 7.250 M 18 12.025 C 18 12.588, 16.875 13.477, 15.500 14 C 12.900 14.988, 12.280 16.437, 14 17.500 C 14.550 17.840, 15 18.930, 15 19.923 C 15 21.354, 15.807 21.727, 18.902 21.727 C 22.435 21.727, 22.861 21.444, 23.402 18.739 C 24.261 14.443, 24.174 14, 22.469 14 C 21.626 14, 20.678 13.325, 20.362 12.500 C 19.711 10.805, 18 10.460, 18 12.025 M 17.250 17.250 C 17.479 17.938, 18.267 18.500, 19 18.500 C 19.733 18.500, 20.521 17.938, 20.750 17.250 C 20.998 16.506, 20.289 16, 19 16 C 17.711 16, 17.002 16.506, 17.250 17.250" stroke="none" fill="#000000" fill-rule="evenodd"/>
</svg>