<svg viewBox="0 0 24 24" xmlns="http://www.w3.org/2000/svg"><path d="M10.060 3.664 C 9.070 5.677,8.251 7.331,8.239 7.339 C 8.228 7.347,6.410 7.616,4.199 7.938 C 1.989 8.259,0.140 8.531,0.090 8.542 C 0.035 8.554,0.000 8.591,0.000 8.638 C 0.000 8.687,1.072 9.761,2.960 11.601 C 4.588 13.188,5.919 14.499,5.919 14.514 C 5.918 14.528,5.597 16.403,5.205 18.680 C 4.813 20.957,4.496 22.825,4.500 22.831 C 4.505 22.837,6.186 21.960,8.236 20.881 C 10.287 19.802,11.980 18.920,12.000 18.920 C 12.020 18.920,13.713 19.803,15.763 20.881 C 17.814 21.960,19.495 22.837,19.499 22.831 C 19.504 22.825,19.187 20.957,18.795 18.680 C 18.403 16.403,18.082 14.528,18.081 14.513 C 18.081 14.499,19.412 13.188,21.040 11.601 C 22.921 9.767,24.000 8.687,24.000 8.638 C 24.000 8.591,23.965 8.554,23.910 8.542 C 23.861 8.531,22.011 8.259,19.801 7.938 C 17.590 7.616,15.772 7.347,15.761 7.339 C 15.749 7.331,14.930 5.677,13.940 3.664 L 12.140 0.004 12.000 0.004 L 11.860 0.004 10.060 3.664 " fill="#000000" stroke="none" fill-rule="evenodd"></path></svg>