<svg xmlns="http://www.w3.org/2000/svg" width="24" height="24" viewBox="0 0 24 24" version="1.1">
	<path d="M 9.818 3.500 C 8.934 5.440, 7.931 6, 5.339 6 C 1.398 6, 1.054 7.334, 4.425 9.543 C 6.575 10.952, 6.732 11.470, 5.809 14.117 C 4.443 18.037, 5.199 18.586, 8.931 16.382 C 11.895 14.631, 12.105 14.631, 15.069 16.382 C 18.801 18.586, 19.557 18.037, 18.191 14.117 C 17.268 11.470, 17.425 10.952, 19.575 9.543 C 22.946 7.334, 22.602 6, 18.661 6 C 16.069 6, 15.066 5.440, 14.182 3.500 C 12.734 0.323, 11.266 0.323, 9.818 3.500 M 10.638 6.500 C 10.322 7.325, 9.319 8, 8.409 8 C 7.059 8, 6.982 8.273, 7.989 9.487 C 8.668 10.305, 8.959 11.666, 8.634 12.510 C 8.152 13.767, 8.405 13.854, 10.023 12.988 C 11.413 12.244, 12.587 12.244, 13.977 12.988 C 15.595 13.854, 15.848 13.767, 15.366 12.510 C 15.041 11.666, 15.332 10.305, 16.011 9.487 C 17.018 8.273, 16.941 8, 15.591 8 C 14.681 8, 13.678 7.325, 13.362 6.500 C 13.045 5.675, 12.432 5, 12 5 C 11.568 5, 10.955 5.675, 10.638 6.500" stroke="none" fill="#000000" fill-rule="evenodd"/>
</svg>