<svg viewBox="0 0 24 24" xmlns="http://www.w3.org/2000/svg"><path d="M11.120 2.039 C 9.316 2.220,7.707 2.807,6.280 3.806 C 2.738 6.286,1.178 10.759,2.422 14.865 C 2.918 16.499,3.728 17.850,4.939 19.061 C 5.928 20.050,7.038 20.788,8.272 21.278 C 11.634 22.610,15.313 22.080,18.200 19.845 C 18.637 19.507,19.507 18.637,19.845 18.200 C 21.255 16.379,22.000 14.234,22.000 12.000 C 22.000 7.432,18.842 3.387,14.430 2.303 C 13.446 2.062,12.028 1.948,11.120 2.039 M10.870 9.450 L 12.000 10.579 13.130 9.450 C 13.752 8.828,14.278 8.320,14.300 8.320 C 14.321 8.320,14.650 8.630,15.030 9.010 L 15.720 9.699 14.570 10.850 L 13.421 12.000 14.560 13.140 L 15.700 14.280 14.990 14.990 L 14.280 15.700 13.140 14.560 L 12.000 13.421 10.860 14.560 L 9.720 15.700 9.010 14.990 L 8.300 14.280 9.440 13.140 L 10.579 12.000 9.430 10.850 L 8.280 9.700 8.970 9.010 C 9.349 8.630,9.678 8.320,9.700 8.320 C 9.722 8.320,10.248 8.828,10.870 9.450 " stroke="none" fill-rule="evenodd" fill="black"></path></svg>