<svg viewBox="0 0 24 24" xmlns="http://www.w3.org/2000/svg" fill="none" stroke="#000000" stroke-width="2" stroke-linecap="round" stroke-linejoin="round"><path d="M11.280 1.023 C 11.203 1.032,10.951 1.059,10.720 1.083 C 8.832 1.283,6.991 2.023,5.360 3.235 C 4.751 3.688,3.684 4.755,3.226 5.367 C 0.728 8.714,0.301 13.032,2.097 16.780 C 2.643 17.918,3.276 18.801,4.238 19.762 C 5.199 20.724,6.082 21.357,7.220 21.903 C 10.967 23.699,15.288 23.270,18.637 20.770 C 19.246 20.316,20.316 19.246,20.770 18.637 C 23.744 14.652,23.744 9.348,20.770 5.363 C 20.316 4.755,19.247 3.686,18.640 3.235 C 17.045 2.049,15.365 1.360,13.423 1.096 C 13.000 1.038,11.574 0.990,11.280 1.023 M11.008 4.693 L 11.020 6.306 11.141 6.503 C 11.543 7.156,12.457 7.156,12.859 6.503 L 12.980 6.306 12.992 4.688 L 13.003 3.069 13.240 3.094 C 14.335 3.208,15.864 3.774,16.880 4.440 C 17.947 5.140,18.860 6.053,19.560 7.120 C 20.227 8.137,20.792 9.665,20.906 10.761 L 20.931 11.000 17.892 11.000 L 14.853 11.000 14.688 10.670 C 14.321 9.938,13.642 9.363,12.861 9.125 C 12.588 9.042,12.458 9.027,12.000 9.027 C 11.542 9.027,11.412 9.042,11.139 9.125 C 10.358 9.363,9.679 9.938,9.312 10.670 L 9.147 11.000 6.108 11.000 L 3.069 11.000 3.094 10.761 C 3.208 9.665,3.773 8.137,4.440 7.120 C 5.140 6.053,6.053 5.140,7.120 4.440 C 7.944 3.900,9.191 3.386,10.120 3.205 C 10.351 3.160,10.576 3.115,10.620 3.106 C 10.664 3.097,10.767 3.087,10.848 3.085 L 10.997 3.080 11.008 4.693 M12.310 11.061 C 12.688 11.173,13.000 11.598,13.000 12.001 C 13.000 12.331,12.784 12.696,12.484 12.872 C 12.328 12.963,12.254 12.980,12.000 12.980 C 11.746 12.980,11.672 12.963,11.516 12.872 C 10.935 12.530,10.833 11.774,11.304 11.303 C 11.583 11.024,11.916 10.944,12.310 11.061 M9.312 13.330 C 9.597 13.900,10.100 14.403,10.670 14.688 L 11.000 14.853 11.000 17.900 L 11.000 20.947 10.750 20.914 C 9.232 20.714,7.609 20.011,6.370 19.019 C 5.670 18.458,4.957 17.668,4.440 16.880 C 3.773 15.863,3.208 14.335,3.094 13.239 L 3.069 13.000 6.108 13.000 L 9.147 13.000 9.312 13.330 M20.906 13.239 C 20.792 14.335,20.227 15.863,19.560 16.880 C 19.038 17.676,18.297 18.493,17.600 19.043 C 16.351 20.028,14.751 20.716,13.250 20.914 L 13.000 20.947 13.000 17.900 L 13.000 14.853 13.330 14.688 C 13.692 14.506,14.016 14.247,14.323 13.891 C 14.433 13.764,14.597 13.512,14.688 13.330 L 14.853 13.000 17.892 13.000 L 20.931 13.000 20.906 13.239 " stroke="none" fill-rule="evenodd" fill="black"></path></svg>