<svg xmlns="http://www.w3.org/2000/svg" width="24" height="24" viewBox="0 0 24 24" version="1.1">
	<path d="M 12 1 C 8.557 1, 7.187 1.613, 4.400 4.400 C 1.613 7.187, 1 8.557, 1 12 C 1 15.443, 1.613 16.813, 4.400 19.600 C 7.187 22.387, 8.557 23, 12 23 C 15.443 23, 16.813 22.387, 19.600 19.600 C 22.387 16.813, 23 15.443, 23 12 C 23 8.557, 22.387 7.187, 19.600 4.400 C 16.813 1.613, 15.443 1, 12 1 M 10.820 5.023 C 10.535 3.266, 10.226 3.185, 8.020 4.293 C 6.656 4.979, 4.979 6.656, 4.293 8.020 C 3.171 10.253, 3.259 10.534, 5.173 10.839 C 6.342 11.026, 8.356 10.612, 9.649 9.920 C 11.538 8.909, 12.462 8.909, 14.351 9.920 C 15.644 10.612, 17.658 11.026, 18.827 10.839 C 20.741 10.534, 20.829 10.253, 19.707 8.020 C 19.021 6.656, 17.344 4.979, 15.980 4.293 C 13.774 3.185, 13.465 3.266, 13.180 5.023 C 13.005 6.111, 12.473 7, 12 7 C 11.527 7, 10.995 6.111, 10.820 5.023 M 12 11 C 11.450 11, 11 11.450, 11 12 C 11 12.550, 11.450 13, 12 13 C 12.550 13, 13 12.550, 13 12 C 13 11.450, 12.550 11, 12 11 M 5.894 13 C 3.710 13, 3.285 13.374, 3.693 14.935 C 3.972 16, 4.942 17.506, 5.850 18.283 C 6.757 19.060, 8.287 19.975, 9.250 20.317 C 10.645 20.811, 11 20.375, 11 18.169 C 11 16.646, 10.460 14.860, 9.800 14.200 C 9.140 13.540, 7.382 13, 5.894 13 M 18.169 13 C 16.646 13, 14.860 13.540, 14.200 14.200 C 13.540 14.860, 13 16.618, 13 18.106 C 13 20.290, 13.374 20.715, 14.935 20.307 C 16 20.028, 17.506 19.058, 18.283 18.150 C 19.060 17.243, 19.975 15.713, 20.317 14.750 C 20.811 13.355, 20.375 13, 18.169 13" stroke="none" fill="black" fill-rule="evenodd"/>
</svg>