<svg xmlns="http://www.w3.org/2000/svg" width="24" height="24" viewBox="0 0 24 24" version="1.1">
	<path d="M 4 1.800 C 4 2.240, 4.424 3.028, 4.943 3.550 C 5.461 4.072, 6.024 6.975, 6.193 10 C 6.465 14.872, 6.763 15.537, 8.804 15.827 C 10.735 16.100, 11.058 16.666, 10.804 19.327 C 10.585 21.616, 10.918 22.500, 12 22.500 C 13.082 22.500, 13.415 21.616, 13.196 19.327 C 12.942 16.666, 13.265 16.100, 15.196 15.827 C 17.282 15.531, 17.528 14.909, 17.798 9.250 C 18.020 4.589, 18.465 3, 19.548 3 C 20.346 3, 21 2.519, 21 1.930 C 21 1.342, 19.988 1.005, 18.750 1.180 C 16.729 1.467, 16.470 2.136, 16.202 7.750 L 15.905 14 11.952 14 L 8 14 8 8.700 C 8 5.785, 7.460 2.860, 6.800 2.200 C 5.426 0.826, 4 0.623, 4 1.800" stroke="none" fill="#000000" fill-rule="evenodd"/>
</svg>