<svg viewBox="0 0 24 24" xmlns="http://www.w3.org/2000/svg" fill="none" stroke="#000000" stroke-width="2" stroke-linecap="round" stroke-linejoin="round"><path d="M18.499 1.043 C 17.393 1.228,16.488 2.024,16.114 3.140 L 16.020 3.420 16.000 8.340 C 15.985 12.156,15.969 13.285,15.930 13.373 C 15.842 13.572,15.672 13.761,15.484 13.872 L 15.300 13.980 12.000 13.980 L 8.700 13.980 8.516 13.872 C 8.415 13.813,8.284 13.700,8.225 13.623 C 7.989 13.314,8.000 13.564,8.000 8.501 C 8.000 3.986,7.998 3.844,7.920 3.536 C 7.758 2.896,7.421 2.377,6.898 1.961 C 6.311 1.495,5.768 1.303,5.040 1.305 C 4.519 1.306,4.384 1.346,4.129 1.576 C 3.702 1.962,3.701 2.620,4.126 3.028 C 4.328 3.221,4.524 3.286,4.943 3.298 C 5.259 3.307,5.339 3.324,5.492 3.413 C 5.683 3.525,5.858 3.709,5.934 3.878 C 5.967 3.952,5.985 5.283,6.000 8.780 L 6.020 13.580 6.115 13.860 C 6.287 14.372,6.520 14.754,6.875 15.109 C 6.945 15.179,7.053 15.332,7.113 15.448 C 7.237 15.684,7.484 15.895,7.711 15.958 C 7.802 15.983,8.472 16.000,9.430 16.000 L 11.000 16.000 11.000 17.637 L 11.000 19.273 10.862 19.359 C 10.669 19.478,10.334 19.855,10.218 20.085 C 9.927 20.658,9.930 21.347,10.225 21.930 C 10.361 22.199,10.801 22.639,11.070 22.775 C 11.659 23.073,12.341 23.073,12.930 22.775 C 13.196 22.640,13.638 22.200,13.771 21.937 C 14.064 21.359,14.068 20.649,13.782 20.085 C 13.666 19.855,13.331 19.478,13.138 19.359 L 13.000 19.273 13.000 17.637 L 13.000 16.000 14.570 16.000 C 15.528 16.000,16.198 15.983,16.289 15.958 C 16.516 15.895,16.763 15.684,16.887 15.448 C 16.947 15.332,17.055 15.179,17.125 15.109 C 17.480 14.754,17.713 14.372,17.885 13.860 L 17.980 13.580 18.000 8.660 C 18.022 3.146,17.995 3.600,18.321 3.283 C 18.565 3.047,18.762 3.000,19.537 2.998 C 20.230 2.996,20.378 2.967,20.619 2.783 C 20.696 2.725,20.808 2.592,20.869 2.489 C 20.964 2.328,20.980 2.256,20.980 2.000 C 20.980 1.746,20.963 1.672,20.872 1.516 C 20.740 1.293,20.533 1.128,20.290 1.055 C 20.084 0.993,18.845 0.985,18.499 1.043 " stroke="none" fill-rule="evenodd" fill="black"></path></svg>