<svg viewBox="0 0 24 24" xmlns="http://www.w3.org/2000/svg" fill="none" stroke="#000000" stroke-width="2" stroke-linecap="round" stroke-linejoin="round"><path d="M13.543 3.459 C 12.961 3.543,12.480 3.692,11.940 3.959 C 11.352 4.248,10.897 4.588,10.393 5.112 C 9.466 6.079,8.931 6.994,8.634 8.120 C 8.561 8.401,8.545 8.571,8.543 9.100 C 8.540 9.821,8.591 10.115,8.815 10.670 L 8.949 11.000 6.421 11.000 C 3.678 11.000,3.671 11.000,3.382 11.221 C 3.302 11.282,3.187 11.415,3.128 11.516 C 3.037 11.672,3.020 11.746,3.020 12.000 C 3.020 12.256,3.036 12.328,3.131 12.489 C 3.256 12.702,3.449 12.864,3.670 12.943 C 3.791 12.986,4.521 12.997,7.445 12.998 L 11.070 13.000 11.300 13.105 C 11.491 13.192,11.568 13.207,11.758 13.190 C 11.883 13.178,12.060 13.131,12.151 13.084 C 12.312 13.002,12.365 13.000,14.098 13.000 L 15.879 13.000 15.778 13.270 C 15.552 13.869,15.178 14.422,14.649 14.936 C 13.939 15.626,13.361 15.890,12.558 15.889 C 11.956 15.889,11.387 15.697,10.769 15.288 C 10.581 15.163,10.511 15.140,10.273 15.126 C 9.919 15.106,9.699 15.187,9.489 15.414 C 9.080 15.858,9.115 16.463,9.573 16.865 C 10.139 17.363,11.255 17.796,12.178 17.876 C 13.666 18.005,14.993 17.461,16.181 16.234 C 17.075 15.311,17.588 14.411,17.859 13.290 L 17.929 13.000 19.054 12.998 C 20.265 12.996,20.356 12.984,20.619 12.783 C 20.696 12.725,20.808 12.592,20.869 12.489 C 20.964 12.328,20.980 12.256,20.980 12.000 C 20.980 11.746,20.963 11.672,20.872 11.516 C 20.813 11.415,20.698 11.282,20.618 11.221 C 20.354 11.020,20.208 11.000,18.984 11.000 L 17.860 11.000 17.764 10.680 C 17.474 9.712,16.832 8.735,16.015 8.021 C 15.417 7.498,15.159 7.370,14.793 7.413 C 14.547 7.442,14.324 7.560,14.161 7.745 C 13.981 7.950,13.909 8.140,13.910 8.405 C 13.912 8.739,14.021 8.944,14.344 9.221 C 15.011 9.792,15.426 10.290,15.670 10.810 L 15.759 11.000 13.685 11.000 L 11.612 11.000 11.456 10.885 C 10.282 10.017,10.218 8.642,11.281 7.151 C 11.896 6.289,12.628 5.731,13.434 5.511 C 13.683 5.443,13.857 5.428,14.360 5.427 C 15.065 5.427,15.397 5.475,16.520 5.742 C 17.061 5.871,17.303 5.912,17.420 5.894 C 17.920 5.816,18.292 5.393,18.291 4.904 C 18.290 4.548,18.082 4.184,17.795 4.037 C 17.636 3.957,16.845 3.747,16.220 3.620 C 15.267 3.427,14.212 3.363,13.543 3.459 " stroke="none" fill-rule="evenodd" fill="black"></path></svg>