<svg xmlns="http://www.w3.org/2000/svg" width="24" height="24" viewBox="0 0 24 24" version="1.1">
	<path d="M 13.873 3 C 13.343 3, 11.764 4.145, 10.365 5.544 C 8.953 6.956, 8.069 8.737, 8.379 9.544 C 8.790 10.617, 8.156 11, 5.969 11 C 4.336 11, 3 11.450, 3 12 C 3 12.556, 5.667 13, 9 13 C 12.333 13, 15 13.444, 15 14 C 15 14.550, 14.438 15.052, 13.750 15.115 C 13.063 15.178, 11.663 15.142, 10.639 15.034 C 9.485 14.912, 8.945 15.342, 9.217 16.168 C 9.457 16.901, 10.805 17.637, 12.211 17.805 C 13.994 18.018, 15.376 17.337, 16.778 15.555 C 17.883 14.150, 19.286 13, 19.894 13 C 20.502 13, 21 12.550, 21 12 C 21 11.450, 20.341 11, 19.535 11 C 18.730 11, 17.589 10.100, 17 9 C 16.411 7.900, 15.443 7, 14.848 7 C 14.253 7, 14.002 7.900, 14.290 9 C 14.682 10.502, 14.320 11, 12.837 11 C 11.360 11, 10.942 10.432, 11.180 8.750 C 11.425 7.025, 12.259 6.427, 14.750 6.187 C 16.538 6.014, 18 5.500, 18 5.044 C 18 4.587, 17.288 3.941, 16.418 3.607 C 15.548 3.273, 14.403 3, 13.873 3" stroke="none" fill="black" fill-rule="evenodd"/>
</svg>