<svg xmlns="http://www.w3.org/2000/svg" width="24" height="24" viewBox="0 0 24 24" version="1.1">
	<path d="M 7.305 3.943 C 6.994 5.131, 5.767 6.006, 4.148 6.193 C 1.547 6.495, 1.500 6.632, 1.500 14 L 1.500 21.500 12 21.500 L 22.500 21.500 22.500 14 C 22.500 6.632, 22.453 6.495, 19.852 6.193 C 18.233 6.006, 17.006 5.131, 16.695 3.943 C 16.294 2.409, 15.306 2, 12 2 C 8.694 2, 7.706 2.409, 7.305 3.943 M 9 5 C 9 5.550, 10.350 6, 12 6 C 13.650 6, 15 5.550, 15 5 C 15 4.450, 13.650 4, 12 4 C 10.350 4, 9 4.450, 9 5 M 3 9.500 C 3 10.333, 3.889 11, 5 11 C 6.111 11, 7 10.333, 7 9.500 C 7 8.667, 6.111 8, 5 8 C 3.889 8, 3 8.667, 3 9.500 M 9 9.500 C 9 10.500, 10 11, 12 11 C 14 11, 15 10.500, 15 9.500 C 15 8.500, 14 8, 12 8 C 10 8, 9 8.500, 9 9.500 M 17 9.500 C 17 10.333, 17.889 11, 19 11 C 20.111 11, 21 10.333, 21 9.500 C 21 8.667, 20.111 8, 19 8 C 17.889 8, 17 8.667, 17 9.500 M 3 16.500 C 3 19.333, 3.381 20, 5 20 C 6.619 20, 7 19.333, 7 16.500 C 7 13.667, 6.619 13, 5 13 C 3.381 13, 3 13.667, 3 16.500 M 9 16.500 C 9 19.722, 9.238 20, 12 20 C 14.762 20, 15 19.722, 15 16.500 C 15 13.278, 14.762 13, 12 13 C 9.238 13, 9 13.278, 9 16.500 M 17 16.500 C 17 19.333, 17.381 20, 19 20 C 20.619 20, 21 19.333, 21 16.500 C 21 13.667, 20.619 13, 19 13 C 17.381 13, 17 13.667, 17 16.500" stroke="none" fill="#000000" fill-rule="evenodd"/>
</svg>