<svg xmlns="http://www.w3.org/2000/svg" width="24" height="24" viewBox="0 0 24 24" version="1.1">
	<path d="M 11 2 C 11 3.100, 11.450 4, 12 4 C 12.550 4, 13 3.100, 13 2 C 13 0.900, 12.550 0, 12 0 C 11.450 0, 11 0.900, 11 2 M 3 3.878 C 3 5.181, 5.583 7.084, 6.333 6.333 C 7.084 5.583, 5.181 3, 3.878 3 C 3.395 3, 3 3.395, 3 3.878 M 18.131 4.342 C 17.519 5.080, 17.310 5.976, 17.667 6.333 C 18.417 7.084, 21 5.181, 21 3.878 C 21 2.561, 19.393 2.821, 18.131 4.342 M 7.655 7.829 C 4.067 11.793, 6.825 18, 12.174 18 C 17.295 18, 19.966 11.089, 16.171 7.655 C 13.756 5.469, 9.716 5.552, 7.655 7.829 M 9.040 9.452 C 7.485 11.325, 8.028 13.989, 10.250 15.388 C 13.715 17.570, 17.617 12.653, 14.960 9.452 C 13.416 7.591, 10.584 7.591, 9.040 9.452 M 0 12 C 0 12.550, 0.900 13, 2 13 C 3.100 13, 4 12.550, 4 12 C 4 11.450, 3.100 11, 2 11 C 0.900 11, 0 11.450, 0 12 M 20 12 C 20 12.550, 20.900 13, 22 13 C 23.100 13, 24 12.550, 24 12 C 24 11.450, 23.100 11, 22 11 C 20.900 11, 20 11.450, 20 12 M 3.971 18.535 C 2.234 20.628, 3.682 21.746, 5.620 19.809 C 6.555 18.874, 6.794 17.991, 6.209 17.629 C 5.669 17.295, 4.662 17.703, 3.971 18.535 M 17.629 17.791 C 16.904 18.964, 19.756 21.578, 20.715 20.619 C 21.081 20.252, 20.673 19.245, 19.809 18.380 C 18.874 17.445, 17.991 17.206, 17.629 17.791 M 11 22 C 11 23.100, 11.450 24, 12 24 C 12.550 24, 13 23.100, 13 22 C 13 20.900, 12.550 20, 12 20 C 11.450 20, 11 20.900, 11 22" stroke="none" fill="black" fill-rule="evenodd"/>
</svg>