<svg xmlns="http://www.w3.org/2000/svg" width="24" height="24" viewBox="0 0 24 24" version="1.1">
	<path d="M 12 3 C 11.450 3, 11 3.450, 11 4 C 11 4.550, 11.450 5, 12 5 C 12.550 5, 13 4.550, 13 4 C 13 3.450, 12.550 3, 12 3 M 6.559 5 C 6.316 5, 5.840 5.450, 5.500 6 C 5.160 6.550, 5.359 7, 5.941 7 C 6.523 7, 7 6.550, 7 6 C 7 5.450, 6.802 5, 6.559 5 M 17.441 5 C 17.198 5, 17 5.450, 17 6 C 17 6.550, 17.477 7, 18.059 7 C 18.641 7, 18.840 6.550, 18.500 6 C 18.160 5.450, 17.684 5, 17.441 5 M 12 7 C 10.979 7, 9.436 7.707, 8.571 8.571 C 7.707 9.436, 7 10.979, 7 12 C 7 13.021, 7.707 14.564, 8.571 15.429 C 9.436 16.293, 10.979 17, 12 17 C 13.021 17, 14.564 16.293, 15.429 15.429 C 16.293 14.564, 17 13.021, 17 12 C 17 10.979, 16.293 9.436, 15.429 8.571 C 14.564 7.707, 13.021 7, 12 7 M 12 9 C 11.585 9, 10.666 9.698, 9.958 10.550 C 8.896 11.831, 8.961 12.390, 10.336 13.764 C 11.888 15.317, 12.112 15.317, 13.664 13.764 C 15.039 12.390, 15.104 11.831, 14.042 10.550 C 13.334 9.698, 12.415 9, 12 9 M 4 11 C 3.450 11, 3 11.450, 3 12 C 3 12.550, 3.450 13, 4 13 C 4.550 13, 5 12.550, 5 12 C 5 11.450, 4.550 11, 4 11 M 20 11 C 19.450 11, 19 11.450, 19 12 C 19 12.550, 19.450 13, 20 13 C 20.550 13, 21 12.550, 21 12 C 21 11.450, 20.550 11, 20 11 M 5.941 17 C 5.359 17, 5.160 17.450, 5.500 18 C 5.840 18.550, 6.316 19, 6.559 19 C 6.802 19, 7 18.550, 7 18 C 7 17.450, 6.523 17, 5.941 17 M 18 17 C 17.450 17, 17 17.477, 17 18.059 C 17 18.641, 17.450 18.840, 18 18.500 C 18.550 18.160, 19 17.684, 19 17.441 C 19 17.198, 18.550 17, 18 17 M 12 19 C 11.450 19, 11 19.450, 11 20 C 11 20.550, 11.450 21, 12 21 C 12.550 21, 13 20.550, 13 20 C 13 19.450, 12.550 19, 12 19" stroke="none" fill="black" fill-rule="evenodd"/>
</svg>