<svg xmlns="http://www.w3.org/2000/svg" width="24" height="24" viewBox="0 0 24 24" version="1.1">
	<path d="M 12 0 C 11.450 0, 11 0.900, 11 2 C 11 3.100, 11.450 4, 12 4 C 12.550 4, 13 3.100, 13 2 C 13 0.900, 12.550 0, 12 0 M 3.878 3 C 3.395 3, 3 3.395, 3 3.878 C 3 4.360, 3.604 5.256, 4.342 5.869 C 5.080 6.481, 5.976 6.690, 6.333 6.333 C 6.690 5.976, 6.481 5.080, 5.869 4.342 C 5.256 3.604, 4.360 3, 3.878 3 M 20.122 3 C 19.640 3, 18.744 3.604, 18.131 4.342 C 17.519 5.080, 17.310 5.976, 17.667 6.333 C 18.024 6.690, 18.920 6.481, 19.658 5.869 C 20.396 5.256, 21 4.360, 21 3.878 C 21 3.395, 20.605 3, 20.122 3 M 11.826 6 C 10.442 6, 8.565 6.823, 7.655 7.829 C 6.745 8.835, 6 10.790, 6 12.174 C 6 13.558, 6.823 15.435, 7.829 16.345 C 8.835 17.255, 10.790 18, 12.174 18 C 13.558 18, 15.435 17.177, 16.345 16.171 C 17.255 15.165, 18 13.210, 18 11.826 C 18 10.442, 17.177 8.565, 16.171 7.655 C 15.165 6.745, 13.210 6, 11.826 6 M 12 8 C 11.035 8, 9.703 8.653, 9.040 9.452 C 8.377 10.251, 7.985 11.665, 8.167 12.595 C 8.350 13.525, 9.287 14.782, 10.250 15.388 C 11.525 16.190, 12.475 16.190, 13.750 15.388 C 14.713 14.782, 15.650 13.525, 15.833 12.595 C 16.015 11.665, 15.623 10.251, 14.960 9.452 C 14.297 8.653, 12.965 8, 12 8 M 2 11 C 0.900 11, 0 11.450, 0 12 C 0 12.550, 0.900 13, 2 13 C 3.100 13, 4 12.550, 4 12 C 4 11.450, 3.100 11, 2 11 M 22 11 C 20.900 11, 20 11.450, 20 12 C 20 12.550, 20.900 13, 22 13 C 23.100 13, 24 12.550, 24 12 C 24 11.450, 23.100 11, 22 11 M 6.209 17.629 C 5.669 17.295, 4.662 17.703, 3.971 18.535 C 3.280 19.367, 3.015 20.348, 3.381 20.715 C 3.748 21.081, 4.755 20.673, 5.620 19.809 C 6.555 18.874, 6.794 17.991, 6.209 17.629 M 19.809 18.380 C 18.874 17.445, 17.991 17.206, 17.629 17.791 C 17.295 18.331, 17.703 19.338, 18.535 20.029 C 19.367 20.720, 20.348 20.985, 20.715 20.619 C 21.081 20.252, 20.673 19.245, 19.809 18.380 M 12 20 C 11.450 20, 11 20.900, 11 22 C 11 23.100, 11.450 24, 12 24 C 12.550 24, 13 23.100, 13 22 C 13 20.900, 12.550 20, 12 20" stroke="none" fill="black" fill-rule="evenodd"/>
</svg>