<svg viewBox="0 0 24 24" xmlns="http://www.w3.org/2000/svg" fill="none" stroke="#000000" stroke-width="2" stroke-linecap="round" stroke-linejoin="round"><path d="M11.695 1.057 C 11.466 1.129,11.256 1.299,11.128 1.516 L 11.020 1.700 11.020 5.003 L 11.020 8.306 11.141 8.503 C 11.543 9.156,12.457 9.156,12.859 8.503 L 12.980 8.306 12.980 5.003 L 12.980 1.700 12.872 1.516 C 12.628 1.101,12.150 0.915,11.695 1.057 M4.780 3.947 C 4.387 4.037,4.127 4.251,4.001 4.585 C 3.903 4.848,3.900 4.959,3.984 5.243 C 4.045 5.449,4.122 5.534,5.574 6.993 C 6.413 7.836,7.176 8.571,7.268 8.626 C 7.728 8.898,8.347 8.728,8.627 8.252 C 8.724 8.087,8.740 8.017,8.740 7.760 C 8.740 7.506,8.723 7.432,8.633 7.280 C 8.489 7.037,5.541 4.111,5.360 4.031 C 5.204 3.962,4.903 3.918,4.780 3.947 M18.850 3.961 C 18.757 3.980,18.604 4.049,18.510 4.115 C 18.261 4.289,15.422 7.155,15.335 7.320 C 15.283 7.419,15.261 7.548,15.261 7.760 C 15.260 8.018,15.276 8.087,15.373 8.252 C 15.653 8.728,16.272 8.898,16.732 8.626 C 16.824 8.571,17.587 7.836,18.426 6.993 C 19.878 5.534,19.955 5.449,20.016 5.243 C 20.095 4.973,20.096 4.907,20.018 4.645 C 19.872 4.156,19.363 3.858,18.850 3.961 M1.695 11.057 C 1.466 11.129,1.256 11.299,1.128 11.516 C 1.037 11.672,1.020 11.746,1.020 12.000 C 1.020 12.256,1.036 12.328,1.131 12.489 C 1.256 12.702,1.449 12.864,1.670 12.943 C 1.891 13.022,8.109 13.022,8.330 12.943 C 8.551 12.864,8.744 12.702,8.869 12.489 C 8.964 12.328,8.980 12.256,8.980 12.000 C 8.980 11.746,8.963 11.672,8.872 11.516 C 8.740 11.293,8.533 11.128,8.290 11.055 C 8.030 10.977,1.945 10.979,1.695 11.057 M15.695 11.057 C 15.466 11.129,15.256 11.299,15.128 11.516 C 15.037 11.672,15.020 11.746,15.020 12.000 C 15.020 12.256,15.036 12.328,15.131 12.489 C 15.256 12.702,15.449 12.864,15.670 12.943 C 15.891 13.022,22.109 13.022,22.330 12.943 C 22.551 12.864,22.744 12.702,22.869 12.489 C 22.964 12.328,22.980 12.256,22.980 12.000 C 22.980 11.746,22.963 11.672,22.872 11.516 C 22.740 11.293,22.533 11.128,22.290 11.055 C 22.030 10.977,15.945 10.979,15.695 11.057 M7.420 15.307 C 7.237 15.362,7.092 15.496,5.709 16.873 C 4.878 17.701,4.153 18.443,4.098 18.523 C 3.832 18.906,3.889 19.419,4.235 19.766 C 4.368 19.899,4.481 19.969,4.637 20.016 C 4.908 20.096,4.972 20.096,5.243 20.016 C 5.449 19.955,5.534 19.878,6.993 18.426 C 7.836 17.587,8.574 16.819,8.633 16.720 C 8.723 16.568,8.740 16.494,8.740 16.240 C 8.740 15.986,8.723 15.912,8.632 15.756 C 8.500 15.533,8.293 15.368,8.050 15.295 C 7.822 15.226,7.674 15.229,7.420 15.307 M15.935 15.297 C 15.706 15.369,15.496 15.539,15.368 15.756 C 15.277 15.912,15.260 15.986,15.260 16.240 C 15.260 16.494,15.277 16.568,15.367 16.720 C 15.426 16.819,16.164 17.587,17.007 18.426 C 18.466 19.878,18.551 19.955,18.757 20.016 C 19.028 20.096,19.092 20.096,19.363 20.016 C 19.836 19.875,20.146 19.361,20.047 18.883 C 20.022 18.764,19.957 18.602,19.902 18.523 C 19.847 18.443,19.122 17.701,18.291 16.873 C 16.853 15.441,16.769 15.365,16.563 15.304 C 16.306 15.228,16.159 15.227,15.935 15.297 M11.695 17.057 C 11.466 17.129,11.256 17.299,11.128 17.516 L 11.020 17.700 11.020 20.003 L 11.020 22.306 11.141 22.503 C 11.209 22.613,11.346 22.756,11.452 22.828 C 11.923 23.144,12.554 22.999,12.859 22.503 L 12.980 22.306 12.980 20.003 L 12.980 17.700 12.872 17.516 C 12.628 17.101,12.150 16.915,11.695 17.057 " stroke="none" fill-rule="evenodd" fill="black"></path></svg>