<svg xmlns="http://www.w3.org/2000/svg" width="24" height="24" viewBox="0 0 24 24" version="1.1">
	<path d="M 11 5 C 11 7.200, 11.450 9, 12 9 C 12.550 9, 13 7.200, 13 5 C 13 2.800, 12.550 1, 12 1 C 11.450 1, 11 2.800, 11 5 M 4 4.845 C 4 6.185, 7.591 9.076, 8.333 8.333 C 8.702 7.964, 8.259 6.838, 7.347 5.831 C 5.598 3.899, 4 3.428, 4 4.845 M 16.653 5.831 C 15.741 6.838, 15.298 7.964, 15.667 8.333 C 16.409 9.076, 20 6.185, 20 4.845 C 20 3.428, 18.402 3.899, 16.653 5.831 M 1 12 C 1 12.550, 2.800 13, 5 13 C 7.200 13, 9 12.550, 9 12 C 9 11.450, 7.200 11, 5 11 C 2.800 11, 1 11.450, 1 12 M 15 12 C 15 12.550, 16.800 13, 19 13 C 21.200 13, 23 12.550, 23 12 C 23 11.450, 21.200 11, 19 11 C 16.800 11, 15 11.450, 15 12 M 5.473 17.030 C 3.026 19.734, 4.537 20.907, 7.129 18.316 C 8.284 17.161, 8.774 15.978, 8.235 15.645 C 7.703 15.316, 6.460 15.939, 5.473 17.030 M 15.645 15.765 C 14.913 16.949, 18.737 20.596, 19.701 19.633 C 20.079 19.254, 19.456 18.012, 18.316 16.871 C 17.161 15.716, 15.978 15.226, 15.645 15.765 M 11 20 C 11 21.650, 11.450 23, 12 23 C 12.550 23, 13 21.650, 13 20 C 13 18.350, 12.550 17, 12 17 C 11.450 17, 11 18.350, 11 20" stroke="none" fill="black" fill-rule="evenodd"/>
</svg>