<svg xmlns="http://www.w3.org/2000/svg" width="24" height="24" viewBox="0 0 24 24" version="1.1">
	<path d="M 12 1 C 11.642 1, 10.293 2.123, 9.004 3.496 C 7.714 4.869, 6.950 6.283, 7.305 6.639 C 7.661 6.994, 8.638 6.716, 9.476 6.020 C 10.775 4.941, 11 5.141, 11 7.378 C 11 8.820, 11.450 10, 12 10 C 12.550 10, 13 8.820, 13 7.378 C 13 5.141, 13.225 4.941, 14.524 6.020 C 15.362 6.716, 16.339 6.994, 16.695 6.639 C 17.050 6.283, 16.286 4.869, 14.996 3.496 C 13.707 2.123, 12.358 1, 12 1 M 5.578 10.065 C 4.750 9.378, 3.942 9.285, 3.600 9.838 C 3.282 10.353, 3.652 11.296, 4.422 11.935 C 5.250 12.622, 6.058 12.715, 6.400 12.162 C 6.718 11.647, 6.348 10.704, 5.578 10.065 M 20.162 9.600 C 19.647 9.282, 18.704 9.652, 18.065 10.422 C 17.378 11.250, 17.285 12.058, 17.838 12.400 C 18.353 12.718, 19.296 12.348, 19.935 11.578 C 20.622 10.750, 20.715 9.942, 20.162 9.600 M 11.826 12 C 10.442 12, 8.565 12.823, 7.655 13.829 C 6.745 14.835, 6 16.410, 6 17.329 C 6 18.248, 6.343 19, 6.763 19 C 7.182 19, 7.970 17.988, 8.513 16.750 C 9.158 15.280, 10.367 14.500, 12 14.500 C 13.633 14.500, 14.842 15.280, 15.487 16.750 C 16.030 17.988, 16.818 19, 17.237 19 C 17.657 19, 18 18.170, 18 17.155 C 18 16.140, 17.177 14.565, 16.171 13.655 C 15.165 12.745, 13.210 12, 11.826 12 M 2 17 C 0.900 17, 0 17.450, 0 18 C 0 18.550, 0.900 19, 2 19 C 3.100 19, 4 18.550, 4 18 C 4 17.450, 3.100 17, 2 17 M 22 17 C 20.900 17, 20 17.450, 20 18 C 20 18.550, 20.900 19, 22 19 C 23.100 19, 24 18.550, 24 18 C 24 17.450, 23.100 17, 22 17 M 12.502 20.807 C 5.270 20.985, 0 21.525, 0 22.088 C 0 22.681, 4.750 22.952, 12.168 22.781 C 19.133 22.620, 24.479 22.072, 24.670 21.500 C 24.885 20.858, 20.526 20.610, 12.502 20.807" stroke="none" fill="black" fill-rule="evenodd"/>
</svg>