<svg xmlns="http://www.w3.org/2000/svg" width="24" height="24" viewBox="0 0 24 24" version="1.1">
	<path d="M 6 10.122 C 6 16.390, 5.817 17.093, 4.476 15.980 C 1.701 13.677, 1.555 16.010, 4.303 18.758 L 7 21.455 9.697 18.758 C 12.445 16.010, 12.299 13.677, 9.524 15.980 C 8.183 17.093, 8 16.390, 8 10.122 C 8 6.041, 7.573 3, 7 3 C 6.427 3, 6 6.041, 6 10.122 M 14.004 5.496 C 11.517 8.143, 11.895 10.162, 14.476 8.020 C 15.817 6.907, 16 7.610, 16 13.878 C 16 17.959, 16.427 21, 17 21 C 17.573 21, 18 17.959, 18 13.878 C 18 7.610, 18.183 6.907, 19.524 8.020 C 22.105 10.162, 22.483 8.143, 19.996 5.496 C 17.101 2.414, 16.899 2.414, 14.004 5.496" stroke="none" fill="black" fill-rule="evenodd"/>
</svg>