<svg xmlns="http://www.w3.org/2000/svg" width="24" height="24" viewBox="0 0 24 24" version="1.1">
	<path d="M 8.174 2 C 7.720 2, 6.280 3.137, 4.974 4.527 L 2.600 7.055 5.270 9.724 C 6.738 11.193, 8.242 12.091, 8.612 11.721 C 8.982 11.351, 8.716 10.362, 8.020 9.524 C 6.907 8.183, 7.610 8, 13.878 8 C 17.959 8, 21 7.573, 21 7 C 21 6.426, 17.933 6, 13.800 6 C 8.200 6, 6.867 5.733, 7.800 4.800 C 8.460 4.140, 9 3.240, 9 2.800 C 9 2.360, 8.628 2, 8.174 2 M 15.826 12 C 15.372 12, 15 12.360, 15 12.800 C 15 13.240, 15.540 14.140, 16.200 14.800 C 17.133 15.733, 15.800 16, 10.200 16 C 6.067 16, 3 16.426, 3 17 C 3 17.573, 6.041 18, 10.122 18 C 16.390 18, 17.093 18.183, 15.980 19.524 C 15.284 20.362, 15.018 21.351, 15.388 21.721 C 15.758 22.091, 17.262 21.193, 18.730 19.724 L 21.400 17.055 19.026 14.527 C 17.720 13.137, 16.280 12, 15.826 12" stroke="none" fill="black" fill-rule="evenodd"/>
</svg>