<svg xmlns="http://www.w3.org/2000/svg" width="24" height="24" viewBox="0 0 24 24" version="1.1">
	<path d="M 4.974 4.527 L 2.600 7.055 5.270 9.724 C 7.998 12.452, 10.310 12.284, 8.020 9.524 C 6.907 8.183, 7.610 8, 13.878 8 C 17.959 8, 21 7.573, 21 7 C 21 6.426, 17.933 6, 13.800 6 C 8.200 6, 6.867 5.733, 7.800 4.800 C 8.460 4.140, 9 3.240, 9 2.800 C 9 1.292, 7.348 2.001, 4.974 4.527 M 15 12.800 C 15 13.240, 15.540 14.140, 16.200 14.800 C 17.133 15.733, 15.800 16, 10.200 16 C 6.067 16, 3 16.426, 3 17 C 3 17.573, 6.041 18, 10.122 18 C 16.390 18, 17.093 18.183, 15.980 19.524 C 13.690 22.284, 16.002 22.452, 18.730 19.724 L 21.400 17.055 19.026 14.527 C 16.652 12.001, 15 11.292, 15 12.800" stroke="none" fill="black" fill-rule="evenodd"/>
</svg>