<svg xmlns="http://www.w3.org/2000/svg" width="24" height="24" viewBox="0 0 24 24" version="1.1">
	<path d="M 7 3 C 6.427 3, 6 6.041, 6 10.122 C 6 16.390, 5.817 17.093, 4.476 15.980 C 3.638 15.284, 2.649 15.018, 2.279 15.388 C 1.909 15.758, 2.820 17.274, 4.303 18.758 L 7 21.455 9.697 18.758 C 11.180 17.274, 12.091 15.758, 11.721 15.388 C 11.351 15.018, 10.362 15.284, 9.524 15.980 C 8.183 17.093, 8 16.390, 8 10.122 C 8 6.041, 7.573 3, 7 3 M 17 3 C 16.642 3, 15.293 4.123, 14.004 5.496 C 12.714 6.869, 11.950 8.283, 12.305 8.639 C 12.661 8.994, 13.638 8.716, 14.476 8.020 C 15.817 6.907, 16 7.610, 16 13.878 C 16 17.959, 16.427 21, 17 21 C 17.573 21, 18 17.959, 18 13.878 C 18 7.610, 18.183 6.907, 19.524 8.020 C 20.362 8.716, 21.339 8.994, 21.695 8.639 C 22.050 8.283, 21.286 6.869, 19.996 5.496 C 18.707 4.123, 17.358 3, 17 3" stroke="none" fill="black" fill-rule="evenodd"/>
</svg>