<svg xmlns="http://www.w3.org/2000/svg" width="24" height="24" viewBox="0 0 24 24" version="1.1">
	<path d="M 17.252 5.181 C 15.602 4.946, 14.743 5.545, 14.026 7.431 C 13.489 8.844, 12.798 10, 12.490 10 C 12.182 10, 10.806 9.264, 9.434 8.365 C 8.061 7.465, 6.614 7.054, 6.219 7.451 C 5.823 7.847, 6.495 8.979, 7.711 9.965 L 9.921 11.757 6.018 12.381 C 3.871 12.724, 1.819 13.484, 1.457 14.069 C 1.096 14.654, 0.997 15.330, 1.238 15.571 C 1.479 15.812, 3.085 15.518, 4.808 14.917 C 7.077 14.126, 8.860 14.129, 11.279 14.927 C 13.718 15.732, 15.479 15.729, 17.809 14.917 C 19.564 14.305, 21 13.350, 21 12.794 C 21 12.192, 19.894 12.061, 18.269 12.469 C 16.766 12.846, 15.304 13.173, 15.019 13.196 C 14.733 13.218, 13.600 13.139, 12.500 13.020 C 11.381 12.899, 12.482 12.275, 15 11.604 C 18.784 10.595, 19.500 10.014, 19.500 7.952 C 19.500 6.171, 18.885 5.413, 17.252 5.181 M 17 7 C 16.450 7, 16 7.450, 16 8 C 16 8.550, 16.450 9, 17 9 C 17.550 9, 18 8.550, 18 8 C 18 7.450, 17.550 7, 17 7 M 9.500 17.566 C 7.300 17.268, 4.487 17.454, 3.250 17.980 C 2.012 18.506, 1 19.448, 1 20.075 C 1 20.706, 1.710 20.941, 2.593 20.603 C 3.469 20.267, 5.174 19.743, 6.382 19.440 C 7.590 19.137, 9.863 19.378, 11.433 19.975 C 13.496 20.759, 15.219 20.753, 17.644 19.952 C 19.490 19.343, 21 18.381, 21 17.814 C 21 17.178, 19.946 17.064, 18.250 17.517 C 16.738 17.921, 15.050 18.219, 14.500 18.179 C 13.950 18.139, 11.700 17.863, 9.500 17.566" stroke="none" fill="black" fill-rule="evenodd"/>
</svg>