<svg viewBox="0 0 24 24" xmlns="http://www.w3.org/2000/svg" fill="none" stroke="#000000" stroke-width="2" stroke-linecap="round" stroke-linejoin="round"><path d="M16.499 5.040 C 15.363 5.246,14.460 6.049,14.114 7.160 C 14.036 7.412,14.021 7.547,14.021 8.000 C 14.021 8.563,14.091 8.910,14.282 9.283 L 14.355 9.428 12.868 9.675 C 12.049 9.810,11.346 9.921,11.304 9.921 C 11.262 9.920,10.376 9.282,9.336 8.502 C 7.954 7.467,7.397 7.072,7.272 7.038 C 6.595 6.855,5.940 7.411,6.012 8.106 C 6.058 8.546,6.041 8.531,8.393 10.294 C 10.514 11.883,10.691 12.000,10.976 12.000 C 11.034 12.000,12.427 11.777,14.071 11.504 C 15.715 11.231,17.186 10.995,17.339 10.979 C 18.505 10.863,19.522 10.009,19.886 8.840 C 20.021 8.406,20.021 7.594,19.886 7.160 C 19.581 6.179,18.810 5.407,17.861 5.129 C 17.500 5.023,16.832 4.980,16.499 5.040 M17.310 7.061 C 17.688 7.173,18.000 7.598,18.000 8.001 C 18.000 8.331,17.784 8.696,17.484 8.872 C 17.328 8.963,17.254 8.980,17.000 8.980 C 16.746 8.980,16.672 8.963,16.516 8.872 C 15.932 8.528,15.831 7.775,16.307 7.299 C 16.582 7.024,16.918 6.944,17.310 7.061 M7.380 12.024 C 5.852 12.178,4.490 12.585,2.900 13.361 C 2.110 13.746,1.483 14.117,1.282 14.318 C 0.637 14.963,1.190 16.082,2.108 15.988 C 2.288 15.969,2.414 15.913,2.801 15.681 C 3.644 15.175,4.878 14.624,5.741 14.368 C 7.335 13.894,8.607 13.892,10.227 14.360 C 11.089 14.609,12.338 15.164,13.200 15.682 C 13.955 16.135,13.571 16.202,17.297 14.961 C 20.726 13.818,20.686 13.834,20.874 13.469 C 21.209 12.816,20.806 12.088,20.066 12.012 C 19.868 11.992,19.658 12.055,16.991 12.943 L 14.128 13.896 13.894 13.765 C 13.433 13.508,12.450 13.046,11.900 12.828 C 11.009 12.475,10.151 12.239,9.256 12.101 C 8.866 12.040,7.693 11.992,7.380 12.024 M7.380 17.024 C 5.852 17.178,4.490 17.585,2.900 18.361 C 2.110 18.746,1.483 19.117,1.282 19.318 C 0.637 19.963,1.190 21.082,2.108 20.988 C 2.288 20.969,2.414 20.913,2.801 20.681 C 3.644 20.175,4.878 19.624,5.741 19.368 C 7.335 18.894,8.607 18.892,10.227 19.360 C 11.089 19.609,12.338 20.164,13.200 20.682 C 13.955 21.135,13.571 21.202,17.297 19.961 C 20.726 18.818,20.686 18.834,20.874 18.469 C 21.209 17.816,20.806 17.088,20.066 17.012 C 19.868 16.992,19.658 17.055,16.991 17.943 L 14.128 18.896 13.894 18.765 C 13.433 18.508,12.450 18.046,11.900 17.828 C 11.009 17.475,10.151 17.239,9.256 17.101 C 8.866 17.040,7.693 16.992,7.380 17.024 " stroke="none" fill-rule="evenodd" fill="black"></path></svg>