<svg xmlns="http://www.w3.org/2000/svg" width="24" height="24" viewBox="0 0 24 24" version="1.1">
	<path d="M 14.026 7.431 C 12.875 10.459, 12.688 10.497, 9.434 8.365 C 6.230 6.266, 4.794 7.600, 7.711 9.965 L 9.921 11.757 6.018 12.381 C 2.449 12.952, 0.152 14.485, 1.238 15.571 C 1.479 15.812, 3.085 15.518, 4.808 14.917 C 7.077 14.126, 8.860 14.129, 11.279 14.927 C 13.718 15.732, 15.479 15.729, 17.809 14.917 C 21.741 13.546, 22.125 11.501, 18.269 12.469 C 14.979 13.294, 15.007 13.292, 12.500 13.020 C 11.381 12.899, 12.482 12.275, 15 11.604 C 18.784 10.595, 19.500 10.014, 19.500 7.952 C 19.500 4.337, 15.353 3.942, 14.026 7.431 M 16 8 C 16 8.550, 16.450 9, 17 9 C 17.550 9, 18 8.550, 18 8 C 18 7.450, 17.550 7, 17 7 C 16.450 7, 16 7.450, 16 8 M 3.250 17.980 C 0.725 19.052, 0.097 21.561, 2.593 20.603 C 6.441 19.126, 8.766 18.961, 11.433 19.975 C 13.496 20.759, 15.219 20.753, 17.644 19.952 C 21.719 18.608, 22.256 16.448, 18.250 17.517 C 15.202 18.331, 15.154 18.331, 9.500 17.566 C 7.300 17.268, 4.487 17.454, 3.250 17.980" stroke="none" fill="#000000" fill-rule="evenodd"/>
</svg>