<svg xmlns="http://www.w3.org/2000/svg" width="24" height="24" viewBox="0 0 24 24" version="1.1">
	<path d="M 4.284 2 C 2.572 2, 2 2.572, 2 4.284 C 2 5.724, 4.003 8.547, 7.417 11.918 C 10.531 14.994, 12.612 17.849, 12.310 18.634 C 12.022 19.385, 12.194 20, 12.693 20 C 13.192 20, 14.101 19.499, 14.713 18.887 C 15.325 18.275, 16.315 18.077, 16.913 18.446 C 17.511 18.816, 18 19.766, 18 20.559 C 18 21.352, 18.360 22, 18.800 22 C 19.240 22, 20.140 21.460, 20.800 20.800 C 21.460 20.140, 22 19.240, 22 18.800 C 22 18.360, 21.352 18, 20.559 18 C 19.766 18, 18.816 17.511, 18.446 16.913 C 18.077 16.315, 18.275 15.325, 18.887 14.713 C 19.499 14.101, 20 13.192, 20 12.693 C 20 12.194, 19.385 12.022, 18.634 12.310 C 17.849 12.612, 14.994 10.531, 11.918 7.417 C 8.547 4.003, 5.724 2, 4.284 2 M 4.784 4 C 4.353 4, 4 4.353, 4 4.784 C 4 5.215, 6.388 7.927, 9.308 10.810 C 12.227 13.693, 14.938 15.728, 15.333 15.333 C 15.728 14.938, 13.693 12.227, 10.810 9.308 C 7.927 6.388, 5.215 4, 4.784 4" stroke="none" fill="black" fill-rule="evenodd"/>
</svg>