<svg xmlns="http://www.w3.org/2000/svg" width="24" height="24" viewBox="0 0 24 24" version="1.1">
	<path d="M 7.250 3.259 C 3.038 5.375, 3 5.442, 3 10.797 C 3 15.608, 3.372 16.572, 6.400 19.600 C 8.270 21.470, 10.790 23, 12 23 C 13.210 23, 15.730 21.470, 17.600 19.600 C 20.650 16.550, 21 15.629, 21 10.647 L 21 5.094 16.373 3.047 C 13.828 1.921, 11.690 1.028, 11.623 1.062 C 11.555 1.096, 9.588 2.085, 7.250 3.259 M 8.250 4.810 C 5.311 6.212, 5 6.782, 5 10.757 C 5 14.283, 5.579 15.733, 7.923 18.077 C 11.565 21.718, 12.435 21.718, 16.077 18.077 C 18.420 15.734, 19 14.283, 19 10.762 C 19 6.720, 18.719 6.236, 15.466 4.685 C 13.522 3.758, 11.835 3.058, 11.716 3.130 C 11.597 3.201, 10.038 3.958, 8.250 4.810 M 11 8.500 C 11 10.333, 10.467 11, 9 11 C 7.900 11, 7 11.450, 7 12 C 7 12.550, 7.900 13, 9 13 C 10.467 13, 11 13.667, 11 15.500 C 11 16.875, 11.450 18, 12 18 C 12.550 18, 13 16.875, 13 15.500 C 13 13.667, 13.533 13, 15 13 C 16.100 13, 17 12.550, 17 12 C 17 11.450, 16.100 11, 15 11 C 13.533 11, 13 10.333, 13 8.500 C 13 7.125, 12.550 6, 12 6 C 11.450 6, 11 7.125, 11 8.500" stroke="none" fill="black" fill-rule="evenodd"/>
</svg>