<svg xmlns="http://www.w3.org/2000/svg" width="24" height="24" viewBox="0 0 24 24" version="1.1">
	<path d="M 2 4.284 C 2 5.724, 4.003 8.547, 7.417 11.918 C 10.531 14.994, 12.612 17.849, 12.310 18.634 C 11.679 20.280, 13.164 20.436, 14.713 18.887 C 16.047 17.553, 18 18.546, 18 20.559 C 18 22.313, 19.185 22.415, 20.800 20.800 C 22.415 19.185, 22.313 18, 20.559 18 C 18.546 18, 17.553 16.047, 18.887 14.713 C 20.436 13.164, 20.280 11.679, 18.634 12.310 C 17.849 12.612, 14.994 10.531, 11.918 7.417 C 6.042 1.467, 2 0.190, 2 4.284 M 4 4.784 C 4 6.203, 14.598 16.068, 15.333 15.333 C 15.728 14.938, 13.693 12.227, 10.810 9.308 C 5.818 4.253, 4 3.045, 4 4.784" stroke="none" fill="#000000" fill-rule="evenodd"/>
</svg>