<svg xmlns="http://www.w3.org/2000/svg" width="24" height="24" viewBox="0 0 24 24" version="1.1">
	<path d="M 17.579 1 C 17.143 1, 17.067 1.732, 17.410 2.627 C 17.754 3.521, 17.513 4.882, 16.875 5.651 C 16.237 6.419, 15.993 7.327, 16.333 7.667 C 16.673 8.007, 17.581 7.763, 18.349 7.125 C 19.118 6.487, 20.479 6.246, 21.373 6.590 C 22.268 6.933, 23 6.794, 23 6.281 C 23 5.768, 21.958 4.370, 20.686 3.174 C 19.413 1.978, 18.014 1, 17.579 1 M 15.219 4 C 14.789 4, 11.864 6.601, 8.719 9.779 C 5.553 12.978, 3 16.460, 3 17.579 C 3 18.691, 2.468 20.132, 1.817 20.783 C 1.166 21.434, 0.948 22.282, 1.333 22.667 C 1.718 23.052, 2.566 22.834, 3.217 22.183 C 3.867 21.533, 5.337 21, 6.481 21 C 7.698 21, 11.019 18.518, 14.474 15.026 C 17.725 11.741, 20.069 8.736, 19.682 8.349 C 19.296 7.962, 17.631 8.938, 15.983 10.516 C 13.671 12.731, 12.716 13.116, 11.800 12.200 C 10.884 11.284, 11.228 10.371, 13.307 8.202 C 14.788 6.656, 16 5.078, 16 4.695 C 16 4.313, 15.648 4, 15.219 4 M 9.096 13 C 8.664 13, 7.486 13.911, 6.479 15.024 C 5.065 16.586, 4.918 17.318, 5.835 18.235 C 6.751 19.151, 7.504 18.941, 9.132 17.312 C 10.293 16.151, 10.937 14.706, 10.562 14.101 C 10.188 13.495, 9.528 13, 9.096 13" stroke="none" fill="black" fill-rule="evenodd"/>
</svg>