<svg xmlns="http://www.w3.org/2000/svg" width="24" height="24" viewBox="0 0 24 24" version="1.1">
	<path d="M 17.410 2.627 C 17.754 3.521, 17.513 4.882, 16.875 5.651 C 15.368 7.467, 16.533 8.632, 18.349 7.125 C 19.118 6.487, 20.479 6.246, 21.373 6.590 C 23.731 7.494, 23.368 5.694, 20.686 3.174 C 17.942 0.597, 16.542 0.363, 17.410 2.627 M 8.719 9.779 C 5.553 12.978, 3 16.460, 3 17.579 C 3 18.691, 2.468 20.132, 1.817 20.783 C 1.166 21.434, 0.948 22.282, 1.333 22.667 C 1.718 23.052, 2.566 22.834, 3.217 22.183 C 3.867 21.533, 5.337 21, 6.481 21 C 8.803 21, 20.819 9.485, 19.682 8.349 C 19.296 7.962, 17.631 8.938, 15.983 10.516 C 13.671 12.731, 12.716 13.116, 11.800 12.200 C 10.884 11.284, 11.228 10.371, 13.307 8.202 C 14.788 6.656, 16 5.078, 16 4.695 C 16 3.025, 14.066 4.376, 8.719 9.779 M 6.479 15.024 C 5.065 16.586, 4.918 17.318, 5.835 18.235 C 6.751 19.151, 7.504 18.941, 9.132 17.312 C 10.293 16.151, 10.937 14.706, 10.562 14.101 C 9.576 12.505, 8.548 12.737, 6.479 15.024" stroke="none" fill="black" fill-rule="evenodd"/>
</svg>