<svg viewBox="0 0 24 24" xmlns="http://www.w3.org/2000/svg" fill="none" stroke="#000000" stroke-width="2" stroke-linecap="round" stroke-linejoin="round"><path d="M17.670 1.061 C 17.448 1.142,17.250 1.309,17.128 1.516 C 17.036 1.672,17.020 1.745,17.021 2.000 C 17.021 2.213,17.043 2.340,17.096 2.440 C 17.136 2.517,17.486 2.900,17.874 3.290 L 18.578 4.001 17.373 5.210 C 16.711 5.876,16.138 6.481,16.101 6.555 C 15.872 7.009,16.056 7.601,16.508 7.867 C 16.673 7.964,16.742 7.980,17.000 7.979 C 17.213 7.979,17.341 7.957,17.440 7.905 C 17.517 7.864,18.124 7.289,18.790 6.627 L 19.999 5.422 20.710 6.126 C 21.100 6.514,21.483 6.864,21.560 6.904 C 21.660 6.957,21.787 6.979,22.000 6.979 C 22.258 6.980,22.327 6.964,22.492 6.867 C 22.968 6.587,23.138 5.968,22.866 5.508 C 22.811 5.416,21.815 4.393,20.653 3.235 C 18.748 1.338,18.521 1.124,18.343 1.065 C 18.107 0.987,17.874 0.986,17.670 1.061 M14.640 4.068 C 14.483 4.121,13.780 4.808,9.127 9.455 C 6.195 12.384,3.713 14.888,3.613 15.020 C 3.386 15.320,3.195 15.695,3.074 16.082 C 2.992 16.342,2.980 16.459,2.981 17.000 C 2.983 17.597,2.988 17.635,3.116 18.010 C 3.190 18.225,3.330 18.529,3.427 18.687 L 3.604 18.974 2.386 20.197 C 1.717 20.870,1.136 21.483,1.095 21.560 C 1.043 21.659,1.021 21.787,1.021 22.000 C 1.020 22.258,1.036 22.327,1.133 22.492 C 1.263 22.714,1.502 22.901,1.736 22.965 C 1.939 23.019,2.267 22.989,2.445 22.899 C 2.519 22.862,3.129 22.285,3.800 21.616 L 5.020 20.401 5.140 20.483 C 5.365 20.636,5.783 20.833,6.082 20.926 C 6.340 21.007,6.461 21.020,6.980 21.019 C 7.616 21.018,7.787 20.986,8.300 20.772 C 8.877 20.531,8.872 20.535,14.433 14.984 C 17.542 11.880,19.810 9.585,19.873 9.480 C 19.964 9.328,19.980 9.254,19.980 9.000 C 19.980 8.746,19.963 8.672,19.872 8.516 C 19.618 8.084,19.138 7.906,18.657 8.065 C 18.478 8.125,18.210 8.380,15.730 10.855 L 12.999 13.579 11.710 12.290 L 10.420 11.000 13.126 8.290 C 14.614 6.800,15.865 5.517,15.905 5.440 C 15.957 5.341,15.979 5.212,15.979 5.000 C 15.980 4.745,15.964 4.672,15.872 4.516 C 15.617 4.083,15.122 3.903,14.640 4.068 M10.300 13.720 L 11.580 15.001 9.680 16.898 C 7.504 19.072,7.570 19.020,6.960 19.020 C 6.483 19.020,6.360 18.948,5.719 18.296 C 5.073 17.639,4.980 17.470,4.980 16.960 C 4.980 16.708,5.000 16.578,5.056 16.460 C 5.106 16.355,5.796 15.634,7.056 14.370 C 8.113 13.308,8.988 12.440,9.000 12.440 C 9.011 12.440,9.596 13.016,10.300 13.720 " stroke="none" fill-rule="evenodd" fill="black"></path></svg>