<svg xmlns="http://www.w3.org/2000/svg" width="24" height="24" viewBox="0 0 24 24" version="1.1">
	<path d="M 3.444 2.284 C 3.156 3.035, 3.051 7.891, 3.210 13.075 L 3.500 22.500 12 22.500 L 20.500 22.500 20.500 12 L 20.500 1.500 12.234 1.209 C 5.965 0.989, 3.842 1.248, 3.444 2.284 M 5 12 L 5 21 12 21 L 19 21 19 12 L 19 3 12 3 L 5 3 5 12 M 11 18 C 11 18.550, 11.450 19, 12 19 C 12.550 19, 13 18.550, 13 18 C 13 17.450, 12.550 17, 12 17 C 11.450 17, 11 17.450, 11 18" stroke="none" fill="#000000" fill-rule="evenodd"/>
</svg>