<svg xmlns="http://www.w3.org/2000/svg" width="24" height="24" viewBox="0 0 24 24" version="1.1">
	<path d="M 7.500 1.997 C 3.539 3.516, 1.500 6.943, 1.500 12.082 C 1.500 16.074, 2.001 17.456, 4.273 19.727 C 6.557 22.011, 7.919 22.500, 12 22.500 C 16.061 22.500, 17.446 22.008, 19.679 19.775 C 22.128 17.327, 22.429 16.250, 22.650 9.164 L 22.895 1.278 16.197 1.254 C 12.514 1.241, 8.600 1.575, 7.500 1.997 M 5.923 5.923 C 3.928 7.918, 3 9.848, 3 12 C 3 16.302, 7.698 21, 12 21 C 17.855 21, 22.513 14.107, 20.393 8.582 C 19.267 5.647, 18.121 6.972, 18.700 10.539 C 19.831 17.511, 11.915 21.732, 7.174 16.686 C 4.309 13.636, 4.420 9.894, 7.461 7.037 C 9.419 5.198, 10.644 4.843, 13.461 5.300 C 17.028 5.879, 18.353 4.733, 15.418 3.607 C 12.014 2.301, 8.749 3.097, 5.923 5.923 M 8.655 8.829 C 7.745 9.835, 7 11.340, 7 12.174 C 7 14.064, 10.147 17, 12.174 17 C 14.127 17, 17 13.828, 17 11.671 C 17 9.173, 15.188 9.654, 14.820 12.250 C 14.585 13.898, 13.831 14.500, 12 14.500 C 10 14.500, 9.500 14, 9.500 12 C 9.500 10.169, 10.102 9.415, 11.750 9.180 C 12.988 9.005, 14 8.442, 14 7.930 C 14 6.315, 10.380 6.923, 8.655 8.829 M 11 12 C 11 12.550, 11.450 13, 12 13 C 12.550 13, 13 12.550, 13 12 C 13 11.450, 12.550 11, 12 11 C 11.450 11, 11 11.450, 11 12" stroke="none" fill="#000000" fill-rule="evenodd"/>
</svg>