<svg xmlns="http://www.w3.org/2000/svg" width="24" height="24" viewBox="0 0 24 24" version="1.1">
	<path d="M 13.403 1.438 C 11.256 1.210, 8.600 1.416, 7.500 1.894 C 6.400 2.373, 4.600 3.764, 3.500 4.987 C 2.078 6.568, 1.500 8.618, 1.500 12.082 C 1.500 16.074, 2.001 17.456, 4.273 19.727 C 6.557 22.011, 7.919 22.500, 12 22.500 C 16.081 22.500, 17.443 22.011, 19.727 19.727 C 22.011 17.443, 22.500 16.081, 22.500 12 C 22.500 7.999, 22 6.546, 19.903 4.448 C 18.256 2.802, 15.876 1.699, 13.403 1.438 M 12 3 C 9.848 3, 7.918 3.928, 5.923 5.923 C 3.928 7.918, 3 9.848, 3 12 C 3 14.152, 3.928 16.082, 5.923 18.077 C 7.918 20.072, 9.848 21, 12 21 C 14.152 21, 16.082 20.072, 18.077 18.077 C 20.072 16.082, 21 14.152, 21 12 C 21 9.848, 20.072 7.918, 18.077 5.923 C 16.082 3.928, 14.152 3, 12 3 M 11.860 5 C 10.479 5, 8.370 6.042, 7.174 7.314 C 5.978 8.587, 5 10.759, 5 12.140 C 5 13.521, 6.042 15.630, 7.314 16.826 C 8.587 18.022, 10.759 19, 12.140 19 C 13.521 19, 15.630 17.958, 16.826 16.686 C 18.022 15.413, 19 13.241, 19 11.860 C 19 10.479, 17.958 8.370, 16.686 7.174 C 15.413 5.978, 13.241 5, 11.860 5 M 11.826 7 C 10.992 7, 9.565 7.823, 8.655 8.829 C 7.745 9.835, 7 11.340, 7 12.174 C 7 13.008, 7.823 14.435, 8.829 15.345 C 9.835 16.255, 11.340 17, 12.174 17 C 13.008 17, 14.435 16.177, 15.345 15.171 C 16.255 14.165, 17 12.660, 17 11.826 C 17 10.992, 16.177 9.565, 15.171 8.655 C 14.165 7.745, 12.660 7, 11.826 7 M 12.246 9.180 C 10.893 8.988, 9.750 9.488, 9.389 10.430 C 9.057 11.293, 9.057 12.707, 9.389 13.570 C 9.750 14.512, 10.893 15.012, 12.246 14.820 C 13.898 14.585, 14.500 13.833, 14.500 12 C 14.500 10.167, 13.898 9.415, 12.246 9.180 M 12 11 C 11.450 11, 11 11.450, 11 12 C 11 12.550, 11.450 13, 12 13 C 12.550 13, 13 12.550, 13 12 C 13 11.450, 12.550 11, 12 11" stroke="none" fill="black" fill-rule="evenodd"/>
</svg>