<svg xmlns="http://www.w3.org/2000/svg" width="24" height="24" viewBox="0 0 24 24" version="1.1">
	<path d="M 16.197 1.254 C 12.514 1.241, 8.600 1.575, 7.500 1.997 C 6.400 2.419, 4.600 3.764, 3.500 4.987 C 2.078 6.568, 1.500 8.618, 1.500 12.082 C 1.500 16.074, 2.001 17.456, 4.273 19.727 C 6.557 22.011, 7.919 22.500, 12 22.500 C 16.061 22.500, 17.446 22.008, 19.679 19.775 C 22.128 17.327, 22.429 16.250, 22.650 9.164 L 22.895 1.278 16.197 1.254 M 11.341 3 C 9.917 3, 7.592 4.254, 5.923 5.923 C 3.928 7.918, 3 9.848, 3 12 C 3 14.152, 3.928 16.082, 5.923 18.077 C 7.918 20.072, 9.848 21, 12 21 C 14.152 21, 16.082 20.072, 18.077 18.077 C 19.746 16.408, 21 14.083, 21 12.659 C 21 11.286, 20.727 9.452, 20.393 8.582 C 20.059 7.712, 19.412 7, 18.956 7 C 18.499 7, 18.384 8.593, 18.700 10.539 C 19.157 13.356, 18.802 14.581, 16.963 16.539 C 15.634 17.954, 13.524 19, 12 19 C 10.522 19, 8.387 17.976, 7.174 16.686 C 5.978 15.413, 5 13.241, 5 11.860 C 5 10.479, 6.107 8.308, 7.461 7.037 C 9.419 5.198, 10.644 4.843, 13.461 5.300 C 15.407 5.616, 17 5.501, 17 5.044 C 17 4.588, 16.288 3.941, 15.418 3.607 C 14.548 3.273, 12.714 3, 11.341 3 M 12.155 7 C 11.140 7, 9.565 7.823, 8.655 8.829 C 7.745 9.835, 7 11.340, 7 12.174 C 7 13.008, 7.823 14.435, 8.829 15.345 C 9.835 16.255, 11.340 17, 12.174 17 C 13.008 17, 14.435 16.177, 15.345 15.171 C 16.255 14.165, 17 12.590, 17 11.671 C 17 10.752, 16.581 10, 16.070 10 C 15.558 10, 14.995 11.012, 14.820 12.250 C 14.585 13.898, 13.831 14.500, 12 14.500 C 10 14.500, 9.500 14, 9.500 12 C 9.500 10.169, 10.102 9.415, 11.750 9.180 C 12.988 9.005, 14 8.442, 14 7.930 C 14 7.419, 13.170 7, 12.155 7 M 12 11 C 11.450 11, 11 11.450, 11 12 C 11 12.550, 11.450 13, 12 13 C 12.550 13, 13 12.550, 13 12 C 13 11.450, 12.550 11, 12 11" stroke="none" fill="black" fill-rule="evenodd"/>
</svg>