<svg xmlns="http://www.w3.org/2000/svg" width="24" height="24" viewBox="0 0 24 24" version="1.1">
	<path d="M 7.500 1.894 C 3.457 3.652, 1.500 6.976, 1.500 12.082 C 1.500 16.074, 2.001 17.456, 4.273 19.727 C 6.557 22.011, 7.919 22.500, 12 22.500 C 19.011 22.500, 22.500 19.011, 22.500 12 C 22.500 7.999, 22 6.546, 19.903 4.448 C 17.099 1.644, 10.974 0.383, 7.500 1.894 M 5.923 5.923 C 3.928 7.918, 3 9.848, 3 12 C 3 16.302, 7.698 21, 12 21 C 14.152 21, 16.082 20.072, 18.077 18.077 C 22.007 14.147, 22.007 9.853, 18.077 5.923 C 14.147 1.993, 9.853 1.993, 5.923 5.923 M 7.174 7.314 C 4.354 10.317, 4.409 14.096, 7.314 16.826 C 10.317 19.646, 14.096 19.591, 16.826 16.686 C 19.646 13.683, 19.591 9.904, 16.686 7.174 C 13.683 4.354, 9.904 4.409, 7.174 7.314 M 8.655 8.829 C 6.504 11.206, 6.560 13.291, 8.829 15.345 C 11.206 17.496, 13.291 17.440, 15.345 15.171 C 17.496 12.794, 17.440 10.709, 15.171 8.655 C 12.794 6.504, 10.709 6.560, 8.655 8.829 M 9.389 10.430 C 8.393 13.025, 9.788 15.169, 12.246 14.820 C 15.450 14.365, 15.450 9.635, 12.246 9.180 C 10.893 8.988, 9.750 9.488, 9.389 10.430 M 11 12 C 11 12.550, 11.450 13, 12 13 C 12.550 13, 13 12.550, 13 12 C 13 11.450, 12.550 11, 12 11 C 11.450 11, 11 11.450, 11 12" stroke="none" fill="#000000" fill-rule="evenodd"/>
</svg>