<svg xmlns="http://www.w3.org/2000/svg" width="24" height="24" viewBox="0 0 24 24" version="1.1">
	<path d="M 9 1.784 C 9 3.201, 19.933 13.400, 20.667 12.667 C 21.061 12.273, 18.950 9.487, 15.976 6.475 C 10.832 1.267, 9 0.035, 9 1.784 M 7.494 7.006 C 6.496 8.110, 5.961 9.295, 6.307 9.640 C 6.652 9.985, 6.049 11.393, 4.967 12.769 C 3.885 14.144, 3 15.659, 3 16.135 C 3 18.056, 4.868 16.792, 7.264 13.250 C 11.705 6.682, 11.872 2.169, 7.494 7.006 M 12 12.845 C 12 14.171, 15.937 17.396, 16.667 16.667 C 17.027 16.307, 16.504 15.110, 15.506 14.006 C 13.619 11.921, 12 11.385, 12 12.845 M 6.750 18.013 C 5.238 19.529, 4 21.019, 4 21.323 C 4 22.210, 8.381 21.736, 9.750 20.701 C 10.564 20.085, 11.532 20.197, 12.524 21.020 C 14.372 22.554, 15.852 21.452, 14.183 19.783 C 13.533 19.133, 13 17.790, 13 16.800 C 13 14.186, 9.984 14.772, 6.750 18.013" stroke="none" fill="black" fill-rule="evenodd"/>
</svg>