<svg xmlns="http://www.w3.org/2000/svg" width="24" height="24" viewBox="0 0 24 24" version="1.1">
	<path d="M 9.784 1 C 9.353 1, 9 1.353, 9 1.784 C 9 2.215, 11.464 5.002, 14.475 7.976 C 17.487 10.950, 20.273 13.061, 20.667 12.667 C 21.061 12.273, 18.950 9.487, 15.976 6.475 C 13.002 3.464, 10.215 1, 9.784 1 M 10.155 5 C 9.690 5, 8.493 5.903, 7.494 7.006 C 6.496 8.110, 5.973 9.307, 6.333 9.667 C 6.693 10.027, 7.890 9.504, 8.994 8.506 C 10.097 7.507, 11 6.310, 11 5.845 C 11 5.380, 10.620 5, 10.155 5 M 12.845 12 C 12.380 12, 12 12.380, 12 12.845 C 12 13.310, 12.903 14.507, 14.006 15.506 C 15.110 16.504, 16.307 17.027, 16.667 16.667 C 17.027 16.307, 16.504 15.110, 15.506 14.006 C 14.507 12.903, 13.310 12, 12.845 12 M 11 15 C 9.741 15, 9 15.667, 9 16.800 C 9 17.790, 8.467 19.133, 7.817 19.783 C 7.166 20.434, 6.930 21.263, 7.293 21.626 C 7.655 21.988, 8.638 21.716, 9.476 21.020 C 10.705 20, 11.295 20, 12.524 21.020 C 13.362 21.716, 14.345 21.988, 14.707 21.626 C 15.070 21.263, 14.834 20.434, 14.183 19.783 C 13.533 19.133, 13 17.790, 13 16.800 C 13 15.667, 12.259 15, 11 15" stroke="none" fill="black" fill-rule="evenodd"/>
</svg>