<svg xmlns="http://www.w3.org/2000/svg" width="24" height="24" viewBox="0 0 24 24" version="1.1">
	<path d="M 9 1.784 C 9 3.201, 19.933 13.400, 20.667 12.667 C 21.061 12.273, 18.950 9.487, 15.976 6.475 C 10.832 1.267, 9 0.035, 9 1.784 M 7.494 7.006 C 6.496 8.110, 5.973 9.307, 6.333 9.667 C 7.063 10.396, 11 7.171, 11 5.845 C 11 4.385, 9.381 4.921, 7.494 7.006 M 12 12.845 C 12 14.171, 15.937 17.396, 16.667 16.667 C 17.027 16.307, 16.504 15.110, 15.506 14.006 C 13.619 11.921, 12 11.385, 12 12.845 M 9 16.800 C 9 17.790, 8.467 19.133, 7.817 19.783 C 6.148 21.452, 7.628 22.554, 9.476 21.020 C 10.705 20, 11.295 20, 12.524 21.020 C 14.372 22.554, 15.852 21.452, 14.183 19.783 C 13.533 19.133, 13 17.790, 13 16.800 C 13 15.667, 12.259 15, 11 15 C 9.741 15, 9 15.667, 9 16.800" stroke="none" fill="black" fill-rule="evenodd"/>
</svg>