<svg viewBox="0 0 24 24" xmlns="http://www.w3.org/2000/svg" fill="none" stroke="#000000" stroke-width="2" stroke-linecap="round" stroke-linejoin="round"><path d="M9.670 1.061 C 9.448 1.142,9.250 1.309,9.128 1.516 C 9.037 1.672,9.020 1.746,9.020 2.000 C 9.020 2.254,9.036 2.327,9.127 2.480 C 9.263 2.708,19.367 12.805,19.560 12.905 C 19.659 12.957,19.788 12.979,20.000 12.979 C 20.258 12.980,20.327 12.964,20.492 12.867 C 20.968 12.587,21.139 11.967,20.865 11.508 C 20.810 11.416,18.465 9.043,15.653 6.235 C 10.955 1.544,10.524 1.125,10.343 1.065 C 10.107 0.987,9.874 0.986,9.670 1.061 M9.640 5.069 C 9.488 5.121,9.208 5.381,7.847 6.735 C 6.960 7.618,6.186 8.421,6.127 8.520 C 6.037 8.672,6.020 8.746,6.020 9.000 C 6.020 9.257,6.036 9.327,6.133 9.492 C 6.413 9.968,7.033 10.138,7.492 9.865 C 7.707 9.738,10.807 6.626,10.905 6.440 C 10.957 6.341,10.979 6.212,10.979 6.000 C 10.980 5.745,10.964 5.672,10.872 5.516 C 10.617 5.083,10.121 4.902,9.640 5.069 M12.670 12.061 C 12.448 12.142,12.250 12.309,12.128 12.516 C 12.036 12.672,12.020 12.745,12.021 13.000 C 12.021 13.212,12.043 13.341,12.095 13.440 C 12.196 13.632,15.296 16.739,15.520 16.873 C 15.672 16.964,15.746 16.980,16.000 16.980 C 16.257 16.980,16.327 16.964,16.492 16.867 C 16.968 16.587,17.138 15.968,16.866 15.508 C 16.811 15.416,16.040 14.618,15.153 13.736 C 13.714 12.305,13.519 12.124,13.343 12.066 C 13.108 11.987,12.875 11.986,12.670 12.061 M9.670 15.055 C 9.446 15.138,9.255 15.300,9.131 15.511 C 9.036 15.673,9.020 15.743,9.021 16.000 C 9.022 16.355,9.046 16.408,9.437 16.896 C 9.686 17.207,9.715 17.260,9.667 17.316 C 9.399 17.628,7.175 20.438,7.114 20.542 C 7.014 20.710,6.978 21.050,7.035 21.264 C 7.099 21.498,7.286 21.737,7.508 21.867 C 7.673 21.964,7.743 21.980,8.000 21.980 C 8.496 21.980,8.499 21.977,9.823 20.321 C 10.457 19.528,10.986 18.880,11.000 18.880 C 11.014 18.880,11.543 19.528,12.177 20.321 C 13.425 21.882,13.491 21.946,13.888 21.987 C 14.447 22.044,14.931 21.657,14.988 21.107 C 15.029 20.703,14.986 20.632,13.696 19.020 C 13.044 18.206,12.460 17.475,12.396 17.395 L 12.281 17.249 12.580 16.875 C 12.928 16.439,13.021 16.216,12.988 15.893 C 12.894 14.988,11.764 14.692,11.188 15.422 C 11.096 15.540,11.011 15.636,11.000 15.636 C 10.989 15.636,10.904 15.540,10.812 15.422 C 10.709 15.292,10.572 15.174,10.461 15.121 C 10.232 15.010,9.871 14.980,9.670 15.055 " stroke="none" fill-rule="evenodd" fill="black"></path></svg>