<svg xmlns="http://www.w3.org/2000/svg" width="24" height="24" viewBox="0 0 24 24" version="1.1">
	<path d="M 9.784 1 C 9.353 1, 9 1.353, 9 1.784 C 9 2.215, 11.464 5.002, 14.475 7.976 C 17.487 10.950, 20.273 13.061, 20.667 12.667 C 21.061 12.273, 18.950 9.487, 15.976 6.475 C 13.002 3.464, 10.215 1, 9.784 1 M 10.222 5 C 9.721 5, 8.493 5.903, 7.494 7.006 C 6.496 8.110, 5.961 9.295, 6.307 9.640 C 6.652 9.985, 6.049 11.393, 4.967 12.769 C 3.885 14.144, 3 15.659, 3 16.135 C 3 16.611, 3.389 17, 3.864 17 C 4.339 17, 5.869 15.313, 7.264 13.250 C 8.659 11.188, 10.100 8.488, 10.467 7.250 C 10.834 6.012, 10.724 5, 10.222 5 M 12.845 12 C 12.380 12, 12 12.380, 12 12.845 C 12 13.310, 12.903 14.507, 14.006 15.506 C 15.110 16.504, 16.307 17.027, 16.667 16.667 C 17.027 16.307, 16.504 15.110, 15.506 14.006 C 14.507 12.903, 13.310 12, 12.845 12 M 11.250 15.129 C 10.287 15.199, 8.262 16.498, 6.750 18.013 C 5.238 19.529, 4 21.019, 4 21.323 C 4 21.627, 5.012 21.824, 6.250 21.761 C 7.487 21.698, 9.063 21.221, 9.750 20.701 C 10.564 20.085, 11.532 20.197, 12.524 21.020 C 13.362 21.716, 14.345 21.988, 14.707 21.626 C 15.070 21.263, 14.834 20.434, 14.183 19.783 C 13.533 19.133, 13 17.790, 13 16.800 C 13 15.703, 12.316 15.050, 11.250 15.129" stroke="none" fill="black" fill-rule="evenodd"/>
</svg>