<svg xmlns="http://www.w3.org/2000/svg" width="24" height="24" viewBox="0 0 24 24" version="1.1">
	<path d="M 7.500 1.945 C 4.020 3.370, 1.780 6.772, 1.255 11.432 C 0.788 15.572, 1.038 16.238, 4.273 19.473 C 7.189 22.389, 8.527 23, 12 23 C 15.443 23, 16.813 22.387, 19.600 19.600 C 22.387 16.813, 23 15.443, 23 12 C 23 8.557, 22.387 7.187, 19.600 4.400 C 16.094 0.894, 12.066 0.077, 7.500 1.945 M 5.923 5.923 C 1.339 10.507, 2.483 16.832, 8.406 19.656 C 12.976 21.836, 17.499 20.119, 19.777 15.340 C 21.244 12.266, 21.237 11.720, 19.691 8.477 C 16.833 2.486, 10.530 1.316, 5.923 5.923" stroke="none" fill="black" fill-rule="evenodd"/>
</svg>