<svg xmlns="http://www.w3.org/2000/svg" width="24" height="24" viewBox="0 0 24 24" version="1.1">
	<path d="M 12.850 1.063 C 11.008 1.098, 8.600 1.495, 7.500 1.945 C 6.400 2.396, 4.659 3.699, 3.632 4.841 C 2.604 5.984, 1.535 8.950, 1.255 11.432 C 0.788 15.572, 1.038 16.238, 4.273 19.473 C 7.189 22.389, 8.527 23, 12 23 C 15.443 23, 16.813 22.387, 19.600 19.600 C 22.387 16.813, 23 15.443, 23 12 C 23 8.557, 22.387 7.187, 19.600 4.400 C 17.037 1.837, 15.376 1.016, 12.850 1.063 M 10.858 3 C 9.751 3, 7.531 4.315, 5.923 5.923 C 4.315 7.531, 3 9.751, 3 10.858 C 3 11.964, 3.440 14.027, 3.977 15.440 C 4.515 16.854, 6.508 18.751, 8.406 19.656 C 11.364 21.067, 12.309 21.115, 15.021 19.991 C 16.899 19.213, 18.832 17.324, 19.777 15.340 C 21.244 12.266, 21.237 11.720, 19.691 8.477 C 18.767 6.540, 16.854 4.515, 15.440 3.977 C 14.027 3.440, 11.964 3, 10.858 3" stroke="none" fill="black" fill-rule="evenodd"/>
</svg>