<svg xmlns="http://www.w3.org/2000/svg" width="24" height="24" viewBox="0 0 24 24" version="1.1">
	<path d="M 6.581 12.404 C 4.061 17.026, 2 21.076, 2 21.404 C 2 21.732, 6.500 22, 12 22 C 17.500 22, 22 21.732, 22 21.404 C 22 20.058, 12.773 4, 12 4 C 11.539 4, 9.101 7.782, 6.581 12.404 M 7.688 14.814 C 5.066 19.648, 5.007 20, 6.816 20 C 9.059 20, 11.341 15.403, 10.832 11.909 C 10.554 9.998, 10.043 10.470, 7.688 14.814 M 13.015 12.203 C 12.993 16.158, 15.046 20, 17.181 20 C 18.972 20, 18.968 19.862, 17.059 16.250 C 13.620 9.743, 13.033 9.155, 13.015 12.203" stroke="none" fill="#000000" fill-rule="evenodd"/>
</svg>