<svg xmlns="http://www.w3.org/2000/svg" width="24" height="24" viewBox="0 0 24 24" version="1.1">
	<path d="M 12 4 C 11.539 4, 9.101 7.782, 6.581 12.404 C 4.061 17.026, 2 21.076, 2 21.404 C 2 21.732, 6.500 22, 12 22 C 17.500 22, 22 21.732, 22 21.404 C 22 21.076, 19.939 17.026, 17.419 12.404 C 14.899 7.782, 12.461 4, 12 4 M 10.832 11.909 C 10.554 9.998, 10.043 10.470, 7.688 14.814 C 5.066 19.648, 5.007 20, 6.816 20 C 8.016 20, 9.217 18.891, 9.961 17.095 C 10.622 15.497, 11.015 13.163, 10.832 11.909 M 14.054 11 C 13.238 9.804, 13.028 10.047, 13.015 12.203 C 13.007 13.690, 13.522 16.052, 14.161 17.453 C 14.799 18.854, 16.158 20, 17.181 20 C 18.972 20, 18.968 19.862, 17.059 16.250 C 15.969 14.188, 14.617 11.825, 14.054 11" stroke="none" fill="black" fill-rule="evenodd"/>
</svg>