<svg xmlns="http://www.w3.org/2000/svg" width="24" height="24" viewBox="0 0 24 24" version="1.1">
	<path d="M 6.581 11.404 C 4.061 16.026, 2 20.076, 2 20.404 C 2 20.732, 6.500 21, 12 21 C 17.500 21, 22 20.732, 22 20.404 C 22 19.058, 12.773 3, 12 3 C 11.539 3, 9.101 6.782, 6.581 11.404 M 8.163 13 C 5.150 18.482, 5.033 19, 6.811 19 C 8.031 19, 9.221 17.880, 10 16 C 10.683 14.350, 11.583 13, 12 13 C 12.417 13, 13.317 14.350, 14 16 C 14.779 17.880, 15.969 19, 17.189 19 C 18.967 19, 18.850 18.482, 15.837 13 C 14.023 9.700, 12.296 7, 12 7 C 11.704 7, 9.977 9.700, 8.163 13 M 11 18 C 11 18.550, 11.450 19, 12 19 C 12.550 19, 13 18.550, 13 18 C 13 17.450, 12.550 17, 12 17 C 11.450 17, 11 17.450, 11 18" stroke="none" fill="black" fill-rule="evenodd"/>
</svg>