<svg viewBox="0 0 24 24" xmlns="http://www.w3.org/2000/svg" fill="none" stroke="#000000" stroke-width="2" stroke-linecap="round" stroke-linejoin="round"><path d="M11.559 3.110 C 11.443 3.171,11.299 3.283,11.238 3.360 C 11.177 3.437,9.081 7.139,6.581 11.586 C 2.440 18.951,2.033 19.691,2.013 19.890 C 1.938 20.617,2.640 21.180,3.322 20.939 C 3.569 20.852,3.738 20.710,3.884 20.466 L 4.011 20.252 4.117 20.455 C 4.236 20.683,4.488 20.896,4.711 20.958 C 4.918 21.016,19.082 21.016,19.289 20.958 C 19.512 20.896,19.764 20.683,19.883 20.455 L 19.989 20.252 20.116 20.466 C 20.262 20.710,20.431 20.852,20.678 20.939 C 21.360 21.180,22.062 20.617,21.987 19.890 C 21.967 19.691,21.560 18.951,17.419 11.586 C 14.919 7.139,12.823 3.437,12.762 3.360 C 12.595 3.148,12.281 3.000,12.000 3.000 C 11.826 3.000,11.718 3.027,11.559 3.110 M15.655 12.542 C 17.654 16.096,19.283 19.007,19.275 19.012 C 19.267 19.016,18.441 19.015,17.439 19.009 L 15.618 18.998 14.239 16.232 C 13.481 14.711,12.806 13.403,12.740 13.327 C 12.373 12.900,11.627 12.900,11.260 13.327 C 11.194 13.403,10.519 14.711,9.761 16.232 L 8.382 18.998 6.561 19.009 C 5.559 19.015,4.733 19.016,4.725 19.012 C 4.706 19.001,11.974 6.080,12.000 6.080 C 12.011 6.080,13.656 8.988,15.655 12.542 M12.690 17.620 C 13.059 18.357,13.360 18.969,13.360 18.980 C 13.360 18.991,12.748 19.000,12.000 19.000 C 11.252 19.000,10.640 18.991,10.640 18.980 C 10.640 18.940,11.980 16.280,12.000 16.280 C 12.011 16.280,12.322 16.883,12.690 17.620 " stroke="none" fill-rule="evenodd" fill="black"></path></svg>