<svg xmlns="http://www.w3.org/2000/svg" width="24" height="24" viewBox="0 0 24 24" version="1.1">
	<path d="M 3.804 4 C 3.362 4, 3 4.313, 3 4.695 C 3 5.078, 4.209 6.653, 5.687 8.195 L 8.374 11 5.510 13.990 C 3.935 15.634, 2.965 17.299, 3.356 17.690 C 3.747 18.080, 5.723 16.743, 7.748 14.719 L 11.429 11.038 8.018 7.519 C 6.142 5.583, 4.246 4, 3.804 4 M 16 18 C 13.250 18, 11 18.450, 11 19 C 11 19.550, 13.250 20, 16 20 C 18.750 20, 21 19.550, 21 19 C 21 18.450, 18.750 18, 16 18" stroke="none" fill="black" fill-rule="evenodd"/>
</svg>