<svg xmlns="http://www.w3.org/2000/svg" width="24" height="24" viewBox="0 0 24 24" version="1.1">
	<path d="M 12 5 C 6 5, 2 5.400, 2 6 C 2 6.600, 6 7, 12 7 C 18 7, 22 6.600, 22 6 C 22 5.400, 18 5, 12 5 M 10.878 11 C 5.626 11, 2 11.408, 2 12 C 2 12.588, 5.480 13, 10.441 13 C 15.441 13, 19.156 13.443, 19.554 14.087 C 19.923 14.685, 19.706 15.694, 19.071 16.329 C 18.199 17.201, 17.692 17.119, 16.995 15.992 C 16.191 14.693, 15.846 14.726, 14.322 16.250 C 12.655 17.917, 12.655 18.083, 14.322 19.750 C 15.405 20.833, 16.344 21.119, 16.786 20.500 C 17.179 19.950, 18.400 19.002, 19.500 18.393 C 20.600 17.784, 21.650 16.525, 21.833 15.595 C 22.015 14.665, 21.623 13.251, 20.960 12.452 C 20.072 11.382, 17.418 11, 10.878 11" stroke="none" fill="black" fill-rule="evenodd"/>
</svg>