<svg xmlns="http://www.w3.org/2000/svg" width="24" height="24" viewBox="0 0 24 24" version="1.1">
	<path d="M 9.200 1.200 C 8.523 1.877, 8 5.120, 8 8.641 C 8 12.074, 7.550 15.160, 7 15.500 C 3.916 17.406, 7.542 24, 11.674 24 C 15.509 24, 18.918 17.303, 16 15.500 C 15.450 15.160, 15 12.074, 15 8.641 C 15 2.657, 13.924 0, 11.500 0 C 10.895 0, 9.860 0.540, 9.200 1.200 M 10.639 2.694 C 10.288 3.046, 10 5.964, 10 9.180 C 10 12.396, 9.465 15.884, 8.810 16.932 C 7.877 18.427, 7.903 19.179, 8.933 20.419 C 9.654 21.288, 10.810 22, 11.500 22 C 12.190 22, 13.346 21.288, 14.067 20.419 C 15.097 19.179, 15.123 18.427, 14.190 16.932 C 13.535 15.884, 13 12.348, 13 9.073 C 13 3.512, 12.141 1.192, 10.639 2.694" stroke="none" fill="black" fill-rule="evenodd"/>
</svg>