<svg xmlns="http://www.w3.org/2000/svg" width="24" height="24" viewBox="0 0 24 24" version="1.1">
	<path d="M 11.500 0 C 10.895 0, 9.860 0.540, 9.200 1.200 C 8.523 1.877, 8 5.120, 8 8.641 C 8 12.074, 7.550 15.160, 7 15.500 C 6.450 15.840, 6 17.147, 6 18.404 C 6 19.661, 6.823 21.435, 7.829 22.345 C 8.835 23.255, 10.565 24, 11.674 24 C 12.783 24, 14.435 23.177, 15.345 22.171 C 16.255 21.165, 17 19.392, 17 18.230 C 17 17.069, 16.550 15.840, 16 15.500 C 15.450 15.160, 15 12.074, 15 8.641 C 15 5.120, 14.477 1.877, 13.800 1.200 C 13.140 0.540, 12.105 0, 11.500 0 M 12.139 2.586 C 11.666 2.294, 10.991 2.342, 10.639 2.694 C 10.288 3.046, 10 5.964, 10 9.180 C 10 12.396, 9.465 15.884, 8.810 16.932 C 7.877 18.427, 7.903 19.179, 8.933 20.419 C 9.654 21.288, 10.810 22, 11.500 22 C 12.190 22, 13.346 21.288, 14.067 20.419 C 15.097 19.179, 15.123 18.427, 14.190 16.932 C 13.535 15.884, 13 12.348, 13 9.073 C 13 5.798, 12.613 2.879, 12.139 2.586" stroke="none" fill="black" fill-rule="evenodd"/>
</svg>