<svg viewBox="0 0 24 24" xmlns="http://www.w3.org/2000/svg" fill="none" stroke="#000000" stroke-width="2" stroke-linecap="round" stroke-linejoin="round"><path d="M16.371 0.212 C 16.076 0.524,16.022 0.646,16.021 1.000 C 16.020 1.258,16.036 1.327,16.133 1.492 C 16.263 1.714,16.502 1.901,16.736 1.965 C 16.939 2.019,17.267 1.989,17.445 1.899 C 17.579 1.831,19.250 0.204,19.324 0.070 C 19.361 0.004,19.284 -0.000,17.967 -0.000 L 16.572 0.000 16.371 0.212 M11.499 1.040 C 10.374 1.244,9.488 2.024,9.114 3.140 L 9.020 3.420 9.009 8.720 L 8.998 14.020 8.861 14.114 C 8.655 14.255,8.079 14.867,7.889 15.146 C 6.930 16.559,6.741 18.323,7.379 19.905 C 7.651 20.581,7.988 21.069,8.554 21.607 C 9.272 22.291,10.072 22.712,11.060 22.927 C 11.379 22.996,12.621 22.996,12.940 22.927 C 13.949 22.708,14.738 22.286,15.488 21.566 C 17.231 19.893,17.492 17.181,16.106 15.140 C 15.920 14.866,15.343 14.253,15.139 14.114 L 15.002 14.020 14.991 8.720 L 14.980 3.420 14.886 3.140 C 14.555 2.154,13.800 1.403,12.861 1.129 C 12.500 1.023,11.832 0.980,11.499 1.040 M12.310 3.061 C 12.589 3.144,12.856 3.411,12.939 3.690 C 12.992 3.869,13.000 4.580,13.000 9.317 L 13.001 14.740 13.095 14.940 C 13.201 15.163,13.299 15.262,13.683 15.530 C 13.986 15.742,14.275 16.023,14.448 16.273 C 14.611 16.508,14.859 17.052,14.925 17.320 C 15.004 17.637,14.993 18.434,14.905 18.760 C 14.631 19.770,13.852 20.573,12.840 20.887 C 12.406 21.022,11.594 21.022,11.160 20.887 C 10.148 20.573,9.370 19.772,9.095 18.760 C 9.010 18.448,8.997 17.596,9.073 17.320 C 9.282 16.562,9.698 15.963,10.317 15.530 C 10.675 15.280,10.792 15.168,10.894 14.980 L 10.980 14.820 11.000 9.280 C 11.022 3.071,10.994 3.601,11.322 3.283 C 11.589 3.024,11.928 2.947,12.310 3.061 M19.695 3.057 C 19.466 3.129,19.256 3.299,19.128 3.516 C 19.037 3.672,19.020 3.746,19.020 4.000 C 19.020 4.256,19.036 4.328,19.131 4.489 C 19.256 4.702,19.449 4.864,19.670 4.943 C 19.885 5.020,22.115 5.020,22.330 4.943 C 22.551 4.864,22.744 4.702,22.869 4.489 C 22.964 4.328,22.980 4.256,22.980 4.000 C 22.980 3.746,22.963 3.672,22.872 3.516 C 22.740 3.293,22.533 3.128,22.290 3.055 C 22.039 2.979,19.937 2.981,19.695 3.057 M16.695 6.057 C 16.466 6.129,16.256 6.299,16.128 6.516 C 16.036 6.672,16.020 6.745,16.021 7.000 C 16.021 7.213,16.043 7.340,16.095 7.440 C 16.182 7.604,17.705 9.155,17.943 9.320 C 18.259 9.541,18.741 9.539,19.065 9.317 C 19.498 9.018,19.619 8.372,19.321 7.943 C 19.259 7.853,18.832 7.408,18.373 6.954 C 17.605 6.196,17.519 6.123,17.321 6.064 C 17.067 5.988,16.919 5.987,16.695 6.057 " stroke="none" fill-rule="evenodd" fill="black"></path></svg>