<svg xmlns="http://www.w3.org/2000/svg" width="24" height="24" viewBox="0 0 24 24" version="1.1">
	<path d="M 17.559 0 C 16.702 0, 16 0.450, 16 1 C 16 1.550, 16.423 2, 16.941 2 C 17.459 2, 18.160 1.550, 18.500 1 C 18.840 0.450, 18.416 0, 17.559 0 M 12.246 1.180 C 11.006 1.004, 9.791 1.454, 9.547 2.180 C 9.304 2.906, 8.901 5.975, 8.654 9 C 8.406 12.025, 7.894 15.666, 7.515 17.092 C 7.038 18.890, 7.335 20.193, 8.485 21.342 C 9.397 22.254, 10.979 23, 12 23 C 13.021 23, 14.603 22.254, 15.515 21.342 C 16.662 20.195, 16.962 18.886, 16.489 17.092 C 16.113 15.666, 15.511 11.575, 15.152 8 C 14.575 2.251, 14.239 1.463, 12.246 1.180 M 12 3 C 11.439 3, 11 5.767, 11 9.300 C 11 12.887, 10.480 16.120, 9.793 16.807 C 8.850 17.750, 8.959 18.388, 10.293 19.721 C 11.902 21.331, 12.098 21.331, 13.707 19.721 C 15.041 18.388, 15.150 17.750, 14.207 16.807 C 13.520 16.120, 13 12.887, 13 9.300 C 13 5.767, 12.561 3, 12 3 M 21 3 C 19.900 3, 19 3.450, 19 4 C 19 4.550, 19.900 5, 21 5 C 22.100 5, 23 4.550, 23 4 C 23 3.450, 22.100 3, 21 3 M 16.878 6 C 16.395 6, 16 6.395, 16 6.878 C 16 7.360, 16.604 8.256, 17.342 8.869 C 18.080 9.481, 18.976 9.690, 19.333 9.333 C 19.690 8.976, 19.481 8.080, 18.869 7.342 C 18.256 6.604, 17.360 6, 16.878 6" stroke="none" fill="black" fill-rule="evenodd"/>
</svg>