<svg viewBox="0 0 24 24" xmlns="http://www.w3.org/2000/svg"><path d="M12.580 4.047 C 11.943 4.169,11.349 4.694,11.111 5.346 C 11.037 5.551,11.023 5.705,10.997 6.600 C 10.962 7.775,10.912 8.054,10.624 8.663 C 10.086 9.798,9.197 10.548,8.005 10.872 C 7.621 10.976,7.614 10.976,5.679 10.998 L 3.738 11.020 3.539 11.122 C 3.316 11.237,3.104 11.488,3.042 11.711 C 2.985 11.916,2.985 19.084,3.042 19.289 C 3.104 19.512,3.316 19.763,3.539 19.878 C 3.737 19.980,3.740 19.980,4.933 19.992 C 6.313 20.005,6.413 19.989,6.700 19.702 C 6.970 19.432,6.999 19.291,7.003 18.243 C 7.006 17.356,7.008 17.345,7.064 17.608 C 7.272 18.577,7.955 19.403,8.851 19.767 C 9.439 20.007,9.372 20.003,13.601 19.991 L 17.462 19.980 17.721 19.852 C 18.022 19.704,18.350 19.398,18.566 19.066 C 18.865 18.604,18.935 18.339,19.490 15.570 L 20.015 12.950 19.966 12.669 C 19.828 11.861,19.172 11.188,18.383 11.043 C 18.238 11.017,17.529 11.000,16.573 11.000 L 15.000 11.000 15.000 8.402 C 15.000 6.660,14.985 5.734,14.956 5.592 C 14.797 4.830,14.138 4.181,13.383 4.043 C 13.106 3.993,12.859 3.994,12.580 4.047 " fill="#000000" stroke="none" fill-rule="evenodd"></path></svg>