<svg xmlns="http://www.w3.org/2000/svg" width="24" height="24" viewBox="0 0 24 24" version="1.1">
	<path d="M 1.699 4.634 C 0.403 5.930, 0.987 9.269, 2.750 10.640 C 4.412 11.932, 4.408 12.071, 2.670 13.419 C 1.582 14.262, 0.974 15.784, 1.170 17.169 C 1.492 19.441, 1.764 19.500, 12 19.500 C 22.236 19.500, 22.508 19.441, 22.830 17.169 C 23.026 15.784, 22.418 14.262, 21.330 13.419 C 19.557 12.044, 19.557 11.956, 21.330 10.581 C 22.418 9.738, 23.026 8.216, 22.830 6.831 C 22.513 4.588, 22.119 4.489, 12.449 4.217 C 6.922 4.062, 2.084 4.249, 1.699 4.634 M 3 6.878 C 3 7.360, 3.675 8.315, 4.500 9 C 6.422 10.595, 6.422 13.405, 4.500 15 C 1.943 17.122, 2.821 18, 7.500 18 L 12 18 12 12 L 12 6 7.500 6 C 5.025 6, 3 6.395, 3 6.878 M 14 12 L 14 18 17.500 18 C 21.249 18, 21.913 17.003, 19.500 15 C 18.675 14.315, 18 12.965, 18 12 C 18 11.035, 18.675 9.685, 19.500 9 C 21.913 6.997, 21.249 6, 17.500 6 L 14 6 14 12 M 8 9 C 8 9.550, 8.450 10, 9 10 C 9.550 10, 10 9.550, 10 9 C 10 8.450, 9.550 8, 9 8 C 8.450 8, 8 8.450, 8 9 M 16 9 C 16 9.550, 16.450 10, 17 10 C 17.550 10, 18 9.550, 18 9 C 18 8.450, 17.550 8, 17 8 C 16.450 8, 16 8.450, 16 9 M 8 15 C 8 15.550, 8.450 16, 9 16 C 9.550 16, 10 15.550, 10 15 C 10 14.450, 9.550 14, 9 14 C 8.450 14, 8 14.450, 8 15 M 16 15 C 16 15.550, 16.450 16, 17 16 C 17.550 16, 18 15.550, 18 15 C 18 14.450, 17.550 14, 17 14 C 16.450 14, 16 14.450, 16 15" stroke="none" fill="#000000" fill-rule="evenodd"/>
</svg>