<svg viewBox="0 0 24 24" xmlns="http://www.w3.org/2000/svg" fill="none" stroke="#000000" stroke-width="2" stroke-linecap="round" stroke-linejoin="round"><path d="M3.499 4.043 C 2.390 4.230,1.478 5.033,1.116 6.140 C 1.030 6.404,1.024 6.495,1.009 7.764 C 0.992 9.220,1.003 9.321,1.198 9.591 C 1.386 9.850,1.613 9.960,2.048 10.001 C 2.525 10.047,2.769 10.122,3.063 10.312 C 3.923 10.869,4.236 11.969,3.793 12.880 C 3.638 13.198,3.227 13.625,2.930 13.775 C 2.668 13.908,2.319 14.000,2.078 14.000 C 1.668 14.000,1.320 14.189,1.128 14.516 L 1.020 14.700 1.020 16.120 C 1.020 17.497,1.023 17.549,1.114 17.840 C 1.422 18.827,2.173 19.578,3.160 19.886 L 3.460 19.980 12.000 19.980 L 20.540 19.980 20.840 19.886 C 21.827 19.578,22.578 18.827,22.886 17.840 C 22.977 17.549,22.980 17.497,22.980 16.120 L 22.980 14.700 22.872 14.516 C 22.680 14.189,22.332 14.000,21.922 14.000 C 21.112 14.000,20.287 13.341,20.073 12.523 C 19.848 11.661,20.181 10.810,20.937 10.314 C 21.230 10.122,21.473 10.047,21.952 10.001 C 22.387 9.960,22.614 9.850,22.802 9.591 C 22.997 9.321,23.008 9.220,22.991 7.764 C 22.976 6.495,22.970 6.404,22.884 6.140 C 22.565 5.167,21.822 4.425,20.861 4.121 L 20.540 4.020 12.120 4.014 C 7.489 4.011,3.609 4.024,3.499 4.043 M12.000 12.001 L 12.000 18.001 7.850 17.991 L 3.700 17.980 3.516 17.872 C 3.415 17.813,3.284 17.700,3.225 17.623 C 3.034 17.372,3.000 17.207,3.000 16.514 C 3.000 15.943,3.007 15.875,3.070 15.855 C 4.342 15.450,5.237 14.646,5.704 13.488 C 6.560 11.365,5.464 8.982,3.280 8.217 L 3.020 8.126 3.009 7.517 C 2.995 6.754,3.041 6.566,3.303 6.303 C 3.618 5.989,3.351 6.006,7.930 6.003 L 12.000 6.000 12.000 12.001 M20.310 6.061 C 20.452 6.103,20.571 6.178,20.697 6.304 C 20.959 6.566,21.005 6.754,20.991 7.517 L 20.980 8.126 20.720 8.217 C 19.350 8.697,18.370 9.816,18.083 11.227 C 17.700 13.105,18.756 15.031,20.540 15.711 C 20.716 15.778,20.892 15.843,20.930 15.855 C 20.993 15.875,21.000 15.942,21.000 16.492 C 21.000 17.358,20.899 17.628,20.484 17.872 L 20.300 17.980 17.150 17.991 L 14.000 18.002 14.000 12.001 L 14.000 6.000 17.053 6.000 C 19.669 6.000,20.135 6.009,20.310 6.061 M8.695 8.055 C 8.464 8.130,8.255 8.300,8.128 8.516 C 8.037 8.672,8.020 8.746,8.020 9.000 C 8.020 9.257,8.036 9.327,8.133 9.492 C 8.651 10.374,9.998 10.018,9.998 9.000 C 9.998 8.623,9.792 8.281,9.463 8.112 C 9.265 8.010,8.911 7.984,8.695 8.055 M16.695 8.055 C 16.464 8.130,16.255 8.300,16.128 8.516 C 16.037 8.672,16.020 8.746,16.020 9.000 C 16.020 9.257,16.036 9.327,16.133 9.492 C 16.651 10.374,17.998 10.018,17.998 9.000 C 17.998 8.623,17.792 8.281,17.463 8.112 C 17.265 8.010,16.911 7.984,16.695 8.055 M8.695 14.055 C 8.464 14.130,8.255 14.300,8.128 14.516 C 8.037 14.672,8.020 14.746,8.020 15.000 C 8.020 15.257,8.036 15.327,8.133 15.492 C 8.651 16.374,9.998 16.018,9.998 15.000 C 9.998 14.623,9.792 14.281,9.463 14.112 C 9.265 14.010,8.911 13.984,8.695 14.055 M16.695 14.055 C 16.464 14.130,16.255 14.300,16.128 14.516 C 16.037 14.672,16.020 14.746,16.020 15.000 C 16.020 15.257,16.036 15.327,16.133 15.492 C 16.651 16.374,17.998 16.018,17.998 15.000 C 17.998 14.623,17.792 14.281,17.463 14.112 C 17.265 14.010,16.911 13.984,16.695 14.055 " stroke="none" fill-rule="evenodd" fill="black"></path></svg>