<svg xmlns="http://www.w3.org/2000/svg" width="24" height="24" viewBox="0 0 24 24" version="1.1">
	<path d="M 9.980 3.038 C 9.056 4.764, 6 18.531, 6 20.967 C 6 21.402, 7.350 22.317, 9 23 C 11.391 23.990, 12.609 23.990, 15 23 C 18.499 21.551, 18.395 22.242, 16.555 12.626 C 15.049 4.753, 13.579 1, 12 1 C 11.489 1, 10.580 1.917, 9.980 3.038 M 9.342 14.279 C 8.480 19.490, 8.573 20.236, 10.187 21.100 C 11.359 21.727, 12.641 21.727, 13.813 21.100 C 15.427 20.236, 15.520 19.490, 14.658 14.279 C 13.923 9.834, 13.284 8.429, 12 8.429 C 10.716 8.429, 10.077 9.834, 9.342 14.279" stroke="none" fill="black" fill-rule="evenodd"/>
</svg>