<svg viewBox="0 0 24 24" xmlns="http://www.w3.org/2000/svg" fill="none" stroke="#000000" stroke-width="2" stroke-linecap="round" stroke-linejoin="round"><path d="M11.668 1.061 C 11.585 1.092,11.462 1.156,11.395 1.203 C 11.291 1.277,9.319 4.164,9.110 4.547 C 9.067 4.627,8.469 7.722,7.518 12.787 C 6.312 19.213,5.999 20.944,6.015 21.112 C 6.038 21.359,6.182 21.628,6.370 21.777 C 6.441 21.833,7.679 22.352,9.120 22.930 C 11.608 23.927,11.753 23.980,12.000 23.980 C 12.247 23.980,12.392 23.927,14.880 22.930 C 16.321 22.352,17.559 21.833,17.630 21.777 C 17.818 21.628,17.962 21.359,17.985 21.112 C 18.001 20.944,17.688 19.213,16.482 12.787 C 15.531 7.722,14.933 4.627,14.890 4.547 C 14.683 4.167,12.709 1.277,12.606 1.204 C 12.330 1.008,11.965 0.952,11.668 1.061 M12.080 3.920 C 12.118 3.992,12.110 4.000,12.000 4.000 C 11.890 4.000,11.882 3.992,11.920 3.920 C 11.944 3.876,11.980 3.840,12.000 3.840 C 12.020 3.840,12.056 3.876,12.080 3.920 M12.080 6.080 C 12.056 6.124,12.020 6.160,12.000 6.160 C 11.980 6.160,11.944 6.124,11.920 6.080 C 11.882 6.008,11.890 6.000,12.000 6.000 C 12.110 6.000,12.118 6.008,12.080 6.080 M10.920 8.180 C 11.293 8.737,11.424 8.862,11.736 8.961 C 11.965 9.033,12.295 8.987,12.516 8.852 C 12.661 8.763,12.780 8.620,13.074 8.186 C 13.279 7.882,13.455 7.641,13.464 7.650 C 13.484 7.671,15.840 20.229,15.840 20.319 C 15.840 20.368,15.364 20.575,13.920 21.152 L 12.000 21.920 10.080 21.152 C 8.636 20.575,8.160 20.368,8.160 20.319 C 8.160 20.283,8.691 17.421,9.340 13.960 C 9.989 10.499,10.520 7.661,10.520 7.653 C 10.520 7.597,10.604 7.708,10.920 8.180 " stroke="none" fill-rule="evenodd" fill="black"></path></svg>