<svg xmlns="http://www.w3.org/2000/svg" width="24" height="24" viewBox="0 0 24 24" version="1.1">
	<path d="M 12 1 C 10.350 1, 9 1.450, 9 2 C 9 2.550, 10.350 3, 12 3 C 13.650 3, 15 2.550, 15 2 C 15 1.450, 13.650 1, 12 1 M 12 5 C 9.848 5, 7.918 5.928, 5.923 7.923 C 3.928 9.918, 3 11.848, 3 14 C 3 16.152, 3.928 18.082, 5.923 20.077 C 7.918 22.072, 9.848 23, 12 23 C 14.152 23, 16.082 22.072, 18.077 20.077 C 20.072 18.082, 21 16.152, 21 14 C 21 11.848, 20.072 9.918, 18.077 7.923 C 16.082 5.928, 14.152 5, 12 5 M 12 7 C 10.850 7, 8.805 8.105, 7.455 9.455 C 6.105 10.805, 5 12.850, 5 14 C 5 15.150, 6.105 17.195, 7.455 18.545 C 8.805 19.895, 10.850 21, 12 21 C 13.150 21, 15.195 19.895, 16.545 18.545 C 17.895 17.195, 19 15.150, 19 14 C 19 12.850, 17.895 10.805, 16.545 9.455 C 15.195 8.105, 13.150 7, 12 7 M 15.155 10 C 14.690 10, 13.493 10.903, 12.494 12.006 C 11.496 13.110, 10.973 14.307, 11.333 14.667 C 11.693 15.027, 12.890 14.504, 13.994 13.506 C 15.097 12.507, 16 11.310, 16 10.845 C 16 10.380, 15.620 10, 15.155 10" stroke="none" fill="black" fill-rule="evenodd"/>
</svg>