<svg xmlns="http://www.w3.org/2000/svg" width="24" height="24" viewBox="0 0 24 24" version="1.1">
	<path d="M 9 2 C 9 2.550, 10.350 3, 12 3 C 13.650 3, 15 2.550, 15 2 C 15 1.450, 13.650 1, 12 1 C 10.350 1, 9 1.450, 9 2 M 5.923 7.923 C 3.928 9.918, 3 11.848, 3 14 C 3 18.302, 7.698 23, 12 23 C 16.302 23, 21 18.302, 21 14 C 21 9.698, 16.302 5, 12 5 C 9.848 5, 7.918 5.928, 5.923 7.923 M 7.455 9.455 C 6.105 10.805, 5 12.850, 5 14 C 5 16.698, 9.302 21, 12 21 C 14.698 21, 19 16.698, 19 14 C 19 11.302, 14.698 7, 12 7 C 10.850 7, 8.805 8.105, 7.455 9.455 M 12.494 12.006 C 11.496 13.110, 10.973 14.307, 11.333 14.667 C 12.063 15.396, 16 12.171, 16 10.845 C 16 9.385, 14.381 9.921, 12.494 12.006" stroke="none" fill="#000000" fill-rule="evenodd"/>
</svg>