<svg xmlns="http://www.w3.org/2000/svg" width="24" height="24" viewBox="0 0 24 24" version="1.1">
	<path d="M 9.438 2.307 C 8.853 2.115, 8.066 2.268, 7.688 2.646 C 7.309 3.024, 7 4.106, 7 5.050 C 7 5.994, 6.075 7.009, 4.945 7.304 C 3.144 7.775, 2.928 8.500, 3.195 13.171 L 3.500 18.500 12 18.500 L 20.500 18.500 20.805 13.171 C 21.070 8.545, 20.846 7.773, 19.111 7.319 C 18.012 7.031, 16.975 5.829, 16.806 4.648 C 16.638 3.467, 15.825 2.500, 15 2.500 C 14.175 2.500, 13.356 3.512, 13.180 4.750 C 13.005 5.987, 12.473 7, 12 7 C 11.527 7, 10.995 6.023, 10.820 4.828 C 10.644 3.634, 10.022 2.500, 9.438 2.307 M 12 9 L 5 9 5 13 L 5 17 12 17 L 19 17 19 13 L 19 9 12 9 M 16 12 C 15.515 12, 14.816 12.489, 14.446 13.087 C 14.077 13.685, 14.275 14.675, 14.887 15.287 C 15.704 16.104, 16.296 16.104, 17.113 15.287 C 17.725 14.675, 17.923 13.685, 17.554 13.087 C 17.184 12.489, 16.485 12, 16 12" stroke="none" fill="black" fill-rule="evenodd"/>
</svg>