<svg xmlns="http://www.w3.org/2000/svg" width="24" height="24" viewBox="0 0 24 24" version="1.1">
	<path d="M 7.688 2.646 C 7.309 3.024, 7 4.106, 7 5.050 C 7 5.994, 6.075 7.009, 4.945 7.304 C 3.144 7.775, 2.928 8.500, 3.195 13.171 L 3.500 18.500 12 18.500 L 20.500 18.500 20.805 13.171 C 21.070 8.545, 20.846 7.773, 19.111 7.319 C 18.012 7.031, 16.975 5.829, 16.806 4.648 C 16.401 1.804, 13.588 1.883, 13.180 4.750 C 12.773 7.621, 11.238 7.672, 10.820 4.828 C 10.488 2.573, 8.880 1.453, 7.688 2.646 M 5 13 L 5 17 12 17 L 19 17 19 13 L 19 9 12 9 L 5 9 5 13 M 14.446 13.087 C 13.416 14.755, 15.733 16.667, 17.113 15.287 C 18.267 14.133, 17.545 12, 16 12 C 15.515 12, 14.816 12.489, 14.446 13.087" stroke="none" fill="black" fill-rule="evenodd"/>
</svg>