<svg xmlns="http://www.w3.org/2000/svg" width="24" height="24" viewBox="0 0 24 24" version="1.1">
	<path d="M 6.057 2 C 4.964 2, 3.605 2.870, 3.035 3.934 C 2.466 4.998, 2 9.078, 2 13 C 2 16.922, 2.466 21.002, 3.035 22.066 C 3.605 23.130, 4.939 24, 6 24 C 7.061 24, 8.395 23.130, 8.965 22.066 C 9.534 21.002, 10 17.627, 10 14.566 L 10 9 14.893 9 C 18.432 9, 19.954 9.438, 20.393 10.582 C 20.727 11.452, 21 13.252, 21 14.582 C 21 15.912, 21.450 17, 22 17 C 22.550 17, 23 15.620, 23 13.934 C 23 12.248, 22.534 9.998, 21.965 8.934 C 21.141 7.395, 19.846 7, 15.625 7 C 10.938 7, 10.189 6.709, 9.182 4.500 C 8.523 3.055, 7.205 2, 6.057 2 M 6 4 C 5.524 4, 4.849 4.900, 4.500 6 C 4.151 7.100, 4.151 8.900, 4.500 10 C 4.849 11.100, 5.524 12, 6 12 C 6.476 12, 7.151 11.100, 7.500 10 C 7.849 8.900, 7.849 7.100, 7.500 6 C 7.151 4.900, 6.476 4, 6 4 M 6 14 C 4.481 14, 4.004 14.662, 4.015 16.750 C 4.024 18.262, 4.474 20.175, 5.015 21 C 5.891 22.333, 6.109 22.333, 6.985 21 C 7.526 20.175, 7.976 18.262, 7.985 16.750 C 7.996 14.662, 7.519 14, 6 14" stroke="none" fill="black" fill-rule="evenodd"/>
</svg>