<svg xmlns="http://www.w3.org/2000/svg" width="24" height="24" viewBox="0 0 24 24" version="1.1">
	<path d="M 3.035 3.934 C 1.693 6.441, 1.693 19.559, 3.035 22.066 C 3.605 23.130, 4.939 24, 6 24 C 8.731 24, 10 21.006, 10 14.566 L 10 9 14.893 9 C 20.083 9, 21 9.838, 21 14.582 C 21 15.912, 21.450 17, 22 17 C 23.312 17, 23.288 11.406, 21.965 8.934 C 21.141 7.395, 19.846 7, 15.625 7 C 10.938 7, 10.189 6.709, 9.182 4.500 C 7.817 1.505, 4.499 1.199, 3.035 3.934 M 4.500 6 C 3.776 8.280, 4.706 12, 6 12 C 7.294 12, 8.224 8.280, 7.500 6 C 7.151 4.900, 6.476 4, 6 4 C 5.524 4, 4.849 4.900, 4.500 6 M 4.015 16.750 C 4.024 18.262, 4.474 20.175, 5.015 21 C 5.891 22.333, 6.109 22.333, 6.985 21 C 7.526 20.175, 7.976 18.262, 7.985 16.750 C 7.996 14.662, 7.519 14, 6 14 C 4.481 14, 4.004 14.662, 4.015 16.750" stroke="none" fill="#000000" fill-rule="evenodd"/>
</svg>