<svg viewBox="0 0 24 24" xmlns="http://www.w3.org/2000/svg" fill="none" stroke="#000000" stroke-width="2" stroke-linecap="round" stroke-linejoin="round"><path d="M5.460 2.059 C 4.830 2.175,4.344 2.452,3.775 3.017 C 2.906 3.879,2.376 5.005,2.090 6.592 C 2.036 6.894,2.026 7.692,2.012 12.680 C 2.001 16.585,2.010 18.573,2.039 18.900 C 2.184 20.513,2.764 21.967,3.628 22.883 C 3.981 23.257,4.307 23.498,4.740 23.703 C 5.559 24.092,6.430 24.092,7.260 23.701 C 8.102 23.306,8.761 22.595,9.262 21.544 C 9.638 20.756,9.869 19.891,9.959 18.940 C 9.984 18.666,10.000 16.710,10.000 13.750 L 10.000 9.000 14.575 9.000 C 19.669 9.000,19.308 8.980,19.705 9.280 C 20.228 9.675,20.716 10.683,20.905 11.760 C 20.959 12.068,20.976 12.536,20.996 14.223 L 21.020 16.306 21.141 16.503 C 21.543 17.156,22.457 17.156,22.859 16.503 L 22.980 16.306 22.992 14.443 C 23.005 12.434,22.978 11.919,22.819 11.134 C 22.694 10.513,22.528 10.014,22.262 9.456 C 21.965 8.834,21.690 8.440,21.243 8.000 C 20.675 7.441,20.073 7.129,19.391 7.040 C 19.224 7.019,17.163 7.002,14.533 7.001 L 9.966 7.000 9.945 6.890 C 9.933 6.830,9.911 6.690,9.897 6.580 C 9.779 5.669,9.367 4.555,8.858 3.770 C 8.567 3.321,7.920 2.674,7.533 2.445 C 6.869 2.051,6.189 1.924,5.460 2.059 M6.516 4.173 C 7.142 4.557,7.703 5.625,7.906 6.820 C 8.000 7.372,8.000 8.628,7.906 9.180 C 7.624 10.841,6.720 12.099,5.890 11.985 C 5.122 11.880,4.367 10.710,4.093 9.200 C 3.997 8.673,3.997 7.335,4.094 6.800 C 4.346 5.397,5.020 4.276,5.758 4.036 C 5.960 3.970,6.278 4.027,6.516 4.173 M4.701 13.691 C 5.130 13.906,5.461 13.980,6.000 13.980 C 6.413 13.980,6.552 13.964,6.799 13.886 C 7.171 13.769,7.428 13.641,7.752 13.411 L 8.005 13.232 7.990 16.046 C 7.977 18.479,7.965 18.912,7.906 19.240 C 7.665 20.585,7.044 21.664,6.362 21.923 C 5.848 22.118,5.322 21.896,4.905 21.308 C 4.527 20.775,4.236 20.034,4.094 19.240 C 4.035 18.912,4.023 18.479,4.010 16.046 L 3.995 13.232 4.248 13.411 C 4.386 13.510,4.590 13.636,4.701 13.691 " stroke="none" fill-rule="evenodd" fill="black"></path></svg>