<svg xmlns="http://www.w3.org/2000/svg" width="24" height="24" viewBox="0 0 24 24" version="1.1">
	<path d="M 10 3 C 7.470 3, 4.860 3.540, 4.200 4.200 C 3.540 4.860, 3 6.228, 3 7.240 C 3 8.252, 3.876 10.796, 4.946 12.894 C 6.315 15.578, 6.578 17.022, 5.833 17.767 C 5.251 18.349, 5.039 19.254, 5.362 19.777 C 5.685 20.299, 7.772 20.727, 10 20.727 C 12.228 20.727, 14.315 20.299, 14.638 19.777 C 14.961 19.254, 14.749 18.349, 14.167 17.767 C 13.422 17.022, 13.685 15.578, 15.054 12.894 C 16.124 10.796, 17 8.252, 17 7.240 C 17 6.228, 16.460 4.860, 15.800 4.200 C 15.140 3.540, 12.530 3, 10 3 M 10 5 C 7.166 5, 5.748 5.493, 5.311 6.631 C 4.965 7.533, 5.753 10.217, 7.072 12.631 C 8.384 15.034, 9.702 17, 10 17 C 10.298 17, 11.616 15.034, 12.928 12.631 C 14.247 10.217, 15.035 7.533, 14.689 6.631 C 14.252 5.493, 12.834 5, 10 5" stroke="none" fill="black" fill-rule="evenodd"/>
</svg>