<svg xmlns="http://www.w3.org/2000/svg" width="24" height="24" viewBox="0 0 24 24" version="1.1">
	<path d="M 4.200 4.200 C 2.488 5.912, 2.711 8.514, 4.946 12.894 C 6.315 15.578, 6.578 17.022, 5.833 17.767 C 4.061 19.539, 5.734 20.727, 10 20.727 C 14.266 20.727, 15.939 19.539, 14.167 17.767 C 13.422 17.022, 13.685 15.578, 15.054 12.894 C 17.289 8.514, 17.512 5.912, 15.800 4.200 C 14.244 2.644, 5.756 2.644, 4.200 4.200 M 5.311 6.631 C 4.737 8.129, 8.748 17, 10 17 C 11.252 17, 15.263 8.129, 14.689 6.631 C 13.814 4.351, 6.186 4.351, 5.311 6.631" stroke="none" fill="#000000" fill-rule="evenodd"/>
</svg>