<svg xmlns="http://www.w3.org/2000/svg" width="24" height="24" viewBox="0 0 24 24" version="1.1">
	<path d="M 12 3 C 6 3, 2 3.400, 2 4 C 2 4.600, 6 5, 12 5 C 18 5, 22 4.600, 22 4 C 22 3.400, 18 3, 12 3 M 12 7 C 8 7, 5 7.429, 5 8 C 5 8.571, 8 9, 12 9 C 16 9, 19 8.571, 19 8 C 19 7.429, 16 7, 12 7 M 14 11 C 10.667 11, 8 11.444, 8 12 C 8 12.556, 10.667 13, 14 13 C 17.333 13, 20 12.556, 20 12 C 20 11.444, 17.333 11, 14 11 M 13 15 C 10.800 15, 9 15.450, 9 16 C 9 16.550, 10.800 17, 13 17 C 15.200 17, 17 16.550, 17 16 C 17 15.450, 15.200 15, 13 15 M 12 19 C 10.900 19, 10 19.450, 10 20 C 10 20.550, 10.900 21, 12 21 C 13.100 21, 14 20.550, 14 20 C 14 19.450, 13.100 19, 12 19" stroke="none" fill="black" fill-rule="evenodd"/>
</svg>