<svg xmlns="http://www.w3.org/2000/svg" width="24" height="24" viewBox="0 0 24 24" version="1.1">
	<path d="M 6 4.893 C 6 5.934, 5.303 7.053, 4.452 7.380 C 3.235 7.847, 2.968 9.315, 3.202 14.237 L 3.500 20.500 12 20.500 L 20.500 20.500 20.798 14.237 C 21.032 9.315, 20.765 7.847, 19.548 7.380 C 18.697 7.053, 18 5.934, 18 4.893 C 18 3.852, 17.550 3, 17 3 C 16.450 3, 16 3.900, 16 5 C 16 6.333, 15.333 7, 14 7 C 12.667 7, 12 6.333, 12 5 C 12 3.900, 11.550 3, 11 3 C 10.450 3, 10 3.900, 10 5 C 10 6.100, 9.550 7, 9 7 C 8.450 7, 8 6.100, 8 5 C 8 3.900, 7.550 3, 7 3 C 6.450 3, 6 3.852, 6 4.893 M 5 14 L 5 19 12 19 L 19 19 19 14 L 19 9 12 9 L 5 9 5 14" stroke="none" fill="black" fill-rule="evenodd"/>
</svg>