<svg viewBox="0 0 24 24" xmlns="http://www.w3.org/2000/svg" fill="none" stroke="#000000" stroke-width="2" stroke-linecap="round" stroke-linejoin="round"><path d="M6.695 3.057 C 6.466 3.129,6.256 3.299,6.128 3.516 L 6.020 3.700 6.008 5.350 L 5.997 7.000 5.368 7.002 C 4.639 7.005,4.342 7.065,3.983 7.281 C 3.703 7.449,3.354 7.816,3.219 8.083 C 2.991 8.532,3.000 8.285,3.000 14.000 C 3.000 19.733,2.990 19.466,3.225 19.930 C 3.361 20.199,3.801 20.639,4.070 20.775 C 4.540 21.013,4.078 21.000,12.000 21.000 C 19.922 21.000,19.460 21.013,19.930 20.775 C 20.196 20.640,20.638 20.200,20.771 19.937 C 21.010 19.466,21.000 19.732,20.999 14.014 C 20.999 8.337,21.006 8.525,20.781 8.083 C 20.646 7.816,20.297 7.449,20.017 7.281 C 19.658 7.065,19.361 7.005,18.632 7.002 L 18.003 7.000 17.992 5.350 L 17.980 3.700 17.871 3.514 C 17.479 2.848,16.521 2.848,16.129 3.514 L 16.020 3.700 16.008 5.350 L 15.997 7.000 14.000 7.000 L 12.003 7.000 11.992 5.350 L 11.980 3.700 11.871 3.514 C 11.479 2.848,10.521 2.848,10.129 3.514 L 10.020 3.700 10.008 5.350 L 9.997 7.000 9.000 7.000 L 8.003 7.000 7.992 5.350 L 7.980 3.700 7.872 3.516 C 7.628 3.101,7.150 2.915,6.695 3.057 M19.000 14.000 L 19.000 19.000 12.000 19.000 L 5.000 19.000 5.000 14.000 L 5.000 9.000 12.000 9.000 L 19.000 9.000 19.000 14.000 " stroke="none" fill-rule="evenodd" fill="black"></path></svg>