<svg xmlns="http://www.w3.org/2000/svg" width="24" height="24" viewBox="0 0 24 24" version="1.1">
	<path d="M 7 6.500 C 6.418 8.031, 5.264 9, 4.025 9 C 1.241 9, 1.453 10.976, 4.250 11.100 C 6.386 11.194, 6.373 11.235, 4 11.895 C 2.201 12.395, 1.500 13.279, 1.500 15.045 C 1.500 17.106, 1.981 17.500, 4.500 17.500 C 6.961 17.500, 7.548 17.051, 7.770 15 C 8.636 6.969, 9.042 6, 11.545 6 C 12.895 6, 14 5.550, 14 5 C 14 4.450, 12.639 4, 10.975 4 C 8.669 4, 7.725 4.594, 7 6.500 M 17 5 C 17 5.550, 17.675 6, 18.500 6 C 20.654 6, 20.411 9.977, 18.250 10.099 C 17.288 10.153, 15.427 10.265, 14.115 10.349 C 12.803 10.432, 11.231 11.287, 10.620 12.250 C 8.819 15.090, 11.042 17.451, 15.855 17.808 C 19.544 18.081, 20.117 17.824, 21.003 15.493 C 21.551 14.050, 22 10.874, 22 8.435 C 22 4.371, 21.791 4, 19.500 4 C 18.125 4, 17 4.450, 17 5 M 12.446 13.087 C 11.416 14.755, 13.733 16.667, 15.113 15.287 C 16.267 14.133, 15.545 12, 14 12 C 13.515 12, 12.816 12.489, 12.446 13.087 M 18.158 14 C 18.158 15.375, 18.385 15.938, 18.662 15.250 C 18.940 14.563, 18.940 13.438, 18.662 12.750 C 18.385 12.063, 18.158 12.625, 18.158 14 M 3 15 C 3 15.550, 3.450 16, 4 16 C 4.550 16, 5 15.550, 5 15 C 5 14.450, 4.550 14, 4 14 C 3.450 14, 3 14.450, 3 15" stroke="none" fill="black" fill-rule="evenodd"/>
</svg>