<svg xmlns="http://www.w3.org/2000/svg" width="24" height="24" viewBox="0 0 24 24" version="1.1">
	<path d="M 12 1 C 10.900 1, 9.100 1.900, 8 3 C 6.381 4.619, 6 6.333, 6 12 C 6 17.667, 6.381 19.381, 8 21 C 9.100 22.100, 10.900 23, 12 23 C 13.100 23, 14.900 22.100, 16 21 C 17.619 19.381, 18 17.667, 18 12 C 18 6.333, 17.619 4.619, 16 3 C 14.900 1.900, 13.100 1, 12 1 M 12 3 C 11.035 3, 9.718 3.634, 9.075 4.410 C 8.362 5.269, 8.021 8.453, 8.202 12.556 C 8.428 17.664, 8.923 19.557, 10.250 20.390 C 11.522 21.190, 12.478 21.190, 13.750 20.390 C 15.077 19.557, 15.572 17.664, 15.798 12.556 C 15.979 8.453, 15.638 5.269, 14.925 4.410 C 14.282 3.634, 12.965 3, 12 3 M 12 5 C 11.515 5, 10.816 5.489, 10.446 6.087 C 10.077 6.685, 10.275 7.675, 10.887 8.287 C 11.704 9.104, 12.296 9.104, 13.113 8.287 C 13.725 7.675, 13.923 6.685, 13.554 6.087 C 13.184 5.489, 12.485 5, 12 5 M 12 10 C 11.515 10, 10.816 10.489, 10.446 11.087 C 10.077 11.685, 10.275 12.675, 10.887 13.287 C 11.704 14.104, 12.296 14.104, 13.113 13.287 C 13.725 12.675, 13.923 11.685, 13.554 11.087 C 13.184 10.489, 12.485 10, 12 10 M 12 15 C 11.515 15, 10.816 15.489, 10.446 16.087 C 10.077 16.685, 10.275 17.675, 10.887 18.287 C 11.704 19.104, 12.296 19.104, 13.113 18.287 C 13.725 17.675, 13.923 16.685, 13.554 16.087 C 13.184 15.489, 12.485 15, 12 15" stroke="none" fill="black" fill-rule="evenodd"/>
</svg>