<svg xmlns="http://www.w3.org/2000/svg" width="24" height="24" viewBox="0 0 24 24" version="1.1">
	<path d="M 8 3 C 5.094 5.906, 5.094 18.094, 8 21 C 9.100 22.100, 10.900 23, 12 23 C 16.129 23, 18 19.570, 18 12 C 18 4.430, 16.129 1, 12 1 C 10.900 1, 9.100 1.900, 8 3 M 9.075 4.410 C 7.190 6.681, 8.099 19.039, 10.250 20.390 C 11.522 21.190, 12.478 21.190, 13.750 20.390 C 15.901 19.039, 16.810 6.681, 14.925 4.410 C 13.425 2.602, 10.575 2.602, 9.075 4.410 M 10.446 6.087 C 9.416 7.755, 11.733 9.667, 13.113 8.287 C 14.267 7.133, 13.545 5, 12 5 C 11.515 5, 10.816 5.489, 10.446 6.087 M 10.446 11.087 C 9.416 12.755, 11.733 14.667, 13.113 13.287 C 14.267 12.133, 13.545 10, 12 10 C 11.515 10, 10.816 10.489, 10.446 11.087 M 10.446 16.087 C 9.416 17.755, 11.733 19.667, 13.113 18.287 C 14.267 17.133, 13.545 15, 12 15 C 11.515 15, 10.816 15.489, 10.446 16.087" stroke="none" fill="#000000" fill-rule="evenodd"/>
</svg>