<svg xmlns="http://www.w3.org/2000/svg" width="24" height="24" viewBox="0 0 24 24" version="1.1">
	<path d="M 3.704 2.630 C 3.317 3.017, 3 6.872, 3 11.198 C 3 17.113, 3.356 19.199, 4.437 19.614 C 5.227 19.917, 5.629 20.803, 5.330 21.583 C 5.031 22.362, 5.298 23, 5.924 23 C 6.551 23, 7.322 22.325, 7.638 21.500 C 8.424 19.453, 15.576 19.453, 16.362 21.500 C 16.678 22.325, 17.449 23, 18.076 23 C 18.702 23, 18.969 22.362, 18.670 21.583 C 18.371 20.803, 18.791 19.910, 19.604 19.599 C 20.777 19.149, 21.021 17.326, 20.791 10.766 L 20.500 2.500 12.454 2.213 C 8.028 2.055, 4.091 2.242, 3.704 2.630 M 5 7 C 5 9.667, 5.333 10, 8 10 C 10.667 10, 11 9.667, 11 7 C 11 4.333, 10.667 4, 8 4 C 5.333 4, 5 4.333, 5 7 M 13 7 C 13 9.667, 13.333 10, 16 10 C 18.667 10, 19 9.667, 19 7 C 19 4.333, 18.667 4, 16 4 C 13.333 4, 13 4.333, 13 7 M 5 15 L 5 18 12 18 L 19 18 19 15 L 19 12 12 12 L 5 12 5 15 M 7.446 14.087 C 6.416 15.755, 8.733 17.667, 10.113 16.287 C 11.267 15.133, 10.545 13, 9 13 C 8.515 13, 7.816 13.489, 7.446 14.087 M 13.446 14.087 C 12.416 15.755, 14.733 17.667, 16.113 16.287 C 17.267 15.133, 16.545 13, 15 13 C 14.515 13, 13.816 13.489, 13.446 14.087" stroke="none" fill="black" fill-rule="evenodd"/>
</svg>