<svg xmlns="http://www.w3.org/2000/svg" width="24" height="24" viewBox="0 0 24 24" version="1.1">
	<path d="M 12.454 2.213 C 8.028 2.055, 4.091 2.242, 3.704 2.630 C 3.317 3.017, 3 6.872, 3 11.198 C 3 17.113, 3.356 19.199, 4.437 19.614 C 5.227 19.917, 5.629 20.803, 5.330 21.583 C 5.031 22.362, 5.298 23, 5.924 23 C 6.551 23, 7.322 22.325, 7.638 21.500 C 8.010 20.532, 9.557 20, 12 20 C 14.443 20, 15.990 20.532, 16.362 21.500 C 16.678 22.325, 17.449 23, 18.076 23 C 18.702 23, 18.969 22.362, 18.670 21.583 C 18.371 20.803, 18.791 19.910, 19.604 19.599 C 20.777 19.149, 21.021 17.326, 20.791 10.766 L 20.500 2.500 12.454 2.213 M 8 4 C 5.333 4, 5 4.333, 5 7 C 5 9.667, 5.333 10, 8 10 C 10.667 10, 11 9.667, 11 7 C 11 4.333, 10.667 4, 8 4 M 16 4 C 13.333 4, 13 4.333, 13 7 C 13 9.667, 13.333 10, 16 10 C 18.667 10, 19 9.667, 19 7 C 19 4.333, 18.667 4, 16 4 M 12 12 L 5 12 5 15 L 5 18 12 18 L 19 18 19 15 L 19 12 12 12 M 9 13 C 8.515 13, 7.816 13.489, 7.446 14.087 C 7.077 14.685, 7.275 15.675, 7.887 16.287 C 8.704 17.104, 9.296 17.104, 10.113 16.287 C 10.725 15.675, 10.923 14.685, 10.554 14.087 C 10.184 13.489, 9.485 13, 9 13 M 15 13 C 14.515 13, 13.816 13.489, 13.446 14.087 C 13.077 14.685, 13.275 15.675, 13.887 16.287 C 14.704 17.104, 15.296 17.104, 16.113 16.287 C 16.725 15.675, 16.923 14.685, 16.554 14.087 C 16.184 13.489, 15.485 13, 15 13" stroke="none" fill="black" fill-rule="evenodd"/>
</svg>