<svg xmlns="http://www.w3.org/2000/svg" width="24" height="24" viewBox="0 0 24 24" version="1.1">
	<path d="M 12 1 C 8.654 1, 7.708 1.402, 7.290 3 C 6.951 4.294, 5.926 5, 4.383 5 C 3.073 5, 2 5.450, 2 6 C 2 6.550, 2.431 7, 2.958 7 C 3.485 7, 4.047 10.487, 4.208 14.750 L 4.500 22.500 12 22.500 L 19.500 22.500 19.792 14.750 C 19.953 10.487, 20.515 7, 21.042 7 C 21.569 7, 22 6.550, 22 6 C 22 5.450, 20.927 5, 19.617 5 C 18.074 5, 17.049 4.294, 16.710 3 C 16.292 1.402, 15.346 1, 12 1 M 12 3 C 10.350 3, 9 3.450, 9 4 C 9 4.550, 10.350 5, 12 5 C 13.650 5, 15 4.550, 15 4 C 15 3.450, 13.650 3, 12 3 M 12 7 L 6 7 6 14 L 6 21 12 21 L 18 21 18 14 L 18 7 12 7 M 10 10 C 9.450 10, 9 11.800, 9 14 C 9 16.200, 9.450 18, 10 18 C 10.550 18, 11 16.200, 11 14 C 11 11.800, 10.550 10, 10 10 M 14 10 C 13.450 10, 13 11.800, 13 14 C 13 16.200, 13.450 18, 14 18 C 14.550 18, 15 16.200, 15 14 C 15 11.800, 14.550 10, 14 10" stroke="none" fill="black" fill-rule="evenodd"/>
</svg>