<svg xmlns="http://www.w3.org/2000/svg" width="24" height="24" viewBox="0 0 24 24" version="1.1">
	<path d="M 1.845 1 C 1.380 1, 1 1.423, 1 1.941 C 1 2.459, 1.430 3.148, 1.956 3.473 C 2.482 3.798, 2.659 4.725, 2.349 5.532 C 2.040 6.339, 2.265 7, 2.851 7 C 3.487 7, 4.033 10.118, 4.208 14.750 L 4.500 22.500 13.750 22.607 C 18.837 22.666, 23 22.384, 23 21.980 C 23 21.576, 22.325 20.685, 21.500 20 C 20.478 19.152, 20 16.882, 20 12.878 C 20 9.626, 20.447 7, 21 7 C 21.550 7, 22 6.550, 22 6 C 22 5.418, 18.718 5, 14.155 5 C 7.580 5, 6.017 4.676, 4.500 3 C 3.505 1.900, 2.310 1, 1.845 1 M 13.292 7 L 8.584 7 13 11.500 C 15.429 13.975, 17.548 16, 17.708 16 C 17.869 16, 18 13.975, 18 11.500 L 18 7 13.292 7 M 12 13.500 L 6 7.563 6 14.281 L 6 21 12 21 C 15.300 21, 18 20.648, 18 20.219 C 18 19.789, 15.300 16.766, 12 13.500" stroke="none" fill="black" fill-rule="evenodd"/>
</svg>