<svg viewBox="0 0 24 24" xmlns="http://www.w3.org/2000/svg"><path d="M9.580 2.047 C 8.859 2.185,8.199 2.848,8.044 3.592 C 8.018 3.717,8.000 4.255,8.000 4.902 L 8.000 6.000 6.500 6.000 L 5.000 6.000 5.000 13.098 C 5.000 18.125,5.013 20.258,5.044 20.408 C 5.201 21.158,5.842 21.799,6.592 21.956 C 6.890 22.018,17.110 22.018,17.408 21.956 C 18.158 21.799,18.799 21.158,18.956 20.408 C 18.987 20.258,19.000 18.125,19.000 13.098 L 19.000 6.000 17.500 6.000 L 16.000 6.000 16.000 4.902 C 16.000 4.255,15.982 3.717,15.956 3.592 C 15.797 2.830,15.138 2.181,14.383 2.043 C 14.085 1.989,9.868 1.992,9.580 2.047 M10.520 14.000 L 10.520 17.000 10.000 17.000 L 9.480 17.000 9.480 14.000 L 9.480 11.000 10.000 11.000 L 10.520 11.000 10.520 14.000 M14.520 14.000 L 14.520 17.000 14.000 17.000 L 13.480 17.000 13.480 14.000 L 13.480 11.000 14.000 11.000 L 14.520 11.000 14.520 14.000 " fill="#000000" stroke="none" fill-rule="evenodd"></path></svg>