<svg viewBox="0 0 24 24" xmlns="http://www.w3.org/2000/svg" fill="none" stroke="#000000" stroke-width="2" stroke-linecap="round" stroke-linejoin="round"><path d="M9.499 1.042 C 8.385 1.234,7.470 2.041,7.118 3.140 C 7.042 3.379,7.026 3.536,7.010 4.210 L 6.991 5.000 4.942 5.000 C 2.718 5.000,2.666 5.004,2.382 5.221 C 2.302 5.282,2.187 5.415,2.128 5.516 C 2.037 5.672,2.020 5.746,2.020 6.000 C 2.020 6.256,2.036 6.328,2.131 6.489 C 2.256 6.702,2.449 6.864,2.670 6.943 C 2.768 6.978,3.023 6.997,3.409 6.998 L 3.998 7.000 4.009 13.790 L 4.020 20.580 4.114 20.860 C 4.446 21.851,5.184 22.582,6.160 22.886 L 6.460 22.980 12.000 22.980 L 17.540 22.980 17.840 22.886 C 18.816 22.582,19.554 21.851,19.886 20.860 L 19.980 20.580 19.991 13.790 L 20.002 7.000 20.591 6.998 C 20.977 6.997,21.232 6.978,21.330 6.943 C 21.551 6.864,21.744 6.702,21.869 6.489 C 21.964 6.328,21.980 6.256,21.980 6.000 C 21.980 5.746,21.963 5.672,21.872 5.516 C 21.813 5.415,21.698 5.282,21.618 5.221 C 21.334 5.004,21.282 5.000,19.058 5.000 L 17.009 5.000 16.990 4.210 C 16.974 3.536,16.958 3.379,16.882 3.140 C 16.573 2.174,15.820 1.422,14.861 1.122 L 14.540 1.022 12.120 1.015 C 10.789 1.011,9.609 1.023,9.499 1.042 M14.310 3.061 C 14.452 3.103,14.571 3.178,14.697 3.303 C 14.948 3.554,15.000 3.751,15.000 4.447 L 15.000 5.000 12.000 5.000 L 9.000 5.000 9.000 4.447 C 9.000 3.750,9.052 3.554,9.304 3.303 C 9.604 3.002,9.569 3.006,11.983 3.003 C 13.772 3.000,14.138 3.010,14.310 3.061 M18.000 13.554 C 18.000 18.991,17.991 20.138,17.945 20.290 C 17.872 20.533,17.707 20.740,17.484 20.872 L 17.300 20.980 12.000 20.980 L 6.700 20.980 6.516 20.872 C 6.415 20.813,6.284 20.700,6.225 20.623 C 5.986 20.310,6.000 20.743,6.000 13.575 L 6.000 7.000 12.000 7.000 L 18.000 7.000 18.000 13.554 M9.650 10.066 C 9.171 10.236,8.882 10.844,9.054 11.320 C 9.082 11.397,9.486 12.032,9.953 12.730 L 10.801 14.000 9.953 15.270 C 9.486 15.968,9.082 16.603,9.054 16.680 C 8.900 17.106,9.096 17.625,9.499 17.862 C 9.836 18.059,10.299 18.028,10.616 17.786 C 10.685 17.733,11.018 17.274,11.356 16.765 C 11.695 16.256,11.985 15.840,12.000 15.840 C 12.015 15.840,12.305 16.256,12.644 16.765 C 12.982 17.274,13.315 17.733,13.384 17.786 C 13.701 18.028,14.164 18.059,14.501 17.862 C 14.907 17.624,15.096 17.123,14.943 16.690 C 14.912 16.601,14.507 15.960,14.043 15.265 L 13.199 14.000 14.043 12.735 C 14.507 12.040,14.912 11.399,14.943 11.310 C 15.211 10.551,14.442 9.791,13.678 10.061 C 13.583 10.094,13.450 10.164,13.382 10.216 C 13.315 10.267,12.982 10.726,12.644 11.235 C 12.305 11.744,12.015 12.160,12.000 12.160 C 11.985 12.160,11.695 11.744,11.356 11.235 C 11.018 10.726,10.685 10.267,10.618 10.216 C 10.346 10.008,9.976 9.951,9.650 10.066 " stroke="none" fill-rule="evenodd" fill="black"></path></svg>