<svg viewBox="0 0 24 24" xmlns="http://www.w3.org/2000/svg" fill="none" stroke="#000000" stroke-width="2" stroke-linecap="round" stroke-linejoin="round"><path d="M11.667 1.065 C 11.258 1.191,11.580 0.584,6.085 11.582 C 1.822 20.116,1.027 21.733,1.010 21.906 C 0.968 22.347,1.250 22.794,1.660 22.934 C 1.839 22.995,2.660 23.000,12.017 22.998 C 20.403 22.997,22.206 22.987,22.330 22.943 C 22.551 22.864,22.744 22.702,22.869 22.489 C 22.963 22.329,22.980 22.255,22.980 22.011 L 22.980 21.721 17.920 11.593 C 13.761 3.268,12.831 1.435,12.697 1.298 C 12.427 1.023,12.068 0.942,11.667 1.065 M16.190 12.620 C 18.484 17.207,20.360 20.969,20.360 20.980 C 20.360 20.991,18.704 21.000,16.681 21.000 L 13.002 21.000 12.991 17.350 L 12.980 13.700 12.871 13.514 C 12.648 13.134,12.208 12.941,11.786 13.035 C 11.515 13.096,11.270 13.275,11.129 13.514 L 11.020 13.700 11.009 17.350 L 10.998 21.000 7.319 21.000 C 5.296 21.000,3.640 20.991,3.640 20.980 C 3.640 20.941,11.980 4.280,12.000 4.280 C 12.011 4.280,13.897 8.033,16.190 12.620 " stroke="none" fill-rule="evenodd" fill="black"></path></svg>