<svg xmlns="http://www.w3.org/2000/svg" width="24" height="24" viewBox="0 0 24 24" version="1.1">
	<path d="M 11.500 4.130 C 10.400 4.186, 8.713 4.438, 7.750 4.689 C 6.690 4.966, 6 6.103, 6 7.573 C 6 8.908, 5.550 10, 5 10 C 4.450 10, 4 10.421, 4 10.937 C 4 11.452, 5.462 12.014, 7.250 12.187 C 10.419 12.492, 10.508 12.630, 10.802 17.750 C 10.969 20.638, 11.507 23, 12 23 C 12.493 23, 13.031 20.638, 13.198 17.750 C 13.492 12.630, 13.581 12.492, 16.750 12.187 C 18.538 12.014, 20 11.452, 20 10.937 C 20 10.421, 19.550 10, 19 10 C 18.450 10, 18 8.927, 18 7.617 C 18 5.990, 17.285 5.042, 15.750 4.630 C 14.512 4.299, 12.600 4.073, 11.500 4.130 M 12 6 C 10.133 6, 9.867 6.267, 10.800 7.200 C 11.733 8.133, 12.267 8.133, 13.200 7.200 C 14.133 6.267, 13.867 6, 12 6" stroke="none" fill="black" fill-rule="evenodd"/>
</svg>