<svg viewBox="0 0 24 24" xmlns="http://www.w3.org/2000/svg" fill="none" stroke="#000000" stroke-width="2" stroke-linecap="round" stroke-linejoin="round"><path d="M11.240 4.043 C 10.218 4.151,9.135 4.539,8.277 5.105 L 7.990 5.294 7.565 5.146 C 7.091 4.982,6.988 4.972,6.684 5.063 C 6.300 5.176,6.000 5.588,6.000 6.000 C 6.000 6.246,6.119 6.521,6.307 6.709 L 6.481 6.883 6.301 7.194 C 5.990 7.733,5.941 7.972,6.066 8.340 C 6.192 8.709,6.604 9.000,7.000 9.000 C 7.201 9.000,7.481 8.898,7.636 8.769 C 7.708 8.709,7.878 8.471,8.014 8.240 C 8.151 8.009,8.293 7.815,8.330 7.808 C 8.426 7.789,9.134 8.511,9.372 8.869 C 9.605 9.221,9.937 9.837,9.908 9.865 C 9.896 9.877,9.755 9.839,9.594 9.780 C 8.031 9.216,6.236 9.313,4.692 10.046 C 4.327 10.219,4.159 10.387,4.061 10.675 C 3.840 11.325,4.329 12.002,5.017 11.999 C 5.112 11.999,5.322 11.939,5.520 11.856 C 6.364 11.502,6.979 11.377,7.680 11.415 C 8.889 11.480,9.962 12.041,10.773 13.031 L 10.999 13.307 11.009 17.807 L 11.020 22.306 11.141 22.503 C 11.543 23.156,12.457 23.156,12.859 22.503 L 12.980 22.306 12.991 17.807 L 13.001 13.307 13.227 13.031 C 14.039 12.038,15.108 11.480,16.320 11.415 C 17.021 11.377,17.636 11.502,18.480 11.856 C 18.861 12.016,19.049 12.033,19.340 11.934 C 19.709 11.808,20.000 11.396,20.000 11.000 C 20.000 10.583,19.778 10.277,19.312 10.051 C 17.796 9.315,15.972 9.215,14.406 9.780 C 14.245 9.839,14.104 9.877,14.092 9.865 C 14.063 9.837,14.395 9.221,14.628 8.869 C 14.866 8.511,15.574 7.789,15.670 7.808 C 15.707 7.815,15.849 8.009,15.986 8.240 C 16.258 8.700,16.401 8.845,16.674 8.939 C 17.458 9.206,18.213 8.454,17.939 7.677 C 17.906 7.582,17.797 7.365,17.699 7.194 L 17.519 6.883 17.693 6.709 C 18.300 6.102,17.946 5.115,17.084 5.013 C 16.916 4.993,16.811 5.014,16.446 5.141 L 16.010 5.294 15.723 5.105 C 14.435 4.256,12.822 3.874,11.240 4.043 M12.601 6.042 C 12.787 6.065,13.048 6.111,13.180 6.143 C 13.468 6.214,14.080 6.441,14.080 6.477 C 14.080 6.491,14.003 6.567,13.909 6.646 C 13.336 7.125,12.510 8.363,12.118 9.330 C 12.067 9.457,12.014 9.560,12.000 9.560 C 11.986 9.560,11.933 9.457,11.882 9.330 C 11.490 8.363,10.664 7.125,10.091 6.646 C 9.997 6.567,9.920 6.491,9.920 6.477 C 9.920 6.441,10.531 6.214,10.824 6.142 C 11.364 6.008,12.024 5.971,12.601 6.042 " stroke="none" fill-rule="evenodd" fill="black"></path></svg>