<svg xmlns="http://www.w3.org/2000/svg" width="24" height="24" viewBox="0 0 24 24" version="1.1">
	<path d="M 7.656 4.133 C 6.642 4.722, 5.183 6.712, 4.413 8.554 C 2.622 12.840, 3.884 16.458, 7.985 18.791 C 9.636 19.731, 10.990 21.063, 10.994 21.750 C 10.997 22.438, 11.450 23, 12 23 C 12.550 23, 13.003 22.438, 13.006 21.750 C 13.010 21.063, 14.364 19.731, 16.015 18.791 C 20.124 16.454, 21.378 12.841, 19.578 8.533 C 17.451 3.443, 12.186 1.500, 7.656 4.133 M 8 7 C 5.617 9.383, 5.458 10.855, 7.500 11.638 C 9.555 12.427, 9.392 13.993, 7.250 14.033 C 5.782 14.061, 5.880 14.383, 7.861 16.033 C 10.708 18.406, 12.820 18.515, 15.777 16.443 C 18.606 14.462, 18.718 9.718, 16 7 C 13.454 4.454, 10.546 4.454, 8 7" stroke="none" fill="#000000" fill-rule="evenodd"/>
</svg>