<svg xmlns="http://www.w3.org/2000/svg" width="24" height="24" viewBox="0 0 24 24" version="1.1">
	<path d="M 11.816 3.030 C 10.542 3.047, 8.670 3.543, 7.656 4.133 C 6.642 4.722, 5.183 6.712, 4.413 8.554 C 3.403 10.971, 3.287 12.626, 3.998 14.493 C 4.539 15.918, 6.333 17.852, 7.985 18.791 C 9.636 19.731, 10.990 21.063, 10.994 21.750 C 10.997 22.438, 11.450 23, 12 23 C 12.550 23, 13.003 22.438, 13.006 21.750 C 13.010 21.063, 14.364 19.731, 16.015 18.791 C 17.667 17.852, 19.461 15.918, 20.002 14.493 C 20.714 12.623, 20.596 10.968, 19.578 8.533 C 18.803 6.678, 17.261 4.675, 16.150 4.080 C 15.040 3.486, 13.089 3.014, 11.816 3.030 M 12 5 C 10.900 5, 9.100 5.900, 8 7 C 6.900 8.100, 6 9.464, 6 10.031 C 6 10.599, 6.675 11.322, 7.500 11.638 C 8.325 11.955, 9 12.616, 9 13.107 C 9 13.598, 8.213 14.015, 7.250 14.033 C 5.782 14.061, 5.880 14.383, 7.861 16.033 C 9.159 17.115, 10.972 18, 11.888 18 C 12.805 18, 14.555 17.299, 15.777 16.443 C 17.218 15.434, 18 13.851, 18 11.943 C 18 10.324, 17.100 8.100, 16 7 C 14.900 5.900, 13.100 5, 12 5" stroke="none" fill="black" fill-rule="evenodd"/>
</svg>