<svg xmlns="http://www.w3.org/2000/svg" width="24" height="24" viewBox="0 0 24 24" version="1.1">
	<path d="M 16 6 C 16 6.550, 16.988 7, 18.196 7 C 20.230 7, 20.142 7.259, 17 10.500 L 13.609 13.999 11.006 11.506 L 8.404 9.013 4.014 13.485 C -1.296 18.896, -0.543 20.913, 4.828 15.668 L 8.619 11.966 11.002 14.502 L 13.385 17.039 17.692 12.811 C 21.526 9.049, 22 8.827, 22 10.792 C 22 12.006, 22.450 13, 23 13 C 23.550 13, 24 11.200, 24 9 L 24 5 20 5 C 17.800 5, 16 5.450, 16 6" stroke="none" fill="#000000" fill-rule="evenodd"/>
</svg>