<svg xmlns="http://www.w3.org/2000/svg" width="24" height="24" viewBox="0 0 24 24" version="1.1">
	<path d="M 0.708 5 C 0.319 5, 0 5.320, 0 5.712 C 0 6.104, 1.891 8.351, 4.202 10.706 L 8.404 14.987 11.006 12.494 L 13.609 10.001 17 13.500 C 20.142 16.741, 20.230 17, 18.196 17 C 16.988 17, 16 17.450, 16 18 C 16 18.550, 17.800 19, 20 19 L 24 19 24 15 C 24 12.800, 23.550 11, 23 11 C 22.450 11, 22 11.994, 22 13.208 C 22 15.173, 21.526 14.951, 17.692 11.189 L 13.385 6.961 11.002 9.498 L 8.619 12.034 5.017 8.517 C 3.036 6.583, 1.097 5, 0.708 5" stroke="none" fill="black" fill-rule="evenodd"/>
</svg>