<svg viewBox="0 0 24 24" xmlns="http://www.w3.org/2000/svg" fill="none" stroke="#000000" stroke-width="2" stroke-linecap="round" stroke-linejoin="round"><path d="M2.499 2.043 C 1.379 2.233,0.461 3.048,0.114 4.160 L 0.020 4.460 0.020 9.500 L 0.020 14.540 0.114 14.840 C 0.298 15.430,0.607 15.890,1.109 16.323 C 1.371 16.548,1.848 16.804,2.156 16.883 C 2.318 16.924,2.357 16.949,2.334 16.998 C 2.231 17.226,2.076 17.748,2.037 18.001 C 1.937 18.636,2.070 19.465,2.366 20.052 C 2.936 21.185,4.044 21.916,5.300 21.987 C 5.984 22.026,6.625 21.876,7.240 21.531 C 7.709 21.268,8.268 20.709,8.531 20.240 C 9.085 19.251,9.146 18.129,8.701 17.072 C 8.675 17.008,8.859 17.003,11.626 16.992 L 14.580 16.980 14.940 16.853 C 15.245 16.746,15.309 16.735,15.356 16.781 C 15.405 16.828,15.398 16.869,15.309 17.068 C 15.084 17.569,15.021 17.892,15.024 18.520 C 15.027 19.029,15.040 19.143,15.134 19.452 C 15.317 20.054,15.560 20.476,15.978 20.915 C 16.906 21.890,18.283 22.236,19.588 21.821 C 20.604 21.498,21.497 20.606,21.820 19.591 C 22.089 18.745,22.049 17.898,21.702 17.073 C 21.676 17.012,21.745 17.005,22.487 16.993 C 23.293 16.980,23.302 16.979,23.489 16.869 C 23.702 16.744,23.864 16.551,23.943 16.330 C 23.986 16.211,23.997 15.637,23.998 13.517 C 24.000 11.158,23.993 10.832,23.935 10.657 C 23.876 10.480,23.700 10.290,22.225 8.816 C 21.152 7.743,20.524 7.146,20.420 7.096 C 20.272 7.026,20.134 7.019,18.633 7.008 L 17.007 6.997 16.991 5.708 C 16.976 4.498,16.969 4.403,16.884 4.140 C 16.566 3.167,15.822 2.425,14.861 2.121 L 14.540 2.020 8.620 2.014 C 5.364 2.011,2.609 2.024,2.499 2.043 M14.310 4.061 C 14.589 4.144,14.856 4.411,14.939 4.690 C 14.992 4.868,15.000 5.494,15.000 9.501 C 15.000 14.501,15.008 14.318,14.779 14.618 C 14.718 14.698,14.585 14.813,14.484 14.872 L 14.300 14.980 8.500 14.980 L 2.700 14.980 2.516 14.872 C 2.303 14.747,2.141 14.550,2.058 14.316 C 1.969 14.061,1.971 4.992,2.061 4.690 C 2.140 4.421,2.412 4.143,2.673 4.063 C 2.963 3.974,14.010 3.972,14.310 4.061 M20.790 10.210 L 22.000 11.420 22.000 13.210 L 22.000 15.000 19.500 15.000 L 17.000 15.000 17.000 12.000 L 17.000 9.000 18.290 9.000 L 19.580 9.000 20.790 10.210 M6.119 17.143 C 6.417 17.279,6.727 17.592,6.865 17.896 C 6.960 18.105,6.976 18.192,6.976 18.500 C 6.976 18.808,6.960 18.895,6.865 19.104 C 6.725 19.413,6.417 19.720,6.100 19.868 C 5.893 19.965,5.810 19.980,5.500 19.980 C 5.190 19.980,5.107 19.965,4.900 19.868 C 4.583 19.720,4.275 19.413,4.135 19.104 C 4.040 18.896,4.024 18.808,4.024 18.500 C 4.023 18.191,4.039 18.106,4.134 17.900 C 4.327 17.478,4.749 17.129,5.174 17.039 C 5.441 16.982,5.870 17.030,6.119 17.143 M19.119 17.143 C 19.417 17.279,19.727 17.592,19.865 17.896 C 19.960 18.105,19.976 18.192,19.976 18.500 C 19.976 18.808,19.960 18.895,19.865 19.104 C 19.725 19.413,19.417 19.720,19.100 19.868 C 18.893 19.965,18.810 19.980,18.500 19.980 C 18.190 19.980,18.107 19.965,17.900 19.868 C 17.583 19.720,17.275 19.413,17.135 19.104 C 17.040 18.896,17.024 18.808,17.024 18.500 C 17.023 18.191,17.039 18.106,17.134 17.900 C 17.327 17.478,17.749 17.129,18.174 17.039 C 18.441 16.982,18.870 17.030,19.119 17.143 " stroke="none" fill="black" fill-rule="evenodd"></path></svg>