<svg xmlns="http://www.w3.org/2000/svg" width="24" height="24" viewBox="0 0 24 24" version="1.1">
	<path d="M 8.955 2.212 C 4.805 2.053, 1.093 2.241, 0.705 2.628 C 0.317 3.016, 0.033 6.071, 0.073 9.417 C 0.120 13.303, 0.781 16.584, 1.904 18.500 C 2.889 20.180, 4.507 21.500, 5.581 21.500 C 6.637 21.500, 7.944 20.488, 8.487 19.250 C 9.136 17.771, 10.340 17, 12 17 C 13.660 17, 14.864 17.771, 15.513 19.250 C 16.056 20.488, 17.351 21.500, 18.391 21.500 C 19.431 21.500, 20.781 20.619, 21.391 19.542 C 22.001 18.465, 23.063 16.971, 23.750 16.221 C 24.526 15.374, 24.943 12.324, 24.850 8.179 C 24.714 2.146, 24.642 1.927, 24.100 5.916 C 23.568 9.836, 23.346 10.145, 22.128 8.666 C 21.373 7.750, 19.942 7, 18.947 7 C 17.833 7, 17.016 6.136, 16.820 4.750 C 16.525 2.674, 15.916 2.478, 8.955 2.212 M 0.722 5.728 C 0.501 3.952, 0.324 5.650, 0.328 9.500 C 0.333 13.350, 0.513 14.802, 0.730 12.728 C 0.946 10.653, 0.943 7.503, 0.722 5.728 M 8.500 4 C 2.233 4, 2 4.090, 2 6.500 C 2 8.690, 2.433 9, 5.500 9 C 7.425 9, 9 9.450, 9 10 C 9 10.550, 7.425 11, 5.500 11 C 2.667 11, 2 11.381, 2 13 C 2 14.795, 2.667 15, 8.500 15 L 15 15 15 9.500 L 15 4 8.500 4 M 18.300 9 C 17.522 9, 17 10.205, 17 12 C 17 14.533, 17.389 15, 19.500 15 C 21.241 15, 22 14.453, 22 13.200 C 22 12.210, 21.460 10.860, 20.800 10.200 C 20.140 9.540, 19.015 9, 18.300 9 M 6.085 17.553 C 5.564 17.231, 4.875 17.394, 4.553 17.915 C 4.231 18.436, 4.394 19.125, 4.915 19.447 C 5.436 19.769, 6.125 19.606, 6.447 19.085 C 6.769 18.564, 6.606 17.875, 6.085 17.553 M 19.085 17.553 C 18.564 17.231, 17.875 17.394, 17.553 17.915 C 17.231 18.436, 17.394 19.125, 17.915 19.447 C 18.436 19.769, 19.125 19.606, 19.447 19.085 C 19.769 18.564, 19.606 17.875, 19.085 17.553" stroke="none" fill="black" fill-rule="evenodd"/>
</svg>