<svg xmlns="http://www.w3.org/2000/svg" width="24" height="24" viewBox="0 0 24 24" version="1.1">
	<path d="M 12.250 9.119 C 9.465 9.207, 7.777 10.010, 5.690 12.241 C 4.144 13.893, 3.122 15.874, 3.417 16.645 C 3.713 17.415, 4.699 18.331, 5.610 18.681 C 6.520 19.030, 8.105 18.791, 9.132 18.149 C 10.180 17.495, 11 17.404, 11 17.942 C 11 18.469, 10.216 19.339, 9.258 19.875 C 8.300 20.411, 7.831 21.164, 8.215 21.549 C 8.599 21.933, 9.651 21.964, 10.552 21.618 C 11.453 21.273, 12.425 20.092, 12.712 18.995 C 13 17.893, 14.076 17, 15.117 17 C 16.152 17, 17 17.428, 17 17.950 C 17 18.473, 16.216 19.339, 15.258 19.875 C 14.300 20.411, 13.872 21.205, 14.306 21.640 C 14.741 22.074, 15.862 21.947, 16.798 21.357 C 17.734 20.768, 18.665 19.434, 18.866 18.393 C 19.067 17.352, 19.695 16.208, 20.261 15.851 C 20.828 15.494, 20.999 14.439, 20.641 13.506 C 20.283 12.573, 19.092 11.575, 17.995 11.288 C 16.898 11.001, 16 10.369, 16 9.883 C 16 9.398, 14.313 9.053, 12.250 9.119 M 9.059 13 C 8.541 13, 7.843 13.445, 7.507 13.989 C 7.157 14.555, 7.558 14.723, 8.448 14.382 C 9.302 14.054, 10 13.609, 10 13.393 C 10 13.177, 9.577 13, 9.059 13" stroke="none" fill="black" fill-rule="evenodd"/>
</svg>