<svg xmlns="http://www.w3.org/2000/svg" width="24" height="24" viewBox="0 0 24 24" version="1.1">
	<path d="M 5.690 12.241 C 4.144 13.893, 3.122 15.874, 3.417 16.645 C 4.219 18.734, 7.017 19.470, 9.132 18.149 C 10.180 17.495, 11 17.404, 11 17.942 C 11 18.469, 10.216 19.339, 9.258 19.875 C 8.300 20.411, 7.831 21.164, 8.215 21.549 C 9.372 22.706, 12.154 21.126, 12.712 18.995 C 13 17.893, 14.076 17, 15.117 17 C 17.480 17, 17.558 18.588, 15.258 19.875 C 14.300 20.411, 13.872 21.205, 14.306 21.640 C 15.434 22.767, 18.433 20.632, 18.866 18.393 C 19.067 17.352, 19.695 16.208, 20.261 15.851 C 21.784 14.891, 20.293 11.889, 17.995 11.288 C 16.898 11.001, 16 10.369, 16 9.883 C 16 9.398, 14.313 9.053, 12.250 9.119 C 9.465 9.207, 7.777 10.010, 5.690 12.241 M 7.507 13.989 C 7.157 14.555, 7.558 14.723, 8.448 14.382 C 10.180 13.717, 10.497 13, 9.059 13 C 8.541 13, 7.843 13.445, 7.507 13.989" stroke="none" fill="black" fill-rule="evenodd"/>
</svg>