<svg xmlns="http://www.w3.org/2000/svg" width="24" height="24" viewBox="0 0 24 24" version="1.1">
	<path d="M 6.686 1 C 6.308 1, 6 1.395, 6 1.878 C 6 2.360, 6.749 3.373, 7.665 4.128 C 9.148 5.350, 8.902 5.555, 5.415 6 L 1.500 6.500 1.500 14.500 L 1.500 22.500 12 22.500 L 22.500 22.500 22.500 14.500 L 22.500 6.500 18.655 6.184 C 14.918 5.877, 14.859 5.813, 16.565 3.928 C 17.531 2.861, 18.022 1.689, 17.657 1.323 C 17.291 0.958, 15.869 1.714, 14.496 3.004 L 12 5.349 9.686 3.174 C 8.413 1.978, 7.063 1, 6.686 1 M 12 8 L 3 8 3 14.500 L 3 21 12 21 L 21 21 21 14.500 L 21 8 12 8" stroke="none" fill="black" fill-rule="evenodd"/>
</svg>