<svg xmlns="http://www.w3.org/2000/svg" width="24" height="24" viewBox="0 0 24 24" version="1.1">
	<path d="M 12 1 L 2 1 2 10 C 2 18.933, 2.019 19, 4.500 19 C 6.333 19, 7 19.533, 7 21 C 7 22.100, 7.380 23, 7.845 23 C 8.310 23, 9.505 22.100, 10.500 21 C 11.495 19.900, 13.512 19, 14.981 19 C 16.479 19, 18.606 17.984, 19.826 16.686 C 21.610 14.786, 22 13.173, 22 7.686 L 22 1 12 1 M 12 3 L 4 3 4 10 C 4 16.800, 4.071 17, 6.500 17 C 7.875 17, 9 17.540, 9 18.200 C 9 19.133, 9.267 19.133, 10.200 18.200 C 10.860 17.540, 12.590 17, 14.045 17 C 15.500 17, 17.435 16.177, 18.345 15.171 C 19.436 13.966, 20 11.580, 20 8.171 L 20 3 12 3 M 11 6 C 10.450 6, 10 7.350, 10 9 C 10 10.650, 10.450 12, 11 12 C 11.550 12, 12 10.650, 12 9 C 12 7.350, 11.550 6, 11 6 M 16 6 C 15.450 6, 15 7.350, 15 9 C 15 10.650, 15.450 12, 16 12 C 16.550 12, 17 10.650, 17 9 C 17 7.350, 16.550 6, 16 6" stroke="none" fill="black" fill-rule="evenodd"/>
</svg>