<svg xmlns="http://www.w3.org/2000/svg" width="24" height="24" viewBox="0 0 24 24" version="1.1">
	<path d="M 12.146 4.541 C 9.780 7.549, 9.014 7.585, 5.537 4.850 C 3.281 3.076, 2.648 2.945, 1.917 4.100 C 0.388 6.514, 0.918 11.627, 2.967 14.231 C 5.079 16.916, 4.753 18, 1.833 18 C -0.798 18, -0.425 19.485, 2.547 20.839 C 11.041 24.709, 22 17.940, 22 8.825 C 22 7.336, 22.450 5.840, 23 5.500 C 25.515 3.946, 23.716 2.488, 19.040 2.291 C 14.827 2.113, 13.790 2.452, 12.146 4.541 M 14.200 5.200 C 13.540 5.860, 13 6.958, 13 7.641 C 13 9.818, 11.191 10.106, 7.422 8.532 C 2.832 6.614, 3 6.593, 3 9.099 C 3 10.253, 4.448 12.550, 6.217 14.203 C 9.360 17.139, 9.389 17.244, 7.467 18.724 C 5.635 20.136, 5.770 20.200, 9.450 19.650 C 14.543 18.890, 18.858 14.650, 19.677 9.600 C 20.469 4.721, 17.259 2.141, 14.200 5.200" stroke="none" fill="#000000" fill-rule="evenodd"/>
</svg>