<svg xmlns="http://www.w3.org/2000/svg" width="24" height="24" viewBox="0 0 24 24" version="1.1">
	<path d="M 19.040 2.291 C 14.827 2.113, 13.790 2.452, 12.146 4.541 C 11.083 5.893, 9.775 7, 9.241 7 C 8.707 7, 7.040 6.033, 5.537 4.850 C 3.281 3.076, 2.648 2.945, 1.917 4.100 C 1.429 4.870, 1.024 6.902, 1.015 8.615 C 1.007 10.328, 1.885 12.856, 2.967 14.231 C 4.049 15.607, 4.649 17.017, 4.301 17.366 C 3.952 17.715, 2.842 18, 1.833 18 C 0.825 18, 0 18.378, 0 18.839 C 0 19.301, 1.146 20.201, 2.547 20.839 C 3.948 21.478, 6.542 22, 8.313 22 C 10.083 22, 13.064 21.178, 14.938 20.173 C 16.812 19.168, 19.168 16.812, 20.173 14.938 C 21.178 13.064, 22 10.313, 22 8.825 C 22 7.336, 22.450 5.840, 23 5.500 C 23.550 5.160, 24 4.346, 24 3.691 C 23.999 2.958, 22.092 2.420, 19.040 2.291 M 16.450 4.015 C 15.873 4.007, 14.860 4.540, 14.200 5.200 C 13.540 5.860, 13 6.958, 13 7.641 C 13 8.324, 12.570 9.148, 12.044 9.473 C 11.518 9.798, 9.438 9.374, 7.422 8.532 C 5.406 7.689, 3.586 7, 3.378 7 C 3.170 7, 3 7.944, 3 9.099 C 3 10.253, 4.448 12.550, 6.217 14.203 C 9.360 17.139, 9.389 17.244, 7.467 18.724 C 5.635 20.136, 5.770 20.200, 9.450 19.650 C 11.893 19.286, 14.481 17.981, 16.231 16.231 C 17.894 14.568, 19.315 11.834, 19.677 9.600 C 20.116 6.898, 19.890 5.544, 18.897 4.915 C 18.129 4.429, 17.027 4.024, 16.450 4.015" stroke="none" fill="black" fill-rule="evenodd"/>
</svg>