<svg xmlns="http://www.w3.org/2000/svg" width="24" height="24" viewBox="0 0 24 24" version="1.1">
	<path d="M 3 5.500 C 3 6.875, 3.450 8, 4 8 C 4.550 8, 5 7.325, 5 6.500 C 5 5.500, 6 5, 8 5 L 11 5 11 12 C 11 17.556, 10.690 19, 9.500 19 C 8.675 19, 8 19.450, 8 20 C 8 20.550, 9.800 21, 12 21 C 14.200 21, 16 20.550, 16 20 C 16 19.450, 15.325 19, 14.500 19 C 13.310 19, 13 17.556, 13 12 L 13 5 16 5 C 18 5, 19 5.500, 19 6.500 C 19 7.325, 19.450 8, 20 8 C 20.550 8, 21 6.875, 21 5.500 C 21 3.019, 20.933 3, 12 3 C 3.067 3, 3 3.019, 3 5.500" stroke="none" fill="#000000" fill-rule="evenodd"/>
</svg>