<svg xmlns="http://www.w3.org/2000/svg" width="24" height="24" viewBox="0 0 24 24" version="1.1">
	<path d="M 12 5 C 8.603 5, 7 5.411, 7 6.281 C 7 6.985, 5.650 8.071, 4 8.694 C 2.025 9.439, 1 10.519, 1 11.854 C 1 12.969, 1.476 14.176, 2.059 14.536 C 2.666 14.911, 2.845 16.429, 2.479 18.095 C 2.088 19.876, 2.251 21, 2.901 21 C 3.485 21, 4.251 19.848, 4.604 18.440 C 5.032 16.737, 5.735 16.068, 6.705 16.440 C 7.507 16.748, 8.802 17, 9.582 17 C 10.428 17, 11 18.009, 11 19.500 C 11 20.875, 11.450 22, 12 22 C 12.550 22, 13 20.875, 13 19.500 C 13 18.009, 13.572 17, 14.418 17 C 15.198 17, 16.493 16.748, 17.295 16.440 C 18.265 16.068, 18.968 16.737, 19.396 18.440 C 19.749 19.848, 20.515 21, 21.099 21 C 21.749 21, 21.912 19.876, 21.521 18.095 C 21.155 16.429, 21.334 14.911, 21.941 14.536 C 22.524 14.176, 23 12.969, 23 11.854 C 23 10.519, 21.975 9.439, 20 8.694 C 18.350 8.071, 17 6.985, 17 6.281 C 17 5.411, 15.397 5, 12 5 M 12 9 C 10.133 9, 9.867 9.267, 10.800 10.200 C 11.733 11.133, 12.267 11.133, 13.200 10.200 C 14.133 9.267, 13.867 9, 12 9 M 6.628 10.015 C 6.007 10.024, 4.838 10.449, 4.029 10.961 C 3.220 11.473, 2.770 12.050, 3.029 12.243 C 3.288 12.437, 4.759 13.136, 6.297 13.798 C 7.835 14.459, 10.278 15, 11.726 15 C 13.174 15, 15.852 14.460, 17.679 13.799 C 19.506 13.139, 21 12.269, 21 11.866 C 21 11.464, 20.068 10.839, 18.928 10.477 C 17.644 10.070, 16.189 10.424, 15.100 11.410 C 14.133 12.284, 12.646 13, 11.794 13 C 10.942 13, 9.685 12.325, 9 11.500 C 8.315 10.675, 7.248 10.007, 6.628 10.015" stroke="none" fill="black" fill-rule="evenodd"/>
</svg>