<svg xmlns="http://www.w3.org/2000/svg" width="24" height="24" viewBox="0 0 24 24" version="1.1">
	<path d="M 7 6.281 C 7 6.985, 5.650 8.071, 4 8.694 C 0.962 9.841, -0.146 13.174, 2.059 14.536 C 2.666 14.911, 2.845 16.429, 2.479 18.095 C 1.679 21.736, 3.695 22.063, 4.604 18.440 C 5.032 16.737, 5.735 16.068, 6.705 16.440 C 7.507 16.748, 8.802 17, 9.582 17 C 10.428 17, 11 18.009, 11 19.500 C 11 20.875, 11.450 22, 12 22 C 12.550 22, 13 20.875, 13 19.500 C 13 18.009, 13.572 17, 14.418 17 C 15.198 17, 16.493 16.748, 17.295 16.440 C 18.265 16.068, 18.968 16.737, 19.396 18.440 C 20.305 22.063, 22.321 21.736, 21.521 18.095 C 21.155 16.429, 21.334 14.911, 21.941 14.536 C 24.146 13.174, 23.038 9.841, 20 8.694 C 18.350 8.071, 17 6.985, 17 6.281 C 17 5.411, 15.397 5, 12 5 C 8.603 5, 7 5.411, 7 6.281 M 10.800 10.200 C 11.733 11.133, 12.267 11.133, 13.200 10.200 C 14.133 9.267, 13.867 9, 12 9 C 10.133 9, 9.867 9.267, 10.800 10.200 M 4.029 10.961 C 2.356 12.019, 2.459 12.148, 6.297 13.798 C 9.846 15.323, 13.463 15.324, 17.679 13.799 C 21.500 12.418, 21.877 11.413, 18.928 10.477 C 17.644 10.070, 16.189 10.424, 15.100 11.410 C 12.894 13.406, 10.610 13.440, 9 11.500 C 7.576 9.784, 6.136 9.628, 4.029 10.961" stroke="none" fill="black" fill-rule="evenodd"/>
</svg>