<svg xmlns="http://www.w3.org/2000/svg" width="24" height="24" viewBox="0 0 24 24" version="1.1">
	<path d="M 12 1 C 10.052 1, 8.002 1.907, 6.455 3.455 C 5.105 4.805, 4 6.605, 4 7.455 C 4 8.305, 3.325 9, 2.500 9 C 1.675 9, 1 9.450, 1 10 C 1 10.550, 3.250 11, 6 11 C 8.750 11, 11 11.412, 11 11.917 C 11 12.421, 10.438 13.096, 9.750 13.417 C 8.750 13.883, 8.750 14.117, 9.750 14.583 C 10.438 14.904, 11 15.749, 11 16.461 C 11 17.173, 10.325 18.315, 9.500 19 C 8.675 19.685, 8 20.571, 8 20.969 C 8 21.367, 9.800 21.692, 12 21.692 C 14.200 21.692, 16 21.367, 16 20.969 C 16 20.571, 15.325 19.685, 14.500 19 C 13.675 18.315, 13 17.173, 13 16.461 C 13 15.749, 13.563 14.904, 14.250 14.583 C 15.250 14.117, 15.250 13.883, 14.250 13.417 C 13.563 13.096, 13 12.421, 13 11.917 C 13 11.412, 15.250 11, 18 11 C 20.750 11, 23 10.550, 23 10 C 23 9.450, 22.325 9, 21.500 9 C 20.675 9, 20 8.305, 20 7.455 C 20 6.605, 18.895 4.805, 17.545 3.455 C 15.998 1.907, 13.948 1, 12 1 M 12 3 C 10.900 3, 9.100 3.900, 8 5 C 6.900 6.100, 6 7.450, 6 8 C 6 8.556, 8.667 9, 12 9 C 15.333 9, 18 8.556, 18 8 C 18 7.450, 17.100 6.100, 16 5 C 14.900 3.900, 13.100 3, 12 3" stroke="none" fill="black" fill-rule="evenodd"/>
</svg>