<svg xmlns="http://www.w3.org/2000/svg" width="24" height="24" viewBox="0 0 24 24" version="1.1">
	<path d="M 6.455 3.455 C 5.105 4.805, 4 6.605, 4 7.455 C 4 8.305, 3.325 9, 2.500 9 C 1.675 9, 1 9.450, 1 10 C 1 10.550, 3.250 11, 6 11 C 10.733 11, 12.495 12.136, 9.750 13.417 C 8.750 13.883, 8.750 14.117, 9.750 14.583 C 11.445 15.374, 11.325 17.485, 9.500 19 C 7.090 21, 7.733 21.692, 12 21.692 C 16.267 21.692, 16.910 21, 14.500 19 C 12.675 17.485, 12.555 15.374, 14.250 14.583 C 15.250 14.117, 15.250 13.883, 14.250 13.417 C 11.505 12.136, 13.267 11, 18 11 C 20.750 11, 23 10.550, 23 10 C 23 9.450, 22.325 9, 21.500 9 C 20.675 9, 20 8.305, 20 7.455 C 20 4.762, 15.337 1, 12 1 C 10.052 1, 8.002 1.907, 6.455 3.455 M 8 5 C 4.799 8.201, 5.598 9, 12 9 C 18.402 9, 19.201 8.201, 16 5 C 13.454 2.454, 10.546 2.454, 8 5" stroke="none" fill="black" fill-rule="evenodd"/>
</svg>