<svg xmlns="http://www.w3.org/2000/svg" width="24" height="24" viewBox="0 0 24 24" version="1.1">
	<path d="M 7.201 6.028 C 6.004 7.143, 4.745 9.168, 4.404 10.528 C 4.062 11.887, 3.157 13, 2.392 13 C 1.626 13, 1 13.450, 1 14 C 1 14.550, 3.011 15, 5.469 15 C 9.030 15, 9.820 15.305, 9.362 16.500 C 9.045 17.325, 8.189 18, 7.460 18 C 5.986 18, 4.438 21.772, 5.484 22.817 C 5.850 23.183, 6.589 22.700, 7.125 21.742 C 8.472 19.334, 15.528 19.334, 16.875 21.742 C 17.411 22.700, 18.150 23.183, 18.516 22.817 C 19.562 21.772, 18.014 18, 16.540 18 C 15.811 18, 14.955 17.325, 14.638 16.500 C 14.180 15.305, 14.970 15, 18.531 15 C 20.989 15, 23 14.550, 23 14 C 23 13.450, 22.374 13, 21.608 13 C 20.843 13, 19.932 11.864, 19.583 10.475 C 18.065 4.428, 11.463 2.057, 7.201 6.028 M 9.400 6.765 C 8.310 7.493, 6 11.345, 6 12.434 C 6 12.745, 8.700 13, 12 13 C 15.300 13, 18 12.745, 18 12.434 C 18 11.345, 15.690 7.493, 14.600 6.765 C 13.995 6.361, 12.825 6.031, 12 6.031 C 11.175 6.031, 10.005 6.361, 9.400 6.765" stroke="none" fill="black" fill-rule="evenodd"/>
</svg>