<svg viewBox="0 0 24 24" xmlns="http://www.w3.org/2000/svg" fill="none" stroke="#000000" stroke-width="2" stroke-linecap="round" stroke-linejoin="round"><path d="M11.164 4.046 C 9.991 4.168,8.874 4.579,7.888 5.250 C 7.421 5.568,6.722 6.216,6.352 6.676 C 5.116 8.208,4.277 10.423,4.059 12.730 L 4.034 13.000 2.963 13.000 C 1.796 13.000,1.644 13.021,1.382 13.221 C 1.302 13.282,1.187 13.415,1.128 13.516 C 1.037 13.672,1.020 13.746,1.020 14.000 C 1.020 14.256,1.036 14.328,1.131 14.489 C 1.256 14.702,1.449 14.864,1.670 14.943 C 1.792 14.986,2.615 14.997,6.014 14.998 C 9.353 15.000,10.205 15.010,10.189 15.050 C 10.178 15.078,9.690 15.898,9.105 16.874 C 8.519 17.850,8.040 18.683,8.040 18.724 C 8.040 18.856,7.975 18.806,7.924 18.636 C 7.895 18.541,7.803 18.400,7.704 18.302 C 7.389 17.987,6.931 17.921,6.521 18.131 C 6.188 18.303,6.138 18.408,5.545 20.188 C 5.205 21.207,5.000 21.884,5.000 21.984 C 5.000 22.741,5.793 23.221,6.469 22.874 C 6.814 22.696,6.859 22.601,7.445 20.825 C 7.739 19.933,7.991 19.203,8.004 19.202 C 8.017 19.201,8.049 19.274,8.076 19.364 C 8.144 19.589,8.416 19.852,8.667 19.936 C 8.847 19.995,9.177 20.001,12.083 19.991 L 15.300 19.980 15.492 19.867 C 15.700 19.745,15.913 19.485,15.948 19.310 C 15.960 19.249,15.981 19.201,15.995 19.202 C 16.009 19.203,16.261 19.933,16.555 20.825 C 17.141 22.601,17.186 22.696,17.531 22.874 C 18.207 23.221,19.000 22.741,19.000 21.984 C 19.000 21.884,18.795 21.207,18.455 20.188 C 17.861 18.406,17.815 18.309,17.476 18.133 C 17.067 17.921,16.612 17.986,16.296 18.302 C 16.197 18.400,16.105 18.541,16.076 18.636 C 16.049 18.726,16.015 18.800,16.000 18.800 C 15.986 18.800,15.955 18.742,15.932 18.670 C 15.910 18.599,15.413 17.744,14.827 16.770 L 13.764 15.000 17.972 14.998 C 21.383 14.997,22.208 14.986,22.330 14.943 C 22.551 14.864,22.744 14.702,22.869 14.489 C 22.964 14.328,22.980 14.256,22.980 14.000 C 22.980 13.746,22.963 13.672,22.872 13.516 C 22.813 13.415,22.698 13.282,22.618 13.221 C 22.356 13.021,22.204 13.000,21.037 13.000 L 19.966 13.000 19.941 12.730 C 19.796 11.193,19.358 9.631,18.710 8.340 C 17.887 6.700,16.709 5.474,15.258 4.747 C 14.056 4.146,12.599 3.896,11.164 4.046 M12.668 6.043 C 14.294 6.224,15.633 7.101,16.557 8.591 C 17.294 9.779,17.750 11.185,17.933 12.830 L 17.952 13.000 12.000 13.000 L 6.048 13.000 6.067 12.830 C 6.258 11.109,6.759 9.623,7.554 8.420 C 8.726 6.645,10.533 5.805,12.668 6.043 M12.634 17.006 C 12.946 17.527,13.200 17.963,13.200 17.976 C 13.200 17.989,12.652 18.000,11.982 18.000 L 10.764 18.000 11.372 16.983 C 11.826 16.223,11.991 15.978,12.024 16.013 C 12.049 16.039,12.323 16.486,12.634 17.006 " stroke="none" fill-rule="evenodd" fill="black"></path></svg>