<svg xmlns="http://www.w3.org/2000/svg" width="24" height="24" viewBox="0 0 24 24" version="1.1">
	<path d="M 12.189 4 C 10.642 4, 8.398 4.912, 7.201 6.028 C 6.004 7.143, 4.745 9.168, 4.404 10.528 C 4.062 11.887, 3.157 13, 2.392 13 C 1.626 13, 1 13.450, 1 14 C 1 14.550, 3.011 15, 5.469 15 C 9.030 15, 9.820 15.305, 9.362 16.500 C 9.045 17.325, 8.189 18, 7.460 18 C 6.731 18, 5.838 18.934, 5.476 20.075 C 5.114 21.217, 5.117 22.451, 5.484 22.817 C 5.850 23.183, 6.589 22.700, 7.125 21.742 C 7.791 20.550, 9.332 20, 12 20 C 14.668 20, 16.209 20.550, 16.875 21.742 C 17.411 22.700, 18.150 23.183, 18.516 22.817 C 18.883 22.451, 18.886 21.217, 18.524 20.075 C 18.162 18.934, 17.269 18, 16.540 18 C 15.811 18, 14.955 17.325, 14.638 16.500 C 14.180 15.305, 14.970 15, 18.531 15 C 20.989 15, 23 14.550, 23 14 C 23 13.450, 22.374 13, 21.608 13 C 20.843 13, 19.932 11.864, 19.583 10.475 C 19.234 9.086, 18.061 7.061, 16.975 5.975 C 15.889 4.889, 13.735 4, 12.189 4 M 12 6.031 C 11.175 6.031, 10.005 6.361, 9.400 6.765 C 8.795 7.169, 7.782 8.483, 7.150 9.684 C 6.517 10.886, 6 12.123, 6 12.434 C 6 12.745, 8.700 13, 12 13 C 15.300 13, 18 12.745, 18 12.434 C 18 12.123, 17.483 10.886, 16.850 9.684 C 16.218 8.483, 15.205 7.169, 14.600 6.765 C 13.995 6.361, 12.825 6.031, 12 6.031" stroke="none" fill="black" fill-rule="evenodd"/>
</svg>