<svg viewBox="0 0 24 24" xmlns="http://www.w3.org/2000/svg" fill="none" stroke="#000000" stroke-width="2" stroke-linecap="round" stroke-linejoin="round"><path d="M11.280 1.023 C 11.203 1.032,10.951 1.059,10.720 1.083 C 8.832 1.283,6.991 2.023,5.360 3.235 C 4.751 3.688,3.684 4.755,3.226 5.367 C 1.956 7.070,1.210 9.023,1.037 11.103 C 0.971 11.891,0.997 12.259,1.133 12.492 C 1.256 12.702,1.450 12.864,1.670 12.943 C 1.792 12.986,2.680 12.997,6.409 12.998 L 10.999 13.000 11.009 17.653 L 11.020 22.306 11.141 22.503 C 11.543 23.156,12.457 23.156,12.859 22.503 L 12.980 22.306 12.991 17.653 L 13.001 13.000 17.591 12.998 C 21.320 12.997,22.208 12.986,22.330 12.943 C 22.550 12.864,22.744 12.702,22.866 12.493 C 23.004 12.258,23.029 11.897,22.962 11.109 C 22.785 9.011,22.045 7.071,20.770 5.363 C 20.316 4.755,19.247 3.686,18.640 3.235 C 17.045 2.049,15.365 1.360,13.423 1.096 C 13.000 1.038,11.574 0.990,11.280 1.023 M11.000 7.040 L 11.000 11.000 7.034 11.000 L 3.069 11.000 3.094 10.761 C 3.208 9.665,3.773 8.137,4.440 7.120 C 5.140 6.053,6.053 5.140,7.120 4.440 C 7.944 3.900,9.191 3.386,10.120 3.205 C 10.351 3.160,10.576 3.115,10.620 3.106 C 10.664 3.097,10.768 3.087,10.850 3.085 L 11.000 3.080 11.000 7.040 M13.889 3.203 C 16.149 3.667,18.243 5.114,19.560 7.120 C 20.227 8.137,20.792 9.665,20.906 10.761 L 20.931 11.000 16.966 11.000 L 13.000 11.000 13.000 7.034 L 13.000 3.069 13.239 3.094 C 13.370 3.107,13.662 3.156,13.889 3.203 " stroke="none" fill-rule="evenodd" fill="black"></path></svg>