<svg xmlns="http://www.w3.org/2000/svg" width="24" height="24" viewBox="0 0 24 24" version="1.1">
	<path d="M 7.655 2.829 C 5.830 4.846, 5.430 8, 7 8 C 7.550 8, 8 7.380, 8 6.622 C 8 5.865, 8.675 4.685, 9.500 4 C 10.817 2.907, 11 3.993, 11 12.878 C 11 18.959, 11.399 23, 12 23 C 12.601 23, 13 18.959, 13 12.878 C 13 3.993, 13.183 2.907, 14.500 4 C 15.325 4.685, 16 5.865, 16 6.622 C 16 7.380, 16.450 8, 17 8 C 18.673 8, 18.117 4.416, 16.171 2.655 C 13.756 0.469, 9.716 0.552, 7.655 2.829" stroke="none" fill="#000000" fill-rule="evenodd"/>
</svg>