<svg xmlns="http://www.w3.org/2000/svg" width="24" height="24" viewBox="0 0 24 24" version="1.1">
	<path d="M 1 1.800 C 1 2.240, 1.492 3.092, 2.093 3.693 C 2.883 4.483, 2.883 5.350, 2.093 6.827 C 1.492 7.950, 1 9.798, 1 10.934 C 1 12.763, 1.610 13, 6.313 13 C 10.974 13, 11.986 13.384, 14.563 16.132 C 16.510 18.208, 17.079 19.415, 16.250 19.715 C 13.910 20.560, 14.959 22.227, 17.439 21.605 C 18.780 21.268, 20.157 21.444, 20.498 21.996 C 21.245 23.205, 23 23.331, 23 22.176 C 23 21.722, 21.208 19.585, 19.017 17.426 C 16.826 15.267, 15.026 12.683, 15.017 11.684 C 14.993 9.074, 13.066 5.841, 11.947 6.533 C 11.359 6.896, 11.422 7.958, 12.114 9.311 C 12.730 10.515, 10.804 9.138, 7.835 6.250 C 2.614 1.172, 1 0.121, 1 1.800 M 11 2.500 C 11 3.325, 11.450 4, 12 4 C 12.550 4, 13 3.325, 13 2.500 C 13 1.675, 12.550 1, 12 1 C 11.450 1, 11 1.675, 11 2.500 M 3.607 8.582 C 2.698 10.950, 2.751 11, 6.155 11 C 9.247 11, 9.274 10.960, 7.500 9 C 5.316 6.587, 4.410 6.490, 3.607 8.582" stroke="none" fill="black" fill-rule="evenodd"/>
</svg>