<svg xmlns="http://www.w3.org/2000/svg" width="24" height="24" viewBox="0 0 24 24" version="1.1">
	<path d="M 12 2 C 10.052 2, 8.002 2.907, 6.455 4.455 C 5.105 5.805, 4 7.830, 4 8.955 C 4 10.845, 4.607 11, 12 11 C 19.393 11, 20 10.845, 20 8.955 C 20 7.830, 18.895 5.805, 17.545 4.455 C 15.998 2.907, 13.948 2, 12 2 M 11.668 4.079 C 11.026 4.122, 9.932 4.387, 9.239 4.666 C 8.545 4.946, 7.516 6.035, 6.953 7.087 C 6.252 8.398, 6.255 9, 6.965 9 C 7.534 9, 8 8.325, 8 7.500 C 8 6.675, 8.450 6, 9 6 C 9.550 6, 10 6.675, 10 7.500 C 10 8.333, 10.889 9, 12 9 C 13.111 9, 14 8.333, 14 7.500 C 14 6.675, 14.450 6, 15 6 C 15.550 6, 16 6.675, 16 7.500 C 16 8.325, 16.466 9, 17.035 9 C 17.739 9, 17.748 8.397, 17.063 7.118 C 16.509 6.082, 15.331 4.957, 14.446 4.618 C 13.561 4.278, 12.311 4.036, 11.668 4.079 M 12 12 C 11.450 12, 11 14.475, 11 17.500 C 11 20.525, 11.450 23, 12 23 C 12.550 23, 13 20.525, 13 17.500 C 13 14.475, 12.550 12, 12 12" stroke="none" fill="black" fill-rule="evenodd"/>
</svg>