<svg xmlns="http://www.w3.org/2000/svg" width="24" height="24" viewBox="0 0 24 24" version="1.1">
	<path d="M 13.500 4.399 C 11.219 4.127, 8.467 4.476, 7.096 5.211 C 5.774 5.920, 3.780 7.730, 2.663 9.234 C 1.547 10.737, 0.965 12.298, 1.370 12.703 C 1.775 13.108, 3.196 12.045, 4.529 10.342 C 5.862 8.639, 7.863 7.007, 8.976 6.716 C 10.871 6.221, 11 6.651, 11 13.471 C 11 18.619, 11.426 21.109, 12.452 21.960 C 13.251 22.623, 14.665 23.015, 15.595 22.833 C 16.525 22.650, 17.768 21.734, 18.357 20.798 C 18.947 19.862, 19.103 18.770, 18.704 18.371 C 18.306 17.972, 17.377 18.469, 16.641 19.476 C 15.905 20.482, 14.785 20.985, 14.152 20.594 C 13.464 20.169, 13 17.122, 13 13.035 C 13 6.603, 13.126 6.220, 15.070 6.728 C 16.208 7.026, 18.093 8.559, 19.258 10.135 C 20.423 11.711, 21.741 13, 22.188 13 C 22.635 13, 23 12.557, 23 12.016 C 23 11.474, 21.762 9.647, 20.250 7.954 C 18.301 5.773, 16.335 4.737, 13.500 4.399" stroke="none" fill="black" fill-rule="evenodd"/>
</svg>