<svg viewBox="0 0 24 24" xmlns="http://www.w3.org/2000/svg" fill="none" stroke="#000000" stroke-width="2" stroke-linecap="round" stroke-linejoin="round"><path d="M1.670 1.061 C 1.448 1.142,1.250 1.309,1.128 1.516 C 1.036 1.672,1.020 1.745,1.021 2.000 C 1.021 2.213,1.043 2.341,1.095 2.440 C 1.136 2.517,1.683 3.096,2.311 3.727 L 3.453 4.875 3.239 5.107 C 2.156 6.289,1.383 7.906,1.053 9.680 C 0.951 10.227,0.951 12.054,1.053 12.317 C 1.150 12.569,1.293 12.741,1.511 12.869 L 1.700 12.980 6.641 12.991 L 11.581 13.001 14.389 15.811 L 17.197 18.620 17.157 18.798 C 17.093 19.075,16.926 19.346,16.673 19.580 C 16.381 19.850,16.105 19.958,15.598 19.999 C 15.172 20.034,14.979 20.110,14.772 20.326 C 14.517 20.593,14.438 21.034,14.581 21.390 C 14.665 21.601,14.977 21.888,15.191 21.952 C 15.501 22.045,16.148 22.001,16.620 21.853 C 17.410 21.607,18.166 21.058,18.580 20.430 C 18.663 20.303,18.742 20.200,18.756 20.200 C 18.769 20.200,19.356 20.777,20.060 21.483 C 20.764 22.188,21.421 22.814,21.520 22.873 C 21.672 22.964,21.746 22.980,22.000 22.980 C 22.257 22.980,22.327 22.964,22.492 22.867 C 22.714 22.737,22.901 22.498,22.965 22.264 C 23.019 22.061,22.989 21.733,22.899 21.555 C 22.862 21.481,21.998 20.583,20.980 19.560 C 19.316 17.888,19.126 17.684,19.101 17.543 C 19.030 17.135,18.650 16.393,18.424 16.220 C 18.215 16.061,17.947 15.986,17.686 16.014 L 17.460 16.037 15.913 14.492 L 14.366 12.946 14.537 12.838 C 14.875 12.623,15.000 12.334,15.000 11.764 C 15.000 10.108,14.369 8.161,13.381 6.763 C 13.013 6.242,12.827 6.120,12.400 6.120 C 12.115 6.120,11.950 6.181,11.745 6.361 C 11.553 6.529,11.439 6.755,11.412 7.019 C 11.383 7.298,11.445 7.471,11.720 7.880 C 12.315 8.765,12.662 9.566,12.845 10.474 C 12.956 11.026,12.964 11.000,12.671 11.000 L 12.421 11.000 7.481 6.065 C 2.942 1.532,2.524 1.125,2.343 1.065 C 2.107 0.987,1.874 0.986,1.670 1.061 M11.695 1.057 C 11.466 1.129,11.256 1.299,11.128 1.516 C 11.020 1.699,11.020 1.703,11.020 2.503 L 11.020 3.306 11.141 3.503 C 11.543 4.156,12.457 4.156,12.859 3.503 L 12.980 3.306 12.980 2.503 C 12.980 1.703,12.980 1.699,12.872 1.516 C 12.628 1.101,12.150 0.915,11.695 1.057 M7.220 8.640 L 9.580 11.000 6.264 11.000 L 2.948 11.000 2.974 10.601 C 3.071 9.116,3.701 7.615,4.715 6.454 C 4.795 6.362,4.860 6.286,4.860 6.284 C 4.860 6.282,5.922 7.342,7.220 8.640 " stroke="none" fill-rule="evenodd" fill="black"></path></svg>