<svg xmlns="http://www.w3.org/2000/svg" width="24" height="24" viewBox="0 0 24 24" version="1.1">
	<path d="M 4.400 4.400 C 2.277 6.523, 1 8.776, 1 10.400 C 1 12.853, 1.282 13, 6 13 L 11 13 11 18 C 11 20.750, 11.450 23, 12 23 C 12.550 23, 13 20.750, 13 18 L 13 13 18 13 C 22.718 13, 23 12.853, 23 10.400 C 23 8.776, 21.723 6.523, 19.600 4.400 C 16.813 1.613, 15.443 1, 12 1 C 8.557 1, 7.187 1.613, 4.400 4.400 M 8.020 4.295 C 6.656 4.980, 4.980 6.656, 4.295 8.020 C 3.096 10.411, 3.179 10.511, 6.626 10.816 C 8.592 10.990, 10.410 10.923, 10.667 10.667 C 10.923 10.410, 10.990 8.592, 10.816 6.626 C 10.511 3.179, 10.411 3.096, 8.020 4.295 M 13 7.094 C 13 10.979, 13.021 11, 16.969 11 C 20.318 11, 20.840 10.727, 20.317 9.250 C 19.382 6.614, 17.102 4.260, 14.935 3.693 C 13.265 3.257, 13 3.723, 13 7.094" stroke="none" fill="black" fill-rule="evenodd"/>
</svg>