<svg xmlns="http://www.w3.org/2000/svg" width="24" height="24" viewBox="0 0 24 24" version="1.1">
	<path d="M 7.096 5.211 C 4.120 6.807, 0.375 11.708, 1.370 12.703 C 1.775 13.108, 3.196 12.045, 4.529 10.342 C 5.862 8.639, 7.863 7.007, 8.976 6.716 C 10.871 6.221, 11 6.651, 11 13.471 C 11 18.619, 11.426 21.109, 12.452 21.960 C 14.311 23.503, 16.986 22.976, 18.357 20.798 C 19.848 18.432, 18.285 17.228, 16.641 19.476 C 14.330 22.637, 13 20.286, 13 13.035 C 13 6.603, 13.126 6.220, 15.070 6.728 C 16.208 7.026, 18.093 8.559, 19.258 10.135 C 20.423 11.711, 21.741 13, 22.188 13 C 23.745 13, 22.981 11.010, 20.250 7.954 C 17.063 4.388, 10.992 3.121, 7.096 5.211" stroke="none" fill="#000000" fill-rule="evenodd"/>
</svg>