<svg xmlns="http://www.w3.org/2000/svg" width="24" height="24" viewBox="0 0 24 24" version="1.1">
	<path d="M 11.826 1 C 10.442 1, 8.565 1.823, 7.655 2.829 C 6.745 3.835, 6 5.410, 6 6.329 C 6 7.248, 6.450 8, 7 8 C 7.550 8, 8 7.380, 8 6.622 C 8 5.865, 8.675 4.685, 9.500 4 C 10.817 2.907, 11 3.993, 11 12.878 C 11 18.959, 11.399 23, 12 23 C 12.601 23, 13 18.959, 13 12.878 C 13 3.993, 13.183 2.907, 14.500 4 C 15.325 4.685, 16 5.865, 16 6.622 C 16 7.380, 16.450 8, 17 8 C 17.550 8, 18 7.170, 18 6.155 C 18 5.140, 17.177 3.565, 16.171 2.655 C 15.165 1.745, 13.210 1, 11.826 1" stroke="none" fill="black" fill-rule="evenodd"/>
</svg>