<svg xmlns="http://www.w3.org/2000/svg" width="24" height="24" viewBox="0 0 24 24" version="1.1">
	<path d="M 6.455 4.455 C 5.105 5.805, 4 7.830, 4 8.955 C 4 10.845, 4.607 11, 12 11 C 19.393 11, 20 10.845, 20 8.955 C 20 5.831, 15.594 2, 12 2 C 10.052 2, 8.002 2.907, 6.455 4.455 M 9.239 4.666 C 7.504 5.365, 5.597 9, 6.965 9 C 7.534 9, 8 8.325, 8 7.500 C 8 6.675, 8.450 6, 9 6 C 9.550 6, 10 6.675, 10 7.500 C 10 8.333, 10.889 9, 12 9 C 13.111 9, 14 8.333, 14 7.500 C 14 6.675, 14.450 6, 15 6 C 15.550 6, 16 6.675, 16 7.500 C 16 8.325, 16.466 9, 17.035 9 C 18.563 9, 16.421 5.376, 14.446 4.618 C 12.617 3.916, 11.065 3.930, 9.239 4.666 M 11 17.500 C 11 20.525, 11.450 23, 12 23 C 12.550 23, 13 20.525, 13 17.500 C 13 14.475, 12.550 12, 12 12 C 11.450 12, 11 14.475, 11 17.500" stroke="none" fill="#000000" fill-rule="evenodd"/>
</svg>