<svg xmlns="http://www.w3.org/2000/svg" width="24" height="24" viewBox="0 0 24 24" version="1.1">
	<path d="M 6 3 C 5.450 3, 5 5.172, 5 7.826 C 5 11.577, 5.515 13.135, 7.314 14.826 C 8.587 16.022, 10.759 17, 12.140 17 C 13.521 17, 15.630 15.958, 16.826 14.686 C 18.419 12.989, 19 11.120, 19 7.686 C 19 5.108, 18.550 3, 18 3 C 17.450 3, 17 4.955, 17 7.345 C 17 10.284, 16.408 12.225, 15.171 13.345 C 14.165 14.255, 12.660 15, 11.826 15 C 10.992 15, 9.565 14.177, 8.655 13.171 C 7.672 12.085, 7 9.649, 7 7.171 C 7 4.877, 6.550 3, 6 3 M 12 19 C 6.667 19, 3 19.407, 3 20 C 3 20.593, 6.667 21, 12 21 C 17.333 21, 21 20.593, 21 20 C 21 19.407, 17.333 19, 12 19" stroke="none" fill="black" fill-rule="evenodd"/>
</svg>