<svg xmlns="http://www.w3.org/2000/svg" width="24" height="24" viewBox="0 0 24 24" version="1.1">
	<path d="M 5 7.326 C 5 11.600, 5.457 13.081, 7.314 14.826 C 12.740 19.923, 19 15.830, 19 7.186 C 19 4.333, 18.550 2, 18 2 C 17.450 2, 17 4.180, 17 6.845 C 17 10.269, 16.464 12.175, 15.171 13.345 C 11.005 17.115, 7 13.844, 7 6.671 C 7 4.102, 6.550 2, 6 2 C 5.450 2, 5 4.397, 5 7.326 M 3 21 C 3 21.593, 6.667 22, 12 22 C 17.333 22, 21 21.593, 21 21 C 21 20.407, 17.333 20, 12 20 C 6.667 20, 3 20.407, 3 21" stroke="none" fill="#000000" fill-rule="evenodd"/>
</svg>