<svg xmlns="http://www.w3.org/2000/svg" width="24" height="24" viewBox="0 0 24 24" version="1.1">
	<path d="M 5 7.826 C 5 11.577, 5.515 13.135, 7.314 14.826 C 12.567 19.760, 19 15.829, 19 7.686 C 19 5.108, 18.550 3, 18 3 C 17.450 3, 17 4.955, 17 7.345 C 17 11.845, 14.868 15, 11.826 15 C 9.133 15, 7 11.540, 7 7.171 C 7 4.877, 6.550 3, 6 3 C 5.450 3, 5 5.172, 5 7.826 M 3 20 C 3 20.593, 6.667 21, 12 21 C 17.333 21, 21 20.593, 21 20 C 21 19.407, 17.333 19, 12 19 C 6.667 19, 3 19.407, 3 20" stroke="none" fill="black" fill-rule="evenodd"/>
</svg>