<svg xmlns="http://www.w3.org/2000/svg" width="24" height="24" viewBox="0 0 24 24" version="1.1">
	<path d="M 6 2 C 5.450 2, 5 4.397, 5 7.326 C 5 11.600, 5.457 13.081, 7.314 14.826 C 8.587 16.022, 10.759 17, 12.140 17 C 13.521 17, 15.630 15.958, 16.826 14.686 C 18.481 12.924, 19 11.133, 19 7.186 C 19 4.333, 18.550 2, 18 2 C 17.450 2, 17 4.180, 17 6.845 C 17 10.269, 16.464 12.175, 15.171 13.345 C 14.165 14.255, 12.660 15, 11.826 15 C 10.992 15, 9.565 14.177, 8.655 13.171 C 7.612 12.019, 7 9.615, 7 6.671 C 7 4.102, 6.550 2, 6 2 M 12 20 C 6.667 20, 3 20.407, 3 21 C 3 21.593, 6.667 22, 12 22 C 17.333 22, 21 21.593, 21 21 C 21 20.407, 17.333 20, 12 20" stroke="none" fill="black" fill-rule="evenodd"/>
</svg>