<svg xmlns="http://www.w3.org/2000/svg" width="24" height="24" viewBox="0 0 24 24" version="1.1">
	<path d="M 7.655 2.829 C 6.745 3.835, 6 5.807, 6 7.212 C 6 8.947, 5.342 9.939, 3.948 10.303 C 2.127 10.780, 1.930 11.498, 2.198 16.670 L 2.500 22.500 12 22.500 L 21.500 22.500 21.500 16.500 L 21.500 10.500 14.750 10.204 C 8.500 9.931, 8 9.742, 8 7.654 C 8 3.118, 12.927 1.310, 15.232 5 C 16.669 7.300, 18 7.615, 18 5.655 C 18 1.567, 10.621 -0.449, 7.655 2.829 M 4 16.500 L 4 21 12 21 L 20 21 20 16.500 L 20 12 12 12 L 4 12 4 16.500" stroke="none" fill="black" fill-rule="evenodd"/>
</svg>