<svg xmlns="http://www.w3.org/2000/svg" width="24" height="24" viewBox="0 0 24 24" version="1.1">
	<path d="M 11.826 1 C 10.442 1, 8.565 1.823, 7.655 2.829 C 6.745 3.835, 6 5.807, 6 7.212 C 6 8.947, 5.342 9.939, 3.948 10.303 C 2.127 10.780, 1.930 11.498, 2.198 16.670 L 2.500 22.500 12 22.500 L 21.500 22.500 21.500 16.500 L 21.500 10.500 14.750 10.204 C 8.500 9.931, 8 9.742, 8 7.654 C 8 6.414, 8.540 4.860, 9.200 4.200 C 9.860 3.540, 11.206 3, 12.192 3 C 13.177 3, 14.545 3.900, 15.232 5 C 15.919 6.100, 16.823 7, 17.241 7 C 17.658 7, 18 6.395, 18 5.655 C 18 4.915, 17.177 3.565, 16.171 2.655 C 15.165 1.745, 13.210 1, 11.826 1 M 12 12 L 4 12 4 16.500 L 4 21 12 21 L 20 21 20 16.500 L 20 12 12 12" stroke="none" fill="black" fill-rule="evenodd"/>
</svg>