<svg viewBox="0 0 24 24" xmlns="http://www.w3.org/2000/svg" fill="none" stroke="#000000" stroke-width="2" stroke-linecap="round" stroke-linejoin="round"><path d="M19.187 2.545 C 17.393 3.143,17.304 3.186,17.122 3.540 C 17.041 3.698,17.020 3.795,17.021 4.019 C 17.023 4.353,17.082 4.483,17.373 4.790 L 17.576 5.004 11.058 11.523 L 4.540 18.041 4.196 18.015 C 3.532 17.966,2.972 18.181,2.534 18.653 C 1.954 19.280,1.834 20.159,2.225 20.930 C 2.361 21.199,2.801 21.639,3.070 21.775 C 3.659 22.073,4.341 22.073,4.930 21.775 C 5.196 21.640,5.638 21.200,5.771 20.937 C 5.973 20.539,6.051 20.009,5.964 19.635 L 5.931 19.489 9.964 15.456 L 13.998 11.422 14.009 14.864 L 14.020 18.306 14.141 18.503 C 14.543 19.156,15.457 19.156,15.859 18.503 L 15.980 18.306 15.992 16.653 L 16.003 15.000 16.632 15.000 L 17.260 15.001 17.356 15.142 C 17.497 15.349,17.862 15.670,18.085 15.782 C 18.477 15.981,18.641 16.000,20.000 16.000 C 21.368 16.000,21.521 15.982,21.930 15.775 C 22.196 15.640,22.638 15.200,22.771 14.937 C 23.065 14.358,23.068 13.649,22.781 13.083 C 22.551 12.628,22.022 12.203,21.523 12.073 C 21.151 11.976,18.936 11.968,18.522 12.062 C 18.089 12.161,17.604 12.495,17.348 12.870 L 17.260 12.999 16.630 13.000 L 16.000 13.000 15.998 11.410 C 15.997 10.207,15.984 9.784,15.944 9.674 L 15.892 9.528 17.444 7.976 L 18.996 6.425 19.210 6.627 C 19.524 6.924,19.646 6.978,20.000 6.979 C 20.258 6.980,20.327 6.964,20.492 6.867 C 20.597 6.805,20.736 6.682,20.800 6.594 C 20.949 6.388,22.000 3.253,22.000 3.014 C 22.000 2.464,21.534 2.000,20.983 2.000 C 20.881 2.000,20.211 2.203,19.187 2.545 M9.477 5.073 C 8.806 5.249,8.238 5.823,8.060 6.508 C 7.941 6.962,8.003 7.492,8.225 7.930 C 8.361 8.199,8.801 8.639,9.070 8.775 C 9.659 9.073,10.341 9.073,10.930 8.775 C 11.196 8.640,11.638 8.200,11.771 7.937 C 11.994 7.498,12.052 7.007,11.940 6.529 C 11.858 6.182,11.720 5.927,11.465 5.653 C 11.074 5.232,10.560 5.005,10.000 5.005 C 9.857 5.005,9.622 5.036,9.477 5.073 " stroke="none" fill-rule="evenodd" fill="black"></path></svg>