<svg xmlns="http://www.w3.org/2000/svg" width="24" height="24" viewBox="0 0 24 24" version="1.1">
	<path d="M 20.750 2.079 C 20.063 2.122, 18.938 2.385, 18.250 2.662 C 17.563 2.940, 17 3.747, 17 4.456 C 17 5.165, 13.578 8.996, 9.396 12.969 C 4.124 17.977, 2.111 20.511, 2.834 21.234 C 3.556 21.956, 5.416 20.623, 8.899 16.888 L 13.924 11.500 13.962 15.250 C 13.983 17.313, 14.450 19, 15 19 C 15.550 19, 16 18.146, 16 17.103 C 16 15.598, 16.673 15.236, 19.250 15.353 C 21.538 15.456, 22.500 15.056, 22.500 14 C 22.500 12.938, 21.534 12.545, 19.193 12.654 C 16.387 12.784, 15.933 12.497, 16.193 10.756 C 16.362 9.627, 17.400 8.208, 18.500 7.602 C 19.600 6.996, 20.831 6.050, 21.235 5.500 C 21.639 4.950, 21.976 3.938, 21.985 3.250 C 21.993 2.563, 21.438 2.036, 20.750 2.079 M 10 5 C 9.515 5, 8.816 5.489, 8.446 6.087 C 8.077 6.685, 8.275 7.675, 8.887 8.287 C 9.704 9.104, 10.296 9.104, 11.113 8.287 C 11.725 7.675, 11.923 6.685, 11.554 6.087 C 11.184 5.489, 10.485 5, 10 5" stroke="none" fill="black" fill-rule="evenodd"/>
</svg>