<svg xmlns="http://www.w3.org/2000/svg" width="24" height="24" viewBox="0 0 24 24" version="1.1">
	<path d="M 6.571 3.571 C 4.564 5.578, 4.564 8.422, 6.571 10.429 C 9.604 13.461, 15 11.266, 15 7 C 15 4.614, 12.386 2, 10 2 C 8.979 2, 7.436 2.707, 6.571 3.571 M 7.958 5.550 C 6.896 6.831, 6.961 7.390, 8.336 8.764 C 9.888 10.317, 10.112 10.317, 11.664 8.764 C 13.039 7.390, 13.104 6.831, 12.042 5.550 C 11.334 4.698, 10.415 4, 10 4 C 9.585 4, 8.666 4.698, 7.958 5.550 M 19.981 9.523 C 19.252 10.402, 17.932 10.796, 16.859 10.455 C 14.611 9.742, 14.415 11.270, 16.529 13.024 C 17.798 14.077, 18.480 13.898, 20.529 11.972 C 21.888 10.696, 23 9.280, 23 8.826 C 23 7.494, 21.348 7.876, 19.981 9.523 M 4.571 15.571 C 2.837 17.306, 2.419 22, 4 22 C 4.550 22, 5 21.190, 5 20.200 C 5 17.653, 6.968 16, 10 16 C 13.032 16, 15 17.653, 15 20.200 C 15 21.190, 15.450 22, 16 22 C 17.581 22, 17.163 17.306, 15.429 15.571 C 13.387 13.529, 6.613 13.529, 4.571 15.571" stroke="none" fill="#000000" fill-rule="evenodd"/>
</svg>