<svg xmlns="http://www.w3.org/2000/svg" width="24" height="24" viewBox="0 0 24 24" version="1.1">
	<path d="M 8.500 2 C 6.986 2, 5.419 2.958, 4.408 4.500 C 2.891 6.816, 2.891 7.184, 4.408 9.500 C 5.419 11.042, 6.986 12, 8.500 12 C 10.014 12, 11.581 11.042, 12.592 9.500 C 14.109 7.184, 14.109 6.816, 12.592 4.500 C 11.581 2.958, 10.014 2, 8.500 2 M 8.747 4.190 C 7.783 4.004, 6.722 4.560, 6.390 5.426 C 6.058 6.292, 6.058 7.708, 6.390 8.574 C 6.722 9.440, 7.783 9.996, 8.747 9.810 C 9.854 9.597, 10.500 8.561, 10.500 7 C 10.500 5.439, 9.854 4.403, 8.747 4.190 M 20 10 C 17.800 10, 16 10.450, 16 11 C 16 11.550, 17.800 12, 20 12 C 22.200 12, 24 11.550, 24 11 C 24 10.450, 22.200 10, 20 10 M 8.500 14 C 4.963 14, 2.609 14.534, 1.571 15.571 C 0.707 16.436, 0 18.236, 0 19.571 C 0 20.907, 0.450 22, 1 22 C 1.550 22, 2 21.190, 2 20.200 C 2 19.210, 2.540 17.860, 3.200 17.200 C 3.860 16.540, 6.245 16, 8.500 16 C 10.755 16, 13.140 16.540, 13.800 17.200 C 14.460 17.860, 15 19.210, 15 20.200 C 15 21.190, 15.450 22, 16 22 C 16.550 22, 17 20.907, 17 19.571 C 17 18.236, 16.293 16.436, 15.429 15.571 C 14.391 14.534, 12.037 14, 8.500 14" stroke="none" fill="black" fill-rule="evenodd"/>
</svg>