<svg xmlns="http://www.w3.org/2000/svg" width="24" height="24" viewBox="0 0 24 24" version="1.1">
	<path d="M 5.571 3.571 C 3.564 5.578, 3.564 8.422, 5.571 10.429 C 8.604 13.461, 14 11.266, 14 7 C 14 4.614, 11.386 2, 9 2 C 7.979 2, 6.436 2.707, 5.571 3.571 M 6.958 5.550 C 5.896 6.831, 5.961 7.390, 7.336 8.764 C 8.888 10.317, 9.112 10.317, 10.664 8.764 C 12.039 7.390, 12.104 6.831, 11.042 5.550 C 10.334 4.698, 9.415 4, 9 4 C 8.585 4, 7.666 4.698, 6.958 5.550 M 15.200 12.200 C 12.394 15.006, 15.140 19.720, 18.995 18.712 C 20.484 18.322, 21 18.678, 21 20.094 C 21 21.142, 21.508 22, 22.128 22 C 23.498 22, 22.467 14.267, 20.834 12.300 C 19.483 10.672, 16.776 10.624, 15.200 12.200 M 16.500 14 C 15.826 15.091, 16.682 17, 17.845 17 C 18.244 17, 18.571 16.100, 18.571 15 C 18.571 12.864, 17.517 12.355, 16.500 14 M 2.571 15.571 C 0.837 17.306, 0.419 22, 2 22 C 2.550 22, 3 21.190, 3 20.200 C 3 17.603, 4.984 16, 8.200 16 C 9.740 16, 11 15.550, 11 15 C 11 13.395, 4.293 13.849, 2.571 15.571" stroke="none" fill="#000000" fill-rule="evenodd"/>
</svg>