<svg xmlns="http://www.w3.org/2000/svg" width="24" height="24" viewBox="0 0 24 24" version="1.1">
	<path d="M 6.571 3.571 C 4.564 5.578, 4.564 8.422, 6.571 10.429 C 9.604 13.461, 15 11.266, 15 7 C 15 4.614, 12.386 2, 10 2 C 8.979 2, 7.436 2.707, 6.571 3.571 M 7.958 5.550 C 6.896 6.831, 6.961 7.390, 8.336 8.764 C 9.888 10.317, 10.112 10.317, 11.664 8.764 C 13.039 7.390, 13.104 6.831, 12.042 5.550 C 11.334 4.698, 10.415 4, 10 4 C 9.585 4, 8.666 4.698, 7.958 5.550 M 14.200 14.200 C 11.281 17.119, 13.298 20.302, 18.719 21.328 C 21.889 21.928, 21.928 21.889, 21.328 18.719 C 20.302 13.298, 17.119 11.281, 14.200 14.200 M 3.571 15.571 C 1.837 17.306, 1.419 22, 3 22 C 3.550 22, 4 21.190, 4 20.200 C 4 17.736, 5.942 16, 8.700 16 C 9.965 16, 11 15.550, 11 15 C 11 13.405, 5.299 13.844, 3.571 15.571 M 15.446 16.087 C 14.416 17.755, 16.733 19.667, 18.113 18.287 C 19.267 17.133, 18.545 15, 17 15 C 16.515 15, 15.816 15.489, 15.446 16.087" stroke="none" fill="black" fill-rule="evenodd"/>
</svg>