<svg xmlns="http://www.w3.org/2000/svg" width="24" height="24" viewBox="0 0 24 24" version="1.1">
	<path d="M 9 2 C 7.979 2, 6.436 2.707, 5.571 3.571 C 4.707 4.436, 4 5.979, 4 7 C 4 8.021, 4.707 9.564, 5.571 10.429 C 6.436 11.293, 7.979 12, 9 12 C 10.021 12, 11.564 11.293, 12.429 10.429 C 13.293 9.564, 14 8.021, 14 7 C 14 5.979, 13.293 4.436, 12.429 3.571 C 11.564 2.707, 10.021 2, 9 2 M 9 4 C 8.585 4, 7.666 4.698, 6.958 5.550 C 5.896 6.831, 5.961 7.390, 7.336 8.764 C 8.888 10.317, 9.112 10.317, 10.664 8.764 C 12.039 7.390, 12.104 6.831, 11.042 5.550 C 10.334 4.698, 9.415 4, 9 4 M 18.078 11 C 17.155 11, 15.860 11.540, 15.200 12.200 C 14.540 12.860, 14 14.155, 14 15.078 C 14 16, 14.673 17.313, 15.495 17.996 C 16.317 18.678, 17.892 19, 18.995 18.712 C 20.484 18.322, 21 18.678, 21 20.094 C 21 21.142, 21.508 22, 22.128 22 C 22.892 22, 23.039 20.648, 22.584 17.800 C 22.215 15.489, 21.427 13.014, 20.834 12.300 C 20.240 11.585, 19 11, 18.078 11 M 17.845 13 C 17.445 13, 16.840 13.450, 16.500 14 C 16.160 14.550, 16.160 15.450, 16.500 16 C 16.840 16.550, 17.445 17, 17.845 17 C 18.244 17, 18.571 16.100, 18.571 15 C 18.571 13.900, 18.244 13, 17.845 13 M 7.571 14 C 5.686 14, 3.436 14.707, 2.571 15.571 C 1.707 16.436, 1 18.236, 1 19.571 C 1 20.907, 1.450 22, 2 22 C 2.550 22, 3 21.190, 3 20.200 C 3 19.210, 3.540 17.860, 4.200 17.200 C 4.860 16.540, 6.660 16, 8.200 16 C 9.740 16, 11 15.550, 11 15 C 11 14.450, 9.457 14, 7.571 14" stroke="none" fill="black" fill-rule="evenodd"/>
</svg>