<svg xmlns="http://www.w3.org/2000/svg" width="24" height="24" viewBox="0 0 24 24" version="1.1">
	<path d="M 4.408 4.500 C 2.891 6.816, 2.891 7.184, 4.408 9.500 C 6.572 12.802, 10.428 12.802, 12.592 9.500 C 14.109 7.184, 14.109 6.816, 12.592 4.500 C 10.428 1.198, 6.572 1.198, 4.408 4.500 M 6.390 5.426 C 5.480 7.797, 6.767 10.191, 8.747 9.810 C 11.125 9.352, 11.125 4.648, 8.747 4.190 C 7.783 4.004, 6.722 4.560, 6.390 5.426 M 19 8.500 C 19 9.325, 18.325 10, 17.500 10 C 16.675 10, 16 10.450, 16 11 C 16 11.550, 16.675 12, 17.500 12 C 18.325 12, 19 12.675, 19 13.500 C 19 14.325, 19.450 15, 20 15 C 20.550 15, 21 14.325, 21 13.500 C 21 12.675, 21.675 12, 22.500 12 C 23.325 12, 24 11.550, 24 11 C 24 10.450, 23.325 10, 22.500 10 C 21.675 10, 21 9.325, 21 8.500 C 21 7.675, 20.550 7, 20 7 C 19.450 7, 19 7.675, 19 8.500 M 1.571 15.571 C -0.163 17.306, -0.581 22, 1 22 C 1.550 22, 2 21.190, 2 20.200 C 2 17.344, 4.080 16, 8.500 16 C 12.920 16, 15 17.344, 15 20.200 C 15 21.190, 15.450 22, 16 22 C 17.581 22, 17.163 17.306, 15.429 15.571 C 13.283 13.426, 3.717 13.426, 1.571 15.571" stroke="none" fill="black" fill-rule="evenodd"/>
</svg>