<svg xmlns="http://www.w3.org/2000/svg" width="24" height="24" viewBox="0 0 24 24" version="1.1">
	<path d="M 8.571 3.571 C 6.564 5.578, 6.564 8.422, 8.571 10.429 C 11.604 13.461, 17 11.266, 17 7 C 17 4.614, 14.386 2, 12 2 C 10.979 2, 9.436 2.707, 8.571 3.571 M 9.958 5.550 C 8.896 6.831, 8.961 7.390, 10.336 8.764 C 11.888 10.317, 12.112 10.317, 13.664 8.764 C 15.039 7.390, 15.104 6.831, 14.042 5.550 C 13.334 4.698, 12.415 4, 12 4 C 11.585 4, 10.666 4.698, 9.958 5.550 M 4.571 15.571 C 2.837 17.306, 2.419 22, 4 22 C 4.550 22, 5 21.190, 5 20.200 C 5 17.736, 6.942 16, 9.700 16 C 10.965 16, 12 15.550, 12 15 C 12 13.405, 6.299 13.844, 4.571 15.571 M 16 14.878 C 16 15.360, 16.675 16.315, 17.500 17 C 18.325 17.685, 19 19.090, 19 20.122 C 19 21.155, 19.450 22, 20 22 C 21.581 22, 21.163 17.306, 19.429 15.571 C 17.704 13.847, 16 13.502, 16 14.878" stroke="none" fill="black" fill-rule="evenodd"/>
</svg>