<svg viewBox="0 0 24 24" xmlns="http://www.w3.org/2000/svg" fill="none" stroke="#000000" stroke-width="2" stroke-linecap="round" stroke-linejoin="round"><path d="M9.400 2.044 C 7.761 2.229,6.261 3.290,5.526 4.785 C 5.158 5.533,5.020 6.136,5.020 7.000 C 5.020 7.670,5.078 8.044,5.268 8.600 C 5.846 10.291,7.253 11.525,9.040 11.907 C 9.511 12.008,10.489 12.008,10.960 11.907 C 12.488 11.580,13.748 10.630,14.433 9.288 C 14.838 8.494,14.980 7.899,14.980 7.000 C 14.980 6.101,14.838 5.506,14.433 4.713 C 13.794 3.461,12.604 2.510,11.240 2.162 C 10.669 2.016,10.019 1.974,9.400 2.044 M10.861 4.129 C 11.804 4.405,12.584 5.183,12.875 6.139 C 12.958 6.412,12.973 6.542,12.973 7.000 C 12.973 7.458,12.958 7.588,12.875 7.861 C 12.582 8.822,11.819 9.581,10.840 9.886 C 10.406 10.021,9.594 10.021,9.160 9.886 C 8.181 9.581,7.418 8.822,7.125 7.861 C 7.042 7.588,7.027 7.458,7.027 7.000 C 7.027 6.542,7.042 6.412,7.125 6.139 C 7.456 5.054,8.371 4.245,9.499 4.040 C 9.832 3.980,10.500 4.023,10.861 4.129 M21.640 8.068 C 21.488 8.121,21.196 8.394,19.731 9.853 L 18.002 11.575 17.271 10.855 C 16.655 10.247,16.509 10.123,16.343 10.067 C 15.865 9.905,15.383 10.083,15.128 10.516 C 15.036 10.672,15.020 10.745,15.021 11.000 C 15.021 11.213,15.043 11.341,15.095 11.440 C 15.197 11.633,17.297 13.740,17.520 13.873 C 17.673 13.964,17.745 13.980,18.000 13.979 C 18.212 13.979,18.341 13.957,18.440 13.905 C 18.632 13.805,22.739 9.705,22.873 9.480 C 22.964 9.328,22.980 9.254,22.980 9.000 C 22.980 8.746,22.963 8.672,22.872 8.516 C 22.617 8.083,22.121 7.903,21.640 8.068 M7.400 14.044 C 5.761 14.229,4.261 15.290,3.526 16.785 C 3.333 17.177,3.187 17.599,3.093 18.040 C 3.030 18.334,3.020 18.579,3.020 19.843 L 3.020 21.306 3.141 21.503 C 3.543 22.156,4.457 22.156,4.859 21.503 L 4.980 21.307 5.003 19.883 C 5.025 18.522,5.031 18.446,5.124 18.139 C 5.416 17.185,6.182 16.419,7.139 16.123 C 7.457 16.026,7.481 16.024,9.380 16.002 L 11.300 15.980 11.489 15.869 C 11.701 15.744,11.865 15.550,11.939 15.336 L 11.988 15.192 12.016 15.366 C 12.052 15.588,12.204 15.849,12.376 15.979 C 12.449 16.036,12.660 16.133,12.845 16.195 C 13.029 16.257,13.270 16.354,13.381 16.410 C 13.914 16.681,14.421 17.204,14.697 17.770 C 14.958 18.304,14.971 18.394,14.997 19.923 L 15.020 21.307 15.141 21.503 C 15.543 22.156,16.457 22.156,16.859 21.503 L 16.980 21.306 16.980 19.863 C 16.980 18.602,16.971 18.377,16.905 18.080 C 16.692 17.109,16.279 16.331,15.601 15.624 C 15.032 15.030,14.403 14.620,13.667 14.363 C 13.194 14.198,12.946 14.172,12.686 14.258 C 12.422 14.346,12.144 14.611,12.075 14.841 L 12.024 15.011 11.979 14.812 C 11.923 14.560,11.799 14.359,11.615 14.219 C 11.338 14.008,11.253 14.000,9.404 14.005 C 8.467 14.008,7.565 14.026,7.400 14.044 " stroke="none" fill-rule="evenodd" fill="black"></path></svg>