<svg viewBox="0 0 24 24" xmlns="http://www.w3.org/2000/svg"><path d="M11.433 3.040 C 10.843 3.134,10.221 3.380,9.731 3.712 C 8.955 4.240,8.394 5.037,8.130 5.989 C 8.034 6.337,8.022 6.449,8.022 7.000 C 8.022 7.553,8.034 7.663,8.132 8.017 C 8.475 9.256,9.357 10.252,10.520 10.715 C 12.334 11.437,14.462 10.710,15.444 9.033 C 16.503 7.224,15.985 4.878,14.269 3.712 C 13.917 3.473,13.343 3.214,12.958 3.120 C 12.572 3.026,11.783 2.984,11.433 3.040 M7.433 15.043 C 6.861 15.127,6.225 15.377,5.731 15.712 C 4.964 16.234,4.403 17.026,4.133 17.968 C 4.030 18.330,4.026 18.375,4.010 19.673 L 3.993 21.006 7.367 18.118 C 9.222 16.529,10.794 15.178,10.859 15.115 L 10.978 15.000 9.319 15.005 C 8.407 15.008,7.558 15.025,7.433 15.043 M17.393 15.966 C 17.614 16.392,18.083 17.297,18.435 17.978 L 19.075 19.216 18.884 19.344 C 18.351 19.704,18.000 20.361,18.000 21.000 C 18.000 22.080,18.920 23.000,20.000 23.000 C 21.080 23.000,22.000 22.080,22.000 21.000 C 22.000 20.034,21.268 19.183,20.310 19.034 L 20.010 18.987 19.984 18.700 C 19.852 17.243,18.827 15.881,17.471 15.361 C 16.938 15.156,16.945 15.101,17.393 15.966 " stroke="none" fill-rule="evenodd" fill="black"></path></svg>