<svg xmlns="http://www.w3.org/2000/svg" width="24" height="24" viewBox="0 0 24 24" version="1.1">
	<path d="M 9 2 C 7.979 2, 6.436 2.707, 5.571 3.571 C 4.707 4.436, 4 5.979, 4 7 C 4 8.021, 4.707 9.564, 5.571 10.429 C 6.436 11.293, 7.979 12, 9 12 C 10.021 12, 11.564 11.293, 12.429 10.429 C 13.293 9.564, 14 8.021, 14 7 C 14 5.979, 13.293 4.436, 12.429 3.571 C 11.564 2.707, 10.021 2, 9 2 M 9 4 C 8.585 4, 7.666 4.698, 6.958 5.550 C 5.896 6.831, 5.961 7.390, 7.336 8.764 C 8.888 10.317, 9.112 10.317, 10.664 8.764 C 12.039 7.390, 12.104 6.831, 11.042 5.550 C 10.334 4.698, 9.415 4, 9 4 M 19 7 C 18.620 7, 17.481 7.916, 16.468 9.035 C 14.674 11.018, 14.682 11.127, 16.813 13.258 L 19 15.444 21.187 13.258 C 23.318 11.127, 23.326 11.018, 21.532 9.035 C 20.519 7.916, 19.380 7, 19 7 M 7.071 14 C 4.833 14, 2.467 14.676, 1.571 15.571 C 0.707 16.436, 0 18.236, 0 19.571 C 0 20.907, 0.450 22, 1 22 C 1.550 22, 2 21.190, 2 20.200 C 2 19.210, 2.540 17.860, 3.200 17.200 C 3.860 16.540, 5.885 16, 7.700 16 C 9.515 16, 11 15.550, 11 15 C 11 14.450, 9.232 14, 7.071 14" stroke="none" fill="black" fill-rule="evenodd"/>
</svg>