<svg viewBox="0 0 24 24" xmlns="http://www.w3.org/2000/svg" fill="none" stroke="#000000" stroke-width="2" stroke-linecap="round" stroke-linejoin="round"><path d="M11.080 2.045 C 9.507 2.184,7.883 2.751,6.540 3.630 C 5.905 4.045,5.499 4.378,4.919 4.958 C 2.953 6.926,1.919 9.544,2.013 12.320 C 2.084 14.439,2.752 16.328,4.033 18.040 C 4.430 18.570,5.305 19.464,5.800 19.847 C 7.242 20.961,8.787 21.624,10.600 21.907 C 11.247 22.008,12.753 22.008,13.400 21.907 C 15.638 21.557,17.504 20.620,19.062 19.062 C 20.620 17.504,21.557 15.638,21.907 13.400 C 22.008 12.753,22.008 11.247,21.907 10.600 C 21.624 8.786,20.959 7.238,19.847 5.800 C 19.510 5.365,18.639 4.494,18.200 4.154 C 16.133 2.555,13.646 1.818,11.080 2.045 M12.734 4.041 C 14.574 4.216,16.228 4.976,17.554 6.256 C 20.043 8.658,20.702 12.394,19.183 15.499 C 18.749 16.387,18.223 17.105,17.496 17.801 C 16.876 18.394,16.262 18.819,15.471 19.200 C 13.267 20.265,10.733 20.265,8.529 19.200 C 7.477 18.693,6.612 18.015,5.847 17.100 C 3.848 14.711,3.440 11.302,4.816 8.500 C 6.162 5.760,8.867 4.049,11.920 4.005 C 12.129 4.003,12.495 4.019,12.734 4.041 M11.460 5.025 C 10.482 5.131,9.555 5.476,8.683 6.056 C 7.987 6.519,7.250 7.232,7.080 7.607 C 6.871 8.068,7.077 8.644,7.540 8.894 C 7.698 8.979,7.737 8.980,10.120 9.001 L 12.540 9.023 12.861 9.123 C 13.821 9.422,14.598 10.200,14.869 11.134 C 15.005 11.604,14.998 11.639,14.730 11.880 C 14.224 12.333,13.634 12.664,12.971 12.867 C 12.655 12.963,12.558 12.974,12.000 12.974 C 11.442 12.974,11.345 12.963,11.029 12.867 C 10.228 12.622,9.670 12.276,9.010 11.614 C 8.763 11.366,8.508 11.135,8.444 11.102 C 8.278 11.016,7.929 10.984,7.736 11.036 C 7.196 11.181,6.879 11.776,7.057 12.311 C 7.241 12.864,8.474 13.930,9.494 14.417 C 9.919 14.620,10.477 14.807,10.960 14.908 C 11.436 15.008,12.564 15.008,13.040 14.908 C 13.523 14.807,14.081 14.620,14.506 14.417 C 15.469 13.957,16.677 12.938,16.926 12.375 C 17.000 12.208,17.008 12.133,16.989 11.762 C 16.943 10.861,16.645 9.953,16.158 9.234 L 16.005 9.008 16.181 8.982 C 16.581 8.922,16.944 8.529,16.987 8.111 C 17.021 7.785,16.926 7.546,16.620 7.188 C 15.752 6.170,14.329 5.340,13.040 5.100 C 12.701 5.036,11.763 4.992,11.460 5.025 " stroke="none" fill-rule="evenodd" fill="black"></path></svg>