<svg xmlns="http://www.w3.org/2000/svg" width="24" height="24" viewBox="0 0 24 24" version="1.1">
	<path d="M 12 2 C 10.979 2, 9.436 2.707, 8.571 3.571 C 7.707 4.436, 7 5.979, 7 7 C 7 8.021, 7.707 9.564, 8.571 10.429 C 9.436 11.293, 10.979 12, 12 12 C 13.021 12, 14.564 11.293, 15.429 10.429 C 16.293 9.564, 17 8.021, 17 7 C 17 5.979, 16.293 4.436, 15.429 3.571 C 14.564 2.707, 13.021 2, 12 2 M 12 4 C 11.585 4, 10.666 4.698, 9.958 5.550 C 8.896 6.831, 8.961 7.390, 10.336 8.764 C 11.888 10.317, 12.112 10.317, 13.664 8.764 C 15.039 7.390, 15.104 6.831, 14.042 5.550 C 13.334 4.698, 12.415 4, 12 4 M 9.071 14 C 7.461 14, 5.436 14.707, 4.571 15.571 C 3.707 16.436, 3 18.236, 3 19.571 C 3 20.907, 3.450 22, 4 22 C 4.550 22, 5 21.190, 5 20.200 C 5 19.210, 5.540 17.860, 6.200 17.200 C 6.860 16.540, 8.435 16, 9.700 16 C 10.965 16, 12 15.550, 12 15 C 12 14.450, 10.682 14, 9.071 14 M 16.929 14 C 16.418 14, 16 14.395, 16 14.878 C 16 15.360, 16.675 16.315, 17.500 17 C 18.325 17.685, 19 19.090, 19 20.122 C 19 21.155, 19.450 22, 20 22 C 20.550 22, 21 20.907, 21 19.571 C 21 18.236, 20.293 16.436, 19.429 15.571 C 18.564 14.707, 17.439 14, 16.929 14" stroke="none" fill="black" fill-rule="evenodd"/>
</svg>