<svg xmlns="http://www.w3.org/2000/svg" width="24" height="24" viewBox="0 0 24 24" version="1.1">
	<path d="M 7.500 1.894 C 3.457 3.652, 1.500 6.976, 1.500 12.082 C 1.500 16.074, 2.001 17.456, 4.273 19.727 C 6.557 22.011, 7.919 22.500, 12 22.500 C 19.011 22.500, 22.500 19.011, 22.500 12 C 22.500 7.999, 22 6.546, 19.903 4.448 C 17.099 1.644, 10.974 0.383, 7.500 1.894 M 5.923 5.923 C 4.043 7.803, 3 9.876, 3 11.732 C 3 15.181, 5.332 18.890, 6.406 17.151 C 7.332 15.653, 16.668 15.653, 17.594 17.151 C 18.668 18.890, 21 15.181, 21 11.732 C 21 9.876, 19.957 7.803, 18.077 5.923 C 14.147 1.993, 9.853 1.993, 5.923 5.923 M 9.040 7.452 C 7.485 9.325, 8.028 11.989, 10.250 13.388 C 13.715 15.570, 17.617 10.653, 14.960 7.452 C 13.416 5.591, 10.584 5.591, 9.040 7.452 M 10.446 9.087 C 9.416 10.755, 11.733 12.667, 13.113 11.287 C 14.267 10.133, 13.545 8, 12 8 C 11.515 8, 10.816 8.489, 10.446 9.087 M 8.250 19.250 C 8.793 20.878, 15.207 20.878, 15.750 19.250 C 16.039 18.383, 14.889 18, 12 18 C 9.111 18, 7.961 18.383, 8.250 19.250" stroke="none" fill="#000000" fill-rule="evenodd"/>
</svg>