<svg xmlns="http://www.w3.org/2000/svg" width="24" height="24" viewBox="0 0 24 24" version="1.1">
	<path d="M 9 2 C 7.979 2, 6.436 2.707, 5.571 3.571 C 4.707 4.436, 4 5.979, 4 7 C 4 8.021, 4.707 9.564, 5.571 10.429 C 6.436 11.293, 7.979 12, 9 12 C 10.021 12, 11.564 11.293, 12.429 10.429 C 13.293 9.564, 14 8.021, 14 7 C 14 5.979, 13.293 4.436, 12.429 3.571 C 11.564 2.707, 10.021 2, 9 2 M 15.929 2 C 15.418 2, 15 2.302, 15 2.671 C 15 3.040, 15.745 4.165, 16.655 5.171 C 18.195 6.873, 18.195 7.127, 16.655 8.829 C 15.745 9.835, 15 10.960, 15 11.329 C 15 11.698, 15.418 12, 15.929 12 C 16.439 12, 17.564 11.293, 18.429 10.429 C 19.293 9.564, 20 8.021, 20 7 C 20 5.979, 19.293 4.436, 18.429 3.571 C 17.564 2.707, 16.439 2, 15.929 2 M 9 4 C 8.585 4, 7.666 4.698, 6.958 5.550 C 5.896 6.831, 5.961 7.390, 7.336 8.764 C 8.888 10.317, 9.112 10.317, 10.664 8.764 C 12.039 7.390, 12.104 6.831, 11.042 5.550 C 10.334 4.698, 9.415 4, 9 4 M 9 14 C 5.009 14, 2.642 14.501, 1.571 15.571 C 0.707 16.436, 0 18.236, 0 19.571 C 0 20.907, 0.450 22, 1 22 C 1.550 22, 2 21.190, 2 20.200 C 2 19.210, 2.540 17.860, 3.200 17.200 C 3.860 16.540, 6.470 16, 9 16 C 11.530 16, 14.140 16.540, 14.800 17.200 C 15.460 17.860, 16 19.210, 16 20.200 C 16 21.190, 16.450 22, 17 22 C 17.550 22, 18 20.907, 18 19.571 C 18 18.236, 17.293 16.436, 16.429 15.571 C 15.358 14.501, 12.991 14, 9 14 M 19.929 14 C 19.418 14, 19 14.395, 19 14.878 C 19 15.360, 19.675 16.315, 20.500 17 C 21.325 17.685, 22 19.090, 22 20.122 C 22 21.155, 22.450 22, 23 22 C 23.550 22, 24 20.907, 24 19.571 C 24 18.236, 23.293 16.436, 22.429 15.571 C 21.564 14.707, 20.439 14, 19.929 14" stroke="none" fill="black" fill-rule="evenodd"/>
</svg>