<svg xmlns="http://www.w3.org/2000/svg" width="24" height="24" viewBox="0 0 24 24" version="1.1">
	<path d="M 5.571 3.571 C 3.564 5.578, 3.564 8.422, 5.571 10.429 C 8.604 13.461, 14 11.266, 14 7 C 14 4.614, 11.386 2, 9 2 C 7.979 2, 6.436 2.707, 5.571 3.571 M 15 2.671 C 15 3.040, 15.745 4.165, 16.655 5.171 C 18.195 6.873, 18.195 7.127, 16.655 8.829 C 14.800 10.878, 14.543 12, 15.929 12 C 17.516 12, 20 8.949, 20 7 C 20 5.979, 19.293 4.436, 18.429 3.571 C 16.814 1.957, 15 1.480, 15 2.671 M 6.958 5.550 C 5.896 6.831, 5.961 7.390, 7.336 8.764 C 8.888 10.317, 9.112 10.317, 10.664 8.764 C 12.039 7.390, 12.104 6.831, 11.042 5.550 C 10.334 4.698, 9.415 4, 9 4 C 8.585 4, 7.666 4.698, 6.958 5.550 M 1.571 15.571 C -0.163 17.306, -0.581 22, 1 22 C 1.550 22, 2 21.190, 2 20.200 C 2 17.268, 4.113 16, 9 16 C 13.887 16, 16 17.268, 16 20.200 C 16 21.190, 16.450 22, 17 22 C 18.581 22, 18.163 17.306, 16.429 15.571 C 14.260 13.403, 3.740 13.403, 1.571 15.571 M 19 14.878 C 19 15.360, 19.675 16.315, 20.500 17 C 21.325 17.685, 22 19.090, 22 20.122 C 22 21.155, 22.450 22, 23 22 C 24.581 22, 24.163 17.306, 22.429 15.571 C 20.704 13.847, 19 13.502, 19 14.878" stroke="none" fill="black" fill-rule="evenodd"/>
</svg>