<svg xmlns="http://www.w3.org/2000/svg" width="24" height="24" viewBox="0 0 24 24" version="1.1">
	<path d="M 13.403 1.438 C 11.256 1.210, 8.600 1.416, 7.500 1.894 C 6.400 2.373, 4.600 3.764, 3.500 4.987 C 2.078 6.568, 1.500 8.618, 1.500 12.082 C 1.500 16.074, 2.001 17.456, 4.273 19.727 C 6.557 22.011, 7.919 22.500, 12 22.500 C 16.081 22.500, 17.443 22.011, 19.727 19.727 C 22.011 17.443, 22.500 16.081, 22.500 12 C 22.500 7.999, 22 6.546, 19.903 4.448 C 18.256 2.802, 15.876 1.699, 13.403 1.438 M 12 3 C 9.848 3, 7.918 3.928, 5.923 5.923 C 4.043 7.803, 3 9.876, 3 11.732 C 3 13.319, 3.606 15.447, 4.347 16.460 C 5.281 17.737, 5.913 17.949, 6.406 17.151 C 6.798 16.518, 9.315 16, 12 16 C 14.685 16, 17.202 16.518, 17.594 17.151 C 18.087 17.949, 18.719 17.737, 19.653 16.460 C 20.394 15.447, 21 13.319, 21 11.732 C 21 9.876, 19.957 7.803, 18.077 5.923 C 16.082 3.928, 14.152 3, 12 3 M 12 6 C 11.035 6, 9.703 6.653, 9.040 7.452 C 8.377 8.251, 7.985 9.665, 8.167 10.595 C 8.350 11.525, 9.287 12.782, 10.250 13.388 C 11.525 14.190, 12.475 14.190, 13.750 13.388 C 14.713 12.782, 15.650 11.525, 15.833 10.595 C 16.015 9.665, 15.623 8.251, 14.960 7.452 C 14.297 6.653, 12.965 6, 12 6 M 12 8 C 11.515 8, 10.816 8.489, 10.446 9.087 C 10.077 9.685, 10.275 10.675, 10.887 11.287 C 11.704 12.104, 12.296 12.104, 13.113 11.287 C 13.725 10.675, 13.923 9.685, 13.554 9.087 C 13.184 8.489, 12.485 8, 12 8 M 12 18 C 9.111 18, 7.961 18.383, 8.250 19.250 C 8.479 19.938, 10.167 20.500, 12 20.500 C 13.833 20.500, 15.521 19.938, 15.750 19.250 C 16.039 18.383, 14.889 18, 12 18" stroke="none" fill="black" fill-rule="evenodd"/>
</svg>