<svg xmlns="http://www.w3.org/2000/svg" width="24" height="24" viewBox="0 0 24 24" version="1.1">
	<path d="M 12 2 C 10.979 2, 9.436 2.707, 8.571 3.571 C 7.707 4.436, 7 6.015, 7 7.081 C 7 8.147, 7.900 9.790, 9 10.732 C 10.100 11.674, 11 12.794, 11 13.222 C 11 13.650, 10.132 14, 9.071 14 C 8.011 14, 6.436 14.707, 5.571 15.571 C 4.707 16.436, 4 18.236, 4 19.571 C 4 20.907, 4.450 22, 5 22 C 5.550 22, 6 21.190, 6 20.200 C 6 19.210, 6.540 17.860, 7.200 17.200 C 7.860 16.540, 10.020 16, 12 16 C 13.980 16, 16.140 16.540, 16.800 17.200 C 17.460 17.860, 18 19.210, 18 20.200 C 18 21.190, 18.450 22, 19 22 C 19.550 22, 20 20.907, 20 19.571 C 20 18.236, 19.293 16.436, 18.429 15.571 C 17.564 14.707, 15.989 14, 14.929 14 C 13.868 14, 13 13.650, 13 13.222 C 13 12.794, 13.900 11.674, 15 10.732 C 16.100 9.790, 17 8.147, 17 7.081 C 17 6.015, 16.293 4.436, 15.429 3.571 C 14.564 2.707, 13.021 2, 12 2 M 12 4 C 11.585 4, 10.666 4.698, 9.958 5.550 C 8.896 6.831, 8.961 7.390, 10.336 8.764 C 11.888 10.317, 12.112 10.317, 13.664 8.764 C 15.039 7.390, 15.104 6.831, 14.042 5.550 C 13.334 4.698, 12.415 4, 12 4" stroke="none" fill="black" fill-rule="evenodd"/>
</svg>