<svg xmlns="http://www.w3.org/2000/svg" width="24" height="24" viewBox="0 0 24 24" version="1.1">
	<path d="M 10 2 C 8.979 2, 7.436 2.707, 6.571 3.571 C 5.707 4.436, 5 5.979, 5 7 C 5 8.021, 5.707 9.564, 6.571 10.429 C 7.436 11.293, 8.979 12, 10 12 C 11.021 12, 12.564 11.293, 13.429 10.429 C 14.293 9.564, 15 8.021, 15 7 C 15 5.979, 14.293 4.436, 13.429 3.571 C 12.564 2.707, 11.021 2, 10 2 M 10 4 C 9.585 4, 8.666 4.698, 7.958 5.550 C 6.896 6.831, 6.961 7.390, 8.336 8.764 C 9.888 10.317, 10.112 10.317, 11.664 8.764 C 13.039 7.390, 13.104 6.831, 12.042 5.550 C 11.334 4.698, 10.415 4, 10 4 M 17.078 13 C 16.155 13, 14.860 13.540, 14.200 14.200 C 13.540 14.860, 13 16.155, 13 17.078 C 13 18, 13.563 19.197, 14.250 19.737 C 14.938 20.277, 16.948 20.993, 18.719 21.328 C 21.889 21.928, 21.928 21.889, 21.328 18.719 C 20.993 16.948, 20.277 14.938, 19.737 14.250 C 19.197 13.563, 18 13, 17.078 13 M 8.071 14 C 6.461 14, 4.436 14.707, 3.571 15.571 C 2.707 16.436, 2 18.236, 2 19.571 C 2 20.907, 2.450 22, 3 22 C 3.550 22, 4 21.190, 4 20.200 C 4 19.210, 4.540 17.860, 5.200 17.200 C 5.860 16.540, 7.435 16, 8.700 16 C 9.965 16, 11 15.550, 11 15 C 11 14.450, 9.682 14, 8.071 14 M 17 15 C 16.515 15, 15.816 15.489, 15.446 16.087 C 15.077 16.685, 15.275 17.675, 15.887 18.287 C 16.704 19.104, 17.296 19.104, 18.113 18.287 C 18.725 17.675, 18.923 16.685, 18.554 16.087 C 18.184 15.489, 17.485 15, 17 15" stroke="none" fill="black" fill-rule="evenodd"/>
</svg>