<svg xmlns="http://www.w3.org/2000/svg" width="24" height="24" viewBox="0 0 24 24" version="1.1">
	<path d="M 6.571 3.571 C 3.016 7.126, 6.152 12.620, 11.164 11.617 C 13.253 11.199, 14 11.438, 14 12.525 C 14 13.575, 12.867 14, 10.071 14 C 7.833 14, 5.467 14.676, 4.571 15.571 C 2.837 17.306, 2.419 22, 4 22 C 4.550 22, 5 21.190, 5 20.200 C 5 19.210, 5.540 17.860, 6.200 17.200 C 7.651 15.749, 12 15.599, 12 17 C 12 17.550, 12.675 18, 13.500 18 C 14.333 18, 15 18.889, 15 20 C 15 21.100, 15.482 22, 16.072 22 C 16.788 22, 16.916 20.173, 16.457 16.500 C 15.872 11.820, 16.010 11, 17.385 11 C 18.276 11, 19 11.810, 19 12.809 C 19 14.866, 21.559 18.774, 22.373 17.960 C 22.668 17.665, 22.292 15.641, 21.536 13.462 C 20.362 10.075, 19.743 9.500, 17.268 9.500 C 14.869 9.500, 14.441 9.141, 14.773 7.408 C 15.598 3.094, 9.773 0.369, 6.571 3.571 M 7.958 5.550 C 6.896 6.831, 6.961 7.390, 8.336 8.764 C 9.888 10.317, 10.112 10.317, 11.664 8.764 C 13.039 7.390, 13.104 6.831, 12.042 5.550 C 11.334 4.698, 10.415 4, 10 4 C 9.585 4, 8.666 4.698, 7.958 5.550" stroke="none" fill="black" fill-rule="evenodd"/>
</svg>