<svg viewBox="0 0 24 24" xmlns="http://www.w3.org/2000/svg" fill="none" stroke="#000000" stroke-width="2" stroke-linecap="round" stroke-linejoin="round"><path d="M11.400 2.044 C 9.761 2.229,8.261 3.290,7.526 4.785 C 7.158 5.533,7.020 6.136,7.020 7.000 C 7.020 7.670,7.078 8.044,7.268 8.600 C 7.846 10.291,9.253 11.525,11.040 11.907 C 11.511 12.008,12.489 12.008,12.960 11.907 C 14.488 11.580,15.748 10.630,16.433 9.288 C 16.838 8.494,16.980 7.899,16.980 7.000 C 16.980 6.101,16.838 5.506,16.433 4.713 C 15.794 3.461,14.604 2.510,13.240 2.162 C 12.669 2.016,12.019 1.974,11.400 2.044 M12.861 4.129 C 13.804 4.405,14.584 5.183,14.875 6.139 C 14.958 6.412,14.973 6.542,14.973 7.000 C 14.973 7.458,14.958 7.588,14.875 7.861 C 14.582 8.822,13.819 9.581,12.840 9.886 C 12.406 10.021,11.594 10.021,11.160 9.886 C 10.181 9.581,9.418 8.822,9.125 7.861 C 9.042 7.588,9.027 7.458,9.027 7.000 C 9.027 6.542,9.042 6.412,9.125 6.139 C 9.456 5.054,10.371 4.245,11.499 4.040 C 11.832 3.980,12.500 4.023,12.861 4.129 M7.400 14.044 C 5.761 14.229,4.261 15.290,3.526 16.785 C 3.333 17.177,3.187 17.599,3.093 18.040 C 3.030 18.334,3.020 18.579,3.020 19.843 L 3.020 21.306 3.141 21.503 C 3.543 22.156,4.457 22.156,4.859 21.503 L 4.980 21.307 5.003 19.883 C 5.025 18.522,5.031 18.446,5.124 18.139 C 5.416 17.185,6.182 16.419,7.139 16.123 C 7.457 16.026,7.481 16.024,9.380 16.002 L 11.300 15.980 11.492 15.867 C 12.248 15.423,12.123 14.306,11.290 14.055 C 11.146 14.012,10.744 14.001,9.404 14.005 C 8.467 14.008,7.565 14.026,7.400 14.044 M16.650 14.264 C 16.091 14.470,15.836 15.185,16.138 15.701 C 16.280 15.942,16.450 16.062,16.845 16.195 C 17.029 16.257,17.270 16.354,17.381 16.410 C 17.914 16.681,18.421 17.204,18.697 17.770 C 18.958 18.304,18.971 18.394,18.997 19.923 L 19.020 21.307 19.141 21.503 C 19.543 22.156,20.457 22.156,20.859 21.503 L 20.980 21.306 20.980 19.863 C 20.980 18.602,20.971 18.377,20.905 18.080 C 20.692 17.109,20.279 16.331,19.601 15.624 C 19.030 15.028,18.404 14.621,17.660 14.361 C 17.225 14.209,16.887 14.176,16.650 14.264 " stroke="none" fill-rule="evenodd" fill="black"></path></svg>