<svg xmlns="http://www.w3.org/2000/svg" width="24" height="24" viewBox="0 0 24 24" version="1.1">
	<path d="M 8.571 3.571 C 6.423 5.720, 6.599 8.677, 9 10.732 C 11.520 12.890, 11.545 14, 9.071 14 C 8.011 14, 6.436 14.707, 5.571 15.571 C 3.837 17.306, 3.419 22, 5 22 C 5.550 22, 6 21.190, 6 20.200 C 6 17.431, 8.045 16, 12 16 C 15.955 16, 18 17.431, 18 20.200 C 18 21.190, 18.450 22, 19 22 C 20.581 22, 20.163 17.306, 18.429 15.571 C 17.564 14.707, 15.989 14, 14.929 14 C 12.455 14, 12.480 12.890, 15 10.732 C 18.517 7.721, 16.552 2, 12 2 C 10.979 2, 9.436 2.707, 8.571 3.571 M 9.958 5.550 C 8.896 6.831, 8.961 7.390, 10.336 8.764 C 11.888 10.317, 12.112 10.317, 13.664 8.764 C 15.039 7.390, 15.104 6.831, 14.042 5.550 C 13.334 4.698, 12.415 4, 12 4 C 11.585 4, 10.666 4.698, 9.958 5.550" stroke="none" fill="black" fill-rule="evenodd"/>
</svg>