<svg xmlns="http://www.w3.org/2000/svg" width="24" height="24" viewBox="0 0 24 24" version="1.1">
	<path d="M 10 2 C 8.979 2, 7.436 2.707, 6.571 3.571 C 5.707 4.436, 5 5.979, 5 7 C 5 8.021, 5.707 9.564, 6.571 10.429 C 7.436 11.293, 8.979 12, 10 12 C 11.021 12, 12.564 11.293, 13.429 10.429 C 14.293 9.564, 15 8.021, 15 7 C 15 5.979, 14.293 4.436, 13.429 3.571 C 12.564 2.707, 11.021 2, 10 2 M 10 4 C 9.585 4, 8.666 4.698, 7.958 5.550 C 6.896 6.831, 6.961 7.390, 8.336 8.764 C 9.888 10.317, 10.112 10.317, 11.664 8.764 C 13.039 7.390, 13.104 6.831, 12.042 5.550 C 11.334 4.698, 10.415 4, 10 4 M 22.122 8 C 21.640 8, 20.676 8.685, 19.981 9.523 C 19.252 10.402, 17.932 10.796, 16.859 10.455 C 15.836 10.131, 15 10.290, 15 10.810 C 15 11.330, 15.688 12.326, 16.529 13.024 C 17.798 14.077, 18.480 13.898, 20.529 11.972 C 21.888 10.696, 23 9.280, 23 8.826 C 23 8.372, 22.605 8, 22.122 8 M 10 14 C 7.827 14, 5.457 14.686, 4.571 15.571 C 3.707 16.436, 3 18.236, 3 19.571 C 3 20.907, 3.450 22, 4 22 C 4.550 22, 5 21.190, 5 20.200 C 5 19.210, 5.540 17.860, 6.200 17.200 C 6.860 16.540, 8.570 16, 10 16 C 11.430 16, 13.140 16.540, 13.800 17.200 C 14.460 17.860, 15 19.210, 15 20.200 C 15 21.190, 15.450 22, 16 22 C 16.550 22, 17 20.907, 17 19.571 C 17 18.236, 16.293 16.436, 15.429 15.571 C 14.543 14.686, 12.173 14, 10 14" stroke="none" fill="black" fill-rule="evenodd"/>
</svg>