<svg xmlns="http://www.w3.org/2000/svg" width="24" height="24" viewBox="0 0 24 24" version="1.1">
	<path d="M 8.500 2 C 6.986 2, 5.419 2.958, 4.408 4.500 C 2.891 6.816, 2.891 7.184, 4.408 9.500 C 5.419 11.042, 6.986 12, 8.500 12 C 10.014 12, 11.581 11.042, 12.592 9.500 C 14.109 7.184, 14.109 6.816, 12.592 4.500 C 11.581 2.958, 10.014 2, 8.500 2 M 8.747 4.190 C 7.783 4.004, 6.722 4.560, 6.390 5.426 C 6.058 6.292, 6.058 7.708, 6.390 8.574 C 6.722 9.440, 7.783 9.996, 8.747 9.810 C 9.854 9.597, 10.500 8.561, 10.500 7 C 10.500 5.439, 9.854 4.403, 8.747 4.190 M 17.941 7 C 17.423 7, 17 7.423, 17 7.941 C 17 8.459, 17.472 9.174, 18.049 9.530 C 18.763 9.972, 18.718 10.635, 17.906 11.613 C 17.251 12.403, 17.012 13.345, 17.374 13.707 C 17.737 14.070, 18.555 13.845, 19.193 13.207 C 20.050 12.350, 20.704 12.339, 21.700 13.166 C 22.442 13.782, 23.327 14.007, 23.667 13.667 C 24.007 13.327, 23.782 12.442, 23.166 11.700 C 22.339 10.704, 22.350 10.050, 23.207 9.193 C 23.845 8.555, 24.070 7.737, 23.707 7.374 C 23.345 7.012, 22.403 7.251, 21.613 7.906 C 20.635 8.718, 19.972 8.763, 19.530 8.049 C 19.174 7.472, 18.459 7, 17.941 7 M 8.500 14 C 4.963 14, 2.609 14.534, 1.571 15.571 C 0.707 16.436, 0 18.236, 0 19.571 C 0 20.907, 0.450 22, 1 22 C 1.550 22, 2 21.190, 2 20.200 C 2 19.210, 2.540 17.860, 3.200 17.200 C 3.860 16.540, 6.245 16, 8.500 16 C 10.755 16, 13.140 16.540, 13.800 17.200 C 14.460 17.860, 15 19.210, 15 20.200 C 15 21.190, 15.450 22, 16 22 C 16.550 22, 17 20.907, 17 19.571 C 17 18.236, 16.293 16.436, 15.429 15.571 C 14.391 14.534, 12.037 14, 8.500 14" stroke="none" fill="black" fill-rule="evenodd"/>
</svg>