<svg xmlns="http://www.w3.org/2000/svg" width="24" height="24" viewBox="0 0 24 24" version="1.1">
	<path d="M 5.571 3.571 C 3.564 5.578, 3.564 8.422, 5.571 10.429 C 8.604 13.461, 14 11.266, 14 7 C 14 4.614, 11.386 2, 9 2 C 7.979 2, 6.436 2.707, 5.571 3.571 M 6.958 5.550 C 5.896 6.831, 5.961 7.390, 7.336 8.764 C 8.888 10.317, 9.112 10.317, 10.664 8.764 C 12.039 7.390, 12.104 6.831, 11.042 5.550 C 10.334 4.698, 9.415 4, 9 4 C 8.585 4, 7.666 4.698, 6.958 5.550 M 16.468 9.035 C 14.674 11.018, 14.682 11.127, 16.813 13.258 L 19 15.444 21.187 13.258 C 23.318 11.127, 23.326 11.018, 21.532 9.035 C 20.519 7.916, 19.380 7, 19 7 C 18.620 7, 17.481 7.916, 16.468 9.035 M 1.571 15.571 C -0.163 17.306, -0.581 22, 1 22 C 1.550 22, 2 21.190, 2 20.200 C 2 17.491, 4.023 16, 7.700 16 C 9.515 16, 11 15.550, 11 15 C 11 13.376, 3.300 13.843, 1.571 15.571" stroke="none" fill="black" fill-rule="evenodd"/>
</svg>