<svg xmlns="http://www.w3.org/2000/svg" width="24" height="24" viewBox="0 0 24 24" version="1.1">
	<path d="M 4.408 4.500 C 2.891 6.816, 2.891 7.184, 4.408 9.500 C 6.572 12.802, 10.428 12.802, 12.592 9.500 C 14.109 7.184, 14.109 6.816, 12.592 4.500 C 10.428 1.198, 6.572 1.198, 4.408 4.500 M 6.390 5.426 C 5.480 7.797, 6.767 10.191, 8.747 9.810 C 11.125 9.352, 11.125 4.648, 8.747 4.190 C 7.783 4.004, 6.722 4.560, 6.390 5.426 M 17 7.941 C 17 8.459, 17.472 9.174, 18.049 9.530 C 18.763 9.972, 18.718 10.635, 17.906 11.613 C 16.437 13.383, 17.589 14.811, 19.193 13.207 C 20.050 12.350, 20.704 12.339, 21.700 13.166 C 23.452 14.620, 24.620 13.452, 23.166 11.700 C 22.339 10.704, 22.350 10.050, 23.207 9.193 C 24.811 7.589, 23.383 6.437, 21.613 7.906 C 20.635 8.718, 19.972 8.763, 19.530 8.049 C 18.724 6.745, 17 6.671, 17 7.941 M 1.571 15.571 C -0.163 17.306, -0.581 22, 1 22 C 1.550 22, 2 21.190, 2 20.200 C 2 17.344, 4.080 16, 8.500 16 C 12.920 16, 15 17.344, 15 20.200 C 15 21.190, 15.450 22, 16 22 C 17.581 22, 17.163 17.306, 15.429 15.571 C 13.283 13.426, 3.717 13.426, 1.571 15.571" stroke="none" fill="#000000" fill-rule="evenodd"/>
</svg>