<svg viewBox="0 0 24 24" xmlns="http://www.w3.org/2000/svg" fill="none" stroke="#000000" stroke-width="2" stroke-linecap="round" stroke-linejoin="round"><path d="M8.400 2.044 C 6.761 2.229,5.261 3.290,4.526 4.785 C 4.158 5.533,4.020 6.136,4.020 7.000 C 4.020 7.670,4.078 8.044,4.268 8.600 C 4.846 10.291,6.253 11.525,8.040 11.907 C 8.511 12.008,9.489 12.008,9.960 11.907 C 11.488 11.580,12.748 10.630,13.433 9.288 C 13.838 8.494,13.980 7.899,13.980 7.000 C 13.980 6.101,13.838 5.506,13.433 4.713 C 12.794 3.461,11.604 2.510,10.240 2.162 C 9.669 2.016,9.019 1.974,8.400 2.044 M9.861 4.129 C 10.804 4.405,11.584 5.183,11.875 6.139 C 11.958 6.412,11.973 6.542,11.973 7.000 C 11.973 7.458,11.958 7.588,11.875 7.861 C 11.582 8.822,10.819 9.581,9.840 9.886 C 9.406 10.021,8.594 10.021,8.160 9.886 C 7.181 9.581,6.418 8.822,6.125 7.861 C 6.042 7.588,6.027 7.458,6.027 7.000 C 6.027 6.542,6.042 6.412,6.125 6.139 C 6.456 5.054,7.371 4.245,8.499 4.040 C 8.832 3.980,9.500 4.023,9.861 4.129 M17.358 11.061 C 16.230 11.237,15.143 11.974,14.569 12.953 C 13.696 14.441,13.848 16.269,14.954 17.584 C 15.529 18.266,16.331 18.735,17.243 18.921 C 18.380 19.152,19.630 18.835,20.540 18.084 C 20.807 17.863,20.798 17.860,20.902 18.220 C 20.959 18.418,20.975 18.706,20.995 19.883 L 21.020 21.307 21.141 21.503 C 21.543 22.156,22.457 22.156,22.859 21.503 L 22.980 21.306 22.980 19.823 C 22.980 18.171,22.964 18.027,22.694 17.280 C 22.541 16.859,22.409 16.605,22.110 16.164 L 21.910 15.868 21.955 15.596 C 22.096 14.746,21.889 13.716,21.421 12.932 C 20.834 11.949,19.756 11.232,18.605 11.058 C 18.144 10.989,17.816 10.990,17.358 11.061 M18.523 13.073 C 18.866 13.163,19.198 13.365,19.456 13.643 C 19.659 13.861,19.920 14.293,19.876 14.338 C 19.864 14.350,19.720 14.313,19.557 14.255 C 19.131 14.105,18.808 14.107,18.526 14.260 C 17.979 14.558,17.838 15.243,18.220 15.743 C 18.356 15.922,18.508 16.016,18.839 16.126 C 18.982 16.174,19.179 16.248,19.278 16.292 L 19.457 16.371 19.279 16.530 C 18.820 16.938,18.120 17.100,17.508 16.940 C 16.823 16.762,16.249 16.194,16.073 15.523 C 15.740 14.246,16.690 13.005,18.000 13.005 C 18.143 13.005,18.378 13.036,18.523 13.073 M5.400 14.044 C 3.761 14.229,2.261 15.290,1.526 16.785 C 1.333 17.177,1.187 17.599,1.093 18.040 C 1.030 18.334,1.020 18.579,1.020 19.843 L 1.020 21.306 1.141 21.503 C 1.543 22.156,2.457 22.156,2.859 21.503 L 2.980 21.307 3.004 19.883 C 3.030 18.292,3.041 18.218,3.320 17.660 C 3.684 16.934,4.356 16.366,5.139 16.123 L 5.460 16.023 7.880 16.002 L 10.300 15.980 10.492 15.867 C 11.248 15.423,11.123 14.306,10.290 14.055 C 10.144 14.011,9.667 14.001,7.904 14.005 C 6.692 14.008,5.565 14.026,5.400 14.044 " stroke="none" fill-rule="evenodd" fill="black"></path></svg>