<svg viewBox="0 0 24 24" xmlns="http://www.w3.org/2000/svg" fill="none" stroke="#000000" stroke-width="2" stroke-linecap="round" stroke-linejoin="round"><path d="M8.400 2.044 C 6.761 2.229,5.261 3.290,4.526 4.785 C 4.158 5.533,4.020 6.136,4.020 7.000 C 4.020 7.670,4.078 8.044,4.268 8.600 C 4.846 10.291,6.253 11.525,8.040 11.907 C 8.511 12.008,9.489 12.008,9.960 11.907 C 11.488 11.580,12.748 10.630,13.433 9.288 C 13.838 8.494,13.980 7.899,13.980 7.000 C 13.980 6.101,13.838 5.506,13.433 4.713 C 12.794 3.461,11.604 2.510,10.240 2.162 C 9.669 2.016,9.019 1.974,8.400 2.044 M9.861 4.129 C 10.804 4.405,11.584 5.183,11.875 6.139 C 11.958 6.412,11.973 6.542,11.973 7.000 C 11.973 7.458,11.958 7.588,11.875 7.861 C 11.582 8.822,10.819 9.581,9.840 9.886 C 9.406 10.021,8.594 10.021,8.160 9.886 C 7.181 9.581,6.418 8.822,6.125 7.861 C 6.042 7.588,6.027 7.458,6.027 7.000 C 6.027 6.542,6.042 6.412,6.125 6.139 C 6.456 5.054,7.371 4.245,8.499 4.040 C 8.832 3.980,9.500 4.023,9.861 4.129 M18.695 7.057 C 18.310 7.177,18.048 7.510,18.010 7.923 C 17.991 8.139,17.977 8.171,17.884 8.206 C 17.827 8.227,17.663 8.310,17.521 8.390 C 17.281 8.523,17.236 8.534,16.918 8.537 C 16.607 8.540,16.555 8.552,16.377 8.661 C 16.246 8.742,16.138 8.853,16.054 8.992 C 15.886 9.274,15.856 9.493,15.950 9.770 L 16.023 9.987 15.800 10.034 C 15.521 10.091,15.274 10.268,15.129 10.514 C 15.036 10.672,15.020 10.745,15.020 11.003 C 15.020 11.271,15.034 11.329,15.141 11.503 C 15.293 11.750,15.581 11.949,15.835 11.983 L 16.025 12.008 15.950 12.230 C 15.841 12.553,15.898 12.817,16.147 13.150 C 16.329 13.393,16.763 13.546,17.073 13.477 C 17.221 13.444,17.262 13.450,17.360 13.520 C 17.423 13.565,17.591 13.656,17.732 13.722 L 17.989 13.842 18.011 14.085 C 18.039 14.393,18.194 14.654,18.452 14.828 C 19.076 15.247,19.921 14.839,19.989 14.085 L 20.011 13.842 20.268 13.722 C 20.409 13.656,20.577 13.565,20.640 13.520 C 20.738 13.450,20.779 13.444,20.927 13.477 C 21.237 13.546,21.671 13.393,21.853 13.150 C 22.102 12.817,22.159 12.553,22.050 12.230 L 21.975 12.008 22.165 11.983 C 22.419 11.949,22.707 11.750,22.859 11.503 C 22.966 11.329,22.980 11.271,22.980 11.003 C 22.980 10.745,22.964 10.672,22.871 10.514 C 22.726 10.268,22.479 10.091,22.200 10.034 L 21.977 9.987 22.050 9.770 C 22.144 9.493,22.114 9.274,21.946 8.992 C 21.862 8.853,21.754 8.742,21.623 8.661 C 21.445 8.552,21.393 8.540,21.082 8.537 C 20.764 8.534,20.719 8.523,20.479 8.390 C 20.337 8.310,20.173 8.227,20.116 8.206 C 20.023 8.171,20.009 8.139,19.990 7.923 C 19.931 7.275,19.315 6.863,18.695 7.057 M19.223 10.208 C 19.314 10.565,19.594 10.877,19.882 10.941 C 19.947 10.955,20.000 10.981,20.000 11.000 C 20.000 11.019,19.947 11.045,19.882 11.059 C 19.585 11.125,19.272 11.488,19.217 11.830 L 19.190 12.000 18.995 12.000 C 18.833 12.000,18.800 11.988,18.800 11.927 C 18.800 11.613,18.466 11.167,18.164 11.076 C 18.074 11.049,18.000 11.015,18.000 11.000 C 18.000 10.985,18.074 10.951,18.164 10.924 C 18.399 10.853,18.653 10.584,18.738 10.316 C 18.775 10.197,18.814 10.076,18.823 10.048 C 18.834 10.013,18.895 9.999,19.007 10.008 C 19.171 10.020,19.176 10.025,19.223 10.208 M4.400 14.044 C 2.761 14.229,1.261 15.290,0.526 16.785 C 0.333 17.177,0.187 17.599,0.093 18.040 C 0.030 18.334,0.020 18.579,0.020 19.843 L 0.020 21.306 0.141 21.503 C 0.543 22.156,1.457 22.156,1.859 21.503 L 1.980 21.307 2.004 19.883 C 2.030 18.292,2.041 18.218,2.320 17.660 C 2.684 16.935,3.355 16.367,4.139 16.122 L 4.460 16.022 7.380 16.001 L 10.300 15.980 10.492 15.867 C 11.248 15.423,11.123 14.306,10.290 14.055 C 10.142 14.010,9.591 14.001,7.404 14.005 C 5.917 14.008,4.565 14.026,4.400 14.044 " stroke="none" fill-rule="evenodd" fill="black"></path></svg>