<svg xmlns="http://www.w3.org/2000/svg" width="24" height="24" viewBox="0 0 24 24" version="1.1">
	<path d="M 3 1 C 2.450 1, 2 3.292, 2 6.094 C 2 10.346, 2.330 11.274, 4 11.710 C 5.688 12.152, 6 13.074, 6 17.617 C 6 20.577, 6.450 23, 7 23 C 7.550 23, 8 20.577, 8 17.617 C 8 13.074, 8.312 12.152, 10 11.710 C 11.670 11.274, 12 10.346, 12 6.094 C 12 3.292, 11.550 1, 11 1 C 10.450 1, 10 3.025, 10 5.500 C 10 7.975, 9.550 10, 9 10 C 8.450 10, 8 7.975, 8 5.500 C 8 3.025, 7.550 1, 7 1 C 6.450 1, 6 3.025, 6 5.500 C 6 7.975, 5.550 10, 5 10 C 4.450 10, 4 7.975, 4 5.500 C 4 3.025, 3.550 1, 3 1 M 20.155 1 C 19.140 1, 17.540 1.851, 16.599 2.891 C 15.330 4.293, 14.967 6.167, 15.194 10.141 C 15.462 14.827, 15.783 15.540, 17.750 15.820 C 19.584 16.080, 20 16.773, 20 19.570 C 20 21.456, 20.450 23, 21 23 C 21.606 23, 22 18.667, 22 12 C 22 1.975, 21.837 1, 20.155 1 M 19.700 3 C 19.535 3, 18.860 3.540, 18.200 4.200 C 17.540 4.860, 17 7.335, 17 9.700 C 17 12.856, 17.399 14, 18.500 14 C 19.652 14, 20 12.722, 20 8.500 C 20 5.475, 19.865 3, 19.700 3" stroke="none" fill="black" fill-rule="evenodd"/>
</svg>