<svg xmlns="http://www.w3.org/2000/svg" width="24" height="24" viewBox="0 0 24 24" version="1.1">
	<path d="M 1 5 C 1 7.889, 1.417 9, 2.500 9 C 3.500 9, 4 10, 4 12 C 4 14, 3.500 15, 2.500 15 C 1.417 15, 1 16.111, 1 19 L 1 23 5 23 C 7.889 23, 9 22.583, 9 21.500 C 9 20.500, 10 20, 12 20 C 14 20, 15 20.500, 15 21.500 C 15 22.583, 16.111 23, 19 23 L 23 23 23 19 C 23 16.111, 22.583 15, 21.500 15 C 20.500 15, 20 14, 20 12 C 20 10, 20.500 9, 21.500 9 C 22.583 9, 23 7.889, 23 5 L 23 1 19 1 C 16.111 1, 15 1.417, 15 2.500 C 15 3.500, 14 4, 12 4 C 10 4, 9 3.500, 9 2.500 C 9 1.417, 7.889 1, 5 1 L 1 1 1 5 M 3 5 C 3 6.333, 3.667 7, 5 7 C 6.333 7, 7 6.333, 7 5 C 7 3.667, 6.333 3, 5 3 C 3.667 3, 3 3.667, 3 5 M 17 5 C 17 6.333, 17.667 7, 19 7 C 20.333 7, 21 6.333, 21 5 C 21 3.667, 20.333 3, 19 3 C 17.667 3, 17 3.667, 17 5 M 9 7.500 C 9 8.325, 8.325 9, 7.500 9 C 6.500 9, 6 10, 6 12 C 6 14, 6.500 15, 7.500 15 C 8.325 15, 9 15.675, 9 16.500 C 9 17.500, 10 18, 12 18 C 14 18, 15 17.500, 15 16.500 C 15 15.675, 15.675 15, 16.500 15 C 17.500 15, 18 14, 18 12 C 18 10, 17.500 9, 16.500 9 C 15.675 9, 15 8.325, 15 7.500 C 15 6.500, 14 6, 12 6 C 10 6, 9 6.500, 9 7.500 M 3 19 C 3 20.333, 3.667 21, 5 21 C 6.333 21, 7 20.333, 7 19 C 7 17.667, 6.333 17, 5 17 C 3.667 17, 3 17.667, 3 19 M 17 19 C 17 20.333, 17.667 21, 19 21 C 20.333 21, 21 20.333, 21 19 C 21 17.667, 20.333 17, 19 17 C 17.667 17, 17 17.667, 17 19" stroke="none" fill="black" fill-rule="evenodd"/>
</svg>