<svg viewBox="0 0 24 24" xmlns="http://www.w3.org/2000/svg" fill="none" stroke="#000000" stroke-width="2" stroke-linecap="round" stroke-linejoin="round"><path d="M1.695 1.057 C 1.466 1.129,1.256 1.299,1.128 1.516 L 1.020 1.700 1.009 4.912 C 1.002 7.005,1.012 8.177,1.039 8.276 C 1.099 8.498,1.290 8.739,1.508 8.867 L 1.700 8.980 2.850 8.992 L 4.000 9.005 4.000 12.002 L 4.000 15.000 2.946 15.000 C 1.797 15.000,1.644 15.022,1.382 15.221 C 1.302 15.282,1.187 15.415,1.128 15.516 L 1.020 15.700 1.020 19.000 L 1.020 22.300 1.131 22.489 C 1.256 22.702,1.449 22.864,1.670 22.943 C 1.891 23.022,8.109 23.022,8.330 22.943 C 8.551 22.864,8.744 22.702,8.869 22.489 L 8.980 22.300 8.992 21.150 L 9.005 20.000 12.000 20.000 L 14.995 20.000 15.008 21.150 L 15.020 22.300 15.131 22.489 C 15.256 22.702,15.449 22.864,15.670 22.943 C 15.891 23.022,22.109 23.022,22.330 22.943 C 22.551 22.864,22.744 22.702,22.869 22.489 L 22.980 22.300 22.980 19.000 L 22.980 15.700 22.872 15.516 C 22.813 15.415,22.698 15.282,22.618 15.221 C 22.356 15.022,22.203 15.000,21.054 15.000 L 20.000 15.000 20.000 12.002 L 20.000 9.005 21.150 8.992 L 22.300 8.980 22.492 8.867 C 22.710 8.739,22.901 8.498,22.961 8.276 C 22.988 8.177,22.998 7.005,22.991 4.912 L 22.980 1.700 22.872 1.516 C 22.740 1.293,22.533 1.128,22.290 1.055 C 22.021 0.974,15.979 0.974,15.710 1.055 C 15.467 1.128,15.260 1.293,15.128 1.516 L 15.020 1.700 15.008 2.850 L 14.995 4.000 12.000 4.000 L 9.005 4.000 8.992 2.850 L 8.980 1.700 8.872 1.516 C 8.740 1.293,8.533 1.128,8.290 1.055 C 8.030 0.977,1.945 0.979,1.695 1.057 M7.000 5.000 L 7.000 7.000 5.000 7.000 L 3.000 7.000 3.000 5.000 L 3.000 3.000 5.000 3.000 L 7.000 3.000 7.000 5.000 M21.000 5.000 L 21.000 7.000 19.000 7.000 L 17.000 7.000 17.000 5.000 L 17.000 3.000 19.000 3.000 L 21.000 3.000 21.000 5.000 M15.008 7.150 L 15.020 8.300 15.131 8.489 C 15.192 8.592,15.304 8.725,15.381 8.783 C 15.643 8.983,15.738 8.996,16.910 8.998 L 18.000 9.000 18.000 12.000 L 18.000 15.000 16.946 15.000 C 15.797 15.000,15.644 15.022,15.382 15.221 C 15.302 15.282,15.187 15.415,15.128 15.516 L 15.020 15.700 15.008 16.850 L 14.995 18.000 12.000 18.000 L 9.005 18.000 8.992 16.850 L 8.980 15.700 8.872 15.516 C 8.813 15.415,8.698 15.282,8.618 15.221 C 8.356 15.022,8.203 15.000,7.054 15.000 L 6.000 15.000 6.000 12.002 L 6.000 9.005 7.150 8.992 L 8.300 8.980 8.489 8.869 C 8.592 8.808,8.725 8.696,8.783 8.619 C 8.983 8.357,8.996 8.262,8.998 7.090 L 9.000 6.000 11.998 6.000 L 14.995 6.000 15.008 7.150 M7.000 19.000 L 7.000 21.000 5.000 21.000 L 3.000 21.000 3.000 19.000 L 3.000 17.000 5.000 17.000 L 7.000 17.000 7.000 19.000 M21.000 19.000 L 21.000 21.000 19.000 21.000 L 17.000 21.000 17.000 19.000 L 17.000 17.000 19.000 17.000 L 21.000 17.000 21.000 19.000 " stroke="none" fill="black" fill-rule="evenodd"></path></svg>