<svg xmlns="http://www.w3.org/2000/svg" width="24" height="24" viewBox="0 0 24 24" version="1.1">
	<path d="M 0.766 0 C 0.345 0, 0 0.423, 0 0.941 C 0 1.459, 0.472 2.174, 1.049 2.530 C 1.774 2.978, 1.759 3.585, 1.001 4.499 C 0.369 5.261, 0.031 8.717, 0.202 12.660 L 0.500 19.500 9.251 19.576 C 16.995 19.644, 18.288 19.922, 20.497 21.997 C 21.869 23.286, 23.309 24.024, 23.696 23.637 C 24.084 23.250, 19.255 17.773, 12.967 11.466 C 6.678 5.160, 1.188 0, 0.766 0 M 13.250 4.187 C 11.424 4.011, 10 4.339, 10 4.937 C 10 5.521, 11.125 6, 12.500 6 C 14.508 6, 15 6.498, 15 8.531 C 15 9.924, 15.692 11.328, 16.537 11.653 C 17.383 11.977, 18.958 11.443, 20.037 10.466 C 21.961 8.725, 22 8.783, 22 13.345 C 22 15.905, 22.450 18, 23 18 C 23.556 18, 24 15.333, 24 12 C 24 8.700, 23.611 6, 23.135 6 C 22.659 6, 21.115 6.909, 19.703 8.019 L 17.136 10.038 16.818 7.269 C 16.552 4.957, 15.964 4.448, 13.250 4.187 M 3.219 6 C 2.396 6, 2 7.949, 2 12 L 2 18 8.500 18 C 12.075 18, 15 17.647, 15 17.216 C 15 16.785, 12.623 14.085, 9.719 11.216 C 6.814 8.347, 3.889 6, 3.219 6" stroke="none" fill="black" fill-rule="evenodd"/>
</svg>