<svg xmlns="http://www.w3.org/2000/svg" width="24" height="24" viewBox="0 0 24 24" version="1.1">
	<path d="M 12 1 C 11.450 1, 11 2.087, 11 3.417 C 11 4.746, 10.438 6.037, 9.750 6.286 C 9.063 6.535, 7.710 6.051, 6.744 5.209 C 5.778 4.367, 4.693 3.973, 4.333 4.333 C 3.973 4.693, 4.367 5.778, 5.209 6.744 C 6.051 7.710, 6.535 9.063, 6.286 9.750 C 6.037 10.437, 4.746 11, 3.417 11 C 2.087 11, 1 11.450, 1 12 C 1 12.550, 2.087 13, 3.417 13 C 4.746 13, 6.037 13.562, 6.286 14.250 C 6.535 14.938, 6.051 16.290, 5.209 17.256 C 4.367 18.222, 3.973 19.307, 4.333 19.667 C 4.693 20.027, 5.778 19.633, 6.744 18.791 C 7.710 17.949, 9.063 17.465, 9.750 17.714 C 10.437 17.963, 11 19.254, 11 20.583 C 11 21.913, 11.450 23, 12 23 C 12.550 23, 13 21.913, 13 20.583 C 13 19.254, 13.562 17.963, 14.250 17.714 C 14.938 17.465, 16.290 17.949, 17.256 18.791 C 18.222 19.633, 19.307 20.027, 19.667 19.667 C 20.027 19.307, 19.633 18.222, 18.791 17.256 C 17.949 16.290, 17.465 14.938, 17.714 14.250 C 17.963 13.562, 19.254 13, 20.583 13 C 21.913 13, 23 12.550, 23 12 C 23 11.450, 21.913 11, 20.583 11 C 19.254 11, 17.963 10.437, 17.714 9.750 C 17.465 9.063, 17.949 7.710, 18.791 6.744 C 19.633 5.778, 20.027 4.693, 19.667 4.333 C 19.307 3.973, 18.222 4.367, 17.256 5.209 C 16.290 6.051, 14.938 6.535, 14.250 6.286 C 13.563 6.037, 13 4.746, 13 3.417 C 13 2.087, 12.550 1, 12 1 M 12 8 C 11.035 8, 9.703 8.653, 9.040 9.452 C 8.377 10.251, 7.985 11.665, 8.167 12.595 C 8.350 13.525, 9.287 14.782, 10.250 15.388 C 11.525 16.190, 12.475 16.190, 13.750 15.388 C 14.713 14.782, 15.650 13.525, 15.833 12.595 C 16.015 11.665, 15.623 10.251, 14.960 9.452 C 14.297 8.653, 12.965 8, 12 8" stroke="none" fill="black" fill-rule="evenodd"/>
</svg>