<svg xmlns="http://www.w3.org/2000/svg" width="24" height="24" viewBox="0 0 24 24" version="1.1">
	<path d="M 11 3.417 C 11 6.417, 9.065 7.232, 6.744 5.209 C 4.461 3.220, 3.220 4.461, 5.209 6.744 C 7.232 9.065, 6.417 11, 3.417 11 C 2.087 11, 1 11.450, 1 12 C 1 12.550, 2.087 13, 3.417 13 C 6.417 13, 7.232 14.935, 5.209 17.256 C 3.220 19.539, 4.461 20.780, 6.744 18.791 C 9.065 16.768, 11 17.583, 11 20.583 C 11 21.913, 11.450 23, 12 23 C 12.550 23, 13 21.913, 13 20.583 C 13 17.583, 14.935 16.768, 17.256 18.791 C 19.539 20.780, 20.780 19.539, 18.791 17.256 C 16.768 14.935, 17.583 13, 20.583 13 C 21.913 13, 23 12.550, 23 12 C 23 11.450, 21.913 11, 20.583 11 C 17.583 11, 16.768 9.065, 18.791 6.744 C 20.780 4.461, 19.539 3.220, 17.256 5.209 C 14.935 7.232, 13 6.417, 13 3.417 C 13 2.087, 12.550 1, 12 1 C 11.450 1, 11 2.087, 11 3.417 M 9.040 9.452 C 7.485 11.325, 8.028 13.989, 10.250 15.388 C 13.715 17.570, 17.617 12.653, 14.960 9.452 C 13.416 7.591, 10.584 7.591, 9.040 9.452" stroke="none" fill="black" fill-rule="evenodd"/>
</svg>