<svg xmlns="http://www.w3.org/2000/svg" width="24" height="24" viewBox="0 0 24 24" version="1.1">
	<path d="M 1 1.768 C 1 3.210, 21.932 23.401, 22.667 22.667 C 23.401 21.932, 3.210 1, 1.768 1 C 1.346 1, 1 1.346, 1 1.768 M 11 5.500 C 11 6.875, 11.450 8, 12 8 C 12.550 8, 13 6.875, 13 5.500 C 13 4.125, 12.550 3, 12 3 C 11.450 3, 11 4.125, 11 5.500 M 15.569 6.924 C 14.634 7.957, 14.289 9.061, 14.801 9.377 C 15.314 9.694, 16.497 9.108, 17.431 8.076 C 18.366 7.043, 18.711 5.939, 18.199 5.623 C 17.686 5.306, 16.503 5.892, 15.569 6.924 M 3 12 C 3 12.550, 4.125 13, 5.500 13 C 6.875 13, 8 12.550, 8 12 C 8 11.450, 6.875 11, 5.500 11 C 4.125 11, 3 11.450, 3 12 M 16 12 C 16 12.550, 17.125 13, 18.500 13 C 19.875 13, 21 12.550, 21 12 C 21 11.450, 19.875 11, 18.500 11 C 17.125 11, 16 11.450, 16 12 M 6.569 15.924 C 5.634 16.957, 5.289 18.061, 5.801 18.377 C 6.314 18.694, 7.497 18.108, 8.431 17.076 C 9.366 16.043, 9.711 14.939, 9.199 14.623 C 8.686 14.306, 7.503 14.892, 6.569 15.924 M 11 18.500 C 11 19.875, 11.450 21, 12 21 C 12.550 21, 13 19.875, 13 18.500 C 13 17.125, 12.550 16, 12 16 C 11.450 16, 11 17.125, 11 18.500" stroke="none" fill="black" fill-rule="evenodd"/>
</svg>