<svg xmlns="http://www.w3.org/2000/svg" width="24" height="24" viewBox="0 0 24 24" version="1.1">
	<path d="M 1.655 7.829 C -0.516 10.228, -0.445 13.287, 1.829 15.345 C 3.228 16.612, 5.651 17, 12.154 17 C 19.743 17, 20.884 16.753, 22.826 14.686 C 24.900 12.478, 25.969 7.283, 24.113 8.430 C 23.626 8.731, 22.671 8.308, 21.991 7.489 C 18.931 3.802, 12.303 7.571, 13.238 12.465 C 13.605 14.385, 13.305 15, 12 15 C 10.695 15, 10.395 14.385, 10.762 12.465 C 11.756 7.267, 5.189 3.924, 1.655 7.829 M 3.046 9.444 C 0.345 12.699, 4.815 16.614, 7.811 13.618 C 9.084 12.344, 9.215 11.563, 8.376 10.231 C 6.916 7.913, 4.601 7.571, 3.046 9.444 M 16.046 9.444 C 13.345 12.699, 17.815 16.614, 20.811 13.618 C 22.084 12.344, 22.215 11.563, 21.376 10.231 C 19.916 7.913, 17.601 7.571, 16.046 9.444 M 0.195 11.500 C 0.215 13.150, 0.439 13.704, 0.693 12.731 C 0.947 11.758, 0.930 10.408, 0.656 9.731 C 0.382 9.054, 0.175 9.850, 0.195 11.500" stroke="none" fill="black" fill-rule="evenodd"/>
</svg>