<svg xmlns="http://www.w3.org/2000/svg" width="24" height="24" viewBox="0 0 24 24" version="1.1">
	<path d="M 5.500 6 C 4.295 6, 2.565 6.823, 1.655 7.829 C 0.745 8.835, -0 10.565, 0 11.674 C 0 12.783, 0.823 14.435, 1.829 15.345 C 3.228 16.612, 5.651 17, 12.154 17 C 19.743 17, 20.884 16.753, 22.826 14.686 C 24.022 13.413, 25 11.361, 25 10.127 C 25 8.892, 24.601 8.129, 24.113 8.430 C 23.626 8.731, 22.671 8.308, 21.991 7.489 C 21.311 6.670, 19.755 6, 18.533 6 C 17.310 6, 15.510 6.884, 14.532 7.965 C 13.419 9.195, 12.935 10.878, 13.238 12.465 C 13.605 14.385, 13.305 15, 12 15 C 10.695 15, 10.395 14.385, 10.762 12.465 C 11.065 10.878, 10.581 9.195, 9.468 7.965 C 8.490 6.884, 6.705 6, 5.500 6 M 5.801 8.207 C 4.984 8.046, 3.745 8.603, 3.046 9.444 C 2.348 10.286, 2.041 11.665, 2.365 12.510 C 2.690 13.354, 3.675 14.322, 4.555 14.659 C 5.438 14.998, 6.897 14.532, 7.811 13.618 C 9.084 12.344, 9.215 11.563, 8.376 10.231 C 7.776 9.279, 6.617 8.368, 5.801 8.207 M 18.801 8.207 C 17.984 8.046, 16.745 8.603, 16.046 9.444 C 15.348 10.286, 15.041 11.665, 15.365 12.510 C 15.690 13.354, 16.675 14.322, 17.555 14.659 C 18.438 14.998, 19.897 14.532, 20.811 13.618 C 22.084 12.344, 22.215 11.563, 21.376 10.231 C 20.776 9.279, 19.617 8.368, 18.801 8.207 M 0.656 9.731 C 0.382 9.054, 0.175 9.850, 0.195 11.500 C 0.215 13.150, 0.439 13.704, 0.693 12.731 C 0.947 11.758, 0.930 10.408, 0.656 9.731" stroke="none" fill="black" fill-rule="evenodd"/>
</svg>