<svg xmlns="http://www.w3.org/2000/svg" width="24" height="24" viewBox="0 0 24 24" version="1.1">
	<path d="M 12 1 C 11.450 1, 10.993 1.788, 10.985 2.750 C 10.972 4.218, 10.819 4.263, 10.039 3.029 C 9.527 2.220, 8.818 1.848, 8.463 2.204 C 8.108 2.559, 8.114 3.783, 8.476 4.925 C 8.941 6.389, 9.978 7, 12 7 C 14.022 7, 15.059 6.389, 15.524 4.925 C 15.886 3.783, 15.892 2.559, 15.537 2.204 C 15.182 1.848, 14.473 2.220, 13.961 3.029 C 13.181 4.263, 13.028 4.218, 13.015 2.750 C 13.007 1.788, 12.550 1, 12 1 M 14.951 9 C 14.502 9, 13.849 9.900, 13.500 11 C 13.151 12.100, 12.472 13, 11.992 13 C 11.511 13, 10.840 12.550, 10.500 12 C 10.160 11.450, 9.535 11, 9.112 11 C 8.688 11, 7.288 13.250, 6 16 C 4.712 18.750, 3.060 21, 2.329 21 C 1.598 21, 1 21.450, 1 22 C 1 22.606, 5.333 23, 12 23 C 18.050 23, 23 22.598, 23 22.107 C 23 21.616, 22.394 20.981, 21.653 20.697 C 20.912 20.413, 19.284 17.664, 18.037 14.590 C 16.789 11.515, 15.400 9, 14.951 9 M 9.826 14 C 9.400 14, 8.365 15.328, 7.526 16.950 C 6.687 18.573, 6 20.148, 6 20.450 C 6 20.753, 8.700 21, 12 21 C 15.300 21, 18 20.842, 18 20.649 C 18 20.456, 17.506 18.881, 16.902 17.149 C 16.298 15.417, 15.436 14, 14.986 14 C 14.535 14, 13.960 14.563, 13.708 15.250 C 13.342 16.250, 12.985 16.250, 11.925 15.250 C 11.196 14.563, 10.252 14, 9.826 14" stroke="none" fill="black" fill-rule="evenodd"/>
</svg>