<svg xmlns="http://www.w3.org/2000/svg" width="24" height="24" viewBox="0 0 24 24" version="1.1">
	<path d="M 10.985 2.750 C 10.972 4.218, 10.819 4.263, 10.039 3.029 C 8.770 1.022, 7.663 2.364, 8.476 4.925 C 9.396 7.824, 14.604 7.824, 15.524 4.925 C 16.337 2.364, 15.230 1.022, 13.961 3.029 C 13.181 4.263, 13.028 4.218, 13.015 2.750 C 13.007 1.788, 12.550 1, 12 1 C 11.450 1, 10.993 1.788, 10.985 2.750 M 13.500 11 C 12.814 13.160, 11.490 13.602, 10.500 12 C 9.337 10.118, 8.340 11.004, 6 16 C 4.712 18.750, 3.060 21, 2.329 21 C 1.598 21, 1 21.450, 1 22 C 1 22.606, 5.333 23, 12 23 C 21.877 23, 25.439 22.150, 21.653 20.697 C 20.912 20.413, 19.284 17.664, 18.037 14.590 C 15.623 8.644, 14.524 7.774, 13.500 11 M 7.526 16.950 C 6.687 18.573, 6 20.148, 6 20.450 C 6 20.753, 8.700 21, 12 21 C 15.300 21, 18 20.842, 18 20.649 C 18 20.456, 17.506 18.881, 16.902 17.149 C 15.758 13.866, 14.492 13.114, 13.708 15.250 C 13.342 16.250, 12.985 16.250, 11.925 15.250 C 9.963 13.399, 9.212 13.689, 7.526 16.950" stroke="none" fill="black" fill-rule="evenodd"/>
</svg>