<svg xmlns="http://www.w3.org/2000/svg" width="24" height="24" viewBox="0 0 24 24" version="1.1">
	<path d="M 11.250 4.022 C 10.838 4.034, 9.375 4.924, 8 6 C 6.625 7.076, 4.488 7.966, 3.250 7.978 C 1.295 7.997, 1 8.525, 1 12 C 1 15.475, 1.295 16.003, 3.250 16.022 C 4.488 16.034, 6.625 16.924, 8 18 C 9.375 19.076, 10.838 19.966, 11.250 19.978 C 11.662 19.990, 12 16.400, 12 12 C 12 7.600, 11.662 4.010, 11.250 4.022 M 16.658 8.131 C 15.920 7.519, 15.046 7.287, 14.717 7.616 C 14.387 7.946, 14.649 9.067, 15.299 10.108 C 16.208 11.563, 16.208 12.437, 15.299 13.892 C 14.649 14.933, 14.387 16.054, 14.717 16.384 C 15.046 16.713, 15.920 16.481, 16.658 15.869 C 17.396 15.256, 18 13.515, 18 12 C 18 10.485, 17.396 8.744, 16.658 8.131 M 9.059 8 C 8.541 8, 7.840 8.450, 7.500 9 C 7.160 9.550, 6.009 10, 4.941 10 C 3.667 10, 3 10.687, 3 12 C 3 13.313, 3.667 14, 4.941 14 C 6.009 14, 7.160 14.450, 7.500 15 C 7.840 15.550, 8.541 16, 9.059 16 C 9.577 16, 10 14.200, 10 12 C 10 9.800, 9.577 8, 9.059 8" stroke="none" fill="black" fill-rule="evenodd"/>
</svg>