<svg xmlns="http://www.w3.org/2000/svg" width="24" height="24" viewBox="0 0 24 24" version="1.1">
	<path d="M 11.667 1.667 C 11.300 2.033, 11 3.357, 11 4.609 C 11 6.572, 10.415 6.927, 6.750 7.193 L 2.500 7.500 2.500 13 L 2.500 18.500 12 18.500 L 21.500 18.500 21.500 13 L 21.500 7.500 17.250 7.193 C 13.814 6.944, 13 6.513, 13 4.943 C 13 3.667, 13.686 3, 15 3 C 16.100 3, 17 2.550, 17 2 C 17 0.888, 12.714 0.620, 11.667 1.667 M 7.750 9.732 C 10.087 9.943, 13.912 9.943, 16.250 9.732 C 18.587 9.522, 16.675 9.349, 12 9.349 C 7.325 9.349, 5.412 9.522, 7.750 9.732 M 4 14.500 C 4 16.958, 4.133 17, 12 17 C 19.867 17, 20 16.958, 20 14.500 C 20 12.500, 19.500 12, 17.500 12 C 16.125 12, 15 12.450, 15 13 C 15 13.550, 13.650 14, 12 14 C 10.350 14, 9 13.550, 9 13 C 9 12.450, 7.875 12, 6.500 12 C 4.500 12, 4 12.500, 4 14.500" stroke="none" fill="black" fill-rule="evenodd"/>
</svg>