<svg xmlns="http://www.w3.org/2000/svg" width="24" height="24" viewBox="0 0 24 24" version="1.1">
	<path d="M 12.233 4.212 C 5.035 3.989, 2.847 4.236, 2.432 5.318 C 2.138 6.084, 2.033 9.588, 2.199 13.105 L 2.500 19.500 12 19.500 L 21.500 19.500 21.500 12 L 21.500 4.500 12.233 4.212 M 12 6 L 4 6 4 12 L 4 18 12 18 C 18.280 18, 20 17.692, 20 16.566 C 20 15.746, 18.824 14.998, 17.250 14.816 C 15.068 14.565, 14.500 13.984, 14.500 12 C 14.500 10.016, 15.068 9.435, 17.250 9.184 C 18.824 9.002, 20 8.254, 20 7.434 C 20 6.308, 18.280 6, 12 6 M 17.559 11 C 16.702 11, 16 11.450, 16 12 C 16 12.550, 16.423 13, 16.941 13 C 17.459 13, 18.160 12.550, 18.500 12 C 18.840 11.450, 18.416 11, 17.559 11" stroke="none" fill="black" fill-rule="evenodd"/>
</svg>