<svg viewBox="0 0 24 24" xmlns="http://www.w3.org/2000/svg" fill="none" stroke="#000000" stroke-width="2" stroke-linecap="round" stroke-linejoin="round"><path d="M11.384 2.226 C 11.072 2.293,3.070 5.479,2.595 5.726 C 1.769 6.154,1.183 6.978,1.039 7.911 C 1.011 8.090,1.001 10.245,1.009 14.380 L 1.020 20.580 1.114 20.860 C 1.446 21.851,2.184 22.582,3.160 22.886 L 3.460 22.980 12.000 22.980 L 20.540 22.980 20.840 22.886 C 21.816 22.582,22.554 21.851,22.886 20.860 L 22.980 20.580 22.991 14.380 C 22.999 10.245,22.989 8.090,22.961 7.911 C 22.818 6.984,22.227 6.152,21.410 5.728 C 20.875 5.450,12.931 2.294,12.590 2.223 C 12.215 2.146,11.752 2.147,11.384 2.226 M16.398 5.839 C 20.272 7.388,20.547 7.505,20.702 7.660 C 21.023 7.981,21.000 7.483,21.000 14.161 C 21.000 19.084,20.991 20.139,20.945 20.290 C 20.872 20.533,20.707 20.740,20.484 20.872 L 20.300 20.980 12.000 20.980 L 3.700 20.980 3.516 20.872 C 3.415 20.813,3.284 20.700,3.225 20.623 C 2.987 20.311,3.000 20.686,3.000 14.182 C 3.000 7.480,2.977 7.981,3.298 7.660 C 3.453 7.505,3.724 7.390,7.582 5.851 C 9.847 4.947,11.727 4.197,11.760 4.185 C 11.793 4.172,11.919 4.167,12.040 4.173 C 12.222 4.182,12.968 4.467,16.398 5.839 M5.695 13.057 C 5.466 13.129,5.256 13.299,5.128 13.516 C 5.037 13.672,5.020 13.746,5.020 14.000 C 5.020 14.256,5.036 14.328,5.131 14.489 C 5.256 14.702,5.449 14.864,5.670 14.943 C 5.793 14.987,6.938 14.996,12.000 14.996 C 17.062 14.996,18.207 14.987,18.330 14.943 C 18.551 14.864,18.744 14.702,18.869 14.489 C 18.964 14.328,18.980 14.256,18.980 14.000 C 18.980 13.746,18.963 13.672,18.872 13.516 C 18.740 13.293,18.533 13.128,18.290 13.055 C 18.028 12.976,5.947 12.978,5.695 13.057 M5.695 17.057 C 5.466 17.129,5.256 17.299,5.128 17.516 C 5.037 17.672,5.020 17.746,5.020 18.000 C 5.020 18.256,5.036 18.328,5.131 18.489 C 5.256 18.702,5.449 18.864,5.670 18.943 C 5.793 18.987,6.938 18.996,12.000 18.996 C 17.062 18.996,18.207 18.987,18.330 18.943 C 18.551 18.864,18.744 18.702,18.869 18.489 C 18.964 18.328,18.980 18.256,18.980 18.000 C 18.980 17.746,18.963 17.672,18.872 17.516 C 18.740 17.293,18.533 17.128,18.290 17.055 C 18.028 16.976,5.947 16.978,5.695 17.057 " stroke="none" fill-rule="evenodd" fill="black"></path></svg>