<svg xmlns="http://www.w3.org/2000/svg" width="24" height="24" viewBox="0 0 24 24" version="1.1">
	<path d="M 6 4.291 L 1.500 6.500 1.500 14.500 L 1.500 22.500 12 22.500 L 22.500 22.500 22.500 14.500 L 22.500 6.500 18 4.291 C 12.418 1.551, 11.582 1.551, 6 4.291 M 7.250 6.030 L 3 7.918 3 14.459 L 3 21 12 21 L 21 21 21 14.464 L 21 7.929 16.417 5.964 C 13.896 4.884, 11.759 4.032, 11.667 4.071 C 11.575 4.109, 9.587 4.991, 7.250 6.030 M 5 14 C 5 14.571, 8 15, 12 15 C 16 15, 19 14.571, 19 14 C 19 13.429, 16 13, 12 13 C 8 13, 5 13.429, 5 14 M 5 18 C 5 18.571, 8 19, 12 19 C 16 19, 19 18.571, 19 18 C 19 17.429, 16 17, 12 17 C 8 17, 5 17.429, 5 18" stroke="none" fill="#000000" fill-rule="evenodd"/>
</svg>