<svg xmlns="http://www.w3.org/2000/svg" width="24" height="24" viewBox="0 0 24 24" version="1.1">
	<path d="M 3.444 2.284 C 3.156 3.035, 3.051 7.891, 3.210 13.075 L 3.500 22.500 12 22.500 L 20.500 22.500 20.500 12 L 20.500 1.500 12.234 1.209 C 5.965 0.989, 3.842 1.248, 3.444 2.284 M 5 12 L 5 21 12 21 L 19 21 19 12 L 19 3 12 3 L 5 3 5 12 M 7 6 C 7 6.550, 7.450 7, 8 7 C 8.550 7, 9 6.550, 9 6 C 9 5.450, 8.550 5, 8 5 C 7.450 5, 7 5.450, 7 6 M 8.250 7.963 C 4.227 13.065, 6.337 19, 12.174 19 C 17.796 19, 19.720 12.526, 15.516 7.750 C 12.494 4.316, 11.095 4.357, 8.250 7.963 M 9.040 10.452 C 7.485 12.325, 8.028 14.989, 10.250 16.388 C 13.715 18.570, 17.617 13.653, 14.960 10.452 C 13.416 8.591, 10.584 8.591, 9.040 10.452" stroke="none" fill="#000000" fill-rule="evenodd"/>
</svg>