<svg xmlns="http://www.w3.org/2000/svg" width="24" height="24" viewBox="0 0 24 24" version="1.1">
	<path d="M 12.234 1.209 C 5.965 0.989, 3.842 1.248, 3.444 2.284 C 3.156 3.035, 3.051 7.891, 3.210 13.075 L 3.500 22.500 12 22.500 L 20.500 22.500 20.500 12 L 20.500 1.500 12.234 1.209 M 12 3 L 5 3 5 12 L 5 21 12 21 L 19 21 19 12 L 19 3 12 3 M 8 5 C 7.450 5, 7 5.450, 7 6 C 7 6.550, 7.450 7, 8 7 C 8.550 7, 9 6.550, 9 6 C 9 5.450, 8.550 5, 8 5 M 11.798 5.055 C 11.084 5.086, 9.488 6.394, 8.250 7.963 C 7.012 9.533, 6 11.913, 6 13.253 C 6 14.593, 6.823 16.435, 7.829 17.345 C 8.835 18.255, 10.790 19, 12.174 19 C 13.558 19, 15.435 18.177, 16.345 17.171 C 17.255 16.165, 17.986 14.253, 17.968 12.921 C 17.951 11.590, 16.848 9.262, 15.516 7.750 C 14.185 6.237, 12.512 5.025, 11.798 5.055 M 12 9 C 11.035 9, 9.703 9.653, 9.040 10.452 C 8.377 11.251, 7.985 12.665, 8.167 13.595 C 8.350 14.525, 9.287 15.782, 10.250 16.388 C 11.525 17.190, 12.475 17.190, 13.750 16.388 C 14.713 15.782, 15.650 14.525, 15.833 13.595 C 16.015 12.665, 15.623 11.251, 14.960 10.452 C 14.297 9.653, 12.965 9, 12 9" stroke="none" fill="black" fill-rule="evenodd"/>
</svg>