<svg xmlns="http://www.w3.org/2000/svg" width="24" height="24" viewBox="0 0 24 24" version="1.1">
	<path d="M 7.361 2.750 C 6.988 4.263, 6.029 6.512, 5.228 7.748 C 3.654 10.179, 3.928 13.147, 6.313 19.500 C 7.735 23.290, 8.033 23.500, 12 23.500 C 15.967 23.500, 16.265 23.290, 17.687 19.500 C 20.072 13.147, 20.346 10.179, 18.772 7.748 C 17.971 6.512, 17.012 4.263, 16.639 2.750 C 16.042 0.327, 15.491 0, 12 0 C 8.509 0, 7.958 0.327, 7.361 2.750 M 9.500 3 C 9.138 3.585, 10.176 4, 12 4 C 13.824 4, 14.862 3.585, 14.500 3 C 14.160 2.450, 13.035 2, 12 2 C 10.965 2, 9.840 2.450, 9.500 3 M 8.189 8.039 C 6.985 9.160, 6 10.960, 6 12.039 C 6 14.581, 9.441 18, 12 18 C 14.559 18, 18 14.581, 18 12.039 C 18 9.717, 14.307 6, 12 6 C 11.107 6, 9.392 6.918, 8.189 8.039 M 11 10.378 C 11 13.029, 13.449 15.701, 14.427 14.118 C 14.760 13.579, 14.575 12.856, 14.016 12.510 C 13.457 12.165, 13 11.009, 13 9.941 C 13 8.873, 12.550 8, 12 8 C 11.450 8, 11 9.070, 11 10.378 M 9 21 C 9 21.550, 10.350 22, 12 22 C 13.650 22, 15 21.550, 15 21 C 15 20.450, 13.650 20, 12 20 C 10.350 20, 9 20.450, 9 21" stroke="none" fill="black" fill-rule="evenodd"/>
</svg>