<svg xmlns="http://www.w3.org/2000/svg" width="24" height="24" viewBox="0 0 24 24" version="1.1">
	<path d="M 12 1 C 11.450 1, 11 1.869, 11 2.930 C 11 4.171, 10.196 4.975, 8.750 5.180 C 6.680 5.474, 6.500 6.021, 6.500 12 C 6.500 17.979, 6.680 18.526, 8.750 18.820 C 10.196 19.025, 11 19.829, 11 21.070 C 11 22.131, 11.450 23, 12 23 C 12.550 23, 13 22.131, 13 21.070 C 13 19.829, 13.804 19.025, 15.250 18.820 C 17.320 18.526, 17.500 17.979, 17.500 12 C 17.500 6.021, 17.320 5.474, 15.250 5.180 C 13.804 4.975, 13 4.171, 13 2.930 C 13 1.869, 12.550 1, 12 1 M 12 7 L 8 7 8 12 L 8 17 12 17 L 16 17 16 12 L 16 7 12 7" stroke="none" fill="black" fill-rule="evenodd"/>
</svg>