<svg xmlns="http://www.w3.org/2000/svg" width="24" height="24" viewBox="0 0 24 24" version="1.1">
	<path d="M 12 0 C 8.509 0, 7.958 0.327, 7.361 2.750 C 6.988 4.263, 6.029 6.512, 5.228 7.748 C 4.401 9.026, 3.997 11.184, 4.292 12.748 C 4.577 14.262, 5.487 17.300, 6.313 19.500 C 7.735 23.290, 8.033 23.500, 12 23.500 C 15.967 23.500, 16.265 23.290, 17.687 19.500 C 18.513 17.300, 19.423 14.262, 19.708 12.748 C 20.003 11.184, 19.599 9.026, 18.772 7.748 C 17.971 6.512, 17.012 4.263, 16.639 2.750 C 16.042 0.327, 15.491 0, 12 0 M 12 2 C 10.965 2, 9.840 2.450, 9.500 3 C 9.138 3.585, 10.176 4, 12 4 C 13.824 4, 14.862 3.585, 14.500 3 C 14.160 2.450, 13.035 2, 12 2 M 12 6 C 11.107 6, 9.392 6.918, 8.189 8.039 C 6.985 9.160, 6 10.960, 6 12.039 C 6 13.118, 6.900 14.900, 8 16 C 9.100 17.100, 10.900 18, 12 18 C 13.100 18, 14.900 17.100, 16 16 C 17.100 14.900, 18 13.118, 18 12.039 C 18 10.960, 17.015 9.160, 15.811 8.039 C 14.608 6.918, 12.893 6, 12 6 M 12 8 C 11.450 8, 11 9.070, 11 10.378 C 11 11.685, 11.635 13.282, 12.411 13.926 C 13.299 14.663, 14.046 14.734, 14.427 14.118 C 14.760 13.579, 14.575 12.856, 14.016 12.510 C 13.457 12.165, 13 11.009, 13 9.941 C 13 8.873, 12.550 8, 12 8 M 12 20 C 10.350 20, 9 20.450, 9 21 C 9 21.550, 10.350 22, 12 22 C 13.650 22, 15 21.550, 15 21 C 15 20.450, 13.650 20, 12 20" stroke="none" fill="black" fill-rule="evenodd"/>
</svg>