<svg viewBox="0 0 24 24" xmlns="http://www.w3.org/2000/svg" fill="none" stroke="#000000" stroke-width="2" stroke-linecap="round" stroke-linejoin="round"><path d="M11.695 1.057 C 11.466 1.129,11.256 1.299,11.128 1.516 L 11.020 1.700 11.008 3.347 L 10.997 4.993 9.728 5.009 C 8.518 5.025,8.445 5.030,8.139 5.124 C 7.176 5.420,6.420 6.180,6.114 7.160 L 6.020 7.460 6.020 12.000 L 6.020 16.540 6.114 16.840 C 6.419 17.817,7.159 18.563,8.140 18.884 C 8.403 18.969,8.498 18.976,9.708 18.991 L 10.997 19.007 11.008 20.657 L 11.020 22.306 11.141 22.503 C 11.543 23.156,12.457 23.156,12.859 22.503 L 12.980 22.306 12.992 20.657 L 13.003 19.007 14.292 18.991 C 15.502 18.976,15.597 18.969,15.860 18.884 C 16.841 18.563,17.581 17.817,17.886 16.840 L 17.980 16.540 17.980 12.000 L 17.980 7.460 17.886 7.160 C 17.580 6.180,16.824 5.420,15.861 5.124 C 15.555 5.030,15.482 5.025,14.272 5.009 L 13.003 4.993 12.992 3.347 L 12.980 1.700 12.872 1.516 C 12.628 1.101,12.150 0.915,11.695 1.057 M15.310 7.061 C 15.589 7.144,15.856 7.411,15.939 7.690 C 15.992 7.867,16.000 8.441,16.000 12.001 C 16.000 16.458,16.007 16.319,15.779 16.618 C 15.718 16.698,15.585 16.813,15.484 16.872 L 15.300 16.980 12.000 16.980 L 8.700 16.980 8.516 16.872 C 8.303 16.747,8.141 16.550,8.058 16.316 C 7.969 16.062,7.971 7.992,8.061 7.690 C 8.140 7.421,8.412 7.143,8.673 7.063 C 8.961 6.975,15.013 6.972,15.310 7.061 " stroke="none" fill-rule="evenodd" fill="black"></path></svg>