<svg xmlns="http://www.w3.org/2000/svg" width="24" height="24" viewBox="0 0 24 24" version="1.1">
	<path d="M 11 2.934 C 11 3.447, 9.762 4.010, 8.250 4.184 C 5.523 4.497, 5.500 4.562, 5.500 12 C 5.500 19.240, 5.587 19.512, 8 19.851 C 9.375 20.044, 10.838 20.719, 11.250 21.351 C 11.815 22.216, 12.185 22.216, 12.750 21.351 C 13.162 20.719, 14.625 20.044, 16 19.851 C 18.413 19.512, 18.500 19.240, 18.500 12 C 18.500 4.562, 18.477 4.497, 15.750 4.184 C 14.238 4.010, 13 3.447, 13 2.934 C 13 2.420, 12.550 2, 12 2 C 11.450 2, 11 2.420, 11 2.934 M 7 12 L 7 18 12 18 L 17 18 17 12 L 17 6 12 6 L 7 6 7 12 M 8 12 C 8 12.550, 9.800 13, 12 13 C 14.200 13, 16 12.550, 16 12 C 16 11.450, 14.200 11, 12 11 C 9.800 11, 8 11.450, 8 12" stroke="none" fill="#000000" fill-rule="evenodd"/>
</svg>