<svg viewBox="0 0 24 24" xmlns="http://www.w3.org/2000/svg" fill="none" stroke="#000000" stroke-width="2" stroke-linecap="round" stroke-linejoin="round"><path d="M9.740 0.028 C 8.706 0.180,7.764 0.922,7.391 1.880 C 7.228 2.297,7.205 2.454,7.047 4.182 L 6.898 5.824 6.465 6.241 C 5.736 6.943,5.229 7.638,4.801 8.526 C 3.356 11.517,3.913 15.116,6.187 17.482 L 6.516 17.824 6.680 19.622 C 6.770 20.611,6.869 21.529,6.899 21.662 C 7.149 22.745,7.905 23.546,9.000 23.887 L 9.300 23.980 12.000 23.980 L 14.700 23.980 15.000 23.886 C 16.124 23.535,16.932 22.630,17.119 21.512 C 17.142 21.373,17.232 20.489,17.318 19.547 L 17.474 17.834 17.808 17.487 C 18.391 16.880,18.819 16.261,19.200 15.471 C 20.266 13.266,20.265 10.733,19.199 8.526 C 18.771 7.638,18.264 6.943,17.535 6.241 L 17.102 5.824 16.953 4.182 C 16.870 3.279,16.782 2.450,16.757 2.340 C 16.509 1.269,15.696 0.419,14.604 0.092 C 14.407 0.033,14.107 0.024,12.120 0.017 C 10.877 0.013,9.806 0.018,9.740 0.028 M14.260 2.106 C 14.447 2.208,14.645 2.407,14.735 2.587 C 14.777 2.670,14.828 3.020,14.884 3.618 C 14.931 4.116,14.963 4.530,14.955 4.538 C 14.947 4.545,14.754 4.489,14.527 4.413 C 12.936 3.880,11.061 3.879,9.480 4.410 C 9.249 4.488,9.053 4.545,9.044 4.537 C 9.036 4.529,9.068 4.115,9.115 3.618 C 9.172 3.020,9.223 2.671,9.265 2.587 C 9.392 2.335,9.645 2.122,9.920 2.037 C 9.975 2.020,10.938 2.009,12.060 2.013 C 14.068 2.020,14.102 2.021,14.260 2.106 M12.564 6.039 C 13.376 6.118,14.085 6.328,14.773 6.692 C 15.125 6.877,15.188 6.927,15.269 7.081 C 15.321 7.178,15.401 7.299,15.448 7.349 C 15.556 7.463,15.907 7.640,16.027 7.640 C 16.086 7.640,16.200 7.727,16.356 7.890 C 17.873 9.479,18.386 11.843,17.671 13.940 C 16.988 15.944,15.291 17.428,13.160 17.885 C 12.554 18.015,11.446 18.015,10.840 17.885 C 8.706 17.427,7.013 15.947,6.329 13.940 C 5.760 12.273,5.959 10.430,6.872 8.900 C 7.213 8.329,7.815 7.640,7.973 7.640 C 8.093 7.640,8.444 7.463,8.552 7.349 C 8.599 7.299,8.679 7.178,8.731 7.081 C 8.812 6.927,8.875 6.877,9.227 6.692 C 10.247 6.152,11.402 5.926,12.564 6.039 M11.695 8.057 C 11.466 8.129,11.256 8.299,11.128 8.516 L 11.020 8.700 11.008 10.415 C 10.998 11.940,11.004 12.152,11.065 12.335 C 11.124 12.514,11.235 12.644,11.956 13.374 C 12.409 13.833,12.853 14.259,12.943 14.321 C 13.391 14.632,14.068 14.487,14.340 14.023 C 14.528 13.703,14.533 13.249,14.351 12.981 C 14.305 12.915,13.984 12.572,13.636 12.220 L 13.003 11.580 12.991 10.140 L 12.980 8.700 12.872 8.516 C 12.628 8.101,12.150 7.915,11.695 8.057 M9.680 19.655 C 11.418 20.184,13.298 20.100,14.990 19.419 C 15.172 19.346,15.320 19.304,15.320 19.325 C 15.320 19.499,15.148 21.172,15.118 21.284 C 15.062 21.498,14.868 21.740,14.652 21.867 L 14.460 21.980 12.000 21.980 C 9.545 21.980,9.540 21.980,9.376 21.892 C 9.188 21.792,8.974 21.562,8.898 21.381 C 8.853 21.274,8.680 19.685,8.680 19.385 L 8.680 19.286 9.010 19.419 C 9.191 19.492,9.493 19.598,9.680 19.655 " stroke="none" fill-rule="evenodd" fill="black"></path></svg>