<svg xmlns="http://www.w3.org/2000/svg" width="24" height="24" viewBox="0 0 24 24" version="1.1">
	<path d="M 12 5 C 10.979 5, 9.436 5.707, 8.571 6.571 C 7.707 7.436, 7 9.015, 7 10.081 C 7 11.147, 7.900 12.790, 9 13.732 C 10.109 14.682, 11 16.682, 11 18.222 C 11 20.519, 10.567 21, 8.500 21 C 7.125 21, 6 21.450, 6 22 C 6 22.556, 8.667 23, 12 23 C 15.333 23, 18 22.556, 18 22 C 18 21.450, 16.875 21, 15.500 21 C 13.433 21, 13 20.519, 13 18.222 C 13 16.682, 13.891 14.682, 15 13.732 C 16.100 12.790, 17 11.147, 17 10.081 C 17 9.015, 16.293 7.436, 15.429 6.571 C 14.564 5.707, 13.021 5, 12 5 M 12 7 C 11.585 7, 10.666 7.698, 9.958 8.550 C 8.896 9.831, 8.961 10.390, 10.336 11.764 C 11.888 13.317, 12.112 13.317, 13.664 11.764 C 15.039 10.390, 15.104 9.831, 14.042 8.550 C 13.334 7.698, 12.415 7, 12 7 M 12 8 C 11.515 8, 10.816 8.489, 10.446 9.087 C 10.077 9.685, 10.275 10.675, 10.887 11.287 C 11.704 12.104, 12.296 12.104, 13.113 11.287 C 13.725 10.675, 13.923 9.685, 13.554 9.087 C 13.184 8.489, 12.485 8, 12 8" stroke="none" fill="black" fill-rule="evenodd"/>
</svg>