<svg xmlns="http://www.w3.org/2000/svg" width="24" height="24" viewBox="0 0 24 24" version="1.1">
	<path d="M 8.571 6.571 C 6.423 8.720, 6.599 11.677, 9 13.732 C 10.109 14.682, 11 16.682, 11 18.222 C 11 20.519, 10.567 21, 8.500 21 C 7.125 21, 6 21.450, 6 22 C 6 22.556, 8.667 23, 12 23 C 15.333 23, 18 22.556, 18 22 C 18 21.450, 16.875 21, 15.500 21 C 13.433 21, 13 20.519, 13 18.222 C 13 16.682, 13.891 14.682, 15 13.732 C 18.517 10.721, 16.552 5, 12 5 C 10.979 5, 9.436 5.707, 8.571 6.571 M 9.958 8.550 C 8.896 9.831, 8.961 10.390, 10.336 11.764 C 11.888 13.317, 12.112 13.317, 13.664 11.764 C 15.039 10.390, 15.104 9.831, 14.042 8.550 C 13.334 7.698, 12.415 7, 12 7 C 11.585 7, 10.666 7.698, 9.958 8.550 M 10.446 9.087 C 9.416 10.755, 11.733 12.667, 13.113 11.287 C 14.267 10.133, 13.545 8, 12 8 C 11.515 8, 10.816 8.489, 10.446 9.087" stroke="none" fill="#000000" fill-rule="evenodd"/>
</svg>