<svg viewBox="0 0 24 24" xmlns="http://www.w3.org/2000/svg" fill="none" stroke="#000000" stroke-width="2" stroke-linecap="round" stroke-linejoin="round"><path d="M11.400 5.044 C 9.761 5.229,8.261 6.290,7.526 7.785 C 7.158 8.533,7.020 9.136,7.020 10.000 C 7.020 10.670,7.078 11.044,7.268 11.600 C 7.681 12.808,8.542 13.819,9.653 14.402 C 10.073 14.622,10.446 14.769,10.773 14.842 L 11.000 14.893 11.000 17.946 L 11.000 21.000 8.946 21.000 C 6.717 21.000,6.666 21.004,6.382 21.221 C 6.302 21.282,6.187 21.415,6.128 21.516 C 6.037 21.672,6.020 21.746,6.020 22.000 C 6.020 22.256,6.036 22.328,6.131 22.489 C 6.256 22.702,6.449 22.864,6.670 22.943 C 6.892 23.022,17.108 23.022,17.330 22.943 C 17.551 22.864,17.744 22.702,17.869 22.489 C 17.964 22.328,17.980 22.256,17.980 22.000 C 17.980 21.746,17.963 21.672,17.872 21.516 C 17.813 21.415,17.698 21.282,17.618 21.221 C 17.334 21.004,17.283 21.000,15.054 21.000 L 13.000 21.000 13.000 17.946 L 13.000 14.893 13.227 14.842 C 14.016 14.665,14.963 14.116,15.586 13.474 C 16.243 12.796,16.700 11.927,16.907 10.960 C 16.960 10.714,16.980 10.448,16.980 10.000 C 16.980 9.101,16.838 8.506,16.433 7.713 C 15.794 6.461,14.604 5.510,13.240 5.162 C 12.669 5.016,12.019 4.974,11.400 5.044 M12.861 7.129 C 13.804 7.405,14.584 8.183,14.875 9.139 C 14.958 9.412,14.973 9.542,14.973 10.000 C 14.973 10.458,14.958 10.588,14.875 10.861 C 14.582 11.822,13.819 12.581,12.840 12.886 C 12.406 13.021,11.594 13.021,11.160 12.886 C 10.181 12.581,9.418 11.822,9.125 10.861 C 9.042 10.588,9.027 10.458,9.027 10.000 C 9.027 9.542,9.042 9.412,9.125 9.139 C 9.456 8.054,10.371 7.245,11.499 7.040 C 11.832 6.980,12.500 7.023,12.861 7.129 M11.477 8.073 C 10.806 8.249,10.238 8.823,10.060 9.508 C 9.941 9.962,10.003 10.492,10.225 10.930 C 10.361 11.199,10.801 11.639,11.070 11.775 C 11.659 12.073,12.341 12.073,12.930 11.775 C 13.196 11.640,13.638 11.200,13.771 10.937 C 13.994 10.498,14.052 10.007,13.940 9.529 C 13.858 9.182,13.720 8.927,13.465 8.653 C 13.074 8.232,12.560 8.005,12.000 8.005 C 11.857 8.005,11.622 8.036,11.477 8.073 " stroke="none" fill-rule="evenodd" fill="black"></path></svg>