<svg xmlns="http://www.w3.org/2000/svg" width="24" height="24" viewBox="0 0 24 24" version="1.1">
	<path d="M 12 1 C 11.120 1, 9.860 1.540, 9.200 2.200 C 8.540 2.860, 8 4.103, 8 4.963 C 8 5.822, 7.016 6.970, 5.814 7.513 C 4.333 8.182, 3.167 10.182, 2.195 13.718 C 1.407 16.588, 1.026 19.626, 1.349 20.468 C 1.823 21.704, 3.885 22, 12 22 C 20.115 22, 22.177 21.704, 22.651 20.468 C 22.974 19.626, 22.593 16.588, 21.805 13.718 C 20.833 10.182, 19.667 8.182, 18.186 7.513 C 16.984 6.970, 16 5.822, 16 4.963 C 16 4.103, 15.460 2.860, 14.800 2.200 C 14.140 1.540, 12.880 1, 12 1 M 12 3 C 11.515 3, 10.816 3.489, 10.446 4.087 C 10.077 4.685, 10.275 5.675, 10.887 6.287 C 11.704 7.104, 12.296 7.104, 13.113 6.287 C 13.725 5.675, 13.923 4.685, 13.554 4.087 C 13.184 3.489, 12.485 3, 12 3 M 12.269 9.205 C 8.917 9.042, 5.972 9.267, 5.725 9.705 C 5.479 10.142, 4.968 11.850, 4.591 13.500 C 4.214 15.150, 3.671 17.288, 3.385 18.250 C 2.917 19.826, 3.767 20, 11.952 20 L 21.038 20 20.357 17.250 C 19.982 15.738, 19.380 13.375, 19.020 12 C 18.423 9.724, 17.817 9.473, 12.269 9.205" stroke="none" fill="black" fill-rule="evenodd"/>
</svg>