<svg xmlns="http://www.w3.org/2000/svg" width="24" height="24" viewBox="0 0 24 24" version="1.1">
	<path d="M 9.200 2.200 C 8.540 2.860, 8 4.103, 8 4.963 C 8 5.822, 7.016 6.970, 5.814 7.513 C 3.435 8.588, 0.291 17.710, 1.349 20.468 C 2.214 22.722, 21.786 22.722, 22.651 20.468 C 23.709 17.710, 20.565 8.588, 18.186 7.513 C 16.984 6.970, 16 5.822, 16 4.963 C 16 1.538, 11.635 -0.235, 9.200 2.200 M 10.446 4.087 C 9.416 5.755, 11.733 7.667, 13.113 6.287 C 14.267 5.133, 13.545 3, 12 3 C 11.515 3, 10.816 3.489, 10.446 4.087 M 5.725 9.705 C 5.479 10.142, 4.968 11.850, 4.591 13.500 C 4.214 15.150, 3.671 17.288, 3.385 18.250 C 2.917 19.826, 3.767 20, 11.952 20 L 21.038 20 20.357 17.250 C 18.300 8.947, 18.881 9.525, 12.269 9.205 C 8.917 9.042, 5.972 9.267, 5.725 9.705" stroke="none" fill="#000000" fill-rule="evenodd"/>
</svg>