<svg xmlns="http://www.w3.org/2000/svg" width="24" height="24" viewBox="0 0 24 24" version="1.1">
	<path d="M 5.875 4.971 C 3.417 7.429, 2.935 8.679, 3.082 12.221 C 3.179 14.574, 2.910 17.803, 2.484 19.395 C 1.734 22.202, 1.798 22.266, 4.605 21.516 C 6.197 21.090, 9.426 20.821, 11.779 20.918 C 15.321 21.065, 16.571 20.583, 19.029 18.125 C 23.113 14.041, 23.131 8.977, 19.077 4.923 C 15.023 0.869, 9.959 0.887, 5.875 4.971 M 7.490 6.419 C 5.515 8.394, 5.110 9.724, 5.283 13.671 L 5.495 18.505 10.329 18.717 C 14.276 18.890, 15.606 18.485, 17.581 16.510 C 20.676 13.415, 20.662 9.572, 17.545 6.455 C 14.428 3.338, 10.585 3.324, 7.490 6.419" stroke="none" fill="black" fill-rule="evenodd"/>
</svg>