<svg xmlns="http://www.w3.org/2000/svg" width="24" height="24" viewBox="0 0 24 24" version="1.1">
	<path d="M 3.655 5.829 C 1.870 7.801, 1.356 15, 3 15 C 3.550 15, 4 13.515, 4 11.700 C 4 6.510, 8.125 4.036, 11 7.500 C 12.038 8.750, 11.904 9, 10.194 9 C 5.754 9, 3.466 14.323, 6.571 17.429 C 9.888 20.745, 15.594 17.885, 14.725 13.342 C 14.311 11.176, 14.604 11, 18.639 11 C 21.037 11, 23 10.550, 23 10 C 23 9.450, 21.152 9, 18.894 9 C 15.705 9, 14.349 8.441, 12.821 6.500 C 10.460 3.498, 6.056 3.176, 3.655 5.829" stroke="none" fill="black" fill-rule="evenodd"/>
</svg>