<svg xmlns="http://www.w3.org/2000/svg" width="24" height="24" viewBox="0 0 24 24" version="1.1">
	<path d="M 8.082 4 C 6.558 4, 4.565 4.823, 3.655 5.829 C 2.745 6.835, 2 9.310, 2 11.329 C 2 13.348, 2.450 15, 3 15 C 3.550 15, 4 13.515, 4 11.700 C 4 9.885, 4.540 7.860, 5.200 7.200 C 5.860 6.540, 7.155 6, 8.078 6 C 9 6, 10.315 6.675, 11 7.500 C 12.038 8.750, 11.904 9, 10.194 9 C 9.066 9, 7.436 9.707, 6.571 10.571 C 5.707 11.436, 5 12.979, 5 14 C 5 15.021, 5.707 16.564, 6.571 17.429 C 7.436 18.293, 8.979 19, 10 19 C 11.021 19, 12.603 18.254, 13.515 17.342 C 14.480 16.377, 14.986 14.706, 14.725 13.342 C 14.311 11.176, 14.604 11, 18.639 11 C 21.037 11, 23 10.550, 23 10 C 23 9.450, 21.152 9, 18.894 9 C 15.705 9, 14.349 8.441, 12.821 6.500 C 11.569 4.907, 9.849 4, 8.082 4" stroke="none" fill="black" fill-rule="evenodd"/>
</svg>