<svg xmlns="http://www.w3.org/2000/svg" width="24" height="24" viewBox="0 0 24 24" version="1.1">
	<path d="M 0 0.845 C 0 1.310, 0.904 2.508, 2.008 3.507 C 3.890 5.211, 3.912 5.440, 2.348 7.168 C 0.377 9.346, 1.275 10.846, 3.463 9.031 C 4.294 8.341, 5.701 8.055, 6.589 8.396 C 7.968 8.925, 7.861 9.300, 5.851 10.974 C 3.377 13.036, 4.772 13.728, 7.961 12.021 C 9.266 11.323, 10.113 11.431, 10.916 12.399 C 11.792 13.454, 11.593 13.873, 10.021 14.284 C 6.794 15.128, 7.603 17.029, 10.907 16.369 C 13.341 15.882, 14.564 16.479, 18.427 20.040 C 20.965 22.379, 23.347 23.987, 23.721 23.613 C 24.419 22.914, 2.144 0, 0.766 0 C 0.345 0, 0 0.380, 0 0.845 M 10 4.868 C 10 5.491, 11.143 6, 12.540 6 C 13.937 6, 16.862 6.909, 19.040 8.020 C 23.367 10.228, 24.499 9.028, 20.538 6.433 C 17.421 4.390, 10 3.288, 10 4.868 M 16.250 11.250 C 16.478 11.938, 17.514 12.664, 18.551 12.865 C 20.182 13.181, 20.256 13.013, 19.096 11.615 C 17.510 9.704, 15.656 9.466, 16.250 11.250 M 11 20 C 11 20.550, 11.450 21, 12 21 C 12.550 21, 13 20.550, 13 20 C 13 19.450, 12.550 19, 12 19 C 11.450 19, 11 19.450, 11 20" stroke="none" fill="black" fill-rule="evenodd"/>
</svg>