<svg xmlns="http://www.w3.org/2000/svg" width="24" height="24" viewBox="0 0 24 24" version="1.1">
	<path d="M 0.766 0 C 0.345 0, 0 0.380, 0 0.845 C 0 1.310, 0.904 2.508, 2.008 3.507 C 3.890 5.211, 3.912 5.440, 2.348 7.168 C 1.430 8.183, 0.965 9.299, 1.315 9.649 C 1.665 9.999, 2.632 9.721, 3.463 9.031 C 4.294 8.341, 5.701 8.055, 6.589 8.396 C 7.968 8.925, 7.861 9.300, 5.851 10.974 C 4.503 12.097, 4.061 12.948, 4.816 12.967 C 5.539 12.985, 6.955 12.559, 7.961 12.021 C 9.266 11.323, 10.113 11.431, 10.916 12.399 C 11.792 13.454, 11.593 13.873, 10.021 14.284 C 8.909 14.575, 8 15.294, 8 15.881 C 8 16.528, 9.148 16.720, 10.907 16.369 C 13.341 15.882, 14.564 16.479, 18.427 20.040 C 20.965 22.379, 23.347 23.987, 23.721 23.613 C 24.095 23.239, 19.255 17.773, 12.967 11.466 C 6.678 5.160, 1.188 0, 0.766 0 M 14.038 4.278 C 11.380 3.922, 10 4.124, 10 4.868 C 10 5.491, 11.143 6, 12.540 6 C 13.937 6, 16.862 6.909, 19.040 8.020 C 21.218 9.132, 23 9.592, 23 9.043 C 23 8.495, 21.892 7.320, 20.538 6.433 C 19.184 5.546, 16.259 4.576, 14.038 4.278 M 16.794 10 C 16.266 10, 16.021 10.563, 16.250 11.250 C 16.478 11.938, 17.514 12.664, 18.551 12.865 C 20.182 13.181, 20.256 13.013, 19.096 11.615 C 18.358 10.727, 17.323 10, 16.794 10 M 12 19 C 11.450 19, 11 19.450, 11 20 C 11 20.550, 11.450 21, 12 21 C 12.550 21, 13 20.550, 13 20 C 13 19.450, 12.550 19, 12 19" stroke="none" fill="black" fill-rule="evenodd"/>
</svg>