<svg xmlns="http://www.w3.org/2000/svg" width="24" height="24" viewBox="0 0 24 24" version="1.1">
	<path d="M 0 0.797 C 0 1.235, 1.771 3.324, 3.937 5.438 L 7.873 9.282 5.687 11.108 C 4.099 12.433, 3.911 12.938, 5 12.951 C 5.825 12.961, 7.175 12.541, 8 12.016 C 9.151 11.285, 11.066 12.616, 16.222 17.727 C 19.919 21.392, 23.271 24.062, 23.672 23.661 C 24.403 22.931, 2.205 0, 0.766 0 C 0.345 0, 0 0.359, 0 0.797 M 16.250 11.250 C 16.478 11.938, 17.514 12.664, 18.551 12.865 C 20.182 13.181, 20.256 13.013, 19.096 11.615 C 17.510 9.704, 15.656 9.466, 16.250 11.250 M 11 20 C 11 20.550, 11.450 21, 12 21 C 12.550 21, 13 20.550, 13 20 C 13 19.450, 12.550 19, 12 19 C 11.450 19, 11 19.450, 11 20" stroke="none" fill="#000000" fill-rule="evenodd"/>
</svg>