<svg xmlns="http://www.w3.org/2000/svg" width="24" height="24" viewBox="0 0 24 24" version="1.1">
	<path d="M 12.387 14.203 C 10.760 14.039, 9.107 14.227, 8.714 14.619 C 8.321 15.012, 8 15.606, 8 15.939 C 8 16.273, 9.803 16.545, 12.008 16.545 C 14.290 16.545, 15.871 16.105, 15.681 15.523 C 15.497 14.960, 14.014 14.366, 12.387 14.203 M 12 19 C 11.450 19, 11 19.450, 11 20 C 11 20.550, 11.450 21, 12 21 C 12.550 21, 13 20.550, 13 20 C 13 19.450, 12.550 19, 12 19" stroke="none" fill="black" fill-rule="evenodd"/>
</svg>