<svg viewBox="0 0 24 24" xmlns="http://www.w3.org/2000/svg" fill="none" stroke="#000000" stroke-width="2" stroke-linecap="round" stroke-linejoin="round"><path d="M0.695 0.057 C 0.466 0.129,0.256 0.299,0.128 0.516 C 0.036 0.672,0.020 0.745,0.021 1.000 C 0.021 1.212,0.043 1.341,0.095 1.440 C 0.135 1.517,1.977 3.391,4.189 5.605 L 8.210 9.631 8.055 9.680 C 7.785 9.767,7.032 10.083,6.700 10.250 C 5.648 10.777,4.325 11.712,4.129 12.067 C 3.928 12.433,3.975 12.870,4.250 13.182 C 4.474 13.437,4.680 13.534,5.000 13.536 C 5.311 13.538,5.442 13.477,5.895 13.119 C 6.935 12.298,8.174 11.682,9.480 11.337 L 9.820 11.247 16.120 17.539 C 19.585 21.000,22.483 23.865,22.560 23.905 C 22.659 23.957,22.788 23.979,23.000 23.979 C 23.258 23.980,23.327 23.964,23.492 23.867 C 23.968 23.587,24.139 22.967,23.865 22.508 C 23.810 22.416,18.765 17.342,12.653 11.233 C 1.730 0.316,1.536 0.125,1.323 0.063 C 1.066 -0.012,0.919 -0.013,0.695 0.057 M16.301 10.163 C 15.920 10.353,15.695 10.730,15.731 11.121 C 15.754 11.377,15.861 11.612,16.026 11.767 C 16.089 11.826,16.356 11.994,16.620 12.141 C 17.205 12.466,17.649 12.758,18.088 13.105 C 18.560 13.478,18.687 13.538,19.000 13.536 C 19.320 13.534,19.526 13.437,19.750 13.182 C 20.019 12.876,20.070 12.453,19.882 12.084 C 19.707 11.741,18.460 10.839,17.422 10.305 C 17.019 10.098,16.963 10.080,16.722 10.082 C 16.543 10.083,16.409 10.108,16.301 10.163 M11.695 19.055 C 11.464 19.130,11.255 19.300,11.128 19.516 C 11.037 19.672,11.020 19.746,11.020 20.000 C 11.020 20.257,11.036 20.327,11.133 20.492 C 11.651 21.374,12.998 21.018,12.998 20.000 C 12.998 19.623,12.792 19.281,12.463 19.112 C 12.265 19.010,11.911 18.984,11.695 19.055 " stroke="none" fill-rule="evenodd" fill="black"></path></svg>