<svg xmlns="http://www.w3.org/2000/svg" width="24" height="24" viewBox="0 0 24 24" version="1.1">
	<path d="M 11.250 3.180 C 9.753 2.968, 9 3.376, 9 4.399 C 9 5.355, 9.567 5.720, 10.500 5.362 C 11.325 5.045, 12 5.284, 12 5.893 C 12 6.568, 9.854 7, 6.500 7 C 3.333 7, 1 7.444, 1 8.048 C 1 8.698, 3.371 8.983, 7.250 8.798 C 13.171 8.516, 13.500 8.368, 13.500 6 C 13.500 4.169, 12.898 3.415, 11.250 3.180 M 19.844 6.215 C 19.051 6.059, 18.087 6.246, 17.701 6.632 C 17.316 7.018, 17 7.728, 17 8.211 C 17 8.693, 17.576 8.955, 18.280 8.794 C 18.983 8.632, 19.661 8.950, 19.785 9.500 C 19.919 10.097, 16.182 10.615, 10.505 10.786 C 5.271 10.944, 1 11.506, 1 12.036 C 1 12.590, 5.207 13, 10.878 13 C 18.670 13, 21.033 12.666, 22.070 11.416 C 23.022 10.268, 23.095 9.374, 22.335 8.166 C 21.758 7.250, 20.637 6.372, 19.844 6.215 M 8.750 15.208 C 3.855 15.023, 1 15.300, 1 15.958 C 1 16.581, 3.812 17, 8 17 C 12.451 17, 15 17.403, 15 18.107 C 15 18.716, 14.325 18.955, 13.500 18.638 C 12.567 18.280, 12 18.645, 12 19.601 C 12 20.624, 12.753 21.032, 14.250 20.820 C 15.898 20.585, 16.500 19.831, 16.500 18 C 16.500 15.574, 16.272 15.491, 8.750 15.208" stroke="none" fill="black" fill-rule="evenodd"/>
</svg>