<svg xmlns="http://www.w3.org/2000/svg" width="24" height="24" viewBox="0 0 24 24" version="1.1">
	<path d="M 7.368 2.484 C 7.025 3.377, 7.547 5.887, 8.528 8.063 L 10.312 12.018 6.425 15.378 C 3.033 18.310, 2.711 18.946, 3.891 20.369 C 5.750 22.609, 7.598 22.412, 9.443 19.777 L 11 17.555 11 20.277 C 11 21.775, 11.450 23, 12 23 C 12.550 23, 13 21.193, 13 18.984 L 13 14.968 15.940 18.234 C 18.692 21.292, 18.988 21.393, 20.577 19.828 C 22.899 17.539, 21.837 15.468, 17.104 13.053 C 13.386 11.156, 13.089 10.687, 12.805 6.258 C 12.544 2.193, 12.171 1.453, 10.246 1.180 C 8.867 0.984, 7.749 1.491, 7.368 2.484" stroke="none" fill="#000000" fill-rule="evenodd"/>
</svg>