<svg xmlns="http://www.w3.org/2000/svg" width="24" height="24" viewBox="0 0 24 24" version="1.1">
	<path d="M 14.250 5.662 C 13.563 5.940, 13 7.029, 13 8.083 C 13 9.759, 12.246 10, 7 10 C 3.522 10, 1 10.436, 1 11.038 C 1 11.700, 4.342 11.971, 10.250 11.788 C 19.143 11.511, 19.513 11.408, 19.837 9.113 C 20.296 5.871, 17.702 4.269, 14.250 5.662 M 14.638 8.500 C 14.247 9.520, 14.692 10, 16.031 10 C 17.115 10, 18 9.325, 18 8.500 C 18 6.552, 15.386 6.552, 14.638 8.500 M 1 14 C 1 14.576, 4.496 15.050, 9.250 15.118 C 14.358 15.192, 16.358 15.479, 14.500 15.873 C 12.218 16.357, 11.428 17.132, 11.197 19.112 C 10.954 21.207, 11.495 21.962, 13.973 22.989 C 16.653 24.099, 17.306 24.033, 19.026 22.477 C 21.498 20.239, 21.562 16.818, 19.171 14.655 C 17.784 13.399, 15.371 13, 9.171 13 C 4.390 13, 1 13.415, 1 14 M 13 19.500 C 13 21.448, 15.614 21.448, 16.362 19.500 C 16.753 18.480, 16.308 18, 14.969 18 C 13.885 18, 13 18.675, 13 19.500" stroke="none" fill="#000000" fill-rule="evenodd"/>
</svg>