<svg xmlns="http://www.w3.org/2000/svg" width="24" height="24" viewBox="0 0 24 24" version="1.1">
	<path d="M 16.500 5.094 C 15.950 5.129, 14.938 5.385, 14.250 5.662 C 13.563 5.940, 13 7.029, 13 8.083 C 13 9.759, 12.246 10, 7 10 C 3.522 10, 1 10.436, 1 11.038 C 1 11.700, 4.342 11.971, 10.250 11.788 C 19.143 11.511, 19.513 11.408, 19.837 9.113 C 20.023 7.800, 19.573 6.345, 18.837 5.878 C 18.102 5.412, 17.050 5.059, 16.500 5.094 M 16.607 7 C 15.841 7, 14.955 7.675, 14.638 8.500 C 14.247 9.520, 14.692 10, 16.031 10 C 17.115 10, 18 9.325, 18 8.500 C 18 7.675, 17.373 7, 16.607 7 M 9.171 13 C 4.390 13, 1 13.415, 1 14 C 1 14.576, 4.496 15.050, 9.250 15.118 C 14.358 15.192, 16.358 15.479, 14.500 15.873 C 12.218 16.357, 11.428 17.132, 11.197 19.112 C 10.954 21.207, 11.495 21.962, 13.973 22.989 C 16.653 24.099, 17.306 24.033, 19.026 22.477 C 20.111 21.494, 21 19.705, 21 18.500 C 21 17.295, 20.177 15.565, 19.171 14.655 C 17.784 13.399, 15.371 13, 9.171 13 M 14.969 18 C 13.885 18, 13 18.675, 13 19.500 C 13 20.325, 13.627 21, 14.393 21 C 15.159 21, 16.045 20.325, 16.362 19.500 C 16.753 18.480, 16.308 18, 14.969 18" stroke="none" fill="black" fill-rule="evenodd"/>
</svg>