<svg viewBox="0 0 24 24" xmlns="http://www.w3.org/2000/svg" fill="none" stroke="#000000" stroke-width="2" stroke-linecap="round" stroke-linejoin="round"><path d="M9.608 0.843 C 8.460 0.992,7.501 1.788,7.131 2.900 C 7.039 3.179,7.025 3.287,7.022 3.749 L 7.020 4.277 8.888 8.016 L 10.757 11.754 7.238 14.803 C 3.181 18.319,3.498 17.987,3.503 18.720 C 3.506 19.215,3.578 19.528,3.795 19.980 C 4.151 20.725,4.761 21.261,5.580 21.546 C 5.873 21.648,5.949 21.658,6.480 21.658 C 7.027 21.658,7.081 21.651,7.422 21.532 C 7.886 21.372,8.217 21.176,8.545 20.870 L 8.806 20.625 9.893 18.453 L 10.980 16.281 11.000 19.293 L 11.020 22.306 11.141 22.503 C 11.543 23.156,12.457 23.156,12.859 22.503 L 12.980 22.306 13.000 18.505 L 13.020 14.705 15.436 17.492 C 18.236 20.723,17.995 20.503,18.720 20.496 C 20.031 20.485,21.127 19.671,21.544 18.400 C 21.645 18.093,21.656 18.005,21.656 17.500 C 21.656 16.978,21.648 16.916,21.531 16.578 C 21.372 16.115,21.177 15.784,20.869 15.455 L 20.624 15.193 16.792 13.276 L 12.960 11.360 12.959 11.190 C 12.958 11.096,12.853 9.055,12.725 6.654 L 12.493 2.288 12.384 2.066 C 12.185 1.657,11.607 1.210,11.001 0.996 C 10.749 0.907,10.030 0.783,9.892 0.805 C 9.874 0.808,9.746 0.825,9.608 0.843 M10.390 2.903 C 10.492 2.945,10.521 2.980,10.523 3.068 C 10.524 3.130,10.574 4.085,10.633 5.190 C 10.692 6.295,10.736 7.200,10.731 7.200 C 10.725 7.200,10.331 6.423,9.856 5.472 C 8.897 3.554,8.926 3.645,9.150 3.284 C 9.395 2.887,9.937 2.720,10.390 2.903 M19.570 17.077 C 19.740 17.412,19.714 17.772,19.498 18.083 C 19.386 18.245,19.129 18.435,19.003 18.450 C 18.945 18.458,18.570 18.051,17.552 16.877 C 16.798 16.006,16.153 15.262,16.121 15.222 C 16.089 15.183,16.827 15.535,17.761 16.005 L 19.460 16.860 19.570 17.077 M8.002 17.756 C 7.381 18.998,7.135 19.452,7.052 19.510 C 6.596 19.830,5.941 19.685,5.650 19.200 C 5.578 19.080,5.524 18.969,5.530 18.952 C 5.539 18.924,8.807 16.080,8.830 16.080 C 8.836 16.080,8.463 16.834,8.002 17.756 " stroke="none" fill-rule="evenodd" fill="black"></path></svg>