<svg xmlns="http://www.w3.org/2000/svg" width="24" height="24" viewBox="0 0 24 24" version="1.1">
	<path d="M 12 1 C 8.632 1, 8.070 1.361, 7.098 4.149 C 6.494 5.881, 6 8.549, 6 10.077 C 6 11.849, 6.905 13.567, 8.500 14.821 C 9.875 15.903, 11 17.736, 11 18.894 C 11 20.333, 10.367 21, 9 21 C 7.900 21, 7 21.450, 7 22 C 7 22.550, 9.250 23, 12 23 C 14.750 23, 17 22.550, 17 22 C 17 21.450, 16.100 21, 15 21 C 13.633 21, 13 20.333, 13 18.894 C 13 17.736, 14.125 15.903, 15.500 14.821 C 17.095 13.567, 18 11.849, 18 10.077 C 18 8.549, 17.506 5.881, 16.902 4.149 C 15.930 1.361, 15.368 1, 12 1 M 12 3 C 10.720 3, 9.584 3.963, 8.975 5.565 C 8.439 6.976, 8 8.326, 8 8.565 C 8 8.804, 9.800 9, 12 9 C 14.200 9, 16 8.804, 16 8.565 C 16 8.326, 15.561 6.976, 15.025 5.565 C 14.416 3.963, 13.280 3, 12 3 M 12 11 C 8.340 11, 7.927 11.207, 9 12.500 C 9.685 13.325, 11.035 14, 12 14 C 12.965 14, 14.315 13.325, 15 12.500 C 16.073 11.207, 15.660 11, 12 11" stroke="none" fill="black" fill-rule="evenodd"/>
</svg>