<svg xmlns="http://www.w3.org/2000/svg" width="24" height="24" viewBox="0 0 24 24" version="1.1">
	<path d="M 7.098 4.149 C 5.302 9.300, 5.743 12.652, 8.500 14.821 C 11.577 17.242, 11.881 21, 9 21 C 7.900 21, 7 21.450, 7 22 C 7 22.550, 9.250 23, 12 23 C 14.750 23, 17 22.550, 17 22 C 17 21.450, 16.100 21, 15 21 C 12.119 21, 12.423 17.242, 15.500 14.821 C 18.257 12.652, 18.698 9.300, 16.902 4.149 C 15.930 1.361, 15.368 1, 12 1 C 8.632 1, 8.070 1.361, 7.098 4.149 M 8.975 5.565 C 7.629 9.105, 7.537 9, 12 9 C 16.463 9, 16.371 9.105, 15.025 5.565 C 13.724 2.144, 10.276 2.144, 8.975 5.565 M 9 12.500 C 9.685 13.325, 11.035 14, 12 14 C 12.965 14, 14.315 13.325, 15 12.500 C 16.073 11.207, 15.660 11, 12 11 C 8.340 11, 7.927 11.207, 9 12.500" stroke="none" fill="black" fill-rule="evenodd"/>
</svg>