<svg xmlns="http://www.w3.org/2000/svg" width="24" height="24" viewBox="0 0 24 24" version="1.1">
	<path d="M 7.489 10.750 C 5.316 15.013, 3.380 18.837, 3.186 19.250 C 2.992 19.663, 6.958 20, 12 20 C 17.042 20, 20.993 19.663, 20.781 19.250 C 20.570 18.837, 18.718 15.013, 16.668 10.750 C 14.617 6.487, 12.602 3, 12.189 3 C 11.776 3, 9.661 6.487, 7.489 10.750 M 9.199 12.527 C 6.653 17.768, 6.553 18.315, 8.250 17.751 C 8.938 17.522, 9.725 16.059, 10 14.500 C 10.738 10.316, 12.703 10.353, 14.471 14.584 C 15.326 16.632, 16.266 18.067, 16.559 17.774 C 17.174 17.159, 12.903 8, 12 8 C 11.669 8, 10.409 10.037, 9.199 12.527" stroke="none" fill="#000000" fill-rule="evenodd"/>
</svg>