<svg xmlns="http://www.w3.org/2000/svg" width="24" height="24" viewBox="0 0 24 24" version="1.1">
	<path d="M 11.174 3.314 C 9.978 4.587, 9 6.749, 9 8.118 C 9 9.656, 7.647 11.919, 5.461 14.038 C 3.267 16.164, 2.032 18.234, 2.211 19.484 C 2.693 22.845, 6.204 22.417, 9.962 18.539 C 12.177 16.254, 14.324 15, 16.022 15 C 19.296 15, 23 11.206, 23 7.852 C 23 4.181, 21.951 3.698, 19.328 6.161 C 16.305 9.002, 14.998 7.695, 17.839 4.672 C 19.037 3.396, 19.714 2.048, 19.342 1.676 C 17.859 0.193, 13.235 1.120, 11.174 3.314 M 12.578 4.914 C 11.625 5.967, 10.993 7.743, 11.173 8.860 C 11.382 10.163, 10.087 12.341, 7.565 14.928 C 2.432 20.192, 3.808 21.568, 9.072 16.435 C 11.659 13.913, 13.837 12.618, 15.140 12.827 C 17.217 13.162, 21 10.491, 21 8.690 C 21 8.140, 20.084 8.519, 18.965 9.532 C 16.982 11.326, 16.873 11.318, 14.778 9.222 C 12.682 7.127, 12.674 7.018, 14.468 5.035 C 15.481 3.916, 15.860 3, 15.310 3 C 14.760 3, 13.530 3.861, 12.578 4.914" stroke="none" fill="black" fill-rule="evenodd"/>
</svg>