<svg xmlns="http://www.w3.org/2000/svg" width="24" height="24" viewBox="0 0 24 24" version="1.1">
	<path d="M 16.008 1 C 14.521 1, 12.390 2.021, 11.174 3.314 C 9.978 4.587, 9 6.749, 9 8.118 C 9 9.656, 7.647 11.919, 5.461 14.038 C 3.267 16.164, 2.032 18.234, 2.211 19.484 C 2.373 20.616, 3.384 21.627, 4.516 21.789 C 5.766 21.968, 7.836 20.733, 9.962 18.539 C 12.177 16.254, 14.324 15, 16.022 15 C 17.477 15, 19.622 13.967, 20.826 12.686 C 22.022 11.413, 23 9.238, 23 7.852 C 23 6.467, 22.696 5.029, 22.324 4.658 C 21.952 4.286, 20.604 4.963, 19.328 6.161 C 18.052 7.360, 16.704 8.038, 16.333 7.667 C 15.962 7.296, 16.640 5.948, 17.839 4.672 C 19.037 3.396, 19.714 2.048, 19.342 1.676 C 18.971 1.304, 17.470 1, 16.008 1 M 15.310 3 C 14.760 3, 13.530 3.861, 12.578 4.914 C 11.625 5.967, 10.993 7.743, 11.173 8.860 C 11.382 10.163, 10.087 12.341, 7.565 14.928 C 5.401 17.147, 3.946 19.280, 4.333 19.667 C 4.720 20.054, 6.853 18.599, 9.072 16.435 C 11.659 13.913, 13.837 12.618, 15.140 12.827 C 16.257 13.007, 18.033 12.375, 19.086 11.422 C 20.139 10.470, 21 9.240, 21 8.690 C 21 8.140, 20.084 8.519, 18.965 9.532 C 16.982 11.326, 16.873 11.318, 14.778 9.222 C 12.682 7.127, 12.674 7.018, 14.468 5.035 C 15.481 3.916, 15.860 3, 15.310 3" stroke="none" fill="black" fill-rule="evenodd"/>
</svg>