<svg xmlns="http://www.w3.org/2000/svg" width="24" height="24" viewBox="0 0 24 24" version="1.1">
	<path d="M 3 3.570 C 3 3.883, 4.399 6.173, 6.110 8.659 L 9.219 13.179 5.928 16.574 C 1.655 20.983, 2.987 22.375, 7.392 18.105 L 10.754 14.846 12.945 17.923 C 14.539 20.161, 15.935 21, 18.068 21 C 19.681 21, 21 20.744, 21 20.430 C 21 20.117, 19.601 17.827, 17.890 15.341 L 14.781 10.821 18.072 7.426 C 22.345 3.017, 21.013 1.625, 16.608 5.895 L 13.246 9.154 11.055 6.077 C 9.461 3.839, 8.065 3, 5.932 3 C 4.319 3, 3 3.256, 3 3.570 M 11.138 12 C 13.947 15.850, 16.633 19, 17.107 19 C 17.581 19, 15.671 15.850, 12.862 12 C 10.053 8.150, 7.367 5, 6.893 5 C 6.419 5, 8.329 8.150, 11.138 12" stroke="none" fill="black" fill-rule="evenodd"/>
</svg>