<svg xmlns="http://www.w3.org/2000/svg" width="24" height="24" viewBox="0 0 24 24" version="1.1">
	<path d="M 7.500 1.894 C 3.457 3.652, 1.500 6.976, 1.500 12.082 C 1.500 16.074, 2.001 17.456, 4.273 19.727 C 6.557 22.011, 7.919 22.500, 12 22.500 C 19.011 22.500, 22.500 19.011, 22.500 12 C 22.500 7.999, 22 6.546, 19.903 4.448 C 17.099 1.644, 10.974 0.383, 7.500 1.894 M 7.443 4.418 C 6.376 5.198, 5.727 5.991, 6.002 6.179 C 6.276 6.367, 7.512 7.374, 8.750 8.416 L 11 10.310 11 6.655 C 11 2.662, 10.379 2.271, 7.443 4.418 M 13 6.655 L 13 10.310 15.250 8.416 C 16.488 7.374, 17.724 6.367, 17.998 6.179 C 18.600 5.766, 14.955 3, 13.809 3 C 13.364 3, 13 4.645, 13 6.655 M 3.461 9.064 C 2.514 10.595, 3.474 11.215, 6.164 10.809 L 8.500 10.456 6.311 9.225 C 4.785 8.368, 3.921 8.319, 3.461 9.064 M 17.397 9.500 C 15.600 10.861, 15.644 10.938, 18.250 10.968 C 19.762 10.986, 21 10.577, 21 10.059 C 21 8.316, 19.308 8.054, 17.397 9.500 M 3 13.941 C 3 15.684, 4.692 15.946, 6.603 14.500 C 8.400 13.139, 8.356 13.062, 5.750 13.032 C 4.237 13.014, 3 13.423, 3 13.941 M 17.397 14.500 C 19.308 15.946, 21 15.684, 21 13.941 C 21 13.423, 19.762 13.014, 18.250 13.032 C 15.644 13.062, 15.600 13.139, 17.397 14.500 M 8.021 16.129 C 5.609 18.135, 5.594 18.230, 7.462 19.596 C 10.359 21.714, 11 21.334, 11 17.500 C 11 15.575, 10.887 14.015, 10.750 14.033 C 10.613 14.052, 9.384 14.995, 8.021 16.129 M 13 17.345 C 13 19.355, 13.364 21, 13.809 21 C 14.955 21, 18.600 18.234, 17.998 17.821 C 17.724 17.633, 16.488 16.626, 15.250 15.584 L 13 13.690 13 17.345" stroke="none" fill="black" fill-rule="evenodd"/>
</svg>