<svg viewBox="0 0 24 24" xmlns="http://www.w3.org/2000/svg" fill="none" stroke="#000000" stroke-width="2" stroke-linecap="round" stroke-linejoin="round"><path d="M11.280 1.023 C 11.203 1.032,10.951 1.059,10.720 1.083 C 8.832 1.283,6.991 2.023,5.360 3.235 C 4.751 3.688,3.684 4.755,3.226 5.367 C 0.728 8.714,0.301 13.032,2.097 16.780 C 2.643 17.918,3.276 18.801,4.238 19.762 C 5.199 20.724,6.082 21.357,7.220 21.903 C 10.967 23.699,15.288 23.270,18.637 20.770 C 19.246 20.316,20.316 19.246,20.770 18.637 C 23.744 14.652,23.744 9.348,20.770 5.363 C 20.316 4.755,19.247 3.686,18.640 3.235 C 17.045 2.049,15.365 1.360,13.423 1.096 C 13.000 1.038,11.574 0.990,11.280 1.023 M11.000 6.562 C 11.000 9.337,10.990 10.039,10.950 10.015 C 10.922 9.999,9.681 9.116,8.192 8.053 C 6.702 6.989,5.437 6.102,5.379 6.080 L 5.275 6.040 5.435 5.850 C 5.606 5.647,6.021 5.265,6.418 4.944 C 7.409 4.143,8.898 3.444,10.120 3.205 C 10.351 3.160,10.576 3.115,10.620 3.106 C 10.664 3.097,10.768 3.087,10.850 3.085 L 11.000 3.080 11.000 6.562 M13.889 3.203 C 15.134 3.458,16.598 4.149,17.582 4.944 C 17.979 5.265,18.394 5.647,18.565 5.850 L 18.725 6.040 18.621 6.080 C 18.563 6.102,17.298 6.989,15.808 8.053 C 14.319 9.116,13.078 9.999,13.050 10.015 C 13.010 10.039,13.000 9.336,13.000 6.557 L 13.000 3.069 13.239 3.094 C 13.370 3.107,13.662 3.156,13.889 3.203 M6.532 9.324 C 7.768 10.207,8.797 10.945,8.818 10.964 C 8.840 10.985,7.663 11.000,5.962 11.000 L 3.069 11.000 3.094 10.761 C 3.173 10.000,3.496 8.931,3.904 8.082 C 4.152 7.564,4.164 7.548,4.223 7.632 C 4.257 7.680,5.296 8.442,6.532 9.324 M20.100 8.090 C 20.504 8.931,20.827 10.002,20.906 10.761 L 20.931 11.000 18.038 11.000 C 16.337 11.000,15.160 10.985,15.182 10.964 C 15.203 10.945,16.233 10.205,17.471 9.322 C 18.709 8.438,19.744 7.680,19.771 7.637 C 19.797 7.595,19.825 7.560,19.832 7.560 C 19.840 7.560,19.960 7.799,20.100 8.090 M8.799 13.054 C 8.766 13.084,7.759 13.808,6.560 14.662 C 5.361 15.517,4.329 16.266,4.267 16.328 L 4.154 16.439 3.900 15.910 C 3.496 15.069,3.173 13.998,3.094 13.239 L 3.069 13.000 5.963 13.000 C 8.404 13.000,8.848 13.009,8.799 13.054 M20.906 13.239 C 20.827 13.998,20.504 15.069,20.100 15.910 L 19.846 16.439 19.733 16.328 C 19.671 16.266,18.639 15.517,17.440 14.662 C 16.241 13.808,15.234 13.084,15.201 13.054 C 15.152 13.009,15.596 13.000,18.037 13.000 L 20.931 13.000 20.906 13.239 M11.000 17.453 L 11.000 20.947 10.750 20.914 C 9.860 20.796,8.828 20.472,7.980 20.042 C 7.039 19.566,6.381 19.093,5.654 18.371 L 5.268 17.988 5.404 17.917 C 5.479 17.879,6.764 16.973,8.260 15.904 C 9.756 14.835,10.984 13.960,10.990 13.960 C 10.995 13.960,11.000 15.532,11.000 17.453 M15.700 15.876 C 17.130 16.898,18.396 17.793,18.513 17.865 L 18.726 17.994 18.326 18.390 C 17.596 19.112,16.912 19.599,15.980 20.061 C 15.125 20.485,14.120 20.799,13.250 20.914 L 13.000 20.947 13.000 17.451 C 13.000 14.665,13.010 13.962,13.050 13.986 C 13.078 14.003,14.270 14.853,15.700 15.876 " stroke="none" fill-rule="evenodd" fill="black"></path></svg>