<svg xmlns="http://www.w3.org/2000/svg" width="24" height="24" viewBox="0 0 24 24" version="1.1">
	<path d="M 13.403 1.438 C 11.256 1.210, 8.600 1.416, 7.500 1.894 C 6.400 2.373, 4.600 3.764, 3.500 4.987 C 2.078 6.568, 1.500 8.618, 1.500 12.082 C 1.500 16.074, 2.001 17.456, 4.273 19.727 C 6.557 22.011, 7.919 22.500, 12 22.500 C 16.081 22.500, 17.443 22.011, 19.727 19.727 C 22.011 17.443, 22.500 16.081, 22.500 12 C 22.500 7.999, 22 6.546, 19.903 4.448 C 18.256 2.802, 15.876 1.699, 13.403 1.438 M 10.191 3 C 9.746 3, 8.509 3.638, 7.443 4.418 C 6.376 5.198, 5.727 5.991, 6.002 6.179 C 6.276 6.367, 7.512 7.374, 8.750 8.416 L 11 10.310 11 6.655 C 11 4.645, 10.636 3, 10.191 3 M 13.809 3 C 13.364 3, 13 4.645, 13 6.655 L 13 10.310 15.250 8.416 C 16.488 7.374, 17.724 6.367, 17.998 6.179 C 18.273 5.991, 17.624 5.198, 16.557 4.418 C 15.491 3.638, 14.254 3, 13.809 3 M 6.311 9.225 C 4.785 8.368, 3.921 8.319, 3.461 9.064 C 3.097 9.652, 3.031 10.364, 3.314 10.647 C 3.597 10.930, 4.879 11.003, 6.164 10.809 L 8.500 10.456 6.311 9.225 M 20.147 8.591 C 19.678 8.301, 18.441 8.710, 17.397 9.500 C 15.600 10.861, 15.644 10.938, 18.250 10.968 C 19.762 10.986, 21 10.577, 21 10.059 C 21 9.541, 20.616 8.881, 20.147 8.591 M 5.750 13.032 C 4.237 13.014, 3 13.423, 3 13.941 C 3 14.459, 3.384 15.119, 3.853 15.409 C 4.322 15.699, 5.559 15.290, 6.603 14.500 C 8.400 13.139, 8.356 13.062, 5.750 13.032 M 18.250 13.032 C 15.644 13.062, 15.600 13.139, 17.397 14.500 C 18.441 15.290, 19.678 15.699, 20.147 15.409 C 20.616 15.119, 21 14.459, 21 13.941 C 21 13.423, 19.762 13.014, 18.250 13.032 M 10.750 14.033 C 10.613 14.052, 9.384 14.995, 8.021 16.129 C 5.609 18.135, 5.594 18.230, 7.462 19.596 C 8.518 20.368, 9.746 21, 10.191 21 C 10.636 21, 11 19.425, 11 17.500 C 11 15.575, 10.887 14.015, 10.750 14.033 M 15.250 15.584 L 13 13.690 13 17.345 C 13 19.355, 13.364 21, 13.809 21 C 14.254 21, 15.491 20.362, 16.557 19.582 C 17.624 18.802, 18.273 18.009, 17.998 17.821 C 17.724 17.633, 16.488 16.626, 15.250 15.584" stroke="none" fill="black" fill-rule="evenodd"/>
</svg>