<svg xmlns="http://www.w3.org/2000/svg" width="24" height="24" viewBox="0 0 24 24" version="1.1">
	<path d="M 7.500 1.894 C 3.457 3.652, 1.500 6.976, 1.500 12.082 C 1.500 16.074, 2.001 17.456, 4.273 19.727 C 6.557 22.011, 7.919 22.500, 12 22.500 C 19.011 22.500, 22.500 19.011, 22.500 12 C 22.500 7.999, 22 6.546, 19.903 4.448 C 17.099 1.644, 10.974 0.383, 7.500 1.894 M 5.923 5.923 C 3.928 7.918, 3 9.848, 3 12 C 3 16.302, 7.698 21, 12 21 C 14.152 21, 16.082 20.072, 18.077 18.077 C 22.007 14.147, 22.007 9.853, 18.077 5.923 C 14.147 1.993, 9.853 1.993, 5.923 5.923 M 7 6.686 C 7 7.063, 7.978 8.413, 9.174 9.686 C 11.021 11.651, 11.096 12, 9.674 12 C 8.667 12, 8 12.796, 8 14 C 8 15.111, 8.667 16, 9.500 16 C 10.325 16, 11 16.675, 11 17.500 C 11 18.325, 11.450 19, 12 19 C 12.550 19, 13 18.325, 13 17.500 C 13 16.675, 13.675 16, 14.500 16 C 15.333 16, 16 15.111, 16 14 C 16 12.796, 15.333 12, 14.326 12 C 12.939 12, 13.054 11.571, 14.996 9.504 C 17.762 6.559, 16.923 4.855, 14.006 7.494 C 12.136 9.187, 11.876 9.198, 10.171 7.655 C 8.249 5.916, 7 5.534, 7 6.686" stroke="none" fill="black" fill-rule="evenodd"/>
</svg>