<svg viewBox="0 0 24 24" xmlns="http://www.w3.org/2000/svg"><path d="M11.260 2.024 C 9.314 2.221,7.739 2.785,6.280 3.806 C 2.738 6.286,1.178 10.759,2.422 14.865 C 2.918 16.499,3.728 17.850,4.939 19.061 C 5.713 19.836,6.453 20.383,7.377 20.863 C 10.286 22.376,13.714 22.376,16.623 20.863 C 17.547 20.383,18.287 19.836,19.061 19.061 C 19.823 18.299,20.375 17.557,20.841 16.667 C 23.692 11.220,21.058 4.567,15.249 2.545 C 14.288 2.211,13.319 2.044,12.200 2.023 C 11.771 2.014,11.348 2.015,11.260 2.024 " stroke="none" fill-rule="evenodd" fill="black"></path></svg>