<svg xmlns="http://www.w3.org/2000/svg" width="24" height="24" viewBox="0 0 24 24" version="1.1">
	<path d="M 7.500 1.894 C 3.457 3.652, 1.500 6.976, 1.500 12.082 C 1.500 16.074, 2.001 17.456, 4.273 19.727 C 6.557 22.011, 7.919 22.500, 12 22.500 C 19.011 22.500, 22.500 19.011, 22.500 12 C 22.500 7.999, 22 6.546, 19.903 4.448 C 17.099 1.644, 10.974 0.383, 7.500 1.894 M 9.200 4.200 C 6.404 6.996, 8.224 10.180, 13.313 11.397 C 15.185 11.845, 16.566 13.116, 17.441 15.197 C 18.709 18.213, 18.796 18.250, 19.878 16.228 C 21.809 12.620, 21.181 9.027, 18.077 5.923 C 15.030 2.877, 11.256 2.144, 9.200 4.200 M 10.446 6.087 C 9.416 7.755, 11.733 9.667, 13.113 8.287 C 14.267 7.133, 13.545 5, 12 5 C 11.515 5, 10.816 5.489, 10.446 6.087 M 4.122 7.772 C 2.177 11.407, 2.819 14.973, 5.990 18.144 C 9.335 21.489, 13.511 21.758, 15.394 18.750 C 16.929 16.299, 15.136 13.792, 11.100 12.746 C 8.827 12.157, 7.475 10.981, 6.554 8.792 C 5.290 5.785, 5.205 5.749, 4.122 7.772 M 10.446 16.087 C 9.416 17.755, 11.733 19.667, 13.113 18.287 C 14.267 17.133, 13.545 15, 12 15 C 11.515 15, 10.816 15.489, 10.446 16.087" stroke="none" fill="black" fill-rule="evenodd"/>
</svg>