<svg xmlns="http://www.w3.org/2000/svg" width="24" height="24" viewBox="0 0 24 24" version="1.1">
	<path d="M 1.571 4.571 C -0.633 6.776, -0.605 17.253, 1.611 19.092 C 2.687 19.985, 6.151 20.429, 12.045 20.429 C 23.495 20.429, 25 19.296, 25 10.678 C 25 7.372, 24.721 4.945, 24.381 5.286 C 24.040 5.626, 23.108 5.251, 22.310 4.452 C 20.170 2.313, 3.735 2.407, 1.571 4.571 M 3.200 6.200 C 1.938 7.462, 1.574 13.727, 2.607 16.418 C 3.500 18.745, 20.500 18.745, 21.393 16.418 C 22.426 13.727, 22.062 7.462, 20.800 6.200 C 19.197 4.597, 4.803 4.597, 3.200 6.200 M 0.320 12 C 0.320 15.575, 0.502 17.038, 0.723 15.250 C 0.945 13.462, 0.945 10.538, 0.723 8.750 C 0.502 6.962, 0.320 8.425, 0.320 12 M 9 11.480 C 9 13.966, 9.338 15.998, 9.750 15.996 C 10.766 15.991, 17 12.155, 17 11.535 C 17 11.263, 15.200 10.122, 13 9 L 9 6.959 9 11.480 M 11 12.059 C 11 12.641, 11.450 12.840, 12 12.500 C 12.550 12.160, 13 11.684, 13 11.441 C 13 11.198, 12.550 11, 12 11 C 11.450 11, 11 11.477, 11 12.059" stroke="none" fill="black" fill-rule="evenodd"/>
</svg>