<svg xmlns="http://www.w3.org/2000/svg" width="24" height="24" viewBox="0 0 24 24" version="1.1">
	<path d="M 12 3 C 5.281 3, 2.763 3.379, 1.571 4.571 C 0.504 5.639, 0 8.004, 0 11.949 C 0 16.067, 0.468 18.144, 1.611 19.092 C 2.687 19.985, 6.151 20.429, 12.045 20.429 C 19.260 20.429, 21.246 20.088, 22.934 18.559 C 24.585 17.065, 25 15.484, 25 10.678 C 25 7.372, 24.721 4.945, 24.381 5.286 C 24.040 5.626, 23.108 5.251, 22.310 4.452 C 21.258 3.401, 18.411 3, 12 3 M 12 5 C 7.422 5, 3.923 5.477, 3.200 6.200 C 2.540 6.860, 2 9.073, 2 11.118 C 2 13.163, 2.273 15.548, 2.607 16.418 C 3.097 17.695, 4.911 18, 12 18 C 19.089 18, 20.903 17.695, 21.393 16.418 C 21.727 15.548, 22 13.163, 22 11.118 C 22 9.073, 21.460 6.860, 20.800 6.200 C 20.077 5.477, 16.578 5, 12 5 M 0.723 8.750 C 0.502 6.962, 0.320 8.425, 0.320 12 C 0.320 15.575, 0.502 17.038, 0.723 15.250 C 0.945 13.462, 0.945 10.538, 0.723 8.750 M 13 9 L 9 6.959 9 11.480 C 9 13.966, 9.338 15.998, 9.750 15.996 C 10.162 15.994, 11.962 15.101, 13.750 14.011 C 15.538 12.921, 17 11.807, 17 11.535 C 17 11.263, 15.200 10.122, 13 9 M 12 11 C 11.450 11, 11 11.477, 11 12.059 C 11 12.641, 11.450 12.840, 12 12.500 C 12.550 12.160, 13 11.684, 13 11.441 C 13 11.198, 12.550 11, 12 11" stroke="none" fill="black" fill-rule="evenodd"/>
</svg>