<svg viewBox="0 0 24 24" xmlns="http://www.w3.org/2000/svg" fill="none" stroke="#000000" stroke-width="2" stroke-linecap="round" stroke-linejoin="round"><path d="M5.499 1.043 C 4.380 1.233,3.461 2.048,3.114 3.160 L 3.020 3.460 3.020 12.000 L 3.020 20.540 3.114 20.840 C 3.422 21.827,4.173 22.578,5.160 22.886 L 5.460 22.980 12.000 22.980 L 18.540 22.980 18.840 22.886 C 19.827 22.578,20.578 21.827,20.886 20.840 L 20.980 20.540 20.980 12.000 L 20.980 3.460 20.886 3.160 C 20.581 2.182,19.832 1.428,18.861 1.121 L 18.540 1.020 12.120 1.014 C 8.589 1.011,5.609 1.024,5.499 1.043 M9.010 10.653 L 9.020 18.306 9.141 18.503 C 9.543 19.156,10.457 19.156,10.859 18.503 L 10.980 18.306 10.992 16.653 L 11.003 15.000 12.000 15.000 L 12.997 15.000 13.008 16.653 L 13.020 18.306 13.141 18.503 C 13.543 19.156,14.457 19.156,14.859 18.503 L 14.980 18.306 14.990 10.653 L 15.001 3.000 16.553 3.000 C 18.350 3.000,18.401 3.007,18.697 3.303 C 19.026 3.632,19.000 2.891,19.000 12.001 C 19.000 18.754,18.991 20.138,18.945 20.290 C 18.872 20.533,18.707 20.740,18.484 20.872 L 18.300 20.980 12.000 20.980 L 5.700 20.980 5.516 20.872 C 5.415 20.813,5.284 20.700,5.225 20.623 C 4.985 20.308,5.000 20.888,5.000 12.022 C 5.000 2.888,4.974 3.632,5.304 3.303 C 5.596 3.011,5.629 3.006,7.430 3.003 L 8.999 3.000 9.010 10.653 M13.000 4.000 L 13.000 5.000 12.000 5.000 L 11.000 5.000 11.000 4.000 L 11.000 3.000 12.000 3.000 L 13.000 3.000 13.000 4.000 M13.000 8.000 L 13.000 9.000 12.000 9.000 L 11.000 9.000 11.000 8.000 L 11.000 7.000 12.000 7.000 L 13.000 7.000 13.000 8.000 M13.000 12.000 L 13.000 13.000 12.000 13.000 L 11.000 13.000 11.000 12.000 L 11.000 11.000 12.000 11.000 L 13.000 11.000 13.000 12.000 " stroke="none" fill-rule="evenodd" fill="black"></path></svg>