<svg xmlns="http://www.w3.org/2000/svg" width="24" height="24" viewBox="0 0 24 24" version="1.1">
	<path d="M 3.444 2.284 C 3.156 3.035, 3.051 7.891, 3.210 13.075 L 3.500 22.500 12 22.500 L 20.500 22.500 20.500 12 L 20.500 1.500 12.234 1.209 C 5.965 0.989, 3.842 1.248, 3.444 2.284 M 5 12 L 5 21 12 21 L 19 21 19 12 C 19 3.667, 18.852 3, 17 3 C 15.167 3, 15 3.667, 15 11 C 15 15.667, 14.583 19, 14 19 C 13.450 19, 13 18.100, 13 17 C 13 15.900, 12.550 15, 12 15 C 11.450 15, 11 15.900, 11 17 C 11 18.100, 10.550 19, 10 19 C 9.417 19, 9 15.667, 9 11 C 9 3.667, 8.833 3, 7 3 C 5.148 3, 5 3.667, 5 12 M 11 4 C 11 4.550, 11.450 5, 12 5 C 12.550 5, 13 4.550, 13 4 C 13 3.450, 12.550 3, 12 3 C 11.450 3, 11 3.450, 11 4 M 11 8 C 11 8.550, 11.450 9, 12 9 C 12.550 9, 13 8.550, 13 8 C 13 7.450, 12.550 7, 12 7 C 11.450 7, 11 7.450, 11 8 M 11 12 C 11 12.550, 11.450 13, 12 13 C 12.550 13, 13 12.550, 13 12 C 13 11.450, 12.550 11, 12 11 C 11.450 11, 11 11.450, 11 12" stroke="none" fill="#000000" fill-rule="evenodd"/>
</svg>