<svg xmlns="http://www.w3.org/2000/svg" width="24" height="24" viewBox="0 0 24 24" version="1.1">
	<path d="M 5.763 2 C 5.343 2, 5 2.810, 5 3.800 C 5 4.790, 5.551 6.151, 6.225 6.825 C 7.192 7.792, 7.192 8.464, 6.225 10.011 C 5.551 11.090, 5 13.026, 5 14.312 C 5 15.599, 6.042 17.630, 7.314 18.826 C 8.587 20.022, 10.759 21, 12.140 21 C 13.521 21, 15.630 19.958, 16.826 18.686 C 18.022 17.413, 19 15.381, 19 14.172 C 19 12.962, 18.449 11.090, 17.775 10.011 C 16.808 8.464, 16.808 7.792, 17.775 6.825 C 18.449 6.151, 19 4.790, 19 3.800 C 19 2.810, 18.657 2, 18.237 2 C 17.818 2, 17.030 3.012, 16.487 4.250 C 15.734 5.967, 14.670 6.500, 12 6.500 C 9.330 6.500, 8.266 5.967, 7.513 4.250 C 6.970 3.012, 6.182 2, 5.763 2 M 12 10 C 10.570 10, 8.860 10.540, 8.200 11.200 C 7.540 11.860, 7 13.140, 7 14.045 C 7 14.950, 7.823 16.435, 8.829 17.345 C 9.835 18.255, 11.340 19, 12.174 19 C 13.008 19, 14.435 18.177, 15.345 17.171 C 16.255 16.165, 17 14.680, 17 13.871 C 17 13.062, 16.460 11.860, 15.800 11.200 C 15.140 10.540, 13.430 10, 12 10" stroke="none" fill="black" fill-rule="evenodd"/>
</svg>