<svg xmlns="http://www.w3.org/2000/svg" width="24" height="24" viewBox="0 0 24 24" version="1.1">
	<path d="M 6.078 8 C 5.155 8, 3.860 8.540, 3.200 9.200 C 2.540 9.860, 2 11.194, 2 12.164 C 2 13.134, 3.679 15.069, 5.732 16.464 C 7.785 17.859, 10.605 19, 12 19 C 13.395 19, 16.242 17.841, 18.327 16.423 C 21.008 14.602, 22.028 13.240, 21.810 11.776 C 21.639 10.636, 20.713 9.211, 19.750 8.607 C 18.474 7.807, 17.526 7.817, 16.250 8.643 C 15.147 9.357, 14.552 10.901, 14.640 12.823 C 14.723 14.610, 14.206 16.091, 13.390 16.404 C 12.626 16.697, 11.328 16.679, 10.507 16.364 C 9.494 15.975, 9.208 15.018, 9.619 13.383 C 9.954 12.048, 9.673 10.311, 8.989 9.487 C 8.310 8.669, 7 8, 6.078 8 M 6.375 10.292 C 5.825 10.108, 5.066 10.268, 4.688 10.646 C 4.309 11.024, 4.007 11.821, 4.015 12.417 C 4.024 13.012, 4.474 12.825, 5.015 12 C 5.891 10.667, 6.120 10.667, 7.076 12 C 7.953 13.222, 8.080 13.234, 7.764 12.063 C 7.550 11.272, 6.925 10.475, 6.375 10.292 M 18.375 10.292 C 17.825 10.108, 17.066 10.268, 16.688 10.646 C 16.309 11.024, 16.007 11.821, 16.015 12.417 C 16.024 13.012, 16.474 12.825, 17.015 12 C 17.891 10.667, 18.120 10.667, 19.076 12 C 19.953 13.222, 20.080 13.234, 19.764 12.063 C 19.550 11.272, 18.925 10.475, 18.375 10.292" stroke="none" fill="black" fill-rule="evenodd"/>
</svg>