<svg viewBox="0 0 24 24" xmlns="http://www.w3.org/2000/svg" fill="none" stroke="#000000" stroke-width="2" stroke-linecap="round" stroke-linejoin="round"><path d="M12.695 3.057 C 12.466 3.129,12.256 3.299,12.128 3.516 C 12.025 3.691,12.020 3.725,12.022 4.220 C 12.027 5.757,12.440 6.981,13.643 9.020 C 14.436 10.364,14.752 11.099,14.899 11.939 C 15.068 12.910,14.993 14.239,14.714 15.240 C 14.604 15.634,14.326 16.225,14.106 16.533 C 13.903 16.816,13.508 17.205,13.227 17.396 C 12.757 17.717,12.026 17.945,11.344 17.983 C 11.122 17.995,10.856 18.024,10.754 18.046 C 10.510 18.099,10.266 18.282,10.129 18.514 C 10.036 18.672,10.020 18.745,10.020 19.000 C 10.020 19.257,10.036 19.327,10.133 19.492 C 10.263 19.714,10.502 19.901,10.736 19.965 C 10.959 20.026,11.714 19.985,12.242 19.882 C 14.646 19.415,16.291 17.709,16.795 15.160 C 16.944 14.403,16.978 14.032,16.979 13.140 C 16.981 11.232,16.648 10.173,15.358 7.980 C 14.391 6.338,14.142 5.685,14.041 4.537 C 14.018 4.275,13.991 3.973,13.981 3.866 C 13.946 3.498,13.665 3.168,13.290 3.055 C 13.068 2.988,12.913 2.989,12.695 3.057 M5.358 12.061 C 4.230 12.237,3.143 12.974,2.569 13.953 C 1.320 16.083,2.233 18.785,4.512 19.704 C 6.558 20.528,8.877 19.538,9.704 17.488 C 10.090 16.530,10.090 15.469,9.705 14.516 C 9.172 13.197,8.001 12.269,6.605 12.058 C 6.144 11.989,5.816 11.990,5.358 12.061 M6.523 14.073 C 7.262 14.266,7.850 14.924,7.967 15.690 C 8.067 16.343,7.873 16.933,7.403 17.404 C 7.002 17.807,6.547 18.000,6.000 18.000 C 5.485 18.000,5.038 17.822,4.653 17.465 C 3.323 16.229,4.189 14.005,6.000 14.005 C 6.143 14.005,6.378 14.036,6.523 14.073 " stroke="none" fill-rule="evenodd" fill="black"></path></svg>