<svg xmlns="http://www.w3.org/2000/svg" width="24" height="24" viewBox="0 0 24 24" version="1.1">
	<path d="M 12.633 3.004 C 12.157 3.002, 11.999 4.012, 12.282 5.250 C 12.565 6.488, 13.367 8.896, 14.062 10.603 C 14.758 12.309, 15.026 14.489, 14.659 15.447 C 14.291 16.406, 13.092 17.425, 11.995 17.712 C 10.898 17.999, 10 18.631, 10 19.117 C 10 19.602, 10.874 20, 11.943 20 C 13.012 20, 14.587 19, 15.443 17.777 C 16.299 16.555, 17 14.647, 17 13.538 C 17 12.429, 16.212 9.605, 15.250 7.264 C 14.287 4.923, 13.110 3.006, 12.633 3.004 M 6 12 C 5.035 12, 3.703 12.653, 3.040 13.452 C 2.377 14.251, 1.985 15.665, 2.167 16.595 C 2.350 17.525, 3.288 18.782, 4.250 19.388 C 5.525 20.190, 6.475 20.190, 7.750 19.388 C 8.713 18.782, 9.650 17.525, 9.833 16.595 C 10.015 15.665, 9.623 14.251, 8.960 13.452 C 8.297 12.653, 6.965 12, 6 12 M 6 14 C 5.515 14, 4.816 14.489, 4.446 15.087 C 4.077 15.685, 4.275 16.675, 4.887 17.287 C 5.704 18.104, 6.296 18.104, 7.113 17.287 C 7.725 16.675, 7.923 15.685, 7.554 15.087 C 7.184 14.489, 6.485 14, 6 14" stroke="none" fill="black" fill-rule="evenodd"/>
</svg>