<svg xmlns="http://www.w3.org/2000/svg" width="24" height="24" viewBox="0 0 24 24" version="1.1">
	<path d="M 3.522 3.976 C 1.420 6.298, 1.618 9.618, 4 12 C 5.850 13.850, 9 14.750, 9 13.429 C 9 12.418, 6.180 10, 5.002 10 C 3.349 10, 4.212 5.885, 6.114 4.693 C 7.002 4.137, 8.464 3.964, 9.364 4.309 C 10.702 4.823, 11 6.493, 11 13.469 C 11 18.490, 11.411 22, 12 22 C 12.589 22, 13 18.490, 13 13.469 C 13 6.493, 13.298 4.823, 14.636 4.309 C 15.536 3.964, 16.998 4.137, 17.886 4.693 C 19.788 5.885, 20.651 10, 18.998 10 C 17.403 10, 14.617 12.951, 15.438 13.771 C 16.651 14.985, 21.492 11.490, 21.827 9.159 C 22.007 7.908, 21.478 5.852, 20.650 4.589 C 19.317 2.555, 18.345 2.294, 12.095 2.294 C 6.759 2.294, 4.674 2.703, 3.522 3.976" stroke="none" fill="#000000" fill-rule="evenodd"/>
</svg>