<svg viewBox="0 0 24 24" xmlns="http://www.w3.org/2000/svg" fill="none" stroke="#000000" stroke-width="2" stroke-linecap="round" stroke-linejoin="round"><path d="M11.400 9.044 C 9.761 9.229,8.261 10.290,7.526 11.785 C 7.359 12.124,7.183 12.608,7.139 12.850 L 7.111 13.000 5.502 13.000 C 3.754 13.000,3.659 13.010,3.382 13.221 C 3.302 13.282,3.187 13.415,3.128 13.516 C 3.037 13.672,3.020 13.746,3.020 14.000 C 3.020 14.256,3.036 14.328,3.131 14.489 C 3.256 14.702,3.449 14.864,3.670 14.943 C 3.788 14.985,4.286 14.997,6.020 14.998 L 8.220 14.999 8.420 14.905 C 8.819 14.716,8.977 14.432,9.014 13.840 C 9.091 12.560,9.926 11.495,11.139 11.125 C 11.412 11.042,11.542 11.027,12.000 11.027 C 12.458 11.027,12.588 11.042,12.861 11.125 C 14.074 11.495,14.909 12.560,14.986 13.840 C 15.023 14.432,15.181 14.716,15.580 14.905 L 15.780 14.999 17.980 14.998 C 19.714 14.997,20.212 14.985,20.330 14.943 C 20.551 14.864,20.744 14.702,20.869 14.489 C 20.964 14.328,20.980 14.256,20.980 14.000 C 20.980 13.746,20.963 13.672,20.872 13.516 C 20.813 13.415,20.698 13.282,20.618 13.221 C 20.341 13.010,20.246 13.000,18.500 13.000 L 16.893 13.000 16.842 12.773 C 16.660 11.961,16.116 11.031,15.452 10.396 C 14.365 9.358,12.912 8.874,11.400 9.044 M3.695 18.057 C 3.466 18.129,3.256 18.299,3.128 18.516 C 3.037 18.672,3.020 18.746,3.020 19.000 C 3.020 19.256,3.036 19.328,3.131 19.489 C 3.256 19.702,3.449 19.864,3.670 19.943 C 3.893 20.022,20.107 20.022,20.330 19.943 C 20.551 19.864,20.744 19.702,20.869 19.489 C 20.964 19.328,20.980 19.256,20.980 19.000 C 20.980 18.746,20.963 18.672,20.872 18.516 C 20.740 18.293,20.533 18.128,20.290 18.055 C 20.027 17.976,3.947 17.978,3.695 18.057 " stroke="none" fill-rule="evenodd" fill="black"></path></svg>