<svg xmlns="http://www.w3.org/2000/svg" width="24" height="24" viewBox="0 0 24 24" version="1.1">
	<path d="M 12.095 2.294 C 6.759 2.294, 4.674 2.703, 3.522 3.976 C 2.685 4.901, 2 6.635, 2 7.829 C 2 9.023, 2.900 10.900, 4 12 C 5.100 13.100, 6.675 14, 7.500 14 C 8.325 14, 9 13.743, 9 13.429 C 9 13.114, 8.357 12.214, 7.571 11.429 C 6.786 10.643, 5.629 10, 5.002 10 C 4.374 10, 4.005 9.033, 4.180 7.852 C 4.356 6.671, 5.226 5.249, 6.114 4.693 C 7.002 4.137, 8.464 3.964, 9.364 4.309 C 10.702 4.823, 11 6.493, 11 13.469 C 11 18.490, 11.411 22, 12 22 C 12.589 22, 13 18.490, 13 13.469 C 13 6.493, 13.298 4.823, 14.636 4.309 C 15.536 3.964, 16.998 4.137, 17.886 4.693 C 18.774 5.249, 19.644 6.671, 19.820 7.852 C 19.995 9.033, 19.626 10, 18.998 10 C 18.371 10, 17.161 10.696, 16.310 11.548 C 15.458 12.399, 15.066 13.399, 15.438 13.771 C 15.809 14.143, 17.325 13.769, 18.807 12.940 C 20.288 12.111, 21.647 10.410, 21.827 9.159 C 22.007 7.908, 21.478 5.852, 20.650 4.589 C 19.317 2.555, 18.345 2.294, 12.095 2.294" stroke="none" fill="black" fill-rule="evenodd"/>
</svg>