<svg xmlns="http://www.w3.org/2000/svg" width="24" height="24" viewBox="0 0 24 24" version="1.1">
	<path d="M 12 9 C 10.889 9, 9.210 9.900, 8.268 11 C 7.326 12.100, 5.756 13, 4.778 13 C 3.800 13, 3 13.450, 3 14 C 3 14.550, 4.165 15, 5.590 15 C 7.043 15, 9.018 14.012, 10.090 12.750 L 12 10.500 13.910 12.750 C 14.982 14.012, 16.957 15, 18.410 15 C 19.835 15, 21 14.550, 21 14 C 21 13.450, 20.200 13, 19.222 13 C 18.244 13, 16.674 12.100, 15.732 11 C 14.790 9.900, 13.111 9, 12 9 M 12 18 C 6.667 18, 3 18.407, 3 19 C 3 19.593, 6.667 20, 12 20 C 17.333 20, 21 19.593, 21 19 C 21 18.407, 17.333 18, 12 18" stroke="none" fill="black" fill-rule="evenodd"/>
</svg>