<svg xmlns="http://www.w3.org/2000/svg" width="24" height="24" viewBox="0 0 24 24" version="1.1">
	<path d="M 3.200 9.200 C 1.048 11.352, 1.929 13.880, 5.732 16.464 C 10.458 19.675, 13.556 19.665, 18.327 16.423 C 22.427 13.638, 22.975 10.629, 19.750 8.607 C 17.080 6.933, 14.468 9.088, 14.640 12.823 C 14.787 15.995, 13.165 17.384, 10.507 16.364 C 9.494 15.975, 9.208 15.018, 9.619 13.383 C 10.676 9.172, 6.166 6.234, 3.200 9.200 M 4.688 10.646 C 4.309 11.024, 4.007 11.821, 4.015 12.417 C 4.024 13.012, 4.474 12.825, 5.015 12 C 5.891 10.667, 6.120 10.667, 7.076 12 C 7.953 13.222, 8.080 13.234, 7.764 12.063 C 7.314 10.398, 5.685 9.648, 4.688 10.646 M 16.688 10.646 C 16.309 11.024, 16.007 11.821, 16.015 12.417 C 16.024 13.012, 16.474 12.825, 17.015 12 C 17.891 10.667, 18.120 10.667, 19.076 12 C 19.953 13.222, 20.080 13.234, 19.764 12.063 C 19.314 10.398, 17.685 9.648, 16.688 10.646" stroke="none" fill="#000000" fill-rule="evenodd"/>
</svg>