<svg xmlns="http://www.w3.org/2000/svg" width="24" height="24" viewBox="0 0 24 24" version="1.1">
	<path d="M 12.282 5.250 C 12.565 6.488, 13.367 8.896, 14.062 10.603 C 15.557 14.268, 14.766 16.987, 11.995 17.712 C 9.437 18.381, 9.400 20, 11.943 20 C 14.213 20, 17 16.438, 17 13.538 C 17 10.876, 13.739 3.009, 12.633 3.004 C 12.157 3.002, 11.999 4.012, 12.282 5.250 M 3.040 13.452 C 0.383 16.653, 4.285 21.570, 7.750 19.388 C 8.713 18.782, 9.650 17.525, 9.833 16.595 C 10.578 12.807, 5.518 10.466, 3.040 13.452 M 4.446 15.087 C 3.416 16.755, 5.733 18.667, 7.113 17.287 C 8.267 16.133, 7.545 14, 6 14 C 5.515 14, 4.816 14.489, 4.446 15.087" stroke="none" fill="black" fill-rule="evenodd"/>
</svg>