<svg xmlns="http://www.w3.org/2000/svg" width="24" height="24" viewBox="0 0 24 24" version="1.1">
	<path d="M 5 3.800 C 5 4.790, 5.551 6.151, 6.225 6.825 C 7.192 7.792, 7.192 8.464, 6.225 10.011 C 4.342 13.027, 4.762 16.428, 7.314 18.826 C 13.313 24.461, 22.149 17.015, 17.775 10.011 C 16.808 8.464, 16.808 7.792, 17.775 6.825 C 19.120 5.480, 19.453 2, 18.237 2 C 17.818 2, 17.030 3.012, 16.487 4.250 C 15.734 5.967, 14.670 6.500, 12 6.500 C 9.330 6.500, 8.266 5.967, 7.513 4.250 C 6.327 1.547, 5 1.309, 5 3.800 M 8.200 11.200 C 6.467 12.933, 6.724 15.440, 8.829 17.345 C 11.206 19.496, 13.291 19.440, 15.345 17.171 C 18.464 13.725, 16.726 10, 12 10 C 10.570 10, 8.860 10.540, 8.200 11.200" stroke="none" fill="#000000" fill-rule="evenodd"/>
</svg>