<svg xmlns="http://www.w3.org/2000/svg" width="24" height="24" viewBox="0 0 24 24" version="1.1">
	<path d="M 5.955 6 C 5.600 6, 4.493 6.903, 3.494 8.006 C 2.496 9.110, 1.965 10.299, 2.315 10.649 C 2.665 10.999, 3.638 10.716, 4.476 10.020 C 5.693 9.010, 6.302 9.006, 7.500 10 C 8.697 10.993, 9.303 10.993, 10.500 10 C 11.697 9.007, 12.303 9.007, 13.500 10 C 14.697 10.993, 15.303 10.993, 16.500 10 C 17.698 9.006, 18.307 9.010, 19.524 10.020 C 20.362 10.716, 21.350 10.983, 21.719 10.615 C 22.087 10.246, 21.426 8.981, 20.249 7.805 C 18.461 6.016, 17.854 5.877, 16.555 6.955 C 15.312 7.986, 14.699 7.995, 13.500 7 C 12.301 6.005, 11.690 6.012, 10.458 7.035 C 9.289 8.005, 8.634 8.034, 7.758 7.158 C 7.121 6.521, 6.310 6, 5.955 6 M 5.955 13 C 5.600 13, 4.493 13.903, 3.494 15.006 C 2.496 16.110, 1.965 17.299, 2.315 17.649 C 2.665 17.999, 3.638 17.716, 4.476 17.020 C 5.693 16.010, 6.302 16.006, 7.500 17 C 8.697 17.993, 9.303 17.993, 10.500 17 C 11.697 16.007, 12.303 16.007, 13.500 17 C 14.697 17.993, 15.303 17.993, 16.500 17 C 17.698 16.006, 18.307 16.010, 19.524 17.020 C 20.362 17.716, 21.350 17.983, 21.719 17.615 C 22.087 17.246, 21.426 15.981, 20.249 14.805 C 18.461 13.016, 17.854 12.877, 16.555 13.955 C 15.312 14.986, 14.699 14.995, 13.500 14 C 12.301 13.005, 11.690 13.012, 10.458 14.035 C 9.289 15.005, 8.634 15.034, 7.758 14.158 C 7.121 13.521, 6.310 13, 5.955 13" stroke="none" fill="black" fill-rule="evenodd"/>
</svg>