<svg xmlns="http://www.w3.org/2000/svg" width="24" height="24" viewBox="0 0 24 24" version="1.1">
	<path d="M 2.440 3.296 C 2.151 4.050, 2.046 8.455, 2.207 13.084 L 2.500 21.500 12 21.500 L 21.500 21.500 21.500 12 L 21.500 2.500 12.233 2.212 C 5.103 1.991, 2.845 2.241, 2.440 3.296 M 4 12 L 4 20 12 20 L 20 20 20 12 L 20 4 12 4 L 4 4 4 12 M 11 9 C 11 10.333, 10.333 11, 9 11 C 7.900 11, 7 11.450, 7 12 C 7 12.550, 7.900 13, 9 13 C 10.333 13, 11 13.667, 11 15 C 11 16.100, 11.450 17, 12 17 C 12.550 17, 13 16.100, 13 15 C 13 13.667, 13.667 13, 15 13 C 16.100 13, 17 12.550, 17 12 C 17 11.450, 16.100 11, 15 11 C 13.667 11, 13 10.333, 13 9 C 13 7.900, 12.550 7, 12 7 C 11.450 7, 11 7.900, 11 9" stroke="none" fill="black" fill-rule="evenodd"/>
</svg>