<svg viewBox="0 0 24 24" xmlns="http://www.w3.org/2000/svg" fill="none" stroke="#000000" stroke-width="2" stroke-linecap="round" stroke-linejoin="round"><path d="M12 5c.67 0 1.35.09 2 .26 1.78-2 5.03-2.84 6.42-2.26 1.4.58-.42 7-.42 7 .57 1.07 1 2.24 1 3.44C21 17.9 16.97 21 12 21S3 17.9 3 13.44c0-1.2.43-2.37 1-3.44 0 0-1.82-6.42-.42-7 1.39-.58 4.64.26 6.42 2.26.65-.17 1.33-.26 2-.26z"/><line x1="9" y1="13" x2="9.01" y2="13"/><line x1="15" y1="13" x2="15.01" y2="13"/><path d="M15 16l-3 1-3-1"/></svg>